ply
format ascii 1.0
element vertex 1647
property float32 x
property float32 y
property float32 z
property float32 I
end_header
-3.6023 7.3305 1.5806 0.9673
-3.5950 7.3155 1.2980 0.9675
9.5848 -6.5796 1.8513 0.9540
9.5685 -5.9593 1.6034 0.9555
-3.5913 7.3082 1.1582 0.9676
9.2393 -6.3424 1.5940 0.9557
8.8923 -6.7060 1.3957 0.9561
9.3476 -5.8217 1.3800 0.9566
9.1295 -7.5457 1.4843 0.9534
9.0403 -6.2058 1.3741 0.9568
8.7330 -6.5858 1.1864 0.9569
8.7870 -7.2626 1.2365 0.9552
8.9028 -6.1115 1.1713 0.9575
9.6689 -5.4396 1.2033 0.9563
8.6331 -6.5105 0.9913 0.9575
10.2952 -5.2024 1.0575 0.9547
-3.5805 7.2861 0.7443 0.9679
8.6229 -7.1271 1.0256 0.9561
9.5400 -5.3671 1.0035 0.9570
10.1105 -5.1091 0.8489 0.9556
-3.5770 7.2789 0.6078 0.9680
8.5074 -7.0316 0.8271 0.9567
8.7283 -5.9917 0.7934 0.9584
9.4342 -5.3076 0.8112 0.9575
8.4989 -6.4093 0.6200 0.9582
9.9900 -5.0482 0.6519 0.9561
8.6831 -5.9606 0.6134 0.9587
8.5988 -7.7772 0.4821 0.9546
8.4527 -6.3745 0.4402 0.9585
8.6386 -5.9301 0.4357 0.9589
9.3154 -5.2407 0.4444 0.9581
8.4340 -6.3604 0.2634 0.9586
8.8984 -5.5420 0.2614 0.9589
-3.5664 7.2573 0.2017 0.9682
8.6213 -5.9182 0.2608 0.9590
9.2916 -5.2274 0.2659 0.9582
8.3324 -6.8869 0.0898 0.9577
8.6071 -5.9085 0.0868 0.9591
8.4984 -7.6864 -0.0952 0.9552
8.4239 -6.3528 -0.0877 0.9587
8.8883 -5.5357 -0.0870 0.9590
8.3374 -6.8910 -0.0899 0.9577
8.6116 -5.9115 -0.0868 0.9591
8.5397 -7.7237 -0.2872 0.9550
8.4386 -6.3638 -0.2636 0.9586
8.6257 -5.9212 -0.2609 0.9590
8.9308 -5.5621 -0.4375 0.9588
8.3931 -6.9371 -0.4528 0.9573
8.6524 -5.9396 -0.4364 0.9589
8.7720 -7.9338 -0.6889 0.9537
8.5131 -6.4201 -0.6210 0.9582
-3.5525 7.2292 -0.4691 0.9682
8.5733 -6.4655 -0.8047 0.9578
9.0356 -5.6274 -0.7977 0.9582
8.5411 -7.0594 -0.8304 0.9565
9.1238 -5.6823 -0.9854 0.9577
-3.5519 7.2280 -0.7383 0.9682
8.6570 -7.1552 -1.0297 0.9559
9.5718 -5.3850 -1.0069 0.9568
8.9434 -6.1393 -1.1766 0.9573
9.7204 -5.4686 -1.2097 0.9561
8.9469 -6.7472 -1.4043 0.9558
9.3923 -5.8496 -1.3866 0.9564
-3.5513 7.2268 -1.0091 0.9681
9.0814 -6.2341 -1.3804 0.9566
9.2381 -6.9668 -1.6458 0.9543
9.6409 -6.0044 -1.6155 0.9551
-3.5510 7.2262 -1.1452 0.9680
-3.5507 7.2255 -1.2820 0.9679
9.8558 -6.7656 -1.9036 0.9527
12.7019 7.1460 -2.8203 0.9424
12.0154 8.2481 -2.8203 0.9424
8.3815 11.9228 -2.8203 0.9424
7.2870 12.6215 -2.8203 0.9424
4.9337 13.7135 -2.8203 0.9424
1.1354 14.5297 -2.8203 0.9424
-3.5501 7.2243 -1.5577 0.9677
-7.5664 12.4560 -2.8203 0.9424
-9.6550 10.9171 -2.8203 0.9424
-12.8579 6.8612 -2.8203 0.9424
-13.4176 5.6896 -2.8203 0.9424
13.5410 5.3892 -2.8203 0.9424
13.0076 6.5730 -2.8203 0.9424
11.6361 8.7752 -2.8203 0.9424
8.9043 11.5376 -2.8203 0.9424
7.8420 12.2843 -2.8203 0.9424
6.7175 12.9336 -2.8203 0.9424
4.3179 13.9197 -2.8203 0.9424
-0.8114 14.5515 -2.8203 0.9424
-2.1033 14.4215 -2.8203 0.9424
-4.6270 13.8200 -2.8203 0.9424
-7.0040 12.7807 -2.8203 0.9424
-10.1318 10.4762 -2.8203 0.9424
-11.0240 9.5328 -2.8203 0.9424
-12.5395 7.4272 -2.8203 0.9424
-14.1008 0.0000 -2.9727 0.9440
-13.8774 -2.5001 -2.9727 0.9440
-13.5998 -3.7254 -2.9727 0.9440
-12.7238 -6.0777 -2.9727 0.9440
-12.1324 -7.1860 -2.9727 0.9440
-11.4446 -8.2373 -2.9727 0.9440
-10.6661 -9.2233 -2.9727 0.9440
-8.8617 -10.9683 -2.9727 0.9440
-7.8503 -11.7135 -2.9727 0.9440
-3.2689 -13.7167 -2.9727 0.9440
-2.0350 -13.9532 -2.9727 0.9440
-0.7850 -14.0790 -2.9727 0.9440
1.7237 -13.9951 -2.9727 0.9440
4.1777 -13.4677 -2.9727 0.9440
5.3599 -13.0425 -2.9727 0.9440
7.5874 -11.8855 -2.9727 0.9440
8.6152 -11.1630 -2.9727 0.9440
9.5746 -10.3519 -2.9727 0.9440
11.2583 -8.4903 -2.9727 0.9440
11.9693 -7.4546 -2.9727 0.9440
12.5853 -6.3596 -2.9727 0.9440
13.5135 -4.0274 -2.9727 0.9440
13.8183 -2.8087 -2.9727 0.9440
14.0134 -1.5676 -2.9727 0.9440
14.0973 -0.3141 -2.9727 0.9440
14.0694 0.9419 -2.9727 0.9440
13.9297 2.1904 -2.9727 0.9440
11.6594 6.5595 -2.8203 0.9468
9.5122 9.4068 -2.8203 0.9468
8.6372 10.2161 -2.8203 0.9468
7.6936 10.9443 -2.8203 0.9468
6.6890 11.5857 -2.8203 0.9468
5.6312 12.1350 -2.8203 0.9468
3.3904 12.9412 -2.8203 0.9468
2.2252 13.1916 -2.8203 0.9468
-1.3391 13.3108 -2.8203 0.9468
-3.6779 12.8625 -2.8203 0.9468
-8.8626 10.0212 -2.8203 0.9468
-9.7194 9.1926 -2.8203 0.9468
-10.4990 8.2910 -2.8203 0.9468
-11.1953 7.3236 -2.8203 0.9468
-12.3164 5.2226 -2.8203 0.9468
-13.9750 1.8795 -2.9727 0.9440
-13.7523 -3.1159 -2.9727 0.9440
-11.0663 -8.7390 -2.9727 0.9440
-9.3415 -10.5626 -2.9727 0.9440
-8.3643 -11.3521 -2.9727 0.9440
-7.3207 -12.0516 -2.9727 0.9440
-3.8767 -13.5575 -2.9727 0.9440
-2.6546 -13.8487 -2.9727 0.9440
-0.1571 -14.1000 -2.9727 0.9440
1.0985 -14.0580 -2.9727 0.9440
2.3454 -13.9044 -2.9727 0.9440
3.5736 -13.6405 -2.9727 0.9440
7.0504 -12.2117 -2.9727 0.9440
8.1093 -11.5357 -2.9727 0.9440
9.1039 -10.7681 -2.9727 0.9440
10.0262 -9.9151 -2.9727 0.9440
10.8689 -8.9834 -2.9727 0.9440
11.6253 -7.9803 -2.9727 0.9440
12.2895 -6.9139 -2.9727 0.9440
12.8561 -5.7927 -2.9727 0.9440
13.3206 -4.6254 -2.9727 0.9440
13.6795 -3.4214 -2.9727 0.9440
13.9297 -2.1903 -2.9727 0.9440
14.0974 0.3142 -2.9727 0.9440
14.0134 1.5676 -2.9727 0.9440
13.8183 2.8087 -2.9727 0.9440
13.5135 4.0274 -2.9727 0.9440
12.4297 4.9469 -2.8203 0.9468
11.9401 6.0336 -2.8203 0.9468
11.3557 7.0724 -2.8203 0.9468
9.0837 9.8212 -2.8203 0.9468
7.1985 11.2762 -2.8203 0.9468
5.0851 12.3739 -2.8203 0.9468
1.6353 13.2777 -2.8203 0.9468
-1.9307 13.2379 -2.8203 0.9468
-3.1013 13.0135 -2.8203 0.9468
-5.3595 12.2575 -2.8203 0.9468
-6.4292 11.7318 -2.8203 0.9468
-7.4479 11.1130 -2.8203 0.9468
-9.3003 9.6164 -2.8203 0.9468
-10.8579 7.8151 -2.8203 0.9468
-12.0715 5.7661 -2.8203 0.9468
-12.8688 4.7924 -2.8950 0.9454
-13.8774 2.5002 -2.9727 0.9440
-12.9727 -1.1592 -2.9727 0.9480
-12.8181 -2.3093 -2.9727 0.9480
-11.7525 -5.6137 -2.9727 0.9480
-10.5710 -7.6085 -2.9727 0.9480
-9.0545 -9.3622 -2.9727 0.9480
-6.2593 -11.4218 -2.9727 0.9480
-3.0193 -12.6696 -2.9727 0.9480
-1.8797 -12.8880 -2.9727 0.9480
-0.7251 -13.0042 -2.9727 0.9480
1.5921 -12.9267 -2.9727 0.9480
2.7363 -12.7337 -2.9727 0.9480
4.9507 -12.0468 -2.9727 0.9480
6.0033 -11.5583 -2.9727 0.9480
7.9575 -10.3108 -2.9727 0.9480
9.6596 -8.7366 -2.9727 0.9480
10.3988 -7.8421 -2.9727 0.9480
12.1012 -4.8162 -2.9727 0.9480
12.4819 -3.7200 -2.9727 0.9480
12.9437 -1.4480 -2.9727 0.9480
13.0212 -0.2901 -2.9727 0.9480
12.6352 3.1603 -2.9727 0.9480
12.3038 4.2723 -2.9727 0.9480
11.2659 5.0762 -2.8203 0.9506
10.7694 6.0588 -2.8203 0.9506
5.2014 11.2087 -2.8203 0.9506
3.1316 11.9533 -2.8203 0.9506
-2.3262 12.1358 -2.8203 0.9506
-3.3971 11.8806 -2.8203 0.9506
-4.4411 11.5311 -2.8203 0.9506
-3.5495 7.2230 -1.8369 0.9675
-6.4152 10.5609 -2.8203 0.9506
-7.3297 9.9480 -2.8203 0.9506
-8.1861 9.2562 -2.8203 0.9506
-9.6975 7.6580 -2.8203 0.9506
-11.3762 4.8239 -2.8203 0.9506
-12.3959 3.9972 -2.9727 0.9480
-12.7025 2.8780 -2.9727 0.9480
-12.9082 -1.7360 -2.9727 0.9480
-12.7025 -2.8780 -2.9727 0.9480
-12.3959 -3.9971 -2.9727 0.9480
-11.9909 -5.0846 -2.9727 0.9480
-11.4908 -6.1317 -2.9727 0.9480
-10.2216 -8.0718 -2.9727 0.9480
-9.4625 -8.9496 -2.9727 0.9480
-6.7619 -11.1316 -2.9727 0.9480
-5.7443 -11.6892 -2.9727 0.9480
-1.3037 -12.9590 -2.9727 0.9480
-0.1451 -13.0236 -2.9727 0.9480
1.0147 -12.9848 -2.9727 0.9480
3.3008 -12.5992 -2.9727 0.9480
4.4091 -12.2554 -2.9727 0.9480
5.4824 -11.8143 -2.9727 0.9480
6.5122 -11.2795 -2.9727 0.9480
7.4903 -10.6551 -2.9727 0.9480
10.0392 -8.2976 -2.9727 0.9480
11.3513 -6.3861 -2.9727 0.9480
11.8747 -5.3505 -2.9727 0.9480
12.6352 -3.1603 -2.9727 0.9480
12.9953 -0.8699 -2.9727 0.9480
12.9437 1.4480 -2.9727 0.9480
12.4819 3.7200 -2.9727 0.9480
9.8657 7.4401 -2.8203 0.9506
7.5496 9.7823 -2.8203 0.9506
4.6969 11.4293 -2.8203 0.9506
3.6610 11.8019 -2.8203 0.9506
0.4129 12.3498 -2.8203 0.9506
-1.7833 12.2274 -2.8203 0.9506
-3.9230 11.7175 -2.8203 0.9506
-5.9384 10.8362 -2.8203 0.9506
-6.8793 10.2647 -2.8203 0.9506
-8.5903 8.8823 -2.8203 0.9506
-10.0291 7.2185 -2.8203 0.9506
-12.2055 4.5454 -2.9727 0.9480
-12.5616 3.4410 -2.9727 0.9480
-12.9727 1.1592 -2.9727 0.9480
-12.0461 -1.0764 -2.9727 0.9514
-11.6644 -3.1952 -2.9727 0.9514
-11.3337 -4.2207 -2.9727 0.9514
-10.9131 -5.2127 -2.9727 0.9514
-9.8159 -7.0651 -2.9727 0.9514
-7.6006 -9.4074 -2.9727 0.9514
-5.8122 -10.6060 -2.9727 0.9514
-4.8452 -11.0812 -2.9727 0.9514
-3.8397 -11.4684 -2.9727 0.9514
-0.6733 -12.0754 -2.9727 0.9514
0.4041 -12.0874 -2.9727 0.9514
1.4784 -12.0034 -2.9727 0.9514
3.5832 -11.5511 -2.9727 0.9514
4.5971 -11.1864 -2.9727 0.9514
5.5745 -10.7328 -2.9727 0.9514
9.6561 -7.2820 -2.9727 0.9514
10.7942 -5.4545 -2.9727 0.9514
11.5903 -3.4543 -2.9727 0.9514
11.8518 -2.4090 -2.9727 0.9514
12.0671 0.8078 -2.9727 0.9514
11.4250 3.9672 -2.9727 0.9514
10.5297 4.7444 -2.8388 0.9535
10.0002 5.6260 -2.8203 0.9538
9.4597 6.4937 -2.8203 0.9538
8.1585 8.0681 -2.8203 0.9538
5.7371 9.9369 -2.8203 0.9538
4.8299 10.4081 -2.8203 0.9538
3.8843 10.7967 -2.8203 0.9538
1.9085 11.3143 -2.8203 0.9538
-0.1278 11.4734 -2.8203 0.9538
-1.1485 11.4165 -2.8203 0.9538
-3.1545 11.0320 -2.8203 0.9538
-5.9570 9.8066 -2.8203 0.9538
-6.8062 9.2375 -2.8203 0.9538
-8.3362 7.8844 -2.8203 0.9538
-11.9862 1.6120 -2.9727 0.9514
-11.9862 -1.6120 -2.9727 0.9514
-11.7952 -2.6724 -2.9727 0.9514
-11.5105 -3.7116 -2.9727 0.9514
-11.1345 -4.7214 -2.9727 0.9514
-10.6700 -5.6937 -2.9727 0.9514
-10.1209 -6.6208 -2.9727 0.9514
-8.0121 -9.0595 -2.9727 0.9514
-5.3340 -10.8544 -2.9727 0.9514
-4.3467 -11.2860 -2.9727 0.9514
-3.3250 -11.6281 -2.9727 0.9514
-2.2768 -11.8779 -2.9727 0.9514
-1.2106 -12.0334 -2.9727 0.9514
0.9422 -12.0574 -2.9727 0.9514
3.0651 -11.6993 -2.9727 0.9514
4.0942 -11.3801 -2.9727 0.9514
5.0908 -10.9705 -2.9727 0.9514
6.9553 -9.8940 -2.9727 0.9514
8.5993 -8.5041 -2.9727 0.9514
9.3221 -7.7049 -2.9727 0.9514
10.5405 -5.9300 -2.9727 0.9514
11.0265 -4.9683 -2.9727 0.9514
11.8518 2.4090 -2.9727 0.9514
10.2409 5.1749 -2.8203 0.9538
9.1611 6.9087 -2.8203 0.9538
8.5098 7.6967 -2.8203 0.9538
7.7910 8.4236 -2.8203 0.9538
4.3614 10.6129 -2.8203 0.9538
3.3995 10.9590 -2.8203 0.9538
1.4026 11.3881 -2.8203 0.9538
0.3834 11.4677 -2.8203 0.9538
-0.6388 11.4563 -2.8203 0.9538
-2.6599 11.1616 -2.8203 0.9538
-5.5142 10.0622 -2.8203 0.9538
-7.9767 8.2479 -2.8203 0.9538
-8.6792 7.5052 -2.8203 0.9538
-10.3536 4.9455 -2.8203 0.9538
-11.3337 4.2207 -2.9727 0.9514
-11.6644 3.1952 -2.9727 0.9514
-11.9025 2.1444 -2.9727 0.9514
-11.2817 0.0000 -2.9727 0.9544
-10.5724 -3.9372 -2.9727 0.9544
-9.7068 -5.7494 -2.9727 0.9544
-9.1566 -6.5905 -2.9727 0.9544
-7.8430 -8.1096 -2.9727 0.9544
-7.0900 -8.7754 -2.9727 0.9544
-4.5197 -10.3368 -2.9727 0.9544
-2.6153 -10.9744 -2.9727 0.9544
-1.6282 -11.1636 -2.9727 0.9544
1.3791 -11.1971 -2.9727 0.9544
2.3702 -11.0299 -2.9727 0.9544
3.3425 -10.7752 -2.9727 0.9544
4.2883 -10.4349 -2.9727 0.9544
5.2000 -10.0118 -2.9727 0.9544
6.8928 -8.9312 -2.9727 0.9544
9.5763 -5.9642 -2.9727 0.9544
10.0691 -5.0881 -2.9727 0.9544
10.4821 -4.1717 -2.9727 0.9544
10.8118 -3.2222 -2.9727 0.9544
11.2118 -1.2542 -2.9727 0.9544
11.2789 -0.2513 -2.9727 0.9544
11.1448 1.7525 -2.9727 0.9544
10.6575 3.7007 -2.9727 0.9544
9.3284 5.2481 -2.8203 0.9567
8.8243 6.0575 -2.8203 0.9567
7.6105 7.5262 -2.8203 0.9567
6.9104 8.1737 -2.8203 0.9567
6.1555 8.7563 -2.8203 0.9567
5.3517 9.2694 -2.8203 0.9567
3.6234 10.0714 -2.8203 0.9567
1.7803 10.5543 -2.8203 0.9567
0.8338 10.6708 -2.8203 0.9567
-0.1192 10.7027 -2.8203 0.9567
-2.0150 10.5120 -2.8203 0.9567
-2.9426 10.2909 -2.8203 0.9567
-5.5569 9.1478 -2.8203 0.9567
-7.0908 8.0177 -2.8203 0.9567
-8.4000 6.6334 -2.8203 0.9567
-11.0029 2.4929 -2.9727 0.9544
-11.1811 1.5037 -2.9727 0.9544
-11.2705 0.5026 -2.9727 0.9544
-9.4411 -6.1761 -2.9727 0.9544
-8.1964 -7.7521 -2.9727 0.9544
-7.4739 -8.4509 -2.9727 0.9544
-6.6921 -9.0826 -2.9727 0.9544
-4.9757 -10.1252 -2.9727 0.9544
-4.0547 -10.5279 -2.9727 0.9544
-3.1016 -10.8470 -2.9727 0.9544
-2.1239 -11.0800 -2.9727 0.9544
0.8789 -11.2474 -2.9727 0.9544
1.8765 -11.1246 -2.9727 0.9544
3.8192 -10.6156 -2.9727 0.9544
4.7489 -10.2335 -2.9727 0.9544
5.6409 -9.7703 -2.9727 0.9544
7.2838 -8.6153 -2.9727 0.9544
9.8325 -5.5317 -2.9727 0.9544
10.2858 -4.6346 -2.9727 0.9544
10.6575 -3.7007 -2.9727 0.9544
11.2789 0.2514 -2.9727 0.9544
10.8118 3.2223 -2.9727 0.9544
9.5530 4.8273 -2.8203 0.9567
9.0854 5.6584 -2.8203 0.9567
8.5457 6.4446 -2.8203 0.9567
7.9382 7.1797 -2.8203 0.9567
4.0684 9.9000 -2.8203 0.9567
2.2487 10.4645 -2.8203 0.9567
1.3084 10.6231 -2.8203 0.9567
-1.5447 10.5913 -2.8203 0.9567
-2.4813 10.4118 -2.8203 0.9567
-6.7266 8.3256 -2.8203 0.9567
-7.4409 7.6938 -2.8203 0.9567
-8.6871 6.2526 -2.8203 0.9567
-9.2092 5.4546 -2.8203 0.9567
-10.0075 4.7802 -2.9224 0.9552
-10.5657 0.0000 -2.9727 0.9570
-10.5238 -0.9404 -2.9727 0.9570
-9.0908 -5.3845 -2.9727 0.9570
-8.5754 -6.1722 -2.9727 0.9570
-7.9921 -6.9110 -2.9727 0.9570
-7.3452 -7.5949 -2.9727 0.9570
-6.6401 -8.2185 -2.9727 0.9570
-5.8822 -8.7769 -2.9727 0.9570
-5.0777 -9.2656 -2.9727 0.9570
-4.2329 -9.6808 -2.9727 0.9570
-3.3544 -10.0191 -2.9727 0.9570
-2.4494 -10.2779 -2.9727 0.9570
-1.5248 -10.4551 -2.9727 0.9570
-0.5882 -10.5494 -2.9727 0.9570
0.3531 -10.5598 -2.9727 0.9570
4.0161 -9.7727 -2.9727 0.9570
6.4553 -8.3644 -2.9727 0.9570
8.4358 -6.3617 -2.9727 0.9570
8.9686 -5.5857 -2.9727 0.9570
10.1256 -3.0177 -2.9727 0.9570
10.4375 1.6412 -2.9727 0.9570
9.9811 3.4658 -2.9727 0.9570
8.7364 4.9150 -2.8203 0.9592
7.1275 7.0485 -2.8203 0.9592
5.7648 8.2006 -2.8203 0.9592
3.3934 9.4322 -2.8203 0.9592
1.6673 9.8845 -2.8203 0.9592
-0.1117 10.0235 -2.8203 0.9592
-1.0034 9.9738 -2.8203 0.9592
-2.7558 9.6378 -2.8203 0.9592
-3.4863 7.0944 -2.2240 0.9677
-5.2042 8.5673 -2.8203 0.9592
-6.6408 7.5088 -2.8203 0.9592
-7.8669 6.2124 -2.8203 0.9592
-8.9742 4.7888 -2.8620 0.9586
-9.7274 4.1248 -2.9727 0.9570
-10.0559 3.2426 -2.9727 0.9570
-10.3046 2.3347 -2.9727 0.9570
-10.4715 1.4083 -2.9727 0.9570
-10.4715 -1.4083 -2.9727 0.9570
-9.7274 -4.1247 -2.9727 0.9570
-8.2920 -6.5481 -2.9727 0.9570
-7.6763 -7.2601 -2.9727 0.9570
-6.9996 -7.9146 -2.9727 0.9570
-6.2674 -8.5062 -2.9727 0.9570
-4.6599 -9.4826 -2.9727 0.9570
-3.7974 -9.8597 -2.9727 0.9570
-1.9891 -10.3768 -2.9727 0.9570
0.8231 -10.5336 -2.9727 0.9570
2.6777 -10.2208 -2.9727 0.9570
4.4475 -9.5841 -2.9727 0.9570
6.8215 -8.0685 -2.9727 0.9570
7.5126 -7.4294 -2.9727 0.9570
8.1440 -6.7312 -2.9727 0.9570
9.2085 -5.1806 -2.9727 0.9570
9.6330 -4.3404 -2.9727 0.9570
9.9811 -3.4658 -2.9727 0.9570
10.5421 -0.7057 -2.9727 0.9570
10.5631 0.2354 -2.9727 0.9570
10.5002 1.1746 -2.9727 0.9570
10.1256 3.0178 -2.9727 0.9570
8.0033 6.0356 -2.8203 0.9592
3.8102 9.2717 -2.8203 0.9592
2.9699 9.5740 -2.8203 0.9592
2.1060 9.8004 -2.8203 0.9592
0.3350 10.0185 -2.8203 0.9592
-1.4467 9.9192 -2.8203 0.9592
-3.1824 9.5055 -2.8203 0.9592
-5.5807 8.3270 -2.8203 0.9592
-6.9687 7.2055 -2.8203 0.9592
-7.5823 6.5567 -2.8203 0.9592
-9.5339 4.5540 -2.9727 0.9570
-10.1903 2.7914 -2.9727 0.9570
-10.3983 1.8734 -2.9727 0.9570
-9.8902 -0.8837 -2.9727 0.9594
-9.3053 -3.4653 -2.9727 0.9594
-8.9600 -4.2798 -2.9727 0.9594
-8.0592 -5.8006 -2.9727 0.9594
-7.5109 -6.4949 -2.9727 0.9594
-5.5281 -8.2485 -2.9727 0.9594
-4.7720 -8.7078 -2.9727 0.9594
-3.9780 -9.0980 -2.9727 0.9594
-3.1525 -9.4159 -2.9727 0.9594
0.3318 -9.9241 -2.9727 0.9594
1.2138 -9.8552 -2.9727 0.9594
2.0861 -9.7080 -2.9727 0.9594
3.7743 -9.1843 -2.9727 0.9594
4.5768 -8.8119 -2.9727 0.9594
7.3643 -6.6606 -2.9727 0.9594
8.4286 -5.2494 -2.9727 0.9594
8.8624 -4.4783 -2.9727 0.9594
9.2258 -3.6718 -2.9727 0.9594
9.5160 -2.8361 -2.9727 0.9594
9.7307 -1.9779 -2.9727 0.9594
9.8681 -1.1039 -2.9727 0.9594
9.9272 -0.2212 -2.9727 0.9594
9.8091 1.5424 -2.9727 0.9594
9.3802 3.2572 -2.9727 0.9594
9.0531 4.0791 -2.9727 0.9594
8.4244 4.7395 -2.8938 0.9604
7.7667 5.3315 -2.8203 0.9614
5.4177 7.7069 -2.8203 0.9614
3.9654 8.5453 -2.8203 0.9614
3.1891 8.8644 -2.8203 0.9614
2.3875 9.1130 -2.8203 0.9614
1.5669 9.2894 -2.8203 0.9614
0.7339 9.3920 -2.8203 0.9614
-0.9430 9.3733 -2.8203 0.9614
-1.7735 9.2521 -2.8203 0.9614
-2.5899 9.0576 -2.8203 0.9614
-3.3858 8.7911 -2.8203 0.9614
-6.2410 7.0568 -2.8203 0.9614
-9.4505 3.0474 -2.9727 0.9594
-9.6842 2.1941 -2.9727 0.9594
-9.6842 -2.1941 -2.9727 0.9594
-9.4505 -3.0474 -2.9727 0.9594
-9.1417 -3.8764 -2.9727 0.9594
-8.7604 -4.6747 -2.9727 0.9594
-8.3096 -5.4359 -2.9727 0.9594
-7.2141 -6.8230 -2.9727 0.9594
-6.5782 -7.4380 -2.9727 0.9594
-5.8901 -7.9940 -2.9727 0.9594
-5.1552 -8.4865 -2.9727 0.9594
-2.7299 -9.5470 -2.9727 0.9594
-1.8693 -9.7521 -2.9727 0.9594
-0.1106 -9.9290 -2.9727 0.9594
0.7736 -9.8995 -2.9727 0.9594
1.6516 -9.7913 -2.9727 0.9594
2.5165 -9.6054 -2.9727 0.9594
3.3615 -9.3433 -2.9727 0.9594
5.7105 -8.1233 -2.9727 0.9594
6.4108 -7.5828 -2.9727 0.9594
8.1864 -5.6196 -2.9727 0.9594
8.6541 -4.8687 -2.9727 0.9594
9.0531 -4.0791 -2.9727 0.9594
9.6329 -2.4094 -2.9727 0.9594
9.9075 -0.6632 -2.9727 0.9594
9.9272 0.2212 -2.9727 0.9594
9.7307 1.9779 -2.9727 0.9594
9.5160 2.8361 -2.9727 0.9594
8.8624 4.4784 -2.9727 0.9594
7.9965 4.9803 -2.8203 0.9614
5.7557 7.4579 -2.8203 0.9614
5.0691 7.9405 -2.8203 0.9614
4.3422 8.3602 -2.8203 0.9614
2.7911 8.9976 -2.8203 0.9614
1.9792 9.2103 -2.8203 0.9614
1.1516 9.3500 -2.8203 0.9614
0.3148 9.4153 -2.8203 0.9614
-0.5245 9.4060 -2.8203 0.9614
-3.8306 6.9900 -2.3863 0.9673
-5.2447 7.8257 -2.8203 0.9614
-5.9204 7.3278 -2.8203 0.9614
-6.5491 6.7718 -2.8203 0.9614
-7.1258 6.1620 -2.8203 0.9614
-8.9600 4.2798 -2.9727 0.9594
-9.3053 3.4653 -2.9727 0.9594
-9.5768 2.6234 -2.9727 0.9594
-9.3605 0.0000 -2.9727 0.9615
-9.3233 -0.8331 -2.9727 0.9615
-8.4464 -4.0345 -2.9727 0.9615
-8.0538 -4.7702 -2.9727 0.9615
-7.5972 -5.4681 -2.9727 0.9615
-5.8826 -7.2810 -2.9727 0.9615
-5.2112 -7.7757 -2.9727 0.9615
-3.7500 -8.5764 -2.9727 0.9615
-2.9718 -8.8762 -2.9727 0.9615
-2.1699 -9.1054 -2.9727 0.9615
-0.5211 -9.3459 -2.9727 0.9615
0.3128 -9.3552 -2.9727 0.9615
1.1442 -9.2903 -2.9727 0.9615
2.7733 -8.9402 -2.9727 0.9615
3.5580 -8.6579 -2.9727 0.9615
4.3145 -8.3068 -2.9727 0.9615
6.9422 -6.2788 -2.9727 0.9615
7.9455 -4.9485 -2.9727 0.9615
8.3544 -4.2216 -2.9727 0.9615
8.9705 -2.6735 -2.9727 0.9615
9.3024 -1.0406 -2.9727 0.9615
9.3581 -0.2086 -2.9727 0.9615
9.3396 0.6252 -2.9727 0.9615
9.2468 1.4540 -2.9727 0.9615
8.1580 4.5896 -2.9727 0.9615
6.8451 5.6577 -2.8203 0.9634
5.7336 6.7817 -2.8203 0.9634
3.7381 8.0555 -2.8203 0.9634
3.0063 8.3562 -2.8203 0.9634
2.2507 8.5907 -2.8203 0.9634
1.4771 8.7569 -2.8203 0.9634
-0.8889 8.8360 -2.8203 0.9634
-4.6105 7.5900 -2.8203 0.9634
-6.4520 6.1022 -2.8203 0.9634
-6.9695 5.5037 -2.8203 0.9634
-7.4317 4.8616 -2.8203 0.9634
-8.2583 4.4067 -2.9727 0.9615
-8.9087 2.8727 -2.9727 0.9615
-9.1291 2.0684 -2.9727 0.9615
-9.2769 1.2477 -2.9727 0.9615
-9.3512 -0.4170 -2.9727 0.9615
-9.2769 -1.2476 -2.9727 0.9615
-8.9087 -2.8727 -2.9727 0.9615
-8.6177 -3.6542 -2.9727 0.9615
-7.8333 -5.1243 -2.9727 0.9615
-7.3461 -5.8011 -2.9727 0.9615
-6.2011 -7.0117 -2.9727 0.9615
-4.8597 -8.0001 -2.9727 0.9615
-4.1283 -8.4009 -2.9727 0.9615
-3.3642 -8.7350 -2.9727 0.9615
-0.9369 -9.3134 -2.9727 0.9615
-0.1043 -9.3599 -2.9727 0.9615
0.7292 -9.3320 -2.9727 0.9615
2.3723 -9.0549 -2.9727 0.9615
4.6802 -8.1064 -2.9727 0.9615
6.0434 -7.1481 -2.9727 0.9615
8.1580 -4.5896 -2.9727 0.9615
8.5342 -3.8453 -2.9727 0.9615
8.8425 -3.0704 -2.9727 0.9615
9.0807 -2.2712 -2.9727 0.9615
9.3024 1.0406 -2.9727 0.9615
9.1729 1.8645 -2.9727 0.9615
7.6253 4.7491 -2.8529 0.9630
7.0904 5.3471 -2.8203 0.9634
6.5863 5.9570 -2.8203 0.9634
5.4258 7.0304 -2.8203 0.9634
4.0933 7.8810 -2.8203 0.9634
2.6311 8.4819 -2.8203 0.9634
1.8657 8.6824 -2.8203 0.9634
1.0855 8.8140 -2.8203 0.9634
0.2967 8.8756 -2.8203 0.9634
-0.4944 8.8668 -2.8203 0.9634
-3.5577 8.1368 -2.8203 0.9634
-5.5810 6.9078 -2.8203 0.9634
-6.1737 6.3836 -2.8203 0.9634
-8.0473 4.7664 -2.9703 0.9615
-8.4464 4.0345 -2.9727 0.9615
-9.0279 2.4730 -2.9727 0.9615
-9.3233 0.8332 -2.9727 0.9615
-8.8479 0.0000 -2.9727 0.9634
-8.8128 -0.7875 -2.9727 0.9634
-8.7077 -1.5688 -2.9727 0.9634
-8.2916 -3.0878 -2.9727 0.9634
-7.1812 -5.1687 -2.9727 0.9634
-6.1510 -6.3601 -2.9727 0.9634
-5.5605 -6.8823 -2.9727 0.9634
-4.2521 -7.7592 -2.9727 0.9634
-2.8090 -8.3902 -2.9727 0.9634
-2.0511 -8.6069 -2.9727 0.9634
-1.2769 -8.7553 -2.9727 0.9634
-0.4926 -8.8342 -2.9727 0.9634
0.2957 -8.8429 -2.9727 0.9634
1.0815 -8.7815 -2.9727 0.9634
1.8589 -8.6504 -2.9727 0.9634
2.6214 -8.4506 -2.9727 0.9634
3.3632 -8.1838 -2.9727 0.9634
6.0078 -6.4955 -2.9727 0.9634
6.5621 -5.9350 -2.9727 0.9634
8.4793 -2.5271 -2.9727 0.9634
8.6706 -1.7623 -2.9727 0.9634
8.8457 -0.1971 -2.9727 0.9634
8.8281 0.5910 -2.9727 0.9634
8.7405 1.3744 -2.9727 0.9634
7.7113 4.3384 -2.9727 0.9634
5.9686 5.9025 -2.8203 0.9652
3.5335 7.6144 -2.8203 0.9652
2.1274 8.1203 -2.8203 0.9652
0.6539 8.3688 -2.8203 0.9652
-0.0935 8.3938 -2.8203 0.9652
-3.0170 7.8334 -2.8203 0.9652
-4.3581 7.1744 -2.8203 0.9652
-4.9793 6.7580 -2.8203 0.9652
-5.5611 6.2880 -2.8203 0.9652
-6.0987 5.7681 -2.8203 0.9652
-7.2951 4.7722 -2.9289 0.9639
-8.8391 0.3942 -2.9727 0.9634
-8.7690 -1.1793 -2.9727 0.9634
-8.6292 -1.9551 -2.9727 0.9634
-8.4209 -2.7154 -2.9727 0.9634
-7.8061 -4.1654 -2.9727 0.9634
-7.4043 -4.8437 -2.9727 0.9634
-6.4282 -6.0798 -2.9727 0.9634
-4.5936 -7.5621 -2.9727 0.9634
-0.0986 -8.8473 -2.9727 0.9634
0.6893 -8.8210 -2.9727 0.9634
1.4717 -8.7246 -2.9727 0.9634
2.9953 -8.3255 -2.9727 0.9634
3.7244 -8.0259 -2.9727 0.9634
5.0884 -7.2383 -2.9727 0.9634
5.7125 -6.7567 -2.9727 0.9634
6.2912 -6.2215 -2.9727 0.9634
6.8199 -5.6368 -2.9727 0.9634
8.5835 -2.1469 -2.9727 0.9634
8.8457 0.1971 -2.9727 0.9634
8.7931 0.9837 -2.9727 0.9634
8.6706 1.7624 -2.9727 0.9634
7.8969 3.9905 -2.9727 0.9634
6.7021 5.0543 -2.8203 0.9652
6.2257 5.6308 -2.8203 0.9652
5.6998 6.1626 -2.8203 0.9652
5.1287 6.6454 -2.8203 0.9652
4.5168 7.0755 -2.8203 0.9652
3.8691 7.4494 -2.8203 0.9652
3.1908 7.7642 -2.8203 0.9652
1.0261 8.3314 -2.8203 0.9652
-1.9460 8.1656 -2.8203 0.9652
-2.6650 7.9601 -2.8203 0.9652
-3.3629 7.6912 -2.8203 0.9652
-3.8106 6.9535 -2.6641 0.9671
-5.2754 6.5295 -2.8203 0.9652
-5.8357 6.0341 -2.8203 0.9652
-6.3496 5.4907 -2.8203 0.9652
-6.8131 4.9037 -2.8203 0.9652
-8.5335 2.3376 -2.9727 0.9634
-8.7077 1.5688 -2.9727 0.9634
-8.2508 -1.4864 -2.9727 0.9650
-7.8566 -2.9258 -2.9727 0.9650
-7.5650 -3.6135 -2.9727 0.9650
-7.2133 -4.2725 -2.9727 0.9650
-6.3415 -5.4837 -2.9727 0.9650
-5.8283 -6.0264 -2.9727 0.9650
-5.2688 -6.5212 -2.9727 0.9650
-4.0290 -7.3521 -2.9727 0.9650
-3.3587 -7.6815 -2.9727 0.9650
-2.6617 -7.9499 -2.9727 0.9650
-1.9435 -8.1553 -2.9727 0.9650
-1.2099 -8.2959 -2.9727 0.9650
-0.4667 -8.3706 -2.9727 0.9650
1.7613 -8.1966 -2.9727 0.9650
3.1867 -7.7544 -2.9727 0.9650
3.8642 -7.4400 -2.9727 0.9650
5.1222 -6.6370 -2.9727 0.9650
6.2178 -5.6236 -2.9727 0.9650
7.4826 -3.7811 -2.9727 0.9650
7.7894 -3.1001 -2.9727 0.9650
8.0344 -2.3945 -2.9727 0.9650
8.3317 -0.9320 -2.9727 0.9650
8.3650 0.5600 -2.9727 0.9650
8.2819 1.3023 -2.9727 0.9650
8.1331 2.0343 -2.9727 0.9650
7.9198 2.7501 -2.9727 0.9650
6.8910 4.7304 -2.9637 0.9651
6.1308 5.0672 -2.8203 0.9668
5.1352 6.0740 -2.8203 0.9668
3.9769 6.8883 -2.8203 0.9668
3.3481 7.2149 -2.8203 0.9668
-0.7961 7.9139 -2.8203 0.9668
-1.4974 7.8117 -2.8203 0.9668
-2.1867 7.6474 -2.8203 0.9668
-2.8587 7.4224 -2.8203 0.9668
-3.4130 6.9452 -2.7440 0.9677
-4.1294 6.7980 -2.8203 0.9668
-4.7181 6.4034 -2.8203 0.9668
-5.2693 5.9581 -2.8203 0.9668
-5.7787 5.4654 -2.8203 0.9668
-6.2422 4.9294 -2.8203 0.9668
-7.3965 3.9469 -2.9727 0.9650
-7.7184 3.2729 -2.9727 0.9650
-7.9791 2.5729 -2.9727 0.9650
-8.1764 1.8525 -2.9727 0.9650
-8.3089 1.1175 -2.9727 0.9650
-8.3754 -0.3735 -2.9727 0.9650
-7.9791 -2.5729 -2.9727 0.9650
-7.7184 -3.2729 -2.9727 0.9650
-7.3965 -3.9469 -2.9727 0.9650
-6.5795 -5.1958 -2.9727 0.9650
-5.5540 -6.2800 -2.9727 0.9650
-4.9730 -6.7494 -2.9727 0.9650
-3.6975 -7.5242 -2.9727 0.9650
-3.0132 -7.8235 -2.9727 0.9650
-2.3049 -8.0606 -2.9727 0.9650
-0.8392 -8.3415 -2.9727 0.9650
0.6531 -8.3582 -2.9727 0.9650
1.3945 -8.2669 -2.9727 0.9650
2.8381 -7.8887 -2.9727 0.9650
4.1918 -7.2605 -2.9727 0.9650
4.8214 -6.8586 -2.9727 0.9650
5.4127 -6.4022 -2.9727 0.9650
7.3067 -4.1107 -2.9727 0.9650
8.2819 -1.3022 -2.9727 0.9650
7.4826 3.7811 -2.9727 0.9650
7.1164 4.4321 -2.9727 0.9650
5.4007 5.8392 -2.8203 0.9668
4.8596 6.2968 -2.8203 0.9668
4.2798 6.7043 -2.8203 0.9668
3.0233 7.3569 -2.8203 0.9668
0.2658 7.9495 -2.8203 0.9668
-1.1479 7.8706 -2.8203 0.9668
-2.5252 7.5424 -2.8203 0.9668
-3.1865 7.2877 -2.8203 0.9668
-4.4281 6.6072 -2.8203 0.9668
-5.5295 5.7174 -2.8203 0.9668
-6.6357 4.7761 -2.8990 0.9659
-7.8566 2.9259 -2.9727 0.9650
-8.2508 1.4865 -2.9727 0.9650
-7.9294 -0.7086 -2.9727 0.9666
-7.8349 -1.4115 -2.9727 0.9666
-7.6782 -2.1033 -2.9727 0.9666
-6.8497 -4.0571 -2.9727 0.9666
-6.4614 -4.6506 -2.9727 0.9666
-5.0031 -6.1925 -2.9727 0.9666
-4.4321 -6.6132 -2.9727 0.9666
-3.1894 -7.2942 -2.9727 0.9666
-1.8455 -7.7442 -2.9727 0.9666
-0.4432 -7.9487 -2.9727 0.9666
0.9731 -7.9013 -2.9727 0.9666
1.6725 -7.7833 -2.9727 0.9666
3.0261 -7.3635 -2.9727 0.9666
3.6694 -7.0649 -2.9727 0.9666
4.2837 -6.7103 -2.9727 0.9666
4.8639 -6.3024 -2.9727 0.9666
5.4056 -5.8444 -2.9727 0.9666
5.9043 -5.3401 -2.9727 0.9666
6.7576 -4.2087 -2.9727 0.9666
7.1054 -3.5905 -2.9727 0.9666
7.6294 -2.2738 -2.9727 0.9666
7.9433 0.5317 -2.9727 0.9666
7.8644 1.2366 -2.9727 0.9666
5.3704 5.3109 -2.8203 0.9683
3.7765 6.5410 -2.8203 0.9683
1.9142 7.3063 -2.8203 0.9683
1.2563 7.4477 -2.8203 0.9683
0.5884 7.5299 -2.8203 0.9683
-0.0841 7.5525 -2.8203 0.9683
-1.4219 7.4179 -2.8203 0.9683
-2.0765 7.2619 -2.8203 0.9683
-3.3311 6.7787 -2.8203 0.9683
-3.9212 6.4553 -2.8203 0.9683
-4.4802 6.0806 -2.8203 0.9683
-5.4874 5.1899 -2.8203 0.9683
-6.0509 4.7783 -2.8790 0.9676
-6.6621 4.3582 -2.9727 0.9666
-7.0236 3.7479 -2.9727 0.9666
-7.7642 1.7592 -2.9727 0.9666
-7.8900 1.0611 -2.9727 0.9666
-7.9531 0.3546 -2.9727 0.9666
-7.8900 -1.0611 -2.9727 0.9666
-7.7642 -1.7591 -2.9727 0.9666
-7.3293 -3.1079 -2.9727 0.9666
-7.0236 -3.7479 -2.9727 0.9666
-6.6622 -4.3582 -2.9727 0.9666
-6.2478 -4.9338 -2.9727 0.9666
-5.7839 -5.4703 -2.9727 0.9666
-2.8613 -7.4291 -2.9727 0.9666
-0.7969 -7.9210 -2.9727 0.9666
0.6202 -7.9368 -2.9727 0.9666
2.0176 -7.7011 -2.9727 0.9666
2.6950 -7.4910 -2.9727 0.9666
3.9805 -6.8944 -2.9727 0.9666
5.1399 -6.0794 -2.9727 0.9666
6.1363 -5.0718 -2.9727 0.9666
7.2583 -3.2704 -2.9727 0.9666
7.5205 -2.6114 -2.9727 0.9666
7.7231 -1.9317 -2.9727 0.9666
7.8644 -1.2366 -2.9727 0.9666
7.9433 -0.5317 -2.9727 0.9666
7.9117 0.8851 -2.9727 0.9666
7.6294 2.2738 -2.9727 0.9666
7.3967 2.9438 -2.9727 0.9666
6.7576 4.2087 -2.9727 0.9666
5.6016 5.0664 -2.8203 0.9683
5.1285 5.5448 -2.8203 0.9683
4.0641 6.3663 -2.8203 0.9683
2.8709 6.9860 -2.8203 0.9683
2.2377 7.2138 -2.8203 0.9683
-0.4205 7.5412 -2.8203 0.9683
-2.3979 7.1621 -2.8203 0.9683
-4.7466 5.8750 -2.8203 0.9683
-5.2507 5.4292 -2.8203 0.9683
-5.7226 4.9486 -2.8250 0.9682
-6.4614 4.6506 -2.9727 0.9666
-6.8497 4.0571 -2.9727 0.9666
-7.1836 3.4313 -2.9727 0.9666
-7.4605 2.7783 -2.9727 0.9666
-7.6782 2.1033 -2.9727 0.9666
-7.9294 0.7086 -2.9727 0.9666
-7.4544 -1.3430 -2.9727 0.9680
-7.3053 -2.0011 -2.9727 0.9680
-7.0982 -2.6434 -2.9727 0.9680
-6.5170 -3.8600 -2.9727 0.9680
-5.7294 -4.9544 -2.9727 0.9680
-4.2169 -6.2920 -2.9727 0.9680
-1.7559 -7.3681 -2.9727 0.9680
1.5913 -7.4053 -2.9727 0.9680
2.8791 -7.0059 -2.9727 0.9680
4.0757 -6.3844 -2.9727 0.9680
5.1431 -5.5606 -2.9727 0.9680
6.0475 -4.5606 -2.9727 0.9680
6.7603 -3.4161 -2.9727 0.9680
7.0375 -2.8009 -2.9727 0.9680
7.4226 -1.5087 -2.9727 0.9680
7.5275 -0.8421 -2.9727 0.9680
7.5725 -0.1687 -2.9727 0.9680
7.5575 0.5059 -2.9727 0.9680
6.9058 3.1116 -2.9727 0.9680
6.2447 4.2867 -2.9727 0.9680
5.1096 5.0530 -2.8203 0.9696
4.1327 5.8789 -2.8203 0.9696
3.5931 6.2233 -2.8203 0.9696
3.0249 6.5185 -2.8203 0.9696
1.8212 6.9515 -2.8203 0.9696
1.1953 7.0860 -2.8203 0.9696
-0.0801 7.1857 -2.8203 0.9696
-1.9756 6.9092 -2.8203 0.9696
-2.5827 6.7059 -2.8203 0.9696
-4.2626 5.7853 -2.8203 0.9696
-4.7607 5.3830 -2.8203 0.9696
-5.2304 4.9469 -2.8255 0.9695
-5.9444 4.6943 -2.9727 0.9680
-6.3386 4.1465 -2.9727 0.9680
-7.2089 2.3246 -2.9727 0.9680
-7.3872 1.6737 -2.9727 0.9680
-7.5068 1.0096 -2.9727 0.9680
-7.5669 0.3374 -2.9727 0.9680
-6.6825 -3.5659 -2.9727 0.9680
-5.5030 -5.2047 -2.9727 0.9680
-5.0179 -5.6738 -2.9727 0.9680
-4.4930 -6.0979 -2.9727 0.9680
-2.0824 -7.2825 -2.9727 0.9680
-1.4259 -7.4390 -2.9727 0.9680
-0.7582 -7.5364 -2.9727 0.9680
-0.0844 -7.5739 -2.9727 0.9680
1.2598 -7.4689 -2.9727 0.9680
3.7872 -6.5596 -2.9727 0.9680
4.8902 -5.7842 -2.9727 0.9680
5.3857 -5.3260 -2.9727 0.9680
5.8383 -4.8255 -2.9727 0.9680
6.2447 -4.2867 -2.9727 0.9680
7.4825 -1.1765 -2.9727 0.9680
7.5725 0.1688 -2.9727 0.9680
7.5275 0.8421 -2.9727 0.9680
7.2589 2.1634 -2.9727 0.9680
6.7603 3.4162 -2.9727 0.9680
6.0475 4.5606 -2.9727 0.9680
5.3296 4.8204 -2.8203 0.9696
4.8794 5.2756 -2.8203 0.9696
4.3905 5.6889 -2.8203 0.9696
3.8667 6.0571 -2.8203 0.9696
3.3123 6.3772 -2.8203 0.9696
1.5097 7.0257 -2.8203 0.9696
0.2401 7.1821 -2.8203 0.9696
-0.4001 7.1750 -2.8203 0.9696
-1.0371 7.1109 -2.8203 0.9696
-1.6659 6.9904 -2.8203 0.9696
-2.2814 6.8143 -2.8203 0.9696
-2.8789 6.5842 -2.8203 0.9696
-4.5161 5.5897 -2.8203 0.9696
-5.5267 4.7792 -2.8676 0.9691
-6.1476 4.4248 -2.9727 0.9680
-6.8347 3.2647 -2.9727 0.9680
-7.0982 2.6434 -2.9727 0.9680
-7.3053 2.0012 -2.9727 0.9680
-7.2192 0.0000 -2.9727 0.9693
-7.1906 -0.6425 -2.9727 0.9693
-7.1048 -1.2800 -2.9727 0.9693
-6.9627 -1.9073 -2.9727 0.9693
-6.7653 -2.5194 -2.9727 0.9693
-6.5142 -3.1116 -2.9727 0.9693
-5.8593 -4.2172 -2.9727 0.9693
-5.4607 -4.7221 -2.9727 0.9693
-5.0187 -5.1893 -2.9727 0.9693
-4.0191 -5.9970 -2.9727 0.9693
-3.4694 -6.3309 -2.9727 0.9693
-2.8922 -6.6146 -2.9727 0.9693
-2.2920 -6.8457 -2.9727 0.9693
-1.6736 -7.0225 -2.9727 0.9693
-0.4019 -7.2080 -2.9727 0.9693
0.2412 -7.2152 -2.9727 0.9693
0.8825 -7.1650 -2.9727 0.9693
2.1389 -6.8951 -2.9727 0.9693
2.7441 -6.6773 -2.9727 0.9693
3.8845 -6.0850 -2.9727 0.9693
4.9019 -5.2999 -2.9727 0.9693
5.7639 -4.3468 -2.9727 0.9693
6.9185 -2.0619 -2.9727 0.9693
7.0745 -1.4379 -2.9727 0.9693
7.1745 -0.8026 -2.9727 0.9693
7.2174 -0.1608 -2.9727 0.9693
7.2031 0.4822 -2.9727 0.9693
7.1316 1.1214 -2.9727 0.9693
6.5819 2.9657 -2.9727 0.9693
6.2918 3.5397 -2.9727 0.9693
5.5645 4.5993 -2.9727 0.9693
4.8700 4.8160 -2.8203 0.9708
4.4220 5.2304 -2.8203 0.9708
3.9389 5.6032 -2.8203 0.9708
3.4246 5.9315 -2.8203 0.9708
2.8830 6.2128 -2.8203 0.9708
2.3186 6.4447 -2.8203 0.9708
1.7358 6.6255 -2.8203 0.9708
1.1392 6.7537 -2.8203 0.9708
0.5336 6.8283 -2.8203 0.9708
-0.0763 6.8487 -2.8203 0.9708
-0.6856 6.8147 -2.8203 0.9708
-1.2894 6.7267 -2.8203 0.9708
-3.0207 6.1470 -2.8203 0.9708
-3.5559 5.8537 -2.8203 0.9708
-4.0628 5.5140 -2.8203 0.9708
-5.0526 4.7787 -2.8637 0.9704
-5.6656 4.4741 -2.9727 0.9693
-6.3691 3.3987 -2.9727 0.9693
-6.6464 2.8183 -2.9727 0.9693
-6.8708 2.2156 -2.9727 0.9693
-7.0408 1.5952 -2.9727 0.9693
-7.2120 0.3216 -2.9727 0.9693
-7.1548 -0.9622 -2.9727 0.9693
-7.0408 -1.5952 -2.9727 0.9693
-6.8708 -2.2156 -2.9727 0.9693
-5.6656 -4.4741 -2.9727 0.9693
-5.2449 -4.9606 -2.9727 0.9693
-4.7826 -5.4078 -2.9727 0.9693
-4.2823 -5.8120 -2.9727 0.9693
-3.1840 -6.4792 -2.9727 0.9693
-1.9847 -6.9410 -2.9727 0.9693
-1.3591 -7.0901 -2.9727 0.9693
-0.7226 -7.1829 -2.9727 0.9693
-0.0804 -7.2188 -2.9727 0.9693
3.0388 -6.5485 -2.9727 0.9693
3.6096 -6.2520 -2.9727 0.9693
5.5645 -4.5992 -2.9727 0.9693
5.9518 -4.0857 -2.9727 0.9693
6.8198 -2.3681 -2.9727 0.9693
7.0035 -1.7517 -2.9727 0.9693
6.9185 2.0619 -2.9727 0.9693
6.7075 2.6695 -2.9727 0.9693
6.4433 3.2560 -2.9727 0.9693
5.2452 4.7440 -2.9123 0.9699
4.6506 5.0282 -2.8203 0.9708
4.1846 5.4221 -2.8203 0.9708
3.6854 5.7731 -2.8203 0.9708
2.0292 6.5416 -2.8203 0.9708
1.4389 6.6963 -2.8203 0.9708
0.8372 6.7978 -2.8203 0.9708
-0.3813 6.8385 -2.8203 0.9708
-1.5878 6.6626 -2.8203 0.9708
-2.7439 6.2755 -2.8203 0.9708
-3.8131 5.6896 -2.8203 0.9708
-4.3044 5.3276 -2.8203 0.9708
-4.7615 4.9233 -2.8203 0.9708
-5.4607 4.7221 -2.9727 0.9693
-5.8593 4.2173 -2.9727 0.9693
-7.1048 1.2800 -2.9727 0.9693
-6.8642 -0.6134 -2.9727 0.9704
-6.6467 -1.8207 -2.9727 0.9704
-6.2186 -2.9704 -2.9727 0.9704
-5.5934 -4.0259 -2.9727 0.9704
-3.8367 -5.7248 -2.9727 0.9704
0.2303 -6.8877 -2.9727 0.9704
3.1765 -6.1158 -2.9727 0.9704
3.7082 -5.8088 -2.9727 0.9704
4.2105 -5.4557 -2.9727 0.9704
4.6794 -5.0593 -2.9727 0.9704
5.1112 -4.6228 -2.9727 0.9704
5.5023 -4.1495 -2.9727 0.9704
6.4031 -2.5484 -2.9727 0.9704
6.8079 1.0705 -2.9727 0.9704
6.6856 1.6722 -2.9727 0.9704
6.5103 2.2606 -2.9727 0.9704
6.0063 3.3791 -2.9727 0.9704
5.6817 3.9003 -2.9727 0.9704
5.3120 4.3905 -2.9727 0.9704
2.7522 5.9308 -2.8203 0.9719
1.0875 6.4472 -2.8203 0.9719
0.5094 6.5184 -2.8203 0.9719
-0.0728 6.5379 -2.8203 0.9719
-0.6545 6.5054 -2.8203 0.9719
-2.3499 6.1014 -2.8203 0.9719
-3.3945 5.5881 -2.8203 0.9719
-5.0069 4.7355 -2.9727 0.9704
-6.0801 3.2445 -2.9727 0.9704
-6.5590 2.1150 -2.9727 0.9704
-6.7212 1.5228 -2.9727 0.9704
-6.8301 0.9186 -2.9727 0.9704
-6.7212 -1.5228 -2.9727 0.9704
-6.5590 -2.1150 -2.9727 0.9704
-6.3447 -2.6904 -2.9727 0.9704
-6.0801 -3.2444 -2.9727 0.9704
-5.7672 -3.7727 -2.9727 0.9704
-5.0069 -4.7355 -2.9727 0.9704
-4.5655 -5.1623 -2.9727 0.9704
-4.0879 -5.5482 -2.9727 0.9704
-2.4769 -6.4311 -2.9727 0.9704
0.5369 -6.8706 -2.9727 0.9704
3.4458 -5.9683 -2.9727 0.9704
4.4494 -5.2628 -2.9727 0.9704
5.3120 -4.3905 -2.9727 0.9704
5.6817 -3.9003 -2.9727 0.9704
6.0063 -3.3791 -2.9727 0.9704
6.2832 -2.8311 -2.9727 0.9704
6.8079 -1.0705 -2.9727 0.9704
6.8762 -0.4603 -2.9727 0.9704
6.8899 0.1536 -2.9727 0.9704
5.8498 3.6433 -2.9727 0.9704
4.4394 4.8000 -2.8203 0.9719
3.9947 5.1761 -2.8203 0.9719
3.5181 5.5111 -2.8203 0.9719
1.9371 6.2447 -2.8203 0.9719
1.3736 6.3924 -2.8203 0.9719
0.2185 6.5346 -2.8203 0.9719
-0.3640 6.5282 -2.8203 0.9719
-1.5157 6.3602 -2.8203 0.9719
-2.0758 6.2000 -2.8203 0.9719
-2.6194 5.9907 -2.8203 0.9719
-3.1422 5.7338 -2.8203 0.9719
-3.6400 5.4313 -2.8203 0.9719
-4.1090 5.0858 -2.8203 0.9719
-4.6200 4.7771 -2.8667 0.9715
-6.2186 2.9704 -2.9727 0.9704
-6.7824 1.2219 -2.9727 0.9704
-5.9449 -2.8396 -2.9727 0.9715
-5.6685 -3.3575 -2.9727 0.9715
-4.9834 -4.3093 -2.9727 0.9715
-3.1662 -5.7776 -2.9727 0.9715
-2.6394 -6.0364 -2.9727 0.9715
-2.0916 -6.2474 -2.9727 0.9715
-0.9508 -6.5193 -2.9727 0.9715
0.2201 -6.5846 -2.9727 0.9715
0.8053 -6.5388 -2.9727 0.9715
2.5043 -6.0938 -2.9727 0.9715
4.0252 -5.2156 -2.9727 0.9715
5.8801 -2.9714 -2.9727 0.9715
6.4562 -1.3123 -2.9727 0.9715
6.5474 -0.7324 -2.9727 0.9715
6.5083 1.0234 -2.9727 0.9715
6.0067 2.7065 -2.9727 0.9715
5.4316 3.7286 -2.9727 0.9715
5.0782 4.1973 -2.9727 0.9715
4.0372 4.7753 -2.8215 0.9729
3.5946 5.1135 -2.8203 0.9729
1.5841 6.0465 -2.8203 0.9729
1.0396 6.1635 -2.8203 0.9729
0.4869 6.2315 -2.8203 0.9729
-0.0696 6.2501 -2.8203 0.9729
-0.6256 6.2191 -2.8203 0.9729
-1.1767 6.1388 -2.8203 0.9729
-1.7184 6.0096 -2.8203 0.9729
-2.2465 5.8329 -2.8203 0.9729
-2.7567 5.6098 -2.8203 0.9729
-3.2451 5.3421 -2.8203 0.9729
-4.7865 4.5271 -2.9727 0.9715
-5.1705 4.0831 -2.9727 0.9715
-5.5134 3.6067 -2.9727 0.9715
-5.8125 3.1016 -2.9727 0.9715
-6.4254 1.4558 -2.9727 0.9715
-6.5295 0.8782 -2.9727 0.9715
-6.5817 0.2935 -2.9727 0.9715
-6.5295 -0.8781 -2.9727 0.9715
-6.2703 -2.0219 -2.9727 0.9715
-6.0655 -2.5720 -2.9727 0.9715
-5.5134 -3.6067 -2.9727 0.9715
-4.7865 -4.5271 -2.9727 0.9715
-4.3646 -4.9351 -2.9727 0.9715
-3.9080 -5.3040 -2.9727 0.9715
-2.3679 -6.1480 -2.9727 0.9715
1.0958 -6.4965 -2.9727 0.9715
2.7732 -5.9761 -2.9727 0.9715
3.7889 -5.3897 -2.9727 0.9715
4.2536 -5.0311 -2.9727 0.9715
4.6845 -4.6326 -2.9727 0.9715
5.7419 -3.2304 -2.9727 0.9715
6.2237 -2.1611 -2.9727 0.9715
6.5866 0.1468 -2.9727 0.9715
6.5474 0.7325 -2.9727 0.9715
6.3138 1.8817 -2.9727 0.9715
5.8801 2.9714 -2.9727 0.9715
5.5923 3.4830 -2.9727 0.9715
4.8862 4.4193 -2.9727 0.9715
4.3890 4.7453 -2.9166 0.9720
3.3633 5.2685 -2.8203 0.9729
2.3759 5.7814 -2.8203 0.9729
1.8519 5.9699 -2.8203 0.9729
1.3132 6.1110 -2.8203 0.9729
0.7641 6.2037 -2.8203 0.9729
-0.3480 6.2408 -2.8203 0.9729
-1.4490 6.0803 -2.8203 0.9729
-3.4798 5.1923 -2.8203 0.9729
-4.5801 4.7358 -2.9727 0.9715
-4.9834 4.3094 -2.9727 0.9715
-5.6685 3.3575 -2.9727 0.9715
-6.4839 1.1681 -2.9727 0.9715
-6.5621 0.5864 -2.9727 0.9715
-6.3065 0.0000 -2.9727 0.9725
-6.2066 -1.1181 -2.9727 0.9725
-4.7703 -4.1251 -2.9727 0.9725
-4.3842 -4.5333 -2.9727 0.9725
-3.9633 -4.9055 -2.9727 0.9725
-3.5110 -5.2388 -2.9727 0.9725
-3.0308 -5.5305 -2.9727 0.9725
-1.4620 -6.1347 -2.9727 0.9725
-0.9102 -6.2405 -2.9727 0.9725
-0.3511 -6.2967 -2.9727 0.9725
0.2107 -6.3029 -2.9727 0.9725
1.3249 -6.1657 -2.9727 0.9725
2.3972 -5.8331 -2.9727 0.9725
3.3934 -5.3157 -2.9727 0.9725
3.8531 -4.9926 -2.9727 0.9725
4.6772 -4.2303 -2.9727 0.9725
5.3532 -3.3340 -2.9727 0.9725
5.6287 -2.8443 -2.9727 0.9725
6.1801 -1.2562 -2.9727 0.9725
6.2674 -0.7011 -2.9727 0.9725
6.3049 -0.1405 -2.9727 0.9725
6.2924 0.4212 -2.9727 0.9725
6.1180 1.5302 -2.9727 0.9725
5.9576 2.0687 -2.9727 0.9725
5.7498 2.5907 -2.9727 0.9725
5.4964 3.0922 -2.9727 0.9725
4.8610 4.0178 -2.9727 0.9725
4.4842 4.4345 -2.9727 0.9725
3.4409 4.8948 -2.8203 0.9739
2.5185 5.4273 -2.8203 0.9739
1.5164 5.7879 -2.8203 0.9739
0.9952 5.8999 -2.8203 0.9739
0.4661 5.9650 -2.8203 0.9739
-0.5989 5.9531 -2.8203 0.9739
-1.1264 5.8762 -2.8203 0.9739
-1.6449 5.7527 -2.8203 0.9739
-2.1504 5.5834 -2.8203 0.9739
-2.6388 5.3698 -2.8203 0.9739
-3.1063 5.1137 -2.8203 0.9739
-3.5491 4.8169 -2.8203 0.9739
-4.1779 4.7241 -2.9727 0.9725
-4.9493 3.9085 -2.9727 0.9725
-5.5639 2.9690 -2.9727 0.9725
-6.0022 1.9355 -2.9727 0.9725
-6.2502 0.8406 -2.9727 0.9725
-6.3002 0.2809 -2.9727 0.9725
-6.3002 -0.2809 -2.9727 0.9725
-6.2502 -0.8405 -2.9727 0.9725
-6.1506 -1.3936 -2.9727 0.9725
-6.0022 -1.9354 -2.9727 0.9725
-5.5639 -2.9690 -2.9727 0.9725
-5.2776 -3.4524 -2.9727 0.9725
-4.5818 -4.3334 -2.9727 0.9725
-4.1779 -4.7240 -2.9727 0.9725
-3.7409 -5.0772 -2.9727 0.9725
-3.2741 -5.3900 -2.9727 0.9725
-2.7814 -5.6600 -2.9727 0.9725
-2.2666 -5.8851 -2.9727 0.9725
-1.7338 -6.0635 -2.9727 0.9725
-0.0703 -6.3061 -2.9727 0.9725
1.0490 -6.2187 -2.9727 0.9725
2.1349 -5.9341 -2.9727 0.9725
2.6546 -5.7206 -2.9727 0.9725
3.1533 -5.4616 -2.9727 0.9725
3.6268 -5.1592 -2.9727 0.9725
4.0717 -4.8160 -2.9727 0.9725
4.4841 -4.4345 -2.9727 0.9725
4.8610 -4.0177 -2.9727 0.9725
5.1993 -3.5691 -2.9727 0.9725
6.2300 -0.9796 -2.9727 0.9725
6.3049 0.1405 -2.9727 0.9725
6.0438 1.8012 -2.9727 0.9725
5.8595 2.3320 -2.9727 0.9725
5.3532 3.3340 -2.9727 0.9725
5.0352 3.7972 -2.9727 0.9725
4.6772 4.2303 -2.9727 0.9725
4.2821 4.6298 -2.9727 0.9725
2.2743 5.5341 -2.8203 0.9739
1.7727 5.7146 -2.8203 0.9739
1.2570 5.8496 -2.8203 0.9739
0.7314 5.9383 -2.8203 0.9739
-1.3870 5.8202 -2.8203 0.9739
-1.8995 5.6737 -2.8203 0.9739
-2.3970 5.4821 -2.8203 0.9739
-2.8754 5.2470 -2.8203 0.9739
-3.3310 4.9702 -2.8203 0.9739
-5.4261 3.2139 -2.9727 0.9725
-5.9100 2.2009 -2.9727 0.9725
-6.2815 0.5613 -2.9727 0.9725
-6.0439 0.0000 -2.9727 0.9734
-5.9482 -1.0716 -2.9727 0.9734
-5.8292 -1.5968 -2.9727 0.9734
-3.7983 -4.7013 -2.9727 0.9734
-1.9188 -5.7312 -2.9727 0.9734
-0.3365 -6.0346 -2.9727 0.9734
0.2020 -6.0405 -2.9727 0.9734
1.7907 -5.7726 -2.9727 0.9734
2.2974 -5.5903 -2.9727 0.9734
3.2521 -5.0944 -2.9727 0.9734
4.1039 -4.4370 -2.9727 0.9734
4.8256 -3.6391 -2.9727 0.9734
5.3943 -2.7259 -2.9727 0.9734
5.9228 -1.2039 -2.9727 0.9734
6.0065 -0.6719 -2.9727 0.9734
6.0304 0.4037 -2.9727 0.9734
5.7095 1.9826 -2.9727 0.9734
5.5104 2.4829 -2.9727 0.9734
5.2675 2.9635 -2.9727 0.9734
4.9829 3.4205 -2.9727 0.9734
4.6587 3.8505 -2.9727 0.9734
4.2974 4.2498 -2.9727 0.9734
2.4137 5.2013 -2.8203 0.9748
1.9412 5.3955 -2.8203 0.9748
1.4532 5.5469 -2.8203 0.9748
0.9537 5.6542 -2.8203 0.9748
-0.0639 5.7337 -2.8203 0.9748
-0.5740 5.7053 -2.8203 0.9748
-1.5764 5.5132 -2.8203 0.9748
-2.0609 5.3510 -2.8203 0.9748
-2.5290 5.1463 -2.8203 0.9748
-2.9770 4.9008 -2.8203 0.9748
-4.0040 4.5274 -2.9727 0.9734
-4.3911 4.1530 -2.9727 0.9734
-5.0578 3.3087 -2.9727 0.9734
-5.5643 2.3595 -2.9727 0.9734
-5.9900 -0.8056 -2.9727 0.9734
-5.0578 -3.3087 -2.9727 0.9734
-4.3911 -4.1530 -2.9727 0.9734
-3.5851 -4.8658 -2.9727 0.9734
-3.1378 -5.1656 -2.9727 0.9734
-0.6050 -6.0136 -2.9727 0.9734
-0.0673 -6.0436 -2.9727 0.9734
2.0460 -5.6871 -2.9727 0.9734
2.5441 -5.4824 -2.9727 0.9734
3.0220 -5.2342 -2.9727 0.9734
4.2974 -4.2498 -2.9727 0.9734
4.6586 -3.8505 -2.9727 0.9734
4.9829 -3.4205 -2.9727 0.9734
5.2675 -2.9635 -2.9727 0.9734
5.8633 -1.4665 -2.9727 0.9734
5.9706 -0.9388 -2.9727 0.9734
6.0304 -0.4037 -2.9727 0.9734
6.0424 0.1347 -2.9727 0.9734
5.3943 2.7259 -2.9727 0.9734
5.1303 3.1952 -2.9727 0.9734
4.4825 4.0542 -2.9727 0.9734
4.1039 4.4371 -2.9727 0.9734
3.6595 4.7417 -2.9460 0.9737
2.6430 5.0887 -2.8203 0.9748
2.1796 5.3037 -2.8203 0.9748
1.6989 5.4767 -2.8203 0.9748
1.2047 5.6061 -2.8203 0.9748
-1.8205 5.4374 -2.8203 0.9748
-2.2972 5.2538 -2.8203 0.9748
-2.7557 5.0285 -2.8203 0.9748
-3.2055 4.7829 -2.8320 0.9747
-3.7983 4.7013 -2.9727 0.9734
-4.5717 3.9533 -2.9727 0.9734
-5.6639 2.1093 -2.9727 0.9734
-5.8292 1.5968 -2.9727 0.9734
-5.9482 1.0716 -2.9727 0.9734
-5.7755 -0.5161 -2.9727 0.9743
-5.5925 -1.5320 -2.9727 0.9743
-5.2323 -2.4992 -2.9727 0.9743
-4.9891 -2.9550 -2.9727 0.9743
-4.0311 -4.1681 -2.9727 0.9743
-3.6441 -4.5104 -2.9727 0.9743
-3.2282 -4.8168 -2.9727 0.9743
-2.7867 -5.0850 -2.9727 0.9743
-2.3230 -5.3129 -2.9727 0.9743
-1.3442 -5.6405 -2.9727 0.9743
-0.8368 -5.7378 -2.9727 0.9743
-0.3228 -5.7895 -2.9727 0.9743
0.1938 -5.7953 -2.9727 0.9743
0.7088 -5.7550 -2.9727 0.9743
1.7180 -5.5382 -2.9727 0.9743
4.3005 -3.8896 -2.9727 0.9743
4.6296 -3.4914 -2.9727 0.9743
5.1753 -2.6152 -2.9727 0.9743
5.7856 0.3873 -2.9727 0.9743
5.7282 0.9007 -2.9727 0.9743
4.7806 3.2817 -2.9727 0.9743
2.7562 4.7739 -2.8261 0.9755
2.3157 4.9902 -2.8203 0.9756
0.9150 5.4247 -2.8203 0.9756
-0.0613 5.5009 -2.8203 0.9756
-1.5124 5.2893 -2.8203 0.9756
-1.9772 5.1337 -2.8203 0.9756
-2.4263 4.9373 -2.8203 0.9756
-4.5507 3.5937 -2.9727 0.9743
-4.8525 3.1744 -2.9727 0.9743
-5.1158 2.7298 -2.9727 0.9743
-5.3384 2.2637 -2.9727 0.9743
-5.5187 1.7796 -2.9727 0.9743
-5.7468 0.7729 -2.9727 0.9743
-5.7928 0.2583 -2.9727 0.9743
-5.7468 -0.7729 -2.9727 0.9743
-5.5187 -1.7796 -2.9727 0.9743
-5.3384 -2.2637 -2.9727 0.9743
-5.1158 -2.7298 -2.9727 0.9743
-4.8525 -3.1743 -2.9727 0.9743
-4.5507 -3.5937 -2.9727 0.9743
-4.2128 -3.9844 -2.9727 0.9743
-3.8414 -4.3436 -2.9727 0.9743
-3.4396 -4.6682 -2.9727 0.9743
-1.5942 -5.5751 -2.9727 0.9743
-0.0646 -5.7982 -2.9727 0.9743
0.4517 -5.7809 -2.9727 0.9743
0.9645 -5.7178 -2.9727 0.9743
1.4696 -5.6092 -2.9727 0.9743
1.9630 -5.4562 -2.9727 0.9743
2.8993 -5.0217 -2.9727 0.9743
3.7437 -4.4280 -2.9727 0.9743
4.1230 -4.0773 -2.9727 0.9743
4.7806 -3.2816 -2.9727 0.9743
5.6253 -1.4070 -2.9727 0.9743
5.7282 -0.9007 -2.9727 0.9743
5.7971 0.1292 -2.9727 0.9743
5.7626 0.6447 -2.9727 0.9743
5.5570 1.6562 -2.9727 0.9743
5.3875 2.1442 -2.9727 0.9743
5.1753 2.6152 -2.9727 0.9743
4.6296 3.4914 -2.9727 0.9743
3.9372 4.2569 -2.9727 0.9743
3.5427 4.5904 -2.9727 0.9743
2.5357 4.8821 -2.8203 0.9756
1.6299 5.2543 -2.8203 0.9756
0.1838 5.4982 -2.8203 0.9756
-0.3063 5.4928 -2.8203 0.9756
-1.2753 5.3514 -2.8203 0.9756
-4.9891 2.9550 -2.9727 0.9743
-5.2323 2.4993 -2.9727 0.9743
-5.5925 1.5320 -2.9727 0.9743
-5.7067 1.0281 -2.9727 0.9743
-5.5686 0.0000 -2.9727 0.9751
-5.2184 -1.9434 -2.9727 0.9751
-5.0248 -2.4001 -2.9727 0.9751
-4.2121 -3.6424 -2.9727 0.9751
-3.4996 -4.3315 -2.9727 0.9751
-3.1002 -4.6258 -2.9727 0.9751
-2.6761 -4.8833 -2.9727 0.9751
-2.2309 -5.1021 -2.9727 0.9751
-1.2909 -5.4169 -2.9727 0.9751
0.6807 -5.5268 -2.9727 0.9751
1.1699 -5.4443 -2.9727 0.9751
2.1167 -5.1505 -2.9727 0.9751
2.5667 -4.9417 -2.9727 0.9751
2.9963 -4.6937 -2.9727 0.9751
3.4022 -4.4084 -2.9727 0.9751
3.7811 -4.0880 -2.9727 0.9751
4.4460 -3.3529 -2.9727 0.9751
4.7268 -2.9438 -2.9727 0.9751
4.9700 -2.5115 -2.9727 0.9751
5.5340 -0.6191 -2.9727 0.9751
5.5010 0.8650 -2.9727 0.9751
5.2604 1.8266 -2.9727 0.9751
5.0770 2.2876 -2.9727 0.9751
4.8532 2.7304 -2.9727 0.9751
3.5952 4.2524 -2.9727 0.9751
2.7410 4.7476 -2.9266 0.9754
0.4116 5.2670 -2.8203 0.9763
-0.0589 5.2827 -2.8203 0.9763
-0.5288 5.2566 -2.8203 0.9763
-1.4524 5.0795 -2.8203 0.9763
-3.3032 4.4831 -2.9727 0.9751
-3.6891 4.1713 -2.9727 0.9751
-4.6600 3.0485 -2.9727 0.9751
-5.1267 2.1739 -2.9727 0.9751
-5.2998 1.7090 -2.9727 0.9751
-5.4309 1.2305 -2.9727 0.9751
-5.5630 -0.2480 -2.9727 0.9751
-5.4309 -1.2305 -2.9727 0.9751
-5.2998 -1.7090 -2.9727 0.9751
-5.1267 -2.1739 -2.9727 0.9751
-4.6600 -3.0484 -2.9727 0.9751
-4.3702 -3.4511 -2.9727 0.9751
-4.0457 -3.8264 -2.9727 0.9751
-3.6891 -4.1713 -2.9727 0.9751
-3.3032 -4.4831 -2.9727 0.9751
-1.0483 -5.4690 -2.9727 0.9751
-0.5574 -5.5406 -2.9727 0.9751
1.4113 -5.3868 -2.9727 0.9751
2.3440 -5.0512 -2.9727 0.9751
2.7843 -4.8225 -2.9727 0.9751
3.2025 -4.5556 -2.9727 0.9751
3.5952 -4.2524 -2.9727 0.9751
3.9594 -3.9156 -2.9727 0.9751
4.5909 -3.1515 -2.9727 0.9751
4.8532 -2.7304 -2.9727 0.9751
5.0770 -2.2876 -2.9727 0.9751
5.2604 -1.8266 -2.9727 0.9751
5.5010 -0.8650 -2.9727 0.9751
5.5672 0.1240 -2.9727 0.9751
5.5340 0.6191 -2.9727 0.9751
5.4570 1.1092 -2.9727 0.9751
5.3366 1.5905 -2.9727 0.9751
4.7268 2.9439 -2.9727 0.9751
4.4460 3.3529 -2.9727 0.9751
3.4022 4.4084 -2.9727 0.9751
1.5653 5.0459 -2.8203 0.9763
0.1765 5.2801 -2.8203 0.9763
-0.7624 5.2278 -2.8203 0.9763
-1.2247 5.1392 -2.8203 0.9763
-1.6773 5.0098 -2.8203 0.9763
-3.1002 4.6258 -2.9727 0.9751
-3.8712 4.0028 -2.9727 0.9751
-4.2121 3.6424 -2.9727 0.9751
-5.0248 2.4001 -2.9727 0.9751
-5.5465 0.4956 -2.9727 0.9751
-4.6053 -2.7277 -2.9727 0.9758
-4.3442 -3.1268 -2.9727 0.9758
-4.0487 -3.5010 -2.9727 0.9758
-3.7210 -3.8475 -2.9727 0.9758
-3.3638 -4.1634 -2.9727 0.9758
-2.9799 -4.4463 -2.9727 0.9758
-2.5723 -4.6938 -2.9727 0.9758
-2.1443 -4.9042 -2.9727 0.9758
-1.6993 -5.0755 -2.9727 0.9758
-0.7725 -5.2964 -2.9727 0.9758
-0.2980 -5.3441 -2.9727 0.9758
0.6543 -5.3123 -2.9727 0.9758
2.8801 -4.5115 -2.9727 0.9758
3.2702 -4.2373 -2.9727 0.9758
3.6344 -3.9294 -2.9727 0.9758
4.2735 -3.2228 -2.9727 0.9758
4.7772 -2.4140 -2.9727 0.9758
5.2452 -1.0661 -2.9727 0.9758
5.3193 -0.5950 -2.9727 0.9758
5.3405 0.3575 -2.9727 0.9758
5.2875 0.8314 -2.9727 0.9758
5.0563 1.7558 -2.9727 0.9758
4.1257 3.4100 -2.9727 0.9758
3.8058 3.7636 -2.9727 0.9758
3.0782 4.3788 -2.9727 0.9758
2.6762 4.6354 -2.9727 0.9758
2.2052 4.7521 -2.9096 0.9763
1.7200 4.7808 -2.8218 0.9770
1.2870 4.9123 -2.8203 0.9770
0.8446 5.0074 -2.8203 0.9770
0.3956 5.0627 -2.8203 0.9770
-2.3377 4.7571 -2.9438 0.9760
-3.1750 4.3091 -2.9727 0.9758
-3.5459 4.0094 -2.9727 0.9758
-3.8887 3.6779 -2.9727 0.9758
-4.2006 3.3172 -2.9727 0.9758
-5.0942 1.6427 -2.9727 0.9758
-5.3047 0.7134 -2.9727 0.9758
-5.3471 0.2384 -2.9727 0.9758
-5.3471 -0.2385 -2.9727 0.9758
-5.0942 -1.6427 -2.9727 0.9758
-4.9277 -2.0895 -2.9727 0.9758
-4.4792 -2.9301 -2.9727 0.9758
-3.8887 -3.6779 -2.9727 0.9758
-3.1750 -4.3091 -2.9727 0.9758
-1.9237 -4.9948 -2.9727 0.9758
-1.4715 -5.1462 -2.9727 0.9758
-1.0076 -5.2567 -2.9727 0.9758
-0.5358 -5.3256 -2.9727 0.9758
-0.0596 -5.3521 -2.9727 0.9758
0.8903 -5.2779 -2.9727 0.9758
1.8120 -5.0364 -2.9727 0.9758
2.6762 -4.6354 -2.9727 0.9758
3.4557 -4.0874 -2.9727 0.9758
3.8058 -3.7636 -2.9727 0.9758
4.6649 -2.6244 -2.9727 0.9758
5.2875 -0.8314 -2.9727 0.9758
5.3511 0.1193 -2.9727 0.9758
4.9731 1.9793 -2.9727 0.9758
4.2735 3.2228 -2.9727 0.9758
3.9697 3.5904 -2.9727 0.9758
3.2702 4.2373 -2.9727 0.9758
2.8801 4.5116 -2.9727 0.9758
2.4623 4.7408 -2.9670 0.9759
1.5045 4.8501 -2.8203 0.9770
1.0669 4.9647 -2.8203 0.9770
-0.2827 5.0702 -2.8203 0.9770
-0.7329 5.0249 -2.8203 0.9770
-1.1772 4.9397 -2.8203 0.9770
-1.6122 4.8154 -2.8203 0.9770
-3.7210 3.8475 -2.9727 0.9758
-4.0487 3.5010 -2.9727 0.9758
-4.3442 3.1268 -2.9727 0.9758
-4.6053 2.7277 -2.9727 0.9758
-4.8298 2.3070 -2.9727 0.9758
-5.3312 0.4764 -2.9727 0.9758
-5.0674 -0.9129 -2.9727 0.9765
-4.9660 -1.3603 -2.9727 0.9765
-4.8252 -1.7969 -2.9727 0.9765
-2.8666 -4.2772 -2.9727 0.9765
-2.4745 -4.5154 -2.9727 0.9765
-0.7431 -5.0950 -2.9727 0.9765
-0.2867 -5.1409 -2.9727 0.9765
0.6294 -5.1103 -2.9727 0.9765
1.5255 -4.9177 -2.9727 0.9765
2.7705 -4.3400 -2.9727 0.9765
3.8187 -3.4538 -2.9727 0.9765
4.5955 -2.3222 -2.9727 0.9765
4.7840 -1.9039 -2.9727 0.9765
5.1170 -0.5724 -2.9727 0.9765
5.1477 -0.1147 -2.9727 0.9765
5.1374 0.3439 -2.9727 0.9765
4.9951 1.2494 -2.9727 0.9765
4.6944 2.1152 -2.9727 0.9765
4.4875 2.5246 -2.9727 0.9765
3.6611 3.6205 -2.9727 0.9765
3.3243 3.9320 -2.9727 0.9765
2.5745 4.4591 -2.9727 0.9765
1.2488 4.7665 -2.8448 0.9775
0.8125 4.8169 -2.8203 0.9777
-0.0544 4.8847 -2.8203 0.9777
-1.3638 4.7694 -2.8640 0.9773
-1.8318 4.7561 -2.9425 0.9767
-2.2709 4.6211 -2.9727 0.9765
-3.4111 3.8570 -2.9727 0.9765
-4.0409 3.1911 -2.9727 0.9765
-4.3089 2.8187 -2.9727 0.9765
-4.7404 2.0101 -2.9727 0.9765
-4.9005 1.5802 -2.9727 0.9765
-5.0217 1.1378 -2.9727 0.9765
-5.1438 -0.2294 -2.9727 0.9765
-5.0217 -1.1378 -2.9727 0.9765
-4.7404 -2.0101 -2.9727 0.9765
-4.5426 -2.4240 -2.9727 0.9765
-4.0409 -3.1911 -2.9727 0.9765
-3.0542 -4.1452 -2.9727 0.9765
-1.8506 -4.8049 -2.9727 0.9765
-0.9693 -5.0568 -2.9727 0.9765
-0.5154 -5.1230 -2.9727 0.9765
-0.0574 -5.1486 -2.9727 0.9765
1.7431 -4.8449 -2.9727 0.9765
2.1674 -4.6705 -2.9727 0.9765
2.5745 -4.4591 -2.9727 0.9765
2.9611 -4.2122 -2.9727 0.9765
3.3243 -3.9320 -2.9727 0.9765
3.6611 -3.6205 -2.9727 0.9765
3.9688 -3.2803 -2.9727 0.9765
4.2450 -2.9140 -2.9727 0.9765
4.4875 -2.5246 -2.9727 0.9765
4.6944 -2.1152 -2.9727 0.9765
5.1374 -0.3439 -2.9727 0.9765
5.1477 0.1147 -2.9727 0.9765
5.1170 0.5724 -2.9727 0.9765
4.5955 2.3222 -2.9727 0.9765
3.8187 3.4538 -2.9727 0.9765
3.4962 3.7800 -2.9727 0.9765
3.1458 4.0762 -2.9727 0.9765
2.7706 4.3400 -2.9727 0.9765
2.3733 4.5694 -2.9727 0.9765
1.4765 4.7599 -2.8773 0.9772
1.0274 4.7810 -2.8233 0.9777
0.5971 4.8483 -2.8203 0.9777
-0.2720 4.8774 -2.8203 0.9777
-1.1380 4.7754 -2.8343 0.9776
-1.5948 4.7633 -2.9001 0.9771
-2.0628 4.7177 -2.9727 0.9765
-2.4745 4.5154 -2.9727 0.9765
-3.2359 4.0051 -2.9727 0.9765
-3.8947 3.3679 -2.9727 0.9765
-4.4301 2.6240 -2.9727 0.9765
-4.6461 2.2193 -2.9727 0.9765
-4.8252 1.7969 -2.9727 0.9765
-4.9660 1.3604 -2.9727 0.9765
-5.0674 0.9129 -2.9727 0.9765
