ply
format ascii 1.0
element vertex 1588
property float32 x
property float32 y
property float32 z
property float32 I
end_header
-3.5998 7.3254 1.2997 0.9675
-3.5962 7.3181 1.1598 0.9676
9.5581 -6.5613 1.6490 0.9542
9.5610 -5.9546 1.4115 0.9556
9.2338 -6.3387 1.4035 0.9559
10.2439 -5.7631 1.4729 0.9537
8.8900 -6.7042 1.2077 0.9562
9.3471 -5.8214 1.1944 0.9567
-3.5890 7.3033 0.8827 0.9678
9.0404 -6.2059 1.1894 0.9568
10.7664 -5.4405 1.1059 0.9527
-3.5854 7.2960 0.7453 0.9679
9.6677 -5.4390 1.0169 0.9564
10.2874 -5.1985 0.8638 0.9548
-3.5818 7.2888 0.6086 0.9679
8.6215 -7.1259 0.8382 0.9561
8.8133 -6.0500 0.8011 0.9580
8.5505 -6.4482 0.6237 0.9580
9.0134 -5.6136 0.6185 0.9583
10.1066 -5.1071 0.6595 0.9556
-3.5783 7.2816 0.4725 0.9680
8.7321 -5.9942 0.6169 0.9585
9.4366 -5.3090 0.6306 0.9575
8.9649 -5.5834 0.4391 0.9586
-3.5747 7.2743 0.3370 0.9681
9.3740 -5.2737 0.4472 0.9579
9.9071 -5.0063 0.2768 0.9566
-3.5712 7.2672 0.2019 0.9681
8.3762 -6.9231 0.2710 0.9575
9.3176 -5.2420 0.2666 0.9581
8.8993 -5.5425 0.0871 0.9589
-3.5677 7.2600 0.0672 0.9682
8.6222 -5.9188 0.0869 0.9590
9.2924 -5.2278 0.0886 0.9582
8.4202 -6.3500 -0.0877 0.9587
8.8847 -5.5334 -0.0870 0.9590
9.8487 -4.9768 -0.0917 0.9568
-3.5642 7.2529 -0.0672 0.9682
8.6081 -5.9091 -0.0868 0.9591
8.4996 -7.6875 -0.2858 0.9552
8.4231 -6.3522 -0.2631 0.9587
8.8874 -5.5351 -0.2611 0.9590
9.8553 -4.9801 -0.2754 0.9568
9.2783 -5.2199 -0.2655 0.9583
8.4378 -6.3633 -0.4394 0.9586
9.8787 -4.9919 -0.4602 0.9567
8.6427 -7.8169 -0.6787 0.9544
8.4647 -6.3836 -0.6175 0.9584
8.3920 -6.9361 -0.6341 0.9573
9.3306 -5.2493 -0.6235 0.9580
8.5113 -6.4187 -0.7989 0.9581
8.9747 -5.5895 -0.7923 0.9585
8.4540 -6.9874 -0.8219 0.9570
8.6947 -5.9686 -0.7903 0.9586
9.3879 -5.2815 -0.8072 0.9577
8.5708 -6.4636 -0.9841 0.9578
9.0323 -5.6254 -0.9755 0.9582
10.1681 -5.1382 -1.0444 0.9553
-3.5524 7.2288 -0.7384 0.9682
8.7500 -6.0066 -0.9730 0.9583
9.4638 -5.3243 -0.9955 0.9573
8.6577 -6.5291 -1.1762 0.9573
8.6593 -7.1571 -1.2185 0.9558
8.8335 -6.0638 -1.1622 0.9578
9.2405 -5.7550 -1.3642 0.9571
8.9535 -6.7521 -1.5951 0.9557
-3.5514 7.2270 -1.1454 0.9680
9.0825 -6.2348 -1.5670 0.9565
9.9751 -5.6119 -1.6279 0.9548
9.2778 -6.9967 -1.8504 0.9540
9.6520 -6.0113 -1.8107 0.9550
9.3143 -6.3939 -1.7990 0.9553
-3.5505 7.2251 -1.5579 0.9677
11.7527 8.0678 -3.0053 0.9434
10.9880 9.0818 -3.0053 0.9434
7.1277 12.3455 -3.0053 0.9434
4.8258 13.4137 -3.0053 0.9434
2.3711 14.0568 -3.0053 0.9434
1.1105 14.2120 -3.0053 0.9434
-0.1588 14.2545 -3.0053 0.9434
-3.9191 13.7060 -3.0053 0.9434
-3.5502 7.2245 -1.6970 0.9676
-7.4010 12.1837 -3.0053 0.9434
-8.4560 11.4766 -3.0053 0.9434
-9.4439 10.6784 -3.0053 0.9434
-10.3568 9.7955 -3.0053 0.9434
-11.1876 8.8347 -3.0053 0.9434
-12.5768 6.7112 -3.0053 0.9434
13.2449 5.2714 -3.0053 0.9434
12.7232 6.4293 -3.0053 0.9434
12.1004 7.5362 -3.0053 0.9434
10.5725 9.5623 -3.0053 0.9434
9.6795 10.4653 -3.0053 0.9434
8.7096 11.2853 -3.0053 0.9434
7.6706 12.0157 -3.0053 0.9434
5.4186 13.1854 -3.0053 0.9434
2.9949 13.9372 -3.0053 0.9434
-2.0573 14.1061 -3.0053 0.9434
-3.3047 13.8670 -3.0053 0.9434
-5.7110 13.0614 -3.0053 0.9434
-6.8509 12.5012 -3.0053 0.9434
-9.9102 10.2471 -3.0053 0.9434
-10.7829 9.3244 -3.0053 0.9434
-11.5700 8.3276 -3.0053 0.9434
-12.2653 7.2647 -3.0053 0.9434
-13.8348 0.0000 -3.1577 0.9448
-13.3433 -3.6551 -3.1577 0.9448
-12.9650 -4.8282 -3.1577 0.9448
-12.4838 -5.9630 -3.1577 0.9448
-11.9035 -7.0504 -3.1577 0.9448
-11.2287 -8.0819 -3.1577 0.9448
-10.4648 -9.0493 -3.1577 0.9448
-5.5425 -12.6761 -3.1577 0.9448
-4.3923 -13.1190 -3.1577 0.9448
-1.9966 -13.6900 -3.1577 0.9448
1.6911 -13.7311 -3.1577 0.9448
4.0989 -13.2137 -3.1577 0.9448
5.2587 -12.7964 -3.1577 0.9448
7.4443 -11.6613 -3.1577 0.9448
9.3939 -10.1566 -3.1577 0.9448
10.2606 -9.2802 -3.1577 0.9448
11.7435 -7.3139 -3.1577 0.9448
12.8542 -5.1159 -3.1577 0.9448
13.5576 -2.7557 -3.1577 0.9448
13.7491 -1.5380 -3.1577 0.9448
13.6669 2.1490 -3.1577 0.9448
13.4214 3.3569 -3.1577 0.9448
10.8555 7.4519 -3.0053 0.9474
10.1492 8.3885 -3.0053 0.9474
9.3623 9.2586 -3.0053 0.9474
5.5425 11.9438 -3.0053 0.9474
3.3370 12.7372 -3.0053 0.9474
1.0258 13.1271 -3.0053 0.9474
-1.3180 13.1010 -3.0053 0.9474
-2.4788 12.9317 -3.0053 0.9474
-3.6199 12.6598 -3.0053 0.9474
-4.7324 12.2873 -3.0053 0.9474
-6.8360 11.2535 -3.0053 0.9474
-10.3335 8.1603 -3.0053 0.9474
-11.0188 7.2082 -3.0053 0.9474
-12.1223 5.1403 -3.0053 0.9474
-13.1672 4.2459 -3.1577 0.9448
-13.7114 1.8440 -3.1577 0.9448
-13.8211 0.6163 -3.1577 0.9448
-13.8211 -0.6163 -3.1577 0.9448
-12.2058 -6.5132 -3.1577 0.9448
-9.1653 -10.3634 -3.1577 0.9448
-8.2065 -11.1380 -3.1577 0.9448
-7.1826 -11.8242 -3.1577 0.9448
-4.9723 -12.9104 -3.1577 0.9448
-3.8035 -13.3017 -3.1577 0.9448
-0.1555 -13.8336 -3.1577 0.9448
2.3011 -13.6421 -3.1577 0.9448
3.5062 -13.3831 -3.1577 0.9448
4.6835 -13.0179 -3.1577 0.9448
5.8236 -12.5494 -3.1577 0.9448
6.9174 -11.9813 -3.1577 0.9448
10.6638 -8.8139 -3.1577 0.9448
11.4060 -7.8298 -3.1577 0.9448
12.0576 -6.7835 -3.1577 0.9448
13.0693 -4.5382 -3.1577 0.9448
13.4214 -3.3569 -3.1577 0.9448
13.8039 -0.9240 -3.1577 0.9448
13.8314 0.3082 -3.1577 0.9448
13.2585 3.9515 -3.1577 0.9448
11.7519 5.9385 -3.0053 0.9474
8.9405 9.6664 -3.0053 0.9474
7.0850 11.0985 -3.0053 0.9474
5.0049 12.1788 -3.0053 0.9474
3.9011 12.5760 -3.0053 0.9474
1.6095 13.0684 -3.0053 0.9474
0.4400 13.1598 -3.0053 0.9474
-0.7331 13.1467 -3.0053 0.9474
-3.0524 12.8084 -3.0053 0.9474
-4.1803 12.4859 -3.0053 0.9474
-5.2750 12.0643 -3.0053 0.9474
-6.3279 11.5469 -3.0053 0.9474
-7.3305 10.9379 -3.0053 0.9474
-10.6868 7.6919 -3.0053 0.9474
-11.3290 6.7102 -3.0053 0.9474
-11.8813 5.6752 -3.0053 0.9474
-12.8446 4.7834 -3.1284 0.9453
-13.3433 3.6551 -3.1577 0.9448
-13.6156 2.4530 -3.1577 0.9448
-13.7799 1.2314 -3.1577 0.9448
-12.8467 0.0000 -3.1577 0.9485
-12.7957 -1.1434 -3.1577 0.9485
-12.6431 -2.2778 -3.1577 0.9485
-11.0533 -6.5469 -3.1577 0.9485
-8.9309 -9.2345 -3.1577 0.9485
-7.1521 -10.6716 -3.1577 0.9485
-2.9781 -12.4967 -3.1577 0.9485
-1.8540 -12.7122 -3.1577 0.9485
0.4293 -12.8395 -3.1577 0.9485
1.5704 -12.7503 -3.1577 0.9485
2.6990 -12.5600 -3.1577 0.9485
5.9213 -11.4006 -3.1577 0.9485
8.7230 -9.4312 -3.1577 0.9485
9.5277 -8.6173 -3.1577 0.9485
10.2569 -7.7351 -3.1577 0.9485
11.4659 -5.7939 -3.1577 0.9485
11.9361 -4.7504 -3.1577 0.9485
12.3115 -3.6692 -3.1577 0.9485
12.6907 1.9955 -3.1577 0.9485
12.1358 4.2140 -3.1577 0.9485
11.1473 5.0227 -3.0053 0.9509
9.4243 7.7894 -3.0053 0.9509
8.6936 8.5973 -3.0053 0.9509
6.1133 10.5886 -3.0053 0.9509
3.0987 11.8275 -3.0053 0.9509
2.0336 12.0563 -3.0053 0.9509
0.9525 12.1895 -3.0053 0.9509
-1.2238 12.1653 -3.0053 0.9509
-3.3614 11.7555 -3.0053 0.9509
-4.3943 11.4097 -3.0053 0.9509
-3.5496 7.2232 -1.9783 0.9674
-6.3477 10.4498 -3.0053 0.9509
-7.2526 9.8433 -3.0053 0.9509
-8.0999 9.1587 -3.0053 0.9509
-8.8829 8.4015 -3.0053 0.9509
-9.5955 7.5775 -3.0053 0.9509
-10.2318 6.6934 -3.0053 0.9509
-10.7869 5.7561 -3.0053 0.9509
-11.3181 4.7993 -3.0218 0.9506
-12.2267 3.9426 -3.1577 0.9485
-12.7320 1.7123 -3.1577 0.9485
-12.5291 -2.8387 -3.1577 0.9485
-12.2267 -3.9426 -3.1577 0.9485
-11.3340 -6.0480 -3.1577 0.9485
-9.3334 -8.8274 -3.1577 0.9485
-8.5107 -9.6231 -3.1577 0.9485
-7.6204 -10.3425 -3.1577 0.9485
-6.6696 -10.9797 -3.1577 0.9485
-5.6659 -11.5297 -3.1577 0.9485
1.0008 -12.8076 -3.1577 0.9485
2.1368 -12.6677 -3.1577 0.9485
4.3490 -12.0881 -3.1577 0.9485
9.1344 -9.0332 -3.1577 0.9485
10.5913 -7.2705 -3.1577 0.9485
11.1964 -6.2990 -3.1577 0.9485
11.7126 -5.2774 -3.1577 0.9485
12.1358 -4.2140 -3.1577 0.9485
12.6907 -1.9955 -3.1577 0.9485
12.8180 -0.8580 -3.1577 0.9485
12.8435 0.2862 -3.1577 0.9485
12.7670 1.4282 -3.1577 0.9485
12.3115 3.6692 -3.1577 0.9485
9.0679 8.2015 -3.0053 0.9509
8.3020 8.9760 -3.0053 0.9509
7.4701 9.6793 -3.0053 0.9509
6.5790 10.3058 -3.0053 0.9509
5.6356 10.8504 -3.0053 0.9509
4.6475 11.3089 -3.0053 0.9509
3.6225 11.6777 -3.0053 0.9509
0.4086 12.2198 -3.0053 0.9509
-0.6807 12.2077 -3.0053 0.9509
-1.7645 12.0987 -3.0053 0.9509
-4.8982 11.2026 -3.0053 0.9509
-5.8759 10.7222 -3.0053 0.9509
-6.8069 10.1566 -3.0053 0.9509
-9.2484 7.9974 -3.0053 0.9509
-9.9235 7.1425 -3.0053 0.9509
-10.5198 6.2309 -3.0053 0.9509
-11.0327 5.2699 -3.0053 0.9509
-12.0389 4.4834 -3.1577 0.9485
-12.6431 2.2778 -3.1577 0.9485
-12.7957 1.1434 -3.1577 0.9485
-11.5579 -3.1660 -3.1577 0.9516
-11.2302 -4.1822 -3.1577 0.9516
-10.8134 -5.1652 -3.1577 0.9516
-9.7263 -7.0006 -3.1577 0.9516
-9.0646 -7.8385 -3.1577 0.9516
-8.3310 -8.6141 -3.1577 0.9516
-7.5312 -9.3215 -3.1577 0.9516
-6.6717 -9.9548 -3.1577 0.9516
-4.8009 -10.9800 -3.1577 0.9516
-3.8046 -11.3637 -3.1577 0.9516
1.4649 -11.8938 -3.1577 0.9516
3.5505 -11.4456 -3.1577 0.9516
4.5551 -11.0842 -3.1577 0.9516
5.5236 -10.6348 -3.1577 0.9516
7.3217 -9.4869 -3.1577 0.9516
8.1370 -8.7977 -3.1577 0.9516
9.5679 -7.2155 -3.1577 0.9516
10.1722 -6.3353 -3.1577 0.9516
10.6957 -5.4047 -3.1577 0.9516
11.1343 -4.4313 -3.1577 0.9516
11.4845 -3.4227 -3.1577 0.9516
11.9094 -1.3323 -3.1577 0.9516
11.8382 1.8615 -3.1577 0.9516
11.6256 2.9078 -3.1577 0.9516
11.3206 3.9310 -3.1577 0.9516
10.5225 4.7412 -3.0412 0.9534
9.9402 5.5923 -3.0053 0.9539
6.5592 9.3305 -3.0053 0.9539
3.8610 10.7319 -3.0053 0.9539
1.8970 11.2465 -3.0053 0.9539
0.8885 11.3707 -3.0053 0.9539
-0.1271 11.4046 -3.0053 0.9539
-1.1416 11.3481 -3.0053 0.9539
-3.1356 10.9658 -3.0053 0.9539
-4.0992 10.6433 -3.0053 0.9539
-5.9213 9.7478 -3.0053 0.9539
-9.5445 6.2438 -3.0053 0.9539
-10.0623 5.3695 -3.0053 0.9539
-11.0328 4.6783 -3.1577 0.9516
-11.4054 3.6778 -3.1577 0.9516
-11.6875 2.6480 -3.1577 0.9516
-11.8768 1.5973 -3.1577 0.9516
-11.6875 -2.6480 -3.1577 0.9516
-11.4054 -3.6778 -3.1577 0.9516
-10.5726 -5.6417 -3.1577 0.9516
-10.0285 -6.5604 -3.1577 0.9516
-9.4048 -7.4269 -3.1577 0.9516
-8.7064 -8.2345 -3.1577 0.9516
-7.9390 -8.9767 -3.1577 0.9516
-7.1085 -9.6477 -3.1577 0.9516
-4.3070 -11.1829 -3.1577 0.9516
-3.2946 -11.5219 -3.1577 0.9516
-1.1995 -11.9235 -3.1577 0.9516
-0.1335 -11.9829 -3.1577 0.9516
0.9336 -11.9473 -3.1577 0.9516
1.9932 -11.8168 -3.1577 0.9516
3.0371 -11.5924 -3.1577 0.9516
4.0568 -11.2761 -3.1577 0.9516
6.8918 -9.8037 -3.1577 0.9516
7.7370 -9.1514 -3.1577 0.9516
8.5208 -8.4264 -3.1577 0.9516
11.6256 -2.9077 -3.1577 0.9516
11.9807 0.2670 -3.1577 0.9516
11.9094 1.3323 -3.1577 0.9516
11.7436 2.3870 -3.1577 0.9516
11.4845 3.4228 -3.1577 0.9516
11.1343 4.4313 -3.1577 0.9516
9.6812 6.0296 -3.0053 0.9539
7.7443 8.3730 -3.0053 0.9539
5.2570 10.1215 -3.0053 0.9539
4.3353 10.5493 -3.0053 0.9539
3.3791 10.8933 -3.0053 0.9539
2.3962 11.1508 -3.0053 0.9539
0.3811 11.3990 -3.0053 0.9539
-2.6440 11.0946 -3.0053 0.9539
-3.6210 10.8153 -3.0053 0.9539
-4.5692 10.4501 -3.0053 0.9539
-7.9289 8.1984 -3.0053 0.9539
-8.6271 7.4602 -3.0053 0.9539
-9.2569 6.6627 -3.0053 0.9539
-11.2302 4.1822 -3.1577 0.9516
-11.5579 3.1661 -3.1577 0.9516
-11.2232 0.0000 -3.1577 0.9544
-11.0453 -1.9899 -3.1577 0.9544
-9.6564 -5.7195 -3.1577 0.9544
-8.4893 -7.3410 -3.1577 0.9544
-7.8023 -8.0675 -3.1577 0.9544
-6.2482 -9.3230 -3.1577 0.9544
-5.3936 -9.8421 -3.1577 0.9544
-4.4962 -10.2831 -3.1577 0.9544
-3.5631 -10.6425 -3.1577 0.9544
-1.6197 -11.1057 -3.1577 0.9544
-0.6248 -11.2057 -3.1577 0.9544
1.3719 -11.1390 -3.1577 0.9544
3.3252 -10.7193 -3.1577 0.9544
6.8570 -8.8849 -3.1577 0.9544
8.3237 -7.5283 -3.1577 0.9544
9.5266 -5.9332 -3.1577 0.9544
10.0169 -5.0618 -3.1577 0.9544
10.4276 -4.1501 -3.1577 0.9544
11.1536 -1.2477 -3.1577 0.9544
11.2204 -0.2500 -3.1577 0.9544
11.0869 1.7434 -3.1577 0.9544
10.8878 2.7232 -3.1577 0.9544
10.6022 3.6815 -3.1577 0.9544
8.8063 6.0452 -3.0053 0.9566
6.8963 8.1570 -3.0053 0.9566
6.1429 8.7384 -3.0053 0.9566
4.4962 9.6891 -3.0053 0.9566
3.6160 10.0509 -3.0053 0.9566
2.7071 10.3328 -3.0053 0.9566
1.7766 10.5327 -3.0053 0.9566
0.8321 10.6491 -3.0053 0.9566
-1.0692 10.6279 -3.0053 0.9566
-6.3360 8.5994 -3.0053 0.9566
-8.3828 6.6198 -3.0053 0.9566
-8.9388 5.8475 -3.0053 0.9566
-10.3326 4.3814 -3.1577 0.9544
-10.9457 2.4800 -3.1577 0.9544
-11.1230 1.4959 -3.1577 0.9544
-11.2120 -0.5000 -3.1577 0.9544
-11.1230 -1.4959 -3.1577 0.9544
-10.3326 -4.3814 -3.1577 0.9544
-9.3921 -6.1440 -3.1577 0.9544
-7.4351 -8.4070 -3.1577 0.9544
-3.0855 -10.7907 -3.1577 0.9544
-1.1234 -11.1668 -3.1577 0.9544
-0.1250 -11.2225 -3.1577 0.9544
1.8667 -11.0668 -3.1577 0.9544
2.8443 -10.8567 -3.1577 0.9544
3.7994 -10.5605 -3.1577 0.9544
6.4544 -9.1815 -3.1577 0.9544
7.9801 -7.8916 -3.1577 0.9544
8.6508 -7.1500 -3.1577 0.9544
9.2528 -6.3517 -3.1577 0.9544
10.2324 -4.6105 -3.1577 0.9544
10.8878 -2.7232 -3.1577 0.9544
11.1981 -0.7496 -3.1577 0.9544
11.2204 0.2501 -3.1577 0.9544
11.1536 1.2477 -3.1577 0.9544
10.4277 4.1501 -3.1577 0.9544
9.5334 4.8175 -3.0053 0.9566
7.9220 7.1650 -3.0053 0.9566
5.7475 9.0034 -3.0053 0.9566
4.9234 9.4792 -3.0053 0.9566
4.0601 9.8798 -3.0053 0.9566
3.1647 10.2019 -3.0053 0.9566
2.2441 10.4431 -3.0053 0.9566
1.3057 10.6014 -3.0053 0.9566
0.3569 10.6755 -3.0053 0.9566
-0.5947 10.6650 -3.0053 0.9566
-2.4762 10.3905 -3.0053 0.9566
-3.3912 10.1289 -3.0053 0.9566
-4.2792 9.7868 -3.0053 0.9566
-6.7128 8.3086 -3.0053 0.9566
-8.0796 6.9867 -3.0053 0.9566
-9.1904 5.4435 -3.0053 0.9566
-10.8244 2.9651 -3.1577 0.9544
-11.0453 1.9899 -3.1577 0.9544
-10.5475 0.0000 -3.1577 0.9569
-10.5056 -0.9388 -3.1577 0.9569
-10.3804 -1.8701 -3.1577 0.9569
-9.0751 -5.3752 -3.1577 0.9569
-7.3325 -7.5818 -3.1577 0.9569
-6.6286 -8.2043 -3.1577 0.9569
-5.8721 -8.7617 -3.1577 0.9569
-5.0689 -9.2496 -3.1577 0.9569
-3.3486 -10.0018 -3.1577 0.9569
-2.4451 -10.2601 -3.1577 0.9569
-1.5222 -10.4371 -3.1577 0.9569
1.2893 -10.4684 -3.1577 0.9569
2.2159 -10.3121 -3.1577 0.9569
5.6754 -8.8904 -3.1577 0.9569
7.8226 -7.0751 -3.1577 0.9569
8.4212 -6.3508 -3.1577 0.9569
10.1081 -3.0125 -3.1577 0.9569
10.3361 -2.1009 -3.1577 0.9569
10.5449 -0.2350 -3.1577 0.9569
10.5239 0.7045 -3.1577 0.9569
10.4195 1.6384 -3.1577 0.9569
10.2323 2.5593 -3.1577 0.9569
9.9639 3.4599 -3.1577 0.9569
8.7489 4.9221 -3.0053 0.9590
8.2761 5.6812 -3.0053 0.9590
7.1377 7.0586 -3.0053 0.9590
5.7731 8.2123 -3.0053 0.9590
5.0192 8.6936 -3.0053 0.9590
2.5441 9.7107 -3.0053 0.9590
-0.1118 10.0378 -3.0053 0.9590
-1.0048 9.9880 -3.0053 0.9590
-2.7598 9.6516 -3.0053 0.9590
-3.4914 7.1048 -2.3700 0.9675
-5.2117 8.5796 -3.0053 0.9590
-6.6503 7.5196 -3.0053 0.9590
-7.8782 6.2213 -3.0053 0.9590
-8.4006 5.4954 -3.0053 0.9590
-9.7105 4.1176 -3.1577 0.9569
-10.0385 3.2370 -3.1577 0.9569
-10.4534 -1.4058 -3.1577 0.9569
-10.0385 -3.2370 -3.1577 0.9569
-9.3055 -4.9655 -3.1577 0.9569
-6.9875 -7.9009 -3.1577 0.9569
-6.2566 -8.4914 -3.1577 0.9569
-4.6519 -9.4662 -3.1577 0.9569
-3.7908 -9.8427 -3.1577 0.9569
-1.9856 -10.3589 -3.1577 0.9569
0.8217 -10.5154 -3.1577 0.9569
1.7544 -10.4005 -3.1577 0.9569
2.6731 -10.2031 -3.1577 0.9569
3.5706 -9.9247 -3.1577 0.9569
4.4398 -9.5675 -3.1577 0.9569
6.0658 -8.6287 -3.1577 0.9569
7.4996 -7.4165 -3.1577 0.9569
8.1300 -6.7196 -3.1577 0.9569
8.6958 -5.9693 -3.1577 0.9569
9.1926 -5.1716 -3.1577 0.9569
10.4195 -1.6384 -3.1577 0.9569
10.5449 0.2350 -3.1577 0.9569
9.7999 3.9003 -3.1577 0.9569
8.0148 6.0443 -3.0053 0.9590
7.4450 6.7336 -3.0053 0.9590
5.4015 8.4613 -3.0053 0.9590
4.6270 8.9085 -3.0053 0.9590
3.8157 9.2850 -3.0053 0.9590
2.9741 9.5877 -3.0053 0.9590
2.1090 9.8144 -3.0053 0.9590
0.3354 10.0328 -3.0053 0.9590
-2.3271 9.7650 -3.0053 0.9590
-3.1870 9.5191 -3.0053 0.9590
-4.0216 9.1977 -3.0053 0.9590
-3.8433 7.0132 -2.3942 0.9672
-5.5887 8.3389 -3.0053 0.9590
-6.3087 7.8084 -3.0053 0.9590
-6.9786 7.2159 -3.0053 0.9590
-7.5932 6.5661 -3.0053 0.9590
-9.5175 4.5462 -3.1577 0.9569
-10.3804 1.8701 -3.1577 0.9569
-9.9034 -0.8850 -3.1577 0.9591
-9.7853 -1.7629 -3.1577 0.9591
-9.5896 -2.6268 -3.1577 0.9591
-8.9719 -4.2855 -3.1577 0.9591
-8.5549 -5.0671 -3.1577 0.9591
-8.0699 -5.8084 -3.1577 0.9591
-7.5209 -6.5036 -3.1577 0.9591
-6.9122 -7.1472 -3.1577 0.9591
-6.2486 -7.7340 -3.1577 0.9591
-5.5355 -8.2595 -3.1577 0.9591
-3.9833 -9.1101 -3.1577 0.9591
-2.3050 -9.6720 -3.1577 0.9591
-1.4350 -9.8388 -3.1577 0.9591
2.0889 -9.7210 -3.1577 0.9591
2.9458 -9.4964 -3.1577 0.9591
5.3501 -8.3808 -3.1577 0.9591
6.7513 -7.2994 -3.1577 0.9591
7.3742 -6.6696 -3.1577 0.9591
7.9385 -5.9867 -3.1577 0.9591
8.4398 -5.2564 -3.1577 0.9591
8.8742 -4.4844 -3.1577 0.9591
9.7436 -1.9805 -3.1577 0.9591
9.9207 0.6641 -3.1577 0.9591
9.8222 1.5445 -3.1577 0.9591
9.6458 2.4126 -3.1577 0.9591
9.3927 3.2615 -3.1577 0.9591
9.0652 4.0846 -3.1577 0.9591
8.4270 4.7410 -3.0708 0.9602
7.2941 6.0287 -3.0053 0.9611
6.7285 6.6540 -3.0053 0.9611
5.4421 7.7416 -3.0053 0.9611
3.2035 8.9043 -3.0053 0.9611
0.7372 9.4343 -3.0053 0.9611
-0.9472 9.4155 -3.0053 0.9611
-2.6016 9.0984 -3.0053 0.9611
-4.9129 8.0878 -3.0053 0.9611
-6.8751 6.5024 -3.0053 0.9611
-7.4266 5.8647 -3.0053 0.9611
-9.4631 3.0515 -3.1577 0.9591
-9.8542 1.3253 -3.1577 0.9591
-9.9330 -0.4429 -3.1577 0.9591
-9.8542 -1.3253 -3.1577 0.9591
-9.4631 -3.0514 -3.1577 0.9591
-9.1539 -3.8816 -3.1577 0.9591
-8.7721 -4.6809 -3.1577 0.9591
-8.3207 -5.4431 -3.1577 0.9591
-7.2237 -6.8321 -3.1577 0.9591
-6.5870 -7.4480 -3.1577 0.9591
-5.8979 -8.0047 -3.1577 0.9591
-5.1620 -8.4979 -3.1577 0.9591
-4.3852 -8.9236 -3.1577 0.9591
-3.5735 -9.2785 -3.1577 0.9591
-2.7335 -9.5597 -3.1577 0.9591
-1.8718 -9.7651 -3.1577 0.9591
-0.9952 -9.8929 -3.1577 0.9591
-0.1108 -9.9422 -3.1577 0.9591
0.7746 -9.9127 -3.1577 0.9591
1.6538 -9.8044 -3.1577 0.9591
2.5199 -9.6182 -3.1577 0.9591
4.9714 -8.6108 -3.1577 0.9591
5.7181 -8.1341 -3.1577 0.9591
6.4194 -7.5929 -3.1577 0.9591
7.0697 -6.9914 -3.1577 0.9591
7.6639 -6.3344 -3.1577 0.9591
8.1973 -5.6271 -3.1577 0.9591
9.6458 -2.4125 -3.1577 0.9591
9.8222 -1.5445 -3.1577 0.9591
9.9207 -0.6641 -3.1577 0.9591
9.9404 0.2215 -3.1577 0.9591
9.8812 1.1054 -3.1577 0.9591
9.5287 2.8399 -3.1577 0.9591
6.4254 6.9471 -3.0053 0.9611
5.7816 7.4914 -3.0053 0.9611
2.8037 9.0382 -3.0053 0.9611
1.9881 9.2518 -3.0053 0.9611
1.1567 9.3921 -3.0053 0.9611
0.3162 9.4578 -3.0053 0.9611
-2.1937 9.2052 -3.0053 0.9611
-3.0043 8.9735 -3.0053 0.9611
-5.9471 7.3608 -3.0053 0.9611
-6.5786 6.8023 -3.0053 0.9611
-8.1420 4.8225 -3.0053 0.9611
-9.3177 3.4700 -3.1577 0.9591
-9.3611 -0.8365 -3.1577 0.9611
-9.2495 -1.6664 -3.1577 0.9611
-9.0645 -2.4830 -3.1577 0.9611
-8.4806 -4.0508 -3.1577 0.9611
-7.6280 -5.4903 -3.1577 0.9611
-4.5167 -8.2420 -3.1577 0.9611
-3.7652 -8.6112 -3.1577 0.9611
-2.9838 -8.9122 -3.1577 0.9611
1.1488 -9.3280 -3.1577 0.9611
2.7845 -8.9764 -3.1577 0.9611
3.5724 -8.6930 -3.1577 0.9611
6.3816 -6.8997 -3.1577 0.9611
7.5038 -5.6589 -3.1577 0.9611
9.2101 -1.8720 -3.1577 0.9611
9.3961 -0.2094 -3.1577 0.9611
9.1176 2.2805 -3.1577 0.9611
8.8784 3.0829 -3.1577 0.9611
7.3745 5.0623 -3.0053 0.9630
6.8947 5.6986 -3.0053 0.9630
5.7750 6.8308 -3.0053 0.9630
5.1442 7.3177 -3.0053 0.9630
4.4724 7.7465 -3.0053 0.9630
3.7652 8.1138 -3.0053 0.9630
3.0281 8.4167 -3.0053 0.9630
1.4878 8.8203 -3.0053 0.9630
0.6968 8.9177 -3.0053 0.9630
-0.0996 8.9443 -3.0053 0.9630
-0.8953 8.8999 -3.0053 0.9630
-1.6839 8.7849 -3.0053 0.9630
-3.4603 7.0416 -2.6361 0.9674
-5.3059 7.2012 -3.0053 0.9630
-6.4986 6.1464 -3.0053 0.9630
-7.0199 5.5436 -3.0053 0.9630
-8.6527 3.6691 -3.1577 0.9611
-8.9449 2.8844 -3.1577 0.9611
-9.1661 2.0768 -3.1577 0.9611
-9.3146 1.2527 -3.1577 0.9611
-9.3891 -0.4187 -3.1577 0.9611
-8.9449 -2.8843 -3.1577 0.9611
-8.2918 -4.4246 -3.1577 0.9611
-7.8650 -5.1451 -3.1577 0.9611
-7.3759 -5.8247 -3.1577 0.9611
-4.8794 -8.0326 -3.1577 0.9611
-4.1451 -8.4350 -3.1577 0.9611
-2.5839 -9.0363 -3.1577 0.9611
-0.9407 -9.3512 -3.1577 0.9611
0.7322 -9.3699 -3.1577 0.9611
1.5632 -9.2675 -3.1577 0.9611
6.0679 -7.1771 -3.1577 0.9611
6.6826 -6.6086 -3.1577 0.9611
9.1176 -2.2804 -3.1577 0.9611
9.2844 -1.4599 -3.1577 0.9611
9.3961 0.2094 -3.1577 0.9611
9.3402 1.0448 -3.1577 0.9611
9.2101 1.8721 -3.1577 0.9611
8.7323 3.4754 -3.1577 0.9611
8.3883 4.2388 -3.1577 0.9611
7.6305 4.7525 -3.0204 0.9628
7.1417 5.3858 -3.0053 0.9630
6.0736 6.5667 -3.0053 0.9630
5.4650 7.0812 -3.0053 0.9630
4.8131 7.5396 -3.0053 0.9630
2.6501 8.5432 -3.0053 0.9630
1.8792 8.7452 -3.0053 0.9630
-0.4980 8.9310 -3.0053 0.9630
-1.2909 8.8512 -3.0053 0.9630
-2.0736 8.7012 -3.0053 0.9630
-3.8233 6.9766 -2.6729 0.9670
-5.6214 6.9577 -3.0053 0.9630
-7.2599 5.2254 -3.0053 0.9630
-9.0645 2.4830 -3.1577 0.9611
-9.2495 1.6664 -3.1577 0.9611
-8.5889 -2.3527 -3.1577 0.9629
-8.3454 -3.1079 -3.1577 0.9629
-8.0357 -3.8383 -3.1577 0.9629
-7.6622 -4.5383 -3.1577 0.9629
-7.2278 -5.2023 -3.1577 0.9629
-6.7361 -5.8249 -3.1577 0.9629
-5.5966 -6.9270 -3.1577 0.9629
-3.5677 -8.1594 -3.1577 0.9629
-2.8273 -8.4446 -3.1577 0.9629
-2.0644 -8.6627 -3.1577 0.9629
-1.2852 -8.8121 -3.1577 0.9629
1.0886 -8.8385 -3.1577 0.9629
1.8709 -8.7066 -3.1577 0.9629
2.6384 -8.5055 -3.1577 0.9629
4.1047 -7.9029 -3.1577 0.9629
5.4409 -7.0499 -3.1577 0.9629
7.5591 -4.7079 -3.1577 0.9629
8.7269 -1.7738 -3.1577 0.9629
8.8854 0.5948 -3.1577 0.9629
8.6392 2.1608 -3.1577 0.9629
8.4126 2.9212 -3.1577 0.9629
7.7614 4.3665 -3.1577 0.9629
6.9876 4.7967 -3.0053 0.9647
6.5329 5.3996 -3.0053 0.9647
6.0264 5.9596 -3.0053 0.9647
4.8743 6.9337 -3.0053 0.9647
4.2378 7.3400 -3.0053 0.9647
3.5676 7.6881 -3.0053 0.9647
2.8692 7.9751 -3.0053 0.9647
2.1480 8.1988 -3.0053 0.9647
1.4097 8.3575 -3.0053 0.9647
-0.0944 8.4750 -3.0053 0.9647
-2.3301 8.1489 -3.0053 0.9647
-3.0462 7.9092 -3.0053 0.9647
-3.4467 7.0138 -2.7711 0.9674
-6.1577 5.8239 -3.0053 0.9647
-6.6516 5.2527 -3.0053 0.9647
-7.8567 4.1925 -3.1577 0.9629
-8.4756 2.7330 -3.1577 0.9629
-8.6852 1.9678 -3.1577 0.9629
-8.8259 1.1870 -3.1577 0.9629
-8.8259 -1.1870 -3.1577 0.9629
-8.6852 -1.9678 -3.1577 0.9629
-8.1987 -3.4765 -3.1577 0.9629
-7.4524 -4.8751 -3.1577 0.9629
-6.9889 -5.5191 -3.1577 0.9629
-6.4699 -6.1192 -3.1577 0.9629
-5.8996 -6.6708 -3.1577 0.9629
-4.6234 -7.6111 -3.1577 0.9629
-3.9276 -7.9924 -3.1577 0.9629
-3.2006 -8.3103 -3.1577 0.9629
-2.4483 -8.5622 -3.1577 0.9629
-1.6765 -8.7461 -3.1577 0.9629
-0.0992 -8.9048 -3.1577 0.9629
0.6938 -8.8782 -3.1577 0.9629
1.4812 -8.7813 -3.1577 0.9629
3.0147 -8.3795 -3.1577 0.9629
4.4527 -7.7122 -3.1577 0.9629
5.1214 -7.2853 -3.1577 0.9629
6.3320 -6.2618 -3.1577 0.9629
7.3419 -5.0400 -3.1577 0.9629
8.1192 -3.6583 -3.1577 0.9629
8.4126 -2.9212 -3.1577 0.9629
8.6392 -2.1608 -3.1577 0.9629
8.7972 -1.3833 -3.1577 0.9629
8.8854 -0.5948 -3.1577 0.9629
8.9031 0.1984 -3.1577 0.9629
8.8501 0.9901 -3.1577 0.9629
8.2741 3.2930 -3.1577 0.9629
6.7670 5.1032 -3.0053 0.9647
6.2859 5.6853 -3.0053 0.9647
5.7549 6.2222 -3.0053 0.9647
5.1783 6.7097 -3.0053 0.9647
3.9066 7.5215 -3.0053 0.9647
3.2216 7.8394 -3.0053 0.9647
2.5111 8.0950 -3.0053 0.9647
1.0360 8.4120 -3.0053 0.9647
0.2832 8.4708 -3.0053 0.9647
-1.2232 8.3868 -3.0053 0.9647
-2.6908 8.0371 -3.0053 0.9647
-4.7186 7.0406 -3.0053 0.9647
-6.4110 5.5438 -3.0053 0.9647
-6.8790 4.9512 -3.0053 0.9647
-7.6622 4.5383 -3.1577 0.9629
-8.5889 2.3528 -3.1577 0.9629
-8.7642 1.5790 -3.1577 0.9629
-8.4564 0.0000 -3.1577 0.9645
-8.1559 -2.2341 -3.1577 0.9645
-7.9247 -2.9512 -3.1577 0.9645
-7.6306 -3.6448 -3.1577 0.9645
-7.2759 -4.3095 -3.1577 0.9645
-6.8634 -4.9400 -3.1577 0.9645
-5.8788 -6.0786 -3.1577 0.9645
-4.7079 -7.0247 -3.1577 0.9645
-2.6847 -8.0189 -3.1577 0.9645
-0.4708 -8.4432 -3.1577 0.9645
0.2826 -8.4516 -3.1577 0.9645
1.0337 -8.3929 -3.1577 0.9645
1.7766 -8.2677 -3.1577 0.9645
2.5054 -8.0767 -3.1577 0.9645
3.2143 -7.8216 -3.1577 0.9645
3.8978 -7.5045 -3.1577 0.9645
4.5502 -7.1278 -3.1577 0.9645
5.1666 -6.6946 -3.1577 0.9645
6.2717 -5.6724 -3.1577 0.9645
6.7517 -5.0917 -3.1577 0.9645
7.1781 -4.4705 -3.1577 0.9645
7.8570 -3.1270 -3.1577 0.9645
8.1041 -2.4153 -3.1577 0.9645
8.4543 -0.1884 -3.1577 0.9645
8.4375 0.5648 -3.1577 0.9645
8.3537 1.3136 -3.1577 0.9645
8.2037 2.0519 -3.1577 0.9645
7.9885 2.7739 -3.1577 0.9645
7.7099 3.4739 -3.1577 0.9645
7.3701 4.1463 -3.1577 0.9645
6.2036 5.1274 -3.0053 0.9662
5.7226 5.6592 -3.0053 0.9662
4.6285 6.5842 -3.0053 0.9662
4.0241 6.9700 -3.0053 0.9662
2.0397 7.7855 -3.0053 0.9662
1.3387 7.9362 -3.0053 0.9662
0.6270 8.0238 -3.0053 0.9662
-0.0897 8.0478 -3.0053 0.9662
-0.8056 8.0078 -3.0053 0.9662
-1.5151 7.9044 -3.0053 0.9662
-2.2127 7.7381 -3.0053 0.9662
-3.4491 7.0187 -2.9202 0.9672
-4.7741 6.4794 -3.0053 0.9662
-7.0767 4.6294 -3.1577 0.9645
-8.2473 1.8686 -3.1577 0.9645
-8.4480 0.3767 -3.1577 0.9645
-8.4480 -0.3767 -3.1577 0.9645
-8.0483 -2.5952 -3.1577 0.9645
-7.7854 -3.3013 -3.1577 0.9645
-7.4606 -3.9811 -3.1577 0.9645
-6.1438 -5.8107 -3.1577 0.9645
-5.0162 -6.8079 -3.1577 0.9645
-3.7296 -7.5895 -3.1577 0.9645
-1.5920 -8.3052 -3.1577 0.9645
-0.0942 -8.4558 -3.1577 0.9645
0.6588 -8.4307 -3.1577 0.9645
2.1431 -8.1803 -3.1577 0.9645
4.8632 -6.9180 -3.1577 0.9645
6.0128 -5.9462 -3.1577 0.9645
6.5182 -5.3874 -3.1577 0.9645
6.9718 -4.7859 -3.1577 0.9645
7.3701 -4.1463 -3.1577 0.9645
7.7099 -3.4739 -3.1577 0.9645
8.2037 -2.0519 -3.1577 0.9645
8.3537 -1.3136 -3.1577 0.9645
8.4375 -0.5648 -3.1577 0.9645
8.4543 0.1884 -3.1577 0.9645
8.2869 1.6844 -3.1577 0.9645
8.1041 2.4153 -3.1577 0.9645
7.5475 3.8139 -3.1577 0.9645
6.4258 4.8460 -3.0053 0.9662
4.9172 6.3714 -3.0053 0.9662
3.7096 7.1423 -3.0053 0.9662
3.0592 7.4442 -3.0053 0.9662
2.3845 7.6869 -3.0053 0.9662
0.9838 7.9879 -3.0053 0.9662
0.2689 8.0437 -3.0053 0.9662
-1.1615 7.9640 -3.0053 0.9662
-1.8657 7.8290 -3.0053 0.9662
-2.5552 7.6319 -3.0053 0.9662
-3.2243 7.3742 -3.0053 0.9662
-3.8030 6.9396 -2.9549 0.9668
-5.0580 6.2603 -3.0053 0.9662
-5.5951 5.7853 -3.0053 0.9662
-6.0878 5.2643 -3.0053 0.9662
-8.1559 2.2342 -3.1577 0.9645
-8.4228 0.7527 -3.1577 0.9645
-8.0138 -0.7161 -3.1577 0.9660
-7.7598 -2.1256 -3.1577 0.9660
-7.5398 -2.8079 -3.1577 0.9660
-7.2600 -3.4678 -3.1577 0.9660
-6.9225 -4.1002 -3.1577 0.9660
-6.5301 -4.7001 -3.1577 0.9660
-6.0859 -5.2627 -3.1577 0.9660
-5.5933 -5.7834 -3.1577 0.9660
-3.8666 -7.0557 -3.1577 0.9660
-1.1612 -7.9614 -3.1577 0.9660
0.9835 -7.9854 -3.1577 0.9660
1.6903 -7.8662 -3.1577 0.9660
2.3837 -7.6845 -3.1577 0.9660
3.0582 -7.4418 -3.1577 0.9660
3.7085 -7.1401 -3.1577 0.9660
4.9157 -6.3694 -3.1577 0.9660
6.8295 -4.2534 -3.1577 0.9660
7.1809 -3.6287 -3.1577 0.9660
7.4754 -2.9752 -3.1577 0.9660
7.7106 -2.2980 -3.1577 0.9660
7.8845 -1.6026 -3.1577 0.9660
7.9958 -0.8945 -3.1577 0.9660
8.0437 -0.1792 -3.1577 0.9660
8.0277 0.5374 -3.1577 0.9660
7.9480 1.2498 -3.1577 0.9660
7.8053 1.9522 -3.1577 0.9660
7.3355 3.3052 -3.1577 0.9660
7.0122 3.9450 -3.1577 0.9660
6.6332 4.5535 -3.1577 0.9660
4.9438 5.8476 -3.0053 0.9676
4.4037 6.2644 -3.0053 0.9676
2.5922 7.2053 -3.0053 0.9676
1.9407 7.4074 -3.0053 0.9676
1.2736 7.5507 -3.0053 0.9676
0.5965 7.6341 -3.0053 0.9676
-0.7665 7.6190 -3.0053 0.9676
-1.4416 7.5205 -3.0053 0.9676
-2.1052 7.3623 -3.0053 0.9676
-3.3772 6.8724 -3.0053 0.9676
-3.9755 6.5446 -3.0053 0.9676
-4.5422 6.1648 -3.0053 0.9676
-5.0729 5.7360 -3.0053 0.9676
-6.0589 4.7847 -3.0300 0.9674
-7.4073 3.1410 -3.1577 0.9660
-7.4073 -3.1409 -3.1577 0.9660
-7.0983 -3.7878 -3.1577 0.9660
-6.7330 -4.4045 -3.1577 0.9660
-5.3301 -6.0269 -3.1577 0.9660
-4.7726 -6.4774 -3.1577 0.9660
-4.1771 -6.8764 -3.1577 0.9660
-3.5485 -7.2209 -3.1577 0.9660
-1.5147 -7.9018 -3.1577 0.9660
-0.8053 -8.0053 -3.1577 0.9660
-0.0896 -8.0452 -3.1577 0.9660
2.0391 -7.7830 -3.1577 0.9660
3.3867 -7.2982 -3.1577 0.9660
4.6271 -6.5820 -3.1577 0.9660
6.6332 -4.5534 -3.1577 0.9660
7.8053 -1.9522 -3.1577 0.9660
7.9481 -1.2498 -3.1577 0.9660
7.9958 0.8945 -3.1577 0.9660
7.8845 1.6026 -3.1577 0.9660
7.1809 3.6287 -3.1577 0.9660
6.2887 4.7425 -3.0913 0.9667
3.5295 6.7955 -3.0053 0.9676
2.2687 7.3136 -3.0053 0.9676
1.6088 7.4865 -3.0053 0.9676
0.2559 7.6531 -3.0053 0.9676
-0.4263 7.6455 -3.0053 0.9676
-3.6800 6.7152 -3.0053 0.9676
-4.8123 5.9563 -3.0053 0.9676
-5.7922 5.0087 -3.0053 0.9676
-6.5301 4.7001 -3.1577 0.9660
-6.9225 4.1002 -3.1577 0.9660
-7.5398 2.8079 -3.1577 0.9660
-7.6684 0.0000 -3.1577 0.9674
-7.6380 -0.6825 -3.1577 0.9674
-7.3959 -2.0260 -3.1577 0.9674
-6.9196 -3.3052 -3.1577 0.9674
-6.5979 -3.9079 -3.1577 0.9674
-6.2239 -4.4796 -3.1577 0.9674
-5.8005 -5.0159 -3.1577 0.9674
-4.8192 -5.9649 -3.1577 0.9674
-3.6853 -6.7248 -3.1577 0.9674
-3.0721 -7.0261 -3.1577 0.9674
-2.4346 -7.2717 -3.1577 0.9674
-1.7777 -7.4595 -3.1577 0.9674
-1.1067 -7.5881 -3.1577 0.9674
0.2562 -7.6641 -3.1577 0.9674
0.9374 -7.6109 -3.1577 0.9674
1.6111 -7.4972 -3.1577 0.9674
2.9148 -7.0928 -3.1577 0.9674
3.5346 -6.8053 -3.1577 0.9674
4.6852 -6.0707 -3.1577 0.9674
5.2069 -5.6296 -3.1577 0.9674
6.5092 -4.0539 -3.1577 0.9674
7.1249 -2.8356 -3.1577 0.9674
7.3490 -2.1903 -3.1577 0.9674
7.6209 -0.8525 -3.1577 0.9674
7.6513 0.5122 -3.1577 0.9674
6.9915 3.1502 -3.1577 0.9674
6.3222 4.3399 -3.1577 0.9674
5.1893 5.1319 -3.0053 0.9689
4.7120 5.5734 -3.0053 0.9689
3.0721 6.6203 -3.0053 0.9689
2.4707 6.8674 -3.0053 0.9689
1.2139 7.1967 -3.0053 0.9689
-0.0813 7.2979 -3.0053 0.9689
-2.0065 7.0171 -3.0053 0.9689
-3.2188 6.5502 -3.0053 0.9689
-4.3292 5.8757 -3.0053 0.9689
-4.8350 5.4670 -3.0053 0.9689
-6.0182 4.7525 -3.1577 0.9674
-7.4789 1.6945 -3.1577 0.9674
-7.6000 1.0221 -3.1577 0.9674
-7.6608 -0.3416 -3.1577 0.9674
-7.0599 -2.9937 -3.1577 0.9674
-6.4173 -4.1980 -3.1577 0.9674
-4.5487 -6.1736 -3.1577 0.9674
-3.3821 -6.8823 -3.1577 0.9674
-2.7561 -7.1560 -3.1577 0.9674
-1.4436 -7.5313 -3.1577 0.9674
-0.0854 -7.6679 -3.1577 0.9674
1.9434 -7.4180 -3.1577 0.9674
2.5960 -7.2156 -3.1577 0.9674
3.8342 -6.6410 -3.1577 0.9674
4.4101 -6.2734 -3.1577 0.9674
5.9108 -4.8854 -3.1577 0.9674
6.3222 -4.3399 -3.1577 0.9674
6.9915 -3.1502 -3.1577 0.9674
7.2441 -2.5154 -3.1577 0.9674
7.6513 -0.5122 -3.1577 0.9674
7.5147 1.5275 -3.1577 0.9674
7.1249 2.8356 -3.1577 0.9674
6.8442 3.4585 -3.1577 0.9674
6.5092 4.0539 -3.1577 0.9674
5.4128 4.8956 -3.0053 0.9689
4.9556 5.3579 -3.0053 0.9689
2.1623 6.9707 -3.0053 0.9689
0.8921 7.2436 -3.0053 0.9689
0.2439 7.2943 -3.0053 0.9689
-1.6919 7.0995 -3.0053 0.9689
-2.9239 6.6870 -3.0053 0.9689
-3.5074 6.4003 -3.0053 0.9689
-4.0632 6.0627 -3.0053 0.9689
-5.5394 4.7901 -3.0156 0.9688
-6.2239 4.4797 -3.1577 0.9674
-7.3959 2.0260 -3.1577 0.9674
-7.6380 0.6825 -3.1577 0.9674
-7.3204 0.0000 -3.1577 0.9686
-7.2044 -1.2979 -3.1577 0.9686
-6.6055 -3.1552 -3.1577 0.9686
-5.9414 -4.2764 -3.1577 0.9686
-5.5372 -4.7882 -3.1577 0.9686
-5.0891 -5.2621 -3.1577 0.9686
-4.0755 -6.0810 -3.1577 0.9686
-3.5180 -6.4196 -3.1577 0.9686
-2.9327 -6.7073 -3.1577 0.9686
-1.6970 -7.1210 -3.1577 0.9686
-1.0565 -7.2437 -3.1577 0.9686
0.2446 -7.3163 -3.1577 0.9686
0.8948 -7.2655 -3.1577 0.9686
3.3741 -6.4964 -3.1577 0.9686
3.9390 -6.1703 -3.1577 0.9686
4.4725 -5.7952 -3.1577 0.9686
5.4292 -4.9104 -3.1577 0.9686
5.8447 -4.4077 -3.1577 0.9686
6.8015 -2.7070 -3.1577 0.9686
7.0154 -2.0908 -3.1577 0.9686
7.1737 -1.4581 -3.1577 0.9686
7.3186 -0.1631 -3.1577 0.9686
7.2315 1.1371 -3.1577 0.9686
6.9153 2.4013 -3.1577 0.9686
6.6742 3.0072 -3.1577 0.9686
6.3800 3.5894 -3.1577 0.9686
6.0352 4.1430 -3.1577 0.9686
5.6425 4.6637 -3.1577 0.9686
4.0067 5.6997 -3.0053 0.9701
3.4835 6.0337 -3.0053 0.9701
2.9327 6.3198 -3.0053 0.9701
2.3586 6.5557 -3.0053 0.9701
-4.6156 5.2189 -3.0053 0.9701
-5.0695 4.7946 -3.0099 0.9701
-6.1260 4.0075 -3.1577 0.9686
-7.1394 1.6176 -3.1577 0.9686
-7.2551 0.9757 -3.1577 0.9686
-7.1394 -1.6176 -3.1577 0.9686
-6.9671 -2.2466 -3.1577 0.9686
-6.7395 -2.8578 -3.1577 0.9686
-6.1260 -4.0075 -3.1577 0.9686
-5.7450 -4.5368 -3.1577 0.9686
-4.3423 -5.8934 -3.1577 0.9686
-2.0126 -7.0383 -3.1577 0.9686
-0.0816 -7.3199 -3.1577 0.9686
0.5703 -7.2981 -3.1577 0.9686
1.8552 -7.0814 -3.1577 0.9686
4.7262 -5.5902 -3.1577 0.9686
5.6425 -4.6637 -3.1577 0.9686
6.6742 -3.0072 -3.1577 0.9686
7.1016 -1.7762 -3.1577 0.9686
7.2315 -1.1371 -3.1577 0.9686
7.3186 0.1631 -3.1577 0.9686
7.2750 0.8138 -3.1577 0.9686
7.1737 1.4581 -3.1577 0.9686
7.0155 2.0908 -3.1577 0.9686
6.2138 3.8700 -3.1577 0.9686
5.8447 4.4077 -3.1577 0.9686
5.2537 4.7517 -3.0556 0.9696
4.7307 5.1148 -3.0053 0.9701
4.2567 5.5155 -3.0053 0.9701
3.2113 6.1829 -3.0053 0.9701
1.4637 6.8116 -3.0053 0.9701
-0.3879 6.9563 -3.0053 0.9701
-1.6151 6.7773 -3.0053 0.9701
-3.3483 6.1098 -3.0053 0.9701
-4.3785 5.4193 -3.0053 0.9701
-5.9414 4.2764 -3.1577 0.9686
-6.6055 3.1552 -3.1577 0.9686
-6.8601 2.5548 -3.1577 0.9686
-7.0603 1.9340 -3.1577 0.9686
-7.2044 1.2980 -3.1577 0.9686
-6.7495 -1.8489 -3.1577 0.9698
-6.5582 -2.4423 -3.1577 0.9698
-6.0213 -3.5664 -3.1577 0.9698
-5.2935 -4.5775 -3.1577 0.9698
-4.3980 -5.4435 -3.1577 0.9698
-3.8961 -5.8134 -3.1577 0.9698
-3.3632 -6.1371 -3.1577 0.9698
-0.3896 -6.9874 -3.1577 0.9698
0.2338 -6.9943 -3.1577 0.9698
0.8554 -6.9457 -3.1577 0.9698
1.4703 -6.8420 -3.1577 0.9698
2.6601 -6.4729 -3.1577 0.9698
3.2256 -6.2105 -3.1577 0.9698
3.7656 -5.8987 -3.1577 0.9698
5.5874 -4.2137 -3.1577 0.9698
6.2460 -3.1562 -3.1577 0.9698
6.5022 -2.5878 -3.1577 0.9698
6.9965 -0.1559 -3.1577 0.9698
6.9133 1.0871 -3.1577 0.9698
6.7891 1.6981 -3.1577 0.9698
6.3804 2.8749 -3.1577 0.9698
6.0992 3.4314 -3.1577 0.9698
5.7696 3.9606 -3.1577 0.9698
3.8304 5.4488 -3.0053 0.9712
2.8036 6.0416 -3.0053 0.9712
1.6880 6.4430 -3.0053 0.9712
0.5189 6.6402 -3.0053 0.9712
-0.6667 6.6270 -3.0053 0.9712
-1.2539 6.5414 -3.0053 0.9712
-2.9375 5.9777 -3.0053 0.9712
-3.4579 5.6925 -3.0053 0.9712
-3.9508 5.3621 -3.0053 0.9712
-5.0369 4.7639 -3.1283 0.9700
-5.8564 3.8311 -3.1577 0.9698
-6.1742 3.2946 -3.1577 0.9698
-6.8252 1.5464 -3.1577 0.9698
-6.9358 0.9328 -3.1577 0.9698
-6.9913 0.3118 -3.1577 0.9698
-6.1742 -3.2946 -3.1577 0.9698
-5.4922 -4.3371 -3.1577 0.9698
-4.6362 -5.2422 -3.1577 0.9698
-4.1512 -5.6340 -3.1577 0.9698
-3.6333 -5.9811 -3.1577 0.9698
-3.0865 -6.2808 -3.1577 0.9698
-1.3175 -6.8731 -3.1577 0.9698
4.5182 -5.3442 -3.1577 0.9698
4.9760 -4.9208 -3.1577 0.9698
6.0992 -3.4313 -3.1577 0.9698
6.7891 -1.6981 -3.1577 0.9698
6.9133 -1.0870 -3.1577 0.9698
6.9826 -0.4674 -3.1577 0.9698
6.9965 0.1559 -3.1577 0.9698
6.8580 1.3940 -3.1577 0.9698
5.9403 3.6997 -3.1577 0.9698
5.5874 4.2137 -3.1577 0.9698
5.1902 4.6943 -3.1577 0.9698
3.5839 5.6140 -3.0053 0.9712
1.3993 6.5118 -3.0053 0.9712
0.8142 6.6105 -3.0053 0.9712
0.2226 6.6568 -3.0053 0.9712
-0.3708 6.6501 -3.0053 0.9712
-0.9612 6.5907 -3.0053 0.9712
-1.5440 6.4790 -3.0053 0.9712
-3.2009 5.8409 -3.0053 0.9712
-3.7081 5.5328 -3.0053 0.9712
-4.1858 5.1808 -3.0053 0.9712
-5.6799 4.0882 -3.1577 0.9698
-6.0213 3.5664 -3.1577 0.9698
-6.7495 1.8489 -3.1577 0.9698
-6.5928 -1.1877 -3.1577 0.9708
-6.4609 -1.7698 -3.1577 0.9708
-5.0671 -4.3817 -3.1577 0.9708
-4.2100 -5.2107 -3.1577 0.9708
-2.6837 -6.1378 -3.1577 0.9708
-0.9668 -6.6288 -3.1577 0.9708
0.8189 -6.6486 -3.1577 0.9708
2.5463 -6.1961 -3.1577 0.9708
3.0877 -5.9449 -3.1577 0.9708
4.0928 -5.3032 -3.1577 0.9708
4.5486 -4.9179 -3.1577 0.9708
5.6863 -3.5414 -3.1577 0.9708
6.2241 -2.4771 -3.1577 0.9708
6.5647 -1.3343 -3.1577 0.9708
6.6574 -0.7447 -3.1577 0.9708
6.6972 -0.1492 -3.1577 0.9708
6.6176 1.0406 -3.1577 0.9708
6.4987 1.6255 -3.1577 0.9708
5.5229 3.7912 -3.1577 0.9708
5.1635 4.2677 -3.1577 0.9708
4.7632 4.7104 -3.1577 0.9708
3.6666 5.2158 -3.0053 0.9722
2.6837 5.7833 -3.0053 0.9722
2.1583 5.9992 -3.0053 0.9722
1.6158 6.1675 -3.0053 0.9722
1.0604 6.2868 -3.0053 0.9722
0.4967 6.3562 -3.0053 0.9722
-0.0710 6.3752 -3.0053 0.9722
-1.2002 6.2616 -3.0053 0.9722
-4.2353 4.7889 -3.0135 0.9721
-5.2573 4.1516 -3.1577 0.9708
-5.6059 3.6672 -3.1577 0.9708
-5.9101 3.1537 -3.1577 0.9708
-6.1673 2.6152 -3.1577 0.9708
-6.3756 2.0559 -3.1577 0.9708
-6.6391 0.8929 -3.1577 0.9708
-6.6923 0.2984 -3.1577 0.9708
-6.6923 -0.2984 -3.1577 0.9708
-6.6391 -0.8929 -3.1577 0.9708
-6.5333 -1.4802 -3.1577 0.9708
-6.3756 -2.0559 -3.1577 0.9708
-6.1674 -2.6152 -3.1577 0.9708
-4.8669 -4.6031 -3.1577 0.9708
-3.4779 -5.7254 -3.1577 0.9708
-2.9545 -6.0122 -3.1577 0.9708
-2.4076 -6.2513 -3.1577 0.9708
-1.2611 -6.5791 -3.1577 0.9708
0.5219 -6.6785 -3.1577 0.9708
2.8198 -6.0765 -3.1577 0.9708
3.3495 -5.8014 -3.1577 0.9708
4.3250 -5.1156 -3.1577 0.9708
5.1635 -4.2677 -3.1577 0.9708
5.5229 -3.7912 -3.1577 0.9708
5.8384 -3.2846 -3.1577 0.9708
6.6839 -0.4474 -3.1577 0.9708
6.6972 0.1492 -3.1577 0.9708
6.5647 1.3343 -3.1577 0.9708
5.9789 3.0213 -3.1577 0.9708
5.3485 4.0335 -3.1577 0.9708
4.3974 4.7544 -3.0527 0.9718
3.8953 5.0473 -3.0053 0.9722
2.4234 5.8971 -3.0053 0.9722
0.7793 6.3278 -3.0053 0.9722
0.2130 6.3721 -3.0053 0.9722
-0.9201 6.3089 -3.0053 0.9722
-1.4780 6.2019 -3.0053 0.9722
-2.0241 6.0458 -3.0053 0.9722
-2.5542 5.8416 -3.0053 0.9722
-3.5495 5.2962 -3.0053 0.9722
-4.0068 4.9593 -3.0053 0.9722
-5.4370 3.9134 -3.1577 0.9708
-5.7637 3.4139 -3.1577 0.9708
-6.2777 2.3379 -3.1577 0.9708
-6.4609 1.7698 -3.1577 0.9708
-6.5928 1.1878 -3.1577 0.9708
-6.6723 0.5962 -3.1577 0.9708
-6.3183 -1.1383 -3.1577 0.9718
-6.0164 -2.2405 -3.1577 0.9718
-5.7931 -2.7671 -3.1577 0.9718
-5.5238 -3.2717 -3.1577 0.9718
-5.2107 -3.7504 -3.1577 0.9718
-4.8562 -4.1993 -3.1577 0.9718
-4.0347 -4.9938 -3.1577 0.9718
-3.5742 -5.3331 -3.1577 0.9718
-2.5720 -5.8822 -3.1577 0.9718
-2.0382 -6.0878 -3.1577 0.9718
-0.9265 -6.3528 -3.1577 0.9718
-0.3574 -6.4100 -3.1577 0.9718
0.7848 -6.3718 -3.1577 0.9718
1.3488 -6.2767 -3.1577 0.9718
1.9021 -6.1318 -3.1577 0.9718
2.4403 -5.9381 -3.1577 0.9718
2.9591 -5.6974 -3.1577 0.9718
3.4545 -5.4114 -3.1577 0.9718
3.9224 -5.0824 -3.1577 0.9718
4.7614 -4.3064 -3.1577 0.9718
5.1258 -3.8655 -3.1577 0.9718
5.4495 -3.3940 -3.1577 0.9718
6.1526 -1.8337 -3.1577 0.9718
6.2914 -1.2787 -3.1577 0.9718
6.4057 0.4288 -3.1577 0.9718
6.0648 2.1060 -3.1577 0.9718
5.8533 2.6374 -3.1577 0.9718
5.5953 3.1479 -3.1577 0.9718
4.9485 4.0901 -3.1577 0.9718
4.5648 4.5143 -3.1577 0.9718
4.0190 4.7537 -3.0617 0.9726
2.5720 5.5425 -3.0053 0.9731
2.0685 5.7494 -3.0053 0.9731
1.0163 6.0251 -3.0053 0.9731
-0.0681 6.1098 -3.0053 0.9731
-0.6116 6.0795 -3.0053 0.9731
-1.6798 5.8747 -3.0053 0.9731
-2.1960 5.7019 -3.0053 0.9731
-4.2116 4.7621 -3.1269 0.9721
-4.6643 4.4115 -3.1577 0.9718
-5.3725 3.5146 -3.1577 0.9718
-6.2613 -1.4186 -3.1577 0.9718
-5.9106 -2.5063 -3.1577 0.9718
-5.6640 -3.0224 -3.1577 0.9718
-5.3726 -3.5145 -3.1577 0.9718
-3.8082 -5.1686 -3.1577 0.9718
-2.3074 -5.9910 -3.1577 0.9718
-1.7650 -6.1726 -3.1577 0.9718
-0.0715 -6.4196 -3.1577 0.9718
0.5001 -6.4005 -3.1577 0.9718
1.6271 -6.2104 -3.1577 0.9718
2.1734 -6.0409 -3.1577 0.9718
3.6921 -5.2521 -3.1577 0.9718
5.5953 -3.1479 -3.1577 0.9718
6.2281 -1.5577 -3.1577 0.9718
6.4057 -0.4288 -3.1577 0.9718
6.2914 1.2788 -3.1577 0.9718
6.1526 1.8337 -3.1577 0.9718
5.9649 2.3740 -3.1577 0.9718
5.4495 3.3940 -3.1577 0.9718
5.1258 3.8655 -3.1577 0.9718
4.7614 4.3064 -3.1577 0.9718
3.2878 5.1502 -3.0053 0.9731
2.8163 5.4224 -3.0053 0.9731
2.3225 5.6515 -3.0053 0.9731
1.8103 5.8358 -3.0053 0.9731
0.2042 6.1068 -3.0053 0.9731
-1.4165 5.9437 -3.0053 0.9731
-2.4479 5.5984 -3.0053 0.9731
-2.9364 5.3583 -3.0053 0.9731
-3.4017 5.0757 -3.0053 0.9731
-3.8624 4.7805 -3.0228 0.9730
-4.4631 4.6149 -3.1577 0.9718
-5.5238 3.2718 -3.1577 0.9718
-5.7931 2.7671 -3.1577 0.9718
-6.1919 1.6962 -3.1577 0.9718
-6.3945 0.5714 -3.1577 0.9718
-6.1349 -0.5482 -3.1577 0.9727
-6.0617 -1.0921 -3.1577 0.9727
-5.5578 -2.6547 -3.1577 0.9727
-4.2819 -4.4275 -3.1577 0.9727
-3.4291 -5.1165 -3.1577 0.9727
-1.4279 -5.9915 -3.1577 0.9727
-0.8889 -6.0949 -3.1577 0.9727
-0.3429 -6.1498 -3.1577 0.9727
0.7529 -6.1131 -3.1577 0.9727
1.2940 -6.0219 -3.1577 0.9727
2.8390 -5.4660 -3.1577 0.9727
3.3142 -5.1917 -3.1577 0.9727
4.1822 -4.5218 -3.1577 0.9727
4.5681 -4.1316 -3.1577 0.9727
5.7228 -2.2776 -3.1577 0.9727
5.9028 -1.7592 -3.1577 0.9727
6.1212 -0.6848 -3.1577 0.9727
6.1456 0.4114 -3.1577 0.9727
5.8185 2.0204 -3.1577 0.9727
5.6156 2.5303 -3.1577 0.9727
5.3681 3.0201 -3.1577 0.9727
5.0780 3.4859 -3.1577 0.9727
4.7476 3.9240 -3.1577 0.9727
4.3795 4.3310 -3.1577 0.9727
3.9766 4.7036 -3.1577 0.9727
2.9310 5.0767 -3.0053 0.9740
2.4675 5.3174 -3.0053 0.9740
1.9845 5.5160 -3.0053 0.9740
0.9750 5.7804 -3.0053 0.9740
-1.6116 5.6362 -3.0053 0.9740
-3.0434 5.0101 -3.0053 0.9740
-3.5191 4.7762 -3.0415 0.9737
-4.4749 4.2324 -3.1577 0.9727
-4.8338 3.8173 -3.1577 0.9727
-5.1544 3.3719 -3.1577 0.9727
-5.8621 1.8903 -3.1577 0.9727
-6.1044 -0.8209 -3.1577 0.9727
-6.0071 -1.3610 -3.1577 0.9727
-5.8621 -1.8903 -3.1577 0.9727
-4.4749 -4.2323 -3.1577 0.9727
-4.0804 -4.6138 -3.1577 0.9727
-3.6536 -4.9587 -3.1577 0.9727
-3.1977 -5.2642 -3.1577 0.9727
-1.1595 -6.0492 -3.1577 0.9727
0.4798 -6.1406 -3.1577 0.9727
1.0245 -6.0735 -3.1577 0.9727
2.5927 -5.5871 -3.1577 0.9727
3.5422 -5.0389 -3.1577 0.9727
3.9766 -4.7036 -3.1577 0.9727
4.7476 -3.9240 -3.1577 0.9727
5.9753 -1.4945 -3.1577 0.9727
6.0846 -0.9567 -3.1577 0.9727
6.1456 -0.4114 -3.1577 0.9727
6.1578 0.1372 -3.1577 0.9727
5.9028 1.7592 -3.1577 0.9727
5.7228 2.2776 -3.1577 0.9727
5.2283 3.2562 -3.1577 0.9727
4.5681 4.1316 -3.1577 0.9727
4.1822 4.5218 -3.1577 0.9727
2.7020 5.2022 -3.0053 0.9740
1.7368 5.5989 -3.0053 0.9740
0.7166 5.8181 -3.0053 0.9740
-0.3264 5.8530 -3.0053 0.9740
-0.8460 5.8007 -3.0053 0.9740
-1.8611 5.5588 -3.0053 0.9740
-2.3485 5.3711 -3.0053 0.9740
-2.8172 5.1408 -3.0053 0.9740
-3.2636 4.8696 -3.0053 0.9740
-3.8453 4.7594 -3.1368 0.9729
-4.9991 3.5982 -3.1577 0.9727
-5.2995 3.1389 -3.1577 0.9727
-5.9405 1.6273 -3.1577 0.9727
-5.0893 -3.0144 -3.1577 0.9735
-4.8008 -3.4554 -3.1577 0.9735
-4.4742 -3.8690 -3.1577 0.9735
-3.7173 -4.6010 -3.1577 0.9735
-3.2931 -4.9136 -3.1577 0.9735
-2.8427 -5.1872 -3.1577 0.9735
-1.8779 -5.6090 -3.1577 0.9735
-0.3293 -5.9059 -3.1577 0.9735
0.1977 -5.9117 -3.1577 0.9735
1.2427 -5.7830 -3.1577 0.9735
2.7264 -5.2492 -3.1577 0.9735
3.6139 -4.6827 -3.1577 0.9735
4.0163 -4.3424 -3.1577 0.9735
4.3869 -3.9677 -3.1577 0.9735
4.7226 -3.5615 -3.1577 0.9735
5.2793 -2.6678 -3.1577 0.9735
5.7965 -1.1782 -3.1577 0.9735
5.9136 -0.1318 -3.1577 0.9735
5.7383 1.4353 -3.1577 0.9735
5.5878 1.9403 -3.1577 0.9735
5.3929 2.4299 -3.1577 0.9735
5.1552 2.9003 -3.1577 0.9735
4.8766 3.3476 -3.1577 0.9735
4.2058 4.1592 -3.1577 0.9735
2.8148 4.8753 -3.0053 0.9748
2.3697 5.1065 -3.0053 0.9748
0.9364 5.5512 -3.0053 0.9748
0.4386 5.6125 -3.0053 0.9748
-1.5477 5.4126 -3.0053 0.9748
-2.4829 5.0525 -3.0053 0.9748
-2.9227 4.8114 -3.0053 0.9748
-3.9186 4.4309 -3.1577 0.9735
-4.6421 3.6659 -3.1577 0.9735
-5.4457 2.3092 -3.1577 0.9735
-5.9092 0.2635 -3.1577 0.9735
-5.8623 -0.7884 -3.1577 0.9735
-5.6296 -1.8153 -3.1577 0.9735
-5.2185 -2.7847 -3.1577 0.9735
-4.9500 -3.2381 -3.1577 0.9735
-4.2974 -4.0645 -3.1577 0.9735
-3.9186 -4.4308 -3.1577 0.9735
-3.0709 -5.0554 -3.1577 0.9735
-1.6262 -5.6871 -3.1577 0.9735
0.4608 -5.8971 -3.1577 0.9735
0.9838 -5.8326 -3.1577 0.9735
2.4898 -5.3654 -3.1577 0.9735
3.8189 -4.5170 -3.1577 0.9735
4.2058 -4.1592 -3.1577 0.9735
4.5593 -3.7683 -3.1577 0.9735
4.8766 -3.3476 -3.1577 0.9735
5.1552 -2.9003 -3.1577 0.9735
5.3929 -2.4299 -3.1577 0.9735
5.5878 -1.9403 -3.1577 0.9735
5.9136 0.1318 -3.1577 0.9735
5.7965 1.1782 -3.1577 0.9735
5.4958 2.1873 -3.1577 0.9735
5.0209 3.1271 -3.1577 0.9735
4.7226 3.5615 -3.1577 0.9735
4.0163 4.3425 -3.1577 0.9735
3.6139 4.6827 -3.1577 0.9735
2.5948 4.9959 -3.0053 0.9748
2.1399 5.2070 -3.0053 0.9748
1.6679 5.3768 -3.0053 0.9748
1.1827 5.5039 -3.0053 0.9748
0.6881 5.5874 -3.0053 0.9748
-1.3050 5.4762 -3.0053 0.9748
-1.7873 5.3384 -3.0053 0.9748
-2.2553 5.1581 -3.0053 0.9748
-3.1974 4.7709 -3.0660 0.9743
-3.7173 4.6010 -3.1577 0.9735
-4.1121 4.2519 -3.1577 0.9735
-5.3374 2.5495 -3.1577 0.9735
-5.5431 2.0643 -3.1577 0.9735
-5.8916 0.5265 -3.1577 0.9735
-5.3280 -1.9842 -3.1577 0.9743
-5.1303 -2.4505 -3.1577 0.9743
-4.8918 -2.8974 -3.1577 0.9743
-3.9525 -4.0869 -3.1577 0.9743
-3.5731 -4.4224 -3.1577 0.9743
-2.7323 -4.9859 -3.1577 0.9743
-1.8050 -5.3913 -3.1577 0.9743
-1.3180 -5.5306 -3.1577 0.9743
-0.8205 -5.6260 -3.1577 0.9743
-0.3165 -5.6767 -3.1577 0.9743
0.1900 -5.6823 -3.1577 0.9743
1.1945 -5.5586 -3.1577 0.9743
2.1611 -5.2587 -3.1577 0.9743
2.6206 -5.0455 -3.1577 0.9743
3.0593 -4.7923 -3.1577 0.9743
3.4737 -4.5010 -3.1577 0.9743
3.8605 -4.1739 -3.1577 0.9743
4.2167 -3.8137 -3.1577 0.9743
5.0744 -2.5642 -3.1577 0.9743
5.2825 -2.1024 -3.1577 0.9743
5.5716 -1.1325 -3.1577 0.9743
5.6503 -0.6321 -3.1577 0.9743
5.6841 -0.1267 -3.1577 0.9743
5.6728 0.3798 -3.1577 0.9743
5.5156 1.3796 -3.1577 0.9743
5.1836 2.3356 -3.1577 0.9743
4.9552 2.7878 -3.1577 0.9743
4.6874 3.2177 -3.1577 0.9743
4.0426 3.9978 -3.1577 0.9743
3.6707 4.3418 -3.1577 0.9743
3.2697 4.6512 -3.1577 0.9743
2.2777 4.9084 -3.0053 0.9755
1.8318 5.0916 -3.0053 0.9755
0.9000 5.3357 -3.0053 0.9755
0.4215 5.3947 -3.0053 0.9755
-0.0603 5.4108 -3.0053 0.9755
-2.8942 4.7645 -3.0962 0.9748
-3.3725 4.5772 -3.1577 0.9743
-4.1307 3.9068 -3.1577 0.9743
-5.0160 2.6767 -3.1577 0.9743
-5.4111 1.7449 -3.1577 0.9743
-5.5450 1.2563 -3.1577 0.9743
-5.6348 0.7578 -3.1577 0.9743
-5.6799 0.2533 -3.1577 0.9743
-5.6799 -0.2533 -3.1577 0.9743
-5.6348 -0.7578 -3.1577 0.9743
-5.4111 -1.7448 -3.1577 0.9743
-5.2344 -2.2195 -3.1577 0.9743
-5.0160 -2.6766 -3.1577 0.9743
-4.4620 -3.5236 -3.1577 0.9743
-4.1307 -3.9067 -3.1577 0.9743
-3.3725 -4.5772 -3.1577 0.9743
-2.9517 -4.8592 -3.1577 0.9743
-2.5075 -5.1027 -3.1577 0.9743
-2.0434 -5.3056 -3.1577 0.9743
-1.0703 -5.5838 -3.1577 0.9743
0.9457 -5.6063 -3.1577 0.9743
1.4409 -5.4999 -3.1577 0.9743
2.3932 -5.1573 -3.1577 0.9743
3.2697 -4.6512 -3.1577 0.9743
4.0426 -3.9978 -3.1577 0.9743
4.3824 -3.6221 -3.1577 0.9743
4.6874 -3.2177 -3.1577 0.9743
4.9552 -2.7877 -3.1577 0.9743
5.3709 -1.8650 -3.1577 0.9743
5.6165 -0.8831 -3.1577 0.9743
5.6728 -0.3797 -3.1577 0.9743
5.6503 0.6321 -3.1577 0.9743
5.5716 1.1325 -3.1577 0.9743
4.8261 3.0057 -3.1577 0.9743
4.5394 3.4233 -3.1577 0.9743
4.2167 3.8138 -3.1577 0.9743
3.8605 4.1739 -3.1577 0.9743
3.4737 4.5010 -3.1577 0.9743
2.4941 4.8021 -3.0053 0.9755
2.0568 5.0050 -3.0053 0.9755
1.6032 5.1682 -3.0053 0.9755
1.1368 5.2903 -3.0053 0.9755
0.6614 5.3705 -3.0053 0.9755
0.1808 5.4081 -3.0053 0.9755
-1.2544 5.2637 -3.0053 0.9755
-1.7179 5.1312 -3.0053 0.9755
-2.1678 4.9579 -3.0053 0.9755
-2.6178 4.7770 -3.0254 0.9754
-3.1653 4.7229 -3.1577 0.9743
-3.9525 4.0869 -3.1577 0.9743
-4.3006 3.7189 -3.1577 0.9743
-5.1303 2.4505 -3.1577 0.9743
-5.4835 1.5021 -3.1577 0.9743
-5.4693 0.0000 -3.1577 0.9751
-5.4476 -0.4868 -3.1577 0.9751
-5.3827 -0.9697 -3.1577 0.9751
-5.2750 -1.4450 -3.1577 0.9751
-4.9352 -2.3573 -3.1577 0.9751
-4.7058 -2.7872 -3.1577 0.9751
-3.4372 -4.2543 -3.1577 0.9751
-3.0449 -4.5433 -3.1577 0.9751
-2.6285 -4.7963 -3.1577 0.9751
-2.1911 -5.0112 -3.1577 0.9751
-1.7364 -5.1863 -3.1577 0.9751
-0.3045 -5.4608 -3.1577 0.9751
0.6686 -5.4283 -3.1577 0.9751
1.6205 -5.2237 -3.1577 0.9751
2.9429 -4.6100 -3.1577 0.9751
3.3416 -4.3298 -3.1577 0.9751
3.7137 -4.0152 -3.1577 0.9751
4.3668 -3.2931 -3.1577 0.9751
4.6425 -2.8914 -3.1577 0.9751
4.8815 -2.4667 -3.1577 0.9751
5.2415 -1.5621 -3.1577 0.9751
5.4680 -0.1219 -3.1577 0.9751
5.4571 0.3653 -3.1577 0.9751
5.4029 0.8496 -3.1577 0.9751
5.1667 1.7941 -3.1577 0.9751
4.9865 2.2468 -3.1577 0.9751
4.7667 2.6817 -3.1577 0.9751
4.5091 3.0953 -3.1577 0.9751
4.2157 3.4844 -3.1577 0.9751
3.8889 3.8458 -3.1577 0.9751
3.5311 4.1767 -3.1577 0.9751
0.8658 5.1328 -3.0053 0.9762
-0.0580 5.2050 -3.0053 0.9762
-0.5210 5.1792 -3.0053 0.9762
-1.8708 4.8575 -3.0053 0.9762
-2.3433 4.7684 -3.0675 0.9758
-3.2443 4.4032 -3.1577 0.9751
-3.6233 4.0969 -3.1577 0.9751
-4.2923 3.3896 -3.1577 0.9751
-5.2054 1.6785 -3.1577 0.9751
-5.3341 1.2086 -3.1577 0.9751
-5.4205 0.7290 -3.1577 0.9751
-5.3341 -1.2085 -3.1577 0.9751
-5.2054 -1.6785 -3.1577 0.9751
-5.0353 -2.1352 -3.1577 0.9751
-4.5770 -2.9941 -3.1577 0.9751
-4.2923 -3.3896 -3.1577 0.9751
-3.6233 -4.0969 -3.1577 0.9751
-3.2443 -4.4032 -3.1577 0.9751
-2.4122 -4.9086 -3.1577 0.9751
-1.9657 -5.1038 -3.1577 0.9751
-1.5036 -5.2586 -3.1577 0.9751
0.4261 -5.4527 -3.1577 0.9751
0.9097 -5.3931 -3.1577 0.9751
2.7347 -4.7365 -3.1577 0.9751
3.1454 -4.4744 -3.1577 0.9751
4.2157 -3.4844 -3.1577 0.9751
4.7667 -2.6817 -3.1577 0.9751
5.1667 -1.7941 -3.1577 0.9751
5.3059 -1.3271 -3.1577 0.9751
5.4029 -0.8496 -3.1577 0.9751
5.4680 0.1219 -3.1577 0.9751
5.2415 1.5621 -3.1577 0.9751
5.0816 2.0225 -3.1577 0.9751
4.8815 2.4667 -3.1577 0.9751
4.6425 2.8914 -3.1577 0.9751
4.3668 3.2932 -3.1577 0.9751
4.0563 3.6687 -3.1577 0.9751
3.7137 4.0152 -3.1577 0.9751
1.9786 4.8146 -3.0053 0.9762
1.5422 4.9717 -3.0053 0.9762
1.0936 5.0892 -3.0053 0.9762
0.1739 5.2024 -3.0053 0.9762
-0.2898 5.1973 -3.0053 0.9762
-0.7512 5.1509 -3.0053 0.9762
-1.6541 4.9404 -3.0080 0.9762
-3.4372 4.2543 -3.1577 0.9751
-4.9352 2.3574 -3.1577 0.9751
