ply
format ascii 1.0
element vertex 1587
property float32 x
property float32 y
property float32 z
property float32 I
end_header
-3.6015 7.3289 1.3003 0.9675
-3.5979 7.3215 1.1603 0.9676
9.6435 -6.0060 1.4237 0.9552
-3.5942 7.3141 1.0213 0.9677
9.3094 -6.3906 1.4150 0.9555
9.4019 -5.8555 1.2014 0.9564
9.0889 -6.2392 1.1958 0.9566
9.2508 -5.7614 0.9991 0.9572
-3.5870 7.2994 0.7456 0.9679
8.8624 -7.3250 1.0541 0.9549
9.7267 -5.4722 1.0232 0.9562
8.6650 -6.5346 0.8133 0.9574
10.3614 -5.2358 0.8700 0.9545
8.6608 -7.1584 0.8420 0.9559
8.8426 -6.0701 0.8038 0.9579
9.5777 -5.3883 0.8235 0.9569
10.1664 -5.1373 0.6634 0.9554
9.4730 -5.3294 0.6331 0.9574
8.7700 -7.9320 0.4917 0.9538
8.5174 -6.4233 0.4436 0.9582
8.9816 -5.5938 0.4400 0.9585
10.0220 -5.0643 0.4669 0.9560
-3.5764 7.2777 0.3372 0.9681
8.4584 -6.9911 0.4563 0.9570
9.3941 -5.2851 0.4482 0.9578
8.6366 -7.8114 0.2904 0.9545
8.4715 -6.3887 0.2646 0.9584
8.9357 -5.5652 0.2625 0.9588
-3.5729 7.2706 0.2020 0.9681
8.6573 -5.9429 0.2619 0.9589
8.9046 -5.5459 0.0872 0.9589
9.8801 -4.9926 0.0920 0.9567
-3.5693 7.2634 0.0673 0.9681
8.3551 -6.9056 0.0901 0.9576
8.4255 -6.3540 -0.0877 0.9587
8.8900 -5.5368 -0.0870 0.9590
9.8568 -4.9809 -0.0918 0.9568
8.3387 -6.8921 -0.0899 0.9576
9.2809 -5.2213 -0.0885 0.9583
8.4858 -7.6750 -0.2853 0.9553
8.4178 -6.3482 -0.2629 0.9587
9.8472 -4.9760 -0.2751 0.9568
8.6055 -5.9073 -0.2603 0.9591
8.4325 -6.3592 -0.4391 0.9586
8.5982 -7.7766 -0.6752 0.9546
8.4481 -6.3710 -0.6163 0.9585
9.9033 -5.0044 -0.6463 0.9565
-3.5553 7.2349 -0.4695 0.9682
8.3704 -6.9183 -0.6325 0.9574
9.3103 -5.2379 -0.6222 0.9581
8.7356 -7.9009 -0.8827 0.9539
8.4946 -6.4061 -0.7973 0.9582
-3.5528 7.2297 -0.6037 0.9682
10.1061 -5.1068 -1.0381 0.9555
9.4267 -5.3034 -0.9916 0.9575
8.6270 -6.5059 -1.1720 0.9575
9.0891 -5.6608 -1.1614 0.9578
8.8036 -6.0434 -1.1582 0.9579
8.7253 -6.5801 -1.3695 0.9569
9.1882 -5.7225 -1.3565 0.9573
8.8936 -6.1051 -1.3518 0.9574
9.8684 -5.5519 -1.6105 0.9553
9.1395 -6.8925 -1.8228 0.9547
9.5650 -5.9572 -1.7943 0.9554
9.2348 -6.3393 -1.7836 0.9556
10.0456 -6.2565 -2.0868 0.9531
-3.5510 7.2260 -1.4197 0.9678
9.5953 -6.5868 -2.0522 0.9538
12.6875 7.1379 -3.0690 0.9422
12.0018 8.2388 -3.0690 0.9422
11.2209 9.2743 -3.0690 0.9422
8.3720 11.9093 -3.0690 0.9422
7.2788 12.6072 -3.0690 0.9422
6.1278 13.2050 -3.0690 0.9422
4.9281 13.6980 -3.0690 0.9422
2.4213 14.3547 -3.0690 0.9422
1.1341 14.5133 -3.0690 0.9422
-0.1622 14.5566 -3.0690 0.9422
-1.4571 14.4844 -3.0690 0.9422
-7.5578 12.4419 -3.0690 0.9422
-8.6352 11.7198 -3.0690 0.9422
-9.6441 10.9047 -3.0690 0.9422
-10.5764 10.0030 -3.0690 0.9422
-11.4247 9.0220 -3.0690 0.9422
-12.8433 6.8534 -3.0690 0.9422
-13.4024 5.6831 -3.0690 0.9422
12.9928 6.5656 -3.0690 0.9422
12.3569 7.6960 -3.0690 0.9422
8.8942 11.5245 -3.0690 0.9422
4.3130 13.9039 -3.0690 0.9422
1.7795 14.4484 -3.0690 0.9422
0.4864 14.5494 -3.0690 0.9422
-0.8105 14.5349 -3.0690 0.9422
-3.3747 14.1610 -3.0690 0.9422
-6.9961 12.7662 -3.0690 0.9422
-10.1203 10.4643 -3.0690 0.9422
-11.8153 8.5041 -3.0690 0.9422
-12.5253 7.4187 -3.0690 0.9422
-14.1139 0.0000 -3.2214 0.9437
-14.0579 -1.2562 -3.2214 0.9437
-12.7356 -6.0833 -3.2214 0.9437
-11.4553 -8.2450 -3.2214 0.9437
-10.6759 -9.2318 -3.2214 0.9437
-9.8119 -10.1454 -3.2214 0.9437
-4.4809 -13.3837 -3.2214 0.9437
-2.0369 -13.9661 -3.2214 0.9437
-0.7858 -14.0920 -3.2214 0.9437
2.9652 -13.7989 -3.2214 0.9437
4.1816 -13.4802 -3.2214 0.9437
5.3648 -13.0545 -3.2214 0.9437
6.5054 -12.5252 -3.2214 0.9437
7.5945 -11.8965 -3.2214 0.9437
9.5834 -10.3615 -3.2214 0.9437
10.4676 -9.4674 -3.2214 0.9437
11.9804 -7.4614 -3.2214 0.9437
12.5969 -6.3655 -3.2214 0.9437
13.5260 -4.0312 -3.2214 0.9437
13.8311 -2.8113 -3.2214 0.9437
14.0264 -1.5691 -3.2214 0.9437
13.6921 3.4246 -3.2214 0.9437
11.7189 6.5930 -3.0690 0.9463
11.0856 7.6099 -3.0690 0.9463
8.6812 10.2682 -3.0690 0.9463
6.7231 11.6447 -3.0690 0.9463
4.5519 12.6523 -3.0690 0.9463
3.4077 13.0072 -3.0690 0.9463
2.2365 13.2589 -3.0690 0.9463
-2.5313 13.2058 -3.0690 0.9463
-6.9809 11.4921 -3.0690 0.9463
-9.7690 9.2395 -3.0690 0.9463
-11.2524 7.3610 -3.0690 0.9463
-11.8629 6.3303 -3.0690 0.9463
-13.4328 4.3315 -3.2214 0.9437
-13.7650 -3.1187 -3.2214 0.9437
-13.4328 -4.3315 -3.2214 0.9437
-12.4520 -6.6446 -3.2214 0.9437
-11.8112 -7.7265 -3.2214 0.9437
-11.0766 -8.7471 -3.2214 0.9437
-9.3502 -10.5724 -3.2214 0.9437
-8.3721 -11.3627 -3.2214 0.9437
-6.2248 -12.6670 -3.2214 0.9437
-2.6570 -13.8615 -3.2214 0.9437
3.5770 -13.6531 -3.2214 0.9437
7.0570 -12.2230 -3.2214 0.9437
10.0355 -9.9243 -3.2214 0.9437
11.6361 -7.9877 -3.2214 0.9437
12.8680 -5.7980 -3.2214 0.9437
13.3330 -4.6297 -3.2214 0.9437
13.6921 -3.4246 -3.2214 0.9437
13.9426 -2.1924 -3.2214 0.9437
14.0824 -0.9427 -3.2214 0.9437
14.1104 0.3145 -3.2214 0.9437
13.5260 4.0312 -3.2214 0.9437
12.4931 4.9721 -3.0690 0.9463
11.4136 7.1084 -3.0690 0.9463
10.7356 8.0961 -3.0690 0.9463
9.9724 9.0195 -3.0690 0.9463
8.2152 10.6447 -3.0690 0.9463
6.1977 11.9327 -3.0690 0.9463
3.9838 12.8425 -3.0690 0.9463
2.8249 13.1461 -3.0690 0.9463
1.6436 13.3454 -3.0690 0.9463
-1.9405 13.3054 -3.0690 0.9463
-3.1171 13.0799 -3.0690 0.9463
-7.4859 11.1697 -3.0690 0.9463
-9.3477 9.6655 -3.0690 0.9463
-10.1709 8.7951 -3.0690 0.9463
-10.9133 7.8550 -3.0690 0.9463
-12.1331 5.7955 -3.0690 0.9463
-13.8903 2.5025 -3.2214 0.9437
-13.0538 -1.1665 -3.2214 0.9474
-11.8260 -5.6488 -3.2214 0.9474
-9.1111 -9.4208 -3.2214 0.9474
-7.2964 -10.8869 -3.2214 0.9474
-6.2984 -11.4931 -3.2214 0.9474
-4.1608 -12.4278 -3.2214 0.9474
-1.8914 -12.9686 -3.2214 0.9474
0.4379 -13.0985 -3.2214 0.9474
3.8829 -12.5174 -3.2214 0.9474
6.0408 -11.6306 -3.2214 0.9474
7.0520 -11.0468 -3.2214 0.9474
8.0072 -10.3753 -3.2214 0.9474
11.1247 -6.9285 -3.2214 0.9474
13.1026 -0.2920 -3.2214 0.9474
13.0766 0.8754 -3.2214 0.9474
12.9467 2.0358 -3.2214 0.9474
12.7142 3.1800 -3.2214 0.9474
8.8778 8.7795 -3.0690 0.9499
8.0612 9.5348 -3.0690 0.9499
7.1805 10.2145 -3.0690 0.9499
4.2268 11.7486 -3.0690 0.9499
3.1643 12.0782 -3.0690 0.9499
2.0768 12.3119 -3.0690 0.9499
-0.1391 12.4850 -3.0690 0.9499
-8.2716 9.3529 -3.0690 0.9499
-9.0712 8.5795 -3.0690 0.9499
-11.0156 5.8781 -3.0690 0.9499
-12.4734 4.0221 -3.2214 0.9474
-12.9889 1.7469 -3.2214 0.9474
-13.0928 0.5838 -3.2214 0.9474
-13.0928 -0.5838 -3.2214 0.9474
-12.9889 -1.7468 -3.2214 0.9474
-12.7819 -2.8960 -3.2214 0.9474
-12.0659 -5.1163 -3.2214 0.9474
-11.5626 -6.1700 -3.2214 0.9474
-10.9675 -7.1746 -3.2214 0.9474
-10.2854 -8.1223 -3.2214 0.9474
-9.5217 -9.0055 -3.2214 0.9474
-7.7741 -10.5511 -3.2214 0.9474
-6.8042 -11.2012 -3.2214 0.9474
-5.7802 -11.7623 -3.2214 0.9474
-4.7103 -12.2301 -3.2214 0.9474
-3.6031 -12.6008 -3.2214 0.9474
-1.3118 -13.0400 -3.2214 0.9474
1.0210 -13.0660 -3.2214 0.9474
2.1799 -12.9233 -3.2214 0.9474
4.4367 -12.3320 -3.2214 0.9474
5.5167 -11.8882 -3.2214 0.9474
6.5529 -11.3500 -3.2214 0.9474
8.4615 -10.0083 -3.2214 0.9474
9.3187 -9.2154 -3.2214 0.9474
11.4223 -6.4261 -3.2214 0.9474
11.9489 -5.3839 -3.2214 0.9474
12.9467 -2.0357 -3.2214 0.9474
13.0765 -0.8754 -3.2214 0.9474
13.1026 0.2920 -3.2214 0.9474
12.8432 2.6105 -3.2214 0.9474
12.5599 3.7432 -3.2214 0.9474
10.5984 6.6007 -3.0690 0.9499
9.9688 7.5179 -3.0690 0.9499
9.2601 8.3753 -3.0690 0.9499
8.4779 9.1663 -3.0690 0.9499
7.6284 9.8845 -3.0690 0.9499
6.7184 10.5242 -3.0690 0.9499
5.7550 11.0804 -3.0690 0.9499
3.6992 11.9253 -3.0690 0.9499
2.6232 12.2071 -3.0690 0.9499
1.5262 12.3922 -3.0690 0.9499
0.4172 12.4788 -3.0690 0.9499
-2.8945 12.1457 -3.0690 0.9499
-3.9640 11.8399 -3.0690 0.9499
-5.0021 11.4401 -3.0690 0.9499
-6.9512 10.3719 -3.0690 0.9499
-7.8467 9.7121 -3.0690 0.9499
-8.6800 8.9751 -3.0690 0.9499
-9.4444 8.1669 -3.0690 0.9499
-10.7428 6.3630 -3.0690 0.9499
-11.2665 5.3816 -3.0690 0.9499
-13.0538 1.1665 -3.2214 0.9474
-12.2255 0.0000 -3.2214 0.9507
-10.5188 -6.2303 -3.2214 0.9507
-9.9225 -7.1418 -3.2214 0.9507
-4.8978 -11.2015 -3.2214 0.9507
-3.8813 -11.5929 -3.2214 0.9507
-2.8341 -11.8924 -3.2214 0.9507
-1.7644 -12.0974 -3.2214 0.9507
3.6221 -11.6765 -3.2214 0.9507
4.6470 -11.3078 -3.2214 0.9507
5.6350 -10.8493 -3.2214 0.9507
7.4694 -9.6783 -3.2214 0.9507
8.3011 -8.9751 -3.2214 0.9507
9.0670 -8.2006 -3.2214 0.9507
10.9114 -5.5138 -3.2214 0.9507
11.3589 -4.5207 -3.2214 0.9507
11.7162 -3.4918 -3.2214 0.9507
12.1497 -1.3591 -3.2214 0.9507
12.1981 0.8166 -3.2214 0.9507
12.0771 1.8991 -3.2214 0.9507
11.8601 2.9664 -3.2214 0.9507
10.6189 4.7847 -3.0690 0.9530
10.1509 5.7108 -3.0690 0.9530
9.6023 6.5916 -3.0690 0.9530
8.2815 8.1897 -3.0690 0.9530
6.6982 9.5283 -3.0690 0.9530
4.9027 10.5650 -3.0690 0.9530
2.9518 11.2669 -3.0690 0.9530
1.9373 11.4849 -3.0690 0.9530
-1.1658 11.5886 -3.0690 0.9530
-3.2021 11.1983 -3.0690 0.9530
-3.5494 7.2229 -2.1206 0.9673
-6.9088 9.3767 -3.0690 0.9530
-7.7160 8.7246 -3.0690 0.9530
-11.2554 4.7727 -3.2214 0.9507
-11.6355 3.7520 -3.2214 0.9507
-11.9232 2.7015 -3.2214 0.9507
-12.2133 0.5446 -3.2214 0.9507
-12.2133 -0.5446 -3.2214 0.9507
-12.1164 -1.6295 -3.2214 0.9507
-11.6355 -3.7520 -3.2214 0.9507
-11.2554 -4.7727 -3.2214 0.9507
-10.2308 -6.6927 -3.2214 0.9507
-9.5945 -7.5767 -3.2214 0.9507
-8.0991 -9.1578 -3.2214 0.9507
-6.3471 -10.4487 -3.2214 0.9507
-4.3939 -11.4085 -3.2214 0.9507
-0.1362 -12.2247 -3.2214 0.9507
0.9524 -12.1883 -3.2214 0.9507
2.0334 -12.0551 -3.2214 0.9507
4.1387 -11.5036 -3.2214 0.9507
5.1461 -11.0896 -3.2214 0.9507
6.1127 -10.5875 -3.2214 0.9507
7.0308 -10.0014 -3.2214 0.9507
7.8931 -9.3360 -3.2214 0.9507
9.4233 -7.7886 -3.2214 0.9507
10.0792 -6.9189 -3.2214 0.9507
10.6550 -5.9944 -3.2214 0.9507
11.5490 -4.0102 -3.2214 0.9507
11.8601 -2.9664 -3.2214 0.9507
12.1981 -0.8165 -3.2214 0.9507
12.1497 1.3592 -3.2214 0.9507
11.7162 3.4918 -3.2214 0.9507
10.3952 5.2530 -3.0690 0.9530
9.8864 6.1573 -3.0690 0.9530
9.2992 7.0129 -3.0690 0.9530
8.6381 7.8127 -3.0690 0.9530
7.9084 8.5505 -3.0690 0.9530
6.2671 9.8172 -3.0690 0.9530
3.4508 11.1241 -3.0690 0.9530
2.4470 11.3871 -3.0690 0.9530
1.4237 11.5597 -3.0690 0.9530
-2.7000 11.3298 -3.0690 0.9530
-3.6977 11.0445 -3.0690 0.9530
-6.4842 9.6752 -3.0690 0.9530
-8.0970 8.3722 -3.0690 0.9530
-10.0212 5.9356 -3.0690 0.9530
-11.4568 4.2666 -3.2214 0.9507
-12.0318 2.1676 -3.2214 0.9507
-11.0427 -3.0249 -3.2214 0.9535
-10.7297 -3.9958 -3.2214 0.9535
-10.3315 -4.9349 -3.2214 0.9535
-8.6606 -7.4891 -3.2214 0.9535
-7.1955 -8.9060 -3.2214 0.9535
-6.3743 -9.5111 -3.2214 0.9535
-5.5024 -10.0407 -3.2214 0.9535
-4.5869 -10.4906 -3.2214 0.9535
-3.6350 -10.8572 -3.2214 0.9535
-2.6542 -11.1377 -3.2214 0.9535
-1.6524 -11.3297 -3.2214 0.9535
-0.6374 -11.4318 -3.2214 0.9535
4.3521 -10.5902 -3.2214 0.9535
6.1608 -9.6507 -3.2214 0.9535
6.9953 -9.0641 -3.2214 0.9535
9.1415 -6.8939 -3.2214 0.9535
9.7188 -6.0529 -3.2214 0.9535
10.2190 -5.1639 -3.2214 0.9535
10.6380 -4.2338 -3.2214 0.9535
11.3106 1.7785 -3.2214 0.9535
11.1074 2.7782 -3.2214 0.9535
10.8161 3.7557 -3.2214 0.9535
9.5067 5.3484 -3.0690 0.9557
8.9929 6.1733 -3.0690 0.9557
8.4078 6.9492 -3.0690 0.9557
7.7559 7.6700 -3.0690 0.9557
7.0424 8.3299 -3.0690 0.9557
5.4540 9.4465 -3.0690 0.9557
4.5915 9.8945 -3.0690 0.9557
0.8498 10.8748 -3.0690 0.9557
-0.1215 10.9072 -3.0690 0.9557
-1.0918 10.8531 -3.0690 0.9557
-2.0535 10.7129 -3.0690 0.9557
-3.9204 10.1791 -3.0690 0.9557
-3.5491 7.2222 -2.2641 0.9671
-5.6631 9.3227 -3.0690 0.9557
-8.5605 6.7602 -3.0690 0.9557
-9.1282 5.9714 -3.0690 0.9557
-10.8970 3.5138 -3.2214 0.9535
-11.1665 2.5300 -3.2214 0.9535
-11.3474 1.5261 -3.2214 0.9535
-11.4382 0.5100 -3.2214 0.9535
-11.4382 -0.5100 -3.2214 0.9535
-11.1665 -2.5300 -3.2214 0.9535
-10.8970 -3.5139 -3.2214 0.9535
-9.5815 -6.2679 -3.2214 0.9535
-8.9856 -7.0959 -3.2214 0.9535
-7.5851 -8.5766 -3.2214 0.9535
-6.7917 -9.2177 -3.2214 0.9535
-5.9443 -9.7856 -3.2214 0.9535
-5.0497 -10.2758 -3.2214 0.9535
-4.1151 -10.6845 -3.2214 0.9535
-3.1478 -11.0084 -3.2214 0.9535
-2.1555 -11.2448 -3.2214 0.9535
-1.1461 -11.3921 -3.2214 0.9535
-0.1275 -11.4488 -3.2214 0.9535
1.9044 -11.2900 -3.2214 0.9535
3.8760 -10.7735 -3.2214 0.9535
5.7248 -9.9156 -3.2214 0.9535
8.8253 -7.2943 -3.2214 0.9535
10.4388 -4.7035 -3.2214 0.9535
11.1074 -2.7781 -3.2214 0.9535
11.3106 -1.7785 -3.2214 0.9535
10.9726 3.2702 -3.2214 0.9535
10.6380 4.2338 -3.2214 0.9535
9.7355 4.9196 -3.0690 0.9557
9.2590 5.7666 -3.0690 0.9557
8.7090 6.5678 -3.0690 0.9557
8.0899 7.3169 -3.0690 0.9557
2.2917 10.6645 -3.0690 0.9557
-3.4630 10.3436 -3.0690 0.9557
-5.2421 9.5657 -3.0690 0.9557
-6.8551 8.4847 -3.0690 0.9557
-8.8532 6.3721 -3.0690 0.9557
-9.3852 5.5589 -3.0690 0.9557
-10.0251 4.7886 -3.1259 0.9549
-11.0427 3.0250 -3.2214 0.9535
-11.2682 2.0301 -3.2214 0.9535
-11.4041 1.0191 -3.2214 0.9535
-10.7603 0.0000 -3.2214 0.9561
-10.5898 -1.9078 -3.2214 0.9561
-10.0837 -3.7552 -3.2214 0.9561
-9.2581 -5.4836 -3.2214 0.9561
-8.7333 -6.2859 -3.2214 0.9561
-7.4804 -7.7347 -3.2214 0.9561
-5.9905 -8.9385 -3.2214 0.9561
-5.1712 -9.4362 -3.2214 0.9561
-4.3108 -9.8590 -3.2214 0.9561
-3.4162 -10.2036 -3.2214 0.9561
2.2606 -10.5201 -3.2214 0.9561
6.5742 -8.5184 -3.2214 0.9561
7.3063 -7.8995 -3.2214 0.9561
9.1337 -5.6885 -3.2214 0.9561
10.3120 -3.0733 -3.2214 0.9561
10.5446 -2.1433 -3.2214 0.9561
10.7576 -0.2397 -3.2214 0.9561
10.1649 3.5296 -3.2214 0.9561
9.8104 4.4204 -3.2214 0.9561
8.4515 5.8016 -3.0690 0.9581
6.6185 7.8284 -3.0690 0.9581
5.1256 8.8778 -3.0690 0.9581
4.3151 9.2988 -3.0690 0.9581
3.4703 9.6459 -3.0690 0.9581
1.7051 10.1084 -3.0690 0.9581
0.7986 10.2200 -3.0690 0.9581
-0.1142 10.2506 -3.0690 0.9581
-1.0261 10.1997 -3.0690 0.9581
-1.9299 10.0679 -3.0690 0.9581
-2.8183 9.8562 -3.0690 0.9581
-3.5247 7.1725 -2.3926 0.9672
-5.3221 8.7614 -3.0690 0.9581
-6.0808 8.2530 -3.0690 0.9581
-6.7912 7.6790 -3.0690 0.9581
-7.4477 7.0440 -3.0690 0.9581
-8.5787 5.6119 -3.0690 0.9581
-9.0441 4.8261 -3.0690 0.9581
-10.2410 3.3023 -3.2214 0.9561
-10.4943 2.3777 -3.2214 0.9561
-10.6642 1.4342 -3.2214 0.9561
-10.7496 0.4793 -3.2214 0.9561
-10.7496 -0.4793 -3.2214 0.9561
-10.4943 -2.3777 -3.2214 0.9561
-10.2410 -3.3023 -3.2214 0.9561
-7.8176 -7.3938 -3.2214 0.9561
-6.3828 -8.6627 -3.2214 0.9561
-5.5864 -9.1965 -3.2214 0.9561
-2.9583 -10.3456 -3.2214 0.9561
-1.0771 -10.7062 -3.2214 0.9561
1.7897 -10.6104 -3.2214 0.9561
3.6427 -10.1249 -3.2214 0.9561
5.3801 -9.3186 -3.2214 0.9561
6.9471 -8.2171 -3.2214 0.9561
10.1649 -3.5296 -3.2214 0.9561
10.4387 -2.6109 -3.2214 0.9561
10.6296 -1.6714 -3.2214 0.9561
10.7362 -0.7187 -3.2214 0.9561
10.7576 0.2397 -3.2214 0.9561
10.5446 2.1433 -3.2214 0.9561
10.3120 3.0733 -3.2214 0.9561
9.9976 3.9789 -3.2214 0.9561
9.3738 4.7368 -3.1443 0.9571
8.7016 5.4194 -3.0690 0.9581
7.6028 6.8763 -3.0690 0.9581
5.5160 8.6407 -3.0690 0.9581
4.7250 9.0973 -3.0690 0.9581
3.8966 9.4818 -3.0690 0.9581
3.0372 9.7909 -3.0690 0.9581
0.3425 10.2455 -3.0690 0.9581
-0.5707 10.2353 -3.0690 0.9581
-2.3764 9.9720 -3.0690 0.9581
-5.7071 8.5156 -3.0690 0.9581
-6.4424 7.9739 -3.0690 0.9581
-7.1266 7.3688 -3.0690 0.9581
-7.7541 6.7053 -3.0690 0.9581
-8.8201 5.2242 -3.0690 0.9581
-9.7095 4.6378 -3.2214 0.9561
-10.0837 3.7552 -3.2214 0.9561
-10.3779 2.8428 -3.2214 0.9561
-10.5898 1.9078 -3.2214 0.9561
-10.1435 0.0000 -3.2214 0.9583
-9.9827 -1.7985 -3.2214 0.9583
-9.1529 -4.3720 -3.2214 0.9583
-8.7275 -5.1693 -3.2214 0.9583
-8.2327 -5.9255 -3.2214 0.9583
-7.6726 -6.6348 -3.2214 0.9583
-7.0517 -7.2913 -3.2214 0.9583
-6.3747 -7.8901 -3.2214 0.9583
-5.6471 -8.4261 -3.2214 0.9583
-3.2204 -9.6187 -3.2214 0.9583
-2.3515 -9.8671 -3.2214 0.9583
-1.4639 -10.0373 -3.2214 0.9583
0.3389 -10.1378 -3.2214 0.9583
2.1310 -9.9171 -3.2214 0.9583
3.8556 -9.3821 -3.2214 0.9583
4.6754 -9.0017 -3.2214 0.9583
6.1973 -8.0301 -3.2214 0.9583
6.8875 -7.4466 -3.2214 0.9583
7.5229 -6.8041 -3.2214 0.9583
8.0987 -6.1075 -3.2214 0.9583
8.6101 -5.3624 -3.2214 0.9583
9.4245 -3.7509 -3.2214 0.9583
9.7209 -2.8971 -3.2214 0.9583
10.0806 -1.1277 -3.2214 0.9583
10.1208 0.6775 -3.2214 0.9583
9.5822 3.3273 -3.2214 0.9583
6.8711 6.7950 -3.0690 0.9603
6.2391 7.3796 -3.0690 0.9603
4.8318 8.3689 -3.0690 0.9603
4.0677 8.7658 -3.0690 0.9603
0.7528 9.6342 -3.0690 0.9603
-0.1077 9.6630 -3.0690 0.9603
-0.9673 9.6151 -3.0690 0.9603
-3.4818 7.0852 -2.5072 0.9674
-5.7322 7.7799 -3.0690 0.9603
-8.0869 5.2902 -3.0690 0.9603
-8.9371 4.7690 -3.2171 0.9584
-9.3386 3.9599 -3.2214 0.9583
-9.6540 3.1130 -3.2214 0.9583
-9.8927 2.2414 -3.2214 0.9583
-10.1334 0.4519 -3.2214 0.9583
-9.3386 -3.9599 -3.2214 0.9583
-8.9491 -4.7753 -3.2214 0.9583
-6.0169 -8.1662 -3.2214 0.9583
-5.2662 -8.6693 -3.2214 0.9583
-3.6456 -9.4657 -3.2214 0.9583
-2.7887 -9.7526 -3.2214 0.9583
-1.9096 -9.9621 -3.2214 0.9583
-1.0153 -10.0925 -3.2214 0.9583
0.7902 -10.1126 -3.2214 0.9583
2.5707 -9.8123 -3.2214 0.9583
4.2697 -9.2010 -3.2214 0.9583
5.0717 -8.7845 -3.2214 0.9583
5.8335 -8.2982 -3.2214 0.9583
6.5489 -7.7461 -3.2214 0.9583
7.2124 -7.1324 -3.2214 0.9583
9.8403 -2.4612 -3.2214 0.9583
10.1208 -0.6775 -3.2214 0.9583
10.1409 0.2260 -3.2214 0.9583
10.0806 1.1277 -3.2214 0.9583
9.9402 2.0204 -3.2214 0.9583
9.7209 2.8971 -3.2214 0.9583
9.4245 3.7508 -3.2214 0.9583
9.0532 4.5748 -3.2214 0.9583
7.7155 5.8186 -3.0690 0.9603
7.1670 6.4822 -3.0690 0.9603
6.5616 7.0944 -3.0690 0.9603
5.9042 7.6503 -3.0690 0.9603
4.4542 8.5759 -3.0690 0.9603
2.8631 9.2297 -3.0690 0.9603
1.1813 9.5911 -3.0690 0.9603
-1.3946 9.5624 -3.0690 0.9603
-3.0680 9.1636 -3.0690 0.9603
-3.8714 8.8542 -3.0690 0.9603
-5.3800 8.0275 -3.0690 0.9603
-6.7181 6.9464 -3.0690 0.9603
-7.3097 6.3209 -3.0690 0.9603
-7.8432 5.6452 -3.0690 0.9603
-9.1529 4.3720 -3.2214 0.9583
-9.5057 3.5400 -3.2214 0.9583
-9.9828 1.7985 -3.2214 0.9583
-10.1032 0.9028 -3.2214 0.9583
-9.2474 -2.5331 -3.2214 0.9603
-8.9852 -3.3461 -3.2214 0.9603
-8.6517 -4.1326 -3.2214 0.9603
-8.2496 -4.8862 -3.2214 0.9603
-6.6655 -6.8921 -3.2214 0.9603
-5.3379 -7.9647 -3.2214 0.9603
-3.0440 -9.0920 -3.2214 0.9603
0.3204 -9.5827 -3.2214 0.9603
1.1720 -9.5161 -3.2214 0.9603
2.0144 -9.3740 -3.2214 0.9603
2.8407 -9.1576 -3.2214 0.9603
3.6445 -8.8684 -3.2214 0.9603
5.1592 -8.0816 -3.2214 0.9603
5.8580 -7.5904 -3.2214 0.9603
6.5103 -7.0389 -3.2214 0.9603
8.1387 -5.0688 -3.2214 0.9603
8.5575 -4.3243 -3.2214 0.9603
8.9084 -3.5455 -3.2214 0.9603
9.3959 -1.9098 -3.2214 0.9603
9.5666 0.6404 -3.2214 0.9603
9.4717 1.4894 -3.2214 0.9603
9.0575 3.1451 -3.2214 0.9603
8.3564 4.7012 -3.2214 0.9603
7.0408 5.8194 -3.0690 0.9622
6.4949 6.4230 -3.0690 0.9622
5.8974 6.9755 -3.0690 0.9622
4.5672 7.9107 -3.0690 0.9622
3.8450 8.2858 -3.0690 0.9622
3.0923 8.5951 -3.0690 0.9622
2.3150 8.8362 -3.0690 0.9622
1.5193 9.0072 -3.0690 0.9622
-3.2830 8.5241 -3.0690 0.9622
-3.4663 7.0537 -2.6406 0.9674
-4.7423 7.8070 -3.0690 0.9622
-6.0514 6.8424 -3.0690 0.9622
-6.6364 6.2767 -3.0690 0.9622
-7.1687 5.6610 -3.0690 0.9622
-7.6441 5.0006 -3.0690 0.9622
-9.5025 1.2780 -3.2214 0.9603
-9.5785 -0.4271 -3.2214 0.9603
-9.5025 -1.2779 -3.2214 0.9603
-8.4590 -4.5138 -3.2214 0.9603
-6.9659 -6.5884 -3.2214 0.9603
-4.9778 -8.1946 -3.2214 0.9603
-4.2287 -8.6051 -3.2214 0.9603
-1.8050 -9.4166 -3.2214 0.9603
-0.9597 -9.5399 -3.2214 0.9603
3.2458 -9.0219 -3.2214 0.9603
4.7940 -8.3035 -3.2214 0.9603
5.5140 -7.8438 -3.2214 0.9603
6.8174 -6.7419 -3.2214 0.9603
7.3904 -6.1083 -3.2214 0.9603
7.9048 -5.4263 -3.2214 0.9603
8.7416 -3.9388 -3.2214 0.9603
9.0575 -3.1451 -3.2214 0.9603
9.5857 0.2136 -3.2214 0.9603
9.1886 2.7385 -3.2214 0.9603
8.9084 3.5454 -3.2214 0.9603
8.5575 4.3243 -3.2214 0.9603
7.7536 4.8290 -3.0690 0.9622
7.2930 5.5000 -3.0690 0.9622
6.2023 6.7059 -3.0690 0.9622
5.5809 7.2313 -3.0690 0.9622
4.2103 8.1063 -3.0690 0.9622
2.7063 8.7243 -3.0690 0.9622
1.9191 8.9306 -3.0690 0.9622
1.1166 9.0659 -3.0690 0.9622
0.3052 9.1294 -3.0690 0.9622
-0.5085 9.1203 -3.0690 0.9622
-1.3183 9.0388 -3.0690 0.9622
-3.8277 6.9846 -2.6760 0.9669
-5.0854 7.5880 -3.0690 0.9622
-6.3502 6.5661 -3.0690 0.9622
-6.9094 5.9748 -3.0690 0.9622
-9.0850 0.0000 -3.2214 0.9622
-9.0489 -0.8086 -3.2214 0.9622
-8.7622 -2.4002 -3.2214 0.9622
-8.5138 -3.1705 -3.2214 0.9622
-8.1978 -3.9157 -3.2214 0.9622
-7.3736 -5.3072 -3.2214 0.9622
-6.3158 -6.5305 -3.2214 0.9622
-4.3661 -7.9671 -3.2214 0.9622
-2.8843 -8.6149 -3.2214 0.9622
-2.1061 -8.8375 -3.2214 0.9622
-1.3111 -8.9898 -3.2214 0.9622
-0.5058 -9.0709 -3.2214 0.9622
0.3036 -9.0799 -3.2214 0.9622
3.4533 -8.4031 -3.2214 0.9622
5.5506 -7.1921 -3.2214 0.9622
6.1687 -6.6696 -3.2214 0.9622
6.7379 -6.0941 -3.2214 0.9622
7.2536 -5.4702 -3.2214 0.9622
7.7116 -4.8028 -3.2214 0.9622
8.1085 -4.0974 -3.2214 0.9622
8.9029 -1.8096 -3.2214 0.9622
9.0287 -1.0100 -3.2214 0.9622
8.8135 2.2044 -3.2214 0.9622
8.5823 2.9801 -3.2214 0.9622
8.2830 3.7321 -3.2214 0.9622
7.1357 4.8984 -3.0690 0.9639
6.1541 6.0859 -3.0690 0.9639
5.5880 6.6096 -3.0690 0.9639
4.9776 7.0807 -3.0690 0.9639
4.3276 7.4956 -3.0690 0.9639
3.6433 7.8510 -3.0690 0.9639
2.9300 8.1441 -3.0690 0.9639
2.1935 8.3726 -3.0690 0.9639
1.4396 8.5346 -3.0690 0.9639
0.6743 8.6289 -3.0690 0.9639
-0.8663 8.6117 -3.0690 0.9639
-1.6294 8.5004 -3.0690 0.9639
-3.4526 7.0259 -2.7759 0.9673
-4.4935 7.3973 -3.0690 0.9639
-5.1341 6.9680 -3.0690 0.9639
-6.2882 5.9473 -3.0690 0.9639
-6.7926 5.3641 -3.0690 0.9639
-7.3170 4.7866 -3.1003 0.9636
-9.0039 1.2109 -3.2214 0.9622
-9.0760 -0.4047 -3.2214 0.9622
-8.6466 -2.7881 -3.2214 0.9622
-8.3641 -3.5467 -3.2214 0.9622
-8.0152 -4.2770 -3.2214 0.9622
-7.6027 -4.9735 -3.2214 0.9622
-7.1299 -5.6304 -3.2214 0.9622
-6.6005 -6.2426 -3.2214 0.9622
-6.0186 -6.8054 -3.2214 0.9622
-5.3890 -7.3140 -3.2214 0.9622
-1.7103 -8.9225 -3.2214 0.9622
-0.9094 -9.0394 -3.2214 0.9622
2.3025 -8.7884 -3.2214 0.9622
3.8242 -8.2409 -3.2214 0.9622
4.5425 -7.8678 -3.2214 0.9622
5.2247 -7.4323 -3.2214 0.9622
7.4900 -5.1416 -3.2214 0.9622
8.5823 -2.9801 -3.2214 0.9622
8.9747 -1.4112 -3.2214 0.9622
9.0827 0.2024 -3.2214 0.9622
8.9029 1.8096 -3.2214 0.9622
8.7065 2.5948 -3.2214 0.9622
8.4410 3.3595 -3.2214 0.9622
7.6032 4.7353 -3.1761 0.9627
0.2892 8.6504 -3.0690 0.9639
-2.0064 8.4194 -3.0690 0.9639
-3.4674 7.9303 -3.0690 0.9639
-3.8175 6.9661 -2.8167 0.9668
-5.4394 6.7324 -3.0690 0.9639
-6.0170 6.2215 -3.0690 0.9639
-6.5469 5.6613 -3.0690 0.9639
-7.8167 4.6299 -3.2214 0.9622
-8.5138 3.1706 -3.2214 0.9622
-8.7622 2.4002 -3.2214 0.9622
-8.6270 0.0000 -3.2214 0.9638
-8.5927 -0.7678 -3.2214 0.9638
-8.4903 -1.5296 -3.2214 0.9638
-8.3204 -2.2792 -3.2214 0.9638
-8.0846 -3.0107 -3.2214 0.9638
-7.4227 -4.3964 -3.2214 0.9638
-7.0019 -5.0396 -3.2214 0.9638
-5.9974 -6.2013 -3.2214 0.9638
-5.4217 -6.7104 -3.2214 0.9638
-4.8029 -7.1664 -3.2214 0.9638
-3.4561 -7.9044 -3.2214 0.9638
-2.7389 -8.1807 -3.2214 0.9638
-1.2450 -8.5367 -3.2214 0.9638
1.0545 -8.5623 -3.2214 0.9638
1.8124 -8.4344 -3.2214 0.9638
3.2792 -7.9794 -3.2214 0.9638
4.6420 -7.2716 -3.2214 0.9638
5.8578 -6.3333 -3.2214 0.9638
6.3982 -5.7868 -3.2214 0.9638
8.2676 -2.4640 -3.2214 0.9638
8.5735 -0.9591 -3.2214 0.9638
8.6248 -0.1922 -3.2214 0.9638
8.5223 1.3401 -3.2214 0.9638
8.1496 2.8299 -3.2214 0.9638
7.8654 3.5440 -3.2214 0.9638
7.5188 4.2300 -3.2214 0.9638
6.9128 4.7454 -3.1310 0.9648
6.3350 5.2361 -3.0690 0.9655
5.3063 6.2763 -3.0690 0.9655
3.4596 7.4552 -3.0690 0.9655
2.7823 7.7336 -3.0690 0.9655
2.0829 7.9505 -3.0690 0.9655
1.3670 8.1044 -3.0690 0.9655
-0.0916 8.2184 -3.0690 0.9655
-2.2596 7.9021 -3.0690 0.9655
-4.8752 6.6167 -3.0690 0.9655
-7.2194 4.7228 -3.2214 0.9638
-7.6111 4.0614 -3.2214 0.9638
-8.2107 2.6476 -3.2214 0.9638
-8.4137 1.9063 -3.2214 0.9638
-8.5500 1.1499 -3.2214 0.9638
-8.6184 0.3843 -3.2214 0.9638
-8.6184 -0.3843 -3.2214 0.9638
-8.4137 -1.9063 -3.2214 0.9638
-8.2107 -2.6476 -3.2214 0.9638
-7.6111 -4.0614 -3.2214 0.9638
-6.2677 -5.9279 -3.2214 0.9638
-5.7152 -6.4623 -3.2214 0.9638
-5.1173 -6.9453 -3.2214 0.9638
-1.6241 -8.4727 -3.2214 0.9638
2.9205 -8.1176 -3.2214 0.9638
3.6314 -7.8254 -3.2214 0.9638
4.3135 -7.4712 -3.2214 0.9638
5.5698 -6.5880 -3.2214 0.9638
6.1341 -6.0661 -3.2214 0.9638
7.1124 -4.8824 -3.2214 0.9638
7.8654 -3.5440 -3.2214 0.9638
8.3692 -2.0933 -3.2214 0.9638
8.5223 -1.3400 -3.2214 0.9638
8.6077 -0.5762 -3.2214 0.9638
8.5735 0.9591 -3.2214 0.9638
8.0155 3.1901 -3.2214 0.9638
6.5620 4.9487 -3.0690 0.9655
5.5806 6.0337 -3.0690 0.9655
3.1241 7.6020 -3.0690 0.9655
2.4350 7.8499 -3.0690 0.9655
1.7267 8.0354 -3.0690 0.9655
0.2746 8.2143 -3.0690 0.9655
-0.4576 8.2061 -3.0690 0.9655
-1.1861 8.1328 -3.0690 0.9655
-3.2926 7.5304 -3.0690 0.9655
-3.8073 6.9475 -2.9583 0.9667
-4.5757 6.8274 -3.0690 0.9655
-5.1652 6.3930 -3.0690 0.9655
-7.7845 3.7184 -3.2214 0.9638
-8.0846 3.0107 -3.2214 0.9638
-8.3204 2.2792 -3.2214 0.9638
-8.4903 1.5296 -3.2214 0.9638
-8.1754 -0.7305 -3.2214 0.9653
-8.0780 -1.4553 -3.2214 0.9653
-7.6919 -2.8645 -3.2214 0.9653
-7.0622 -4.1829 -3.2214 0.9653
-6.6619 -4.7949 -3.2214 0.9653
-6.2086 -5.3688 -3.2214 0.9653
-3.2883 -7.5205 -3.2214 0.9653
-2.6059 -7.7834 -3.2214 0.9653
-1.9028 -7.9844 -3.2214 0.9653
-1.1846 -8.1221 -3.2214 0.9653
-0.4570 -8.1953 -3.2214 0.9653
0.2743 -8.2034 -3.2214 0.9653
1.0033 -8.1465 -3.2214 0.9653
1.7244 -8.0248 -3.2214 0.9653
3.1199 -7.5919 -3.2214 0.9653
3.7833 -7.2841 -3.2214 0.9653
4.4166 -6.9185 -3.2214 0.9653
5.0148 -6.4979 -3.2214 0.9653
5.5733 -6.0258 -3.2214 0.9653
6.0875 -5.5058 -3.2214 0.9653
7.3258 -3.7019 -3.2214 0.9653
7.8661 -2.3443 -3.2214 0.9653
8.1897 0.5482 -3.2214 0.9653
8.1084 1.2750 -3.2214 0.9653
7.4834 3.3719 -3.2214 0.9653
6.7670 4.6453 -3.2214 0.9653
6.0274 4.9818 -3.0690 0.9670
4.4971 6.3972 -3.0690 0.9670
3.9099 6.7721 -3.0690 0.9670
2.6472 7.3580 -3.0690 0.9670
1.3006 7.7108 -3.0690 0.9670
-0.7827 7.7804 -3.0690 0.9670
-1.4721 7.6799 -3.0690 0.9670
-2.8105 7.2972 -3.0690 0.9670
-5.1804 5.8576 -3.0690 0.9670
-6.1369 4.8463 -3.0690 0.9670
-6.8688 4.4934 -3.2214 0.9653
-7.2415 3.8642 -3.2214 0.9653
-7.5567 3.2043 -3.2214 0.9653
-7.8119 2.5190 -3.2214 0.9653
-8.1348 1.0940 -3.2214 0.9653
-8.1999 0.3657 -3.2214 0.9653
-8.1348 -1.0940 -3.2214 0.9653
-7.2415 -3.8642 -3.2214 0.9653
-4.8688 -6.6080 -3.2214 0.9653
-1.5452 -8.0612 -3.2214 0.9653
-0.8216 -8.1668 -3.2214 0.9653
-0.0914 -8.2075 -3.2214 0.9653
0.6394 -8.1831 -3.2214 0.9653
1.3652 -8.0937 -3.2214 0.9653
4.1040 -7.1083 -3.2214 0.9653
4.7204 -6.7149 -3.2214 0.9653
6.3267 -5.2291 -3.2214 0.9653
6.7670 -4.6453 -3.2214 0.9653
7.1536 -4.0246 -3.2214 0.9653
7.7539 -2.6924 -3.2214 0.9653
8.1084 -1.2750 -3.2214 0.9653
8.1571 0.9125 -3.2214 0.9653
8.0435 1.6349 -3.2214 0.9653
7.3258 3.7019 -3.2214 0.9653
5.7995 5.2453 -3.0690 0.9670
3.6043 6.9395 -3.0690 0.9670
2.3168 7.4686 -3.0690 0.9670
1.6429 7.6452 -3.0690 0.9670
0.9559 7.7611 -3.0690 0.9670
0.2613 7.8154 -3.0690 0.9670
-0.4353 7.8076 -3.0690 0.9670
-1.1285 7.7378 -3.0690 0.9670
-1.8128 7.6067 -3.0690 0.9670
-2.4826 7.4152 -3.0690 0.9670
-4.3534 6.4958 -3.0690 0.9670
-5.4362 5.6210 -3.0690 0.9670
-7.6919 2.8645 -3.2214 0.9653
-7.9164 2.1685 -3.2214 0.9653
-8.1754 0.7306 -3.2214 0.9653
-7.8231 0.0000 -3.2214 0.9667
-7.7921 -0.6963 -3.2214 0.9667
-7.3312 -2.7302 -3.2214 0.9667
-7.0591 -3.3718 -3.2214 0.9667
-6.7310 -3.9868 -3.2214 0.9667
-6.3495 -4.5700 -3.2214 0.9667
-3.7596 -6.8605 -3.2214 0.9667
-2.4837 -7.4184 -3.2214 0.9667
-1.8136 -7.6100 -3.2214 0.9667
-1.1290 -7.7412 -3.2214 0.9667
-0.4355 -7.8110 -3.2214 0.9667
3.6059 -6.9425 -3.2214 0.9667
4.7797 -6.1932 -3.2214 0.9667
5.8020 -5.2476 -3.2214 0.9667
6.2461 -4.7104 -3.2214 0.9667
6.6405 -4.1358 -3.2214 0.9667
7.4972 -2.2344 -3.2214 0.9667
7.8056 0.5225 -3.2214 0.9667
7.1325 3.2138 -3.2214 0.9667
6.8182 3.8359 -3.2214 0.9667
6.4497 4.4275 -3.2214 0.9667
5.7624 4.7628 -3.0784 0.9682
2.5231 7.0129 -3.0690 0.9683
1.8889 7.2097 -3.0690 0.9683
-0.7460 7.4156 -3.0690 0.9683
-1.4031 7.3198 -3.0690 0.9683
-2.0490 7.1658 -3.0690 0.9683
-2.6787 6.9550 -3.0690 0.9683
-3.2871 6.6890 -3.0690 0.9683
-3.8694 6.3699 -3.0690 0.9683
-6.0410 4.7706 -3.1697 0.9672
-6.9019 3.6830 -3.2214 0.9667
-7.2023 3.0541 -3.2214 0.9667
-7.4456 2.4009 -3.2214 0.9667
-7.6297 1.7287 -3.2214 0.9667
-7.6297 -1.7287 -3.2214 0.9667
-7.4456 -2.4009 -3.2214 0.9667
-7.2023 -3.0540 -3.2214 0.9667
-6.9019 -3.6830 -3.2214 0.9667
-6.5467 -4.2827 -3.2214 0.9667
-5.1827 -5.8601 -3.2214 0.9667
-4.6405 -6.2981 -3.2214 0.9667
-4.0615 -6.6862 -3.2214 0.9667
-3.4503 -7.0211 -3.2214 0.9667
-2.1508 -7.5217 -3.2214 0.9667
-1.4728 -7.6832 -3.2214 0.9667
1.3012 -7.7141 -3.2214 0.9667
2.6483 -7.3612 -3.2214 0.9667
3.9116 -6.7750 -3.2214 0.9667
4.4990 -6.3999 -3.2214 0.9667
5.0508 -5.9741 -3.2214 0.9667
6.0300 -4.9839 -3.2214 0.9667
7.7281 -1.2152 -3.2214 0.9667
7.8056 -0.5225 -3.2214 0.9667
7.4972 2.2344 -3.2214 0.9667
6.9823 3.5283 -3.2214 0.9667
6.6405 4.1357 -3.2214 0.9667
5.5275 4.9994 -3.0690 0.9683
4.5536 5.9002 -3.0690 0.9683
1.5658 7.2867 -3.0690 0.9683
0.2490 7.4489 -3.0690 0.9683
-1.0756 7.3750 -3.0690 0.9683
-1.7278 7.2500 -3.0690 0.9683
-2.9858 6.8288 -3.0690 0.9683
-3.5818 6.5359 -3.0690 0.9683
-4.1493 6.1912 -3.0690 0.9683
-4.6839 5.7973 -3.0690 0.9683
-5.1813 5.3574 -3.0690 0.9683
-6.3495 4.5701 -3.2214 0.9667
-6.7310 3.9868 -3.2214 0.9667
-7.3312 2.7302 -3.2214 0.9667
-7.7921 0.6963 -3.2214 0.9667
-7.4681 0.0000 -3.2214 0.9680
-7.3497 -1.3241 -3.2214 0.9680
-7.2027 -1.9730 -3.2214 0.9680
-6.7388 -3.2188 -3.2214 0.9680
-6.4255 -3.8058 -3.2214 0.9680
-6.0613 -4.3627 -3.2214 0.9680
-5.6489 -4.8848 -3.2214 0.9680
-3.5890 -6.5491 -3.2214 0.9680
-2.9919 -6.8426 -3.2214 0.9680
-1.7313 -7.2646 -3.2214 0.9680
-1.0778 -7.3899 -3.2214 0.9680
0.2495 -7.4639 -3.2214 0.9680
1.5690 -7.3014 -3.2214 0.9680
2.2126 -7.1327 -3.2214 0.9680
3.4422 -6.6274 -3.2214 0.9680
4.0184 -6.2947 -3.2214 0.9680
6.9387 -2.7615 -3.2214 0.9680
7.3184 -1.4875 -3.2214 0.9680
7.4662 -0.1664 -3.2214 0.9680
7.4514 0.4988 -3.2214 0.9680
7.2449 1.8121 -3.2214 0.9680
7.0549 2.4497 -3.2214 0.9680
6.5087 3.6618 -3.2214 0.9680
4.0917 5.8205 -3.0690 0.9695
3.5574 6.1616 -3.0690 0.9695
2.9948 6.4537 -3.0690 0.9695
2.4085 6.6947 -3.0690 0.9695
0.5543 7.0932 -3.0690 0.9695
-0.7122 7.0790 -3.0690 0.9695
-1.3394 6.9875 -3.0690 0.9695
-2.5571 6.6394 -3.0690 0.9695
-3.1379 6.3854 -3.0690 0.9695
-4.2203 5.7279 -3.0690 0.9695
-5.1690 4.8889 -3.0690 0.9695
-5.8609 4.6283 -3.2214 0.9680
-6.2496 4.0883 -3.2214 0.9680
-6.5887 3.5158 -3.2214 0.9680
-7.4014 0.9954 -3.2214 0.9680
-7.4607 -0.3327 -3.2214 0.9680
-7.4014 -0.9954 -3.2214 0.9680
-7.2835 -1.6502 -3.2214 0.9680
-6.5887 -3.5158 -3.2214 0.9680
-5.8609 -4.6283 -3.2214 0.9680
-5.4257 -5.1316 -3.2214 0.9680
-2.6841 -6.9690 -3.2214 0.9680
-1.4059 -7.3346 -3.2214 0.9680
0.5818 -7.4454 -3.2214 0.9680
2.5282 -7.0271 -3.2214 0.9680
3.1436 -6.7742 -3.2214 0.9680
3.7340 -6.4675 -3.2214 0.9680
4.2949 -6.1095 -3.2214 0.9680
5.7564 -4.7578 -3.2214 0.9680
6.5087 -3.6617 -3.2214 0.9680
6.8088 -3.0679 -3.2214 0.9680
7.0548 -2.4497 -3.2214 0.9680
7.3774 -1.1600 -3.2214 0.9680
7.4514 -0.4988 -3.2214 0.9680
7.4662 0.1664 -3.2214 0.9680
7.4218 0.8303 -3.2214 0.9680
6.9387 2.7616 -3.2214 0.9680
6.3392 3.9481 -3.2214 0.9680
5.9626 4.4966 -3.2214 0.9680
5.2773 4.7730 -3.0694 0.9695
3.8283 5.9970 -3.0690 0.9695
3.2794 6.3139 -3.0690 0.9695
2.7044 6.5807 -3.0690 0.9695
1.4948 6.9560 -3.0690 0.9695
0.2377 7.1108 -3.0690 0.9695
-1.0268 7.0403 -3.0690 0.9695
-3.4192 6.2393 -3.0690 0.9695
-4.4713 5.5342 -3.0690 0.9695
-4.9461 5.1143 -3.0690 0.9695
-6.7388 3.2189 -3.2214 0.9680
-6.9985 2.6063 -3.2214 0.9680
-7.3497 1.3241 -3.2214 0.9680
-7.1394 0.0000 -3.2214 0.9692
-7.1110 -0.6354 -3.2214 0.9692
-7.0263 -1.2658 -3.2214 0.9692
-6.8857 -1.8862 -3.2214 0.9692
-6.4422 -3.0771 -3.2214 0.9692
-6.1427 -3.6383 -3.2214 0.9692
-5.4003 -4.6698 -3.2214 0.9692
-4.9632 -5.1320 -3.2214 0.9692
-2.8602 -6.5414 -3.2214 0.9692
-1.6551 -6.9449 -3.2214 0.9692
-1.0304 -7.0646 -3.2214 0.9692
-0.3975 -7.1283 -3.2214 0.9692
0.2386 -7.1354 -3.2214 0.9692
2.1152 -6.8188 -3.2214 0.9692
3.2907 -6.3358 -3.2214 0.9692
3.8416 -6.0177 -3.2214 0.9692
4.3619 -5.6519 -3.2214 0.9692
5.2949 -4.7890 -3.2214 0.9692
6.9963 -1.4220 -3.2214 0.9692
7.0951 -0.7937 -3.2214 0.9692
7.0527 1.1090 -3.2214 0.9692
6.9261 1.7323 -3.2214 0.9692
6.7443 2.3419 -3.2214 0.9692
6.5091 2.9329 -3.2214 0.9692
6.2223 3.5006 -3.2214 0.9692
5.5030 4.5483 -3.2214 0.9692
4.8362 4.7826 -3.0690 0.9706
3.4008 5.8904 -3.0690 0.9706
2.8630 6.1697 -3.0690 0.9706
1.1313 6.7069 -3.0690 0.9706
0.5299 6.7810 -3.0690 0.9706
-0.0758 6.8012 -3.0690 0.9706
-0.6808 6.7675 -3.0690 0.9706
-1.2804 6.6800 -3.0690 0.9706
-1.8699 6.5395 -3.0690 0.9706
-2.9998 6.1044 -3.0690 0.9706
-4.0346 5.4758 -3.0690 0.9706
-4.5059 5.0950 -3.0690 0.9706
-5.0481 4.7745 -3.1352 0.9700
-5.6030 4.4246 -3.2214 0.9692
-6.2987 3.3611 -3.2214 0.9692
-6.5729 2.7871 -3.2214 0.9692
-6.7948 2.1911 -3.2214 0.9692
-7.1323 -0.3180 -3.2214 0.9692
-7.0757 -0.9516 -3.2214 0.9692
-6.9629 -1.5776 -3.2214 0.9692
-5.9746 -3.9084 -3.2214 0.9692
-5.1869 -4.9058 -3.2214 0.9692
-3.7066 -6.1018 -3.2214 0.9692
-2.5659 -6.6623 -3.2214 0.9692
-1.9628 -6.8643 -3.2214 0.9692
-1.3440 -7.0117 -3.2214 0.9692
-0.7146 -7.1035 -3.2214 0.9692
0.5562 -7.1177 -3.2214 0.9692
1.1875 -7.0399 -3.2214 0.9692
1.8094 -6.9063 -3.2214 0.9692
3.0052 -6.4760 -3.2214 0.9692
4.1058 -5.8406 -3.2214 0.9692
4.6094 -5.4520 -3.2214 0.9692
5.0763 -5.0201 -3.2214 0.9692
5.5030 -4.5483 -3.2214 0.9692
6.9260 -1.7323 -3.2214 0.9692
6.3720 3.2199 -3.2214 0.9692
6.0601 3.7743 -3.2214 0.9692
5.7002 4.2987 -3.2214 0.9692
4.1556 5.3845 -3.0690 0.9706
3.1350 6.0360 -3.0690 0.9706
2.0152 6.4962 -3.0690 0.9706
1.4290 6.6498 -3.0690 0.9706
0.8314 6.7506 -3.0690 0.9706
-0.3787 6.7911 -3.0690 0.9706
-1.5768 6.6163 -3.0690 0.9706
-2.7249 6.2320 -3.0690 0.9706
-3.2687 5.9647 -3.0690 0.9706
-3.7867 5.6501 -3.0690 0.9706
-4.7284 4.8892 -3.0690 0.9706
-6.1427 3.6383 -3.2214 0.9692
-6.4422 3.0772 -3.2214 0.9692
-7.1110 0.6355 -3.2214 0.9692
-6.8340 0.0000 -3.2214 0.9702
-6.8069 -0.6082 -3.2214 0.9702
-6.7258 -1.2117 -3.2214 0.9702
-6.5912 -1.8055 -3.2214 0.9702
-6.4044 -2.3850 -3.2214 0.9702
-5.8800 -3.4827 -3.2214 0.9702
-4.7510 -4.9125 -3.2214 0.9702
-3.8047 -5.6770 -3.2214 0.9702
-2.7379 -6.2616 -3.2214 0.9702
-2.1697 -6.4805 -3.2214 0.9702
0.8354 -6.7828 -3.2214 0.9702
1.4358 -6.6815 -3.2214 0.9702
2.5977 -6.3211 -3.2214 0.9702
3.1500 -6.0648 -3.2214 0.9702
3.6773 -5.7604 -3.2214 0.9702
5.4564 -4.1148 -3.2214 0.9702
5.8010 -3.6129 -3.2214 0.9702
6.5494 -1.9519 -3.2214 0.9702
6.6971 -1.3612 -3.2214 0.9702
6.7917 -0.7597 -3.2214 0.9702
6.8188 0.4565 -3.2214 0.9702
6.7511 1.0616 -3.2214 0.9702
5.6343 3.8677 -3.2214 0.9702
5.2677 4.3539 -3.2214 0.9702
4.2035 4.9720 -3.0690 0.9716
3.7443 5.3263 -3.0690 0.9716
3.2554 5.6385 -3.0690 0.9716
2.7406 5.9059 -3.0690 0.9716
2.2041 6.1263 -3.0690 0.9716
1.6500 6.2982 -3.0690 0.9716
0.5072 6.4910 -3.0690 0.9716
-0.0725 6.5104 -3.0690 0.9716
-0.6517 6.4780 -3.0690 0.9716
-1.7900 6.2599 -3.0690 0.9716
-2.3400 6.0757 -3.0690 0.9716
-3.8620 5.2416 -3.0690 0.9716
-4.9651 4.6960 -3.2214 0.9702
-5.7190 3.7412 -3.2214 0.9702
-6.2918 2.6680 -3.2214 0.9702
-6.5042 2.0973 -3.2214 0.9702
-6.6651 1.5101 -3.2214 0.9702
-6.7731 0.9109 -3.2214 0.9702
-6.8273 0.3045 -3.2214 0.9702
-6.8273 -0.3044 -3.2214 0.9702
-6.7731 -0.9109 -3.2214 0.9702
-6.2918 -2.6679 -3.2214 0.9702
-6.0293 -3.2174 -3.2214 0.9702
-5.7190 -3.7412 -3.2214 0.9702
-5.3634 -4.2354 -3.2214 0.9702
-4.0538 -5.5019 -3.2214 0.9702
-3.5480 -5.8408 -3.2214 0.9702
-3.0141 -6.1334 -3.2214 0.9702
-1.8788 -6.5707 -3.2214 0.9702
-1.2866 -6.7119 -3.2214 0.9702
-0.6841 -6.7997 -3.2214 0.9702
0.5324 -6.8132 -3.2214 0.9702
1.1367 -6.7388 -3.2214 0.9702
2.8767 -6.1991 -3.2214 0.9702
3.9302 -5.5908 -3.2214 0.9702
4.4122 -5.2188 -3.2214 0.9702
4.8592 -4.8054 -3.2214 0.9702
5.6343 -3.8677 -3.2214 0.9702
5.9562 -3.3509 -3.2214 0.9702
6.2308 -2.8074 -3.2214 0.9702
6.4559 -2.2417 -3.2214 0.9702
6.6298 -1.6582 -3.2214 0.9702
6.7511 -1.0616 -3.2214 0.9702
6.8188 -0.4564 -3.2214 0.9702
6.7917 0.7598 -3.2214 0.9702
6.3496 2.5271 -3.2214 0.9702
5.4564 4.1149 -3.2214 0.9702
5.0685 4.5842 -3.2214 0.9702
4.4208 4.7798 -3.0690 0.9716
3.9778 5.1543 -3.0690 0.9716
3.5033 5.4879 -3.0690 0.9716
3.0010 5.7779 -3.0690 0.9716
2.4748 6.0221 -3.0690 0.9716
0.2176 6.5071 -3.0690 0.9716
-0.3625 6.5006 -3.0690 0.9716
-2.0670 6.1739 -3.0690 0.9716
-2.6083 5.9654 -3.0690 0.9716
-5.1694 4.4701 -3.2214 0.9702
-6.1667 2.9456 -3.2214 0.9702
-6.5912 1.8055 -3.2214 0.9702
-6.7258 1.2117 -3.2214 0.9702
-6.8069 0.6083 -3.2214 0.9702
-6.5235 -0.5829 -3.2214 0.9712
-6.1377 -2.2857 -3.2214 0.9712
-5.9099 -2.8229 -3.2214 0.9712
-5.3158 -3.8261 -3.2214 0.9712
-3.6463 -5.4406 -3.2214 0.9712
-3.1476 -5.7436 -3.2214 0.9712
-2.6239 -6.0009 -3.2214 0.9712
-2.0793 -6.2107 -3.2214 0.9712
-1.5183 -6.3711 -3.2214 0.9712
-0.9452 -6.4809 -3.2214 0.9712
-0.3646 -6.5394 -3.2214 0.9712
0.2189 -6.5458 -3.2214 0.9712
1.3760 -6.4033 -3.2214 0.9712
1.9405 -6.2554 -3.2214 0.9712
2.4895 -6.0579 -3.2214 0.9712
3.0188 -5.8123 -3.2214 0.9712
3.5242 -5.5205 -3.2214 0.9712
4.4472 -4.8082 -3.2214 0.9712
4.8575 -4.3933 -3.2214 0.9712
5.2292 -3.9435 -3.2214 0.9712
5.8456 -2.9539 -3.2214 0.9712
6.0853 -2.4219 -3.2214 0.9712
6.2767 -1.8706 -3.2214 0.9712
6.5089 -0.7281 -3.2214 0.9712
6.5479 -0.1459 -3.2214 0.9712
6.5349 0.4375 -3.2214 0.9712
6.4700 1.0174 -3.2214 0.9712
6.3538 1.5892 -3.2214 0.9712
5.9714 2.6906 -3.2214 0.9712
5.3997 3.7067 -3.2214 0.9712
5.0483 4.1726 -3.2214 0.9712
4.0344 4.7719 -3.0735 0.9725
3.1198 5.4037 -3.0690 0.9726
2.6265 5.6600 -3.0690 0.9726
2.1123 5.8712 -3.0690 0.9726
1.0378 6.1528 -3.0690 0.9726
-0.6246 6.2083 -3.0690 0.9726
-3.2394 5.3329 -3.0690 0.9726
-4.7584 4.5005 -3.2214 0.9712
-5.4809 3.5855 -3.2214 0.9712
-5.7783 3.0834 -3.2214 0.9712
-6.0298 2.5569 -3.2214 0.9712
-6.2335 2.0101 -3.2214 0.9712
-6.3876 1.4472 -3.2214 0.9712
-6.4911 0.8730 -3.2214 0.9712
-6.5430 -0.2918 -3.2214 0.9712
-6.4911 -0.8729 -3.2214 0.9712
-6.3876 -1.4472 -3.2214 0.9712
-6.2335 -2.0100 -3.2214 0.9712
-5.1401 -4.0590 -3.2214 0.9712
-4.7584 -4.5004 -3.2214 0.9712
-4.3389 -4.9061 -3.2214 0.9712
-3.4003 -5.5977 -3.2214 0.9712
-2.8886 -5.8781 -3.2214 0.9712
-2.3539 -6.1119 -3.2214 0.9712
-1.8006 -6.2971 -3.2214 0.9712
1.0894 -6.4583 -3.2214 0.9712
2.7569 -5.9410 -3.2214 0.9712
3.2748 -5.6721 -3.2214 0.9712
3.7666 -5.3580 -3.2214 0.9712
4.6569 -4.6053 -3.2214 0.9712
5.3997 -3.7067 -3.2214 0.9712
5.7082 -3.2114 -3.2214 0.9712
5.9714 -2.6905 -3.2214 0.9712
6.4700 -1.0174 -3.2214 0.9712
6.5349 -0.4374 -3.2214 0.9712
6.5089 0.7282 -3.2214 0.9712
5.8456 2.9539 -3.2214 0.9712
5.5595 3.4625 -3.2214 0.9712
5.2292 3.9436 -3.2214 0.9712
3.8122 4.9396 -3.0690 0.9726
3.3575 5.2594 -3.0690 0.9726
2.8760 5.5373 -3.0690 0.9726
2.3718 5.7713 -3.0690 0.9726
1.8487 5.9595 -3.0690 0.9726
0.7627 6.1929 -3.0690 0.9726
-0.9005 6.1743 -3.0690 0.9726
-1.4465 6.0697 -3.0690 0.9726
-1.9810 5.9169 -3.0690 0.9726
-3.4738 5.1833 -3.0690 0.9726
-3.9213 4.8535 -3.0690 0.9726
-5.9099 2.8230 -3.2214 0.9712
-6.1377 2.2857 -3.2214 0.9712
-6.4457 1.1613 -3.2214 0.9712
-6.2836 0.0000 -3.2214 0.9722
-6.2586 -0.5593 -3.2214 0.9722
-6.1840 -1.1141 -3.2214 0.9722
-6.0603 -1.6601 -3.2214 0.9722
-5.8885 -2.1929 -3.2214 0.9722
-5.6700 -2.7083 -3.2214 0.9722
-5.0999 -3.6707 -3.2214 0.9722
-4.7530 -4.1101 -3.2214 0.9722
-3.9489 -4.8877 -3.2214 0.9722
-1.9949 -5.9585 -3.2214 0.9722
-0.3498 -6.2738 -3.2214 0.9722
0.7681 -6.2365 -3.2214 0.9722
1.3201 -6.1433 -3.2214 0.9722
2.3884 -5.8120 -3.2214 0.9722
3.8391 -4.9744 -3.2214 0.9722
5.3337 -3.3219 -3.2214 0.9722
5.8382 -2.3236 -3.2214 0.9722
6.1577 -1.2516 -3.2214 0.9722
6.2446 -0.6986 -3.2214 0.9722
6.2696 0.4197 -3.2214 0.9722
6.2073 0.9761 -3.2214 0.9722
5.9359 2.0612 -3.2214 0.9722
5.7289 2.5813 -3.2214 0.9722
5.4764 3.0810 -3.2214 0.9722
5.1805 3.5562 -3.2214 0.9722
4.8434 4.0031 -3.2214 0.9722
4.0098 4.7428 -3.1840 0.9725
2.9932 5.1843 -3.0690 0.9735
2.5198 5.4302 -3.0690 0.9735
1.5171 5.7909 -3.0690 0.9735
-2.1515 5.5863 -3.0690 0.9735
-3.1079 5.1163 -3.0690 0.9735
-3.5510 4.8194 -3.0690 0.9735
-4.1628 4.7069 -3.2214 0.9722
-4.5652 4.3177 -3.2214 0.9722
-4.9314 3.8943 -3.2214 0.9722
-5.5437 2.9582 -3.2214 0.9722
-5.7850 2.4531 -3.2214 0.9722
-6.2774 0.2799 -3.2214 0.9722
-6.1283 -1.3885 -3.2214 0.9722
-5.9804 -1.9284 -3.2214 0.9722
-5.5437 -2.9582 -3.2214 0.9722
-4.9314 -3.8942 -3.2214 0.9722
-4.5652 -4.3177 -3.2214 0.9722
-2.7713 -5.6395 -3.2214 0.9722
-2.2584 -5.8637 -3.2214 0.9722
-1.1829 -6.1712 -3.2214 0.9722
-0.0700 -6.2832 -3.2214 0.9722
1.5925 -6.0785 -3.2214 0.9722
2.1272 -5.9126 -3.2214 0.9722
3.6137 -5.1405 -3.2214 0.9722
4.4678 -4.4183 -3.2214 0.9722
5.4764 -3.0810 -3.2214 0.9722
5.7289 -2.5813 -3.2214 0.9722
6.0958 -1.5246 -3.2214 0.9722
6.2820 0.1400 -3.2214 0.9722
6.1577 1.2516 -3.2214 0.9722
6.0218 1.7947 -3.2214 0.9722
5.3337 3.3219 -3.2214 0.9722
5.0169 3.7834 -3.2214 0.9722
4.6602 4.2150 -3.2214 0.9722
4.2666 4.6130 -3.2214 0.9722
2.7592 5.3125 -3.0690 0.9735
2.2755 5.5370 -3.0690 0.9735
1.2577 5.8527 -3.0690 0.9735
-0.3333 5.9771 -3.0690 0.9735
-1.9005 5.6766 -3.0690 0.9735
-2.8769 5.2497 -3.0690 0.9735
-3.8538 4.7699 -3.1438 0.9728
-4.7530 4.1101 -3.2214 0.9722
-5.0999 3.6707 -3.2214 0.9722
-5.4064 3.2022 -3.2214 0.9722
-5.6700 2.7083 -3.2214 0.9722
-6.0603 1.6601 -3.2214 0.9722
-6.2587 0.5593 -3.2214 0.9722
-6.0344 0.0000 -3.2214 0.9730
-5.6550 -2.1059 -3.2214 0.9730
-5.4451 -2.6009 -3.2214 0.9730
-5.1920 -3.0752 -3.2214 0.9730
-4.8977 -3.5251 -3.2214 0.9730
-4.5645 -3.9471 -3.2214 0.9730
-4.1950 -4.3376 -3.2214 0.9730
-2.4175 -5.5289 -3.2214 0.9730
-1.9158 -5.7222 -3.2214 0.9730
-0.8709 -5.9712 -3.2214 0.9730
-0.3359 -6.0250 -3.2214 0.9730
0.7376 -5.9891 -3.2214 0.9730
1.2678 -5.8997 -3.2214 0.9730
1.7878 -5.7634 -3.2214 0.9730
2.7814 -5.3551 -3.2214 0.9730
3.6868 -4.7771 -3.2214 0.9730
4.4754 -4.0477 -3.2214 0.9730
4.8179 -3.6334 -3.2214 0.9730
5.1222 -3.1901 -3.2214 0.9730
5.7830 -1.7235 -3.2214 0.9730
5.9134 -1.2019 -3.2214 0.9730
5.9970 -0.6709 -3.2214 0.9730
6.0209 0.4031 -3.2214 0.9730
5.9611 0.9373 -3.2214 0.9730
5.8540 1.4642 -3.2214 0.9730
5.7005 1.9795 -3.2214 0.9730
5.2592 2.9588 -3.2214 0.9730
4.9750 3.4152 -3.2214 0.9730
4.2906 4.2431 -3.2214 0.9730
2.8744 4.9787 -3.0690 0.9743
2.4199 5.2148 -3.0690 0.9743
1.9462 5.4095 -3.0690 0.9743
1.4570 5.5612 -3.0690 0.9743
0.9562 5.6688 -3.0690 0.9743
-1.0823 5.6461 -3.0690 0.9743
-3.9977 4.5202 -3.2214 0.9730
-4.7358 3.7398 -3.2214 0.9730
-5.3238 2.8409 -3.2214 0.9730
-5.5555 2.3557 -3.2214 0.9730
-5.7432 1.8520 -3.2214 0.9730
-5.9805 0.8043 -3.2214 0.9730
-5.8852 -1.3334 -3.2214 0.9730
-5.7432 -1.8519 -3.2214 0.9730
-5.5555 -2.3558 -3.2214 0.9730
-5.0498 -3.3034 -3.2214 0.9730
-4.7358 -3.7398 -3.2214 0.9730
-3.9977 -4.5202 -3.2214 0.9730
-3.5795 -4.8581 -3.2214 0.9730
-3.1329 -5.1574 -3.2214 0.9730
-2.6614 -5.4158 -3.2214 0.9730
-0.6040 -6.0041 -3.2214 0.9730
0.4701 -6.0160 -3.2214 0.9730
1.0037 -5.9503 -3.2214 0.9730
2.5401 -5.4737 -3.2214 0.9730
3.0172 -5.2259 -3.2214 0.9730
3.4703 -4.9366 -3.2214 0.9730
4.2906 -4.2431 -3.2214 0.9730
5.2592 -2.9588 -3.2214 0.9730
5.5017 -2.4789 -3.2214 0.9730
5.8540 -1.4642 -3.2214 0.9730
5.9611 -0.9373 -3.2214 0.9730
6.0209 -0.4030 -3.2214 0.9730
6.0329 0.1345 -3.2214 0.9730
5.9134 1.2020 -3.2214 0.9730
4.8179 3.6333 -3.2214 0.9730
3.6591 4.7413 -3.1972 0.9732
2.6498 5.1018 -3.0690 0.9743
1.7033 5.4908 -3.0690 0.9743
1.2078 5.6206 -3.0690 0.9743
0.1921 5.7457 -3.0690 0.9743
-0.3201 5.7400 -3.0690 0.9743
-0.8297 5.6887 -3.0690 0.9743
-1.3327 5.5923 -3.0690 0.9743
-1.8252 5.4515 -3.0690 0.9743
-2.3031 5.2674 -3.0690 0.9743
-4.1950 4.3377 -3.2214 0.9730
-5.1920 3.0752 -3.2214 0.9730
-5.4451 2.6009 -3.2214 0.9730
-5.6550 2.1060 -3.2214 0.9730
-5.8200 1.5943 -3.2214 0.9730
-5.8002 0.0000 -3.2214 0.9738
-5.7083 -1.0284 -3.2214 0.9738
-5.5941 -1.5324 -3.2214 0.9738
-5.4355 -2.0242 -3.2214 0.9738
-5.2338 -2.4999 -3.2214 0.9738
-4.9905 -2.9559 -3.2214 0.9738
-4.7076 -3.3883 -3.2214 0.9738
-4.3873 -3.7939 -3.2214 0.9738
-2.3237 -5.3144 -3.2214 0.9738
-1.8415 -5.5001 -3.2214 0.9738
-0.3229 -5.7912 -3.2214 0.9738
1.2186 -5.6708 -3.2214 0.9738
1.7185 -5.5398 -3.2214 0.9738
2.6735 -5.1473 -3.2214 0.9738
3.5437 -4.5917 -3.2214 0.9738
3.9384 -4.2581 -3.2214 0.9738
4.3017 -3.8907 -3.2214 0.9738
4.9234 -3.0663 -3.2214 0.9738
5.1768 -2.6159 -3.2214 0.9738
5.6840 -1.1553 -3.2214 0.9738
5.7298 0.9010 -3.2214 0.9738
5.6269 1.4074 -3.2214 0.9738
5.4793 1.9026 -3.2214 0.9738
5.2882 2.3828 -3.2214 0.9738
5.0551 2.8439 -3.2214 0.9738
4.7819 3.2826 -3.2214 0.9738
4.4708 3.6952 -3.2214 0.9738
3.7447 4.4294 -3.2214 0.9738
3.3310 4.7384 -3.2169 0.9738
1.8706 5.1996 -3.0690 0.9750
1.4004 5.3454 -3.0690 0.9750
0.4305 5.5090 -3.0690 0.9750
-0.0616 5.5255 -3.0690 0.9750
-0.5531 5.4980 -3.0690 0.9750
-1.5192 5.3129 -3.0690 0.9750
-2.9006 4.7751 -3.1030 0.9748
-3.4406 4.6696 -3.2214 0.9738
-3.8425 4.3448 -3.2214 0.9738
-4.2140 3.9856 -3.2214 0.9738
-4.8539 3.1753 -3.2214 0.9738
-5.3400 2.2644 -3.2214 0.9738
-5.5203 1.7801 -3.2214 0.9738
-5.6568 1.2817 -3.2214 0.9738
-5.7484 0.7731 -3.2214 0.9738
-5.7944 0.2584 -3.2214 0.9738
-5.6568 -1.2817 -3.2214 0.9738
-5.1172 -2.7306 -3.2214 0.9738
-4.2140 -3.9855 -3.2214 0.9738
-3.8425 -4.3448 -3.2214 0.9738
-3.0113 -4.9573 -3.2214 0.9738
-1.5946 -5.5767 -3.2214 0.9738
-1.0919 -5.6965 -3.2214 0.9738
-0.5806 -5.7711 -3.2214 0.9738
1.9635 -5.4577 -3.2214 0.9738
2.4415 -5.2613 -3.2214 0.9738
2.9001 -5.0231 -3.2214 0.9738
3.3357 -4.7451 -3.2214 0.9738
4.7819 -3.2826 -3.2214 0.9738
5.6269 -1.4074 -3.2214 0.9738
5.7298 -0.9010 -3.2214 0.9738
5.7872 -0.3874 -3.2214 0.9738
5.7988 0.1292 -3.2214 0.9738
5.3891 2.1448 -3.2214 0.9738
4.9234 3.0663 -3.2214 0.9738
4.3017 3.8907 -3.2214 0.9738
3.9384 4.2581 -3.2214 0.9738
3.5437 4.5918 -3.2214 0.9738
3.0353 4.7547 -3.1330 0.9745
2.5470 4.9038 -3.0690 0.9750
0.1846 5.5227 -3.0690 0.9750
-0.7975 5.4679 -3.0690 0.9750
-1.7543 5.2399 -3.0690 0.9750
-2.2137 5.0630 -3.0690 0.9750
-2.6556 4.8459 -3.0690 0.9750
-3.6452 4.5117 -3.2214 0.9738
-4.7076 3.3883 -3.2214 0.9738
-5.2338 2.5000 -3.2214 0.9738
-5.4355 2.0242 -3.2214 0.9738
-5.7772 0.5163 -3.2214 0.9738
-5.5796 0.0000 -3.2214 0.9746
-5.5575 -0.4966 -3.2214 0.9746
-5.2288 -1.9472 -3.2214 0.9746
-4.8007 -2.8435 -3.2214 0.9746
-4.2205 -3.6496 -3.2214 0.9746
-3.8789 -4.0108 -3.2214 0.9746
-3.1063 -4.6350 -3.2214 0.9746
0.1864 -5.5765 -3.2214 0.9746
0.6820 -5.5378 -3.2214 0.9746
1.1722 -5.4551 -3.2214 0.9746
1.6531 -5.3291 -3.2214 0.9746
2.1209 -5.1608 -3.2214 0.9746
3.0023 -4.7030 -3.2214 0.9746
3.4090 -4.4171 -3.2214 0.9746
3.7886 -4.0962 -3.2214 0.9746
4.9799 -2.5165 -3.2214 0.9746
5.1842 -2.0632 -3.2214 0.9746
5.4678 -1.1114 -3.2214 0.9746
5.5451 -0.6203 -3.2214 0.9746
5.5672 0.3727 -3.2214 0.9746
5.5119 0.8667 -3.2214 0.9746
5.2709 1.8303 -3.2214 0.9746
4.8629 2.7358 -3.2214 0.9746
3.9673 3.9234 -3.2214 0.9746
3.6024 4.2609 -3.2214 0.9746
0.4141 5.2995 -3.0690 0.9757
-0.0592 5.3154 -3.0690 0.9757
-1.0007 5.2207 -3.0690 0.9757
-1.4614 5.1109 -3.0690 0.9757
-1.9105 4.9605 -3.0690 0.9757
-2.3509 4.7839 -3.0775 0.9757
-2.8883 4.7548 -3.2120 0.9746
-3.3097 4.4920 -3.2214 0.9746
-3.6964 4.1796 -3.2214 0.9746
-4.0537 3.8340 -3.2214 0.9746
-4.3789 3.4580 -3.2214 0.9746
-4.9226 2.6268 -3.2214 0.9746
-5.1369 2.1782 -3.2214 0.9746
-5.4417 1.2329 -3.2214 0.9746
-5.5741 0.2486 -3.2214 0.9746
-5.5741 -0.2486 -3.2214 0.9746
-5.3104 -1.7124 -3.2214 0.9746
-5.1369 -2.1782 -3.2214 0.9746
-4.9226 -2.6268 -3.2214 0.9746
-4.3789 -3.4580 -3.2214 0.9746
-4.0537 -3.8340 -3.2214 0.9746
-3.3097 -4.4920 -3.2214 0.9746
-2.0054 -5.2068 -3.2214 0.9746
-1.5340 -5.3646 -3.2214 0.9746
-1.0504 -5.4799 -3.2214 0.9746
-0.5585 -5.5516 -3.2214 0.9746
0.4347 -5.5627 -3.2214 0.9746
1.4141 -5.3975 -3.2214 0.9746
1.8889 -5.2502 -3.2214 0.9746
2.3487 -5.0612 -3.2214 0.9746
3.9673 -3.9233 -3.2214 0.9746
4.6001 -3.1578 -3.2214 0.9746
4.8629 -2.7358 -3.2214 0.9746
5.0871 -2.2921 -3.2214 0.9746
5.2709 -1.8303 -3.2214 0.9746
5.4129 -1.3538 -3.2214 0.9746
5.5119 -0.8667 -3.2214 0.9746
5.5672 -0.3727 -3.2214 0.9746
5.4678 1.1114 -3.2214 0.9746
4.9799 2.5165 -3.2214 0.9746
4.7362 2.9498 -3.2214 0.9746
4.4549 3.3596 -3.2214 0.9746
4.1382 3.7427 -3.2214 0.9746
3.7886 4.0962 -3.2214 0.9746
3.4090 4.4171 -3.2214 0.9746
3.0023 4.7030 -3.2214 0.9746
1.1168 5.1971 -3.0690 0.9757
0.6498 5.2758 -3.0690 0.9757
0.1776 5.3128 -3.0690 0.9757
-0.2959 5.3074 -3.0690 0.9757
-0.7672 5.2600 -3.0690 0.9757
-1.2323 5.1709 -3.0690 0.9757
-1.6876 5.0407 -3.0690 0.9757
-2.1296 4.8705 -3.0690 0.9757
-2.6128 4.7677 -3.1389 0.9752
-4.8007 2.8435 -3.2214 0.9746
-5.0348 2.4049 -3.2214 0.9746
-5.3814 1.4741 -3.2214 0.9746
-5.4912 0.9893 -3.2214 0.9746
-5.5575 0.4966 -3.2214 0.9746
