ply
format ascii 1.0
element vertex 1634
property float32 x
property float32 y
property float32 z
property float32 I
end_header
-5.2492 7.1243 5.1092 0.9600
-5.2464 7.1204 3.8151 0.9622
-5.2456 7.1194 3.4707 0.9627
-5.2445 7.1179 2.9705 0.9634
-5.2441 7.1174 2.8077 0.9636
-5.2431 7.1159 2.3291 0.9641
-5.2427 7.1155 2.1725 0.9642
-5.2424 7.1150 2.0172 0.9644
-5.2417 7.1141 1.7100 0.9646
8.2747 -6.2403 1.8274 0.9588
7.9718 -6.5888 1.8236 0.9589
-5.2410 7.1132 1.4069 0.9648
7.6581 -6.3296 1.5821 0.9606
7.3201 -6.6207 1.4039 0.9609
7.7491 -5.8439 1.3805 0.9615
-5.2407 7.1127 1.2566 0.9649
7.4749 -6.1782 1.3794 0.9616
8.1619 -5.6028 1.4081 0.9608
7.6259 -5.7510 1.1969 0.9622
8.4400 -5.2565 1.0785 0.9608
-5.2400 7.1118 0.9582 0.9651
7.0325 -6.9546 1.0728 0.9610
7.9005 -5.4234 1.0394 0.9622
7.0171 -6.3466 0.8674 0.9627
7.4564 -5.6231 0.8562 0.9632
8.3193 -5.1813 0.8985 0.9614
-5.2397 7.1114 0.8098 0.9651
7.1952 -5.9470 0.8558 0.9632
6.9567 -6.2920 0.7029 0.9631
6.8624 -6.7864 0.7233 0.9620
7.7475 -5.3183 0.7042 0.9630
9.0854 -5.1114 0.7812 0.9590
7.3596 -5.5501 0.5369 0.9637
8.1689 -5.0877 0.5605 0.9622
-5.2391 7.1105 0.5144 0.9652
6.8168 -6.7413 0.5584 0.9623
7.1026 -5.8705 0.5367 0.9638
7.7026 -5.2875 0.5442 0.9633
8.9492 -5.0347 0.5981 0.9597
6.8786 -6.2213 0.3856 0.9636
7.3222 -5.5220 0.3813 0.9640
8.1133 -5.0530 0.3974 0.9625
7.0668 -5.8409 0.3812 0.9640
7.6586 -5.2574 0.3863 0.9635
6.7856 -7.3365 0.2492 0.9608
8.0935 -5.0407 0.2378 0.9626
7.0550 -5.8311 0.2283 0.9640
7.6445 -5.2477 0.2312 0.9636
8.7828 -4.9411 0.2513 0.9605
8.0759 -5.0297 0.0791 0.9627
-5.2381 7.1092 0.0734 0.9653
6.7418 -6.6671 0.0788 0.9628
7.6304 -5.2380 0.0769 0.9637
7.2979 -5.5036 -0.0760 0.9641
-5.2377 7.1087 -0.0734 0.9653
7.0429 -5.8211 -0.0759 0.9641
7.3098 -5.5126 -0.2283 0.9640
8.0929 -5.0404 -0.2378 0.9626
-5.2374 7.1083 -0.2202 0.9653
6.7556 -6.6808 -0.2369 0.9627
7.0546 -5.8308 -0.2282 0.9640
7.6440 -5.2473 -0.2312 0.9636
8.7818 -4.9406 -0.2513 0.9605
6.8185 -7.3721 -0.4175 0.9606
6.8780 -6.2208 -0.3856 0.9636
8.1117 -5.0520 -0.3973 0.9625
6.7706 -6.6956 -0.3959 0.9626
7.6581 -5.2570 -0.3862 0.9635
8.8305 -4.9680 -0.4213 0.9602
6.9003 -7.4605 -0.5919 0.9601
6.9159 -6.2551 -0.5431 0.9633
8.1672 -5.0866 -0.5604 0.9622
-5.2368 7.1074 -0.5142 0.9652
7.7012 -5.2866 -0.5441 0.9633
6.9856 -7.5528 -0.7710 0.9596
8.2236 -5.1217 -0.7260 0.9619
7.1388 -5.9004 -0.6941 0.9635
7.7460 -5.3174 -0.7041 0.9630
9.0728 -5.1043 -0.7801 0.9591
7.0149 -6.3446 -0.8671 0.9627
-5.2361 7.1065 -0.8093 0.9652
7.5270 -5.6764 -1.0226 0.9628
8.4360 -5.2540 -1.0780 0.9608
-5.2358 7.1061 -0.9574 0.9651
7.0291 -6.9513 -1.0723 0.9610
7.8979 -5.4216 -1.0391 0.9622
7.1903 -6.5032 -1.2149 0.9617
7.6224 -5.7483 -1.1964 0.9622
8.6480 -5.3860 -1.2767 0.9598
7.1940 -7.1143 -1.2679 0.9600
8.0140 -5.5013 -1.2181 0.9616
7.7454 -5.8411 -1.3798 0.9616
-5.2351 7.1052 -1.2553 0.9650
7.5043 -7.4211 -1.5012 0.9583
7.5533 -6.8316 -1.6217 0.9596
-5.2348 7.1047 -1.4053 0.9649
8.2622 -6.2309 -1.8247 0.9588
4.9830 13.8504 -2.8485 0.9418
3.7297 14.2362 -2.8479 0.9418
-0.1638 14.7070 -2.8462 0.9418
-2.7677 14.4390 -2.8451 0.9419
-5.2819 13.7143 -2.8440 0.9419
-6.4804 13.1873 -2.8435 0.9419
-7.6271 12.5559 -2.8430 0.9419
-5.2341 7.1038 -1.7076 0.9647
-9.7293 11.0011 -2.8420 0.9419
-10.6682 10.0899 -2.8416 0.9419
-11.5224 9.0992 -2.8412 0.9419
-12.2851 8.0366 -2.8409 0.9419
-13.5128 5.7299 -2.8403 0.9420
7.9239 12.4125 -2.8498 0.9418
6.7864 13.0662 -2.8493 0.9418
4.3606 14.0573 -2.8482 0.9418
3.0915 14.3868 -2.8477 0.9418
0.4915 14.7011 -2.8465 0.9418
-0.8187 14.6836 -2.8459 0.9418
-5.8871 13.4641 -2.8437 0.9419
-8.1781 12.2026 -2.8427 0.9419
-9.2303 11.4244 -2.8422 0.9419
-10.2089 10.5559 -2.8418 0.9419
-11.1064 9.6041 -2.8414 0.9419
-13.2447 6.3265 -2.8405 0.9420
-13.7541 5.1221 -2.8402 0.9420
-14.1380 -1.2634 -2.9924 0.9436
-13.9698 -2.5168 -2.9925 0.9436
-13.6908 -3.7503 -2.9926 0.9436
-12.8106 -6.1191 -2.9930 0.9436
-12.2161 -7.2357 -2.9933 0.9436
-9.8738 -10.2095 -2.9943 0.9436
-8.9272 -11.0493 -2.9947 0.9436
-6.8287 -12.4608 -2.9956 0.9436
-5.6935 -13.0213 -2.9961 0.9436
-4.5127 -13.4787 -2.9966 0.9435
-3.2957 -13.8293 -2.9971 0.9435
-0.7918 -14.1997 -2.9982 0.9435
0.4753 -14.2165 -2.9988 0.9435
1.7391 -14.1203 -2.9993 0.9435
2.9895 -13.9121 -2.9999 0.9435
4.2167 -13.5932 -3.0004 0.9435
6.5622 -12.6346 -3.0015 0.9435
8.7011 -11.2744 -3.0024 0.9434
10.5652 -9.5557 -3.0032 0.9434
11.3751 -8.5784 -3.0036 0.9434
12.0948 -7.5327 -3.0039 0.9434
13.6583 -4.0706 -3.0046 0.9434
14.1647 -1.5846 -3.0048 0.9434
14.2498 -0.3176 -3.0049 0.9434
14.2214 0.9520 -3.0049 0.9434
14.0800 2.2140 -3.0048 0.9434
12.3325 5.5567 -2.8517 0.9462
8.7283 10.3240 -2.8501 0.9462
6.7575 11.7044 -2.8492 0.9462
4.5737 12.7129 -2.8483 0.9463
3.4235 13.0672 -2.8478 0.9463
1.0520 13.4622 -2.8468 0.9463
-1.3511 13.4305 -2.8457 0.9463
-4.8488 12.5896 -2.8442 0.9463
-5.9490 12.1060 -2.8437 0.9464
-5.2338 7.1034 -1.8601 0.9646
-9.7940 9.2631 -2.8420 0.9464
-10.5783 8.3536 -2.8416 0.9464
-13.5107 4.3566 -2.9927 0.9436
-13.8441 3.1367 -2.9926 0.9436
-14.0679 1.8920 -2.9925 0.9436
-14.1802 0.6323 -2.9924 0.9436
-14.1802 -0.6323 -2.9924 0.9436
-14.0678 -1.8919 -2.9925 0.9436
-13.5105 -4.3566 -2.9927 0.9436
-13.0700 -5.5421 -2.9929 0.9436
-12.5258 -6.6839 -2.9931 0.9436
-11.1445 -8.8007 -2.9937 0.9436
-9.4099 -10.6399 -2.9945 0.9436
-8.4267 -11.4368 -2.9949 0.9436
-7.3765 -12.1433 -2.9954 0.9436
-5.1082 -13.2631 -2.9963 0.9436
-3.9081 -13.6676 -2.9969 0.9435
-2.6766 -13.9637 -2.9974 0.9435
1.1082 -14.1825 -2.9991 0.9435
5.9924 -12.9133 -3.0012 0.9435
7.1191 -12.3307 -3.0017 0.9435
10.9810 -9.0761 -3.0034 0.9434
11.7466 -8.0636 -3.0037 0.9434
12.9926 -5.8542 -3.0043 0.9434
13.8264 -3.4582 -3.0047 0.9434
14.2214 -0.9520 -3.0049 0.9434
14.1648 1.5846 -3.0048 0.9434
13.6585 4.0706 -3.0046 0.9434
12.5682 5.0020 -2.8518 0.9462
12.0722 6.1003 -2.8516 0.9462
10.7973 8.1426 -2.8510 0.9462
9.1802 9.9255 -2.8503 0.9462
8.2592 10.7017 -2.8499 0.9462
5.1359 12.4976 -2.8485 0.9463
1.6508 13.4032 -2.8470 0.9463
-1.9479 13.3557 -2.8454 0.9463
-4.2835 12.7941 -2.8444 0.9463
-7.5077 11.2023 -2.8430 0.9464
-8.4737 10.4880 -2.8426 0.9464
-9.3723 9.6909 -2.8422 0.9464
-13.6910 3.7503 -2.9927 0.9436
-13.9698 2.5168 -2.9925 0.9436
-13.1128 0.0000 -2.9929 0.9476
-12.9053 -2.3250 -2.9930 0.9476
-12.6476 -3.4645 -2.9931 0.9476
-12.2897 -4.5767 -2.9932 0.9476
-11.8343 -5.6528 -2.9934 0.9476
-11.2851 -6.6842 -2.9937 0.9476
-9.1211 -9.4312 -2.9946 0.9476
-4.1684 -12.4504 -2.9968 0.9476
-3.0442 -12.7741 -2.9973 0.9475
-1.8955 -12.9965 -2.9978 0.9475
0.4390 -13.1311 -2.9988 0.9475
1.6063 -13.0422 -2.9993 0.9475
4.9974 -12.1605 -3.0008 0.9475
7.0765 -11.0851 -3.0017 0.9475
8.0361 -10.4127 -3.0021 0.9475
8.9322 -9.6574 -3.0025 0.9475
9.7575 -8.8252 -3.0029 0.9475
11.1700 -6.9567 -3.0035 0.9474
12.8988 -2.6218 -3.0043 0.9474
13.1599 -0.2933 -3.0044 0.9474
13.1337 0.8792 -3.0044 0.9474
12.7691 3.1937 -3.0042 0.9474
11.3894 5.1318 -2.8512 0.9500
10.2973 7.0687 -2.8508 0.9500
9.6263 7.9564 -2.8505 0.9501
8.8790 8.7806 -2.8502 0.9501
8.0612 9.5348 -2.8498 0.9501
6.2412 10.8101 -2.8490 0.9501
3.1620 12.0692 -2.8477 0.9501
2.0749 12.3006 -2.8472 0.9501
0.9716 12.4344 -2.8467 0.9501
-0.1389 12.4694 -2.8462 0.9501
-1.2480 12.4054 -2.8457 0.9501
-2.3468 12.2430 -2.8453 0.9501
-3.4266 11.9836 -2.8448 0.9501
-5.4953 11.1826 -2.8439 0.9502
-5.2335 7.1029 -2.0137 0.9644
-8.2509 9.3294 -2.8427 0.9502
-9.7720 7.7169 -2.8420 0.9502
-10.4190 6.8158 -2.8417 0.9502
-10.9833 5.8609 -2.8415 0.9502
-11.4605 4.8597 -2.8412 0.9502
-12.4812 4.0247 -2.9932 0.9476
-12.7893 2.8977 -2.9931 0.9476
-12.9960 1.7478 -2.9930 0.9476
-12.9959 -1.7478 -2.9929 0.9476
-12.7892 -2.8977 -2.9930 0.9476
-12.4810 -4.0246 -2.9932 0.9476
-11.5712 -6.1746 -2.9935 0.9476
-10.9767 -7.1806 -2.9938 0.9476
-9.5316 -9.0149 -2.9944 0.9476
-8.6924 -9.8287 -2.9948 0.9476
-2.4724 -12.8981 -2.9975 0.9475
-0.1464 -13.1366 -2.9985 0.9475
2.1859 -12.9588 -2.9995 0.9475
3.3312 -12.7149 -3.0000 0.9475
5.5346 -11.9267 -3.0010 0.9475
7.5638 -10.7596 -3.0019 0.9475
10.1415 -8.3822 -3.0030 0.9474
11.4693 -6.4525 -3.0036 0.9474
11.9990 -5.4065 -3.0039 0.9474
13.0030 -2.0446 -3.0043 0.9474
13.0814 1.4634 -3.0044 0.9474
12.8989 2.6218 -3.0043 0.9474
10.6025 6.6033 -2.8509 0.9500
9.9717 7.5201 -2.8506 0.9500
8.4785 9.1669 -2.8500 0.9501
7.6280 9.8838 -2.8496 0.9501
6.7170 10.5221 -2.8492 0.9501
4.7436 11.5428 -2.8484 0.9501
3.6968 11.9173 -2.8479 0.9501
2.6210 12.1970 -2.8474 0.9501
1.5247 12.3798 -2.8470 0.9501
0.4167 12.4643 -2.8465 0.9501
-0.6942 12.4498 -2.8460 0.9501
-2.8896 12.1253 -2.8450 0.9501
-3.9567 11.8181 -2.8446 0.9502
-4.9921 11.4172 -2.8441 0.9502
-6.9352 10.3480 -2.8432 0.9502
-8.6578 8.9521 -2.8425 0.9502
-9.4191 8.1450 -2.8422 0.9502
-11.2331 5.3656 -2.8413 0.9502
-12.2899 4.5768 -2.9933 0.9476
-13.0608 1.1671 -2.9929 0.9476
-11.4134 -4.2504 -2.9936 0.9511
-10.9904 -5.2497 -2.9938 0.9511
-10.4803 -6.2075 -2.9940 0.9511
-9.8871 -7.1163 -2.9943 0.9511
-9.2153 -7.9688 -2.9946 0.9511
-7.6582 -9.4786 -2.9952 0.9510
-6.7850 -10.1239 -2.9956 0.9510
-5.8578 -10.6890 -2.9960 0.9510
-3.8709 -11.5617 -2.9969 0.9510
-2.8269 -11.8621 -2.9974 0.9510
-1.7601 -12.0685 -2.9978 0.9510
-0.6792 -12.1792 -2.9983 0.9510
1.4915 -12.1105 -2.9992 0.9510
2.5639 -11.9315 -2.9997 0.9510
3.6163 -11.6578 -3.0002 0.9510
4.6402 -11.2913 -3.0006 0.9510
5.6276 -10.8351 -3.0011 0.9510
8.2935 -8.9668 -3.0022 0.9509
9.7540 -7.3559 -3.0029 0.9509
11.7113 -3.4904 -3.0038 0.9509
11.9759 -2.4342 -3.0039 0.9509
12.1454 -1.3587 -3.0040 0.9509
12.2182 -0.2723 -3.0040 0.9509
12.1940 0.8163 -3.0040 0.9509
12.0727 1.8984 -3.0039 0.9509
11.8555 2.9653 -3.0038 0.9509
11.5440 4.0085 -3.0037 0.9509
9.5608 6.5631 -2.8505 0.9534
8.9378 7.3873 -2.8502 0.9534
4.8779 10.5117 -2.8484 0.9534
2.9360 11.2067 -2.8476 0.9534
1.9266 11.4218 -2.8471 0.9534
0.9022 11.5461 -2.8467 0.9534
-2.1792 11.3688 -2.8453 0.9534
-3.1820 11.1280 -2.8449 0.9534
-4.1592 10.7990 -2.8445 0.9535
-5.1031 10.3845 -2.8441 0.9535
-6.0063 9.8877 -2.8437 0.9535
-5.2129 7.0751 -2.1601 0.9644
-7.6623 8.6638 -2.8429 0.9535
-9.0750 7.1665 -2.8423 0.9535
-10.2001 5.4429 -2.8418 0.9535
-11.5912 3.7377 -2.9936 0.9511
-11.8774 2.6911 -2.9935 0.9511
-11.8773 -2.6911 -2.9934 0.9511
-11.5911 -3.7376 -2.9935 0.9511
-10.7460 -5.7343 -2.9939 0.9511
-10.1938 -6.6685 -2.9941 0.9511
-9.5607 -7.5500 -2.9944 0.9511
-3.3522 -11.7235 -2.9971 0.9510
-2.2958 -11.9772 -2.9976 0.9510
-1.2209 -12.1359 -2.9981 0.9510
-0.1359 -12.1983 -2.9985 0.9510
0.9505 -12.1639 -2.9990 0.9510
3.0931 -11.8064 -2.9999 0.9510
7.0230 -9.9904 -3.0017 0.9509
8.6852 -8.5889 -3.0024 0.9509
10.0725 -6.9144 -3.0030 0.9509
11.8554 -2.9653 -3.0038 0.9509
12.0727 -1.8983 -3.0039 0.9509
12.1939 -0.8163 -3.0040 0.9509
12.1454 1.3587 -3.0040 0.9509
11.9760 2.4342 -3.0039 0.9509
11.7114 3.4904 -3.0038 0.9509
10.3515 5.2308 -2.8508 0.9534
9.2585 6.9822 -2.8503 0.9534
7.0825 9.1771 -2.8494 0.9534
6.2368 9.7698 -2.8490 0.9534
4.4045 10.7178 -2.8482 0.9534
3.4326 11.0656 -2.8478 0.9534
0.3870 11.5740 -2.8465 0.9534
-1.6707 11.4555 -2.8456 0.9534
-5.5602 10.1461 -2.8438 0.9535
-11.4135 4.2504 -2.9937 0.9511
-11.9853 2.1593 -2.9934 0.9511
-12.1296 1.0839 -2.9933 0.9511
-11.3612 0.0000 -2.9937 0.9541
-11.1814 -2.0144 -2.9937 0.9541
-9.7773 -5.7911 -2.9943 0.9541
-9.2238 -6.6389 -2.9946 0.9541
-5.4646 -9.9716 -2.9962 0.9541
-4.5560 -10.4198 -2.9966 0.9540
-3.6110 -10.7854 -2.9970 0.9540
-2.6371 -11.0656 -2.9974 0.9540
0.3803 -11.3741 -2.9988 0.9540
2.3916 -11.1297 -2.9996 0.9540
5.2493 -10.1067 -3.0009 0.9540
6.1288 -9.6006 -3.0013 0.9540
6.9598 -9.0181 -3.0016 0.9540
7.7357 -8.3638 -3.0020 0.9540
9.0979 -6.8611 -3.0026 0.9540
9.6733 -6.0246 -3.0029 0.9540
10.5897 -4.2146 -3.0033 0.9539
11.3282 -1.2672 -3.0036 0.9539
11.3735 0.7614 -3.0036 0.9539
8.3367 6.8904 -2.8499 0.9562
6.2180 8.8453 -2.8490 0.9563
5.4054 9.3624 -2.8486 0.9563
3.6588 10.1698 -2.8479 0.9563
2.7387 10.4536 -2.8475 0.9563
1.7972 10.6543 -2.8471 0.9563
0.8416 10.7704 -2.8467 0.9563
-1.0810 10.7458 -2.8458 0.9563
-2.9683 10.3808 -2.8450 0.9563
-3.8799 10.0740 -2.8446 0.9563
-5.6031 9.2241 -2.8438 0.9563
-7.1481 8.0825 -2.8431 0.9563
-7.8383 7.4134 -2.8428 0.9564
-9.5159 5.0778 -2.8421 0.9564
-10.4611 4.4359 -2.9941 0.9541
-10.8138 3.4870 -2.9939 0.9541
-11.2600 1.5143 -2.9937 0.9541
-11.3499 -0.5061 -2.9937 0.9541
-11.0807 -2.5105 -2.9938 0.9541
-10.4610 -4.4358 -2.9940 0.9541
-10.0253 -5.3496 -2.9942 0.9541
-9.5100 -6.2212 -2.9944 0.9541
-8.9193 -7.0435 -2.9947 0.9541
-8.2578 -7.8102 -2.9950 0.9541
-6.7437 -9.1526 -2.9956 0.9541
-4.0876 -10.6131 -2.9968 0.9540
-3.1272 -10.9364 -2.9972 0.9540
-1.1389 -11.3208 -2.9981 0.9540
-0.1268 -11.3789 -2.9985 0.9540
0.8866 -11.3467 -2.9990 0.9540
1.8933 -11.2244 -2.9994 0.9540
2.8853 -11.0130 -2.9999 0.9540
3.8546 -10.7140 -3.0003 0.9540
4.7935 -10.3298 -3.0007 0.9540
5.6947 -9.8635 -3.0011 0.9540
7.3551 -8.6996 -3.0018 0.9540
8.7829 -7.2592 -3.0025 0.9540
9.9325 -5.5879 -3.0030 0.9540
10.3911 -4.6820 -3.0032 0.9539
11.0577 -2.7657 -3.0035 0.9539
11.3961 0.2539 -3.0036 0.9539
11.3282 1.2672 -3.0036 0.9539
10.9234 3.2555 -3.0034 0.9539
9.6551 4.8789 -2.8505 0.9562
9.1818 5.7185 -2.8503 0.9562
8.6357 6.5125 -2.8500 0.9562
7.3428 7.9389 -2.8495 0.9563
4.9826 9.5933 -2.8485 0.9563
4.1085 9.9974 -2.8481 0.9563
3.2019 10.3219 -2.8477 0.9563
-3.4276 10.2376 -2.8448 0.9563
-4.3246 9.8905 -2.8444 0.9563
-6.0081 8.9647 -2.8436 0.9563
-6.7814 8.3934 -2.8433 0.9563
-7.5007 7.7556 -2.8430 0.9564
-8.1603 7.0565 -2.8427 0.9564
-8.7552 6.3016 -2.8424 0.9564
-10.6480 3.9654 -2.9940 0.9541
-10.9582 3.0018 -2.9939 0.9541
-10.4729 -1.8868 -2.9940 0.9567
-8.6392 -6.2181 -2.9948 0.9567
-8.0521 -6.9629 -2.9951 0.9567
-5.9283 -8.8456 -2.9960 0.9567
-5.1180 -9.3392 -2.9964 0.9567
-4.2670 -9.7589 -2.9967 0.9567
-3.3819 -10.1013 -2.9971 0.9567
-2.4698 -10.3636 -2.9975 0.9567
0.3561 -10.6523 -2.9988 0.9567
2.2398 -10.4232 -2.9996 0.9567
5.7395 -8.9908 -3.0011 0.9566
6.5177 -8.4452 -3.0015 0.9566
7.9134 -7.1573 -3.0021 0.9566
9.0586 -5.6417 -3.0026 0.9566
9.9166 -3.9467 -3.0030 0.9566
10.2290 -3.0486 -3.0031 0.9566
10.6081 -1.1867 -3.0033 0.9566
10.6718 -0.2378 -3.0033 0.9566
10.6505 0.7130 -3.0033 0.9566
10.5447 1.6581 -3.0033 0.9566
10.3550 2.5899 -3.0032 0.9566
7.2010 7.1212 -2.8494 0.9588
6.5379 7.7331 -2.8491 0.9588
5.8230 8.2834 -2.8488 0.9588
5.0621 8.7678 -2.8485 0.9588
2.5648 9.7899 -2.8474 0.9588
-0.1127 10.1155 -2.8462 0.9588
-2.7800 9.7223 -2.8451 0.9589
-3.6338 9.4351 -2.8447 0.9589
-5.1451 6.9830 -2.4404 0.9646
-7.3414 6.9435 -2.8431 0.9589
-7.9295 6.2619 -2.8428 0.9589
-8.4547 5.5308 -2.8426 0.9589
-8.9661 4.7845 -2.8594 0.9586
-9.7981 4.1548 -2.9944 0.9567
-10.1285 3.2661 -2.9942 0.9567
-10.3786 2.3515 -2.9941 0.9567
-10.5465 1.4183 -2.9940 0.9567
-10.6307 0.4740 -2.9940 0.9567
-10.6307 -0.4740 -2.9940 0.9567
-10.5464 -1.4184 -2.9940 0.9567
-10.1284 -3.2660 -2.9942 0.9567
-7.7343 -7.3151 -2.9952 0.9567
-7.0532 -7.9752 -2.9955 0.9567
-6.3161 -8.5723 -2.9958 0.9567
-3.8283 -9.9399 -2.9969 0.9567
-2.9288 -10.2426 -2.9973 0.9567
-2.0058 -10.4640 -2.9977 0.9567
-0.1187 -10.6568 -2.9985 0.9567
0.8304 -10.6265 -2.9990 0.9567
4.4891 -9.6738 -3.0006 0.9567
5.3330 -9.2370 -3.0009 0.9566
6.8878 -8.1470 -3.0016 0.9566
8.7979 -6.0395 -3.0025 0.9566
9.3013 -5.2328 -3.0027 0.9566
10.0829 -3.5012 -3.0030 0.9566
10.6505 -0.7130 -3.0033 0.9566
10.6718 0.2378 -3.0033 0.9566
9.9168 3.9468 -3.0030 0.9566
9.3514 4.7254 -2.9479 0.9574
8.0870 6.0987 -2.8498 0.9588
7.5114 6.7937 -2.8496 0.9588
3.8476 9.3625 -2.8480 0.9588
2.9986 9.6665 -2.8476 0.9588
1.2368 10.0423 -2.8468 0.9588
0.3381 10.1112 -2.8464 0.9588
-0.5631 10.0997 -2.8460 0.9588
-4.8581 8.8648 -2.8442 0.9589
-5.6271 8.3962 -2.8438 0.9589
-7.0251 7.2639 -2.8432 0.9589
-7.6431 6.6092 -2.8429 0.9589
-9.6036 4.5873 -2.9945 0.9567
-9.9732 3.7141 -2.9943 0.9567
-10.5991 0.9471 -2.9940 0.9567
-10.0015 0.0000 -2.9943 0.9591
-9.8433 -1.7733 -2.9943 0.9591
-8.6070 -5.0980 -2.9949 0.9591
-7.5679 -6.5442 -2.9953 0.9591
-6.9560 -7.1925 -2.9956 0.9591
-6.2888 -7.7838 -2.9959 0.9591
-5.5717 -8.3135 -2.9962 0.9591
-4.0103 -9.1717 -2.9968 0.9591
-3.1784 -9.4934 -2.9972 0.9591
1.2246 -9.9427 -2.9991 0.9590
2.1049 -9.7955 -2.9995 0.9590
2.9688 -9.5705 -2.9999 0.9590
3.8093 -9.2694 -3.0003 0.9590
4.6198 -8.8946 -3.0006 0.9590
5.3937 -8.4491 -3.0010 0.9590
6.1250 -7.9363 -3.0013 0.9590
8.0063 -6.0379 -3.0021 0.9590
8.9512 -4.5233 -3.0025 0.9590
9.3188 -3.7088 -3.0027 0.9590
9.8295 -1.9979 -3.0029 0.9590
10.0283 -0.2235 -3.0030 0.9590
10.0084 0.6700 -3.0030 0.9590
9.9089 1.5581 -3.0030 0.9590
9.4751 3.2901 -3.0028 0.9590
9.1442 4.1202 -3.0027 0.9590
5.4722 7.7843 -2.8487 0.9610
4.7571 8.2395 -2.8484 0.9611
4.0044 8.6293 -2.8480 0.9611
2.4104 9.2003 -2.8473 0.9611
1.5817 9.3771 -2.8470 0.9611
-0.9515 9.4581 -2.8459 0.9611
-2.6127 9.1372 -2.8451 0.9611
-4.9321 8.1194 -2.8441 0.9611
-5.1308 6.9636 -2.5895 0.9645
-8.8254 4.7094 -2.9948 0.9591
-9.5196 3.0697 -2.9945 0.9591
-9.7547 2.2101 -2.9944 0.9591
-9.9916 0.4455 -2.9943 0.9591
-9.9916 -0.4455 -2.9943 0.9591
-9.9124 -1.3331 -2.9943 0.9591
-9.2089 -3.9049 -2.9946 0.9591
-8.8253 -4.7093 -2.9948 0.9591
-7.8516 -6.2003 -2.9952 0.9591
-7.2692 -6.8751 -2.9954 0.9591
-6.6290 -7.4955 -2.9957 0.9591
-4.4146 -8.9835 -2.9967 0.9591
-2.7525 -9.6262 -2.9974 0.9591
-1.0024 -9.9643 -2.9982 0.9590
0.7804 -9.9867 -2.9989 0.9590
1.6664 -9.8789 -2.9993 0.9590
3.3924 -9.4293 -3.0001 0.9590
5.0117 -8.6805 -3.0008 0.9590
8.2676 -5.6754 -3.0022 0.9590
9.4750 -3.2901 -3.0028 0.9590
9.7306 -2.4338 -3.0029 0.9590
10.0283 0.2235 -3.0030 0.9590
9.9686 1.1152 -3.0030 0.9590
9.6124 2.8648 -3.0029 0.9590
8.9514 4.5233 -3.0026 0.9590
7.5995 5.7311 -2.8496 0.9610
6.4619 6.9865 -2.8491 0.9610
5.8138 7.5332 -2.8488 0.9610
4.3851 8.4428 -2.8482 0.9611
3.6158 8.7986 -2.8479 0.9611
2.8180 9.0843 -2.8475 0.9611
1.9980 9.2979 -2.8472 0.9611
0.3177 9.5024 -2.8464 0.9611
-1.3718 9.4057 -2.8457 0.9611
-3.8066 8.7059 -2.8446 0.9611
-4.5658 8.3315 -2.8443 0.9611
-5.2886 7.8912 -2.8440 0.9611
-5.9694 7.3884 -2.8437 0.9611
-6.6026 6.8271 -2.8434 0.9611
-7.1834 6.2117 -2.8431 0.9611
-9.0262 4.3114 -2.9947 0.9591
-9.3736 3.4908 -2.9946 0.9591
-9.6467 2.6425 -2.9944 0.9591
-9.8433 1.7734 -2.9943 0.9591
-9.9619 0.8902 -2.9943 0.9591
-9.4290 0.0000 -2.9945 0.9612
-9.3916 -0.8392 -2.9945 0.9612
-9.2798 -1.6718 -2.9946 0.9612
-9.0944 -2.4912 -2.9946 0.9612
-8.5093 -4.0646 -2.9949 0.9612
-8.1143 -4.8061 -2.9951 0.9612
-7.1346 -6.1695 -2.9955 0.9612
-6.5577 -6.7806 -2.9957 0.9612
-5.2525 -7.8373 -2.9963 0.9612
-3.7805 -8.6463 -2.9969 0.9612
-2.9963 -8.9495 -2.9973 0.9612
-2.1881 -9.1818 -2.9976 0.9612
0.3155 -9.4371 -2.9987 0.9611
1.9842 -9.2339 -2.9995 0.9611
2.7985 -9.0217 -2.9998 0.9611
3.5908 -8.7378 -3.0002 0.9611
6.4171 -6.9381 -3.0014 0.9611
7.5469 -5.6914 -3.0019 0.9611
8.0240 -4.9974 -3.0021 0.9611
8.4375 -4.2637 -3.0023 0.9611
9.0606 -2.7004 -3.0026 0.9611
9.2653 -1.8832 -3.0027 0.9611
9.4527 -0.2107 -3.0028 0.9611
9.4339 0.6315 -3.0028 0.9611
8.2391 4.6352 -3.0023 0.9611
6.9154 5.7157 -2.8493 0.9630
5.7914 6.8501 -2.8488 0.9631
5.1582 7.3377 -2.8485 0.9631
3.7747 8.1343 -2.8479 0.9631
3.0354 8.4370 -2.8476 0.9631
0.6983 8.9360 -2.8466 0.9631
-0.0998 8.9616 -2.8462 0.9631
-3.2195 8.3592 -2.8449 0.9631
-3.9503 8.0386 -2.8445 0.9631
-5.9319 6.7073 -2.8437 0.9631
-7.4914 4.9006 -2.8430 0.9631
-8.6818 3.6814 -2.9949 0.9612
-9.4197 -0.4200 -2.9945 0.9612
-9.1962 -2.0836 -2.9946 0.9612
-8.9746 -2.8939 -2.9947 0.9612
-8.6817 -3.6814 -2.9948 0.9612
-8.3200 -4.4397 -2.9950 0.9612
-7.8924 -5.1629 -2.9952 0.9612
-7.4020 -5.8453 -2.9954 0.9612
-4.8985 -8.0640 -2.9965 0.9612
-4.1617 -8.4688 -2.9968 0.9612
-3.3918 -8.8066 -2.9971 0.9612
-2.5948 -9.0746 -2.9975 0.9612
-1.7770 -9.2707 -2.9978 0.9612
-0.1052 -9.4412 -2.9986 0.9611
3.9767 -8.5696 -3.0003 0.9611
4.7242 -8.1826 -3.0007 0.9611
5.4343 -7.7304 -3.0010 0.9611
6.7201 -6.6457 -3.0016 0.9611
8.2390 -4.6352 -3.0022 0.9611
8.6193 -3.8837 -3.0024 0.9611
8.9312 -3.1013 -3.0025 0.9611
9.3401 -1.4687 -3.0027 0.9611
9.4527 0.2106 -3.0028 0.9611
9.2654 1.8833 -3.0027 0.9611
8.4376 4.2637 -3.0024 0.9611
7.6330 4.7539 -2.8558 0.9630
7.1634 5.4022 -2.8494 0.9630
4.8260 7.5598 -2.8484 0.9631
3.4084 8.2939 -2.8478 0.9631
1.8834 8.7648 -2.8471 0.9631
1.0957 8.8966 -2.8468 0.9631
0.2995 8.9577 -2.8464 0.9631
-0.4989 8.9477 -2.8461 0.9631
-1.2932 8.8667 -2.8457 0.9631
-2.0770 8.7154 -2.8454 0.9631
-2.8441 8.4949 -2.8450 0.9631
-4.9828 7.4349 -2.8424 0.9631
-6.7721 5.8560 -2.8433 0.9631
-7.2659 5.2296 -2.8431 0.9631
-8.0402 4.7622 -2.9677 0.9615
-8.5094 4.0646 -2.9949 0.9612
-8.8370 3.2909 -2.9948 0.9612
-8.7723 -1.5804 -2.9948 0.9631
-8.3536 -3.1109 -2.9950 0.9631
-7.6704 -4.5432 -2.9953 0.9631
-7.2361 -5.2082 -2.9954 0.9631
-6.1989 -6.4096 -2.9959 0.9631
-4.9651 -7.4085 -2.9964 0.9631
-4.2865 -7.8218 -2.9967 0.9631
-3.5736 -8.1731 -2.9970 0.9631
-1.2878 -8.8298 -2.9980 0.9630
-0.4968 -8.9104 -2.9984 0.9630
1.8755 -8.7281 -2.9994 0.9630
2.6453 -8.5275 -2.9998 0.9630
3.3941 -8.2591 -3.0001 0.9630
4.1162 -7.9251 -3.0004 0.9630
5.4572 -7.0711 -3.0010 0.9630
6.0654 -6.5579 -3.0013 0.9630
6.6256 -5.9925 -3.0015 0.9630
7.5842 -4.7235 -3.0019 0.9630
8.3024 -3.3043 -3.0023 0.9630
8.5639 -2.5523 -3.0024 0.9630
8.7573 -1.7800 -3.0025 0.9630
8.8281 1.3881 -3.0025 0.9630
8.6693 2.1683 -3.0024 0.9630
8.4416 2.9312 -3.0023 0.9630
8.1469 3.6708 -3.0022 0.9630
7.7874 4.3811 -3.0021 0.9630
6.9917 4.7996 -2.8493 0.9648
6.5364 5.4024 -2.8491 0.9648
6.0291 5.9623 -2.8489 0.9649
4.2385 7.3413 -2.8481 0.9649
3.5679 7.6886 -2.8478 0.9649
2.8691 7.9749 -2.8475 0.9649
0.6600 8.4466 -2.8466 0.9649
-0.0944 8.4708 -2.8462 0.9649
-0.8478 8.4279 -2.8459 0.9649
-1.5944 8.3180 -2.8456 0.9649
-3.0433 7.9017 -2.8449 0.9649
-3.7341 7.5987 -2.8446 0.9649
-6.1489 5.8156 -2.8436 0.9649
-7.8651 4.1969 -2.9952 0.9631
-8.2070 3.4801 -2.9951 0.9631
-8.4838 2.7357 -2.9949 0.9631
-8.6934 1.9697 -2.9948 0.9631
-8.8340 1.1881 -2.9948 0.9631
-8.9045 -0.3971 -2.9947 0.9631
-8.8339 -1.1880 -2.9948 0.9631
-7.8650 -4.1969 -2.9952 0.9631
-7.4607 -4.8805 -2.9954 0.9631
-6.9971 -5.5256 -2.9956 0.9631
-6.4780 -6.1269 -2.9958 0.9631
-5.2900 -7.1796 -2.9963 0.9631
-4.6304 -7.6227 -2.9966 0.9631
-3.9340 -8.0054 -2.9969 0.9631
-3.2062 -8.3246 -2.9972 0.9631
1.4848 -8.8025 -2.9993 0.9630
2.2626 -8.6364 -2.9996 0.9630
5.7670 -6.8213 -3.0011 0.9630
7.3660 -5.0565 -3.0018 0.9630
8.1468 -3.6707 -3.0022 0.9630
8.8280 -1.3881 -3.0025 0.9630
8.9167 -0.5969 -3.0025 0.9630
8.9344 0.1991 -3.0026 0.9630
8.8812 0.9935 -3.0025 0.9630
8.7574 1.7800 -3.0025 0.9630
8.5640 2.5523 -3.0024 0.9630
7.9751 4.0300 -3.0021 0.9630
6.7708 5.1061 -2.8492 0.9648
5.7573 6.2247 -2.8488 0.9649
5.1799 6.7118 -2.8485 0.9649
4.5616 7.1456 -2.8483 0.9649
3.2217 7.8396 -2.8477 0.9649
2.5109 8.0943 -2.8474 0.9649
1.7803 8.2847 -2.8471 0.9649
1.0357 8.4094 -2.8467 0.9649
0.2831 8.4671 -2.8464 0.9649
-1.9633 8.2383 -2.8454 0.9649
-2.6884 8.0299 -2.8451 0.9649
-4.0687 7.4244 -2.8445 0.9649
-5.8840 6.0840 -2.8437 0.9649
-6.4016 5.5357 -2.8435 0.9649
-6.8684 4.9436 -2.8433 0.9649
-7.6705 4.5433 -2.9953 0.9631
-8.0440 3.8423 -2.9951 0.9631
-8.3537 3.1110 -2.9950 0.9631
-8.7724 1.5804 -2.9948 0.9631
-8.8781 0.7933 -2.9948 0.9631
-8.4128 -0.7518 -2.9950 0.9648
-8.1465 -2.2316 -2.9951 0.9648
-7.9158 -2.9479 -2.9952 0.9648
-7.6224 -3.6409 -2.9953 0.9648
-7.2684 -4.3051 -2.9954 0.9648
-4.7048 -7.0200 -2.9966 0.9648
-3.3862 -7.7445 -2.9971 0.9648
-1.2202 -8.3666 -2.9981 0.9648
0.2826 -8.4522 -2.9987 0.9647
1.7771 -8.2701 -2.9994 0.9647
2.5064 -8.0799 -2.9997 0.9647
3.9001 -7.5090 -3.0003 0.9647
5.1706 -6.6998 -3.0009 0.9647
5.7469 -6.2135 -3.0011 0.9647
6.2776 -5.6778 -3.0014 0.9647
6.7586 -5.0969 -3.0016 0.9647
7.1858 -4.4754 -3.0018 0.9647
8.1140 -2.4182 -3.0022 0.9647
8.2973 -1.6865 -3.0023 0.9647
8.4651 -0.1886 -3.0023 0.9647
8.3643 1.3152 -3.0023 0.9647
8.2139 2.0544 -3.0022 0.9647
7.3784 4.1510 -3.0019 0.9647
6.8882 4.7285 -2.9626 0.9652
5.1866 6.1347 -2.8485 0.9665
4.6196 6.5714 -2.8483 0.9665
2.7185 7.5562 -2.8475 0.9665
2.0350 7.7674 -2.8472 0.9665
1.3354 7.9168 -2.8469 0.9665
0.6254 8.0034 -2.8465 0.9665
-0.0894 8.0264 -2.8462 0.9665
-0.8034 7.9857 -2.8459 0.9665
-2.2061 7.7151 -2.8453 0.9665
-2.8837 7.4874 -2.8450 0.9665
-3.5383 7.2003 -2.8447 0.9665
-4.7580 6.4576 -2.8442 0.9665
-5.3134 6.0080 -2.8439 0.9665
-5.8266 5.5108 -2.8437 0.9665
-7.0697 4.6248 -2.9956 0.9648
-7.4529 3.9770 -2.9954 0.9648
-7.7769 3.2977 -2.9952 0.9648
-8.2378 1.8664 -2.9950 0.9648
-8.4379 0.3763 -2.9949 0.9648
-8.4379 -0.3762 -2.9949 0.9648
-8.3710 -1.1258 -2.9950 0.9648
-7.7768 -3.2977 -2.9952 0.9648
-7.4528 -3.9769 -2.9954 0.9648
-7.0696 -4.6247 -2.9955 0.9648
-3.7277 -7.5856 -2.9970 0.9648
-3.0380 -7.8881 -2.9973 0.9648
-0.0942 -8.4560 -2.9986 0.9647
0.6589 -8.4317 -2.9989 0.9647
2.1439 -8.1831 -2.9995 0.9647
3.5615 -7.6749 -3.0002 0.9647
5.4642 -6.4631 -3.0010 0.9647
6.0183 -5.9516 -3.0013 0.9647
7.7189 -3.4779 -3.0020 0.9647
8.3643 -1.3152 -3.0023 0.9647
8.4146 0.9413 -3.0023 0.9647
7.5562 3.8183 -3.0020 0.9647
5.9587 5.3893 -2.8489 0.9665
4.3221 6.7704 -2.8482 0.9665
3.7020 7.1276 -2.8479 0.9665
1.6868 7.8499 -2.8470 0.9665
0.9814 7.9680 -2.8467 0.9665
0.2682 8.0229 -2.8464 0.9665
-0.4469 8.0140 -2.8461 0.9665
-1.8603 7.8061 -2.8455 0.9665
-3.2142 7.3511 -2.8449 0.9665
-3.8553 7.0351 -2.8446 0.9665
-5.0407 6.2389 -2.8441 0.9665
-5.5755 5.7650 -2.8438 0.9665
-6.0661 5.2455 -2.8436 0.9665
-7.2685 4.3051 -2.9955 0.9648
-7.6224 3.6409 -2.9953 0.9648
-8.3127 1.4976 -2.9950 0.9648
-7.9892 -0.7139 -2.9951 0.9663
-7.7363 -2.1192 -2.9952 0.9663
-7.2385 -3.4575 -2.9955 0.9663
-5.5781 -5.7677 -2.9962 0.9663
-3.2156 -7.3543 -2.9972 0.9663
-1.1587 -7.9449 -2.9981 0.9663
0.2683 -8.0261 -2.9987 0.9663
0.9817 -7.9712 -2.9990 0.9663
4.3237 -6.7730 -3.0005 0.9663
6.8232 -4.2496 -3.0016 0.9663
7.7045 -2.2962 -3.0020 0.9663
7.8785 -1.6014 -3.0021 0.9663
7.9421 1.2489 -3.0021 0.9663
7.7993 1.9507 -3.0021 0.9663
7.5945 2.6371 -3.0020 0.9663
7.3294 3.3025 -3.0019 0.9663
7.0060 3.9415 -3.0017 0.9663
5.4243 5.3642 -2.8486 0.9680
4.9249 5.8252 -2.8484 0.9680
4.3865 6.2399 -2.8482 0.9680
3.8134 6.6050 -2.8479 0.9680
3.2101 6.9176 -2.8477 0.9680
1.9323 7.3757 -2.8471 0.9680
0.5939 7.5999 -2.8465 0.9680
-0.0849 7.6218 -2.8462 0.9680
-1.4346 7.4844 -2.8456 0.9680
-2.7384 7.1100 -2.8451 0.9680
-5.0457 5.7053 -2.8441 0.9680
-5.5331 5.2332 -2.8438 0.9680
-6.7137 4.3919 -2.9957 0.9663
-7.0775 3.7767 -2.9956 0.9663
-7.3852 3.1316 -2.9954 0.9663
-7.6344 2.4618 -2.9953 0.9663
-7.8230 1.7725 -2.9952 0.9663
-8.0130 0.3573 -2.9951 0.9663
-7.9495 -1.0691 -2.9952 0.9663
-7.8229 -1.7724 -2.9952 0.9663
-7.3852 -3.1316 -2.9954 0.9663
-7.0775 -3.7767 -2.9955 0.9663
-5.8293 -5.5133 -2.9961 0.9663
-4.1666 -6.8591 -2.9968 0.9663
-3.5399 -7.2034 -2.9971 0.9663
-0.8037 -7.9890 -2.9983 0.9663
2.7196 -7.5592 -2.9998 0.9663
4.0175 -6.9585 -3.0004 0.9663
5.7146 -5.6513 -3.0011 0.9663
6.1954 -5.1206 -3.0013 0.9663
6.6270 -4.5491 -3.0015 0.9663
7.0059 -3.9415 -3.0017 0.9663
7.5945 -2.6371 -3.0020 0.9663
7.7993 -1.9507 -3.0020 0.9663
7.7046 2.2962 -3.0020 0.9663
7.4694 2.9727 -3.0019 0.9663
6.2784 4.7347 -2.9363 0.9670
5.6580 5.1174 -2.8487 0.9680
4.6603 6.0386 -2.8483 0.9680
3.5152 6.7680 -2.8478 0.9680
0.2547 7.6184 -2.8464 0.9680
-0.4243 7.6100 -2.8461 0.9680
-1.0999 7.5413 -2.8458 0.9680
-1.7665 7.4127 -2.8455 0.9680
-2.4190 7.2253 -2.8452 0.9680
-3.6611 6.6806 -2.8447 0.9680
-5.7605 4.9813 -2.8437 0.9680
-7.6016 -0.6793 -2.9953 0.9677
-7.3610 -2.0164 -2.9954 0.9677
-7.1525 -2.6636 -2.9955 0.9677
-6.8873 -3.2898 -2.9956 0.9677
-5.7744 -4.9933 -2.9961 0.9677
-5.3074 -5.4878 -2.9963 0.9677
-3.6698 -6.6966 -2.9970 0.9677
-1.1025 -7.5591 -2.9981 0.9677
2.9054 -7.0699 -2.9999 0.9677
4.1136 -6.4438 -3.0004 0.9677
4.6712 -6.0526 -3.0007 0.9677
6.1056 -4.6045 -3.0013 0.9677
6.8260 -3.4493 -3.0016 0.9677
7.1062 -2.8282 -3.0017 0.9677
7.3300 -2.1846 -3.0018 0.9677
7.6015 -0.8504 -3.0020 0.9677
7.6319 0.5109 -3.0020 0.9677
7.4201 1.8559 -3.0019 0.9677
6.3049 4.3281 -3.0014 0.9677
4.6856 5.5421 -2.8483 0.9693
1.2065 7.1525 -2.8468 0.9693
-0.7258 7.2150 -2.8460 0.9693
-3.1969 6.5055 -2.8449 0.9693
-3.7629 6.1946 -2.8446 0.9693
-4.2990 5.8346 -2.8444 0.9693
-4.8009 5.4284 -2.8442 0.9693
-5.9910 4.7310 -2.9960 0.9677
-7.0270 2.9797 -2.9956 0.9677
-7.2640 2.3423 -2.9955 0.9677
-7.5639 1.0172 -2.9953 0.9677
-7.6243 0.3400 -2.9953 0.9677
-7.6243 -0.3400 -2.9953 0.9677
-7.4434 -1.6865 -2.9954 0.9677
-7.2640 -2.3423 -2.9954 0.9677
-7.0269 -2.9796 -2.9956 0.9677
-6.7341 -3.5934 -2.9957 0.9677
-5.0579 -5.7190 -2.9964 0.9677
-4.5291 -6.1470 -2.9966 0.9677
-2.0999 -7.3437 -2.9977 0.9677
-1.4380 -7.5021 -2.9980 0.9677
-0.7647 -7.6011 -2.9983 0.9677
1.9369 -7.3929 -2.9995 0.9677
2.5874 -7.1919 -2.9997 0.9677
3.2176 -6.9338 -3.0000 0.9677
4.3968 -6.2545 -3.0005 0.9677
4.9364 -5.8388 -3.0008 0.9677
5.4369 -5.3766 -3.0010 0.9677
6.3048 -4.3280 -3.0014 0.9677
6.6654 -3.7499 -3.0015 0.9677
6.9730 -3.1419 -3.0017 0.9677
7.2253 -2.5089 -3.0018 0.9677
7.4201 -1.8559 -3.0019 0.9677
7.6318 -0.5109 -3.0020 0.9677
7.6015 0.8503 -3.0020 0.9677
7.1062 2.8282 -3.0018 0.9677
6.4916 4.0430 -3.0015 0.9677
6.1057 4.6045 -3.0013 0.9677
5.3830 4.8687 -2.8486 0.9693
4.9280 5.3281 -2.8484 0.9693
4.4339 5.7451 -2.8482 0.9693
3.3444 6.4392 -2.8477 0.9693
2.7578 6.7107 -2.8475 0.9693
1.5240 7.0920 -2.8469 0.9693
0.2423 7.2484 -2.8464 0.9693
-0.4037 7.2405 -2.8461 0.9693
-2.3016 6.8746 -2.8453 0.9693
-2.9041 6.6418 -2.8450 0.9693
-3.4834 6.3564 -2.8447 0.9693
-4.5545 5.6371 -2.8443 0.9693
-5.5223 4.7754 -2.8653 0.9691
-6.1956 4.4593 -2.9959 0.9677
-7.1526 2.6637 -2.9955 0.9677
-7.2744 0.0000 -2.9955 0.9690
-7.1592 -1.2898 -2.9955 0.9690
-7.0162 -1.9219 -2.9956 0.9690
-6.8175 -2.5388 -2.9956 0.9690
-6.5647 -3.1357 -2.9958 0.9690
-6.2598 -3.7077 -2.9959 0.9690
-4.5734 -5.6605 -2.9966 0.9690
-4.0517 -6.0456 -2.9968 0.9690
-3.4978 -6.3828 -2.9971 0.9690
-2.3111 -6.9030 -2.9976 0.9690
-1.6877 -7.0819 -2.9979 0.9690
-1.0508 -7.2047 -2.9981 0.9690
-0.4054 -7.2703 -2.9984 0.9690
0.2433 -7.2782 -2.9987 0.9690
2.1582 -6.9573 -2.9996 0.9690
2.7691 -6.7382 -2.9998 0.9690
3.3581 -6.4655 -3.0001 0.9690
4.4520 -5.7686 -3.0006 0.9690
5.4050 -4.8886 -3.0010 0.9690
5.8190 -4.3883 -3.0012 0.9690
6.1869 -3.8532 -3.0013 0.9690
6.9859 -2.0821 -3.0017 0.9690
7.2446 -0.8104 -3.0018 0.9690
7.2881 -0.1624 -3.0018 0.9690
7.2736 0.4869 -3.0018 0.9690
7.2013 1.1324 -3.0018 0.9690
6.8861 2.3911 -3.0017 0.9690
6.0090 4.1249 -3.0013 0.9690
5.6177 4.6431 -3.0011 0.9690
4.4657 5.2821 -2.8482 0.9705
3.4579 5.9892 -2.8478 0.9705
2.3408 6.5063 -2.8473 0.9705
1.1499 6.8170 -2.8468 0.9705
-4.5759 5.1740 -2.8443 0.9706
-5.0486 4.7750 -2.8615 0.9704
-6.0886 3.9830 -2.9960 0.9690
-6.4187 3.4251 -2.9958 0.9690
-6.6978 2.8401 -2.9957 0.9690
-6.9237 2.2326 -2.9956 0.9690
-7.2096 0.9696 -2.9955 0.9690
-7.2095 -0.9696 -2.9955 0.9690
-6.6977 -2.8401 -2.9957 0.9690
-5.7102 -4.5093 -2.9961 0.9690
-5.2865 -4.9999 -2.9963 0.9690
-4.8208 -5.4510 -2.9965 0.9690
-4.3168 -5.8589 -2.9967 0.9690
-3.7785 -6.2203 -2.9970 0.9690
-3.2102 -6.5325 -2.9972 0.9690
-2.6162 -6.7929 -2.9975 0.9690
-0.7288 -7.2447 -2.9983 0.9690
-0.0811 -7.2815 -2.9986 0.9690
0.5673 -7.2605 -2.9989 0.9690
3.0666 -6.6084 -3.0000 0.9690
6.0089 -4.1249 -3.0013 0.9690
6.3525 -3.5739 -3.0014 0.9690
6.8861 -2.3911 -3.0016 0.9690
7.2881 0.1624 -3.0018 0.9690
4.6967 5.0781 -2.8483 0.9705
3.7214 5.8295 -2.8479 0.9705
2.0485 6.6038 -2.8472 0.9705
1.4525 6.7593 -2.8469 0.9705
0.8450 6.8612 -2.8466 0.9705
-0.3848 6.9010 -2.8461 0.9705
-1.6020 6.7221 -2.8456 0.9705
-2.7679 6.3304 -2.8451 0.9706
-3.3201 6.0585 -2.8448 0.9706
-4.3410 5.3730 -2.8444 0.9706
-6.5647 3.1357 -2.9958 0.9690
-7.1593 1.2898 -2.9955 0.9690
-7.2455 0.6475 -2.9955 0.9690
-6.9170 -0.6181 -2.9956 0.9702
-6.6981 -1.8348 -2.9957 0.9702
-6.5083 -2.4237 -2.9958 0.9702
-6.2670 -2.9935 -2.9959 0.9702
-5.9759 -3.5396 -2.9960 0.9702
-5.6375 -4.0576 -2.9962 0.9702
-5.2542 -4.5435 -2.9963 0.9702
-2.7838 -6.3668 -2.9974 0.9702
-1.0031 -6.8778 -2.9982 0.9702
-0.3870 -6.9404 -2.9984 0.9702
1.4608 -6.7979 -2.9993 0.9702
2.6434 -6.4323 -2.9998 0.9702
3.2057 -6.1720 -3.0000 0.9702
3.7426 -5.8626 -3.0003 0.9702
4.7234 -5.1069 -3.0007 0.9702
5.5547 -4.1890 -3.0011 0.9701
6.4650 -2.5730 -3.0015 0.9701
6.9155 -0.7736 -3.0017 0.9701
6.8742 1.0809 -3.0017 0.9701
6.7505 1.6884 -3.0016 0.9701
6.5733 2.2825 -3.0015 0.9701
5.7360 3.9376 -3.0012 0.9701
4.7963 4.7431 -2.9097 0.9710
4.2629 5.0421 -2.8481 0.9716
2.2345 6.2109 -2.8472 0.9717
1.0977 6.5076 -2.8467 0.9717
0.5141 6.5788 -2.8465 0.9717
-0.0735 6.5979 -2.8462 0.9717
-0.6604 6.5646 -2.8460 0.9717
-1.2420 6.4792 -2.8457 0.9717
-2.3706 6.1553 -2.8452 0.9717
-3.4239 5.6365 -2.8448 0.9717
-5.8125 3.8024 -2.9961 0.9702
-6.1276 3.2698 -2.9960 0.9702
-6.3941 2.7113 -2.9959 0.9702
-6.7731 1.5346 -2.9957 0.9702
-6.9377 0.3094 -2.9956 0.9702
-6.9377 -0.3094 -2.9956 0.9702
-6.1276 -3.2698 -2.9959 0.9702
-5.4513 -4.3048 -2.9962 0.9702
-4.6022 -5.2038 -2.9966 0.9702
-4.1211 -5.5931 -2.9968 0.9702
-2.4975 -6.4847 -2.9975 0.9702
-1.9106 -6.6818 -2.9978 0.9702
-0.6958 -6.9159 -2.9983 0.9702
-0.0774 -6.9511 -2.9986 0.9702
1.1564 -6.8559 -2.9991 0.9702
1.7622 -6.7263 -2.9994 0.9702
4.4911 -5.3121 -3.0006 0.9702
6.0640 -3.4115 -3.0013 0.9701
6.3438 -2.8584 -3.0014 0.9701
6.5733 -2.2825 -3.0015 0.9701
6.9431 -0.4648 -3.0017 0.9701
6.9570 0.1550 -3.0017 0.9701
6.9155 0.7736 -3.0017 0.9701
6.2101 3.1381 -3.0014 0.9701
5.9059 3.6782 -3.0012 0.9701
5.5548 4.1891 -3.0011 0.9701
3.5524 5.5648 -2.8478 0.9716
3.0428 5.8584 -2.8476 0.9717
2.5091 6.1055 -2.8474 0.9717
0.2205 6.5949 -2.8464 0.9717
-0.3673 6.5878 -2.8461 0.9717
-1.5293 6.4171 -2.8456 0.9717
-2.0942 6.2550 -2.8454 0.9717
-2.6424 6.0433 -2.8451 0.9717
-3.1695 5.7837 -2.8449 0.9717
-3.6714 5.4782 -2.8447 0.9717
-4.1441 5.1293 -2.8444 0.9717
-4.6165 4.7734 -2.8645 0.9715
-5.2543 4.5436 -2.9964 0.9702
-5.6375 4.0576 -2.9962 0.9702
-6.2671 2.9935 -2.9959 0.9702
-6.5084 2.4238 -2.9958 0.9702
-6.6981 1.8348 -2.9957 0.9702
-6.8347 1.2313 -2.9957 0.9702
-6.6392 0.0000 -2.9957 0.9713
-6.5341 -1.1772 -2.9958 0.9713
-5.0231 -4.3437 -2.9964 0.9713
-4.6169 -4.7738 -2.9966 0.9713
-4.1739 -5.1661 -2.9968 0.9713
-3.6978 -5.5175 -2.9970 0.9713
-3.1923 -5.8251 -2.9972 0.9713
-1.5402 -6.4631 -2.9979 0.9713
-0.9590 -6.5751 -2.9982 0.9713
1.3965 -6.4986 -2.9992 0.9713
1.9695 -6.3490 -2.9995 0.9712
3.5778 -5.6045 -3.0002 0.9712
5.3101 -4.0045 -3.0009 0.9712
5.6457 -3.5162 -3.0011 0.9712
6.1802 -2.4596 -3.0013 0.9712
6.3747 -1.8999 -3.0014 0.9712
6.6373 0.4443 -3.0015 0.9712
6.5713 1.0333 -3.0015 0.9712
6.4532 1.6140 -3.0015 0.9712
6.0644 2.7325 -3.0013 0.9712
5.7969 3.2613 -3.0012 0.9712
5.1263 4.2370 -3.0009 0.9712
4.0752 4.8201 -2.8480 0.9727
3.1555 5.4655 -2.8476 0.9727
2.6563 5.7243 -2.8474 0.9727
1.5991 6.1035 -2.8470 0.9727
1.0494 6.2211 -2.8467 0.9727
-0.0703 6.3075 -2.8462 0.9727
-1.1873 6.1941 -2.8457 0.9727
-1.7337 6.0633 -2.8455 0.9727
-2.2663 5.8844 -2.8453 0.9727
-2.7809 5.6589 -2.8450 0.9727
-4.2192 4.7707 -2.8737 0.9724
-4.8249 4.5633 -2.9965 0.9713
-5.2116 4.1155 -2.9964 0.9713
-5.5569 3.6352 -2.9962 0.9713
-6.5801 0.8849 -2.9958 0.9713
-6.4753 -1.4671 -2.9958 0.9713
-6.1129 -2.5921 -2.9960 0.9713
-5.8581 -3.1260 -2.9961 0.9713
-5.5569 -3.6351 -2.9962 0.9713
-5.2115 -4.1155 -2.9963 0.9713
-4.8248 -4.5633 -2.9965 0.9713
-3.4485 -5.6770 -2.9971 0.9713
-1.8265 -6.3878 -2.9978 0.9713
-1.2509 -6.5256 -2.9981 0.9713
-0.0740 -6.6451 -2.9986 0.9713
0.5178 -6.6259 -2.9988 0.9713
1.6846 -6.4302 -2.9994 0.9713
2.2505 -6.2553 -2.9996 0.9712
2.7985 -6.0306 -2.9998 0.9712
3.3244 -5.7580 -3.0001 0.9712
5.4833 -3.7641 -3.0010 0.9712
5.7969 -3.2613 -3.0012 0.9712
6.0644 -2.7325 -3.0013 0.9712
6.2837 -2.1819 -3.0014 0.9712
6.4531 -1.6140 -3.0015 0.9712
6.5187 1.3250 -3.0015 0.9712
6.3748 1.8999 -3.0014 0.9712
5.9366 2.9999 -3.0013 0.9712
5.6458 3.5162 -3.0011 0.9712
4.9323 4.4611 -3.0008 0.9712
4.3869 4.7431 -2.9152 0.9720
3.3960 5.3197 -2.8477 0.9727
2.9088 5.6004 -2.8475 0.9727
1.3255 6.1685 -2.8468 0.9727
-0.3512 6.2978 -2.8461 0.9727
-1.4620 6.1347 -2.8456 0.9727
-4.5953 4.7515 -2.9826 0.9714
-5.7132 3.3839 -2.9962 0.9713
-5.9915 2.8619 -2.9960 0.9713
-6.5341 1.1772 -2.9958 0.9713
-6.6129 0.5909 -2.9957 0.9713
-6.3556 -0.0000 -2.9959 0.9723
-6.3303 -0.5657 -2.9959 0.9723
-6.2549 -1.1269 -2.9959 0.9723
-5.9563 -2.2181 -2.9960 0.9723
-4.4196 -4.5698 -2.9967 0.9723
-3.9955 -4.9453 -2.9969 0.9723
-3.0558 -5.5762 -2.9973 0.9723
-2.5476 -5.8264 -2.9975 0.9723
-2.0190 -6.0305 -2.9977 0.9723
-0.3541 -6.3512 -2.9985 0.9723
1.3367 -6.2206 -2.9992 0.9723
1.8852 -6.0775 -2.9994 0.9723
2.9334 -5.6478 -2.9999 0.9722
3.4247 -5.3647 -3.0001 0.9722
3.8888 -5.0389 -3.0003 0.9722
4.3222 -4.6731 -3.0005 0.9722
4.7212 -4.2701 -3.0007 0.9722
5.0828 -3.8331 -3.0008 0.9722
5.6824 -2.8715 -3.0011 0.9722
6.3658 -0.1419 -3.0014 0.9722
6.3531 0.4253 -3.0014 0.9722
6.2900 0.9890 -3.0014 0.9722
5.5488 3.1217 -3.0011 0.9722
5.2487 3.6030 -3.0010 0.9722
4.9069 4.0557 -3.0008 0.9722
4.5262 4.4761 -3.0006 0.9722
4.0089 4.7418 -2.9269 0.9729
3.4744 4.9424 -2.8478 0.9736
3.0205 5.2316 -2.8476 0.9736
2.5427 5.4793 -2.8474 0.9736
2.0447 5.6835 -2.8472 0.9736
1.5307 5.8425 -2.8469 0.9736
-0.6043 6.0073 -2.8460 0.9737
-2.1694 5.6328 -2.8453 0.9737
-2.6620 5.4170 -2.8451 0.9737
-4.9889 3.9396 -2.9965 0.9723
-5.6078 2.9924 -2.9962 0.9723
-5.8517 2.4813 -2.9961 0.9723
-6.0491 1.9506 -2.9960 0.9723
-6.2989 -0.8471 -2.9959 0.9723
-5.6078 -2.9924 -2.9962 0.9723
-4.9888 -3.9396 -2.9964 0.9723
-4.6186 -4.3683 -2.9966 0.9723
-3.3011 -5.4343 -2.9972 0.9723
1.0582 -6.2737 -2.9991 0.9723
1.6126 -6.1552 -2.9993 0.9723
2.1542 -5.9877 -2.9996 0.9723
2.6788 -5.7726 -2.9998 0.9723
4.1096 -4.8608 -3.0004 0.9722
4.5262 -4.4760 -3.0006 0.9722
4.9069 -4.0556 -3.0008 0.9722
5.2486 -3.6030 -3.0009 0.9722
5.5487 -3.1217 -3.0011 0.9722
5.8048 -2.6155 -3.0012 0.9722
6.3531 -0.4253 -3.0014 0.9722
6.3279 0.7079 -3.0014 0.9722
6.1019 1.8186 -3.0013 0.9722
5.6825 2.8714 -3.0011 0.9722
5.4041 3.3657 -3.0010 0.9722
5.0829 3.8332 -3.0009 0.9722
4.3222 4.6731 -3.0006 0.9722
1.2688 5.9046 -2.8468 0.9736
0.7382 5.9936 -2.8466 0.9736
-1.3995 5.8724 -2.8457 0.9737
-2.4181 5.5304 -2.8452 0.9737
-3.8515 4.7671 -2.8889 0.9733
-4.4196 4.5699 -2.9967 0.9723
-4.8085 4.1581 -2.9966 0.9723
-5.1593 3.7134 -2.9964 0.9723
-5.9563 2.2182 -2.9960 0.9723
-6.1300 1.6792 -2.9960 0.9723
-6.3304 0.5657 -2.9959 0.9723
-6.0670 -0.5421 -2.9960 0.9732
-5.8749 -1.6093 -2.9961 0.9732
-5.7085 -2.1259 -2.9961 0.9732
-5.2415 -3.1046 -2.9963 0.9732
-4.9446 -3.5589 -2.9965 0.9732
-3.3924 -5.0619 -2.9971 0.9732
-2.9286 -5.3441 -2.9973 0.9732
-1.4130 -5.9292 -2.9980 0.9732
-0.8797 -6.0320 -2.9982 0.9732
-0.3394 -6.0868 -2.9985 0.9732
1.8067 -5.8244 -2.9994 0.9732
2.3181 -5.6409 -2.9996 0.9732
2.8112 -5.4125 -2.9998 0.9732
3.7268 -4.8290 -3.0003 0.9732
5.4456 -2.7518 -3.0010 0.9732
5.9796 -1.2154 -3.0013 0.9732
6.0279 0.9479 -3.0013 0.9732
5.9195 1.4806 -3.0012 0.9732
5.7641 2.0015 -3.0012 0.9732
5.5630 2.5065 -3.0011 0.9732
4.7025 3.8867 -3.0007 0.9732
1.9596 5.4468 -2.8471 0.9745
1.4669 5.5992 -2.8469 0.9745
0.9627 5.7070 -2.8467 0.9745
0.4508 5.7696 -2.8465 0.9745
-0.5792 5.7572 -2.8460 0.9745
-1.5905 5.5624 -2.8456 0.9745
-2.5512 5.1915 -2.8451 0.9745
-3.0029 4.9435 -2.8449 0.9745
-3.5090 4.7625 -2.9096 0.9740
-4.0365 4.5642 -2.9969 0.9732
-5.0981 3.3351 -2.9964 0.9732
-5.7975 1.8695 -2.9961 0.9732
-6.0369 0.8119 -2.9960 0.9732
-6.0851 -0.2714 -2.9960 0.9732
-6.0369 -0.8119 -2.9960 0.9732
-5.9407 -1.3460 -2.9960 0.9732
-5.7975 -1.8695 -2.9961 0.9732
-5.6082 -2.3781 -2.9962 0.9732
-4.7812 -3.7757 -2.9965 0.9732
-4.4264 -4.1865 -2.9967 0.9732
-4.0365 -4.5641 -2.9969 0.9732
-3.6144 -4.9056 -2.9970 0.9732
-3.1637 -5.2081 -2.9972 0.9732
-1.6757 -5.8602 -2.9979 0.9732
-1.1475 -5.9865 -2.9981 0.9732
-0.6102 -6.0654 -2.9983 0.9732
2.5672 -5.5322 -2.9997 0.9732
3.0496 -5.2821 -3.0000 0.9732
4.7024 -3.8867 -3.0007 0.9732
5.3175 -2.9916 -3.0010 0.9732
5.5629 -2.5065 -3.0011 0.9732
5.7641 -2.0015 -3.0012 0.9732
6.0884 -0.4076 -3.0013 0.9732
6.0642 0.6784 -3.0013 0.9732
5.9797 1.2154 -3.0013 0.9732
5.8476 1.7428 -3.0012 0.9732
5.4457 2.7518 -3.0010 0.9732
5.1789 3.2255 -3.0009 0.9732
4.5246 4.0922 -3.0006 0.9732
4.1422 4.4784 -3.0005 0.9732
2.6684 5.1375 -2.8474 0.9745
2.2004 5.3543 -2.8472 0.9745
0.7074 5.7440 -2.8466 0.9745
-0.3222 5.7775 -2.8461 0.9745
-1.8367 5.4858 -2.8455 0.9745
-4.2357 4.3797 -2.9968 0.9732
-4.9446 3.5589 -2.9965 0.9732
-5.7085 2.1259 -2.9961 0.9732
-5.8750 1.6093 -2.9961 0.9732
-5.8441 0.0000 -2.9961 0.9741
-5.6366 -1.5440 -2.9962 0.9741
-4.4214 -3.8234 -2.9967 0.9741
-1.8564 -5.5449 -2.9978 0.9741
-1.3557 -5.6885 -2.9980 0.9741
0.1954 -5.8459 -2.9987 0.9741
0.7150 -5.8058 -2.9989 0.9740
1.7334 -5.5878 -2.9994 0.9740
2.2240 -5.4118 -2.9996 0.9740
3.5754 -4.6328 -3.0002 0.9740
4.3407 -3.9260 -3.0005 0.9740
4.6731 -3.5242 -3.0007 0.9740
4.9685 -3.0944 -3.0008 0.9740
5.2244 -2.6400 -3.0009 0.9740
5.7366 -1.1660 -3.0011 0.9740
5.8526 -0.1304 -3.0012 0.9740
5.7830 0.9093 -3.0012 0.9740
5.3369 2.4047 -3.0010 0.9740
5.1015 2.8701 -3.0009 0.9740
4.8256 3.3126 -3.0008 0.9740
4.1614 4.1153 -3.0005 0.9740
3.7784 4.4692 -3.0003 0.9740
3.3292 4.7358 -2.9678 0.9743
2.7771 4.8101 -2.8475 0.9753
2.3378 5.0378 -2.8473 0.9753
0.4325 5.5354 -2.8465 0.9754
-0.0618 5.5514 -2.8462 0.9754
-0.5557 5.5235 -2.8460 0.9754
-1.5260 5.3367 -2.8456 0.9754
-1.9948 5.1793 -2.8454 0.9754
-3.4678 4.7065 -2.9971 0.9741
-3.8727 4.3790 -2.9970 0.9741
-4.5873 3.6225 -2.9966 0.9741
-5.3807 2.2816 -2.9963 0.9741
-5.6997 1.2914 -2.9962 0.9741
-5.7920 0.7790 -2.9961 0.9741
-5.8383 0.2603 -2.9961 0.9741
-5.8383 -0.2603 -2.9961 0.9741
-5.3807 -2.2816 -2.9963 0.9741
-5.1564 -2.7515 -2.9964 0.9741
-4.2468 -4.0166 -2.9968 0.9741
-3.8727 -4.3789 -2.9969 0.9741
-3.0353 -4.9968 -2.9973 0.9741
-2.5787 -5.2475 -2.9975 0.9741
-2.1015 -5.4565 -2.9977 0.9741
-1.6077 -5.6223 -2.9979 0.9741
-0.5854 -5.8191 -2.9984 0.9741
-0.0652 -5.8486 -2.9986 0.9741
0.9730 -5.7684 -2.9990 0.9740
2.4629 -5.3075 -2.9997 0.9740
3.3654 -4.7873 -3.0001 0.9740
4.5114 -3.7287 -3.0006 0.9740
4.8256 -3.3126 -3.0007 0.9740
5.3369 -2.4047 -3.0010 0.9740
5.7829 -0.9093 -3.0012 0.9740
5.8410 -0.3910 -3.0012 0.9740
5.8526 0.1304 -3.0012 0.9740
5.7367 1.1661 -3.0012 0.9740
5.4388 2.1646 -3.0010 0.9740
5.2244 2.6400 -3.0009 0.9740
4.6732 3.5242 -3.0007 0.9740
3.0329 4.7509 -2.8897 0.9750
2.1110 5.1368 -2.8472 0.9753
1.6453 5.3039 -2.8470 0.9753
1.1666 5.4289 -2.8468 0.9753
-0.3091 5.5430 -2.8461 0.9754
-1.2868 5.3996 -2.8457 0.9754
-2.6670 4.8667 -2.8451 0.9754
-3.6739 4.5473 -2.9971 0.9741
-4.7440 3.4145 -2.9966 0.9741
-5.6366 1.5441 -2.9962 0.9741
-5.7516 1.0362 -2.9961 0.9741
-5.6125 0.0000 -2.9962 0.9749
-4.8295 -2.8605 -2.9965 0.9749
-4.2462 -3.6718 -2.9968 0.9749
-3.1257 -4.6639 -2.9973 0.9749
-2.2496 -5.1449 -2.9976 0.9749
-1.7828 -5.3250 -2.9978 0.9749
-1.3019 -5.4630 -2.9980 0.9749
-0.8106 -5.5576 -2.9983 0.9749
-0.3127 -5.6081 -2.9985 0.9749
0.1877 -5.6140 -2.9987 0.9749
0.6867 -5.5755 -2.9989 0.9748
1.1803 -5.4926 -2.9991 0.9748
3.0238 -4.7367 -2.9999 0.9748
4.7713 -2.9716 -3.0007 0.9748
5.2229 -2.0787 -3.0009 0.9748
5.3873 -1.6056 -3.0010 0.9748
5.5868 -0.6250 -3.0011 0.9748
5.6091 0.3755 -3.0011 0.9748
5.4536 1.3640 -3.0010 0.9748
5.3104 1.8440 -3.0010 0.9748
5.1251 2.3093 -3.0009 0.9748
4.8990 2.7562 -3.0008 0.9748
4.6341 3.1812 -3.0007 0.9748
4.3324 3.5808 -3.0006 0.9748
3.9963 3.9520 -3.0004 0.9748
2.2450 4.8379 -2.8472 0.9761
1.3515 5.1587 -2.8469 0.9761
0.4154 5.3158 -2.8464 0.9761
-0.5336 5.3044 -2.8460 0.9761
-1.0036 5.2355 -2.8458 0.9761
-1.9157 4.9739 -2.8454 0.9761
-3.3303 4.5200 -2.9972 0.9749
-3.7192 4.2054 -2.9970 0.9749
-4.6974 3.0729 -2.9966 0.9749
-4.9521 2.6425 -2.9965 0.9749
-5.3419 1.7225 -2.9963 0.9749
-5.5624 0.7480 -2.9962 0.9749
-5.6069 0.2501 -2.9962 0.9749
-5.6069 -0.2500 -2.9962 0.9749
-5.5624 -0.7481 -2.9962 0.9749
-5.4738 -1.2402 -2.9962 0.9749
-5.3418 -1.7225 -2.9963 0.9749
-4.6974 -3.0729 -2.9966 0.9749
-4.4054 -3.4789 -2.9967 0.9749
-3.7192 -4.2053 -2.9970 0.9749
-3.3303 -4.5199 -2.9972 0.9749
-2.9150 -4.7987 -2.9973 0.9749
-2.0182 -5.2402 -2.9977 0.9749
-1.5439 -5.3994 -2.9979 0.9749
-1.0573 -5.5157 -2.9982 0.9749
-0.5622 -5.5884 -2.9984 0.9749
-0.0626 -5.6166 -2.9986 0.9749
1.4238 -5.4348 -2.9992 0.9748
1.9021 -5.2869 -2.9995 0.9748
3.6284 -4.2918 -3.0002 0.9748
3.9962 -3.9520 -3.0004 0.9748
5.1250 -2.3092 -3.0009 0.9748
5.4535 -1.3640 -3.0010 0.9748
5.6203 0.1252 -3.0011 0.9748
5.5868 0.6250 -3.0011 0.9748
5.3873 1.6056 -3.0010 0.9748
5.2229 2.0787 -3.0009 0.9748
5.0170 2.5352 -3.0008 0.9748
3.8162 4.1260 -3.0003 0.9748
3.4336 4.4490 -3.0002 0.9748
2.0272 4.9330 -2.8471 0.9761
1.5800 5.0935 -2.8470 0.9761
1.1203 5.2136 -2.8468 0.9761
0.6518 5.2922 -2.8465 0.9761
0.1782 5.3288 -2.8463 0.9761
-1.6923 5.0545 -2.8455 0.9761
-2.6098 4.7623 -2.8991 0.9757
-3.9027 4.0354 -2.9969 0.9749
-4.5560 3.2792 -2.9967 0.9749
-5.5236 0.9951 -2.9962 0.9749
-5.3094 -0.9565 -2.9963 0.9756
-5.0559 -1.8829 -2.9964 0.9756
-4.8684 -2.3254 -2.9965 0.9756
-4.6422 -2.7496 -2.9966 0.9756
-4.3792 -3.1520 -2.9967 0.9756
-3.0045 -4.4830 -2.9973 0.9756
-2.1623 -4.9453 -2.9977 0.9756
-1.7137 -5.1185 -2.9979 0.9756
-0.3006 -5.3904 -2.9985 0.9756
0.1804 -5.3962 -2.9987 0.9756
0.6600 -5.3591 -2.9989 0.9756
1.6000 -5.1579 -2.9993 0.9756
3.3003 -4.2763 -3.0001 0.9756
3.6680 -3.9658 -3.0002 0.9756
4.0066 -3.6237 -3.0004 0.9756
4.3134 -3.2529 -3.0005 0.9756
4.8222 -2.4368 -3.0007 0.9756
5.2950 -1.0763 -3.0010 0.9756
5.3913 0.3609 -3.0010 0.9756
5.3377 0.8393 -3.0010 0.9756
4.9260 2.2196 -3.0008 0.9756
4.7088 2.6491 -3.0007 0.9756
4.4542 3.0576 -3.0006 0.9756
4.1642 3.4418 -3.0005 0.9756
3.8411 3.7986 -3.0003 0.9756
2.7006 4.6777 -2.9998 0.9756
1.7353 4.8234 -2.8470 0.9768
1.2991 4.9584 -2.8468 0.9768
0.8525 5.0540 -2.8466 0.9768
0.3993 5.1095 -2.8464 0.9768
-0.0571 5.1244 -2.8462 0.9768
-0.5129 5.0986 -2.8460 0.9768
-0.9646 5.0324 -2.8458 0.9768
-1.4101 4.9313 -2.8486 0.9768
-1.8418 4.7821 -2.8462 0.9768
-2.8019 4.6126 -2.9974 0.9756
-3.5750 4.0423 -2.9971 0.9756
-3.9204 3.7079 -2.9969 0.9756
-4.2346 3.3440 -2.9968 0.9756
-4.5153 2.9537 -2.9967 0.9756
-4.7601 2.5400 -2.9966 0.9756
-4.9671 2.1062 -2.9965 0.9756
-5.2616 1.1921 -2.9963 0.9756
-5.3895 0.2403 -2.9963 0.9756
-5.3467 -0.7190 -2.9963 0.9756
-4.9671 -2.1062 -2.9965 0.9756
-4.7600 -2.5400 -2.9965 0.9756
-4.5152 -2.9537 -2.9967 0.9756
-3.9203 -3.7078 -2.9969 0.9756
-2.3804 -4.8439 -2.9976 0.9756
-1.9399 -5.0369 -2.9978 0.9756
-1.4840 -5.1899 -2.9980 0.9756
-0.0601 -5.3987 -2.9986 0.9756
0.8981 -5.3246 -2.9990 0.9756
1.8282 -5.0816 -2.9994 0.9756
2.2734 -4.8991 -2.9996 0.9756
3.1064 -4.4189 -3.0000 0.9756
4.1641 -3.4417 -3.0004 0.9756
4.4541 -3.0576 -3.0006 0.9756
5.3913 -0.3609 -3.0010 0.9756
5.3698 0.6007 -3.0010 0.9756
5.1781 1.5433 -3.0009 0.9756
4.8222 2.4368 -3.0008 0.9756
4.0066 3.6238 -3.0004 0.9756
3.6680 3.9658 -3.0003 0.9756
1.9568 4.7617 -2.8592 0.9767
0.6265 5.0868 -2.8465 0.9768
0.1712 5.1220 -2.8463 0.9768
-0.7395 5.0706 -2.8459 0.9768
-1.6266 4.8584 -2.8455 0.9768
-2.0827 4.7633 -2.8873 0.9765
-3.0045 4.4831 -2.9973 0.9756
-3.3914 4.1976 -2.9972 0.9756
-3.7514 3.8789 -2.9970 0.9756
-4.3793 3.1520 -2.9967 0.9756
-4.6423 2.7496 -2.9966 0.9756
-5.0559 1.8829 -2.9964 0.9756
-5.3094 0.9566 -2.9963 0.9756
-5.3735 0.4802 -2.9963 0.9756
-5.1899 0.0000 -2.9964 0.9763
-5.1077 -0.9202 -2.9964 0.9763
-5.0056 -1.3712 -2.9964 0.9763
-4.8638 -1.8113 -2.9965 0.9763
-4.6834 -2.2371 -2.9966 0.9763
-4.2128 -3.0322 -2.9968 0.9763
-3.6088 -3.7314 -2.9970 0.9763
-2.4951 -4.5530 -2.9975 0.9763
-1.2038 -5.0514 -2.9981 0.9763
-0.2891 -5.1855 -2.9985 0.9763
0.1736 -5.1910 -2.9987 0.9763
1.0913 -5.0786 -2.9991 0.9763
2.3948 -4.6108 -2.9997 0.9763
3.1747 -4.1136 -3.0000 0.9763
3.8541 -3.4859 -3.0003 0.9763
4.1493 -3.1291 -3.0004 0.9763
4.6387 -2.3440 -3.0007 0.9763
4.8290 -1.9219 -3.0007 0.9763
4.9811 -1.4845 -3.0008 0.9763
5.0935 -1.0353 -3.0009 0.9763
5.1964 -0.1158 -3.0009 0.9763
5.1346 0.8074 -3.0009 0.9763
5.0423 1.2612 -3.0009 0.9763
4.9100 1.7049 -3.0008 0.9763
4.5296 2.5483 -3.0006 0.9763
4.0057 3.3108 -3.0004 0.9763
3.6950 3.6540 -3.0003 0.9763
3.3549 3.9682 -3.0001 0.9763
2.9883 4.2508 -3.0000 0.9763
2.5979 4.4997 -2.9998 0.9763
1.7087 4.7495 -2.9142 0.9770
0.8201 4.8618 -2.8466 0.9775
0.3848 4.9246 -2.8518 0.9774
-0.4934 4.9047 -2.8460 0.9775
-1.8305 4.7529 -2.9405 0.9768
-2.2899 4.6598 -2.9977 0.9763
-3.0795 4.1795 -2.9973 0.9763
-3.4391 3.8886 -2.9972 0.9763
-3.7714 3.5669 -2.9970 0.9763
-4.0737 3.2170 -2.9969 0.9763
-4.9396 1.5928 -2.9965 0.9763
-5.0617 1.1468 -2.9964 0.9763
-5.1436 0.6917 -2.9964 0.9763
-5.1436 -0.6917 -2.9964 0.9763
-4.9396 -1.5928 -2.9965 0.9763
-4.7783 -2.0262 -2.9965 0.9763
-4.3436 -2.8415 -2.9967 0.9763
-4.0737 -3.2169 -2.9968 0.9763
-2.2899 -4.6598 -2.9976 0.9763
-1.8662 -4.8454 -2.9978 0.9763
-1.4276 -4.9926 -2.9980 0.9763
-0.5198 -5.1673 -2.9984 0.9763
-0.0579 -5.1934 -2.9986 0.9763
3.3549 -3.9682 -3.0001 0.9763
3.6949 -3.6540 -3.0002 0.9763
4.0057 -3.3108 -3.0004 0.9763
4.2846 -2.9412 -3.0005 0.9763
4.5296 -2.5483 -3.0006 0.9763
4.7386 -2.1351 -3.0007 0.9763
4.9099 -1.7049 -3.0008 0.9763
5.0423 -1.2612 -3.0008 0.9763
5.1346 -0.8074 -3.0009 0.9763
5.1861 -0.3472 -3.0009 0.9763
5.1655 0.5778 -3.0009 0.9763
5.0935 1.0353 -3.0009 0.9763
4.9811 1.4845 -3.0008 0.9763
4.6387 2.3440 -3.0007 0.9763
4.1493 3.1292 -3.0005 0.9763
2.3948 4.6108 -2.9997 0.9763
1.9482 4.7406 -2.9591 0.9766
1.0359 4.8206 -2.8467 0.9775
0.6027 4.8934 -2.8465 0.9775
0.1647 4.9273 -2.8463 0.9775
-1.1426 4.7947 -2.8458 0.9775
-1.5937 4.7601 -2.8982 0.9771
-2.4952 4.5531 -2.9976 0.9763
-3.9264 3.3953 -2.9969 0.9763
-4.8638 1.8113 -2.9965 0.9763
-5.0056 1.3712 -2.9965 0.9763
