ply
format ascii 1.0
element vertex 1641
property float32 x
property float32 y
property float32 z
property float32 I
end_header
-6.3434 7.1726 5.5283 0.9567
-6.3665 7.1987 5.1303 0.9574
-6.3659 7.1981 4.9264 0.9577
-6.3654 7.1975 4.7259 0.9581
-6.3638 7.1956 4.1436 0.9590
-6.3632 7.1950 3.9552 0.9593
-6.3602 7.1917 2.8742 0.9607
-6.3598 7.1911 2.7010 0.9609
-6.3593 7.1906 2.5294 0.9611
-6.3588 7.1900 2.3593 0.9612
-6.3579 7.1890 2.0233 0.9615
6.9859 -6.3184 1.8228 0.9624
6.7867 -6.7115 1.8471 0.9619
6.1705 -6.6715 1.4471 0.9639
6.5298 -5.9059 1.4020 0.9650
-6.3565 7.1874 1.5279 0.9619
6.2952 -6.2255 1.4098 0.9648
6.8765 -5.6835 1.4206 0.9645
6.0420 -6.5325 1.2657 0.9647
6.4259 -5.8119 1.2324 0.9656
-6.3561 7.1869 1.3647 0.9620
6.0656 -7.1744 1.3363 0.9628
6.1915 -6.1229 1.2386 0.9654
6.7564 -5.5843 1.2468 0.9652
5.9366 -6.4185 1.0956 0.9654
6.3357 -5.7303 1.0705 0.9661
7.0721 -5.3333 1.1100 0.9649
-6.3556 7.1864 1.2022 0.9621
6.1004 -6.0329 1.0752 0.9660
6.6511 -5.4973 1.0813 0.9658
7.7966 -5.3521 1.1851 0.9626
5.8705 -6.3472 0.9378 0.9658
5.7907 -6.8493 0.9729 0.9646
6.0398 -5.9729 0.9214 0.9664
6.5823 -5.4404 0.9263 0.9662
5.8660 -7.6008 0.8802 0.9622
5.8062 -6.2776 0.7839 0.9662
5.7135 -6.7580 0.8113 0.9651
6.5152 -5.3849 0.7749 0.9666
5.7681 -6.2364 0.6366 0.9665
6.1831 -5.5923 0.6248 0.9671
6.8546 -5.1693 0.6434 0.9661
5.6625 -6.6977 0.6573 0.9654
5.9475 -5.8816 0.6268 0.9670
5.6443 -7.3135 0.5381 0.9637
6.1513 -5.5635 0.4831 0.9673
6.8108 -5.1363 0.4968 0.9664
5.6218 -6.6495 0.5072 0.9657
6.4427 -5.3250 0.4868 0.9671
7.3191 -5.0243 0.5171 0.9651
5.7070 -6.1704 0.3495 0.9669
6.1273 -5.5418 0.3435 0.9675
-6.3534 7.1839 0.3988 0.9623
5.5876 -6.6091 0.3599 0.9659
5.8924 -5.8271 0.3446 0.9674
6.4165 -5.3034 0.3461 0.9672
7.2673 -4.9887 0.3665 0.9653
5.5714 -7.2191 0.2274 0.9642
5.6972 -6.1597 0.2092 0.9670
6.1173 -5.5327 0.2057 0.9675
6.7627 -5.1000 0.2112 0.9667
-6.3529 7.1834 0.2391 0.9624
5.5749 -6.5940 0.2153 0.9660
5.5543 -7.1970 0.0756 0.9643
6.1073 -5.5237 0.0684 0.9676
6.7505 -5.0908 0.0703 0.9667
8.0589 -5.0192 0.0789 0.9627
5.5623 -6.5791 0.0716 0.9661
5.8731 -5.8080 0.0686 0.9675
6.3952 -5.2858 0.0690 0.9674
-6.3521 7.1824 -0.0797 0.9624
6.3954 -5.2859 -0.0690 0.9674
5.6973 -6.1599 -0.2093 0.9670
6.1174 -5.5329 -0.2057 0.9675
8.1112 -5.0517 -0.2383 0.9625
5.8829 -5.8177 -0.2063 0.9674
6.4060 -5.2947 -0.2073 0.9673
5.5889 -7.2418 -0.3804 0.9640
5.7072 -6.1705 -0.3495 0.9669
6.7758 -5.1098 -0.3529 0.9666
-6.3512 7.1814 -0.3986 0.9623
6.4167 -5.3036 -0.3461 0.9672
7.2676 -4.9889 -0.3665 0.9653
5.7344 -6.1999 -0.4919 0.9667
6.1519 -5.5640 -0.4831 0.9673
5.6225 -6.6503 -0.5072 0.9657
5.9163 -5.8507 -0.4846 0.9672
6.4433 -5.3255 -0.4869 0.9671
7.3201 -5.0250 -0.5171 0.9650
5.7308 -7.4256 -0.7029 0.9631
5.7687 -6.2371 -0.6367 0.9665
-6.3503 7.1804 -0.7183 0.9623
5.9480 -5.8821 -0.6269 0.9670
7.3796 -5.0658 -0.6708 0.9647
5.8073 -6.2788 -0.7841 0.9662
7.4605 -5.1213 -0.8296 0.9643
5.8716 -6.3483 -0.9380 0.9658
6.2758 -5.6761 -0.9178 0.9665
5.7920 -6.8508 -0.9731 0.9645
6.0408 -5.9739 -0.9215 0.9664
7.5936 -5.2127 -0.9990 0.9636
5.9377 -6.4197 -1.0958 0.9654
7.0737 -5.3345 -1.1103 0.9649
5.8888 -6.9653 -1.1430 0.9639
6.6523 -5.4982 -1.0815 0.9658
7.8010 -5.3551 -1.1858 0.9626
6.0438 -6.5345 -1.2660 0.9647
6.4276 -5.8135 -1.2327 0.9656
7.2152 -5.4412 -1.2854 0.9641
6.0684 -7.1778 -1.3369 0.9627
6.1932 -6.1246 -1.2389 0.9654
6.1741 -6.6754 -1.4479 0.9638
6.5316 -5.9075 -1.4024 0.9650
7.4356 -5.6075 -1.4830 0.9630
-6.3480 7.1779 -1.5258 0.9619
6.2969 -6.2271 -1.4102 0.9648
6.8796 -5.6861 -1.4212 0.9645
6.7022 -6.0618 -1.5934 0.9640
12.1271 8.3248 -2.8465 0.9418
11.3380 9.3711 -2.8465 0.9418
10.4588 10.3429 -2.8465 0.9418
9.4967 11.2327 -2.8465 0.9418
6.1914 13.3422 -2.8464 0.9418
4.9793 13.8402 -2.8464 0.9418
2.4464 14.5035 -2.8463 0.9418
1.1458 14.6635 -2.8463 0.9418
-2.7688 14.4447 -2.8462 0.9418
-6.4864 13.1995 -2.8461 0.9418
-6.3471 7.1768 -1.8541 0.9617
-12.3069 8.0508 -2.8459 0.9418
-13.5392 5.7411 -2.8459 0.9418
13.1286 6.6342 -2.8466 0.9418
10.9092 9.8668 -2.8465 0.9418
9.9877 10.7986 -2.8465 0.9418
8.9868 11.6446 -2.8465 0.9418
7.9147 12.3981 -2.8465 0.9418
4.3578 14.0482 -2.8464 0.9418
1.7979 14.5980 -2.8463 0.9418
-2.1226 14.5538 -2.8462 0.9418
-3.4095 14.3070 -2.8462 0.9418
-5.8920 13.4755 -2.8461 0.9418
-7.0679 12.8974 -2.8461 0.9418
-10.2239 10.5715 -2.8460 0.9418
-11.1242 9.6195 -2.8460 0.9418
-12.6533 7.4946 -2.8459 0.9418
-14.2219 0.0000 -2.9983 0.9435
-13.7166 -3.7573 -2.9983 0.9435
-12.8331 -6.1298 -2.9983 0.9435
-12.2366 -7.2478 -2.9983 0.9435
-11.5430 -8.3081 -2.9983 0.9435
-10.7578 -9.3026 -2.9983 0.9435
-7.9180 -11.8145 -2.9984 0.9435
-6.8351 -12.4724 -2.9984 0.9435
-5.6979 -13.0314 -2.9984 0.9435
-4.5155 -13.4869 -2.9984 0.9435
-3.2972 -13.8354 -2.9985 0.9435
1.7387 -14.1168 -2.9986 0.9435
2.9883 -13.9062 -2.9986 0.9435
4.2142 -13.5852 -2.9987 0.9435
9.6585 -10.4427 -2.9988 0.9435
10.5497 -9.5417 -2.9988 0.9435
11.3572 -8.5649 -2.9989 0.9435
13.2168 -5.2601 -2.9989 0.9435
13.9401 -2.8334 -2.9989 0.9435
14.0526 2.2097 -2.9990 0.9435
12.3103 5.5468 -2.8465 0.9463
11.7677 6.6204 -2.8465 0.9463
11.1317 7.6415 -2.8465 0.9463
9.6004 9.4941 -2.8465 0.9463
7.7648 11.0457 -2.8464 0.9463
4.5706 12.7043 -2.8464 0.9463
2.2456 13.3131 -2.8463 0.9463
1.0518 13.4600 -2.8463 0.9463
-1.3514 13.4330 -2.8462 0.9463
-4.8521 12.5983 -2.8461 0.9463
-8.0079 10.8684 -2.8461 0.9463
-6.3467 7.1763 -2.0197 0.9616
-12.4281 5.2700 -2.8459 0.9463
-13.5357 4.3647 -2.9983 0.9435
-13.8704 3.1427 -2.9983 0.9435
-14.0950 1.8956 -2.9983 0.9435
-14.2077 -0.6335 -2.9983 0.9435
-13.8703 -3.1426 -2.9983 0.9435
-13.5356 -4.3646 -2.9983 0.9435
-11.1615 -8.8141 -2.9983 0.9435
-9.4220 -10.6536 -2.9983 0.9435
-7.3839 -12.1555 -2.9984 0.9435
-5.1118 -13.2723 -2.9984 0.9435
-2.6776 -13.9687 -2.9985 0.9435
-0.1584 -14.2224 -2.9986 0.9435
7.1121 -12.3185 -2.9987 0.9435
9.1837 -10.8625 -2.9988 0.9435
10.1142 -10.0021 -2.9988 0.9435
12.3976 -6.9747 -2.9989 0.9435
12.9693 -5.8437 -2.9989 0.9435
13.4380 -4.6661 -2.9989 0.9435
13.8000 -3.4516 -2.9989 0.9435
14.1935 -0.9501 -2.9990 0.9435
13.9402 2.8335 -2.9990 0.9435
12.5452 4.9929 -2.8465 0.9463
12.0510 6.0897 -2.8465 0.9463
11.4611 7.1381 -2.8465 0.9463
10.7802 8.1298 -2.8465 0.9463
10.0138 9.0570 -2.8465 0.9463
9.1679 9.9122 -2.8465 0.9463
7.2651 11.3805 -2.8464 0.9463
6.2232 11.9819 -2.8464 0.9463
4.0001 12.8952 -2.8464 0.9463
1.6504 13.3999 -2.8463 0.9463
-1.9484 13.3594 -2.8462 0.9463
-3.1297 13.1328 -2.8462 0.9463
-4.2861 12.8020 -2.8462 0.9463
-5.4085 12.3695 -2.8461 0.9463
-8.4840 10.5008 -2.8460 0.9463
-10.2113 8.8301 -2.8460 0.9463
-10.9566 7.8861 -2.8460 0.9463
-11.6149 6.8796 -2.8459 0.9463
-12.1811 5.8184 -2.8459 0.9463
-13.7167 3.7574 -2.9983 0.9435
-13.9966 2.5216 -2.9983 0.9435
-13.1363 0.0000 -2.9983 0.9475
-12.9282 -2.3291 -2.9983 0.9475
-12.3104 -4.5844 -2.9983 0.9475
-11.8535 -5.6619 -2.9983 0.9475
-11.3026 -6.6945 -2.9983 0.9475
-10.6619 -7.6739 -2.9983 0.9475
-9.1325 -9.4429 -2.9983 0.9475
-5.2629 -12.0367 -2.9984 0.9475
-3.0455 -12.7793 -2.9985 0.9475
-1.8960 -12.9998 -2.9985 0.9475
0.4390 -13.1302 -2.9986 0.9475
2.7602 -12.8446 -2.9986 0.9475
4.9939 -12.1520 -2.9987 0.9475
6.0557 -11.6594 -2.9987 0.9475
8.0272 -10.4011 -2.9988 0.9475
8.9212 -9.6454 -2.9988 0.9475
11.7268 -5.9258 -2.9989 0.9475
12.5918 -3.7527 -2.9989 0.9475
12.8758 -2.6171 -2.9989 0.9475
13.1359 -0.2927 -2.9989 0.9475
13.1099 0.8776 -2.9989 0.9475
12.9797 2.0410 -2.9989 0.9475
12.7466 3.1882 -2.9989 0.9475
11.3705 5.1233 -2.8465 0.9501
10.8693 6.1150 -2.8465 0.9501
9.6128 7.9452 -2.8465 0.9501
8.0517 9.5236 -2.8464 0.9501
7.1720 10.2024 -2.8464 0.9501
6.2355 10.8002 -2.8464 0.9501
5.2494 11.3122 -2.8464 0.9501
4.2217 11.7344 -2.8464 0.9501
2.0742 12.2968 -2.8463 0.9501
0.9715 12.4325 -2.8463 0.9501
-0.1389 12.4695 -2.8463 0.9501
-2.3476 12.2471 -2.8462 0.9501
-3.4283 11.9894 -2.8462 0.9501
-4.4817 11.6366 -2.8461 0.9501
-7.3966 10.0388 -2.8461 0.9501
-6.3153 7.1408 -2.1758 0.9616
-9.0592 8.5681 -2.8460 0.9501
-9.7858 7.7278 -2.8460 0.9501
-12.5025 4.0316 -2.9983 0.9475
-12.8117 2.9028 -2.9983 0.9475
-13.1233 -0.5852 -2.9983 0.9475
-12.8116 -2.9027 -2.9983 0.9475
-11.5896 -6.1843 -2.9983 0.9475
-10.9932 -7.1913 -2.9983 0.9475
-10.3095 -8.1413 -2.9983 0.9475
-8.7028 -9.8404 -2.9984 0.9475
-7.7924 -10.5760 -2.9984 0.9475
-6.8203 -11.2276 -2.9984 0.9475
-4.7216 -12.2592 -2.9984 0.9475
-3.6117 -12.6309 -2.9985 0.9475
-2.4732 -12.9023 -2.9985 0.9475
-1.3150 -13.0714 -2.9985 0.9475
-0.1464 -13.1367 -2.9986 0.9475
1.0235 -13.0977 -2.9986 0.9475
2.1852 -12.9548 -2.9986 0.9475
3.3296 -12.7089 -2.9986 0.9475
6.5692 -11.3781 -2.9987 0.9475
9.3420 -9.2385 -2.9988 0.9475
10.1273 -8.3704 -2.9988 0.9475
10.8322 -7.4359 -2.9989 0.9475
11.4511 -6.4423 -2.9989 0.9475
11.9791 -5.3975 -2.9989 0.9475
12.7465 -3.1881 -2.9989 0.9475
13.0578 1.4608 -2.9989 0.9475
8.4680 9.1555 -2.8465 0.9501
7.6194 9.8728 -2.8464 0.9501
5.7481 11.0672 -2.8464 0.9501
4.7403 11.5348 -2.8464 0.9501
3.6948 11.9108 -2.8463 0.9501
-0.6942 12.4509 -2.8462 0.9501
-1.7997 12.3396 -2.8462 0.9501
-5.9927 10.9353 -2.8461 0.9501
-7.8364 9.6993 -2.8460 0.9501
-10.1203 7.2842 -2.8460 0.9501
-10.7283 6.3544 -2.8460 0.9501
-11.2513 5.3743 -2.8459 0.9501
-12.3106 4.5846 -2.9983 0.9475
-12.6697 3.4706 -2.9983 0.9475
-12.9283 2.3292 -2.9983 0.9475
-13.0842 1.1692 -2.9983 0.9475
-12.0049 -2.1627 -2.9983 0.9510
-11.7647 -3.2227 -2.9983 0.9510
-11.4312 -4.2570 -2.9983 0.9510
-11.0070 -5.2575 -2.9983 0.9510
-10.4954 -6.2164 -2.9983 0.9510
-9.2270 -7.9788 -2.9983 0.9510
-8.4802 -8.7685 -2.9984 0.9510
-6.7913 -10.1332 -2.9984 0.9510
-2.8280 -11.8666 -2.9985 0.9510
-0.6792 -12.1802 -2.9985 0.9510
0.4076 -12.1924 -2.9986 0.9510
1.4912 -12.1079 -2.9986 0.9510
5.6232 -10.8266 -2.9987 0.9510
7.4538 -9.6582 -2.9988 0.9510
8.2839 -8.9565 -2.9988 0.9510
10.3561 -6.4498 -2.9988 0.9510
10.8891 -5.5025 -2.9989 0.9510
11.6923 -3.4846 -2.9989 0.9510
11.9561 -2.4302 -2.9989 0.9510
12.1250 -1.3563 -2.9989 0.9510
12.1976 -0.2718 -2.9989 0.9510
12.1734 0.8149 -2.9989 0.9510
12.0526 1.8952 -2.9989 0.9510
10.0929 5.6782 -2.8465 0.9534
5.7901 10.0287 -2.8464 0.9534
3.9201 10.8962 -2.8463 0.9534
1.9260 11.4185 -2.8463 0.9534
-3.1834 11.1331 -2.8462 0.9534
-4.1616 10.8055 -2.8461 0.9534
-6.0114 9.8962 -2.8461 0.9534
-9.6894 6.3386 -2.8460 0.9534
-11.2304 4.7621 -2.9983 0.9510
-11.6096 3.7437 -2.9983 0.9510
-11.8967 2.6955 -2.9983 0.9510
-12.0894 1.6259 -2.9983 0.9510
-12.1861 0.5434 -2.9983 0.9510
-12.0893 -1.6258 -2.9983 0.9510
-11.6095 -3.7435 -2.9983 0.9510
-11.2303 -4.7620 -2.9983 0.9510
-10.2081 -6.6778 -2.9983 0.9510
-9.5732 -7.5598 -2.9983 0.9510
-8.8624 -8.3820 -2.9984 0.9510
-8.0812 -9.1376 -2.9984 0.9510
-7.2359 -9.8206 -2.9984 0.9510
-5.3801 -10.9481 -2.9984 0.9510
-3.3538 -11.7288 -2.9985 0.9510
-2.2965 -11.9809 -2.9985 0.9510
-1.2211 -12.1378 -2.9985 0.9510
-0.1359 -12.1984 -2.9986 0.9510
0.9504 -12.1622 -2.9986 0.9510
2.0291 -12.0295 -2.9986 0.9510
3.0918 -11.8012 -2.9986 0.9510
5.1353 -11.0662 -2.9987 0.9510
6.0999 -10.5654 -2.9987 0.9510
7.0162 -9.9806 -2.9987 0.9510
10.6331 -5.9821 -2.9989 0.9510
11.1234 -5.0119 -2.9989 0.9510
12.0525 -1.8951 -2.9989 0.9510
12.1976 0.2718 -2.9989 0.9510
12.1250 1.3564 -2.9989 0.9510
10.3358 5.2230 -2.8465 0.9534
9.8299 6.1221 -2.8465 0.9534
9.2460 6.9727 -2.8465 0.9534
8.5886 7.7680 -2.8465 0.9534
5.3376 10.2767 -2.8464 0.9534
3.4309 11.0600 -2.8463 0.9534
1.4155 11.4929 -2.8463 0.9534
-0.6447 11.5616 -2.8462 0.9534
-2.6843 11.2639 -2.8462 0.9534
-6.4463 9.6186 -2.8461 0.9534
-9.3975 6.7639 -2.8460 0.9534
-9.9621 5.9006 -2.8460 0.9534
-10.4477 4.9905 -2.8460 0.9534
-11.7648 3.2228 -2.9983 0.9510
-12.1498 1.0857 -2.9983 0.9510
-11.3337 -1.0127 -2.9983 0.9540
-11.1985 -2.0175 -2.9983 0.9540
-10.9745 -3.0062 -2.9983 0.9540
-9.2355 -6.6473 -2.9984 0.9540
-7.9106 -8.1795 -2.9984 0.9540
-2.6380 -11.0695 -2.9985 0.9540
8.4404 -7.6339 -2.9988 0.9540
9.6604 -6.0165 -2.9988 0.9540
10.1576 -5.1328 -2.9988 0.9540
11.3556 0.7602 -2.9989 0.9540
11.2429 1.7679 -2.9989 0.9540
8.3265 6.8821 -2.8464 0.9563
2.7376 10.4493 -2.8463 0.9563
-1.0812 10.7474 -2.8462 0.9563
-2.0335 10.6084 -2.8462 0.9563
-2.9696 10.3852 -2.8462 0.9563
-3.8821 10.0796 -2.8462 0.9563
-8.4765 6.6939 -2.8460 0.9563
-9.5289 5.0848 -2.8460 0.9563
-10.4761 4.4423 -2.9984 0.9540
-11.0976 2.5144 -2.9983 0.9540
-11.2773 1.5167 -2.9983 0.9540
-11.2773 -1.5166 -2.9983 0.9540
-10.8297 -3.4921 -2.9983 0.9540
-8.9302 -7.0521 -2.9984 0.9540
-7.5384 -8.5238 -2.9984 0.9540
-6.7499 -9.1610 -2.9984 0.9540
-5.9078 -9.7254 -2.9984 0.9540
-4.0898 -10.6190 -2.9985 0.9540
-2.1423 -11.1761 -2.9985 0.9540
1.8928 -11.2214 -2.9986 0.9540
2.8841 -11.0085 -2.9986 0.9540
3.8525 -10.7082 -2.9987 0.9540
6.5448 -9.3101 -2.9987 0.9540
8.0920 -8.0023 -2.9988 0.9540
9.9188 -5.5802 -2.9988 0.9540
10.3762 -4.6753 -2.9989 0.9540
11.0408 -2.7614 -2.9989 0.9540
11.2428 -1.7678 -2.9989 0.9540
11.3782 0.2536 -2.9989 0.9540
11.1530 2.2670 -2.9989 0.9540
10.9069 3.2507 -2.9989 0.9540
9.1695 5.7109 -2.8465 0.9563
8.6248 6.5043 -2.8465 0.9563
8.0116 7.2461 -2.8464 0.9563
7.3349 7.9304 -2.8464 0.9563
5.8125 9.1052 -2.8464 0.9563
4.9790 9.5863 -2.8464 0.9563
4.1060 9.9913 -2.8463 0.9563
2.2694 10.5609 -2.8463 0.9563
-2.5040 10.5072 -2.8462 0.9563
-3.4292 10.2426 -2.8462 0.9563
-6.0133 8.9725 -2.8461 0.9563
-6.7879 8.4016 -2.8461 0.9563
-7.5087 7.7640 -2.8461 0.9563
-8.1699 7.0648 -2.8460 0.9563
-10.0252 4.7887 -2.9275 0.9551
-10.9746 3.0063 -2.9983 0.9540
-11.1986 2.0175 -2.9983 0.9540
-11.3337 1.0128 -2.9983 0.9540
-10.4879 -1.8895 -2.9983 0.9567
-10.2781 -2.8154 -2.9983 0.9567
-9.9867 -3.7191 -2.9983 0.9567
-9.6161 -4.5932 -2.9984 0.9567
-9.1691 -5.4309 -2.9984 0.9567
-8.6494 -6.2254 -2.9984 0.9567
-8.0610 -6.9706 -2.9984 0.9567
-4.2695 -9.7646 -2.9985 0.9567
-3.3835 -10.1059 -2.9985 0.9567
-1.5381 -10.5458 -2.9985 0.9567
1.3028 -10.5777 -2.9986 0.9567
3.1577 -10.1793 -2.9987 0.9567
4.0512 -9.8579 -2.9987 0.9567
5.7349 -8.9836 -2.9987 0.9567
6.5118 -8.4375 -2.9987 0.9567
7.2370 -7.8245 -2.9988 0.9567
7.9047 -7.1494 -2.9988 0.9567
8.5098 -6.4175 -2.9988 0.9567
9.5129 -4.8071 -2.9988 0.9567
9.9030 -3.9413 -2.9988 0.9567
10.4450 -2.1230 -2.9989 0.9567
10.5926 -1.1849 -2.9989 0.9567
10.6560 -0.2374 -2.9989 0.9567
10.6348 0.7120 -2.9989 0.9567
10.3401 2.5863 -2.9989 0.9567
10.0689 3.4963 -2.9989 0.9567
8.8173 4.9606 -2.8464 0.9588
7.7980 6.4453 -2.8464 0.9588
7.1934 7.1137 -2.8464 0.9588
6.5316 7.7257 -2.8464 0.9588
5.8181 8.2763 -2.8464 0.9588
5.0583 8.7613 -2.8464 0.9588
2.5639 9.7861 -2.8463 0.9588
1.6826 9.9754 -2.8463 0.9588
0.7881 10.0855 -2.8463 0.9588
-0.1127 10.1155 -2.8462 0.9588
-4.4614 9.0788 -2.8461 0.9588
-5.2518 8.6456 -2.8461 0.9588
-7.3491 6.9508 -2.8461 0.9588
-8.9867 4.7955 -2.8659 0.9586
-10.1426 3.2706 -2.9984 0.9567
-10.3934 2.3549 -2.9984 0.9567
-10.6462 0.4748 -2.9983 0.9567
-10.1425 -3.2705 -2.9983 0.9567
-8.3635 -6.6045 -2.9984 0.9567
-7.0600 -7.9829 -2.9984 0.9567
-5.5328 -9.1083 -2.9984 0.9567
-2.9299 -10.2466 -2.9985 0.9567
-2.0063 -10.4668 -2.9985 0.9567
-0.1187 -10.6568 -2.9986 0.9567
2.7011 -10.3098 -2.9986 0.9567
3.6080 -10.0286 -2.9987 0.9567
5.3290 -9.2301 -2.9987 0.9567
6.1295 -8.7192 -2.9987 0.9567
6.8812 -8.1391 -2.9988 0.9567
7.5784 -7.4944 -2.9988 0.9567
8.7872 -6.0320 -2.9988 0.9567
10.0688 -3.4962 -2.9988 0.9567
10.5292 -1.6556 -2.9989 0.9567
10.6348 -0.7119 -2.9989 0.9567
10.4451 2.1231 -2.9989 0.9567
9.9031 3.9414 -2.9989 0.9567
8.5876 5.3484 -2.8464 0.9588
6.8693 7.4271 -2.8464 0.9588
5.4436 8.5272 -2.8464 0.9588
4.6630 8.9779 -2.8464 0.9588
2.9973 9.6622 -2.8463 0.9588
2.1254 9.8906 -2.8463 0.9588
1.2366 10.0404 -2.8463 0.9588
-1.4599 10.0102 -2.8462 0.9588
-4.8614 8.8710 -2.8461 0.9588
-5.6317 8.4030 -2.8461 0.9588
-8.2099 5.9092 -2.8460 0.9588
-8.7032 5.1550 -2.8460 0.9588
-9.9868 3.7192 -2.9984 0.9567
-10.6145 0.9486 -2.9983 0.9567
-9.8565 -1.7757 -2.9984 0.9590
-9.3855 -3.4952 -2.9984 0.9590
-9.0372 -4.3167 -2.9984 0.9590
-8.6171 -5.1039 -2.9984 0.9590
-8.1287 -5.8506 -2.9984 0.9590
-7.5757 -6.5509 -2.9984 0.9590
-6.9626 -7.1993 -2.9984 0.9590
-4.8133 -8.7831 -2.9985 0.9590
-4.0125 -9.1767 -2.9985 0.9590
-3.1798 -9.4975 -2.9985 0.9590
-2.3219 -9.7429 -2.9985 0.9590
-1.4455 -9.9109 -2.9985 0.9590
0.3347 -10.0104 -2.9986 0.9590
2.9676 -9.5664 -2.9986 0.9590
6.1197 -7.9295 -2.9987 0.9590
7.9974 -6.0311 -2.9988 0.9590
9.3068 -3.7040 -2.9988 0.9590
9.5996 -2.8609 -2.9988 0.9590
9.8161 -1.9952 -2.9988 0.9590
9.9548 -1.1136 -2.9989 0.9590
9.8953 1.5560 -2.9989 0.9590
9.7176 2.4306 -2.9989 0.9590
7.3285 6.0572 -2.8464 0.9611
6.7603 6.6854 -2.8464 0.9611
6.1384 7.2605 -2.8464 0.9611
5.4678 7.7781 -2.8464 0.9611
3.2185 8.9461 -2.8463 0.9611
1.5813 9.3748 -2.8463 0.9611
-0.9516 9.4593 -2.8462 0.9611
-2.6137 9.1406 -2.8462 0.9611
-3.4168 8.8716 -2.8462 0.9611
-4.9356 8.1252 -2.8461 0.9611
-5.6391 7.6535 -2.8461 0.9611
-6.9067 6.5324 -2.8461 0.9611
-7.4607 5.8916 -2.8460 0.9611
-7.9554 5.2043 -2.8460 0.9611
-9.5320 3.0737 -2.9984 0.9590
-9.9259 1.3349 -2.9984 0.9590
-10.0053 0.4462 -2.9984 0.9590
-9.2205 -3.9098 -2.9984 0.9590
-8.8360 -4.7150 -2.9984 0.9590
-7.2764 -6.8819 -2.9984 0.9590
-6.6350 -7.5023 -2.9984 0.9590
-5.1998 -8.5599 -2.9984 0.9590
-2.7536 -9.6297 -2.9985 0.9590
-1.8855 -9.8367 -2.9985 0.9590
4.2162 -9.0857 -2.9987 0.9590
5.0082 -8.6744 -2.9987 0.9590
5.7604 -8.1943 -2.9987 0.9590
6.4669 -7.6491 -2.9987 0.9590
7.1221 -7.0432 -2.9988 0.9590
7.7208 -6.3814 -2.9988 0.9590
8.2582 -5.6689 -2.9988 0.9590
8.7300 -4.9114 -2.9988 0.9590
9.7175 -2.4305 -2.9988 0.9590
9.8953 -1.5560 -2.9989 0.9590
9.9945 -0.6690 -2.9989 0.9590
10.0144 0.2232 -2.9989 0.9590
9.9548 1.1136 -2.9989 0.9590
9.8162 1.9953 -2.9989 0.9590
12.6670 6.4010 -4.2490 0.9425
7.5911 5.7247 -2.8464 0.9611
7.0514 6.3777 -2.8464 0.9611
5.1158 8.0139 -2.8464 0.9611
4.3822 8.4373 -2.8464 0.9611
1.9974 9.2951 -2.8463 0.9611
0.3177 9.5019 -2.8463 0.9611
-1.3720 9.4075 -2.8462 0.9611
-3.0182 9.0151 -2.8462 0.9611
-3.8086 8.7106 -2.8461 0.9611
-4.5688 8.3370 -2.8461 0.9611
-5.2926 7.8972 -2.8461 0.9611
-6.6089 6.8336 -2.8461 0.9611
-7.1908 6.2182 -2.8461 0.9611
-7.7157 5.5535 -2.8460 0.9611
-9.9755 0.8914 -2.9984 0.9590
-9.2916 -1.6739 -2.9984 0.9612
-8.8476 -3.2949 -2.9984 0.9612
-8.5192 -4.0693 -2.9984 0.9612
-7.6628 -5.5153 -2.9984 0.9612
-7.1415 -6.1755 -2.9984 0.9612
-6.5635 -6.7866 -2.9984 0.9612
-5.9335 -7.3439 -2.9984 0.9612
-5.2563 -7.8429 -2.9984 0.9612
-4.5374 -8.2797 -2.9985 0.9612
-2.9975 -8.9531 -2.9985 0.9611
-2.1888 -9.1844 -2.9985 0.9611
-1.3626 -9.3429 -2.9985 0.9611
-0.5257 -9.4271 -2.9986 0.9611
1.1542 -9.3711 -2.9986 0.9611
3.5890 -8.7334 -2.9987 0.9611
5.0807 -7.9587 -2.9987 0.9611
7.0030 -6.3338 -2.9988 0.9611
8.4276 -4.2586 -2.9988 0.9611
8.7733 -3.4916 -2.9988 0.9611
9.0493 -2.6969 -2.9988 0.9611
9.2534 -1.8808 -2.9988 0.9611
9.4403 -0.2103 -2.9988 0.9611
9.3281 1.4668 -2.9988 0.9611
8.9202 3.0975 -2.9988 0.9611
8.2297 4.6300 -2.9988 0.9611
7.3892 5.0724 -2.8464 0.9631
6.9084 5.7100 -2.8464 0.9631
6.3727 6.3021 -2.8464 0.9631
5.7865 6.8444 -2.8464 0.9631
5.1543 7.3322 -2.8464 0.9631
4.4812 7.7618 -2.8464 0.9631
3.0340 8.4332 -2.8463 0.9631
1.4907 8.8375 -2.8463 0.9631
0.6982 8.9350 -2.8463 0.9631
-0.8971 8.9171 -2.8462 0.9631
-1.6872 8.8018 -2.8462 0.9631
-2.4639 8.6167 -2.8462 0.9631
-3.2210 8.3631 -2.8462 0.9631
-3.9525 8.0432 -2.8461 0.9631
-5.3159 7.2149 -2.8461 0.9631
-5.9369 6.7130 -2.8461 0.9631
-6.5108 6.1579 -2.8461 0.9631
-7.4994 4.9059 -2.8460 0.9631
-8.3296 4.4448 -2.9984 0.9612
-8.6921 3.6858 -2.9984 0.9612
-9.4318 0.4206 -2.9984 0.9612
-9.3569 -1.2583 -2.9984 0.9612
-7.9009 -5.1685 -2.9984 0.9612
-7.4095 -5.8512 -2.9984 0.9612
-6.2547 -7.0722 -2.9984 0.9612
-5.6004 -7.6009 -2.9984 0.9612
-4.9017 -8.0693 -2.9985 0.9612
-3.3934 -8.8106 -2.9985 0.9611
-2.5957 -9.0777 -2.9985 0.9611
-0.9451 -9.3943 -2.9986 0.9611
2.3929 -9.1337 -2.9986 0.9611
3.1964 -8.8845 -2.9987 0.9611
4.7211 -8.1772 -2.9987 0.9611
5.4302 -7.7246 -2.9987 0.9611
6.0962 -7.2106 -2.9987 0.9611
9.1604 -2.2911 -2.9988 0.9611
9.3841 1.0498 -2.9988 0.9611
9.2535 1.8809 -2.9988 0.9611
8.4277 4.2587 -2.9988 0.9611
7.6078 4.7382 -2.8464 0.9631
7.1559 5.3965 -2.8464 0.9631
6.0857 6.5798 -2.8464 0.9631
4.1310 7.9537 -2.8463 0.9631
3.4067 8.2897 -2.8463 0.9631
1.8829 8.7623 -2.8463 0.9631
1.0955 8.8951 -2.8463 0.9631
-2.0776 8.7179 -2.8462 0.9631
-4.3069 7.8591 -2.8461 0.9631
-4.9892 7.4445 -2.8461 0.9631
-6.2301 6.4419 -2.8461 0.9631
-6.7787 5.8618 -2.8461 0.9631
-7.2734 5.2351 -2.8460 0.9631
-8.0557 4.7715 -2.9735 0.9615
-8.5193 4.0694 -2.9984 0.9612
-8.8477 3.2949 -2.9984 0.9612
-9.1058 2.4944 -2.9984 0.9612
-9.2916 1.6740 -2.9984 0.9612
-9.4037 0.8403 -2.9984 0.9612
-8.9242 0.0000 -2.9984 0.9630
-8.8888 -0.7943 -2.9984 0.9630
-8.6072 -2.3577 -2.9984 0.9630
-8.3632 -3.1145 -2.9984 0.9630
-7.6785 -4.5479 -2.9984 0.9630
-7.2432 -5.2133 -2.9984 0.9630
-5.6086 -6.9418 -2.9984 0.9630
-4.2889 -7.8263 -2.9985 0.9630
-3.5754 -8.1770 -2.9985 0.9630
1.0910 -8.8579 -2.9986 0.9630
1.8750 -8.7257 -2.9986 0.9630
2.6443 -8.5243 -2.9986 0.9630
3.3925 -8.2551 -2.9987 0.9630
5.4530 -7.0657 -2.9987 0.9630
6.0603 -6.5523 -2.9987 0.9630
7.5762 -4.7185 -2.9988 0.9630
7.9661 -4.0254 -2.9988 0.9630
8.2928 -3.3004 -2.9988 0.9630
8.7467 -1.7778 -2.9988 0.9630
8.9234 -0.1988 -2.9988 0.9630
8.8172 1.3865 -2.9988 0.9630
8.6588 2.1657 -2.9988 0.9630
7.7790 4.3764 -2.9988 0.9630
6.9846 4.7947 -2.8464 0.9649
6.5301 5.3973 -2.8464 0.9649
4.8721 6.9307 -2.8464 0.9649
4.2359 7.3367 -2.8463 0.9649
3.5660 7.6846 -2.8463 0.9649
2.8679 7.9715 -2.8463 0.9649
2.1470 8.1950 -2.8463 0.9649
1.4091 8.3536 -2.8463 0.9649
0.6600 8.4457 -2.8463 0.9649
-2.3289 8.1449 -2.8462 0.9649
-3.7361 7.6028 -2.8461 0.9649
-4.3979 7.2400 -2.8461 0.9649
-6.1543 5.8207 -2.8461 0.9649
-7.3007 4.7759 -2.9311 0.9639
-8.9154 -0.3975 -2.9984 0.9630
-8.7036 -1.9720 -2.9984 0.9630
-8.4936 -2.7388 -2.9984 0.9630
-7.0038 -5.5308 -2.9984 0.9630
-6.4838 -6.1323 -2.9984 0.9630
-4.6333 -7.6274 -2.9985 0.9630
-2.4536 -8.5807 -2.9985 0.9630
-1.6801 -8.7651 -2.9985 0.9630
-0.0994 -8.9242 -2.9986 0.9630
1.4845 -8.8006 -2.9986 0.9630
2.2619 -8.6336 -2.9986 0.9630
3.7569 -8.0959 -2.9987 0.9630
4.4626 -7.7294 -2.9987 0.9630
5.7624 -6.8157 -2.9987 0.9630
6.8796 -5.6861 -2.9988 0.9630
7.3585 -5.0512 -2.9988 0.9630
8.6588 -2.1656 -2.9988 0.9630
8.8172 -1.3864 -2.9988 0.9630
8.9056 -0.5961 -2.9988 0.9630
8.8703 0.9923 -2.9988 0.9630
8.7467 1.7779 -2.9988 0.9630
8.5538 2.5493 -2.9988 0.9630
8.2929 3.3005 -2.9988 0.9630
7.9662 4.0255 -2.9988 0.9630
7.5465 4.7000 -2.9870 0.9632
6.2832 5.6828 -2.8464 0.9649
5.7524 6.2195 -2.8464 0.9649
4.5585 7.1408 -2.8464 0.9649
3.9048 7.5182 -2.8463 0.9649
-1.2226 8.3827 -2.8462 0.9649
-1.9638 8.2405 -2.8462 0.9649
-4.0711 7.4288 -2.8461 0.9649
-5.3236 6.5892 -2.8461 0.9649
-5.8889 6.0891 -2.8461 0.9649
-7.6786 4.5480 -2.9984 0.9630
-8.0528 3.8465 -2.9984 0.9630
-8.7829 1.5823 -2.9984 0.9630
-8.8888 0.7943 -2.9984 0.9630
-8.4561 0.0000 -2.9984 0.9647
-8.1556 -2.2340 -2.9984 0.9647
-7.2756 -4.3093 -2.9984 0.9647
-6.8632 -4.9398 -2.9984 0.9647
-5.3143 -6.5776 -2.9985 0.9647
-2.6847 -8.0188 -2.9985 0.9647
0.2826 -8.4518 -2.9986 0.9647
1.0337 -8.3932 -2.9986 0.9647
2.5055 -8.0770 -2.9986 0.9647
3.8980 -7.5049 -2.9987 0.9647
4.5505 -7.1282 -2.9987 0.9647
5.1669 -6.6949 -2.9987 0.9647
7.8577 -3.1272 -2.9988 0.9647
8.2877 -1.6846 -2.9988 0.9647
8.4048 -0.9402 -2.9988 0.9647
8.4551 -0.1884 -2.9988 0.9647
7.9893 2.7742 -2.9988 0.9647
7.3708 4.1468 -2.9988 0.9647
4.6164 6.5670 -2.8463 0.9665
2.7174 7.5532 -2.8463 0.9665
-0.0894 8.0265 -2.8462 0.9665
-0.8035 7.9866 -2.8462 0.9665
-2.2067 7.7175 -2.8462 0.9665
-3.5401 7.2039 -2.8461 0.9665
-6.2992 4.9744 -2.8461 0.9665
-7.4604 3.9811 -2.9984 0.9647
-8.0480 2.5952 -2.9984 0.9647
-8.4477 0.3767 -2.9984 0.9647
-8.4476 -0.3767 -2.9984 0.9647
-8.3806 -1.1271 -2.9984 0.9647
-8.2470 -1.8685 -2.9984 0.9647
-8.0480 -2.5951 -2.9984 0.9647
-7.7851 -3.3011 -2.9984 0.9647
-7.4604 -3.9809 -2.9984 0.9647
-5.6021 -6.3343 -2.9984 0.9647
-5.0161 -6.8078 -2.9985 0.9647
-3.0393 -7.8913 -2.9985 0.9647
-2.3249 -8.1305 -2.9985 0.9647
-1.5920 -8.3052 -2.9985 0.9647
-0.8465 -8.4140 -2.9986 0.9647
-0.0942 -8.4560 -2.9986 0.9647
0.6588 -8.4309 -2.9986 0.9647
1.4066 -8.3388 -2.9986 0.9647
2.1432 -8.1806 -2.9986 0.9647
4.2284 -7.3238 -2.9987 0.9647
6.0132 -5.9466 -2.9987 0.9647
6.5187 -5.3878 -2.9988 0.9647
6.9724 -4.7862 -2.9988 0.9647
7.3707 -4.1467 -2.9988 0.9647
7.7106 -3.4742 -2.9988 0.9647
8.2045 -2.0520 -2.9988 0.9647
8.3546 -1.3137 -2.9988 0.9647
8.4383 -0.5649 -2.9988 0.9647
8.2878 1.6846 -2.9988 0.9647
8.1049 2.4156 -2.9988 0.9647
7.5482 3.8143 -2.9988 0.9647
7.1788 4.4710 -2.9988 0.9647
6.4091 4.8334 -2.8464 0.9665
4.9044 6.3549 -2.8464 0.9665
4.3193 6.7661 -2.8463 0.9665
3.0512 7.4247 -2.8463 0.9665
2.3782 7.6667 -2.8463 0.9665
1.6864 7.8479 -2.8463 0.9665
0.9812 7.9668 -2.8463 0.9665
-1.1584 7.9429 -2.8462 0.9665
-3.2157 7.3545 -2.8462 0.9665
-3.8575 7.0390 -2.8461 0.9665
-6.6393 4.7787 -2.9006 0.9659
-7.2757 4.3094 -2.9984 0.9647
-7.6304 3.6447 -2.9984 0.9647
-7.9245 2.9511 -2.9984 0.9647
-8.1556 2.2341 -2.9984 0.9647
-8.3221 1.4993 -2.9984 0.9647
-7.9979 -0.7146 -2.9984 0.9663
-7.9026 -1.4237 -2.9984 0.9663
-7.7445 -2.1214 -2.9984 0.9663
-7.5249 -2.8022 -2.9984 0.9663
-7.2457 -3.4609 -2.9984 0.9663
-5.5823 -5.7720 -2.9984 0.9663
-5.0464 -6.2460 -2.9985 0.9663
-3.2170 -7.3574 -2.9985 0.9663
-0.4471 -8.0177 -2.9986 0.9663
0.2683 -8.0257 -2.9986 0.9663
2.3792 -7.6698 -2.9986 0.9663
4.3211 -6.7688 -2.9987 0.9663
4.9064 -6.3574 -2.9987 0.9663
5.4528 -5.8955 -2.9987 0.9663
5.9560 -5.3868 -2.9987 0.9663
6.4118 -4.8354 -2.9988 0.9663
7.1676 -3.6219 -2.9988 0.9663
7.4616 -2.9696 -2.9988 0.9663
7.8699 -1.5996 -2.9988 0.9663
8.0289 -0.1789 -2.9988 0.9663
8.0129 0.5364 -2.9988 0.9663
7.5865 2.6344 -2.9988 0.9663
7.3219 3.2991 -2.9988 0.9663
6.9992 3.9377 -2.9988 0.9663
6.6209 4.5450 -2.9988 0.9663
5.8755 4.8563 -2.8464 0.9680
5.4199 5.3599 -2.8464 0.9680
4.9213 5.8211 -2.8464 0.9680
3.8113 6.6013 -2.8463 0.9680
2.5804 7.1724 -2.8463 0.9680
1.2678 7.5162 -2.8463 0.9680
0.5938 7.5992 -2.8463 0.9680
-0.0849 7.6218 -2.8462 0.9680
-1.4349 7.4859 -2.8462 0.9680
-2.0955 7.3285 -2.8462 0.9680
-2.7394 7.1128 -2.8462 0.9680
-3.3616 6.8407 -2.8462 0.9680
-4.5212 6.1362 -2.8461 0.9680
-5.0494 5.7094 -2.8461 0.9680
-6.0528 4.7799 -2.8800 0.9676
-7.0844 3.7804 -2.9984 0.9663
-7.6423 2.4644 -2.9984 0.9663
-7.9581 1.0703 -2.9984 0.9663
-8.0218 0.3577 -2.9984 0.9663
-8.0218 -0.3577 -2.9984 0.9663
-7.8313 -1.7743 -2.9984 0.9663
-7.6423 -2.4643 -2.9984 0.9663
-7.0843 -3.7803 -2.9984 0.9663
-5.3197 -6.0150 -2.9985 0.9663
-4.7632 -6.4646 -2.9985 0.9663
-3.5415 -7.2068 -2.9985 0.9663
-2.8861 -7.4935 -2.9985 0.9663
-1.5117 -7.8865 -2.9985 0.9663
0.6256 -8.0058 -2.9986 0.9663
1.3357 -7.9185 -2.9986 0.9663
3.3803 -7.2843 -2.9987 0.9663
7.7908 -1.9486 -2.9988 0.9663
8.0129 -0.5364 -2.9988 0.9663
7.8699 1.5997 -2.9988 0.9663
7.6963 2.2938 -2.9988 0.9663
6.2550 4.7171 -2.9254 0.9671
5.6533 5.1132 -2.8464 0.9680
4.6571 6.0345 -2.8463 0.9680
4.1016 6.4250 -2.8463 0.9680
2.8974 7.0504 -2.8463 0.9680
2.2583 7.2802 -2.8463 0.9680
0.9317 7.5652 -2.8463 0.9680
-0.4244 7.6104 -2.8462 0.9680
-1.7670 7.4146 -2.8462 0.9680
-2.4199 7.2278 -2.8462 0.9680
-3.0536 6.9837 -2.8462 0.9680
-5.2987 5.4788 -2.8461 0.9680
-5.7653 4.9854 -2.8461 0.9680
-7.5250 2.8024 -2.9984 0.9663
-7.7445 2.1215 -2.9984 0.9663
-7.6399 0.0000 -2.9984 0.9677
-7.1595 -2.6662 -2.9984 0.9677
-5.3112 -5.4918 -2.9985 0.9677
-4.8014 -5.9427 -2.9985 0.9677
-3.6717 -6.6999 -2.9985 0.9677
-1.7711 -7.4320 -2.9985 0.9677
0.2553 -7.6360 -2.9986 0.9677
0.9339 -7.5830 -2.9986 0.9677
2.9042 -7.0669 -2.9987 0.9677
3.5217 -6.7804 -2.9987 0.9677
4.1112 -6.4401 -2.9987 0.9677
5.1880 -5.6092 -2.9987 0.9677
6.1004 -4.6005 -2.9987 0.9677
6.4857 -4.0393 -2.9988 0.9677
6.8195 -3.4460 -2.9988 0.9677
7.4877 -1.5219 -2.9988 0.9677
7.6238 0.5104 -2.9988 0.9677
7.4125 1.8540 -2.9988 0.9677
7.2180 2.5064 -2.9988 0.9677
6.6593 3.7465 -2.9988 0.9677
6.2994 4.3243 -2.9988 0.9677
4.1708 5.9331 -2.8463 0.9693
3.6262 6.2807 -2.8463 0.9693
3.0527 6.5786 -2.8463 0.9693
1.8380 7.0155 -2.8463 0.9693
1.2063 7.1512 -2.8463 0.9693
-0.7259 7.2157 -2.8462 0.9693
-1.3652 7.1224 -2.8462 0.9693
-1.9937 6.9726 -2.8462 0.9693
-2.6064 6.7674 -2.8462 0.9693
-3.7649 6.1980 -2.8461 0.9693
-4.8042 5.4322 -2.8461 0.9693
-5.9959 4.7349 -2.9985 0.9677
-6.3935 4.1824 -2.9985 0.9677
-6.7403 3.5968 -2.9985 0.9677
-7.5717 1.0183 -2.9984 0.9677
-7.6323 0.3404 -2.9984 0.9677
-7.5717 -1.0182 -2.9984 0.9677
-7.2712 -2.3446 -2.9984 0.9677
-7.0336 -2.9825 -2.9984 0.9677
-5.5506 -5.2496 -2.9985 0.9677
-5.0613 -5.7229 -2.9985 0.9677
-3.9665 -6.5297 -2.9985 0.9677
-3.3696 -6.8569 -2.9985 0.9677
-1.4383 -7.5035 -2.9985 0.9677
-0.7648 -7.6018 -2.9986 0.9677
1.2708 -7.5339 -2.9986 0.9677
2.5865 -7.1893 -2.9986 0.9677
3.2161 -6.9306 -2.9987 0.9677
3.8203 -6.6168 -2.9987 0.9677
4.3941 -6.2506 -2.9987 0.9677
4.9330 -5.8347 -2.9987 0.9677
6.6592 -3.7464 -2.9988 0.9677
7.2180 -2.5063 -2.9988 0.9677
7.4124 -1.8539 -2.9988 0.9677
7.5481 -1.1869 -2.9988 0.9677
7.6389 0.1702 -2.9988 0.9677
7.5935 0.8495 -2.9988 0.9677
7.3225 2.1824 -2.9988 0.9677
6.4858 4.0394 -2.9988 0.9677
6.1005 4.6006 -2.9988 0.9677
4.9244 5.3243 -2.8464 0.9693
2.7567 6.7080 -2.8463 0.9693
0.2423 7.2481 -2.8462 0.9693
-0.4037 7.2409 -2.8462 0.9693
-1.0466 7.1761 -2.8462 0.9693
-2.3024 6.8768 -2.8462 0.9693
-3.4851 6.3596 -2.8461 0.9693
-4.0373 6.0241 -2.8461 0.9693
-4.5574 5.6408 -2.8461 0.9693
-5.0414 5.2128 -2.8461 0.9693
-5.5275 4.7798 -2.8680 0.9691
-6.2008 4.4631 -2.9985 0.9677
-7.1596 2.6663 -2.9984 0.9677
-7.5188 1.3546 -2.9984 0.9677
-7.6095 0.6800 -2.9984 0.9677
-7.2816 0.0000 -2.9984 0.9690
-7.2527 -0.6481 -2.9984 0.9690
-7.1662 -1.2910 -2.9984 0.9690
-7.0229 -1.9237 -2.9984 0.9690
-6.2651 -3.7108 -2.9984 0.9690
-5.9100 -4.2537 -2.9984 0.9690
-5.5079 -4.7629 -2.9985 0.9690
-5.0622 -5.2342 -2.9985 0.9690
-2.9172 -6.6719 -2.9985 0.9690
-1.6881 -7.0835 -2.9985 0.9690
-1.0509 -7.2056 -2.9986 0.9690
1.5299 -7.1195 -2.9986 0.9690
2.1575 -6.9551 -2.9986 0.9690
2.7680 -6.7355 -2.9987 0.9690
3.9184 -6.1381 -2.9987 0.9690
4.4492 -5.7650 -2.9987 0.9690
4.9447 -5.3462 -2.9987 0.9690
7.1365 -1.4505 -2.9988 0.9690
7.2373 -0.8096 -2.9988 0.9690
7.2807 -0.1622 -2.9988 0.9690
7.2662 0.4864 -2.9988 0.9690
6.8795 2.3888 -2.9988 0.9690
6.6396 2.9917 -2.9988 0.9690
4.9149 4.8604 -2.8464 0.9705
4.4627 5.2786 -2.8463 0.9705
3.9752 5.6548 -2.8463 0.9705
3.4561 5.9862 -2.8463 0.9705
2.9096 6.2700 -2.8463 0.9705
2.3400 6.5040 -2.8463 0.9705
0.5385 6.8911 -2.8462 0.9705
-0.6919 6.8773 -2.8462 0.9705
-1.3012 6.7884 -2.8462 0.9705
-2.4842 6.4500 -2.8462 0.9705
-3.0484 6.2033 -2.8462 0.9705
-4.5789 5.1775 -2.8461 0.9705
-6.9303 2.2347 -2.9984 0.9690
-7.2744 0.3244 -2.9984 0.9690
-7.2166 -0.9705 -2.9984 0.9690
-7.1016 -1.6090 -2.9984 0.9690
-6.9302 -2.2347 -2.9984 0.9690
-5.7146 -4.5128 -2.9985 0.9690
-5.2903 -5.0035 -2.9985 0.9690
-4.3194 -5.8623 -2.9985 0.9690
-3.2116 -6.5353 -2.9985 0.9690
-2.6171 -6.7952 -2.9985 0.9690
-2.0020 -7.0012 -2.9985 0.9690
-1.3709 -7.1517 -2.9985 0.9690
-0.7289 -7.2453 -2.9986 0.9690
-0.0811 -7.2815 -2.9986 0.9690
1.8455 -7.0443 -2.9986 0.9690
4.7016 -5.5611 -2.9987 0.9690
5.1780 -5.1206 -2.9987 0.9690
6.6396 -2.9916 -2.9988 0.9690
7.0648 -1.7670 -2.9988 0.9690
7.1941 -1.1312 -2.9988 0.9690
7.2662 -0.4864 -2.9988 0.9690
7.2807 0.1623 -2.9988 0.9690
7.2374 0.8096 -2.9988 0.9690
6.1816 3.8500 -2.9988 0.9690
5.8144 4.3849 -2.9988 0.9690
4.6935 5.0746 -2.8463 0.9705
3.7194 5.8263 -2.8463 0.9705
3.1860 6.1342 -2.8463 0.9705
2.0479 6.6018 -2.8463 0.9705
1.4522 6.7579 -2.8463 0.9705
-2.7690 6.3330 -2.8462 0.9705
-3.3217 6.0613 -2.8461 0.9705
-5.9101 4.2538 -2.9985 0.9690
-6.2652 3.7109 -2.9985 0.9690
-6.5706 3.1385 -2.9985 0.9690
-7.1663 1.2911 -2.9984 0.9690
-7.2527 0.6481 -2.9984 0.9690
-6.9512 0.0000 -2.9984 0.9702
-6.8410 -1.2324 -2.9984 0.9702
-6.7042 -1.8364 -2.9984 0.9702
-5.9808 -3.5424 -2.9984 0.9702
-4.8324 -4.9967 -2.9985 0.9702
-3.8700 -5.7744 -2.9985 0.9702
-2.7849 -6.3691 -2.9985 0.9702
-2.2069 -6.5917 -2.9985 0.9702
-1.6115 -6.7620 -2.9985 0.9702
-0.3870 -6.9407 -2.9986 0.9702
0.8497 -6.8994 -2.9986 0.9702
3.2042 -6.1692 -2.9987 0.9702
3.7406 -5.8595 -2.9987 0.9702
4.2473 -5.5034 -2.9987 0.9702
5.1558 -4.6631 -2.9987 0.9702
5.5504 -4.1858 -2.9987 0.9702
6.4591 -2.5706 -2.9988 0.9702
6.6623 -1.9856 -2.9988 0.9702
6.9502 -0.1548 -2.9988 0.9702
6.7442 1.6869 -2.9988 0.9702
6.5673 2.2804 -2.9988 0.9702
6.3383 2.8559 -2.9988 0.9702
6.0589 3.4087 -2.9988 0.9702
4.7812 4.7283 -2.9006 0.9711
4.2602 5.0390 -2.8463 0.9717
3.2993 5.7145 -2.8463 0.9717
2.2338 6.2089 -2.8463 0.9717
1.6723 6.3830 -2.8463 0.9717
1.0975 6.5065 -2.8463 0.9717
-0.0735 6.5979 -2.8462 0.9717
-0.6605 6.5652 -2.8462 0.9717
-1.2422 6.4803 -2.8462 0.9717
-2.3714 6.1573 -2.8462 0.9717
-2.9100 5.9218 -2.8462 0.9717
-3.9138 5.3120 -2.8461 0.9717
-5.0284 4.7559 -2.9855 0.9703
-5.4554 4.3081 -2.9985 0.9702
-5.8171 3.8054 -2.9985 0.9702
-6.3996 2.7137 -2.9985 0.9702
-6.6157 2.1333 -2.9985 0.9702
-6.8891 0.9265 -2.9984 0.9702
-6.9443 0.3097 -2.9984 0.9702
-6.7793 -1.5360 -2.9984 0.9702
-6.1327 -3.2725 -2.9984 0.9702
-5.8171 -3.8053 -2.9985 0.9702
-5.0502 -4.7764 -2.9985 0.9702
-4.1234 -5.5962 -2.9985 0.9702
-3.0658 -6.2387 -2.9985 0.9702
-0.6958 -6.9165 -2.9986 0.9702
-0.0774 -6.9510 -2.9986 0.9702
0.5416 -6.9304 -2.9986 0.9702
1.1563 -6.8547 -2.9986 0.9702
2.3533 -6.5412 -2.9986 0.9702
2.9262 -6.3058 -2.9987 0.9702
3.4759 -6.0203 -2.9987 0.9702
3.9979 -5.6871 -2.9987 0.9702
4.9430 -4.8882 -2.9987 0.9702
5.7314 -3.9344 -2.9987 0.9702
6.7442 -1.6868 -2.9988 0.9702
6.8676 -1.0799 -2.9988 0.9702
6.9364 -0.4643 -2.9988 0.9702
6.8127 1.3848 -2.9988 0.9702
6.4592 2.5707 -2.9988 0.9702
6.2047 3.1354 -2.9988 0.9702
5.5505 4.1859 -2.9988 0.9702
5.1559 4.6632 -2.9988 0.9702
4.0315 5.2238 -2.8463 0.9717
3.5505 5.5619 -2.8463 0.9717
3.0414 5.8558 -2.8463 0.9717
1.9550 6.3022 -2.8463 0.9717
-0.3673 6.5881 -2.8462 0.9717
-0.9523 6.5292 -2.8462 0.9717
-1.5296 6.4185 -2.8462 0.9717
-3.6733 5.4811 -2.8461 0.9717
-4.1466 5.1323 -2.8461 0.9717
-4.6191 4.7762 -2.8661 0.9715
-5.2580 4.5469 -2.9985 0.9702
-6.2724 2.9961 -2.9985 0.9702
-6.7042 1.8365 -2.9984 0.9702
-6.6452 0.0000 -2.9984 0.9713
-6.4091 -1.7556 -2.9984 0.9713
-5.9963 -2.8641 -2.9984 0.9713
-5.0266 -4.3466 -2.9985 0.9713
-4.6198 -4.7768 -2.9985 0.9713
-4.1763 -5.1690 -2.9985 0.9713
-2.6623 -6.0888 -2.9985 0.9713
-2.1098 -6.3016 -2.9985 0.9713
-1.5406 -6.4644 -2.9985 0.9713
-0.3700 -6.6352 -2.9986 0.9713
0.2221 -6.6418 -2.9986 0.9713
1.3962 -6.4973 -2.9986 0.9713
1.9689 -6.3473 -2.9986 0.9713
2.5261 -6.1468 -2.9987 0.9713
3.0632 -5.8977 -2.9987 0.9713
3.5760 -5.6016 -2.9987 0.9713
5.3061 -4.0015 -2.9987 0.9713
6.6311 0.4440 -2.9988 0.9713
6.5653 1.0324 -2.9988 0.9713
6.4474 1.6126 -2.9988 0.9713
6.2782 2.1801 -2.9988 0.9713
6.0593 2.7302 -2.9988 0.9713
5.7922 3.2587 -2.9988 0.9713
4.0727 4.8173 -2.8463 0.9727
3.1540 5.4630 -2.8463 0.9727
2.6553 5.7220 -2.8463 0.9727
1.5987 6.1021 -2.8463 0.9727
-0.0703 6.3075 -2.8462 0.9727
-1.1875 6.1951 -2.8462 0.9727
-6.3246 2.0395 -2.9985 0.9713
-6.4810 1.4684 -2.9985 0.9713
-6.5859 -0.8857 -2.9984 0.9713
-6.4810 -1.4684 -2.9984 0.9713
-6.3246 -2.0394 -2.9984 0.9713
-5.5611 -3.6379 -2.9985 0.9713
-4.8280 -4.5662 -2.9985 0.9713
-4.4024 -4.9778 -2.9985 0.9713
-3.9419 -5.3499 -2.9985 0.9713
-2.9309 -5.9641 -2.9985 0.9713
-2.3884 -6.2013 -2.9985 0.9713
-1.8270 -6.3893 -2.9985 0.9713
-1.2511 -6.5266 -2.9986 0.9713
-0.0740 -6.6451 -2.9986 0.9713
0.5177 -6.6253 -2.9986 0.9713
1.6842 -6.4286 -2.9986 0.9713
2.2497 -6.2532 -2.9986 0.9713
2.7974 -6.0282 -2.9987 0.9713
5.4791 -3.7612 -2.9987 0.9713
5.7922 -3.2586 -2.9987 0.9713
6.6311 -0.4439 -2.9988 0.9713
6.6048 0.7389 -2.9988 0.9713
6.5128 1.3238 -2.9988 0.9713
6.3691 1.8982 -2.9988 0.9713
6.1749 2.4576 -2.9988 0.9713
5.9316 2.9974 -2.9988 0.9713
5.6413 3.5135 -2.9988 0.9713
5.3062 4.0016 -2.9988 0.9713
4.9290 4.4580 -2.9987 0.9713
3.8541 4.9938 -2.8463 0.9727
3.3943 5.3171 -2.8463 0.9727
1.3253 6.1672 -2.8463 0.9727
0.2108 6.3044 -2.8462 0.9727
-1.4623 6.1360 -2.8462 0.9727
-2.5270 5.7795 -2.8462 0.9727
-3.5117 5.2398 -2.8461 0.9727
-5.3935 3.8821 -2.9985 0.9713
-5.9964 2.8642 -2.9985 0.9713
-6.2275 2.3191 -2.9985 0.9713
-6.4092 1.7557 -2.9985 0.9713
-6.3611 0.0000 -2.9985 0.9723
-6.3358 -0.5661 -2.9984 0.9723
-6.1350 -1.6805 -2.9985 0.9723
-5.9611 -2.2199 -2.9985 0.9723
-5.7399 -2.7417 -2.9985 0.9723
-4.8116 -4.1607 -2.9985 0.9723
-3.9977 -4.9479 -2.9985 0.9723
-3.0571 -5.5784 -2.9985 0.9723
-2.5484 -5.8284 -2.9985 0.9723
-1.4747 -6.1879 -2.9985 0.9723
-0.9181 -6.2946 -2.9986 0.9723
-0.3542 -6.3514 -2.9986 0.9723
0.7776 -6.3136 -2.9986 0.9723
1.3365 -6.2194 -2.9986 0.9723
2.9322 -5.6454 -2.9987 0.9723
3.4230 -5.3620 -2.9987 0.9723
3.8867 -5.0361 -2.9987 0.9723
4.7181 -4.2672 -2.9987 0.9723
5.0792 -3.8304 -2.9987 0.9723
5.4000 -3.3631 -2.9987 0.9723
5.6779 -2.8691 -2.9987 0.9723
5.9108 -2.3524 -2.9987 0.9723
6.2342 -1.2671 -2.9988 0.9723
6.3223 -0.7072 -2.9988 0.9723
6.3475 0.4249 -2.9988 0.9723
6.2845 0.9882 -2.9988 0.9723
6.0097 2.0868 -2.9988 0.9723
3.4726 4.9399 -2.8463 0.9737
0.4704 6.0198 -2.8462 0.9737
-0.0673 6.0378 -2.8462 0.9737
-3.1347 5.1605 -2.8462 0.9737
-4.2021 4.7514 -2.9899 0.9723
-5.6121 2.9947 -2.9985 0.9723
-5.8563 2.4833 -2.9985 0.9723
-6.0541 1.9522 -2.9985 0.9723
-6.3043 0.8479 -2.9985 0.9723
-6.3547 -0.2833 -2.9984 0.9723
-6.0541 -1.9522 -2.9985 0.9723
-5.8563 -2.4832 -2.9985 0.9723
-5.3232 -3.4823 -2.9985 0.9723
-2.2863 -5.9361 -2.9985 0.9723
-1.7489 -6.1161 -2.9985 0.9723
-1.1976 -6.2475 -2.9986 0.9723
1.0581 -6.2728 -2.9986 0.9723
1.6122 -6.1537 -2.9986 0.9723
3.1808 -5.5092 -2.9987 0.9723
4.1072 -4.8580 -2.9987 0.9723
4.9035 -4.0528 -2.9987 0.9723
5.2448 -3.6004 -2.9987 0.9723
5.8001 -2.6134 -2.9987 0.9723
6.0097 -2.0868 -2.9988 0.9723
6.1716 -1.5436 -2.9988 0.9723
6.2845 -0.9882 -2.9988 0.9723
6.3475 -0.4249 -2.9988 0.9723
6.3602 0.1418 -2.9988 0.9723
6.3223 0.7073 -2.9988 0.9723
6.2343 1.2672 -2.9988 0.9723
6.0967 1.8171 -2.9988 0.9723
5.9108 2.3525 -2.9988 0.9723
5.0793 3.8305 -2.9988 0.9723
4.7182 4.2673 -2.9987 0.9723
3.6892 4.7803 -2.8463 0.9737
3.2491 5.0897 -2.8463 0.9737
2.7832 5.3587 -2.8463 0.9737
1.2686 5.9035 -2.8463 0.9737
0.7381 5.9929 -2.8463 0.9737
-0.3362 6.0288 -2.8462 0.9737
-1.3997 5.8736 -2.8462 0.9737
-1.9170 5.7257 -2.8462 0.9737
-2.4189 5.5323 -2.8462 0.9737
-3.3615 5.0157 -2.8461 0.9737
-3.8526 4.7684 -2.8896 0.9733
-4.4223 4.5726 -2.9985 0.9723
-4.8117 4.1608 -2.9985 0.9723
-5.1629 3.7161 -2.9985 0.9723
-5.4731 3.2418 -2.9985 0.9723
-5.7399 2.7418 -2.9985 0.9723
-6.2603 1.1279 -2.9985 0.9723
-6.3358 0.5662 -2.9985 0.9723
-6.0962 0.0000 -2.9985 0.9732
-5.9996 -1.0809 -2.9985 0.9732
-5.8796 -1.6105 -2.9985 0.9732
-5.7129 -2.1275 -2.9985 0.9732
-4.9479 -3.5612 -2.9985 0.9732
-4.6113 -3.9875 -2.9985 0.9732
-3.3940 -5.0642 -2.9985 0.9732
-2.9298 -5.3462 -2.9985 0.9732
-0.8798 -6.0326 -2.9986 0.9732
0.7452 -6.0508 -2.9986 0.9732
1.2808 -5.9605 -2.9986 0.9732
2.3174 -5.6390 -2.9986 0.9732
3.2805 -5.1388 -2.9987 0.9732
4.5217 -4.0896 -2.9987 0.9732
5.1752 -3.2231 -2.9987 0.9732
5.4415 -2.7497 -2.9987 0.9732
6.0953 -0.1358 -2.9988 0.9732
5.9147 1.4794 -2.9988 0.9732
5.7595 1.9999 -2.9988 0.9732
4.6994 3.8842 -2.9987 0.9732
3.9362 4.6558 -2.9987 0.9732
3.3381 4.7485 -2.8549 0.9745
2.8934 5.0116 -2.8463 0.9745
2.4359 5.2492 -2.8463 0.9745
1.9590 5.4452 -2.8463 0.9745
1.4666 5.5979 -2.8463 0.9745
0.4508 5.7692 -2.8462 0.9745
-1.5909 5.5637 -2.8462 0.9745
-2.5521 5.1934 -2.8462 0.9745
-3.5095 4.7631 -2.9100 0.9740
-4.0387 4.5667 -2.9985 0.9732
-4.4291 4.1891 -2.9985 0.9732
-5.6125 2.3800 -2.9985 0.9732
-5.8021 1.8710 -2.9985 0.9732
-5.9456 1.3471 -2.9985 0.9732
-6.0418 0.8126 -2.9985 0.9732
-5.9455 -1.3470 -2.9985 0.9732
-5.8020 -1.8709 -2.9985 0.9732
-5.6125 -2.3799 -2.9985 0.9732
-5.3784 -2.8700 -2.9985 0.9732
-5.1016 -3.3373 -2.9985 0.9732
-4.0387 -4.5665 -2.9985 0.9732
-3.1650 -5.2104 -2.9985 0.9732
-2.6887 -5.4714 -2.9985 0.9732
-2.1911 -5.6890 -2.9985 0.9732
-1.6760 -5.8615 -2.9985 0.9732
-1.1477 -5.9874 -2.9986 0.9732
-0.6102 -6.0658 -2.9986 0.9732
-0.0679 -6.0961 -2.9986 0.9732
0.4749 -6.0779 -2.9986 0.9732
1.5451 -5.8975 -2.9986 0.9732
2.0639 -5.7366 -2.9986 0.9732
2.5663 -5.5301 -2.9987 0.9732
3.0484 -5.2798 -2.9987 0.9732
5.5586 -2.5045 -2.9987 0.9732
5.7595 -1.9999 -2.9987 0.9732
5.9146 -1.4793 -2.9988 0.9732
6.0228 -0.9470 -2.9988 0.9732
6.0832 -0.4072 -2.9988 0.9732
5.9747 1.2144 -2.9988 0.9732
5.8429 1.7414 -2.9988 0.9732
5.4415 2.7497 -2.9988 0.9732
4.5217 4.0897 -2.9987 0.9732
3.6478 4.7266 -2.9366 0.9737
3.1138 4.8778 -2.8463 0.9745
2.6673 5.1355 -2.8463 0.9745
1.7145 5.5271 -2.8463 0.9745
1.2158 5.6577 -2.8463 0.9745
0.7074 5.7434 -2.8462 0.9745
-0.8351 5.7262 -2.8462 0.9745
-1.3415 5.6291 -2.8462 0.9745
-2.7809 5.0746 -2.8462 0.9745
-3.2215 4.8069 -2.8461 0.9745
-3.8313 4.7421 -2.9985 0.9732
-5.5009 2.6276 -2.9985 0.9732
-5.8796 1.6106 -2.9985 0.9732
-6.0720 0.5426 -2.9985 0.9732
-5.8487 0.0000 -2.9985 0.9741
-5.8255 -0.5205 -2.9985 0.9741
-5.2776 -2.5208 -2.9985 0.9741
-4.0660 -4.2042 -2.9985 0.9741
-3.2562 -4.8586 -2.9985 0.9741
-0.8441 -5.7877 -2.9986 0.9741
0.1954 -5.8457 -2.9986 0.9741
1.2288 -5.7184 -2.9986 0.9741
2.6960 -5.1907 -2.9987 0.9741
3.5736 -4.6305 -2.9987 0.9741
3.9716 -4.2940 -2.9987 0.9741
4.3381 -3.9235 -2.9987 0.9741
4.6701 -3.5218 -2.9987 0.9741
5.2206 -2.6380 -2.9987 0.9741
5.4347 -2.1629 -2.9987 0.9741
5.6056 -1.6706 -2.9987 0.9741
5.8362 0.3907 -2.9988 0.9740
5.6745 1.4193 -2.9988 0.9740
5.5256 1.9187 -2.9988 0.9740
5.0979 2.8681 -2.9987 0.9740
4.8224 3.3104 -2.9987 0.9740
4.5086 3.7265 -2.9987 0.9741
3.3206 4.7237 -2.9602 0.9744
2.3370 5.0361 -2.8463 0.9754
1.4070 5.3706 -2.8463 0.9754
0.9234 5.4745 -2.8463 0.9754
-0.0618 5.5515 -2.8462 0.9754
-0.5557 5.5239 -2.8462 0.9754
-1.5263 5.3378 -2.8462 0.9754
-1.9953 5.1807 -2.8462 0.9754
-3.8748 4.3813 -2.9985 0.9741
-5.3847 2.2833 -2.9985 0.9741
-5.5665 1.7950 -2.9985 0.9741
-5.8429 0.2606 -2.9985 0.9741
-5.7965 -0.7795 -2.9985 0.9741
-5.7041 -1.2924 -2.9985 0.9741
-5.5665 -1.7949 -2.9985 0.9741
-5.3846 -2.2832 -2.9985 0.9741
-4.8945 -3.2018 -2.9985 0.9741
-4.5901 -3.6247 -2.9985 0.9741
-2.5796 -5.2492 -2.9985 0.9741
-1.1011 -5.7443 -2.9986 0.9741
-0.5855 -5.8195 -2.9986 0.9741
-0.0652 -5.8486 -2.9986 0.9741
0.4557 -5.8312 -2.9986 0.9741
0.9729 -5.7675 -2.9986 0.9741
1.9801 -5.5037 -2.9986 0.9741
2.9246 -5.0655 -2.9987 0.9741
3.7764 -4.4667 -2.9987 0.9741
4.5085 -3.7264 -2.9987 0.9741
5.0978 -2.8680 -2.9987 0.9741
5.3329 -2.4029 -2.9987 0.9741
5.5256 -1.9187 -2.9987 0.9741
5.6745 -1.4192 -2.9987 0.9741
5.8478 0.1304 -2.9988 0.9740
5.4347 2.1630 -2.9988 0.9740
4.9651 3.0923 -2.9987 0.9740
4.6701 3.5219 -2.9987 0.9740
4.3381 3.9236 -2.9987 0.9741
3.5737 4.6306 -2.9987 0.9741
3.0255 4.7394 -2.8826 0.9750
2.5590 4.9270 -2.8463 0.9754
1.6449 5.3026 -2.8463 0.9754
0.1855 5.5487 -2.8462 0.9754
-0.8012 5.4937 -2.8462 0.9754
-1.7626 5.2645 -2.8462 0.9754
-3.1880 4.7569 -2.9358 0.9746
-5.0323 2.9807 -2.9985 0.9741
-5.2776 2.5209 -2.9985 0.9741
-5.4810 2.0412 -2.9985 0.9741
-5.6409 1.5452 -2.9985 0.9741
-5.7561 1.0371 -2.9985 0.9741
-5.6168 0.0000 -2.9985 0.9749
-5.5278 -0.9958 -2.9985 0.9749
-4.8327 -2.8624 -2.9985 0.9749
-3.9048 -4.0375 -2.9985 0.9749
-3.5299 -4.3690 -2.9985 0.9749
-3.1271 -4.6658 -2.9985 0.9749
-2.2502 -5.1464 -2.9985 0.9749
0.1877 -5.6138 -2.9986 0.9749
0.6866 -5.5748 -2.9986 0.9749
1.1801 -5.4916 -2.9986 0.9749
1.6642 -5.3648 -2.9986 0.9749
2.1351 -5.1954 -2.9986 0.9749
2.5891 -4.9848 -2.9987 0.9749
3.0225 -4.7346 -2.9987 0.9749
4.1660 -3.7679 -2.9987 0.9749
4.4848 -3.3822 -2.9987 0.9749
5.3833 -1.6044 -2.9987 0.9749
5.5047 -1.1188 -2.9987 0.9749
5.5825 -0.6245 -2.9987 0.9749
5.6047 0.3752 -2.9988 0.9749
5.5491 0.8726 -2.9988 0.9749
5.4494 1.3630 -2.9988 0.9749
5.1214 2.3077 -2.9987 0.9749
4.8957 2.7543 -2.9987 0.9749
4.3298 3.5787 -2.9987 0.9749
3.6266 4.2896 -2.9987 0.9749
3.2304 4.5954 -2.9987 0.9749
2.7332 4.7341 -2.9182 0.9755
2.2443 4.8363 -2.8463 0.9761
1.8049 5.0169 -2.8463 0.9761
1.3512 5.1576 -2.8463 0.9761
0.8868 5.2574 -2.8463 0.9761
-0.5337 5.3048 -2.8462 0.9761
-1.0037 5.2362 -2.8462 0.9761
-1.4658 5.1261 -2.8462 0.9761
-1.9162 4.9753 -2.8462 0.9761
-2.3514 4.7850 -2.8462 0.9761
-3.3318 4.5220 -2.9985 0.9749
-4.0808 3.8596 -2.9985 0.9749
-4.9554 2.6443 -2.9985 0.9749
-5.4779 -1.2411 -2.9985 0.9749
-5.1711 -2.1927 -2.9985 0.9749
-4.4081 -3.4810 -2.9985 0.9749
-4.0807 -3.8595 -2.9985 0.9749
-3.7210 -4.2074 -2.9985 0.9749
-3.3318 -4.5219 -2.9985 0.9749
-1.5442 -5.4004 -2.9986 0.9749
-1.0574 -5.5165 -2.9986 0.9749
-0.5622 -5.5887 -2.9986 0.9749
0.9343 -5.5387 -2.9986 0.9749
1.9015 -5.2854 -2.9986 0.9749
2.3644 -5.0952 -2.9987 0.9749
3.9940 -3.9497 -2.9987 0.9749
4.3297 -3.5786 -2.9987 0.9749
4.6311 -3.1790 -2.9987 0.9749
5.5491 -0.8725 -2.9987 0.9749
5.6159 0.1252 -2.9988 0.9749
5.3833 1.6044 -2.9988 0.9749
5.0135 2.5335 -2.9987 0.9749
4.1660 3.7680 -2.9987 0.9749
3.8141 4.1238 -2.9987 0.9749
3.4320 4.4469 -2.9987 0.9749
2.4670 4.7499 -2.8573 0.9760
2.0266 4.9315 -2.8463 0.9761
1.5797 5.0923 -2.8463 0.9761
0.6517 5.2917 -2.8462 0.9761
0.1782 5.3287 -2.8462 0.9761
-1.2360 5.1863 -2.8462 0.9761
-2.1359 4.8850 -2.8462 0.9761
-3.5300 4.3691 -2.9985 0.9749
-3.9048 4.0376 -2.9985 0.9749
-5.2636 1.9602 -2.9985 0.9749
-5.5278 0.9959 -2.9985 0.9749
-5.3774 -0.4805 -2.9985 0.9756
-5.3133 -0.9572 -2.9985 0.9756
-5.2070 -1.4263 -2.9985 0.9756
-4.8716 -2.3269 -2.9985 0.9756
-4.3818 -3.1538 -2.9985 0.9756
-4.0837 -3.5313 -2.9985 0.9756
-3.3929 -4.1994 -2.9985 0.9756
-3.0057 -4.4848 -2.9985 0.9756
-2.5946 -4.7346 -2.9985 0.9756
-1.2516 -5.2518 -2.9986 0.9756
0.6600 -5.3586 -2.9986 0.9756
1.5996 -5.1567 -2.9986 0.9756
2.0522 -4.9938 -2.9986 0.9756
2.4886 -4.7914 -2.9987 0.9756
2.9052 -4.5509 -2.9987 0.9756
3.6661 -3.9637 -2.9987 0.9756
4.0043 -3.6217 -2.9987 0.9756
4.3108 -3.2509 -2.9987 0.9756
4.5831 -2.8543 -2.9987 0.9756
4.8189 -2.4351 -2.9987 0.9756
5.0166 -1.9965 -2.9987 0.9756
5.1744 -1.5421 -2.9987 0.9756
5.2911 -1.0755 -2.9987 0.9756
5.3979 -0.1203 -2.9987 0.9756
5.3338 0.8387 -2.9987 0.9756
5.1005 1.7712 -2.9987 0.9756
4.1617 3.4398 -2.9987 0.9756
2.6996 4.6759 -2.9987 0.9756
2.1993 4.7394 -2.9018 0.9764
1.2988 4.9575 -2.8463 0.9768
0.3992 5.1091 -2.8462 0.9768
-0.0571 5.1244 -2.8462 0.9768
-0.9647 5.0330 -2.8462 0.9768
-1.4089 4.9272 -2.8462 0.9768
-1.8419 4.7822 -2.8462 0.9768
-2.3353 4.7522 -2.9408 0.9761
-4.2370 3.3460 -2.9985 0.9756
-5.1383 1.6569 -2.9985 0.9756
-5.3506 0.7196 -2.9985 0.9756
-5.3934 0.2405 -2.9985 0.9756
-5.3934 -0.2405 -2.9985 0.9756
-5.1383 -1.6569 -2.9985 0.9756
-4.9704 -2.1076 -2.9985 0.9756
-4.5180 -2.9555 -2.9985 0.9756
-3.9224 -3.7098 -2.9985 0.9756
-2.8029 -4.6142 -2.9985 0.9756
-2.3811 -4.8454 -2.9985 0.9756
-1.9404 -5.0381 -2.9985 0.9756
-1.4843 -5.1908 -2.9986 0.9756
0.4206 -5.3826 -2.9986 0.9756
0.8980 -5.3238 -2.9986 0.9756
1.8277 -5.0803 -2.9986 0.9756
2.6996 -4.6758 -2.9987 0.9756
3.4859 -4.1230 -2.9987 0.9756
4.7057 -2.6473 -2.9987 0.9756
4.9226 -2.2180 -2.9987 0.9756
5.1005 -1.7711 -2.9987 0.9756
5.3337 -0.8387 -2.9987 0.9756
5.3872 -0.3606 -2.9987 0.9756
5.3980 0.1203 -2.9987 0.9756
5.3658 0.6003 -2.9987 0.9756
5.0166 1.9966 -2.9987 0.9756
4.8190 2.4352 -2.9987 0.9756
4.5831 2.8544 -2.9987 0.9756
4.0044 3.6218 -2.9987 0.9756
3.2988 4.2744 -2.9987 0.9756
2.4555 4.7278 -2.9588 0.9759
1.9539 4.7546 -2.8549 0.9768
1.5183 4.8947 -2.8463 0.9768
0.1712 5.1219 -2.8462 0.9768
-2.0818 4.7613 -2.8861 0.9765
-3.3930 4.1996 -2.9985 0.9756
-3.7533 3.8809 -2.9985 0.9756
-4.0838 3.5314 -2.9985 0.9756
-5.2070 1.4264 -2.9985 0.9756
-5.1729 -0.4622 -2.9985 0.9763
-5.1112 -0.9208 -2.9985 0.9763
-4.4685 -2.6467 -2.9985 0.9763
-4.2152 -3.0339 -2.9985 0.9763
-3.6105 -3.7332 -2.9985 0.9763
-3.2639 -4.0398 -2.9985 0.9763
-2.8914 -4.3143 -2.9985 0.9763
-0.2892 -5.1856 -2.9986 0.9763
0.1735 -5.1908 -2.9986 0.9763
0.6349 -5.1548 -2.9986 0.9763
1.0912 -5.0778 -2.9986 0.9763
3.8521 -3.4839 -2.9987 0.9763
4.4088 -2.7458 -2.9987 0.9763
5.0899 -1.0345 -2.9987 0.9763
5.1618 -0.5774 -2.9987 0.9763
5.1927 -0.1157 -2.9987 0.9763
4.9066 1.7038 -2.9987 0.9763
4.2821 2.9395 -2.9987 0.9763
4.0035 3.3090 -2.9987 0.9763
3.6931 3.6522 -2.9987 0.9763
2.9870 4.2491 -2.9987 0.9763
2.1863 4.7114 -2.9987 0.9763
1.7054 4.7404 -2.9086 0.9770
-0.4934 4.9051 -2.8462 0.9775
-2.2906 4.6613 -2.9986 0.9763
-3.4407 3.8904 -2.9985 0.9763
-4.3462 2.8432 -2.9985 0.9763
-5.0652 1.1477 -2.9985 0.9763
-5.1472 0.6923 -2.9985 0.9763
-4.9429 -1.5939 -2.9985 0.9763
-4.7814 -2.0275 -2.9985 0.9763
-4.5820 -2.4450 -2.9985 0.9763
-4.3462 -2.8431 -2.9985 0.9763
-3.7732 -3.5687 -2.9985 0.9763
-3.4406 -3.8904 -2.9985 0.9763
-3.0807 -4.1812 -2.9985 0.9763
-2.6964 -4.4388 -2.9985 0.9763
-2.2906 -4.6612 -2.9985 0.9763
-1.4279 -4.9935 -2.9986 0.9763
-0.9777 -5.1008 -2.9986 0.9763
-0.5199 -5.1675 -2.9986 0.9763
-0.0579 -5.1934 -2.9986 0.9763
0.8639 -5.1214 -2.9986 0.9763
1.3163 -5.0241 -2.9986 0.9763
2.1863 -4.7112 -2.9986 0.9763
2.9870 -4.2490 -2.9987 0.9763
3.3533 -3.9663 -2.9987 0.9763
3.6930 -3.6521 -2.9987 0.9763
4.2821 -2.9394 -2.9987 0.9763
4.5267 -2.5467 -2.9987 0.9763
4.7354 -2.1337 -2.9987 0.9763
5.0387 -1.2602 -2.9987 0.9763
5.1309 -0.8068 -2.9987 0.9763
5.1824 -0.3469 -2.9987 0.9763
5.1927 0.1157 -2.9987 0.9763
5.1618 0.5774 -2.9987 0.9763
4.9776 1.4835 -2.9987 0.9763
4.6357 2.3426 -2.9987 0.9763
4.4088 2.7458 -2.9987 0.9763
3.8521 3.4840 -2.9987 0.9763
2.7947 4.3779 -2.9987 0.9763
2.3940 4.6093 -2.9987 0.9763
1.9442 4.7311 -2.9531 0.9767
-0.2745 4.9222 -2.8462 0.9775
-0.7115 4.8782 -2.8462 0.9775
-1.1428 4.7955 -2.8462 0.9775
-1.5927 4.7572 -2.8964 0.9771
-3.6106 3.7333 -2.9985 0.9763
-3.9285 3.3971 -2.9985 0.9763
-4.2153 3.0340 -2.9985 0.9763
-4.6864 2.2385 -2.9985 0.9763
-5.1112 0.9208 -2.9985 0.9763
-5.1729 0.4622 -2.9985 0.9763
