ply
format ascii 1.0
element vertex 1647
property float32 x
property float32 y
property float32 z
property float32 I
end_header
8.1268 -6.1287 1.7948 0.9595
7.7176 -6.3787 1.7655 0.9601
7.7854 -5.8713 1.5527 0.9613
8.4066 -5.7708 1.6237 0.9595
7.0825 -6.4058 1.3583 0.9622
7.0291 -6.9512 1.4061 0.9608
7.2864 -6.0224 1.3446 0.9625
8.0766 -5.5443 1.3934 0.9612
8.7235 -5.4330 1.2879 0.9594
7.1740 -5.9295 1.1664 0.9632
7.3859 -5.5700 1.0034 0.9635
8.4140 -5.2403 1.0752 0.9609
7.0909 -5.8608 0.9978 0.9637
6.8089 -6.1583 0.8417 0.9638
8.2796 -5.1566 0.8942 0.9616
6.6772 -6.6032 0.8609 0.9630
7.0241 -5.8056 0.8354 0.9641
7.6992 -5.2852 0.8562 0.9632
6.6047 -7.1409 0.7289 0.9617
8.1621 -5.0834 0.7206 0.9622
6.9735 -5.7638 0.6780 0.9644
6.5476 -7.0792 0.5616 0.9621
7.2208 -5.4454 0.5267 0.9644
6.5734 -6.5006 0.5385 0.9636
6.4917 -7.0187 0.3975 0.9624
6.5355 -6.4631 0.3822 0.9639
7.5445 -5.1790 0.3805 0.9640
8.9891 -5.0572 0.4289 0.9595
6.4705 -6.9959 0.2376 0.9626
6.6759 -6.0380 0.2245 0.9646
7.1719 -5.4086 0.2240 0.9647
8.0113 -4.9895 0.2354 0.9629
6.5232 -6.4510 0.2288 0.9640
6.8924 -5.6967 0.2230 0.9649
7.5305 -5.1694 0.2278 0.9641
8.8798 -4.9957 0.2541 0.9601
6.6645 -6.0277 0.0747 0.9647
7.1598 -5.3995 0.0745 0.9648
7.9938 -4.9786 0.0783 0.9630
6.8534 -8.1062 0.0882 0.9584
6.5110 -6.4389 0.0761 0.9640
7.5166 -5.1598 0.0758 0.9642
8.8193 -4.9616 0.0841 0.9603
6.4510 -6.9748 -0.0790 0.9627
6.6633 -6.0266 -0.0747 0.9647
7.9918 -4.9773 -0.0783 0.9630
6.7809 -8.0205 -0.0873 0.9589
6.5098 -6.4377 -0.0761 0.9640
6.8797 -5.6862 -0.0742 0.9649
6.4683 -6.9934 -0.2376 0.9626
7.1704 -5.4074 -0.2240 0.9647
6.8909 -5.6954 -0.2229 0.9649
6.4856 -7.0122 -0.3972 0.9625
6.6855 -6.0467 -0.3748 0.9646
7.1823 -5.4164 -0.3740 0.9646
8.0265 -4.9989 -0.3932 0.9629
6.9020 -5.7047 -0.3723 0.9648
7.5425 -5.1776 -0.3804 0.9640
6.7171 -6.0752 -0.5275 0.9644
8.0843 -5.0350 -0.5547 0.9626
7.5825 -5.2051 -0.5357 0.9638
6.5974 -7.1330 -0.7281 0.9618
7.2542 -5.4706 -0.6809 0.9642
8.1538 -5.0782 -0.7199 0.9622
6.6070 -6.5338 -0.6963 0.9634
6.9688 -5.7599 -0.6775 0.9644
7.6266 -5.2354 -0.6932 0.9636
6.8009 -6.1511 -0.8407 0.9638
6.6674 -6.5935 -0.8597 0.9630
7.0161 -5.7989 -0.8345 0.9641
6.8376 -7.3927 -1.0923 0.9603
7.3768 -5.5631 -1.0022 0.9635
8.3979 -5.2302 -1.0731 0.9610
6.7499 -6.6751 -1.0297 0.9625
7.7717 -5.3350 -1.0225 0.9628
7.4627 -5.6279 -1.1713 0.9630
8.6837 -5.4083 -1.2820 0.9596
7.1608 -5.9186 -1.1642 0.9632
7.0673 -6.3920 -1.3554 0.9622
7.5829 -5.7186 -1.3509 0.9624
7.2725 -6.0109 -1.3420 0.9626
8.0568 -5.5307 -1.3900 0.9613
7.2440 -6.5518 -1.5553 0.9612
7.7596 -5.8518 -1.5476 0.9614
7.4275 -6.1390 -1.5344 0.9617
8.3634 -5.7412 -1.6154 0.9597
8.0738 -6.0887 -1.7831 0.9598
7.6765 -6.3448 -1.7561 0.9604
-0.1638 14.7071 -2.8463 0.9418
-4.0364 14.1162 -2.8412 0.9419
-5.2738 13.6931 -2.8396 0.9420
-10.6343 10.0579 -2.8326 0.9421
-11.4827 9.0679 -2.8314 0.9421
-12.9000 6.8837 -2.8296 0.9422
-13.4580 5.7067 -2.8288 0.9422
1.7995 14.6109 -2.8488 0.9418
0.4916 14.7042 -2.8471 0.9418
-2.1207 14.5410 -2.8437 0.9419
-5.8769 13.4409 -2.8388 0.9420
-10.1778 10.5238 -2.8332 0.9421
-11.0695 9.5722 -2.8320 0.9421
-13.1921 6.3013 -2.8292 0.9422
-13.6973 5.1010 -2.8285 0.9422
-14.0808 -1.2583 -2.9803 0.9438
-13.9139 -2.5067 -2.9805 0.9438
-13.6371 -3.7355 -2.9809 0.9438
-13.2527 -4.9353 -2.9814 0.9438
-12.7635 -6.0966 -2.9820 0.9438
-8.9042 -11.0208 -2.9870 0.9437
-6.8152 -12.4362 -2.9897 0.9437
-5.6841 -12.9998 -2.9911 0.9436
-2.0509 -14.0617 -2.9959 0.9436
-0.7916 -14.1963 -2.9975 0.9435
5.4191 -13.1867 -3.0056 0.9434
8.7230 -11.3027 -3.0099 0.9433
12.1372 -7.5591 -3.0144 0.9432
14.3089 -0.3188 -3.0174 0.9432
14.2804 0.9560 -3.0173 0.9432
13.8824 3.4722 -3.0168 0.9432
11.8309 6.6560 -2.8618 0.9460
5.6982 12.2794 -2.8539 0.9462
1.0524 13.4674 -2.8478 0.9463
-0.1504 13.5001 -2.8463 0.9463
-3.7057 12.9596 -2.8416 0.9464
-4.8419 12.5718 -2.8401 0.9464
-7.9797 10.8301 -2.8360 0.9465
-11.2405 7.3533 -2.8317 0.9466
-11.8470 6.3218 -2.8309 0.9466
-13.4586 4.3399 -2.9812 0.9438
-13.7894 3.1243 -2.9808 0.9438
-13.7891 -3.1242 -2.9807 0.9438
-13.4582 -4.3397 -2.9811 0.9438
-12.4807 -6.6599 -2.9824 0.9438
-11.8417 -7.7464 -2.9832 0.9438
-11.1087 -8.7724 -2.9841 0.9438
-7.3607 -12.1174 -2.9890 0.9437
-5.1006 -13.2434 -2.9919 0.9436
-2.6745 -13.9527 -2.9951 0.9436
-1.4228 -14.1430 -2.9967 0.9435
1.1086 -14.1868 -3.0000 0.9435
2.3682 -14.0395 -3.0016 0.9435
3.6103 -13.7805 -3.0032 0.9434
4.8251 -13.4115 -3.0048 0.9434
6.0027 -12.9355 -3.0064 0.9434
9.2198 -10.9052 -3.0106 0.9433
11.7866 -8.0910 -3.0140 0.9432
12.4637 -7.0119 -3.0149 0.9432
13.0416 -5.8762 -3.0156 0.9432
13.8820 -3.4721 -3.0168 0.9432
14.1376 -2.2230 -3.0171 0.9432
14.2233 1.5912 -3.0173 0.9432
14.0241 2.8506 -3.0170 0.9432
11.5210 7.1754 -2.8614 0.9460
9.2064 9.9538 -2.8584 0.9461
8.2804 10.7293 -2.8572 0.9461
7.2893 11.4186 -2.8559 0.9461
6.2411 12.0163 -2.8546 0.9462
2.8403 13.2178 -2.8502 0.9462
0.4513 13.4971 -2.8471 0.9463
-3.1255 13.1153 -2.8424 0.9464
-7.4910 11.1774 -2.8367 0.9465
-8.4524 10.4616 -2.8354 0.9465
-9.3461 9.6638 -2.8342 0.9465
-10.1653 8.7903 -2.8332 0.9465
-10.9035 7.8480 -2.8322 0.9466
-11.5552 6.8442 -2.8313 0.9466
-12.1154 5.7871 -2.8306 0.9466
-13.9141 2.5068 -2.9806 0.9438
-14.0809 1.2583 -2.9804 0.9438
-13.0636 0.0001 -2.9817 0.9478
-12.8576 -2.3163 -2.9819 0.9478
-12.6018 -3.4519 -2.9822 0.9478
-12.2464 -4.5606 -2.9827 0.9478
-9.8948 -8.5563 -2.9857 0.9477
-9.0971 -9.4063 -2.9867 0.9477
-7.2909 -10.8788 -2.9891 0.9477
-6.2964 -11.4895 -2.9904 0.9477
-5.2512 -12.0097 -2.9917 0.9476
-3.0415 -12.7627 -2.9946 0.9476
-1.8944 -12.9893 -2.9961 0.9476
-0.7312 -13.1129 -2.9976 0.9475
2.7634 -12.8597 -3.0022 0.9475
3.8989 -12.5689 -3.0036 0.9474
5.0046 -12.1779 -3.0051 0.9474
6.0714 -11.6895 -3.0065 0.9474
10.5374 -7.9466 -3.0123 0.9473
11.2062 -6.9793 -3.0132 0.9473
12.2718 -4.8840 -3.0146 0.9473
13.1312 -1.4689 -3.0158 0.9472
13.2103 -0.2943 -3.0159 0.9472
13.1840 0.8826 -3.0159 0.9472
13.0525 2.0524 -3.0157 0.9472
12.8167 3.2057 -3.0154 0.9472
11.4294 5.1499 -2.8613 0.9499
10.9232 6.1453 -2.8606 0.9499
9.6550 7.9801 -2.8590 0.9499
8.9034 8.8048 -2.8580 0.9499
8.0814 9.5588 -2.8570 0.9499
7.1957 10.2360 -2.8558 0.9500
5.2621 11.3397 -2.8533 0.9500
4.2300 11.7575 -2.8520 0.9500
3.1652 12.0815 -2.8506 0.9500
-0.1389 12.4696 -2.8463 0.9501
-1.2476 12.4014 -2.8448 0.9501
-3.4232 11.9718 -2.8420 0.9502
-4.4730 11.6140 -2.8406 0.9502
-5.4864 11.1646 -2.8393 0.9502
-10.3865 6.7946 -2.8328 0.9504
-11.4211 4.8430 -2.8315 0.9504
-12.4368 4.0104 -2.9825 0.9478
-12.7426 2.8871 -2.9821 0.9478
-12.9478 1.7413 -2.9818 0.9478
-13.0507 0.5820 -2.9817 0.9478
-13.0507 -0.5819 -2.9817 0.9478
-12.9476 -1.7412 -2.9818 0.9478
-12.7423 -2.8870 -2.9821 0.9478
-12.0322 -5.1020 -2.9830 0.9478
-10.9420 -7.1579 -2.9844 0.9478
-9.5054 -8.9901 -2.9862 0.9477
-6.8005 -11.1951 -2.9897 0.9477
-4.7121 -12.2346 -2.9924 0.9476
-3.6062 -12.6115 -2.9939 0.9476
-2.4706 -12.8888 -2.9953 0.9476
-1.3143 -13.0641 -2.9968 0.9476
1.0239 -13.1034 -2.9999 0.9475
4.4560 -12.3858 -3.0044 0.9474
5.5434 -11.9457 -3.0058 0.9474
7.5803 -10.7831 -3.0085 0.9474
8.5134 -10.0697 -3.0097 0.9473
10.1713 -8.4068 -3.0119 0.9473
10.8826 -7.4705 -3.0128 0.9473
11.5075 -6.4740 -3.0136 0.9473
12.0408 -5.4253 -3.0143 0.9473
12.4783 -4.3329 -3.0149 0.9472
12.9475 2.6317 -3.0156 0.9472
12.6604 3.7732 -3.0153 0.9472
11.1874 5.6533 -2.8610 0.9499
9.2884 8.4009 -2.8585 0.9499
5.7634 11.0966 -2.8539 0.9500
2.6232 12.2075 -2.8499 0.9501
1.5255 12.3863 -2.8484 0.9501
0.4168 12.4666 -2.8470 0.9501
-1.7983 12.3304 -2.8441 0.9502
-2.8872 12.1154 -2.8427 0.9502
-3.9522 11.8046 -2.8413 0.9502
-4.9848 11.4005 -2.8399 0.9502
-5.9769 10.9066 -2.8386 0.9503
-6.9210 10.3268 -2.8374 0.9503
-9.3926 8.1221 -2.8342 0.9503
-10.0750 7.2516 -2.8333 0.9503
-10.6774 6.3243 -2.8325 0.9504
-11.1952 5.3476 -2.8318 0.9504
-12.2468 4.5608 -2.9828 0.9478
-12.8579 2.3165 -2.9820 0.9478
-12.1354 0.0000 -2.9829 0.9512
-12.0875 -1.0801 -2.9829 0.9512
-11.7063 -3.2067 -2.9834 0.9512
-11.3760 -4.2364 -2.9838 0.9512
-7.6413 -9.4577 -2.9886 0.9512
-6.7717 -10.1040 -2.9898 0.9511
-3.8665 -11.5486 -2.9935 0.9511
-0.6789 -12.1767 -2.9977 0.9510
2.5658 -11.9402 -3.0019 0.9509
4.6464 -11.3064 -3.0046 0.9509
6.5830 -10.3121 -3.0072 0.9509
8.3134 -8.9883 -3.0094 0.9508
9.0834 -8.2154 -3.0104 0.9508
11.7511 -3.5022 -3.0140 0.9507
12.1883 -1.3634 -3.0146 0.9507
12.2373 0.8192 -3.0147 0.9507
12.1153 1.9051 -3.0145 0.9507
11.5830 4.0221 -3.0138 0.9507
7.5022 8.8737 -2.8562 0.9533
6.6801 9.5026 -2.8551 0.9533
5.8055 10.0555 -2.8540 0.9533
3.9273 10.9162 -2.8516 0.9533
2.9388 11.2173 -2.8503 0.9534
1.9278 11.4291 -2.8490 0.9534
0.9025 11.5499 -2.8476 0.9534
-0.1290 11.5789 -2.8463 0.9534
-1.1585 11.5161 -2.8449 0.9534
-2.1779 11.3619 -2.8436 0.9535
-3.1791 11.1179 -2.8423 0.9535
-4.1541 10.7860 -2.8410 0.9535
-5.0954 10.3689 -2.8398 0.9535
-5.9956 9.8702 -2.8386 0.9535
-8.3810 7.9267 -2.8355 0.9536
-9.0504 7.1471 -2.8346 0.9536
-10.1689 5.4263 -2.8331 0.9536
-11.5529 3.7254 -2.9837 0.9512
-11.8371 2.6820 -2.9833 0.9512
-12.1235 0.5407 -2.9829 0.9512
-11.8369 -2.6818 -2.9832 0.9512
-11.5526 -3.7252 -2.9836 0.9512
-11.1770 -4.7394 -2.9841 0.9512
-9.5344 -7.5292 -2.9862 0.9512
-8.0535 -9.1062 -2.9881 0.9512
-7.2137 -9.7905 -2.9892 0.9511
-4.3762 -11.3624 -2.9929 0.9511
-2.2943 -11.9691 -2.9956 0.9510
-1.2204 -12.1315 -2.9970 0.9510
-0.1359 -12.1977 -2.9984 0.9510
4.1372 -11.4996 -3.0040 0.9509
6.1159 -10.5929 -3.0066 0.9509
7.9033 -9.3480 -3.0089 0.9508
8.7070 -8.6105 -3.0100 0.9508
10.6817 -6.0094 -3.0126 0.9508
11.5826 -4.0219 -3.0138 0.9508
11.8963 -2.9754 -3.0142 0.9507
12.1151 -1.9050 -3.0145 0.9507
12.2618 0.2732 -3.0147 0.9507
12.1885 1.3635 -3.0146 0.9507
9.8740 6.1496 -2.8592 0.9532
9.2850 7.0022 -2.8585 0.9532
7.0981 9.1974 -2.8557 0.9533
3.4364 11.0778 -2.8509 0.9533
-0.6445 11.5590 -2.8456 0.9534
-1.6700 11.4504 -2.8443 0.9535
-3.6703 10.9628 -2.8416 0.9535
-4.6295 10.5879 -2.8404 0.9535
-5.5511 10.1296 -2.8392 0.9535
-5.6659 7.0128 -2.2160 0.9635
-9.3585 6.7358 -2.8342 0.9536
-11.3764 4.2366 -2.9839 0.9512
-11.7066 3.2068 -2.9835 0.9512
-11.3243 0.0000 -2.9839 0.9542
-11.2795 -1.0079 -2.9840 0.9542
-11.1456 -2.0079 -2.9842 0.9542
-10.9237 -2.9923 -2.9844 0.9542
-10.2231 -4.8832 -2.9853 0.9542
-9.7499 -5.7748 -2.9859 0.9542
-8.5758 -7.4158 -2.9874 0.9542
-5.4560 -9.9559 -2.9915 0.9541
-3.6072 -10.7741 -2.9939 0.9541
-2.6350 -11.0571 -2.9951 0.9541
2.3933 -11.1373 -3.0017 0.9540
3.3765 -10.8848 -3.0030 0.9540
4.3337 -10.5454 -3.0042 0.9539
6.9738 -9.0362 -3.0077 0.9539
8.4710 -7.6616 -3.0097 0.9539
9.1219 -6.8791 -3.0105 0.9538
9.7005 -6.0415 -3.0113 0.9538
10.6223 -4.2275 -3.0125 0.9538
11.2065 -2.2778 -3.0133 0.9538
11.3656 -1.2714 -3.0135 0.9538
11.4340 -0.2548 -3.0136 0.9538
11.4112 0.7639 -3.0136 0.9538
11.2974 1.7765 -3.0135 0.9538
10.8012 3.7506 -3.0128 0.9538
9.4553 5.3195 -2.8587 0.9561
8.9422 6.1385 -2.8580 0.9561
8.3582 6.9082 -2.8573 0.9561
6.9966 8.2756 -2.8555 0.9562
6.2301 8.8625 -2.8545 0.9562
4.5566 9.8192 -2.8524 0.9562
3.6630 10.1816 -2.8512 0.9562
1.7982 10.6607 -2.8488 0.9563
0.8419 10.7737 -2.8475 0.9563
-3.8756 10.0627 -2.8414 0.9564
-7.1329 8.0654 -2.8371 0.9564
-7.8200 7.3961 -2.8362 0.9565
-9.0025 5.8892 -2.8346 0.9565
-9.4888 5.0634 -2.8340 0.9565
-10.4299 4.4227 -2.9852 0.9542
-11.3131 0.5045 -2.9840 0.9542
-11.0456 -2.5026 -2.9843 0.9542
-10.4296 -4.4225 -2.9851 0.9542
-9.9964 -5.3342 -2.9856 0.9542
-8.8965 -7.0254 -2.9870 0.9542
-8.2382 -7.7916 -2.9879 0.9542
-7.5143 -8.4965 -2.9888 0.9542
-5.8929 -9.7011 -2.9909 0.9541
-5.0080 -10.1910 -2.9921 0.9541
-3.1243 -10.9264 -2.9945 0.9541
-1.1385 -11.3170 -2.9971 0.9540
0.8869 -11.3495 -2.9997 0.9540
4.8002 -10.3440 -3.0048 0.9539
8.1201 -8.0301 -3.0092 0.9539
8.8052 -7.2777 -3.0101 0.9538
10.4225 -4.6961 -3.0122 0.9538
11.2973 -1.7764 -3.0134 0.9538
11.4111 -0.7638 -3.0136 0.9538
11.4340 0.2548 -3.0136 0.9538
11.3657 1.2715 -3.0135 0.9538
11.2067 2.2779 -3.0133 0.9538
10.6226 4.2278 -3.0126 0.9538
9.2079 5.7348 -2.8584 0.9561
8.6588 6.5299 -2.8577 0.9561
8.0410 7.2727 -2.8569 0.9561
6.6199 8.5777 -2.8550 0.9562
5.8281 9.1295 -2.8540 0.9562
4.1138 10.0104 -2.8518 0.9562
1.3213 10.7279 -2.8482 0.9563
0.3610 10.7982 -2.8469 0.9563
-0.6012 10.7827 -2.8456 0.9563
-1.5579 10.6817 -2.8444 0.9563
-2.5013 10.4961 -2.8432 0.9563
-4.3191 9.8780 -2.8408 0.9564
-5.6497 6.9927 -2.3688 0.9635
-7.4839 7.7383 -2.8366 0.9564
-8.7323 6.2851 -2.8350 0.9565
-10.6157 3.9533 -2.9849 0.9542
-10.9239 2.9924 -2.9845 0.9542
-11.1458 2.0080 -2.9842 0.9542
-10.6089 0.0000 -2.9849 0.9569
-10.5669 -0.9442 -2.9849 0.9569
-10.4415 -1.8811 -2.9851 0.9569
-9.9446 -3.7034 -2.9857 0.9569
-9.5770 -4.5745 -2.9862 0.9569
-5.9182 -8.8305 -2.9909 0.9568
0.3562 -10.6533 -2.9990 0.9567
3.1619 -10.1931 -3.0027 0.9566
4.0582 -9.8750 -3.0039 0.9566
4.9229 -9.4782 -3.0050 0.9566
5.7490 -9.0056 -3.0061 0.9566
7.9316 -7.1737 -3.0090 0.9565
8.5409 -6.4410 -3.0098 0.9565
9.0824 -5.6565 -3.0105 0.9565
10.2595 -3.0576 -3.0120 0.9565
10.6837 0.7152 -3.0126 0.9565
10.5771 1.6632 -3.0125 0.9565
10.1127 3.5116 -3.0119 0.9565
7.8258 6.4682 -2.8566 0.9587
7.2171 7.1371 -2.8558 0.9587
5.8336 8.2985 -2.8540 0.9587
4.2668 9.1947 -2.8520 0.9588
2.5670 9.7980 -2.8498 0.9588
1.6840 9.9836 -2.8486 0.9588
-0.1127 10.1157 -2.8463 0.9588
-1.0122 10.0614 -2.8451 0.9589
-4.4528 9.0612 -2.8406 0.9589
-5.3313 7.2357 -2.5287 0.9633
-6.6816 7.5551 -2.8377 0.9590
-7.9108 6.2471 -2.8361 0.9590
-8.4333 5.5169 -2.8354 0.9590
-9.7708 4.1432 -2.9860 0.9569
-10.0993 3.2566 -2.9856 0.9569
-10.3479 2.3446 -2.9852 0.9569
-10.5147 1.4141 -2.9850 0.9569
-10.5984 -0.4726 -2.9849 0.9569
-10.5146 -1.4140 -2.9850 0.9569
-10.3477 -2.3445 -2.9852 0.9569
-10.0991 -3.2565 -2.9855 0.9569
-9.3646 -4.9971 -2.9864 0.9569
-7.7171 -7.2988 -2.9886 0.9568
-7.0389 -7.9590 -2.9894 0.9568
-6.3046 -8.5566 -2.9904 0.9568
-5.5199 -9.0869 -2.9914 0.9568
-4.6908 -9.5456 -2.9925 0.9568
-2.9263 -10.2339 -2.9948 0.9567
-0.1187 -10.6563 -2.9984 0.9567
0.8306 -10.6290 -2.9997 0.9567
3.6136 -10.0441 -3.0033 0.9566
6.1456 -8.7421 -3.0066 0.9566
9.3264 -5.2469 -3.0108 0.9565
9.7582 -4.3968 -3.0114 0.9565
10.1124 -3.5114 -3.0118 0.9565
10.3861 -2.5977 -3.0122 0.9565
10.5770 -1.6631 -3.0125 0.9565
10.6836 -0.7151 -3.0126 0.9565
10.7050 0.2386 -3.0127 0.9565
10.6410 1.1904 -3.0126 0.9565
10.4922 2.1327 -3.0124 0.9565
10.2597 3.0578 -3.0121 0.9565
9.9455 3.9583 -3.0117 0.9565
9.3417 4.7206 -2.9449 0.9574
8.6212 5.3694 -2.8576 0.9587
8.1072 6.1140 -2.8569 0.9587
7.5289 6.8095 -2.8562 0.9587
6.8910 7.4505 -2.8554 0.9587
6.1985 8.0317 -2.8545 0.9587
4.6730 8.9972 -2.8525 0.9587
3.8523 9.3739 -2.8514 0.9588
3.0015 9.6759 -2.8503 0.9588
2.1275 9.9007 -2.8492 0.9588
1.2374 10.0467 -2.8480 0.9588
-0.5631 10.0985 -2.8457 0.9588
-2.3428 9.8307 -2.8434 0.9589
-4.0455 9.2523 -2.8411 0.9589
-5.6178 8.3823 -2.8391 0.9589
-5.6334 6.9726 -2.5221 0.9634
-7.0105 7.2488 -2.8373 0.9590
-7.6256 6.5942 -2.8364 0.9590
-8.6698 5.1352 -2.8351 0.9590
-9.5774 4.5748 -2.9863 0.9569
-9.9449 3.7036 -2.9858 0.9569
-10.4416 1.8812 -2.9851 0.9569
-9.9730 0.0000 -2.9857 0.9592
-9.9335 -0.8876 -2.9857 0.9592
-9.6200 -2.6351 -2.9861 0.9592
-9.0027 -4.3002 -2.9869 0.9592
-8.5858 -5.0853 -2.9875 0.9592
-8.1008 -5.8305 -2.9881 0.9592
-7.5514 -6.5299 -2.9888 0.9592
-6.9421 -7.1781 -2.9896 0.9592
-3.1755 -9.4847 -2.9945 0.9591
-2.3196 -9.7333 -2.9956 0.9591
-1.4446 -9.9049 -2.9967 0.9591
-0.5575 -9.9980 -2.9979 0.9591
1.2250 -9.9461 -3.0002 0.9590
2.1062 -9.8014 -3.0013 0.9590
2.9713 -9.5786 -3.0025 0.9590
4.6259 -8.9064 -3.0046 0.9590
5.4021 -8.4622 -3.0056 0.9589
6.1358 -7.9504 -3.0066 0.9589
8.0249 -6.0518 -3.0091 0.9589
8.9745 -4.5350 -3.0103 0.9589
9.8576 -2.0036 -3.0115 0.9589
9.9975 -1.1184 -3.0117 0.9589
10.0577 -0.2241 -3.0118 0.9589
10.0376 0.6720 -3.0118 0.9589
9.9376 1.5627 -3.0117 0.9589
9.5014 3.2993 -3.0111 0.9589
8.4134 4.7333 -2.8900 0.9605
7.8666 5.4002 -2.8566 0.9609
6.1557 7.2810 -2.8544 0.9610
4.7642 8.2519 -2.8526 0.9610
4.0095 8.6402 -2.8516 0.9610
3.2234 8.9596 -2.8506 0.9610
1.5826 9.3821 -2.8485 0.9611
0.7409 9.4821 -2.8474 0.9611
-0.9513 9.4559 -2.8452 0.9611
-1.7884 9.3301 -2.8441 0.9611
-3.4118 8.8586 -2.8420 0.9611
-4.1852 8.5167 -2.8409 0.9612
-5.3115 7.2089 -2.6808 0.9633
-6.2805 7.1015 -2.8382 0.9612
-7.9274 5.1859 -2.8360 0.9612
-9.1849 3.8948 -2.9868 0.9592
-9.4938 3.0614 -2.9864 0.9592
-9.9631 -0.4442 -2.9857 0.9592
-9.8843 -1.3292 -2.9858 0.9592
-8.8030 -4.6974 -2.9872 0.9592
-6.6164 -7.4812 -2.9900 0.9592
-5.9260 -8.0428 -2.9909 0.9591
-5.1883 -8.5411 -2.9918 0.9591
-4.4090 -8.9720 -2.9929 0.9591
-2.7503 -9.6185 -2.9950 0.9591
-1.0021 -9.9613 -2.9973 0.9591
-0.1116 -10.0148 -2.9984 0.9590
2.5412 -9.6997 -3.0019 0.9590
3.3957 -9.4385 -3.0030 0.9590
4.2238 -9.1021 -3.0041 0.9590
5.7747 -8.2145 -3.0061 0.9589
6.4849 -7.6703 -3.0071 0.9589
7.1439 -7.0647 -3.0079 0.9589
8.2875 -5.6890 -3.0094 0.9589
9.1684 -4.1311 -3.0106 0.9589
9.9976 1.1184 -3.0117 0.9589
9.8578 2.0037 -3.0116 0.9589
9.6395 2.8729 -3.0113 0.9589
9.3443 3.7190 -3.0109 0.9589
7.6174 5.7446 -2.8563 0.9609
6.4749 7.0006 -2.8548 0.9610
5.8244 7.5469 -2.8540 0.9610
0.3177 9.5038 -2.8468 0.9611
-0.5292 9.4907 -2.8457 0.9611
-1.3713 9.4023 -2.8446 0.9611
-2.2018 9.2394 -2.8435 0.9611
-4.5597 8.3204 -2.8405 0.9612
-5.2804 7.8789 -2.8395 0.9612
-7.1680 6.1985 -2.8370 0.9612
-7.6894 5.5345 -2.8363 0.9612
-8.1497 4.8271 -2.8357 0.9612
-9.0030 4.3004 -2.9870 0.9592
-9.3486 3.4815 -2.9866 0.9592
-9.8157 1.7685 -2.9859 0.9592
-9.9336 0.8877 -2.9858 0.9592
-9.4036 0.0000 -2.9864 0.9613
-9.3664 -0.8370 -2.9865 0.9613
-9.2552 -1.6674 -2.9866 0.9613
-8.4886 -4.0546 -2.9876 0.9613
-8.0954 -4.7949 -2.9881 0.9613
-7.1199 -6.1568 -2.9894 0.9613
-6.5453 -6.7678 -2.9901 0.9613
-5.2446 -7.8255 -2.9918 0.9612
-4.5287 -8.2638 -2.9927 0.9612
-3.7764 -8.6369 -2.9937 0.9612
-2.9937 -8.9417 -2.9947 0.9612
-2.1867 -9.1759 -2.9957 0.9612
-0.5255 -9.4250 -2.9979 0.9612
1.9854 -9.2391 -3.0012 0.9611
2.8008 -9.0289 -3.0022 0.9611
3.5946 -8.7468 -3.0033 0.9611
5.0918 -7.9761 -3.0052 0.9611
6.4291 -6.9510 -3.0070 0.9610
7.0241 -6.3528 -3.0078 0.9610
8.0427 -5.0090 -3.0091 0.9610
8.4582 -4.2741 -3.0097 0.9610
8.8064 -3.5048 -3.0101 0.9610
9.2903 -1.8883 -3.0108 0.9610
9.4788 -0.2112 -3.0111 0.9610
9.3656 1.4727 -3.0109 0.9610
9.1968 2.3003 -3.0107 0.9610
8.6412 3.8935 -3.0100 0.9610
6.3914 6.3206 -2.8547 0.9630
5.1666 7.3496 -2.8531 0.9630
4.4905 7.7779 -2.8522 0.9630
2.2738 8.6791 -2.8494 0.9630
1.4918 8.8439 -2.8484 0.9631
-0.0998 8.9617 -2.8463 0.9631
-3.9457 8.0294 -2.8413 0.9631
-5.2862 7.1744 -2.8302 0.9633
-5.9215 6.6955 -2.8387 0.9632
-6.4922 6.1403 -2.8379 0.9632
-7.0112 5.5367 -2.8372 0.9632
-7.4746 4.8897 -2.8366 0.9632
-8.9517 2.8866 -2.9871 0.9613
-9.1722 2.0782 -2.9868 0.9613
-9.3201 1.2535 -2.9866 0.9613
-9.3943 -0.4188 -2.9865 0.9613
-9.1720 -2.0781 -2.9867 0.9613
-8.3002 -4.4291 -2.9878 0.9613
-7.8745 -5.1512 -2.9884 0.9613
-7.3863 -5.8329 -2.9890 0.9613
-6.8394 -6.4687 -2.9897 0.9613
-6.2382 -7.0536 -2.9905 0.9613
-5.5872 -7.5829 -2.9913 0.9612
-4.8916 -8.0525 -2.9922 0.9612
-4.1567 -8.4587 -2.9932 0.9612
-2.5929 -9.0678 -2.9952 0.9612
-0.9447 -9.3906 -2.9974 0.9612
-0.1052 -9.4408 -2.9985 0.9612
2.3954 -9.1431 -3.0017 0.9611
3.9813 -8.5795 -3.0038 0.9611
5.4429 -7.7425 -3.0057 0.9611
6.7332 -6.6586 -3.0074 0.9610
7.3010 -6.0344 -3.0082 0.9610
8.2587 -4.6462 -3.0094 0.9610
9.4599 -0.6332 -3.0110 0.9610
9.4788 0.2113 -3.0111 0.9610
9.4222 1.0540 -3.0110 0.9610
9.2905 1.8884 -3.0108 0.9610
8.8067 3.5050 -3.0102 0.9610
8.4585 4.2743 -3.0098 0.9610
5.4896 7.1132 -2.8535 0.9630
4.1389 7.9689 -2.8518 0.9630
2.6587 8.5707 -2.8499 0.9630
1.8846 8.7702 -2.8489 0.9631
1.0961 8.9000 -2.8478 0.9631
0.2995 8.9589 -2.8468 0.9631
-2.8418 8.4879 -2.8427 0.9631
-3.5847 8.1985 -2.8417 0.9631
-4.2988 7.8444 -2.8408 0.9632
-5.5959 6.9262 -2.8279 0.9633
-6.2130 6.4242 -2.8383 0.9632
-8.8148 3.2827 -2.9873 0.9613
-9.2553 1.6674 -2.9867 0.9613
-9.3665 0.8371 -2.9865 0.9613
-8.8555 -0.7913 -2.9872 0.9632
-8.3336 -3.1034 -2.9878 0.9632
-7.6536 -4.5332 -2.9887 0.9632
-7.2211 -5.1973 -2.9892 0.9632
-6.7312 -5.8207 -2.9899 0.9631
-6.1879 -6.3982 -2.9906 0.9631
-2.8300 -8.4527 -2.9949 0.9631
-0.4968 -8.9091 -2.9980 0.9630
1.0915 -8.8621 -3.0000 0.9630
2.6473 -8.5340 -3.0021 0.9630
3.3974 -8.2672 -3.0030 0.9630
4.1211 -7.9345 -3.0040 0.9630
5.4658 -7.0822 -3.0057 0.9630
6.0761 -6.5694 -3.0065 0.9629
7.1480 -5.3905 -3.0080 0.9629
7.6009 -4.7338 -3.0086 0.9629
8.7797 -1.7845 -3.0101 0.9629
8.9577 -0.1996 -3.0104 0.9629
8.9399 0.5985 -3.0104 0.9629
8.6913 2.1739 -3.0101 0.9629
8.4625 2.9385 -3.0098 0.9629
7.0069 4.8100 -2.8555 0.9648
6.5496 5.4134 -2.8549 0.9648
6.0404 5.9735 -2.8542 0.9648
5.4834 6.4858 -2.8535 0.9648
4.8830 6.9462 -2.8528 0.9648
4.2442 7.3511 -2.8519 0.9648
0.6602 8.4487 -2.8473 0.9649
-1.5937 8.3144 -2.8443 0.9649
-3.7300 7.5904 -2.8415 0.9649
-5.5980 6.3298 -2.8391 0.9650
-7.8475 4.1876 -2.9885 0.9632
-8.4633 2.7291 -2.9877 0.9632
-8.8116 -1.1850 -2.9872 0.9632
-8.6717 -1.9647 -2.9874 0.9632
-8.4632 -2.7290 -2.9876 0.9632
-7.4447 -4.8700 -2.9889 0.9632
-6.9831 -5.5145 -2.9895 0.9631
-5.8975 -6.6683 -2.9909 0.9631
-3.9295 -7.9962 -2.9935 0.9631
-3.2032 -8.3169 -2.9944 0.9631
-2.4511 -8.5718 -2.9954 0.9631
-1.6789 -8.7589 -2.9964 0.9631
-0.8930 -8.8766 -2.9974 0.9631
0.6955 -8.9004 -2.9995 0.9630
3.0253 -8.4089 -3.0025 0.9630
4.4711 -7.7442 -3.0044 0.9630
7.3818 -5.0673 -3.0083 0.9629
7.8049 -4.3910 -3.0088 0.9629
8.6911 -2.1737 -3.0100 0.9629
8.8507 -1.3917 -3.0102 0.9629
8.9577 0.1997 -3.0104 0.9629
8.9042 0.9961 -3.0103 0.9629
8.7798 1.7846 -3.0102 0.9629
8.5854 2.5587 -3.0099 0.9629
5.1883 6.7227 -2.8531 0.9648
4.5681 7.1558 -2.8523 0.9648
3.9119 7.5318 -2.8515 0.9648
3.2250 7.8476 -2.8506 0.9648
1.7813 8.2896 -2.8487 0.9649
0.2831 8.4683 -2.8468 0.9649
-0.4716 8.4570 -2.8458 0.9649
-1.2220 8.3785 -2.8448 0.9649
-2.6863 8.0237 -2.8429 0.9649
-3.3887 7.7503 -2.8420 0.9649
-4.0638 7.4156 -2.8411 0.9649
-4.7063 7.0224 -2.8403 0.9650
-5.8737 6.0734 -2.8387 0.9650
-8.0256 3.8336 -2.9883 0.9632
-8.3338 3.1036 -2.9879 0.9632
-8.7504 1.5765 -2.9873 0.9632
-8.8556 0.7913 -2.9872 0.9632
-8.3926 -0.7499 -2.9878 0.9649
-8.2929 -1.4940 -2.9879 0.9649
-7.6057 -3.6329 -2.9887 0.9649
-3.3829 -7.7369 -2.9942 0.9648
-2.6817 -8.0098 -2.9951 0.9648
-1.9588 -8.2192 -2.9961 0.9648
-0.4707 -8.4418 -2.9980 0.9648
0.2826 -8.4529 -2.9990 0.9647
1.7780 -8.2743 -3.0009 0.9647
2.5082 -8.0858 -3.0019 0.9647
3.2189 -7.8329 -3.0028 0.9647
4.5594 -7.1421 -3.0046 0.9647
6.2891 -5.6881 -3.0068 0.9647
8.1332 -2.4239 -3.0093 0.9646
8.3848 1.3185 -3.0096 0.9646
7.3944 4.1601 -3.0084 0.9646
5.7226 5.6593 -2.8538 0.9664
5.1950 6.1447 -2.8531 0.9664
4.0211 6.9647 -2.8516 0.9664
3.3842 7.2929 -2.8508 0.9665
2.7209 7.5629 -2.8499 0.9665
2.0363 7.7725 -2.8491 0.9665
1.3360 7.9204 -2.8481 0.9665
0.6255 8.0053 -2.8472 0.9665
-1.5102 7.8784 -2.8444 0.9665
-2.2047 7.7103 -2.8435 0.9665
-2.8813 7.4811 -2.8426 0.9665
-4.1596 6.8477 -2.8410 0.9666
-4.7513 6.4486 -2.8402 0.9666
-5.3050 5.9985 -2.8395 0.9666
-6.2817 4.9606 -2.8382 0.9666
-7.7597 3.2904 -2.9886 0.9649
-8.2185 1.8621 -2.9880 0.9649
-8.3511 1.1231 -2.9878 0.9649
-8.3510 -1.1231 -2.9878 0.9649
-6.6178 -5.2260 -2.9900 0.9648
-5.5888 -6.3193 -2.9913 0.9648
-4.3821 -7.2139 -2.9929 0.9648
-3.7237 -7.5774 -2.9938 0.9648
-3.0354 -7.8811 -2.9947 0.9648
-2.3226 -8.1225 -2.9956 0.9648
-0.8462 -8.4110 -2.9975 0.9648
0.6590 -8.4333 -2.9995 0.9647
1.4074 -8.3439 -3.0004 0.9647
2.1452 -8.1881 -3.0014 0.9647
2.8664 -7.9672 -3.0023 0.9647
4.8737 -6.9329 -3.0050 0.9647
5.4729 -6.4733 -3.0058 0.9647
6.5370 -5.4029 -3.0072 0.9646
6.9933 -4.8006 -3.0078 0.9646
8.0167 -2.7837 -3.0091 0.9646
8.2335 -2.0593 -3.0094 0.9646
8.4691 -0.5669 -3.0097 0.9646
8.4353 0.9436 -3.0097 0.9646
8.3175 1.6906 -3.0096 0.9646
8.1334 2.4240 -3.0093 0.9646
7.5729 3.8268 -3.0086 0.9646
6.4279 4.8476 -2.8547 0.9664
5.4642 5.9079 -2.8535 0.9664
4.9155 6.3692 -2.8528 0.9664
3.7063 7.1359 -2.8512 0.9664
0.9817 7.9708 -2.8477 0.9665
0.2683 8.0239 -2.8467 0.9665
-1.8593 7.8021 -2.8440 0.9665
-2.5456 7.6033 -2.8431 0.9665
-3.8510 7.0272 -2.8414 0.9666
-6.0551 5.2361 -2.8385 0.9666
-6.6319 4.7734 -2.8974 0.9659
-8.1277 2.2265 -2.9881 0.9649
-7.9710 -0.7122 -2.9883 0.9664
-7.2235 -3.4504 -2.9892 0.9664
-6.4993 -4.6779 -2.9902 0.9664
-3.8528 -7.0304 -2.9936 0.9663
-1.8601 -7.8052 -2.9962 0.9663
-0.4470 -8.0163 -2.9980 0.9663
0.2684 -8.0268 -2.9990 0.9663
1.6883 -7.8569 -3.0008 0.9663
3.7074 -7.1379 -3.0035 0.9662
4.9168 -6.3709 -3.0050 0.9662
5.4656 -5.9094 -3.0058 0.9662
6.4295 -4.8487 -3.0070 0.9662
6.8368 -4.2580 -3.0076 0.9662
7.1897 -3.6331 -3.0080 0.9662
7.4855 -2.9792 -3.0084 0.9662
8.0085 -0.8959 -3.0091 0.9662
8.0407 0.5383 -3.0092 0.9662
7.8171 1.9552 -3.0089 0.9662
7.3451 3.3096 -3.0083 0.9662
6.6399 4.5581 -3.0074 0.9662
5.8913 4.8694 -2.8540 0.9679
4.9325 5.8342 -2.8528 0.9679
3.2134 6.9247 -2.8506 0.9679
2.5835 7.1811 -2.8498 0.9679
1.9336 7.3804 -2.8489 0.9679
1.2686 7.5209 -2.8480 0.9680
-0.0849 7.6220 -2.8463 0.9680
-0.7627 7.5818 -2.8454 0.9680
-1.4341 7.4815 -2.8445 0.9680
-2.0936 7.3220 -2.8437 0.9680
-2.7362 7.1045 -2.8428 0.9680
-3.3567 6.8308 -2.8420 0.9680
-4.5122 6.1241 -2.8405 0.9680
-6.7009 4.3836 -2.9900 0.9664
-7.0633 3.7692 -2.9895 0.9664
-7.6178 2.4565 -2.9888 0.9664
-7.8055 1.7685 -2.9886 0.9664
-7.9947 0.3565 -2.9883 0.9664
-7.6177 -2.4563 -2.9887 0.9664
-7.3696 -3.1249 -2.9891 0.9664
-6.7007 -4.3833 -2.9899 0.9664
-4.7536 -6.4516 -2.9924 0.9664
-2.2056 -7.7134 -2.9957 0.9663
-1.5108 -7.8815 -2.9966 0.9663
-0.0895 -8.0295 -2.9985 0.9663
1.3365 -7.9230 -3.0004 0.9663
2.7217 -7.5651 -3.0022 0.9663
3.3852 -7.2949 -3.0030 0.9662
4.6275 -6.5827 -3.0047 0.9662
5.7241 -5.6606 -3.0061 0.9662
6.2065 -5.1298 -3.0067 0.9662
6.6397 -4.5579 -3.0073 0.9662
7.3449 -3.3095 -3.0082 0.9662
7.9605 -1.2517 -3.0091 0.9662
7.8967 1.6051 -3.0090 0.9662
6.8370 4.2582 -3.0077 0.9662
6.2734 4.7311 -2.9340 0.9670
5.6680 5.1264 -2.8538 0.9679
4.6671 6.0474 -2.8525 0.9679
4.1093 6.4372 -2.8517 0.9679
2.2608 7.2880 -2.8493 0.9679
1.6026 7.4581 -2.8485 0.9680
0.9322 7.5688 -2.8476 0.9680
0.2547 7.6194 -2.8467 0.9680
-0.4243 7.6094 -2.8458 0.9680
-2.4174 7.2204 -2.8432 0.9680
-3.0495 6.9745 -2.8424 0.9680
-3.6572 6.6735 -2.8416 0.9680
-4.2355 6.3198 -2.8409 0.9680
-5.2864 5.4661 -2.8395 0.9681
-5.7506 4.9728 -2.8389 0.9681
-7.7193 2.1146 -2.9887 0.9664
-7.6153 0.0000 -2.9888 0.9678
-7.4950 -1.3503 -2.9889 0.9678
-7.3455 -2.0121 -2.9891 0.9678
-7.1379 -2.6582 -2.9894 0.9678
-6.1845 -4.4513 -2.9906 0.9678
-5.7648 -4.9850 -2.9911 0.9678
-4.7916 -5.9306 -2.9924 0.9678
-3.6660 -6.6896 -2.9938 0.9678
-3.0568 -6.9911 -2.9946 0.9677
-1.7698 -7.4265 -2.9963 0.9677
-1.1021 -7.5567 -2.9972 0.9677
-0.4253 -7.6271 -2.9981 0.9677
0.9343 -7.5861 -2.9998 0.9677
1.6063 -7.4750 -3.0007 0.9677
2.2659 -7.3045 -3.0016 0.9677
4.1185 -6.4515 -3.0040 0.9676
4.6775 -6.0608 -3.0047 0.9676
5.1996 -5.6217 -3.0054 0.9676
6.8395 -3.4561 -3.0076 0.9676
7.1209 -2.8340 -3.0080 0.9676
7.3456 -2.1892 -3.0083 0.9676
7.6641 -0.1708 -3.0087 0.9676
7.6489 0.5121 -3.0087 0.9676
7.4363 1.8600 -3.0084 0.9676
7.2406 2.5143 -3.0082 0.9676
6.6785 3.7573 -3.0075 0.9676
5.7296 4.7356 -2.9174 0.9686
5.1689 5.1117 -2.8531 0.9692
4.1788 5.9445 -2.8518 0.9693
3.0571 6.5879 -2.8504 0.9693
2.4579 6.8320 -2.8496 0.9693
0.5651 7.2324 -2.8471 0.9693
-0.0808 7.2518 -2.8463 0.9693
-1.3645 7.1184 -2.8446 0.9693
-1.9921 6.9667 -2.8438 0.9693
-4.2935 5.8273 -2.8408 0.9694
-5.9808 4.7231 -2.9910 0.9678
-6.3764 4.1713 -2.9904 0.9678
-6.7213 3.5866 -2.9900 0.9678
-7.5476 1.0151 -2.9889 0.9678
-7.6077 -0.3392 -2.9888 0.9678
-7.4276 -1.6828 -2.9890 0.9678
-6.3762 -4.1710 -2.9903 0.9678
-5.5376 -5.2374 -2.9914 0.9678
-3.9598 -6.5187 -2.9935 0.9678
0.5954 -7.6191 -2.9994 0.9677
1.2715 -7.5381 -3.0003 0.9677
1.9380 -7.3971 -3.0011 0.9677
3.8265 -6.6278 -3.0036 0.9676
4.4024 -6.2624 -3.0044 0.9676
5.4455 -5.3851 -3.0057 0.9676
6.3164 -4.3359 -3.0069 0.9676
6.6783 -3.7571 -3.0074 0.9676
6.9872 -3.1482 -3.0078 0.9676
7.2405 -2.5141 -3.0081 0.9676
7.4361 -1.8599 -3.0084 0.9676
7.5726 -1.1907 -3.0086 0.9676
7.6488 -0.5120 -3.0087 0.9676
7.6641 0.1708 -3.0087 0.9676
7.6184 0.8523 -3.0086 0.9676
7.5120 1.5269 -3.0085 0.9676
7.3457 2.1893 -3.0083 0.9676
7.1211 2.8341 -3.0080 0.9676
6.5040 4.0508 -3.0072 0.9676
5.3921 4.8769 -2.8534 0.9692
4.4400 5.7532 -2.8522 0.9693
3.9094 6.1240 -2.8515 0.9693
3.3480 6.4460 -2.8507 0.9693
1.5247 7.0956 -2.8484 0.9693
0.2424 7.2493 -2.8467 0.9693
-1.6800 7.0495 -2.8442 0.9693
-2.3001 6.8700 -2.8434 0.9693
-2.9016 6.6363 -2.8426 0.9694
-3.4798 6.3499 -2.8418 0.9694
-5.0302 5.2012 -2.8398 0.9694
-5.5233 4.7762 -2.8658 0.9691
-6.1847 4.4516 -2.9907 0.9678
-6.5553 3.8828 -2.9902 0.9678
-6.8739 3.2834 -2.9898 0.9678
-7.3456 2.0122 -2.9892 0.9678
-7.4951 1.3503 -2.9890 0.9678
-7.2306 -0.6461 -2.9893 0.9691
-6.8042 -2.5339 -2.9898 0.9691
-6.5523 -3.1297 -2.9901 0.9691
-6.2486 -3.7010 -2.9905 0.9691
-5.4951 -4.7518 -2.9915 0.9691
-4.5674 -5.6531 -2.9927 0.9691
-4.0470 -6.0385 -2.9934 0.9690
-3.4943 -6.3763 -2.9941 0.9690
-2.9137 -6.6637 -2.9948 0.9690
-2.3096 -6.8984 -2.9956 0.9690
-1.6869 -7.0785 -2.9964 0.9690
-0.4053 -7.2695 -2.9981 0.9690
0.2434 -7.2787 -2.9989 0.9690
0.8905 -7.2302 -2.9998 0.9690
1.5309 -7.1243 -3.0006 0.9690
2.7713 -6.7436 -3.0022 0.9690
5.4135 -4.8962 -3.0057 0.9689
5.8289 -4.3958 -3.0063 0.9689
6.1980 -3.8601 -3.0067 0.9689
6.5179 -3.2936 -3.0072 0.9689
6.7860 -2.7007 -3.0075 0.9689
7.0001 -2.0862 -3.0078 0.9689
7.2600 -0.8121 -3.0082 0.9689
7.2891 0.4880 -3.0082 0.9689
7.0865 1.7725 -3.0080 0.9689
6.6587 3.0003 -3.0074 0.9689
4.9260 4.8714 -2.8528 0.9705
4.4719 5.2895 -2.8522 0.9705
3.4617 5.9958 -2.8509 0.9705
1.7532 6.6921 -2.8487 0.9705
0.5386 6.8931 -2.8471 0.9705
-0.6917 6.8755 -2.8455 0.9705
-1.3005 6.7848 -2.8447 0.9706
-3.0444 6.1952 -2.8424 0.9706
-3.5828 5.8981 -2.8417 0.9706
-4.0926 5.5545 -2.8410 0.9706
-4.5697 5.1671 -2.8404 0.9706
-5.7011 4.5021 -2.9913 0.9691
-6.4070 3.4189 -2.9904 0.9691
-6.9101 2.2282 -2.9897 0.9691
-7.0805 1.6042 -2.9895 0.9691
-7.1948 0.9676 -2.9893 0.9691
-6.9100 -2.2281 -2.9897 0.9691
-6.6849 -2.8346 -2.9900 0.9691
-5.7009 -4.5019 -2.9912 0.9691
-5.2785 -4.9923 -2.9918 0.9691
-3.7744 -6.2136 -2.9937 0.9690
-2.0003 -6.9954 -2.9960 0.9690
-1.3701 -7.1476 -2.9968 0.9690
-0.7287 -7.2432 -2.9977 0.9690
-0.0811 -7.2813 -2.9985 0.9690
0.5674 -7.2617 -2.9994 0.9690
1.2119 -7.1844 -3.0002 0.9690
1.8470 -7.0500 -3.0010 0.9690
2.4678 -6.8595 -3.0018 0.9690
4.1955 -5.9682 -3.0041 0.9689
4.7112 -5.5724 -3.0048 0.9689
5.6268 -4.6506 -3.0060 0.9689
6.8999 -2.3959 -3.0077 0.9689
7.2600 0.8122 -3.0082 0.9689
7.0002 2.0863 -3.0079 0.9689
6.7861 2.7009 -3.0076 0.9689
6.5181 3.2938 -3.0072 0.9689
6.1982 3.8603 -3.0068 0.9689
5.2391 4.7386 -2.9089 0.9699
4.7036 5.0855 -2.8525 0.9705
3.1907 6.1433 -2.8505 0.9705
1.4532 6.7626 -2.8483 0.9705
0.8453 6.8632 -2.8475 0.9705
-0.3848 6.9004 -2.8459 0.9705
-1.6013 6.7192 -2.8443 0.9706
-2.1923 6.5482 -2.8435 0.9706
-2.7657 6.3254 -2.8428 0.9706
-3.8415 5.7320 -2.8414 0.9706
-5.4954 4.7521 -2.9916 0.9691
-5.8955 4.2433 -2.9911 0.9691
-6.2488 3.7012 -2.9906 0.9691
-6.8043 2.5340 -2.9899 0.9691
-7.2306 0.6462 -2.9893 0.9691
-6.9308 0.0000 -2.9897 0.9703
-6.9034 -0.6169 -2.9897 0.9703
-6.8213 -1.2289 -2.9898 0.9703
-6.6852 -1.8312 -2.9900 0.9703
-5.9657 -3.5335 -2.9909 0.9702
-5.2463 -4.5367 -2.9918 0.9702
-1.6104 -6.7574 -2.9965 0.9702
-0.3870 -6.9396 -2.9981 0.9702
0.2323 -6.9484 -2.9989 0.9702
0.8501 -6.9020 -2.9997 0.9702
2.0614 -6.6454 -3.0013 0.9701
3.2086 -6.1777 -3.0028 0.9701
4.7299 -5.1139 -3.0048 0.9701
5.1673 -4.6735 -3.0054 0.9701
5.5637 -4.1958 -3.0059 0.9701
6.2213 -3.1437 -3.0068 0.9701
6.6815 -1.9913 -3.0074 0.9701
6.9711 -0.1553 -3.0078 0.9701
6.8880 1.0831 -3.0077 0.9701
6.7639 1.6918 -3.0075 0.9701
5.7457 3.9443 -3.0062 0.9701
5.3710 4.4393 -3.0058 0.9701
4.7931 4.7400 -2.9078 0.9711
4.2686 5.0489 -2.8519 0.9716
3.8014 5.4077 -2.8513 0.9716
1.0981 6.5100 -2.8478 0.9716
-3.9072 5.3029 -2.8413 0.9717
-5.8030 3.7962 -2.9912 0.9702
-6.1170 3.2642 -2.9908 0.9702
-6.5974 2.1274 -2.9901 0.9703
-6.7601 1.5317 -2.9899 0.9703
-6.9240 -0.3087 -2.9897 0.9703
-6.8692 -0.9238 -2.9897 0.9703
-6.7600 -1.5316 -2.9899 0.9703
-6.3823 -2.7063 -2.9904 0.9703
-6.1168 -3.2640 -2.9907 0.9702
-5.4428 -4.2981 -2.9916 0.9702
-5.0395 -4.7663 -2.9921 0.9702
-4.5961 -5.1969 -2.9927 0.9702
-3.6034 -5.9320 -2.9939 0.9702
-3.0619 -6.2306 -2.9946 0.9702
-0.6956 -6.9146 -2.9977 0.9702
1.7631 -6.7298 -3.0009 0.9701
2.3557 -6.5479 -3.0017 0.9701
2.9299 -6.3137 -3.0025 0.9701
3.4811 -6.0294 -3.0032 0.9701
4.0048 -5.6969 -3.0039 0.9701
4.4969 -5.3190 -3.0045 0.9701
4.9535 -4.8986 -3.0051 0.9701
5.3708 -4.4391 -3.0057 0.9701
6.0747 -3.4175 -3.0066 0.9701
6.3555 -2.8637 -3.0070 0.9701
6.5859 -2.2868 -3.0073 0.9701
6.8879 -1.0830 -3.0077 0.9701
6.8328 1.3888 -3.0076 0.9701
6.6816 1.9913 -3.0074 0.9701
6.4773 2.5779 -3.0072 0.9701
6.2215 3.1439 -3.0069 0.9701
5.1675 4.6737 -3.0055 0.9701
4.0390 5.2335 -2.8516 0.9716
3.0457 5.8641 -2.8503 0.9716
2.5111 6.1104 -2.8496 0.9716
1.9568 6.3081 -2.8489 0.9716
1.3872 6.4555 -2.8482 0.9716
0.2205 6.5957 -2.8467 0.9717
-0.9519 6.5268 -2.8451 0.9717
-2.0929 6.2513 -2.8437 0.9717
-2.6404 6.0387 -2.8429 0.9717
-4.1391 5.1230 -2.8410 0.9717
-4.6169 4.7739 -2.8647 0.9715
-5.2465 4.5369 -2.9919 0.9702
-5.9659 3.5337 -2.9910 0.9702
-6.4964 2.4193 -2.9903 0.9703
-6.6853 1.8313 -2.9900 0.9703
-6.6004 -0.5898 -2.9901 0.9713
-6.5219 -1.1750 -2.9902 0.9713
-5.9812 -2.8569 -2.9909 0.9713
-5.0159 -4.3374 -2.9921 0.9713
-4.6108 -4.7675 -2.9926 0.9713
-3.6939 -5.5116 -2.9938 0.9713
-3.1894 -5.8198 -2.9945 0.9713
-2.6593 -6.0820 -2.9952 0.9713
-1.5396 -6.4603 -2.9966 0.9713
0.8126 -6.5981 -2.9997 0.9712
1.3970 -6.5012 -3.0005 0.9712
3.5815 -5.6103 -3.0033 0.9712
4.0674 -5.2704 -3.0039 0.9712
4.9394 -4.4674 -3.0051 0.9712
5.3183 -4.0107 -3.0056 0.9712
5.6550 -3.5219 -3.0060 0.9712
6.1913 -2.4640 -3.0067 0.9712
6.3866 -1.9034 -3.0070 0.9712
6.5311 -1.3275 -3.0072 0.9712
6.6236 -0.7409 -3.0073 0.9712
6.6502 0.4452 -3.0074 0.9712
6.5840 1.0353 -3.0073 0.9712
6.4654 1.6171 -3.0072 0.9712
6.0752 2.7374 -3.0067 0.9712
5.8068 3.2669 -3.0063 0.9712
5.4922 3.7703 -3.0059 0.9712
4.7352 4.6828 -3.0049 0.9712
4.0804 4.8263 -2.8517 0.9726
3.6339 5.1693 -2.8511 0.9727
3.1587 5.4710 -2.8505 0.9727
2.6586 5.7291 -2.8498 0.9727
2.1376 5.9416 -2.8492 0.9727
-0.6312 6.2748 -2.8456 0.9727
-2.2649 5.8806 -2.8434 0.9727
-3.7355 5.0699 -2.8415 0.9727
-5.5482 3.6295 -2.9915 0.9713
-5.8484 3.1208 -2.9911 0.9713
-6.1023 2.5876 -2.9908 0.9713
-6.3078 2.0341 -2.9905 0.9713
-6.4634 1.4644 -2.9903 0.9713
-6.5677 0.8833 -2.9902 0.9713
-6.6201 0.2952 -2.9901 0.9713
-6.6201 -0.2952 -2.9901 0.9713
-6.4633 -1.4644 -2.9903 0.9713
-6.3077 -2.0339 -2.9905 0.9713
-5.2038 -4.1093 -2.9919 0.9713
-3.9353 -5.3411 -2.9935 0.9713
-1.2504 -6.5232 -2.9970 0.9713
0.5178 -6.6269 -2.9993 0.9713
1.6855 -6.4334 -3.0008 0.9712
2.2519 -6.2594 -3.0016 0.9712
3.3276 -5.7636 -3.0030 0.9712
4.2987 -5.0845 -3.0042 0.9712
5.4921 -3.7701 -3.0058 0.9712
6.0751 -2.7373 -3.0066 0.9712
6.2952 -2.1859 -3.0069 0.9712
6.5839 -1.0352 -3.0073 0.9712
6.6634 0.1485 -3.0074 0.9712
6.6237 0.7410 -3.0073 0.9712
6.5312 1.3276 -3.0072 0.9712
6.3867 1.9035 -3.0071 0.9712
5.6551 3.5221 -3.0061 0.9712
4.9395 4.4676 -3.0052 0.9712
3.8609 5.0028 -2.8514 0.9726
2.4004 5.8412 -2.8495 0.9727
1.8706 6.0302 -2.8488 0.9727
0.2108 6.3053 -2.8467 0.9727
-0.9100 6.2396 -2.8452 0.9727
-2.0009 5.9764 -2.8438 0.9727
-4.5957 4.7519 -2.9828 0.9714
-5.3814 3.8733 -2.9917 0.9713
-6.2112 2.3131 -2.9906 0.9713
-6.3919 1.7510 -2.9904 0.9713
-6.1192 -1.6762 -2.9907 0.9723
-5.9462 -2.2143 -2.9909 0.9723
-5.4605 -3.2342 -2.9915 0.9723
-5.1516 -3.7079 -2.9919 0.9723
-4.8019 -4.1523 -2.9924 0.9723
-3.9910 -4.9396 -2.9934 0.9723
-2.5457 -5.8221 -2.9953 0.9723
-2.0179 -6.0270 -2.9960 0.9723
1.8863 -6.0808 -3.0011 0.9722
2.9359 -5.6526 -3.0025 0.9722
3.8932 -5.0446 -3.0037 0.9722
4.3276 -4.6789 -3.0043 0.9722
5.0903 -3.8387 -3.0053 0.9722
5.6918 -2.8762 -3.0061 0.9722
6.1127 -1.8217 -3.0067 0.9722
6.3396 -0.7091 -3.0070 0.9722
6.3776 -0.1421 -3.0070 0.9722
6.3650 0.4261 -3.0070 0.9722
6.3016 0.9909 -3.0069 0.9722
6.0254 2.0923 -3.0066 0.9722
5.8147 2.6200 -3.0063 0.9722
5.5579 3.1269 -3.0060 0.9722
5.2568 3.6087 -3.0056 0.9722
4.5323 4.4821 -3.0047 0.9722
4.0065 4.7389 -2.9252 0.9729
3.4782 4.9478 -2.8509 0.9736
3.0234 5.2367 -2.8503 0.9736
2.5447 5.4838 -2.8497 0.9736
1.5314 5.8454 -2.8484 0.9736
1.0048 5.9571 -2.8477 0.9736
-0.0673 6.0379 -2.8463 0.9737
-0.6042 6.0065 -2.8456 0.9737
-1.1362 5.9274 -2.8449 0.9737
-3.5760 4.8534 -2.8417 0.9737
-4.2006 4.7497 -2.9889 0.9723
-5.5989 2.9877 -2.9914 0.9723
-5.8420 2.4772 -2.9911 0.9723
-6.1877 1.4020 -2.9907 0.9723
-6.2876 0.8456 -2.9905 0.9723
-6.3378 0.2826 -2.9904 0.9723
-6.2876 -0.8456 -2.9905 0.9723
-5.8419 -2.4771 -2.9911 0.9723
-5.5988 -2.9876 -2.9914 0.9723
-4.9817 -3.9340 -2.9922 0.9723
-4.2067 -4.7565 -2.9932 0.9723
-3.7673 -5.1130 -2.9937 0.9723
-3.2979 -5.4291 -2.9943 0.9723
-1.7476 -6.1116 -2.9964 0.9723
2.1555 -5.9914 -3.0014 0.9722
4.1145 -4.8666 -3.0040 0.9722
4.5321 -4.4819 -3.0046 0.9722
5.5577 -3.1267 -3.0059 0.9722
6.0253 -2.0922 -3.0065 0.9722
6.3016 -0.9909 -3.0069 0.9722
6.3396 0.7092 -3.0070 0.9722
6.1128 1.8219 -3.0067 0.9722
5.9260 2.3585 -3.0065 0.9722
5.6920 2.8763 -3.0062 0.9722
4.3278 4.6792 -3.0044 0.9722
3.6954 4.7884 -2.8512 0.9736
3.2540 5.0973 -2.8506 0.9736
2.7868 5.3656 -2.8500 0.9736
1.7905 5.7721 -2.8487 0.9736
0.2018 6.0356 -2.8466 0.9736
-0.3361 6.0282 -2.8459 0.9737
-0.8711 5.9729 -2.8452 0.9737
-2.4164 5.5266 -2.8432 0.9737
-2.8981 5.2884 -2.8426 0.9737
-3.3566 5.0084 -2.8420 0.9737
-4.8020 4.1525 -2.9925 0.9723
-5.1518 3.7080 -2.9920 0.9723
-5.4606 3.2344 -2.9916 0.9723
-5.7261 2.7352 -2.9913 0.9723
-6.2438 1.1249 -2.9906 0.9723
-6.0806 0.0000 -2.9908 0.9733
-4.9376 -3.5538 -2.9922 0.9732
-3.8251 -4.7343 -2.9937 0.9732
-0.3394 -6.0862 -2.9982 0.9732
0.7455 -6.0528 -2.9996 0.9732
1.8077 -5.8274 -3.0010 0.9732
2.3197 -5.6446 -3.0017 0.9732
2.8135 -5.4170 -3.0023 0.9732
3.2852 -5.1461 -3.0029 0.9732
3.7309 -4.8342 -3.0035 0.9731
4.5305 -4.0975 -3.0046 0.9731
5.4543 -2.7562 -3.0058 0.9731
5.6785 -2.2600 -3.0061 0.9731
6.1114 -0.1362 -3.0067 0.9731
6.0993 0.4083 -3.0067 0.9731
5.7739 2.0049 -3.0063 0.9731
5.0375 3.4580 -3.0053 0.9731
4.7090 3.8922 -3.0049 0.9731
4.3432 4.2952 -3.0044 0.9731
1.4676 5.6019 -2.8483 0.9745
0.9630 5.7089 -2.8476 0.9745
-1.0889 5.6808 -2.8450 0.9745
-3.5090 4.7625 -2.9096 0.9740
-5.0908 3.3303 -2.9921 0.9732
-5.3664 2.8636 -2.9917 0.9733
-5.5993 2.3744 -2.9914 0.9733
-5.7880 1.8664 -2.9912 0.9733
-6.0265 0.8105 -2.9909 0.9733
-6.0746 0.2709 -2.9908 0.9733
-6.0746 -0.2708 -2.9908 0.9733
-6.0265 -0.8105 -2.9908 0.9733
-5.9307 -1.3437 -2.9910 0.9733
-5.7879 -1.8663 -2.9911 0.9733
-5.5992 -2.3743 -2.9914 0.9733
-5.3662 -2.8635 -2.9917 0.9733
-5.0907 -3.3301 -2.9920 0.9732
-4.0318 -4.5588 -2.9934 0.9732
-3.6107 -4.9005 -2.9939 0.9732
-3.1608 -5.2034 -2.9945 0.9732
-0.0679 -6.0960 -2.9985 0.9732
1.0145 -6.0143 -3.0000 0.9732
1.5461 -5.9015 -3.0007 0.9732
3.5115 -4.9951 -3.0032 0.9731
3.9429 -4.6636 -3.0038 0.9731
4.7089 -3.8920 -3.0048 0.9731
5.0373 -3.4579 -3.0052 0.9731
5.3258 -2.9962 -3.0056 0.9731
5.5719 -2.5105 -3.0059 0.9731
5.7738 -2.0049 -3.0062 0.9731
5.9901 1.2176 -3.0065 0.9731
5.8577 1.7458 -3.0064 0.9731
5.4544 2.7563 -3.0058 0.9731
4.8781 3.6788 -3.0051 0.9731
4.1473 4.4840 -3.0042 0.9731
3.6555 4.7366 -2.9428 0.9737
2.6706 5.1419 -2.8498 0.9745
1.7159 5.5316 -2.8486 0.9745
1.2165 5.6611 -2.8480 0.9745
0.1934 5.7844 -2.8466 0.9745
-0.3221 5.7772 -2.8460 0.9745
-1.3407 5.6260 -2.8446 0.9745
-1.8357 5.4831 -2.8440 0.9746
-2.3159 5.2967 -2.8433 0.9746
-3.2170 4.8002 -2.8422 0.9746
-3.8252 4.7346 -2.9938 0.9732
-4.6025 3.9799 -2.9928 0.9732
-4.9377 3.5540 -2.9923 0.9732
-5.2338 3.1000 -2.9919 0.9732
-5.4883 2.6216 -2.9916 0.9733
-5.6993 2.1225 -2.9913 0.9733
-6.0566 0.5413 -2.9908 0.9733
-5.8344 0.0000 -2.9911 0.9741
-5.8113 -0.5192 -2.9911 0.9741
-5.7421 -1.0345 -2.9912 0.9741
-5.6275 -1.5415 -2.9914 0.9741
-4.7375 -3.4098 -2.9925 0.9741
-4.4158 -3.8185 -2.9929 0.9741
-4.0591 -4.1970 -2.9934 0.9741
-2.8075 -5.1231 -2.9950 0.9741
-1.8555 -5.5420 -2.9962 0.9741
-1.3551 -5.6863 -2.9969 0.9741
-0.8438 -5.7857 -2.9975 0.9741
-0.3256 -5.8391 -2.9982 0.9741
0.1955 -5.8463 -2.9989 0.9740
0.7152 -5.8070 -2.9996 0.9740
2.2254 -5.4153 -3.0015 0.9740
2.6991 -5.1968 -3.0022 0.9740
3.9784 -4.3014 -3.0038 0.9740
4.6795 -3.5290 -3.0048 0.9740
4.9757 -3.0988 -3.0052 0.9740
5.4474 -2.1680 -3.0058 0.9740
5.8626 -0.1306 -3.0063 0.9740
5.8510 0.3917 -3.0063 0.9740
5.7928 0.9109 -3.0063 0.9740
5.6885 1.4228 -3.0061 0.9740
5.3453 2.4085 -3.0057 0.9740
5.1092 2.8744 -3.0054 0.9740
4.8325 3.3174 -3.0050 0.9740
4.5175 3.7338 -3.0046 0.9740
3.7827 4.4742 -3.0037 0.9740
2.7796 4.8143 -2.8500 0.9753
0.9239 5.4771 -2.8476 0.9753
0.4326 5.5363 -2.8469 0.9753
-0.0619 5.5516 -2.8463 0.9754
-1.0447 5.4502 -2.8450 0.9754
-1.5253 5.3344 -2.8444 0.9754
-1.9936 5.1764 -2.8438 0.9754
-2.8974 4.7698 -2.8611 0.9752
-4.2418 4.0119 -2.9932 0.9741
-4.5814 3.6179 -2.9928 0.9741
-5.1490 2.7476 -2.9920 0.9741
-5.3725 2.2782 -2.9917 0.9741
-5.5535 1.7908 -2.9915 0.9741
-5.8286 0.2599 -2.9911 0.9741
-5.7824 -0.7776 -2.9912 0.9741
-5.3724 -2.2781 -2.9917 0.9741
-5.1488 -2.7475 -2.9920 0.9741
-4.5812 -3.6177 -2.9927 0.9741
-3.8684 -4.3740 -2.9936 0.9741
-2.5768 -5.2436 -2.9953 0.9741
-2.1003 -5.4532 -2.9959 0.9741
-1.6069 -5.6197 -2.9965 0.9741
-0.5853 -5.8182 -2.9979 0.9741
0.4558 -5.8324 -2.9992 0.9740
1.9818 -5.5084 -3.0012 0.9740
3.3687 -4.7920 -3.0030 0.9740
3.7825 -4.4740 -3.0036 0.9740
4.1665 -4.1202 -3.0041 0.9740
5.1091 -2.8743 -3.0053 0.9740
5.3452 -2.4084 -3.0056 0.9740
5.6884 -1.4227 -3.0061 0.9740
5.7927 -0.9108 -3.0062 0.9740
5.8510 -0.3917 -3.0063 0.9740
5.8626 0.1307 -3.0063 0.9740
5.8277 0.6519 -3.0063 0.9740
5.6193 1.6748 -3.0060 0.9740
4.9758 3.0990 -3.0052 0.9740
3.9786 4.3016 -3.0039 0.9740
3.0313 4.7485 -2.8881 0.9750
2.5621 4.9329 -2.8497 0.9753
2.1124 5.1403 -2.8491 0.9753
1.6462 5.3068 -2.8485 0.9753
0.6789 5.5122 -2.8473 0.9753
0.1855 5.5494 -2.8466 0.9754
-0.3091 5.5427 -2.8460 0.9754
-0.8010 5.4920 -2.8453 0.9754
-1.2863 5.3977 -2.8447 0.9754
-2.2220 5.0819 -2.8435 0.9754
-2.6649 4.8629 -2.8429 0.9754
-3.6701 4.5426 -2.9940 0.9741
-4.0592 4.1972 -2.9935 0.9741
-5.0217 2.9744 -2.9922 0.9741
-5.2660 2.5154 -2.9919 0.9741
-5.6276 1.5416 -2.9914 0.9741
-5.8113 0.5193 -2.9911 0.9741
-5.5813 -0.4987 -2.9914 0.9749
-5.5149 -0.9935 -2.9915 0.9749
-5.2520 -1.9558 -2.9918 0.9749
-4.5500 -3.2748 -2.9927 0.9749
-4.2410 -3.6673 -2.9931 0.9749
-3.5247 -4.3625 -2.9941 0.9749
-3.1229 -4.6597 -2.9946 0.9749
-1.3014 -5.4609 -2.9969 0.9749
-0.3127 -5.6076 -2.9982 0.9749
0.1877 -5.6144 -2.9989 0.9749
1.1807 -5.4945 -3.0002 0.9748
2.5920 -4.9904 -3.0020 0.9748
3.0264 -4.7408 -3.0026 0.9748
3.4370 -4.4534 -3.0031 0.9748
3.8204 -4.1305 -3.0036 0.9748
4.1735 -3.7747 -3.0041 0.9748
4.7779 -2.9757 -3.0049 0.9748
5.0244 -2.5389 -3.0052 0.9748
5.2309 -2.0818 -3.0055 0.9748
5.3958 -1.6081 -3.0057 0.9748
5.5959 -0.6260 -3.0060 0.9748
5.6184 0.3761 -3.0060 0.9748
5.3187 1.8469 -3.0057 0.9748
4.9061 2.7602 -3.0051 0.9748
4.3379 3.5854 -3.0044 0.9748
3.6324 4.2965 -3.0035 0.9748
2.7382 4.7427 -2.9235 0.9755
1.8065 5.0212 -2.8487 0.9761
1.3521 5.1610 -2.8481 0.9761
0.8872 5.2597 -2.8475 0.9761
0.4154 5.3167 -2.8469 0.9761
-1.0033 5.2341 -2.8451 0.9761
-1.9146 4.9713 -2.8439 0.9761
-3.3272 4.5158 -2.9944 0.9749
-3.7153 4.2010 -2.9939 0.9749
-4.0739 3.8531 -2.9934 0.9749
-4.4000 3.4747 -2.9930 0.9749
-4.6912 3.0689 -2.9926 0.9749
-5.1599 2.1880 -2.9920 0.9749
-5.5536 -0.7469 -2.9915 0.9749
-5.3337 -1.7199 -2.9917 0.9749
-5.1598 -2.1879 -2.9920 0.9749
-4.3999 -3.4745 -2.9929 0.9749
-4.0737 -3.8529 -2.9934 0.9749
-3.7152 -4.2008 -2.9938 0.9749
-2.4747 -5.0358 -2.9954 0.9749
-1.5432 -5.3970 -2.9966 0.9749
-0.5621 -5.5875 -2.9979 0.9749
0.4377 -5.6011 -2.9992 0.9748
0.9347 -5.5411 -2.9999 0.9748
1.9031 -5.2898 -3.0011 0.9748
2.8120 -4.8704 -3.0023 0.9748
3.2349 -4.6017 -3.0029 0.9748
3.6323 -4.2962 -3.0034 0.9748
4.3378 -3.5853 -3.0043 0.9748
4.6403 -3.1854 -3.0047 0.9748
4.9060 -2.7600 -3.0051 0.9748
5.5624 -0.8746 -3.0059 0.9748
5.6183 -0.3761 -3.0060 0.9748
5.5960 0.6260 -3.0060 0.9748
5.3959 1.6082 -3.0058 0.9748
5.2310 2.0819 -3.0055 0.9748
5.0245 2.5390 -3.0053 0.9748
4.7780 2.9758 -3.0050 0.9748
4.4937 3.3889 -3.0046 0.9748
4.1736 3.7748 -3.0042 0.9748
3.0187 4.7287 -2.9949 0.9749
2.4710 4.7574 -2.8618 0.9760
2.0286 4.9362 -2.8490 0.9761
1.1208 5.2155 -2.8478 0.9761
0.1782 5.3293 -2.8466 0.9761
-0.7692 5.2742 -2.8454 0.9761
-1.2353 5.1837 -2.8448 0.9761
-1.6914 5.0521 -2.8442 0.9761
-2.6096 4.7620 -2.8989 0.9757
-3.5248 4.3628 -2.9942 0.9749
-3.8985 4.0310 -2.9937 0.9749
-4.2411 3.6675 -2.9932 0.9749
-4.5501 3.2750 -2.9928 0.9749
-5.0576 2.4158 -2.9921 0.9749
-5.4049 1.4806 -2.9917 0.9749
-5.3866 0.0000 -2.9917 0.9757
-5.3652 -0.4794 -2.9917 0.9757
-5.1956 -1.4232 -2.9919 0.9757
-4.0767 -3.5253 -2.9934 0.9756
-3.7473 -3.8747 -2.9938 0.9756
-2.5918 -4.7294 -2.9953 0.9756
-2.1610 -4.9422 -2.9958 0.9756
-1.2510 -5.2491 -2.9970 0.9756
-0.7789 -5.3407 -2.9976 0.9756
-0.3005 -5.3900 -2.9983 0.9756
0.1804 -5.3965 -2.9989 0.9756
0.6602 -5.3601 -2.9995 0.9756
2.0541 -4.9983 -3.0013 0.9756
2.4913 -4.7965 -3.0019 0.9756
3.3034 -4.2803 -3.0030 0.9756
4.0113 -3.6279 -3.0039 0.9756
4.3188 -3.2570 -3.0043 0.9756
4.5921 -2.8600 -3.0047 0.9756
5.0274 -2.0008 -3.0052 0.9755
5.3032 -1.0779 -3.0056 0.9755
5.3998 0.3615 -3.0057 0.9755
5.3461 0.8407 -3.0057 0.9755
5.1118 1.7750 -3.0054 0.9755
4.7153 2.6529 -3.0049 0.9755
4.1693 3.4461 -3.0042 0.9756
3.8455 3.8029 -3.0038 0.9756
2.7028 4.6815 -3.0023 0.9756
2.2030 4.7473 -2.9067 0.9763
1.7363 4.8262 -2.8486 0.9768
1.2996 4.9606 -2.8481 0.9768
0.3993 5.1103 -2.8469 0.9768
-0.9644 5.0311 -2.8451 0.9768
-2.3359 4.7534 -2.9415 0.9761
-3.1983 4.3408 -2.9946 0.9756
-3.5714 4.0382 -2.9941 0.9756
-3.9160 3.7038 -2.9936 0.9756
-4.5095 2.9500 -2.9929 0.9756
-5.1273 1.6534 -2.9920 0.9757
-5.2538 1.1904 -2.9919 0.9757
-5.3812 0.2400 -2.9917 0.9757
-5.3812 -0.2399 -2.9917 0.9757
-5.3386 -0.7179 -2.9917 0.9757
-5.2537 -1.1903 -2.9918 0.9757
-4.9600 -2.1032 -2.9922 0.9757
-4.2295 -3.3399 -2.9932 0.9756
-3.9159 -3.7036 -2.9936 0.9756
-3.1982 -4.3406 -2.9945 0.9756
-2.7997 -4.6088 -2.9950 0.9756
-2.3788 -4.8406 -2.9955 0.9756
-1.9388 -5.0341 -2.9961 0.9756
-1.4834 -5.1877 -2.9967 0.9756
-1.0160 -5.3002 -2.9973 0.9756
-0.5403 -5.3707 -2.9979 0.9756
-0.0601 -5.3986 -2.9986 0.9756
0.4207 -5.3836 -2.9992 0.9756
1.3691 -5.2259 -3.0004 0.9756
2.2749 -4.9023 -3.0016 0.9756
3.8454 -3.8028 -3.0037 0.9756
4.1692 -3.4459 -3.0041 0.9756
5.2498 -1.3130 -3.0055 0.9755
5.3461 -0.8406 -3.0057 0.9755
5.3998 -0.3614 -3.0057 0.9755
5.0275 2.0010 -3.0053 0.9755
4.0114 3.6281 -3.0040 0.9756
2.4598 4.7360 -2.9640 0.9759
1.9566 4.7612 -2.8589 0.9767
1.0772 5.0130 -2.8478 0.9768
0.6267 5.0880 -2.8472 0.9768
0.1712 5.1225 -2.8466 0.9768
-0.2853 5.1163 -2.8460 0.9768
-1.6259 4.8562 -2.8442 0.9768
-2.0825 4.7628 -2.8870 0.9765
-2.5919 4.7296 -2.9954 0.9756
-3.0020 4.4794 -2.9948 0.9756
-3.3882 4.1937 -2.9943 0.9756
-3.7474 3.8748 -2.9939 0.9756
-4.3739 3.1481 -2.9930 0.9756
-4.6362 2.7460 -2.9927 0.9756
-4.8617 2.3223 -2.9924 0.9756
-5.1957 1.4233 -2.9919 0.9757
-5.3653 0.4795 -2.9917 0.9757
-5.1822 0.0000 -2.9920 0.9763
-5.1003 -0.9188 -2.9920 0.9763
-4.6771 -2.2341 -2.9926 0.9763
-4.4601 -2.6417 -2.9929 0.9763
-3.2595 -4.0343 -2.9944 0.9763
-2.8879 -4.3091 -2.9949 0.9763
-2.4933 -4.5497 -2.9954 0.9763
-1.6478 -4.9215 -2.9965 0.9763
-0.7493 -5.1377 -2.9977 0.9763
0.6351 -5.1562 -2.9995 0.9763
1.0917 -5.0803 -3.0001 0.9763
1.5398 -4.9639 -3.0007 0.9763
1.9759 -4.8081 -3.0012 0.9763
2.7981 -4.3831 -3.0023 0.9763
3.1776 -4.1174 -3.0028 0.9763
3.8585 -3.4898 -3.0037 0.9763
4.1543 -3.1329 -3.0041 0.9763
4.8359 -1.9246 -3.0050 0.9762
4.9883 -1.4867 -3.0052 0.9762
5.2044 -0.1160 -3.0055 0.9762
5.1940 0.3477 -3.0055 0.9762
5.1424 0.8086 -3.0054 0.9762
4.9170 1.7074 -3.0051 0.9762
3.6990 3.6581 -3.0036 0.9763
3.3583 3.9722 -3.0031 0.9763
2.9909 4.2547 -3.0027 0.9763
2.5999 4.5032 -3.0021 0.9763
2.1884 4.7159 -3.0016 0.9763
1.7080 4.7476 -2.9130 0.9770
0.3847 4.9237 -2.8514 0.9774
-0.0549 4.9296 -2.8463 0.9775
-0.4934 4.9042 -2.8457 0.9775
-1.3626 4.7655 -2.8616 0.9774
-1.8303 4.7522 -2.9401 0.9768
-2.2885 4.6569 -2.9958 0.9763
-2.6934 4.4340 -2.9952 0.9763
-3.0769 4.1760 -2.9947 0.9763
-3.4358 3.8849 -2.9943 0.9763
-3.7674 3.5632 -2.9938 0.9763
-4.0690 3.2133 -2.9934 0.9763
-4.5733 2.4404 -2.9928 0.9763
-4.7719 2.0235 -2.9925 0.9763
-4.9327 1.5906 -2.9923 0.9763
-5.0544 1.1452 -2.9921 0.9763
-5.1771 0.2309 -2.9920 0.9763
-5.1771 -0.2308 -2.9920 0.9763
-5.1361 -0.6907 -2.9920 0.9763
-5.0544 -1.1451 -2.9921 0.9763
-4.7718 -2.0234 -2.9925 0.9763
-4.5732 -2.4403 -2.9927 0.9763
-4.3383 -2.8379 -2.9930 0.9763
-3.4357 -3.8847 -2.9942 0.9763
-3.0768 -4.1758 -2.9946 0.9763
-1.8652 -4.8428 -2.9962 0.9763
-0.5198 -5.1665 -2.9980 0.9763
-0.0579 -5.1933 -2.9986 0.9763
0.8642 -5.1233 -2.9998 0.9763
1.7596 -4.8909 -3.0009 0.9763
2.1883 -4.7157 -3.0015 0.9763
2.9908 -4.2545 -3.0026 0.9763
3.6989 -3.6579 -3.0035 0.9763
4.0104 -3.3146 -3.0039 0.9763
4.2900 -2.9449 -3.0043 0.9763
4.5356 -2.5516 -3.0046 0.9762
4.7451 -2.1380 -3.0049 0.9762
4.9170 -1.7074 -3.0051 0.9762
5.1423 -0.8086 -3.0054 0.9762
5.1940 -0.3477 -3.0055 0.9762
5.1733 0.5788 -3.0055 0.9762
4.9884 1.4868 -3.0052 0.9762
4.8359 1.9247 -3.0050 0.9762
4.1544 3.1330 -3.0042 0.9763
3.8586 3.4899 -3.0038 0.9763
3.1777 4.1176 -3.0029 0.9763
1.9473 4.7386 -2.9578 0.9766
1.4751 4.7553 -2.8745 0.9773
1.0363 4.8223 -2.8477 0.9775
0.6028 4.8945 -2.8471 0.9775
-0.2747 4.9272 -2.8491 0.9775
-1.1423 4.7933 -2.8449 0.9775
-1.5935 4.7594 -2.8978 0.9771
-2.8880 4.3092 -2.9950 0.9763
-3.2596 4.0345 -2.9945 0.9763
-3.6052 3.7278 -2.9941 0.9763
-3.9221 3.3916 -2.9936 0.9763
-4.6772 2.2341 -2.9926 0.9763
-4.9985 1.3693 -2.9922 0.9763
