ply
format ascii 1.0
element vertex 1639
property float32 x
property float32 y
property float32 z
property float32 I
end_header
-4.3218 7.1147 4.6234 0.9626
-4.3214 7.1141 4.4436 0.9630
-4.3210 7.1134 4.2669 0.9633
-4.3196 7.1110 3.5889 0.9644
-4.3192 7.1104 3.4258 0.9647
-4.3181 7.1086 2.9492 0.9653
-4.3171 7.1070 2.4895 0.9659
-4.3165 7.1059 2.1908 0.9662
-4.3155 7.1043 1.7524 0.9666
-4.3152 7.1037 1.6085 0.9667
-4.3149 7.1032 1.4655 0.9668
8.7416 -6.5923 1.7434 0.9566
-4.3146 7.1027 1.3233 0.9669
-4.3142 7.1022 1.1820 0.9670
8.4069 -6.9485 1.5513 0.9569
8.1877 -6.7673 1.3312 0.9581
9.7654 -5.4939 1.4041 0.9558
8.1215 -7.3454 1.1878 0.9569
8.1807 -6.1694 1.1114 0.9596
8.8222 -5.4945 1.1273 0.9590
8.0361 -6.6420 1.1308 0.9589
8.4378 -5.7922 1.1101 0.9597
8.7244 -5.4336 0.9423 0.9596
-4.3133 7.1007 0.7617 0.9672
8.3584 -5.7378 0.9295 0.9601
8.0314 -6.0568 0.7538 0.9605
-4.3130 7.1002 0.6226 0.9672
7.8654 -6.5009 0.7647 0.9599
8.2853 -5.6875 0.7531 0.9605
9.1606 -5.1537 0.7877 0.9587
8.5877 -5.3485 0.5893 0.9603
7.8218 -6.4648 0.5910 0.9602
8.2427 -5.6583 0.5823 0.9607
9.0919 -5.1150 0.6076 0.9591
7.7198 -6.9821 0.4328 0.9592
7.9488 -5.9945 0.4140 0.9609
8.5416 -5.3198 0.4184 0.9605
8.0136 -7.9249 0.4686 0.9559
7.7787 -6.4293 0.4196 0.9604
7.9335 -5.9829 0.2478 0.9610
8.5237 -5.3086 0.2504 0.9606
9.8078 -4.9561 0.2740 0.9570
-4.3121 7.0987 0.2071 0.9673
7.9360 -7.8481 0.2783 0.9563
8.1852 -5.6188 0.2476 0.9611
8.9999 -5.0633 0.2575 0.9595
7.6754 -6.9420 0.0860 0.9594
7.9205 -5.9731 0.0825 0.9611
9.7634 -4.9337 0.0909 0.9572
7.8927 -7.8052 0.0923 0.9566
7.7481 -6.4040 0.0835 0.9606
8.9796 -5.0519 0.0856 0.9596
7.6777 -6.9441 -0.0860 0.9594
7.9222 -5.9744 -0.0825 0.9611
9.7691 -4.9366 -0.0910 0.9572
7.8978 -7.8103 -0.0923 0.9565
7.7499 -6.4055 -0.0836 0.9606
8.1737 -5.6109 -0.0824 0.9611
7.6966 -6.9611 -0.2588 0.9593
7.9355 -5.9844 -0.2479 0.9610
9.8136 -4.9590 -0.2742 0.9570
-4.3112 7.0972 -0.2071 0.9673
8.1872 -5.6202 -0.2477 0.9610
7.9544 -5.9987 -0.4142 0.9609
9.9010 -5.0032 -0.4612 0.9566
-4.3109 7.0967 -0.3452 0.9673
8.0312 -7.9422 -0.4696 0.9558
8.2065 -5.6335 -0.4139 0.9609
9.0362 -5.0837 -0.4311 0.9593
7.7870 -7.0430 -0.6115 0.9588
7.9958 -6.0299 -0.5833 0.9607
8.5944 -5.3527 -0.5897 0.9602
10.0603 -5.0837 -0.6565 0.9558
7.8578 -7.1069 -0.7940 0.9584
8.6432 -5.3830 -0.7631 0.9600
-4.3103 7.0957 -0.6222 0.9672
7.8739 -6.5079 -0.7655 0.9599
8.2917 -5.6919 -0.7537 0.9605
8.1139 -6.1190 -0.9317 0.9600
8.7374 -5.4417 -0.9437 0.9595
8.1950 -6.1801 -1.1133 0.9595
8.8431 -5.5075 -1.1300 0.9590
-4.3097 7.0946 -0.9004 0.9672
9.4877 -5.3377 -1.1808 0.9571
-4.3093 7.0941 -1.0402 0.9671
8.2086 -6.7846 -1.3345 0.9580
9.2466 -5.7588 -1.5494 0.9569
-4.3090 7.0936 -1.1805 0.9670
8.4488 -6.9831 -1.5591 0.9567
8.7575 -6.0117 -1.5109 0.9580
-4.3087 7.0931 -1.3215 0.9669
-4.3084 7.0926 -1.4633 0.9669
12.7562 7.1765 -2.8324 0.9421
12.0699 8.2855 -2.8331 0.9421
11.2879 9.3297 -2.8340 0.9421
10.4161 10.3007 -2.8349 0.9421
7.3332 12.7014 -2.8382 0.9420
6.1763 13.3095 -2.8394 0.9420
3.7220 14.2068 -2.8421 0.9419
1.1452 14.6559 -2.8448 0.9419
-0.1638 14.7070 -2.8462 0.9418
-2.7716 14.4591 -2.8490 0.9418
13.5946 5.4105 -2.8315 0.9421
13.0617 6.6003 -2.8321 0.9421
12.4253 7.7386 -2.8327 0.9421
10.8628 9.8249 -2.8344 0.9421
8.9552 11.6035 -2.8365 0.9420
7.8901 12.3595 -2.8376 0.9420
6.7615 13.0183 -2.8388 0.9420
1.7965 14.5868 -2.8441 0.9419
-0.8190 14.6887 -2.8469 0.9418
-14.2956 0.0000 -3.0138 0.9432
-13.7851 -3.7761 -3.0132 0.9432
-13.3924 -4.9874 -3.0128 0.9433
-12.2912 -7.2801 -3.0116 0.9433
-11.5915 -8.3431 -3.0109 0.9433
-7.9408 -11.8484 -3.0070 0.9434
-6.8520 -12.5033 -3.0058 0.9434
-5.7096 -13.0582 -3.0046 0.9434
-4.5228 -13.5088 -3.0033 0.9434
0.4752 -14.2125 -2.9980 0.9435
1.7375 -14.1074 -2.9966 0.9436
2.9849 -13.8906 -2.9953 0.9436
4.2076 -13.5639 -2.9940 0.9436
5.3958 -13.1300 -2.9927 0.9436
7.6322 -11.9556 -2.9903 0.9437
8.6628 -11.2247 -2.9892 0.9437
9.6242 -10.4055 -2.9881 0.9437
11.3098 -8.5291 -2.9863 0.9437
12.0210 -7.4867 -2.9856 0.9438
12.6368 -6.3856 -2.9849 0.9438
13.5643 -4.0426 -2.9839 0.9438
14.0636 -1.5732 -2.9834 0.9438
13.9800 2.1983 -2.9835 0.9438
13.7301 3.4341 -2.9837 0.9438
12.2515 5.5203 -2.8329 0.9465
11.0835 7.6084 -2.8342 0.9465
10.3651 8.5670 -2.8349 0.9465
9.5644 9.4584 -2.8358 0.9465
8.6874 10.2755 -2.8367 0.9465
7.7412 11.0120 -2.8378 0.9465
3.4170 13.0424 -2.8424 0.9464
1.0513 13.4536 -2.8449 0.9463
-0.1504 13.4999 -2.8462 0.9463
-1.3520 13.4390 -2.8475 0.9463
-2.5439 13.2713 -2.8488 0.9463
-4.8609 12.6210 -2.8513 0.9462
-4.3078 7.0916 -1.7493 0.9666
-8.9737 10.1467 -2.8557 0.9461
-9.8444 9.3108 -2.8566 0.9461
-10.6372 8.4001 -2.8575 0.9461
-11.3457 7.4220 -2.8582 0.9461
-13.6024 4.3862 -3.0130 0.9432
-13.9404 3.1585 -3.0134 0.9432
-14.1674 -1.9053 -3.0137 0.9432
-13.9404 -3.1585 -3.0134 0.9432
-12.6047 -6.7260 -3.0120 0.9433
-11.9532 -7.8194 -3.0113 0.9433
-8.4622 -11.4850 -3.0075 0.9434
-7.4036 -12.1880 -3.0064 0.9434
-5.1212 -13.2968 -3.0040 0.9434
2.3637 -14.0129 -2.9959 0.9436
4.8066 -13.3601 -2.9933 0.9436
5.9741 -12.8739 -2.9921 0.9436
8.1557 -11.6016 -2.9897 0.9437
10.0765 -9.9648 -2.9877 0.9437
10.9201 -9.0257 -2.9868 0.9437
11.6770 -8.0158 -2.9859 0.9437
12.3411 -6.9430 -2.9852 0.9438
13.7301 -3.4341 -2.9837 0.9438
14.1195 -0.9452 -2.9833 0.9438
14.0636 1.5732 -2.9834 0.9438
13.8688 2.8189 -2.9836 0.9438
13.5643 4.0426 -2.9839 0.9438
12.4841 4.9686 -2.8327 0.9466
11.4100 7.1062 -2.8338 0.9465
9.1350 9.8767 -2.8363 0.9465
5.1216 12.4626 -2.8406 0.9464
3.9937 12.8744 -2.8418 0.9464
2.8332 13.1846 -2.8430 0.9464
1.6492 13.3904 -2.8443 0.9463
0.4510 13.4901 -2.8456 0.9463
-0.7518 13.4828 -2.8469 0.9463
-1.9497 13.3685 -2.8482 0.9463
-5.4194 12.3945 -2.8519 0.9462
-7.5371 11.2462 -2.8541 0.9462
-8.5113 10.5346 -2.8552 0.9461
-9.4184 9.7385 -2.8562 0.9461
-10.2510 8.8644 -2.8571 0.9461
-11.0024 7.9190 -2.8579 0.9461
-12.2378 5.8455 -2.8592 0.9461
-13.7851 3.7761 -3.0132 0.9432
-14.2385 1.2723 -3.0137 0.9432
-12.9890 -2.3401 -3.0124 0.9473
-12.7280 -3.4865 -3.0121 0.9473
-12.3656 -4.6050 -3.0117 0.9473
-10.7033 -7.7037 -3.0099 0.9473
-9.1627 -9.4742 -3.0083 0.9474
-8.2805 -10.2489 -3.0073 0.9474
-7.3330 -10.9416 -3.0063 0.9474
-1.8972 -13.0084 -3.0005 0.9475
0.4389 -13.1277 -2.9980 0.9475
2.7573 -12.8313 -2.9955 0.9476
4.9846 -12.1294 -2.9931 0.9476
7.0510 -11.0453 -2.9909 0.9477
8.0034 -10.3703 -2.9899 0.9477
10.4497 -7.8804 -2.9873 0.9477
11.1070 -6.9175 -2.9866 0.9477
12.5335 -3.7354 -2.9850 0.9478
12.8149 -2.6047 -2.9847 0.9478
12.9950 -1.4537 -2.9845 0.9478
12.9177 2.0312 -2.9846 0.9478
11.3202 5.1006 -2.8339 0.9503
10.8233 6.0891 -2.8345 0.9503
8.0263 9.4935 -2.8375 0.9503
7.1518 10.1735 -2.8384 0.9503
5.2384 11.2886 -2.8404 0.9502
4.2145 11.7146 -2.8415 0.9502
-2.3495 12.2573 -2.8486 0.9501
-3.4326 12.0044 -2.8497 0.9501
-4.4892 11.6559 -2.8509 0.9500
-5.5109 11.2144 -2.8520 0.9500
-4.3075 7.0910 -1.8937 0.9665
-9.0903 8.5976 -2.8558 0.9500
-10.4762 6.8532 -2.8573 0.9499
-12.8713 2.9163 -3.0123 0.9473
-13.1860 0.5879 -3.0126 0.9473
-13.1860 -0.5880 -3.0126 0.9473
-13.0808 -1.7592 -3.0125 0.9473
-12.8713 -2.9162 -3.0123 0.9473
-11.0371 -7.2202 -3.0103 0.9473
-7.8145 -10.6058 -3.0068 0.9474
-6.8371 -11.2554 -3.0058 0.9474
-5.8060 -11.8149 -3.0047 0.9474
-4.7296 -12.2800 -3.0035 0.9474
-2.4753 -12.9136 -3.0011 0.9475
-1.3156 -13.0773 -2.9999 0.9475
2.1834 -12.9440 -2.9961 0.9476
4.4402 -12.3418 -2.9937 0.9476
5.5190 -11.8930 -2.9925 0.9476
6.5532 -11.3504 -2.9914 0.9476
7.5348 -10.7183 -2.9904 0.9477
9.3099 -9.2067 -2.9885 0.9477
10.0895 -8.3392 -2.9876 0.9477
11.4029 -6.4152 -2.9862 0.9477
11.9264 -5.3738 -2.9857 0.9477
12.6867 -3.1731 -2.9849 0.9478
12.9177 -2.0312 -2.9846 0.9478
11.0827 5.6003 -2.8342 0.9503
9.9185 7.4799 -2.8354 0.9503
9.2159 8.3353 -2.8362 0.9503
8.4399 9.1251 -2.8370 0.9503
7.5966 9.8432 -2.8379 0.9503
6.6927 10.4839 -2.8389 0.9502
4.7313 11.5129 -2.8410 0.9502
3.6893 11.8930 -2.8421 0.9502
1.5234 12.3688 -2.8444 0.9502
-0.6944 12.4533 -2.8468 0.9501
-2.8938 12.1429 -2.8492 0.9501
-3.9647 11.8420 -2.8503 0.9501
-7.8596 9.7280 -2.8545 0.9500
-8.6970 8.9927 -2.8554 0.9500
-9.4657 8.1853 -2.8562 0.9500
-11.2996 5.3974 -2.8582 0.9499
-12.3656 4.6050 -3.0117 0.9473
-12.7280 3.4866 -3.0121 0.9473
-9.9361 -7.1515 -3.0091 0.9508
-8.5063 -8.7955 -3.0076 0.9508
-7.6875 -9.5149 -3.0067 0.9509
-6.8079 -10.1581 -3.0058 0.9509
-5.8748 -10.7202 -3.0048 0.9509
-4.8956 -11.1966 -3.0037 0.9509
-3.8783 -11.5837 -3.0026 0.9509
-2.8308 -11.8785 -3.0015 0.9509
-1.7616 -12.0787 -3.0004 0.9510
9.7059 -7.3196 -2.9881 0.9512
11.2884 -4.4927 -2.9864 0.9512
11.9035 -2.4195 -2.9857 0.9512
12.0709 -1.3503 -2.9855 0.9512
12.1428 -0.2706 -2.9854 0.9512
11.9990 1.8868 -2.9856 0.9512
11.4765 3.9851 -2.9862 0.9512
10.5280 4.7437 -2.8383 0.9535
7.4546 8.8173 -2.8381 0.9536
5.7768 10.0057 -2.8399 0.9535
3.9140 10.8791 -2.8419 0.9535
-5.1165 10.4119 -2.8515 0.9533
-4.3071 7.0905 -2.0392 0.9664
-7.6929 8.6985 -2.8543 0.9533
-9.1182 7.2006 -2.8558 0.9533
-10.2548 5.4721 -2.8571 0.9533
-11.2753 4.7812 -3.0103 0.9508
-11.6585 3.7594 -3.0110 0.9508
-11.9481 2.7071 -3.0113 0.9508
-12.1424 1.6330 -3.0115 0.9508
-12.2400 0.5458 -3.0116 0.9508
-12.2400 -0.5458 -3.0116 0.9508
-12.1424 -1.6330 -3.0115 0.9508
-11.2761 -4.7815 -3.0106 0.9508
-10.8040 -5.7652 -3.0100 0.9508
-10.2459 -6.7026 -3.0094 0.9508
-8.8909 -8.4089 -3.0080 0.9508
-5.3905 -10.9694 -3.0042 0.9509
-3.3578 -11.7428 -3.0021 0.9509
-1.2216 -12.1429 -2.9998 0.9510
-0.1359 -12.1987 -2.9986 0.9510
3.0882 -11.7875 -2.9952 0.9510
5.1255 -11.0451 -2.9930 0.9511
6.0861 -10.5415 -2.9919 0.9511
6.9979 -9.9547 -2.9910 0.9511
9.3713 -7.7456 -2.9884 0.9512
10.0212 -6.8791 -2.9877 0.9512
11.0779 -4.9915 -2.9866 0.9512
11.7844 -2.9474 -2.9858 0.9512
12.1428 0.2706 -2.9854 0.9512
12.0709 1.3503 -2.9855 0.9512
11.9035 2.4195 -2.9857 0.9512
11.6420 3.4697 -2.9860 0.9512
10.2942 5.2019 -2.8350 0.9536
9.7922 6.0987 -2.8356 0.9536
9.2126 6.9475 -2.8362 0.9536
7.8388 8.4753 -2.8377 0.9536
0.3869 11.5706 -2.8456 0.9534
-2.6869 11.2748 -2.8489 0.9534
-4.6468 10.6276 -2.8510 0.9533
-5.5762 10.1753 -2.8520 0.9533
-8.7873 7.5987 -2.8555 0.9533
-9.9999 5.9230 -2.8568 0.9533
-11.4787 4.2747 -3.0108 0.9508
-11.8151 3.2365 -3.0111 0.9508
-12.0573 2.1722 -3.0114 0.9508
-12.2034 1.0905 -3.0115 0.9508
-11.4258 -0.0000 -3.0107 0.9538
-11.2441 -2.0257 -3.0105 0.9538
-10.7047 -3.9865 -3.0099 0.9538
-10.3059 -4.9227 -3.0095 0.9539
-9.8252 -5.8195 -3.0090 0.9539
-8.6341 -7.4662 -3.0077 0.9539
-7.9333 -8.2030 -3.0070 0.9539
-6.3496 -9.4743 -3.0053 0.9539
-5.4794 -9.9987 -3.0043 0.9539
-3.6174 -10.8046 -3.0023 0.9540
-1.6432 -11.2669 -3.0002 0.9540
3.3674 -10.8554 -2.9949 0.9541
6.1097 -9.5706 -2.9919 0.9541
10.5330 -4.1920 -2.9872 0.9542
11.2633 -1.2600 -2.9864 0.9542
11.3304 -0.2525 -2.9863 0.9542
10.3365 4.6574 -2.9874 0.9542
6.1971 8.8155 -2.8394 0.9564
3.6514 10.1493 -2.8421 0.9564
2.7345 10.4376 -2.8431 0.9563
1.7953 10.6433 -2.8441 0.9563
-3.8876 10.0940 -2.8502 0.9562
-4.7722 9.7112 -2.8512 0.9562
-4.2844 7.0532 -2.1745 0.9664
-6.4224 8.7166 -2.8529 0.9562
-8.5038 6.7154 -2.8552 0.9562
-9.0696 5.9331 -2.8558 0.9562
-9.5635 5.1032 -2.8563 0.9562
-10.8723 -3.5059 -3.0101 0.9538
-9.5553 -6.2508 -3.0087 0.9539
-8.9591 -7.0749 -3.0081 0.9539
-7.5590 -8.5470 -3.0066 0.9539
-6.7663 -9.1834 -3.0057 0.9539
-5.0278 -10.2312 -3.0039 0.9539
-4.0958 -10.6346 -3.0029 0.9540
-3.1320 -10.9531 -3.0018 0.9540
-2.1439 -11.1845 -3.0008 0.9540
-1.1395 -11.3268 -2.9997 0.9540
1.8914 -11.2132 -2.9964 0.9541
4.7818 -10.3045 -2.9933 0.9541
7.3276 -8.6671 -2.9906 0.9541
8.0678 -7.9784 -2.9898 0.9541
8.7438 -7.2269 -2.9891 0.9542
10.3365 -4.6574 -2.9874 0.9542
10.9959 -2.7503 -2.9867 0.9542
11.1962 -1.7605 -2.9865 0.9542
11.3304 0.2525 -2.9863 0.9542
10.8630 3.2375 -2.9868 0.9542
10.5330 4.1920 -2.9872 0.9542
8.5957 6.4823 -2.8368 0.9564
7.3137 7.9075 -2.8382 0.9564
4.9691 9.5672 -2.8407 0.9564
3.1962 10.3036 -2.8426 0.9564
2.2673 10.5509 -2.8436 0.9563
0.3609 10.7935 -2.8457 0.9563
-0.6015 10.7867 -2.8467 0.9563
-3.4335 10.2554 -2.8497 0.9562
-4.3342 9.9125 -2.8507 0.9562
-5.2009 9.4905 -2.8516 0.9562
-6.0269 8.9927 -2.8525 0.9562
-6.8053 8.4230 -2.8534 0.9562
-8.1952 7.0867 -2.8548 0.9562
-8.7954 6.3306 -2.8555 0.9562
-9.3258 5.5237 -2.8561 0.9562
-10.0315 4.7916 -2.9294 0.9551
-11.2441 2.0257 -3.0105 0.9538
-11.3803 1.0169 -3.0107 0.9538
-10.6979 -0.0000 -3.0099 0.9565
-10.6553 -0.9521 -3.0099 0.9565
-10.3164 -2.8259 -3.0095 0.9565
-9.6496 -4.6093 -3.0088 0.9565
-9.1996 -5.4489 -3.0083 0.9565
-8.0845 -6.9910 -3.0071 0.9566
-7.4285 -7.6810 -3.0064 0.9566
-6.7136 -8.3096 -3.0057 0.9566
-5.9458 -8.8717 -3.0048 0.9566
-4.2760 -9.7795 -3.0030 0.9566
-1.5389 -10.5514 -3.0001 0.9567
-0.5934 -10.6429 -2.9991 0.9567
2.2372 -10.4110 -2.9961 0.9567
3.1539 -10.1672 -2.9951 0.9567
6.4961 -8.4172 -2.9915 0.9568
7.2176 -7.8036 -2.9907 0.9568
7.8816 -7.1285 -2.9900 0.9568
9.0170 -5.6158 -2.9888 0.9568
10.1761 -3.0328 -2.9876 0.9568
10.4048 -2.1149 -2.9873 0.9568
10.5512 -1.1803 -2.9872 0.9568
10.6141 -0.2365 -2.9871 0.9568
10.3006 2.5763 -2.9874 0.9568
7.7742 6.4255 -2.8377 0.9590
7.1730 7.0936 -2.8384 0.9589
6.5148 7.7058 -2.8391 0.9589
5.0481 8.7437 -2.8406 0.9589
4.2511 9.1610 -2.8415 0.9589
1.6814 9.9683 -2.8443 0.9589
0.7878 10.0818 -2.8452 0.9589
-0.1127 10.1153 -2.8462 0.9588
-2.7839 9.7359 -2.8490 0.9588
-3.6406 9.4525 -2.8500 0.9588
-4.4688 9.0938 -2.8509 0.9588
-6.0139 8.1621 -2.8525 0.9587
-7.3696 6.9701 -2.8540 0.9587
-8.4922 5.5554 -2.8552 0.9587
-10.6021 1.4258 -3.0098 0.9565
-10.6873 0.4766 -3.0099 0.9565
-10.6873 -0.4765 -3.0099 0.9565
-10.6021 -1.4259 -3.0098 0.9565
-10.1798 -3.2826 -3.0094 0.9565
-9.8461 -4.1751 -3.0090 0.9565
-8.9469 -5.8528 -3.0081 0.9565
-8.3888 -6.6246 -3.0075 0.9566
-6.3359 -8.5992 -3.0053 0.9566
-5.5439 -9.1264 -3.0044 0.9566
-4.7081 -9.5808 -3.0035 0.9566
-3.8355 -9.9587 -3.0026 0.9566
-1.0671 -10.6077 -2.9996 0.9567
1.7715 -10.5021 -2.9966 0.9567
4.4788 -9.6515 -2.9937 0.9568
5.3185 -9.2118 -2.9928 0.9568
6.1155 -8.6994 -2.9919 0.9568
6.8637 -8.1184 -2.9911 0.9568
7.5571 -7.4734 -2.9904 0.9568
8.1905 -6.7696 -2.9897 0.9568
8.7587 -6.0125 -2.9891 0.9568
10.3006 -2.5763 -2.9874 0.9568
10.5931 -0.7091 -2.9871 0.9568
10.5512 1.1803 -2.9871 0.9568
10.4048 2.1149 -2.9873 0.9568
10.1761 3.0328 -2.9876 0.9568
9.3385 4.7189 -2.9438 0.9575
8.0519 6.0722 -2.8374 0.9590
4.6543 8.9612 -2.8411 0.9589
3.8394 9.3427 -2.8419 0.9589
2.9936 9.6504 -2.8429 0.9589
2.1235 9.8818 -2.8438 0.9589
1.2359 10.0349 -2.8447 0.9589
0.3380 10.1086 -2.8457 0.9588
-1.4607 10.0151 -2.8476 0.9588
-4.0587 9.2824 -2.8504 0.9588
-5.6436 8.4208 -2.8521 0.9588
-6.3724 7.8872 -2.8529 0.9587
-7.0509 7.2906 -2.8536 0.9587
-8.7320 5.1720 -2.8554 0.9587
-9.6496 4.6093 -3.0088 0.9565
-10.0229 3.7326 -3.0092 0.9565
-10.3164 2.8260 -3.0095 0.9565
-10.0516 0.0000 -3.0092 0.9589
-10.0115 -0.8946 -3.0092 0.9589
-9.8917 -1.7821 -3.0091 0.9589
-9.0668 -4.3308 -3.0082 0.9589
-8.6440 -5.1199 -3.0077 0.9589
-8.1526 -5.8679 -3.0072 0.9589
-7.5965 -6.5689 -3.0066 0.9589
-6.9801 -7.2174 -3.0059 0.9589
-6.3085 -7.8081 -3.0052 0.9590
-5.5871 -8.3365 -3.0045 0.9590
-4.8216 -8.7983 -3.0036 0.9590
-4.0182 -9.1899 -3.0028 0.9590
-2.3237 -9.7508 -3.0010 0.9590
0.3346 -10.0087 -2.9981 0.9590
2.9642 -9.5558 -2.9953 0.9591
3.8018 -9.2512 -2.9944 0.9591
4.6088 -8.8736 -2.9935 0.9591
5.3788 -8.4258 -2.9927 0.9591
6.1058 -7.9116 -2.9919 0.9591
6.7841 -7.3349 -2.9912 0.9591
7.9737 -6.0133 -2.9899 0.9592
8.9106 -4.5027 -2.9889 0.9592
9.2748 -3.6912 -2.9885 0.9592
9.9182 -1.1095 -2.9878 0.9592
9.9774 -0.2223 -2.9878 0.9592
9.9576 0.6666 -2.9878 0.9592
9.8591 1.5503 -2.9879 0.9592
9.6826 2.4218 -2.9881 0.9592
9.4295 3.2743 -2.9884 0.9592
9.1017 4.1010 -2.9887 0.9592
8.4117 4.7324 -2.8895 0.9605
7.8145 5.3644 -2.8377 0.9612
7.3074 6.0398 -2.8382 0.9612
6.7423 6.6676 -2.8388 0.9612
4.7448 8.2182 -2.8410 0.9612
3.9956 8.6103 -2.8418 0.9611
-0.1059 9.5063 -2.8462 0.9611
-0.9519 9.4622 -2.8471 0.9611
-2.6161 9.1492 -2.8489 0.9610
-4.1994 8.5455 -2.8506 0.9610
-6.3129 7.1380 -2.8528 0.9610
-6.9247 6.5494 -2.8535 0.9610
-8.8642 4.7301 -3.0080 0.9589
-9.2513 3.9229 -3.0084 0.9589
-9.5648 3.0842 -3.0087 0.9589
-10.0415 0.4478 -3.0092 0.9589
-10.0415 -0.4477 -3.0092 0.9589
-9.8022 -2.2209 -3.0090 0.9589
-9.5648 -3.0843 -3.0087 0.9589
-8.8642 -4.7301 -3.0080 0.9589
-7.8824 -6.2246 -3.0069 0.9589
-7.2955 -6.9001 -3.0063 0.9589
-6.6509 -7.5203 -3.0056 0.9589
-4.4242 -9.0031 -3.0032 0.9590
-3.6043 -9.3584 -3.0023 0.9590
-1.0029 -9.9688 -2.9995 0.9590
-0.1116 -10.0154 -2.9986 0.9590
1.6649 -9.8702 -2.9967 0.9591
2.5360 -9.6798 -2.9957 0.9591
3.3864 -9.4128 -2.9948 0.9591
4.9988 -8.6582 -2.9931 0.9591
9.1017 -4.1010 -2.9887 0.9592
9.4295 -3.2743 -2.9884 0.9592
9.6826 -2.4218 -2.9881 0.9592
9.8591 -1.5503 -2.9879 0.9592
9.9576 -0.6665 -2.9878 0.9592
9.5655 2.8508 -2.9882 0.9592
7.0319 6.3599 -2.8385 0.9612
5.7955 7.5094 -2.8398 0.9612
3.6086 8.7810 -2.8422 0.9611
0.3176 9.5001 -2.8457 0.9611
-0.5294 9.4937 -2.8466 0.9611
-1.3727 9.4119 -2.8475 0.9611
-3.0216 9.0249 -2.8493 0.9610
-4.5765 8.3511 -2.8510 0.9610
-5.3031 7.9128 -2.8517 0.9610
-5.9879 7.4113 -2.8525 0.9610
-6.6253 6.8506 -2.8532 0.9610
-7.7382 5.5697 -2.8544 0.9610
-8.2047 4.8597 -2.8549 0.9610
-9.0668 4.3308 -3.0082 0.9589
-9.4175 3.5071 -3.0086 0.9589
-9.6932 2.6552 -3.0089 0.9589
-9.4734 -0.0000 -3.0086 0.9610
-9.3228 -1.6796 -3.0085 0.9610
-7.6840 -5.5306 -3.0067 0.9610
-7.1599 -6.1914 -3.0061 0.9611
-6.5791 -6.8027 -3.0055 0.9611
-5.9461 -7.3596 -3.0048 0.9611
-3.7876 -8.6624 -3.0025 0.9611
-3.0007 -8.9626 -3.0017 0.9611
-2.1904 -9.1914 -3.0008 0.9611
-0.5257 -9.4286 -2.9990 0.9611
0.3155 -9.4351 -2.9981 0.9612
1.1536 -9.3668 -2.9972 0.9612
1.9822 -9.2242 -2.9963 0.9612
3.5842 -8.7216 -2.9946 0.9612
4.3450 -8.3657 -2.9938 0.9612
5.0711 -7.9437 -2.9930 0.9612
6.9848 -6.3174 -2.9910 0.9612
7.5179 -5.6695 -2.9904 0.9613
7.9913 -4.9771 -2.9899 0.9613
8.4014 -4.2454 -2.9895 0.9613
8.7448 -3.4803 -2.9891 0.9613
9.0190 -2.6879 -2.9888 0.9613
9.3888 0.6285 -2.9884 0.9613
9.2959 1.4617 -2.9885 0.9613
9.1294 2.2834 -2.9887 0.9613
8.8907 3.0872 -2.9889 0.9613
6.8896 5.6944 -2.8387 0.9632
6.3567 6.2863 -2.8392 0.9632
5.7733 6.8286 -2.8399 0.9632
4.4732 7.7479 -2.8413 0.9631
3.7669 8.1175 -2.8420 0.9631
3.0303 8.4229 -2.8428 0.9631
2.2692 8.6616 -2.8436 0.9631
0.6980 8.9320 -2.8453 0.9631
-0.8973 8.9196 -2.8470 0.9631
-3.2248 8.3730 -2.8495 0.9630
-3.9583 8.0549 -2.8503 0.9630
-4.2336 6.9694 -2.5898 0.9664
-7.0517 5.5687 -2.8536 0.9630
-7.5207 4.9198 -2.8541 0.9630
-8.3546 4.4582 -3.0074 0.9610
-9.2385 2.0931 -3.0084 0.9610
-9.3886 1.2626 -3.0085 0.9610
-9.4640 -0.4220 -3.0086 0.9610
-9.0148 -2.9069 -3.0081 0.9610
-7.4293 -5.8669 -3.0064 0.9610
-6.2688 -7.0882 -3.0052 0.9611
-5.6117 -7.6163 -3.0045 0.9611
-4.9103 -8.0835 -3.0037 0.9611
0.7353 -9.4103 -2.9977 0.9612
1.5695 -9.3047 -2.9968 0.9612
3.1926 -8.8739 -2.9950 0.9612
3.9686 -8.5521 -2.9942 0.9612
5.4192 -7.7089 -2.9927 0.9612
6.6971 -6.6229 -2.9913 0.9612
7.2586 -5.9993 -2.9907 0.9612
7.7623 -5.3285 -2.9901 0.9613
9.1294 -2.2834 -2.9887 0.9613
9.2959 -1.4617 -2.9885 0.9613
9.4074 0.2096 -2.9884 0.9613
9.3516 1.0461 -2.9884 0.9613
9.2218 1.8744 -2.9886 0.9613
8.7448 3.4804 -2.9891 0.9613
8.4014 4.2454 -2.9895 0.9613
7.6183 4.7447 -2.8503 0.9630
7.1358 5.3813 -2.8384 0.9632
6.0711 6.5639 -2.8396 0.9632
5.4640 7.0799 -2.8402 0.9632
4.8133 7.5400 -2.8409 0.9632
4.1242 7.9405 -2.8416 0.9631
2.6525 8.5507 -2.8432 0.9631
1.8814 8.7554 -2.8440 0.9631
-0.4990 8.9494 -2.8466 0.9631
-2.0791 8.7243 -2.8483 0.9631
-3.5951 8.2221 -2.8499 0.9630
-5.6439 6.9856 -2.8521 0.9630
-6.2447 6.4570 -2.8528 0.9630
-6.7960 5.8767 -2.8533 0.9630
-7.2935 5.2495 -2.8539 0.9630
-9.1357 2.5025 -3.0083 0.9610
-8.9530 0.0000 -3.0081 0.9629
-8.9174 -0.7968 -3.0080 0.9629
-8.8107 -1.5873 -3.0079 0.9629
-6.7669 -5.8516 -3.0057 0.9630
-6.2180 -6.4294 -3.0051 0.9630
-4.9773 -7.4267 -3.0038 0.9630
-4.2955 -7.8383 -3.0031 0.9630
-3.5799 -8.1874 -3.0023 0.9630
-2.8362 -8.4713 -3.0015 0.9630
-2.0704 -8.6878 -3.0007 0.9630
-1.2886 -8.8351 -2.9998 0.9630
0.2982 -8.9185 -2.9981 0.9630
2.6416 -8.5158 -2.9956 0.9631
3.3882 -8.2446 -2.9948 0.9631
4.7939 -7.5095 -2.9933 0.9631
6.0467 -6.5376 -2.9920 0.9631
7.1073 -5.3598 -2.9908 0.9631
7.5549 -4.7053 -2.9904 0.9631
8.7184 -1.7721 -2.9891 0.9632
7.7565 4.3637 -2.9901 0.9631
6.9654 4.7815 -2.8386 0.9650
5.4578 6.4555 -2.8402 0.9650
4.8626 6.9172 -2.8408 0.9649
1.4082 8.3484 -2.8446 0.9649
0.6598 8.4430 -2.8454 0.9649
-0.8482 8.4310 -2.8470 0.9649
-1.5957 8.3244 -2.8478 0.9649
-2.3309 8.1516 -2.8486 0.9649
-3.0480 7.9139 -2.8493 0.9648
-4.2222 6.9507 -2.7324 0.9663
-5.0343 6.8326 -2.8515 0.9648
-6.1686 5.8342 -2.8527 0.9648
-7.3084 4.7809 -2.9342 0.9638
-7.8958 4.2133 -3.0069 0.9629
-8.5197 2.7472 -3.0076 0.9629
-8.7310 1.9782 -3.0078 0.9629
-8.8729 1.1933 -3.0080 0.9629
-8.9441 0.3988 -3.0081 0.9629
-8.8729 -1.1933 -3.0080 0.9629
-8.5197 -2.7472 -3.0076 0.9629
-7.0215 -5.5448 -3.0060 0.9630
-6.4989 -6.1466 -3.0054 0.9630
-3.9416 -8.0209 -3.0027 0.9630
-1.6811 -8.7702 -3.0003 0.9630
-0.8936 -8.8825 -2.9994 0.9630
2.2599 -8.6261 -2.9960 0.9631
3.0179 -8.3885 -2.9952 0.9631
6.8621 -5.6717 -2.9911 0.9631
8.1131 -3.6555 -2.9898 0.9631
8.4053 -2.9187 -2.9895 0.9632
8.7884 -1.3819 -2.9890 0.9632
8.8939 0.1982 -2.9889 0.9632
8.8411 0.9890 -2.9890 0.9632
8.7184 1.7721 -2.9891 0.9632
8.5266 2.5412 -2.9893 0.9632
7.9426 4.0136 -2.9899 0.9631
6.7461 5.0875 -2.8388 0.9650
6.2676 5.6687 -2.8393 0.9650
4.5502 7.1278 -2.8412 0.9649
3.8987 7.5063 -2.8419 0.9649
3.2160 7.8256 -2.8426 0.9649
1.0351 8.4041 -2.8450 0.9649
0.2830 8.4652 -2.8458 0.9649
-1.9652 8.2462 -2.8482 0.9649
-3.3979 7.7713 -2.8497 0.9648
-4.0461 7.3832 -2.8287 0.9651
-5.3342 6.6022 -2.8518 0.9648
-7.6998 4.5606 -3.0067 0.9629
-8.3884 3.1239 -3.0075 0.9629
-8.6339 2.3651 -3.0077 0.9629
-8.8107 1.5873 -3.0079 0.9629
-8.4481 -0.7549 -3.0075 0.9646
-8.1796 -2.2406 -3.0072 0.9646
-7.6513 -3.6547 -3.0067 0.9647
-6.8802 -4.9521 -3.0058 0.9647
-6.4111 -5.5438 -3.0053 0.9647
-4.7158 -7.0364 -3.0035 0.9647
-4.0698 -7.4265 -3.0028 0.9647
-1.2209 -8.3713 -2.9998 0.9647
0.2825 -8.4507 -2.9982 0.9648
1.0333 -8.3897 -2.9974 0.9648
3.2106 -7.8125 -2.9950 0.9648
5.7301 -6.1953 -2.9923 0.9648
6.2575 -5.6596 -2.9918 0.9648
6.7353 -5.0793 -2.9912 0.9648
7.1596 -4.4590 -2.9908 0.9648
8.0806 -2.4083 -2.9898 0.9648
8.2623 -1.6794 -2.9896 0.9649
8.3786 -0.9373 -2.9895 0.9649
8.4287 -0.1878 -2.9894 0.9649
8.3287 1.3096 -2.9895 0.9649
7.9656 2.7659 -2.9899 0.9648
7.6886 3.4643 -2.9902 0.9648
6.1724 5.1016 -2.8394 0.9666
5.1720 6.1175 -2.8405 0.9666
4.6080 6.5549 -2.8411 0.9666
4.0072 6.9406 -2.8418 0.9666
3.3743 7.2715 -2.8424 0.9666
2.0326 7.7584 -2.8439 0.9665
1.3344 7.9107 -2.8446 0.9665
0.6251 8.0002 -2.8454 0.9665
-0.8037 7.9885 -2.8469 0.9665
-2.8879 7.4983 -2.8492 0.9665
-3.5447 7.2133 -2.8499 0.9665
-4.1736 6.8708 -2.8505 0.9665
-5.8442 5.5274 -2.8523 0.9664
-7.0945 4.6410 -3.0061 0.9647
-7.4805 3.9917 -3.0065 0.9647
-8.2716 1.8741 -3.0073 0.9646
-8.4060 1.1305 -3.0075 0.9646
-8.4734 -0.3778 -3.0075 0.9646
-8.0714 -2.6027 -3.0071 0.9646
-7.8070 -3.3104 -3.0068 0.9647
-7.4805 -3.9917 -3.0065 0.9647
-7.0945 -4.6410 -3.0061 0.9647
-5.6133 -6.3471 -3.0045 0.9647
-3.7345 -7.5995 -3.0025 0.9647
-3.0425 -7.8997 -3.0017 0.9647
-1.5929 -8.3097 -3.0002 0.9647
0.6586 -8.4285 -2.9978 0.9648
2.1415 -8.1739 -2.9962 0.9648
2.8597 -7.9488 -2.9954 0.9648
3.5550 -7.6608 -2.9947 0.9648
4.8547 -6.9059 -2.9933 0.9648
5.4489 -6.4450 -2.9926 0.9648
5.9998 -5.9333 -2.9920 0.9648
8.3287 -1.3096 -2.9895 0.9649
8.4120 -0.5631 -2.9894 0.9649
8.3786 0.9373 -2.9895 0.9649
7.8348 3.1182 -2.9901 0.9648
5.4388 5.8804 -2.8402 0.9666
4.8949 6.3425 -2.8408 0.9666
4.3119 6.7544 -2.8414 0.9666
3.0474 7.4155 -2.8428 0.9665
0.9808 7.9633 -2.8450 0.9665
-0.4469 8.0153 -2.8465 0.9665
-1.1589 7.9459 -2.8473 0.9665
-1.8620 7.8132 -2.8481 0.9665
-2.5507 7.6185 -2.8488 0.9665
-3.8630 7.0490 -2.8502 0.9665
-4.4761 6.6788 -2.8509 0.9665
-5.0538 6.2552 -2.8515 0.9664
-6.0852 5.2621 -2.8526 0.9664
-7.2947 4.3207 -3.0063 0.9647
-7.6513 3.6547 -3.0067 0.9647
-8.1796 2.2406 -3.0072 0.9646
-7.9251 -1.4278 -3.0070 0.9662
-7.7661 -2.1273 -3.0068 0.9662
-6.5325 -4.7019 -3.0055 0.9662
-5.0556 -6.2573 -3.0039 0.9662
-3.2207 -7.3658 -3.0019 0.9663
-1.1594 -7.9491 -2.9997 0.9663
-0.4471 -8.0188 -2.9989 0.9663
0.2683 -8.0247 -2.9982 0.9663
0.9812 -7.9669 -2.9974 0.9663
1.6860 -7.8460 -2.9967 0.9663
3.0489 -7.4191 -2.9952 0.9663
4.3141 -6.7579 -2.9938 0.9663
4.8974 -6.3458 -2.9932 0.9664
5.4418 -5.8836 -2.9926 0.9664
6.3965 -4.8239 -2.9916 0.9664
7.6743 -2.2872 -2.9902 0.9664
7.8469 -1.5950 -2.9900 0.9664
7.9574 -0.8902 -2.9899 0.9664
8.0050 -0.1784 -2.9899 0.9664
7.9100 1.2438 -2.9900 0.9664
7.5651 2.6269 -2.9904 0.9664
6.9809 3.9274 -2.9910 0.9664
6.6046 4.5338 -2.9914 0.9664
5.8619 4.8449 -2.8398 0.9681
4.9117 5.8096 -2.8408 0.9680
3.8054 6.5912 -2.8420 0.9680
3.2044 6.9053 -2.8426 0.9680
2.5777 7.1648 -2.8433 0.9680
1.9302 7.3676 -2.8440 0.9680
1.2671 7.5121 -2.8447 0.9680
0.5936 7.5970 -2.8454 0.9680
-1.4356 7.4896 -2.8476 0.9680
-2.7422 7.1199 -2.8490 0.9679
-3.3658 6.8491 -2.8497 0.9679
-5.5490 5.2482 -2.8520 0.9679
-7.4123 3.1431 -3.0064 0.9662
-7.9810 1.0734 -3.0070 0.9662
-8.0450 0.3587 -3.0071 0.9662
-8.0450 -0.3587 -3.0071 0.9662
-7.8534 -1.7793 -3.0069 0.9662
-7.1024 -3.7900 -3.0061 0.9662
-6.7360 -4.4065 -3.0057 0.9662
-5.8461 -5.5292 -3.0047 0.9662
-5.3298 -6.0265 -3.0042 0.9662
-1.5125 -7.8906 -3.0001 0.9663
0.6254 -8.0037 -2.9978 0.9663
1.3350 -7.9143 -2.9970 0.9663
2.0336 -7.7621 -2.9963 0.9663
3.3760 -7.2751 -2.9948 0.9663
4.0092 -6.9441 -2.9942 0.9663
5.1748 -6.1207 -2.9929 0.9664
5.6979 -5.6348 -2.9924 0.9664
6.1758 -5.1044 -2.9918 0.9664
6.9809 -3.9274 -2.9910 0.9664
7.5651 -2.6269 -2.9904 0.9664
7.9100 -1.2438 -2.9900 0.9664
8.0050 0.1784 -2.9899 0.9664
7.9574 0.8902 -2.9899 0.9664
7.1485 3.6123 -2.9908 0.9664
6.7995 4.2348 -2.9912 0.9664
4.6485 6.0233 -2.8411 0.9680
3.5084 6.7549 -2.8423 0.9680
2.8940 7.0420 -2.8430 0.9680
1.6003 7.4472 -2.8443 0.9680
-0.4244 7.6112 -2.8465 0.9680
-1.1004 7.5451 -2.8472 0.9680
-1.7681 7.4191 -2.8480 0.9680
-4.2501 6.3415 -2.8506 0.9679
-4.7986 5.9393 -2.8512 0.9679
-5.7778 4.9962 -2.8523 0.9679
-6.5325 4.7018 -3.0055 0.9662
-7.2646 3.4700 -3.0063 0.9662
-7.9251 1.4278 -3.0070 0.9662
-7.6609 0.0000 -3.0067 0.9676
-7.3880 -2.0238 -3.0064 0.9676
-7.1780 -2.6731 -3.0062 0.9676
-6.5889 -3.9026 -3.0055 0.9676
-5.3213 -5.5022 -3.0042 0.9676
-4.2599 -6.3561 -3.0030 0.9677
-3.6764 -6.7087 -3.0024 0.9677
-0.4254 -7.6293 -2.9989 0.9677
2.2617 -7.2910 -2.9960 0.9677
2.9010 -7.0592 -2.9954 0.9677
3.5170 -6.7715 -2.9947 0.9677
4.6600 -6.0381 -2.9935 0.9678
5.1780 -5.5983 -2.9929 0.9678
6.4701 -4.0296 -2.9915 0.9678
7.0805 -2.8180 -2.9909 0.9678
7.4669 -1.5177 -2.9905 0.9678
7.6173 -0.1698 -2.9903 0.9678
7.1987 2.4996 -2.9907 0.9678
6.9482 3.1307 -2.9910 0.9678
6.2845 4.3141 -2.9917 0.9678
5.7310 4.7367 -2.9181 0.9686
4.6736 5.5280 -2.8411 0.9694
4.1639 5.9232 -2.8416 0.9694
3.6209 6.2716 -2.8422 0.9694
3.0490 6.5704 -2.8428 0.9694
2.4526 6.8172 -2.8434 0.9693
1.8366 7.0101 -2.8441 0.9693
1.2056 7.1474 -2.8448 0.9693
-0.0808 7.2514 -2.8461 0.9693
-0.7261 7.2172 -2.8468 0.9693
-1.9951 6.9774 -2.8482 0.9693
-2.6089 6.7737 -2.8489 0.9693
-4.3085 5.8476 -2.8507 0.9693
-4.8128 5.4419 -2.8512 0.9693
-5.2790 4.9928 -2.8517 0.9693
-6.7566 3.6054 -3.0057 0.9676
-7.0515 2.9901 -3.0060 0.9676
-7.4710 1.6927 -3.0065 0.9676
-7.6533 0.3413 -3.0067 0.9676
-7.6533 -0.3413 -3.0067 0.9676
-7.2902 -2.3508 -3.0063 0.9676
-7.0515 -2.9901 -3.0060 0.9676
-6.4081 -4.1920 -3.0053 0.9676
-6.0087 -4.7450 -3.0049 0.9676
-5.5617 -5.2602 -3.0044 0.9676
-3.9721 -6.5389 -3.0027 0.9677
-2.1020 -7.3511 -3.0007 0.9677
-0.0851 -7.6397 -2.9986 0.9677
0.5951 -7.6151 -2.9978 0.9677
1.2702 -7.5301 -2.9971 0.9677
3.8148 -6.6073 -2.9944 0.9677
4.3868 -6.2404 -2.9938 0.9678
4.9239 -5.8240 -2.9932 0.9678
6.2845 -4.3141 -2.9917 0.9678
7.1987 -2.4996 -2.9907 0.9678
7.6022 -0.5089 -2.9903 0.9678
7.6173 0.1697 -2.9903 0.9678
7.5720 0.8470 -2.9903 0.9678
7.4669 1.5177 -2.9905 0.9678
7.3026 2.1764 -2.9906 0.9678
7.0805 2.8179 -2.9909 0.9678
6.8022 3.4373 -2.9912 0.9678
5.3673 4.8545 -2.8403 0.9694
4.4232 5.7312 -2.8413 0.9694
3.8963 6.1034 -2.8419 0.9694
3.3383 6.4273 -2.8425 0.9694
2.1468 6.9205 -2.8438 0.9693
1.5226 7.0858 -2.8444 0.9693
0.2423 7.2469 -2.8458 0.9693
-0.4038 7.2415 -2.8465 0.9693
-1.0470 7.1786 -2.8472 0.9693
-2.3043 6.8824 -2.8485 0.9693
-3.4896 6.3677 -2.8498 0.9693
-4.0433 6.0331 -2.8504 0.9693
-4.5652 5.6504 -2.8510 0.9693
-5.0509 5.2226 -2.8515 0.9693
-6.2146 4.4730 -3.0051 0.9676
-6.5889 3.9026 -3.0055 0.9676
-6.9109 3.3011 -3.0059 0.9676
-7.1780 2.6731 -3.0062 0.9676
-6.2792 -3.7192 -3.0052 0.9689
-5.0714 -5.2437 -3.0039 0.9689
-4.0598 -6.0576 -3.0028 0.9689
-2.9202 -6.6788 -3.0016 0.9690
-2.3137 -6.9107 -3.0009 0.9690
-1.6891 -7.0876 -3.0003 0.9690
-0.4055 -7.2715 -2.9989 0.9690
0.2433 -7.2770 -2.9982 0.9690
0.8898 -7.2248 -2.9975 0.9690
2.1557 -6.9494 -2.9962 0.9690
4.4418 -5.7554 -2.9937 0.9690
5.3901 -4.8750 -2.9927 0.9691
5.8017 -4.3753 -2.9922 0.9691
6.1673 -3.8410 -2.9919 0.9691
6.7492 -2.6861 -2.9912 0.9691
6.9610 -2.0746 -2.9910 0.9691
7.1176 -1.4467 -2.9908 0.9691
7.2179 -0.8074 -2.9907 0.9691
7.0463 1.7624 -2.9909 0.9691
6.8619 2.3827 -2.9911 0.9691
6.6232 2.9842 -2.9914 0.9691
6.3319 3.5623 -2.9917 0.9691
5.6015 4.6297 -2.9925 0.9691
3.9689 5.6458 -2.8418 0.9706
2.3377 6.4978 -2.8436 0.9706
-0.0770 6.9113 -2.8461 0.9705
-0.6920 6.8786 -2.8468 0.9705
-1.3018 6.7913 -2.8475 0.9705
-1.9015 6.6500 -2.8481 0.9705
-2.4864 6.4558 -2.8487 0.9705
-3.0518 6.2102 -2.8493 0.9705
-3.5931 5.9151 -2.8499 0.9705
-4.1062 5.5729 -2.8505 0.9705
-4.5867 5.1863 -2.8510 0.9705
-5.0594 4.7851 -2.8676 0.9703
-5.7264 4.5221 -3.0046 0.9689
-6.4391 3.4360 -3.0054 0.9689
-6.9475 2.2403 -3.0059 0.9689
-7.2934 0.3252 -3.0063 0.9689
-7.2354 -0.9730 -3.0062 0.9689
-7.1198 -1.6131 -3.0061 0.9689
-6.7200 -2.8495 -3.0057 0.9689
-5.7264 -4.5221 -3.0046 0.9689
-5.3003 -5.0130 -3.0041 0.9689
-3.7856 -6.2318 -3.0025 0.9690
-2.0033 -7.0061 -3.0006 0.9690
-0.7291 -7.2470 -2.9992 0.9690
-0.0811 -7.2814 -2.9986 0.9690
1.2106 -7.1771 -2.9972 0.9690
2.4629 -6.8457 -2.9958 0.9690
3.0618 -6.5979 -2.9952 0.9690
3.6361 -6.2979 -2.9946 0.9690
4.1814 -5.9481 -2.9940 0.9690
5.6015 -4.6297 -2.9925 0.9691
5.9905 -4.1122 -2.9920 0.9691
6.6232 -2.9842 -2.9914 0.9691
6.8619 -2.3827 -2.9911 0.9691
7.2466 -0.4851 -2.9907 0.9691
7.2610 0.1618 -2.9907 0.9691
7.2179 0.8074 -2.9907 0.9691
7.1176 1.4467 -2.9908 0.9691
6.9610 2.0746 -2.9910 0.9691
6.7492 2.6861 -2.9912 0.9691
4.6847 5.0651 -2.8410 0.9706
3.1819 6.1262 -2.8427 0.9706
2.6246 6.3865 -2.8432 0.9706
0.8446 6.8576 -2.8452 0.9706
-0.9978 6.8418 -2.8471 0.9705
-1.6032 6.7274 -2.8478 0.9705
-2.1961 6.5595 -2.8484 0.9705
-2.7718 6.3393 -2.8490 0.9705
-3.3257 6.0687 -2.8496 0.9705
-3.8535 5.7497 -2.8502 0.9705
-4.3507 5.3850 -2.8507 0.9705
-4.8136 4.9772 -2.8512 0.9705
-5.5075 4.7625 -2.9982 0.9690
-5.9225 4.2628 -3.0048 0.9689
-6.2792 3.7192 -3.0052 0.9689
-6.8406 2.5474 -3.0058 0.9689
-7.0406 1.9287 -3.0060 0.9689
-7.1847 1.2944 -3.0062 0.9689
-6.9685 -0.0000 -3.0059 0.9701
-6.5294 -2.4315 -3.0055 0.9701
-4.8408 -5.0054 -3.0037 0.9701
-4.3754 -5.4154 -3.0032 0.9701
-3.8753 -5.7823 -3.0026 0.9701
-2.7876 -6.3753 -3.0015 0.9701
-2.2086 -6.5968 -3.0008 0.9701
-1.0036 -6.8809 -2.9995 0.9702
0.2323 -6.9467 -2.9982 0.9702
1.4596 -6.7925 -2.9969 0.9702
3.2003 -6.1617 -2.9950 0.9702
3.7353 -5.8513 -2.9945 0.9702
4.2405 -5.4946 -2.9939 0.9702
4.7120 -5.0945 -2.9934 0.9702
5.1459 -4.6542 -2.9929 0.9702
5.8880 -3.6671 -2.9922 0.9702
6.1904 -3.1281 -2.9918 0.9702
6.4436 -2.5645 -2.9916 0.9702
6.7954 -1.3812 -2.9912 0.9702
6.9323 -0.1545 -2.9910 0.9702
6.7273 1.6826 -2.9913 0.9702
6.5512 2.2748 -2.9914 0.9702
6.0452 3.4009 -2.9920 0.9702
5.3477 4.4200 -2.9927 0.9702
4.7950 4.7418 -2.9089 0.9711
4.2530 5.0304 -2.8415 0.9717
3.7890 5.3899 -2.8420 0.9717
2.7744 5.9787 -2.8431 0.9717
2.2317 6.2031 -2.8437 0.9717
-0.0735 6.5977 -2.8461 0.9717
-0.6606 6.5664 -2.8468 0.9717
-1.2427 6.4830 -2.8474 0.9717
-1.8152 6.3480 -2.8480 0.9716
-2.3735 6.1626 -2.8486 0.9716
-3.9195 5.3196 -2.8503 0.9716
-4.3782 4.9505 -2.8508 0.9716
-5.0354 4.7624 -2.9896 0.9703
-5.4660 4.3164 -3.0043 0.9701
-5.8292 3.8133 -3.0047 0.9701
-6.1462 3.2797 -3.0051 0.9701
-6.9062 0.9288 -3.0059 0.9701
-6.7959 -1.5397 -3.0057 0.9701
-5.8292 -3.8133 -3.0047 0.9701
-4.1294 -5.6045 -3.0029 0.9701
-2.5006 -6.4925 -3.0011 0.9701
-1.3092 -6.8301 -2.9999 0.9702
-0.0774 -6.9510 -2.9985 0.9702
0.5414 -6.9288 -2.9979 0.9702
1.1557 -6.8515 -2.9972 0.9702
1.7606 -6.7200 -2.9966 0.9702
4.9338 -4.8792 -2.9932 0.9702
5.3477 -4.4200 -2.9927 0.9702
5.7192 -3.9260 -2.9923 0.9702
6.0452 -3.4010 -2.9920 0.9702
6.5512 -2.2748 -2.9914 0.9702
6.9323 0.1545 -2.9910 0.9702
6.7954 1.3812 -2.9912 0.9702
6.6458 1.9807 -2.9913 0.9702
6.1904 3.1281 -2.9918 0.9702
5.8880 3.6671 -2.9921 0.9702
4.4725 4.8356 -2.8413 0.9717
3.0377 5.8485 -2.8428 0.9717
2.5056 6.0969 -2.8434 0.9717
1.9534 6.2971 -2.8440 0.9717
0.8063 6.5465 -2.8452 0.9717
0.2205 6.5937 -2.8458 0.9717
-0.3674 6.5886 -2.8465 0.9717
-1.5304 6.4219 -2.8477 0.9717
-2.0964 6.2615 -2.8483 0.9716
-3.1746 5.7929 -2.8495 0.9716
-5.2679 4.5553 -3.0041 0.9701
-5.9937 3.5500 -3.0049 0.9701
-6.5294 2.4316 -3.0055 0.9701
-6.9408 0.6202 -3.0059 0.9701
-6.6611 0.0000 -3.0056 0.9712
-6.5553 -1.1810 -3.0055 0.9712
-5.7293 -3.3935 -3.0046 0.9712
-5.4039 -3.8895 -3.0043 0.9712
-5.0356 -4.3544 -3.0039 0.9712
-4.6274 -4.7847 -3.0034 0.9712
-4.1825 -5.1767 -3.0029 0.9712
-3.7045 -5.5275 -3.0024 0.9712
-2.6648 -6.0945 -3.0013 0.9712
-1.5414 -6.4678 -3.0001 0.9712
-0.9594 -6.5779 -2.9995 0.9712
-0.3700 -6.6359 -2.9989 0.9713
0.2220 -6.6410 -2.9982 0.9713
1.3954 -6.4937 -2.9970 0.9713
4.0542 -5.2531 -2.9941 0.9713
4.9198 -4.4497 -2.9932 0.9713
5.6294 -3.5060 -2.9924 0.9713
6.1607 -2.4519 -2.9919 0.9713
6.3540 -1.8937 -2.9917 0.9713
6.4970 -1.3205 -2.9915 0.9713
6.6279 -0.1477 -2.9914 0.9713
6.6148 0.4428 -2.9914 0.9713
6.5492 1.0298 -2.9914 0.9713
6.0456 2.7240 -2.9920 0.9713
5.7797 3.2516 -2.9923 0.9713
5.4679 3.7535 -2.9926 0.9713
4.0661 4.8094 -2.8417 0.9727
1.5976 6.0979 -2.8443 0.9727
0.4913 6.2872 -2.8455 0.9727
-0.0703 6.3073 -2.8461 0.9727
-0.6315 6.2773 -2.8467 0.9727
-3.2787 5.3975 -2.8496 0.9727
-4.2274 4.7799 -2.8793 0.9724
-4.8363 4.5741 -3.0036 0.9712
-5.2250 4.1261 -3.0041 0.9712
-5.8751 3.1351 -3.0048 0.9712
-6.1314 2.6000 -3.0050 0.9712
-6.6545 0.2967 -3.0056 0.9712
-6.6015 -0.8878 -3.0055 0.9712
-6.3389 -2.0440 -3.0053 0.9712
-5.5722 -3.6451 -3.0044 0.9712
-5.2250 -4.1261 -3.0041 0.9712
-4.8363 -4.5741 -3.0036 0.9712
-4.4093 -4.9857 -3.0032 0.9712
-3.9474 -5.3574 -3.0027 0.9712
-3.4543 -5.6865 -3.0022 0.9712
-2.9339 -5.9703 -3.0016 0.9712
-1.2516 -6.5294 -2.9998 0.9712
-0.6653 -6.6135 -2.9992 0.9713
-0.0740 -6.6450 -2.9985 0.9713
0.5176 -6.6238 -2.9979 0.9713
1.1049 -6.5501 -2.9973 0.9713
1.6831 -6.4245 -2.9967 0.9713
3.3187 -5.7481 -2.9949 0.9713
3.8165 -5.4290 -2.9944 0.9713
4.7171 -4.6648 -2.9934 0.9713
5.1128 -4.2258 -2.9930 0.9713
5.7797 -3.2516 -2.9923 0.9713
6.0456 -2.7240 -2.9920 0.9713
6.4319 -1.6087 -2.9916 0.9713
6.6148 -0.4428 -2.9914 0.9713
6.5885 0.7370 -2.9914 0.9713
6.1607 2.4519 -2.9919 0.9713
5.9185 2.9907 -2.9921 0.9713
5.6294 3.5060 -2.9924 0.9713
5.2956 3.9936 -2.9928 0.9713
4.9198 4.4497 -2.9932 0.9713
3.8481 4.9861 -2.8419 0.9727
1.8675 6.0201 -2.8441 0.9727
1.3245 6.1637 -2.8446 0.9727
0.7708 6.2584 -2.8452 0.9727
0.2108 6.3035 -2.8458 0.9727
-0.3512 6.2986 -2.8464 0.9727
-0.9106 6.2436 -2.8470 0.9727
-1.4630 6.1391 -2.8476 0.9727
-2.0040 5.9857 -2.8482 0.9727
-3.0347 5.5377 -2.8493 0.9727
-3.5162 5.2465 -2.8498 0.9727
-3.9699 4.9136 -2.8503 0.9727
-4.6045 4.7610 -2.9886 0.9714
-5.0356 4.3545 -3.0039 0.9712
-5.7293 3.3935 -3.0046 0.9712
-6.2414 2.3243 -3.0052 0.9712
-6.4239 1.7597 -3.0054 0.9712
-5.9739 -2.2247 -3.0049 0.9722
-5.7517 -2.7473 -3.0046 0.9722
-5.1724 -3.7229 -3.0040 0.9722
-4.8199 -4.1679 -3.0036 0.9722
-4.0034 -4.9550 -3.0028 0.9722
-3.0604 -5.5845 -3.0017 0.9722
-2.0210 -6.0363 -3.0006 0.9722
-1.4754 -6.1911 -3.0000 0.9722
-0.3542 -6.3520 -2.9988 0.9723
0.7773 -6.3116 -2.9976 0.9723
1.3358 -6.2162 -2.9970 0.9723
2.9289 -5.6391 -2.9953 0.9723
3.4186 -5.3552 -2.9948 0.9723
4.7098 -4.2597 -2.9934 0.9723
5.0696 -3.8231 -2.9930 0.9723
5.3891 -3.3563 -2.9927 0.9723
5.6659 -2.8631 -2.9924 0.9723
6.2198 -1.2642 -2.9918 0.9723
6.3074 -0.7055 -2.9917 0.9723
6.3451 -0.1414 -2.9917 0.9723
6.3325 0.4239 -2.9917 0.9723
6.2698 0.9859 -2.9917 0.9723
6.1574 1.5401 -2.9919 0.9723
5.9962 2.0821 -2.9920 0.9723
5.5330 3.1128 -2.9925 0.9723
4.8945 4.0454 -2.9932 0.9723
3.4678 4.9329 -2.8423 0.9737
3.0155 5.2229 -2.8428 0.9737
2.5391 5.4716 -2.8433 0.9737
0.4703 6.0183 -2.8456 0.9737
-0.0673 6.0376 -2.8461 0.9737
-1.6610 5.8087 -2.8478 0.9736
-3.1383 5.1664 -2.8494 0.9736
-4.2084 4.7585 -2.9944 0.9723
-5.0011 3.9493 -3.0038 0.9722
-5.3334 3.4889 -3.0042 0.9722
-5.6233 3.0007 -3.0045 0.9722
-6.3692 -0.2840 -3.0053 0.9722
-6.0672 -1.9564 -3.0050 0.9722
-5.8686 -2.4885 -3.0048 0.9722
-5.3334 -3.4889 -3.0042 0.9722
-4.6291 -4.3782 -3.0034 0.9722
-4.2205 -4.7721 -3.0030 0.9722
-3.7784 -5.1280 -3.0025 0.9722
-2.8083 -5.7147 -3.0015 0.9722
-1.7499 -6.1198 -3.0003 0.9722
-1.1980 -6.2500 -2.9997 0.9723
-0.0709 -6.3608 -2.9985 0.9723
1.6112 -6.1499 -2.9967 0.9723
2.6750 -5.7646 -2.9956 0.9723
4.1009 -4.8505 -2.9941 0.9723
4.5156 -4.4656 -2.9936 0.9723
4.8945 -4.0454 -2.9932 0.9723
5.2345 -3.5933 -2.9929 0.9723
5.5330 -3.1128 -2.9925 0.9723
5.7875 -2.6077 -2.9923 0.9723
6.1574 -1.5401 -2.9919 0.9723
6.2698 -0.9859 -2.9917 0.9723
6.3325 -0.4239 -2.9917 0.9723
6.3451 0.1414 -2.9917 0.9723
6.3074 0.7056 -2.9917 0.9723
6.2198 1.2642 -2.9918 0.9723
5.6659 2.8631 -2.9924 0.9723
4.7098 4.2597 -2.9934 0.9723
4.3125 4.6627 -2.9938 0.9723
2.7800 5.3525 -2.8431 0.9737
1.7876 5.7628 -2.8441 0.9737
0.7378 5.9908 -2.8453 0.9737
0.2017 6.0339 -2.8458 0.9737
-0.3362 6.0292 -2.8464 0.9737
-3.3657 5.0219 -2.8497 0.9736
-4.8199 4.1679 -3.0036 0.9722
-5.1724 3.7229 -3.0040 0.9722
-5.9739 2.2247 -3.0049 0.9722
-6.1485 1.6843 -3.0051 0.9722
-6.2743 1.1304 -3.0052 0.9722
-5.7246 -2.1319 -3.0046 0.9731
-5.2551 -3.1126 -3.0041 0.9731
-4.2445 -4.3888 -3.0030 0.9732
-2.9328 -5.3517 -3.0016 0.9732
-2.4444 -5.5905 -3.0011 0.9732
-1.9368 -5.7848 -3.0005 0.9732
-1.4139 -5.9331 -3.0000 0.9732
-0.8801 -6.0343 -2.9994 0.9732
-0.3394 -6.0875 -2.9988 0.9732
0.2037 -6.0924 -2.9982 0.9732
1.8050 -5.8188 -2.9965 0.9732
2.3153 -5.6340 -2.9960 0.9732
3.2764 -5.1324 -2.9950 0.9732
4.1333 -4.4688 -2.9940 0.9732
4.8589 -3.6642 -2.9933 0.9732
5.4304 -2.7441 -2.9926 0.9732
5.6527 -2.2497 -2.9924 0.9732
5.8301 -1.7375 -2.9922 0.9732
5.9613 -1.2117 -2.9921 0.9732
6.0093 0.9449 -2.9920 0.9732
5.0170 3.4440 -2.9931 0.9732
4.3279 4.2800 -2.9938 0.9732
3.9304 4.6489 -2.9942 0.9732
3.3435 4.7562 -2.8596 0.9744
2.4335 5.2440 -2.8435 0.9746
1.9574 5.4407 -2.8440 0.9746
0.4507 5.7678 -2.8456 0.9745
-0.0645 5.7862 -2.8461 0.9745
-1.0898 5.6853 -2.8472 0.9745
-1.5918 5.5668 -2.8478 0.9745
-3.0075 4.9510 -2.8493 0.9745
-4.0445 4.5731 -3.0028 0.9732
-4.4361 4.1956 -3.0032 0.9731
-5.6238 2.3847 -3.0045 0.9731
-5.8141 1.8748 -3.0047 0.9731
-5.9582 1.3500 -3.0049 0.9731
-6.1035 0.2721 -3.0050 0.9731
-5.9582 -1.3500 -3.0049 0.9731
-5.3888 -2.8755 -3.0042 0.9731
-5.1109 -3.3434 -3.0039 0.9731
-4.7925 -3.7846 -3.0036 0.9731
-4.0445 -4.5731 -3.0028 0.9732
-3.6209 -4.9143 -3.0023 0.9732
-2.6913 -5.4766 -3.0013 0.9732
-1.6770 -5.8648 -3.0003 0.9732
-1.1481 -5.9897 -2.9997 0.9732
-0.6103 -6.0669 -2.9991 0.9732
-0.0679 -6.0960 -2.9985 0.9732
0.4748 -6.0767 -2.9980 0.9732
1.0136 -6.0091 -2.9974 0.9732
2.5638 -5.5248 -2.9957 0.9732
3.0448 -5.2738 -2.9952 0.9732
5.5471 -2.4993 -2.9925 0.9732
5.7471 -1.9956 -2.9923 0.9732
6.0694 -0.4063 -2.9920 0.9732
5.4304 2.7441 -2.9926 0.9732
5.1651 3.2169 -2.9929 0.9732
4.5140 4.0827 -2.9936 0.9732
4.1333 4.4688 -2.9940 0.9732
3.6576 4.7394 -2.9446 0.9737
2.1976 5.3476 -2.8437 0.9746
1.7133 5.5230 -2.8442 0.9746
1.2151 5.6546 -2.8448 0.9745
0.1933 5.7827 -2.8459 0.9745
-0.8353 5.7276 -2.8470 0.9745
-1.3421 5.6316 -2.8475 0.9745
-3.8365 4.7484 -3.0026 0.9732
-4.6189 3.9941 -3.0034 0.9731
-5.2551 3.1126 -3.0041 0.9731
-5.8920 1.6140 -3.0048 0.9731
-6.0125 1.0832 -3.0049 0.9731
-6.0853 0.5438 -3.0050 0.9731
-5.8610 0.0000 -3.0047 0.9740
-5.7679 -1.0391 -3.0046 0.9740
-5.0413 -2.9860 -3.0039 0.9740
-4.4311 -3.8317 -3.0032 0.9740
-4.0719 -4.2103 -3.0028 0.9740
-3.6805 -4.5554 -3.0024 0.9740
-3.2599 -4.8641 -3.0020 0.9740
-2.3451 -5.3633 -3.0010 0.9740
-1.8581 -5.5498 -3.0005 0.9740
-1.3565 -5.6921 -2.9999 0.9740
-0.8443 -5.7892 -2.9994 0.9740
0.1954 -5.8450 -2.9983 0.9741
1.7318 -5.5827 -2.9966 0.9741
2.2214 -5.4054 -2.9961 0.9741
3.5688 -4.6243 -2.9946 0.9741
4.3310 -3.9171 -2.9938 0.9741
5.2104 -2.6329 -2.9929 0.9741
5.4236 -2.1586 -2.9926 0.9741
5.5939 -1.6671 -2.9925 0.9741
5.8004 -0.6488 -2.9922 0.9741
5.8351 -0.1300 -2.9922 0.9741
5.7658 0.9066 -2.9923 0.9741
4.8136 3.3043 -2.9933 0.9741
3.7710 4.4604 -2.9944 0.9741
2.3347 5.0312 -2.8436 0.9754
1.4062 5.3673 -2.8446 0.9754
0.4324 5.5337 -2.8456 0.9754
-0.0618 5.5512 -2.8461 0.9754
-0.5558 5.5247 -2.8467 0.9753
-2.9022 4.7777 -2.8658 0.9752
-3.4736 4.7144 -3.0022 0.9740
-3.8800 4.3872 -3.0026 0.9740
-5.5776 1.7985 -3.0044 0.9740
-5.7158 -1.2950 -3.0046 0.9740
-5.3950 -2.2877 -3.0042 0.9740
-5.1696 -2.7586 -3.0040 0.9740
-4.5976 -3.6307 -3.0034 0.9740
-4.2557 -4.0250 -3.0030 0.9740
-3.4737 -4.7145 -3.0022 0.9740
-3.0398 -5.0041 -3.0017 0.9740
-0.0652 -5.8485 -2.9985 0.9741
0.9725 -5.7652 -2.9974 0.9741
1.9786 -5.4995 -2.9963 0.9741
2.4598 -5.3007 -2.9958 0.9741
4.5009 -3.7201 -2.9936 0.9741
4.8136 -3.3044 -2.9933 0.9741
5.5142 -1.9147 -2.9926 0.9741
5.6624 -1.4163 -2.9924 0.9741
5.7658 -0.9066 -2.9923 0.9741
5.8351 0.1300 -2.9922 0.9741
5.8004 0.6489 -2.9922 0.9741
5.7198 1.1626 -2.9923 0.9741
5.2104 2.6329 -2.9929 0.9741
4.6619 3.5157 -2.9935 0.9741
4.3310 3.9171 -2.9938 0.9741
3.9657 4.2876 -2.9942 0.9741
3.5688 4.6242 -2.9946 0.9741
1.1658 5.4252 -2.8448 0.9754
0.6784 5.5084 -2.8453 0.9754
-2.6706 4.8733 -2.8489 0.9753
-4.4311 3.8317 -3.0032 0.9740
-5.0413 2.9860 -3.0039 0.9740
-5.2875 2.5256 -3.0041 0.9740
-5.4917 2.0452 -3.0044 0.9740
-5.6281 -0.0000 -3.0045 0.9748
-5.6057 -0.5009 -3.0045 0.9748
-5.0774 -2.4253 -3.0039 0.9748
-4.5662 -3.2865 -3.0034 0.9748
-3.9102 -4.0431 -3.0027 0.9748
-3.1305 -4.6710 -3.0018 0.9748
-2.7019 -4.9303 -3.0014 0.9748
-1.7843 -5.3295 -3.0004 0.9748
-0.8108 -5.5596 -2.9993 0.9748
2.1333 -5.1912 -2.9962 0.9749
3.0190 -4.7292 -2.9952 0.9749
3.4274 -4.4411 -2.9948 0.9749
4.1595 -3.7620 -2.9940 0.9749
4.4773 -3.3765 -2.9937 0.9749
4.7596 -2.9643 -2.9934 0.9749
5.2089 -2.0731 -2.9929 0.9749
5.4934 -1.1166 -2.9926 0.9749
5.6041 -0.1249 -2.9925 0.9749
5.5930 0.3744 -2.9925 0.9749
5.5376 0.8707 -2.9925 0.9749
5.4383 1.3602 -2.9926 0.9749
5.2959 1.8390 -2.9928 0.9749
5.1116 2.3031 -2.9930 0.9749
4.8867 2.7492 -2.9932 0.9749
4.3227 3.5728 -2.9938 0.9749
3.9880 3.9438 -2.9942 0.9749
3.6216 4.2837 -2.9946 0.9749
3.2264 4.5897 -2.9950 0.9749
2.7402 4.7462 -2.9257 0.9755
0.8865 5.2553 -2.8451 0.9761
0.4153 5.3142 -2.8456 0.9761
-0.0594 5.3311 -2.8461 0.9761
-1.4665 5.1287 -2.8476 0.9761
-1.9175 4.9787 -2.8481 0.9761
-2.3541 4.7904 -2.8494 0.9761
-3.7259 4.2130 -3.0025 0.9748
-4.0867 3.8651 -3.0028 0.9748
-4.7083 3.0800 -3.0035 0.9748
-5.1806 2.1968 -3.0040 0.9748
-5.4887 1.2436 -3.0043 0.9748
-5.5777 0.7501 -3.0044 0.9748
-5.6225 -0.2507 -3.0045 0.9748
-5.5777 -0.7502 -3.0044 0.9748
-5.3559 -1.7270 -3.0042 0.9748
-5.1806 -2.1968 -3.0040 0.9748
-4.9642 -2.6489 -3.0038 0.9748
-4.7083 -3.0800 -3.0035 0.9748
-4.4150 -3.4865 -3.0032 0.9748
-3.7259 -4.2130 -3.0025 0.9748
-2.4794 -5.0454 -3.0011 0.9748
-2.0202 -5.2452 -3.0006 0.9748
-1.0578 -5.5184 -2.9996 0.9748
-0.5623 -5.5897 -2.9991 0.9748
0.4375 -5.5988 -2.9980 0.9749
0.9339 -5.5366 -2.9975 0.9749
1.4228 -5.4306 -2.9969 0.9749
1.9001 -5.2815 -2.9964 0.9749
2.3623 -5.0906 -2.9959 0.9749
2.8056 -4.8594 -2.9955 0.9749
3.6216 -4.2837 -2.9946 0.9749
4.6230 -3.1735 -2.9935 0.9749
4.8867 -2.7492 -2.9932 0.9749
5.5376 -0.8707 -2.9925 0.9749
5.5930 -0.3744 -2.9925 0.9749
5.3724 1.6011 -2.9927 0.9749
5.2089 2.0731 -2.9929 0.9749
5.0041 2.5287 -2.9931 0.9749
4.7596 2.9643 -2.9934 0.9749
0.1781 5.3279 -2.8459 0.9761
-0.2968 5.3236 -2.8464 0.9761
-0.7696 5.2770 -2.8469 0.9761
-1.2365 5.1885 -2.8474 0.9761
-1.6937 5.0587 -2.8479 0.9761
-3.1305 4.6710 -3.0018 0.9748
-3.9102 4.0431 -3.0027 0.9748
-4.2550 3.6795 -3.0030 0.9748
-4.5661 3.2865 -3.0034 0.9748
-4.8410 2.8674 -3.0037 0.9748
-5.0774 2.4253 -3.0039 0.9748
-5.2735 1.9639 -3.0041 0.9748
-5.4277 1.4868 -3.0043 0.9748
-5.6057 0.5009 -3.0045 0.9748
-5.4092 0.0000 -3.0043 0.9756
-5.3877 -0.4814 -3.0042 0.9756
-5.3234 -0.9590 -3.0042 0.9756
-5.2167 -1.4290 -3.0041 0.9756
-5.0685 -1.8875 -3.0039 0.9756
-4.8801 -2.3310 -3.0037 0.9756
-4.6529 -2.7559 -3.0035 0.9756
-4.0897 -3.5365 -3.0028 0.9756
-3.3970 -4.2045 -3.0021 0.9756
-1.2521 -5.2541 -2.9998 0.9756
-0.7794 -5.3438 -2.9993 0.9756
0.1804 -5.3954 -2.9983 0.9756
1.1338 -5.2761 -2.9972 0.9756
1.5986 -5.1534 -2.9967 0.9756
2.0506 -4.9899 -2.9963 0.9756
2.9020 -4.5459 -2.9954 0.9756
3.2946 -4.2689 -2.9949 0.9756
3.6610 -3.9583 -2.9945 0.9756
4.5752 -2.8495 -2.9936 0.9756
4.8102 -2.4307 -2.9933 0.9756
5.0071 -1.9928 -2.9931 0.9756
5.2806 -1.0733 -2.9928 0.9756
5.0908 1.7677 -2.9930 0.9756
4.9136 2.2139 -2.9932 0.9756
4.6974 2.6427 -2.9934 0.9756
4.4439 3.0506 -2.9937 0.9756
3.4813 4.1177 -2.9947 0.9756
3.1014 4.4118 -2.9951 0.9756
2.2048 4.7512 -2.9091 0.9763
1.2981 4.9547 -2.8447 0.9768
0.3992 5.1080 -2.8456 0.9768
-0.5130 5.0997 -2.8466 0.9768
-0.9650 5.0346 -2.8471 0.9768
-1.4115 4.9365 -2.8516 0.9768
-2.3395 4.7607 -2.9461 0.9760
-2.8057 4.6188 -3.0015 0.9756
-3.5812 4.0493 -3.0023 0.9756
-3.9278 3.7149 -3.0027 0.9756
-4.2434 3.3510 -3.0030 0.9756
-4.5253 2.9603 -3.0033 0.9756
-4.7712 2.5460 -3.0036 0.9756
-4.9792 2.1114 -3.0038 0.9756
-5.3609 0.7210 -3.0042 0.9756
-5.4038 0.2410 -3.0043 0.9756
-5.4038 -0.2410 -3.0043 0.9756
-5.2753 -1.1952 -3.0041 0.9756
-5.1477 -1.6599 -3.0040 0.9756
-4.7712 -2.5460 -3.0036 0.9756
-2.3831 -4.8494 -3.0010 0.9756
-1.9417 -5.0415 -3.0005 0.9756
-1.4850 -5.1935 -3.0001 0.9756
-0.0601 -5.3986 -2.9985 0.9756
0.8977 -5.3219 -2.9975 0.9756
2.2707 -4.8932 -2.9960 0.9756
2.6968 -4.6710 -2.9956 0.9756
3.1014 -4.4117 -2.9951 0.9756
4.9136 -2.2139 -2.9932 0.9756
5.0908 -1.7677 -2.9930 0.9756
5.3231 -0.8370 -2.9928 0.9756
5.2806 1.0733 -2.9928 0.9756
5.1643 1.5391 -2.9929 0.9756
5.0071 1.9928 -2.9931 0.9756
4.5752 2.8495 -2.9936 0.9756
4.3038 3.2457 -2.9938 0.9756
2.9020 4.5458 -2.9954 0.9756
1.9563 4.7614 -2.8591 0.9767
1.5174 4.8915 -2.8444 0.9768
1.0762 5.0080 -2.8449 0.9768
0.6263 5.0848 -2.8454 0.9768
0.1712 5.1212 -2.8459 0.9768
-0.2853 5.1170 -2.8464 0.9768
-0.7398 5.0721 -2.8469 0.9768
-1.1885 4.9870 -2.8473 0.9768
-2.0856 4.7700 -2.8914 0.9765
-3.7582 3.8860 -3.0025 0.9756
-4.0897 3.5365 -3.0028 0.9756
-4.3887 3.1588 -3.0032 0.9756
-4.6528 2.7559 -3.0035 0.9756
-4.8801 2.3310 -3.0037 0.9756
-5.3877 0.4815 -3.0042 0.9756
-5.1825 -0.4631 -3.0040 0.9763
-5.1206 -0.9225 -3.0040 0.9763
-4.4756 -2.6509 -3.0033 0.9763
-4.2215 -3.0385 -3.0030 0.9763
-2.4981 -4.5585 -3.0011 0.9763
-2.0822 -4.7620 -3.0007 0.9763
-1.6498 -4.9277 -3.0002 0.9763
-1.2045 -5.0542 -2.9998 0.9763
-0.7497 -5.1405 -2.9993 0.9763
0.6347 -5.1534 -2.9978 0.9763
1.0907 -5.0756 -2.9973 0.9763
1.9727 -4.8003 -2.9963 0.9763
2.3918 -4.6050 -2.9959 0.9763
3.1695 -4.1068 -2.9951 0.9763
3.5220 -3.8079 -2.9947 0.9763
3.8465 -3.4789 -2.9943 0.9763
4.1404 -3.1224 -2.9940 0.9763
4.6276 -2.3384 -2.9935 0.9763
4.9683 -1.4807 -2.9931 0.9763
5.0802 -1.0326 -2.9930 0.9763
5.1723 0.3462 -2.9929 0.9763
4.8975 1.7006 -2.9932 0.9763
4.7270 2.1298 -2.9934 0.9763
4.5190 2.5423 -2.9936 0.9763
4.2752 2.9347 -2.9939 0.9763
3.3490 3.9613 -2.9949 0.9763
2.9836 4.2442 -2.9953 0.9763
-0.4935 4.9057 -2.8466 0.9775
-0.9283 4.8431 -2.8471 0.9775
-1.3646 4.7721 -2.8656 0.9773
-2.2924 4.6649 -3.0009 0.9763
-2.6989 4.4430 -3.0014 0.9763
-3.7783 3.5735 -3.0025 0.9763
-4.0818 3.2234 -3.0028 0.9763
-4.3529 2.8475 -3.0031 0.9763
-4.5895 2.4490 -3.0034 0.9763
-5.0743 1.1497 -3.0039 0.9763
-5.1566 0.6935 -3.0040 0.9763
-5.1980 0.2318 -3.0040 0.9763
-5.1980 -0.2318 -3.0040 0.9763
-5.1566 -0.6935 -3.0040 0.9763
-4.9516 -1.5967 -3.0038 0.9763
-4.7896 -2.0309 -3.0036 0.9763
-4.5895 -2.4490 -3.0034 0.9763
-4.3529 -2.8475 -3.0031 0.9763
-3.7783 -3.5735 -3.0025 0.9763
-3.0841 -4.1857 -3.0018 0.9763
-2.6989 -4.4430 -3.0014 0.9763
-1.8678 -4.8497 -3.0005 0.9763
-1.4285 -4.9959 -3.0000 0.9763
-0.9781 -5.1024 -2.9995 0.9763
-0.0579 -5.1933 -2.9985 0.9763
0.4045 -5.1769 -2.9980 0.9763
0.8636 -5.1196 -2.9975 0.9763
1.7570 -4.8838 -2.9966 0.9763
2.1844 -4.7073 -2.9961 0.9763
2.5943 -4.4935 -2.9957 0.9763
2.9836 -4.2442 -2.9953 0.9763
3.3490 -3.9613 -2.9949 0.9763
3.6879 -3.6470 -2.9945 0.9763
3.9974 -3.3039 -2.9942 0.9763
4.5190 -2.5423 -2.9936 0.9763
4.7270 -2.1299 -2.9934 0.9763
5.1211 -0.8052 -2.9930 0.9763
5.1723 -0.3463 -2.9929 0.9763
4.9683 1.4807 -2.9931 0.9763
4.8171 1.9171 -2.9933 0.9763
4.6276 2.3384 -2.9935 0.9763
4.4015 2.7413 -2.9937 0.9763
3.5220 3.8079 -2.9947 0.9763
1.9490 4.7426 -2.9603 0.9766
1.4765 4.7597 -2.8772 0.9772
1.0352 4.8177 -2.8450 0.9775
-0.2750 4.9314 -2.8516 0.9774
-1.1433 4.7973 -2.8473 0.9775
-1.5957 4.7662 -2.9019 0.9771
-2.0773 4.7510 -2.9937 0.9763
-3.2677 4.0445 -3.0020 0.9763
-3.6151 3.7380 -3.0023 0.9763
-3.9339 3.4018 -3.0027 0.9763
-4.4756 2.6509 -3.0033 0.9763
-4.6942 2.2422 -3.0035 0.9763
-4.8754 1.8156 -3.0037 0.9763
-5.1206 0.9225 -3.0040 0.9763
-5.1825 0.4631 -3.0040 0.9763
