ply
format ascii 1.0
element vertex 1652
property float32 x
property float32 y
property float32 z
property float32 I
end_header
6.8188 -6.1672 1.7792 0.9632
6.5262 -6.4539 1.7762 0.9633
6.5611 -5.9341 1.5599 0.9647
5.9553 -6.4388 1.3966 0.9651
7.4373 -5.6087 1.4833 0.9630
6.1356 -6.0676 1.3741 0.9657
6.7764 -5.6008 1.3999 0.9650
5.8458 -6.3204 1.2246 0.9658
7.1775 -5.4129 1.2787 0.9643
6.0388 -5.9720 1.2080 0.9663
5.8153 -7.5352 1.1928 0.9624
5.7619 -6.2297 1.0634 0.9664
6.2213 -5.6268 1.0512 0.9667
5.6472 -6.6795 1.0961 0.9654
6.5565 -5.4191 1.0660 0.9663
5.5995 -7.2554 0.9941 0.9638
5.7038 -6.1669 0.9111 0.9668
6.9189 -5.2178 0.9400 0.9657
5.9033 -5.8379 0.9005 0.9671
5.4962 -7.1216 0.8247 0.9645
5.6482 -6.1068 0.7626 0.9671
6.8374 -5.1564 0.7851 0.9662
5.5070 -6.5138 0.7820 0.9663
5.8502 -5.7854 0.7543 0.9675
6.4237 -5.3093 0.7640 0.9671
6.0737 -5.4933 0.6137 0.9677
5.8199 -5.7554 0.6134 0.9677
6.3877 -5.2796 0.6210 0.9673
5.3734 -6.9625 0.5122 0.9654
6.0422 -5.4648 0.4745 0.9679
5.7900 -5.7258 0.4743 0.9679
6.3522 -5.2503 0.4800 0.9675
7.2924 -5.0060 0.5152 0.9652
5.5647 -6.0165 0.3408 0.9677
6.0198 -5.4446 0.3375 0.9680
6.7129 -5.0625 0.3496 0.9669
5.4115 -6.4008 0.3485 0.9670
5.7687 -5.7048 0.3373 0.9680
5.3200 -6.8933 0.2172 0.9658
6.0099 -5.4357 0.2021 0.9681
6.6993 -5.0522 0.2093 0.9670
5.7593 -5.6955 0.2020 0.9681
6.3152 -5.2196 0.2043 0.9677
7.2236 -4.9587 0.2185 0.9655
5.5455 -5.9958 0.0679 0.9679
5.6033 -7.9708 0.0810 0.9618
5.3906 -6.3760 0.0694 0.9672
5.7499 -5.6862 0.0672 0.9682
6.3041 -5.2104 0.0680 0.9678
7.2053 -4.9462 0.0726 0.9656
6.0006 -5.4273 -0.0672 0.9682
6.6866 -5.0427 -0.0696 0.9671
6.3048 -5.2110 -0.0680 0.9678
6.0106 -5.4363 -0.2021 0.9681
6.7002 -5.0529 -0.2093 0.9670
5.7599 -5.6961 -0.2020 0.9681
6.3159 -5.2203 -0.2043 0.9677
7.2248 -4.9596 -0.2185 0.9655
5.3336 -6.9109 -0.3630 0.9657
6.7138 -5.0632 -0.3496 0.9669
5.4123 -6.4017 -0.3486 0.9670
6.3271 -5.2295 -0.3413 0.9677
5.5888 -6.0426 -0.4794 0.9676
6.7492 -5.0898 -0.4923 0.9667
5.4394 -6.4337 -0.4907 0.9668
5.7919 -5.7277 -0.4744 0.9679
5.4729 -6.4734 -0.6353 0.9666
5.8219 -5.7574 -0.6136 0.9677
6.3901 -5.2815 -0.6213 0.9673
5.5021 -7.1293 -0.8256 0.9645
6.1078 -5.5242 -0.7550 0.9675
5.5108 -6.5182 -0.7825 0.9663
5.8523 -5.7875 -0.7546 0.9675
6.4267 -5.3118 -0.7644 0.9671
5.6061 -7.2640 -0.9953 0.9638
5.7074 -6.1708 -0.9117 0.9667
6.9241 -5.2218 -0.9407 0.9657
7.6528 -5.2534 -1.0068 0.9633
5.8760 -7.6137 -1.2052 0.9620
7.0169 -5.2918 -1.1014 0.9652
5.6521 -6.6854 -1.0971 0.9653
5.9639 -5.8979 -1.0511 0.9668
6.5609 -5.4227 -1.0667 0.9663
5.8518 -6.3269 -1.2258 0.9658
6.3105 -5.7075 -1.2102 0.9662
7.1881 -5.4208 -1.2806 0.9643
6.6622 -5.5065 -1.2294 0.9657
5.9623 -6.4464 -1.3983 0.9651
6.4126 -5.7999 -1.3768 0.9656
7.4642 -5.6290 -1.4887 0.9628
5.9714 -7.0630 -1.4728 0.9632
6.1418 -6.0738 -1.3754 0.9656
6.7845 -5.6075 -1.4016 0.9650
6.1476 -6.6467 -1.5964 0.9639
7.0079 -5.7922 -1.6031 0.9637
6.8402 -6.1867 -1.7848 0.9631
12.7940 7.1978 -2.8408 0.9419
12.1038 8.3088 -2.8411 0.9419
11.3176 9.3542 -2.8414 0.9419
10.4414 10.3257 -2.8418 0.9419
6.1853 13.3290 -2.8436 0.9419
3.7254 14.2197 -2.8446 0.9419
-2.7700 14.4507 -2.8474 0.9418
-4.0459 14.1495 -2.8479 0.9418
-5.2902 13.7358 -2.8484 0.9418
-6.4929 13.2127 -2.8490 0.9418
-8.7356 11.8561 -2.8499 0.9418
6.5463 -6.4738 -1.7817 0.9632
12.4612 7.7609 -2.8409 0.9419
11.7223 8.8402 -2.8412 0.9419
9.9718 10.7814 -2.8420 0.9419
8.9740 11.6279 -2.8424 0.9419
5.5859 13.5925 -2.8438 0.9419
3.0885 14.3729 -2.8449 0.9419
1.7974 14.5935 -2.8454 0.9419
0.4914 14.6984 -2.8460 0.9418
-2.1233 14.5584 -2.8471 0.9418
-3.4113 14.3143 -2.8476 0.9418
-5.8974 13.4876 -2.8487 0.9418
-7.0757 12.9115 -2.8492 0.9418
-14.2520 -0.0000 -3.0046 0.9434
-14.0257 -2.5268 -3.0045 0.9434
-13.7446 -3.7650 -3.0044 0.9434
-12.8576 -6.1416 -3.0040 0.9434
-10.7750 -9.3175 -3.0031 0.9434
-7.9274 -11.8284 -3.0019 0.9435
-6.8420 -12.4852 -3.0014 0.9435
-3.2988 -13.8423 -2.9999 0.9435
-2.0533 -14.0784 -2.9994 0.9435
0.4752 -14.2144 -2.9983 0.9435
4.2115 -13.5766 -2.9968 0.9435
5.4023 -13.1457 -2.9963 0.9436
7.6451 -11.9758 -2.9953 0.9436
8.6793 -11.2462 -2.9949 0.9436
9.6446 -10.4276 -2.9945 0.9436
10.5331 -9.5266 -2.9941 0.9436
11.3379 -8.5503 -2.9938 0.9436
12.6719 -6.4034 -2.9932 0.9436
13.1906 -5.2498 -2.9930 0.9436
13.9110 -2.8276 -2.9927 0.9436
14.1914 -0.3162 -2.9926 0.9436
14.1633 0.9481 -2.9926 0.9436
14.0230 2.2050 -2.9927 0.9436
13.7716 3.4445 -2.9928 0.9436
12.2863 5.5359 -2.8410 0.9464
10.3902 8.5877 -2.8418 0.9464
9.5857 9.4795 -2.8421 0.9464
5.6781 12.2360 -2.8438 0.9463
-0.1504 13.5001 -2.8463 0.9463
-1.3516 13.4356 -2.8468 0.9463
-4.8557 12.6076 -2.8483 0.9463
-8.9558 10.1265 -2.8500 0.9462
-10.6120 8.3802 -2.8507 0.9462
-12.4523 5.2802 -2.8515 0.9462
-13.8990 3.1491 -3.0045 0.9434
-14.1246 1.8996 -3.0046 0.9434
-14.1246 -1.8996 -3.0045 0.9434
-13.8990 -3.1491 -3.0044 0.9434
-13.1190 -5.5629 -3.0041 0.9434
-12.5708 -6.7079 -3.0039 0.9434
-11.9227 -7.7995 -3.0036 0.9434
-11.1801 -8.8288 -3.0033 0.9434
-10.3487 -9.7877 -3.0029 0.9434
-9.4352 -10.6686 -3.0025 0.9434
-7.3921 -12.1689 -3.0017 0.9435
-5.1156 -13.2825 -3.0007 0.9435
-3.9125 -13.6827 -3.0002 0.9435
-2.6775 -13.9745 -2.9997 0.9435
-1.4240 -14.1547 -2.9991 0.9435
-0.1585 -14.2227 -2.9986 0.9435
2.3650 -14.0205 -2.9975 0.9435
3.6028 -13.7519 -2.9970 0.9435
4.8117 -13.3744 -2.9965 0.9436
10.9464 -9.0474 -2.9939 0.9436
11.7069 -8.0363 -2.9936 0.9436
13.4110 -4.6568 -2.9929 0.9436
14.0230 -2.2050 -2.9926 0.9436
14.1633 -0.9481 -2.9926 0.9436
14.1914 0.3163 -2.9926 0.9436
13.9111 2.8276 -2.9927 0.9436
13.6048 4.0546 -2.9928 0.9436
12.0280 6.0780 -2.8411 0.9464
11.4403 7.1251 -2.8414 0.9464
9.9979 9.0426 -2.8420 0.9464
9.1545 9.8978 -2.8423 0.9464
6.2170 11.9699 -2.8436 0.9464
3.9975 12.8869 -2.8445 0.9463
2.8352 13.1938 -2.8450 0.9463
1.6499 13.3961 -2.8455 0.9463
-3.1312 13.1390 -2.8475 0.9463
-5.4130 12.3798 -2.8485 0.9463
-6.4944 11.8508 -2.8489 0.9463
-7.5246 11.2274 -2.8494 0.9462
-8.4952 10.5147 -2.8498 0.9462
-10.9753 7.8996 -2.8508 0.9462
-12.9122 4.8085 -2.9048 0.9452
-13.7447 3.7651 -3.0044 0.9434
-14.0258 2.5269 -3.0045 0.9434
-14.1953 1.2685 -3.0046 0.9434
-12.9531 -2.3336 -3.0040 0.9474
-12.3330 -4.5929 -3.0038 0.9474
-11.8745 -5.6720 -3.0036 0.9474
-11.3216 -6.7058 -3.0034 0.9474
-10.6789 -7.6862 -3.0031 0.9474
-9.9513 -8.6053 -3.0028 0.9475
-9.1449 -9.4558 -3.0024 0.9475
-8.2660 -10.2309 -3.0021 0.9475
-7.3216 -10.9245 -3.0016 0.9475
-6.3193 -11.5312 -3.0012 0.9475
-4.1733 -12.4652 -3.0003 0.9475
-0.7315 -13.1185 -2.9989 0.9475
0.4390 -13.1294 -2.9984 0.9475
3.8902 -12.5408 -2.9969 0.9476
4.9902 -12.1429 -2.9964 0.9476
9.7301 -8.8004 -2.9944 0.9476
12.8510 -2.6121 -2.9931 0.9476
13.0322 -1.4579 -2.9931 0.9476
12.7222 3.1820 -2.9932 0.9476
10.8506 6.1044 -2.8416 0.9502
9.5981 7.9330 -2.8421 0.9502
8.8549 8.7569 -2.8425 0.9502
7.1638 10.1907 -2.8432 0.9502
-1.2484 12.4097 -2.8467 0.9501
-4.4848 11.6446 -2.8481 0.9501
-7.4051 10.0503 -2.8493 0.9501
-9.0720 8.5802 -2.8500 0.9501
-10.4517 6.8372 -2.8506 0.9500
-11.0196 5.8803 -2.8508 0.9500
-11.5001 4.8765 -2.8511 0.9500
-12.8361 2.9083 -3.0040 0.9474
-13.0444 1.7543 -3.0041 0.9474
-13.1489 0.5863 -3.0041 0.9474
-13.0443 -1.7543 -3.0041 0.9474
-12.8360 -2.9083 -3.0040 0.9474
-12.5257 -4.0390 -3.0039 0.9474
-12.1158 -5.1375 -3.0037 0.9474
-11.0112 -7.2032 -3.0032 0.9474
-9.5576 -9.0395 -3.0026 0.9475
-8.7141 -9.8531 -3.0022 0.9475
-7.8015 -10.5883 -3.0019 0.9475
-5.7989 -11.8004 -3.0010 0.9475
-4.7249 -12.2679 -3.0005 0.9475
-1.3153 -13.0739 -2.9991 0.9475
2.1845 -12.9505 -2.9976 0.9475
11.4315 -6.4312 -2.9937 0.9476
12.7221 -3.1821 -2.9932 0.9476
13.0841 -0.8759 -2.9930 0.9476
12.5681 3.7457 -2.9933 0.9476
11.1113 5.6148 -2.8415 0.9502
9.2357 8.3532 -2.8423 0.9502
6.7032 10.5004 -2.8434 0.9502
5.7428 11.0570 -2.8438 0.9502
4.7366 11.5259 -2.8442 0.9502
2.6188 12.1870 -2.8451 0.9501
1.5240 12.3737 -2.8456 0.9501
-1.8001 12.3428 -2.8470 0.9501
-2.8920 12.1355 -2.8474 0.9501
-3.9613 11.8318 -2.8479 0.9501
-5.9982 10.9453 -2.8487 0.9501
-6.9496 10.3695 -2.8491 0.9501
-7.8460 9.7111 -2.8495 0.9501
-10.1362 7.2956 -2.8505 0.9501
-11.2711 5.3837 -2.8510 0.9500
-13.1097 1.1715 -3.0041 0.9474
-12.2203 -0.0000 -3.0037 0.9509
-12.1717 -1.0876 -3.0037 0.9509
-12.0263 -2.1666 -3.0037 0.9509
-11.4507 -4.2643 -3.0034 0.9509
-9.9151 -7.1364 -3.0028 0.9509
-9.2397 -7.9898 -3.0025 0.9509
-6.7981 -10.1435 -3.0014 0.9509
-5.8675 -10.7069 -3.0010 0.9510
-4.8906 -11.1851 -3.0006 0.9510
-1.7610 -12.0744 -2.9993 0.9510
-0.6792 -12.1814 -2.9988 0.9510
0.4076 -12.1916 -2.9984 0.9510
3.6125 -11.6455 -2.9970 0.9510
5.6184 -10.8174 -2.9962 0.9510
6.5581 -10.2731 -2.9958 0.9510
7.4455 -9.6474 -2.9954 0.9510
9.0360 -8.1726 -2.9947 0.9511
10.3400 -6.4398 -2.9942 0.9511
10.8713 -5.4936 -2.9940 0.9511
11.9347 -2.4258 -2.9935 0.9511
12.1029 -1.3539 -2.9935 0.9511
12.1753 -0.2713 -2.9934 0.9511
10.0767 5.6691 -2.8419 0.9535
8.2232 8.1321 -2.8427 0.9535
7.4676 8.8328 -2.8430 0.9535
6.6527 9.4635 -2.8434 0.9535
5.7847 10.0194 -2.8438 0.9535
3.9177 10.8893 -2.8445 0.9534
1.9254 11.4148 -2.8454 0.9534
0.9020 11.5426 -2.8458 0.9534
-1.1592 11.5232 -2.8467 0.9534
-4.1643 10.8123 -2.8480 0.9534
-5.1108 10.4002 -2.8484 0.9534
-6.8756 9.3317 -2.8491 0.9534
-6.4637 7.3086 -2.3982 0.9606
-8.4232 7.9666 -2.8498 0.9534
-9.0997 7.1860 -2.8500 0.9534
-9.7041 6.3481 -2.8503 0.9534
-10.2314 5.4596 -2.8505 0.9534
-11.9177 2.7002 -3.0036 0.9509
-12.1111 1.6288 -3.0037 0.9509
-12.2081 0.5444 -3.0037 0.9509
-12.2081 -0.5444 -3.0037 0.9509
-12.1111 -1.6288 -3.0037 0.9509
-11.9177 -2.7002 -3.0036 0.9509
-10.2236 -6.6879 -3.0029 0.9509
-5.3844 -10.9569 -3.0008 0.9510
-4.3872 -11.3911 -3.0004 0.9510
-2.2973 -11.9849 -2.9995 0.9510
-1.2213 -12.1400 -2.9991 0.9510
-0.1359 -12.1987 -2.9986 0.9510
0.9502 -12.1605 -2.9981 0.9510
2.0285 -12.0258 -2.9977 0.9510
3.0903 -11.7958 -2.9972 0.9510
5.1313 -11.0578 -2.9964 0.9510
7.0088 -9.9701 -2.9956 0.9510
7.8674 -9.3056 -2.9952 0.9510
8.6634 -8.5674 -2.9949 0.9511
9.3907 -7.7616 -2.9946 0.9511
10.0433 -6.8943 -2.9943 0.9511
10.6162 -5.9726 -2.9941 0.9511
11.1049 -5.0036 -2.9939 0.9511
11.8150 -2.9551 -2.9936 0.9511
12.0307 -1.8917 -2.9935 0.9511
12.1512 -0.8134 -2.9934 0.9511
12.1753 0.2713 -2.9934 0.9511
10.3189 5.2144 -2.8418 0.9535
9.8146 6.1126 -2.8420 0.9535
9.2324 6.9625 -2.8423 0.9535
6.2249 9.7511 -2.8436 0.9535
4.3985 10.7032 -2.8443 0.9535
3.4289 11.0538 -2.8447 0.9534
0.3869 11.5722 -2.8460 0.9534
-2.6854 11.2684 -2.8473 0.9534
-5.5694 10.1629 -2.8486 0.9534
-8.7701 7.5838 -2.8499 0.9534
-9.9776 5.9097 -2.8504 0.9534
-12.0264 2.1666 -3.0037 0.9509
-12.1717 1.0877 -3.0037 0.9509
-11.3981 -0.0000 -3.0034 0.9539
-10.9924 -3.0111 -3.0032 0.9539
-10.6803 -3.9774 -3.0031 0.9540
-9.8047 -5.8073 -3.0027 0.9540
-9.2482 -6.6564 -3.0025 0.9540
-7.9199 -8.1891 -3.0019 0.9540
-6.3411 -9.4615 -3.0012 0.9540
-5.4731 -9.9871 -3.0009 0.9540
-4.5619 -10.4333 -3.0005 0.9540
-3.6147 -10.7965 -3.0001 0.9540
-1.6427 -11.2632 -2.9992 0.9540
2.3900 -11.1220 -2.9975 0.9540
3.3699 -10.8636 -2.9971 0.9540
6.1179 -9.5836 -2.9960 0.9541
7.7185 -8.3452 -2.9953 0.9541
8.4298 -7.6243 -2.9950 0.9541
9.6464 -6.0078 -2.9945 0.9541
10.1421 -5.1250 -2.9943 0.9541
10.8890 -3.2453 -2.9940 0.9541
11.2239 1.7649 -2.9938 0.9541
10.7339 3.7272 -2.9940 0.9541
6.9665 8.2401 -2.8432 0.9563
6.2062 8.8284 -2.8436 0.9563
5.3964 9.3469 -2.8439 0.9563
3.6546 10.1582 -2.8447 0.9563
2.7364 10.4446 -2.8450 0.9563
1.7961 10.6482 -2.8454 0.9563
0.8414 10.7673 -2.8458 0.9563
-1.0814 10.7490 -2.8467 0.9563
-2.9709 10.3899 -2.8475 0.9563
-3.8844 10.0856 -2.8478 0.9563
-5.6125 9.2394 -2.8486 0.9563
-6.4133 8.7042 -2.8489 0.9563
-6.4421 7.2842 -2.5623 0.9606
-7.8567 7.4308 -2.8495 0.9563
-11.2962 1.5192 -3.0034 0.9539
-11.1159 -2.5186 -3.0033 0.9539
-7.5469 -8.5334 -3.0017 0.9540
-5.9129 -9.7340 -3.0011 0.9540
-5.0225 -10.2204 -3.0007 0.9540
-4.0923 -10.6254 -3.0003 0.9540
-2.1430 -11.1796 -2.9995 0.9540
0.8864 -11.3437 -2.9982 0.9540
2.8828 -11.0037 -2.9973 0.9540
3.8503 -10.7020 -2.9969 0.9540
4.7869 -10.3154 -2.9965 0.9540
7.3395 -8.6812 -2.9955 0.9541
8.0822 -7.9926 -2.9951 0.9541
8.7606 -7.2409 -2.9949 0.9541
9.3695 -6.4319 -2.9946 0.9541
9.9041 -5.5719 -2.9944 0.9541
10.3600 -4.6680 -2.9942 0.9541
11.0225 -2.7569 -2.9939 0.9541
11.2239 -1.7649 -2.9938 0.9541
11.3362 -0.7589 -2.9938 0.9541
11.1343 2.2631 -2.9939 0.9541
8.6130 6.4954 -2.8425 0.9564
8.0014 7.2369 -2.8428 0.9564
4.1032 9.9846 -2.8445 0.9563
-2.5049 10.5112 -2.8473 0.9563
-3.4310 10.2479 -2.8476 0.9563
-4.3301 9.9031 -2.8480 0.9563
-6.0189 8.9808 -2.8487 0.9563
-6.7479 6.9773 -2.5577 0.9606
-8.1803 7.0738 -2.8497 0.9563
-10.0289 4.7904 -2.9286 0.9551
-10.6804 3.9774 -3.0031 0.9540
-10.6736 0.0000 -3.0031 0.9566
-10.5042 -1.8924 -3.0030 0.9566
-10.2938 -2.8198 -3.0029 0.9566
-8.0707 -6.9789 -3.0020 0.9566
-6.7041 -8.2978 -3.0014 0.9566
-5.9383 -8.8605 -3.0011 0.9566
-5.1255 -9.3529 -3.0007 0.9567
-3.3852 -10.1109 -3.0000 0.9567
-2.4715 -10.3708 -2.9996 0.9567
-1.5384 -10.5482 -2.9992 0.9567
1.3025 -10.5756 -2.9980 0.9567
2.2383 -10.4164 -2.9976 0.9567
3.1562 -10.1745 -2.9972 0.9567
4.9089 -9.4514 -2.9965 0.9567
6.5054 -8.4293 -2.9958 0.9567
7.2291 -7.8160 -2.9955 0.9567
9.4993 -4.8002 -2.9945 0.9567
10.1989 -3.0396 -2.9943 0.9567
10.4286 -2.1197 -2.9942 0.9567
10.3241 2.5822 -2.9942 0.9567
8.8050 4.9536 -2.8425 0.9589
8.3297 5.7180 -2.8427 0.9589
7.7883 6.4372 -2.8429 0.9589
6.5248 7.7176 -2.8434 0.9589
5.8126 8.2686 -2.8437 0.9589
5.0542 8.7541 -2.8441 0.9589
3.4228 9.5138 -2.8447 0.9589
2.5628 9.7820 -2.8451 0.9589
1.6822 9.9726 -2.8455 0.9588
-0.1127 10.1155 -2.8462 0.9588
-1.0127 10.0667 -2.8466 0.9588
-1.9049 9.9379 -2.8470 0.9588
-4.4645 9.0850 -2.8481 0.9588
-6.4205 7.2598 -2.7268 0.9605
-10.1578 3.2755 -3.0029 0.9566
-10.4094 2.3585 -3.0030 0.9566
-10.5783 1.4226 -3.0031 0.9566
-10.6630 0.4755 -3.0031 0.9566
-10.6630 -0.4754 -3.0031 0.9566
-10.5782 -1.4227 -3.0030 0.9566
-10.4094 -2.3585 -3.0030 0.9566
-10.1578 -3.2754 -3.0029 0.9566
-9.8255 -4.1663 -3.0027 0.9566
-9.4151 -5.0240 -3.0025 0.9566
-8.9299 -5.8417 -3.0023 0.9566
-7.0674 -7.9913 -3.0015 0.9566
-6.3275 -8.5877 -3.0012 0.9566
-5.5374 -9.1157 -3.0009 0.9566
-2.0069 -10.4699 -2.9994 0.9567
-1.0669 -10.6056 -2.9990 0.9567
0.8302 -10.6239 -2.9982 0.9567
1.7722 -10.5064 -2.9978 0.9567
2.7000 -10.3056 -2.9974 0.9567
4.4833 -9.6612 -2.9967 0.9567
6.1238 -8.7112 -2.9960 0.9567
7.5698 -7.4859 -2.9954 0.9567
8.2053 -6.7819 -2.9951 0.9567
8.7756 -6.0241 -2.9949 0.9567
9.2763 -5.2188 -2.9946 0.9567
9.7034 -4.3722 -2.9945 0.9567
10.3240 -2.5822 -2.9942 0.9567
10.5126 -1.6530 -2.9941 0.9567
10.4287 2.1197 -2.9942 0.9567
9.8884 3.9355 -2.9944 0.9567
7.4942 6.7781 -2.8430 0.9589
5.4388 8.5198 -2.8439 0.9589
3.8430 9.3513 -2.8446 0.9589
2.9958 9.6575 -2.8449 0.9589
1.2363 10.0383 -2.8457 0.9588
0.3380 10.1098 -2.8461 0.9588
-2.3459 9.8438 -2.8472 0.9588
-4.8651 8.8776 -2.8483 0.9588
-5.6366 8.4103 -2.8486 0.9588
-6.3634 7.8761 -2.8489 0.9588
-6.7269 6.9556 -2.7225 0.9606
-7.6605 6.6243 -2.8494 0.9588
-8.2204 5.9167 -2.8497 0.9588
-9.6299 4.5998 -3.0027 0.9566
-10.0016 3.7246 -3.0028 0.9566
-10.5043 1.8924 -3.0030 0.9566
-9.9902 -0.8927 -3.0028 0.9590
-9.6732 -2.6498 -3.0027 0.9590
-9.0493 -4.3225 -3.0024 0.9590
-8.1385 -5.8578 -3.0020 0.9590
-5.5805 -8.3267 -3.0009 0.9590
-4.8167 -8.7894 -3.0006 0.9590
-4.0148 -9.1822 -3.0003 0.9590
-2.3226 -9.7462 -2.9995 0.9590
-0.5577 -10.0011 -2.9988 0.9590
0.3347 -10.0098 -2.9984 0.9590
1.2241 -9.9390 -2.9980 0.9590
2.1036 -9.7895 -2.9977 0.9591
4.6136 -8.8827 -2.9966 0.9591
6.1141 -7.9223 -2.9960 0.9591
8.4917 -5.2887 -2.9950 0.9591
8.9281 -4.5116 -2.9948 0.9591
9.8017 -1.9923 -2.9944 0.9591
9.9399 -1.1120 -2.9944 0.9591
9.9993 -0.2228 -2.9943 0.9591
9.9795 0.6680 -2.9944 0.9591
9.7033 2.4270 -2.9945 0.9591
9.4492 3.2811 -2.9946 0.9591
6.1324 7.2534 -2.8436 0.9611
5.4630 7.7712 -2.8439 0.9611
3.2168 8.9414 -2.8448 0.9611
2.4085 9.1933 -2.8452 0.9611
1.5809 9.3723 -2.8455 0.9611
-0.1059 9.5065 -2.8462 0.9611
-0.9517 9.4606 -2.8466 0.9611
-1.7902 9.3395 -2.8470 0.9611
-2.6147 9.1442 -2.8473 0.9611
-6.3041 7.1281 -2.8489 0.9610
-9.5455 3.0780 -3.0026 0.9590
-10.0201 0.4468 -3.0028 0.9590
-10.0201 -0.4468 -3.0028 0.9590
-9.5454 -3.0780 -3.0026 0.9590
-9.2332 -3.9152 -3.0025 0.9590
-8.8476 -4.7212 -3.0023 0.9590
-8.3917 -5.4896 -3.0021 0.9590
-7.8692 -6.2143 -3.0019 0.9590
-6.6416 -7.5097 -3.0014 0.9590
-5.9462 -8.0702 -3.0011 0.9590
-3.6016 -9.3513 -3.0001 0.9590
-2.7547 -9.6337 -2.9997 0.9590
-1.8861 -9.8394 -2.9994 0.9590
-1.0027 -9.9670 -2.9990 0.9590
-0.1116 -10.0154 -2.9986 0.9590
0.7802 -9.9843 -2.9982 0.9590
2.5375 -9.6854 -2.9975 0.9591
3.3890 -9.4200 -2.9971 0.9591
6.4606 -7.6417 -2.9958 0.9591
7.7118 -6.3740 -2.9953 0.9591
8.7185 -4.9050 -2.9949 0.9591
9.4491 -3.2811 -2.9946 0.9591
9.8017 1.9923 -2.9944 0.9591
9.5858 2.8569 -2.9945 0.9591
9.2938 3.6988 -2.9947 0.9591
7.5819 5.7178 -2.8430 0.9611
7.0435 6.3704 -2.8432 0.9611
6.4491 6.9727 -2.8435 0.9611
5.8034 7.5197 -2.8437 0.9611
5.1116 8.0072 -2.8440 0.9611
2.8155 9.0763 -2.8450 0.9611
1.9967 9.2920 -2.8454 0.9611
0.3177 9.5012 -2.8461 0.9611
-2.2046 9.2510 -2.8471 0.9611
-3.8108 8.7156 -2.8478 0.9611
-4.5720 8.3428 -2.8481 0.9611
-6.6156 6.8405 -2.8490 0.9610
-7.1989 6.2251 -2.8492 0.9610
-7.7249 5.5601 -2.8495 0.9610
-8.1897 4.8508 -2.8497 0.9610
-9.3987 3.5001 -3.0026 0.9590
-9.6733 2.6498 -3.0027 0.9590
-9.8710 1.7784 -3.0028 0.9590
-9.9903 0.8928 -3.0028 0.9590
-9.4544 0.0000 -3.0026 0.9611
-9.3044 -1.6762 -3.0025 0.9611
-9.1180 -2.4977 -3.0024 0.9611
-8.8592 -3.2992 -3.0023 0.9611
-8.5300 -4.0744 -3.0022 0.9611
-7.6715 -5.5216 -3.0018 0.9611
-5.9387 -7.3504 -3.0011 0.9611
-5.2604 -7.8490 -3.0008 0.9611
-3.7846 -8.6555 -3.0002 0.9611
-2.1895 -9.1874 -2.9995 0.9611
0.3155 -9.4361 -2.9984 0.9612
2.7963 -9.0143 -2.9974 0.9612
3.5871 -8.7287 -2.9970 0.9612
5.7639 -7.4685 -2.9961 0.9612
6.4052 -6.9253 -2.9959 0.9612
6.9956 -6.3272 -2.9956 0.9612
8.0055 -4.9859 -2.9952 0.9612
8.4170 -4.2533 -2.9950 0.9612
9.0370 -2.6933 -2.9947 0.9612
9.2406 -1.8782 -2.9947 0.9612
9.4082 0.6298 -2.9946 0.9612
8.5979 3.8740 -2.9949 0.9612
8.2193 4.6242 -2.9951 0.9612
7.3805 5.0665 -2.8431 0.9631
6.9008 5.7036 -2.8433 0.9631
5.7811 6.8380 -2.8437 0.9631
5.1501 7.3261 -2.8440 0.9631
3.7703 8.1248 -2.8446 0.9631
3.0325 8.4291 -2.8449 0.9631
2.2705 8.6665 -2.8452 0.9631
1.4903 8.8352 -2.8456 0.9631
-1.6876 8.8040 -2.8469 0.9631
-2.4648 8.6198 -2.8472 0.9631
-3.2225 8.3671 -2.8476 0.9631
-3.9549 8.0480 -2.8479 0.9631
-4.6560 7.6649 -2.8482 0.9631
-5.3203 7.2207 -2.8484 0.9631
-5.9424 6.7192 -2.8487 0.9631
-6.5174 6.1641 -2.8489 0.9631
-7.0407 5.5600 -2.8492 0.9630
-8.9976 2.9014 -3.0024 0.9611
-9.2204 2.0891 -3.0025 0.9611
-9.3699 1.2602 -3.0025 0.9611
-9.2204 -2.0891 -3.0025 0.9611
-8.7033 -3.6905 -3.0022 0.9611
-8.3398 -4.4503 -3.0021 0.9611
-7.9101 -5.1746 -3.0019 0.9611
-6.2605 -7.0789 -3.0012 0.9611
-4.9053 -8.0752 -3.0006 0.9611
-3.3951 -8.8151 -3.0000 0.9611
-1.7779 -9.2752 -2.9993 0.9611
1.5701 -9.3081 -2.9979 0.9612
2.3921 -9.1304 -2.9975 0.9612
5.4258 -7.7183 -2.9963 0.9612
6.0906 -7.2040 -2.9960 0.9612
7.7757 -5.3377 -2.9953 0.9612
8.9082 -3.0932 -2.9948 0.9612
9.1478 -2.2880 -2.9947 0.9612
9.4082 -0.6298 -2.9946 0.9612
9.4269 0.2101 -2.9946 0.9612
9.3709 1.0483 -2.9946 0.9612
9.2406 1.8782 -2.9947 0.9612
7.6010 4.7339 -2.8438 0.9631
7.1477 5.3904 -2.8432 0.9631
6.0797 6.5734 -2.8436 0.9631
5.4710 7.0891 -2.8439 0.9631
4.8188 7.5486 -2.8442 0.9631
0.2995 8.9566 -2.8461 0.9631
-0.4990 8.9488 -2.8464 0.9631
-1.2936 8.8699 -2.8467 0.9631
-2.0782 8.7206 -2.8471 0.9631
-2.8465 8.5020 -2.8474 0.9631
-3.5923 8.2158 -2.8477 0.9631
-4.3097 7.8643 -2.8480 0.9631
-4.9931 7.4502 -2.8483 0.9631
-6.7858 5.8679 -2.8491 0.9630
-8.0577 4.7726 -2.9742 0.9615
-8.5301 4.0745 -3.0022 0.9611
-9.1181 2.4977 -3.0024 0.9611
-9.4168 0.8415 -3.0026 0.9611
-8.9361 0.0000 -3.0024 0.9630
-8.9005 -0.7953 -3.0023 0.9630
-8.6181 -2.3607 -3.0022 0.9630
-8.0624 -3.8511 -3.0020 0.9630
-7.6872 -4.5531 -3.0018 0.9630
-7.2510 -5.2190 -3.0016 0.9630
-5.6132 -6.9476 -3.0009 0.9630
-4.9721 -7.4189 -3.0007 0.9630
-2.8346 -8.4664 -2.9998 0.9630
-2.0695 -8.6841 -2.9994 0.9630
-1.2883 -8.8329 -2.9991 0.9630
1.8745 -8.7233 -2.9978 0.9630
3.3908 -8.2509 -2.9971 0.9631
4.1113 -7.9156 -2.9968 0.9631
4.7990 -7.5175 -2.9965 0.9631
6.6129 -5.9810 -2.9958 0.9631
7.1185 -5.3683 -2.9956 0.9631
8.5427 -2.5460 -2.9950 0.9631
8.8584 -0.9910 -2.9948 0.9631
8.9114 -0.1986 -2.9948 0.9631
8.6476 2.1629 -2.9949 0.9631
8.4210 2.9241 -2.9950 0.9631
8.1277 3.6622 -2.9951 0.9631
6.9768 4.7893 -2.8432 0.9649
6.5233 5.3917 -2.8434 0.9649
5.4648 6.4638 -2.8439 0.9649
0.6599 8.4447 -2.8459 0.9649
-0.0944 8.4709 -2.8462 0.9649
-3.0460 7.9088 -2.8475 0.9649
-3.7382 7.6071 -2.8478 0.9649
-5.0287 6.8251 -2.8483 0.9649
-5.6167 6.3509 -2.8486 0.9649
-6.1602 5.8263 -2.8488 0.9649
-7.3022 4.7769 -2.9317 0.9638
-7.8827 4.2063 -3.0019 0.9630
-8.2262 3.4882 -3.0021 0.9630
-8.5043 2.7423 -3.0022 0.9630
-8.9272 -0.3980 -3.0024 0.9630
-8.5043 -2.7423 -3.0022 0.9630
-8.2261 -3.4882 -3.0020 0.9630
-7.4765 -4.8909 -3.0017 0.9630
-7.0111 -5.5366 -3.0015 0.9630
-5.9174 -6.6909 -3.0011 0.9630
-3.2091 -8.3321 -2.9999 0.9630
-1.6805 -8.7673 -2.9993 0.9630
-0.8934 -8.8811 -2.9989 0.9630
-0.0994 -8.9243 -2.9986 0.9630
0.6952 -8.8967 -2.9983 0.9630
3.0200 -8.3942 -2.9973 0.9631
4.4596 -7.7242 -2.9967 0.9631
6.8725 -5.6803 -2.9957 0.9631
7.3503 -5.0457 -2.9955 0.9631
8.1276 -3.6621 -2.9951 0.9631
8.6475 -2.1629 -2.9949 0.9631
8.8937 -0.5954 -2.9948 0.9631
8.7352 1.7755 -2.9949 0.9631
8.5428 2.5460 -2.9950 0.9631
8.2825 3.2964 -2.9951 0.9631
7.5407 4.6964 -2.9847 0.9632
6.7568 5.0955 -2.8433 0.9649
6.2769 5.6771 -2.8435 0.9649
5.1717 6.7012 -2.8440 0.9649
4.5552 7.1356 -2.8443 0.9649
3.9024 7.5134 -2.8445 0.9649
3.2185 7.8317 -2.8448 0.9649
0.2831 8.4662 -2.8461 0.9649
-0.4717 8.4587 -2.8464 0.9649
-1.2228 8.3841 -2.8467 0.9649
-2.6905 8.0362 -2.8473 0.9649
-4.7195 7.0420 -2.8482 0.9649
-5.3280 6.5946 -2.8484 0.9649
-5.8943 6.0946 -2.8487 0.9649
-8.0624 3.8511 -3.0020 0.9630
-8.3736 3.1184 -3.0021 0.9630
-8.6182 2.3607 -3.0022 0.9630
-8.7943 1.5844 -3.0023 0.9630
-8.9006 0.7954 -3.0023 0.9630
-8.4667 -0.0000 -3.0022 0.9647
-8.3323 -1.5012 -3.0021 0.9647
-8.1655 -2.2368 -3.0020 0.9647
-6.4024 -5.5364 -3.0013 0.9647
-5.8838 -6.0838 -3.0011 0.9647
-4.7111 -7.0294 -3.0006 0.9647
-4.0664 -7.4202 -3.0003 0.9647
-3.3895 -7.7519 -3.0000 0.9647
-1.9609 -8.2284 -2.9994 0.9647
-1.2206 -8.3694 -2.9991 0.9647
-0.4708 -8.4439 -2.9988 0.9647
0.2826 -8.4514 -2.9984 0.9647
1.0336 -8.3919 -2.9981 0.9648
5.1629 -6.6898 -2.9964 0.9648
6.7454 -5.0869 -2.9957 0.9648
7.1709 -4.4661 -2.9955 0.9648
7.8484 -3.1236 -2.9953 0.9648
8.3942 -0.9390 -2.9950 0.9648
8.4444 -0.1882 -2.9950 0.9648
8.4276 0.5641 -2.9950 0.9648
7.9797 2.7708 -2.9952 0.9648
5.1783 6.1250 -2.8440 0.9665
4.6130 6.5621 -2.8442 0.9665
4.0110 6.9473 -2.8445 0.9665
2.7162 7.5498 -2.8450 0.9665
2.0337 7.7624 -2.8453 0.9665
1.3348 7.9134 -2.8456 0.9665
0.6253 8.0017 -2.8459 0.9665
-0.0894 8.0264 -2.8462 0.9665
-0.8035 7.9874 -2.8465 0.9665
-1.5114 7.8851 -2.8468 0.9665
-2.2075 7.7200 -2.8471 0.9665
-2.8861 7.4937 -2.8474 0.9665
-3.5420 7.2078 -2.8477 0.9665
-4.1699 6.8645 -2.8480 0.9665
-4.7647 6.4667 -2.8482 0.9665
-6.3053 4.9793 -2.8489 0.9665
-7.0839 4.6341 -3.0016 0.9647
-7.4687 3.9854 -3.0017 0.9647
-7.7941 3.3050 -3.0019 0.9647
-8.2571 1.8708 -3.0021 0.9647
-8.4582 -0.3772 -3.0022 0.9647
-8.0576 -2.5982 -3.0020 0.9647
-7.4686 -3.9854 -3.0017 0.9647
-6.6429 -5.2458 -3.0014 0.9647
-4.3931 -7.2320 -3.0004 0.9647
-3.7316 -7.5936 -3.0001 0.9647
-3.0406 -7.8948 -2.9998 0.9647
-2.3257 -8.1333 -2.9995 0.9647
2.1425 -8.1779 -2.9977 0.9648
2.8616 -7.9540 -2.9973 0.9648
4.2257 -7.3192 -2.9968 0.9648
4.8600 -6.9134 -2.9965 0.9648
5.4556 -6.4529 -2.9963 0.9648
6.0078 -5.9412 -2.9960 0.9648
7.7016 -3.4702 -2.9953 0.9648
8.1943 -2.0495 -2.9951 0.9648
8.4276 -0.5642 -2.9950 0.9648
8.2774 1.6824 -2.9951 0.9648
8.0950 2.4126 -2.9952 0.9648
5.9478 5.3795 -2.8437 0.9665
4.9006 6.3498 -2.8441 0.9665
3.0497 7.4210 -2.8449 0.9665
1.6859 7.8457 -2.8455 0.9665
0.9810 7.9655 -2.8458 0.9665
-0.4469 8.0149 -2.8464 0.9665
-1.1586 7.9441 -2.8467 0.9665
-3.2172 7.3580 -2.8476 0.9665
-3.8597 7.0432 -2.8478 0.9665
-4.4717 6.6722 -2.8481 0.9665
-5.5848 5.7746 -2.8486 0.9665
-6.0770 5.2550 -2.8488 0.9665
-6.6403 4.7794 -2.9010 0.9659
-7.2835 4.3140 -3.0017 0.9647
-8.1655 2.2368 -3.0020 0.9647
-8.3324 1.5011 -3.0021 0.9647
-8.0074 -0.7155 -3.0020 0.9663
-7.7534 -2.1239 -3.0019 0.9663
-6.5235 -4.6954 -3.0013 0.9663
-5.5869 -5.7769 -3.0009 0.9663
-4.4734 -6.6749 -3.0005 0.9663
-3.8613 -7.0459 -3.0002 0.9663
-3.2185 -7.3609 -2.9999 0.9663
-1.8620 -7.8135 -2.9993 0.9663
-1.1591 -7.9474 -2.9990 0.9663
-0.4471 -8.0182 -2.9987 0.9663
0.9815 -7.9688 -2.9981 0.9663
3.0510 -7.4242 -2.9973 0.9663
4.3183 -6.7645 -2.9967 0.9663
4.9028 -6.3527 -2.9965 0.9663
5.4484 -5.8907 -2.9963 0.9663
5.9506 -5.3820 -2.9960 0.9663
6.8098 -4.2412 -2.9957 0.9663
7.1599 -3.6180 -2.9955 0.9663
7.4532 -2.9663 -2.9954 0.9663
7.6874 -2.2911 -2.9953 0.9663
7.8606 -1.5978 -2.9952 0.9663
8.0192 -0.1787 -2.9952 0.9663
7.7817 1.9463 -2.9953 0.9663
7.5778 2.6313 -2.9954 0.9663
5.8700 4.8517 -2.8437 0.9680
5.4152 5.3553 -2.8439 0.9680
4.9175 5.8164 -2.8441 0.9680
3.2069 6.9107 -2.8448 0.9680
1.9312 7.3712 -2.8454 0.9680
0.5937 7.5983 -2.8459 0.9680
-1.4352 7.4874 -2.8468 0.9680
-2.0962 7.3307 -2.8471 0.9680
-3.3633 6.8442 -2.8476 0.9680
-3.9595 6.5183 -2.8479 0.9680
-5.5422 5.2418 -2.8485 0.9680
-6.0536 4.7804 -2.8803 0.9676
-6.7265 4.4003 -3.0014 0.9663
-7.6510 2.4671 -3.0018 0.9663
-7.9675 1.0715 -3.0019 0.9663
-8.0313 0.3581 -3.0020 0.9663
-8.0313 -0.3581 -3.0020 0.9663
-7.4007 -3.1382 -3.0017 0.9663
-4.1715 -6.8672 -3.0003 0.9663
-3.5434 -7.2106 -3.0001 0.9663
-2.8873 -7.4966 -2.9998 0.9663
-2.2084 -7.7231 -2.9995 0.9663
-1.5121 -7.8883 -2.9992 0.9663
-0.0895 -8.0298 -2.9986 0.9663
3.3786 -7.2806 -2.9971 0.9663
4.6151 -6.5651 -2.9966 0.9663
5.1807 -6.1278 -2.9964 0.9663
6.6143 -4.5404 -2.9958 0.9663
6.9918 -3.9335 -2.9956 0.9663
7.7817 -1.9463 -2.9953 0.9663
8.0192 0.1787 -2.9952 0.9663
7.9715 0.8918 -2.9952 0.9663
7.8606 1.5977 -2.9953 0.9663
7.6874 2.2911 -2.9953 0.9663
7.4532 2.9663 -2.9954 0.9663
7.1599 3.6181 -2.9956 0.9663
6.2508 4.7139 -2.9234 0.9671
4.0988 6.4207 -2.8445 0.9680
2.8960 7.0470 -2.8450 0.9680
0.9316 7.5639 -2.8458 0.9680
0.2547 7.6176 -2.8461 0.9680
-0.4244 7.6108 -2.8464 0.9680
-2.4208 7.2304 -2.8472 0.9680
-4.7936 5.9331 -2.8482 0.9680
-5.3030 5.4833 -2.8484 0.9680
-5.7704 4.9898 -2.8486 0.9680
-6.5236 4.6954 -3.0013 0.9663
-6.9160 4.0963 -3.0015 0.9663
-7.2535 3.4647 -3.0017 0.9663
-7.5334 2.8055 -3.0018 0.9663
-7.7534 2.1239 -3.0019 0.9663
-7.9118 1.4254 -3.0019 0.9663
-7.1671 -2.6690 -3.0016 0.9677
-6.5798 -3.8972 -3.0014 0.9677
-6.2064 -4.4671 -3.0012 0.9677
-5.3154 -5.4961 -3.0008 0.9677
-4.8048 -5.9470 -3.0006 0.9677
-3.0622 -7.0033 -2.9999 0.9677
-2.4265 -7.2474 -2.9996 0.9677
-1.7716 -7.4339 -2.9993 0.9677
-1.1028 -7.5614 -2.9990 0.9677
-0.4254 -7.6288 -2.9987 0.9677
0.2553 -7.6357 -2.9985 0.9677
0.9338 -7.5819 -2.9982 0.9677
1.6048 -7.4680 -2.9979 0.9677
3.5198 -6.7769 -2.9971 0.9677
4.1087 -6.4362 -2.9968 0.9677
4.6649 -6.0444 -2.9966 0.9677
5.1840 -5.6048 -2.9964 0.9677
6.8125 -3.4425 -2.9957 0.9677
7.3144 -2.1799 -2.9955 0.9677
7.5848 -0.8485 -2.9954 0.9677
7.6150 0.5098 -2.9954 0.9677
7.2102 2.5037 -2.9955 0.9677
6.2934 4.3201 -2.9959 0.9677
5.7100 4.7195 -2.9074 0.9687
5.1525 5.0954 -2.8440 0.9693
3.6240 6.2770 -2.8447 0.9693
-0.0808 7.2516 -2.8462 0.9693
-1.9943 6.9746 -2.8470 0.9693
-2.6074 6.7700 -2.8473 0.9693
-3.1999 6.5117 -2.8475 0.9693
-4.3045 5.8421 -2.8480 0.9693
-4.8077 5.4362 -2.8482 0.9693
-6.3995 4.1863 -3.0013 0.9677
-6.7470 3.6003 -3.0014 0.9677
-7.0410 2.9856 -3.0016 0.9677
-7.5802 -1.0195 -3.0018 0.9677
-6.0011 -4.7390 -3.0011 0.9677
-5.0651 -5.7272 -3.0007 0.9677
-4.5349 -6.1549 -3.0005 0.9677
-3.9688 -6.5335 -3.0002 0.9677
-3.3712 -6.8603 -3.0000 0.9677
-2.1011 -7.3479 -2.9994 0.9677
-0.7648 -7.6027 -2.9989 0.9677
1.9358 -7.3887 -2.9977 0.9677
2.5855 -7.1864 -2.9975 0.9677
3.2146 -6.9272 -2.9972 0.9677
5.4283 -5.3682 -2.9963 0.9677
5.8842 -4.8634 -2.9961 0.9677
6.2933 -4.3201 -2.9959 0.9677
6.6525 -3.7426 -2.9958 0.9677
7.2102 -2.5036 -2.9955 0.9677
7.6301 0.1700 -2.9953 0.9677
7.5848 0.8485 -2.9954 0.9677
7.3144 2.1799 -2.9955 0.9677
7.0916 2.8224 -2.9956 0.9677
6.8125 3.4425 -2.9957 0.9677
6.0948 4.5963 -2.9960 0.9677
4.9205 5.3200 -2.8441 0.9693
4.4278 5.7373 -2.8443 0.9693
3.3410 6.4325 -2.8448 0.9693
1.5232 7.0885 -2.8455 0.9693
0.8864 7.1967 -2.8458 0.9693
0.2423 7.2477 -2.8461 0.9693
-1.0468 7.1772 -2.8466 0.9693
-2.3032 6.8792 -2.8472 0.9693
-3.4870 6.3629 -2.8477 0.9693
-5.5279 4.7802 -2.8682 0.9691
-6.9009 3.2963 -3.0015 0.9677
-7.5272 1.3561 -3.0018 0.9677
-7.2605 -0.6488 -3.0016 0.9690
-7.0302 -1.9258 -3.0015 0.9690
-6.8307 -2.5438 -3.0015 0.9690
-6.2709 -3.7143 -3.0012 0.9690
-5.5124 -4.7668 -3.0009 0.9690
-5.0660 -5.2382 -3.0007 0.9690
-4.0564 -6.0525 -3.0003 0.9690
-3.5013 -6.3890 -3.0000 0.9690
-2.9185 -6.6748 -2.9998 0.9690
-2.3126 -6.9074 -2.9995 0.9690
-1.6885 -7.0853 -2.9993 0.9690
0.2433 -7.2776 -2.9985 0.9690
1.5295 -7.1179 -2.9979 0.9690
2.1568 -6.9529 -2.9976 0.9690
2.7668 -6.7327 -2.9974 0.9690
3.3548 -6.4592 -2.9971 0.9690
3.9161 -6.1345 -2.9969 0.9690
4.4462 -5.7612 -2.9967 0.9690
4.9410 -5.3422 -2.9965 0.9690
5.3966 -4.8809 -2.9963 0.9690
6.1758 -3.8463 -2.9960 0.9690
6.4933 -3.2812 -2.9958 0.9690
6.9718 -2.0778 -2.9956 0.9690
7.2727 -0.1621 -2.9955 0.9690
7.2583 0.4859 -2.9955 0.9690
7.0573 1.7651 -2.9956 0.9690
6.8724 2.3863 -2.9957 0.9690
6.6329 2.9887 -2.9958 0.9690
6.3409 3.5673 -2.9959 0.9690
4.9110 4.8566 -2.8441 0.9706
4.4595 5.2748 -2.8443 0.9706
3.9727 5.6512 -2.8445 0.9706
2.3391 6.5015 -2.8452 0.9706
0.5384 6.8904 -2.8460 0.9705
-0.0770 6.9116 -2.8462 0.9705
-0.6919 6.8779 -2.8465 0.9705
-1.9008 6.6474 -2.8470 0.9705
-2.4851 6.4524 -2.8472 0.9705
-4.1025 5.5680 -2.8479 0.9705
-4.5821 5.1811 -2.8481 0.9705
-5.0526 4.7787 -2.8637 0.9704
-5.7195 4.5166 -3.0010 0.9690
-6.7105 2.8455 -3.0014 0.9690
-7.1091 1.6107 -3.0016 0.9690
-7.2243 0.9716 -3.0016 0.9690
-7.2822 -0.3247 -3.0017 0.9690
-7.2243 -0.9716 -3.0016 0.9690
-7.1091 -1.6107 -3.0016 0.9690
-6.4303 -3.4313 -3.0013 0.9690
-5.2945 -5.0074 -3.0008 0.9690
-4.8274 -5.4585 -3.0006 0.9690
-4.3221 -5.8660 -3.0004 0.9690
-2.6182 -6.7979 -2.9997 0.9690
-1.3711 -7.1531 -2.9991 0.9690
-0.0811 -7.2815 -2.9986 0.9690
0.5672 -7.2592 -2.9983 0.9690
1.8450 -7.0423 -2.9978 0.9690
3.6391 -6.3031 -2.9970 0.9690
4.1853 -5.9537 -2.9968 0.9690
4.6983 -5.5572 -2.9966 0.9690
5.6085 -4.6355 -2.9962 0.9690
6.3408 -3.5673 -2.9959 0.9690
7.0573 -1.7651 -2.9956 0.9690
7.1863 -1.1300 -2.9955 0.9690
7.2583 -0.4859 -2.9955 0.9690
7.2727 0.1621 -2.9955 0.9690
7.2294 0.8087 -2.9955 0.9690
6.9718 2.0778 -2.9956 0.9690
6.7594 2.6902 -2.9957 0.9690
6.4934 3.2812 -2.9958 0.9690
6.1758 3.8463 -2.9960 0.9690
5.2223 4.7233 -2.8995 0.9700
4.6899 5.0707 -2.8442 0.9706
3.7171 5.8228 -2.8446 0.9706
3.1844 6.1310 -2.8448 0.9706
2.6262 6.3906 -2.8451 0.9706
1.4518 6.7562 -2.8456 0.9705
0.8448 6.8592 -2.8458 0.9705
0.2310 6.9078 -2.8461 0.9705
-0.3848 6.9016 -2.8464 0.9705
-0.9977 6.8406 -2.8466 0.9705
-2.7702 6.3356 -2.8474 0.9705
-3.3234 6.0644 -2.8476 0.9705
-3.8502 5.7450 -2.8478 0.9705
-4.3466 5.3799 -2.8480 0.9705
-4.8085 4.9720 -2.8482 0.9705
-5.5007 4.7567 -2.9945 0.9690
-6.2710 3.7143 -3.0012 0.9690
-6.5770 3.1415 -3.0014 0.9690
-6.8307 2.5438 -3.0015 0.9690
-7.1738 1.2925 -3.0016 0.9690
-7.2605 0.6488 -3.0016 0.9690
-6.9583 0.0000 -3.0015 0.9701
-6.8479 -1.2337 -3.0015 0.9701
-6.5204 -2.4282 -3.0013 0.9701
-5.9861 -3.5456 -3.0011 0.9701
-5.2621 -4.5503 -3.0008 0.9701
-4.3714 -5.4105 -3.0004 0.9702
-3.8722 -5.7777 -3.0002 0.9702
-1.6119 -6.7636 -2.9992 0.9702
-0.3870 -6.9410 -2.9987 0.9702
0.8496 -6.8985 -2.9982 0.9702
1.4601 -6.7949 -2.9979 0.9702
3.2026 -6.1662 -2.9972 0.9702
5.1518 -4.6596 -2.9964 0.9702
5.5458 -4.1823 -2.9962 0.9702
5.8957 -3.6719 -2.9961 0.9702
6.6556 -1.9836 -2.9958 0.9702
6.8056 -1.3833 -2.9957 0.9702
6.9017 -0.7721 -2.9957 0.9702
6.9430 -0.1547 -2.9956 0.9702
6.9292 0.4639 -2.9956 0.9702
6.7373 1.6851 -2.9957 0.9702
5.7265 3.9310 -2.9962 0.9702
3.7925 5.3949 -2.8446 0.9717
3.2975 5.7114 -2.8448 0.9717
2.7763 5.9827 -2.8450 0.9717
-0.0735 6.5979 -2.8462 0.9717
-2.3723 6.1595 -2.8472 0.9717
-3.4273 5.6422 -2.8476 0.9717
-3.9162 5.3151 -2.8478 0.9716
-4.3740 4.9458 -2.8480 0.9716
-5.4597 4.3115 -3.0009 0.9701
-6.4057 2.7162 -3.0013 0.9701
-6.8962 0.9275 -3.0015 0.9701
-6.9514 0.3100 -3.0015 0.9701
-6.9514 -0.3100 -3.0015 0.9701
-6.8962 -0.9274 -3.0015 0.9701
-6.4057 -2.7162 -3.0013 0.9701
-6.1382 -3.2755 -3.0012 0.9701
-5.8221 -3.8086 -3.0010 0.9701
-5.4597 -4.3115 -3.0009 0.9701
-5.0540 -4.7800 -3.0007 0.9702
-4.1259 -5.5996 -3.0003 0.9702
-1.3089 -6.8284 -2.9991 0.9702
-0.6959 -6.9172 -2.9989 0.9702
0.5415 -6.9298 -2.9983 0.9702
1.1560 -6.8535 -2.9981 0.9702
1.7613 -6.7229 -2.9978 0.9702
3.4740 -6.0172 -2.9971 0.9702
4.9393 -4.8846 -2.9965 0.9702
5.3541 -4.4253 -2.9963 0.9702
5.7264 -3.9310 -2.9961 0.9702
6.0533 -3.4055 -2.9960 0.9702
6.5608 -2.2782 -2.9958 0.9702
6.9292 -0.4638 -2.9956 0.9702
6.9430 0.1547 -2.9956 0.9702
6.9017 0.7721 -2.9957 0.9702
6.8057 1.3833 -2.9957 0.9702
5.8958 3.6719 -2.9961 0.9702
5.5458 4.1823 -2.9962 0.9702
5.1519 4.6596 -2.9964 0.9702
4.0289 5.2204 -2.8445 0.9717
3.5485 5.5587 -2.8447 0.9717
3.0399 5.8529 -2.8449 0.9717
1.9543 6.3001 -2.8454 0.9717
1.3859 6.4496 -2.8456 0.9717
0.2205 6.5943 -2.8461 0.9717
-0.3674 6.5883 -2.8463 0.9717
-5.2621 4.5503 -3.0008 0.9701
-5.6465 4.0641 -3.0010 0.9701
-5.9861 3.5456 -3.0011 0.9701
-6.2782 2.9988 -3.0012 0.9701
-6.5204 2.4282 -3.0013 0.9701
-6.7108 1.8383 -3.0014 0.9701
-6.9307 0.6194 -3.0015 0.9701
-6.6518 0.0000 -3.0014 0.9712
-6.4152 -1.7573 -3.0013 0.9712
-5.7224 -3.3894 -3.0010 0.9712
-5.3978 -3.8851 -3.0009 0.9712
-4.6229 -4.7801 -3.0005 0.9712
-4.1789 -5.1722 -3.0003 0.9712
-2.6633 -6.0912 -2.9997 0.9712
-1.5409 -6.4659 -2.9992 0.9713
1.3959 -6.4959 -2.9980 0.9713
2.5251 -6.1445 -2.9975 0.9713
3.0618 -5.8949 -2.9973 0.9713
3.5740 -5.5986 -2.9971 0.9713
4.0579 -5.2579 -2.9968 0.9713
4.9252 -4.4546 -2.9965 0.9713
5.3019 -3.9983 -2.9963 0.9713
5.6365 -3.5104 -2.9962 0.9713
6.1691 -2.4553 -2.9960 0.9713
6.3630 -1.8964 -2.9959 0.9713
6.5982 -0.7381 -2.9958 0.9713
6.4411 1.6110 -2.9959 0.9713
6.2723 2.1780 -2.9959 0.9713
6.0537 2.7277 -2.9960 0.9713
5.7871 3.2558 -2.9961 0.9713
4.7221 4.6698 -2.9966 0.9713
4.0700 4.8141 -2.8445 0.9727
3.6256 5.1576 -2.8447 0.9727
3.1524 5.4602 -2.8449 0.9727
2.6541 5.7195 -2.8451 0.9727
1.0490 6.2190 -2.8457 0.9727
-0.0703 6.3075 -2.8462 0.9727
-1.1877 6.1961 -2.8467 0.9727
-1.7346 6.0663 -2.8469 0.9727
-2.2678 5.8883 -2.8471 0.9727
-2.7831 5.6635 -2.8474 0.9727
-4.8314 4.5695 -3.0006 0.9712
-5.2193 4.1216 -3.0008 0.9712
-5.8679 3.1312 -3.0011 0.9712
-6.6452 0.2963 -3.0014 0.9712
-6.6452 -0.2963 -3.0014 0.9712
-6.5924 -0.8866 -3.0014 0.9712
-6.1235 -2.5966 -3.0012 0.9712
-5.8679 -3.1312 -3.0011 0.9712
-5.5656 -3.6409 -3.0009 0.9712
-5.2192 -4.1216 -3.0008 0.9712
-4.4053 -4.9811 -3.0004 0.9712
-3.9442 -5.3531 -3.0002 0.9712
-3.4518 -5.6825 -3.0000 0.9712
-2.9321 -5.9667 -2.9998 0.9712
-1.8275 -6.3911 -2.9993 0.9713
-1.2513 -6.5279 -2.9991 0.9713
0.5177 -6.6248 -2.9983 0.9713
1.1052 -6.5519 -2.9981 0.9713
2.2490 -6.2511 -2.9976 0.9713
3.8197 -5.4337 -2.9969 0.9713
4.7220 -4.6697 -2.9966 0.9713
5.1186 -4.2307 -2.9964 0.9713
5.7871 -3.2558 -2.9961 0.9713
6.2723 -2.1780 -2.9959 0.9713
6.4411 -1.6110 -2.9958 0.9713
6.6245 -0.4435 -2.9958 0.9713
6.6377 0.1479 -2.9958 0.9713
6.1691 2.4553 -2.9960 0.9713
5.9263 2.9947 -2.9961 0.9713
3.8517 4.9907 -2.8446 0.9727
3.3924 5.3141 -2.8448 0.9727
0.7710 6.2598 -2.8459 0.9727
-0.3512 6.2983 -2.8463 0.9727
-2.0032 5.9833 -2.8470 0.9727
-2.5280 5.7817 -2.8473 0.9727
-3.0328 5.5341 -2.8475 0.9727
-3.5136 5.2426 -2.8477 0.9727
-3.9665 4.9094 -2.8479 0.9727
-5.7224 3.3894 -3.0010 0.9712
-6.2332 2.3212 -3.0012 0.9712
-6.5463 1.1794 -3.0013 0.9712
-6.6253 0.5921 -3.0014 0.9712
-6.3670 0.0000 -3.0013 0.9722
-6.3417 -0.5667 -3.0013 0.9722
-6.2661 -1.1289 -3.0012 0.9722
-6.1406 -1.6821 -3.0012 0.9722
-5.9664 -2.2219 -3.0011 0.9722
-5.4775 -3.2443 -3.0009 0.9722
-4.4251 -4.5755 -3.0004 0.9722
-1.4750 -6.1893 -2.9992 0.9723
-0.9182 -6.2955 -2.9990 0.9723
0.2126 -6.3576 -2.9985 0.9723
0.7775 -6.3129 -2.9982 0.9723
1.3362 -6.2181 -2.9980 0.9723
2.9309 -5.6429 -2.9973 0.9723
4.7147 -4.2642 -2.9966 0.9723
5.0753 -3.8275 -2.9964 0.9723
5.3956 -3.3604 -2.9963 0.9723
5.6730 -2.8667 -2.9962 0.9723
6.0911 -1.8154 -2.9960 0.9723
6.2284 -1.2660 -2.9959 0.9723
6.3163 -0.7066 -2.9959 0.9723
6.3414 0.4245 -2.9959 0.9723
6.2785 0.9872 -2.9959 0.9723
6.1659 1.5422 -2.9960 0.9723
6.0043 2.0849 -2.9960 0.9723
5.5398 3.1167 -2.9962 0.9723
3.9954 4.7258 -2.9171 0.9730
3.4706 4.9371 -2.8447 0.9737
3.0177 5.2267 -2.8449 0.9737
2.5407 5.4750 -2.8451 0.9737
1.5299 5.8396 -2.8455 0.9737
1.0042 5.9530 -2.8458 0.9737
0.4704 6.0193 -2.8460 0.9737
-0.0673 6.0377 -2.8462 0.9737
-1.1369 5.9311 -2.8467 0.9736
-1.6604 5.8068 -2.8469 0.9736
-2.6641 5.4212 -2.8473 0.9736
-3.1362 5.1629 -2.8475 0.9736
-4.6247 4.3740 -3.0005 0.9722
-5.6167 2.9972 -3.0010 0.9722
-5.8614 2.4854 -3.0011 0.9722
-6.0595 1.9539 -3.0011 0.9722
-6.2095 1.4069 -3.0012 0.9722
-6.3102 0.8487 -3.0012 0.9722
-6.3102 -0.8486 -3.0012 0.9722
-6.0595 -1.9539 -3.0011 0.9722
-5.8614 -2.4854 -3.0010 0.9722
-5.6167 -2.9972 -3.0009 0.9722
-4.2167 -4.7679 -3.0003 0.9722
-3.7754 -5.1240 -3.0002 0.9722
-2.2870 -5.9381 -2.9995 0.9723
-1.1978 -6.2486 -2.9991 0.9723
-0.6368 -6.3299 -2.9988 0.9723
1.6118 -6.1522 -2.9979 0.9723
3.1792 -5.5066 -2.9972 0.9723
4.1047 -4.8550 -2.9968 0.9723
4.5202 -4.4702 -2.9967 0.9723
5.2406 -3.5975 -2.9964 0.9723
5.5398 -3.1167 -2.9962 0.9723
6.3414 -0.4245 -2.9959 0.9723
6.3163 0.7066 -2.9959 0.9723
5.9055 2.3503 -2.9961 0.9723
5.6731 2.8667 -2.9962 0.9723
5.3956 3.3604 -2.9963 0.9723
3.6870 4.7774 -2.8446 0.9737
2.7819 5.3562 -2.8450 0.9737
1.7885 5.7654 -2.8454 0.9737
1.2683 5.9021 -2.8457 0.9737
-1.4000 5.8748 -2.8468 0.9736
-1.9175 5.7273 -2.8470 0.9736
-2.9030 5.2973 -2.8474 0.9736
-3.8525 4.7682 -2.8896 0.9733
-4.4251 4.5755 -3.0005 0.9722
-5.4775 3.2444 -3.0009 0.9722
-5.9664 2.2219 -3.0011 0.9722
-6.1406 1.6821 -3.0012 0.9722
-6.0050 -1.0818 -3.0011 0.9732
-5.7178 -2.1293 -3.0010 0.9732
-5.5054 -2.6297 -3.0009 0.9732
-4.9515 -3.5638 -3.0007 0.9732
-4.6144 -3.9903 -3.0005 0.9732
-3.8334 -4.7447 -3.0002 0.9732
-2.9311 -5.3485 -2.9998 0.9732
-1.4136 -5.9315 -2.9992 0.9732
-0.8799 -6.0334 -2.9989 0.9732
-0.3394 -6.0873 -2.9987 0.9732
0.2037 -6.0929 -2.9985 0.9732
0.7451 -6.0501 -2.9982 0.9732
1.2806 -5.9593 -2.9980 0.9732
2.3166 -5.6370 -2.9976 0.9732
3.2789 -5.1363 -2.9972 0.9732
3.7228 -4.8238 -2.9970 0.9732
4.8641 -3.6682 -2.9965 0.9732
5.8377 -1.7398 -2.9961 0.9732
6.0535 -0.6772 -2.9960 0.9732
6.0897 -0.1357 -2.9960 0.9732
6.0776 0.4069 -2.9960 0.9732
5.9094 1.4780 -2.9961 0.9732
5.7545 1.9982 -2.9961 0.9732
5.5540 2.5025 -2.9962 0.9732
4.6960 3.8814 -2.9966 0.9732
4.3322 4.2842 -2.9968 0.9732
3.3364 4.7461 -2.8535 0.9745
2.8921 5.0092 -2.8450 0.9745
0.9624 5.7052 -2.8458 0.9745
0.4508 5.7687 -2.8460 0.9745
-1.5913 5.5650 -2.8469 0.9745
-2.0804 5.4017 -2.8471 0.9745
-3.0056 4.9479 -2.8475 0.9745
-4.0411 4.5694 -3.0003 0.9732
-4.4320 4.1918 -3.0005 0.9732
-5.8070 1.8725 -3.0010 0.9732
-6.0957 -0.2718 -3.0012 0.9732
-6.0472 -0.8132 -3.0011 0.9732
-5.9508 -1.3483 -3.0011 0.9732
-5.8070 -1.8725 -3.0010 0.9732
-5.6172 -2.3819 -3.0009 0.9732
-5.3827 -2.8723 -3.0008 0.9732
-5.1055 -3.3398 -3.0007 0.9732
-4.0411 -4.5694 -3.0003 0.9732
-2.6898 -5.4736 -2.9997 0.9732
-2.1918 -5.6909 -2.9995 0.9732
-0.6103 -6.0664 -2.9988 0.9732
-0.0679 -6.0962 -2.9986 0.9732
1.5447 -5.8961 -2.9979 0.9732
2.0632 -5.7348 -2.9977 0.9732
3.0468 -5.2774 -2.9973 0.9732
3.5043 -4.9850 -2.9971 0.9732
3.9339 -4.6530 -2.9969 0.9732
4.6960 -3.8814 -2.9966 0.9732
5.0226 -3.4479 -2.9964 0.9732
5.9093 -1.4780 -2.9961 0.9732
5.1711 3.2206 -2.9964 0.9732
4.8642 3.6683 -2.9965 0.9732
4.5186 4.0868 -2.9967 0.9732
3.1123 4.8753 -2.8449 0.9745
2.6661 5.1332 -2.8451 0.9745
1.7140 5.5254 -2.8455 0.9745
0.7073 5.7426 -2.8459 0.9745
0.1934 5.7832 -2.8461 0.9745
-0.3222 5.7779 -2.8463 0.9745
-0.8352 5.7268 -2.8465 0.9745
-1.3417 5.6301 -2.8468 0.9745
-2.3190 5.3038 -2.8472 0.9745
-3.2231 4.8092 -2.8475 0.9745
-3.8334 4.7447 -3.0002 0.9732
-4.6145 3.9903 -3.0005 0.9732
-4.9515 3.5639 -3.0007 0.9732
-5.5054 2.6297 -3.0009 0.9732
-5.7178 2.1293 -3.0010 0.9732
-6.0050 1.0819 -3.0011 0.9732
-6.0775 0.5431 -3.0011 0.9732
-5.8538 0.0000 -3.0011 0.9740
-5.8305 -0.5210 -3.0010 0.9740
-5.7609 -1.0379 -3.0010 0.9740
-5.6456 -1.5465 -3.0010 0.9740
-5.4854 -2.0428 -3.0009 0.9740
-5.2817 -2.5228 -3.0008 0.9740
-4.4270 -3.8281 -3.0004 0.9740
-3.6777 -4.5519 -3.0001 0.9740
-2.8120 -5.1312 -2.9998 0.9740
-1.8574 -5.5478 -2.9993 0.9740
-0.8442 -5.7884 -2.9989 0.9740
0.1954 -5.8455 -2.9985 0.9741
1.7325 -5.5849 -2.9978 0.9741
2.2225 -5.4082 -2.9976 0.9741
2.6949 -5.1886 -2.9974 0.9741
3.5717 -4.6280 -2.9971 0.9741
4.6668 -3.5194 -2.9966 0.9741
4.9613 -3.0899 -2.9965 0.9741
5.2164 -2.6360 -2.9964 0.9741
5.4302 -2.1612 -2.9963 0.9741
5.7271 -1.1641 -2.9962 0.9741
5.8079 -0.6497 -2.9961 0.9741
5.7732 0.9078 -2.9961 0.9741
5.6696 1.4181 -2.9962 0.9741
5.5210 1.9171 -2.9962 0.9741
4.8188 3.3080 -2.9965 0.9741
4.5055 3.7239 -2.9967 0.9741
4.1564 4.1103 -2.9968 0.9741
3.7742 4.4642 -2.9970 0.9741
2.3361 5.0341 -2.8452 0.9754
1.8789 5.2225 -2.8454 0.9754
-1.0453 5.4533 -2.8466 0.9753
-1.9959 5.1823 -2.8470 0.9753
-2.4494 4.9844 -2.8472 0.9753
-2.8976 4.7701 -2.8613 0.9752
-3.4712 4.7111 -3.0001 0.9740
-4.5932 3.6272 -3.0005 0.9740
-4.8981 3.2041 -3.0007 0.9740
-5.1640 2.7556 -3.0008 0.9740
-5.5711 1.7964 -3.0009 0.9740
-5.8015 0.7803 -3.0010 0.9740
-5.8480 -0.2608 -3.0010 0.9740
-5.3889 -2.2851 -3.0009 0.9740
-5.1640 -2.7556 -3.0008 0.9740
-4.2519 -4.0214 -3.0004 0.9740
-3.8769 -4.3837 -3.0002 0.9740
-3.4712 -4.7111 -3.0000 0.9740
-3.0379 -5.0011 -2.9999 0.9740
-2.5805 -5.2512 -2.9997 0.9740
-1.6084 -5.6248 -2.9992 0.9740
-1.1013 -5.7453 -2.9990 0.9740
-0.5855 -5.8200 -2.9988 0.9740
-0.0652 -5.8486 -2.9986 0.9741
0.9727 -5.7667 -2.9982 0.9741
1.4820 -5.6568 -2.9979 0.9741
1.9795 -5.5020 -2.9977 0.9741
2.4612 -5.3037 -2.9975 0.9741
4.1563 -4.1103 -2.9968 0.9741
4.5055 -3.7239 -2.9967 0.9741
4.8188 -3.3079 -2.9965 0.9741
5.5210 -1.9171 -2.9962 0.9741
5.7732 -0.9078 -2.9961 0.9741
5.8311 -0.3903 -2.9961 0.9741
5.8427 0.1302 -2.9961 0.9741
5.8079 0.6497 -2.9961 0.9741
5.6009 1.6692 -2.9962 0.9741
5.2165 2.6360 -2.9964 0.9741
4.9613 3.0899 -2.9965 0.9741
4.6668 3.5194 -2.9966 0.9741
4.3352 3.9210 -2.9968 0.9741
3.9693 4.2915 -2.9969 0.9741
3.5717 4.6280 -2.9971 0.9741
3.0240 4.7371 -2.8812 0.9751
2.1096 5.1334 -2.8453 0.9754
1.6444 5.3011 -2.8455 0.9754
1.1662 5.4269 -2.8457 0.9754
-0.3091 5.5434 -2.8463 0.9754
-1.2872 5.4015 -2.8467 0.9753
-1.7630 5.2659 -2.8469 0.9753
-4.4270 3.8282 -3.0005 0.9740
-4.7504 3.4191 -3.0006 0.9740
-5.0360 2.9829 -3.0007 0.9740
-5.4854 2.0428 -3.0009 0.9740
-5.6456 1.5465 -3.0010 0.9740
-5.6214 0.0000 -3.0010 0.9748
-5.5323 -0.9967 -3.0009 0.9748
-5.4215 -1.4851 -3.0009 0.9748
-5.2677 -1.9617 -3.0008 0.9748
-5.0721 -2.4227 -3.0007 0.9748
-4.2513 -3.6762 -3.0004 0.9748
-2.2510 -5.1481 -2.9995 0.9748
-0.8107 -5.5587 -2.9989 0.9748
-0.3127 -5.6085 -2.9987 0.9749
0.1877 -5.6137 -2.9985 0.9749
0.6865 -5.5743 -2.9983 0.9749
2.1344 -5.1938 -2.9977 0.9749
3.4301 -4.4445 -2.9971 0.9749
4.4818 -3.3799 -2.9967 0.9749
5.0097 -2.5315 -2.9965 0.9749
5.6111 -0.1251 -2.9962 0.9749
5.5444 0.8719 -2.9962 0.9749
4.8920 2.7522 -2.9965 0.9749
3.9916 3.9474 -2.9969 0.9749
3.6246 4.2872 -2.9971 0.9749
3.2288 4.5931 -2.9972 0.9749
-0.0594 5.3312 -2.8462 0.9761
-1.0038 5.2370 -2.8466 0.9761
-1.4661 5.1272 -2.8468 0.9761
-1.9167 4.9767 -2.8470 0.9761
-2.8850 4.7494 -2.9666 0.9751
-3.3334 4.5242 -3.0000 0.9748
-3.7231 4.2097 -3.0002 0.9748
-4.0832 3.8619 -3.0003 0.9748
-4.7037 3.0770 -3.0006 0.9748
-4.9590 2.6462 -3.0007 0.9748
-5.3499 1.7251 -3.0008 0.9748
-5.4824 1.2422 -3.0009 0.9748
-5.5712 0.7493 -3.0009 0.9748
-5.6158 0.2504 -3.0010 0.9748
-5.6158 -0.2504 -3.0010 0.9748
-5.4823 -1.2421 -3.0009 0.9748
-5.3499 -1.7251 -3.0008 0.9748
-4.9590 -2.6462 -3.0007 0.9748
-4.0832 -3.8619 -3.0003 0.9748
-3.7231 -4.2097 -3.0001 0.9748
-2.4782 -5.0429 -2.9996 0.9748
-1.5446 -5.4017 -2.9992 0.9748
-0.0626 -5.6166 -2.9986 0.9749
0.4376 -5.5995 -2.9984 0.9749
1.4232 -5.4325 -2.9980 0.9749
2.3636 -5.0934 -2.9976 0.9749
2.8074 -4.8625 -2.9974 0.9749
3.2288 -4.5930 -2.9972 0.9749
3.6246 -4.2872 -2.9970 0.9749
3.9916 -3.9474 -2.9969 0.9749
4.3269 -3.5762 -2.9967 0.9749
4.6278 -3.1768 -2.9966 0.9749
4.8920 -2.7522 -2.9965 0.9749
5.1174 -2.3058 -2.9964 0.9749
5.4449 -1.3619 -2.9963 0.9749
5.6000 -0.3749 -2.9962 0.9749
5.5778 0.6240 -2.9962 0.9749
5.5001 1.1179 -2.9963 0.9749
5.2150 2.0755 -2.9964 0.9749
5.0097 2.5315 -2.9965 0.9749
4.7647 2.9675 -2.9966 0.9749
4.4818 3.3799 -2.9967 0.9749
3.8119 4.1214 -2.9970 0.9749
3.4301 4.4446 -2.9971 0.9749
3.0115 4.7174 -2.9878 0.9749
2.0259 4.9298 -2.8453 0.9761
1.5792 5.0909 -2.8455 0.9761
-0.7695 5.2763 -2.8465 0.9761
-1.2362 5.1872 -2.8467 0.9761
-1.6931 5.0569 -2.8469 0.9761
-3.1285 4.6680 -2.9999 0.9748
-3.5318 4.3713 -3.0001 0.9748
-3.9070 4.0398 -3.0002 0.9748
-4.8361 2.8645 -3.0006 0.9748
-5.0721 2.4227 -3.0007 0.9748
-5.2677 1.9617 -3.0008 0.9748
-5.4215 1.4851 -3.0009 0.9748
-5.4031 0.0000 -3.0009 0.9756
-5.3816 -0.4809 -3.0009 0.9756
-5.3174 -0.9580 -3.0008 0.9756
-5.2110 -1.4274 -3.0008 0.9756
-4.8751 -2.3286 -3.0006 0.9756
-4.6483 -2.7532 -3.0005 0.9756
-4.0862 -3.5335 -3.0003 0.9756
-3.7553 -3.8829 -3.0002 0.9756
-2.1636 -4.9483 -2.9995 0.9756
-1.7145 -5.1209 -2.9993 0.9756
-1.2518 -5.2528 -2.9991 0.9756
0.1804 -5.3958 -2.9985 0.9756
1.5992 -5.1554 -2.9979 0.9756
2.0516 -4.9923 -2.9977 0.9756
2.4876 -4.7896 -2.9975 0.9756
3.2971 -4.2721 -2.9972 0.9756
3.6640 -3.9615 -2.9970 0.9756
4.3080 -3.2488 -2.9967 0.9756
4.8154 -2.4333 -2.9965 0.9756
5.0127 -1.9950 -2.9965 0.9756
5.2869 -1.0746 -2.9963 0.9756
5.3935 -0.1202 -2.9963 0.9756
5.3828 0.3604 -2.9963 0.9756
5.0966 1.7697 -2.9964 0.9756
4.9190 2.2164 -2.9965 0.9756
4.1591 3.4376 -2.9968 0.9756
2.6985 4.6739 -2.9974 0.9756
1.2985 4.9563 -2.8456 0.9768
0.8523 5.0526 -2.8458 0.9768
-0.0571 5.1243 -2.8462 0.9768
-0.9649 5.0337 -2.8466 0.9768
-1.4092 4.9281 -2.8468 0.9768
-4.2397 3.3480 -3.0004 0.9756
-4.5210 2.9575 -3.0005 0.9756
-5.1422 1.6581 -3.0008 0.9756
-5.3549 0.7202 -3.0008 0.9756
-5.3549 -0.7202 -3.0008 0.9756
-5.2694 -1.1939 -3.0008 0.9756
-5.1422 -1.6581 -3.0007 0.9756
-4.9741 -2.1092 -3.0007 0.9756
-4.2397 -3.3480 -3.0004 0.9756
-3.5785 -4.0463 -3.0001 0.9756
-3.2040 -4.3485 -2.9999 0.9756
-2.8041 -4.6162 -2.9998 0.9756
-2.3820 -4.8471 -2.9996 0.9756
-1.9410 -5.0396 -2.9994 0.9756
-1.4846 -5.1920 -2.9992 0.9756
-1.0165 -5.3032 -2.9990 0.9756
-0.5405 -5.3723 -2.9988 0.9756
0.4206 -5.3822 -2.9984 0.9756
0.8979 -5.3231 -2.9982 0.9756
1.3680 -5.2217 -2.9980 0.9756
1.8272 -5.0789 -2.9978 0.9756
2.6985 -4.6738 -2.9974 0.9756
3.4840 -4.1209 -2.9971 0.9756
4.1591 -3.4375 -2.9968 0.9756
5.3294 -0.8380 -2.9963 0.9756
5.3828 -0.3603 -2.9963 0.9756
5.3935 0.1202 -2.9963 0.9756
5.3615 0.5998 -2.9963 0.9756
4.0019 3.6195 -2.9969 0.9756
3.6641 3.9615 -2.9970 0.9756
1.9532 4.7528 -2.8539 0.9768
1.5180 4.8934 -2.8455 0.9768
1.0765 5.0095 -2.8457 0.9768
0.1712 5.1216 -2.8461 0.9768
-0.2853 5.1169 -2.8463 0.9768
-0.7397 5.0715 -2.8465 0.9768
-1.1882 4.9859 -2.8467 0.9768
-3.0070 4.4868 -2.9999 0.9756
-3.3946 4.2016 -3.0000 0.9756
-3.7553 3.8830 -3.0002 0.9756
-4.0862 3.5335 -3.0003 0.9756
-4.6483 2.7532 -3.0005 0.9756
-4.8751 2.3286 -3.0006 0.9756
-5.0632 1.8855 -3.0007 0.9756
-5.1151 -0.9215 -3.0007 0.9763
-4.8705 -1.8138 -3.0006 0.9763
-4.6896 -2.2400 -3.0006 0.9763
-4.2178 -3.0358 -3.0004 0.9763
-3.9307 -3.3991 -3.0002 0.9763
-3.6124 -3.7352 -3.0001 0.9763
-2.4969 -4.5562 -2.9996 0.9763
-2.0813 -4.7601 -2.9994 0.9763
-1.6493 -4.9261 -2.9993 0.9763
-0.7496 -5.1398 -2.9989 0.9763
0.6348 -5.1543 -2.9983 0.9763
1.0910 -5.0770 -2.9981 0.9763
1.9736 -4.8025 -2.9977 0.9763
2.7935 -4.3760 -2.9974 0.9763
3.5248 -3.8110 -2.9971 0.9763
4.1443 -3.1254 -2.9968 0.9763
4.4058 -2.7440 -2.9967 0.9763
4.6324 -2.3409 -2.9966 0.9763
4.8223 -1.9192 -2.9965 0.9763
4.9738 -1.4824 -2.9965 0.9763
5.1783 0.3467 -2.9964 0.9763
4.9030 1.7025 -2.9965 0.9763
4.7321 2.1321 -2.9966 0.9763
4.5236 2.5449 -2.9967 0.9763
4.0010 3.3069 -2.9969 0.9763
3.6910 3.6501 -2.9970 0.9763
2.5959 4.4962 -2.9975 0.9763
2.1855 4.7097 -2.9977 0.9763
1.7048 4.7385 -2.9074 0.9770
1.2490 4.7679 -2.8457 0.9775
0.8199 4.8605 -2.8458 0.9775
-0.0549 4.9295 -2.8462 0.9775
-0.9282 4.8423 -2.8466 0.9775
-1.3620 4.7632 -2.8603 0.9774
-1.8293 4.7496 -2.9385 0.9768
-2.6974 4.4406 -2.9997 0.9763
-4.0784 3.2207 -3.0003 0.9763
-4.7848 2.0289 -3.0006 0.9763
-5.0689 1.1485 -3.0007 0.9763
-5.1511 0.6928 -3.0008 0.9763
-5.1923 -0.2315 -3.0008 0.9763
-5.0689 -1.1485 -3.0007 0.9763
-4.7848 -2.0289 -3.0006 0.9763
-4.5851 -2.4467 -3.0005 0.9763
-3.7753 -3.5707 -3.0002 0.9763
-3.4424 -3.8924 -3.0000 0.9763
-3.0821 -4.1831 -2.9999 0.9763
-2.6974 -4.4406 -2.9997 0.9763
-2.2914 -4.6628 -2.9995 0.9763
-1.8671 -4.8479 -2.9994 0.9763
-0.9779 -5.1015 -2.9990 0.9763
-0.5199 -5.1679 -2.9988 0.9763
1.3160 -5.0232 -2.9980 0.9763
1.7578 -4.8858 -2.9978 0.9763
2.1855 -4.7097 -2.9976 0.9763
2.9856 -4.2471 -2.9973 0.9763
3.3516 -3.9643 -2.9972 0.9763
4.0010 -3.3069 -2.9969 0.9763
4.2793 -2.9376 -2.9968 0.9763
4.5236 -2.5450 -2.9967 0.9763
4.9029 -1.7025 -2.9965 0.9763
5.0349 -1.2593 -2.9964 0.9763
5.1783 -0.3466 -2.9964 0.9763
4.8223 1.9192 -2.9965 0.9763
4.6324 2.3409 -2.9966 0.9763
4.4058 2.7440 -2.9967 0.9763
3.8498 3.4820 -2.9970 0.9763
2.3931 4.6075 -2.9976 0.9763
1.9435 4.7292 -2.9519 0.9767
-0.2745 4.9223 -2.8463 0.9775
-0.7115 4.8786 -2.8465 0.9775
-2.4969 4.5562 -2.9996 0.9763
-2.8927 4.3162 -2.9998 0.9763
-4.6896 2.2400 -3.0006 0.9763
-4.8705 1.8138 -3.0006 0.9763
-5.1151 0.9215 -3.0007 0.9763
-5.1769 0.4626 -3.0008 0.9763
