ply
format ascii 1.0
element vertex 1622
property float32 x
property float32 y
property float32 z
property float32 I
end_header
6.6041 -5.9731 1.5701 0.9645
6.0198 -6.5086 1.4117 0.9647
7.4143 -5.5914 1.4787 0.9631
6.0801 -7.1915 1.4996 0.9626
6.1814 -6.1130 1.3843 0.9654
6.8036 -5.6233 1.4055 0.9649
5.9082 -6.3879 1.2376 0.9655
6.3429 -5.7368 1.2165 0.9660
7.1854 -5.4188 1.2801 0.9643
5.8487 -6.9179 1.2885 0.9641
6.0840 -6.0166 1.2170 0.9660
6.0031 -5.9366 1.0580 0.9665
7.9390 -5.4498 1.2067 0.9619
5.7530 -6.2201 0.9190 0.9665
6.1978 -5.6056 0.9064 0.9669
6.9403 -5.2339 0.9429 0.9656
5.6420 -6.6734 0.9479 0.9655
5.9458 -5.8800 0.9070 0.9669
7.6190 -5.2302 1.0024 0.9635
5.6959 -6.1584 0.7691 0.9669
6.8586 -5.1723 0.7875 0.9661
5.5145 -7.1454 0.6764 0.9644
5.6648 -6.1247 0.6252 0.9671
6.1089 -5.5252 0.6173 0.9675
6.8105 -5.1360 0.6392 0.9664
7.3597 -5.0522 0.6690 0.9648
5.4606 -7.0755 0.5206 0.9648
5.6341 -6.0915 0.4833 0.9673
6.0773 -5.4966 0.4773 0.9677
6.7670 -5.1032 0.4936 0.9666
5.8309 -5.7663 0.4776 0.9677
7.3004 -5.0114 0.5157 0.9651
6.0546 -5.4761 0.3394 0.9678
5.4659 -6.4651 0.3520 0.9667
5.8093 -5.7449 0.3397 0.9678
6.3548 -5.2524 0.3428 0.9675
5.3976 -6.9938 0.2203 0.9653
5.6017 -6.0565 0.2057 0.9675
6.0446 -5.4671 0.2033 0.9679
5.7998 -5.7355 0.2034 0.9679
6.3436 -5.2431 0.2052 0.9676
7.2316 -4.9643 0.2187 0.9655
5.3811 -6.9725 0.0732 0.9654
5.5921 -6.0461 0.0684 0.9676
6.0347 -5.4581 0.0676 0.9680
6.7061 -5.0573 0.0698 0.9670
8.4053 -5.2349 0.0823 0.9612
5.4448 -6.4402 0.0701 0.9668
7.2133 -4.9516 0.0727 0.9656
5.3822 -6.9739 -0.0732 0.9654
7.2146 -4.9526 -0.0727 0.9656
5.3989 -6.9955 -0.2204 0.9653
5.6025 -6.0574 -0.2058 0.9675
5.4562 -6.4536 -0.2108 0.9668
5.8006 -5.7363 -0.2034 0.9679
6.3445 -5.2439 -0.2053 0.9676
6.0555 -5.4769 -0.3395 0.9678
6.7344 -5.0787 -0.3507 0.9668
5.4669 -6.4663 -0.3521 0.9667
6.0798 -5.4988 -0.4775 0.9677
6.7703 -5.1058 -0.4939 0.9666
5.4950 -6.4995 -0.4957 0.9665
5.8333 -5.7687 -0.4778 0.9677
6.3837 -5.2763 -0.4824 0.9674
7.3048 -5.0145 -0.5161 0.9651
5.5187 -7.1508 -0.6769 0.9644
5.6673 -6.1274 -0.6255 0.9671
5.8635 -5.7986 -0.6180 0.9675
6.4194 -5.3058 -0.6241 0.9671
7.3643 -5.0553 -0.6694 0.9648
5.7001 -6.1629 -0.7696 0.9668
6.1437 -5.5567 -0.7594 0.9673
6.8647 -5.1770 -0.7882 0.9661
5.5724 -6.5912 -0.7913 0.9659
6.4572 -5.3370 -0.7680 0.9669
5.7526 -7.4539 -1.0213 0.9628
5.7575 -6.2249 -0.9197 0.9665
6.2628 -5.6644 -1.0582 0.9665
7.0308 -5.3022 -1.1035 0.9651
5.7270 -6.7739 -1.1116 0.9649
8.0083 -5.4974 -1.2173 0.9616
6.3505 -5.7437 -1.2179 0.9660
7.1983 -5.4285 -1.2824 0.9642
6.0302 -6.5198 -1.4142 0.9647
7.4470 -5.6161 -1.4852 0.9629
6.6171 -5.9848 -1.5732 0.9644
12.0968 8.3040 -2.8394 0.9420
11.3115 9.3492 -2.8399 0.9420
9.4780 11.2107 -2.8409 0.9419
6.1834 13.3250 -2.8427 0.9419
2.4451 14.4958 -2.8448 0.9419
1.1455 14.6596 -2.8455 0.9419
-0.1639 14.7071 -2.8463 0.9418
-2.7703 14.4525 -2.8477 0.9418
-5.2915 13.7391 -2.8491 0.9418
6.6257 -6.5523 -1.8033 0.9627
13.6286 5.4241 -2.8386 0.9420
13.0932 6.6163 -2.8389 0.9420
11.7158 8.8353 -2.8397 0.9420
10.8847 9.8447 -2.8401 0.9420
6.7701 13.0348 -2.8424 0.9419
4.3538 14.0353 -2.8438 0.9419
3.0881 14.3707 -2.8445 0.9419
1.7972 14.5922 -2.8452 0.9419
0.4914 14.6980 -2.8459 0.9418
-3.4118 14.3165 -2.8481 0.9418
-4.6736 13.9595 -2.8488 0.9418
-14.2610 0.0000 -3.0065 0.9434
-14.2043 -1.2693 -3.0065 0.9434
-14.0345 -2.5284 -3.0064 0.9434
-13.7530 -3.7673 -3.0062 0.9434
-11.5688 -8.3267 -3.0050 0.9434
-10.7802 -9.3220 -3.0046 0.9434
-6.8441 -12.4889 -3.0024 0.9434
-5.7042 -13.0458 -3.0017 0.9435
-4.5197 -13.4987 -3.0011 0.9435
-0.7920 -14.2033 -2.9990 0.9435
0.4752 -14.2141 -2.9983 0.9435
2.9865 -13.8981 -2.9969 0.9435
4.2107 -13.5741 -2.9962 0.9436
5.4010 -13.1425 -2.9955 0.9436
6.5479 -12.6070 -2.9949 0.9436
7.6425 -11.9717 -2.9943 0.9436
9.6404 -10.4231 -2.9932 0.9436
10.5281 -9.5221 -2.9927 0.9436
12.6647 -6.3997 -2.9915 0.9436
14.0982 -1.5771 -2.9907 0.9437
14.1824 -0.3160 -2.9907 0.9437
13.7631 3.4424 -2.9909 0.9437
11.7392 6.6044 -2.8396 0.9464
10.3850 8.5835 -2.8404 0.9464
9.5813 9.4752 -2.8408 0.9464
8.7015 10.2922 -2.8413 0.9464
6.7414 11.6764 -2.8424 0.9464
4.5662 12.6921 -2.8436 0.9464
3.4192 13.0511 -2.8443 0.9463
2.2446 13.3066 -2.8449 0.9463
-2.5428 13.2658 -2.8476 0.9463
-3.7143 12.9897 -2.8482 0.9463
-5.9612 12.1307 -2.8495 0.9462
-7.0187 11.5544 -2.8501 0.9462
-8.9595 10.1307 -2.8512 0.9462
-9.8273 9.2946 -2.8516 0.9462
-11.3229 7.4071 -2.8525 0.9462
-13.5711 4.3761 -3.0061 0.9434
-13.9076 3.1511 -3.0063 0.9434
-14.1334 1.9008 -3.0064 0.9434
-14.1334 -1.9008 -3.0064 0.9434
-13.9076 -3.1510 -3.0063 0.9434
-13.1266 -5.5661 -3.0059 0.9434
-10.3534 -9.7922 -3.0043 0.9434
-7.3944 -12.1729 -3.0027 0.9434
-5.1168 -13.2855 -3.0014 0.9435
-3.9132 -13.6851 -3.0007 0.9435
-1.4241 -14.1556 -2.9993 0.9435
4.8107 -13.3715 -2.9959 0.9436
9.1673 -10.8432 -2.9935 0.9436
10.0943 -9.9824 -2.9929 0.9436
14.0142 -2.2036 -2.9908 0.9437
12.5129 4.9800 -2.8392 0.9464
10.7563 8.1117 -2.8402 0.9464
9.9931 9.0383 -2.8406 0.9464
9.1505 9.8935 -2.8411 0.9464
6.2152 11.9663 -2.8427 0.9464
5.1265 12.4747 -2.8433 0.9464
3.9968 12.8843 -2.8440 0.9463
2.8348 13.1919 -2.8446 0.9463
0.4511 13.4919 -2.8459 0.9463
-1.9491 13.3643 -2.8473 0.9463
-3.1316 13.1408 -2.8479 0.9463
-4.2898 12.8129 -2.8486 0.9463
-7.5272 11.2313 -2.8504 0.9462
-9.4027 9.7224 -2.8514 0.9462
-10.9809 7.9036 -2.8523 0.9462
-11.6423 6.8958 -2.8527 0.9462
-12.2112 5.8328 -2.8530 0.9462
-13.7530 3.7674 -3.0062 0.9434
-14.2043 1.2693 -3.0065 0.9434
-13.1697 0.0000 -3.0059 0.9474
-13.1173 -1.1721 -3.0059 0.9474
-12.9605 -2.3350 -3.0058 0.9474
-12.7007 -3.4791 -3.0056 0.9474
-9.1486 -9.4596 -3.0036 0.9474
-8.2690 -10.2346 -3.0032 0.9474
-7.3240 -10.9281 -3.0026 0.9475
-4.1741 -12.4675 -3.0009 0.9475
0.4389 -13.1291 -2.9983 0.9475
2.7587 -12.8377 -2.9970 0.9476
8.0147 -10.3849 -2.9941 0.9476
8.9057 -9.6287 -2.9936 0.9476
10.4688 -7.8948 -2.9927 0.9476
11.1286 -6.9309 -2.9924 0.9476
12.5609 -3.7435 -2.9916 0.9476
12.8436 -2.6105 -2.9914 0.9476
13.0246 -1.4570 -2.9913 0.9476
13.1024 -0.2919 -2.9913 0.9476
13.0764 0.8754 -2.9913 0.9476
11.3439 5.1113 -2.8399 0.9502
9.5937 7.9295 -2.8408 0.9502
8.8512 8.7531 -2.8412 0.9502
8.0383 9.5077 -2.8417 0.9502
5.2436 11.2998 -2.8433 0.9502
2.0733 12.2912 -2.8450 0.9501
0.9713 12.4297 -2.8456 0.9501
-1.2485 12.4104 -2.8469 0.9501
-2.3486 12.2526 -2.8475 0.9501
-4.4857 11.6469 -2.8487 0.9501
-5.5056 11.2037 -2.8492 0.9501
-6.4822 10.6712 -2.8498 0.9501
-6.4155 7.2542 -2.2103 0.9610
-9.8051 7.7431 -2.8516 0.9500
-11.5063 4.8791 -2.8526 0.9500
-12.8434 2.9099 -3.0057 0.9474
-13.0519 1.7554 -3.0058 0.9474
-13.1566 0.5867 -3.0059 0.9474
-13.1566 -0.5866 -3.0059 0.9474
-13.0519 -1.7553 -3.0058 0.9474
-12.5327 -4.0412 -3.0055 0.9474
-11.6156 -6.1983 -3.0050 0.9474
-11.0166 -7.2067 -3.0047 0.9474
-8.7175 -9.8569 -3.0034 0.9474
-5.8004 -11.8034 -3.0018 0.9475
-4.7259 -12.2704 -3.0012 0.9475
-3.6142 -12.6397 -3.0006 0.9475
-2.4744 -12.9085 -2.9999 0.9475
-1.3153 -13.0747 -2.9993 0.9475
-0.1464 -13.1370 -2.9986 0.9475
2.1843 -12.9492 -2.9973 0.9475
4.4438 -12.3516 -2.9961 0.9476
5.5244 -11.9047 -2.9955 0.9476
6.5608 -11.3635 -2.9949 0.9476
7.5448 -10.7326 -2.9944 0.9476
9.3251 -9.2217 -2.9934 0.9476
12.7149 -3.1802 -2.9915 0.9476
12.9469 -2.0358 -2.9914 0.9476
13.0764 -0.8753 -2.9913 0.9476
12.5610 3.7436 -2.9916 0.9476
9.9368 7.4937 -2.8406 0.9502
6.7011 10.4971 -2.8424 0.9502
2.6185 12.1854 -2.8447 0.9501
1.5239 12.3728 -2.8453 0.9501
-0.6943 12.4523 -2.8466 0.9501
-2.8924 12.1371 -2.8478 0.9501
-5.0006 11.4367 -2.8490 0.9501
-6.9518 10.3728 -2.8500 0.9501
-9.4498 8.1716 -2.8514 0.9500
-10.1410 7.2991 -2.8518 0.9500
-10.7517 6.3683 -2.8522 0.9500
-11.2770 5.3866 -2.8524 0.9500
-12.3398 4.5954 -3.0054 0.9474
-12.0328 -2.1678 -3.0053 0.9509
-11.7915 -3.2300 -3.0051 0.9509
-11.4565 -4.2664 -3.0049 0.9509
-11.0304 -5.2688 -3.0047 0.9509
-6.8002 -10.1466 -3.0023 0.9509
-5.8691 -10.7097 -3.0018 0.9509
-3.8758 -11.5763 -3.0007 0.9510
-2.8294 -11.8731 -3.0001 0.9510
-1.7612 -12.0754 -2.9995 0.9510
0.4076 -12.1914 -2.9983 0.9510
3.6119 -11.6436 -2.9965 0.9510
4.6330 -11.2738 -2.9960 0.9510
6.5562 -10.2701 -2.9949 0.9511
8.2706 -8.9421 -2.9940 0.9511
10.3352 -6.4368 -2.9928 0.9511
10.8660 -5.4908 -2.9925 0.9511
11.3107 -4.5015 -2.9923 0.9511
11.6657 -3.4767 -2.9921 0.9511
12.0964 -1.3532 -2.9918 0.9511
12.1686 -0.2712 -2.9918 0.9511
12.1445 0.8130 -2.9918 0.9511
12.0243 1.8908 -2.9919 0.9511
11.8087 2.9536 -2.9920 0.9511
10.0719 5.6664 -2.8406 0.9535
9.5286 6.5411 -2.8409 0.9535
8.9097 7.3641 -2.8412 0.9535
6.6505 9.4605 -2.8425 0.9535
5.7831 10.0166 -2.8430 0.9535
4.8695 10.4935 -2.8435 0.9535
1.9252 11.4137 -2.8451 0.9534
0.9019 11.5421 -2.8457 0.9534
-0.1290 11.5788 -2.8462 0.9534
-1.1593 11.5237 -2.8468 0.9534
-3.1854 11.1400 -2.8480 0.9534
-6.0187 9.9082 -2.8495 0.9534
-6.8778 9.3347 -2.8500 0.9534
-6.3942 7.2300 -2.3724 0.9610
-8.4265 7.9697 -2.8509 0.9533
-10.2362 5.4622 -2.8519 0.9533
-11.6356 3.7520 -3.0050 0.9509
-11.9240 2.7016 -3.0052 0.9509
-12.1176 -1.6296 -3.0053 0.9509
-11.9240 -2.7016 -3.0052 0.9509
-11.2547 -4.7724 -3.0048 0.9509
-10.2282 -6.6910 -3.0043 0.9509
-8.8776 -8.3964 -3.0035 0.9509
-8.0939 -9.1519 -3.0031 0.9509
-6.3409 -10.4385 -3.0021 0.9509
-4.3881 -11.3933 -3.0010 0.9510
-1.2214 -12.1406 -2.9992 0.9510
0.9502 -12.1599 -2.9980 0.9510
2.0283 -12.0247 -2.9974 0.9510
4.1266 -11.4701 -2.9963 0.9510
5.1302 -11.0552 -2.9957 0.9510
7.0066 -9.9670 -2.9947 0.9511
11.4996 -3.9931 -2.9922 0.9511
11.8087 -2.9535 -2.9920 0.9511
12.1445 -0.8129 -2.9918 0.9511
12.0964 1.3532 -2.9918 0.9511
10.3138 5.2118 -2.8404 0.9535
9.8100 6.1097 -2.8407 0.9535
8.5734 7.7542 -2.8414 0.9535
7.8503 8.4877 -2.8418 0.9535
6.2230 9.7482 -2.8427 0.9535
5.3316 10.2652 -2.8432 0.9535
3.4284 11.0520 -2.8443 0.9535
2.4315 11.3155 -2.8448 0.9534
0.3869 11.5719 -2.8460 0.9534
-0.6447 11.5628 -2.8465 0.9534
-2.6857 11.2697 -2.8477 0.9534
-3.6788 10.9881 -2.8482 0.9534
-4.6431 10.6191 -2.8488 0.9534
-7.2874 9.0197 -2.8502 0.9534
-10.4699 5.0011 -2.8520 0.9533
-12.0328 2.1678 -3.0053 0.9509
-11.4038 0.0000 -3.0049 0.9539
-11.3585 -1.0150 -3.0049 0.9539
-10.6854 -3.9793 -3.0045 0.9539
-10.2881 -4.9142 -3.0043 0.9539
-9.2520 -6.6591 -3.0037 0.9539
-8.6215 -7.4553 -3.0034 0.9539
-7.9227 -8.1920 -3.0030 0.9540
-7.1611 -8.8634 -3.0025 0.9540
-6.3429 -9.4642 -3.0021 0.9540
-5.4744 -9.9896 -3.0016 0.9540
-4.5628 -10.4354 -3.0011 0.9540
-1.6428 -11.2640 -2.9995 0.9540
-0.6336 -11.3633 -2.9989 0.9540
0.3802 -11.3725 -2.9983 0.9540
2.3897 -11.1208 -2.9972 0.9540
4.3221 -10.5171 -2.9961 0.9541
5.2401 -10.0890 -2.9956 0.9541
7.7158 -8.3422 -2.9943 0.9541
8.4266 -7.6214 -2.9939 0.9541
10.1375 -5.1227 -2.9929 0.9541
10.5524 -4.1997 -2.9927 0.9541
11.2182 1.7640 -2.9923 0.9541
11.0171 2.7556 -2.9924 0.9541
10.7287 3.7254 -2.9926 0.9541
9.3966 5.2864 -2.8409 0.9564
8.3122 6.8702 -2.8415 0.9564
7.6687 7.5837 -2.8419 0.9564
6.2043 8.8258 -2.8427 0.9564
5.3950 9.3445 -2.8432 0.9563
4.5427 9.7892 -2.8436 0.9563
0.8413 10.7668 -2.8457 0.9563
-2.9713 10.3913 -2.8478 0.9563
-4.7683 9.7032 -2.8488 0.9563
-6.4152 8.7068 -2.8497 0.9562
-8.4910 6.7053 -2.8509 0.9562
-9.5473 5.0946 -2.8515 0.9562
-10.4972 4.4512 -3.0044 0.9539
-10.8524 3.4995 -3.0046 0.9539
-11.1214 2.5198 -3.0048 0.9539
-11.3019 1.5200 -3.0049 0.9539
-11.3925 0.5080 -3.0049 0.9539
-11.3925 -0.5080 -3.0049 0.9539
-11.3019 -1.5199 -3.0049 0.9539
-10.8524 -3.4994 -3.0046 0.9539
-10.4972 -4.4512 -3.0044 0.9539
-10.0585 -5.3674 -3.0042 0.9539
-8.2803 -7.8315 -3.0032 0.9539
-6.7587 -9.1729 -3.0023 0.9540
-5.9145 -9.7365 -3.0018 0.9540
-4.0931 -10.6273 -3.0008 0.9540
-3.1304 -10.9475 -3.0003 0.9540
-2.1432 -11.1806 -2.9997 0.9540
-1.1393 -11.3249 -2.9992 0.9540
-0.1268 -11.3792 -2.9986 0.9540
0.8864 -11.3432 -2.9981 0.9540
1.8921 -11.2172 -2.9975 0.9540
2.8825 -11.0023 -2.9969 0.9540
4.7859 -10.3132 -2.9959 0.9541
7.3371 -8.6783 -2.9945 0.9541
8.0792 -7.9897 -2.9941 0.9541
8.7572 -7.2380 -2.9937 0.9541
10.7287 -3.7254 -2.9926 0.9541
11.2182 -1.7639 -2.9923 0.9541
11.3304 -0.7585 -2.9923 0.9541
11.3529 0.2530 -2.9922 0.9541
11.2855 1.2625 -2.9923 0.9541
11.1287 2.2620 -2.9924 0.9541
10.8837 3.2437 -2.9925 0.9541
7.3237 7.9184 -2.8421 0.9564
4.1024 9.9827 -2.8439 0.9563
1.3200 10.7177 -2.8454 0.9563
0.3609 10.7946 -2.8460 0.9563
-0.6014 10.7859 -2.8465 0.9563
-2.5052 10.5123 -2.8476 0.9563
-3.4315 10.2495 -2.8481 0.9563
-6.7478 6.9772 -2.5576 0.9606
-8.7818 6.3208 -2.8511 0.9562
-9.3105 5.5146 -2.8514 0.9562
-10.0286 4.7903 -2.9285 0.9551
-10.6854 3.9793 -3.0045 0.9539
-10.9978 3.0127 -3.0047 0.9539
-10.5091 -1.8933 -3.0044 0.9566
-10.2985 -2.8210 -3.0043 0.9566
-9.6340 -4.6017 -3.0039 0.9566
-8.6639 -6.2359 -3.0034 0.9566
-8.0736 -6.9815 -3.0031 0.9566
-5.9399 -8.8629 -3.0019 0.9566
-5.1267 -9.3550 -3.0014 0.9566
-3.3857 -10.1125 -3.0004 0.9567
-1.5385 -10.5489 -2.9994 0.9567
-0.5934 -10.6421 -2.9989 0.9567
0.3561 -10.6508 -2.9984 0.9567
1.3024 -10.5750 -2.9978 0.9567
4.0480 -9.8501 -2.9963 0.9567
5.7285 -8.9736 -2.9954 0.9567
6.5035 -8.4269 -2.9949 0.9567
7.2268 -7.8135 -2.9945 0.9567
7.8926 -7.1384 -2.9942 0.9567
9.4953 -4.7981 -2.9933 0.9568
9.8839 -3.9337 -2.9931 0.9568
10.4238 -2.1187 -2.9928 0.9568
10.6128 0.7105 -2.9927 0.9568
10.0491 3.4895 -2.9930 0.9568
8.3264 5.7158 -2.8415 0.9589
7.7854 6.4348 -2.8418 0.9589
7.1827 7.1031 -2.8422 0.9589
5.8110 8.2663 -2.8429 0.9589
4.2546 9.1684 -2.8438 0.9589
2.5624 9.7808 -2.8447 0.9589
1.6820 9.9718 -2.8452 0.9588
-1.9051 9.9388 -2.8472 0.9588
-2.7826 9.7314 -2.8477 0.9588
-4.4654 9.0869 -2.8487 0.9588
-7.3600 6.9611 -2.8503 0.9588
-7.9513 6.2791 -2.8506 0.9588
-8.4795 5.5470 -2.8509 0.9588
-8.9893 4.7969 -2.8668 0.9585
-10.1624 3.2770 -3.0042 0.9566
-10.4142 2.3596 -3.0044 0.9566
-10.6681 -0.4757 -3.0045 0.9566
-10.1624 -3.2769 -3.0042 0.9566
-9.8298 -4.1681 -3.0040 0.9566
-8.3770 -6.6153 -3.0032 0.9566
-7.0697 -7.9937 -3.0025 0.9566
-5.5388 -9.1180 -3.0016 0.9566
-3.8331 -9.9524 -3.0007 0.9567
-2.0071 -10.4708 -2.9997 0.9567
-1.0670 -10.6061 -2.9991 0.9567
1.7721 -10.5056 -2.9976 0.9567
5.3235 -9.2205 -2.9956 0.9567
6.1221 -8.7088 -2.9951 0.9567
6.8720 -8.1282 -2.9947 0.9567
8.2023 -6.7794 -2.9940 0.9567
9.2725 -5.2166 -2.9934 0.9568
10.0491 -3.4894 -2.9930 0.9568
10.5076 -1.6522 -2.9927 0.9568
10.6128 -0.7104 -2.9927 0.9568
10.4238 2.1187 -2.9928 0.9568
10.1943 3.0382 -2.9929 0.9568
9.8840 3.9337 -2.9931 0.9568
6.8595 7.4165 -2.8424 0.9589
6.1730 7.9987 -2.8427 0.9589
4.6584 8.9691 -2.8436 0.9589
-2.3461 9.8449 -2.8475 0.9588
-3.2136 9.5986 -2.8480 0.9588
-4.0559 9.2760 -2.8484 0.9588
-4.8661 8.8796 -2.8489 0.9588
-5.6380 8.4125 -2.8493 0.9588
-6.7268 6.9555 -2.7225 0.9606
-9.6340 4.6018 -3.0039 0.9566
-10.6362 0.9505 -3.0045 0.9566
-10.0346 0.0000 -3.0042 0.9590
-9.9947 -0.8931 -3.0041 0.9590
-9.8753 -1.7791 -3.0041 0.9590
-9.6774 -2.6509 -3.0039 0.9590
-8.1415 -5.8598 -3.0031 0.9590
-6.9720 -7.2090 -3.0024 0.9590
-5.5819 -8.3287 -3.0017 0.9590
-3.1817 -9.5033 -3.0003 0.9590
-2.3229 -9.7472 -2.9998 0.9590
-0.5577 -10.0013 -2.9989 0.9590
0.3347 -10.0096 -2.9984 0.9590
1.2240 -9.9385 -2.9979 0.9591
2.9658 -9.5609 -2.9969 0.9591
3.8044 -9.2575 -2.9964 0.9591
6.7923 -7.3437 -2.9948 0.9591
7.4181 -6.7092 -2.9944 0.9591
7.9849 -6.0217 -2.9941 0.9591
8.4884 -5.2866 -2.9938 0.9591
8.9246 -4.5097 -2.9936 0.9591
9.2899 -3.6973 -2.9934 0.9591
9.7973 -1.9914 -2.9931 0.9591
9.9948 -0.2227 -2.9930 0.9591
9.9750 0.6678 -2.9930 0.9591
9.8762 1.5530 -2.9931 0.9591
9.6991 2.4259 -2.9932 0.9591
9.4451 3.2797 -2.9933 0.9591
9.1163 4.1076 -2.9935 0.9591
8.3778 4.7133 -2.8778 0.9607
7.8259 5.3722 -2.8418 0.9611
7.3174 6.0480 -2.8421 0.9611
6.7508 6.6760 -2.8424 0.9611
5.4615 7.7692 -2.8431 0.9611
4.7490 8.2256 -2.8435 0.9611
3.9986 8.6169 -2.8439 0.9611
3.2163 8.9400 -2.8444 0.9611
-0.1059 9.5065 -2.8462 0.9611
-0.9518 9.4609 -2.8467 0.9611
-2.6150 9.1453 -2.8476 0.9611
-4.1963 8.5394 -2.8485 0.9611
-4.9405 8.1331 -2.8489 0.9610
-5.6455 7.6622 -2.8493 0.9610
-6.3022 7.1261 -2.8480 0.9611
-7.9682 5.2126 -2.8506 0.9610
-8.8511 4.7231 -3.0035 0.9590
-9.9449 1.3375 -3.0041 0.9590
-9.9449 -1.3374 -3.0041 0.9590
-9.5495 -3.0793 -3.0039 0.9590
-8.8510 -4.7230 -3.0035 0.9590
-7.2866 -6.8916 -3.0026 0.9590
-5.2050 -8.5685 -3.0015 0.9590
-4.4210 -8.9964 -3.0010 0.9590
-3.6022 -9.3529 -3.0006 0.9590
-0.1116 -10.0154 -2.9986 0.9590
0.7802 -9.9840 -2.9981 0.9590
1.6654 -9.8733 -2.9976 0.9591
2.5372 -9.6843 -2.9971 0.9591
4.2127 -9.0782 -2.9962 0.9591
5.0033 -8.6659 -2.9958 0.9591
7.7092 -6.3718 -2.9943 0.9591
8.2449 -5.6598 -2.9940 0.9591
8.7151 -4.9030 -2.9937 0.9591
9.1163 -4.1076 -2.9935 0.9591
9.4451 -3.2797 -2.9933 0.9591
9.6991 -2.4259 -2.9932 0.9591
9.9750 -0.6677 -2.9930 0.9591
9.9948 0.2228 -2.9930 0.9591
9.9355 1.1115 -2.9930 0.9591
9.7974 1.9914 -2.9931 0.9591
9.5816 2.8557 -2.9932 0.9591
9.2899 3.6974 -2.9934 0.9591
7.5792 5.7157 -2.8420 0.9611
6.4471 6.9705 -2.8426 0.9611
5.8018 7.5177 -2.8429 0.9611
3.6111 8.7871 -2.8442 0.9611
2.8151 9.0751 -2.8446 0.9611
-1.3724 9.4099 -2.8469 0.9611
-3.0200 9.0204 -2.8479 0.9611
-4.5729 8.3446 -2.8487 0.9610
-5.2982 7.9055 -2.8491 0.9610
-7.2013 6.2272 -2.8502 0.9610
-7.7277 5.5621 -2.8505 0.9610
-8.1928 4.8527 -2.8507 0.9610
-9.0530 4.3243 -3.0036 0.9590
-9.8753 1.7791 -3.0041 0.9590
-9.9947 0.8932 -3.0041 0.9590
-9.4584 0.0000 -3.0038 0.9611
-9.3082 -1.6769 -3.0037 0.9611
-8.5332 -4.0760 -3.0033 0.9611
-5.2616 -7.8509 -3.0015 0.9611
-3.7852 -8.6570 -3.0007 0.9611
-2.9992 -8.9582 -3.0002 0.9611
-2.1897 -9.1882 -2.9998 0.9611
-1.3630 -9.3453 -2.9993 0.9611
-0.5257 -9.4280 -2.9988 0.9611
1.1539 -9.3689 -2.9979 0.9612
1.9829 -9.2276 -2.9975 0.9612
4.3484 -8.3722 -2.9961 0.9612
5.0757 -7.9509 -2.9957 0.9612
5.7624 -7.4666 -2.9954 0.9612
6.9934 -6.3252 -2.9947 0.9612
7.5279 -5.6770 -2.9944 0.9612
8.0026 -4.9841 -2.9941 0.9612
9.0333 -2.6922 -2.9935 0.9612
9.3669 -1.0478 -2.9934 0.9612
9.1441 2.2871 -2.9935 0.9612
8.9046 3.0921 -2.9936 0.9612
8.5946 3.8726 -2.9938 0.9612
6.8985 5.7018 -2.8423 0.9631
6.3643 6.2938 -2.8426 0.9631
5.1488 7.3243 -2.8433 0.9631
4.4770 7.7545 -2.8437 0.9631
3.0321 8.4278 -2.8445 0.9631
2.2703 8.6655 -2.8449 0.9631
0.6981 8.9335 -2.8458 0.9631
-0.0998 8.9616 -2.8462 0.9631
-3.2230 8.3684 -2.8480 0.9631
-3.9556 8.0495 -2.8484 0.9631
-4.6570 7.6665 -2.8488 0.9631
-5.3216 7.2225 -2.8491 0.9630
-5.9440 6.7211 -2.8495 0.9630
-7.0430 5.5618 -2.8501 0.9630
-7.5108 4.9134 -2.8504 0.9630
-8.7066 3.6920 -3.0034 0.9611
-9.0012 2.9025 -3.0036 0.9611
-9.2242 2.0900 -3.0037 0.9611
-9.4490 0.4214 -3.0038 0.9611
-9.4490 -0.4213 -3.0038 0.9611
-9.3738 -1.2607 -3.0038 0.9611
-8.7066 -3.6919 -3.0034 0.9611
-8.3429 -4.4519 -3.0032 0.9611
-7.9129 -5.1763 -3.0030 0.9611
-6.2623 -7.0808 -3.0020 0.9611
-4.1674 -8.4804 -3.0009 0.9611
-2.5970 -9.0823 -3.0000 0.9611
-1.7781 -9.2759 -2.9995 0.9611
-0.9452 -9.3960 -2.9991 0.9611
-0.1052 -9.4413 -2.9986 0.9611
2.3918 -9.1294 -2.9972 0.9612
3.9714 -8.5582 -2.9963 0.9612
5.4245 -7.7164 -2.9955 0.9612
6.0890 -7.2021 -2.9952 0.9612
7.2679 -6.0070 -2.9945 0.9612
8.2163 -4.6224 -2.9940 0.9612
8.5946 -3.8725 -2.9938 0.9612
8.9046 -3.0920 -2.9936 0.9612
9.3111 -1.4641 -2.9934 0.9612
9.4043 -0.6295 -2.9933 0.9612
9.4229 0.2100 -2.9933 0.9612
9.0333 2.6922 -2.9935 0.9612
8.7583 3.4857 -2.9937 0.9612
8.4138 4.2517 -2.9939 0.9612
7.6011 4.7340 -2.8439 0.9631
6.0780 6.5714 -2.8428 0.9631
5.4696 7.0872 -2.8431 0.9631
4.8177 7.5469 -2.8435 0.9631
4.1274 7.9468 -2.8439 0.9631
3.4042 8.2838 -2.8443 0.9631
0.2994 8.9565 -2.8460 0.9631
-1.2937 8.8704 -2.8469 0.9631
-2.0784 8.7214 -2.8473 0.9631
-2.8468 8.5031 -2.8478 0.9631
-5.6384 6.9787 -2.8493 0.9630
-6.2379 6.4499 -2.8496 0.9630
-7.2841 5.2428 -2.8502 0.9630
-8.0577 4.7726 -2.9742 0.9615
-8.8627 3.3005 -3.0035 0.9611
-9.1217 2.4987 -3.0036 0.9611
-9.3083 1.6770 -3.0037 0.9611
-9.4208 0.8419 -3.0038 0.9611
-8.9396 0.0000 -3.0035 0.9630
-8.9041 -0.7956 -3.0035 0.9630
-8.7977 -1.5850 -3.0035 0.9630
-8.6214 -2.3617 -3.0034 0.9630
-7.2533 -5.2206 -3.0026 0.9630
-6.7593 -5.8450 -3.0023 0.9630
-6.2116 -6.4227 -3.0020 0.9630
-4.9732 -7.4206 -3.0013 0.9630
-4.2925 -7.8328 -3.0009 0.9630
-1.2883 -8.8334 -2.9993 0.9630
1.0907 -8.8560 -2.9979 0.9630
1.8744 -8.7225 -2.9975 0.9631
4.1105 -7.9141 -2.9963 0.9631
4.7980 -7.5159 -2.9959 0.9631
5.4472 -7.0581 -2.9955 0.9631
6.6109 -5.9792 -2.9949 0.9631
7.5650 -4.7115 -2.9944 0.9631
8.2794 -3.2951 -2.9940 0.9631
8.5394 -2.5450 -2.9938 0.9631
8.7318 -1.7748 -2.9937 0.9631
8.6442 2.1621 -2.9938 0.9631
6.5212 5.3900 -2.8425 0.9649
4.2321 7.3302 -2.8438 0.9649
2.8661 7.9666 -2.8446 0.9649
2.1460 8.1912 -2.8450 0.9649
1.4086 8.3509 -2.8454 0.9649
0.6599 8.4444 -2.8458 0.9649
-0.0944 8.4709 -2.8462 0.9649
-1.5953 8.3224 -2.8471 0.9649
-5.0299 6.8266 -2.8490 0.9649
-6.6569 5.2569 -2.8499 0.9648
-7.8854 4.2078 -3.0030 0.9630
-8.2292 3.4895 -3.0031 0.9630
-8.9307 -0.3982 -3.0035 0.9630
-8.7183 -1.9753 -3.0034 0.9630
-8.5075 -2.7433 -3.0033 0.9630
-7.4790 -4.8925 -3.0027 0.9630
-7.0133 -5.5383 -3.0025 0.9630
-6.4919 -6.1399 -3.0022 0.9630
-5.9190 -6.6927 -3.0019 0.9630
-5.2992 -7.1921 -3.0015 0.9630
-4.6375 -7.6342 -3.0011 0.9630
-3.9390 -8.0157 -3.0007 0.9630
-3.2095 -8.3333 -3.0003 0.9630
-2.4547 -8.5847 -2.9999 0.9630
-0.0994 -8.9243 -2.9986 0.9630
2.2609 -8.6297 -2.9973 0.9631
3.0196 -8.3931 -2.9969 0.9631
3.7541 -8.0899 -2.9965 0.9631
5.1277 -7.2942 -2.9957 0.9631
5.7559 -6.8081 -2.9954 0.9631
8.1246 -3.6608 -2.9940 0.9631
8.4178 -2.9229 -2.9939 0.9631
8.6442 -2.1620 -2.9938 0.9631
8.9078 0.1985 -2.9936 0.9631
8.7318 1.7748 -2.9937 0.9631
8.2794 3.2952 -2.9940 0.9631
7.5421 4.6973 -2.9853 0.9632
6.2750 5.6754 -2.8427 0.9649
4.5542 7.1340 -2.8436 0.9649
3.9016 7.5120 -2.8440 0.9649
3.2180 7.8305 -2.8444 0.9649
2.5086 8.0869 -2.8448 0.9649
1.7791 8.2793 -2.8452 0.9649
1.0353 8.4060 -2.8456 0.9649
-1.2229 8.3846 -2.8469 0.9649
-1.9645 8.2437 -2.8473 0.9649
-2.6909 8.0372 -2.8477 0.9649
-3.3960 7.7669 -2.8481 0.9649
-4.7205 7.0435 -2.8488 0.9649
-5.3293 6.5962 -2.8491 0.9648
-6.8847 4.9553 -2.8500 0.9648
-7.6899 4.5547 -3.0029 0.9630
-8.3767 3.1195 -3.0032 0.9630
-8.3354 -1.5017 -3.0032 0.9647
-7.9365 -2.9555 -3.0030 0.9647
-7.6415 -3.6500 -3.0028 0.9647
-5.8853 -6.0854 -3.0018 0.9647
-3.3900 -7.7531 -3.0004 0.9647
-2.6861 -8.0230 -3.0001 0.9647
1.0335 -8.3915 -2.9980 0.9648
1.7760 -8.2650 -2.9976 0.9648
2.5043 -8.0730 -2.9972 0.9648
3.2125 -7.8171 -2.9968 0.9648
3.8950 -7.4992 -2.9964 0.9648
5.7359 -6.2016 -2.9954 0.9648
6.2645 -5.6659 -2.9951 0.9648
6.7433 -5.0854 -2.9948 0.9648
7.1686 -4.4646 -2.9946 0.9648
7.8457 -3.1225 -2.9942 0.9648
8.0921 -2.4117 -2.9941 0.9648
8.2743 -1.6818 -2.9940 0.9648
8.1913 2.0488 -2.9940 0.9648
7.6990 3.4690 -2.9943 0.9648
6.8571 4.7072 -2.9492 0.9653
4.6120 6.5606 -2.8436 0.9665
4.0102 6.9459 -2.8439 0.9665
2.7158 7.5488 -2.8447 0.9665
0.6252 8.0014 -2.8458 0.9665
-0.0894 8.0264 -2.8462 0.9665
-0.8036 7.9877 -2.8466 0.9665
-2.8865 7.4947 -2.8478 0.9665
-3.5426 7.2089 -2.8481 0.9665
-4.1706 6.8658 -2.8485 0.9665
-4.7657 6.4681 -2.8488 0.9665
-5.8383 5.5218 -2.8494 0.9665
-7.4711 3.9867 -3.0027 0.9647
-8.3941 1.1289 -3.0032 0.9647
-8.4614 0.3773 -3.0033 0.9647
-8.4614 -0.3773 -3.0033 0.9647
-8.3941 -1.1289 -3.0032 0.9647
-8.0605 -2.5992 -3.0030 0.9647
-7.4711 -3.9867 -3.0027 0.9647
-7.0861 -4.6355 -3.0025 0.9647
-5.0209 -6.8144 -3.0014 0.9647
-4.3939 -7.2334 -3.0010 0.9647
-3.0410 -7.8959 -3.0003 0.9647
-2.3259 -8.1341 -2.9999 0.9647
1.4062 -8.3365 -2.9978 0.9648
2.8612 -7.9529 -2.9970 0.9648
6.9629 -4.7797 -2.9947 0.9648
7.3601 -4.1407 -2.9945 0.9648
7.6990 -3.4690 -2.9943 0.9648
8.3409 -1.3115 -2.9939 0.9648
8.4244 -0.5639 -2.9939 0.9648
8.4412 0.1881 -2.9939 0.9648
8.2743 1.6819 -2.9940 0.9648
8.0921 2.4117 -2.9941 0.9648
7.8457 3.1225 -2.9942 0.9648
7.5371 3.8087 -2.9944 0.9648
6.4006 4.8270 -2.8426 0.9665
5.9461 5.3780 -2.8429 0.9665
5.4444 5.8864 -2.8431 0.9665
4.3154 6.7600 -2.8438 0.9665
3.6971 7.1181 -2.8441 0.9665
1.6858 7.8451 -2.8452 0.9665
0.2682 8.0219 -2.8460 0.9665
-0.4469 8.0150 -2.8464 0.9665
-2.5496 7.6153 -2.8476 0.9665
-3.8604 7.0444 -2.8483 0.9665
-4.4726 6.6736 -2.8487 0.9665
-5.0494 6.2498 -2.8490 0.9665
-6.6404 4.7795 -2.9011 0.9659
-7.6415 3.6501 -3.0028 0.9647
-8.1684 2.2376 -3.0031 0.9647
-8.3354 1.5017 -3.0032 0.9647
-8.4362 0.7539 -3.0033 0.9647
-8.0102 -0.7157 -3.0030 0.9662
-7.9146 -1.4259 -3.0030 0.9662
-7.7560 -2.1246 -3.0029 0.9662
-7.2558 -3.4658 -3.0026 0.9662
-6.5254 -4.6967 -3.0022 0.9663
-5.5883 -5.7783 -3.0017 0.9663
-5.0513 -6.2521 -3.0014 0.9663
-4.4743 -6.6762 -3.0010 0.9663
-3.8619 -7.0471 -3.0007 0.9663
-3.2190 -7.3620 -3.0003 0.9663
-0.4471 -8.0183 -2.9988 0.9663
0.2683 -8.0253 -2.9984 0.9663
1.6865 -7.8485 -2.9976 0.9663
2.3781 -7.6662 -2.9972 0.9663
3.0506 -7.4232 -2.9969 0.9663
4.3174 -6.7631 -2.9962 0.9663
6.4038 -4.8293 -2.9950 0.9663
6.8077 -4.2398 -2.9948 0.9663
7.8578 -1.5971 -2.9942 0.9663
7.9686 -0.8914 -2.9941 0.9663
7.9211 1.2455 -2.9942 0.9663
7.7790 1.9457 -2.9942 0.9663
5.8683 4.8503 -2.8429 0.9680
5.4138 5.3538 -2.8432 0.9680
4.9163 5.8151 -2.8434 0.9680
3.8082 6.5961 -2.8441 0.9680
0.5937 7.5981 -2.8458 0.9680
-0.0849 7.6218 -2.8462 0.9680
-1.4353 7.4879 -2.8470 0.9680
-2.0964 7.3314 -2.8473 0.9680
-2.7409 7.1166 -2.8477 0.9680
-3.3638 6.8453 -2.8480 0.9680
-6.0537 4.7805 -2.8804 0.9676
-6.7284 4.4015 -3.0023 0.9663
-7.0940 3.7855 -3.0025 0.9663
-7.4032 3.1392 -3.0027 0.9662
-7.8431 1.7771 -3.0029 0.9662
-8.0342 -0.3582 -3.0030 0.9662
-7.8431 -1.7770 -3.0029 0.9662
-7.0940 -3.7854 -3.0025 0.9663
-6.3095 -4.9825 -3.0021 0.9663
-5.8404 -5.5238 -3.0018 0.9663
-5.3251 -6.0212 -3.0015 0.9663
-3.5440 -7.2117 -3.0005 0.9663
-2.8877 -7.4976 -3.0002 0.9663
-2.2086 -7.7239 -2.9998 0.9663
-1.5122 -7.8887 -2.9994 0.9663
-0.0895 -8.0298 -2.9986 0.9663
1.3353 -7.9163 -2.9978 0.9663
2.0344 -7.7651 -2.9974 0.9663
4.0121 -6.9491 -2.9963 0.9663
4.6142 -6.5637 -2.9960 0.9663
5.1795 -6.1263 -2.9957 0.9663
6.1825 -5.1100 -2.9951 0.9663
6.6123 -4.5391 -2.9949 0.9663
6.9896 -3.9323 -2.9947 0.9663
7.3114 -3.2944 -2.9945 0.9663
7.5752 -2.6304 -2.9943 0.9663
7.7790 -1.9456 -2.9942 0.9663
7.9211 -1.2455 -2.9942 0.9663
7.9686 0.8914 -2.9941 0.9663
7.1576 3.6169 -2.9946 0.9663
6.8077 4.2399 -2.9948 0.9663
4.6526 6.0286 -2.8436 0.9680
2.8956 7.0460 -2.8446 0.9680
1.6008 7.4497 -2.8453 0.9680
0.9315 7.5636 -2.8457 0.9680
-1.1003 7.5439 -2.8468 0.9680
-1.7676 7.4171 -2.8472 0.9680
-2.4210 7.2312 -2.8475 0.9680
-3.0554 6.9879 -2.8479 0.9680
-3.6657 6.6890 -2.8482 0.9680
-5.3043 5.4847 -2.8491 0.9679
-6.5254 4.6967 -3.0022 0.9663
-7.2558 3.4658 -3.0026 0.9662
-7.7560 2.1246 -3.0029 0.9662
-7.9146 1.4259 -3.0030 0.9662
-7.6511 0.0000 -3.0028 0.9677
-6.9029 -3.2972 -3.0024 0.9677
-6.5817 -3.8983 -3.0022 0.9677
-6.2082 -4.4683 -3.0020 0.9677
-4.8058 -5.9482 -3.0012 0.9677
-3.0626 -7.0042 -3.0003 0.9677
-2.4267 -7.2482 -2.9999 0.9677
-1.7717 -7.4345 -2.9995 0.9677
-1.1029 -7.5618 -2.9992 0.9677
0.2553 -7.6355 -2.9984 0.9677
0.9338 -7.5816 -2.9980 0.9677
3.5193 -6.7758 -2.9966 0.9677
4.1079 -6.4349 -2.9963 0.9677
4.6639 -6.0431 -2.9960 0.9677
5.1828 -5.6035 -2.9957 0.9677
5.6604 -5.1195 -2.9954 0.9677
6.0931 -4.5950 -2.9952 0.9677
6.8104 -3.4414 -2.9948 0.9677
7.0893 -2.8215 -2.9946 0.9677
7.3120 -2.1792 -2.9945 0.9677
7.4767 -1.5197 -2.9944 0.9677
7.6275 -0.1700 -2.9943 0.9677
7.6124 0.5096 -2.9943 0.9677
7.5369 1.1852 -2.9944 0.9677
6.9568 3.1346 -2.9947 0.9677
6.6506 3.7415 -2.9949 0.9677
5.7109 4.7202 -2.9079 0.9687
5.1512 5.0941 -2.8433 0.9693
4.6778 5.5329 -2.8436 0.9693
4.1672 5.9279 -2.8439 0.9693
2.4538 6.8205 -2.8448 0.9693
0.5649 7.2291 -2.8459 0.9693
-0.7260 7.2166 -2.8466 0.9693
-1.9945 6.9753 -2.8473 0.9693
-4.3053 5.8433 -2.8486 0.9693
-5.2741 4.9883 -2.8491 0.9693
-6.0027 4.7403 -3.0019 0.9677
-7.0432 2.9866 -3.0025 0.9677
-7.4617 1.6906 -3.0027 0.9677
-7.6435 0.3409 -3.0028 0.9677
-7.6435 -0.3408 -3.0028 0.9677
-7.2814 -2.3479 -3.0026 0.9677
-6.0027 -4.7403 -3.0019 0.9677
-5.5565 -5.2553 -3.0017 0.9677
-5.0663 -5.7285 -3.0014 0.9677
-3.3717 -6.8613 -3.0004 0.9677
-2.7474 -7.1333 -3.0001 0.9677
-0.7649 -7.6029 -2.9990 0.9677
-0.0851 -7.6398 -2.9986 0.9677
1.2705 -7.5320 -2.9979 0.9677
1.9356 -7.3881 -2.9975 0.9677
2.5852 -7.1856 -2.9971 0.9677
4.3903 -6.2452 -2.9961 0.9677
4.9282 -5.8291 -2.9958 0.9677
5.8826 -4.8621 -2.9953 0.9677
6.2915 -4.3189 -2.9951 0.9677
6.9568 -3.1345 -2.9947 0.9677
7.2078 -2.5028 -2.9946 0.9677
7.4017 -1.8512 -2.9944 0.9677
7.5369 -1.1851 -2.9944 0.9677
7.6275 0.1700 -2.9943 0.9677
7.5822 0.8482 -2.9943 0.9677
7.3120 2.1793 -2.9945 0.9677
4.4269 5.7361 -2.8437 0.9693
3.8992 6.1080 -2.8440 0.9693
2.7550 6.7040 -2.8446 0.9693
2.1477 6.9235 -2.8450 0.9693
0.8863 7.1963 -2.8457 0.9693
-1.0468 7.1775 -2.8468 0.9693
-2.3034 6.8799 -2.8475 0.9693
-2.9069 6.6483 -2.8478 0.9693
-4.5616 5.6459 -2.8487 0.9693
-5.0465 5.2180 -2.8490 0.9693
-5.5281 4.7804 -2.8683 0.9691
-6.2082 4.4684 -3.0020 0.9677
-6.5817 3.8984 -3.0022 0.9677
-6.9030 3.2973 -3.0024 0.9677
-7.1694 2.6699 -3.0026 0.9677
-7.3789 2.0213 -3.0027 0.9677
-7.5297 1.3566 -3.0028 0.9677
-7.2918 0.0000 -3.0026 0.9689
-7.2628 -0.6489 -3.0026 0.9689
-7.1761 -1.2928 -3.0026 0.9689
-7.0324 -1.9263 -3.0025 0.9690
-6.2727 -3.7153 -3.0021 0.9690
-5.9167 -4.2586 -3.0019 0.9690
-4.0571 -6.0536 -3.0008 0.9690
-3.5018 -6.3900 -3.0005 0.9690
-2.9189 -6.6756 -3.0002 0.9690
-2.3129 -6.9081 -2.9998 0.9690
-1.6886 -7.0858 -2.9995 0.9690
0.2433 -7.2775 -2.9984 0.9690
0.8900 -7.2261 -2.9981 0.9690
1.5294 -7.1174 -2.9977 0.9690
2.1566 -6.9522 -2.9974 0.9690
5.8077 -4.3798 -2.9953 0.9690
6.7573 -2.6893 -2.9948 0.9690
6.9696 -2.0771 -2.9947 0.9690
7.2271 -0.8084 -2.9945 0.9690
7.2703 -0.1620 -2.9945 0.9690
7.1840 1.1296 -2.9946 0.9690
6.8703 2.3856 -2.9947 0.9690
6.6310 2.9878 -2.9949 0.9690
5.9969 4.1166 -2.9952 0.9690
2.9078 6.2661 -2.8446 0.9706
2.3388 6.5008 -2.8449 0.9706
1.7511 6.6840 -2.8452 0.9706
0.5384 6.8902 -2.8459 0.9705
-0.0770 6.9115 -2.8462 0.9705
-1.3015 6.7900 -2.8469 0.9705
-3.0502 6.2071 -2.8479 0.9705
-6.1008 3.9910 -3.0020 0.9690
-6.7125 2.8463 -3.0023 0.9690
-7.1113 1.6112 -3.0025 0.9690
-7.2267 0.9719 -3.0026 0.9689
-7.2846 -0.3248 -3.0026 0.9689
-7.2266 -0.9719 -3.0026 0.9689
-6.9395 -2.2377 -3.0024 0.9690
-6.4322 -3.4323 -3.0021 0.9690
-5.7209 -4.5178 -3.0017 0.9690
-5.2957 -5.0086 -3.0015 0.9690
-4.8285 -5.4596 -3.0012 0.9690
-4.3230 -5.8671 -3.0010 0.9690
-3.7832 -6.2280 -3.0007 0.9690
-3.2135 -6.5393 -3.0003 0.9690
-0.0811 -7.2816 -2.9986 0.9690
1.2109 -7.1788 -2.9979 0.9690
2.4640 -6.8488 -2.9972 0.9690
3.0635 -6.6016 -2.9969 0.9690
4.1846 -5.9526 -2.9962 0.9690
4.6973 -5.5560 -2.9959 0.9690
5.1727 -5.1154 -2.9957 0.9690
6.3390 -3.5663 -2.9950 0.9690
7.0551 -1.7646 -2.9946 0.9690
7.1266 1.4485 -2.9946 0.9690
6.9696 2.0772 -2.9947 0.9690
6.7573 2.6894 -2.9948 0.9690
4.6889 5.0696 -2.8436 0.9706
4.2194 5.4673 -2.8438 0.9706
3.7164 5.8217 -2.8441 0.9706
3.1839 6.1300 -2.8444 0.9706
2.0470 6.5989 -2.8450 0.9706
1.4517 6.7557 -2.8454 0.9706
0.2310 6.9077 -2.8460 0.9705
-0.3848 6.9017 -2.8464 0.9705
-0.9977 6.8409 -2.8467 0.9705
-2.1953 6.5571 -2.8474 0.9705
-2.7705 6.3364 -2.8477 0.9705
-4.8096 4.9731 -2.8488 0.9705
-5.9167 4.2586 -3.0019 0.9690
-6.2727 3.7154 -3.0021 0.9690
-7.1761 1.2929 -3.0026 0.9689
-7.2628 0.6490 -3.0026 0.9689
-6.9604 0.0000 -3.0024 0.9701
-6.9328 -0.6195 -3.0024 0.9701
-6.7128 -1.8388 -3.0023 0.9701
-6.5223 -2.4289 -3.0022 0.9701
-6.2799 -2.9996 -3.0021 0.9701
-5.9877 -3.5465 -3.0019 0.9701
-5.6479 -4.0651 -3.0017 0.9701
-5.2633 -4.5513 -3.0015 0.9701
-4.8369 -5.0013 -3.0013 0.9701
-4.3722 -5.4115 -3.0010 0.9701
-3.3428 -6.0998 -3.0004 0.9702
-2.2079 -6.5945 -2.9998 0.9702
-0.3870 -6.9411 -2.9988 0.9702
0.2323 -6.9472 -2.9984 0.9702
2.6410 -6.4265 -2.9971 0.9702
4.2438 -5.4988 -2.9962 0.9702
5.1506 -4.6584 -2.9957 0.9702
5.5444 -4.1812 -2.9955 0.9702
6.1972 -3.1316 -2.9951 0.9702
6.6537 -1.9830 -2.9949 0.9702
6.8036 -1.3829 -2.9948 0.9702
6.8583 1.0785 -2.9947 0.9702
6.3304 2.8523 -2.9950 0.9702
5.7250 3.9300 -2.9954 0.9702
5.3529 4.4243 -2.9956 0.9702
4.2564 5.0345 -2.8438 0.9717
3.7918 5.3939 -2.8441 0.9717
2.2327 6.2059 -2.8449 0.9717
1.0972 6.5049 -2.8456 0.9717
-0.0735 6.5979 -2.8462 0.9717
-0.6605 6.5659 -2.8465 0.9717
-2.9117 5.9252 -2.8478 0.9716
-3.4279 5.6431 -2.8481 0.9716
-3.9169 5.3161 -2.8484 0.9716
-5.8236 3.8096 -3.0018 0.9701
-6.4075 2.7171 -3.0021 0.9701
-6.6241 2.1360 -3.0023 0.9701
-6.9535 0.3101 -3.0024 0.9701
-6.9535 -0.3100 -3.0024 0.9701
-6.8983 -0.9277 -3.0024 0.9701
-4.6091 -5.2116 -3.0011 0.9701
-3.0676 -6.2424 -3.0003 0.9702
-0.6959 -6.9174 -2.9989 0.9702
1.1560 -6.8531 -2.9979 0.9702
1.7612 -6.7223 -2.9976 0.9702
2.9245 -6.3022 -2.9969 0.9702
3.4735 -6.0162 -2.9966 0.9702
4.9382 -4.8834 -2.9958 0.9702
6.0517 -3.4046 -2.9952 0.9702
6.3304 -2.8523 -2.9950 0.9702
6.5588 -2.2774 -2.9949 0.9702
6.7353 -1.6846 -2.9948 0.9702
6.9270 -0.4637 -2.9947 0.9702
6.9408 0.1547 -2.9947 0.9702
6.8036 1.3829 -2.9948 0.9702
6.4510 2.5675 -2.9950 0.9702
5.5444 4.1813 -2.9955 0.9702
5.1506 4.6585 -2.9957 0.9702
3.5479 5.5577 -2.8442 0.9717
3.0395 5.8520 -2.8445 0.9717
1.9541 6.2995 -2.8451 0.9717
1.3858 6.4492 -2.8454 0.9717
0.8064 6.5477 -2.8457 0.9717
0.2205 6.5942 -2.8461 0.9717
-2.6447 6.0487 -2.8476 0.9717
-4.1500 5.1365 -2.8485 0.9716
-4.6194 4.7764 -2.8663 0.9715
-5.2633 4.5514 -3.0015 0.9701
-5.6479 4.0652 -3.0017 0.9701
-5.9877 3.5466 -3.0019 0.9701
-6.5223 2.4289 -3.0022 0.9701
-6.8500 1.2341 -3.0024 0.9701
-6.9328 0.6196 -3.0024 0.9701
-6.6537 0.0000 -3.0023 0.9712
-6.4170 -1.7578 -3.0021 0.9712
-6.0032 -2.8675 -3.0019 0.9712
-5.0314 -4.3508 -3.0014 0.9712
-4.1796 -5.1732 -3.0009 0.9712
-3.1956 -5.8312 -3.0003 0.9712
-1.5410 -6.4663 -2.9994 0.9713
-0.9592 -6.5771 -2.9991 0.9713
-0.3700 -6.6356 -2.9988 0.9713
1.3958 -6.4955 -2.9978 0.9713
2.5248 -6.1438 -2.9972 0.9713
3.5735 -5.5977 -2.9966 0.9713
4.0571 -5.2570 -2.9963 0.9713
4.9241 -4.4536 -2.9958 0.9713
5.3006 -3.9974 -2.9956 0.9713
6.1674 -2.4546 -2.9951 0.9713
6.3612 -1.8958 -2.9950 0.9713
6.5045 -1.3221 -2.9949 0.9713
6.5569 1.0310 -2.9949 0.9713
6.2705 2.1773 -2.9951 0.9713
6.0521 2.7270 -2.9952 0.9713
5.7856 3.2550 -2.9953 0.9713
5.4733 3.7572 -2.9955 0.9713
5.1175 4.2297 -2.9957 0.9713
3.6250 5.1567 -2.8442 0.9727
3.1519 5.4594 -2.8444 0.9727
2.1345 5.9329 -2.8450 0.9727
1.5981 6.1000 -2.8453 0.9727
1.0490 6.2187 -2.8456 0.9727
0.4913 6.2880 -2.8459 0.9727
-0.6315 6.2769 -2.8465 0.9727
-1.1878 6.1964 -2.8468 0.9727
-1.7347 6.0668 -2.8471 0.9727
-2.2681 5.8889 -2.8474 0.9727
-3.2769 5.3946 -2.8480 0.9727
-4.8325 4.5705 -3.0013 0.9712
-5.2205 4.1226 -3.0015 0.9712
-6.3323 2.0419 -3.0021 0.9712
-6.4891 1.4703 -3.0022 0.9712
-6.6471 0.2964 -3.0023 0.9712
-6.6471 -0.2964 -3.0023 0.9712
-6.3322 -2.0419 -3.0021 0.9712
-6.1251 -2.5972 -3.0020 0.9712
-5.8694 -3.1320 -3.0018 0.9712
-4.8324 -4.5704 -3.0013 0.9712
-4.4061 -4.9821 -3.0010 0.9712
-3.9449 -5.3540 -3.0008 0.9712
-2.9325 -5.9675 -3.0002 0.9712
-1.2513 -6.5282 -2.9993 0.9713
-0.0740 -6.6452 -2.9986 0.9713
1.1051 -6.5515 -2.9979 0.9713
1.6837 -6.4265 -2.9976 0.9713
2.2487 -6.2505 -2.9973 0.9713
2.7959 -6.0249 -2.9970 0.9713
3.8191 -5.4327 -2.9964 0.9713
4.7210 -4.6687 -2.9959 0.9713
5.4733 -3.7572 -2.9955 0.9713
6.4392 -1.6105 -2.9950 0.9713
6.5568 -1.0310 -2.9949 0.9713
6.6357 0.1479 -2.9949 0.9713
6.5962 0.7379 -2.9949 0.9713
6.5045 1.3221 -2.9949 0.9713
6.1674 2.4546 -2.9951 0.9713
5.9247 2.9939 -2.9953 0.9713
5.6350 3.5096 -2.9954 0.9713
5.3006 3.9974 -2.9956 0.9713
4.3720 4.7270 -2.9053 0.9721
3.3918 5.3132 -2.8443 0.9727
2.3965 5.8316 -2.8448 0.9727
1.3249 6.1654 -2.8454 0.9727
-0.3512 6.2984 -2.8464 0.9727
-1.4627 6.1377 -2.8470 0.9727
-3.5141 5.2435 -2.8481 0.9727
-3.9672 4.9103 -2.8484 0.9727
-5.0314 4.3509 -3.0014 0.9712
-5.7239 3.3903 -3.0018 0.9712
-6.0032 2.8675 -3.0019 0.9712
-6.5482 1.1797 -3.0022 0.9712
-6.6273 0.5923 -3.0023 0.9712
-6.3688 0.0000 -3.0021 0.9722
-6.1423 -1.6825 -3.0020 0.9722
-5.7462 -2.7447 -3.0018 0.9722
-5.1680 -3.7196 -3.0014 0.9722
-2.5497 -5.8312 -3.0000 0.9722
-1.4751 -6.1897 -2.9994 0.9723
-0.9182 -6.2957 -2.9991 0.9723
-0.3542 -6.3518 -2.9988 0.9723
0.7775 -6.3126 -2.9981 0.9723
1.3361 -6.2178 -2.9978 0.9723
1.8840 -6.0735 -2.9975 0.9723
2.4169 -5.8812 -2.9972 0.9723
2.9305 -5.6421 -2.9969 0.9723
3.4207 -5.3585 -2.9967 0.9723
5.9039 -2.3497 -2.9953 0.9723
6.3144 -0.7063 -2.9951 0.9723
6.3522 -0.1415 -2.9950 0.9723
5.7935 2.6104 -2.9953 0.9723
5.2394 3.5967 -2.9957 0.9723
4.8988 4.0490 -2.9958 0.9723
4.5193 4.4693 -2.9961 0.9723
3.4701 4.9363 -2.8442 0.9737
1.5298 5.8391 -2.8453 0.9737
-1.6605 5.8072 -2.8471 0.9736
-2.1710 5.6370 -2.8474 0.9736
-2.6644 5.4219 -2.8477 0.9736
-4.6256 4.3749 -3.0011 0.9722
-4.9970 3.9461 -3.0014 0.9722
-5.3287 3.4859 -3.0015 0.9722
-5.6181 2.9979 -3.0017 0.9722
-5.8629 2.4861 -3.0018 0.9722
-6.0611 1.9545 -3.0019 0.9722
-6.3119 0.8489 -3.0021 0.9722
-6.3625 -0.2837 -3.0021 0.9722
-5.6181 -2.9979 -3.0017 0.9722
-4.6256 -4.3748 -3.0011 0.9722
-2.8070 -5.7121 -3.0001 0.9722
-2.2873 -5.9387 -2.9998 0.9722
0.4955 -6.3414 -2.9983 0.9723
1.0579 -6.2714 -2.9980 0.9723
1.6117 -6.1517 -2.9977 0.9723
3.1788 -5.5057 -2.9968 0.9723
4.8988 -4.0489 -2.9958 0.9723
5.2394 -3.5966 -2.9956 0.9723
6.0026 -2.0843 -2.9952 0.9723
6.2768 -0.9869 -2.9951 0.9723
6.3522 0.1416 -2.9950 0.9723
5.9039 2.3497 -2.9953 0.9723
5.6716 2.8660 -2.9954 0.9723
5.3943 3.3596 -2.9956 0.9723
5.0742 3.8266 -2.9957 0.9723
4.3159 4.6663 -2.9962 0.9723
3.6865 4.7766 -2.8441 0.9737
3.2469 5.0862 -2.8444 0.9737
1.7883 5.7649 -2.8452 0.9737
0.2018 6.0344 -2.8461 0.9737
-0.8715 5.9759 -2.8467 0.9736
-3.8526 4.7685 -2.8897 0.9733
-4.4260 4.5764 -3.0010 0.9722
-4.8161 4.1646 -3.0013 0.9722
-5.9680 2.2225 -3.0019 0.9722
-6.1423 1.6826 -3.0020 0.9722
-6.3435 0.5669 -3.0021 0.9722
-6.1034 0.0000 -3.0020 0.9732
-6.0791 -0.5432 -3.0019 0.9732
-6.0065 -1.0821 -3.0019 0.9732
-5.7192 -2.1298 -3.0017 0.9732
-5.5067 -2.6303 -3.0016 0.9732
-4.9526 -3.5646 -3.0013 0.9732
-4.6154 -3.9911 -3.0011 0.9732
-4.2415 -4.3857 -3.0009 0.9732
-2.4435 -5.5884 -2.9999 0.9732
-1.9362 -5.7831 -2.9996 0.9732
0.2037 -6.0928 -2.9984 0.9732
1.2805 -5.9589 -2.9978 0.9732
1.8056 -5.8208 -2.9976 0.9732
2.3163 -5.6364 -2.9973 0.9732
4.8631 -3.6674 -2.9959 0.9732
5.1699 -3.2198 -2.9957 0.9732
5.4357 -2.7468 -2.9955 0.9732
5.6584 -2.2520 -2.9954 0.9732
5.9677 -1.2129 -2.9952 0.9732
6.0157 0.9459 -2.9952 0.9732
5.9078 1.4777 -2.9953 0.9732
5.3081 2.9863 -2.9956 0.9732
4.6950 3.8806 -2.9960 0.9732
3.9332 4.6522 -2.9964 0.9732
3.3365 4.7463 -2.8536 0.9745
2.8917 5.0086 -2.8446 0.9745
1.9582 5.4429 -2.8451 0.9745
1.4661 5.5961 -2.8454 0.9745
0.9623 5.7049 -2.8456 0.9745
-0.0645 5.7863 -2.8462 0.9745
-1.0896 5.6844 -2.8468 0.9745
-1.5914 5.5654 -2.8471 0.9745
-4.4329 4.1926 -3.0010 0.9732
-4.7888 3.7817 -3.0012 0.9732
-5.1066 3.3406 -3.0014 0.9732
-5.3840 2.8730 -3.0016 0.9732
-5.8085 1.8730 -3.0018 0.9732
-5.9523 1.3486 -3.0019 0.9732
-6.0488 0.8135 -3.0019 0.9732
-5.8085 -1.8730 -3.0018 0.9732
-5.6186 -2.3825 -3.0017 0.9732
-5.3840 -2.8729 -3.0016 0.9732
-4.4329 -4.1925 -3.0010 0.9732
-3.6187 -4.9113 -3.0006 0.9732
-2.1920 -5.6914 -2.9998 0.9732
-1.1479 -5.9887 -2.9992 0.9732
-0.6103 -6.0665 -2.9989 0.9732
-0.0679 -6.0961 -2.9986 0.9732
0.4749 -6.0774 -2.9983 0.9732
1.0138 -6.0104 -2.9980 0.9732
1.5446 -5.8957 -2.9977 0.9732
2.0630 -5.7343 -2.9974 0.9732
2.5650 -5.5274 -2.9971 0.9732
3.5038 -4.9841 -2.9966 0.9732
4.3313 -4.2833 -2.9962 0.9732
5.0215 -3.4471 -2.9958 0.9732
5.3081 -2.9862 -2.9956 0.9732
6.0760 -0.4067 -2.9952 0.9732
6.0880 0.1357 -2.9952 0.9732
5.8362 1.7394 -2.9953 0.9732
5.4357 2.7468 -2.9955 0.9732
4.8631 3.6674 -2.9959 0.9732
4.5177 4.0860 -2.9961 0.9732
4.1363 4.4722 -2.9963 0.9732
3.6464 4.7248 -2.9355 0.9737
3.1118 4.8746 -2.8444 0.9746
2.6658 5.1326 -2.8447 0.9745
0.7072 5.7424 -2.8458 0.9745
0.1934 5.7832 -2.8461 0.9745
-0.3222 5.7780 -2.8464 0.9745
-0.8353 5.7270 -2.8466 0.9745
-1.3418 5.6304 -2.8469 0.9745
-1.8378 5.4893 -2.8472 0.9745
-2.3193 5.3044 -2.8475 0.9745
-3.2236 4.8099 -2.8480 0.9745
-4.9526 3.5647 -3.0013 0.9732
-5.2505 3.1099 -3.0015 0.9732
-5.5067 2.6304 -3.0016 0.9732
-6.0791 0.5433 -3.0020 0.9732
-5.8553 0.0001 -3.0018 0.9740
-5.8320 -0.5211 -3.0018 0.9740
-5.6470 -1.5469 -3.0017 0.9740
-5.2829 -2.5234 -3.0015 0.9740
-5.0371 -2.9835 -3.0014 0.9740
-4.7513 -3.4198 -3.0012 0.9740
-4.0692 -4.2075 -3.0008 0.9740
-3.6783 -4.5526 -3.0006 0.9740
-2.8123 -5.1319 -3.0001 0.9740
-2.3442 -5.3613 -2.9999 0.9740
-1.3562 -5.6910 -2.9993 0.9740
0.1954 -5.8454 -2.9985 0.9741
1.2285 -5.7171 -2.9979 0.9741
2.6946 -5.1879 -2.9971 0.9741
3.1454 -4.9271 -2.9968 0.9741
3.5711 -4.6272 -2.9966 0.9741
5.2152 -2.6353 -2.9957 0.9741
5.4289 -2.1606 -2.9955 0.9741
5.7256 -1.1637 -2.9954 0.9741
5.8411 -0.1302 -2.9953 0.9741
5.7717 0.9076 -2.9954 0.9741
5.6682 1.4177 -2.9954 0.9741
5.0928 2.8651 -2.9957 0.9741
4.8178 3.3072 -2.9959 0.9741
4.5046 3.7231 -2.9961 0.9741
4.1556 4.1096 -2.9963 0.9741
3.7736 4.4634 -2.9965 0.9741
3.3194 4.7220 -2.9591 0.9744
2.3358 5.0336 -2.8449 0.9754
1.8787 5.2220 -2.8451 0.9754
1.4066 5.3689 -2.8454 0.9754
0.9232 5.4734 -2.8457 0.9754
0.4325 5.5344 -2.8459 0.9754
-0.0618 5.5514 -2.8462 0.9754
-0.5558 5.5244 -2.8465 0.9754
-1.0454 5.4536 -2.8468 0.9753
-3.8776 4.3845 -3.0007 0.9740
-4.5942 3.6280 -3.0011 0.9740
-4.8991 3.2049 -3.0013 0.9740
-5.1652 2.7562 -3.0014 0.9740
-5.7104 1.2938 -3.0017 0.9740
-5.8495 0.2608 -3.0018 0.9740
-5.7104 -1.2938 -3.0017 0.9740
-5.5724 -1.7968 -3.0017 0.9740
-5.3902 -2.2856 -3.0016 0.9740
-4.8991 -3.2048 -3.0013 0.9740
-4.5941 -3.6279 -3.0011 0.9740
-4.2527 -4.0221 -3.0009 0.9740
-3.4717 -4.7118 -3.0005 0.9740
-2.5808 -5.2518 -3.0000 0.9740
-2.1030 -5.4602 -2.9997 0.9740
-1.6085 -5.6252 -2.9995 0.9740
-1.1013 -5.7455 -2.9992 0.9740
-0.5855 -5.8201 -2.9989 0.9740
-0.0652 -5.8486 -2.9986 0.9741
1.4819 -5.6564 -2.9977 0.9741
1.9793 -5.5015 -2.9975 0.9741
2.4609 -5.3030 -2.9972 0.9741
4.1556 -4.1095 -2.9962 0.9741
5.0928 -2.8651 -2.9957 0.9741
5.3273 -2.4003 -2.9956 0.9741
5.8411 0.1302 -2.9953 0.9741
5.2152 2.6354 -2.9957 0.9741
4.9602 3.0892 -2.9958 0.9741
4.6658 3.5187 -2.9960 0.9741
4.3344 3.9203 -2.9962 0.9741
1.6443 5.3007 -2.8453 0.9754
1.1661 5.4265 -2.8455 0.9754
-0.3091 5.5434 -2.8463 0.9754
-1.7632 5.2663 -2.8472 0.9753
-2.6694 4.8711 -2.8477 0.9753
-4.4278 3.8289 -3.0010 0.9740
-4.7513 3.4198 -3.0012 0.9740
-5.0371 2.9835 -3.0014 0.9740
-5.2829 2.5234 -3.0015 0.9740
-5.4868 2.0433 -3.0016 0.9740
-5.6470 1.5469 -3.0017 0.9740
-5.7624 1.0382 -3.0018 0.9740
-5.6228 0.0000 -3.0017 0.9748
-5.2689 -1.9621 -3.0015 0.9748
-5.0732 -2.4233 -3.0014 0.9748
-4.8372 -2.8650 -3.0013 0.9748
-4.5627 -3.2840 -3.0011 0.9748
-4.2521 -3.6769 -3.0009 0.9748
-3.9077 -4.0405 -3.0007 0.9748
-2.7007 -4.9282 -3.0001 0.9748
-1.7839 -5.3281 -2.9996 0.9748
-0.3127 -5.6085 -2.9987 0.9749
0.1877 -5.6136 -2.9985 0.9749
2.1342 -5.1932 -2.9974 0.9749
3.0207 -4.7318 -2.9969 0.9749
3.8112 -4.1206 -2.9964 0.9749
4.7636 -2.9668 -2.9959 0.9749
5.3776 -1.6027 -2.9956 0.9749
5.4988 -1.1176 -2.9955 0.9749
5.5763 -0.6238 -2.9955 0.9749
5.6097 -0.1250 -2.9954 0.9749
5.5986 0.3748 -2.9955 0.9749
5.5431 0.8717 -2.9955 0.9749
5.1162 2.3053 -2.9957 0.9749
4.6269 3.1762 -2.9960 0.9749
3.9909 3.9467 -2.9963 0.9749
3.6240 4.2865 -2.9966 0.9749
3.2284 4.5924 -2.9968 0.9749
2.7323 4.7325 -2.9172 0.9755
0.8866 5.2563 -2.8457 0.9761
-0.0594 5.3312 -2.8462 0.9761
-1.0039 5.2372 -2.8467 0.9761
-1.4662 5.1275 -2.8470 0.9761
-3.3339 4.5248 -3.0004 0.9748
-4.0839 3.8626 -3.0008 0.9748
-4.4118 3.4840 -3.0010 0.9748
-4.7046 3.0776 -3.0012 0.9748
-5.3512 1.7256 -3.0015 0.9748
-5.4837 1.2425 -3.0016 0.9748
-5.5726 -0.7494 -3.0017 0.9748
-5.3512 -1.7255 -3.0015 0.9748
-5.1762 -2.1949 -3.0014 0.9748
-4.7046 -3.0776 -3.0012 0.9748
-4.4118 -3.4839 -3.0010 0.9748
-3.7237 -4.2104 -3.0006 0.9748
-3.3339 -4.5248 -3.0004 0.9748
-2.9177 -4.8032 -3.0002 0.9748
-2.0195 -5.2436 -2.9997 0.9748
-1.5447 -5.4020 -2.9994 0.9748
0.9341 -5.5377 -2.9980 0.9749
1.9008 -5.2834 -2.9975 0.9749
3.2283 -4.5924 -2.9968 0.9749
3.6240 -4.2865 -2.9965 0.9749
4.6268 -3.1761 -2.9960 0.9749
4.8909 -2.7516 -2.9958 0.9749
5.5430 -0.8716 -2.9955 0.9749
5.6097 0.1251 -2.9954 0.9749
5.3776 1.6027 -2.9956 0.9749
5.2138 2.0751 -2.9957 0.9749
5.0086 2.5310 -2.9958 0.9749
4.7636 2.9668 -2.9959 0.9749
3.0119 4.7180 -2.9881 0.9749
2.4661 4.7481 -2.8562 0.9760
0.6516 5.2908 -2.8458 0.9761
0.1781 5.3283 -2.8461 0.9761
-0.7696 5.2765 -2.8466 0.9761
-2.1368 4.8870 -2.8474 0.9761
-2.6091 4.7611 -2.8983 0.9757
-4.2521 3.6769 -3.0009 0.9748
-4.8372 2.8651 -3.0013 0.9748
-5.5336 0.9970 -3.0016 0.9748
-5.6005 0.5005 -3.0017 0.9748
-5.4044 0.0000 -3.0016 0.9756
-4.8761 -2.3291 -3.0013 0.9756
-4.0869 -3.5341 -3.0008 0.9756
-3.3951 -4.2022 -3.0005 0.9756
-2.1638 -4.9487 -2.9998 0.9756
-1.2519 -5.2531 -2.9993 0.9756
-0.7793 -5.3432 -2.9990 0.9756
0.1804 -5.3958 -2.9985 0.9756
2.0514 -4.9918 -2.9974 0.9756
2.4874 -4.7890 -2.9972 0.9756
2.9035 -4.5483 -2.9969 0.9756
3.6634 -3.9608 -2.9965 0.9756
4.0012 -3.6188 -2.9963 0.9756
4.8144 -2.4328 -2.9959 0.9756
5.1691 -1.5405 -2.9957 0.9756
5.3922 -0.1202 -2.9956 0.9756
5.3282 0.8378 -2.9956 0.9756
4.7013 2.6449 -2.9960 0.9756
4.1583 3.4369 -2.9963 0.9756
3.1031 4.4143 -2.9968 0.9756
2.6981 4.6733 -2.9971 0.9756
1.2984 4.9561 -2.8454 0.9768
-0.9649 5.0339 -2.8467 0.9768
-1.4093 4.9285 -2.8470 0.9768
-4.2404 3.3487 -3.0009 0.9756
-4.5219 2.9581 -3.0011 0.9756
-5.1433 1.6585 -3.0014 0.9756
-5.2707 1.1942 -3.0015 0.9756
-5.3561 0.7204 -3.0015 0.9756
-5.3990 -0.2407 -3.0016 0.9756
-5.3561 -0.7203 -3.0015 0.9756
-5.2707 -1.1941 -3.0015 0.9756
-5.1433 -1.6585 -3.0014 0.9756
-4.9752 -2.1096 -3.0013 0.9756
-3.9253 -3.7125 -3.0007 0.9756
-3.5791 -4.0470 -3.0006 0.9756
-3.2045 -4.3491 -3.0003 0.9756
-2.8044 -4.6167 -3.0001 0.9756
-2.3822 -4.8476 -2.9999 0.9756
-1.9411 -5.0400 -2.9996 0.9756
-1.4847 -5.1923 -2.9994 0.9756
-1.0166 -5.3034 -2.9991 0.9756
0.4206 -5.3821 -2.9983 0.9756
1.3679 -5.2214 -2.9978 0.9756
2.2716 -4.8953 -2.9973 0.9756
2.6981 -4.6733 -2.9971 0.9756
3.8361 -3.7936 -2.9964 0.9756
4.1583 -3.4369 -2.9962 0.9756
4.4475 -3.0530 -2.9961 0.9756
4.9179 -2.2159 -2.9958 0.9756
5.0954 -1.7693 -2.9957 0.9756
5.2325 -1.3087 -2.9957 0.9756
5.3282 -0.8378 -2.9956 0.9756
5.3922 0.1202 -2.9956 0.9756
5.3602 0.5996 -2.9956 0.9756
5.2856 1.0744 -2.9956 0.9756
5.1691 1.5406 -2.9957 0.9756
5.0116 1.9946 -2.9958 0.9756
4.5789 2.8518 -2.9960 0.9756
4.0012 3.6188 -2.9963 0.9756
3.2966 4.2715 -2.9967 0.9756
2.9035 4.5483 -2.9970 0.9756
2.4547 4.7263 -2.9579 0.9759
1.9533 4.7530 -2.8540 0.9768
1.5178 4.8931 -2.8453 0.9768
1.0764 5.0092 -2.8456 0.9768
0.6263 5.0855 -2.8458 0.9768
-0.2853 5.1169 -2.8463 0.9768
-0.7397 5.0717 -2.8466 0.9768
-2.0817 4.7609 -2.8859 0.9765
-2.5959 4.7370 -3.0000 0.9756
-3.0074 4.4874 -3.0002 0.9756
-4.0870 3.5342 -3.0008 0.9756
-4.6493 2.7538 -3.0012 0.9756
-4.8762 2.3292 -3.0013 0.9756
-5.1780 -0.4627 -3.0014 0.9763
-5.1162 -0.9217 -3.0014 0.9763
-5.0138 -1.3734 -3.0014 0.9763
-4.8715 -1.8141 -3.0013 0.9763
-4.6906 -2.2405 -3.0012 0.9763
-4.4723 -2.6489 -3.0011 0.9763
-2.8930 -4.3166 -3.0002 0.9763
-2.4971 -4.5567 -3.0000 0.9763
-0.2891 -5.1859 -2.9987 0.9763
0.1735 -5.1906 -2.9985 0.9763
1.0909 -5.0767 -2.9980 0.9763
1.5383 -4.9590 -2.9977 0.9763
2.3928 -4.6070 -2.9972 0.9763
3.5242 -3.8103 -2.9966 0.9763
3.8491 -3.4813 -2.9964 0.9763
4.6315 -2.3404 -2.9960 0.9763
4.8212 -1.9188 -2.9959 0.9763
5.1565 -0.5768 -2.9957 0.9763
5.1771 0.3466 -2.9957 0.9763
5.0338 1.2590 -2.9958 0.9763
4.7310 2.1317 -2.9959 0.9763
4.0003 3.3063 -2.9963 0.9763
3.6904 3.6495 -2.9965 0.9763
3.3511 3.9637 -2.9967 0.9763
2.5956 4.4957 -2.9971 0.9763
2.1853 4.7093 -2.9974 0.9763
1.7050 4.7391 -2.9078 0.9770
0.8198 4.8603 -2.8457 0.9775
0.3844 4.9189 -2.8486 0.9775
-0.0549 4.9295 -2.8462 0.9775
-0.4935 4.9054 -2.8464 0.9775
-0.9282 4.8425 -2.8467 0.9775
-1.3617 4.7636 -2.8605 0.9774
-1.8294 4.7499 -2.9387 0.9768
-3.0825 4.1837 -3.0003 0.9763
-3.4429 3.8930 -3.0005 0.9763
-3.7760 3.5713 -3.0007 0.9763
-4.0791 3.2212 -3.0008 0.9763
-4.5860 2.4472 -3.0011 0.9763
-5.0701 1.1487 -3.0014 0.9763
-5.1523 0.6929 -3.0014 0.9763
-5.1935 0.2316 -3.0015 0.9763
-5.1935 -0.2315 -3.0015 0.9763
-4.9476 -1.5954 -3.0013 0.9763
-4.7858 -2.0294 -3.0012 0.9763
-4.5860 -2.4471 -3.0011 0.9763
-4.0791 -3.2212 -3.0008 0.9763
-3.4429 -3.8929 -3.0005 0.9763
-2.6977 -4.4411 -3.0001 0.9763
-1.8673 -4.8483 -2.9996 0.9763
-1.4282 -4.9948 -2.9994 0.9763
-0.9779 -5.1017 -2.9991 0.9763
-0.0579 -5.1934 -2.9986 0.9763
0.4046 -5.1775 -2.9983 0.9763
1.3159 -5.0229 -2.9978 0.9763
2.5956 -4.4956 -2.9971 0.9763
2.9852 -4.2465 -2.9969 0.9763
3.3511 -3.9637 -2.9967 0.9763
3.6903 -3.6494 -2.9965 0.9763
4.9018 -1.7021 -2.9958 0.9763
5.0337 -1.2590 -2.9958 0.9763
5.1257 -0.8059 -2.9957 0.9763
5.1771 -0.3465 -2.9957 0.9763
5.1874 0.1156 -2.9957 0.9763
5.1565 0.5769 -2.9957 0.9763
5.0848 1.0336 -2.9957 0.9763
4.9727 1.4821 -2.9958 0.9763
4.4050 2.7435 -2.9961 0.9763
3.1713 4.1092 -2.9968 0.9763
2.3928 4.6071 -2.9972 0.9763
1.9437 4.7297 -2.9523 0.9767
1.4726 4.7472 -2.8696 0.9773
0.6025 4.8922 -2.8458 0.9775
-0.2745 4.9223 -2.8463 0.9775
-0.7116 4.8788 -2.8466 0.9775
-1.5925 4.7567 -2.8961 0.9771
-2.0734 4.7419 -2.9880 0.9764
-2.4971 4.5567 -3.0000 0.9763
-2.8930 4.3167 -3.0002 0.9763
-3.9314 3.3997 -3.0008 0.9763
-4.4724 2.6490 -3.0011 0.9763
-4.6906 2.2405 -3.0012 0.9763
-5.0138 1.3734 -3.0014 0.9763
