ply
format ascii 1.0
element vertex 1655
property float32 x
property float32 y
property float32 z
property float32 I
end_header
-7.7824 7.3605 5.4916 0.9530
-7.7250 7.3062 5.2298 0.9537
-7.7526 7.3323 2.6229 0.9570
-7.7512 7.3311 2.4351 0.9572
-7.7499 7.3298 2.2488 0.9573
5.0229 -6.5084 1.5910 0.9671
-7.7486 7.3286 2.0639 0.9575
6.1680 -5.5786 1.4664 0.9668
-7.7473 7.3273 1.8803 0.9576
5.6584 -5.5957 1.4032 0.9682
-7.7459 7.3261 1.6977 0.9577
4.6579 -6.6259 1.2897 0.9677
4.9795 -5.8897 1.2281 0.9692
5.5529 -5.4914 1.2436 0.9689
-7.7446 7.3248 1.5162 0.9578
4.5618 -6.4893 1.1283 0.9685
4.4430 -6.9598 1.0347 0.9673
4.6541 -6.0305 0.9546 0.9698
5.7877 -5.2347 0.9779 0.9690
4.3661 -6.8394 0.8801 0.9679
4.6053 -5.9673 0.8176 0.9701
5.0599 -5.4707 0.8083 0.9705
5.7227 -5.1759 0.8369 0.9694
-7.7421 7.3224 1.1559 0.9580
4.8117 -5.6913 0.8084 0.9705
4.3053 -6.7442 0.7335 0.9684
4.5711 -5.9230 0.6859 0.9704
5.0270 -5.4352 0.6787 0.9707
4.4048 -6.2659 0.7022 0.9697
4.7800 -5.6538 0.6787 0.9707
5.3186 -5.2597 0.6858 0.9704
4.2689 -6.6872 0.5945 0.9687
4.5452 -5.8894 0.5575 0.9706
5.0010 -5.4070 0.5519 0.9709
5.6392 -5.1004 0.5698 0.9700
-7.7395 7.3199 0.7983 0.9582
4.3959 -7.6139 0.6588 0.9653
4.3758 -6.2247 0.5702 0.9699
4.7549 -5.6241 0.5519 0.9709
5.2898 -5.2312 0.5575 0.9706
4.2332 -6.6313 0.4582 0.9690
4.5196 -5.8563 0.4309 0.9708
4.9753 -5.3792 0.4268 0.9711
5.6053 -5.0697 0.4402 0.9702
4.2913 -7.4328 0.4999 0.9662
4.3473 -6.1841 0.4403 0.9702
4.7301 -5.5948 0.4267 0.9711
4.2104 -6.5955 0.3254 0.9692
6.7046 -5.0562 0.3492 0.9669
4.2156 -7.3016 0.3506 0.9668
4.3327 -6.1634 0.3133 0.9703
4.7177 -5.5801 0.3038 0.9712
5.2465 -5.1884 0.3068 0.9709
6.0195 -4.9753 0.3247 0.9692
4.1993 -6.5781 0.1946 0.9693
4.9543 -5.3566 0.1820 0.9712
5.5756 -5.0428 0.1875 0.9704
4.3248 -6.1522 0.1875 0.9704
4.7099 -5.5709 0.1819 0.9712
4.1883 -6.5608 0.0647 0.9693
-7.7344 7.3151 0.0885 0.9583
4.1825 -7.2443 0.0695 0.9671
5.2286 -5.1707 0.0611 0.9710
5.9918 -4.9523 0.0646 0.9694
4.1888 -6.5616 -0.0647 0.9693
4.4908 -5.8189 -0.0611 0.9710
5.5655 -5.0337 -0.0624 0.9704
6.6421 -5.0090 -0.0691 0.9673
-7.7331 7.3139 -0.0885 0.9583
4.1831 -7.2454 -0.0695 0.9671
4.3173 -6.1415 -0.0624 0.9704
4.7024 -5.5621 -0.0605 0.9713
4.1998 -6.5789 -0.1946 0.9693
6.6739 -5.0330 -0.2085 0.9671
-7.7318 7.3127 -0.2654 0.9583
4.3252 -6.1527 -0.1876 0.9704
4.7103 -5.5713 -0.1819 0.9712
6.0063 -4.9643 -0.1943 0.9693
6.7060 -5.0573 -0.3492 0.9669
-7.7306 7.3115 -0.4424 0.9583
4.2164 -7.3031 -0.3506 0.9668
4.3332 -6.1640 -0.3133 0.9703
4.2349 -6.6338 -0.4584 0.9690
4.9766 -5.3806 -0.4269 0.9711
6.7910 -5.1214 -0.4954 0.9665
4.2957 -7.4404 -0.5004 0.9662
4.3486 -6.1860 -0.4404 0.9702
4.7313 -5.5962 -0.4268 0.9711
6.0499 -5.0004 -0.4571 0.9690
4.2707 -6.6899 -0.5948 0.9687
4.5465 -5.8911 -0.5577 0.9706
5.0023 -5.4084 -0.5521 0.9709
5.6409 -5.1019 -0.5700 0.9700
6.9336 -5.2289 -0.6508 0.9658
4.4006 -7.6221 -0.6596 0.9653
4.7561 -5.6256 -0.5521 0.9709
5.2912 -5.2326 -0.5577 0.9706
6.0944 -5.0371 -0.5925 0.9688
4.3071 -6.7470 -0.7338 0.9684
5.0284 -5.4366 -0.6789 0.9707
5.6753 -5.1331 -0.7015 0.9697
5.3201 -5.2612 -0.6859 0.9704
4.6077 -5.9704 -0.8180 0.9701
5.0623 -5.4733 -0.8087 0.9704
5.7259 -5.1788 -0.8374 0.9694
-7.7254 7.3067 -1.1534 0.9581
4.8140 -5.6940 -0.8088 0.9704
5.3591 -5.2997 -0.8175 0.9701
6.2352 -5.1535 -0.8774 0.9680
4.6565 -6.0336 -0.9551 0.9697
5.1110 -5.5260 -0.9433 0.9701
-7.7242 7.3055 -1.3323 0.9580
4.8611 -5.7497 -0.9435 0.9701
6.3493 -5.2478 -1.0323 0.9673
4.5965 -7.2002 -1.2150 0.9661
4.5661 -6.4954 -1.1293 0.9684
4.9093 -5.8067 -1.0815 0.9697
5.4687 -5.4081 -1.0940 0.9694
6.5403 -5.4057 -1.2069 0.9663
4.7873 -6.2031 -1.2477 0.9688
5.2374 -5.6626 -1.2282 0.9692
-7.7216 7.3030 -1.6924 0.9579
4.6624 -6.6323 -1.2909 0.9677
5.5577 -5.4962 -1.2447 0.9688
4.8743 -6.3158 -1.4067 0.9681
-7.7203 7.3018 -1.8737 0.9578
5.6634 -5.6007 -1.4045 0.9682
12.8012 7.2019 -2.8424 0.9419
10.4461 10.3304 -2.8431 0.9419
9.4861 11.2202 -2.8433 0.9419
7.3480 12.7271 -2.8439 0.9419
6.1868 13.3322 -2.8443 0.9419
4.9762 13.8316 -2.8446 0.9419
2.4456 14.4986 -2.8454 0.9419
1.1456 14.6606 -2.8457 0.9418
-2.7695 14.4482 -2.8469 0.9418
-4.0450 14.1462 -2.8473 0.9418
-5.2887 13.7318 -2.8476 0.9418
-6.4907 13.2083 -2.8480 0.9418
-9.7530 11.0279 -2.8490 0.9418
-7.7189 7.3005 -2.0560 0.9576
-11.5559 9.1256 -2.8495 0.9418
13.1089 6.6242 -2.8423 0.9419
12.4681 7.7652 -2.8425 0.9419
11.7283 8.8448 -2.8427 0.9419
9.9760 10.7860 -2.8432 0.9419
7.9072 12.3865 -2.8438 0.9419
5.5871 13.5954 -2.8444 0.9419
3.0888 14.3743 -2.8452 0.9419
-5.8955 13.4834 -2.8478 0.9418
-11.9515 8.6021 -2.8496 0.9418
-14.2432 0.0000 -3.0028 0.9434
-14.0173 -2.5253 -3.0027 0.9434
-12.8508 -6.1382 -3.0024 0.9434
-11.5574 -8.3185 -3.0020 0.9435
-10.7704 -9.3135 -3.0018 0.9435
-8.9468 -11.0736 -3.0013 0.9435
-7.9249 -11.8248 -3.0010 0.9435
-3.2985 -13.8409 -2.9997 0.9435
-0.7920 -14.2030 -2.9989 0.9435
0.4753 -14.2154 -2.9986 0.9435
1.7384 -14.1149 -2.9982 0.9435
2.9875 -13.9025 -2.9978 0.9435
4.2125 -13.5797 -2.9975 0.9435
5.4038 -13.1494 -2.9971 0.9435
6.5520 -12.6147 -2.9968 0.9435
5.6839 -6.1454 -1.7647 0.9664
10.5383 -9.5313 -2.9956 0.9436
12.0594 -7.5106 -2.9951 0.9436
13.1985 -5.2528 -2.9948 0.9436
13.6130 -4.0571 -2.9946 0.9436
14.1159 -1.5791 -2.9945 0.9436
14.1721 0.9487 -2.9944 0.9436
13.7797 3.4466 -2.9945 0.9436
9.5897 9.4834 -2.8433 0.9464
7.7577 11.0355 -2.8438 0.9463
6.7454 11.6834 -2.8441 0.9463
5.6794 12.2387 -2.8444 0.9463
4.5680 12.6971 -2.8448 0.9463
1.0516 13.4577 -2.8458 0.9463
-0.1504 13.4995 -2.8461 0.9463
-1.3515 13.4342 -2.8465 0.9463
-2.5421 13.2621 -2.8468 0.9463
-3.7129 12.9848 -2.8472 0.9463
-8.0146 10.8776 -2.8484 0.9463
-7.6374 7.2235 -2.2162 0.9579
-10.6065 8.3759 -2.8492 0.9463
-11.3108 7.3992 -2.8494 0.9462
-11.9252 6.3636 -2.8496 0.9462
-13.5548 4.3709 -3.0025 0.9434
-13.8905 3.1472 -3.0026 0.9434
-14.1159 1.8984 -3.0027 0.9434
-14.2290 0.6345 -3.0027 0.9434
-14.2291 -0.6345 -3.0028 0.9434
-13.8908 -3.1472 -3.0027 0.9434
-13.1118 -5.5599 -3.0025 0.9434
-11.9169 -7.7957 -3.0021 0.9434
-10.3444 -9.7836 -3.0017 0.9435
-9.4317 -10.6646 -3.0014 0.9435
-8.4443 -11.4606 -3.0011 0.9435
-7.3899 -12.1655 -3.0008 0.9435
-3.9120 -13.6811 -2.9998 0.9435
-2.6785 -13.9733 -2.9995 0.9435
4.8130 -13.3778 -2.9973 0.9435
5.9839 -12.8948 -2.9969 0.9435
7.1070 -12.3097 -2.9966 0.9435
8.1736 -11.6271 -2.9963 0.9436
10.9519 -9.0520 -2.9955 0.9436
12.9517 -5.8357 -2.9948 0.9436
13.4190 -4.6596 -2.9947 0.9436
13.7800 -3.4466 -2.9946 0.9436
14.0317 -2.2063 -2.9945 0.9436
14.1721 -0.9487 -2.9944 0.9436
13.9194 2.8293 -2.9945 0.9436
13.6127 4.0571 -2.9946 0.9436
10.7669 8.1197 -2.8430 0.9464
10.0022 9.0465 -2.8432 0.9464
7.2588 11.3707 -2.8440 0.9463
2.8354 13.1949 -2.8453 0.9463
-1.9487 13.3614 -2.8467 0.9463
-4.2879 12.8073 -2.8473 0.9463
-5.4114 12.3763 -2.8477 0.9463
-8.4916 10.5103 -2.8486 0.9463
-12.8999 4.8040 -2.9020 0.9453
-13.7363 3.7628 -3.0026 0.9434
-14.0171 2.5254 -3.0027 0.9434
-13.1545 0.0000 -3.0024 0.9475
-13.1023 -1.1708 -3.0024 0.9475
-12.6867 -3.4752 -3.0023 0.9475
-12.3266 -4.5905 -3.0022 0.9475
-10.6742 -7.6828 -3.0018 0.9475
-9.9473 -8.6018 -3.0016 0.9475
-8.2633 -10.2276 -3.0011 0.9475
-6.3178 -11.5285 -3.0005 0.9475
-5.2661 -12.0438 -3.0002 0.9475
-4.1728 -12.4635 -2.9999 0.9475
-3.0466 -12.7840 -2.9996 0.9475
-0.7315 -13.1186 -2.9989 0.9475
0.4390 -13.1302 -2.9986 0.9475
2.7595 -12.8414 -2.9979 0.9475
6.0521 -11.6523 -2.9969 0.9476
9.7345 -8.8043 -2.9958 0.9476
10.4788 -7.9024 -2.9956 0.9476
11.1398 -6.9379 -2.9954 0.9476
12.1921 -4.8523 -2.9951 0.9476
12.5751 -3.7478 -2.9949 0.9476
12.8584 -2.6136 -2.9948 0.9476
13.0397 -1.4587 -2.9948 0.9476
13.0916 0.8764 -2.9948 0.9476
12.9617 2.0382 -2.9948 0.9476
11.3557 5.1166 -2.8428 0.9502
10.8558 6.1074 -2.8430 0.9502
9.6021 7.9364 -2.8433 0.9502
8.8583 8.7602 -2.8435 0.9502
8.0441 9.5146 -2.8438 0.9502
7.1660 10.1937 -2.8440 0.9502
6.2308 10.7921 -2.8443 0.9502
4.2195 11.7282 -2.8449 0.9501
3.1592 12.0585 -2.8452 0.9501
0.9713 12.4304 -2.8458 0.9501
-1.2483 12.4085 -2.8465 0.9501
-2.3480 12.2496 -2.8468 0.9501
-6.4782 10.6645 -2.8480 0.9501
-8.2679 9.3487 -2.8485 0.9501
-11.4939 4.8739 -2.8495 0.9501
-12.8289 2.9067 -3.0023 0.9475
-13.1414 0.5860 -3.0024 0.9475
-13.1415 -0.5859 -3.0024 0.9475
-12.8291 -2.9067 -3.0024 0.9475
-12.5191 -4.0369 -3.0023 0.9475
-11.6040 -6.1921 -3.0020 0.9475
-11.0062 -7.1999 -3.0019 0.9475
-9.5539 -9.0360 -3.0014 0.9475
-4.7241 -12.2659 -3.0001 0.9475
-2.4739 -12.9063 -2.9994 0.9475
-1.3152 -13.0737 -2.9991 0.9475
-0.1464 -13.1374 -2.9987 0.9475
3.3286 -12.7050 -2.9977 0.9475
5.5273 -11.9110 -2.9971 0.9476
6.5648 -11.3706 -2.9968 0.9476
10.1167 -8.3617 -2.9957 0.9476
10.8200 -7.4275 -2.9955 0.9476
11.4374 -6.4346 -2.9953 0.9476
11.9641 -5.3907 -2.9951 0.9476
12.7293 -3.1838 -2.9949 0.9476
12.9619 -2.0381 -2.9948 0.9476
13.1176 0.2923 -2.9947 0.9476
13.0396 1.4587 -2.9948 0.9476
12.8582 2.6136 -2.9948 0.9476
12.5749 3.7477 -2.9949 0.9476
11.1168 5.6176 -2.8429 0.9502
9.9458 7.5005 -2.8432 0.9502
7.6126 9.8639 -2.8439 0.9502
2.6190 12.1880 -2.8453 0.9501
0.4167 12.4621 -2.8460 0.9501
-0.6943 12.4511 -2.8463 0.9501
-1.7999 12.3413 -2.8466 0.9501
-2.8916 12.1335 -2.8469 0.9501
-3.9604 11.8293 -2.8473 0.9501
-4.9981 11.4311 -2.8476 0.9501
-5.9963 10.9419 -2.8479 0.9501
-7.8429 9.7073 -2.8484 0.9501
-9.4414 8.1643 -2.8489 0.9501
-10.1313 7.2921 -2.8491 0.9501
-12.6864 3.4752 -3.0023 0.9475
-12.9458 2.3323 -3.0024 0.9475
-12.1653 -1.0871 -3.0022 0.9509
-11.4452 -4.2622 -3.0020 0.9509
-10.5072 -6.2234 -3.0017 0.9509
-9.9111 -7.1335 -3.0015 0.9509
-9.2362 -7.9868 -3.0013 0.9509
-7.6726 -9.4965 -3.0009 0.9510
-4.8898 -11.1831 -3.0001 0.9510
-3.8746 -11.5729 -2.9998 0.9510
-0.6792 -12.1816 -2.9989 0.9510
1.4910 -12.1064 -2.9982 0.9510
8.2769 -8.9489 -2.9962 0.9510
9.7310 -7.3385 -2.9958 0.9510
10.3449 -6.4428 -2.9956 0.9510
11.5113 3.9972 -2.9952 0.9510
9.5369 6.5467 -2.8433 0.9535
8.9169 7.3700 -2.8435 0.9535
7.4700 8.8356 -2.8439 0.9535
4.8715 10.4979 -2.8447 0.9534
2.9336 11.1976 -2.8452 0.9534
1.9255 11.4154 -2.8455 0.9534
-0.1290 11.5784 -2.8461 0.9534
-1.1591 11.5222 -2.8464 0.9534
-2.1803 11.3744 -2.8467 0.9534
-3.1844 11.1364 -2.8470 0.9534
-4.1633 10.8099 -2.8473 0.9534
-5.1094 10.3975 -2.8476 0.9534
-7.5912 7.1797 -2.5683 0.9579
-9.6996 6.3452 -2.8490 0.9534
-10.2264 5.4570 -2.8491 0.9534
-11.2435 4.7676 -3.0018 0.9509
-11.9115 2.6988 -3.0020 0.9509
-12.1047 1.6279 -3.0021 0.9509
-12.2017 0.5441 -3.0021 0.9509
-12.2017 -0.5441 -3.0022 0.9509
-12.1048 -1.6279 -3.0021 0.9509
-11.9116 -2.6988 -3.0021 0.9509
-11.6239 -3.7482 -3.0020 0.9509
-10.7743 -5.7493 -3.0018 0.9509
-8.0884 -9.1457 -3.0010 0.9510
-6.3376 -10.4331 -3.0005 0.9510
-3.3551 -11.7334 -2.9997 0.9510
-2.2972 -11.9842 -2.9994 0.9510
-1.2213 -12.1398 -2.9990 0.9510
0.9503 -12.1615 -2.9984 0.9510
2.0288 -12.0274 -2.9981 0.9510
5.1327 -11.0607 -2.9972 0.9510
7.0112 -9.9735 -2.9966 0.9510
10.6214 -5.9754 -2.9955 0.9510
11.1105 -5.0061 -2.9954 0.9510
11.5115 -3.9972 -2.9953 0.9510
11.8212 -2.9566 -2.9952 0.9510
12.1577 -0.8138 -2.9950 0.9510
12.1818 0.2715 -2.9950 0.9510
11.9409 2.4271 -2.9951 0.9510
10.3236 5.2168 -2.8431 0.9535
9.8188 6.1153 -2.8433 0.9535
7.8559 8.4937 -2.8438 0.9535
7.0693 9.1600 -2.8440 0.9535
3.4294 11.0552 -2.8451 0.9534
2.4320 11.3177 -2.8454 0.9534
1.4152 11.4904 -2.8457 0.9534
0.3869 11.5720 -2.8460 0.9534
-1.6714 11.4597 -2.8466 0.9534
-3.6775 10.9840 -2.8472 0.9534
-4.6410 10.6142 -2.8475 0.9534
-9.4070 6.7708 -2.8489 0.9534
-11.4449 4.2622 -3.0019 0.9509
-12.1653 1.0871 -3.0021 0.9509
-11.3925 0.0000 -3.0019 0.9540
-9.8007 -5.8049 -3.0015 0.9540
-9.2447 -6.6539 -3.0013 0.9540
-8.6152 -7.4499 -3.0012 0.9540
-7.1569 -8.8581 -3.0007 0.9540
-5.4720 -9.9851 -3.0003 0.9540
-2.6388 -11.0730 -2.9994 0.9540
-1.6426 -11.2628 -2.9992 0.9540
-0.6336 -11.3632 -2.9989 0.9540
1.3909 -11.2933 -2.9983 0.9540
3.3706 -10.8656 -2.9977 0.9540
4.3239 -10.5215 -2.9974 0.9540
6.1198 -9.5864 -2.9969 0.9540
6.9482 -9.0030 -2.9966 0.9540
7.7213 -8.3482 -2.9964 0.9541
9.6506 -6.0105 -2.9958 0.9541
10.1468 -5.1274 -2.9957 0.9541
10.8943 -3.2468 -2.9954 0.9541
11.3418 0.7593 -2.9953 0.9541
10.7388 3.7289 -2.9954 0.9541
9.4047 5.2910 -2.8434 0.9563
8.8969 6.1074 -2.8435 0.9563
6.9686 8.2425 -2.8441 0.9563
6.2078 8.8307 -2.8443 0.9563
5.3976 9.3489 -2.8445 0.9563
4.5445 9.7931 -2.8448 0.9563
2.7366 10.4456 -2.8453 0.9563
-0.1203 10.8006 -2.8461 0.9563
-4.7661 9.6987 -2.8475 0.9563
-5.6109 9.2368 -2.8478 0.9563
-9.0474 5.9186 -2.8488 0.9563
-9.5388 5.0901 -2.8489 0.9563
-10.8420 3.4961 -3.0017 0.9540
-11.1105 2.5173 -3.0018 0.9540
-11.3811 0.5075 -3.0019 0.9540
-11.3812 -0.5075 -3.0019 0.9540
-11.2907 -1.5184 -3.0019 0.9540
-11.1106 -2.5173 -3.0019 0.9540
-10.0498 -5.3627 -3.0016 0.9540
-8.9388 -7.0589 -3.0013 0.9540
-7.5446 -8.5308 -3.0009 0.9540
-4.0917 -10.6239 -2.9999 0.9540
-3.1296 -10.9450 -2.9996 0.9540
-2.1428 -11.1790 -2.9993 0.9540
-1.1392 -11.3243 -2.9990 0.9540
0.8865 -11.3446 -2.9984 0.9540
1.8925 -11.2196 -2.9981 0.9540
2.8833 -11.0055 -2.9978 0.9540
7.3420 -8.6842 -2.9965 0.9540
8.0852 -7.9956 -2.9963 0.9541
9.9086 -5.5744 -2.9957 0.9541
10.7390 -3.7290 -2.9955 0.9541
11.0280 -2.7583 -2.9954 0.9541
11.2294 -1.7657 -2.9953 0.9541
11.3644 0.2533 -2.9953 0.9541
11.1396 2.2643 -2.9953 0.9541
10.5622 4.2037 -2.9955 0.9541
9.1599 5.7049 -2.8435 0.9563
8.0042 7.2394 -2.8438 0.9563
6.5947 8.5451 -2.8442 0.9563
5.8085 9.0988 -2.8444 0.9563
4.9760 9.5805 -2.8447 0.9563
0.3609 10.7947 -2.8460 0.9563
-4.3291 9.9010 -2.8474 0.9563
-6.0170 8.9781 -2.8479 0.9563
-6.7928 8.4076 -2.8481 0.9563
-7.5147 7.7702 -2.8483 0.9563
-8.7745 6.3155 -2.8487 0.9563
-10.6753 3.9756 -3.0017 0.9540
-10.9872 3.0097 -3.0018 0.9540
-11.3472 1.0140 -3.0019 0.9540
-10.2893 -2.8186 -3.0016 0.9566
-9.9974 -3.7230 -3.0015 0.9566
-9.1782 -5.4362 -3.0013 0.9566
-8.6575 -6.2312 -3.0012 0.9566
-6.7023 -8.2956 -3.0006 0.9567
-4.2715 -9.7693 -2.9999 0.9567
-2.4713 -10.3701 -2.9994 0.9567
-0.5934 -10.6420 -2.9988 0.9567
1.3026 -10.5766 -2.9983 0.9567
3.1567 -10.1762 -2.9977 0.9567
4.0496 -9.8540 -2.9975 0.9567
4.9101 -9.4537 -2.9972 0.9567
5.7316 -8.9784 -2.9970 0.9567
6.5075 -8.4320 -2.9967 0.9567
7.2316 -7.8187 -2.9965 0.9567
8.5023 -6.4118 -2.9961 0.9567
9.0387 -5.6293 -2.9960 0.9567
9.5034 -4.8023 -2.9958 0.9567
10.4335 -2.1206 -2.9956 0.9567
10.6228 0.7111 -2.9955 0.9567
10.5174 1.6538 -2.9955 0.9567
10.0579 3.4925 -2.9956 0.9567
8.8084 4.9555 -2.8436 0.9589
8.3327 5.7201 -2.8437 0.9589
7.7910 6.4394 -2.8439 0.9589
7.1873 7.1077 -2.8440 0.9589
6.5266 7.7198 -2.8442 0.9589
5.0552 8.7559 -2.8446 0.9589
4.2562 9.1719 -2.8449 0.9589
3.4232 9.5151 -2.8451 0.9589
2.5630 9.7829 -2.8454 0.9588
1.6822 9.9731 -2.8456 0.9588
0.7880 10.0841 -2.8459 0.9588
-0.1127 10.1152 -2.8461 0.9588
-1.0126 10.0660 -2.8464 0.9588
-1.9047 9.9368 -2.8467 0.9588
-3.6370 9.4433 -2.8472 0.9588
-4.4635 9.0829 -2.8474 0.9588
-6.7061 7.5827 -2.8481 0.9588
-7.3549 6.9562 -2.8483 0.9588
-7.9453 6.2744 -2.8485 0.9588
-8.9806 4.7922 -2.8640 0.9586
-9.8212 4.1646 -3.0014 0.9566
-10.1533 3.2740 -3.0015 0.9566
-10.6581 0.4753 -3.0017 0.9566
-10.6581 -0.4752 -3.0017 0.9566
-10.4048 -2.3574 -3.0016 0.9566
-10.1534 -3.2741 -3.0016 0.9566
-8.9267 -5.8395 -3.0012 0.9566
-8.3711 -6.6105 -3.0011 0.9566
-7.7490 -7.3289 -3.0009 0.9566
-7.0655 -7.9891 -3.0007 0.9567
-6.3259 -8.5856 -3.0005 0.9567
-5.5362 -9.1138 -3.0003 0.9567
-2.9309 -10.2501 -2.9995 0.9567
-2.0068 -10.4694 -2.9993 0.9567
0.8302 -10.6246 -2.9984 0.9567
2.7004 -10.3072 -2.9979 0.9567
3.6067 -10.0251 -2.9976 0.9567
4.4843 -9.6634 -2.9973 0.9567
6.1256 -8.7138 -2.9969 0.9567
6.8764 -8.1334 -2.9966 0.9567
7.5725 -7.4886 -2.9964 0.9567
10.6228 -0.7111 -2.9955 0.9567
10.6439 0.2372 -2.9955 0.9567
10.4334 2.1207 -2.9955 0.9567
10.2034 3.0410 -2.9956 0.9567
8.5791 5.3431 -2.8436 0.9589
8.0699 6.0858 -2.8438 0.9589
7.4966 6.7803 -2.8439 0.9589
6.1765 8.0031 -2.8443 0.9589
5.4401 8.5217 -2.8445 0.9589
2.9961 9.6586 -2.8452 0.9588
0.3380 10.1097 -2.8460 0.9588
-0.5632 10.1006 -2.8463 0.9588
-1.4601 10.0113 -2.8465 0.9588
-5.6350 8.4080 -2.8478 0.9588
-6.3614 7.8737 -2.8480 0.9588
-7.0375 7.2768 -2.8482 0.9588
-7.6577 6.6219 -2.8484 0.9588
-8.2172 5.9144 -2.8485 0.9588
-8.7114 5.1598 -2.8487 0.9588
-9.9972 3.7230 -3.0015 0.9566
-10.2892 2.8185 -3.0016 0.9566
-10.6263 0.9496 -3.0017 0.9566
-10.0258 0.0000 -3.0015 0.9590
-9.9860 -0.8923 -3.0015 0.9590
-9.8668 -1.7776 -3.0015 0.9590
-8.6251 -5.1087 -3.0011 0.9590
-8.1358 -5.8558 -3.0010 0.9590
-7.5819 -6.5563 -3.0009 0.9590
-6.2986 -7.7958 -3.0005 0.9590
-5.5793 -8.3249 -3.0003 0.9590
-4.8159 -8.7878 -3.0001 0.9590
-2.3225 -9.7456 -2.9993 0.9590
-1.4457 -9.9128 -2.9991 0.9590
-0.5577 -10.0012 -2.9988 0.9590
0.3347 -10.0103 -2.9986 0.9590
3.8058 -9.2610 -2.9975 0.9591
6.1159 -7.9246 -2.9969 0.9591
7.4231 -6.7138 -2.9965 0.9591
8.4950 -5.2907 -2.9961 0.9591
9.9443 -1.1124 -2.9957 0.9591
9.9839 0.6684 -2.9957 0.9591
12.3576 6.9523 -4.2449 0.9425
7.8315 5.3760 -2.8439 0.9611
7.3223 6.0520 -2.8440 0.9611
6.7549 6.6801 -2.8442 0.9611
6.1339 7.2553 -2.8443 0.9611
4.7510 8.2291 -2.8447 0.9611
4.0001 8.6199 -2.8449 0.9611
3.2172 8.9425 -2.8452 0.9611
1.5810 9.3728 -2.8457 0.9611
-0.1059 9.5062 -2.8461 0.9611
-0.9517 9.4599 -2.8464 0.9611
-4.9381 8.1293 -2.8476 0.9611
-5.6425 7.6580 -2.8478 0.9611
-7.4666 5.8964 -2.8483 0.9611
-7.9622 5.2087 -2.8485 0.9611
-8.8441 4.7194 -3.0011 0.9590
-9.2294 3.9136 -3.0013 0.9590
-9.5414 3.0767 -3.0014 0.9590
-9.7776 2.2154 -3.0014 0.9590
-9.9362 1.3363 -3.0015 0.9590
-10.0158 0.4466 -3.0015 0.9590
-9.7778 -2.2153 -3.0015 0.9590
-9.2296 -3.9137 -3.0013 0.9590
-8.8443 -4.7194 -3.0012 0.9590
-7.8667 -6.2122 -3.0009 0.9590
-5.9448 -8.0684 -3.0004 0.9590
-5.2028 -8.5649 -3.0002 0.9590
-4.4194 -8.9933 -2.9999 0.9590
1.6657 -9.8751 -2.9982 0.9590
2.5378 -9.6868 -2.9979 0.9591
3.3897 -9.4217 -2.9977 0.9591
4.2144 -9.0819 -2.9974 0.9591
7.7146 -6.3762 -2.9964 0.9591
8.2511 -5.6640 -2.9962 0.9591
9.4531 -3.2825 -2.9958 0.9591
9.7075 -2.4280 -2.9958 0.9591
9.8849 -1.5543 -2.9957 0.9591
9.9442 1.1125 -2.9957 0.9591
9.8058 1.9931 -2.9957 0.9591
9.5897 2.8581 -2.9958 0.9591
12.6548 6.3947 -4.2448 0.9425
8.0630 5.0217 -2.8438 0.9611
7.0456 6.3724 -2.8441 0.9611
6.4509 6.9746 -2.8442 0.9611
5.8049 7.5216 -2.8444 0.9611
5.1127 8.0090 -2.8446 0.9611
4.3799 8.4329 -2.8448 0.9611
3.6122 8.7899 -2.8451 0.9611
2.8158 9.0772 -2.8453 0.9611
1.1619 9.4343 -2.8458 0.9611
0.3177 9.5011 -2.8460 0.9611
-4.5709 8.3409 -2.8475 0.9611
-5.2955 7.9015 -2.8477 0.9611
-5.9782 7.3993 -2.8479 0.9611
-7.1963 6.2229 -2.8482 0.9611
-8.1865 4.8489 -2.8485 0.9611
-9.0457 4.3208 -3.0012 0.9590
-9.9859 0.8923 -3.0015 0.9590
-9.3007 -1.6756 -3.0013 0.9611
-7.6691 -5.5199 -3.0009 0.9611
-6.5682 -6.7915 -3.0006 0.9611
-5.9373 -7.3487 -3.0004 0.9611
-5.2593 -7.8475 -3.0002 0.9611
-4.5397 -8.2839 -3.0000 0.9611
-2.9985 -8.9562 -2.9995 0.9611
-2.1893 -9.1868 -2.9993 0.9611
-1.3629 -9.3445 -2.9991 0.9611
-0.5257 -9.4279 -2.9988 0.9611
0.3155 -9.4365 -2.9986 0.9611
2.7967 -9.0157 -2.9978 0.9612
3.5878 -8.7303 -2.9976 0.9612
4.3502 -8.3757 -2.9974 0.9612
5.0781 -7.9547 -2.9972 0.9612
6.9979 -6.3292 -2.9966 0.9612
7.5331 -5.6809 -2.9964 0.9612
8.7652 -3.4885 -2.9961 0.9612
9.2444 -1.8790 -2.9959 0.9612
9.4121 0.6301 -2.9958 0.9612
9.1515 2.2890 -2.9959 0.9612
8.9116 3.0945 -2.9960 0.9612
11.6499 6.5541 -4.2451 0.9454
7.3829 5.0681 -2.8440 0.9631
6.9029 5.7054 -2.8441 0.9631
6.3680 6.2975 -2.8443 0.9631
5.1512 7.3276 -2.8446 0.9631
4.4788 7.7576 -2.8448 0.9631
3.7709 8.1260 -2.8450 0.9631
3.0329 8.4300 -2.8452 0.9631
1.4904 8.8356 -2.8457 0.9631
-0.0998 8.9613 -2.8461 0.9631
-1.6874 8.8031 -2.8466 0.9631
-3.2220 8.3658 -2.8471 0.9631
-3.9541 8.0464 -2.8473 0.9631
-4.6549 7.6631 -2.8475 0.9631
-5.9407 6.7173 -2.8479 0.9631
-6.5153 6.1622 -2.8480 0.9631
-7.5055 4.9099 -2.8483 0.9631
-8.3367 4.4486 -3.0010 0.9611
-9.2167 2.0883 -3.0013 0.9611
-9.3661 1.2596 -3.0013 0.9611
-9.4411 0.4210 -3.0013 0.9611
-7.9076 -5.1729 -3.0009 0.9611
-4.1660 -8.4776 -2.9999 0.9611
-3.3947 -8.8140 -2.9996 0.9611
-0.9452 -9.3955 -2.9989 0.9611
3.1954 -8.8818 -2.9977 0.9612
3.9729 -8.5615 -2.9975 0.9612
5.4272 -7.7203 -2.9971 0.9612
6.0924 -7.2062 -2.9969 0.9612
7.2727 -6.0110 -2.9965 0.9612
7.7785 -5.3396 -2.9964 0.9612
8.9117 -3.0945 -2.9960 0.9612
9.3188 -1.4653 -2.9959 0.9612
9.0405 2.6944 -2.9959 0.9612
8.7650 3.4884 -2.9960 0.9612
11.9300 6.0285 -4.2451 0.9454
6.6420 6.0074 -2.8442 0.9631
4.8198 7.5501 -2.8447 0.9631
3.4053 8.2862 -2.8451 0.9631
1.0953 8.8936 -2.8458 0.9631
0.2995 8.9565 -2.8460 0.9631
-0.4990 8.9484 -2.8463 0.9631
-1.2935 8.8692 -2.8465 0.9631
-3.5916 8.2142 -2.8472 0.9631
-4.9918 7.4484 -2.8476 0.9631
-7.2791 5.2392 -2.8483 0.9631
-9.1144 2.4967 -3.0012 0.9611
-8.6150 -2.3599 -3.0011 0.9630
-8.3706 -3.1172 -3.0011 0.9630
-7.2489 -5.2174 -3.0007 0.9630
-6.2083 -6.4194 -3.0005 0.9630
-5.6120 -6.9461 -3.0003 0.9630
-4.2910 -7.8301 -2.9999 0.9630
-3.5768 -8.1803 -2.9997 0.9630
-2.8343 -8.4656 -2.9995 0.9630
-1.2882 -8.8327 -2.9990 0.9630
0.2982 -8.9198 -2.9986 0.9630
1.0909 -8.8571 -2.9983 0.9630
1.8747 -8.7242 -2.9981 0.9630
2.6436 -8.5221 -2.9979 0.9630
3.3914 -8.2524 -2.9977 0.9631
4.1121 -7.9172 -2.9974 0.9631
5.4500 -7.0617 -2.9970 0.9631
6.0565 -6.5482 -2.9969 0.9631
7.1209 -5.3700 -2.9965 0.9631
7.9595 -4.0221 -2.9963 0.9631
8.2856 -3.2976 -2.9962 0.9631
8.5460 -2.5470 -2.9961 0.9631
8.8972 0.5956 -2.9960 0.9631
8.8089 1.3852 -2.9960 0.9631
8.6508 2.1637 -2.9960 0.9631
8.4240 2.9252 -2.9961 0.9631
8.1305 3.6634 -2.9962 0.9631
6.5251 5.3932 -2.8442 0.9649
6.0195 5.9529 -2.8444 0.9649
2.8668 7.9686 -2.8453 0.9649
2.1464 8.1927 -2.8455 0.9649
1.4088 8.3519 -2.8457 0.9649
0.6599 8.4447 -2.8459 0.9649
-0.0944 8.4706 -2.8461 0.9649
-3.0455 7.9076 -2.8470 0.9649
-5.0275 6.8234 -2.8476 0.9649
-6.1584 5.8246 -2.8479 0.9649
-6.6527 5.2536 -2.8481 0.9649
-8.8528 1.1906 -3.0012 0.9630
-8.8529 -1.1905 -3.0012 0.9630
-8.7117 -1.9738 -3.0011 0.9630
-8.2233 -3.4870 -3.0010 0.9630
-7.4742 -4.8894 -3.0008 0.9630
-7.0091 -5.5350 -3.0007 0.9630
-6.4883 -6.1366 -3.0005 0.9630
-2.4543 -8.5832 -2.9994 0.9630
-1.6805 -8.7669 -2.9991 0.9630
-0.0994 -8.9246 -2.9987 0.9630
0.6952 -8.8973 -2.9985 0.9630
2.2614 -8.6318 -2.9980 0.9630
3.0205 -8.3956 -2.9978 0.9630
3.7555 -8.0928 -2.9976 0.9631
4.4606 -7.7259 -2.9973 0.9631
5.1302 -7.2978 -2.9971 0.9631
6.3420 -6.2718 -2.9968 0.9631
6.8747 -5.6821 -2.9966 0.9631
7.3528 -5.0474 -2.9965 0.9631
7.7726 -4.3727 -2.9963 0.9631
8.6509 -2.1637 -2.9961 0.9631
8.8089 -1.3852 -2.9960 0.9631
8.8972 -0.5956 -2.9960 0.9631
8.9149 0.1987 -2.9960 0.9631
8.8618 0.9914 -2.9960 0.9631
8.7385 1.7762 -2.9960 0.9631
8.2855 3.2976 -2.9961 0.9631
7.9593 4.0220 -2.9962 0.9631
10.7257 6.6800 -4.2454 0.9481
6.2786 5.6787 -2.8443 0.9649
5.1728 6.7026 -2.8446 0.9649
4.5560 7.1369 -2.8448 0.9649
1.7794 8.2805 -2.8456 0.9649
1.0354 8.4067 -2.8458 0.9649
0.2831 8.4661 -2.8460 0.9649
-1.2227 8.3834 -2.8465 0.9649
-1.9642 8.2420 -2.8467 0.9649
-2.6901 8.0351 -2.8469 0.9649
-3.3949 7.7643 -2.8471 0.9649
-5.3266 6.5929 -2.8477 0.9649
-6.8803 4.9521 -2.8482 0.9649
-8.3705 3.1172 -3.0010 0.9630
-8.6149 2.3599 -3.0011 0.9630
-8.7909 1.5838 -3.0011 0.9630
-8.4300 -0.7533 -3.0011 0.9647
-8.3294 -1.5006 -3.0010 0.9647
-8.1626 -2.2360 -3.0010 0.9647
-7.9311 -2.9536 -3.0009 0.9647
-7.6365 -3.6477 -3.0008 0.9647
-7.2813 -4.3127 -3.0007 0.9647
-6.8683 -4.9434 -3.0006 0.9647
-5.8824 -6.0824 -3.0004 0.9647
-5.3174 -6.5814 -3.0002 0.9647
-2.6856 -8.0213 -2.9994 0.9647
-1.9608 -8.2279 -2.9992 0.9647
1.0336 -8.3925 -2.9983 0.9647
1.7764 -8.2666 -2.9981 0.9648
3.2135 -7.8195 -2.9977 0.9648
3.8964 -7.5020 -2.9975 0.9648
5.1642 -6.6914 -2.9971 0.9648
5.7389 -6.2048 -2.9970 0.9648
6.7475 -5.0885 -2.9967 0.9648
7.1733 -4.4676 -2.9965 0.9648
7.8512 -3.1247 -2.9963 0.9648
8.0980 -2.4134 -2.9962 0.9648
8.4475 -0.1882 -2.9961 0.9648
7.9824 2.7718 -2.9962 0.9648
4.6139 6.5634 -2.8448 0.9665
3.3775 7.2784 -2.8451 0.9665
2.7165 7.5506 -2.8453 0.9665
2.0338 7.7630 -2.8455 0.9665
1.3349 7.9137 -2.8457 0.9665
-2.2072 7.7191 -2.8468 0.9665
-3.5413 7.2064 -2.8472 0.9665
-4.1690 6.8631 -2.8474 0.9665
-4.7636 6.4652 -2.8475 0.9665
-5.8350 5.5188 -2.8478 0.9665
-6.3034 4.9778 -2.8480 0.9665
-7.7914 3.3038 -3.0008 0.9647
-8.2541 1.8702 -3.0010 0.9647
-8.3880 1.1281 -3.0010 0.9647
-8.4551 0.3771 -3.0011 0.9647
-8.3880 -1.1280 -3.0010 0.9647
-8.0549 -2.5973 -3.0010 0.9647
-7.7915 -3.3039 -3.0009 0.9647
-5.6055 -6.3382 -3.0003 0.9647
-5.0188 -6.8116 -3.0001 0.9647
-3.0403 -7.8940 -2.9995 0.9647
0.6588 -8.4305 -2.9985 0.9647
2.1428 -8.1789 -2.9980 0.9648
2.8621 -7.9552 -2.9978 0.9648
5.4570 -6.4545 -2.9970 0.9648
6.0095 -5.9429 -2.9969 0.9648
6.9673 -4.7828 -2.9966 0.9648
7.3650 -4.1435 -2.9965 0.9648
7.7043 -3.4714 -2.9964 0.9648
8.1973 -2.0503 -2.9962 0.9648
8.4475 0.1883 -2.9961 0.9648
8.3973 0.9394 -2.9961 0.9648
8.2804 1.6831 -2.9962 0.9648
7.5420 3.8112 -2.9964 0.9648
5.4471 5.8893 -2.8445 0.9665
4.3171 6.7626 -2.8449 0.9665
3.6983 7.1205 -2.8450 0.9665
3.0500 7.4218 -2.8452 0.9665
2.3775 7.6644 -2.8454 0.9665
0.9811 7.9656 -2.8458 0.9665
0.2682 8.0219 -2.8460 0.9665
-3.8590 7.0418 -2.8473 0.9665
-4.4707 6.6708 -2.8474 0.9665
-5.0470 6.2467 -2.8476 0.9665
-5.5833 5.7731 -2.8478 0.9665
-6.0753 5.2535 -2.8479 0.9665
-6.6336 4.7746 -2.8981 0.9659
-7.6364 3.6476 -3.0008 0.9647
-7.9310 2.9536 -3.0009 0.9647
-8.1626 2.2360 -3.0010 0.9647
-7.9092 -1.4249 -3.0009 0.9663
-7.7508 -2.1231 -3.0009 0.9663
-6.9140 -4.0952 -3.0006 0.9663
-6.5218 -4.6941 -3.0005 0.9663
-6.0779 -5.2557 -3.0004 0.9663
-5.0492 -6.2495 -3.0001 0.9663
-3.8607 -7.0449 -2.9998 0.9663
-1.8619 -7.8131 -2.9992 0.9663
-1.1591 -7.9472 -2.9990 0.9663
0.2683 -8.0257 -2.9986 0.9663
0.9815 -7.9694 -2.9984 0.9663
2.3787 -7.6681 -2.9980 0.9663
3.0515 -7.4254 -2.9978 0.9663
4.3192 -6.7659 -2.9974 0.9663
4.9040 -6.3542 -2.9972 0.9663
6.8119 -4.2425 -2.9966 0.9663
7.8633 -1.5983 -2.9963 0.9663
7.9743 -0.8921 -2.9963 0.9663
8.0220 -0.1788 -2.9962 0.9663
8.0061 0.5360 -2.9962 0.9663
7.3161 3.2965 -2.9964 0.9663
6.6161 4.5417 -2.9966 0.9663
5.8715 4.8529 -2.8444 0.9680
4.9185 5.8176 -2.8447 0.9680
0.5937 7.5984 -2.8460 0.9680
-1.4351 7.4868 -2.8465 0.9680
-2.0959 7.3299 -2.8467 0.9680
-2.7402 7.1147 -2.8469 0.9680
-3.3628 6.8430 -2.8471 0.9680
-3.9587 6.5170 -2.8473 0.9680
-4.5233 6.1391 -2.8475 0.9680
-5.0521 5.7125 -2.8476 0.9680
-5.5407 5.2404 -2.8478 0.9680
-6.7244 4.3989 -3.0005 0.9663
-7.6484 2.4663 -3.0008 0.9663
-7.8377 1.7758 -3.0009 0.9663
-8.0286 -0.3580 -3.0009 0.9663
-7.8378 -1.7758 -3.0009 0.9663
-5.8376 -5.5211 -3.0003 0.9663
-5.3227 -6.0185 -3.0002 0.9663
-4.7657 -6.4680 -3.0000 0.9663
-4.1708 -6.8661 -2.9999 0.9663
-3.5429 -7.2096 -2.9997 0.9663
-2.8870 -7.4959 -2.9995 0.9663
-2.2082 -7.7226 -2.9993 0.9663
-0.8039 -7.9907 -2.9989 0.9663
-0.0895 -8.0300 -2.9987 0.9663
0.6256 -8.0055 -2.9985 0.9663
2.0348 -7.7667 -2.9981 0.9663
5.1820 -6.1293 -2.9971 0.9663
5.7067 -5.6434 -2.9970 0.9663
6.6163 -4.5418 -2.9967 0.9663
6.9940 -3.9347 -2.9966 0.9663
7.5804 -2.6322 -2.9964 0.9663
7.7844 -1.9470 -2.9963 0.9663
7.9267 -1.2464 -2.9963 0.9663
8.0061 -0.5359 -2.9962 0.9663
8.0220 0.1788 -2.9962 0.9663
7.9743 0.8921 -2.9962 0.9663
7.6899 2.2919 -2.9963 0.9663
7.1621 3.6191 -2.9965 0.9663
6.8118 4.2424 -2.9966 0.9663
6.2437 4.7086 -2.9201 0.9672
5.1726 5.5926 -2.8446 0.9680
4.6546 6.0311 -2.8448 0.9680
2.2577 7.2781 -2.8455 0.9680
1.6010 7.4507 -2.8457 0.9680
0.2547 7.6175 -2.8461 0.9680
-0.4244 7.6105 -2.8463 0.9680
-1.1001 7.5430 -2.8464 0.9680
-1.7672 7.4157 -2.8466 0.9680
-3.0545 6.9858 -2.8470 0.9680
-4.2452 6.3343 -2.8474 0.9680
-4.7924 5.9317 -2.8475 0.9680
-5.7688 4.9885 -2.8478 0.9680
-6.5216 4.6940 -3.0005 0.9663
-7.2511 3.4636 -3.0007 0.9663
-7.7507 2.1232 -3.0008 0.9663
-7.5248 -1.3556 -3.0008 0.9677
-7.3741 -2.0200 -3.0008 0.9677
-7.1650 -2.6683 -3.0007 0.9677
-6.2049 -4.4660 -3.0004 0.9677
-5.3143 -5.4949 -3.0002 0.9677
-4.2554 -6.3495 -2.9999 0.9677
-2.4263 -7.2468 -2.9994 0.9677
-1.7715 -7.4336 -2.9992 0.9677
-1.1028 -7.5612 -2.9990 0.9677
-0.4254 -7.6289 -2.9988 0.9677
0.2553 -7.6359 -2.9986 0.9677
1.6049 -7.4687 -2.9982 0.9677
2.2632 -7.2958 -2.9980 0.9677
3.5204 -6.7780 -2.9976 0.9677
4.1095 -6.4374 -2.9974 0.9677
4.6659 -6.0457 -2.9973 0.9677
5.1852 -5.6062 -2.9971 0.9677
7.0939 -2.8233 -2.9965 0.9677
7.5873 -0.8488 -2.9964 0.9677
7.6327 -0.1701 -2.9964 0.9677
7.6175 0.5100 -2.9964 0.9677
7.4066 1.8526 -2.9964 0.9677
6.9610 3.1365 -2.9965 0.9677
6.6544 3.7437 -2.9966 0.9677
6.2950 4.3213 -2.9967 0.9677
5.1536 5.0965 -2.8446 0.9693
3.0516 6.5760 -2.8452 0.9693
2.4543 6.8220 -2.8454 0.9693
1.2060 7.1499 -2.8458 0.9693
0.5649 7.2294 -2.8460 0.9693
-0.0808 7.2515 -2.8462 0.9693
-1.3654 7.1232 -2.8465 0.9693
-1.9941 6.9738 -2.8467 0.9693
-3.1994 6.5106 -2.8471 0.9693
-4.3036 5.8409 -2.8474 0.9693
-4.8066 5.4349 -2.8475 0.9693
-5.9995 4.7378 -3.0003 0.9677
-6.3976 4.1852 -3.0004 0.9677
-7.2767 2.3464 -3.0007 0.9677
-7.4568 1.6895 -3.0008 0.9677
-7.5777 1.0191 -3.0008 0.9677
-7.6384 0.3406 -3.0008 0.9677
-5.9997 -4.7378 -3.0004 0.9677
-5.5539 -5.2528 -3.0003 0.9677
-4.5341 -6.1537 -3.0000 0.9677
-3.3708 -6.8594 -2.9996 0.9677
-2.7468 -7.1318 -2.9994 0.9677
-2.1010 -7.3475 -2.9993 0.9677
-0.7648 -7.6026 -2.9989 0.9677
-0.0851 -7.6400 -2.9987 0.9677
0.5952 -7.6167 -2.9985 0.9677
1.2707 -7.5330 -2.9983 0.9677
1.9360 -7.3896 -2.9981 0.9677
2.5858 -7.1875 -2.9979 0.9677
3.2151 -6.9283 -2.9977 0.9677
3.8188 -6.6143 -2.9975 0.9677
4.3921 -6.2478 -2.9973 0.9677
5.8858 -4.8647 -2.9969 0.9677
6.2952 -4.3213 -2.9968 0.9677
6.6546 -3.7438 -2.9967 0.9677
7.2125 -2.5045 -2.9965 0.9677
7.4066 -1.8525 -2.9964 0.9677
7.4817 1.5208 -2.9964 0.9677
7.0938 2.8233 -2.9965 0.9677
6.4812 4.0365 -2.9967 0.9677
4.9216 5.3212 -2.8447 0.9693
3.9005 6.1101 -2.8450 0.9693
-0.4037 7.2409 -2.8462 0.9693
-1.0467 7.1767 -2.8464 0.9693
-5.0441 5.2155 -2.8476 0.9693
-6.2047 4.4659 -3.0004 0.9677
-6.5779 3.8961 -3.0005 0.9677
-7.1649 2.6682 -3.0007 0.9677
-7.6156 0.6805 -3.0008 0.9677
-7.2582 -0.6486 -3.0007 0.9690
-7.1717 -1.2920 -3.0007 0.9690
-7.0281 -1.9252 -3.0007 0.9690
-6.8287 -2.5430 -3.0006 0.9690
-6.5751 -3.1406 -3.0005 0.9690
-6.2693 -3.7133 -3.0004 0.9690
-5.9137 -4.2564 -3.0003 0.9690
-4.5785 -5.6668 -3.0000 0.9690
-4.0557 -6.0516 -2.9998 0.9690
-2.9182 -6.6740 -2.9995 0.9690
-1.6884 -7.0849 -2.9991 0.9690
1.5297 -7.1185 -2.9982 0.9690
2.7672 -6.7337 -2.9978 0.9690
3.9169 -6.1357 -2.9975 0.9690
4.9422 -5.3434 -2.9972 0.9690
5.3979 -4.8821 -2.9970 0.9690
5.8108 -4.3821 -2.9969 0.9690
6.1775 -3.8474 -2.9968 0.9690
6.9739 -2.0784 -2.9966 0.9690
7.1311 -1.4495 -2.9965 0.9690
7.2318 -0.8090 -2.9965 0.9690
7.2750 -0.1621 -2.9965 0.9690
6.8744 2.3871 -2.9966 0.9690
5.6098 4.6366 -2.9969 0.9690
4.4604 5.2758 -2.8448 0.9706
3.9733 5.6521 -2.8450 0.9706
3.4547 5.9837 -2.8451 0.9706
2.3393 6.5021 -2.8455 0.9706
1.7514 6.6849 -2.8456 0.9705
-0.0770 6.9114 -2.8462 0.9705
-1.3014 6.7891 -2.8465 0.9705
-1.9006 6.6467 -2.8467 0.9705
-2.4848 6.4516 -2.8469 0.9705
-3.5897 5.9095 -2.8472 0.9705
-4.5811 5.1799 -2.8475 0.9705
-6.7085 2.8447 -3.0005 0.9690
-6.9352 2.2363 -3.0006 0.9690
-7.1069 1.6102 -3.0007 0.9690
-6.7086 -2.8447 -3.0006 0.9690
-6.4286 -3.4304 -3.0005 0.9690
-4.3214 -5.8650 -2.9999 0.9690
-3.7820 -6.2261 -2.9997 0.9690
-2.6179 -6.7972 -2.9994 0.9690
-1.3711 -7.1528 -2.9990 0.9690
0.5673 -7.2596 -2.9985 0.9690
1.2111 -7.1798 -2.9983 0.9690
3.6398 -6.3042 -2.9976 0.9690
4.1862 -5.9549 -2.9974 0.9690
4.6994 -5.5584 -2.9973 0.9690
5.1752 -5.1179 -2.9971 0.9690
6.0001 -4.1189 -2.9969 0.9690
6.8745 -2.3871 -2.9966 0.9690
7.0595 -1.7657 -2.9965 0.9690
7.1886 -1.1303 -2.9965 0.9690
7.2606 -0.4860 -2.9965 0.9690
7.2317 0.8090 -2.9965 0.9690
7.1311 1.4495 -2.9965 0.9690
6.1774 3.8473 -2.9968 0.9690
5.8107 4.3820 -2.9969 0.9690
5.2164 4.7180 -2.8963 0.9700
4.6909 5.0718 -2.8448 0.9706
3.7177 5.8237 -2.8451 0.9706
3.1848 6.1318 -2.8452 0.9706
-0.9976 6.8401 -2.8464 0.9705
-3.3228 6.0634 -2.8471 0.9705
-3.8495 5.7438 -2.8473 0.9705
-4.3457 5.3788 -2.8474 0.9705
-5.9136 4.2564 -3.0003 0.9690
-7.0280 1.9252 -3.0006 0.9690
-6.8460 -1.2333 -3.0006 0.9702
-6.7089 -1.8378 -3.0006 0.9702
-6.5186 -2.4276 -3.0005 0.9702
-6.2765 -2.9980 -3.0004 0.9702
-5.9846 -3.5447 -3.0004 0.9702
-5.6452 -4.0632 -3.0003 0.9702
-4.8350 -4.9993 -3.0000 0.9702
-4.3706 -5.4096 -2.9999 0.9702
-3.8716 -5.7768 -2.9998 0.9702
-3.3419 -6.0982 -2.9996 0.9702
-1.6118 -6.7633 -2.9991 0.9702
-1.0034 -6.8795 -2.9989 0.9702
2.0592 -6.6381 -2.9980 0.9702
4.2455 -5.5010 -2.9974 0.9702
4.7180 -5.1010 -2.9972 0.9702
5.8973 -3.6729 -2.9969 0.9702
6.2007 -3.1333 -2.9968 0.9702
6.9313 0.4640 -2.9966 0.9702
6.8625 1.0791 -2.9966 0.9702
6.7393 1.6857 -2.9966 0.9702
6.5626 2.2788 -2.9966 0.9702
6.3339 2.8539 -2.9967 0.9702
2.2331 6.2071 -2.8455 0.9717
1.6719 6.3816 -2.8456 0.9717
-0.0735 6.5977 -2.8462 0.9717
-0.6605 6.5654 -2.8463 0.9717
-1.2423 6.4810 -2.8465 0.9717
-1.8143 6.3450 -2.8467 0.9717
-3.4267 5.6412 -2.8471 0.9717
-3.9154 5.3141 -2.8473 0.9717
-4.3731 4.9447 -2.8474 0.9717
-5.0235 4.7512 -2.9826 0.9703
-5.8206 3.8077 -3.0003 0.9702
-6.1366 3.2746 -3.0004 0.9702
-6.4039 2.7155 -3.0004 0.9702
-6.8941 -0.9271 -3.0006 0.9702
-6.4039 -2.7155 -3.0005 0.9702
-6.1367 -3.2746 -3.0004 0.9702
-5.8207 -3.8077 -3.0003 0.9702
-4.6074 -5.2096 -3.0000 0.9702
-3.6103 -5.9434 -2.9997 0.9702
-1.9115 -6.6850 -2.9992 0.9702
0.5415 -6.9301 -2.9985 0.9702
2.3528 -6.5396 -2.9979 0.9702
3.4746 -6.0182 -2.9976 0.9702
3.9963 -5.6848 -2.9975 0.9702
4.4862 -5.3063 -2.9973 0.9702
5.3555 -4.4264 -2.9971 0.9702
6.3340 -2.8539 -2.9968 0.9702
6.7394 -1.6856 -2.9966 0.9702
6.9451 0.1548 -2.9966 0.9702
6.8077 1.3837 -2.9966 0.9702
4.4781 4.8417 -2.8448 0.9717
4.0296 5.2213 -2.8450 0.9717
3.0403 5.8536 -2.8453 0.9717
2.5074 6.1013 -2.8454 0.9717
0.8065 6.5481 -2.8459 0.9717
0.2205 6.5943 -2.8461 0.9717
-0.3673 6.5881 -2.8462 0.9717
-2.6441 6.0471 -2.8469 0.9717
-4.1484 5.1345 -2.8474 0.9717
-5.2608 4.5493 -3.0001 0.9702
-6.2765 2.9981 -3.0004 0.9702
-6.8459 1.2334 -3.0006 0.9702
-6.9286 0.6192 -3.0006 0.9702
-6.6499 0.0000 -3.0005 0.9712
-5.3966 -3.8842 -3.0002 0.9712
-5.0293 -4.3490 -3.0001 0.9712
-4.6221 -4.7792 -3.0000 0.9712
-3.7011 -5.5224 -2.9997 0.9712
-3.1948 -5.8297 -2.9996 0.9712
-2.6631 -6.0906 -2.9994 0.9713
-2.1103 -6.3031 -2.9993 0.9713
-0.3700 -6.6356 -2.9987 0.9713
0.8123 -6.5953 -2.9984 0.9713
1.3960 -6.4964 -2.9982 0.9713
1.9686 -6.3460 -2.9981 0.9713
2.5255 -6.1453 -2.9979 0.9713
3.5747 -5.5996 -2.9976 0.9713
4.0587 -5.2590 -2.9974 0.9713
4.9264 -4.4556 -2.9972 0.9713
5.3032 -3.9993 -2.9971 0.9713
5.6379 -3.5113 -2.9970 0.9713
6.3648 -1.8969 -2.9967 0.9713
6.6264 0.4436 -2.9966 0.9713
6.4429 1.6115 -2.9967 0.9713
6.2740 2.1786 -2.9967 0.9713
6.0553 2.7284 -2.9968 0.9713
5.7886 3.2566 -2.9969 0.9713
5.4759 3.7590 -2.9970 0.9713
5.1198 4.2316 -2.9971 0.9713
3.6262 5.1583 -2.8451 0.9727
3.1528 5.4609 -2.8452 0.9727
2.1349 5.9340 -2.8455 0.9727
-0.0703 6.3074 -2.8462 0.9727
-0.6314 6.2764 -2.8463 0.9727
-3.2759 5.3928 -2.8471 0.9727
-3.7430 5.0802 -2.8472 0.9727
-4.2166 4.7679 -2.8720 0.9725
-5.5643 3.6400 -3.0002 0.9712
-6.3287 2.0408 -3.0004 0.9712
-6.5905 0.8864 -3.0005 0.9712
-6.1219 -2.5959 -3.0004 0.9712
-5.5644 -3.6400 -3.0002 0.9712
-4.8305 -4.5686 -3.0000 0.9712
-4.4045 -4.9802 -2.9999 0.9712
-3.9436 -5.3522 -2.9998 0.9712
-3.4514 -5.6817 -2.9996 0.9712
-2.9318 -5.9661 -2.9995 0.9712
-2.3891 -6.2030 -2.9993 0.9713
-1.8274 -6.3907 -2.9992 0.9713
-1.2512 -6.5276 -2.9990 0.9713
-0.6652 -6.6127 -2.9988 0.9713
-0.0740 -6.6453 -2.9987 0.9713
2.2493 -6.2519 -2.9980 0.9713
2.7966 -6.0265 -2.9978 0.9713
4.2888 -5.0728 -2.9974 0.9713
4.7231 -4.6708 -2.9972 0.9713
5.4760 -3.7590 -2.9970 0.9713
5.7887 -3.2566 -2.9969 0.9713
6.0554 -2.7284 -2.9968 0.9713
6.2740 -2.1785 -2.9968 0.9713
6.4429 -1.6115 -2.9967 0.9713
6.6264 -0.4436 -2.9967 0.9713
6.6396 0.1480 -2.9966 0.9713
6.6001 0.7384 -2.9967 0.9713
6.5082 1.3229 -2.9967 0.9713
6.3647 1.8969 -2.9967 0.9713
6.1708 2.4559 -2.9968 0.9713
5.6378 3.5113 -2.9969 0.9713
4.9263 4.4555 -2.9971 0.9713
3.8523 4.9916 -2.8450 0.9727
2.9065 5.5961 -2.8453 0.9727
2.3970 5.8328 -2.8454 0.9727
1.3250 6.1661 -2.8458 0.9727
0.2108 6.3041 -2.8461 0.9727
-0.9104 6.2422 -2.8464 0.9727
-1.4625 6.1368 -2.8466 0.9727
-2.0030 5.9826 -2.8467 0.9727
-2.5276 5.7809 -2.8469 0.9727
-3.0323 5.5333 -2.8470 0.9727
-4.5932 4.7494 -2.9813 0.9714
-5.0292 4.3489 -3.0000 0.9712
-5.7210 3.3886 -3.0002 0.9712
-6.2315 2.3206 -3.0004 0.9712
-6.4134 1.7568 -3.0004 0.9712
-6.6234 0.5919 -3.0005 0.9712
-6.3653 0.0000 -3.0004 0.9722
-6.1390 -1.6816 -3.0004 0.9722
-5.7434 -2.7434 -3.0003 0.9722
-5.4763 -3.2436 -3.0002 0.9722
-5.1657 -3.7180 -3.0001 0.9722
-4.8141 -4.1629 -3.0000 0.9722
-3.0581 -5.5803 -2.9995 0.9723
-2.5492 -5.8300 -2.9994 0.9723
-2.0200 -6.0335 -2.9992 0.9723
-1.4749 -6.1890 -2.9991 0.9723
-0.3542 -6.3518 -2.9987 0.9723
0.2126 -6.3577 -2.9986 0.9723
0.7776 -6.3132 -2.9984 0.9723
1.3363 -6.2186 -2.9982 0.9723
1.8844 -6.0747 -2.9981 0.9723
2.4175 -5.8826 -2.9979 0.9723
2.9313 -5.6438 -2.9978 0.9723
3.4218 -5.3602 -2.9976 0.9723
5.3969 -3.3612 -2.9970 0.9723
5.9071 -2.3509 -2.9969 0.9723
6.0928 -1.8158 -2.9968 0.9723
6.2301 -1.2663 -2.9968 0.9723
6.3432 0.4246 -2.9967 0.9723
6.2803 0.9875 -2.9967 0.9723
5.7965 2.6118 -2.9969 0.9723
5.2418 3.5984 -2.9970 0.9723
2.0436 5.6803 -2.8455 0.9737
1.0042 5.9532 -2.8458 0.9737
0.4704 6.0193 -2.8460 0.9737
-0.0673 6.0376 -2.8462 0.9737
-0.6044 6.0080 -2.8463 0.9737
-1.1368 5.9307 -2.8465 0.9736
-2.1706 5.6358 -2.8468 0.9736
-2.6637 5.4205 -2.8469 0.9736
-3.5829 4.8628 -2.8472 0.9736
-4.9948 3.9443 -3.0000 0.9722
-5.3262 3.4843 -3.0001 0.9722
-5.6153 2.9965 -3.0002 0.9722
-5.8599 2.4848 -3.0003 0.9722
-6.2078 1.4065 -3.0004 0.9722
-6.3084 0.8484 -3.0004 0.9722
-6.3590 0.2836 -3.0004 0.9722
-6.3590 -0.2835 -3.0004 0.9722
-6.3085 -0.8484 -3.0004 0.9722
-6.2079 -1.4065 -3.0004 0.9722
-6.0580 -1.9534 -3.0004 0.9722
-5.8600 -2.4848 -3.0003 0.9722
-5.6154 -2.9964 -3.0003 0.9722
-4.9949 -3.9444 -3.0001 0.9722
-4.6238 -4.3731 -3.0000 0.9722
-3.7749 -5.1232 -2.9997 0.9723
-3.3037 -5.4387 -2.9996 0.9723
-2.2869 -5.9377 -2.9993 0.9723
-1.1977 -6.2484 -2.9990 0.9723
-0.6368 -6.3299 -2.9988 0.9723
-0.0709 -6.3611 -2.9987 0.9723
1.0580 -6.2721 -2.9983 0.9723
2.1531 -5.9845 -2.9980 0.9723
2.6770 -5.7688 -2.9978 0.9723
3.6571 -5.2023 -2.9976 0.9723
5.7966 -2.6118 -2.9969 0.9723
6.0059 -2.0854 -2.9968 0.9723
6.1675 -1.5426 -2.9968 0.9723
6.2803 -0.9875 -2.9968 0.9723
6.3432 -0.4246 -2.9967 0.9723
6.3558 0.1417 -2.9967 0.9723
6.3180 0.7068 -2.9967 0.9723
6.2301 1.2664 -2.9968 0.9723
5.9070 2.3509 -2.9968 0.9723
5.3968 3.3612 -2.9970 0.9723
4.3175 4.6681 -2.9973 0.9723
3.6875 4.7782 -2.8451 0.9737
2.7822 5.3568 -2.8453 0.9737
-0.3362 6.0288 -2.8462 0.9737
-1.9173 5.7267 -2.8467 0.9736
-2.4195 5.5336 -2.8469 0.9736
-3.3627 5.0175 -2.8471 0.9736
-3.8485 4.7634 -2.8866 0.9733
-4.4242 4.5746 -2.9998 0.9722
-4.8140 4.1629 -3.0000 0.9722
-5.1656 3.7180 -3.0001 0.9722
-5.7433 2.7434 -3.0002 0.9722
-5.9648 2.2213 -3.0003 0.9722
-6.3400 0.5666 -3.0004 0.9722
-6.0759 -0.5429 -3.0004 0.9732
-6.0034 -1.0816 -3.0003 0.9732
-5.5041 -2.6291 -3.0002 0.9732
-5.2482 -3.1085 -3.0001 0.9732
-4.9505 -3.5631 -3.0001 0.9732
-4.6136 -3.9895 -3.0000 0.9732
-3.8328 -4.7439 -2.9997 0.9732
-2.9307 -5.3479 -2.9995 0.9732
-2.4430 -5.5873 -2.9993 0.9732
-1.9359 -5.7822 -2.9992 0.9732
-0.8799 -6.0333 -2.9989 0.9732
0.2037 -6.0930 -2.9986 0.9732
0.7452 -6.0504 -2.9984 0.9732
1.2807 -5.9597 -2.9983 0.9732
2.3168 -5.6377 -2.9980 0.9732
2.8093 -5.4088 -2.9978 0.9732
3.7235 -4.8246 -2.9975 0.9732
4.5195 -4.0877 -2.9973 0.9732
5.4384 -2.7481 -2.9970 0.9732
6.0914 -0.1357 -2.9968 0.9732
6.0793 0.4070 -2.9968 0.9732
6.0189 0.9465 -2.9968 0.9732
5.9109 1.4784 -2.9968 0.9732
5.3106 2.9877 -2.9970 0.9732
5.0237 3.4486 -2.9971 0.9732
4.6970 3.8822 -2.9972 0.9732
3.3340 4.7427 -2.8514 0.9745
2.8924 5.0099 -2.8453 0.9745
2.4351 5.2476 -2.8454 0.9745
1.4663 5.5968 -2.8457 0.9745
0.4508 5.7687 -2.8460 0.9745
-0.5792 5.7578 -2.8463 0.9745
-1.5911 5.5645 -2.8466 0.9745
-2.5528 5.1948 -2.8469 0.9745
-4.0404 4.5685 -2.9997 0.9732
-4.4311 4.1910 -2.9998 0.9732
-5.6158 2.3813 -3.0002 0.9732
-5.8055 1.8721 -3.0003 0.9732
-5.9492 1.3479 -3.0003 0.9732
-6.0941 0.2718 -3.0004 0.9732
-6.0457 -0.8130 -3.0004 0.9732
-5.8056 -1.8721 -3.0003 0.9732
-5.3815 -2.8717 -3.0002 0.9732
-5.1044 -3.3391 -3.0001 0.9732
-4.7868 -3.7801 -3.0000 0.9732
-4.0404 -4.5686 -2.9998 0.9732
-3.6176 -4.9099 -2.9997 0.9732
-2.6895 -5.4730 -2.9994 0.9732
-2.1916 -5.6904 -2.9993 0.9732
-1.6764 -5.8626 -2.9991 0.9732
-1.1479 -5.9882 -2.9990 0.9732
-0.0679 -6.0962 -2.9987 0.9732
0.4749 -6.0777 -2.9985 0.9732
3.5049 -4.9858 -2.9976 0.9732
3.9346 -4.6538 -2.9975 0.9732
4.3330 -4.2850 -2.9974 0.9732
4.6971 -3.8822 -2.9972 0.9732
5.3106 -2.9877 -2.9971 0.9732
5.5553 -2.5031 -2.9970 0.9732
6.0793 -0.4069 -2.9968 0.9732
5.9708 1.2137 -2.9968 0.9732
5.6612 2.2531 -2.9969 0.9732
5.4383 2.7481 -2.9970 0.9732
5.1723 3.2213 -2.9970 0.9732
3.6419 4.7190 -2.9319 0.9738
1.7141 5.5258 -2.8456 0.9745
1.2156 5.6567 -2.8458 0.9745
0.7073 5.7427 -2.8459 0.9745
0.1934 5.7832 -2.8461 0.9745
-0.3222 5.7778 -2.8462 0.9745
-0.8352 5.7265 -2.8464 0.9745
-1.8375 5.4882 -2.8467 0.9745
-3.2226 4.8085 -2.8471 0.9745
-4.6135 3.9895 -2.9999 0.9732
-5.2481 3.1085 -3.0001 0.9732
-5.5041 2.6291 -3.0002 0.9732
-5.7163 2.1288 -3.0002 0.9732
-5.8523 0.0000 -3.0003 0.9740
-5.8291 -0.5209 -3.0003 0.9740
-5.4842 -2.0423 -3.0002 0.9740
-5.2805 -2.5223 -3.0001 0.9740
-3.6772 -4.5513 -2.9997 0.9740
-3.2574 -4.8603 -2.9996 0.9740
-2.3438 -5.3604 -2.9993 0.9740
-1.3561 -5.6904 -2.9990 0.9740
-0.8442 -5.7883 -2.9989 0.9740
-0.3256 -5.8401 -2.9987 0.9741
0.1954 -5.8457 -2.9986 0.9741
1.7326 -5.5855 -2.9981 0.9741
2.2228 -5.4088 -2.9980 0.9741
2.6953 -5.1893 -2.9978 0.9741
3.1463 -4.9286 -2.9977 0.9741
4.3361 -3.9218 -2.9973 0.9741
5.6023 -1.6696 -2.9970 0.9741
5.7286 -1.1644 -2.9969 0.9741
5.8442 -0.1302 -2.9969 0.9741
5.8326 0.3904 -2.9969 0.9741
5.7747 0.9080 -2.9969 0.9741
5.6710 1.4184 -2.9969 0.9741
5.3298 2.4015 -2.9970 0.9741
5.0950 2.8664 -2.9971 0.9741
4.8198 3.3086 -2.9972 0.9741
4.5063 3.7246 -2.9972 0.9741
3.3153 4.7161 -2.9555 0.9744
2.7750 4.8065 -2.8453 0.9754
1.8790 5.2229 -2.8456 0.9754
1.4068 5.3696 -2.8457 0.9754
0.4325 5.5345 -2.8460 0.9754
-0.0618 5.5513 -2.8462 0.9754
-1.0452 5.4529 -2.8464 0.9754
-1.5265 5.3385 -2.8466 0.9754
-1.9957 5.1817 -2.8467 0.9753
-2.8953 4.7664 -2.8591 0.9752
-3.4706 4.7104 -2.9996 0.9740
-3.8762 4.3829 -2.9997 0.9740
-4.5923 3.6265 -2.9999 0.9740
-4.8970 3.2035 -3.0000 0.9740
-5.7075 1.2932 -3.0002 0.9740
-5.8465 0.2607 -3.0003 0.9740
-5.8001 -0.7800 -3.0003 0.9740
-5.7076 -1.2931 -3.0003 0.9740
-5.3877 -2.2846 -3.0002 0.9740
-4.8971 -3.2035 -3.0000 0.9740
-4.2512 -4.0207 -2.9999 0.9740
-3.4707 -4.7104 -2.9996 0.9740
-3.0375 -5.0004 -2.9995 0.9740
-2.5803 -5.2507 -2.9994 0.9740
-2.1026 -5.4593 -2.9992 0.9740
-1.6083 -5.6245 -2.9991 0.9740
-0.5855 -5.8200 -2.9988 0.9740
-0.0652 -5.8487 -2.9987 0.9741
0.4556 -5.8310 -2.9985 0.9741
2.4615 -5.3043 -2.9979 0.9741
2.9237 -5.0640 -2.9978 0.9741
3.7749 -4.4650 -2.9975 0.9741
4.1572 -4.1111 -2.9974 0.9741
4.8199 -3.3087 -2.9972 0.9741
5.3299 -2.4015 -2.9970 0.9741
5.5224 -1.9176 -2.9970 0.9741
5.6711 -1.4184 -2.9969 0.9741
5.6022 1.6697 -2.9969 0.9741
4.9624 3.0906 -2.9971 0.9741
4.6677 3.5201 -2.9972 0.9741
3.9699 4.2922 -2.9974 0.9741
3.0207 4.7319 -2.8781 0.9751
2.5582 4.9254 -2.8454 0.9754
1.6445 5.3015 -2.8457 0.9754
1.1662 5.4271 -2.8458 0.9754
0.1855 5.5484 -2.8461 0.9754
-1.2871 5.4011 -2.8465 0.9754
-2.2246 5.0878 -2.8468 0.9753
-2.6687 4.8699 -2.8469 0.9753
-3.1845 4.7516 -2.9325 0.9746
-4.4261 3.8274 -2.9999 0.9740
-5.2805 2.5223 -3.0001 0.9740
-5.4841 2.0424 -3.0002 0.9740
-5.6442 1.5462 -3.0002 0.9740
-5.7595 1.0376 -3.0003 0.9740
-5.8290 0.5209 -3.0003 0.9740
-5.5977 -0.5002 -3.0002 0.9748
-5.5310 -0.9964 -3.0002 0.9748
-5.2665 -1.9612 -3.0001 0.9748
-4.8352 -2.8638 -3.0000 0.9748
-3.5313 -4.3707 -2.9997 0.9748
-2.7002 -4.9271 -2.9994 0.9748
-2.2508 -5.1477 -2.9993 0.9748
0.1877 -5.6138 -2.9986 0.9749
1.6639 -5.3640 -2.9981 0.9749
2.5884 -4.9835 -2.9979 0.9749
3.8126 -4.1221 -2.9975 0.9749
4.4827 -3.3805 -2.9973 0.9749
4.7657 -2.9681 -2.9972 0.9749
5.3802 -1.6035 -2.9970 0.9749
5.5015 -1.1182 -2.9970 0.9749
5.5791 -0.6241 -2.9970 0.9749
5.6014 0.3750 -2.9969 0.9749
5.1185 2.3063 -2.9971 0.9749
4.8931 2.7529 -2.9971 0.9749
4.3277 3.5769 -2.9973 0.9749
3.6252 4.2879 -2.9975 0.9749
3.2292 4.5937 -2.9976 0.9749
2.2437 4.8350 -2.8455 0.9761
0.4153 5.3150 -2.8460 0.9761
-0.5337 5.3049 -2.8463 0.9761
-1.4660 5.1268 -2.8466 0.9761
-1.9165 4.9762 -2.8467 0.9761
-2.3520 4.7861 -2.8468 0.9761
-3.7225 4.2091 -2.9996 0.9748
-4.4101 3.4826 -2.9998 0.9748
-4.7027 3.0763 -2.9999 0.9748
-5.1738 2.1939 -3.0001 0.9748
-5.5699 0.7491 -3.0002 0.9748
-5.6145 0.2504 -3.0002 0.9748
-5.6145 -0.2504 -3.0002 0.9748
-5.4811 -1.2418 -3.0002 0.9748
-4.7027 -3.0764 -3.0000 0.9748
-2.4779 -5.0424 -2.9993 0.9748
-1.0576 -5.5172 -2.9989 0.9748
0.4376 -5.5997 -2.9985 0.9749
0.9342 -5.5383 -2.9984 0.9749
1.9012 -5.2844 -2.9981 0.9749
3.9924 -3.9481 -2.9974 0.9749
4.8931 -2.7528 -2.9972 0.9749
5.1186 -2.3063 -2.9971 0.9749
5.5458 -0.8720 -2.9970 0.9749
5.6125 0.1251 -2.9969 0.9749
5.5791 0.6242 -2.9969 0.9749
5.5015 1.1182 -2.9970 0.9749
5.0108 2.5321 -2.9971 0.9749
4.7656 2.9681 -2.9972 0.9749
4.1641 3.7662 -2.9973 0.9749
2.0261 4.9302 -2.8456 0.9761
1.1200 5.2119 -2.8458 0.9761
0.1781 5.3284 -2.8461 0.9761
-1.2361 5.1869 -2.8465 0.9761
-2.1363 4.8860 -2.8468 0.9761
-2.6062 4.7558 -2.8951 0.9757
-3.1280 4.6674 -2.9995 0.9748
-5.2665 1.9613 -3.0001 0.9748
-5.5309 0.9965 -3.0002 0.9748
-5.4019 0.0000 -3.0002 0.9756
-5.3804 -0.4808 -3.0002 0.9756
-5.3162 -0.9577 -3.0001 0.9756
-5.2098 -1.4271 -3.0001 0.9756
-5.0621 -1.8851 -3.0001 0.9756
-4.8741 -2.3281 -3.0000 0.9756
-4.6474 -2.7527 -3.0000 0.9756
-2.1634 -4.9479 -2.9993 0.9756
-1.2517 -5.2526 -2.9990 0.9756
1.1343 -5.2780 -2.9983 0.9756
1.5994 -5.1558 -2.9982 0.9756
3.2976 -4.2728 -2.9977 0.9756
5.0139 -1.9955 -2.9971 0.9756
5.1715 -1.5413 -2.9971 0.9756
5.2881 -1.0748 -2.9970 0.9756
5.3627 -0.5999 -2.9970 0.9756
5.3948 -0.1202 -2.9970 0.9756
5.3307 0.8382 -2.9970 0.9756
4.4492 3.0542 -2.9973 0.9756
4.1598 3.4382 -2.9973 0.9756
3.8374 3.7949 -2.9974 0.9756
3.4845 4.1215 -2.9975 0.9756
3.1040 4.4155 -2.9976 0.9756
2.1960 4.7323 -2.8975 0.9764
0.3992 5.1088 -2.8460 0.9768
-1.8422 4.7831 -2.8467 0.9768
-2.3326 4.7467 -2.9374 0.9761
-3.5779 4.0457 -2.9996 0.9756
-4.2389 3.3474 -2.9998 0.9756
-4.5201 2.9569 -2.9999 0.9756
-4.7654 2.5430 -3.0000 0.9756
-5.1410 1.6578 -3.0001 0.9756
-5.3536 0.7200 -3.0001 0.9756
-5.3536 -0.7200 -3.0002 0.9756
-4.9730 -2.1087 -3.0001 0.9756
-4.7655 -2.5429 -3.0000 0.9756
-4.5202 -2.9569 -2.9999 0.9756
-4.2389 -3.3474 -2.9999 0.9756
-3.9240 -3.7113 -2.9998 0.9756
-3.5780 -4.0457 -2.9997 0.9756
-2.8038 -4.6157 -2.9994 0.9756
-2.3818 -4.8467 -2.9993 0.9756
-1.9408 -5.0392 -2.9992 0.9756
-1.4846 -5.1917 -2.9991 0.9756
-1.0165 -5.3030 -2.9989 0.9756
0.4206 -5.3824 -2.9985 0.9756
2.6988 -4.6745 -2.9978 0.9756
3.4846 -4.1216 -2.9976 0.9756
4.1599 -3.4382 -2.9974 0.9756
4.4493 -3.0542 -2.9973 0.9756
4.7033 -2.6461 -2.9972 0.9756
4.9201 -2.2169 -2.9972 0.9756
5.2350 -1.3093 -2.9971 0.9756
5.3307 -0.8382 -2.9970 0.9756
5.3841 -0.3604 -2.9970 0.9756
5.3948 0.1203 -2.9970 0.9756
5.3627 0.5999 -2.9970 0.9756
5.0138 1.9955 -2.9971 0.9756
4.5808 2.8530 -2.9972 0.9756
4.3088 3.2494 -2.9973 0.9756
4.0026 3.6201 -2.9974 0.9756
3.6646 3.9622 -2.9975 0.9756
3.2975 4.2728 -2.9976 0.9756
2.9042 4.5495 -2.9977 0.9756
2.4518 4.7205 -2.9543 0.9760
1.9517 4.7493 -2.8518 0.9768
1.5180 4.8937 -2.8457 0.9768
1.0765 5.0096 -2.8458 0.9768
0.1712 5.1216 -2.8461 0.9768
-0.2853 5.1168 -2.8462 0.9768
-1.1881 4.9855 -2.8465 0.9768
-1.6272 4.8602 -2.8466 0.9768
-2.0793 4.7556 -2.8827 0.9765
-3.0066 4.4862 -2.9994 0.9756
-3.7547 3.8823 -2.9997 0.9756
-4.6474 2.7527 -2.9999 0.9756
-5.2098 1.4271 -3.0001 0.9756
-5.3162 0.9578 -3.0001 0.9756
-5.1757 -0.4625 -3.0001 0.9763
-5.1140 -0.9213 -3.0001 0.9763
-5.0116 -1.3728 -3.0001 0.9763
-4.8695 -1.8134 -3.0000 0.9763
-4.4706 -2.6479 -2.9999 0.9763
-3.6119 -3.7347 -2.9997 0.9763
0.1735 -5.1908 -2.9986 0.9763
1.0910 -5.0773 -2.9983 0.9763
1.5386 -4.9598 -2.9982 0.9763
1.9738 -4.8030 -2.9980 0.9763
2.3934 -4.6080 -2.9979 0.9763
3.1722 -4.1104 -2.9977 0.9763
3.8505 -3.4826 -2.9975 0.9763
4.1451 -3.1259 -2.9974 0.9763
4.6334 -2.3414 -2.9972 0.9763
5.1589 -0.5771 -2.9971 0.9763
5.1898 -0.1156 -2.9971 0.9763
5.1795 0.3467 -2.9971 0.9763
5.1281 0.8064 -2.9971 0.9763
5.0360 1.2596 -2.9971 0.9763
4.7330 2.1326 -2.9972 0.9763
4.5245 2.5455 -2.9972 0.9763
4.2801 2.9381 -2.9973 0.9763
2.5961 4.4967 -2.9978 0.9763
1.7029 4.7334 -2.9043 0.9770
1.2490 4.7681 -2.8458 0.9775
0.8199 4.8606 -2.8459 0.9775
0.3840 4.9145 -2.8460 0.9775
-0.0549 4.9294 -2.8462 0.9775
-1.3610 4.7596 -2.8581 0.9774
-3.4419 3.8918 -2.9996 0.9763
-3.7747 3.5701 -2.9997 0.9763
-4.0776 3.2201 -2.9998 0.9763
-4.5842 2.4462 -2.9999 0.9763
-5.1912 0.2315 -3.0001 0.9763
-5.1500 -0.6926 -3.0001 0.9763
-5.0678 -1.1482 -3.0001 0.9763
-4.9455 -1.5947 -3.0000 0.9763
-4.5842 -2.4462 -2.9999 0.9763
-4.3482 -2.8444 -2.9999 0.9763
-4.0777 -3.2201 -2.9998 0.9763
-3.4419 -3.8918 -2.9996 0.9763
-3.0818 -4.1826 -2.9995 0.9763
-2.6972 -4.4401 -2.9994 0.9763
-2.2912 -4.6624 -2.9993 0.9763
-1.8670 -4.8476 -2.9992 0.9763
-1.4281 -4.9943 -2.9990 0.9763
-0.9779 -5.1013 -2.9989 0.9763
-0.5199 -5.1679 -2.9988 0.9763
-0.0579 -5.1935 -2.9986 0.9763
0.4046 -5.1778 -2.9985 0.9763
1.3161 -5.0236 -2.9982 0.9763
1.7579 -4.8863 -2.9981 0.9763
2.1858 -4.7102 -2.9980 0.9763
2.5962 -4.4968 -2.9979 0.9763
3.6916 -3.6507 -2.9975 0.9763
4.9749 1.4827 -2.9971 0.9763
4.8233 1.9196 -2.9972 0.9763
4.1450 3.1259 -2.9973 0.9763
3.5253 3.8115 -2.9975 0.9763
3.1722 4.1103 -2.9976 0.9763
2.7939 4.3765 -2.9977 0.9763
1.0356 4.8192 -2.8458 0.9775
0.6026 4.8924 -2.8460 0.9775
-0.2745 4.9222 -2.8462 0.9775
-1.1429 4.7960 -2.8465 0.9775
-2.4966 4.5557 -2.9993 0.9763
-2.8923 4.3155 -2.9994 0.9763
-3.2650 4.0412 -2.9995 0.9763
-3.6119 3.7346 -2.9996 0.9763
-3.9301 3.3985 -2.9997 0.9763
-4.6886 2.2396 -2.9999 0.9763
-4.8694 1.8134 -3.0000 0.9763
-5.1140 0.9213 -3.0001 0.9763
-5.1757 0.4625 -3.0001 0.9763
