ply
format ascii 1.0
element vertex 1653
property float32 x
property float32 y
property float32 z
property float32 I
end_header
-5.7624 7.1322 5.0925 0.9589
-5.7619 7.1316 4.8945 0.9593
-5.7609 7.1304 4.5088 0.9600
-5.7605 7.1298 4.3207 0.9603
-5.7586 7.1276 3.5963 0.9614
-5.7578 7.1265 3.2486 0.9619
-5.7561 7.1244 2.5770 0.9627
-5.7557 7.1239 2.4133 0.9628
-5.7553 7.1234 2.2510 0.9630
-5.7544 7.1224 1.9304 0.9633
7.4689 -6.1733 1.7086 0.9614
-5.7537 7.1214 1.6143 0.9635
7.0113 -6.3414 1.5054 0.9624
7.6358 -5.7584 1.5229 0.9620
-5.7533 7.1209 1.4578 0.9636
7.4593 -5.6253 1.3289 0.9630
7.1039 -5.8715 1.3109 0.9634
-5.7529 7.1204 1.3020 0.9637
7.3312 -5.5287 1.1507 0.9637
7.8129 -5.3633 1.1876 0.9625
-5.7525 7.1199 1.1471 0.9638
7.2439 -5.4629 0.9841 0.9642
6.5232 -6.4509 0.9951 0.9638
6.9225 -5.7216 0.9741 0.9645
-5.7521 7.1195 0.9928 0.9638
8.2634 -5.1465 0.8925 0.9617
7.5981 -5.2158 0.8449 0.9637
-5.7517 7.1190 0.8390 0.9639
6.3160 -6.8288 0.6971 0.9634
6.5756 -5.9472 0.6644 0.9651
7.1195 -5.3691 0.6682 0.9649
6.4938 -7.6809 0.7538 0.9605
6.4035 -6.3325 0.6749 0.9645
6.8134 -5.6314 0.6624 0.9652
7.5281 -5.1678 0.6843 0.9640
-5.7513 7.1185 0.6858 0.9640
6.5408 -5.9158 0.5137 0.9653
7.0819 -5.3407 0.5166 0.9651
8.0571 -5.0180 0.5528 0.9627
6.3870 -7.5546 0.5762 0.9611
6.3663 -6.2958 0.5215 0.9648
7.4784 -5.1336 0.5283 0.9643
7.0490 -5.3159 0.3671 0.9653
7.9894 -4.9759 0.3914 0.9630
6.7484 -5.5777 0.3640 0.9656
-5.7506 7.1175 0.3805 0.9640
7.0372 -5.3070 0.2198 0.9653
6.2045 -6.7082 0.0759 0.9641
6.4889 -5.8689 0.0727 0.9656
7.9466 -4.9492 0.0778 0.9632
6.3099 -6.2400 0.0738 0.9651
6.7264 -5.5596 0.0725 0.9657
7.9473 -4.9496 -0.0778 0.9632
6.2479 -7.3901 -0.0804 0.9620
6.7268 -5.5598 -0.0725 0.9657
7.4051 -5.0834 -0.0747 0.9647
6.2185 -6.7233 -0.2284 0.9640
7.0376 -5.3073 -0.2198 0.9653
7.9686 -4.9629 -0.2341 0.9631
6.7378 -5.5689 -0.2180 0.9656
6.2321 -6.7381 -0.3816 0.9639
6.5112 -5.8890 -0.3650 0.9655
7.0495 -5.3163 -0.3671 0.9653
6.3059 -7.4587 -0.4061 0.9617
6.7489 -5.5781 -0.3641 0.9656
7.4338 -5.1030 -0.3749 0.9645
6.2738 -6.7832 -0.5382 0.9637
6.3896 -7.5576 -0.5764 0.9611
6.3675 -6.2970 -0.5216 0.9648
6.7796 -5.6035 -0.5123 0.9654
6.5767 -5.9483 -0.6645 0.9651
7.1207 -5.3700 -0.6684 0.9649
8.1286 -5.0625 -0.7176 0.9623
6.8146 -5.6324 -0.6625 0.9652
7.5297 -5.1689 -0.6844 0.9640
6.3831 -6.9014 -0.8618 0.9629
6.6220 -5.9893 -0.8186 0.9648
7.1709 -5.4078 -0.8234 0.9646
6.8596 -5.6696 -0.8159 0.9649
7.6010 -5.2178 -0.8452 0.9636
-5.7475 7.1137 -0.8384 0.9639
6.4835 -7.0099 -1.0357 0.9623
6.6868 -6.0479 -0.9780 0.9644
8.4612 -5.2697 -1.0812 0.9607
6.5254 -6.4531 -0.9954 0.9637
-5.7471 7.1133 -0.9919 0.9639
6.6330 -7.1716 -1.2242 0.9614
7.3351 -5.5317 -1.1513 0.9636
6.9980 -5.7840 -1.1377 0.9641
7.8178 -5.3666 -1.1883 0.9625
7.0191 -7.5890 -1.4703 0.9591
6.8704 -6.2139 -1.3176 0.9633
7.4633 -5.6284 -1.3296 0.9629
7.2511 -5.9932 -1.4980 0.9626
8.5224 -5.8503 -1.6461 0.9590
-5.7459 7.1118 -1.4559 0.9636
7.2545 -6.5614 -1.7248 0.9610
7.9856 -6.0222 -1.7636 0.9602
-5.7455 7.1113 -1.6120 0.9635
12.1192 8.3194 -2.8447 0.9419
11.3310 9.3654 -2.8448 0.9419
8.4553 12.0278 -2.8452 0.9419
6.1894 13.3377 -2.8455 0.9419
4.9779 13.8364 -2.8456 0.9418
2.4461 14.5015 -2.8459 0.9418
-5.2874 13.7284 -2.8469 0.9418
-6.4886 13.2040 -2.8471 0.9418
-7.6385 12.5747 -2.8472 0.9418
-8.7278 11.8455 -2.8473 0.9418
-9.7479 11.0222 -2.8475 0.9418
-10.6907 10.1112 -2.8476 0.9418
-12.3149 8.0561 -2.8478 0.9418
-12.9834 6.9282 -2.8479 0.9418
13.6569 5.4354 -2.8445 0.9419
13.1193 6.6295 -2.8446 0.9419
12.4776 7.7711 -2.8446 0.9419
11.7368 8.8511 -2.8447 0.9419
10.9028 9.8610 -2.8448 0.9419
8.9825 11.6389 -2.8451 0.9419
6.7772 13.0485 -2.8454 0.9419
1.7977 14.5964 -2.8460 0.9418
-4.6704 13.9499 -2.8468 0.9418
-5.8938 13.4796 -2.8470 0.9418
-11.1307 9.6251 -2.8476 0.9418
-11.9436 8.5965 -2.8477 0.9418
-13.2794 6.3430 -2.8479 0.9418
-13.7915 5.1361 -2.8480 0.9418
-14.2321 0.0000 -3.0004 0.9435
-14.0064 -2.5234 -3.0004 0.9435
-13.3367 -4.9666 -3.0003 0.9435
-12.8414 -6.1338 -3.0002 0.9435
-12.2442 -7.2522 -3.0001 0.9435
-11.5498 -8.3130 -3.0000 0.9435
-8.9421 -11.0678 -2.9997 0.9435
-7.9212 -11.8192 -2.9996 0.9435
-5.6995 -13.0352 -2.9993 0.9435
-3.2977 -13.8378 -2.9990 0.9435
-2.0529 -14.0756 -2.9988 0.9435
0.4753 -14.2151 -2.9985 0.9435
6.5541 -12.6189 -2.9977 0.9435
8.6868 -11.2558 -2.9975 0.9435
9.6538 -10.4376 -2.9973 0.9435
11.3507 -8.5599 -2.9971 0.9435
12.0671 -7.5155 -2.9970 0.9435
14.2114 -0.3167 -2.9968 0.9435
14.1832 0.9495 -2.9968 0.9435
13.7905 3.4492 -2.9969 0.9435
11.7603 6.6162 -2.8447 0.9463
11.1251 7.6369 -2.8448 0.9463
10.4015 8.5971 -2.8449 0.9463
8.7131 10.3059 -2.8451 0.9463
7.7616 11.0410 -2.8452 0.9463
5.6815 12.2434 -2.8455 0.9463
4.5695 12.7011 -2.8457 0.9463
2.2454 13.3114 -2.8460 0.9463
-0.1504 13.5001 -2.8463 0.9463
-1.3514 13.4338 -2.8464 0.9463
-2.5419 13.2610 -2.8466 0.9463
-3.7123 12.9827 -2.8467 0.9463
-9.8129 9.2810 -2.8475 0.9463
-11.3037 7.3946 -2.8477 0.9463
-11.9173 6.3593 -2.8477 0.9463
-14.2179 -0.6340 -3.0004 0.9435
-14.1050 -1.8969 -3.0004 0.9435
-13.8800 -3.1448 -3.0003 0.9435
-13.5448 -4.3676 -3.0003 0.9435
-12.5553 -6.6997 -3.0002 0.9435
-11.9088 -7.7904 -3.0001 0.9435
-11.1678 -8.8191 -3.0000 0.9435
-10.3381 -9.7777 -2.9999 0.9435
-9.4265 -10.6587 -2.9998 0.9435
-8.4400 -11.4549 -2.9996 0.9435
-7.3867 -12.1601 -2.9995 0.9435
-6.2747 -12.7687 -2.9994 0.9435
-3.9110 -13.6775 -2.9991 0.9435
-2.6779 -13.9706 -2.9989 0.9435
1.1080 -14.1794 -2.9984 0.9435
2.3655 -14.0238 -2.9983 0.9435
3.6041 -13.7569 -2.9981 0.9435
4.8140 -13.3808 -2.9979 0.9435
7.1095 -12.3141 -2.9977 0.9435
9.1794 -10.8574 -2.9974 0.9435
10.9582 -9.0572 -2.9972 0.9435
11.7205 -8.0457 -2.9971 0.9435
12.3898 -6.9704 -2.9970 0.9435
13.4288 -4.6630 -2.9969 0.9435
13.7904 -3.4492 -2.9968 0.9435
14.1832 -0.9494 -2.9968 0.9435
14.2115 0.3167 -2.9968 0.9435
14.1269 1.5803 -2.9968 0.9435
12.5367 4.9895 -2.8446 0.9463
12.0432 6.0857 -2.8447 0.9463
11.4540 7.1337 -2.8448 0.9463
6.2211 11.9778 -2.8454 0.9463
5.1306 12.4846 -2.8456 0.9463
3.9993 12.8924 -2.8457 0.9463
2.8360 13.1979 -2.8459 0.9463
1.6502 13.3986 -2.8460 0.9463
-1.9486 13.3607 -2.8465 0.9463
-3.1302 13.1349 -2.8466 0.9463
-4.2871 12.8048 -2.8468 0.9463
-5.4100 12.3730 -2.8469 0.9463
-7.5188 11.2188 -2.8472 0.9463
-9.3896 9.7087 -2.8474 0.9463
-10.9629 7.8907 -2.8476 0.9463
-12.8845 4.7982 -2.8985 0.9453
-13.7262 3.7600 -3.0004 0.9435
-12.6777 -3.4728 -3.0002 0.9475
-12.3181 -4.5873 -3.0001 0.9475
-10.6677 -7.6781 -2.9999 0.9475
-9.9416 -8.5968 -2.9998 0.9475
-9.1367 -9.4472 -2.9997 0.9475
-8.2592 -10.2226 -2.9996 0.9475
-7.3163 -10.9167 -2.9995 0.9475
-6.3153 -11.5241 -2.9994 0.9475
-3.0459 -12.7813 -2.9989 0.9475
-0.7314 -13.1176 -2.9986 0.9475
0.4390 -13.1300 -2.9985 0.9475
1.6058 -13.0381 -2.9984 0.9475
2.7598 -12.8429 -2.9982 0.9475
3.8917 -12.5456 -2.9981 0.9475
6.0539 -11.6558 -2.9978 0.9475
8.0239 -10.3969 -2.9975 0.9475
8.9171 -9.6411 -2.9974 0.9475
9.7395 -8.8089 -2.9973 0.9475
10.4846 -7.9068 -2.9972 0.9475
11.1464 -6.9420 -2.9972 0.9475
11.7198 -5.9223 -2.9971 0.9476
13.0491 -1.4598 -2.9969 0.9476
13.1271 -0.2925 -2.9969 0.9476
12.9712 2.0396 -2.9970 0.9476
11.3635 5.1202 -2.8448 0.9501
10.8630 6.1114 -2.8448 0.9501
8.8632 8.7650 -2.8451 0.9501
8.0482 9.5194 -2.8452 0.9501
5.2479 11.3089 -2.8456 0.9501
3.1599 12.0614 -2.8458 0.9501
2.0740 12.2954 -2.8460 0.9501
0.9714 12.4318 -2.8461 0.9501
-1.2483 12.4083 -2.8464 0.9501
-3.4289 11.9915 -2.8467 0.9501
-4.4828 11.6393 -2.8468 0.9501
-5.5012 11.1946 -2.8469 0.9501
-9.0635 8.5722 -2.8474 0.9501
-9.7908 7.7317 -2.8475 0.9501
-10.4404 6.8298 -2.8475 0.9501
-12.5104 4.0341 -3.0002 0.9475
-12.8200 2.9046 -3.0002 0.9475
-13.1320 0.5856 -3.0003 0.9475
-13.1320 -0.5856 -3.0003 0.9475
-12.5103 -4.0340 -3.0002 0.9475
-11.5964 -6.1880 -3.0000 0.9475
-10.9993 -7.1954 -3.0000 0.9475
-8.7066 -9.8447 -2.9997 0.9475
-7.7955 -10.5802 -2.9996 0.9475
-4.7227 -12.2622 -2.9992 0.9475
-3.6124 -12.6332 -2.9990 0.9475
-0.1464 -13.1368 -2.9986 0.9475
1.0234 -13.0971 -2.9984 0.9475
2.1850 -12.9533 -2.9983 0.9475
3.3290 -12.7068 -2.9981 0.9475
4.4466 -12.3595 -2.9980 0.9475
5.5288 -11.9142 -2.9979 0.9475
6.5670 -11.3743 -2.9977 0.9475
10.1221 -8.3661 -2.9973 0.9475
11.4445 -6.4385 -2.9971 0.9475
12.7382 -3.1861 -2.9970 0.9476
12.9711 -2.0396 -2.9969 0.9476
13.1011 -0.8770 -2.9969 0.9476
13.1272 0.2926 -2.9969 0.9476
12.8675 2.6154 -2.9970 0.9476
10.5801 6.5893 -2.8449 0.9501
9.9519 7.5051 -2.8450 0.9501
9.2447 8.3613 -2.8451 0.9501
8.4641 9.1513 -2.8452 0.9501
6.7080 10.5079 -2.8454 0.9501
5.7463 11.0637 -2.8455 0.9501
4.7390 11.5318 -2.8456 0.9501
2.6196 12.1904 -2.8459 0.9501
1.5242 12.3758 -2.8460 0.9501
-0.6943 12.4513 -2.8463 0.9501
-3.9597 11.8271 -2.8467 0.9501
-8.6725 8.9673 -2.8473 0.9501
-10.1257 7.2880 -2.8475 0.9501
-10.7344 6.3580 -2.8476 0.9501
-12.6778 3.4728 -3.0002 0.9475
-12.9367 2.3307 -3.0002 0.9475
-13.0928 1.1700 -3.0003 0.9475
-12.2057 0.0000 -3.0001 0.9510
-12.1572 -1.0864 -3.0001 0.9510
-11.7717 -3.2246 -3.0001 0.9510
-11.0131 -5.2605 -3.0000 0.9510
-9.2313 -7.9826 -2.9997 0.9510
-5.8642 -10.7007 -2.9993 0.9510
-3.8736 -11.5700 -2.9991 0.9510
-1.7607 -12.0724 -2.9988 0.9510
-0.6792 -12.1806 -2.9986 0.9510
0.4076 -12.1921 -2.9985 0.9510
1.4911 -12.1069 -2.9984 0.9510
3.6138 -11.6497 -2.9981 0.9510
5.6216 -10.8235 -2.9979 0.9510
9.0441 -8.1799 -2.9974 0.9510
10.3506 -6.4464 -2.9973 0.9510
10.8831 -5.4995 -2.9972 0.9510
11.6853 -3.4826 -2.9971 0.9510
12.1175 -1.3556 -2.9971 0.9510
12.0452 1.8940 -2.9971 0.9510
11.8289 2.9586 -2.9971 0.9510
11.5188 3.9998 -2.9972 0.9510
10.0874 5.6751 -2.8449 0.9534
9.5425 6.5505 -2.8450 0.9534
8.9219 7.3741 -2.8451 0.9534
8.2304 8.1392 -2.8452 0.9534
6.6573 9.4702 -2.8454 0.9534
4.8731 10.5014 -2.8456 0.9534
-1.1591 11.5220 -2.8464 0.9534
-6.0133 9.8993 -2.8470 0.9534
-7.6738 8.6769 -2.8472 0.9534
-8.4159 7.9597 -2.8473 0.9534
-9.6944 6.3418 -2.8474 0.9534
-11.9038 2.6971 -3.0001 0.9510
-12.1935 0.5437 -3.0001 0.9510
-11.9037 -2.6971 -3.0001 0.9510
-11.6163 -3.7458 -3.0001 0.9510
-10.2133 -6.6812 -2.9999 0.9510
-8.0845 -9.1413 -2.9996 0.9510
-6.3352 -10.4291 -2.9994 0.9510
-3.3543 -11.7308 -2.9990 0.9510
-1.2211 -12.1386 -2.9987 0.9510
0.9503 -12.1616 -2.9984 0.9510
2.0289 -12.0282 -2.9983 0.9510
3.0913 -11.7994 -2.9982 0.9510
4.1291 -11.4769 -2.9980 0.9510
6.0980 -10.5621 -2.9978 0.9510
7.0137 -9.9771 -2.9977 0.9510
8.6709 -8.5748 -2.9975 0.9510
10.0533 -6.9012 -2.9973 0.9510
10.6274 -5.9789 -2.9972 0.9510
11.8288 -2.9586 -2.9971 0.9510
12.0451 -1.8940 -2.9971 0.9510
12.1900 0.2717 -2.9971 0.9510
12.1175 1.3556 -2.9971 0.9510
11.9489 2.4287 -2.9971 0.9510
11.6854 3.4826 -2.9971 0.9510
9.8247 6.1189 -2.8450 0.9534
9.2414 6.9692 -2.8450 0.9534
7.8598 8.4979 -2.8452 0.9534
7.0725 9.1641 -2.8453 0.9534
6.2290 9.7575 -2.8454 0.9534
4.4006 10.7082 -2.8457 0.9534
0.3869 11.5728 -2.8462 0.9534
-1.6713 11.4591 -2.8464 0.9534
-2.6847 11.2654 -2.8466 0.9534
-3.6769 10.9822 -2.8467 0.9534
-4.6399 10.6118 -2.8468 0.9534
-5.6717 7.0200 -2.2183 0.9635
-8.0528 8.3266 -2.8472 0.9534
-8.7622 7.5770 -2.8473 0.9534
-10.4535 4.9932 -2.8475 0.9534
-11.7718 3.2246 -3.0001 0.9510
-12.1572 1.0864 -3.0001 0.9510
-11.3854 0.0000 -3.0000 0.9540
-11.3401 -1.0134 -3.0000 0.9540
-11.2049 -2.0186 -3.0000 0.9540
-10.6691 -3.9732 -2.9999 0.9540
-9.7953 -5.8018 -2.9998 0.9540
-9.2398 -6.6504 -2.9997 0.9540
-8.6109 -7.4462 -2.9997 0.9540
-7.1538 -8.8544 -2.9995 0.9540
-6.3371 -9.4556 -2.9994 0.9540
-5.4702 -9.9818 -2.9993 0.9540
-4.5598 -10.4286 -2.9991 0.9540
-3.6134 -10.7927 -2.9990 0.9540
-2.6384 -11.0710 -2.9989 0.9540
-1.6424 -11.2614 -2.9988 0.9540
-0.6336 -11.3624 -2.9986 0.9540
1.3910 -11.2937 -2.9984 0.9540
2.3905 -11.1246 -2.9983 0.9540
3.3711 -10.8673 -2.9981 0.9540
5.2440 -10.0966 -2.9979 0.9540
6.1217 -9.5894 -2.9978 0.9540
6.9506 -9.0062 -2.9977 0.9540
7.7244 -8.3515 -2.9976 0.9540
8.4368 -7.6307 -2.9975 0.9540
9.0823 -6.8492 -2.9974 0.9540
9.6556 -6.0136 -2.9974 0.9540
10.5685 -4.2062 -2.9972 0.9540
11.1466 -2.2656 -2.9972 0.9540
11.3039 -1.2645 -2.9972 0.9540
11.3716 -0.2534 -2.9972 0.9540
11.3490 0.7597 -2.9972 0.9540
10.7454 3.7312 -2.9972 0.9540
8.3227 6.8789 -2.8452 0.9563
7.6777 7.5926 -2.8452 0.9563
6.9717 8.2461 -2.8453 0.9563
5.3995 9.3523 -2.8455 0.9563
4.5459 9.7961 -2.8457 0.9563
3.6561 10.1622 -2.8458 0.9563
1.7965 10.6503 -2.8460 0.9563
0.8415 10.7684 -2.8461 0.9563
-0.1203 10.8010 -2.8462 0.9563
-2.0337 10.6095 -2.8465 0.9563
-5.6093 9.2341 -2.8469 0.9563
-8.4803 6.6968 -2.8473 0.9563
-9.0429 5.9156 -2.8474 0.9563
-10.4816 4.4446 -2.9999 0.9540
-10.8357 3.4941 -3.0000 0.9540
-11.1038 2.5158 -3.0000 0.9540
-11.1038 -2.5158 -3.0000 0.9540
-10.0441 -5.3597 -2.9999 0.9540
-9.5270 -6.2322 -2.9998 0.9540
-8.2706 -7.8223 -2.9996 0.9540
-7.5413 -8.5271 -2.9995 0.9540
-5.0200 -10.2154 -2.9992 0.9540
-2.1425 -11.1773 -2.9988 0.9540
-1.1391 -11.3231 -2.9987 0.9540
1.8926 -11.2203 -2.9983 0.9540
2.8837 -11.0069 -2.9982 0.9540
3.8517 -10.7061 -2.9981 0.9540
5.6885 -9.8528 -2.9978 0.9540
6.5427 -9.3071 -2.9977 0.9540
8.0886 -7.9990 -2.9975 0.9540
10.3707 -4.6728 -2.9973 0.9540
10.7453 -3.7312 -2.9972 0.9540
11.0346 -2.7599 -2.9972 0.9540
11.2364 -1.7668 -2.9972 0.9540
11.3490 -0.7597 -2.9972 0.9540
11.3716 0.2534 -2.9972 0.9540
11.3039 1.2645 -2.9972 0.9540
10.9008 3.2488 -2.9972 0.9540
10.5686 4.2062 -2.9973 0.9540
9.1650 5.7080 -2.8451 0.9563
8.6208 6.5012 -2.8451 0.9563
8.0082 7.2430 -2.8452 0.9563
7.3320 7.9272 -2.8453 0.9563
5.8107 9.1022 -2.8455 0.9563
4.1050 9.9890 -2.8457 0.9563
1.3203 10.7200 -2.8461 0.9563
-0.6014 10.7852 -2.8463 0.9563
-4.3282 9.8988 -2.8468 0.9563
-5.1923 9.4747 -2.8469 0.9563
-9.2975 5.5070 -2.8474 0.9563
-10.0144 4.7835 -2.9244 0.9551
-10.6692 3.9733 -3.0000 0.9540
-10.4934 -1.8905 -2.9999 0.9567
-10.2834 -2.8169 -2.9999 0.9567
-9.9918 -3.7210 -2.9999 0.9567
-9.6207 -4.5954 -2.9998 0.9567
-9.1734 -5.4334 -2.9997 0.9567
-8.0643 -6.9734 -2.9996 0.9567
-7.4114 -7.6633 -2.9995 0.9567
-6.6997 -8.2923 -2.9994 0.9567
-5.1229 -9.3482 -2.9992 0.9567
-3.3840 -10.1076 -2.9990 0.9567
-1.5382 -10.5466 -2.9988 0.9567
3.1571 -10.1777 -2.9982 0.9567
4.0503 -9.8559 -2.9981 0.9567
4.9113 -9.4560 -2.9979 0.9567
7.9016 -7.1466 -2.9976 0.9567
8.5061 -6.4147 -2.9975 0.9567
9.5083 -4.8047 -2.9974 0.9567
10.4395 -2.1219 -2.9973 0.9567
10.5868 -1.1843 -2.9973 0.9567
10.6502 -0.2373 -2.9972 0.9567
10.6291 0.7115 -2.9973 0.9567
10.3347 2.5849 -2.9973 0.9567
10.0637 3.4945 -2.9973 0.9567
8.3370 5.7230 -2.8452 0.9589
6.5293 7.7229 -2.8454 0.9588
5.0569 8.7588 -2.8456 0.9588
1.6825 9.9745 -2.8460 0.9588
0.7881 10.0850 -2.8461 0.9588
-0.1127 10.1155 -2.8462 0.9588
-1.0126 10.0657 -2.8464 0.9588
-1.9046 9.9361 -2.8465 0.9588
-2.7815 9.7275 -2.8466 0.9588
-3.6364 9.4417 -2.8467 0.9588
-5.2532 8.6479 -2.8469 0.9588
-6.0023 8.1464 -2.8470 0.9588
-7.9419 6.2716 -2.8472 0.9588
-8.4688 5.5400 -2.8473 0.9588
-9.8161 4.1624 -2.9999 0.9567
-10.6519 0.4750 -2.9999 0.9567
-10.5673 -1.4212 -2.9999 0.9567
-10.1477 -3.2722 -2.9999 0.9567
-9.8160 -4.1623 -2.9998 0.9567
-8.3670 -6.6074 -2.9996 0.9567
-4.7013 -9.5669 -2.9992 0.9567
-3.8310 -9.9470 -2.9991 0.9567
-2.9304 -10.2481 -2.9989 0.9567
-2.0065 -10.4679 -2.9988 0.9567
-1.0668 -10.6045 -2.9987 0.9567
1.7725 -10.5083 -2.9983 0.9567
3.6073 -10.0268 -2.9981 0.9567
4.4853 -9.6655 -2.9980 0.9567
6.1275 -8.7165 -2.9978 0.9567
6.8788 -8.1363 -2.9977 0.9567
8.2120 -6.7874 -2.9975 0.9567
9.2849 -5.2236 -2.9974 0.9567
9.7128 -4.3763 -2.9974 0.9567
10.6502 0.2373 -2.9972 0.9567
10.5869 1.1843 -2.9973 0.9567
10.4395 2.1219 -2.9973 0.9567
10.2093 3.0427 -2.9973 0.9567
9.8981 3.9394 -2.9974 0.9567
8.0739 6.0888 -2.8452 0.9589
5.4420 8.5247 -2.8455 0.9588
4.6618 8.9755 -2.8456 0.9588
3.8446 9.3552 -2.8457 0.9588
2.9968 9.6606 -2.8458 0.9588
2.1251 9.8894 -2.8460 0.9588
0.3380 10.1103 -2.8462 0.9588
-1.4600 10.0109 -2.8464 0.9588
-2.3454 9.8416 -2.8465 0.9588
-3.2121 9.5941 -2.8466 0.9588
-4.0534 9.2705 -2.8467 0.9588
-4.8627 8.8733 -2.8468 0.9588
-5.6333 8.4055 -2.8469 0.9588
-7.0348 7.2740 -2.8471 0.9588
-7.6545 6.6191 -2.8472 0.9588
-9.6208 4.5955 -2.9998 0.9567
-10.2835 2.8170 -2.9999 0.9567
-10.6201 0.9490 -2.9999 0.9567
-9.9805 -0.8919 -2.9999 0.9590
-9.3900 -3.4969 -2.9998 0.9590
-7.5786 -6.5535 -2.9995 0.9590
-6.9651 -7.2018 -2.9995 0.9590
-6.2962 -7.7929 -2.9994 0.9590
-5.5775 -8.3221 -2.9993 0.9590
-4.8144 -8.7853 -2.9992 0.9590
-2.3221 -9.7440 -2.9989 0.9590
-1.4456 -9.9116 -2.9987 0.9590
0.3347 -10.0102 -2.9985 0.9590
1.2243 -9.9403 -2.9984 0.9590
2.9671 -9.5650 -2.9982 0.9590
3.8065 -9.2627 -2.9981 0.9590
4.6157 -8.8868 -2.9980 0.9590
7.4260 -6.7164 -2.9976 0.9591
7.9942 -6.0287 -2.9976 0.9591
9.3024 -3.7023 -2.9974 0.9591
9.9497 -1.1130 -2.9973 0.9591
10.0093 -0.2231 -2.9973 0.9591
9.4581 3.2842 -2.9974 0.9591
8.4014 4.7266 -2.8859 0.9605
7.3256 6.0548 -2.8453 0.9611
6.1363 7.2581 -2.8454 0.9611
4.7525 8.2316 -2.8456 0.9611
4.0011 8.6222 -2.8457 0.9611
3.2180 8.9445 -2.8458 0.9611
2.4092 9.1957 -2.8459 0.9611
1.5812 9.3740 -2.8460 0.9611
0.7406 9.4779 -2.8461 0.9611
-0.1059 9.5065 -2.8462 0.9611
-5.5363 7.5139 -2.7942 0.9618
-6.3000 7.1235 -2.8470 0.9611
-7.9587 5.2064 -2.8472 0.9611
-8.8400 4.7172 -2.9997 0.9590
-9.5365 3.0751 -2.9998 0.9590
-10.0103 -0.4463 -2.9999 0.9590
-9.7724 -2.2141 -2.9998 0.9590
-9.2248 -3.9116 -2.9998 0.9590
-8.8399 -4.7171 -2.9997 0.9590
-7.2791 -6.8845 -2.9995 0.9590
-5.2011 -8.5622 -2.9992 0.9590
-4.4182 -8.9908 -2.9991 0.9590
-2.7539 -9.6311 -2.9989 0.9590
-1.8857 -9.8376 -2.9988 0.9590
-1.0026 -9.9660 -2.9987 0.9590
-0.1116 -10.0153 -2.9986 0.9590
0.7803 -9.9851 -2.9985 0.9590
1.6658 -9.8757 -2.9984 0.9590
4.2153 -9.0837 -2.9980 0.9590
5.0069 -8.6722 -2.9979 0.9591
7.1195 -7.0406 -2.9977 0.9591
7.7177 -6.3789 -2.9976 0.9591
8.2547 -5.6665 -2.9975 0.9591
9.7127 -2.4293 -2.9974 0.9591
9.9894 -0.6687 -2.9973 0.9591
10.0093 0.2230 -2.9973 0.9591
9.9498 1.1130 -2.9973 0.9591
9.8113 1.9942 -2.9974 0.9591
9.5949 2.8596 -2.9974 0.9591
8.0670 5.0242 -2.8452 0.9611
7.5880 5.7224 -2.8453 0.9611
5.8070 7.5244 -2.8455 0.9611
5.1144 8.0116 -2.8456 0.9611
4.3812 8.4353 -2.8457 0.9611
3.6131 8.7921 -2.8458 0.9611
2.8164 9.0791 -2.8459 0.9611
1.9972 9.2941 -2.8460 0.9611
1.1621 9.4353 -2.8461 0.9611
-1.3721 9.4081 -2.8464 0.9611
-3.0187 9.0164 -2.8466 0.9611
-3.8094 8.7123 -2.8467 0.9611
-4.5698 8.3389 -2.8468 0.9611
-5.2941 7.8993 -2.8469 0.9611
-5.6240 6.9609 -2.6791 0.9633
-7.1935 6.2205 -2.8471 0.9611
-9.0414 4.3187 -2.9998 0.9590
-9.8615 1.7766 -2.9999 0.9590
-9.9805 0.8919 -2.9999 0.9590
-9.2959 -1.6747 -2.9998 0.9611
-9.1099 -2.4955 -2.9997 0.9611
-8.8515 -3.2964 -2.9997 0.9611
-7.1441 -6.1777 -2.9995 0.9611
-5.2577 -7.8450 -2.9992 0.9611
-4.5384 -8.2816 -2.9991 0.9611
-3.7832 -8.6524 -2.9991 0.9611
-2.9980 -8.9544 -2.9989 0.9611
-2.1890 -9.1855 -2.9988 0.9611
-1.3627 -9.3435 -2.9987 0.9611
1.1541 -9.3705 -2.9984 0.9612
2.7970 -9.0168 -2.9982 0.9612
4.3512 -8.3775 -2.9980 0.9612
5.0794 -7.9567 -2.9979 0.9612
9.0451 -2.6957 -2.9974 0.9612
8.2262 4.6280 -2.9976 0.9612
7.3863 5.0704 -2.8453 0.9631
6.3705 6.2999 -2.8454 0.9631
5.7847 6.8421 -2.8455 0.9631
0.6982 8.9346 -2.8461 0.9631
-0.0998 8.9616 -2.8462 0.9631
-0.8971 8.9175 -2.8463 0.9631
-1.6873 8.8025 -2.8464 0.9631
-2.4642 8.6177 -2.8465 0.9631
-3.9533 8.0448 -2.8467 0.9631
-5.3174 7.2168 -2.8469 0.9631
-8.6959 3.6874 -2.9997 0.9611
-9.2121 2.0872 -2.9998 0.9611
-9.3613 -1.2590 -2.9998 0.9611
-9.2121 -2.0872 -2.9998 0.9611
-8.6958 -3.6873 -2.9997 0.9611
-8.3330 -4.4466 -2.9996 0.9611
-4.9029 -8.0713 -2.9992 0.9611
-2.5961 -9.0790 -2.9989 0.9611
-0.9451 -9.3947 -2.9987 0.9611
-0.1052 -9.4412 -2.9986 0.9611
0.7355 -9.4128 -2.9985 0.9612
1.5703 -9.3096 -2.9984 0.9612
3.1959 -8.8831 -2.9982 0.9612
4.7200 -8.1752 -2.9980 0.9612
6.0943 -7.2084 -2.9978 0.9612
6.7116 -6.6372 -2.9977 0.9612
7.7817 -5.3419 -2.9976 0.9612
8.6052 -3.8773 -2.9975 0.9612
8.9161 -3.0960 -2.9975 0.9612
9.1562 -2.2901 -2.9974 0.9612
9.4170 -0.6304 -2.9974 0.9612
9.2491 1.8800 -2.9974 0.9612
8.7694 3.4902 -2.9975 0.9612
7.6177 4.7444 -2.8501 0.9630
7.1531 5.3944 -2.8453 0.9631
4.8213 7.5525 -2.8456 0.9631
3.4061 8.2882 -2.8458 0.9631
-1.2935 8.8688 -2.8464 0.9631
-2.0778 8.7188 -2.8465 0.9631
-4.3078 7.8608 -2.8468 0.9631
-6.2321 6.4439 -2.8470 0.9631
-6.7811 5.8638 -2.8471 0.9631
-7.2762 5.2371 -2.8471 0.9631
-8.5230 4.0711 -2.9997 0.9611
-9.1099 2.4955 -2.9998 0.9611
-9.2960 1.6747 -2.9998 0.9611
-8.8928 -0.7946 -2.9997 0.9630
-7.6814 -4.5497 -2.9996 0.9630
-7.2459 -5.2153 -2.9995 0.9630
-4.9697 -7.4153 -2.9992 0.9630
-1.2881 -8.8318 -2.9987 0.9630
-0.4969 -8.9112 -2.9986 0.9630
0.2982 -8.9197 -2.9985 0.9630
1.0909 -8.8575 -2.9984 0.9630
4.8013 -7.5211 -2.9980 0.9630
5.4515 -7.0637 -2.9979 0.9630
6.0584 -6.5503 -2.9978 0.9630
7.1235 -5.3721 -2.9977 0.9631
7.5733 -4.7167 -2.9976 0.9631
8.8662 -0.9918 -2.9975 0.9631
8.8133 1.3858 -2.9975 0.9631
8.4281 2.9266 -2.9975 0.9631
8.1343 3.6651 -2.9976 0.9631
7.7759 4.3747 -2.9976 0.9631
6.9819 4.7928 -2.8453 0.9649
6.5278 5.3954 -2.8454 0.9649
3.5653 7.6831 -2.8458 0.9649
2.1467 8.1940 -2.8460 0.9649
-1.5949 8.3205 -2.8464 0.9649
-2.3292 8.1458 -2.8465 0.9649
-3.7368 7.6042 -2.8467 0.9649
-7.2964 4.7731 -2.9294 0.9639
-8.4973 2.7400 -2.9997 0.9630
-8.7075 1.9729 -2.9997 0.9630
-8.8486 1.1900 -2.9997 0.9630
-8.8485 -1.1900 -2.9997 0.9630
-8.7074 -1.9728 -2.9997 0.9630
-8.2195 -3.4854 -2.9996 0.9630
-7.4711 -4.8873 -2.9995 0.9630
-6.4859 -6.1343 -2.9994 0.9630
-4.6344 -7.6293 -2.9992 0.9630
-3.9368 -8.0112 -2.9991 0.9630
-3.2081 -8.3296 -2.9990 0.9630
0.6953 -8.8974 -2.9985 0.9630
1.4844 -8.7999 -2.9984 0.9630
4.4616 -7.7277 -2.9980 0.9630
5.7607 -6.8138 -2.9978 0.9630
6.3441 -6.2738 -2.9978 0.9630
7.3557 -5.0494 -2.9976 0.9631
7.7758 -4.3746 -2.9976 0.9631
8.4280 -2.9265 -2.9975 0.9631
8.8132 -1.3858 -2.9975 0.9631
8.9016 -0.5959 -2.9975 0.9631
8.9193 0.1988 -2.9975 0.9631
8.8662 0.9919 -2.9975 0.9631
8.2894 3.2991 -2.9976 0.9631
7.5619 4.7096 -2.9931 0.9631
6.2810 5.6809 -2.8454 0.9649
4.5574 7.1390 -2.8456 0.9649
3.9040 7.5165 -2.8457 0.9649
2.5096 8.0901 -2.8459 0.9649
1.7796 8.2816 -2.8460 0.9649
-1.2226 8.3832 -2.8464 0.9649
-1.9640 8.2413 -2.8465 0.9649
-2.6898 8.0341 -2.8466 0.9649
-4.7172 7.0386 -2.8468 0.9649
-5.3251 6.5910 -2.8469 0.9649
-5.8908 6.0910 -2.8470 0.9649
-6.4096 5.5427 -2.8470 0.9649
-7.6815 4.5498 -2.9996 0.9630
-8.7868 1.5830 -2.9997 0.9630
-8.4596 -0.0000 -2.9997 0.9647
-8.4260 -0.7529 -2.9997 0.9647
-8.3255 -1.4999 -2.9996 0.9647
-8.1589 -2.2350 -2.9996 0.9647
-7.9275 -2.9522 -2.9996 0.9647
-7.2783 -4.3109 -2.9995 0.9647
-6.3984 -5.5329 -2.9994 0.9647
-5.8804 -6.0803 -2.9993 0.9647
-5.3158 -6.5794 -2.9993 0.9647
-4.7089 -7.0262 -2.9992 0.9647
-4.0648 -7.4172 -2.9991 0.9647
-3.3884 -7.7494 -2.9990 0.9647
-2.6851 -8.0199 -2.9989 0.9647
-1.9606 -8.2269 -2.9988 0.9647
-1.2205 -8.3684 -2.9987 0.9647
-0.4708 -8.4436 -2.9986 0.9647
0.2826 -8.4517 -2.9985 0.9647
1.0337 -8.3928 -2.9984 0.9647
3.2140 -7.8208 -2.9982 0.9648
4.5494 -7.1266 -2.9980 0.9648
5.1656 -6.6932 -2.9979 0.9648
6.2702 -5.6710 -2.9978 0.9648
7.1760 -4.4693 -2.9977 0.9648
8.2842 -1.6838 -2.9975 0.9648
8.4515 -0.1883 -2.9975 0.9648
8.4347 0.5646 -2.9975 0.9648
8.3510 1.3132 -2.9975 0.9648
8.2011 2.0512 -2.9976 0.9648
7.9860 2.7731 -2.9976 0.9648
6.1854 5.1123 -2.8454 0.9665
5.1812 6.1283 -2.8456 0.9665
4.0127 6.9503 -2.8457 0.9665
3.3783 7.2800 -2.8458 0.9665
2.7170 7.5520 -2.8459 0.9665
1.3350 7.9146 -2.8461 0.9665
0.6253 8.0023 -2.8461 0.9665
-2.8853 7.4915 -2.8466 0.9665
-3.5407 7.2052 -2.8467 0.9665
-4.7624 6.4636 -2.8468 0.9665
-6.3012 4.9761 -2.8470 0.9665
-7.4632 3.9825 -2.9996 0.9647
-8.0513 2.5962 -2.9996 0.9647
-8.2505 1.8693 -2.9997 0.9647
-8.4512 0.3768 -2.9997 0.9647
-8.4512 -0.3769 -2.9997 0.9647
-8.3841 -1.1276 -2.9997 0.9647
-7.7881 -3.3024 -2.9996 0.9647
-6.6386 -5.2424 -2.9994 0.9647
-4.3912 -7.2289 -2.9991 0.9647
-3.7303 -7.5908 -2.9990 0.9647
-3.0397 -7.8925 -2.9990 0.9647
-0.8465 -8.4144 -2.9987 0.9647
-0.0942 -8.4561 -2.9986 0.9647
1.4065 -8.3383 -2.9984 0.9647
4.8623 -6.9167 -2.9980 0.9648
5.4585 -6.4564 -2.9979 0.9648
6.0114 -5.9448 -2.9978 0.9648
6.5165 -5.3860 -2.9978 0.9648
7.3680 -4.1451 -2.9977 0.9648
8.2010 -2.0512 -2.9976 0.9648
8.4347 -0.5646 -2.9975 0.9648
8.4012 0.9398 -2.9975 0.9648
7.5453 3.8128 -2.9977 0.9648
6.4069 4.8317 -2.8454 0.9665
5.9516 5.3829 -2.8455 0.9665
5.4490 5.8913 -2.8455 0.9665
4.9031 6.3531 -2.8456 0.9665
3.6992 7.1222 -2.8458 0.9665
3.0507 7.4234 -2.8458 0.9665
2.3779 7.6657 -2.8459 0.9665
1.6863 7.8472 -2.8460 0.9665
0.9811 7.9663 -2.8461 0.9665
-0.4469 8.0146 -2.8463 0.9665
-1.1585 7.9433 -2.8464 0.9665
-1.8609 7.8089 -2.8465 0.9665
-2.5487 7.6125 -2.8465 0.9665
-3.2162 7.3556 -2.8466 0.9665
-5.0457 6.2451 -2.8469 0.9665
-6.0733 5.2518 -2.8470 0.9665
-6.6361 4.7764 -2.8992 0.9659
-7.6333 3.6461 -2.9996 0.9647
-8.4261 0.7529 -2.9997 0.9647
-8.0330 0.0000 -2.9996 0.9663
-8.0011 -0.7150 -2.9996 0.9663
-7.5278 -2.8034 -2.9995 0.9663
-7.2483 -3.4622 -2.9995 0.9663
-6.9113 -4.0936 -2.9995 0.9663
-6.0757 -5.2539 -2.9994 0.9663
-4.4715 -6.6719 -2.9991 0.9663
-3.8598 -7.0433 -2.9991 0.9663
-3.2175 -7.3586 -2.9990 0.9663
-2.5497 -7.6156 -2.9989 0.9663
-1.1590 -7.9465 -2.9987 0.9663
-0.4471 -8.0179 -2.9986 0.9663
0.2683 -8.0256 -2.9985 0.9663
3.0520 -7.4265 -2.9982 0.9663
4.3201 -6.7674 -2.9980 0.9663
4.9052 -6.3559 -2.9980 0.9663
5.4513 -5.8939 -2.9979 0.9663
6.4097 -4.8338 -2.9978 0.9663
6.8144 -4.2440 -2.9977 0.9663
8.0256 -0.1788 -2.9976 0.9663
7.9302 1.2470 -2.9976 0.9663
7.7878 1.9479 -2.9976 0.9663
6.9967 3.9363 -2.9977 0.9663
5.8736 4.8547 -2.8455 0.9680
3.8105 6.5999 -2.8457 0.9680
3.2080 6.9131 -2.8458 0.9680
1.2677 7.5156 -2.8461 0.9680
-0.0849 7.6218 -2.8462 0.9680
-0.7630 7.5842 -2.8463 0.9680
-1.4350 7.4864 -2.8464 0.9680
-2.7398 7.1138 -2.8466 0.9680
-3.3622 6.8419 -2.8466 0.9680
-3.9579 6.5156 -2.8467 0.9680
-5.0507 5.7109 -2.8469 0.9680
-5.5391 5.2388 -2.8469 0.9680
-7.3954 3.1359 -2.9995 0.9663
-8.0250 0.3579 -2.9996 0.9663
-7.9613 -1.0707 -2.9996 0.9663
-7.3954 -3.1359 -2.9995 0.9663
-5.8356 -5.5193 -2.9993 0.9663
-5.3211 -6.0166 -2.9993 0.9663
-4.1698 -6.8644 -2.9991 0.9663
-0.8038 -7.9902 -2.9987 0.9663
-0.0895 -8.0297 -2.9986 0.9663
0.6256 -8.0056 -2.9985 0.9663
2.0350 -7.7674 -2.9983 0.9663
2.7181 -7.5552 -2.9982 0.9663
3.3797 -7.2831 -2.9981 0.9663
4.6173 -6.5681 -2.9980 0.9663
5.7084 -5.6452 -2.9979 0.9663
6.1881 -5.1146 -2.9978 0.9663
6.9966 -3.9362 -2.9977 0.9663
7.7877 -1.9479 -2.9976 0.9663
8.0256 0.1788 -2.9976 0.9663
7.8668 1.5990 -2.9976 0.9663
7.6933 2.2929 -2.9976 0.9663
7.4588 2.9686 -2.9977 0.9663
7.1650 3.6207 -2.9977 0.9663
6.2664 4.7257 -2.9307 0.9670
5.6516 5.1116 -2.8455 0.9680
5.1743 5.5944 -2.8456 0.9680
4.1006 6.4235 -2.8457 0.9680
3.5127 6.7632 -2.8458 0.9680
2.2581 7.2793 -2.8459 0.9680
1.6012 7.4516 -2.8460 0.9680
0.9317 7.5647 -2.8461 0.9680
0.2547 7.6179 -2.8462 0.9680
-2.4202 7.2287 -2.8465 0.9680
-3.6637 6.6854 -2.8467 0.9680
-4.2443 6.3329 -2.8468 0.9680
-5.3001 5.4803 -2.8469 0.9680
-5.7670 4.9869 -2.8469 0.9680
-6.5194 4.6924 -2.9994 0.9663
-7.2483 3.4623 -2.9995 0.9663
-7.5278 2.8034 -2.9996 0.9663
-7.7475 2.1223 -2.9996 0.9663
-8.0011 0.7150 -2.9996 0.9663
-7.5216 -1.3551 -2.9995 0.9677
-7.3711 -2.0191 -2.9995 0.9677
-7.1621 -2.6672 -2.9995 0.9677
-6.5755 -3.8947 -2.9994 0.9677
-6.2027 -4.4644 -2.9994 0.9677
-5.3126 -5.4932 -2.9993 0.9677
-3.6723 -6.7011 -2.9990 0.9677
-2.4259 -7.2457 -2.9989 0.9677
-1.1027 -7.5606 -2.9987 0.9677
-0.4254 -7.6285 -2.9986 0.9677
0.2553 -7.6359 -2.9985 0.9677
0.9339 -7.5827 -2.9985 0.9677
1.6050 -7.4692 -2.9984 0.9677
2.2634 -7.2965 -2.9983 0.9677
2.9038 -7.0659 -2.9982 0.9677
3.5211 -6.7793 -2.9981 0.9677
4.1104 -6.4388 -2.9981 0.9677
4.6670 -6.0472 -2.9980 0.9677
5.1866 -5.6077 -2.9979 0.9677
6.0985 -4.5991 -2.9978 0.9677
6.4835 -4.0380 -2.9978 0.9677
6.8171 -3.4448 -2.9977 0.9677
7.3198 -2.1815 -2.9977 0.9677
7.6359 -0.1702 -2.9976 0.9677
7.5452 1.1864 -2.9976 0.9677
7.2154 2.5055 -2.9977 0.9677
6.9638 3.1378 -2.9977 0.9677
6.6570 3.7452 -2.9978 0.9677
4.1699 5.9317 -2.8457 0.9693
2.4548 6.8231 -2.8459 0.9693
1.8378 7.0147 -2.8460 0.9693
1.2062 7.1507 -2.8461 0.9693
0.5649 7.2298 -2.8461 0.9693
-0.0808 7.2516 -2.8462 0.9693
-0.7259 7.2159 -2.8463 0.9693
-1.3653 7.1229 -2.8464 0.9693
-1.9939 6.9732 -2.8465 0.9693
-3.1989 6.5096 -2.8466 0.9693
-4.3026 5.8396 -2.8468 0.9693
-4.8054 5.4335 -2.8468 0.9693
-5.2700 4.9844 -2.8469 0.9693
-6.3955 4.1837 -2.9994 0.9677
-7.2739 2.3455 -2.9995 0.9677
-7.6352 0.3405 -2.9996 0.9677
-7.6352 -0.3404 -2.9996 0.9677
-7.0361 -2.9836 -2.9995 0.9677
-6.3955 -4.1837 -2.9994 0.9677
-5.9976 -4.7363 -2.9993 0.9677
-5.5521 -5.2512 -2.9993 0.9677
-5.0626 -5.7244 -2.9992 0.9677
-3.9673 -6.5310 -2.9991 0.9677
-3.3701 -6.8580 -2.9990 0.9677
0.5952 -7.6168 -2.9985 0.9677
1.2707 -7.5334 -2.9984 0.9677
1.9361 -7.3902 -2.9983 0.9677
3.8195 -6.6156 -2.9981 0.9677
5.4312 -5.3711 -2.9979 0.9677
5.8876 -4.8663 -2.9978 0.9677
6.2973 -4.3228 -2.9978 0.9677
6.9638 -3.1377 -2.9977 0.9677
7.2153 -2.5054 -2.9977 0.9677
7.4096 -1.8533 -2.9977 0.9677
7.5451 -1.1864 -2.9976 0.9677
7.6359 0.1702 -2.9976 0.9677
6.8172 3.4449 -2.9977 0.9677
6.4836 4.0380 -2.9978 0.9677
6.0986 4.5992 -2.9978 0.9677
5.3772 4.8634 -2.8455 0.9693
4.9231 5.3228 -2.8456 0.9693
3.9015 6.1117 -2.8457 0.9693
3.3422 6.4348 -2.8458 0.9693
2.7562 6.7069 -2.8459 0.9693
1.5235 7.0897 -2.8460 0.9693
0.2423 7.2479 -2.8462 0.9693
-0.4037 7.2409 -2.8463 0.9693
-1.0467 7.1765 -2.8464 0.9693
-1.6813 7.0550 -2.8464 0.9693
-2.3026 6.8776 -2.8465 0.9693
-2.9057 6.6455 -2.8466 0.9693
-3.4857 6.3607 -2.8467 0.9693
-4.5585 5.6421 -2.8468 0.9693
-5.5259 4.7785 -2.8672 0.9691
-6.5756 3.8947 -2.9994 0.9677
-6.8962 3.2940 -2.9995 0.9677
-7.1621 2.6672 -2.9995 0.9677
-7.6124 0.6803 -2.9996 0.9677
-7.2553 -0.6483 -2.9995 0.9690
-6.8261 -2.5421 -2.9995 0.9690
-6.2671 -3.7120 -2.9994 0.9690
-5.0635 -5.2356 -2.9992 0.9690
-4.5773 -5.6654 -2.9992 0.9690
-3.5001 -6.3869 -2.9990 0.9690
-2.9177 -6.6729 -2.9989 0.9690
-2.3121 -6.9059 -2.9989 0.9690
-1.0510 -7.2061 -2.9987 0.9690
0.2433 -7.2778 -2.9985 0.9690
1.5298 -7.1190 -2.9984 0.9690
3.3560 -6.4614 -2.9982 0.9690
3.9176 -6.1369 -2.9981 0.9690
4.9435 -5.3448 -2.9980 0.9690
6.1796 -3.8487 -2.9978 0.9690
6.4975 -3.2834 -2.9978 0.9690
7.1339 -1.4500 -2.9977 0.9690
7.2780 -0.1622 -2.9977 0.9690
7.2635 0.4862 -2.9977 0.9690
7.1914 1.1308 -2.9977 0.9690
6.0021 4.1202 -2.9979 0.9690
5.6117 4.6382 -2.9979 0.9690
3.9743 5.6536 -2.8457 0.9705
3.4555 5.9850 -2.8458 0.9705
2.9091 6.2690 -2.8458 0.9705
2.3397 6.5032 -2.8459 0.9705
1.7516 6.6858 -2.8460 0.9705
0.5385 6.8908 -2.8462 0.9705
-0.0770 6.9116 -2.8462 0.9705
-0.6919 6.8775 -2.8463 0.9705
-1.3013 6.7888 -2.8464 0.9705
-3.0489 6.2042 -2.8466 0.9705
-3.5891 5.9084 -2.8467 0.9705
-4.5800 5.1786 -2.8468 0.9705
-5.0514 4.7776 -2.8630 0.9704
-5.7163 4.5142 -2.9993 0.9690
-6.4263 3.4292 -2.9994 0.9690
-6.7061 2.8436 -2.9995 0.9690
-6.9327 2.2355 -2.9995 0.9690
-7.2193 0.9709 -2.9995 0.9690
-6.7061 -2.8436 -2.9994 0.9690
-5.2917 -5.0048 -2.9993 0.9690
-4.8252 -5.4559 -2.9992 0.9690
-4.3203 -5.8635 -2.9991 0.9690
-1.3710 -7.1522 -2.9987 0.9690
-0.7289 -7.2456 -2.9987 0.9690
2.4649 -6.8513 -2.9983 0.9690
3.0648 -6.6046 -2.9982 0.9690
3.6404 -6.3054 -2.9981 0.9690
4.1871 -5.9562 -2.9980 0.9690
4.7005 -5.5598 -2.9980 0.9690
5.6116 -4.6381 -2.9979 0.9690
6.3449 -3.5696 -2.9978 0.9690
6.6373 -2.9906 -2.9977 0.9690
6.8771 -2.3880 -2.9977 0.9690
7.2635 -0.4862 -2.9977 0.9690
7.2347 0.8093 -2.9977 0.9690
7.1340 1.4501 -2.9977 0.9690
6.9766 2.0792 -2.9977 0.9690
6.4976 3.2834 -2.9978 0.9690
5.8127 4.3835 -2.9979 0.9690
5.2340 4.7339 -2.9060 0.9699
4.2222 5.4709 -2.8457 0.9705
3.7186 5.8251 -2.8457 0.9705
2.6270 6.3924 -2.8459 0.9705
2.0477 6.6011 -2.8460 0.9705
0.8449 6.8599 -2.8461 0.9705
-1.6024 6.7242 -2.8464 0.9705
-3.3223 6.0624 -2.8466 0.9705
-3.8487 5.7427 -2.8467 0.9705
-5.9118 4.2550 -2.9994 0.9690
-6.2671 3.7121 -2.9994 0.9690
-6.9536 0.0000 -2.9995 0.9702
-6.9260 -0.6189 -2.9995 0.9702
-6.5162 -2.4267 -2.9994 0.9702
-6.2743 -2.9970 -2.9994 0.9702
-5.9826 -3.5435 -2.9993 0.9702
-5.2594 -4.5479 -2.9993 0.9702
-3.8707 -5.7755 -2.9991 0.9702
-2.2072 -6.5925 -2.9989 0.9702
-1.6116 -6.7626 -2.9988 0.9702
-1.0033 -6.8790 -2.9987 0.9702
0.2323 -6.9475 -2.9985 0.9702
1.4604 -6.7959 -2.9984 0.9702
2.0594 -6.6388 -2.9983 0.9702
3.2037 -6.1682 -2.9982 0.9702
3.7399 -5.8584 -2.9981 0.9702
5.1545 -4.6619 -2.9979 0.9702
5.5489 -4.1846 -2.9979 0.9702
5.8992 -3.6740 -2.9978 0.9702
6.2027 -3.1344 -2.9978 0.9702
6.6601 -1.9849 -2.9977 0.9702
6.8103 -1.3842 -2.9977 0.9702
6.7419 1.6863 -2.9977 0.9702
6.5651 2.2796 -2.9978 0.9702
6.3362 2.8550 -2.9978 0.9702
5.7298 3.9333 -2.9979 0.9702
2.7771 5.9845 -2.8459 0.9717
1.6721 6.3824 -2.8460 0.9717
0.5140 6.5781 -2.8462 0.9717
-0.0735 6.5979 -2.8462 0.9717
-0.6605 6.5654 -2.8463 0.9717
-1.8142 6.3446 -2.8464 0.9717
-2.9105 5.9226 -2.8466 0.9717
-3.4261 5.6402 -2.8467 0.9717
-5.0274 4.7549 -2.9849 0.9703
-6.7817 1.5365 -2.9995 0.9702
-6.9467 -0.3097 -2.9995 0.9702
-6.6179 -2.1340 -2.9994 0.9702
-6.4016 -2.7145 -2.9994 0.9702
-5.4568 -4.3092 -2.9993 0.9702
-4.1242 -5.5974 -2.9991 0.9702
-3.6096 -5.9421 -2.9990 0.9702
-3.0663 -6.2397 -2.9990 0.9702
-1.9113 -6.6841 -2.9988 0.9702
-0.6958 -6.9168 -2.9987 0.9702
-0.0774 -6.9511 -2.9986 0.9702
0.5415 -6.9302 -2.9985 0.9702
2.3530 -6.5404 -2.9983 0.9702
2.9258 -6.3049 -2.9982 0.9702
3.4752 -6.0193 -2.9981 0.9702
3.9971 -5.6860 -2.9981 0.9702
4.4872 -5.3075 -2.9980 0.9702
4.9417 -4.8870 -2.9980 0.9702
5.3570 -4.4277 -2.9979 0.9702
5.7297 -3.9332 -2.9979 0.9702
6.0570 -3.4076 -2.9978 0.9702
6.3362 -2.8549 -2.9978 0.9702
6.5651 -2.2797 -2.9978 0.9702
6.7419 -1.6862 -2.9977 0.9702
6.8652 -1.0795 -2.9977 0.9702
6.9340 -0.4642 -2.9977 0.9702
6.9478 0.1548 -2.9977 0.9702
6.9064 0.7726 -2.9977 0.9702
6.6601 1.9849 -2.9978 0.9702
5.8993 3.6741 -2.9979 0.9702
5.5489 4.1846 -2.9979 0.9702
5.1545 4.6620 -2.9980 0.9702
4.4794 4.8430 -2.8456 0.9717
4.0306 5.2226 -2.8457 0.9717
3.5499 5.5608 -2.8458 0.9717
3.0409 5.8548 -2.8458 0.9717
0.2205 6.5945 -2.8462 0.9717
-1.5297 6.4190 -2.8464 0.9717
-3.1715 5.7872 -2.8466 0.9717
-4.1475 5.1334 -2.8467 0.9717
-6.5163 2.4267 -2.9994 0.9702
-6.9260 0.6189 -2.9995 0.9702
-6.2294 -2.3198 -2.9994 0.9713
-5.7192 -3.3875 -2.9993 0.9713
-5.3949 -3.8830 -2.9993 0.9713
-5.0278 -4.3477 -2.9992 0.9713
-3.7003 -5.5213 -2.9990 0.9713
-1.5407 -6.4649 -2.9988 0.9713
0.2221 -6.6418 -2.9985 0.9713
1.3961 -6.4968 -2.9984 0.9713
2.5258 -6.1461 -2.9983 0.9713
3.0627 -5.8967 -2.9982 0.9713
3.5753 -5.6006 -2.9981 0.9713
4.0595 -5.2601 -2.9981 0.9713
4.9277 -4.4568 -2.9980 0.9713
5.3047 -4.0005 -2.9979 0.9713
5.9298 -2.9965 -2.9978 0.9713
6.3670 -1.8976 -2.9978 0.9713
6.6025 -0.7386 -2.9978 0.9713
6.6421 -0.1480 -2.9978 0.9713
6.5631 1.0320 -2.9978 0.9713
6.4452 1.6121 -2.9978 0.9713
6.2762 2.1794 -2.9978 0.9713
6.0574 2.7293 -2.9978 0.9713
5.7905 3.2577 -2.9979 0.9713
5.4776 3.7602 -2.9979 0.9713
4.0718 4.8161 -2.8457 0.9727
2.6549 5.7212 -2.8459 0.9727
1.0491 6.2197 -2.8461 0.9727
0.4914 6.2886 -2.8462 0.9727
-0.6314 6.2763 -2.8463 0.9727
-1.7343 6.0653 -2.8464 0.9727
-2.2673 5.8870 -2.8465 0.9727
-2.7824 5.6620 -2.8466 0.9727
-3.2753 5.3920 -2.8466 0.9727
-3.7423 5.0791 -2.8467 0.9727
-4.2208 4.7725 -2.8748 0.9724
-6.1199 2.5951 -2.9994 0.9713
-6.4831 1.4689 -2.9994 0.9713
-6.5881 0.8860 -2.9994 0.9713
-6.6408 0.2962 -2.9994 0.9713
-6.1198 -2.5950 -2.9994 0.9713
-5.5626 -3.6389 -2.9993 0.9713
-4.4034 -4.9790 -2.9991 0.9713
-3.9427 -5.3510 -2.9991 0.9713
-3.4507 -5.6806 -2.9990 0.9713
-1.8272 -6.3899 -2.9988 0.9713
-1.2511 -6.5271 -2.9987 0.9713
-0.6652 -6.6123 -2.9987 0.9713
1.6841 -6.4281 -2.9984 0.9713
2.2495 -6.2526 -2.9983 0.9713
3.3223 -5.7544 -2.9982 0.9713
4.7243 -4.6719 -2.9980 0.9713
5.1213 -4.2328 -2.9979 0.9713
6.4452 -1.6121 -2.9978 0.9713
6.5631 -1.0320 -2.9978 0.9713
6.6289 -0.4437 -2.9978 0.9713
6.6421 0.1480 -2.9978 0.9713
6.5106 1.3233 -2.9978 0.9713
6.3670 1.8976 -2.9978 0.9713
6.1729 2.4568 -2.9978 0.9713
5.9298 2.9965 -2.9979 0.9713
5.3047 4.0005 -2.9979 0.9713
4.3803 4.7360 -2.9108 0.9721
3.3936 5.3160 -2.8458 0.9727
2.9071 5.5971 -2.8458 0.9727
1.8687 6.0242 -2.8460 0.9727
1.3252 6.1667 -2.8461 0.9727
0.7710 6.2604 -2.8461 0.9727
0.2108 6.3043 -2.8462 0.9727
-0.9104 6.2421 -2.8463 0.9727
-2.5273 5.7802 -2.8465 0.9727
-3.0319 5.5324 -2.8466 0.9727
-3.9649 4.9074 -2.8467 0.9727
-4.5973 4.7536 -2.9839 0.9714
-5.0279 4.3478 -2.9992 0.9713
-5.3950 3.8831 -2.9993 0.9713
-5.7193 3.3875 -2.9993 0.9713
-6.2294 2.3199 -2.9994 0.9713
-6.4112 1.7562 -2.9994 0.9713
-6.3378 -0.5664 -2.9994 0.9723
-6.2622 -1.1282 -2.9994 0.9723
-6.1369 -1.6811 -2.9994 0.9723
-5.9629 -2.2206 -2.9993 0.9723
-5.7415 -2.7425 -2.9993 0.9723
-5.4746 -3.2426 -2.9993 0.9723
-5.1642 -3.7169 -2.9992 0.9723
-4.8128 -4.1618 -2.9992 0.9723
-3.9985 -4.9490 -2.9991 0.9723
-1.4748 -6.1884 -2.9988 0.9723
-0.9181 -6.2950 -2.9987 0.9723
-0.3542 -6.3516 -2.9986 0.9723
0.2126 -6.3577 -2.9986 0.9723
1.8846 -6.0752 -2.9983 0.9723
5.3985 -3.3622 -2.9979 0.9723
6.0948 -1.8165 -2.9978 0.9723
6.2322 -1.2667 -2.9978 0.9723
6.3202 -0.7070 -2.9978 0.9723
6.3581 -0.1417 -2.9978 0.9723
6.3455 0.4248 -2.9978 0.9723
6.2825 0.9879 -2.9978 0.9723
5.5429 3.1184 -2.9979 0.9723
4.9023 4.0519 -2.9980 0.9723
4.5223 4.4722 -2.9980 0.9723
4.0032 4.7350 -2.9228 0.9730
3.0187 5.2284 -2.8458 0.9737
2.5414 5.4765 -2.8459 0.9737
1.0043 5.9537 -2.8461 0.9737
0.4704 6.0196 -2.8462 0.9737
-0.0673 6.0378 -2.8462 0.9737
-1.6601 5.8058 -2.8464 0.9737
-2.6634 5.4198 -2.8466 0.9736
-3.5822 4.8619 -2.8467 0.9736
-4.2019 4.7512 -2.9898 0.9723
-4.6226 4.3720 -2.9992 0.9723
-4.9935 3.9433 -2.9992 0.9723
-5.3247 3.4833 -2.9993 0.9723
-5.6137 2.9956 -2.9993 0.9723
-6.3568 -0.2834 -2.9994 0.9723
-6.3063 -0.8481 -2.9994 0.9723
-6.0559 -1.9528 -2.9994 0.9723
-4.9934 -3.9433 -2.9992 0.9723
-4.6226 -4.3720 -2.9992 0.9723
-4.2150 -4.7660 -2.9991 0.9723
-2.8059 -5.7099 -2.9989 0.9723
-2.2865 -5.9368 -2.9989 0.9723
-0.6368 -6.3296 -2.9987 0.9723
-0.0709 -6.3609 -2.9986 0.9723
0.4956 -6.3419 -2.9985 0.9723
1.6121 -6.1532 -2.9984 0.9723
2.1533 -5.9852 -2.9983 0.9723
2.6774 -5.7696 -2.9982 0.9723
3.6578 -5.2033 -2.9981 0.9723
4.1063 -4.8570 -2.9981 0.9723
4.5223 -4.4721 -2.9980 0.9723
5.2434 -3.5994 -2.9979 0.9723
5.5429 -3.1184 -2.9979 0.9723
5.7984 -2.6126 -2.9979 0.9723
6.0078 -2.0861 -2.9978 0.9723
6.1696 -1.5431 -2.9978 0.9723
6.3581 0.1417 -2.9978 0.9723
6.2323 1.2668 -2.9978 0.9723
5.9090 2.3517 -2.9979 0.9723
5.0779 3.8294 -2.9980 0.9723
3.6886 4.7793 -2.8457 0.9737
2.7828 5.3578 -2.8459 0.9737
1.7888 5.7666 -2.8460 0.9737
0.7381 5.9926 -2.8461 0.9737
0.2018 6.0347 -2.8462 0.9737
-1.3998 5.8740 -2.8464 0.9737
-1.9171 5.7262 -2.8465 0.9736
-2.9022 5.2958 -2.8466 0.9736
-3.8526 4.7685 -2.8897 0.9733
-4.8128 4.1618 -2.9992 0.9723
-5.4746 3.2426 -2.9993 0.9723
-5.7416 2.7425 -2.9993 0.9723
-5.9629 2.2206 -2.9994 0.9723
-6.1369 1.6811 -2.9994 0.9723
-6.3378 0.5664 -2.9994 0.9723
-5.8814 -1.6111 -2.9993 0.9732
-5.2466 -3.1076 -2.9993 0.9732
-4.2390 -4.3831 -2.9991 0.9732
-2.4426 -5.5864 -2.9989 0.9732
-0.3394 -6.0871 -2.9986 0.9732
1.2807 -5.9601 -2.9984 0.9732
1.8061 -5.8223 -2.9984 0.9732
2.3171 -5.6383 -2.9983 0.9732
3.7242 -4.8255 -2.9981 0.9732
4.5206 -4.0887 -2.9980 0.9732
4.8665 -3.6700 -2.9980 0.9732
5.1738 -3.2222 -2.9979 0.9732
5.6630 -2.2538 -2.9979 0.9732
5.9728 -1.2140 -2.9978 0.9732
6.0934 -0.1358 -2.9978 0.9732
5.7578 1.9993 -2.9979 0.9732
5.3122 2.9886 -2.9979 0.9732
5.0252 3.4496 -2.9980 0.9732
4.3341 4.2860 -2.9981 0.9732
3.9354 4.6549 -2.9981 0.9732
3.3409 4.7525 -2.8573 0.9744
2.4356 5.2485 -2.8459 0.9745
1.9588 5.4446 -2.8460 0.9745
1.4665 5.5974 -2.8460 0.9745
0.9625 5.7059 -2.8461 0.9745
-0.0645 5.7864 -2.8462 0.9745
-0.5792 5.7578 -2.8463 0.9745
-1.0894 5.6835 -2.8464 0.9745
-1.5910 5.5641 -2.8464 0.9745
-2.5525 5.1941 -2.8465 0.9745
-3.0047 4.9464 -2.8466 0.9745
-3.5098 4.7635 -2.9102 0.9740
-4.0395 4.5676 -2.9991 0.9732
-5.1030 3.3382 -2.9993 0.9732
-5.6141 2.3806 -2.9993 0.9732
-5.9473 1.3475 -2.9994 0.9732
-6.0920 0.2717 -2.9994 0.9732
-6.0920 -0.2717 -2.9994 0.9732
-6.0437 -0.8128 -2.9994 0.9732
-5.8037 -1.8714 -2.9993 0.9732
-5.3799 -2.8708 -2.9993 0.9732
-4.7855 -3.7790 -2.9992 0.9732
-4.4301 -4.1899 -2.9991 0.9732
-3.6169 -4.9088 -2.9990 0.9732
-3.1655 -5.2112 -2.9990 0.9732
-2.6891 -5.4721 -2.9989 0.9732
-2.1913 -5.6897 -2.9989 0.9732
-1.6762 -5.8620 -2.9988 0.9732
2.0636 -5.7360 -2.9983 0.9732
2.5659 -5.5295 -2.9983 0.9732
4.3340 -4.2860 -2.9980 0.9732
4.6982 -3.8832 -2.9980 0.9732
5.3122 -2.9886 -2.9979 0.9732
5.7578 -1.9993 -2.9979 0.9732
5.9128 -1.4789 -2.9978 0.9732
6.0210 -0.9468 -2.9978 0.9732
6.0934 0.1358 -2.9978 0.9732
5.8411 1.7408 -2.9979 0.9732
5.4400 2.7490 -2.9979 0.9732
5.1738 3.2223 -2.9980 0.9732
4.5206 4.0887 -2.9980 0.9732
4.1389 4.4749 -2.9981 0.9732
3.6527 4.7330 -2.9406 0.9737
3.1133 4.8769 -2.8458 0.9745
1.7143 5.5265 -2.8460 0.9745
1.2157 5.6572 -2.8461 0.9745
0.7073 5.7431 -2.8461 0.9745
-0.8352 5.7264 -2.8463 0.9745
-1.8373 5.4878 -2.8464 0.9745
-2.7813 5.0753 -2.8466 0.9745
-3.2221 4.8077 -2.8466 0.9745
-3.8320 4.7430 -2.9991 0.9732
-4.2390 4.3831 -2.9991 0.9732
-5.5025 2.6283 -2.9993 0.9732
-6.0015 1.0812 -2.9994 0.9732
-6.0739 0.5428 -2.9994 0.9732
-5.8272 -0.5207 -2.9993 0.9740
-5.7577 -1.0373 -2.9993 0.9740
-5.4825 -2.0417 -2.9993 0.9740
-4.0668 -4.2051 -2.9991 0.9740
-3.6764 -4.5503 -2.9990 0.9740
-3.2567 -4.8594 -2.9990 0.9740
-2.3434 -5.3596 -2.9989 0.9740
-1.8571 -5.5468 -2.9988 0.9740
-1.3560 -5.6899 -2.9988 0.9740
-0.8441 -5.7879 -2.9987 0.9741
0.1954 -5.8457 -2.9986 0.9741
1.7328 -5.5859 -2.9984 0.9741
2.2230 -5.4094 -2.9983 0.9741
3.1468 -4.9294 -2.9982 0.9741
4.3371 -3.9227 -2.9980 0.9741
4.9638 -3.0914 -2.9980 0.9741
5.4331 -2.1623 -2.9979 0.9741
5.6040 -1.6702 -2.9979 0.9741
5.7304 -1.1647 -2.9979 0.9741
5.8461 -0.1302 -2.9979 0.9741
5.6728 1.4189 -2.9979 0.9741
5.0965 2.8673 -2.9980 0.9741
4.8212 3.3096 -2.9980 0.9741
4.5075 3.7256 -2.9980 0.9741
3.7757 4.4659 -2.9981 0.9741
3.3249 4.7297 -2.9640 0.9743
2.7755 4.8074 -2.8459 0.9754
1.8793 5.2235 -2.8460 0.9754
0.9234 5.4742 -2.8461 0.9754
-1.0452 5.4528 -2.8463 0.9754
-1.5264 5.3382 -2.8464 0.9754
-2.4488 4.9832 -2.8465 0.9754
-2.8981 4.7706 -2.8616 0.9752
-3.4700 4.7096 -2.9991 0.9740
-4.2502 4.0198 -2.9991 0.9740
-5.1614 2.7542 -2.9993 0.9740
-5.3861 2.2839 -2.9993 0.9740
-5.7058 1.2928 -2.9993 0.9740
-5.8446 0.2606 -2.9993 0.9740
-5.8446 -0.2606 -2.9993 0.9740
-5.7058 -1.2928 -2.9993 0.9740
-4.5912 -3.6256 -2.9992 0.9740
-4.2502 -4.0198 -2.9991 0.9740
-3.0370 -4.9996 -2.9990 0.9740
-2.5799 -5.2499 -2.9989 0.9740
-2.1023 -5.4586 -2.9988 0.9740
-1.6081 -5.6239 -2.9988 0.9740
-0.5855 -5.8197 -2.9987 0.9741
1.9799 -5.5032 -2.9983 0.9741
2.4618 -5.3050 -2.9983 0.9741
2.9241 -5.0647 -2.9982 0.9741
3.3632 -4.7843 -2.9982 0.9741
4.1581 -4.1120 -2.9981 0.9741
4.5075 -3.7255 -2.9980 0.9741
5.5241 -1.9182 -2.9979 0.9741
5.6728 -1.4189 -2.9979 0.9741
5.7766 -0.9083 -2.9979 0.9741
5.8113 0.6501 -2.9979 0.9741
5.7304 1.1647 -2.9979 0.9741
5.4332 2.1623 -2.9979 0.9741
5.2192 2.6374 -2.9979 0.9741
4.9638 3.0915 -2.9980 0.9741
3.0292 4.7452 -2.8862 0.9750
2.5586 4.9263 -2.8459 0.9754
1.1663 5.4276 -2.8461 0.9754
0.6786 5.5100 -2.8461 0.9754
-0.8013 5.4938 -2.8463 0.9754
-1.2871 5.4008 -2.8464 0.9754
-1.7627 5.2650 -2.8464 0.9754
-3.1885 4.7576 -2.9362 0.9746
-5.4825 2.0417 -2.9993 0.9740
-5.6425 1.5456 -2.9993 0.9740
-5.7577 1.0373 -2.9993 0.9740
-5.8272 0.5207 -2.9993 0.9740
-5.6183 0.0000 -2.9993 0.9748
-5.4187 -1.4843 -2.9993 0.9748
-5.2650 -1.9607 -2.9993 0.9748
-5.0695 -2.4215 -2.9992 0.9748
-4.2495 -3.6747 -2.9991 0.9748
-1.7834 -5.3268 -2.9988 0.9749
-1.3022 -5.4643 -2.9987 0.9749
-0.8107 -5.5583 -2.9987 0.9749
-0.3127 -5.6083 -2.9986 0.9749
0.1877 -5.6138 -2.9986 0.9749
1.1800 -5.4913 -2.9984 0.9749
1.6641 -5.3644 -2.9984 0.9749
2.1349 -5.1949 -2.9983 0.9749
3.0220 -4.7339 -2.9982 0.9749
4.1651 -3.7671 -2.9981 0.9749
4.4838 -3.3814 -2.9980 0.9749
5.0122 -2.5328 -2.9980 0.9749
5.2177 -2.0766 -2.9979 0.9749
5.6143 -0.1251 -2.9979 0.9749
5.6031 0.3751 -2.9979 0.9749
5.4479 1.3626 -2.9979 0.9749
5.3050 1.8421 -2.9979 0.9749
4.8945 2.7536 -2.9980 0.9749
4.3288 3.5778 -2.9981 0.9749
3.9932 3.9490 -2.9981 0.9749
3.6260 4.2888 -2.9982 0.9749
2.7364 4.7396 -2.9217 0.9755
2.2440 4.8357 -2.8459 0.9761
0.8868 5.2571 -2.8461 0.9761
0.4153 5.3153 -2.8462 0.9761
-0.0594 5.3312 -2.8462 0.9761
-0.5337 5.3049 -2.8463 0.9761
-1.4659 5.1264 -2.8464 0.9761
-1.9163 4.9757 -2.8465 0.9761
-3.7218 4.2083 -2.9991 0.9748
-4.0816 3.8604 -2.9991 0.9748
-4.4091 3.4818 -2.9992 0.9748
-4.7015 3.0756 -2.9992 0.9748
-5.1724 2.1933 -2.9993 0.9748
-5.3472 1.7243 -2.9993 0.9748
-5.4794 1.2415 -2.9993 0.9748
-5.4794 -1.2415 -2.9993 0.9748
-5.3471 -1.7243 -2.9993 0.9748
-5.1724 -2.1933 -2.9992 0.9748
-4.7015 -3.0755 -2.9992 0.9748
-2.9165 -4.8012 -2.9990 0.9748
-2.0190 -5.2421 -2.9988 0.9749
-1.5443 -5.4009 -2.9988 0.9749
-0.5622 -5.5889 -2.9987 0.9749
0.4376 -5.5998 -2.9985 0.9749
1.9014 -5.2849 -2.9983 0.9749
2.3641 -5.0946 -2.9983 0.9749
2.8082 -4.8639 -2.9982 0.9749
3.2299 -4.5945 -2.9982 0.9749
3.6259 -4.2888 -2.9981 0.9749
3.9932 -3.9490 -2.9981 0.9749
4.3288 -3.5778 -2.9980 0.9749
5.3050 -1.8421 -2.9979 0.9749
5.4479 -1.3626 -2.9979 0.9749
5.5475 -0.8723 -2.9979 0.9749
5.6031 -0.3751 -2.9979 0.9749
5.6143 0.1251 -2.9979 0.9749
5.3818 1.6040 -2.9979 0.9749
4.1651 3.7672 -2.9981 0.9749
3.8134 4.1230 -2.9981 0.9749
3.4313 4.4461 -2.9982 0.9749
1.1201 5.2123 -2.8461 0.9761
0.6517 5.2914 -2.8461 0.9761
0.1782 5.3286 -2.8462 0.9761
-0.2968 5.3233 -2.8463 0.9761
-0.7695 5.2759 -2.8463 0.9761
-1.6928 5.0561 -2.8464 0.9761
-4.2495 3.6747 -2.9991 0.9748
-4.8339 2.8631 -2.9992 0.9748
-5.4187 1.4843 -2.9993 0.9748
-5.5293 0.9962 -2.9993 0.9748
-5.5960 0.5001 -2.9993 0.9748
-5.4003 0.0000 -2.9993 0.9756
-5.3788 -0.4807 -2.9993 0.9756
-5.0606 -1.8846 -2.9992 0.9756
-4.8728 -2.3275 -2.9992 0.9756
-4.3828 -3.1546 -2.9991 0.9756
-2.1631 -4.9473 -2.9989 0.9756
-0.7792 -5.3427 -2.9987 0.9756
0.1804 -5.3960 -2.9986 0.9756
1.1342 -5.2783 -2.9984 0.9756
2.0520 -4.9933 -2.9983 0.9756
2.9048 -4.5502 -2.9982 0.9756
3.6654 -3.9630 -2.9981 0.9756
5.0153 -1.9960 -2.9980 0.9756
5.1730 -1.5417 -2.9979 0.9756
5.2896 -1.0752 -2.9979 0.9756
5.3965 -0.1202 -2.9979 0.9756
5.3857 0.3605 -2.9979 0.9756
5.2365 1.3098 -2.9979 0.9756
5.0992 1.7706 -2.9980 0.9756
4.9214 2.2175 -2.9980 0.9756
4.7046 2.6467 -2.9980 0.9756
4.4504 3.0550 -2.9980 0.9756
4.1608 3.4390 -2.9981 0.9756
3.1046 4.4163 -2.9982 0.9756
2.2017 4.7446 -2.9050 0.9764
0.8524 5.0531 -2.8461 0.9768
-0.0571 5.1244 -2.8462 0.9768
-0.5130 5.0991 -2.8463 0.9768
-2.3360 4.7536 -2.9417 0.9761
-3.2030 4.3472 -2.9990 0.9756
-3.5773 4.0449 -2.9991 0.9756
-4.2379 3.3467 -2.9991 0.9756
-4.5190 2.9562 -2.9992 0.9756
-4.7643 2.5423 -2.9992 0.9756
-5.3521 0.7198 -2.9993 0.9756
-5.3521 -0.7198 -2.9993 0.9756
-5.2667 -1.1933 -2.9993 0.9756
-5.1396 -1.6573 -2.9992 0.9756
-4.9716 -2.1082 -2.9992 0.9756
-4.5190 -2.9562 -2.9992 0.9756
-3.5773 -4.0449 -2.9990 0.9756
-3.2030 -4.3471 -2.9990 0.9756
-2.8033 -4.6149 -2.9989 0.9756
-1.4844 -5.1913 -2.9988 0.9756
0.4206 -5.3825 -2.9985 0.9756
1.3682 -5.2224 -2.9984 0.9756
3.1045 -4.4163 -2.9982 0.9756
3.8383 -3.7957 -2.9981 0.9756
5.3857 -0.3605 -2.9979 0.9756
5.3965 0.1203 -2.9979 0.9756
4.8178 2.4345 -2.9980 0.9756
4.5820 2.8537 -2.9980 0.9756
4.3099 3.2502 -2.9981 0.9756
3.6654 3.9630 -2.9981 0.9756
3.2982 4.2736 -2.9982 0.9756
2.9048 4.5503 -2.9982 0.9756
2.4583 4.7331 -2.9622 0.9759
1.9553 4.7579 -2.8569 0.9767
1.5182 4.8943 -2.8460 0.9768
0.6264 5.0861 -2.8461 0.9768
0.1712 5.1217 -2.8462 0.9768
-0.2853 5.1168 -2.8463 0.9768
-1.1881 4.9853 -2.8464 0.9768
-1.6271 4.8599 -2.8464 0.9768
-2.0825 4.7628 -2.8871 0.9765
-3.0062 4.4855 -2.9990 0.9756
-3.7540 3.8816 -2.9991 0.9756
-4.3828 3.1546 -2.9992 0.9756
-4.6463 2.7520 -2.9992 0.9756
-5.3147 0.9575 -2.9993 0.9756
-5.1949 0.0000 -2.9993 0.9763
-5.1742 -0.4623 -2.9993 0.9763
-5.1125 -0.9211 -2.9992 0.9763
-4.8682 -1.8129 -2.9992 0.9763
-4.6875 -2.2390 -2.9992 0.9763
-4.4695 -2.6473 -2.9992 0.9763
-3.9292 -3.3977 -2.9991 0.9763
-3.2645 -4.0405 -2.9990 0.9763
-2.8918 -4.3149 -2.9990 0.9763
-2.0809 -4.7591 -2.9988 0.9763
-1.6490 -4.9254 -2.9988 0.9763
-0.7496 -5.1395 -2.9987 0.9763
0.1735 -5.1907 -2.9986 0.9763
1.0911 -5.0775 -2.9984 0.9763
1.5387 -4.9602 -2.9984 0.9763
1.9740 -4.8035 -2.9983 0.9763
2.3937 -4.6086 -2.9983 0.9763
2.7943 -4.3772 -2.9982 0.9763
3.5260 -3.8123 -2.9981 0.9763
3.8513 -3.4833 -2.9981 0.9763
4.1460 -3.1266 -2.9981 0.9763
4.4078 -2.7452 -2.9980 0.9763
4.9763 -1.4831 -2.9980 0.9763
5.1604 -0.5773 -2.9979 0.9763
5.1810 0.3468 -2.9979 0.9763
5.1296 0.8066 -2.9980 0.9763
5.0374 1.2599 -2.9980 0.9763
4.9053 1.7033 -2.9980 0.9763
4.5257 2.5461 -2.9980 0.9763
3.6924 3.6514 -2.9981 0.9763
2.5966 4.4974 -2.9983 0.9763
1.7072 4.7451 -2.9115 0.9770
1.2497 4.7703 -2.8470 0.9775
0.8199 4.8610 -2.8461 0.9775
0.3846 4.9223 -2.8505 0.9775
-0.0549 4.9295 -2.8462 0.9775
-0.4935 4.9052 -2.8463 0.9775
-1.3627 4.7652 -2.8615 0.9774
-1.8302 4.7521 -2.9401 0.9768
-3.7740 3.5694 -2.9991 0.9763
-4.9441 1.5943 -2.9992 0.9763
-5.0664 1.1479 -2.9992 0.9763
-5.1897 -0.2314 -2.9993 0.9763
-5.0664 -1.1479 -2.9992 0.9763
-4.5830 -2.4456 -2.9992 0.9763
-4.3471 -2.8438 -2.9991 0.9763
-4.0767 -3.2194 -2.9991 0.9763
-3.7740 -3.5694 -2.9991 0.9763
-2.6967 -4.4394 -2.9989 0.9763
-2.2909 -4.6617 -2.9989 0.9763
-1.8668 -4.8470 -2.9988 0.9763
-1.4280 -4.9939 -2.9988 0.9763
-0.9778 -5.1011 -2.9987 0.9763
-0.5199 -5.1677 -2.9986 0.9763
1.3162 -5.0239 -2.9984 0.9763
1.7581 -4.8867 -2.9984 0.9763
2.1860 -4.7107 -2.9983 0.9763
3.3527 -3.9656 -2.9982 0.9763
3.6923 -3.6514 -2.9981 0.9763
4.0026 -3.3082 -2.9981 0.9763
4.7343 -2.1332 -2.9980 0.9763
5.0374 -1.2599 -2.9980 0.9763
4.4078 2.7452 -2.9980 0.9763
3.8513 3.4833 -2.9981 0.9763
3.5261 3.8123 -2.9982 0.9763
3.1728 4.1112 -2.9982 0.9763
2.7943 4.3773 -2.9983 0.9763
2.3937 4.6087 -2.9983 0.9763
1.0357 4.8196 -2.8461 0.9775
0.6026 4.8927 -2.8461 0.9775
-0.2747 4.9265 -2.8487 0.9775
-0.7115 4.8783 -2.8463 0.9775
-1.1429 4.7958 -2.8464 0.9775
-1.5934 4.7592 -2.8976 0.9771
-2.0742 4.7439 -2.9892 0.9764
-2.4963 4.5552 -2.9989 0.9763
-2.8919 4.3150 -2.9990 0.9763
-5.1125 0.9211 -2.9992 0.9763
