ply
format ascii 1.0
element vertex 1639
property float32 x
property float32 y
property float32 z
property float32 I
end_header
-3.5990 7.3237 1.4389 0.9674
10.0937 -6.2864 1.8935 0.9530
9.6126 -6.5987 1.8566 0.9539
9.1568 -6.9055 1.6313 0.9547
-3.5917 7.3088 1.1583 0.9676
9.2547 -6.3530 1.5967 0.9557
-3.5880 7.3014 1.0195 0.9677
9.8858 -5.5617 1.4214 0.9553
8.7431 -6.5935 1.1878 0.9569
9.2079 -5.7347 1.1766 0.9573
-3.5844 7.2941 0.8815 0.9678
8.8041 -7.2768 1.2389 0.9551
9.6808 -5.4463 1.2048 0.9563
8.6391 -6.5150 0.9920 0.9575
9.1027 -5.6692 0.9831 0.9578
-3.5808 7.2868 0.7443 0.9679
8.6308 -7.1336 1.0265 0.9560
8.5535 -6.4505 0.8028 0.9579
8.5152 -7.0380 0.8279 0.9567
8.7341 -5.9956 0.7939 0.9584
8.5022 -6.4118 0.6202 0.9582
8.9659 -5.5840 0.6152 0.9586
-3.5737 7.2724 0.4719 0.9681
8.6863 -5.9628 0.6137 0.9587
8.6075 -7.7851 0.4826 0.9546
8.9198 -5.5553 0.4369 0.9588
9.9120 -5.0088 0.4618 0.9565
-3.5702 7.2652 0.3366 0.9681
8.3791 -6.9255 0.4520 0.9574
8.6418 -5.9323 0.4358 0.9589
8.5306 -7.7155 0.2868 0.9550
8.8995 -5.5426 0.2615 0.9589
9.8735 -4.9893 0.2759 0.9567
8.3500 -6.9014 0.2702 0.9576
8.4894 -7.6782 0.0951 0.9552
9.8501 -4.9775 0.0917 0.9568
8.3335 -6.8879 0.0899 0.9577
8.6082 -5.9092 0.0868 0.9591
9.2749 -5.2180 0.0884 0.9583
8.8873 -5.5351 -0.0870 0.9590
-3.5597 7.2437 -0.0671 0.9682
9.2779 -5.2196 -0.0885 0.9583
8.5370 -7.7213 -0.2871 0.9550
8.9019 -5.5442 -0.2615 0.9589
-3.5562 7.2366 -0.2011 0.9683
-3.5529 7.2299 -0.3349 0.9683
8.3889 -6.9336 -0.4525 0.9574
8.6492 -5.9374 -0.4362 0.9589
9.3286 -5.2482 -0.4450 0.9581
8.5098 -6.4176 -0.6208 0.9582
9.0296 -5.6237 -0.7972 0.9582
8.7476 -6.0049 -0.7951 0.9583
9.4584 -5.3212 -0.8133 0.9574
-3.5520 7.2280 -0.7383 0.9682
8.6491 -7.1487 -1.0287 0.9559
8.8300 -6.0614 -0.9819 0.9579
8.8438 -7.3096 -1.2445 0.9549
8.9340 -6.1329 -1.1754 0.9573
9.7084 -5.4619 -1.2083 0.9562
9.3819 -5.8431 -1.3851 0.9564
-3.5514 7.2268 -1.0091 0.9681
9.6241 -5.9940 -1.6127 0.9552
-3.5508 7.2256 -1.2820 0.9679
9.7765 -6.7112 -1.8883 0.9531
-3.5505 7.2250 -1.4195 0.9678
13.3470 6.0139 -2.8330 0.9421
12.7588 7.1780 -2.8330 0.9421
12.0693 8.2851 -2.8330 0.9421
10.4091 10.2937 -2.8330 0.9421
8.4190 11.9762 -2.8330 0.9421
6.1622 13.2792 -2.8330 0.9421
4.9558 13.7750 -2.8330 0.9421
3.7101 14.1614 -2.8330 0.9421
2.4349 14.4354 -2.8330 0.9421
-2.7559 14.3776 -2.8330 0.9421
-3.5501 7.2244 -1.5577 0.9677
-9.6983 10.9660 -2.8330 0.9421
-10.6358 10.0593 -2.8330 0.9421
13.6017 5.4134 -2.8330 0.9421
13.0659 6.6025 -2.8330 0.9421
11.6882 8.8145 -2.8330 0.9421
5.5645 13.5405 -2.8330 0.9421
3.0756 14.3126 -2.8330 0.9421
1.7895 14.5296 -2.8330 0.9421
-3.3937 14.2405 -2.8330 0.9421
-4.6477 13.8820 -2.8330 0.9421
-5.8648 13.4132 -2.8330 0.9421
-7.0354 12.8379 -2.8330 0.9421
-11.8817 8.5519 -2.8330 0.9421
-12.5957 7.4605 -2.8330 0.9421
-14.1608 0.0000 -2.9854 0.9438
-13.2704 -4.9420 -2.9854 0.9438
-11.4933 -8.2724 -2.9854 0.9438
-10.7114 -9.2625 -2.9854 0.9438
-6.8054 -12.4183 -2.9854 0.9438
-5.6731 -12.9747 -2.9854 0.9438
-2.0437 -14.0125 -2.9854 0.9438
-0.7884 -14.1388 -2.9854 0.9438
1.7310 -14.0546 -2.9854 0.9438
2.9750 -13.8447 -2.9854 0.9438
6.5270 -12.5668 -2.9854 0.9438
8.6518 -11.2104 -2.9854 0.9438
9.6152 -10.3959 -2.9854 0.9438
12.0201 -7.4862 -2.9854 0.9438
13.1570 -5.2364 -2.9854 0.9438
13.5709 -4.0445 -2.9854 0.9438
14.1573 -0.3155 -2.9854 0.9438
13.9889 2.1997 -2.9854 0.9438
13.7376 3.4360 -2.9854 0.9438
9.5548 9.4489 -2.8330 0.9465
8.6759 10.2619 -2.8330 0.9465
7.7281 10.9933 -2.8330 0.9465
6.7189 11.6375 -2.8330 0.9465
-0.1497 13.4371 -2.8330 0.9465
-2.5298 13.1976 -2.8330 0.9465
-3.6944 12.9201 -2.8330 0.9465
-4.8297 12.5400 -2.8330 0.9465
-3.5498 7.2237 -1.6968 0.9676
-7.9711 10.8185 -2.8330 0.9465
-8.9023 10.0660 -2.8330 0.9465
-10.5460 8.3282 -2.8330 0.9465
-11.8556 6.3263 -2.8330 0.9465
-12.3716 5.2460 -2.8330 0.9465
-13.8107 3.1291 -2.9854 0.9438
-14.0344 1.8875 -2.9854 0.9438
-14.1467 0.6308 -2.9854 0.9438
-14.1467 -0.6308 -2.9854 0.9438
-14.0344 -1.8874 -2.9854 0.9438
-13.4774 -4.3459 -2.9854 0.9438
-13.0371 -5.5282 -2.9854 0.9438
-12.4933 -6.6666 -2.9854 0.9438
-11.8504 -7.7521 -2.9854 0.9438
-11.1134 -8.7761 -2.9854 0.9438
-8.3999 -11.4004 -2.9854 0.9438
-6.2455 -12.7091 -2.9854 0.9438
-3.8931 -13.6151 -2.9854 0.9438
-2.6659 -13.9075 -2.9854 0.9438
-1.4174 -14.0897 -2.9854 0.9438
1.1036 -14.1178 -2.9854 0.9438
2.3554 -13.9635 -2.9854 0.9438
3.5888 -13.6985 -2.9854 0.9438
4.7938 -13.3246 -2.9854 0.9438
5.9608 -12.8451 -2.9854 0.9438
10.0688 -9.9572 -2.9854 0.9438
10.9151 -9.0216 -2.9854 0.9438
11.6747 -8.0143 -2.9854 0.9438
12.3417 -6.9433 -2.9854 0.9438
12.9107 -5.8173 -2.9854 0.9438
13.7376 -3.4360 -2.9854 0.9438
13.9889 -2.1996 -2.9854 0.9438
14.1292 -0.9458 -2.9854 0.9438
14.1573 0.3155 -2.9854 0.9438
14.0730 1.5743 -2.9854 0.9438
13.8770 2.8206 -2.9854 0.9438
13.5709 4.0446 -2.9854 0.9438
11.4065 7.1040 -2.8330 0.9465
10.7290 8.0911 -2.8330 0.9465
9.1244 9.8652 -2.8330 0.9465
3.9813 12.8346 -2.8330 0.9465
0.4490 13.4304 -2.8330 0.9465
-0.7481 13.4170 -2.8330 0.9465
-4.2663 12.7427 -2.8330 0.9465
-5.3835 12.3124 -2.8330 0.9465
-6.4580 11.7844 -2.8330 0.9465
-7.4812 11.1628 -2.8330 0.9465
-8.4451 10.4526 -2.8330 0.9465
-10.9066 7.8501 -2.8330 0.9465
-11.5620 6.8482 -2.8330 0.9465
-12.1256 5.7919 -2.8330 0.9465
-13.9364 2.5108 -2.9854 0.9438
-13.0278 -1.1642 -2.9854 0.9477
-12.2574 -4.5647 -2.9854 0.9478
-11.8025 -5.6375 -2.9854 0.9478
-9.8937 -8.5554 -2.9854 0.9478
-7.2819 -10.8653 -2.9854 0.9477
-5.2400 -11.9842 -2.9854 0.9478
-4.1526 -12.4031 -2.9854 0.9477
-3.0322 -12.7234 -2.9854 0.9478
0.4371 -13.0725 -2.9854 0.9477
1.5988 -12.9817 -2.9854 0.9477
2.7479 -12.7879 -2.9854 0.9477
3.8752 -12.4925 -2.9854 0.9477
4.9717 -12.0980 -2.9854 0.9478
6.0288 -11.6075 -2.9854 0.9478
8.8812 -9.6023 -2.9854 0.9478
10.4430 -7.8755 -2.9854 0.9477
11.1025 -6.9147 -2.9854 0.9477
12.5349 -3.7358 -2.9854 0.9477
12.8177 -2.6053 -2.9854 0.9478
12.9987 -1.4541 -2.9854 0.9477
13.0765 -0.2914 -2.9854 0.9477
12.9210 2.0318 -2.9854 0.9477
12.6889 3.1737 -2.9854 0.9478
11.3164 5.0989 -2.8330 0.9503
9.5672 7.9075 -2.8330 0.9503
8.0136 9.4785 -2.8330 0.9503
6.2060 10.7492 -2.8330 0.9503
2.0645 12.2392 -2.8330 0.9503
0.9670 12.3743 -2.8330 0.9503
-0.1383 12.4113 -2.8330 0.9503
-3.4124 11.9338 -2.8330 0.9503
-4.4610 11.5827 -2.8330 0.9503
-7.3626 9.9926 -2.8330 0.9503
-8.2228 9.2976 -2.8330 0.9503
-9.7410 7.6924 -2.8330 0.9503
-10.9505 5.8434 -2.8330 0.9503
-11.4272 4.8455 -2.8330 0.9503
-12.4486 4.0142 -2.9854 0.9477
-13.0668 0.5827 -2.9854 0.9477
-13.0668 -0.5827 -2.9854 0.9477
-12.4486 -4.0141 -2.9854 0.9477
-12.0419 -5.1062 -2.9854 0.9477
-10.9457 -7.1604 -2.9854 0.9477
-9.5028 -8.9876 -2.9854 0.9478
-8.6651 -9.7978 -2.9854 0.9478
-5.7687 -11.7389 -2.9854 0.9477
-4.7010 -12.2058 -2.9854 0.9477
-3.5959 -12.5757 -2.9854 0.9478
-1.3092 -13.0141 -2.9854 0.9477
-0.1457 -13.0789 -2.9854 0.9478
1.0190 -13.0400 -2.9854 0.9478
2.1756 -12.8976 -2.9854 0.9478
3.3149 -12.6527 -2.9854 0.9478
4.4279 -12.3075 -2.9854 0.9478
5.5057 -11.8645 -2.9854 0.9478
6.5399 -11.3274 -2.9854 0.9477
8.4447 -9.9884 -2.9854 0.9477
10.0818 -8.3329 -2.9854 0.9478
11.3996 -6.4133 -2.9854 0.9477
12.6889 -3.1737 -2.9854 0.9477
13.0506 -0.8736 -2.9854 0.9477
13.0765 0.2914 -2.9854 0.9478
12.8177 2.6053 -2.9854 0.9477
11.0780 5.5979 -2.8330 0.9503
6.6787 10.4620 -2.8330 0.9503
4.7179 11.4804 -2.8330 0.9503
3.6774 11.8548 -2.8330 0.9503
0.4148 12.4051 -2.8330 0.9503
-0.6910 12.3928 -2.8330 0.9504
-5.9650 10.8847 -2.8330 0.9503
-6.9101 10.3107 -2.8330 0.9503
-9.3886 8.1187 -2.8330 0.9503
-10.0740 7.2508 -2.8330 0.9503
-10.6793 6.3254 -2.8330 0.9503
-11.2000 5.3498 -2.8330 0.9503
-12.2574 4.5647 -2.9854 0.9477
-12.8725 2.3191 -2.9854 0.9477
-12.1455 0.0000 -2.9854 0.9512
-12.0973 -1.0810 -2.9854 0.9512
-11.9531 -2.1535 -2.9854 0.9512
-11.7140 -3.2088 -2.9854 0.9512
-10.4500 -6.1896 -2.9854 0.9512
-9.1870 -7.9443 -2.9854 0.9512
-7.6329 -9.4474 -2.9854 0.9512
-6.7618 -10.0892 -2.9854 0.9512
-5.8369 -10.6510 -2.9854 0.9512
-3.8560 -11.5172 -2.9854 0.9512
-1.7528 -12.0184 -2.9854 0.9512
-0.6762 -12.1267 -2.9854 0.9512
0.4058 -12.1387 -2.9854 0.9512
2.5517 -11.8745 -2.9854 0.9512
7.4205 -9.6150 -2.9854 0.9512
8.2469 -8.9164 -2.9854 0.9512
9.0078 -8.1470 -2.9854 0.9512
11.2846 -4.4912 -2.9854 0.9512
11.6396 -3.4689 -2.9854 0.9512
11.9022 -2.4192 -2.9854 0.9512
12.0702 -1.3502 -2.9854 0.9512
12.1184 0.8112 -2.9854 0.9512
11.9981 1.8866 -2.9854 0.9512
11.7826 2.9470 -2.9854 0.9512
11.4735 3.9841 -2.9854 0.9512
10.0450 5.6512 -2.8330 0.9536
8.8838 7.3427 -2.8330 0.9536
6.6283 9.4289 -2.8330 0.9536
4.8515 10.4547 -2.8330 0.9536
2.9210 11.1492 -2.8330 0.9536
1.9170 11.3650 -2.8330 0.9536
0.8979 11.4905 -2.8330 0.9536
-1.1537 11.4676 -2.8330 0.9536
-2.1698 11.3195 -2.8330 0.9536
-3.1686 11.0814 -2.8330 0.9536
-4.1424 10.7554 -2.8330 0.9536
-3.5492 7.2224 -1.9780 0.9674
-5.9837 9.8505 -2.8330 0.9536
-6.8367 9.2789 -2.8330 0.9536
-7.6354 8.6335 -2.8330 0.9536
-8.3736 7.9197 -2.8330 0.9536
-9.0452 7.1429 -2.8330 0.9536
-11.5594 3.7274 -2.9854 0.9512
-11.8453 2.6838 -2.9854 0.9512
-12.1335 -0.5410 -2.9854 0.9512
-11.1818 -4.7414 -2.9854 0.9512
-10.7154 -5.7179 -2.9854 0.9512
-7.2045 -9.7780 -2.9854 0.9512
-6.3056 -10.3804 -2.9854 0.9512
-2.2865 -11.9284 -2.9854 0.9512
-1.2157 -12.0846 -2.9854 0.9512
-0.1353 -12.1448 -2.9854 0.9512
0.9462 -12.1086 -2.9854 0.9512
6.0728 -10.5183 -2.9854 0.9512
6.9849 -9.9361 -2.9854 0.9512
7.8415 -9.2750 -2.9854 0.9512
8.6359 -8.5402 -2.9854 0.9512
9.3617 -7.7377 -2.9854 0.9512
10.5853 -5.9552 -2.9854 0.9512
11.0734 -4.9894 -2.9854 0.9512
11.7826 -2.9470 -2.9854 0.9512
12.1184 -0.8112 -2.9854 0.9512
12.1425 0.2706 -2.9854 0.9512
12.0702 1.3503 -2.9854 0.9512
11.9022 2.4192 -2.9854 0.9512
11.6396 3.4690 -2.9854 0.9512
11.2847 4.4912 -2.9854 0.9512
10.2868 5.1981 -2.8330 0.9536
6.2017 9.7147 -2.8330 0.9536
5.3124 10.2282 -2.8330 0.9536
2.4214 11.2683 -2.8330 0.9536
0.3851 11.5191 -2.8330 0.9536
-0.6417 11.5076 -2.8330 0.9536
-1.6634 11.4049 -2.8330 0.9536
-3.6591 10.9292 -2.8330 0.9536
-5.5389 10.1073 -2.8330 0.9536
-6.4166 9.5742 -2.8330 0.9536
-8.0124 8.2848 -2.8330 0.9536
-9.9166 5.8736 -2.8330 0.9536
-10.4000 4.9677 -2.8330 0.9536
-11.3819 4.2387 -2.9854 0.9512
-11.7140 3.2088 -2.9854 0.9512
-12.0973 1.0810 -2.9854 0.9512
-11.2847 -1.0084 -2.9854 0.9542
-11.1502 -2.0088 -2.9854 0.9542
-10.9271 -2.9932 -2.9854 0.9542
-10.6173 -3.9539 -2.9854 0.9542
-10.2233 -4.8833 -2.9854 0.9542
-9.7481 -5.7738 -2.9854 0.9542
-9.1955 -6.6185 -2.9854 0.9542
-7.8763 -8.1440 -2.9854 0.9542
-7.1202 -8.8127 -2.9854 0.9542
-6.3075 -9.4115 -2.9854 0.9542
-5.4448 -9.9355 -2.9854 0.9542
-4.5389 -10.3807 -2.9854 0.9542
-1.6351 -11.2111 -2.9854 0.9542
-0.6308 -11.3121 -2.9854 0.9542
1.3849 -11.2447 -2.9854 0.9542
3.3567 -10.8210 -2.9854 0.9542
6.0963 -9.5496 -2.9854 0.9542
6.9221 -8.9692 -2.9854 0.9542
7.6929 -8.3175 -2.9854 0.9542
8.4027 -7.5998 -2.9854 0.9542
9.0457 -6.8217 -2.9854 0.9542
9.6170 -5.9895 -2.9854 0.9542
10.1119 -5.1098 -2.9854 0.9542
10.8577 -3.2360 -2.9854 0.9542
11.1026 -2.2567 -2.9854 0.9542
10.9911 2.7491 -2.9854 0.9542
10.3296 4.6542 -2.9854 0.9542
6.1830 8.7955 -2.8330 0.9565
5.3756 9.3109 -2.8330 0.9565
4.5256 9.7524 -2.8330 0.9565
2.7248 10.4003 -2.8330 0.9565
0.8376 10.7186 -2.8330 0.9565
-1.0762 10.6973 -2.8330 0.9565
-2.0240 10.5591 -2.8330 0.9565
-3.5364 7.1964 -2.1129 0.9674
-6.3775 8.6556 -2.8330 0.9565
-7.8111 7.3877 -2.8330 0.9565
-8.4376 6.6631 -2.8330 0.9565
-10.4307 4.4230 -2.9854 0.9542
-10.7829 3.4771 -2.9854 0.9542
-11.0496 2.5035 -2.9854 0.9542
-11.2286 1.5101 -2.9854 0.9542
-11.3184 0.5047 -2.9854 0.9542
-11.3184 -0.5047 -2.9854 0.9542
-11.2286 -1.5101 -2.9854 0.9542
-11.0496 -2.5035 -2.9854 0.9542
-10.4307 -4.4230 -2.9854 0.9542
-9.4812 -6.2023 -2.9854 0.9542
-7.5057 -8.4868 -2.9854 0.9542
-6.7205 -9.1212 -2.9854 0.9542
-5.8820 -9.6831 -2.9854 0.9542
-4.0720 -10.5726 -2.9854 0.9542
-2.1329 -11.1271 -2.9854 0.9542
-0.1262 -11.3289 -2.9854 0.9542
1.8845 -11.1718 -2.9854 0.9542
3.8354 -10.6607 -2.9854 0.9542
5.6648 -9.8118 -2.9854 0.9542
7.3147 -8.6519 -2.9854 0.9542
8.0558 -7.9665 -2.9854 0.9542
8.7329 -7.2179 -2.9854 0.9542
9.8743 -5.5552 -2.9854 0.9542
10.3295 -4.6543 -2.9854 0.9542
10.9911 -2.7490 -2.9854 0.9542
11.3044 -0.7567 -2.9854 0.9542
11.2594 1.2596 -2.9854 0.9542
11.1026 2.2567 -2.9854 0.9542
10.5266 4.1895 -2.9854 0.9542
9.1261 5.6838 -2.8330 0.9565
7.9737 7.2118 -2.8330 0.9565
6.5687 8.5113 -2.8330 0.9565
4.0867 9.9443 -2.8330 0.9565
2.2588 10.5113 -2.8330 0.9565
1.3142 10.6707 -2.8330 0.9565
0.3593 10.7453 -2.8330 0.9565
-0.5986 10.7346 -2.8330 0.9565
-1.5516 10.6388 -2.8330 0.9565
-4.3072 9.8508 -2.8330 0.9565
-5.9855 8.9311 -2.8330 0.9565
-7.4742 7.7283 -2.8330 0.9565
-8.1324 7.0324 -2.8330 0.9565
-8.7261 6.2806 -2.8330 0.9565
-9.2504 5.4791 -2.8330 0.9565
-10.6173 3.9540 -2.9854 0.9542
-11.2847 1.0084 -2.9854 0.9542
-10.5685 -0.9444 -2.9854 0.9569
-9.5745 -4.5733 -2.9854 0.9569
-9.1294 -5.4074 -2.9854 0.9569
-8.6119 -6.1985 -2.9854 0.9569
-8.0260 -6.9404 -2.9854 0.9569
-7.3764 -7.6272 -2.9854 0.9569
-6.6683 -8.2535 -2.9854 0.9569
-5.9072 -8.8142 -2.9854 0.9569
-5.0993 -9.3050 -2.9854 0.9569
-3.3687 -10.0617 -2.9854 0.9569
-2.4598 -10.3216 -2.9854 0.9569
-1.5313 -10.4995 -2.9854 0.9569
-0.5907 -10.5942 -2.9854 0.9569
1.2970 -10.5310 -2.9854 0.9569
2.2292 -10.3738 -2.9854 0.9569
3.1437 -10.1342 -2.9854 0.9569
4.0332 -9.8142 -2.9854 0.9569
4.8907 -9.4163 -2.9854 0.9569
7.8694 -7.1174 -2.9854 0.9569
9.0067 -5.6094 -2.9854 0.9569
10.3980 -2.1135 -2.9854 0.9569
10.4818 1.6482 -2.9854 0.9569
10.2935 2.5746 -2.9854 0.9569
8.7755 4.9371 -2.8330 0.9590
7.7611 6.4148 -2.8330 0.9590
7.1594 7.0801 -2.8330 0.9590
2.5518 9.7403 -2.8330 0.9590
1.6748 9.9287 -2.8330 0.9590
0.7844 10.0384 -2.8330 0.9590
-0.1122 10.0684 -2.8330 0.9590
-1.0079 10.0184 -2.8330 0.9590
-1.8955 9.8890 -2.8330 0.9590
-2.7682 9.6810 -2.8330 0.9590
-3.6189 9.3962 -2.8330 0.9590
-5.2275 8.6057 -2.8330 0.9590
-6.6705 7.5425 -2.8330 0.9590
-7.9021 6.2403 -2.8330 0.9590
-8.4262 5.5122 -2.8330 0.9590
-8.9782 4.7909 -2.8632 0.9586
-9.7687 4.1423 -2.9854 0.9569
-10.0986 3.2564 -2.9854 0.9569
-10.3484 2.3446 -2.9854 0.9569
-10.5160 1.4143 -2.9854 0.9569
-10.6001 0.4727 -2.9854 0.9569
-10.5160 -1.4143 -2.9854 0.9569
-10.3484 -2.3446 -2.9854 0.9569
-10.0986 -3.2564 -2.9854 0.9569
-9.3612 -4.9953 -2.9854 0.9569
-8.8795 -5.8087 -2.9854 0.9569
-8.3272 -6.5759 -2.9854 0.9569
-7.7089 -7.2910 -2.9854 0.9569
-6.2940 -8.5423 -2.9854 0.9569
-5.5087 -9.0686 -2.9854 0.9569
-2.9171 -10.2018 -2.9854 0.9569
-1.0621 -10.5573 -2.9854 0.9569
0.8266 -10.5784 -2.9854 0.9569
1.7649 -10.4628 -2.9854 0.9569
2.6891 -10.2642 -2.9854 0.9569
3.5920 -9.9841 -2.9854 0.9569
4.4664 -9.6248 -2.9854 0.9569
5.3053 -9.1891 -2.9854 0.9569
6.1021 -8.6804 -2.9854 0.9569
6.8505 -8.1028 -2.9854 0.9569
8.1786 -6.7598 -2.9854 0.9569
9.6740 -4.3589 -2.9854 0.9569
10.0235 -3.4805 -2.9854 0.9569
10.2935 -2.5746 -2.9854 0.9569
10.4818 -1.6482 -2.9854 0.9569
9.8585 3.9236 -2.9854 0.9569
9.3586 4.7291 -2.9502 0.9574
7.4677 6.7541 -2.8330 0.9590
6.8369 7.3920 -2.8330 0.9590
5.4179 8.4871 -2.8330 0.9590
2.9832 9.6169 -2.8330 0.9590
1.2308 9.9935 -2.8330 0.9590
-3.1967 9.5481 -2.8330 0.9590
-6.3279 7.8321 -2.8330 0.9590
-7.6163 6.5861 -2.8330 0.9590
-9.9435 3.7030 -2.9854 0.9569
-9.8138 -1.7680 -2.9854 0.9592
-9.3449 -3.4801 -2.9854 0.9592
-8.0934 -5.8253 -2.9854 0.9592
-6.9323 -7.1680 -2.9854 0.9592
-5.5516 -8.2835 -2.9854 0.9592
-4.7923 -8.7448 -2.9854 0.9592
-3.9949 -9.1366 -2.9854 0.9592
-2.3117 -9.7002 -2.9854 0.9592
-1.4391 -9.8674 -2.9854 0.9592
-0.5552 -9.9564 -2.9854 0.9592
0.3332 -9.9662 -2.9854 0.9592
1.2189 -9.8971 -2.9854 0.9592
2.0950 -9.7493 -2.9854 0.9592
2.9544 -9.5241 -2.9854 0.9592
3.7904 -9.2233 -2.9854 0.9592
5.3657 -8.4052 -2.9854 0.9592
6.7709 -7.3206 -2.9854 0.9592
7.9616 -6.0041 -2.9854 0.9592
8.9000 -4.4974 -2.9854 0.9592
9.2650 -3.6874 -2.9854 0.9592
9.5564 -2.8481 -2.9854 0.9592
9.9100 -1.1086 -2.9854 0.9592
9.8508 1.5490 -2.9854 0.9592
9.6738 2.4196 -2.9854 0.9592
9.4201 3.2710 -2.9854 0.9592
9.0916 4.0965 -2.9854 0.9592
8.4281 4.7416 -2.8951 0.9604
7.2939 6.0286 -2.8330 0.9613
4.7314 8.1950 -2.8330 0.9613
3.9832 8.5836 -2.8330 0.9613
1.5739 9.3310 -2.8330 0.9613
-0.9472 9.4153 -2.8330 0.9613
-2.6015 9.0982 -2.8330 0.9613
-3.4010 8.8305 -2.8330 0.9613
-4.9128 8.0876 -2.8330 0.9613
-5.6131 7.6182 -2.8330 0.9613
-6.2689 7.0884 -2.8330 0.9613
-7.4264 5.8646 -2.8330 0.9613
-8.7976 4.6946 -2.9854 0.9592
-9.1806 3.8929 -2.9854 0.9592
-9.4906 3.0603 -2.9854 0.9592
-9.8829 1.3291 -2.9854 0.9592
-9.8829 -1.3291 -2.9854 0.9592
-8.7976 -4.6946 -2.9854 0.9592
-5.1771 -8.5226 -2.9854 0.9592
-4.3980 -8.9496 -2.9854 0.9592
-3.5840 -9.3055 -2.9854 0.9592
-1.8773 -9.7935 -2.9854 0.9592
0.7768 -9.9415 -2.9854 0.9592
1.6586 -9.8329 -2.9854 0.9592
4.1975 -9.0453 -2.9854 0.9592
4.9859 -8.6359 -2.9854 0.9592
5.7348 -8.1578 -2.9854 0.9592
7.6863 -6.3528 -2.9854 0.9592
8.2212 -5.6435 -2.9854 0.9592
8.6909 -4.8894 -2.9854 0.9592
9.4201 -3.2710 -2.9854 0.9592
9.6738 -2.4196 -2.9854 0.9592
9.8508 -1.5489 -2.9854 0.9592
9.9496 -0.6660 -2.9854 0.9592
9.9694 0.2222 -2.9854 0.9592
9.7720 1.9862 -2.9854 0.9592
9.5564 2.8481 -2.9854 0.9592
9.2650 3.6874 -2.9854 0.9592
7.5552 5.6976 -2.8330 0.9613
5.0918 7.9761 -2.8330 0.9613
3.5969 8.7525 -2.8330 0.9613
2.8036 9.0379 -2.8330 0.9613
0.3162 9.4575 -2.8330 0.9613
-0.5268 9.4481 -2.8330 0.9613
-3.7910 8.6702 -2.8330 0.9613
-5.2682 7.8607 -2.8330 0.9613
-5.9469 7.3606 -2.8330 0.9613
-7.1578 6.1896 -2.8330 0.9613
-7.6803 5.5279 -2.8330 0.9613
-8.1418 4.8224 -2.8330 0.9613
-9.3449 3.4801 -2.9854 0.9592
-9.8138 1.7681 -2.9854 0.9592
-9.4002 0.0000 -2.9854 0.9613
-9.3629 -0.8367 -2.9854 0.9613
-8.4823 -4.0516 -2.9854 0.9613
-7.6295 -5.4913 -2.9854 0.9613
-6.5350 -6.7571 -2.9854 0.9613
-5.9076 -7.3119 -2.9854 0.9613
-5.2334 -7.8087 -2.9854 0.9613
-2.9844 -8.9139 -2.9854 0.9613
-2.1792 -9.1442 -2.9854 0.9613
-1.3566 -9.3018 -2.9854 0.9613
-0.5233 -9.3856 -2.9854 0.9613
0.3141 -9.3950 -2.9854 0.9613
1.1491 -9.3297 -2.9854 0.9613
1.9749 -9.1904 -2.9854 0.9613
2.7851 -8.9782 -2.9854 0.9613
4.3328 -8.3421 -2.9854 0.9613
5.0581 -7.9234 -2.9854 0.9613
6.3828 -6.9010 -2.9854 0.9613
6.9717 -6.3055 -2.9854 0.9613
7.9792 -4.9695 -2.9854 0.9613
8.3899 -4.2396 -2.9854 0.9613
9.0086 -2.6848 -2.9854 0.9613
9.3979 -0.2094 -2.9854 0.9613
9.3792 0.6279 -2.9854 0.9613
9.1193 2.2809 -2.9854 0.9613
8.8801 3.0835 -2.9854 0.9613
8.5704 3.8617 -2.9854 0.9613
8.1927 4.6091 -2.9854 0.9613
5.1301 7.2977 -2.8330 0.9633
3.7549 8.0916 -2.8330 0.9633
1.4837 8.7961 -2.8330 0.9633
-0.8929 8.8756 -2.8330 0.9633
-1.6793 8.7609 -2.8330 0.9633
-2.4524 8.5767 -2.8330 0.9633
-3.2060 8.3243 -2.8330 0.9633
-5.2914 7.1815 -2.8330 0.9633
-7.0007 5.5284 -2.8330 0.9633
-7.4650 4.8834 -2.8330 0.9633
-8.2934 4.4254 -2.9854 0.9613
-8.9466 2.8849 -2.9854 0.9613
-9.1679 2.0772 -2.9854 0.9613
-9.3164 1.2530 -2.9854 0.9613
-9.3909 0.4187 -2.9854 0.9613
-9.3909 -0.4187 -2.9854 0.9613
-8.9466 -2.8849 -2.9854 0.9613
-8.2934 -4.4255 -2.9854 0.9613
-6.8295 -6.4593 -2.9854 0.9613
-5.5760 -7.5679 -2.9854 0.9613
-3.3785 -8.7721 -2.9854 0.9613
-2.5844 -9.0380 -2.9854 0.9613
-1.7697 -9.2321 -2.9854 0.9613
-0.1047 -9.3996 -2.9854 0.9613
1.5635 -9.2693 -2.9854 0.9613
2.3823 -9.0933 -2.9854 0.9613
3.1822 -8.8452 -2.9854 0.9613
3.9569 -8.5269 -2.9854 0.9613
4.7001 -8.1408 -2.9854 0.9613
5.4060 -7.6902 -2.9854 0.9613
6.0691 -7.1785 -2.9854 0.9613
7.7499 -5.3200 -2.9854 0.9613
8.1927 -4.6091 -2.9854 0.9613
8.8801 -3.0835 -2.9854 0.9613
9.2861 -1.4602 -2.9854 0.9613
9.3792 -0.6279 -2.9854 0.9613
9.3979 0.2095 -2.9854 0.9613
9.3420 1.0451 -2.9854 0.9613
9.2119 1.8724 -2.9854 0.9613
8.7339 3.4760 -2.9854 0.9613
8.3899 4.2396 -2.9854 0.9613
7.6286 4.7512 -2.8542 0.9630
6.6158 5.9837 -2.8330 0.9633
6.0570 6.5487 -2.8330 0.9633
5.4501 7.0619 -2.8330 0.9633
4.1116 7.9163 -2.8330 0.9633
3.3907 8.2508 -2.8330 0.9633
2.6429 8.5199 -2.8330 0.9633
1.0904 8.8535 -2.8330 0.9633
0.2981 8.9154 -2.8330 0.9633
-0.4966 8.9065 -2.8330 0.9633
-1.2874 8.8270 -2.8330 0.9633
-3.8215 6.9734 -2.5254 0.9672
-4.9662 7.4101 -2.8330 0.9633
-7.2400 5.2111 -2.8330 0.9633
-8.0508 4.7685 -2.9717 0.9615
-9.0662 2.4835 -2.9854 0.9613
-9.2513 1.6667 -2.9854 0.9613
-9.3629 0.8367 -2.9854 0.9613
-8.8855 0.0000 -2.9854 0.9632
-8.7447 -1.5754 -2.9854 0.9632
-8.5698 -2.3475 -2.9854 0.9632
-8.3268 -3.1010 -2.9854 0.9632
-7.2117 -5.1907 -2.9854 0.9632
-6.1771 -6.3871 -2.9854 0.9632
-5.5841 -6.9115 -2.9854 0.9632
-4.9468 -7.3811 -2.9854 0.9632
-4.2702 -7.7921 -2.9854 0.9632
-2.0598 -8.6435 -2.9854 0.9632
-1.2824 -8.7925 -2.9854 0.9632
0.2969 -8.8805 -2.9854 0.9632
1.0861 -8.8189 -2.9854 0.9632
1.8668 -8.6872 -2.9854 0.9632
2.6326 -8.4865 -2.9854 0.9632
3.3775 -8.2186 -2.9854 0.9632
4.7811 -7.4895 -2.9854 0.9632
5.4288 -7.0342 -2.9854 0.9632
6.0333 -6.5231 -2.9854 0.9632
6.5899 -5.9602 -2.9854 0.9632
7.5423 -4.6974 -2.9854 0.9632
7.9305 -4.0074 -2.9854 0.9632
8.5154 -2.5379 -2.9854 0.9632
8.7075 -1.7698 -2.9854 0.9632
8.8304 -0.9878 -2.9854 0.9632
8.7776 1.3802 -2.9854 0.9632
7.7441 4.3568 -2.9854 0.9632
5.4439 6.4391 -2.8330 0.9650
4.8492 6.8980 -2.8330 0.9650
3.5493 7.6485 -2.8330 0.9650
1.4025 8.3145 -2.8330 0.9650
0.6569 8.4063 -2.8330 0.9650
-0.0939 8.4314 -2.8330 0.9650
-2.3181 8.1070 -2.8330 0.9650
-5.0016 6.7883 -2.8330 0.9650
-6.1260 5.7939 -2.8330 0.9650
-7.8392 4.1831 -2.9854 0.9632
-8.1804 3.4688 -2.9854 0.9632
-8.4567 2.7270 -2.9854 0.9632
-8.8062 1.1843 -2.9854 0.9632
-8.8767 0.3958 -2.9854 0.9632
-8.8767 -0.3958 -2.9854 0.9632
-8.8062 -1.1843 -2.9854 0.9632
-8.1804 -3.4688 -2.9854 0.9632
-7.4358 -4.8642 -2.9854 0.9632
-5.8865 -6.6559 -2.9854 0.9632
-5.2707 -7.1534 -2.9854 0.9632
-3.9189 -7.9746 -2.9854 0.9632
-2.4428 -8.5431 -2.9854 0.9632
-1.6728 -8.7266 -2.9854 0.9632
-0.8894 -8.8409 -2.9854 0.9632
-0.0990 -8.8849 -2.9854 0.9632
3.7402 -8.0599 -2.9854 0.9632
4.4428 -7.6951 -2.9854 0.9632
5.1100 -7.2691 -2.9854 0.9632
6.3179 -6.2479 -2.9854 0.9632
7.3256 -5.0287 -2.9854 0.9632
8.1011 -3.6502 -2.9854 0.9632
8.6200 -2.1560 -2.9854 0.9632
8.7776 -1.3802 -2.9854 0.9632
8.8304 0.9878 -2.9854 0.9632
8.7075 1.7699 -2.9854 0.9632
8.5154 2.5378 -2.9854 0.9632
3.8865 7.4828 -2.8330 0.9650
1.0307 8.3687 -2.8330 0.9650
0.2818 8.4272 -2.8330 0.9650
-0.4694 8.4188 -2.8330 0.9650
-1.9547 8.2022 -2.8330 0.9650
-3.3780 7.7257 -2.8330 0.9650
-6.8436 4.9257 -2.8330 0.9650
-8.0178 3.8298 -2.9854 0.9632
-8.8502 0.7909 -2.9854 0.9632
-6.8333 -4.9183 -2.9854 0.9649
-6.3685 -5.5070 -2.9854 0.9649
-2.6730 -7.9837 -2.9854 0.9649
0.2813 -8.4146 -2.9854 0.9649
2.4944 -8.0413 -2.9854 0.9649
3.2003 -7.7874 -2.9854 0.9649
4.5303 -7.0966 -2.9854 0.9649
5.1439 -6.6652 -2.9854 0.9649
5.7168 -6.1809 -2.9854 0.9649
6.2442 -5.6475 -2.9854 0.9649
6.7221 -5.0693 -2.9854 0.9649
8.0686 -2.4047 -2.9854 0.9649
8.4172 -0.1875 -2.9854 0.9649
8.4005 0.5623 -2.9854 0.9649
7.9535 2.7618 -2.9854 0.9649
5.6808 5.6179 -2.8330 0.9667
5.1583 6.1012 -2.8330 0.9667
3.9948 6.9191 -2.8330 0.9667
2.0248 7.7287 -2.8330 0.9667
0.6224 7.9652 -2.8330 0.9667
-0.7997 7.9494 -2.8330 0.9667
-1.5041 7.8467 -2.8330 0.9667
-2.1965 7.6817 -2.8330 0.9667
-2.8715 7.4557 -2.8330 0.9667
-4.1479 6.8284 -2.8330 0.9667
-5.8046 5.4899 -2.8330 0.9667
-6.2702 4.9515 -2.8330 0.9667
-8.0130 2.5839 -2.9854 0.9649
-8.3442 1.1222 -2.9854 0.9649
-8.4110 0.3751 -2.9854 0.9649
-8.4110 -0.3751 -2.9854 0.9649
-8.2112 -1.8604 -2.9854 0.9649
-8.0130 -2.5838 -2.9854 0.9649
-7.0457 -4.6090 -2.9854 0.9649
-6.6075 -5.2179 -2.9854 0.9649
-5.5776 -6.3067 -2.9854 0.9649
-4.9942 -6.7781 -2.9854 0.9649
-3.7132 -7.5562 -2.9854 0.9649
-3.0260 -7.8567 -2.9854 0.9649
-1.5850 -8.2688 -2.9854 0.9649
-0.8427 -8.3770 -2.9854 0.9649
0.6559 -8.3937 -2.9854 0.9649
2.1337 -8.1444 -2.9854 0.9649
2.8502 -7.9222 -2.9854 0.9649
3.5440 -7.6371 -2.9854 0.9649
4.2097 -7.2913 -2.9854 0.9649
5.4357 -6.4294 -2.9854 0.9649
7.6761 -3.4587 -2.9854 0.9649
8.3171 -1.3078 -2.9854 0.9649
8.4005 -0.5623 -2.9854 0.9649
8.4172 0.1876 -2.9854 0.9649
8.2506 1.6770 -2.9854 0.9649
7.8225 3.1133 -2.9854 0.9649
7.5144 3.7972 -2.9854 0.9649
6.3789 4.8106 -2.8330 0.9667
5.9254 5.3593 -2.8330 0.9667
4.2990 6.7343 -2.8330 0.9667
3.6826 7.0902 -2.8330 0.9667
3.0369 7.3898 -2.8330 0.9667
0.9766 7.9296 -2.8330 0.9667
-1.8521 7.7719 -2.8330 0.9667
-3.2008 7.3203 -2.8330 0.9667
-3.8014 6.9367 -2.8048 0.9670
-4.4480 6.6369 -2.8330 0.9667
-5.0210 6.2146 -2.8330 0.9667
-8.2859 1.4928 -2.9854 0.9649
-7.9949 0.0000 -2.9854 0.9664
-7.9631 -0.7116 -2.9854 0.9664
-7.7108 -2.1122 -2.9854 0.9664
-7.4922 -2.7901 -2.9854 0.9664
-7.2141 -3.4459 -2.9854 0.9664
-6.8788 -4.0743 -2.9854 0.9664
-6.4889 -4.6704 -2.9854 0.9664
-6.0474 -5.2294 -2.9854 0.9664
-5.0244 -6.2188 -2.9854 0.9664
-3.8422 -7.0111 -2.9854 0.9664
-1.8534 -7.7770 -2.9854 0.9664
-1.1538 -7.9112 -2.9854 0.9664
-0.4451 -7.9825 -2.9854 0.9664
2.3687 -7.6359 -2.9854 0.9664
3.0389 -7.3948 -2.9854 0.9664
3.6850 -7.0949 -2.9854 0.9664
4.3019 -6.7388 -2.9854 0.9664
4.8846 -6.3292 -2.9854 0.9664
5.4286 -5.8693 -2.9854 0.9664
5.9294 -5.3628 -2.9854 0.9664
6.3832 -4.8138 -2.9854 0.9664
6.7863 -4.2265 -2.9854 0.9664
7.1356 -3.6058 -2.9854 0.9664
7.6618 -2.2835 -2.9854 0.9664
7.8347 -1.5924 -2.9854 0.9664
7.9770 0.5340 -2.9854 0.9664
7.8978 1.2419 -2.9854 0.9664
7.7559 1.9399 -2.9854 0.9664
7.5525 2.6225 -2.9854 0.9664
6.9679 3.9201 -2.9854 0.9664
5.8478 4.8334 -2.8330 0.9681
4.3631 6.2066 -2.8330 0.9681
1.9227 7.3391 -2.8330 0.9681
1.2619 7.4810 -2.8330 0.9681
-0.0845 7.5863 -2.8330 0.9681
-2.0858 7.2944 -2.8330 0.9681
-3.3460 6.8090 -2.8330 0.9681
-4.5003 6.1079 -2.8330 0.9681
-5.5119 5.2132 -2.8330 0.9681
-6.6905 4.3767 -2.9854 0.9664
-7.6090 2.4536 -2.9854 0.9664
-7.9869 0.3561 -2.9854 0.9664
-7.9869 -0.3561 -2.9854 0.9664
-7.7972 -1.7666 -2.9854 0.9664
-7.3605 -3.1211 -2.9854 0.9664
-5.2964 -5.9888 -2.9854 0.9664
-4.1507 -6.8330 -2.9854 0.9664
-2.1980 -7.6868 -2.9854 0.9664
-0.8003 -7.9547 -2.9854 0.9664
0.6228 -7.9705 -2.9854 0.9664
1.3298 -7.8835 -2.9854 0.9664
3.3653 -7.2520 -2.9854 0.9664
3.9974 -6.9237 -2.9854 0.9664
5.6846 -5.6216 -2.9854 0.9664
6.5913 -4.5247 -2.9854 0.9664
6.9679 -3.9200 -2.9854 0.9664
7.2891 -3.2843 -2.9854 0.9664
7.5525 -2.6225 -2.9854 0.9664
7.7559 -1.9399 -2.9854 0.9664
7.9770 -0.5340 -2.9854 0.9664
7.9929 0.1781 -2.9854 0.9664
7.9453 0.8888 -2.9854 0.9664
7.4282 2.9563 -2.9854 0.9664
6.7863 4.2266 -2.9854 0.9664
6.2838 4.7388 -2.9389 0.9670
5.6267 5.0891 -2.8330 0.9681
4.6353 6.0061 -2.8330 0.9681
4.0823 6.3948 -2.8330 0.9681
3.4969 6.7328 -2.8330 0.9681
2.8838 7.0173 -2.8330 0.9681
2.2478 7.2461 -2.8330 0.9681
1.5939 7.4174 -2.8330 0.9681
0.9274 7.5298 -2.8330 0.9681
0.2535 7.5825 -2.8330 0.9681
-0.4224 7.5750 -2.8330 0.9681
-1.0949 7.5073 -2.8330 0.9681
-1.7588 7.3801 -2.8330 0.9681
-3.0394 6.9513 -2.8330 0.9681
-3.6460 6.6532 -2.8330 0.9681
-4.2237 6.3023 -2.8330 0.9681
-5.2742 5.4535 -2.8330 0.9681
-6.4889 4.6704 -2.9854 0.9664
-7.2141 3.4459 -2.9854 0.9664
-7.7108 2.1122 -2.9854 0.9664
-7.8682 1.4175 -2.9854 0.9664
-7.6066 0.0000 -2.9854 0.9678
-7.4861 -1.3487 -2.9854 0.9678
-6.8638 -3.2785 -2.9854 0.9678
-6.1737 -4.4436 -2.9854 0.9678
-5.2881 -5.4678 -2.9854 0.9678
-4.7804 -5.9168 -2.9854 0.9678
-4.2348 -6.3187 -2.9854 0.9678
-3.6556 -6.6706 -2.9854 0.9678
-3.0474 -6.9695 -2.9854 0.9678
-2.4149 -7.2130 -2.9854 0.9678
-1.0978 -7.5270 -2.9854 0.9678
0.2542 -7.6024 -2.9854 0.9678
2.2537 -7.2651 -2.9854 0.9678
2.8913 -7.0356 -2.9854 0.9678
4.6474 -6.0218 -2.9854 0.9678
5.1649 -5.5842 -2.9854 0.9678
6.7890 -3.4306 -2.9854 0.9678
7.0674 -2.8128 -2.9854 0.9678
7.2897 -2.1726 -2.9854 0.9678
7.1857 2.4952 -2.9854 0.9678
4.6603 5.5123 -2.8330 0.9695
3.0384 6.5477 -2.8330 0.9695
1.8294 6.9826 -2.8330 0.9695
-0.0804 7.2179 -2.8330 0.9695
-0.7225 7.1821 -2.8330 0.9695
-1.9845 6.9402 -2.8330 0.9695
-2.5943 6.7360 -2.8330 0.9695
-3.1835 6.4783 -2.8330 0.9695
-3.7475 6.1693 -2.8330 0.9695
-4.7820 5.4071 -2.8330 0.9695
-6.7109 3.5811 -2.9854 0.9678
-7.0030 2.9695 -2.9854 0.9678
-7.2395 2.3344 -2.9854 0.9678
-7.5990 0.3389 -2.9854 0.9678
-7.5990 -0.3388 -2.9854 0.9678
-7.0030 -2.9695 -2.9854 0.9678
-6.3655 -4.1641 -2.9854 0.9678
-5.9697 -4.7142 -2.9854 0.9678
-3.9491 -6.5011 -2.9854 0.9678
-2.7339 -7.0983 -2.9854 0.9678
-2.0912 -7.3135 -2.9854 0.9678
-0.7614 -7.5684 -2.9854 0.9678
-0.0847 -7.6061 -2.9854 0.9678
3.2019 -6.8999 -2.9854 0.9678
3.8033 -6.5875 -2.9854 0.9678
4.3745 -6.2228 -2.9854 0.9678
4.9110 -5.8088 -2.9854 0.9678
5.4086 -5.3486 -2.9854 0.9678
5.8631 -4.8460 -2.9854 0.9678
6.9351 -3.1248 -2.9854 0.9678
7.5143 -1.1816 -2.9854 0.9678
7.5896 -0.5081 -2.9854 0.9678
7.2897 2.1726 -2.9854 0.9678
6.7890 3.4307 -2.9854 0.9678
6.4567 4.0213 -2.9854 0.9678
5.3535 4.8419 -2.8330 0.9695
4.4102 5.7144 -2.8330 0.9695
3.8840 6.0842 -2.8330 0.9695
3.3271 6.4058 -2.8330 0.9695
2.1386 6.8942 -2.8330 0.9695
1.5165 7.0572 -2.8330 0.9695
0.8824 7.1642 -2.8330 0.9695
0.2412 7.2143 -2.8330 0.9695
-1.0417 7.1428 -2.8330 0.9695
-1.6733 7.0217 -2.8330 0.9695
-2.2917 6.8449 -2.8330 0.9695
-3.4690 6.3301 -2.8330 0.9695
-4.0186 5.9962 -2.8330 0.9695
-6.1737 4.4436 -2.9854 0.9678
-6.5447 3.8764 -2.9854 0.9678
-6.8638 3.2786 -2.9854 0.9678
-7.1283 2.6547 -2.9854 0.9678
-7.3363 2.0096 -2.9854 0.9678
-7.4861 1.3487 -2.9854 0.9678
-7.5764 0.6771 -2.9854 0.9678
-7.2499 0.0000 -2.9854 0.9691
-6.7941 -2.5301 -2.9854 0.9691
-6.2378 -3.6946 -2.9854 0.9691
-5.8842 -4.2352 -2.9854 0.9691
-5.4839 -4.7421 -2.9854 0.9691
-5.0401 -5.2114 -2.9854 0.9691
-4.5562 -5.6393 -2.9854 0.9691
-3.4842 -6.3578 -2.9854 0.9691
-2.9045 -6.6426 -2.9854 0.9691
-2.3017 -6.8748 -2.9854 0.9691
-1.6807 -7.0524 -2.9854 0.9691
0.2423 -7.2458 -2.9854 0.9691
0.8862 -7.1955 -2.9854 0.9691
1.5231 -7.0881 -2.9854 0.9691
2.1480 -6.9244 -2.9854 0.9691
2.7557 -6.7057 -2.9854 0.9691
3.9010 -6.1109 -2.9854 0.9691
4.4295 -5.7394 -2.9854 0.9691
4.9227 -5.3224 -2.9854 0.9691
5.3769 -4.8631 -2.9854 0.9691
7.2049 -0.8060 -2.9854 0.9691
7.2337 0.4843 -2.9854 0.9691
7.1619 1.1262 -2.9854 0.9691
7.0332 1.7592 -2.9854 0.9691
6.8487 2.3782 -2.9854 0.9691
6.6099 2.9783 -2.9854 0.9691
5.5882 4.6188 -2.9854 0.9691
4.8918 4.8376 -2.8330 0.9707
3.4399 5.9581 -2.8330 0.9707
-0.0766 6.8794 -2.8330 0.9707
-2.4726 6.4201 -2.8330 0.9707
-4.0809 5.5387 -2.8330 0.9707
-4.5577 5.1535 -2.8330 0.9707
-6.3962 3.4132 -2.9854 0.9691
-7.0707 1.6020 -2.9854 0.9691
-7.2427 -0.3229 -2.9854 0.9691
-7.1852 -0.9663 -2.9854 0.9691
-7.0707 -1.6020 -2.9854 0.9691
-6.9000 -2.2250 -2.9854 0.9691
-6.0670 -3.9689 -2.9854 0.9691
-5.6897 -4.4931 -2.9854 0.9691
-4.3005 -5.8367 -2.9854 0.9691
-3.7639 -6.1962 -2.9854 0.9691
-3.1975 -6.5067 -2.9854 0.9691
-2.6057 -6.7655 -2.9854 0.9691
-1.9932 -6.9705 -2.9854 0.9691
-1.3648 -7.1202 -2.9854 0.9691
-0.0808 -7.2494 -2.9854 0.9691
1.8374 -7.0132 -2.9854 0.9691
3.6249 -6.2786 -2.9854 0.9691
4.1694 -5.9310 -2.9854 0.9691
4.6807 -5.5364 -2.9854 0.9691
5.9771 -4.1030 -2.9854 0.9691
6.3186 -3.5547 -2.9854 0.9691
6.6099 -2.9783 -2.9854 0.9691
6.8487 -2.3781 -2.9854 0.9691
7.0332 -1.7591 -2.9854 0.9691
7.2337 -0.4842 -2.9854 0.9691
7.2481 0.1615 -2.9854 0.9691
7.2049 0.8060 -2.9854 0.9691
7.1046 1.4441 -2.9854 0.9691
6.4707 3.2698 -2.9854 0.9691
6.1540 3.8327 -2.9854 0.9691
4.2033 5.4464 -2.8330 0.9707
3.7019 5.7989 -2.8330 0.9707
2.6151 6.3634 -2.8330 0.9707
1.4454 6.7262 -2.8330 0.9707
0.8410 6.8282 -2.8330 0.9707
0.2299 6.8760 -2.8330 0.9707
-2.1842 6.5239 -2.8330 0.9707
-3.3063 6.0333 -2.8330 0.9707
-3.8302 5.7150 -2.8330 0.9707
-4.3236 5.3514 -2.8330 0.9707
-4.7828 4.9454 -2.8330 0.9707
-5.8842 4.2352 -2.9854 0.9691
-6.2378 3.6947 -2.9854 0.9691
-6.7941 2.5302 -2.9854 0.9691
-6.9209 0.0000 -2.9854 0.9703
-6.2450 -2.9830 -2.9854 0.9703
-5.2350 -4.5269 -2.9854 0.9703
-4.8113 -4.9749 -2.9854 0.9703
-4.3494 -5.3834 -2.9854 0.9703
-3.8530 -5.7491 -2.9854 0.9703
-1.6044 -6.7323 -2.9854 0.9703
1.4540 -6.7664 -2.9854 0.9703
2.0505 -6.6101 -2.9854 0.9703
2.6307 -6.4014 -2.9854 0.9703
3.1900 -6.1418 -2.9854 0.9703
3.7240 -5.8335 -2.9854 0.9703
4.2284 -5.4789 -2.9854 0.9703
6.8780 -0.7694 -2.9854 0.9703
6.9054 0.4623 -2.9854 0.9703
6.8369 1.0751 -2.9854 0.9703
6.7140 1.6793 -2.9854 0.9703
6.3099 2.8431 -2.9854 0.9703
5.3346 4.4091 -2.9854 0.9703
4.8006 4.7475 -2.9124 0.9710
4.2402 5.0153 -2.8330 0.9718
3.7770 5.3729 -2.8330 0.9718
2.7645 5.9574 -2.8330 0.9718
2.2233 6.1798 -2.8330 0.9718
1.6645 6.3531 -2.8330 0.9718
-0.6574 6.5346 -2.8330 0.9718
-2.3604 6.1287 -2.8330 0.9718
-2.8966 5.8943 -2.8330 0.9718
-5.0282 4.7556 -2.9854 0.9703
-5.4315 4.2892 -2.9854 0.9703
-6.9140 0.3083 -2.9854 0.9703
-6.9140 -0.3083 -2.9854 0.9703
-6.8591 -0.9225 -2.9854 0.9703
-6.7498 -1.5293 -2.9854 0.9703
-4.5849 -5.1843 -2.9854 0.9703
-3.0524 -6.2114 -2.9854 0.9703
-2.4874 -6.4584 -2.9854 0.9703
-1.3029 -6.7971 -2.9854 0.9703
-0.6928 -6.8861 -2.9854 0.9703
0.5392 -6.8998 -2.9854 0.9703
1.7540 -6.6949 -2.9854 0.9703
2.3429 -6.5122 -2.9854 0.9703
2.9132 -6.2779 -2.9854 0.9703
3.4604 -5.9936 -2.9854 0.9703
3.9802 -5.6619 -2.9854 0.9703
4.4683 -5.2851 -2.9854 0.9703
5.7058 -3.9168 -2.9854 0.9703
6.0318 -3.3934 -2.9854 0.9703
6.7140 -1.6793 -2.9854 0.9703
6.9054 -0.4622 -2.9854 0.9703
6.8780 0.7694 -2.9854 0.9703
6.7822 1.3786 -2.9854 0.9703
6.6326 1.9767 -2.9854 0.9703
6.1770 3.1214 -2.9854 0.9703
5.5257 4.1671 -2.9854 0.9703
4.4594 4.8215 -2.8330 0.9718
4.0126 5.1993 -2.8330 0.9718
3.5339 5.5358 -2.8330 0.9718
1.3798 6.4210 -2.8330 0.9718
0.8028 6.5183 -2.8330 0.9718
-0.3656 6.5574 -2.8330 0.9718
-0.9478 6.4988 -2.8330 0.9718
-1.5225 6.3887 -2.8330 0.9718
-2.6311 6.0175 -2.8330 0.9718
-3.6563 5.4556 -2.8330 0.9718
-4.1274 5.1086 -2.8330 0.9718
-5.2350 4.5269 -2.9854 0.9703
-5.9547 3.5270 -2.9854 0.9703
-6.4857 2.4153 -2.9854 0.9703
-6.8112 1.2271 -2.9854 0.9703
-6.6163 0.0000 -2.9854 0.9714
-6.5114 -1.1731 -2.9854 0.9714
-6.2003 -2.3090 -2.9854 0.9714
-5.9701 -2.8517 -2.9854 0.9714
-5.6926 -3.3718 -2.9854 0.9714
-4.5996 -4.7559 -2.9854 0.9714
-3.6835 -5.4961 -2.9854 0.9714
-2.1005 -6.2740 -2.9854 0.9714
-0.9549 -6.5470 -2.9854 0.9714
0.8088 -6.5666 -2.9854 0.9714
1.3900 -6.4686 -2.9854 0.9714
1.9602 -6.3192 -2.9854 0.9714
3.0496 -5.8715 -2.9854 0.9714
4.0423 -5.2378 -2.9854 0.9714
4.4925 -4.8572 -2.9854 0.9714
5.2825 -3.9837 -2.9854 0.9714
5.6161 -3.4977 -2.9854 0.9714
6.1473 -2.4465 -2.9854 0.9714
6.5752 -0.7355 -2.9854 0.9714
6.6146 -0.1474 -2.9854 0.9714
6.6015 0.4419 -2.9854 0.9714
6.2502 2.1703 -2.9854 0.9714
5.4547 3.7445 -2.9854 0.9714
5.0998 4.2151 -2.9854 0.9714
4.7044 4.6523 -2.9854 0.9714
4.0535 4.7946 -2.8330 0.9728
3.1393 5.4373 -2.8330 0.9728
2.6428 5.6952 -2.8330 0.9728
1.0443 6.1910 -2.8330 0.9728
0.4891 6.2595 -2.8330 0.9728
-0.0699 6.2781 -2.8330 0.9728
-0.6284 6.2470 -2.8330 0.9728
-1.1820 6.1663 -2.8330 0.9728
-2.2565 5.8590 -2.8330 0.9728
-2.7691 5.6349 -2.8330 0.9728
-3.2596 5.3661 -2.8330 0.9728
-4.2243 4.7765 -2.8772 0.9724
-4.8069 4.5463 -2.9854 0.9714
-5.1924 4.1004 -2.9854 0.9714
-5.8372 3.1148 -2.9854 0.9714
-6.0913 2.5829 -2.9854 0.9714
-6.2970 2.0305 -2.9854 0.9714
-6.4527 1.4620 -2.9854 0.9714
-6.6097 0.2947 -2.9854 0.9714
-6.5572 -0.8819 -2.9854 0.9714
-6.4527 -1.4620 -2.9854 0.9714
-6.2970 -2.0305 -2.9854 0.9714
-5.1924 -4.1004 -2.9854 0.9714
-4.3831 -4.9561 -2.9854 0.9714
-3.9246 -5.3265 -2.9854 0.9714
-2.9180 -5.9380 -2.9854 0.9714
-0.6623 -6.5830 -2.9854 0.9714
1.1005 -6.5241 -2.9854 0.9714
2.2398 -6.2256 -2.9854 0.9714
2.7850 -6.0015 -2.9854 0.9714
4.2716 -5.0525 -2.9854 0.9714
6.0322 -2.7180 -2.9854 0.9714
6.2502 -2.1703 -2.9854 0.9714
6.6146 0.1474 -2.9854 0.9714
6.5752 0.7356 -2.9854 0.9714
6.4837 1.3179 -2.9854 0.9714
5.6161 3.4977 -2.9854 0.9714
3.8360 4.9704 -2.8330 0.9728
2.3865 5.8073 -2.8330 0.9728
1.3191 6.1384 -2.8330 0.9728
0.7675 6.2314 -2.8330 0.9728
0.2098 6.2750 -2.8330 0.9728
-0.9061 6.2128 -2.8330 0.9728
-1.4555 6.1075 -2.8330 0.9728
-1.9933 5.9537 -2.8330 0.9728
-4.5996 4.7559 -2.9854 0.9714
-5.6926 3.3718 -2.9854 0.9714
-6.2003 2.3090 -2.9854 0.9714
-6.5900 0.5889 -2.9854 0.9714
-6.2330 -1.1229 -2.9854 0.9724
-5.1403 -3.6997 -2.9854 0.9724
-4.7906 -4.1426 -2.9854 0.9724
-4.4029 -4.5525 -2.9854 0.9724
-3.5259 -5.2610 -2.9854 0.9724
-3.0437 -5.5540 -2.9854 0.9724
-2.0107 -6.0056 -2.9854 0.9724
-0.3526 -6.3235 -2.9854 0.9724
1.3306 -6.1920 -2.9854 0.9724
1.8764 -6.0489 -2.9854 0.9724
2.4073 -5.8579 -2.9854 0.9724
2.9192 -5.6204 -2.9854 0.9724
3.4078 -5.3383 -2.9854 0.9724
4.3003 -4.6495 -2.9854 0.9724
4.6971 -4.2483 -2.9854 0.9724
5.3759 -3.3482 -2.9854 0.9724
5.6526 -2.8564 -2.9854 0.9724
5.8844 -2.3419 -2.9854 0.9724
6.0695 -1.8089 -2.9854 0.9724
6.2940 -0.7041 -2.9854 0.9724
6.3317 -0.1411 -2.9854 0.9724
6.2564 0.9838 -2.9854 0.9724
6.1440 1.5367 -2.9854 0.9724
5.7742 2.6017 -2.9854 0.9724
3.4646 4.9254 -2.8379 0.9737
2.5298 5.4516 -2.8330 0.9738
1.5231 5.8138 -2.8330 0.9738
0.4682 5.9917 -2.8330 0.9738
-0.6016 5.9798 -2.8330 0.9738
-1.6523 5.7784 -2.8330 0.9738
-2.1600 5.6084 -2.8330 0.9738
-4.1957 4.7442 -2.9854 0.9724
-5.3000 3.4671 -2.9854 0.9724
-5.5875 2.9816 -2.9854 0.9724
-5.8307 2.4725 -2.9854 0.9724
-6.2768 0.8442 -2.9854 0.9724
-6.3270 -0.2821 -2.9854 0.9724
-6.2768 -0.8441 -2.9854 0.9724
-6.1767 -1.3995 -2.9854 0.9724
-6.0277 -1.9437 -2.9854 0.9724
-5.3000 -3.4671 -2.9854 0.9724
-4.9704 -3.9250 -2.9854 0.9724
-3.7568 -5.0988 -2.9854 0.9724
-3.2881 -5.4129 -2.9854 0.9724
-2.7932 -5.6840 -2.9854 0.9724
-2.2762 -5.9101 -2.9854 0.9724
-1.1923 -6.2201 -2.9854 0.9724
-0.6339 -6.3015 -2.9854 0.9724
-0.0706 -6.3329 -2.9854 0.9724
1.0534 -6.2451 -2.9854 0.9724
1.6051 -6.1265 -2.9854 0.9724
3.1667 -5.4848 -2.9854 0.9724
3.6423 -5.1812 -2.9854 0.9724
4.0890 -4.8364 -2.9854 0.9724
5.5197 -3.1054 -2.9854 0.9724
5.9829 -2.0775 -2.9854 0.9724
6.1440 -1.5367 -2.9854 0.9724
6.3192 -0.4230 -2.9854 0.9724
6.2940 0.7041 -2.9854 0.9724
5.3759 3.3482 -2.9854 0.9724
5.0566 3.8134 -2.9854 0.9724
4.6971 4.2483 -2.9854 0.9724
3.6814 4.7701 -2.8403 0.9737
3.2339 5.0658 -2.8330 0.9738
2.2845 5.5589 -2.8330 0.9738
1.7806 5.7402 -2.8330 0.9738
-0.3346 6.0007 -2.8330 0.9738
-3.3459 4.9925 -2.8330 0.9738
-4.7906 4.1426 -2.9854 0.9724
-5.1403 3.6998 -2.9854 0.9724
-5.4492 3.2276 -2.9854 0.9724
-5.7148 2.7297 -2.9854 0.9724
-5.9351 2.2103 -2.9854 0.9724
-6.1083 1.6732 -2.9854 0.9724
-6.3082 0.5637 -2.9854 0.9724
-6.0696 0.0000 -2.9854 0.9733
-5.9735 -1.0762 -2.9854 0.9733
-5.8540 -1.6036 -2.9854 0.9733
-4.9263 -3.5457 -2.9854 0.9733
-4.5911 -3.9701 -2.9854 0.9733
-4.2196 -4.3630 -2.9854 0.9733
-3.8145 -4.7212 -2.9854 0.9733
-2.9169 -5.3227 -2.9854 0.9733
-2.4316 -5.5612 -2.9854 0.9733
-0.8760 -6.0061 -2.9854 0.9733
0.2028 -6.0662 -2.9854 0.9733
0.7419 -6.0241 -2.9854 0.9733
1.7983 -5.7971 -2.9854 0.9733
2.3071 -5.6140 -2.9854 0.9733
2.7976 -5.3864 -2.9854 0.9733
3.7083 -4.8050 -2.9854 0.9733
4.5015 -4.0714 -2.9854 0.9733
5.1521 -3.2088 -2.9854 0.9733
5.4173 -2.7375 -2.9854 0.9733
6.0320 -0.6748 -2.9854 0.9733
6.0561 0.4054 -2.9854 0.9733
5.8882 1.4728 -2.9854 0.9733
5.7338 1.9910 -2.9854 0.9733
5.5338 2.4934 -2.9854 0.9733
4.3157 4.2679 -2.9854 0.9733
3.9187 4.6351 -2.9854 0.9733
2.8799 4.9881 -2.8330 0.9747
2.4245 5.2246 -2.8330 0.9747
1.9498 5.4197 -2.8330 0.9747
0.9580 5.6796 -2.8330 0.9747
0.4487 5.7423 -2.8330 0.9747
-0.0642 5.7595 -2.8330 0.9747
-1.5835 5.5378 -2.8330 0.9747
-2.0701 5.3749 -2.8330 0.9747
-2.5403 5.1693 -2.8330 0.9747
-2.9903 4.9227 -2.8330 0.9747
-4.0210 4.5466 -2.9854 0.9733
-4.7634 3.7616 -2.9854 0.9733
-5.7767 1.8628 -2.9854 0.9733
-5.9196 1.3412 -2.9854 0.9733
-6.0636 0.2704 -2.9854 0.9733
-5.7767 -1.8627 -2.9854 0.9733
-5.3549 -2.8575 -2.9854 0.9733
-4.4097 -4.1707 -2.9854 0.9733
-3.1512 -5.1875 -2.9854 0.9733
-2.1815 -5.6641 -2.9854 0.9733
-1.6687 -5.8357 -2.9854 0.9733
-0.6075 -6.0391 -2.9854 0.9733
1.0096 -5.9850 -2.9854 0.9733
1.5383 -5.8714 -2.9854 0.9733
2.0547 -5.7112 -2.9854 0.9733
2.5549 -5.5057 -2.9854 0.9733
3.0348 -5.2564 -2.9854 0.9733
3.4906 -4.9654 -2.9854 0.9733
4.3157 -4.2679 -2.9854 0.9733
5.0040 -3.4351 -2.9854 0.9733
5.2899 -2.9761 -2.9854 0.9733
5.5338 -2.4934 -2.9854 0.9733
5.7338 -1.9910 -2.9854 0.9733
5.9959 -0.9428 -2.9854 0.9733
6.0561 -0.4054 -2.9854 0.9733
6.0681 0.1352 -2.9854 0.9733
6.0320 0.6748 -2.9854 0.9733
5.9480 1.2090 -2.9854 0.9733
5.8168 1.7336 -2.9854 0.9733
5.6394 2.2445 -2.9854 0.9733
4.8461 3.6546 -2.9854 0.9733
4.1213 4.4559 -2.9854 0.9733
3.6611 4.7438 -2.9473 0.9736
3.0992 4.8549 -2.8330 0.9747
1.7065 5.5012 -2.8330 0.9747
1.2101 5.6312 -2.8330 0.9747
0.7041 5.7166 -2.8330 0.9747
0.1925 5.7566 -2.8330 0.9747
-0.8312 5.6995 -2.8330 0.9747
-4.2196 4.3630 -2.9854 0.9733
-4.9263 3.5457 -2.9854 0.9733
-5.8540 1.6036 -2.9854 0.9733
-5.6163 -1.5385 -2.9854 0.9742
-5.4571 -2.0322 -2.9854 0.9742
-4.7263 -3.4017 -2.9854 0.9742
-3.6596 -4.5295 -2.9854 0.9742
-2.3329 -5.3354 -2.9854 0.9742
-1.3499 -5.6645 -2.9854 0.9742
-0.8404 -5.7622 -2.9854 0.9742
0.7118 -5.7795 -2.9854 0.9742
1.2234 -5.6932 -2.9854 0.9742
1.7253 -5.5617 -2.9854 0.9742
2.6840 -5.1677 -2.9854 0.9742
4.3188 -3.9061 -2.9854 0.9742
4.6493 -3.5062 -2.9854 0.9742
5.1973 -2.6263 -2.9854 0.9742
5.7065 -1.1599 -2.9854 0.9742
5.7871 -0.6474 -2.9854 0.9742
5.8102 0.3890 -2.9854 0.9742
5.6492 1.4130 -2.9854 0.9742
5.3091 2.3922 -2.9854 0.9742
5.0751 2.8552 -2.9854 0.9742
4.1405 4.0946 -2.9854 0.9742
1.8707 5.1996 -2.8330 0.9755
1.4005 5.3455 -2.8330 0.9755
-0.5531 5.4982 -2.8330 0.9755
-1.5192 5.3130 -2.8330 0.9755
-2.4371 4.9595 -2.8330 0.9755
-3.4542 4.6881 -2.9854 0.9742
-4.5700 3.6089 -2.9854 0.9742
-5.5422 1.7871 -2.9854 0.9742
-5.7712 0.7762 -2.9854 0.9742
-5.8174 0.2594 -2.9854 0.9742
-5.6792 -1.2867 -2.9854 0.9742
-5.3611 -2.2733 -2.9854 0.9742
-5.1375 -2.7414 -2.9854 0.9742
-2.5683 -5.2262 -2.9854 0.9742
-2.0929 -5.4341 -2.9854 0.9742
-1.6009 -5.5988 -2.9854 0.9742
-0.0649 -5.8228 -2.9854 0.9742
0.4536 -5.8055 -2.9854 0.9742
0.9686 -5.7421 -2.9854 0.9742
2.9116 -5.0430 -2.9854 0.9742
3.3489 -4.7638 -2.9854 0.9742
3.7596 -4.4469 -2.9854 0.9742
4.4885 -3.7098 -2.9854 0.9742
4.8009 -3.2956 -2.9854 0.9742
5.0751 -2.8552 -2.9854 0.9742
5.3091 -2.3921 -2.9854 0.9742
5.5010 -1.9101 -2.9854 0.9742
5.6492 -1.4129 -2.9854 0.9742
5.8102 -0.3889 -2.9854 0.9742
5.8217 0.1297 -2.9854 0.9742
5.7065 1.1599 -2.9854 0.9742
4.6493 3.5062 -2.9854 0.9742
4.3188 3.9061 -2.9854 0.9742
3.5578 4.6100 -2.9854 0.9742
1.6372 5.2778 -2.8330 0.9755
1.1609 5.4026 -2.8330 0.9755
-2.2138 5.0631 -2.8330 0.9755
-4.0482 4.1859 -2.9854 0.9742
-5.6163 1.5385 -2.9854 0.9742
-5.7309 1.0325 -2.9854 0.9742
-5.8001 0.5183 -2.9854 0.9742
-5.5700 -0.4977 -2.9854 0.9750
-5.5036 -0.9915 -2.9854 0.9750
-5.3935 -1.4774 -2.9854 0.9750
-5.2406 -1.9516 -2.9854 0.9750
-5.0461 -2.4103 -2.9854 0.9750
-4.8116 -2.8499 -2.9854 0.9750
-3.8877 -4.0198 -2.9854 0.9750
-3.1133 -4.6454 -2.9854 0.9750
-2.6875 -4.9041 -2.9854 0.9750
-2.2404 -5.1238 -2.9854 0.9750
-1.2964 -5.4399 -2.9854 0.9750
-0.8071 -5.5337 -2.9854 0.9750
1.6568 -5.3411 -2.9854 0.9750
2.1256 -5.1725 -2.9854 0.9750
3.4167 -4.4271 -2.9854 0.9750
3.7971 -4.1054 -2.9854 0.9750
4.1475 -3.7512 -2.9854 0.9750
4.4649 -3.3671 -2.9854 0.9750
4.9912 -2.5221 -2.9854 0.9750
5.1958 -2.0679 -2.9854 0.9750
5.3593 -1.5972 -2.9854 0.9750
5.4802 -1.1139 -2.9854 0.9750
5.5576 -0.6217 -2.9854 0.9750
5.5797 0.3735 -2.9854 0.9750
5.4251 1.3569 -2.9854 0.9750
5.0986 2.2973 -2.9854 0.9750
4.6105 3.1649 -2.9854 0.9750
3.9763 3.9322 -2.9854 0.9750
3.2161 4.5749 -2.9854 0.9750
1.7965 4.9934 -2.8330 0.9762
1.3449 5.1335 -2.8330 0.9762
0.4134 5.2906 -2.8330 0.9762
-0.5312 5.2801 -2.8330 0.9762
-1.4589 5.1023 -2.8330 0.9762
-1.9073 4.9522 -2.8330 0.9762
-2.8889 4.7559 -2.9706 0.9751
-3.7047 4.1890 -2.9854 0.9750
-5.3224 1.7162 -2.9854 0.9750
-5.4540 1.2357 -2.9854 0.9750
-5.5423 0.7454 -2.9854 0.9750
-5.5867 0.2491 -2.9854 0.9750
-5.5867 -0.2491 -2.9854 0.9750
-5.5423 -0.7454 -2.9854 0.9750
-5.3224 -1.7162 -2.9854 0.9750
-4.9337 -2.6327 -2.9854 0.9750
-4.6798 -3.0614 -2.9854 0.9750
-4.0629 -3.8427 -2.9854 0.9750
-3.7047 -4.1890 -2.9854 0.9750
-3.3172 -4.5021 -2.9854 0.9750
-2.0099 -5.2185 -2.9854 0.9750
-1.5374 -5.3767 -2.9854 0.9750
-1.0528 -5.4922 -2.9854 0.9750
0.9302 -5.5143 -2.9854 0.9750
1.4173 -5.4096 -2.9854 0.9750
2.3540 -5.0726 -2.9854 0.9750
2.7961 -4.8430 -2.9854 0.9750
3.6105 -4.2705 -2.9854 0.9750
3.9763 -3.9322 -2.9854 0.9750
4.8739 -2.7420 -2.9854 0.9750
5.2828 -1.8344 -2.9854 0.9750
5.5908 0.1246 -2.9854 0.9750
5.4802 1.1139 -2.9854 0.9750
5.1958 2.0679 -2.9854 0.9750
4.9912 2.5221 -2.9854 0.9750
4.7469 2.9564 -2.9854 0.9750
4.4649 3.3671 -2.9854 0.9750
2.4734 4.7621 -2.8647 0.9760
2.0171 4.9084 -2.8330 0.9762
0.6487 5.2670 -2.8330 0.9762
0.1773 5.3038 -2.8330 0.9762
-3.1133 4.6455 -2.9854 0.9750
-3.5145 4.3499 -2.9854 0.9750
-3.8877 4.0198 -2.9854 0.9750
-4.2300 3.6579 -2.9854 0.9750
-5.3935 1.4775 -2.9854 0.9750
-5.5700 0.4977 -2.9854 0.9750
-5.3539 -0.4784 -2.9854 0.9757
-5.2900 -0.9531 -2.9854 0.9757
-5.0373 -1.8759 -2.9854 0.9757
-4.8503 -2.3168 -2.9854 0.9757
-4.6248 -2.7393 -2.9854 0.9757
-4.3627 -3.1400 -2.9854 0.9757
-2.9925 -4.4651 -2.9854 0.9757
-1.7065 -5.0971 -2.9854 0.9757
-1.2461 -5.2288 -2.9854 0.9757
-0.2993 -5.3669 -2.9854 0.9757
0.1796 -5.3722 -2.9854 0.9757
0.6571 -5.3349 -2.9854 0.9757
1.5925 -5.1338 -2.9854 0.9757
2.8923 -4.5307 -2.9854 0.9757
3.2841 -4.2553 -2.9854 0.9757
3.9865 -3.6056 -2.9854 0.9757
4.2916 -3.2365 -2.9854 0.9757
4.5627 -2.8417 -2.9854 0.9757
5.1513 -1.5353 -2.9854 0.9757
5.3739 -0.1197 -2.9854 0.9757
5.3100 0.8350 -2.9854 0.9757
5.0778 1.7632 -2.9854 0.9757
4.6847 2.6356 -2.9854 0.9757
3.8220 3.7796 -2.9854 0.9757
3.4704 4.1048 -2.9854 0.9757
2.6876 4.6551 -2.9854 0.9757
2.2062 4.7542 -2.9109 0.9763
1.7268 4.7996 -2.8330 0.9769
1.2927 4.9343 -2.8330 0.9769
0.8484 5.0298 -2.8330 0.9769
0.3974 5.0853 -2.8330 0.9769
-0.0568 5.1005 -2.8330 0.9769
-0.5106 5.0752 -2.8330 0.9769
-0.9603 5.0096 -2.8330 0.9769
-1.4023 4.9043 -2.8330 0.9769
-1.8408 4.7795 -2.8446 0.9768
-2.7906 4.5940 -2.9854 0.9757
-3.1885 4.3274 -2.9854 0.9757
-3.9052 3.6935 -2.9854 0.9757
-4.4982 2.9426 -2.9854 0.9757
-4.7423 2.5306 -2.9854 0.9757
-4.9487 2.0984 -2.9854 0.9757
-5.2423 1.1878 -2.9854 0.9757
-5.3272 0.7165 -2.9854 0.9757
-5.3699 0.2395 -2.9854 0.9757
-5.1158 -1.6496 -2.9854 0.9757
-4.9487 -2.0984 -2.9854 0.9757
-4.7423 -2.5305 -2.9854 0.9757
-4.4982 -2.9426 -2.9854 0.9757
-4.2185 -3.3312 -2.9854 0.9757
-3.9052 -3.6935 -2.9854 0.9757
-3.5610 -4.0265 -2.9854 0.9757
-2.3707 -4.8242 -2.9854 0.9757
-1.9319 -5.0160 -2.9854 0.9757
-1.4778 -5.1681 -2.9854 0.9757
0.8941 -5.3003 -2.9854 0.9757
1.3623 -5.1997 -2.9854 0.9757
1.8197 -5.0578 -2.9854 0.9757
2.6876 -4.6551 -2.9854 0.9757
3.4704 -4.1048 -2.9854 0.9757
3.8220 -3.7796 -2.9854 0.9757
4.1432 -3.4244 -2.9854 0.9757
4.4315 -3.0421 -2.9854 0.9757
4.9007 -2.2081 -2.9854 0.9757
5.2146 -1.3043 -2.9854 0.9757
5.3419 0.5976 -2.9854 0.9757
5.1513 1.5353 -2.9854 0.9757
4.9942 1.9877 -2.9854 0.9757
4.5627 2.8417 -2.9854 0.9757
4.2916 3.2365 -2.9854 0.9757
3.9865 3.6056 -2.9854 0.9757
3.6498 3.9461 -2.9854 0.9757
3.2841 4.2553 -2.9854 0.9757
2.8923 4.5307 -2.9854 0.9757
2.4634 4.7429 -2.9683 0.9758
1.9578 4.7641 -2.8607 0.9767
0.6235 5.0626 -2.8330 0.9769
0.1704 5.0979 -2.8330 0.9769
-0.2840 5.0929 -2.8330 0.9769
-0.7361 5.0474 -2.8330 0.9769
-1.6194 4.8369 -2.8330 0.9769
-2.0851 4.7687 -2.8906 0.9765
-5.1842 1.4201 -2.9854 0.9757
-5.2900 0.9530 -2.9854 0.9757
-5.3539 0.4784 -2.9854 0.9757
-5.0889 -0.9168 -2.9854 0.9764
-4.9871 -1.3661 -2.9854 0.9764
-4.8457 -1.8046 -2.9854 0.9764
-4.6659 -2.2287 -2.9854 0.9764
-4.1968 -3.0206 -2.9854 0.9764
-3.2496 -4.0221 -2.9854 0.9764
-2.8787 -4.2954 -2.9854 0.9764
-2.4850 -4.5345 -2.9854 0.9764
-1.6416 -4.9033 -2.9854 0.9764
-0.2879 -5.1628 -2.9854 0.9764
0.6321 -5.1320 -2.9854 0.9764
1.9655 -4.7827 -2.9854 0.9764
3.8349 -3.4685 -2.9854 0.9764
4.1284 -3.1134 -2.9854 0.9764
4.3892 -2.7336 -2.9854 0.9764
4.6150 -2.3321 -2.9854 0.9764
4.8043 -1.9121 -2.9854 0.9764
5.0672 -1.0300 -2.9854 0.9764
5.1593 0.3454 -2.9854 0.9764
5.0163 1.2547 -2.9854 0.9764
4.8847 1.6962 -2.9854 0.9764
4.7144 2.1242 -2.9854 0.9764
4.5066 2.5354 -2.9854 0.9764
2.9737 4.2302 -2.9854 0.9764
2.1766 4.6904 -2.9854 0.9764
1.7104 4.7543 -2.9171 0.9769
0.8162 4.8385 -2.8330 0.9776
0.3823 4.8919 -2.8330 0.9776
-1.8326 4.7582 -2.9438 0.9767
-2.2805 4.6407 -2.9854 0.9764
-3.0672 4.1629 -2.9854 0.9764
-3.4256 3.8733 -2.9854 0.9764
-3.7567 3.5531 -2.9854 0.9764
-4.0581 3.2046 -2.9854 0.9764
-4.3272 2.8307 -2.9854 0.9764
-4.5619 2.4343 -2.9854 0.9764
-4.7605 2.0186 -2.9854 0.9764
-5.1247 0.6892 -2.9854 0.9764
-5.1657 -0.2303 -2.9854 0.9764
-5.0430 -1.1426 -2.9854 0.9764
-4.9213 -1.5869 -2.9854 0.9764
-4.7605 -2.0186 -2.9854 0.9764
-4.5620 -2.4343 -2.9854 0.9764
-4.0581 -3.2046 -2.9854 0.9764
-3.4256 -3.8734 -2.9854 0.9764
-3.0672 -4.1629 -2.9854 0.9764
-0.9734 -5.0783 -2.9854 0.9764
-0.0576 -5.1705 -2.9854 0.9764
0.4028 -5.1551 -2.9854 0.9764
0.8601 -5.0988 -2.9854 0.9764
1.7505 -4.8655 -2.9854 0.9764
2.1766 -4.6904 -2.9854 0.9764
2.5854 -4.4780 -2.9854 0.9764
3.3384 -3.9487 -2.9854 0.9764
3.9856 -3.2942 -2.9854 0.9764
4.2630 -2.9264 -2.9854 0.9764
4.7144 -2.1242 -2.9854 0.9764
4.8847 -1.6961 -2.9854 0.9764
5.0163 -1.2546 -2.9854 0.9764
5.1080 -0.8032 -2.9854 0.9764
5.1593 -0.3454 -2.9854 0.9764
5.1695 0.1152 -2.9854 0.9764
5.1388 0.5749 -2.9854 0.9764
5.0672 1.0300 -2.9854 0.9764
4.9554 1.4769 -2.9854 0.9764
4.8043 1.9121 -2.9854 0.9764
4.6150 2.3321 -2.9854 0.9764
3.5110 3.7961 -2.9854 0.9764
3.1592 4.0935 -2.9854 0.9764
2.7823 4.3585 -2.9854 0.9764
2.3834 4.5888 -2.9854 0.9764
1.9501 4.7453 -2.9620 0.9766
1.4772 4.7620 -2.8786 0.9772
0.1640 4.9041 -2.8330 0.9776
-0.2732 4.8992 -2.8330 0.9776
-1.1399 4.7833 -2.8390 0.9775
-1.5955 4.7654 -2.9014 0.9771
-2.8787 4.2954 -2.9854 0.9764
-3.2496 4.0221 -2.9854 0.9764
-3.5947 3.7169 -2.9854 0.9764
-3.9113 3.3822 -2.9854 0.9764
-4.4490 2.6352 -2.9854 0.9764
-4.6659 2.2287 -2.9854 0.9764
-4.9871 1.3661 -2.9854 0.9764
-5.0889 0.9168 -2.9854 0.9764
-5.1503 0.4603 -2.9854 0.9764
