ply
format ascii 1.0
element vertex 1635
property float32 x
property float32 y
property float32 z
property float32 I
end_header
9.1372 -6.8907 1.8223 0.9547
9.2835 -6.3728 1.7931 0.9554
8.7392 -6.5905 1.5569 0.9567
9.3797 -5.8417 1.5717 0.9563
8.8775 -7.3375 1.6382 0.9545
8.5319 -6.4342 1.3391 0.9578
9.1297 -5.6860 1.3478 0.9576
8.4913 -7.0182 1.3805 0.9566
9.8292 -5.5298 1.4133 0.9556
9.5496 -5.3725 1.1885 0.9569
8.3312 -7.5352 1.0298 0.9559
8.2956 -6.2560 0.9525 0.9591
8.8708 -5.5248 0.9581 0.9589
8.1923 -6.7711 0.9744 0.9582
9.3852 -5.2800 0.9872 0.9577
8.1740 -7.3929 0.8259 0.9568
8.2150 -6.1953 0.7711 0.9596
8.7834 -5.4704 0.7754 0.9593
9.2624 -5.2109 0.7964 0.9583
8.0627 -7.2923 0.6332 0.9574
8.1671 -6.1591 0.5958 0.9598
8.7288 -5.4363 0.5989 0.9596
8.4014 -5.7673 0.5935 0.9600
7.9967 -7.2326 0.4483 0.9578
9.8542 -4.9796 0.4591 0.9568
8.3582 -5.7376 0.4215 0.9602
9.1248 -5.1335 0.4353 0.9590
8.1022 -6.1102 0.2531 0.9602
9.7922 -4.9482 0.2736 0.9571
7.9618 -6.5806 0.2576 0.9595
8.3354 -5.7219 0.2521 0.9604
8.0885 -6.0998 0.0842 0.9603
8.6408 -5.3815 0.0846 0.9601
9.7623 -4.9331 0.0909 0.9572
8.3215 -5.7124 0.0839 0.9604
9.0748 -5.1054 0.0865 0.9592
-4.0171 7.3303 0.0695 0.9671
8.6368 -5.3791 -0.0846 0.9601
7.9418 -6.5641 -0.0856 0.9596
9.0700 -5.1027 -0.0865 0.9592
7.9534 -7.1934 -0.2674 0.9580
8.6514 -5.3882 -0.2542 0.9600
7.9570 -6.5766 -0.2574 0.9595
9.0874 -5.1125 -0.2600 0.9591
-4.0154 7.3272 -0.2084 0.9671
7.9809 -7.2183 -0.4474 0.9578
9.8288 -4.9667 -0.4579 0.9569
8.3464 -5.7295 -0.4209 0.9603
9.1095 -5.1249 -0.4346 0.9590
8.1550 -6.1500 -0.5949 0.9599
8.7152 -5.4279 -0.5980 0.9597
9.1647 -5.1560 -0.6125 0.9587
8.1345 -7.3573 -0.8219 0.9570
8.7624 -5.4573 -0.7736 0.9594
10.1196 -5.1137 -0.8497 0.9555
8.0748 -6.6740 -0.7851 0.9588
9.2299 -5.1926 -0.7936 0.9584
8.2887 -7.4967 -1.0246 0.9561
8.2720 -6.2382 -0.9498 0.9592
8.8460 -5.5093 -0.9554 0.9590
8.1663 -6.7496 -0.9713 0.9583
9.3515 -5.2611 -0.9837 0.9578
-4.0122 7.3213 -0.7654 0.9670
8.6395 -7.8140 -1.2635 0.9542
8.9368 -5.5659 -1.1420 0.9585
8.5875 -5.8950 -1.1298 0.9590
9.7377 -5.4783 -1.4001 0.9560
-4.0105 7.3182 -1.0458 0.9669
9.3067 -5.7962 -1.5595 0.9567
-4.0097 7.3167 -1.1867 0.9669
-1.4701 14.6129 -2.8421 0.9419
-2.7615 14.4067 -2.8387 0.9420
-5.2598 13.6569 -2.8321 0.9421
-7.5814 12.4806 -2.8259 0.9422
-8.6534 11.7445 -2.8231 0.9423
-9.6552 10.9174 -2.8204 0.9423
-10.5794 10.0059 -2.8179 0.9424
-11.4189 9.0175 -2.8157 0.9424
-12.1676 7.9597 -2.8137 0.9425
-12.8198 6.8409 -2.8120 0.9425
0.4917 14.7054 -2.8473 0.9418
-0.8181 14.6728 -2.8439 0.9419
-3.3985 14.2609 -2.8370 0.9420
-4.6489 13.8856 -2.8337 0.9421
-5.8597 13.4015 -2.8305 0.9421
-8.1256 12.1243 -2.8245 0.9423
-9.1636 11.3419 -2.8217 0.9423
-13.1082 6.2613 -2.8112 0.9425
-14.0455 0.0000 -2.9611 0.9442
-13.5522 -3.7123 -2.9623 0.9442
-11.4261 -8.2240 -2.9679 0.9441
-7.8625 -11.7317 -2.9773 0.9439
-6.7936 -12.3967 -2.9802 0.9439
-5.6689 -12.9651 -2.9832 0.9438
-4.4971 -13.4321 -2.9863 0.9437
-2.0487 -14.0471 -2.9927 0.9436
-0.7912 -14.1895 -2.9961 0.9436
0.4754 -14.2195 -2.9994 0.9435
2.9957 -13.9410 -3.0061 0.9434
5.4317 -13.2173 -3.0126 0.9433
7.7045 -12.0689 -3.0186 0.9431
9.7398 -10.5305 -3.0240 0.9430
10.6469 -9.6295 -3.0264 0.9430
12.8373 -6.4870 -3.0323 0.9429
13.3701 -5.3212 -3.0337 0.9429
13.7958 -4.1116 -3.0348 0.9429
14.3128 -1.6011 -3.0362 0.9428
14.3707 0.9620 -3.0364 0.9428
11.8958 6.6924 -2.8775 0.9457
6.7926 11.7651 -2.8640 0.9460
4.5896 12.7570 -2.8582 0.9461
3.4323 13.1008 -2.8551 0.9461
2.2501 13.3397 -2.8520 0.9462
1.0527 13.4720 -2.8488 0.9463
-0.1504 13.4971 -2.8456 0.9463
-1.3496 13.4151 -2.8424 0.9464
-2.5354 13.2271 -2.8393 0.9464
-3.6986 12.9348 -2.8362 0.9465
-4.8301 12.5410 -2.8332 0.9465
-7.9484 10.7877 -2.8249 0.9467
-8.8694 10.0287 -2.8225 0.9467
-11.7792 6.2856 -2.8147 0.9469
-12.2860 5.2097 -2.8134 0.9469
-13.3759 4.3132 -2.9629 0.9442
-13.9218 1.8723 -2.9614 0.9442
-14.0317 -0.6257 -2.9611 0.9442
-13.9216 -1.8723 -2.9614 0.9442
-12.4095 -6.6219 -2.9653 0.9441
-10.2388 -9.6838 -2.9711 0.9440
-8.3735 -11.3646 -2.9760 0.9439
-5.0883 -13.2115 -2.9847 0.9438
-0.1584 -14.2186 -2.9978 0.9435
6.0182 -12.9689 -3.0141 0.9432
8.2384 -11.7192 -3.0200 0.9431
11.0694 -9.1490 -3.0276 0.9430
12.5323 -7.0505 -3.0315 0.9429
13.5965 -4.7212 -3.0343 0.9429
14.2261 -2.2370 -3.0360 0.9428
14.3706 -0.9620 -3.0364 0.9428
14.3996 0.3209 -3.0365 0.9428
14.1112 2.8682 -3.0357 0.9428
13.7961 4.1117 -3.0349 0.9428
12.6909 5.0509 -2.8796 0.9457
12.1853 6.1575 -2.8783 0.9457
11.5825 7.2137 -2.8767 0.9457
10.8875 8.2107 -2.8748 0.9458
7.3135 11.4563 -2.8654 0.9460
4.0146 12.9419 -2.8567 0.9461
2.8437 13.2335 -2.8536 0.9462
0.4513 13.4979 -2.8472 0.9463
-1.9447 13.3343 -2.8409 0.9464
-3.1204 13.0938 -2.8377 0.9465
-4.2689 12.7504 -2.8347 0.9465
-7.4634 11.1362 -2.8262 0.9467
-8.4174 10.4184 -2.8237 0.9467
-10.1150 8.7468 -2.8192 0.9468
-11.4906 6.8059 -2.8155 0.9469
-13.5525 3.7125 -2.9624 0.9442
-13.9905 1.2502 -2.9612 0.9442
-12.9346 -1.1558 -2.9640 0.9481
-12.5292 -3.4321 -2.9651 0.9481
-11.7304 -5.6031 -2.9671 0.9481
-9.8497 -8.5174 -2.9721 0.9480
-9.0589 -9.3669 -2.9742 0.9479
-5.2382 -11.9800 -2.9843 0.9478
-4.1551 -12.4106 -2.9872 0.9477
-0.7308 -13.1071 -2.9962 0.9476
1.6080 -13.0559 -3.0024 0.9475
6.0873 -11.7201 -3.0143 0.9473
7.1127 -11.1418 -3.0171 0.9472
8.0831 -10.4735 -3.0196 0.9472
8.9904 -9.7203 -3.0221 0.9471
10.5862 -7.9834 -3.0263 0.9471
11.2615 -7.0137 -3.0281 0.9470
11.8471 -5.9866 -3.0297 0.9470
13.2074 -1.4775 -3.0333 0.9469
13.2608 0.8877 -3.0335 0.9469
13.1277 2.0643 -3.0331 0.9469
10.9784 6.1763 -2.8751 0.9496
10.3794 7.1250 -2.8735 0.9497
9.6979 8.0155 -2.8717 0.9497
8.9398 8.8408 -2.8697 0.9497
7.2192 10.2694 -2.8651 0.9498
6.2710 10.8617 -2.8626 0.9498
5.2745 11.3663 -2.8600 0.9499
4.2378 11.7793 -2.8572 0.9499
3.1695 12.0977 -2.8544 0.9500
-0.1389 12.4668 -2.8456 0.9501
-1.2467 12.3922 -2.8427 0.9502
-3.4172 11.9505 -2.8369 0.9503
-4.4629 11.5876 -2.8342 0.9503
-6.4348 10.5931 -2.8289 0.9504
-7.3458 9.9698 -2.8265 0.9505
-8.9832 8.4963 -2.8222 0.9505
-10.8891 5.8106 -2.8171 0.9506
-12.3659 3.9875 -2.9656 0.9481
-12.6683 2.8703 -2.9647 0.9481
-12.8711 1.7310 -2.9642 0.9481
-12.9729 0.5785 -2.9639 0.9481
-12.9728 -0.5785 -2.9639 0.9481
-12.8710 -1.7310 -2.9642 0.9481
-12.6681 -2.8702 -2.9647 0.9481
-11.9659 -5.0740 -2.9665 0.9481
-10.8871 -7.1220 -2.9694 0.9480
-9.4638 -8.9508 -2.9731 0.9480
-6.7789 -11.1596 -2.9802 0.9478
-2.4675 -12.8729 -2.9916 0.9476
-1.3133 -13.0547 -2.9947 0.9476
-0.1463 -13.1334 -2.9978 0.9475
1.0243 -13.1078 -3.0009 0.9475
2.1891 -12.9780 -3.0040 0.9474
3.3389 -12.7446 -3.0070 0.9474
5.5565 -11.9740 -3.0129 0.9473
6.6064 -11.4425 -3.0157 0.9472
9.4180 -9.3136 -3.0232 0.9471
13.2608 -0.8877 -3.0335 0.9469
13.2875 0.2962 -3.0335 0.9469
13.0215 2.6467 -3.0329 0.9469
11.2454 5.6825 -2.8758 0.9496
10.6895 6.6575 -2.8743 0.9496
10.0486 7.5780 -2.8726 0.9497
7.6727 9.9418 -2.8663 0.9498
6.7516 10.5763 -2.8639 0.9498
4.7607 11.5844 -2.8586 0.9499
-0.6937 12.4418 -2.8442 0.9502
-4.9723 11.3719 -2.8328 0.9504
-4.0054 7.3090 -1.9023 0.9664
-7.7795 9.6288 -2.8254 0.9505
-8.5989 8.8913 -2.8232 0.9505
-11.1346 5.3185 -2.8164 0.9506
-12.1781 4.5352 -2.9661 0.9481
-12.7822 2.3028 -2.9644 0.9481
-12.0680 -0.0000 -2.9663 0.9515
-11.8787 -2.1401 -2.9668 0.9515
-10.9007 -5.2068 -2.9694 0.9515
-9.1519 -7.9140 -2.9740 0.9514
-5.8318 -10.6417 -2.9827 0.9512
-4.8656 -11.1280 -2.9853 0.9512
-3.8593 -11.5272 -2.9880 0.9512
-1.7576 -12.0512 -2.9935 0.9511
2.5684 -11.9526 -3.0050 0.9509
3.6255 -11.6874 -3.0078 0.9508
5.6503 -10.8788 -3.0132 0.9508
6.6017 -10.3414 -3.0157 0.9507
7.5019 -9.7205 -3.0181 0.9507
9.1195 -8.2481 -3.0224 0.9506
10.4497 -6.5081 -3.0260 0.9506
10.9927 -5.5549 -3.0274 0.9505
11.4481 -4.5562 -3.0286 0.9505
11.8120 -3.5203 -3.0296 0.9505
12.0813 -2.4556 -3.0303 0.9505
12.3281 -0.2747 -3.0310 0.9505
12.3034 0.8236 -3.0309 0.9505
12.1800 1.9152 -3.0306 0.9505
10.1868 5.7310 -2.8730 0.9530
8.9994 7.4382 -2.8698 0.9530
7.5278 8.9039 -2.8659 0.9531
6.7003 9.5313 -2.8638 0.9531
3.9340 10.9348 -2.8564 0.9533
0.9028 11.5531 -2.8484 0.9534
-4.1453 10.7631 -2.8350 0.9536
-5.0824 10.3424 -2.8325 0.9536
-10.1187 5.3995 -2.8191 0.9539
-11.7729 2.6674 -2.9671 0.9515
-11.9615 1.6087 -2.9666 0.9515
-12.0561 -0.5376 -2.9663 0.9515
-11.9614 -1.6087 -2.9666 0.9515
-11.7727 -2.6673 -2.9671 0.9515
-11.4914 -3.7055 -2.9678 0.9515
-11.1196 -4.7151 -2.9688 0.9515
-10.1164 -6.6179 -2.9714 0.9514
-7.1895 -9.7577 -2.9792 0.9513
-6.2975 -10.3670 -2.9815 0.9513
-3.3435 -11.6930 -2.9893 0.9511
-2.2917 -11.9553 -2.9921 0.9511
-0.1359 -12.1955 -2.9978 0.9510
2.0325 -12.0494 -3.0036 0.9509
3.0998 -11.8318 -3.0064 0.9509
4.1444 -11.5196 -3.0092 0.9508
5.1579 -11.1149 -3.0119 0.9508
8.7401 -8.6433 -3.0214 0.9506
9.4809 -7.8362 -3.0234 0.9506
10.7319 -6.0377 -3.0267 0.9505
11.9587 -2.9911 -3.0300 0.9505
12.1798 -1.9152 -3.0306 0.9505
12.3033 -0.8236 -3.0309 0.9505
12.2539 1.3708 -3.0308 0.9505
12.0815 2.4557 -3.0304 0.9505
10.4343 5.2727 -2.8736 0.9530
7.1210 9.2270 -2.8649 0.9531
5.3635 10.3266 -2.8602 0.9532
4.4192 10.7536 -2.8577 0.9532
2.4381 11.3458 -2.8525 0.9533
1.4172 11.5069 -2.8498 0.9534
-0.6442 11.5537 -2.8443 0.9535
-1.6684 11.4396 -2.8416 0.9535
-3.6634 10.9421 -2.8363 0.9536
-4.6186 10.5631 -2.8338 0.9536
-4.0046 7.3074 -2.0482 0.9663
-7.2275 8.9457 -2.8268 0.9537
-7.9893 8.2609 -2.8248 0.9538
-9.3158 6.7051 -2.8213 0.9538
-11.8788 2.1401 -2.9668 0.9515
-12.0206 1.0742 -2.9664 0.9515
-11.2654 0.0000 -2.9684 0.9545
-11.2211 -1.0027 -2.9685 0.9545
-11.0886 -1.9977 -2.9689 0.9545
-10.8689 -2.9773 -2.9695 0.9545
-10.1750 -4.8602 -2.9713 0.9544
-9.1603 -6.5932 -2.9740 0.9544
-5.4419 -9.9303 -2.9838 0.9542
-3.6009 -10.7553 -2.9887 0.9542
-2.6316 -11.0426 -2.9912 0.9541
-1.6397 -11.2429 -2.9939 0.9541
0.3803 -11.3758 -2.9992 0.9540
1.3926 -11.3069 -3.0019 0.9540
3.3812 -10.9000 -3.0072 0.9539
4.3416 -10.5648 -3.0097 0.9539
5.2690 -10.1447 -3.0122 0.9538
6.1559 -9.6430 -3.0145 0.9538
6.9949 -9.0635 -3.0168 0.9537
7.7792 -8.4108 -3.0189 0.9537
9.1583 -6.9066 -3.0225 0.9537
9.7417 -6.0672 -3.0241 0.9536
10.2476 -5.1783 -3.0254 0.9536
10.6718 -4.2473 -3.0266 0.9536
11.0108 -3.2816 -3.0275 0.9536
11.4224 -1.2778 -3.0286 0.9536
11.4915 -0.2561 -3.0288 0.9536
11.4685 0.7677 -3.0287 0.9536
10.8524 3.7684 -3.0271 0.9536
9.4964 5.3426 -2.8711 0.9559
8.9789 6.1637 -2.8698 0.9559
7.0188 8.3019 -2.8646 0.9560
3.6689 10.1978 -2.8557 0.9562
2.7443 10.4748 -2.8533 0.9562
-1.0800 10.7357 -2.8431 0.9563
-2.9612 10.3559 -2.8381 0.9564
-3.8679 10.0427 -2.8357 0.9565
-4.7425 9.6507 -2.8334 0.9565
-4.2768 7.0406 -2.1707 0.9665
-7.1078 8.0370 -2.8271 0.9566
-8.4099 6.6412 -2.8237 0.9566
-8.9629 5.8633 -2.8222 0.9567
-9.4449 5.0400 -2.8209 0.9567
-10.3798 4.4015 -2.9708 0.9544
-11.2543 0.5019 -2.9685 0.9545
-11.2543 -0.5019 -2.9685 0.9545
-10.9895 -2.4899 -2.9691 0.9545
-10.7268 -3.4590 -2.9698 0.9544
-9.9504 -5.3097 -2.9719 0.9544
-9.4426 -6.1770 -2.9732 0.9544
-6.7094 -9.1061 -2.9804 0.9543
-5.8766 -9.6743 -2.9826 0.9543
-4.9961 -10.1668 -2.9850 0.9542
-4.0747 -10.5798 -2.9874 0.9542
-3.1196 -10.9097 -2.9899 0.9541
-1.1378 -11.3098 -2.9952 0.9541
1.8957 -11.2387 -3.0032 0.9539
5.7180 -9.9038 -3.0134 0.9538
6.5818 -9.3627 -3.0157 0.9538
8.1488 -8.0585 -3.0198 0.9537
8.8391 -7.3057 -3.0217 0.9537
9.4594 -6.4935 -3.0233 0.9536
10.4702 -4.7177 -3.0260 0.9536
10.8522 -3.7683 -3.0270 0.9536
11.1474 -2.7882 -3.0278 0.9536
11.0110 3.2816 -3.0275 0.9536
10.6721 4.2474 -3.0266 0.9536
9.7271 4.9153 -2.8717 0.9559
8.6932 6.5558 -2.8690 0.9560
7.3842 7.9837 -2.8656 0.9560
6.6397 8.6033 -2.8636 0.9560
5.8433 9.1534 -2.8615 0.9561
5.0015 9.6296 -2.8593 0.9561
3.2096 10.3467 -2.8545 0.9562
2.2739 10.5820 -2.8520 0.9562
1.3219 10.7330 -2.8495 0.9563
0.3610 10.7983 -2.8470 0.9563
-0.6010 10.7780 -2.8444 0.9563
-1.5565 10.6722 -2.8419 0.9564
-2.4980 10.4821 -2.8394 0.9564
-3.4181 10.2093 -2.8369 0.9564
-4.3096 9.8563 -2.8346 0.9565
-7.4564 7.7098 -2.8262 0.9566
-8.6951 6.2584 -2.8229 0.9567
-11.0887 1.9977 -2.9689 0.9545
-11.2212 1.0027 -2.9686 0.9545
-10.3913 -1.8721 -2.9707 0.9571
-9.8990 -3.6864 -2.9720 0.9571
-9.5347 -4.5543 -2.9730 0.9570
-8.5834 -6.1779 -2.9755 0.9570
-8.0036 -6.9209 -2.9770 0.9570
-7.3600 -7.6102 -2.9787 0.9570
-5.9017 -8.8060 -2.9826 0.9569
-4.2531 -9.7271 -2.9869 0.9568
-2.4650 -10.3434 -2.9917 0.9568
-1.5358 -10.5304 -2.9941 0.9567
-0.5930 -10.6341 -2.9966 0.9567
0.3562 -10.6537 -2.9992 0.9567
1.3041 -10.5886 -3.0017 0.9566
3.1660 -10.2063 -3.0066 0.9566
4.0651 -9.8919 -3.0090 0.9565
4.9332 -9.4981 -3.0113 0.9565
5.7632 -9.0279 -3.0135 0.9565
6.5484 -8.4850 -3.0156 0.9564
8.5727 -6.4650 -3.0210 0.9564
9.1185 -5.6790 -3.0224 0.9563
10.3057 -3.0714 -3.0256 0.9563
10.6906 -1.1959 -3.0266 0.9563
10.4336 2.6096 -3.0260 0.9563
10.1575 3.5271 -3.0253 0.9563
8.4046 5.7695 -2.8682 0.9585
7.2408 7.1605 -2.8652 0.9586
6.5706 7.7718 -2.8634 0.9586
4.2748 9.2120 -2.8573 0.9587
3.4353 9.5485 -2.8551 0.9587
2.5697 9.8085 -2.8528 0.9587
1.6851 9.9900 -2.8505 0.9588
-2.7737 9.7004 -2.8386 0.9589
-3.6232 9.4075 -2.8364 0.9590
-4.4427 9.0407 -2.8342 0.9590
-5.9668 8.0982 -2.8302 0.9591
-6.6595 7.5301 -2.8283 0.9591
-7.2989 6.9033 -2.8266 0.9591
-7.8801 6.2228 -2.8251 0.9591
-8.9731 4.7882 -2.8616 0.9586
-10.0523 3.2415 -2.9717 0.9571
-10.5468 0.4703 -2.9703 0.9571
-10.5467 -0.4703 -2.9703 0.9571
-10.2985 -2.3333 -2.9710 0.9571
-8.8480 -5.7881 -2.9748 0.9570
-7.6895 -7.2726 -2.9778 0.9570
-7.0158 -7.9329 -2.9796 0.9569
-6.2860 -8.5314 -2.9816 0.9569
-5.5055 -9.0633 -2.9836 0.9569
-4.6804 -9.5243 -2.9858 0.9569
-2.0026 -10.4472 -2.9929 0.9568
-1.0656 -10.5927 -2.9954 0.9567
0.8308 -10.6316 -3.0004 0.9567
2.7071 -10.3330 -3.0054 0.9566
6.9221 -8.1876 -3.0166 0.9564
8.8544 -6.0782 -3.0217 0.9564
10.1573 -3.5270 -3.0252 0.9563
10.7337 -0.7185 -3.0268 0.9563
10.5405 2.1424 -3.0263 0.9563
9.9888 3.9755 -3.0248 0.9563
8.6553 5.3906 -2.8689 0.9585
5.4706 8.5695 -2.8605 0.9586
4.6827 9.0158 -2.8584 0.9587
3.0053 9.6882 -2.8540 0.9587
1.2379 10.0510 -2.8493 0.9588
0.3381 10.1128 -2.8469 0.9588
-0.5628 10.0943 -2.8445 0.9589
-1.4578 9.9958 -2.8421 0.9589
-2.3398 9.8182 -2.8398 0.9589
-3.2018 9.5633 -2.8375 0.9590
-8.1474 5.8641 -2.8244 0.9591
-9.5350 4.5545 -2.9731 0.9570
-9.8993 3.6865 -2.9721 0.9571
-10.3914 1.8721 -2.9708 0.9571
-9.9271 0.0000 -2.9720 0.9594
-9.8880 -0.8836 -2.9721 0.9594
-9.7711 -1.7603 -2.9724 0.9594
-8.9652 -4.2823 -2.9745 0.9594
-6.2590 -7.7469 -2.9816 0.9593
-5.5481 -8.2784 -2.9835 0.9592
-3.9979 -9.1435 -2.9876 0.9592
-3.1706 -9.4700 -2.9898 0.9592
-2.3169 -9.7219 -2.9921 0.9591
-1.4435 -9.8972 -2.9944 0.9591
3.8195 -9.2943 -3.0083 0.9589
5.4146 -8.4818 -3.0126 0.9589
6.1520 -7.9714 -3.0145 0.9588
6.8412 -7.3967 -3.0164 0.9588
8.5654 -5.3346 -3.0210 0.9587
9.9002 -2.0123 -3.0245 0.9587
10.0413 -1.1233 -3.0249 0.9587
10.1020 -0.2251 -3.0251 0.9587
9.2054 4.1478 -3.0227 0.9587
8.4333 4.7445 -2.8969 0.9604
7.8949 5.4196 -2.8669 0.9608
7.3777 6.0978 -2.8655 0.9608
6.8021 6.7267 -2.8640 0.9608
4.0165 8.6553 -2.8566 0.9609
3.2278 8.9719 -2.8545 0.9610
1.5835 9.3877 -2.8502 0.9610
0.7411 9.4840 -2.8480 0.9611
-2.6071 9.1178 -2.8391 0.9612
-3.4058 8.8429 -2.8370 0.9612
-4.2421 6.9834 -2.4462 0.9665
-6.2609 7.0794 -2.8294 0.9613
-7.4089 5.8508 -2.8263 0.9613
-7.8966 5.1658 -2.8250 0.9614
-8.7674 4.6784 -2.9751 0.9594
-9.1459 3.8782 -2.9741 0.9594
-9.4521 3.0479 -2.9733 0.9594
-9.8393 1.3233 -2.9722 0.9594
-9.9174 0.4422 -2.9720 0.9594
-9.8393 -1.3233 -2.9722 0.9594
-9.4520 -3.0479 -2.9732 0.9594
-9.1457 -3.8781 -2.9740 0.9594
-7.8054 -6.1638 -2.9776 0.9593
-6.5959 -7.4581 -2.9807 0.9593
-2.7466 -9.6054 -2.9909 0.9591
-1.0015 -9.9556 -2.9956 0.9591
-0.1116 -10.0131 -2.9979 0.9591
0.7807 -9.9912 -3.0003 0.9590
2.5438 -9.7096 -3.0050 0.9590
3.4005 -9.4517 -3.0072 0.9589
4.2313 -9.1183 -3.0094 0.9589
5.0297 -8.7116 -3.0116 0.9589
5.7890 -8.2349 -3.0136 0.9588
6.5030 -7.6918 -3.0155 0.9588
7.1660 -7.0866 -3.0172 0.9588
8.7963 -4.9487 -3.0216 0.9587
9.2052 -4.1476 -3.0227 0.9587
9.5406 -3.3129 -3.0236 0.9587
9.7999 -2.4511 -3.0243 0.9587
9.9807 -1.5694 -3.0248 0.9587
10.0817 -0.6749 -3.0250 0.9587
10.1020 0.2251 -3.0251 0.9587
9.6801 2.8850 -3.0240 0.9587
9.0099 4.5529 -3.0222 0.9587
8.1303 5.0636 -2.8675 0.9608
6.4938 7.0210 -2.8632 0.9609
5.1396 8.0511 -2.8596 0.9609
2.8239 9.1033 -2.8535 0.9610
2.0009 9.3114 -2.8513 0.9610
0.3177 9.5038 -2.8468 0.9611
-0.5290 9.4869 -2.8446 0.9611
-1.3702 9.3947 -2.8424 0.9611
-3.7949 8.6792 -2.8359 0.9612
-3.8896 7.0976 -2.4230 0.9668
-5.2664 7.8580 -2.8320 0.9613
-6.5682 6.7915 -2.8285 0.9613
-9.3082 3.4664 -2.9737 0.9594
-9.7712 1.7604 -2.9724 0.9594
-9.3628 0.0000 -2.9735 0.9615
-8.4552 -4.0387 -2.9758 0.9614
-6.5253 -6.7471 -2.9809 0.9614
-5.9021 -7.3051 -2.9826 0.9614
-2.9893 -8.9287 -2.9903 0.9613
-0.5253 -9.4217 -2.9968 0.9612
0.3156 -9.4380 -2.9991 0.9611
1.9869 -9.2462 -3.0035 0.9611
2.8040 -9.0392 -3.0057 0.9611
5.1028 -7.9934 -3.0118 0.9610
7.0454 -6.3722 -3.0169 0.9609
7.5882 -5.7226 -3.0184 0.9609
9.3280 -1.8960 -3.0230 0.9608
9.4609 -1.0583 -3.0234 0.9608
9.4040 1.4787 -3.0232 0.9608
9.2337 2.3095 -3.0228 0.9608
8.9896 3.1215 -3.0222 0.9608
8.6737 3.9082 -3.0213 0.9609
8.2886 4.6631 -3.0203 0.9609
6.9520 5.7460 -2.8644 0.9629
6.4098 6.3388 -2.8630 0.9629
5.8170 6.8804 -2.8614 0.9629
2.2759 8.6871 -2.8520 0.9630
1.4926 8.8488 -2.8499 0.9630
-2.4580 8.5963 -2.8395 0.9632
-3.9378 8.0132 -2.8355 0.9632
-4.2308 6.9648 -2.5880 0.9664
-5.9040 6.6758 -2.8303 0.9633
-6.4713 6.1205 -2.8288 0.9633
-6.9870 5.5176 -2.8274 0.9633
-7.4471 4.8717 -2.8262 0.9633
-8.6256 3.6576 -2.9755 0.9614
-8.9146 2.8746 -2.9747 0.9615
-9.1333 2.0693 -2.9741 0.9615
-9.3536 0.4171 -2.9735 0.9615
-9.1332 -2.0693 -2.9741 0.9615
-8.9145 -2.8746 -2.9746 0.9615
-8.6254 -3.6575 -2.9754 0.9614
-8.2683 -4.4121 -2.9763 0.9614
-5.5725 -7.5630 -2.9835 0.9613
-4.8802 -8.0339 -2.9853 0.9613
-3.3829 -8.7835 -2.9893 0.9613
-2.5895 -9.0562 -2.9914 0.9612
-0.9442 -9.3854 -2.9957 0.9612
-0.1052 -9.4392 -2.9979 0.9612
1.5724 -9.3221 -3.0024 0.9611
3.2050 -8.9085 -3.0067 0.9610
3.9879 -8.5938 -3.0088 0.9610
5.4555 -7.7606 -3.0127 0.9610
6.1282 -7.2485 -3.0145 0.9609
6.7528 -6.6780 -3.0161 0.9609
7.3241 -6.0535 -3.0177 0.9609
7.8373 -5.3800 -3.0190 0.9609
8.6735 -3.9081 -3.0213 0.9609
8.9894 -3.1214 -3.0221 0.9608
9.2335 -2.3095 -3.0228 0.9608
9.4039 -1.4787 -3.0232 0.9608
9.4610 1.0584 -3.0234 0.9608
9.1207 2.7183 -3.0225 0.9608
8.8404 3.5184 -3.0218 0.9609
8.4896 4.2900 -3.0209 0.9609
7.6608 4.7712 -2.8663 0.9628
6.6875 6.0485 -2.8637 0.9629
5.5031 7.1306 -2.8606 0.9629
4.8437 7.5875 -2.8588 0.9629
4.1464 7.9834 -2.8570 0.9629
1.0965 8.9032 -2.8489 0.9631
0.2995 8.9588 -2.8468 0.9631
-0.4987 8.9433 -2.8447 0.9631
-1.2917 8.8569 -2.8426 0.9631
-2.8375 8.4753 -2.8385 0.9632
-3.8721 7.0657 -2.5588 0.9668
-5.6024 6.9342 -2.8311 0.9633
-6.7359 5.8247 -2.8281 0.9633
-7.2242 5.1997 -2.8268 0.9633
-8.0468 4.7661 -2.9702 0.9615
-8.4554 4.0388 -2.9759 0.9614
-9.0328 2.4744 -2.9744 0.9615
-9.3260 0.8334 -2.9736 0.9615
-8.5418 -2.3398 -2.9756 0.9633
-7.9955 -3.8191 -2.9771 0.9633
-6.1699 -6.3797 -2.9819 0.9632
-4.9464 -7.3805 -2.9851 0.9632
-3.5638 -8.1506 -2.9888 0.9632
-2.8260 -8.4409 -2.9907 0.9631
-2.0649 -8.6648 -2.9927 0.9631
-1.2864 -8.8203 -2.9948 0.9631
1.0919 -8.8654 -3.0011 0.9630
1.8779 -8.7391 -3.0032 0.9630
3.4022 -8.2788 -3.0072 0.9629
5.4786 -7.0988 -3.0128 0.9629
8.6174 -2.5682 -3.0211 0.9628
8.9388 -0.9999 -3.0220 0.9628
8.7242 2.1821 -3.0215 0.9628
8.1953 3.6926 -3.0201 0.9628
7.8316 4.4060 -3.0191 0.9628
7.0292 4.8253 -2.8646 0.9647
6.0568 5.9898 -2.8620 0.9647
5.4968 6.5017 -2.8605 0.9647
4.8936 6.9613 -2.8589 0.9647
4.2521 7.3648 -2.8572 0.9648
3.5775 7.7092 -2.8555 0.9648
2.8752 7.9918 -2.8536 0.9648
2.1511 8.2105 -2.8517 0.9648
1.4108 8.3636 -2.8497 0.9648
0.6603 8.4501 -2.8477 0.9649
-1.5923 8.3068 -2.8418 0.9649
-2.3237 8.1266 -2.8398 0.9650
-3.0358 7.8823 -2.8379 0.9650
-3.7229 7.5759 -2.8361 0.9650
-4.2194 6.9461 -2.7306 0.9663
-5.5824 6.3121 -2.8312 0.9651
-6.1190 5.7873 -2.8297 0.9651
-6.6068 5.2173 -2.8284 0.9651
-7.2950 4.7721 -2.9288 0.9639
-8.1567 3.4588 -2.9767 0.9633
-8.6370 1.9569 -2.9754 0.9633
-8.7758 1.1802 -2.9750 0.9633
-8.4300 -2.7183 -2.9759 0.9633
-8.1565 -3.4587 -2.9766 0.9633
-7.8187 -4.1721 -2.9775 0.9633
-7.4189 -4.8532 -2.9786 0.9633
-5.2688 -7.1508 -2.9843 0.9632
-3.9221 -7.9812 -2.9878 0.9632
-3.1982 -8.3039 -2.9897 0.9631
-2.4480 -8.5613 -2.9917 0.9631
-0.0994 -8.9224 -2.9980 0.9630
2.2661 -8.6497 -3.0042 0.9630
4.4796 -7.7588 -3.0101 0.9629
5.1554 -7.3337 -3.0119 0.9629
5.7910 -6.8496 -3.0136 0.9629
7.4054 -5.0835 -3.0179 0.9628
7.8314 -4.4059 -3.0190 0.9628
8.9927 0.2004 -3.0221 0.9628
8.9388 1.0000 -3.0220 0.9628
8.6175 2.5683 -3.0212 0.9628
8.3528 3.3243 -3.0205 0.9628
7.5890 4.7265 -3.0039 0.9630
6.8059 5.1325 -2.8640 0.9647
6.3192 5.7154 -2.8627 0.9647
5.7825 6.2520 -2.8613 0.9647
4.5773 7.1703 -2.8581 0.9647
3.9186 7.5446 -2.8564 0.9648
3.2294 7.8584 -2.8545 0.9648
2.5155 8.1093 -2.8526 0.9648
1.0364 8.4152 -2.8487 0.9649
-0.4714 8.4538 -2.8447 0.9649
-1.2211 8.3724 -2.8427 0.9649
-1.9601 8.2248 -2.8408 0.9650
-3.3828 7.7367 -2.8370 0.9650
-3.8547 7.0339 -2.6949 0.9667
-4.6952 7.0057 -2.8335 0.9650
-6.3692 5.5077 -2.8291 0.9651
-6.8312 4.9168 -2.8278 0.9651
-7.6265 4.5172 -2.9781 0.9633
-8.5420 2.3399 -2.9757 0.9633
-8.3930 0.0000 -2.9760 0.9650
-8.3599 -0.7471 -2.9761 0.9650
-8.0969 -2.2180 -2.9768 0.9650
-7.8689 -2.9304 -2.9774 0.9650
-7.5788 -3.6201 -2.9782 0.9650
-7.2288 -4.2816 -2.9791 0.9650
-6.3600 -5.4997 -2.9814 0.9649
-5.2891 -6.5464 -2.9842 0.9649
-3.3774 -7.7242 -2.9893 0.9649
-1.9568 -8.2110 -2.9930 0.9648
-1.2190 -8.3580 -2.9950 0.9648
2.5107 -8.0939 -3.0049 0.9647
6.3061 -5.7035 -3.0150 0.9646
7.2233 -4.4987 -3.0174 0.9645
7.5976 -3.8392 -3.0184 0.9645
7.9113 -3.1486 -3.0193 0.9645
8.5173 -0.1898 -3.0209 0.9645
8.2631 2.0668 -3.0202 0.9645
7.7623 3.4975 -3.0189 0.9645
7.4180 4.1733 -3.0180 0.9645
6.2224 5.1429 -2.8624 0.9663
5.7374 5.6738 -2.8612 0.9663
5.2070 6.1589 -2.8598 0.9664
4.6357 6.5944 -2.8583 0.9664
1.3367 7.9243 -2.8495 0.9665
-0.0894 8.0250 -2.8457 0.9665
-0.8028 7.9799 -2.8438 0.9665
-2.2021 7.7011 -2.8401 0.9666
-2.8769 7.4698 -2.8383 0.9666
-4.1508 6.8332 -2.8350 0.9666
-4.7399 6.4331 -2.8334 0.9667
-5.2909 5.9826 -2.8319 0.9667
-7.0323 4.6003 -2.9797 0.9650
-7.4113 3.9548 -2.9787 0.9650
-7.9909 2.5767 -2.9771 0.9650
-8.1871 1.8550 -2.9766 0.9650
-8.3187 1.1188 -2.9763 0.9650
-7.9908 -2.5767 -2.9771 0.9650
-7.7315 -3.2784 -2.9778 0.9650
-7.4111 -3.9547 -2.9786 0.9650
-7.0321 -4.6002 -2.9796 0.9650
-6.5973 -5.2098 -2.9808 0.9650
-4.3729 -7.1988 -2.9866 0.9649
-3.0309 -7.8694 -2.9902 0.9648
-2.3199 -8.1130 -2.9921 0.9648
1.4082 -8.3482 -3.0020 0.9647
2.1470 -8.1950 -3.0039 0.9647
3.5705 -7.6942 -3.0077 0.9646
4.8838 -6.9473 -3.0112 0.9646
5.4857 -6.4885 -3.0128 0.9646
7.0144 -4.8151 -3.0169 0.9645
7.4178 -4.1732 -3.0179 0.9645
8.0447 -2.7934 -3.0196 0.9645
8.5003 -0.5690 -3.0208 0.9645
8.4663 0.9471 -3.0208 0.9645
8.1621 2.4326 -3.0200 0.9645
7.5977 3.8393 -3.0185 0.9645
7.2235 4.4988 -3.0175 0.9645
6.4466 4.8616 -2.8630 0.9663
5.4776 5.9223 -2.8605 0.9663
3.7123 7.1474 -2.8558 0.9664
3.0595 7.4449 -2.8541 0.9664
-1.1571 7.9336 -2.8429 0.9665
-2.5421 7.5929 -2.8392 0.9666
-3.2058 7.3320 -2.8375 0.9666
-5.0205 6.2139 -2.8326 0.9667
-5.5508 5.7396 -2.8312 0.9667
-6.0369 5.2203 -2.8299 0.9667
-6.6359 4.7763 -2.8991 0.9659
-7.5790 3.6202 -2.9782 0.9650
-7.8691 2.9305 -2.9775 0.9650
-8.2611 1.4883 -2.9764 0.9650
-8.3600 0.7471 -2.9761 0.9650
-7.9414 -0.7096 -2.9772 0.9665
-7.6915 -2.1069 -2.9779 0.9665
-7.1992 -3.4387 -2.9792 0.9665
-6.0411 -5.2239 -2.9822 0.9665
-5.5545 -5.7433 -2.9835 0.9665
-5.0237 -6.2179 -2.9849 0.9664
-4.4525 -6.6437 -2.9864 0.9664
-2.5434 -7.5968 -2.9915 0.9664
-1.8583 -7.7977 -2.9933 0.9664
-1.1576 -7.9371 -2.9952 0.9663
-0.4468 -8.0137 -2.9970 0.9663
0.9823 -7.9760 -3.0008 0.9663
1.6894 -7.8618 -3.0027 0.9662
3.0603 -7.4468 -3.0063 0.9662
3.7131 -7.1489 -3.0081 0.9662
4.3370 -6.7938 -3.0097 0.9662
4.9270 -6.3841 -3.0113 0.9662
7.2121 -3.6444 -3.0174 0.9661
7.7477 -2.3090 -3.0188 0.9661
7.9237 -1.6105 -3.0193 0.9661
8.0364 -0.8990 -3.0196 0.9661
8.0849 -0.1802 -3.0197 0.9661
7.9881 1.2561 -3.0195 0.9661
5.4467 5.3863 -2.8604 0.9678
4.9433 5.8470 -2.8591 0.9678
3.8243 6.6239 -2.8561 0.9679
0.5941 7.6026 -2.8475 0.9680
-0.7623 7.5779 -2.8439 0.9680
-1.4329 7.4753 -2.8422 0.9680
-2.7323 7.0942 -2.8387 0.9681
-3.3509 6.8189 -2.8371 0.9681
-5.0255 5.6824 -2.8326 0.9681
-5.5088 5.2102 -2.8313 0.9681
-6.0513 4.7787 -2.8793 0.9676
-6.6798 4.3698 -2.9806 0.9665
-7.5908 2.4477 -2.9782 0.9665
-7.7772 1.7621 -2.9777 0.9665
-7.9650 0.3552 -2.9772 0.9665
-7.7771 -1.7621 -2.9777 0.9665
-7.0398 -3.7566 -2.9796 0.9665
-6.6797 -4.3696 -2.9806 0.9665
-6.2665 -4.9486 -2.9816 0.9665
-4.7429 -6.4371 -2.9857 0.9664
-3.5302 -7.1837 -2.9889 0.9664
-2.8784 -7.4737 -2.9906 0.9664
-2.2031 -7.7049 -2.9924 0.9664
-0.8031 -7.9833 -2.9961 0.9663
2.0386 -7.7812 -3.0036 0.9662
3.3899 -7.3052 -3.0072 0.9662
4.0290 -6.9784 -3.0089 0.9662
5.2078 -6.1599 -3.0121 0.9661
6.2231 -5.1435 -3.0148 0.9661
6.6587 -4.5710 -3.0159 0.9661
7.3683 -3.3200 -3.0178 0.9661
7.8435 -1.9618 -3.0191 0.9661
8.0687 -0.5401 -3.0197 0.9661
8.0364 0.8990 -3.0196 0.9661
7.9238 1.6106 -3.0193 0.9661
7.7478 2.3091 -3.0189 0.9661
6.8571 4.2707 -3.0165 0.9661
6.2867 4.7411 -2.9403 0.9669
5.6824 5.1394 -2.8610 0.9678
5.2001 5.6223 -2.8597 0.9678
3.5245 6.7859 -2.8553 0.9679
1.6036 7.4626 -2.8502 0.9679
0.9325 7.5710 -2.8484 0.9680
-1.7639 7.4017 -2.8413 0.9680
-2.4142 7.2110 -2.8396 0.9681
-3.6503 6.6610 -2.8363 0.9681
-4.7685 5.9021 -2.8333 0.9681
-5.2724 5.4516 -2.8320 0.9681
-5.7342 4.9585 -2.8307 0.9682
-6.4797 4.6638 -2.9812 0.9665
-7.1993 3.4388 -2.9792 0.9665
-7.4750 2.7837 -2.9785 0.9665
-7.6916 2.1070 -2.9779 0.9665
-7.8475 1.4138 -2.9775 0.9665
-7.4688 -1.3456 -2.9785 0.9679
-7.1141 -2.6493 -2.9794 0.9679
-6.8517 -3.2728 -2.9801 0.9679
-6.5350 -3.8707 -2.9809 0.9679
-6.1666 -4.4384 -2.9819 0.9679
-5.7492 -4.9715 -2.9830 0.9679
-5.2860 -5.4657 -2.9842 0.9679
-4.2371 -6.3222 -2.9870 0.9678
-3.6595 -6.6777 -2.9885 0.9678
-3.0522 -6.9806 -2.9901 0.9678
-2.4202 -7.2286 -2.9918 0.9678
-1.1014 -7.5520 -2.9953 0.9677
-0.4251 -7.6246 -2.9971 0.9677
1.6072 -7.4795 -3.0025 0.9677
3.5322 -6.8007 -3.0076 0.9676
4.6868 -6.0729 -3.0107 0.9676
5.2111 -5.6342 -3.0121 0.9676
6.5220 -4.0620 -3.0156 0.9675
6.8597 -3.4663 -3.0165 0.9675
7.1428 -2.8428 -3.0172 0.9675
7.5363 -1.5318 -3.0183 0.9675
7.5976 1.1947 -3.0185 0.9675
7.0084 3.1579 -3.0169 0.9675
5.7414 4.7454 -2.9234 0.9685
5.1809 5.1235 -2.8597 0.9692
4.7022 5.5618 -2.8584 0.9692
4.1865 5.9554 -2.8571 0.9692
1.2075 7.1585 -2.8492 0.9693
0.5652 7.2332 -2.8475 0.9693
-0.0808 7.2504 -2.8458 0.9693
-0.7253 7.2101 -2.8440 0.9693
-1.3634 7.1127 -2.8424 0.9694
-1.9899 6.9591 -2.8407 0.9694
-2.5999 6.7505 -2.8391 0.9694
-3.1886 6.4887 -2.8375 0.9694
-3.7515 6.1759 -2.8360 0.9694
-4.7825 5.4077 -2.8333 0.9695
-5.2425 4.9584 -2.8320 0.9695
-5.9640 4.7097 -2.9825 0.9679
-6.9899 2.9640 -2.9798 0.9679
-7.2245 2.3296 -2.9792 0.9679
-7.5211 1.0115 -2.9784 0.9679
-7.5210 -1.0114 -2.9784 0.9679
-7.2244 -2.3296 -2.9791 0.9679
-6.7000 -3.5752 -2.9805 0.9679
-5.9638 -4.7096 -2.9824 0.9679
-5.0384 -5.6970 -2.9849 0.9678
-4.5135 -6.1257 -2.9863 0.9678
-3.9523 -6.5063 -2.9878 0.9678
-3.3593 -6.8359 -2.9893 0.9678
-2.7390 -7.1116 -2.9910 0.9678
-0.7642 -7.5958 -2.9962 0.9677
-0.0851 -7.6383 -2.9980 0.9677
1.2721 -7.5414 -3.0016 0.9677
1.9394 -7.4027 -3.0034 0.9677
2.5921 -7.2048 -3.0051 0.9676
4.4105 -6.2741 -3.0099 0.9676
5.9193 -4.8924 -3.0140 0.9675
6.3336 -4.3478 -3.0151 0.9675
6.6975 -3.7680 -3.0160 0.9675
7.2631 -2.5220 -3.0175 0.9675
7.6742 -0.5137 -3.0186 0.9675
7.6435 0.8551 -3.0186 0.9675
7.1429 2.8429 -3.0173 0.9675
4.9464 5.3480 -2.8591 0.9692
3.9161 6.1344 -2.8563 0.9692
3.3528 6.4553 -2.8548 0.9692
2.7634 6.7244 -2.8533 0.9692
0.8871 7.2030 -2.8483 0.9693
0.2424 7.2490 -2.8466 0.9693
-0.4036 7.2375 -2.8449 0.9693
-1.0455 7.1685 -2.8432 0.9694
-1.6784 7.0429 -2.8415 0.9694
-2.2973 6.8615 -2.8399 0.9694
-2.8972 6.6261 -2.8383 0.9694
-5.0175 5.1881 -2.8326 0.9695
-5.5273 4.7797 -2.8679 0.9691
-6.5352 3.8708 -2.9810 0.9679
-6.8518 3.2728 -2.9802 0.9679
-7.3205 2.0053 -2.9789 0.9679
-7.4689 1.3456 -2.9785 0.9679
-7.5584 0.6754 -2.9783 0.9679
-6.5322 -3.1202 -2.9810 0.9692
-6.2302 -3.6902 -2.9817 0.9692
-5.8789 -4.2313 -2.9827 0.9692
-5.4809 -4.7395 -2.9837 0.9691
-4.0391 -6.0268 -2.9875 0.9691
-3.4884 -6.3655 -2.9890 0.9691
-2.3069 -6.8904 -2.9921 0.9691
-1.0498 -7.1982 -2.9955 0.9690
0.2434 -7.2786 -2.9989 0.9690
0.8907 -7.2322 -3.0006 0.9690
2.1613 -6.9675 -3.0040 0.9689
2.7744 -6.7512 -3.0056 0.9689
3.3661 -6.4808 -3.0072 0.9689
4.4661 -5.7869 -3.0101 0.9689
5.4260 -4.9076 -3.0126 0.9688
6.5362 -3.3029 -3.0156 0.9688
7.1807 -1.4595 -3.0173 0.9688
7.2827 -0.8147 -3.0176 0.9688
7.3267 -0.1632 -3.0177 0.9688
7.2390 1.1383 -3.0175 0.9688
7.1081 1.7779 -3.0172 0.9688
6.9206 2.4031 -3.0167 0.9688
6.3818 3.5904 -3.0153 0.9688
4.9368 4.8821 -2.8590 0.9704
4.4808 5.2999 -2.8578 0.9704
3.9894 5.6751 -2.8565 0.9704
2.3448 6.5175 -2.8522 0.9705
1.7544 6.6966 -2.8506 0.9705
-0.0770 6.9104 -2.8458 0.9705
-1.8967 6.6333 -2.8409 0.9706
-3.0395 6.1853 -2.8379 0.9706
-3.5762 5.8872 -2.8365 0.9706
-4.0841 5.5429 -2.8351 0.9707
-5.6857 4.4900 -2.9833 0.9691
-6.3877 3.4086 -2.9814 0.9692
-6.6641 2.8258 -2.9807 0.9692
-6.8878 2.2210 -2.9801 0.9692
-7.1706 0.9644 -2.9793 0.9692
-7.2276 0.3223 -2.9791 0.9692
-6.0606 -3.9647 -2.9822 0.9692
-4.3026 -5.8396 -2.9868 0.9691
-3.2022 -6.5162 -2.9898 0.9691
-2.6109 -6.7789 -2.9913 0.9691
-1.3691 -7.1423 -2.9946 0.9690
-0.0811 -7.2802 -2.9980 0.9690
1.2124 -7.1874 -3.0015 0.9690
1.8483 -7.0550 -3.0031 0.9689
2.4703 -6.8662 -3.0048 0.9689
3.0732 -6.6226 -3.0064 0.9689
3.6523 -6.3260 -3.0079 0.9689
5.6403 -4.6618 -3.0132 0.9688
6.0350 -4.1428 -3.0143 0.9688
6.6777 -3.0088 -3.0160 0.9688
7.1081 -1.7778 -3.0171 0.9688
7.2389 -1.1383 -3.0175 0.9688
7.3120 -0.4895 -3.0177 0.9688
7.2828 0.8147 -3.0176 0.9688
7.1807 1.4595 -3.0174 0.9688
6.8060 2.7087 -3.0164 0.9688
6.5363 3.3030 -3.0157 0.9688
6.2147 3.8705 -3.0148 0.9688
5.8436 4.4069 -3.0138 0.9688
5.2496 4.7480 -2.9147 0.9698
4.7134 5.0961 -2.8584 0.9704
4.2393 5.4930 -2.8572 0.9704
2.6335 6.4083 -2.8529 0.9705
1.4540 6.7663 -2.8498 0.9705
0.8455 6.8649 -2.8482 0.9705
0.2310 6.9090 -2.8466 0.9705
-0.3846 6.8982 -2.8449 0.9706
-1.5998 6.7131 -2.8417 0.9706
-2.1897 6.5404 -2.8402 0.9706
-2.7617 6.3162 -2.8386 0.9706
-3.3112 6.0422 -2.8372 0.9706
-3.8340 5.7207 -2.8358 0.9706
-4.7833 4.9459 -2.8333 0.9707
-5.8791 4.2315 -2.9828 0.9692
-6.7826 2.5259 -2.9803 0.9692
-7.1208 1.2829 -2.9794 0.9692
-6.9084 0.0000 -2.9800 0.9704
-6.8811 -0.6149 -2.9801 0.9704
-6.7996 -1.2250 -2.9803 0.9704
-6.4765 -2.4118 -2.9811 0.9703
-6.2374 -2.9794 -2.9817 0.9703
-4.8115 -4.9751 -2.9855 0.9703
-4.3514 -5.3858 -2.9867 0.9703
-3.8565 -5.7543 -2.9880 0.9703
-1.6090 -6.7517 -2.9940 0.9702
0.2323 -6.9482 -2.9989 0.9702
0.8503 -6.9037 -3.0005 0.9702
2.6482 -6.4441 -3.0053 0.9701
3.2129 -6.1858 -3.0068 0.9701
4.2627 -5.5233 -3.0096 0.9701
4.7394 -5.1242 -3.0108 0.9701
6.2379 -3.1521 -3.0148 0.9700
6.4952 -2.5850 -3.0155 0.9700
6.7007 -1.9970 -3.0161 0.9700
6.8528 -1.3929 -3.0165 0.9700
6.9502 -0.7775 -3.0167 0.9700
6.9921 -0.1558 -3.0168 0.9700
6.9085 1.0863 -3.0166 0.9700
6.7836 1.6967 -3.0163 0.9700
6.6046 2.2934 -3.0158 0.9700
5.7598 3.9539 -3.0136 0.9700
4.8024 4.7492 -2.9134 0.9710
4.2766 5.0584 -2.8573 0.9716
3.3090 5.7313 -2.8547 0.9716
2.7844 6.0002 -2.8533 0.9716
1.6747 6.3922 -2.8504 0.9716
0.5142 6.5808 -2.8473 0.9717
-0.0735 6.5968 -2.8458 0.9717
-1.2406 6.4722 -2.8427 0.9717
-1.8108 6.3328 -2.8412 0.9717
-3.8994 5.2923 -2.8356 0.9718
-5.7871 3.7857 -2.9830 0.9703
-6.3633 2.6983 -2.9815 0.9703
-6.7387 1.5268 -2.9804 0.9703
-6.8471 0.9209 -2.9802 0.9704
-6.9016 0.3078 -2.9800 0.9704
-6.9016 -0.3077 -2.9800 0.9704
-6.5769 -2.1208 -2.9808 0.9703
-6.3632 -2.6982 -2.9814 0.9703
-6.0992 -3.2546 -2.9821 0.9703
-5.7870 -3.7856 -2.9829 0.9703
-5.0274 -4.7549 -2.9849 0.9703
-4.5861 -5.1855 -2.9861 0.9703
-4.1081 -5.5755 -2.9874 0.9703
-3.5971 -5.9217 -2.9887 0.9703
-3.0572 -6.2213 -2.9901 0.9703
-2.4926 -6.4720 -2.9916 0.9702
-0.6953 -6.9115 -2.9964 0.9702
0.5417 -6.9329 -2.9997 0.9702
1.1573 -6.8609 -3.0013 0.9701
1.7643 -6.7343 -3.0029 0.9701
4.9639 -4.9089 -3.0114 0.9700
5.3831 -4.4493 -3.0125 0.9700
5.7597 -3.9538 -3.0135 0.9700
6.0905 -3.4265 -3.0144 0.9700
6.6046 -2.2934 -3.0158 0.9700
6.7835 -1.6967 -3.0163 0.9700
6.9781 -0.4671 -3.0168 0.9700
6.9921 0.1558 -3.0168 0.9700
6.8529 1.3929 -3.0165 0.9700
6.4953 2.5851 -3.0155 0.9700
6.2380 3.1522 -3.0149 0.9700
5.9311 3.6939 -3.0141 0.9700
4.4986 4.8638 -2.8579 0.9716
4.0462 5.2428 -2.8567 0.9716
3.5619 5.5796 -2.8554 0.9716
3.0497 5.8717 -2.8540 0.9716
1.9583 6.3130 -2.8512 0.9716
0.2205 6.5954 -2.8465 0.9717
-0.3672 6.5852 -2.8450 0.9717
-2.0906 6.2442 -2.8404 0.9717
-3.1614 5.7688 -2.8376 0.9718
-4.6208 4.7779 -2.8671 0.9715
-5.9491 3.5237 -2.9826 0.9703
-6.2375 2.9794 -2.9818 0.9703
-6.4766 2.4119 -2.9812 0.9703
-6.8811 0.6149 -2.9801 0.9704
-6.6061 0.0000 -2.9808 0.9714
-6.5800 -0.5880 -2.9809 0.9714
-6.5020 -1.1714 -2.9811 0.9714
-6.3727 -1.7456 -2.9814 0.9714
-5.6885 -3.3693 -2.9832 0.9714
-4.6006 -4.7570 -2.9861 0.9714
-4.1606 -5.1496 -2.9872 0.9714
-3.6873 -5.5018 -2.9885 0.9714
-2.6558 -6.0739 -2.9912 0.9713
-2.1057 -6.2893 -2.9927 0.9713
-1.5383 -6.4550 -2.9942 0.9713
-0.3698 -6.6323 -2.9973 0.9713
0.8128 -6.5997 -3.0004 0.9712
2.5314 -6.1598 -3.0050 0.9712
3.0711 -5.9129 -3.0064 0.9712
4.0744 -5.2794 -3.0091 0.9712
4.9497 -4.4768 -3.0114 0.9711
5.3303 -4.0198 -3.0124 0.9711
6.2078 -2.4706 -3.0147 0.9711
6.4041 -1.9086 -3.0153 0.9711
6.5495 -1.3312 -3.0157 0.9711
6.6425 -0.7431 -3.0159 0.9711
6.6825 -0.1489 -3.0160 0.9711
6.6692 0.4464 -3.0160 0.9711
6.6026 1.0382 -3.0158 0.9711
6.3123 2.1919 -3.0151 0.9711
5.8212 3.2750 -3.0138 0.9711
4.7447 4.6921 -3.0109 0.9711
4.0877 4.8349 -2.8568 0.9726
3.6396 5.1774 -2.8556 0.9726
3.1629 5.4784 -2.8543 0.9726
2.6615 5.7355 -2.8530 0.9726
2.1395 5.9467 -2.8516 0.9726
1.6009 6.1105 -2.8502 0.9727
1.0501 6.2255 -2.8487 0.9727
0.4916 6.2910 -2.8473 0.9727
-0.0703 6.3065 -2.8458 0.9727
-0.6310 6.2720 -2.8443 0.9727
-1.1861 6.1877 -2.8428 0.9727
-1.7312 6.0545 -2.8414 0.9727
-2.7746 5.6461 -2.8386 0.9728
-3.2646 5.3743 -2.8373 0.9728
-3.7283 5.0602 -2.8361 0.9728
-6.2891 2.0280 -2.9816 0.9714
-6.5475 0.8805 -2.9809 0.9714
-6.5996 0.2943 -2.9808 0.9714
-6.5996 -0.2943 -2.9808 0.9714
-6.4437 -1.4600 -2.9812 0.9714
-6.2890 -2.0280 -2.9816 0.9714
-6.0847 -2.5801 -2.9821 0.9714
-5.5335 -3.6198 -2.9836 0.9714
-4.8071 -4.5465 -2.9855 0.9714
-2.3832 -6.1878 -2.9919 0.9713
1.6865 -6.4374 -3.0027 0.9712
3.3322 -5.7715 -3.0071 0.9712
4.3064 -5.0936 -3.0097 0.9712
4.7445 -4.6919 -3.0108 0.9711
5.1451 -4.2525 -3.0119 0.9711
5.5050 -3.7789 -3.0129 0.9711
5.8211 -3.2749 -3.0137 0.9711
6.6692 -0.4464 -3.0160 0.9711
6.6425 0.7431 -3.0159 0.9711
6.5495 1.3313 -3.0157 0.9711
6.2079 2.4707 -3.0148 0.9711
5.3305 4.0199 -3.0125 0.9711
3.8674 5.0112 -2.8562 0.9726
3.4046 5.3332 -2.8550 0.9726
2.9151 5.6125 -2.8537 0.9726
2.4028 5.8469 -2.8523 0.9726
1.8720 6.0346 -2.8509 0.9727
0.7715 6.2645 -2.8480 0.9727
-0.3510 6.2955 -2.8450 0.9727
-1.4602 6.1271 -2.8421 0.9727
-1.9987 5.9698 -2.8407 0.9728
-2.5209 5.7654 -2.8393 0.9728
-5.0041 4.3272 -2.9851 0.9714
-5.3677 3.8634 -2.9841 0.9714
-5.6886 3.3694 -2.9832 0.9714
-6.5021 1.1714 -2.9811 0.9714
-6.3252 0.0000 -2.9815 0.9724
-6.3002 -0.5630 -2.9816 0.9724
-6.2255 -1.1216 -2.9818 0.9724
-5.9295 -2.2082 -2.9826 0.9724
-5.7106 -2.7277 -2.9831 0.9724
-5.4464 -3.2259 -2.9838 0.9724
-4.7909 -4.1429 -2.9856 0.9724
-4.4047 -4.5544 -2.9866 0.9724
-3.5301 -5.2673 -2.9889 0.9723
-2.5425 -5.8148 -2.9915 0.9723
-2.0158 -6.0208 -2.9929 0.9723
-0.9172 -6.2889 -2.9958 0.9723
0.2126 -6.3583 -2.9988 0.9723
1.3379 -6.2260 -3.0018 0.9722
1.8876 -6.0852 -3.0033 0.9722
2.9394 -5.6593 -3.0060 0.9722
3.8995 -5.0528 -3.0086 0.9722
5.1013 -3.8471 -3.0118 0.9721
5.4251 -3.3787 -3.0127 0.9721
5.9409 -2.3644 -3.0140 0.9721
6.1288 -1.8266 -3.0145 0.9721
6.2678 -1.2740 -3.0149 0.9721
6.3568 -0.7111 -3.0152 0.9721
6.3824 0.4272 -3.0152 0.9721
6.3187 0.9936 -3.0151 0.9721
6.2045 1.5519 -3.0148 0.9721
6.0409 2.0977 -3.0143 0.9721
5.8292 2.6265 -3.0138 0.9721
5.2685 3.6166 -3.0123 0.9721
4.9243 4.0700 -3.0114 0.9721
4.0139 4.7477 -2.9306 0.9729
2.5474 5.4896 -2.8527 0.9736
2.0478 5.6919 -2.8514 0.9736
0.4706 6.0218 -2.8472 0.9736
-0.0673 6.0368 -2.8458 0.9737
-0.6040 6.0039 -2.8444 0.9737
-1.1354 5.9233 -2.8429 0.9737
-1.6573 5.7960 -2.8416 0.9737
-2.6562 5.4052 -2.8389 0.9737
-3.1254 5.1451 -2.8377 0.9737
-4.6025 4.3530 -2.9861 0.9724
-5.2981 3.4659 -2.9843 0.9724
-5.5841 2.9798 -2.9835 0.9724
-5.8259 2.4704 -2.9829 0.9724
-6.1697 1.3979 -2.9820 0.9724
-6.2690 0.8431 -2.9817 0.9724
-6.3189 0.2818 -2.9816 0.9724
-6.2690 -0.8431 -2.9817 0.9724
-6.1696 -1.3979 -2.9819 0.9724
-6.0215 -1.9417 -2.9823 0.9724
-5.2980 -3.4658 -2.9842 0.9724
-4.9699 -3.9247 -2.9851 0.9724
-4.6024 -4.3529 -2.9861 0.9724
-4.1982 -4.7470 -2.9871 0.9724
-3.7605 -5.1037 -2.9883 0.9724
-3.2926 -5.4204 -2.9895 0.9723
-2.7983 -5.6944 -2.9908 0.9723
-0.6363 -6.3251 -2.9966 0.9723
-0.0709 -6.3598 -2.9981 0.9723
2.1574 -5.9965 -3.0040 0.9722
2.6838 -5.7833 -3.0054 0.9722
4.1216 -4.8750 -3.0092 0.9722
4.5408 -4.4905 -3.0103 0.9722
4.9241 -4.0699 -3.0113 0.9721
5.2684 -3.6166 -3.0122 0.9721
5.5709 -3.1341 -3.0130 0.9721
5.8291 -2.6264 -3.0137 0.9721
6.2045 -1.5518 -3.0147 0.9721
6.3186 -0.9936 -3.0150 0.9721
6.3823 -0.4272 -3.0152 0.9721
6.3569 0.7111 -3.0152 0.9721
6.2679 1.2740 -3.0149 0.9721
6.1288 1.8266 -3.0146 0.9721
5.9410 2.3645 -3.0141 0.9721
4.7373 4.2846 -3.0109 0.9721
4.3356 4.6876 -3.0098 0.9722
3.7013 4.7961 -2.8558 0.9736
2.2998 5.5963 -2.8521 0.9736
1.7918 5.7761 -2.8507 0.9736
1.2699 5.9098 -2.8493 0.9736
0.7385 5.9964 -2.8479 0.9736
-0.3360 6.0263 -2.8451 0.9737
-1.9134 5.7150 -2.8409 0.9737
-2.4133 5.5194 -2.8396 0.9737
-3.8553 4.7717 -2.8917 0.9732
-5.1391 3.6990 -2.9847 0.9724
-5.9296 2.2082 -2.9826 0.9724
-6.2255 1.1216 -2.9818 0.9724
-6.3002 0.5630 -2.9816 0.9724
-5.9676 -1.0751 -2.9825 0.9733
-5.8489 -1.6022 -2.9828 0.9733
-5.4739 -2.6147 -2.9838 0.9733
-5.2207 -3.0922 -2.9844 0.9733
-4.9260 -3.5455 -2.9852 0.9733
-4.5922 -3.9711 -2.9861 0.9733
-4.2220 -4.3654 -2.9871 0.9733
-2.4368 -5.5732 -2.9918 0.9732
-1.9320 -5.7706 -2.9931 0.9732
-0.8791 -6.0273 -2.9959 0.9732
-0.3393 -6.0845 -2.9973 0.9732
3.2896 -5.1531 -3.0070 0.9731
4.1543 -4.4916 -3.0093 0.9731
5.1982 -3.2374 -3.0121 0.9731
5.4670 -2.7626 -3.0128 0.9731
5.6923 -2.2655 -3.0134 0.9731
5.8723 -1.7501 -3.0139 0.9731
6.0055 -1.2207 -3.0142 0.9731
6.0907 -0.6813 -3.0144 0.9730
6.1274 -0.1365 -3.0145 0.9730
6.1152 0.4094 -3.0145 0.9730
5.7881 2.0099 -3.0137 0.9731
5.0482 3.4654 -3.0117 0.9731
4.7184 3.8998 -3.0108 0.9731
3.9495 4.6715 -3.0088 0.9731
3.3499 4.7653 -2.8651 0.9744
2.4411 5.2605 -2.8524 0.9745
1.9624 5.4545 -2.8512 0.9745
0.9633 5.7107 -2.8485 0.9745
0.4510 5.7710 -2.8471 0.9745
-1.5884 5.5550 -2.8417 0.9746
-2.0756 5.3891 -2.8404 0.9746
-3.0007 4.9398 -2.8428 0.9746
-3.5124 4.7671 -2.9125 0.9739
-4.0241 4.5502 -2.9877 0.9733
-4.7640 3.7621 -2.9857 0.9733
-5.3527 2.8563 -2.9841 0.9733
-5.5845 2.3680 -2.9835 0.9733
-6.0572 0.2701 -2.9822 0.9733
-6.0572 -0.2701 -2.9822 0.9733
-6.0094 -0.8082 -2.9824 0.9733
-5.7721 -1.8612 -2.9830 0.9733
-5.5844 -2.3680 -2.9835 0.9733
-5.3526 -2.8562 -2.9841 0.9733
-4.0240 -4.5500 -2.9876 0.9733
-3.6044 -4.8919 -2.9887 0.9733
-2.6821 -5.4580 -2.9911 0.9733
-2.1866 -5.6775 -2.9925 0.9732
-1.1464 -5.9807 -2.9952 0.9732
-0.6098 -6.0619 -2.9966 0.9732
0.4751 -6.0798 -2.9995 0.9732
2.5718 -5.5420 -3.0051 0.9731
5.7881 -2.0098 -3.0136 0.9731
6.1152 -0.4093 -3.0145 0.9730
6.1274 0.1366 -3.0146 0.9730
6.0908 0.6813 -3.0145 0.9730
6.0055 1.2207 -3.0142 0.9731
5.6924 2.2655 -3.0134 0.9731
4.8881 3.6863 -3.0113 0.9731
4.1544 4.4917 -3.0094 0.9731
2.2039 5.3629 -2.8518 0.9745
1.7170 5.5352 -2.8505 0.9745
1.2170 5.6635 -2.8492 0.9745
0.1934 5.7840 -2.8465 0.9745
-0.3220 5.7755 -2.8451 0.9745
-0.8344 5.7212 -2.8437 0.9746
-1.3397 5.6215 -2.8424 0.9746
-1.8339 5.4775 -2.8411 0.9746
-4.2221 4.3656 -2.9871 0.9733
-4.5924 3.9712 -2.9862 0.9733
-5.2208 3.0923 -2.9845 0.9733
-5.4740 2.6147 -2.9838 0.9733
-5.8489 1.6022 -2.9828 0.9733
-6.0393 0.5397 -2.9823 0.9733
-5.7953 -0.5179 -2.9829 0.9742
-5.4542 -2.0312 -2.9838 0.9742
-4.7268 -3.4022 -2.9857 0.9742
-4.4065 -3.8105 -2.9866 0.9742
-2.3381 -5.3474 -2.9921 0.9741
-0.8434 -5.7828 -2.9960 0.9741
-0.3255 -5.8375 -2.9974 0.9741
1.2300 -5.7240 -3.0015 0.9740
2.2274 -5.4200 -3.0042 0.9740
3.9850 -4.3086 -3.0088 0.9740
4.6887 -3.5360 -3.0107 0.9739
4.9862 -3.1054 -3.0115 0.9739
5.2440 -2.6499 -3.0122 0.9739
5.6327 -1.6787 -3.0132 0.9739
5.8422 -0.6535 -3.0138 0.9739
5.8773 -0.1310 -3.0139 0.9739
5.8656 0.3927 -3.0139 0.9739
5.8071 0.9131 -3.0137 0.9739
5.7023 1.4262 -3.0134 0.9739
5.5520 1.9279 -3.0130 0.9739
5.3574 2.4140 -3.0125 0.9739
4.8424 3.3241 -3.0112 0.9739
3.7886 4.4812 -3.0084 0.9740
3.3332 4.7416 -2.9714 0.9743
2.7828 4.8200 -2.8533 0.9753
1.8825 5.2326 -2.8509 0.9753
1.4087 5.3770 -2.8497 0.9753
0.9241 5.4786 -2.8484 0.9753
0.4326 5.5366 -2.8471 0.9753
-0.0618 5.5506 -2.8458 0.9754
-1.5240 5.3297 -2.8419 0.9754
-1.9915 5.1707 -2.8407 0.9754
-2.4427 4.9708 -2.8395 0.9754
-2.9004 4.7748 -2.8641 0.9752
-3.4586 4.6941 -2.9892 0.9741
-3.8613 4.3660 -2.9881 0.9741
-5.1364 2.7409 -2.9847 0.9742
-5.6752 1.2858 -2.9833 0.9742
-5.8126 0.2592 -2.9829 0.9742
-5.8126 -0.2592 -2.9829 0.9742
-5.5389 -1.7861 -2.9836 0.9742
-5.3588 -2.2723 -2.9841 0.9742
-5.1363 -2.7408 -2.9847 0.9742
-4.8731 -3.1878 -2.9854 0.9742
-4.5712 -3.6099 -2.9861 0.9742
-4.2330 -4.0036 -2.9870 0.9742
-3.8612 -4.3659 -2.9880 0.9741
-3.4585 -4.6939 -2.9891 0.9741
-3.0281 -4.9850 -2.9902 0.9741
-2.5735 -5.2368 -2.9914 0.9741
-1.6056 -5.6150 -2.9940 0.9741
-0.5851 -5.8159 -2.9967 0.9741
-0.0651 -5.8476 -2.9981 0.9741
0.4558 -5.8329 -2.9995 0.9740
1.9833 -5.5126 -3.0035 0.9740
2.9317 -5.0779 -3.0060 0.9740
3.7885 -4.4810 -3.0083 0.9740
4.1737 -4.1275 -3.0093 0.9740
4.5259 -3.7408 -3.0103 0.9740
4.8423 -3.3240 -3.0111 0.9739
5.3574 -2.4139 -3.0125 0.9739
5.7022 -1.4262 -3.0134 0.9739
5.8656 -0.3926 -3.0139 0.9739
5.8422 0.6535 -3.0138 0.9739
5.7604 1.1709 -3.0136 0.9739
5.4601 2.1731 -3.0128 0.9739
5.2441 2.6499 -3.0122 0.9739
4.6889 3.5360 -3.0108 0.9739
3.5846 4.6447 -3.0078 0.9740
2.5648 4.9381 -2.8527 0.9753
1.6472 5.3101 -2.8503 0.9753
0.1855 5.5491 -2.8464 0.9754
-1.2853 5.3936 -2.8425 0.9754
-2.2193 5.0758 -2.8401 0.9754
-2.6612 4.8561 -2.8389 0.9754
-4.0513 4.1890 -2.9876 0.9741
-4.7269 3.4022 -2.9858 0.9742
-5.2528 2.5091 -2.9844 0.9742
-5.4543 2.0312 -2.9839 0.9742
-5.6126 1.5375 -2.9834 0.9742
-5.7266 1.0317 -2.9831 0.9742
-5.7954 0.5179 -2.9829 0.9742
-5.5887 0.0000 -2.9835 0.9750
-5.5006 -0.9910 -2.9837 0.9750
-5.0453 -2.4099 -2.9849 0.9750
-4.2324 -3.6599 -2.9870 0.9749
-3.8910 -4.0233 -2.9879 0.9749
-3.5186 -4.3551 -2.9889 0.9749
-3.1182 -4.6526 -2.9900 0.9749
-1.3005 -5.4571 -2.9948 0.9749
1.6664 -5.3721 -3.0027 0.9748
2.1389 -5.2046 -3.0039 0.9748
3.0302 -4.7467 -3.0063 0.9748
3.4419 -4.4598 -3.0074 0.9748
3.8265 -4.1371 -3.0084 0.9748
4.1808 -3.7813 -3.0094 0.9748
4.5020 -3.3951 -3.0102 0.9748
4.7876 -2.9817 -3.0110 0.9748
5.4082 -1.6118 -3.0126 0.9747
5.5756 0.8767 -3.0131 0.9747
5.4750 1.3694 -3.0128 0.9747
5.3307 1.8511 -3.0125 0.9747
5.1440 2.3178 -3.0120 0.9747
4.9163 2.7659 -3.0114 0.9747
4.6495 3.1917 -3.0107 0.9748
4.3458 3.5919 -3.0099 0.9748
4.0077 3.9633 -3.0090 0.9748
3.2393 4.6080 -3.0069 0.9748
2.7429 4.7508 -2.9285 0.9754
1.8078 5.0247 -2.8507 0.9761
0.8874 5.2612 -2.8483 0.9761
-0.5333 5.3017 -2.8445 0.9761
-1.0027 5.2308 -2.8433 0.9761
-1.4636 5.1187 -2.8421 0.9761
-1.9126 4.9660 -2.8409 0.9762
-2.3511 4.7844 -2.8459 0.9761
-2.8885 4.7551 -2.9701 0.9751
-3.3218 4.5084 -2.9895 0.9749
-4.0659 3.8455 -2.9876 0.9749
-4.9335 2.6326 -2.9852 0.9750
-5.1473 2.1826 -2.9847 0.9750
-5.3203 1.7156 -2.9842 0.9750
-5.4512 1.2351 -2.9839 0.9750
-5.5391 0.7449 -2.9836 0.9750
-5.5391 -0.7449 -2.9836 0.9750
-5.4512 -1.2350 -2.9838 0.9750
-5.3202 -1.7155 -2.9842 0.9750
-5.1472 -2.1826 -2.9846 0.9750
-4.6806 -3.0619 -2.9859 0.9750
-4.3906 -3.4672 -2.9866 0.9750
-4.0658 -3.8454 -2.9875 0.9749
-3.3217 -4.5083 -2.9895 0.9749
-2.9083 -4.7878 -2.9905 0.9749
-2.0150 -5.2317 -2.9929 0.9749
-1.5420 -5.3926 -2.9942 0.9749
-1.0563 -5.5108 -2.9955 0.9749
0.4377 -5.6014 -2.9994 0.9748
0.9349 -5.5427 -3.0007 0.9748
1.4252 -5.4398 -3.0020 0.9748
1.9045 -5.2936 -3.0033 0.9748
3.2392 -4.6078 -3.0068 0.9748
3.6378 -4.3028 -3.0079 0.9748
4.0076 -3.9632 -3.0089 0.9748
4.9162 -2.7658 -3.0113 0.9747
5.4750 -1.3694 -3.0128 0.9747
5.5756 -0.8767 -3.0131 0.9747
5.6093 0.6275 -3.0132 0.9747
5.5308 1.1242 -3.0130 0.9747
5.4083 1.6118 -3.0127 0.9747
5.0351 2.5444 -3.0117 0.9747
4.5021 3.3952 -3.0103 0.9748
4.1809 3.7814 -3.0094 0.9748
1.5818 5.0992 -2.8501 0.9761
1.1212 5.2175 -2.8489 0.9761
0.1782 5.3289 -2.8464 0.9761
-1.2344 5.1799 -2.8427 0.9761
-2.1315 4.8749 -2.8403 0.9762
-3.1183 4.6527 -2.9901 0.9749
-3.8911 4.0234 -2.9880 0.9749
-4.2325 3.6600 -2.9871 0.9749
-4.5402 3.2679 -2.9863 0.9750
-5.0454 2.4100 -2.9849 0.9750
-5.5006 0.9910 -2.9837 0.9750
-5.5666 0.4975 -2.9835 0.9750
-5.3729 0.0000 -2.9841 0.9757
-5.1828 -1.4197 -2.9845 0.9757
-5.0365 -1.8756 -2.9849 0.9757
-4.8504 -2.3168 -2.9854 0.9757
-4.6258 -2.7399 -2.9860 0.9757
-4.0688 -3.5184 -2.9875 0.9757
-3.7405 -3.8677 -2.9883 0.9757
-2.1586 -4.9368 -2.9925 0.9756
-1.2501 -5.2455 -2.9949 0.9756
1.1353 -5.2832 -3.0013 0.9756
1.6017 -5.1633 -3.0025 0.9756
2.0557 -5.0023 -3.0037 0.9756
2.4938 -4.8013 -3.0049 0.9755
2.9123 -4.5620 -3.0060 0.9755
4.6010 -2.8655 -3.0105 0.9755
5.1974 -1.5490 -3.0121 0.9755
5.3152 -1.0803 -3.0124 0.9755
5.3582 0.8426 -3.0125 0.9755
4.4684 3.0674 -3.0102 0.9755
3.4962 4.1354 -3.0076 0.9755
3.1133 4.4287 -3.0066 0.9755
2.7057 4.6865 -3.0055 0.9755
1.3002 4.9629 -2.8494 0.9768
0.8530 5.0568 -2.8482 0.9768
0.3993 5.1105 -2.8470 0.9768
-0.5127 5.0960 -2.8446 0.9768
-1.4069 4.9203 -2.8422 0.9769
-1.8423 4.7834 -2.8469 0.9768
-2.7958 4.6026 -2.9909 0.9757
-3.1933 4.3339 -2.9899 0.9757
-3.5652 4.0312 -2.9889 0.9757
-4.4998 2.9436 -2.9864 0.9757
-4.9484 2.0983 -2.9852 0.9757
-5.1148 1.6493 -2.9848 0.9757
-5.3251 0.7162 -2.9842 0.9757
-5.2406 -1.1874 -2.9844 0.9757
-5.1147 -1.6493 -2.9847 0.9757
-4.7428 -2.5308 -2.9857 0.9757
-4.4997 -2.9436 -2.9863 0.9757
-4.2209 -3.3332 -2.9871 0.9757
-3.9085 -3.6967 -2.9879 0.9757
-3.5651 -4.0311 -2.9888 0.9757
-3.1932 -4.3338 -2.9898 0.9757
-2.7958 -4.6025 -2.9908 0.9757
-2.3759 -4.8348 -2.9920 0.9757
-1.9369 -5.0291 -2.9931 0.9756
-1.4822 -5.1836 -2.9943 0.9756
-1.0154 -5.2971 -2.9956 0.9756
-0.5401 -5.3687 -2.9968 0.9756
-0.0601 -5.3978 -2.9981 0.9756
0.4207 -5.3840 -2.9994 0.9756
0.8986 -5.3274 -3.0006 0.9756
3.4962 -4.1353 -3.0075 0.9755
3.8515 -3.8088 -3.0085 0.9755
4.4683 -3.0673 -3.0101 0.9755
4.7246 -2.6580 -3.0108 0.9755
5.2615 -1.3160 -3.0122 0.9755
5.4122 -0.3623 -3.0126 0.9755
5.3906 0.6030 -3.0126 0.9755
5.3152 1.0804 -3.0124 0.9755
5.1974 1.5490 -3.0121 0.9755
5.0382 2.0052 -3.0117 0.9755
4.8389 2.4452 -3.0112 0.9755
4.3268 3.2630 -3.0098 0.9755
2.9124 4.5621 -3.0061 0.9755
1.9593 4.7676 -2.8628 0.9767
0.1713 5.1221 -2.8464 0.9768
-1.6244 4.8517 -2.8416 0.9769
-2.0849 4.7682 -2.8903 0.9765
-3.3826 4.1867 -2.9894 0.9757
-3.7406 3.8678 -2.9884 0.9757
-4.6259 2.7399 -2.9861 0.9757
-4.8504 2.3169 -2.9855 0.9757
-5.0366 1.8756 -2.9850 0.9757
-5.3516 0.4782 -2.9841 0.9757
-5.1695 0.0000 -2.9846 0.9764
-5.1490 -0.4601 -2.9846 0.9764
-4.8458 -1.8046 -2.9854 0.9764
-4.6667 -2.2291 -2.9859 0.9764
-4.1993 -3.0224 -2.9871 0.9764
-3.2543 -4.0279 -2.9896 0.9764
-2.8838 -4.3029 -2.9906 0.9764
-2.4902 -4.5441 -2.9917 0.9764
-1.6463 -4.9173 -2.9939 0.9763
-1.2026 -5.0463 -2.9951 0.9763
0.6352 -5.1571 -2.9999 0.9763
1.0921 -5.0821 -3.0012 0.9763
1.5407 -4.9667 -3.0023 0.9763
2.3987 -4.6184 -3.0046 0.9762
3.5372 -3.8244 -3.0076 0.9762
4.4254 -2.7562 -3.0100 0.9762
4.8458 -1.9286 -3.0111 0.9762
5.1847 -0.5800 -3.0120 0.9762
5.2055 0.3485 -3.0121 0.9762
4.2978 2.9503 -3.0097 0.9762
3.7047 3.6636 -3.0082 0.9762
2.9945 4.2598 -3.0063 0.9762
2.6026 4.5079 -3.0052 0.9762
2.1903 4.7199 -3.0042 0.9763
1.2519 4.7784 -2.8519 0.9774
-0.9272 4.8370 -2.8435 0.9775
-1.8324 4.7578 -2.9436 0.9767
-2.6898 4.4280 -2.9912 0.9764
-3.7605 3.5567 -2.9884 0.9764
-4.3293 2.8321 -2.9868 0.9764
-4.7610 2.0189 -2.9857 0.9764
-4.9211 1.5869 -2.9853 0.9764
-5.1236 0.6891 -2.9847 0.9764
-5.1644 -0.2303 -2.9846 0.9764
-5.1235 -0.6890 -2.9847 0.9764
-5.0422 -1.1424 -2.9849 0.9764
-4.9211 -1.5868 -2.9852 0.9764
-4.7610 -2.0188 -2.9857 0.9764
-4.3292 -2.8320 -2.9868 0.9764
-4.0610 -3.2069 -2.9875 0.9764
-3.7604 -3.5565 -2.9883 0.9764
-1.4259 -4.9867 -2.9945 0.9763
0.8644 -5.1247 -3.0005 0.9763
1.3177 -5.0294 -3.0018 0.9763
2.1902 -4.7198 -3.0041 0.9763
2.9945 -4.2597 -3.0062 0.9762
3.3628 -3.9776 -3.0072 0.9762
3.7046 -3.6636 -3.0081 0.9762
4.9272 -1.7109 -3.0114 0.9762
5.1535 -0.8104 -3.0120 0.9762
5.2055 -0.3484 -3.0121 0.9762
5.2159 0.1163 -3.0121 0.9762
5.1122 1.0391 -3.0119 0.9762
4.6542 2.3519 -3.0107 0.9762
4.4255 2.7562 -3.0101 0.9762
3.8648 3.4955 -3.0086 0.9762
3.5373 3.8245 -3.0077 0.9762
2.3988 4.6185 -3.0047 0.9762
1.0366 4.8240 -2.8487 0.9775
0.6029 4.8951 -2.8475 0.9775
0.1649 4.9330 -2.8497 0.9775
-0.2744 4.9204 -2.8452 0.9775
-1.5954 4.7651 -2.9012 0.9771
-2.0766 4.7492 -2.9926 0.9763
-2.4903 4.5442 -2.9917 0.9764
-4.4507 2.6362 -2.9865 0.9764
-4.6668 2.2291 -2.9859 0.9764
-5.0880 0.9167 -2.9848 0.9764
