ply
format ascii 1.0
element vertex 1642
property float32 x
property float32 y
property float32 z
property float32 I
end_header
-7.5896 7.1782 6.0312 0.9529
-7.5867 7.1755 5.7997 0.9533
-7.5643 7.1542 5.3377 0.9543
-7.5863 7.1751 5.1359 0.9545
-7.5851 7.1740 4.7108 0.9552
-7.5834 7.1724 4.0966 0.9561
-7.5818 7.1709 3.5062 0.9569
-7.5813 7.1704 3.3140 0.9572
-7.5808 7.1699 3.1238 0.9574
-7.5798 7.1689 2.7491 0.9578
-7.5793 7.1685 2.5642 0.9579
-7.5788 7.1680 2.3809 0.9581
5.7808 -6.2501 1.7948 0.9658
5.5638 -6.5808 1.8168 0.9654
5.1913 -6.7266 1.6443 0.9660
5.5454 -5.9956 1.5804 0.9673
5.3028 -6.2722 1.5895 0.9671
5.8921 -5.8268 1.6036 0.9668
5.0078 -6.4887 1.4453 0.9673
5.4017 -5.8403 1.4027 0.9682
6.1918 -5.6002 1.4721 0.9667
4.8950 -6.3427 1.2758 0.9681
5.3148 -5.7463 1.2464 0.9688
6.0215 -5.4462 1.2929 0.9676
4.8332 -6.8754 1.3383 0.9665
5.6204 -5.5581 1.2587 0.9685
4.8097 -6.2321 1.1197 0.9687
5.9067 -5.3423 1.1328 0.9683
-7.5763 7.1656 1.4833 0.9587
4.9957 -5.9089 1.1006 0.9692
-7.5759 7.1652 1.3067 0.9588
5.4724 -5.4118 0.9645 0.9694
5.7679 -5.2167 0.8436 0.9692
-7.5754 7.1647 1.1310 0.9589
4.5676 -6.4975 0.8615 0.9685
4.6687 -6.0494 0.7005 0.9698
5.0985 -5.5125 0.6884 0.9703
5.7164 -5.1702 0.7066 0.9695
6.9083 -5.2098 0.7933 0.9658
-7.5749 7.1643 0.9559 0.9590
4.8638 -5.7529 0.6906 0.9702
5.3772 -5.3176 0.6933 0.9701
4.4121 -6.9115 0.6145 0.9676
5.0721 -5.4839 0.5598 0.9705
6.7826 -5.1150 0.6366 0.9665
6.1116 -5.0514 0.5942 0.9687
4.3752 -6.8536 0.4736 0.9679
4.6160 -5.9811 0.4400 0.9702
5.6475 -5.1079 0.4435 0.9700
6.6799 -5.0376 0.4873 0.9670
4.3487 -6.8121 0.3360 0.9682
5.0317 -5.4402 0.3081 0.9708
5.6271 -5.0894 0.3155 0.9701
-7.5735 7.1629 0.4334 0.9591
5.3031 -5.2444 0.3101 0.9706
4.5925 -5.9507 0.1875 0.9704
5.6164 -5.0797 0.1889 0.9702
6.6069 -4.9825 0.2064 0.9674
-7.5730 7.1625 0.2599 0.9592
4.7910 -5.6668 0.1851 0.9707
6.0236 -4.9786 0.1949 0.9692
5.6057 -5.0700 0.0628 0.9702
4.7830 -5.6574 0.0616 0.9708
5.2849 -5.2264 0.0618 0.9707
6.0097 -4.9671 0.0648 0.9693
6.5859 -4.9667 -0.0686 0.9675
-7.5721 7.1616 -0.0866 0.9592
5.2849 -5.2263 -0.0618 0.9707
6.0096 -4.9671 -0.0648 0.9693
4.3370 -6.7939 -0.2010 0.9683
4.5925 -5.9506 -0.1875 0.9704
5.0234 -5.4312 -0.1845 0.9708
4.4334 -6.3066 -0.1922 0.9696
5.2939 -5.2353 -0.1857 0.9706
6.0235 -4.9785 -0.1949 0.9692
5.0316 -5.4401 -0.3081 0.9708
5.6270 -5.0893 -0.3155 0.9701
6.6276 -4.9981 -0.3451 0.9673
4.4426 -6.3196 -0.3212 0.9695
4.7988 -5.6761 -0.3091 0.9707
5.0458 -5.4554 -0.4328 0.9707
6.6793 -5.0371 -0.4872 0.9670
4.4610 -6.3459 -0.4518 0.9694
4.8127 -5.6925 -0.4342 0.9706
5.3190 -5.2601 -0.4357 0.9705
6.0666 -5.0142 -0.4584 0.9690
4.4118 -6.9109 -0.6144 0.9676
5.0718 -5.4836 -0.5598 0.9705
5.6814 -5.1385 -0.5741 0.9697
6.7817 -5.1143 -0.6365 0.9665
-7.5702 7.1598 -0.7808 0.9591
4.8379 -5.7223 -0.5615 0.9704
6.1112 -5.0511 -0.5942 0.9687
5.7160 -5.1698 -0.7066 0.9695
6.9064 -5.2083 -0.7930 0.9659
4.8635 -5.7525 -0.6906 0.9702
5.3769 -5.3173 -0.6933 0.9701
4.5582 -7.1403 -0.9188 0.9665
4.7064 -6.0982 -0.8355 0.9695
5.1338 -5.5506 -0.8201 0.9700
-7.5692 7.1589 -1.1300 0.9589
4.5671 -6.4968 -0.8614 0.9686
4.7562 -6.1628 -0.9755 0.9691
-7.5687 7.1585 -1.3055 0.9589
4.6237 -6.5773 -1.0075 0.9681
4.9461 -5.8503 -0.9600 0.9696
6.3226 -5.2257 -1.0279 0.9675
4.8090 -6.2312 -1.1196 0.9687
5.9057 -5.3413 -1.1326 0.9683
-7.5683 7.1580 -1.4817 0.9588
4.9951 -5.9083 -1.1005 0.9692
5.3140 -5.7454 -1.2462 0.9688
5.4008 -5.8393 -1.4025 0.9682
-7.5673 7.1571 -1.8366 0.9586
5.7173 -5.6540 -1.4178 0.9679
9.5049 11.2424 -2.8490 0.9418
8.4655 12.0424 -2.8486 0.9418
7.3592 12.7465 -2.8483 0.9418
6.1947 13.3493 -2.8479 0.9418
4.9813 13.8458 -2.8475 0.9418
3.7287 14.2323 -2.8472 0.9418
2.4468 14.5057 -2.8468 0.9418
-0.1638 14.7056 -2.8460 0.9418
-2.7678 14.4396 -2.8452 0.9419
-6.4818 13.1901 -2.8441 0.9419
-7.6292 12.5594 -2.8437 0.9419
-9.7330 11.0054 -2.8431 0.9419
-11.5280 9.1036 -2.8426 0.9419
-12.2916 8.0408 -2.8424 0.9419
-12.9576 6.9144 -2.8422 0.9419
5.3013 -6.2704 -1.5890 0.9671
5.8904 -5.8251 -1.6031 0.9668
9.9968 10.8084 -2.8491 0.9418
8.9941 11.6540 -2.8488 0.9418
5.5935 13.6111 -2.8477 0.9418
0.4915 14.6993 -2.8462 0.9418
-0.8187 14.6827 -2.8458 0.9418
-2.1220 14.5496 -2.8454 0.9419
-4.6668 13.9391 -2.8446 0.9419
-5.8882 13.4666 -2.8443 0.9419
-8.1806 12.2064 -2.8436 0.9419
-9.2336 11.4286 -2.8433 0.9419
-10.2131 10.5603 -2.8430 0.9419
-11.1115 9.6085 -2.8427 0.9419
-11.9216 8.5807 -2.8425 0.9419
-12.6371 7.4850 -2.8423 0.9419
-13.7625 5.1253 -2.8420 0.9419
-14.1470 -1.2642 -2.9944 0.9436
-13.3118 -4.9573 -2.9947 0.9436
-12.8184 -6.1228 -2.9948 0.9436
-12.2234 -7.2399 -2.9950 0.9436
-11.5313 -8.2997 -2.9953 0.9436
-10.7478 -9.2939 -2.9955 0.9436
-9.8788 -10.2146 -2.9958 0.9436
-8.9313 -11.0544 -2.9961 0.9436
-7.9128 -11.8067 -2.9964 0.9436
-6.8313 -12.4655 -2.9967 0.9435
-5.6954 -13.0256 -2.9971 0.9435
-4.5140 -13.4825 -2.9975 0.9435
0.4753 -14.2173 -2.9990 0.9435
2.9894 -13.9113 -2.9997 0.9435
6.5608 -12.6317 -3.0008 0.9435
7.6599 -11.9990 -3.0011 0.9435
12.7116 -6.4235 -3.0026 0.9434
13.6502 -4.0682 -3.0028 0.9434
14.0709 2.2126 -3.0029 0.9434
10.4175 8.6103 -2.8493 0.9462
9.6089 9.5025 -2.8490 0.9463
8.7241 10.3189 -2.8487 0.9463
7.7702 11.0533 -2.8484 0.9463
6.7548 11.6998 -2.8481 0.9463
-0.1504 13.4988 -2.8460 0.9463
-1.3511 13.4301 -2.8456 0.9463
-2.5408 13.2549 -2.8453 0.9463
-7.0036 11.5295 -2.8439 0.9463
-8.0011 10.8593 -2.8436 0.9464
-8.9350 10.1030 -2.8434 0.9464
-10.5830 8.3574 -2.8429 0.9464
-11.2841 7.3817 -2.8427 0.9464
-12.4127 5.2635 -2.8424 0.9464
-13.8524 3.1385 -2.9944 0.9436
-14.0766 1.8931 -2.9943 0.9436
-14.1892 -0.6327 -2.9943 0.9436
-13.8528 -3.1386 -2.9945 0.9436
-13.0781 -5.5455 -2.9947 0.9436
-12.5333 -6.6879 -2.9949 0.9436
-11.8892 -7.7775 -2.9951 0.9436
-11.1506 -8.8055 -2.9954 0.9436
-10.3235 -9.7639 -2.9956 0.9436
-9.4144 -10.6450 -2.9959 0.9436
-8.4305 -11.4419 -2.9962 0.9436
-7.3794 -12.1482 -2.9966 0.9436
-6.2696 -12.7582 -2.9969 0.9435
-2.6772 -13.9665 -2.9980 0.9435
-0.1585 -14.2235 -2.9988 0.9435
1.1083 -14.1830 -2.9992 0.9435
2.3665 -14.0298 -2.9995 0.9435
7.1174 -12.3276 -3.0010 0.9435
8.1872 -11.6464 -3.0013 0.9435
5.5607 -6.5772 -1.8158 0.9654
10.9762 -9.0721 -3.0021 0.9434
11.7409 -8.0597 -3.0023 0.9434
12.4125 -6.9831 -3.0025 0.9434
13.8181 -3.4561 -3.0029 0.9434
14.0712 -2.2126 -3.0029 0.9434
13.9581 2.8371 -3.0028 0.9434
13.6497 4.0681 -3.0027 0.9434
12.0648 6.0966 -2.8498 0.9462
11.4735 7.1458 -2.8496 0.9462
10.7911 8.1380 -2.8494 0.9462
9.1756 9.9206 -2.8489 0.9463
8.2554 10.6968 -2.8486 0.9463
6.2266 11.9883 -2.8479 0.9463
5.1342 12.4935 -2.8476 0.9463
2.8371 13.2026 -2.8469 0.9463
-4.2840 12.7957 -2.8447 0.9463
-6.4834 11.8307 -2.8441 0.9463
-7.5098 11.2055 -2.8438 0.9463
-10.9444 7.8773 -2.8428 0.9464
-11.6013 6.8715 -2.8426 0.9464
-13.9784 2.5184 -2.9944 0.9436
-14.1469 1.2642 -2.9943 0.9436
-11.8410 -5.6560 -2.9951 0.9476
-11.2913 -6.6878 -2.9953 0.9476
-6.3101 -11.5145 -2.9969 0.9476
-3.0449 -12.7768 -2.9979 0.9475
0.4391 -13.1319 -2.9990 0.9475
2.7611 -12.8490 -2.9997 0.9475
3.8942 -12.5536 -3.0000 0.9475
4.9966 -12.1586 -3.0003 0.9475
7.0747 -11.0823 -3.0009 0.9475
8.0337 -10.4096 -3.0012 0.9475
8.9291 -9.6541 -3.0015 0.9475
9.7537 -8.8217 -3.0017 0.9475
10.5010 -7.9191 -3.0019 0.9475
11.7400 -5.9325 -3.0023 0.9475
12.2220 -4.8642 -3.0024 0.9475
12.6069 -3.7572 -3.0025 0.9475
8.8747 8.7764 -2.8488 0.9501
8.0576 9.5306 -2.8485 0.9501
6.2389 10.8061 -2.8480 0.9501
5.2518 11.3172 -2.8477 0.9501
4.2232 11.7385 -2.8473 0.9501
3.1612 12.0664 -2.8470 0.9501
0.9715 12.4328 -2.8463 0.9501
-0.1389 12.4684 -2.8460 0.9501
-5.4963 11.1846 -2.8444 0.9502
-6.4693 10.6500 -2.8441 0.9502
-7.3908 10.0309 -2.8438 0.9502
-8.2536 9.3325 -2.8436 0.9502
-7.4652 7.0605 -2.3452 0.9587
-10.4236 6.8189 -2.8430 0.9502
-10.9886 5.8637 -2.8428 0.9502
-11.4663 4.8622 -2.8427 0.9502
-13.1074 0.5845 -2.9946 0.9476
-13.1075 -0.5844 -2.9947 0.9476
-13.0036 -1.7488 -2.9947 0.9476
-12.0809 -5.1227 -2.9950 0.9476
-10.9825 -7.1844 -2.9954 0.9476
-10.3003 -8.1340 -2.9956 0.9476
-9.5362 -9.0193 -2.9959 0.9476
-7.7874 -10.5691 -2.9964 0.9476
-6.8165 -11.2214 -2.9967 0.9476
-5.7912 -11.7848 -2.9970 0.9476
-3.6108 -12.6278 -2.9977 0.9475
-2.4728 -12.9005 -2.9981 0.9475
1.0237 -13.1001 -2.9991 0.9475
3.3309 -12.7140 -2.9998 0.9475
8.4899 -10.0419 -3.0013 0.9475
10.1374 -8.3788 -3.0018 0.9475
11.4638 -6.4494 -3.0022 0.9475
12.4268 -4.3150 -3.0025 0.9475
12.7619 -3.1920 -3.0025 0.9475
13.0736 1.4625 -3.0026 0.9475
11.1427 5.6307 -2.8495 0.9501
6.7144 10.5179 -2.8481 0.9501
1.5245 12.3779 -2.8465 0.9501
0.4167 12.4630 -2.8462 0.9501
-0.6942 12.4491 -2.8458 0.9501
-2.8898 12.1260 -2.8452 0.9501
-3.9571 11.8193 -2.8449 0.9501
-4.9929 11.4190 -2.8446 0.9502
-8.6608 8.9552 -2.8435 0.9502
-10.7167 6.3476 -2.8429 0.9502
-11.2386 5.3683 -2.8427 0.9502
-11.9918 -2.1604 -2.9950 0.9510
-7.6612 -9.4824 -2.9964 0.9510
-3.8718 -11.5644 -2.9976 0.9510
-0.6792 -12.1804 -2.9986 0.9510
4.6396 -11.2897 -3.0002 0.9510
5.6265 -10.8330 -3.0005 0.9510
6.5690 -10.2902 -3.0008 0.9510
8.2908 -8.9639 -3.0013 0.9509
9.0564 -8.1910 -3.0015 0.9509
9.7502 -7.3529 -3.0017 0.9509
10.3665 -6.4563 -3.0019 0.9509
10.9006 -5.5083 -3.0020 0.9509
11.7053 -3.4885 -3.0022 0.9509
12.2115 -0.2721 -3.0023 0.9509
12.0660 1.8973 -3.0023 0.9509
11.8489 2.9636 -3.0022 0.9509
8.9336 7.3838 -2.8488 0.9534
8.2403 8.1490 -2.8486 0.9534
7.4816 8.8494 -2.8484 0.9534
6.6637 9.4793 -2.8481 0.9534
5.7930 10.0338 -2.8478 0.9534
3.9214 10.8997 -2.8473 0.9534
1.9263 11.4199 -2.8467 0.9534
0.9021 11.5447 -2.8463 0.9534
-0.1290 11.5779 -2.8460 0.9534
-1.1588 11.5192 -2.8457 0.9534
-3.1822 11.1289 -2.8451 0.9534
-6.0076 9.8898 -2.8443 0.9535
-6.8634 9.3151 -2.8440 0.9535
-7.6646 8.6665 -2.8438 0.9535
-9.0784 7.1692 -2.8434 0.9535
-11.2185 4.7571 -2.9952 0.9510
-11.5970 3.7396 -2.9951 0.9510
-12.1724 -0.5428 -2.9949 0.9510
-11.2190 -4.7572 -2.9953 0.9510
-10.1989 -6.6718 -2.9956 0.9510
-9.5652 -7.5536 -2.9958 0.9510
-8.8556 -8.3756 -2.9961 0.9510
-7.2315 -9.8147 -2.9966 0.9510
-6.3299 -10.4204 -2.9969 0.9510
-4.3829 -11.3799 -2.9975 0.9510
-3.3530 -11.7261 -2.9978 0.9510
-1.2210 -12.1374 -2.9984 0.9510
-0.1359 -12.1993 -2.9988 0.9510
0.9505 -12.1643 -2.9991 0.9510
4.1318 -11.4846 -3.0000 0.9510
8.6822 -8.5860 -3.0014 0.9509
9.4126 -7.7797 -3.0016 0.9509
10.0683 -6.9115 -3.0018 0.9509
11.1353 -5.0173 -3.0021 0.9509
11.5381 -4.0065 -3.0022 0.9509
12.0662 -1.8973 -3.0023 0.9509
12.1873 -0.8158 -3.0023 0.9509
12.2115 0.2721 -3.0023 0.9509
11.7049 3.4885 -3.0021 0.9509
10.3460 5.2281 -2.8493 0.9534
9.2540 6.9788 -2.8489 0.9534
8.5955 7.7742 -2.8487 0.9534
6.2345 9.7662 -2.8480 0.9534
5.3400 10.2814 -2.8477 0.9534
4.4033 10.7148 -2.8474 0.9534
0.3869 11.5728 -2.8462 0.9534
-0.6446 11.5601 -2.8459 0.9534
-1.6707 11.4555 -2.8456 0.9534
-3.6746 10.9755 -2.8450 0.9534
-5.5613 10.1481 -2.8444 0.9535
-8.7503 7.5668 -2.8435 0.9535
-9.9521 5.8947 -2.8431 0.9535
-11.4190 4.2525 -2.9951 0.9510
-11.3219 -1.0117 -2.9952 0.9541
-11.1871 -2.0155 -2.9953 0.9541
-10.9637 -3.0032 -2.9953 0.9541
-10.6532 -3.9673 -2.9955 0.9541
-9.7819 -5.7938 -2.9957 0.9541
-8.6008 -7.4374 -2.9961 0.9541
-6.3318 -9.4477 -2.9968 0.9540
-5.4663 -9.9746 -2.9971 0.9540
-4.5572 -10.4226 -2.9974 0.9540
-2.6376 -11.0676 -2.9980 0.9540
-0.6336 -11.3622 -2.9986 0.9540
1.3913 -11.2968 -2.9992 0.9540
3.3729 -10.8733 -2.9998 0.9540
4.3277 -10.5310 -3.0001 0.9540
6.1275 -9.5985 -3.0006 0.9540
6.9580 -9.0157 -3.0009 0.9540
7.7334 -8.3613 -3.0011 0.9540
8.4475 -7.6403 -3.0013 0.9540
9.6694 -6.0222 -3.0016 0.9540
10.1676 -5.1378 -3.0018 0.9540
10.5849 -4.2127 -3.0019 0.9540
11.3903 -0.2538 -3.0021 0.9540
11.3676 0.7610 -3.0021 0.9540
11.2546 1.7697 -3.0020 0.9540
11.0521 2.7644 -3.0019 0.9540
8.9135 6.1188 -2.8488 0.9563
6.9787 8.2545 -2.8482 0.9563
5.4037 9.3595 -2.8477 0.9563
4.5488 9.8023 -2.8475 0.9563
2.7382 10.4515 -2.8469 0.9563
1.7969 10.6527 -2.8466 0.9563
-0.1203 10.8003 -2.8460 0.9563
-1.0810 10.7456 -2.8457 0.9563
-6.4027 8.6898 -2.8442 0.9563
-7.4213 7.0190 -2.6916 0.9586
-9.5198 5.0800 -2.8433 0.9563
-10.4657 4.4378 -2.9954 0.9541
-10.8188 3.4886 -2.9953 0.9541
-11.0861 2.5118 -2.9952 0.9541
-11.2655 1.5151 -2.9952 0.9541
-11.3557 -0.5063 -2.9952 0.9541
-11.2657 -1.5151 -2.9952 0.9541
-11.0864 -2.5119 -2.9953 0.9541
-10.8192 -3.4887 -2.9954 0.9541
-9.5144 -6.2240 -2.9958 0.9541
-8.9233 -7.0466 -2.9960 0.9541
-7.5336 -8.5184 -2.9965 0.9540
-6.7461 -9.1558 -2.9967 0.9540
-5.9049 -9.7208 -2.9970 0.9540
-4.0886 -10.6157 -2.9975 0.9540
-3.1278 -10.9386 -2.9978 0.9540
-1.1390 -11.3221 -2.9984 0.9540
-0.1268 -11.3797 -2.9988 0.9540
1.8933 -11.2242 -2.9994 0.9540
4.7928 -10.3282 -3.0002 0.9540
5.6935 -9.8615 -3.0005 0.9540
7.3530 -8.6971 -3.0010 0.9540
8.7798 -7.2566 -3.0014 0.9540
9.9284 -5.5856 -3.0017 0.9540
10.3865 -4.6799 -3.0018 0.9540
11.0524 -2.7644 -3.0020 0.9540
11.2548 -1.7697 -3.0021 0.9540
11.3677 -0.7609 -3.0021 0.9540
11.3223 1.2666 -3.0020 0.9540
9.6503 4.8765 -2.8491 0.9563
8.0176 7.2515 -2.8486 0.9563
7.3398 7.9358 -2.8483 0.9563
4.1074 9.9947 -2.8473 0.9563
1.3205 10.7216 -2.8465 0.9563
0.3609 10.7954 -2.8462 0.9563
-0.6013 10.7836 -2.8459 0.9563
-1.5585 10.6862 -2.8456 0.9563
-3.4279 10.2386 -2.8450 0.9563
-4.3251 9.8919 -2.8448 0.9563
-5.1879 9.4668 -2.8445 0.9563
-6.7831 8.3956 -2.8441 0.9563
-7.5029 7.7580 -2.8438 0.9563
-8.7584 6.3040 -2.8435 0.9563
-11.1869 2.0154 -2.9952 0.9541
-10.4779 -1.8876 -2.9955 0.9567
-9.6079 -4.5892 -2.9958 0.9567
-9.1617 -5.4265 -2.9959 0.9567
-5.1195 -9.3419 -2.9972 0.9567
-2.4702 -10.3654 -2.9980 0.9567
-0.5933 -10.6411 -2.9986 0.9567
1.3030 -10.5797 -2.9992 0.9567
2.2397 -10.4228 -2.9995 0.9567
3.1588 -10.1830 -2.9997 0.9567
4.0530 -9.8623 -3.0000 0.9567
4.9151 -9.4632 -3.0003 0.9567
5.7383 -8.9889 -3.0005 0.9567
6.5161 -8.4431 -3.0007 0.9567
8.5169 -6.4229 -3.0013 0.9566
10.6666 -0.2377 -3.0019 0.9566
10.6454 0.7127 -3.0018 0.9566
10.3500 2.5887 -3.0017 0.9566
10.0782 3.4995 -3.0016 0.9566
8.8247 4.9647 -2.8488 0.9588
7.1982 7.1184 -2.8483 0.9588
2.5644 9.7880 -2.8469 0.9588
1.6828 9.9765 -2.8466 0.9588
0.7881 10.0857 -2.8463 0.9588
-1.0124 10.0637 -2.8458 0.9588
-1.9039 9.9327 -2.8455 0.9588
-2.7802 9.7230 -2.8452 0.9588
-4.4593 9.0744 -2.8447 0.9589
-5.9966 8.1387 -2.8443 0.9589
-7.3436 6.9455 -2.8439 0.9589
-8.4578 5.5328 -2.8436 0.9589
-8.9817 4.7928 -2.8643 0.9586
-10.1329 3.2675 -2.9955 0.9567
-10.3833 2.3526 -2.9954 0.9567
-10.5513 1.4191 -2.9954 0.9567
-10.6358 -0.4742 -2.9954 0.9567
-8.3574 -6.5997 -2.9962 0.9567
-6.3182 -8.5751 -2.9968 0.9567
-4.6985 -9.5611 -2.9973 0.9567
-3.8292 -9.9422 -2.9976 0.9567
-2.9294 -10.2445 -2.9979 0.9567
-0.1187 -10.6575 -2.9987 0.9567
1.7731 -10.5117 -2.9993 0.9567
6.1333 -8.7247 -3.0006 0.9567
7.5841 -7.5001 -3.0010 0.9566
8.2221 -6.7957 -3.0012 0.9566
8.7948 -6.0372 -3.0014 0.9566
9.2976 -5.2307 -3.0015 0.9566
9.7267 -4.3826 -3.0016 0.9566
10.3502 -2.5887 -3.0018 0.9566
10.6455 -0.7126 -3.0019 0.9566
10.6030 1.1861 -3.0018 0.9566
10.4551 2.1252 -3.0018 0.9566
8.0835 6.0961 -2.8486 0.9588
6.8737 7.4318 -2.8482 0.9588
6.1844 8.0134 -2.8480 0.9588
4.6649 8.9815 -2.8475 0.9588
1.2367 10.0411 -2.8465 0.9588
0.3380 10.1104 -2.8462 0.9588
-1.4596 10.0082 -2.8456 0.9588
-4.8589 8.8664 -2.8446 0.9589
-5.6283 8.3980 -2.8444 0.9589
-7.6455 6.6113 -2.8438 0.9589
-8.2031 5.9043 -2.8437 0.9589
-9.6074 4.5891 -2.9957 0.9567
-9.9774 3.7157 -2.9956 0.9567
-10.2683 2.8128 -2.9955 0.9567
-10.4777 1.8877 -2.9954 0.9567
-10.6040 0.9476 -2.9954 0.9567
-9.6509 -2.6437 -2.9957 0.9591
-9.3776 -3.4923 -2.9958 0.9591
-8.1229 -5.8465 -2.9963 0.9591
-7.5708 -6.5467 -2.9964 0.9591
-6.2909 -7.7863 -2.9968 0.9591
-4.0112 -9.1739 -2.9975 0.9591
-2.3215 -9.7414 -2.9981 0.9590
0.3347 -10.0113 -2.9989 0.9590
2.9686 -9.5697 -2.9997 0.9590
6.1236 -7.9345 -3.0006 0.9590
7.4343 -6.7239 -3.0010 0.9590
8.0037 -6.0359 -3.0011 0.9590
8.5096 -5.2998 -3.0013 0.9590
8.9479 -4.5215 -3.0014 0.9590
10.0038 0.6697 -3.0017 0.9590
9.4708 3.2887 -3.0015 0.9590
12.3791 6.9644 -4.2523 0.9424
7.8444 5.3849 -2.8485 0.9611
7.3335 6.0613 -2.8484 0.9611
6.1418 7.2646 -2.8480 0.9611
5.4705 7.7819 -2.8478 0.9611
4.7557 8.2372 -2.8476 0.9611
1.5815 9.3758 -2.8466 0.9611
-0.1059 9.5060 -2.8461 0.9611
-3.4155 8.8682 -2.8451 0.9611
-4.9330 8.1208 -2.8446 0.9611
-5.6358 7.6490 -2.8444 0.9611
-7.4550 5.8872 -2.8439 0.9611
-7.9490 5.2000 -2.8437 0.9611
-8.8286 4.7111 -2.9959 0.9591
-9.2126 3.9065 -2.9958 0.9591
-9.5235 3.0709 -2.9957 0.9591
-9.9167 1.3337 -2.9956 0.9591
-9.9961 0.4458 -2.9956 0.9591
-9.9961 -0.4457 -2.9956 0.9591
-9.9169 -1.3336 -2.9956 0.9591
-9.7590 -2.2111 -2.9957 0.9591
-8.8290 -4.7113 -2.9960 0.9591
-8.3751 -5.4787 -2.9962 0.9591
-7.2718 -6.8776 -2.9965 0.9591
-5.9380 -8.0591 -2.9969 0.9591
-4.4157 -8.9857 -2.9974 0.9591
-3.5987 -9.3438 -2.9977 0.9591
-2.7530 -9.6279 -2.9979 0.9591
2.5392 -9.6921 -2.9995 0.9590
5.7638 -8.1991 -3.0005 0.9590
6.4712 -7.6541 -3.0007 0.9590
7.1272 -7.0482 -3.0009 0.9590
7.7267 -6.3862 -3.0011 0.9590
8.2648 -5.6735 -3.0012 0.9590
8.7374 -4.9155 -3.0013 0.9590
9.9045 -1.5574 -3.0017 0.9590
10.0238 0.2234 -3.0017 0.9590
9.8251 1.9971 -3.0016 0.9590
9.3148 3.7072 -3.0014 0.9590
8.0767 5.0302 -2.8486 0.9610
7.5965 5.7288 -2.8485 0.9611
6.4596 6.9840 -2.8481 0.9611
5.1182 8.0175 -2.8477 0.9611
1.9977 9.2965 -2.8467 0.9611
1.1622 9.4365 -2.8464 0.9611
0.3177 9.5017 -2.8462 0.9611
-0.5292 9.4914 -2.8459 0.9611
-1.3718 9.4058 -2.8457 0.9611
-2.2033 9.2455 -2.8454 0.9611
-3.0172 9.0120 -2.8452 0.9611
-4.5665 8.3329 -2.8447 0.9611
-5.9707 7.3901 -2.8443 0.9611
-6.6044 6.8289 -2.8441 0.9611
-9.8475 1.7741 -2.9956 0.9591
-9.9663 0.8906 -2.9956 0.9591
-9.2837 -1.6725 -2.9958 0.9612
-9.0982 -2.4922 -2.9959 0.9612
-8.8406 -3.2922 -2.9960 0.9612
-8.5128 -4.0662 -2.9961 0.9612
-8.1174 -4.8079 -2.9962 0.9612
-7.6577 -5.5116 -2.9964 0.9612
-6.5599 -6.7828 -2.9967 0.9612
-5.9305 -7.3403 -2.9969 0.9612
-2.9969 -8.9512 -2.9979 0.9612
-2.1885 -9.1831 -2.9981 0.9612
-1.3625 -9.3422 -2.9984 0.9612
-0.5257 -9.4273 -2.9986 0.9611
0.3155 -9.4374 -2.9989 0.9611
2.7983 -9.0210 -2.9996 0.9611
3.5904 -8.7368 -2.9998 0.9611
5.0834 -7.9629 -3.0003 0.9611
6.4155 -6.9364 -3.0007 0.9611
8.7807 -3.4946 -3.0013 0.9611
9.0571 -2.6993 -3.0014 0.9611
9.4487 -0.2105 -3.0015 0.9611
9.4299 0.6313 -3.0015 0.9611
9.3361 1.4681 -3.0014 0.9611
9.1682 2.2932 -3.0014 0.9611
11.6689 6.5648 -4.2521 0.9454
5.7896 6.8480 -2.8479 0.9631
4.4830 7.7649 -2.8475 0.9631
3.7738 8.1324 -2.8473 0.9631
0.6982 8.9352 -2.8463 0.9631
-0.0998 8.9611 -2.8461 0.9631
-1.6868 8.7999 -2.8456 0.9631
-2.4631 8.6142 -2.8454 0.9631
-5.3129 7.2108 -2.8445 0.9631
-5.9333 6.7089 -2.8443 0.9631
-7.0280 5.5500 -2.8440 0.9631
-7.4938 4.9022 -2.8439 0.9631
-8.6850 3.6828 -2.9959 0.9612
-9.1999 2.0845 -2.9958 0.9612
-9.3488 1.2573 -2.9958 0.9612
-9.2001 -2.0845 -2.9959 0.9612
-7.4047 -5.8474 -2.9965 0.9612
-6.2514 -7.0686 -2.9968 0.9612
-5.5978 -7.5974 -2.9970 0.9612
-4.8998 -8.0661 -2.9973 0.9612
-4.1627 -8.4708 -2.9975 0.9612
-0.9451 -9.3941 -2.9985 0.9611
0.7357 -9.4144 -2.9990 0.9611
1.5708 -9.3123 -2.9992 0.9611
3.1976 -8.8877 -2.9997 0.9611
3.9762 -8.5685 -3.0000 0.9611
7.2834 -6.0199 -3.0009 0.9611
7.7907 -5.3480 -3.0011 0.9611
8.2361 -4.6335 -3.0012 0.9611
8.6161 -3.8822 -3.0013 0.9611
9.3362 -1.4680 -3.0015 0.9611
9.4299 -0.6312 -3.0015 0.9611
9.2614 1.8825 -3.0014 0.9611
8.7804 3.4945 -3.0012 0.9611
11.9500 6.0386 -4.2522 0.9454
11.3646 7.0779 -4.2520 0.9454
6.0891 6.5835 -2.8480 0.9631
5.4786 7.0988 -2.8478 0.9631
4.8247 7.5577 -2.8476 0.9631
2.6559 8.5618 -2.8469 0.9631
1.8832 8.7635 -2.8467 0.9631
-0.4989 8.9474 -2.8460 0.9631
-1.2932 8.8667 -2.8457 0.9631
-2.0770 8.7157 -2.8455 0.9631
-2.8443 8.4955 -2.8452 0.9631
-3.5889 8.2080 -2.8450 0.9631
-4.3049 7.8554 -2.8448 0.9631
-7.2681 5.2313 -2.8440 0.9631
-8.0507 4.7684 -2.9716 0.9615
-8.8403 3.2922 -2.9959 0.9612
-9.0980 2.4922 -2.9958 0.9612
-8.8816 -0.7937 -2.9959 0.9631
-8.6005 -2.3559 -2.9961 0.9631
-7.2386 -5.2100 -2.9965 0.9631
-6.7465 -5.8339 -2.9967 0.9631
-6.2009 -6.4116 -2.9968 0.9631
-5.6059 -6.9385 -2.9970 0.9631
-2.8328 -8.4611 -2.9979 0.9630
-2.0686 -8.6804 -2.9981 0.9630
-1.2879 -8.8307 -2.9984 0.9630
2.6451 -8.5269 -2.9996 0.9630
3.3938 -8.2582 -2.9998 0.9630
5.4561 -7.0696 -3.0004 0.9630
6.0640 -6.5563 -3.0006 0.9630
6.6238 -5.9909 -3.0007 0.9630
7.5818 -4.7219 -3.0010 0.9630
7.9723 -4.0286 -3.0011 0.9630
8.2994 -3.3031 -3.0012 0.9630
8.5607 -2.5513 -3.0013 0.9630
8.8776 -0.9931 -3.0013 0.9630
8.9130 0.5967 -3.0013 0.9630
8.8244 1.3876 -3.0013 0.9630
8.4382 2.9301 -3.0011 0.9630
11.0294 6.2050 -4.2519 0.9480
6.0271 5.9604 -2.8480 0.9649
5.4724 6.4728 -2.8478 0.9649
4.8742 6.9337 -2.8476 0.9649
0.6600 8.4459 -2.8463 0.9649
-0.8478 8.4278 -2.8459 0.9649
-1.5945 8.3182 -2.8456 0.9649
-4.3959 7.2366 -2.8448 0.9649
-5.0222 6.8162 -2.8446 0.9649
-5.6086 6.3418 -2.8444 0.9649
-6.1504 5.8171 -2.8443 0.9649
-6.6435 5.2463 -2.8441 0.9649
-7.8676 4.1983 -2.9962 0.9631
-8.2098 3.4813 -2.9961 0.9631
-8.6966 1.9704 -2.9960 0.9631
-8.8374 1.1885 -2.9959 0.9631
-8.9081 -0.3972 -2.9959 0.9631
-8.8375 -1.1885 -2.9960 0.9631
-7.4634 -4.8822 -2.9964 0.9631
-6.9995 -5.5275 -2.9966 0.9631
-6.4801 -6.1288 -2.9968 0.9631
-3.9348 -8.0072 -2.9976 0.9631
-1.6800 -8.7642 -2.9982 0.9630
-0.8933 -8.8797 -2.9985 0.9630
-0.0994 -8.9247 -2.9987 0.9630
1.4848 -8.8023 -2.9992 0.9630
2.2625 -8.6359 -2.9994 0.9630
3.0224 -8.4009 -2.9997 0.9630
3.7584 -8.0991 -2.9999 0.9630
5.7658 -6.8197 -3.0005 0.9630
6.3502 -6.2799 -3.0006 0.9630
8.1440 -3.6695 -3.0012 0.9630
8.4385 -2.9301 -3.0012 0.9630
8.6659 -2.1675 -3.0013 0.9630
8.8246 -1.3876 -3.0013 0.9630
8.9131 -0.5966 -3.0013 0.9630
8.9308 0.1991 -3.0013 0.9630
8.8776 0.9931 -3.0013 0.9630
8.5605 2.5513 -3.0012 0.9630
8.2992 3.3030 -3.0011 0.9630
7.9720 4.0284 -3.0010 0.9630
10.7418 6.6901 -4.2518 0.9480
6.7684 5.1043 -2.8482 0.9649
6.2868 5.6862 -2.8481 0.9649
5.7555 6.2228 -2.8479 0.9649
5.1784 6.7099 -2.8477 0.9649
4.5604 7.1437 -2.8475 0.9649
2.5104 8.0929 -2.8469 0.9649
1.0356 8.4085 -2.8464 0.9649
0.2831 8.4666 -2.8462 0.9649
-0.4716 8.4575 -2.8460 0.9649
-1.9633 8.2385 -2.8455 0.9649
-4.0693 7.4255 -2.8449 0.9649
-5.8854 6.0854 -2.8444 0.9649
-8.3566 3.1121 -2.9961 0.9631
-8.7757 1.5810 -2.9959 0.9631
-8.8815 0.7937 -2.9959 0.9631
-8.4495 0.0000 -2.9961 0.9648
-8.4160 -0.7520 -2.9961 0.9648
-8.3158 -1.4981 -2.9961 0.9648
-8.1496 -2.2324 -2.9962 0.9648
-7.6251 -3.6422 -2.9964 0.9648
-7.2710 -4.3066 -2.9965 0.9648
-6.8591 -4.9368 -2.9966 0.9648
-1.9601 -8.2250 -2.9982 0.9648
-1.2204 -8.3675 -2.9984 0.9647
0.2826 -8.4526 -2.9988 0.9647
1.0339 -8.3945 -2.9991 0.9647
1.7771 -8.2698 -2.9993 0.9647
2.5062 -8.0794 -2.9995 0.9647
3.2156 -7.8248 -2.9997 0.9647
3.8996 -7.5080 -2.9999 0.9647
4.5527 -7.1316 -3.0001 0.9647
6.2761 -5.6763 -3.0006 0.9647
6.7567 -5.0954 -3.0008 0.9647
7.1837 -4.4740 -3.0009 0.9647
7.5537 -3.8170 -3.0010 0.9647
7.8636 -3.1296 -3.0011 0.9647
8.3611 1.3147 -3.0011 0.9647
7.9951 2.7763 -3.0010 0.9647
6.8487 4.7015 -2.9456 0.9654
5.7107 5.6475 -2.8479 0.9665
5.1851 6.1330 -2.8477 0.9665
4.6184 6.5697 -2.8475 0.9665
3.3799 7.2835 -2.8472 0.9665
2.7180 7.5549 -2.8469 0.9665
2.0347 7.7663 -2.8467 0.9665
0.6253 8.0028 -2.8463 0.9665
-1.5108 7.8818 -2.8457 0.9665
-2.2062 7.7155 -2.8455 0.9665
-2.8839 7.4880 -2.8452 0.9665
-4.1653 6.8571 -2.8449 0.9665
-5.8280 5.5121 -2.8444 0.9665
-6.2951 4.9712 -2.8443 0.9665
-7.7794 3.2988 -2.9962 0.9648
-8.0420 2.5932 -2.9962 0.9648
-8.2407 1.8671 -2.9961 0.9648
-8.3741 1.1262 -2.9961 0.9648
-8.3742 -1.1262 -2.9961 0.9648
-8.2409 -1.8671 -2.9962 0.9648
-6.1404 -5.8075 -2.9969 0.9648
-5.5994 -6.3313 -2.9970 0.9648
-4.3887 -7.2247 -2.9974 0.9648
-3.7285 -7.5872 -2.9976 0.9648
-3.0386 -7.8895 -2.9978 0.9648
-1.5918 -8.3045 -2.9983 0.9648
-0.0942 -8.4564 -2.9987 0.9647
1.4069 -8.3404 -2.9992 0.9647
2.8638 -7.9600 -2.9996 0.9647
4.8660 -6.9219 -3.0002 0.9647
5.4631 -6.4617 -3.0004 0.9647
6.0168 -5.9501 -3.0005 0.9647
6.5229 -5.3912 -3.0007 0.9647
7.7163 -3.4768 -3.0010 0.9647
7.9953 -2.7763 -3.0011 0.9647
8.4450 -0.5653 -3.0012 0.9647
8.4114 0.9410 -3.0012 0.9647
7.5534 3.8169 -3.0009 0.9647
7.1834 4.4739 -3.0007 0.9647
6.4130 4.8363 -2.8481 0.9665
4.9066 6.3577 -2.8476 0.9665
3.7011 7.1260 -2.8473 0.9665
2.3787 7.6682 -2.8468 0.9665
0.9813 7.9672 -2.8464 0.9665
-1.8604 7.8064 -2.8456 0.9665
-2.5476 7.6093 -2.8453 0.9665
-3.8559 7.0361 -2.8450 0.9665
-5.5768 5.7664 -2.8445 0.9665
-6.0676 5.2469 -2.8443 0.9665
-6.6344 4.7752 -2.8985 0.9659
-7.2707 4.3064 -2.9964 0.9648
-7.6249 3.6421 -2.9963 0.9648
-7.9185 2.9489 -2.9962 0.9648
-8.3157 1.4982 -2.9961 0.9648
-8.4159 0.7521 -2.9961 0.9648
-6.9047 -4.0896 -2.9966 0.9663
-6.0707 -5.2495 -2.9969 0.9663
-5.5797 -5.7693 -2.9970 0.9663
-4.4689 -6.6679 -2.9974 0.9663
-3.2162 -7.3556 -2.9978 0.9663
-2.5489 -7.6132 -2.9980 0.9663
-1.8613 -7.8104 -2.9982 0.9663
-0.4471 -8.0178 -2.9986 0.9663
0.2684 -8.0264 -2.9988 0.9663
1.6875 -7.8528 -2.9993 0.9663
4.3230 -6.7719 -3.0000 0.9663
6.4159 -4.8384 -3.0006 0.9663
6.8213 -4.2483 -3.0008 0.9663
7.1726 -3.6244 -3.0009 0.9663
7.4669 -2.9718 -3.0009 0.9663
7.7019 -2.2954 -3.0010 0.9663
7.9871 -0.8935 -3.0011 0.9663
7.9392 1.2484 -3.0010 0.9663
7.7965 1.9501 -3.0010 0.9663
7.5918 2.6362 -3.0009 0.9663
7.3268 3.3013 -3.0008 0.9663
6.6249 4.5477 -3.0006 0.9663
5.8787 4.8589 -2.8479 0.9680
5.4227 5.3626 -2.8478 0.9680
4.9236 5.8236 -2.8476 0.9680
3.8125 6.6035 -2.8473 0.9680
3.2094 6.9162 -2.8471 0.9680
2.5810 7.1739 -2.8469 0.9680
0.5938 7.5993 -2.8463 0.9680
-0.7629 7.5831 -2.8459 0.9680
-3.3604 6.8382 -2.8451 0.9680
-5.0467 5.7064 -2.8446 0.9680
-6.7155 4.3931 -2.9965 0.9663
-7.3875 3.1326 -2.9963 0.9663
-7.8256 1.7731 -2.9962 0.9663
-7.9523 1.0695 -2.9962 0.9663
-8.0159 -0.3574 -2.9962 0.9663
-7.9524 -1.0695 -2.9962 0.9663
-7.8257 -1.7730 -2.9963 0.9663
-7.6370 -2.4626 -2.9964 0.9663
-6.7158 -4.3932 -2.9967 0.9663
-6.2984 -4.9738 -2.9968 0.9663
-5.8310 -5.5149 -2.9969 0.9663
-3.5406 -7.2048 -2.9977 0.9663
-2.2073 -7.7195 -2.9981 0.9663
-0.8038 -7.9897 -2.9985 0.9663
-0.0895 -8.0301 -2.9987 0.9663
0.6257 -8.0068 -2.9989 0.9663
2.7194 -7.5586 -2.9996 0.9663
7.0039 -3.9404 -3.0008 0.9663
7.5920 -2.6362 -3.0010 0.9663
7.9393 -1.2484 -3.0011 0.9663
7.8757 1.6008 -3.0010 0.9663
7.4667 2.9717 -3.0009 0.9663
7.1723 3.6244 -3.0008 0.9663
6.8210 4.2482 -3.0006 0.9663
6.2443 4.7091 -2.9204 0.9672
5.6563 5.1159 -2.8479 0.9680
5.1782 5.5987 -2.8477 0.9680
4.6591 6.0370 -2.8476 0.9680
4.1031 6.4273 -2.8474 0.9680
3.5145 6.7666 -2.8472 0.9680
1.6016 7.4532 -2.8466 0.9680
0.2547 7.6179 -2.8462 0.9680
-0.4243 7.6098 -2.8460 0.9680
-1.7666 7.4129 -2.8456 0.9680
-2.4192 7.2258 -2.8454 0.9680
-3.0525 6.9813 -2.8452 0.9680
-3.6616 6.6815 -2.8450 0.9680
-4.7876 5.9258 -2.8447 0.9680
-5.2958 5.4758 -2.8445 0.9680
-5.7619 4.9825 -2.8444 0.9680
-6.5132 4.6880 -2.9966 0.9663
-7.7389 2.1199 -2.9963 0.9663
-7.8968 1.4227 -2.9962 0.9663
-7.9920 0.7142 -2.9962 0.9663
-7.6345 0.0000 -2.9963 0.9677
-7.3635 -2.0171 -2.9964 0.9677
-7.1549 -2.6645 -2.9965 0.9677
-6.8896 -3.2909 -2.9966 0.9677
-6.5696 -3.8911 -2.9967 0.9677
-6.1974 -4.4606 -2.9968 0.9677
-4.7994 -5.9403 -2.9973 0.9677
-3.0601 -6.9985 -2.9978 0.9677
-1.1026 -7.5598 -2.9984 0.9677
-0.4254 -7.6284 -2.9986 0.9677
0.2553 -7.6366 -2.9988 0.9677
1.6055 -7.4713 -2.9992 0.9677
2.2643 -7.2992 -2.9994 0.9677
5.6699 -5.1281 -3.0004 0.9677
6.4898 -4.0419 -3.0007 0.9677
6.8240 -3.4483 -3.0007 0.9677
7.5989 -0.8500 -3.0009 0.9677
7.6444 -0.1703 -3.0010 0.9677
7.6292 0.5108 -3.0009 0.9677
7.4175 1.8553 -3.0009 0.9677
5.7042 4.7146 -2.9044 0.9687
3.6273 6.2827 -2.8472 0.9693
2.4556 6.8255 -2.8469 0.9693
0.5650 7.2302 -2.8463 0.9693
-0.7258 7.2149 -2.8459 0.9693
-1.3650 7.1212 -2.8457 0.9693
-1.9933 6.9709 -2.8455 0.9693
-4.8018 5.4295 -2.8447 0.9693
-5.2657 4.9803 -2.8446 0.9693
-5.9924 4.7322 -2.9967 0.9677
-6.7360 3.5945 -2.9965 0.9677
-7.0290 2.9806 -2.9965 0.9677
-7.5664 1.0176 -2.9963 0.9677
-7.6269 0.3401 -2.9963 0.9677
-7.6269 -0.3401 -2.9963 0.9677
-7.5665 -1.0176 -2.9964 0.9677
-7.4460 -1.6870 -2.9964 0.9677
-7.2664 -2.3431 -2.9965 0.9677
-6.7363 -3.5946 -2.9966 0.9677
-6.3898 -4.1800 -2.9968 0.9677
-5.9927 -4.7323 -2.9969 0.9677
-5.5480 -5.2472 -2.9970 0.9677
-5.0592 -5.7204 -2.9972 0.9677
-0.0851 -7.6401 -2.9987 0.9677
1.9368 -7.3926 -2.9993 0.9677
2.5873 -7.1914 -2.9995 0.9677
3.2173 -6.9330 -2.9997 0.9677
3.8218 -6.6195 -2.9999 0.9677
5.4357 -5.3755 -3.0004 0.9677
5.8928 -4.8705 -3.0005 0.9677
6.3032 -4.3269 -3.0006 0.9677
6.6635 -3.7488 -3.0007 0.9677
7.2230 -2.5081 -3.0009 0.9677
7.4177 -1.8553 -3.0009 0.9677
7.5535 -1.1877 -3.0009 0.9677
7.6292 -0.5107 -3.0010 0.9677
7.6444 0.1704 -3.0009 0.9677
7.4929 1.5230 -3.0009 0.9677
5.3815 4.8673 -2.8478 0.9693
4.9266 5.3267 -2.8476 0.9693
4.4328 5.7437 -2.8475 0.9693
3.9037 6.1151 -2.8473 0.9693
3.3437 6.4379 -2.8472 0.9693
2.7573 6.7096 -2.8470 0.9693
1.5238 7.0912 -2.8466 0.9693
0.2423 7.2480 -2.8462 0.9693
-0.4037 7.2403 -2.8460 0.9693
-2.3018 6.8750 -2.8454 0.9693
-2.9043 6.6424 -2.8453 0.9693
-3.4838 6.3572 -2.8451 0.9693
-4.5553 5.6381 -2.8448 0.9693
-6.5693 3.8911 -2.9966 0.9677
-7.1547 2.6645 -2.9964 0.9677
-7.3634 2.0171 -2.9964 0.9677
-7.5136 1.3537 -2.9963 0.9677
-7.6042 0.6796 -2.9963 0.9677
-7.2767 0.0000 -2.9964 0.9690
-7.2479 -0.6476 -2.9964 0.9690
-7.1616 -1.2902 -2.9965 0.9690
-7.0184 -1.9226 -2.9965 0.9690
-6.5667 -3.1366 -2.9967 0.9690
-6.2617 -3.7088 -2.9968 0.9690
-5.9069 -4.2515 -2.9969 0.9690
-5.5053 -4.7606 -2.9970 0.9690
-3.4985 -6.3839 -2.9977 0.9690
-2.9166 -6.6704 -2.9978 0.9690
-2.3115 -6.9039 -2.9980 0.9690
-1.6879 -7.0828 -2.9982 0.9690
-0.4054 -7.2707 -2.9986 0.9690
0.2433 -7.2784 -2.9988 0.9690
0.8903 -7.2284 -2.9990 0.9690
2.1581 -6.9569 -2.9994 0.9690
2.7689 -6.7376 -2.9996 0.9690
3.3577 -6.4648 -2.9997 0.9690
4.9472 -5.3488 -3.0002 0.9690
5.4039 -4.8875 -3.0003 0.9690
5.8177 -4.3872 -3.0005 0.9690
7.1414 -1.4515 -3.0008 0.9690
7.2712 0.4868 -3.0008 0.9690
7.0695 1.7682 -3.0007 0.9690
6.8839 2.3904 -3.0007 0.9690
6.0072 4.1237 -3.0004 0.9690
1.7520 6.6874 -2.8467 0.9705
-0.6918 6.8766 -2.8459 0.9705
-1.8998 6.6441 -2.8456 0.9705
-5.0481 4.7745 -2.8612 0.9704
-5.7116 4.5104 -2.9968 0.9690
-6.4203 3.4260 -2.9966 0.9690
-6.6996 2.8409 -2.9966 0.9690
-7.0969 1.6080 -2.9965 0.9690
-7.2118 0.9699 -2.9964 0.9690
-7.2119 -0.9699 -2.9965 0.9690
-6.9259 -2.2333 -2.9966 0.9690
-6.6998 -2.8410 -2.9966 0.9690
-6.4206 -3.4261 -2.9967 0.9690
-6.0904 -3.9841 -2.9968 0.9690
-5.2879 -5.0012 -2.9971 0.9690
-3.2107 -6.5337 -2.9978 0.9690
-2.6166 -6.7939 -2.9979 0.9690
-2.0017 -7.0003 -2.9981 0.9690
-0.7289 -7.2452 -2.9985 0.9690
-0.0811 -7.2818 -2.9987 0.9690
1.2114 -7.1818 -2.9991 0.9690
2.4659 -6.8540 -2.9995 0.9690
5.1807 -5.1232 -3.0003 0.9690
5.6163 -4.6420 -3.0004 0.9690
6.0074 -4.1238 -3.0005 0.9690
6.6438 -2.9935 -3.0007 0.9690
7.0696 -1.7682 -3.0008 0.9690
7.1990 -1.1320 -3.0008 0.9690
7.2856 0.1624 -3.0008 0.9690
6.9836 2.0814 -3.0007 0.9690
6.1850 3.8521 -3.0005 0.9690
5.2169 4.7185 -2.8965 0.9700
3.7206 5.8282 -2.8473 0.9705
2.6280 6.3948 -2.8469 0.9705
1.4523 6.7586 -2.8466 0.9705
0.8450 6.8605 -2.8464 0.9705
0.2310 6.9081 -2.8462 0.9705
-1.6020 6.7224 -2.8456 0.9705
-2.7682 6.3311 -2.8453 0.9706
-3.3205 6.0592 -2.8451 0.9706
-3.8464 5.7393 -2.8450 0.9706
-5.9067 4.2514 -2.9968 0.9690
-6.5665 3.1366 -2.9966 0.9690
-6.8195 2.5396 -2.9965 0.9690
-7.2479 0.6477 -2.9964 0.9690
-6.9192 -0.6183 -2.9965 0.9702
-6.8368 -1.2317 -2.9966 0.9702
-6.5103 -2.4245 -2.9967 0.9702
-6.2689 -2.9944 -2.9968 0.9702
-5.9777 -3.5406 -2.9969 0.9702
-5.2556 -4.5446 -2.9971 0.9702
-4.8305 -4.9946 -2.9972 0.9702
-4.3670 -5.4050 -2.9974 0.9702
-3.8687 -5.7725 -2.9975 0.9702
-2.2066 -6.5907 -2.9981 0.9702
-1.6113 -6.7613 -2.9982 0.9702
-1.0032 -6.8784 -2.9984 0.9702
0.2323 -6.9481 -2.9988 0.9702
1.4607 -6.7977 -2.9992 0.9702
2.0601 -6.6411 -2.9994 0.9702
2.6432 -6.4317 -2.9995 0.9702
4.2491 -5.5057 -3.0000 0.9702
4.7225 -5.1059 -3.0001 0.9702
5.1585 -4.6655 -3.0003 0.9702
6.6666 -1.9869 -3.0007 0.9702
6.8170 -1.3856 -3.0007 0.9702
6.9134 -0.7734 -3.0007 0.9702
6.8720 1.0806 -3.0007 0.9702
6.7484 1.6879 -3.0007 0.9702
6.5713 2.2818 -3.0006 0.9702
6.3419 2.8576 -3.0005 0.9702
6.0622 3.4105 -3.0004 0.9702
5.7344 3.9365 -3.0003 0.9702
5.3611 4.4311 -3.0002 0.9702
4.2619 5.0410 -2.8475 0.9717
3.7961 5.4000 -2.8473 0.9717
3.3002 5.7162 -2.8471 0.9717
2.7782 5.9869 -2.8470 0.9717
1.6725 6.3838 -2.8466 0.9717
1.0976 6.5070 -2.8465 0.9717
0.5140 6.5784 -2.8463 0.9717
-0.0735 6.5977 -2.8461 0.9717
-1.2420 6.4793 -2.8458 0.9717
-1.8136 6.3427 -2.8456 0.9717
-2.9091 5.9199 -2.8453 0.9717
-3.4243 5.6372 -2.8451 0.9717
-5.4525 4.3058 -2.9969 0.9702
-6.1292 3.2706 -2.9967 0.9702
-6.3958 2.7121 -2.9967 0.9702
-6.6117 2.1320 -2.9966 0.9702
-6.8848 0.9260 -2.9965 0.9702
-6.9398 -0.3095 -2.9965 0.9702
-6.3959 -2.7121 -2.9967 0.9702
-6.1294 -3.2707 -2.9968 0.9702
-4.6033 -5.2050 -2.9973 0.9702
-3.0651 -6.2372 -2.9978 0.9702
-2.4979 -6.4857 -2.9980 0.9702
-1.3086 -6.8266 -2.9983 0.9702
-0.0774 -6.9513 -2.9987 0.9702
1.1564 -6.8558 -2.9991 0.9702
2.9271 -6.3078 -2.9996 0.9702
3.4771 -6.0225 -2.9998 0.9702
3.9996 -5.6894 -2.9999 0.9702
4.9454 -4.8906 -3.0002 0.9702
5.7346 -3.9366 -3.0004 0.9702
6.0624 -3.4107 -3.0005 0.9702
6.5714 -2.2818 -3.0007 0.9702
6.7485 -1.6879 -3.0007 0.9702
6.4630 2.5722 -3.0006 0.9702
6.2082 3.1371 -3.0005 0.9702
5.9042 3.6772 -3.0004 0.9702
5.5533 4.1879 -3.0003 0.9702
5.1582 4.6654 -3.0001 0.9702
4.4823 4.8463 -2.8475 0.9717
4.0330 5.2257 -2.8474 0.9717
3.5517 5.5637 -2.8472 0.9717
1.9553 6.3032 -2.8467 0.9717
0.8066 6.5492 -2.8464 0.9717
0.2205 6.5946 -2.8462 0.9717
-0.3673 6.5876 -2.8460 0.9717
-2.6426 6.0438 -2.8453 0.9717
-3.6719 5.4789 -2.8450 0.9717
-4.6150 4.7719 -2.8636 0.9715
-5.6388 4.0586 -2.9969 0.9702
-5.9775 3.5405 -2.9968 0.9702
-6.2687 2.9943 -2.9967 0.9702
-6.7000 1.8354 -2.9966 0.9702
-6.8367 1.2317 -2.9965 0.9702
-6.9192 0.6183 -2.9965 0.9702
-6.6412 0.0000 -2.9966 0.9713
-6.5361 -1.1775 -2.9967 0.9713
-6.4054 -1.7546 -2.9967 0.9713
-5.0244 -4.3447 -2.9972 0.9713
-4.6180 -4.7749 -2.9973 0.9713
-4.1748 -5.1672 -2.9974 0.9713
-3.6985 -5.5186 -2.9976 0.9713
-3.1928 -5.8262 -2.9977 0.9713
-2.6617 -6.0876 -2.9979 0.9713
-2.1095 -6.3007 -2.9981 0.9713
-1.5404 -6.4638 -2.9983 0.9713
-0.9590 -6.5756 -2.9984 0.9713
-0.3700 -6.6353 -2.9986 0.9713
0.2221 -6.6423 -2.9988 0.9713
1.3964 -6.4984 -2.9991 0.9713
1.9694 -6.3487 -2.9993 0.9713
4.0620 -5.2633 -2.9999 0.9712
5.3089 -4.0036 -3.0003 0.9712
5.6444 -3.5153 -3.0004 0.9712
5.9350 -2.9991 -3.0005 0.9712
6.1785 -2.4590 -3.0005 0.9712
6.3730 -1.8993 -3.0006 0.9712
6.6352 0.4442 -3.0006 0.9712
6.5693 1.0330 -3.0006 0.9712
6.4512 1.6136 -3.0006 0.9712
3.1549 5.4645 -2.8471 0.9727
1.5989 6.1029 -2.8466 0.9727
-0.6313 6.2756 -2.8459 0.9727
-1.7338 6.0635 -2.8456 0.9727
-2.2665 5.8849 -2.8455 0.9727
-3.2736 5.3892 -2.8452 0.9727
-3.7401 5.0762 -2.8450 0.9727
-5.8596 3.1268 -2.9968 0.9713
-6.1145 2.5928 -2.9967 0.9713
-6.4771 1.4675 -2.9966 0.9713
-6.5819 0.8852 -2.9966 0.9713
-6.3210 -2.0382 -2.9967 0.9713
-5.8597 -3.1268 -2.9969 0.9713
-5.5584 -3.6361 -2.9970 0.9713
-5.2129 -4.1165 -2.9971 0.9713
-4.8260 -4.5643 -2.9972 0.9713
-4.4008 -4.9760 -2.9974 0.9713
-3.9406 -5.3482 -2.9975 0.9713
-3.4491 -5.6780 -2.9977 0.9713
-1.8268 -6.3886 -2.9982 0.9713
-1.2510 -6.5262 -2.9983 0.9713
0.5178 -6.6260 -2.9989 0.9713
1.6846 -6.4300 -2.9992 0.9713
2.7983 -6.0301 -2.9996 0.9712
3.3240 -5.7574 -2.9997 0.9712
5.1252 -4.2361 -3.0002 0.9712
5.4821 -3.7632 -3.0003 0.9712
6.4513 -1.6136 -3.0006 0.9712
6.5694 -1.0329 -3.0006 0.9712
6.6353 -0.4442 -3.0006 0.9712
6.6485 0.1482 -3.0006 0.9712
6.3729 1.8993 -3.0005 0.9712
6.1784 2.4590 -3.0005 0.9712
5.6442 3.5152 -3.0003 0.9712
5.3087 4.0035 -3.0002 0.9712
4.9311 4.4599 -3.0001 0.9712
4.3670 4.7215 -2.9020 0.9722
3.3953 5.3187 -2.8472 0.9727
2.9083 5.5995 -2.8470 0.9727
0.7711 6.2610 -2.8464 0.9727
0.2108 6.3043 -2.8462 0.9727
-1.4620 6.1349 -2.8457 0.9727
-2.0021 5.9801 -2.8455 0.9727
-3.5104 5.2378 -2.8451 0.9727
-4.5938 4.7500 -2.9816 0.9714
-5.0242 4.3446 -2.9970 0.9713
-5.7145 3.3847 -2.9968 0.9713
-6.2238 2.3178 -2.9967 0.9713
-6.5360 1.1776 -2.9966 0.9713
-6.6148 0.5911 -2.9966 0.9713
-6.3573 0.0000 -2.9967 0.9723
-6.3321 -0.5658 -2.9967 0.9723
-5.9579 -2.2188 -2.9969 0.9723
-5.7370 -2.7403 -2.9969 0.9723
-5.1605 -3.7143 -2.9971 0.9723
-4.4205 -4.5708 -2.9974 0.9723
-3.9963 -4.9463 -2.9975 0.9723
-3.5404 -5.2826 -2.9976 0.9723
-3.0563 -5.5771 -2.9978 0.9723
0.7777 -6.3144 -2.9990 0.9723
1.3367 -6.2205 -2.9991 0.9723
2.9331 -5.6472 -2.9996 0.9723
3.4242 -5.3640 -2.9997 0.9723
3.8883 -5.0381 -2.9999 0.9722
4.3214 -4.6722 -3.0000 0.9722
4.7203 -4.2692 -3.0001 0.9722
5.4028 -3.3649 -3.0003 0.9722
5.6810 -2.8707 -3.0004 0.9722
5.9141 -2.3537 -3.0005 0.9722
6.2379 -1.2679 -3.0005 0.9722
6.3261 -0.7077 -3.0006 0.9722
6.3639 -0.1418 -3.0006 0.9722
6.3513 0.4252 -3.0005 0.9722
6.2882 0.9888 -3.0005 0.9722
5.5473 3.1209 -3.0003 0.9722
5.2473 3.6021 -3.0002 0.9722
4.5252 4.4751 -2.9999 0.9722
2.0445 5.6827 -2.8468 0.9736
1.0044 5.9545 -2.8464 0.9737
-0.6043 6.0072 -2.8460 0.9737
-2.6622 5.4175 -2.8453 0.9737
-3.1337 5.1588 -2.8452 0.9737
-4.6195 4.3691 -2.9972 0.9723
-4.9898 3.9404 -2.9971 0.9723
-5.3206 3.4806 -2.9970 0.9723
-5.8531 2.4820 -2.9968 0.9723
-6.3510 0.2832 -2.9967 0.9723
-6.3007 -0.8473 -2.9967 0.9723
-6.0508 -1.9511 -2.9968 0.9723
-5.8533 -2.4820 -2.9969 0.9723
-4.9900 -3.9406 -2.9972 0.9723
-2.8049 -5.7078 -2.9979 0.9723
-2.2859 -5.9351 -2.9980 0.9723
-1.1975 -6.2471 -2.9984 0.9723
-0.6367 -6.3292 -2.9985 0.9723
-0.0709 -6.3612 -2.9987 0.9723
1.0582 -6.2736 -2.9990 0.9723
1.6125 -6.1549 -2.9992 0.9723
2.1541 -5.9873 -2.9994 0.9723
2.6785 -5.7721 -2.9995 0.9723
3.1818 -5.5110 -2.9997 0.9723
4.1089 -4.8600 -2.9999 0.9722
4.9059 -4.0548 -3.0002 0.9722
5.2475 -3.6022 -3.0003 0.9722
5.5474 -3.1209 -3.0004 0.9722
5.8033 -2.6148 -3.0004 0.9722
6.1752 -1.5445 -3.0005 0.9722
6.2882 -0.9887 -3.0006 0.9722
6.3513 -0.4251 -3.0006 0.9722
6.3260 0.7077 -3.0005 0.9722
6.2379 1.2679 -3.0005 0.9722
5.9140 2.3537 -3.0004 0.9722
5.6809 2.8707 -3.0003 0.9722
4.7201 4.2691 -3.0000 0.9722
4.3212 4.6721 -2.9999 0.9722
2.2956 5.5861 -2.8468 0.9736
1.7892 5.7680 -2.8467 0.9736
1.2687 5.9040 -2.8465 0.9736
0.7381 5.9932 -2.8464 0.9737
-0.3361 6.0284 -2.8460 0.9737
-1.3995 5.8726 -2.8457 0.9737
-1.9165 5.7244 -2.8456 0.9737
-2.4183 5.5308 -2.8454 0.9737
-3.3603 5.0139 -2.8451 0.9737
-3.8489 4.7639 -2.8869 0.9733
-4.4203 4.5706 -2.9972 0.9723
-5.7368 2.7403 -2.9969 0.9723
-6.1316 1.6796 -2.9967 0.9723
-6.2567 1.1272 -2.9967 0.9723
-6.0928 0.0000 -2.9968 0.9732
-5.8765 -1.6097 -2.9969 0.9732
-5.7100 -2.1264 -2.9969 0.9732
-5.2428 -3.1053 -2.9971 0.9732
-4.6095 -3.9859 -2.9973 0.9732
-3.3931 -5.0628 -2.9977 0.9732
-2.9291 -5.3449 -2.9978 0.9732
-2.4419 -5.5847 -2.9980 0.9732
-1.4131 -5.9298 -2.9983 0.9732
1.8067 -5.8241 -2.9993 0.9732
4.1414 -4.4776 -3.0000 0.9732
4.5237 -4.0914 -3.0001 0.9732
5.6677 -2.2557 -3.0004 0.9732
5.8461 -1.7423 -3.0004 0.9732
5.9781 -1.2151 -3.0005 0.9732
6.0625 -0.6781 -3.0005 0.9732
6.0867 0.4075 -3.0005 0.9732
6.0262 0.9476 -3.0004 0.9732
5.9179 1.4802 -3.0004 0.9732
5.5615 2.5059 -3.0003 0.9732
5.3162 2.9908 -3.0002 0.9732
5.0287 3.4521 -3.0001 0.9732
4.7014 3.8858 -3.0000 0.9732
4.3367 4.2887 -2.9999 0.9732
3.3349 4.7440 -2.8522 0.9745
2.8942 5.0129 -2.8470 0.9745
2.4364 5.2503 -2.8469 0.9745
0.4508 5.7693 -2.8463 0.9745
-0.5792 5.7572 -2.8460 0.9745
-1.0892 5.6825 -2.8458 0.9745
-2.0793 5.3987 -2.8455 0.9745
-2.5514 5.1920 -2.8454 0.9745
-3.0033 4.9440 -2.8452 0.9745
-3.5061 4.7585 -2.9072 0.9740
-4.0371 4.5649 -2.9973 0.9732
-4.4272 4.1873 -2.9972 0.9732
-4.7822 3.7765 -2.9971 0.9732
-5.0992 3.3357 -2.9970 0.9732
-5.3757 2.8686 -2.9970 0.9732
-5.7989 1.8699 -2.9968 0.9732
-5.3759 -2.8686 -2.9970 0.9732
-4.7824 -3.7766 -2.9972 0.9732
-4.0373 -4.5650 -2.9975 0.9732
-3.6151 -4.9064 -2.9976 0.9732
-3.1642 -5.2090 -2.9977 0.9732
-2.6882 -5.4702 -2.9979 0.9732
-0.6102 -6.0657 -2.9985 0.9732
1.5454 -5.8986 -2.9992 0.9732
2.0644 -5.7379 -2.9993 0.9732
2.5670 -5.5317 -2.9995 0.9732
3.0493 -5.2815 -2.9996 0.9732
3.5074 -4.9894 -2.9998 0.9732
3.9378 -4.6576 -2.9999 0.9732
4.7015 -3.8859 -3.0001 0.9732
5.0289 -3.4521 -3.0002 0.9732
5.3164 -2.9909 -3.0003 0.9732
5.9180 -1.4802 -3.0004 0.9732
6.0867 -0.4074 -3.0005 0.9732
6.0988 0.1359 -3.0005 0.9732
6.0625 0.6782 -3.0005 0.9732
5.8460 1.7423 -3.0004 0.9732
5.6676 2.2557 -3.0003 0.9732
5.1776 3.2247 -3.0002 0.9732
4.8699 3.6726 -3.0001 0.9732
4.1413 4.4775 -2.9998 0.9732
3.6423 4.7194 -2.9322 0.9738
3.1147 4.8791 -2.8471 0.9745
2.6679 5.1367 -2.8470 0.9745
1.2159 5.6582 -2.8465 0.9745
0.1934 5.7835 -2.8462 0.9745
-0.3221 5.7774 -2.8461 0.9745
-0.8350 5.7255 -2.8459 0.9745
-1.3413 5.6281 -2.8457 0.9745
-1.8368 5.4862 -2.8456 0.9745
-3.2205 4.8053 -2.8452 0.9745
-4.2364 4.3804 -2.9973 0.9732
-5.4981 2.6263 -2.9969 0.9732
-5.7099 2.1264 -2.9969 0.9732
-5.8764 1.6098 -2.9968 0.9732
-5.9963 1.0804 -2.9968 0.9732
-5.8456 0.0000 -2.9969 0.9741
-5.6381 -1.5444 -2.9969 0.9741
-5.4783 -2.0401 -2.9970 0.9741
-5.2751 -2.5197 -2.9971 0.9741
-4.7451 -3.4153 -2.9972 0.9741
-4.0646 -4.2028 -2.9975 0.9741
-3.6746 -4.5480 -2.9976 0.9741
-2.8102 -5.1279 -2.9979 0.9741
-1.3558 -5.6891 -2.9983 0.9741
-0.8441 -5.7875 -2.9985 0.9741
0.7150 -5.8058 -2.9989 0.9740
1.7333 -5.5876 -2.9992 0.9740
3.1483 -4.9318 -2.9997 0.9740
3.5750 -4.6321 -2.9998 0.9740
3.9732 -4.2958 -2.9999 0.9740
4.6722 -3.5235 -3.0001 0.9740
4.9674 -3.0937 -3.0002 0.9740
5.6086 -1.6715 -3.0004 0.9740
5.7352 -1.1657 -3.0004 0.9740
5.8162 -0.6506 -3.0004 0.9740
5.8511 -0.1304 -3.0004 0.9740
5.8394 0.3909 -3.0004 0.9740
5.6775 1.4201 -3.0003 0.9740
5.5285 1.9197 -3.0003 0.9740
4.8245 3.3118 -3.0000 0.9740
3.3157 4.7166 -2.9558 0.9744
2.7766 4.8093 -2.8470 0.9753
2.3375 5.0371 -2.8469 0.9753
1.8798 5.2249 -2.8467 0.9753
1.4072 5.3712 -2.8466 0.9754
-1.0450 5.4518 -2.8458 0.9754
-2.8951 4.7659 -2.8588 0.9752
-4.5881 3.6232 -2.9972 0.9741
-4.8923 3.2004 -2.9971 0.9741
-5.1576 2.7522 -2.9970 0.9741
-5.3819 2.2822 -2.9970 0.9741
-5.7011 1.2918 -2.9969 0.9741
-5.8398 0.2604 -2.9969 0.9741
-5.8398 -0.2604 -2.9969 0.9741
-5.5637 -1.7940 -2.9970 0.9741
-5.1577 -2.7522 -2.9971 0.9741
-4.2477 -4.0174 -2.9974 0.9741
-3.8734 -4.3797 -2.9975 0.9741
-3.4684 -4.7073 -2.9976 0.9741
-2.1018 -5.4572 -2.9981 0.9741
-1.6078 -5.6229 -2.9982 0.9741
-1.1010 -5.7440 -2.9984 0.9741
-0.5854 -5.8195 -2.9985 0.9741
1.9805 -5.5049 -2.9993 0.9740
2.4627 -5.3071 -2.9995 0.9740
3.3650 -4.7867 -2.9997 0.9740
4.1607 -4.1146 -3.0000 0.9740
4.5106 -3.7281 -3.0001 0.9740
4.8246 -3.3119 -3.0001 0.9740
5.1004 -2.8694 -3.0002 0.9740
5.7815 -0.9091 -3.0004 0.9740
5.8394 -0.3909 -3.0004 0.9740
5.8162 0.6507 -3.0004 0.9740
5.4374 2.1641 -3.0002 0.9740
4.9673 3.0937 -3.0001 0.9740
3.9730 4.2956 -2.9998 0.9740
2.1107 5.1361 -2.8468 0.9753
0.6787 5.5104 -2.8464 0.9754
-0.3091 5.5429 -2.8461 0.9754
-0.8011 5.4931 -2.8459 0.9754
-1.7622 5.2635 -2.8456 0.9754
-2.2236 5.0855 -2.8455 0.9754
-2.6673 4.8672 -2.8454 0.9754
-3.1849 4.7522 -2.9329 0.9746
-4.0645 4.2026 -2.9973 0.9741
-4.7449 3.4152 -2.9971 0.9741
-5.0299 2.9792 -2.9971 0.9741
-5.2750 2.5197 -2.9970 0.9741
-5.4782 2.0402 -2.9969 0.9741
-5.7530 1.0365 -2.9969 0.9741
-5.6139 0.0000 -2.9969 0.9749
-5.5916 -0.4997 -2.9969 0.9749
-5.5250 -0.9954 -2.9970 0.9749
-5.4146 -1.4832 -2.9970 0.9749
-5.2611 -1.9593 -2.9971 0.9749
-4.8306 -2.8612 -2.9972 0.9749
-4.2471 -3.6726 -2.9974 0.9749
-3.9035 -4.0361 -2.9975 0.9749
-3.5289 -4.3677 -2.9976 0.9749
-2.6988 -4.9246 -2.9979 0.9749
-0.8106 -5.5579 -2.9985 0.9749
0.1877 -5.6142 -2.9988 0.9749
1.6645 -5.3659 -2.9992 0.9748
2.5898 -4.9862 -2.9995 0.9748
3.0234 -4.7361 -2.9996 0.9748
3.4331 -4.4484 -2.9997 0.9748
3.8156 -4.1253 -2.9998 0.9748
4.4868 -3.3837 -3.0000 0.9748
5.5076 -1.1194 -3.0003 0.9748
5.5854 -0.6248 -3.0003 0.9748
5.6077 0.3754 -3.0003 0.9748
5.5520 0.8730 -3.0003 0.9748
5.4522 1.3637 -3.0003 0.9748
5.3091 1.8435 -3.0002 0.9748
4.6330 3.1804 -3.0000 0.9748
3.9955 3.9512 -2.9998 0.9748
3.2313 4.5966 -2.9995 0.9748
2.7292 4.7272 -2.9140 0.9756
2.2447 4.8373 -2.8468 0.9761
0.8869 5.2577 -2.8464 0.9761
0.4153 5.3155 -2.8463 0.9761
-0.5336 5.3044 -2.8460 0.9761
-2.3509 4.7837 -2.8454 0.9761
-3.7197 4.2060 -2.9974 0.9749
-4.0792 3.8581 -2.9973 0.9749
-4.6983 3.0735 -2.9972 0.9749
-4.9531 2.6431 -2.9971 0.9749
-5.1686 2.1917 -2.9970 0.9749
-5.5638 0.7483 -2.9969 0.9749
-5.6083 -0.2501 -2.9969 0.9749
-5.5638 -0.7482 -2.9970 0.9749
-5.3432 -1.7229 -2.9970 0.9749
-5.1687 -2.1917 -2.9971 0.9749
-4.9532 -2.6431 -2.9972 0.9749
-4.4064 -3.4796 -2.9973 0.9749
-2.9154 -4.7994 -2.9978 0.9749
-2.0184 -5.2408 -2.9981 0.9749
-1.5441 -5.3999 -2.9982 0.9749
1.4238 -5.4346 -2.9991 0.9748
2.8094 -4.8660 -2.9996 0.9748
3.6279 -4.2911 -2.9998 0.9748
3.9956 -3.9513 -2.9999 0.9748
4.3316 -3.5802 -3.0000 0.9748
5.1239 -2.3087 -3.0002 0.9748
5.3092 -1.8435 -3.0003 0.9748
5.6189 0.1252 -3.0003 0.9748
5.5075 1.1195 -3.0003 0.9748
5.0158 2.5346 -3.0001 0.9748
4.7702 2.9709 -3.0000 0.9748
4.4867 3.3836 -2.9999 0.9748
4.1676 3.7694 -2.9998 0.9748
1.5798 5.0929 -2.8466 0.9761
1.1202 5.2131 -2.8465 0.9761
0.6517 5.2919 -2.8464 0.9761
0.1782 5.3286 -2.8462 0.9761
-0.2968 5.3230 -2.8461 0.9761
-1.2358 5.1855 -2.8458 0.9761
-1.6923 5.0547 -2.8456 0.9761
-2.6065 4.7564 -2.8954 0.9757
-3.1261 4.6645 -2.9976 0.9749
-3.5287 4.3676 -2.9975 0.9749
-3.9033 4.0361 -2.9974 0.9749
-4.2469 3.6725 -2.9973 0.9749
-4.8305 2.8611 -2.9971 0.9749
-5.2610 1.9593 -2.9970 0.9749
-5.3961 0.0000 -2.9970 0.9756
-4.3802 -3.1526 -2.9973 0.9756
-3.7521 -3.8796 -2.9975 0.9756
-3.3920 -4.1983 -2.9977 0.9756
-2.1626 -4.9459 -2.9980 0.9756
-1.7138 -5.1190 -2.9982 0.9756
0.1804 -5.3963 -2.9988 0.9756
0.6600 -5.3590 -2.9989 0.9756
1.5999 -5.1576 -2.9992 0.9756
2.0527 -4.9950 -2.9993 0.9756
3.6674 -3.9652 -2.9998 0.9756
4.5851 -2.8556 -3.0001 0.9756
4.8212 -2.4362 -3.0001 0.9756
5.2938 -1.0760 -3.0003 0.9756
5.3685 -0.6005 -3.0003 0.9756
5.3900 0.3609 -3.0003 0.9756
4.7077 2.6486 -3.0000 0.9756
3.4870 4.1244 -2.9996 0.9756
2.1962 4.7328 -2.8978 0.9764
1.7351 4.8229 -2.8467 0.9768
1.2989 4.9579 -2.8466 0.9768
0.3992 5.1092 -2.8463 0.9768
-0.5129 5.0986 -2.8460 0.9768
-1.4086 4.9264 -2.8457 0.9768
-1.8414 4.7812 -2.8456 0.9768
-3.9209 3.7084 -2.9974 0.9756
-4.2353 3.3446 -2.9973 0.9756
-4.7610 2.5406 -2.9972 0.9756
-4.9681 2.1067 -2.9971 0.9756
-5.1358 1.6561 -2.9970 0.9756
-5.2628 1.1924 -2.9970 0.9756
-5.3908 -0.2403 -2.9970 0.9756
-5.3480 -0.7192 -2.9970 0.9756
-4.9682 -2.1067 -2.9972 0.9756
-4.5162 -2.9544 -2.9973 0.9756
-4.2355 -3.3447 -2.9974 0.9756
-3.9211 -3.7085 -2.9975 0.9756
-1.4842 -5.1904 -2.9983 0.9756
-1.0163 -5.3021 -2.9984 0.9756
-0.0601 -5.3988 -2.9987 0.9756
0.4206 -5.3830 -2.9988 0.9756
2.2732 -4.8987 -2.9994 0.9756
3.4871 -4.1245 -2.9997 0.9756
4.4533 -3.0570 -3.0000 0.9756
4.7078 -2.6486 -3.0001 0.9756
4.9250 -2.2191 -3.0002 0.9756
5.1030 -1.7719 -3.0002 0.9756
5.2405 -1.3107 -3.0002 0.9756
5.3685 0.6006 -3.0002 0.9756
5.2937 1.0760 -3.0002 0.9756
4.8211 2.4362 -3.0001 0.9756
4.5850 2.8556 -3.0000 0.9756
4.0058 3.6231 -2.9998 0.9756
3.6673 3.9651 -2.9997 0.9756
2.9060 4.5521 -2.9994 0.9756
2.4520 4.7210 -2.9546 0.9760
1.9521 4.7502 -2.8523 0.9768
1.5185 4.8953 -2.8466 0.9768
0.1712 5.1218 -2.8462 0.9768
-1.6267 4.8586 -2.8457 0.9768
-2.0796 4.7561 -2.8830 0.9765
-2.5940 4.7334 -2.9978 0.9756
-3.0048 4.4836 -2.9977 0.9756
-4.6431 2.7502 -2.9972 0.9756
-4.8694 2.3260 -2.9971 0.9756
-5.0570 1.8833 -2.9971 0.9756
-5.2045 1.4257 -2.9970 0.9756
-5.3107 0.9568 -2.9970 0.9756
-5.3747 0.4803 -2.9970 0.9756
-5.1911 0.0000 -2.9971 0.9763
-5.1089 -0.9204 -2.9971 0.9763
-5.0067 -1.3715 -2.9971 0.9763
-4.8649 -1.8117 -2.9972 0.9763
-4.6844 -2.2375 -2.9972 0.9763
-4.2137 -3.0328 -2.9974 0.9763
-3.9271 -3.3959 -2.9975 0.9763
-2.8907 -4.3132 -2.9978 0.9763
-2.4955 -4.5536 -2.9979 0.9763
-1.6487 -4.9243 -2.9982 0.9763
-0.7495 -5.1391 -2.9985 0.9763
0.1736 -5.1911 -2.9988 0.9763
0.6349 -5.1553 -2.9989 0.9763
2.7955 -4.3791 -2.9995 0.9763
3.5279 -3.8144 -2.9998 0.9763
3.8535 -3.4853 -2.9998 0.9763
4.4107 -2.7470 -3.0000 0.9763
4.6378 -2.3435 -3.0001 0.9763
4.8280 -1.9215 -3.0001 0.9763
4.9800 -1.4842 -3.0002 0.9763
5.0923 -1.0350 -3.0002 0.9763
5.1643 -0.5777 -3.0002 0.9763
5.0411 1.2609 -3.0001 0.9763
4.9088 1.7046 -3.0001 0.9763
4.7375 2.1346 -3.0000 0.9763
4.5286 2.5478 -3.0000 0.9763
4.0049 3.3102 -2.9998 0.9763
3.3543 3.9675 -2.9996 0.9763
2.9878 4.2502 -2.9995 0.9763
2.1867 4.7122 -2.9992 0.9763
1.7031 4.7339 -2.9046 0.9770
0.8200 4.8615 -2.8464 0.9775
0.3840 4.9149 -2.8463 0.9775
-0.0549 4.9294 -2.8461 0.9775
-0.4934 4.9047 -2.8460 0.9775
-0.9280 4.8411 -2.8459 0.9775
-4.0743 3.2175 -2.9973 0.9763
-4.3444 2.8420 -2.9973 0.9763
-4.5800 2.4440 -2.9972 0.9763
-4.7793 2.0267 -2.9972 0.9763
-5.0628 1.1471 -2.9971 0.9763
-5.1447 0.6919 -2.9971 0.9763
-5.1448 -0.6919 -2.9971 0.9763
-5.0628 -1.1471 -2.9971 0.9763
-4.9407 -1.5932 -2.9972 0.9763
-4.7794 -2.0266 -2.9972 0.9763
-4.5801 -2.4440 -2.9973 0.9763
-3.7720 -3.5676 -2.9975 0.9763
-3.0799 -4.1801 -2.9978 0.9763
-2.2902 -4.6603 -2.9980 0.9763
-0.9777 -5.1005 -2.9984 0.9763
-0.5199 -5.1675 -2.9985 0.9763
-0.0579 -5.1935 -2.9987 0.9763
0.4046 -5.1783 -2.9988 0.9763
1.7586 -4.8881 -2.9992 0.9763
2.5976 -4.4992 -2.9995 0.9763
3.3544 -3.9676 -2.9997 0.9763
4.5287 -2.5478 -3.0000 0.9763
5.1849 -0.3471 -3.0002 0.9763
5.1952 0.1158 -3.0002 0.9763
5.1643 0.5777 -3.0002 0.9763
4.9799 1.4842 -3.0001 0.9763
4.8280 1.9215 -3.0001 0.9763
4.1485 3.1285 -2.9998 0.9763
3.8534 3.4852 -2.9997 0.9763
2.7954 4.3789 -2.9994 0.9763
2.3945 4.6102 -2.9993 0.9763
1.9416 4.7245 -2.9490 0.9767
1.0358 4.8202 -2.8465 0.9775
-0.7114 4.8778 -2.8459 0.9775
-1.5909 4.7519 -2.8932 0.9771
-2.0713 4.7372 -2.9850 0.9764
-2.8906 4.3131 -2.9977 0.9763
-3.9270 3.3958 -2.9974 0.9763
-4.2136 3.0328 -2.9973 0.9763
-4.6843 2.2375 -2.9972 0.9763
-5.0067 1.3715 -2.9971 0.9763
-5.1088 0.9204 -2.9971 0.9763
-5.1705 0.4621 -2.9971 0.9763
