ply
format ascii 1.0
element vertex 1629
property float32 x
property float32 y
property float32 z
property float32 I
end_header
-3.6023 7.3305 1.5806 0.9673
-3.5986 7.3230 1.4387 0.9674
-3.5949 7.3155 1.2980 0.9675
9.5834 -6.5787 1.8510 0.9540
9.5676 -5.9588 1.6032 0.9555
-3.5913 7.3081 1.1582 0.9676
10.2788 -5.7828 1.6775 0.9535
8.8917 -6.7056 1.3956 0.9561
9.3470 -5.8214 1.3799 0.9566
-3.5877 7.3007 1.0194 0.9677
9.1269 -7.5436 1.4838 0.9534
9.0398 -6.2055 1.3741 0.9568
9.8706 -5.5531 1.4193 0.9554
8.7325 -6.5855 1.1863 0.9569
9.1972 -5.7281 1.1752 0.9573
-3.5841 7.2934 0.8815 0.9678
8.7861 -7.2619 1.2364 0.9552
8.9024 -6.1111 1.1712 0.9575
9.6683 -5.4393 1.2033 0.9563
8.6328 -6.5103 0.9913 0.9575
9.0960 -5.6651 0.9824 0.9579
9.5396 -5.3669 1.0035 0.9570
8.5473 -6.4458 0.8023 0.9580
9.0094 -5.6111 0.7954 0.9583
10.1099 -5.1088 0.8489 0.9556
-3.5769 7.2789 0.6078 0.9680
8.7280 -5.9914 0.7934 0.9584
8.7334 -7.8989 0.6859 0.9539
8.4987 -6.4092 0.6200 0.9582
8.9624 -5.5818 0.6150 0.9586
9.9897 -5.0480 0.6519 0.9561
8.4359 -6.9725 0.6374 0.9571
9.3719 -5.2726 0.6263 0.9578
8.5984 -7.7768 0.4821 0.9546
8.4525 -6.3744 0.4402 0.9585
9.9067 -5.0061 0.4615 0.9565
-3.5699 7.2645 0.3366 0.9681
8.3746 -6.9218 0.4518 0.9574
8.5277 -7.7129 0.2867 0.9550
8.4340 -6.3604 0.2634 0.9586
9.8718 -4.9884 0.2758 0.9567
8.3487 -6.9004 0.2701 0.9576
9.2915 -5.2273 0.2659 0.9582
8.8837 -5.5328 0.0870 0.9590
-3.5628 7.2501 0.0671 0.9682
8.3323 -6.8869 0.0898 0.9577
8.6071 -5.9084 0.0868 0.9591
9.2736 -5.2172 0.0884 0.9583
8.4985 -7.6865 -0.0952 0.9552
8.8884 -5.5357 -0.0870 0.9590
-3.5593 7.2430 -0.0671 0.9682
9.2792 -5.2204 -0.0885 0.9583
8.5398 -7.7238 -0.2872 0.9550
-3.5558 7.2359 -0.2011 0.9683
8.3538 -6.9046 -0.2703 0.9576
9.2972 -5.2305 -0.2660 0.9582
8.9309 -5.5622 -0.4375 0.9588
9.9289 -5.0173 -0.4626 0.9564
8.3934 -6.9373 -0.4528 0.9573
-3.5525 7.2292 -0.4691 0.9682
8.5736 -6.4657 -0.8047 0.9578
9.0359 -5.6276 -0.7977 0.9582
10.1633 -5.1357 -0.8533 0.9554
-3.5522 7.2286 -0.6036 0.9682
8.7537 -6.0091 -0.7957 0.9583
9.4661 -5.3255 -0.8139 0.9574
8.6594 -6.5304 -0.9943 0.9574
10.3626 -5.2364 -1.0644 0.9544
-3.5519 7.2280 -0.7383 0.9682
9.5721 -5.3852 -1.0069 0.9568
8.7793 -6.6208 -1.1927 0.9567
-3.5516 7.2274 -0.8735 0.9681
8.8618 -7.3245 -1.2470 0.9548
9.7210 -5.4689 -1.2098 0.9561
9.0819 -6.2344 -1.3805 0.9566
9.6418 -6.0050 -1.6156 0.9551
-3.5510 7.2262 -1.1452 0.9680
-3.5504 7.2249 -1.4195 0.9678
13.2845 5.9857 -2.8197 0.9424
11.2311 9.2827 -2.8197 0.9424
10.3603 10.2455 -2.8197 0.9424
7.2854 12.6187 -2.8197 0.9424
6.1333 13.2170 -2.8197 0.9424
4.9326 13.7104 -2.8197 0.9424
3.6927 14.0951 -2.8197 0.9424
2.4235 14.3678 -2.8197 0.9424
-0.1623 14.5699 -2.8197 0.9424
-1.4585 14.4976 -2.8197 0.9424
-2.7430 14.3102 -2.8197 0.9424
-4.0058 14.0093 -2.8197 0.9424
-3.5501 7.2243 -1.5577 0.9677
-7.5647 12.4532 -2.8197 0.9424
-8.6431 11.7305 -2.8197 0.9424
-10.5860 10.0122 -2.8197 0.9424
-11.4351 9.0302 -2.8197 0.9424
-13.4146 5.6883 -2.8197 0.9424
13.5380 5.3880 -2.8197 0.9424
13.0047 6.5716 -2.8197 0.9424
11.6335 8.7732 -2.8197 0.9424
10.8064 9.7739 -2.8197 0.9424
9.8936 10.6969 -2.8197 0.9424
8.9023 11.5350 -2.8197 0.9424
7.8403 12.2816 -2.8197 0.9424
3.0612 14.2456 -2.8197 0.9424
-2.1028 14.4182 -2.8197 0.9424
-5.8373 13.3504 -2.8197 0.9424
-7.0024 12.7778 -2.8197 0.9424
-8.1119 12.1039 -2.8197 0.9424
-9.1570 11.3338 -2.8197 0.9424
-10.1295 10.4738 -2.8197 0.9424
-13.1479 6.2802 -2.8197 0.9424
-14.0978 0.0000 -2.9721 0.9440
-13.8745 -2.4996 -2.9721 0.9440
-12.7211 -6.0764 -2.9721 0.9440
-12.1298 -7.1845 -2.9721 0.9440
-10.6638 -9.2213 -2.9721 0.9440
-3.2682 -13.7138 -2.9721 0.9440
0.4711 -14.0900 -2.9721 0.9440
2.9618 -13.7832 -2.9721 0.9440
4.1768 -13.4649 -2.9721 0.9440
5.3587 -13.0397 -2.9721 0.9440
6.4980 -12.5110 -2.9721 0.9440
7.5858 -11.8829 -2.9721 0.9440
8.6133 -11.1606 -2.9721 0.9440
11.9667 -7.4529 -2.9721 0.9440
12.5826 -6.3583 -2.9721 0.9440
13.8153 -2.8081 -2.9721 0.9440
14.0943 -0.3141 -2.9721 0.9440
13.6765 3.4207 -2.9721 0.9440
11.6568 6.5580 -2.8197 0.9468
4.5278 12.5853 -2.8197 0.9468
3.3897 12.9383 -2.8197 0.9468
-0.1490 13.3741 -2.8197 0.9468
-4.8071 12.4813 -2.8197 0.9468
-6.9439 11.4312 -2.8197 0.9468
-7.9337 10.7678 -2.8197 0.9468
-9.7172 9.1905 -2.8197 0.9468
-10.4967 8.2891 -2.8197 0.9468
-11.8000 6.2967 -2.8197 0.9468
-13.4175 4.3266 -2.9721 0.9440
-13.7494 3.1152 -2.9721 0.9440
-13.9721 1.8791 -2.9721 0.9440
-14.0838 0.6280 -2.9721 0.9440
-13.7494 -3.1152 -2.9721 0.9440
-13.4175 -4.3266 -2.9721 0.9440
-12.9792 -5.5036 -2.9721 0.9440
-10.2424 -9.6872 -2.9721 0.9440
-7.3192 -12.0490 -2.9721 0.9440
-6.2177 -12.6527 -2.9721 0.9440
-2.6540 -13.8458 -2.9721 0.9440
-1.4111 -14.0271 -2.9721 0.9440
-0.1571 -14.0970 -2.9721 0.9440
1.0983 -14.0550 -2.9721 0.9440
4.7725 -13.2654 -2.9721 0.9440
5.9343 -12.7880 -2.9721 0.9440
10.0241 -9.9130 -2.9721 0.9440
10.8666 -8.9815 -2.9721 0.9440
11.6228 -7.9786 -2.9721 0.9440
12.2869 -6.9125 -2.9721 0.9440
12.8533 -5.7914 -2.9721 0.9440
13.3178 -4.6245 -2.9721 0.9440
13.6765 -3.4207 -2.9721 0.9440
13.9267 -2.1899 -2.9721 0.9440
14.0943 0.3141 -2.9721 0.9440
14.0104 1.5673 -2.9721 0.9440
13.8153 2.8081 -2.9721 0.9440
13.5106 4.0266 -2.9721 0.9440
12.4269 4.9458 -2.8197 0.9468
11.3531 7.0708 -2.8197 0.9468
10.6787 8.0532 -2.8197 0.9468
8.1717 10.5883 -2.8197 0.9468
7.1968 11.2737 -2.8197 0.9468
6.1649 11.8694 -2.8197 0.9468
5.0839 12.3711 -2.8197 0.9468
2.8100 13.0764 -2.8197 0.9468
-1.9303 13.2350 -2.8197 0.9468
-4.2463 12.6830 -2.8197 0.9468
-6.4278 11.7292 -2.8197 0.9468
-7.4462 11.1105 -2.8197 0.9468
-8.4055 10.4037 -2.8197 0.9468
-9.2982 9.6143 -2.8197 0.9468
-10.1170 8.7485 -2.8197 0.9468
-11.5078 6.8161 -2.8197 0.9468
-12.0688 5.7648 -2.8197 0.9468
-13.8745 2.4996 -2.9721 0.9440
-11.7500 -5.6125 -2.9721 0.9480
-10.5687 -7.6069 -2.9721 0.9480
-9.8497 -8.5174 -2.9721 0.9480
-9.0525 -9.3602 -2.9721 0.9480
-7.2495 -10.8170 -2.9721 0.9480
-5.2167 -11.9310 -2.9721 0.9480
-3.0187 -12.6669 -2.9721 0.9480
-1.8793 -12.8853 -2.9721 0.9480
1.5917 -12.9240 -2.9721 0.9480
4.9496 -12.0442 -2.9721 0.9480
7.0067 -10.9758 -2.9721 0.9480
9.6575 -8.7347 -2.9721 0.9480
10.3966 -7.8404 -2.9721 0.9480
11.6220 -5.8729 -2.9721 0.9480
12.9409 -1.4476 -2.9721 0.9480
12.3011 4.2714 -2.9721 0.9480
10.7670 6.0574 -2.8197 0.9506
10.1851 6.9917 -2.8197 0.9506
8.7841 8.6868 -2.8197 0.9506
7.1047 10.1066 -2.8197 0.9506
6.1770 10.6988 -2.8197 0.9506
5.2002 11.2061 -2.8197 0.9506
4.1822 11.6245 -2.8197 0.9506
3.1309 11.9506 -2.8197 0.9506
0.9624 12.3164 -2.8197 0.9506
-2.3257 12.1331 -2.8197 0.9506
-4.4401 11.5285 -2.8197 0.9506
-3.5495 7.2230 -1.8369 0.9675
-6.4138 10.5585 -2.8197 0.9506
-7.3281 9.9458 -2.8197 0.9506
-8.1842 9.2541 -2.8197 0.9506
-8.9754 8.4889 -2.8197 0.9506
-9.6954 7.6563 -2.8197 0.9506
-10.3383 6.7630 -2.8197 0.9506
-12.9055 1.7356 -2.9721 0.9480
-13.0087 0.5801 -2.9721 0.9480
-12.9055 -1.7356 -2.9721 0.9480
-12.3933 -3.9963 -2.9721 0.9480
-11.9884 -5.0835 -2.9721 0.9480
-11.4883 -6.1303 -2.9721 0.9480
-10.8971 -7.1285 -2.9721 0.9480
-7.7242 -10.4833 -2.9721 0.9480
-6.7604 -11.1292 -2.9721 0.9480
-4.6800 -12.1515 -2.9721 0.9480
-3.5800 -12.5199 -2.9721 0.9480
-1.3034 -12.9562 -2.9721 0.9480
-0.1451 -13.0208 -2.9721 0.9480
3.3001 -12.5965 -2.9721 0.9480
8.4071 -9.9440 -2.9721 0.9480
9.2588 -9.1562 -2.9721 0.9480
10.0370 -8.2958 -2.9721 0.9480
10.7356 -7.3696 -2.9721 0.9480
11.3489 -6.3848 -2.9721 0.9480
12.3011 -4.2714 -2.9721 0.9480
12.6325 -3.1596 -2.9721 0.9480
12.8636 -2.0227 -2.9721 0.9480
12.9926 -0.8697 -2.9721 0.9480
12.7607 2.5937 -2.9721 0.9480
10.4864 6.5310 -2.8197 0.9506
8.3884 9.0695 -2.8197 0.9506
7.5479 9.7801 -2.8197 0.9506
5.6942 10.9633 -2.8197 0.9506
3.6602 11.7993 -2.8197 0.9506
2.5955 12.0782 -2.8197 0.9506
-0.6878 12.3348 -2.8197 0.9506
-2.8639 12.0174 -2.8197 0.9506
-3.9221 11.7148 -2.8197 0.9506
-4.9492 11.3193 -2.8197 0.9506
-6.8778 10.2624 -2.8197 0.9506
-7.7639 9.6095 -2.8197 0.9506
-8.5884 8.8803 -2.8197 0.9506
-12.8153 2.3088 -2.9721 0.9480
-12.9699 1.1590 -2.9721 0.9480
-12.0916 0.0000 -2.9721 0.9514
-11.9000 -2.1439 -2.9721 0.9514
-11.3313 -4.2198 -2.9721 0.9514
-10.9108 -5.2116 -2.9721 0.9514
-10.4036 -6.1621 -2.9721 0.9514
-9.1462 -7.9090 -2.9721 0.9514
-8.4060 -8.6917 -2.9721 0.9514
-7.5990 -9.4054 -2.9721 0.9514
-6.7317 -10.0444 -2.9721 0.9514
-4.8441 -11.0788 -2.9721 0.9514
-3.8388 -11.4660 -2.9721 0.9514
-2.8031 -11.7621 -2.9721 0.9514
3.5824 -11.5486 -2.9721 0.9514
5.5733 -10.7305 -2.9721 0.9514
8.2102 -8.8768 -2.9721 0.9514
8.9677 -8.1108 -2.9721 0.9514
9.6540 -7.2805 -2.9721 0.9514
10.2637 -6.3923 -2.9721 0.9514
11.2345 -4.4712 -2.9721 0.9514
11.5879 -3.4536 -2.9721 0.9514
12.0886 -0.2694 -2.9721 0.9514
11.7302 2.9340 -2.9721 0.9514
11.4225 3.9663 -2.9721 0.9514
9.9979 5.6248 -2.8197 0.9538
8.1567 8.0663 -2.8197 0.9538
6.5972 9.3847 -2.8197 0.9538
5.7358 9.9346 -2.8197 0.9538
4.8288 10.4058 -2.8197 0.9538
3.8834 10.7943 -2.8197 0.9538
-2.1596 11.2664 -2.8197 0.9538
-3.1538 11.0295 -2.8197 0.9538
-4.1230 10.7050 -2.8197 0.9538
-3.5492 7.2224 -1.9780 0.9674
-5.9557 9.8044 -2.8197 0.9538
-6.8047 9.2354 -2.8197 0.9538
-9.0029 7.1095 -2.8197 0.9538
-9.5999 6.2800 -2.8197 0.9538
-10.1208 5.4006 -2.8197 0.9538
-11.9837 1.6117 -2.9721 0.9514
-12.0796 -0.5386 -2.9721 0.9514
-11.7927 -2.6719 -2.9721 0.9514
-11.1321 -4.7204 -2.9721 0.9514
-10.6678 -5.6925 -2.9721 0.9514
-9.4894 -7.4937 -2.9721 0.9514
-8.0104 -9.0575 -2.9721 0.9514
-3.3243 -11.6256 -2.9721 0.9514
2.0112 -11.9231 -2.9721 0.9514
3.0644 -11.6968 -2.9721 0.9514
8.5975 -8.5022 -2.9721 0.9514
9.3201 -7.7033 -2.9721 0.9514
9.9688 -6.8432 -2.9721 0.9514
11.0242 -4.9672 -2.9721 0.9514
11.4225 -3.9663 -2.9721 0.9514
11.7302 -2.9339 -2.9721 0.9514
11.9448 -1.8782 -2.9721 0.9514
12.0646 -0.8076 -2.9721 0.9514
12.0886 0.2694 -2.9721 0.9514
12.0166 1.3443 -2.9721 0.9514
7.7892 8.4216 -2.8197 0.9538
6.1726 9.6693 -2.8197 0.9538
2.4101 11.2155 -2.8197 0.9538
0.3833 11.4652 -2.8197 0.9538
-4.5957 10.5107 -2.8197 0.9538
-8.6772 7.5035 -2.8197 0.9538
-9.3106 6.7014 -2.8197 0.9538
-11.9000 2.1439 -2.9721 0.9514
-12.0436 1.0762 -2.9721 0.9514
-11.2793 0.0000 -2.9721 0.9544
-11.2345 -1.0039 -2.9721 0.9544
-11.1006 -1.9998 -2.9721 0.9544
-9.7047 -5.7481 -2.9721 0.9544
-9.1546 -6.5891 -2.9721 0.9544
-8.5318 -7.3777 -2.9721 0.9544
-7.8413 -8.1078 -2.9721 0.9544
-5.4206 -9.8914 -2.9721 0.9544
-4.5187 -10.3346 -2.9721 0.9544
-3.5810 -10.6958 -2.9721 0.9544
-1.6278 -11.1612 -2.9721 0.9544
0.3769 -11.2730 -2.9721 0.9544
6.0692 -9.5072 -2.9721 0.9544
7.6587 -8.2805 -2.9721 0.9544
9.0055 -6.7914 -2.9721 0.9544
9.5743 -5.9629 -2.9721 0.9544
10.0670 -5.0871 -2.9721 0.9544
10.4798 -4.1709 -2.9721 0.9544
11.2094 -1.2539 -2.9721 0.9544
11.2541 0.7534 -2.9721 0.9544
10.9422 2.7369 -2.9721 0.9544
10.6552 3.6999 -2.9721 0.9544
10.2836 4.6336 -2.9721 0.9544
8.8223 6.0562 -2.8197 0.9567
7.6087 7.5245 -2.8197 0.9567
6.9088 8.1718 -2.8197 0.9567
6.1541 8.7543 -2.8197 0.9567
5.3505 9.2673 -2.8197 0.9567
4.5044 9.7067 -2.8197 0.9567
2.7120 10.3516 -2.8197 0.9567
-2.0145 10.5096 -2.8197 0.9567
-3.8460 9.9860 -2.8197 0.9567
-6.3476 8.6150 -2.8197 0.9567
-7.0892 8.0158 -2.8197 0.9567
-8.9550 5.8581 -2.8197 0.9567
-10.3843 4.4033 -2.9721 0.9544
-11.2681 -0.5024 -2.9721 0.9544
-11.1787 -1.5034 -2.9721 0.9544
-11.0005 -2.4924 -2.9721 0.9544
-10.3843 -4.4033 -2.9721 0.9544
-9.4390 -6.1747 -2.9721 0.9544
-8.8520 -6.9903 -2.9721 0.9544
-8.1947 -7.7505 -2.9721 0.9544
-7.4723 -8.4491 -2.9721 0.9544
-5.8559 -9.6401 -2.9721 0.9544
-4.0539 -10.5256 -2.9721 0.9544
-3.1010 -10.8446 -2.9721 0.9544
-2.1234 -11.0776 -2.9721 0.9544
0.8787 -11.2450 -2.9721 0.9544
1.8761 -11.1222 -2.9721 0.9544
3.8184 -10.6133 -2.9721 0.9544
5.6397 -9.7681 -2.9721 0.9544
6.4867 -9.2274 -2.9721 0.9544
8.0200 -7.9311 -2.9721 0.9544
8.6941 -7.1858 -2.9721 0.9544
9.2991 -6.3835 -2.9721 0.9544
9.8304 -5.5305 -2.9721 0.9544
10.2836 -4.6336 -2.9721 0.9544
10.6552 -3.6999 -2.9721 0.9544
10.9422 -2.7368 -2.9721 0.9544
11.2541 -0.7534 -2.9721 0.9544
11.2094 1.2540 -2.9721 0.9544
10.4798 4.1709 -2.9721 0.9544
9.0833 5.6572 -2.8197 0.9567
7.2660 7.8559 -2.8197 0.9567
6.5379 8.4715 -2.8197 0.9567
5.7580 9.0198 -2.8197 0.9567
4.0675 9.8978 -2.8197 0.9567
1.3081 10.6207 -2.8197 0.9567
0.3576 10.6950 -2.8197 0.9567
-0.5958 10.6844 -2.8197 0.9567
-4.2870 9.8047 -2.8197 0.9567
-3.8654 7.0534 -2.1194 0.9673
-11.1006 1.9999 -2.9721 0.9544
-10.1881 -2.7908 -2.9721 0.9571
-9.0888 -5.3833 -2.9721 0.9571
-7.9904 -6.9095 -2.9721 0.9571
-7.3436 -7.5933 -2.9721 0.9571
-6.6387 -8.2168 -2.9721 0.9571
-5.8810 -8.7750 -2.9721 0.9571
-5.0766 -9.2637 -2.9721 0.9571
-0.5881 -10.5471 -2.9721 0.9571
0.3530 -10.5576 -2.9721 0.9571
1.2913 -10.4843 -2.9721 0.9571
4.0153 -9.7706 -2.9721 0.9571
5.6840 -8.9039 -2.9721 0.9571
7.8344 -7.0858 -2.9721 0.9571
8.4340 -6.3604 -2.9721 0.9571
9.4281 -4.7642 -2.9721 0.9571
9.8147 -3.9062 -2.9721 0.9571
10.1234 -3.0171 -2.9721 0.9571
10.3518 -2.1041 -2.9721 0.9571
10.4980 -1.1744 -2.9721 0.9571
7.7248 6.3847 -2.8197 0.9592
6.4704 7.6532 -2.8197 0.9592
4.2185 9.0907 -2.8197 0.9592
3.3927 9.4301 -2.8197 0.9592
2.5399 9.6946 -2.8197 0.9592
1.6669 9.8822 -2.8197 0.9592
0.7807 9.9914 -2.8197 0.9592
-2.7552 9.6357 -2.8197 0.9592
-5.2030 8.5654 -2.8197 0.9592
-7.8651 6.2110 -2.8197 0.9592
-8.3867 5.4863 -2.8197 0.9592
-8.9740 4.7887 -2.8619 0.9586
-9.7253 4.1239 -2.9721 0.9571
-10.0537 3.2419 -2.9721 0.9571
-10.4692 1.4080 -2.9721 0.9571
-10.5530 -0.4705 -2.9721 0.9571
-10.0537 -3.2419 -2.9721 0.9571
-8.8400 -5.7829 -2.9721 0.9571
-7.6746 -7.2586 -2.9721 0.9571
-6.9981 -7.9129 -2.9721 0.9571
-5.4842 -9.0283 -2.9721 0.9571
-3.7966 -9.8576 -2.9721 0.9571
-2.9042 -10.1564 -2.9721 0.9571
-1.0574 -10.5104 -2.9721 0.9571
-0.1177 -10.5628 -2.9721 0.9571
0.8229 -10.5314 -2.9721 0.9571
2.6772 -10.2186 -2.9721 0.9571
3.5760 -9.9398 -2.9721 0.9571
5.2817 -9.1483 -2.9721 0.9571
6.0750 -8.6418 -2.9721 0.9571
6.8201 -8.0668 -2.9721 0.9571
7.5110 -7.4278 -2.9721 0.9571
9.2065 -5.1795 -2.9721 0.9571
9.9790 -3.4651 -2.9721 0.9571
10.4353 -1.6409 -2.9721 0.9571
10.5399 -0.7055 -2.9721 0.9571
10.5609 0.2354 -2.9721 0.9571
10.4980 1.1744 -2.9721 0.9571
10.3518 2.1041 -2.9721 0.9571
9.8147 3.9062 -2.9721 0.9571
8.5069 5.2981 -2.8197 0.9592
6.8049 7.3574 -2.8197 0.9592
5.3926 8.4473 -2.8197 0.9592
2.1055 9.7982 -2.8197 0.9592
0.3349 10.0162 -2.8197 0.9592
-1.4463 9.9169 -2.8197 0.9592
-4.0149 9.1824 -2.8197 0.9592
-6.2983 7.7954 -2.8197 0.9592
-7.5806 6.5552 -2.8197 0.9592
-10.1881 2.7909 -2.9721 0.9571
-10.5216 0.9402 -2.9721 0.9571
-9.8881 -0.8836 -2.9721 0.9594
-8.5416 -5.0592 -2.9721 0.9594
-6.2390 -7.7221 -2.9721 0.9594
-5.5269 -8.2467 -2.9721 0.9594
-4.7710 -8.7059 -2.9721 0.9594
-3.1518 -9.4139 -2.9721 0.9594
-2.3014 -9.6571 -2.9721 0.9594
-1.4327 -9.8236 -2.9721 0.9594
1.2135 -9.8531 -2.9721 0.9594
2.0857 -9.7060 -2.9721 0.9594
3.7735 -9.1824 -2.9721 0.9594
5.3418 -8.3678 -2.9721 0.9594
6.0654 -7.8592 -2.9721 0.9594
6.7408 -7.2881 -2.9721 0.9594
7.3628 -6.6592 -2.9721 0.9594
7.9262 -5.9775 -2.9721 0.9594
8.4268 -5.2483 -2.9721 0.9594
9.2238 -3.6710 -2.9721 0.9594
9.5140 -2.8354 -2.9721 0.9594
9.8660 -1.1037 -2.9721 0.9594
9.9053 0.6631 -2.9721 0.9594
9.8070 1.5421 -2.9721 0.9594
9.3782 3.2565 -2.9721 0.9594
9.0512 4.0783 -2.9721 0.9594
8.4242 4.7394 -2.8938 0.9604
4.7092 8.1566 -2.8197 0.9614
3.9646 8.5434 -2.8197 0.9614
3.1884 8.8624 -2.8197 0.9614
1.5666 9.2873 -2.8197 0.9614
0.7337 9.3899 -2.8197 0.9614
-0.9427 9.3712 -2.8197 0.9614
-4.8898 8.0497 -2.8197 0.9614
-5.5868 7.5825 -2.8197 0.9614
-6.2396 7.0552 -2.8197 0.9614
-6.8427 6.4718 -2.8197 0.9614
-7.8818 5.1560 -2.8197 0.9614
-8.7585 4.6737 -2.9721 0.9594
-9.1398 3.8756 -2.9721 0.9594
-9.6821 2.1937 -2.9721 0.9594
-9.8389 1.3232 -2.9721 0.9594
-9.9177 -0.4422 -2.9721 0.9594
-9.8389 -1.3232 -2.9721 0.9594
-9.1398 -3.8756 -2.9721 0.9594
-8.7585 -4.6737 -2.9721 0.9594
-7.2126 -6.8216 -2.9721 0.9594
-5.8888 -7.9923 -2.9721 0.9594
-4.3784 -8.9098 -2.9721 0.9594
-1.8689 -9.7500 -2.9721 0.9594
-0.9937 -9.8776 -2.9721 0.9594
-0.1106 -9.9269 -2.9721 0.9594
2.5160 -9.6034 -2.9721 0.9594
3.3607 -9.3413 -2.9721 0.9594
4.1788 -9.0052 -2.9721 0.9594
4.9638 -8.5975 -2.9721 0.9594
5.7093 -8.1216 -2.9721 0.9594
6.4095 -7.5812 -2.9721 0.9594
9.0512 -4.0782 -2.9721 0.9594
9.3782 -3.2565 -2.9721 0.9594
9.6308 -2.4088 -2.9721 0.9594
9.8070 -1.5421 -2.9721 0.9594
9.9053 -0.6631 -2.9721 0.9594
9.8660 1.1037 -2.9721 0.9594
9.5140 2.8355 -2.9721 0.9594
9.2238 3.6710 -2.9721 0.9594
8.8605 4.4774 -2.9721 0.9594
7.9947 4.9792 -2.8197 0.9614
7.5198 5.6710 -2.8197 0.9614
5.7544 7.4562 -2.8197 0.9614
5.0679 7.9388 -2.8197 0.9614
4.3412 8.3583 -2.8197 0.9614
2.7905 8.9956 -2.8197 0.9614
1.9787 9.2083 -2.8197 0.9614
0.3147 9.4132 -2.8197 0.9614
-3.7732 8.6296 -2.8197 0.9614
-5.9191 7.3261 -2.8197 0.9614
-6.5476 6.7702 -2.8197 0.9614
-8.1111 4.8042 -2.8223 0.9614
-9.3033 3.4646 -2.9721 0.9594
-9.5748 2.6228 -2.9721 0.9594
-9.3585 0.0000 -2.9721 0.9615
-9.3213 -0.8330 -2.9721 0.9615
-9.0259 -2.4725 -2.9721 0.9615
-8.0520 -4.7692 -2.9721 0.9615
-7.5956 -5.4670 -2.9721 0.9615
-5.8814 -7.2794 -2.9721 0.9615
-5.2101 -7.7740 -2.9721 0.9615
-4.4975 -8.2069 -2.9721 0.9615
-3.7492 -8.5746 -2.9721 0.9615
-2.9711 -8.8743 -2.9721 0.9615
-2.1695 -9.1035 -2.9721 0.9615
1.1440 -9.2883 -2.9721 0.9615
1.9661 -9.1496 -2.9721 0.9615
2.7727 -8.9383 -2.9721 0.9615
3.5572 -8.6561 -2.9721 0.9615
5.0356 -7.8882 -2.9721 0.9615
5.7177 -7.4086 -2.9721 0.9615
6.3544 -6.8703 -2.9721 0.9615
6.9407 -6.2775 -2.9721 0.9615
8.3526 -4.2207 -2.9721 0.9615
8.9686 -2.6729 -2.9721 0.9615
9.1709 -1.8641 -2.9721 0.9615
9.3561 -0.2085 -2.9721 0.9615
9.2449 1.4537 -2.9721 0.9615
9.0788 2.2708 -2.9721 0.9615
8.1563 4.5887 -2.9721 0.9615
7.3199 5.0248 -2.8197 0.9634
6.8436 5.6564 -2.8197 0.9634
6.3130 6.2430 -2.8197 0.9634
5.1060 7.2635 -2.8197 0.9634
3.7373 8.0537 -2.8197 0.9634
3.0057 8.3544 -2.8197 0.9634
0.6917 8.8516 -2.8197 0.9634
-0.0989 8.8780 -2.8197 0.9634
-1.6714 8.7198 -2.8197 0.9634
-2.4409 8.5365 -2.8197 0.9634
-3.4564 7.0337 -2.4889 0.9676
-5.2666 7.1479 -2.8197 0.9634
-5.8819 6.6508 -2.8197 0.9634
-6.9679 5.5025 -2.8197 0.9634
-9.1271 2.0680 -2.9721 0.9615
-9.2750 1.2474 -2.9721 0.9615
-9.3492 0.4169 -2.9721 0.9615
-9.3492 -0.4169 -2.9721 0.9615
-9.1271 -2.0679 -2.9721 0.9615
-8.9068 -2.8721 -2.9721 0.9615
-7.3445 -5.7999 -2.9721 0.9615
-6.7991 -6.4306 -2.9721 0.9615
-6.1998 -7.0102 -2.9721 0.9615
-4.8586 -7.9984 -2.9721 0.9615
-2.5729 -8.9978 -2.9721 0.9615
-1.7618 -9.1911 -2.9721 0.9615
1.5566 -9.2281 -2.9721 0.9615
2.3718 -9.0529 -2.9721 0.9615
3.1681 -8.8059 -2.9721 0.9615
4.6792 -8.1046 -2.9721 0.9615
5.3820 -7.6560 -2.9721 0.9615
6.6542 -6.5804 -2.9721 0.9615
7.7155 -5.2964 -2.9721 0.9615
8.5323 -3.8445 -2.9721 0.9615
9.3561 0.2085 -2.9721 0.9615
9.3004 1.0404 -2.9721 0.9615
8.6951 3.4606 -2.9721 0.9615
8.3526 4.2208 -2.9721 0.9615
7.6251 4.7490 -2.8529 0.9630
5.4245 7.0288 -2.8197 0.9634
4.7774 7.4837 -2.8197 0.9634
4.0924 7.8792 -2.8197 0.9634
2.6305 8.4800 -2.8197 0.9634
-0.4943 8.8648 -2.8197 0.9634
-2.8188 8.4192 -2.8197 0.9634
-3.5569 8.1350 -2.8197 0.9634
-6.1723 6.3821 -2.8197 0.9634
-8.0471 4.7663 -2.9703 0.9615
-8.7701 3.2660 -2.9721 0.9615
-9.0259 2.4725 -2.9721 0.9615
-9.2102 1.6593 -2.9721 0.9615
-9.3213 0.8330 -2.9721 0.9615
-8.8460 0.0000 -2.9721 0.9634
-8.8109 -0.7874 -2.9721 0.9634
-8.7059 -1.5684 -2.9721 0.9634
-7.1797 -5.1676 -2.9721 0.9634
-6.1497 -6.3587 -2.9721 0.9634
-5.5593 -6.8808 -2.9721 0.9634
-1.2766 -8.7534 -2.9721 0.9634
0.2956 -8.8411 -2.9721 0.9634
2.6209 -8.4488 -2.9721 0.9634
4.0773 -7.8503 -2.9721 0.9634
4.7599 -7.4562 -2.9721 0.9634
5.4046 -7.0030 -2.9721 0.9634
6.0065 -6.4941 -2.9721 0.9634
6.5607 -5.9337 -2.9721 0.9634
7.0628 -5.3263 -2.9721 0.9634
8.2190 -3.2711 -2.9721 0.9634
8.6688 -1.7620 -2.9721 0.9634
8.8438 -0.1971 -2.9721 0.9634
8.8263 0.5909 -2.9721 0.9634
8.5817 2.1464 -2.9721 0.9634
8.3566 2.9017 -2.9721 0.9634
8.0651 3.6340 -2.9721 0.9634
7.7097 4.3374 -2.9721 0.9634
6.4689 5.3467 -2.8197 0.9652
5.9673 5.9012 -2.8197 0.9652
4.1962 7.2681 -2.8197 0.9652
2.8411 7.8969 -2.8197 0.9652
2.1269 8.1184 -2.8197 0.9652
1.3959 8.2755 -2.8197 0.9652
-0.0935 8.3919 -2.8197 0.9652
-0.8400 8.3503 -2.8197 0.9652
-1.5799 8.2424 -2.8197 0.9652
-2.3073 8.0690 -2.8197 0.9652
-3.0163 7.8317 -2.8197 0.9652
-3.4429 7.0062 -2.6228 0.9676
-4.3571 7.1728 -2.8197 0.9652
-4.9782 6.7565 -2.8197 0.9652
-6.0973 5.7668 -2.8197 0.9652
-7.2949 4.7721 -2.9288 0.9639
-7.8044 4.1646 -2.9721 0.9634
-8.1441 3.4534 -2.9721 0.9634
-8.4191 2.7148 -2.9721 0.9634
-8.7671 1.1791 -2.9721 0.9634
-8.8372 0.3940 -2.9721 0.9634
-8.8372 -0.3940 -2.9721 0.9634
-8.6273 -1.9547 -2.9721 0.9634
-8.1441 -3.4534 -2.9721 0.9634
-7.8044 -4.1645 -2.9721 0.9634
-6.9423 -5.4823 -2.9721 0.9634
-4.5926 -7.5604 -2.9721 0.9634
-3.9014 -7.9392 -2.9721 0.9634
-2.4320 -8.5051 -2.9721 0.9634
-1.6653 -8.6878 -2.9721 0.9634
-0.0985 -8.8455 -2.9721 0.9634
0.6891 -8.8191 -2.9721 0.9634
3.7236 -8.0241 -2.9721 0.9634
4.4230 -7.6609 -2.9721 0.9634
5.7112 -6.7553 -2.9721 0.9634
8.3566 -2.9017 -2.9721 0.9634
8.8263 -0.5908 -2.9721 0.9634
8.8438 0.1971 -2.9721 0.9634
8.7912 0.9835 -2.9721 0.9634
8.4775 2.5266 -2.9721 0.9634
8.2190 3.2711 -2.9721 0.9634
4.5158 7.0739 -2.8197 0.9652
1.0259 8.3295 -2.8197 0.9652
-0.4672 8.3794 -2.8197 0.9652
-1.9455 8.1638 -2.8197 0.9652
-4.6723 6.9715 -2.8197 0.9652
-5.8343 6.0327 -2.8197 0.9652
-6.3481 5.4895 -2.8197 0.9652
-6.8115 4.9026 -2.8197 0.9652
-7.6111 4.5081 -2.9721 0.9634
-7.9822 3.8128 -2.9721 0.9634
-8.2898 3.0872 -2.9721 0.9634
-8.5317 2.3371 -2.9721 0.9634
-8.7059 1.5684 -2.9721 0.9634
-8.8109 0.7873 -2.9721 0.9634
-8.3486 -0.7460 -2.9721 0.9651
-8.2491 -1.4861 -2.9721 0.9651
-7.5634 -3.6127 -2.9721 0.9651
-7.2118 -4.2716 -2.9721 0.9651
-6.3402 -5.4825 -2.9721 0.9651
-4.6664 -6.9628 -2.9721 0.9651
-4.0282 -7.3505 -2.9721 0.9651
-2.6611 -7.9482 -2.9721 0.9651
0.2801 -8.3772 -2.9721 0.9651
1.7610 -8.1948 -2.9721 0.9651
3.8634 -7.4384 -2.9721 0.9651
5.1211 -6.6356 -2.9721 0.9651
6.2164 -5.6224 -2.9721 0.9651
6.6922 -5.0468 -2.9721 0.9651
7.1148 -4.4311 -2.9721 0.9651
7.4810 -3.7803 -2.9721 0.9651
8.0327 -2.3940 -2.9721 0.9651
8.2139 -1.6695 -2.9721 0.9651
8.2802 1.3020 -2.9721 0.9651
8.1314 2.0338 -2.9721 0.9651
6.8908 4.7303 -2.9637 0.9651
5.6542 5.5916 -2.8197 0.9668
3.9760 6.8867 -2.8197 0.9668
3.3473 7.2133 -2.8197 0.9668
2.6920 7.4826 -2.8197 0.9668
2.0153 7.6925 -2.8197 0.9668
1.3227 7.8413 -2.8197 0.9668
-0.0886 7.9516 -2.8197 0.9668
-2.1862 7.6457 -2.8197 0.9668
-2.8580 7.4208 -2.8197 0.9668
-3.4130 6.9452 -2.7440 0.9677
-5.2681 5.9567 -2.8197 0.9668
-5.7774 5.4642 -2.8197 0.9668
-6.2408 4.9283 -2.8197 0.9668
-7.9774 2.5724 -2.9721 0.9651
-8.3736 0.3734 -2.9721 0.9651
-8.1747 -1.8521 -2.9721 0.9651
-7.7168 -3.2722 -2.9721 0.9651
-7.3949 -3.9460 -2.9721 0.9651
-6.5781 -5.1947 -2.9721 0.9651
-6.0896 -5.7596 -2.9721 0.9651
-5.5528 -6.2787 -2.9721 0.9651
-3.0125 -7.8218 -2.9721 0.9651
-2.3044 -8.0589 -2.9721 0.9651
-1.5779 -8.2320 -2.9721 0.9651
-0.8390 -8.3398 -2.9721 0.9651
-0.0934 -8.3813 -2.9721 0.9651
1.3942 -8.2651 -2.9721 0.9651
2.1243 -8.1082 -2.9721 0.9651
6.4607 -5.3399 -2.9721 0.9651
6.9104 -4.7437 -2.9721 0.9651
7.3052 -4.1098 -2.9721 0.9651
7.6420 -3.4433 -2.9721 0.9651
8.1314 -2.0338 -2.9721 0.9651
8.3299 0.9319 -2.9721 0.9651
8.2139 1.6696 -2.9721 0.9651
7.7878 3.0995 -2.9721 0.9651
7.4810 3.7803 -2.9721 0.9651
5.8977 5.3341 -2.8197 0.9668
5.3995 5.8379 -2.8197 0.9668
4.2789 6.7028 -2.8197 0.9668
3.6653 7.0570 -2.8197 0.9668
3.0227 7.3552 -2.8197 0.9668
0.9720 7.8925 -2.8197 0.9668
0.2657 7.9477 -2.8197 0.9668
-1.1476 7.8688 -2.8197 0.9668
-1.8435 7.7355 -2.8197 0.9668
-2.5246 7.5407 -2.8197 0.9668
-3.1858 7.2861 -2.8197 0.9668
-3.7968 6.9282 -2.8014 0.9670
-4.9975 6.1855 -2.8197 0.9668
-6.0151 5.2014 -2.8197 0.9668
-6.6356 4.7760 -2.8990 0.9659
-7.2118 4.2715 -2.9721 0.9651
-7.5634 3.6127 -2.9721 0.9651
-7.8549 2.9252 -2.9721 0.9651
-8.0841 2.2145 -2.9721 0.9651
-8.2491 1.4862 -2.9721 0.9651
-7.9593 0.0000 -2.9721 0.9666
-7.6765 -2.1028 -2.9721 0.9666
-7.4589 -2.7777 -2.9721 0.9666
-6.4600 -4.6496 -2.9721 0.9666
-5.5333 -5.7213 -2.9721 0.9666
-1.8451 -7.7425 -2.9721 0.9666
-1.1487 -7.8760 -2.9721 0.9666
0.9729 -7.8996 -2.9721 0.9666
4.2828 -6.7088 -2.9721 0.9666
4.8629 -6.3010 -2.9721 0.9666
5.4044 -5.8432 -2.9721 0.9666
5.9031 -5.3390 -2.9721 0.9666
6.3548 -4.7924 -2.9721 0.9666
6.7561 -4.2078 -2.9721 0.9666
7.1038 -3.5897 -2.9721 0.9666
7.3952 -2.9432 -2.9721 0.9666
7.7998 -1.5854 -2.9721 0.9666
7.9100 -0.8849 -2.9721 0.9666
7.9574 -0.1773 -2.9721 0.9666
7.9416 0.5316 -2.9721 0.9666
7.8627 1.2364 -2.9721 0.9666
7.7215 1.9313 -2.9721 0.9666
7.2567 3.2697 -2.9721 0.9666
3.7756 6.5395 -2.8197 0.9683
2.5563 7.1054 -2.8197 0.9683
0.5883 7.5283 -2.8197 0.9683
-0.0841 7.5507 -2.8197 0.9683
-0.7558 7.5133 -2.8197 0.9683
-2.0760 7.2602 -2.8197 0.9683
-2.7140 7.0466 -2.8197 0.9683
-3.9204 6.4538 -2.8197 0.9683
-5.0025 5.6565 -2.8197 0.9683
-5.4861 5.1887 -2.8197 0.9683
-6.0508 4.7782 -2.8790 0.9676
-6.6607 4.3573 -2.9721 0.9666
-7.0221 3.7471 -2.9721 0.9666
-7.3278 3.1072 -2.9721 0.9666
-7.5752 2.4427 -2.9721 0.9666
-7.8883 1.0609 -2.9721 0.9666
-7.9514 0.3546 -2.9721 0.9666
-7.8883 -1.0609 -2.9721 0.9666
-7.7626 -1.7587 -2.9721 0.9666
-7.5752 -2.4427 -2.9721 0.9666
-7.3278 -3.1072 -2.9721 0.9666
-7.0221 -3.7471 -2.9721 0.9666
-5.7826 -5.4692 -2.9721 0.9666
-4.1322 -6.8026 -2.9721 0.9666
-2.8606 -7.4275 -2.9721 0.9666
-2.1882 -7.6526 -2.9721 0.9666
-0.7967 -7.9193 -2.9721 0.9666
-0.0887 -7.9588 -2.9721 0.9666
0.6201 -7.9351 -2.9721 0.9666
1.3239 -7.8485 -2.9721 0.9666
2.6945 -7.4894 -2.9721 0.9666
5.1388 -6.0781 -2.9721 0.9666
6.1350 -5.0707 -2.9721 0.9666
6.9369 -3.9026 -2.9721 0.9666
7.2567 -3.2697 -2.9721 0.9666
7.7215 -1.9312 -2.9721 0.9666
7.9416 -0.5316 -2.9721 0.9666
7.6278 2.2733 -2.9721 0.9666
7.3952 2.9432 -2.9721 0.9666
6.7562 4.2078 -2.9721 0.9666
5.6004 5.0652 -2.8197 0.9683
5.1273 5.5436 -2.8197 0.9683
2.8703 6.9844 -2.8197 0.9683
0.2523 7.5470 -2.8197 0.9683
-1.0898 7.4722 -2.8197 0.9683
-3.0252 6.9187 -2.8197 0.9683
-4.2040 6.2728 -2.8197 0.9683
-5.2495 5.4280 -2.8197 0.9683
-5.7222 4.9481 -2.8248 0.9682
-6.4600 4.6497 -2.9721 0.9666
-7.1821 3.4306 -2.9721 0.9666
-7.4589 2.7777 -2.9721 0.9666
-7.6765 2.1029 -2.9721 0.9666
-7.8332 1.4112 -2.9721 0.9666
-7.5728 0.0000 -2.9721 0.9680
-7.5427 -0.6740 -2.9721 0.9680
-7.0967 -2.6428 -2.9721 0.9680
-6.8333 -3.2640 -2.9721 0.9680
-5.7282 -4.9533 -2.9721 0.9680
-5.2645 -5.4435 -2.9721 0.9680
-3.6393 -6.6409 -2.9721 0.9680
-2.4042 -7.1810 -2.9721 0.9680
-1.7555 -7.3665 -2.9721 0.9680
-0.4216 -7.5610 -2.9721 0.9680
0.2530 -7.5686 -2.9721 0.9680
2.8785 -7.0044 -2.9721 0.9680
3.4905 -6.7204 -2.9721 0.9680
4.0748 -6.3830 -2.9721 0.9680
4.6267 -5.9950 -2.9721 0.9680
5.1420 -5.5594 -2.9721 0.9680
5.6164 -5.0797 -2.9721 0.9680
6.7589 -3.4154 -2.9721 0.9680
7.0360 -2.8003 -2.9721 0.9680
7.2573 -2.1629 -2.9721 0.9680
7.4210 -1.5084 -2.9721 0.9680
7.5258 -0.8419 -2.9721 0.9680
7.3465 1.8375 -2.9721 0.9680
7.1538 2.4841 -2.9721 0.9680
6.9043 3.1109 -2.9721 0.9680
6.6000 3.7131 -2.9721 0.9680
5.7362 4.7411 -2.9207 0.9685
4.1318 5.8775 -2.8197 0.9696
3.5922 6.2220 -2.8197 0.9696
3.0242 6.5170 -2.8197 0.9696
2.4322 6.7603 -2.8197 0.9696
1.1950 7.0844 -2.8197 0.9696
-0.7191 7.1484 -2.8197 0.9696
-1.3525 7.0561 -2.8197 0.9696
-1.9752 6.9077 -2.8197 0.9696
-3.7300 6.1404 -2.8197 0.9696
-4.2617 5.7840 -2.8197 0.9696
-4.7596 5.3818 -2.8197 0.9696
-5.2197 4.9368 -2.8197 0.9696
-6.3373 4.1457 -2.9721 0.9680
-6.6811 3.5652 -2.9721 0.9680
-6.9719 2.9563 -2.9721 0.9680
-7.2074 2.3241 -2.9721 0.9680
-7.5052 -1.0093 -2.9721 0.9680
-7.3856 -1.6734 -2.9721 0.9680
-7.2073 -2.3241 -2.9721 0.9680
-6.6811 -3.5651 -2.9721 0.9680
-6.3373 -4.1456 -2.9721 0.9680
-5.0168 -5.6726 -2.9721 0.9680
-4.4920 -6.0966 -2.9721 0.9680
-3.9316 -6.4722 -2.9721 0.9680
-2.7217 -7.0668 -2.9721 0.9680
-1.4256 -7.4374 -2.9721 0.9680
-0.7580 -7.5348 -2.9721 0.9680
0.5899 -7.5497 -2.9721 0.9680
3.7864 -6.5582 -2.9721 0.9680
4.3551 -6.1952 -2.9721 0.9680
4.8892 -5.7830 -2.9721 0.9680
5.3845 -5.3249 -2.9721 0.9680
5.8371 -4.8245 -2.9721 0.9680
6.6000 -3.7131 -2.9721 0.9680
7.5258 0.8419 -2.9721 0.9680
7.4210 1.5084 -2.9721 0.9680
7.2573 2.1629 -2.9721 0.9680
7.0360 2.8003 -2.9721 0.9680
6.4280 4.0034 -2.9721 0.9680
6.0462 4.5597 -2.9721 0.9680
4.8783 5.2744 -2.8197 0.9696
2.1286 6.8619 -2.8197 0.9696
1.5094 7.0242 -2.8197 0.9696
0.2401 7.1805 -2.8197 0.9696
-0.4000 7.1734 -2.8197 0.9696
-1.0369 7.1093 -2.8197 0.9696
-1.6655 6.9888 -2.8197 0.9696
-2.2809 6.8128 -2.8197 0.9696
-2.8783 6.5827 -2.8197 0.9696
-3.4527 6.3004 -2.8197 0.9696
-3.9998 5.9681 -2.8197 0.9696
-4.5151 5.5884 -2.8197 0.9696
-4.9946 5.1644 -2.8197 0.9696
-5.5266 4.7790 -2.8675 0.9691
-6.5156 3.8592 -2.9721 0.9680
-7.5427 0.6740 -2.9721 0.9680
-7.2177 0.0000 -2.9721 0.9693
-7.1890 -0.6424 -2.9721 0.9693
-6.9612 -1.9069 -2.9721 0.9693
-6.5128 -3.1109 -2.9721 0.9693
-5.4595 -4.7210 -2.9721 0.9693
-5.0177 -5.1882 -2.9721 0.9693
-4.5360 -5.6142 -2.9721 0.9693
-2.8915 -6.6131 -2.9721 0.9693
-2.2915 -6.8443 -2.9721 0.9693
-1.0417 -7.1421 -2.9721 0.9693
-0.4018 -7.2065 -2.9721 0.9693
2.1384 -6.8936 -2.9721 0.9693
2.7435 -6.6759 -2.9721 0.9693
3.3268 -6.4052 -2.9721 0.9693
3.8837 -6.0837 -2.9721 0.9693
4.9008 -5.2987 -2.9721 0.9693
5.3530 -4.8415 -2.9721 0.9693
5.7627 -4.3458 -2.9721 0.9693
6.4419 -3.2552 -2.9721 0.9693
6.7061 -2.6689 -2.9721 0.9693
6.9170 -2.0615 -2.9721 0.9693
7.1729 -0.8024 -2.9721 0.9693
7.1301 1.1212 -2.9721 0.9693
5.5634 4.5982 -2.9721 0.9693
4.8689 4.8149 -2.8197 0.9708
2.8824 6.2113 -2.8197 0.9708
1.7354 6.6240 -2.8197 0.9708
1.1390 6.7522 -2.8197 0.9708
-0.0763 6.8472 -2.8197 0.9708
-0.6854 6.8132 -2.8197 0.9708
-3.0200 6.1456 -2.8197 0.9708
-4.0618 5.5128 -2.8197 0.9708
-5.6644 4.4732 -2.9721 0.9693
-6.6449 2.8177 -2.9721 0.9693
-6.8694 2.2151 -2.9721 0.9693
-7.1533 0.9621 -2.9721 0.9693
-7.1533 -0.9620 -2.9721 0.9693
-6.6450 -2.8177 -2.9721 0.9693
-6.3678 -3.3979 -2.9721 0.9693
-5.2438 -4.9595 -2.9721 0.9693
-4.2814 -5.8107 -2.9721 0.9693
-3.7472 -6.1687 -2.9721 0.9693
-3.1833 -6.4777 -2.9721 0.9693
-2.5941 -6.7354 -2.9721 0.9693
-1.3588 -7.0886 -2.9721 0.9693
1.2005 -7.1171 -2.9721 0.9693
2.4434 -6.7915 -2.9721 0.9693
3.0382 -6.5471 -2.9721 0.9693
3.6088 -6.2507 -2.9721 0.9693
4.6599 -5.5118 -2.9721 0.9693
5.1320 -5.0751 -2.9721 0.9693
6.2905 -3.5390 -2.9721 0.9693
6.5805 -2.9650 -2.9721 0.9693
7.0020 -1.7513 -2.9721 0.9693
7.1301 -1.1212 -2.9721 0.9693
7.2016 -0.4821 -2.9721 0.9693
7.2159 0.1608 -2.9721 0.9693
7.1729 0.8024 -2.9721 0.9693
7.0730 1.4377 -2.9721 0.9693
6.9170 2.0615 -2.9721 0.9693
6.7061 2.6690 -2.9721 0.9693
6.1266 3.8157 -2.9721 0.9693
5.2451 4.7439 -2.9122 0.9699
3.6846 5.7718 -2.8197 0.9708
3.1562 6.0768 -2.8197 0.9708
2.0288 6.5402 -2.8197 0.9708
0.2288 6.8438 -2.8197 0.9708
-0.9882 6.7759 -2.8197 0.9708
-1.5874 6.6611 -2.8197 0.9708
-2.1740 6.4933 -2.8197 0.9708
-2.7433 6.2741 -2.8197 0.9708
-3.2908 6.0050 -2.8197 0.9708
-3.8122 5.6882 -2.8197 0.9708
-4.3034 5.3264 -2.8197 0.9708
-5.4595 4.7211 -2.9721 0.9693
-7.1890 0.6424 -2.9721 0.9693
-6.8628 -0.6132 -2.9721 0.9704
-6.2173 -2.9697 -2.9721 0.9704
-5.9283 -3.5113 -2.9721 0.9704
-4.7900 -4.9528 -2.9721 0.9704
-4.3301 -5.3595 -2.9721 0.9704
-3.8359 -5.7236 -2.9721 0.9704
-3.3113 -6.0423 -2.9721 0.9704
-2.7603 -6.3130 -2.9721 0.9704
-2.1875 -6.5336 -2.9721 0.9704
-1.5973 -6.7024 -2.9721 0.9704
-0.9944 -6.8179 -2.9721 0.9704
-0.3836 -6.8794 -2.9721 0.9704
0.8422 -6.8385 -2.9721 0.9704
2.0414 -6.5808 -2.9721 0.9704
3.1758 -6.1145 -2.9721 0.9704
5.1101 -4.6218 -2.9721 0.9704
5.5011 -4.1486 -2.9721 0.9704
5.8486 -3.6425 -2.9721 0.9704
6.6031 -1.9679 -2.9721 0.9704
6.7520 -1.3724 -2.9721 0.9704
6.8474 -0.7660 -2.9721 0.9704
6.8747 0.4602 -2.9721 0.9704
6.8065 1.0703 -2.9721 0.9704
6.6842 1.6718 -2.9721 0.9704
6.5089 2.2602 -2.9721 0.9704
6.2819 2.8305 -2.9721 0.9704
6.0050 3.3784 -2.9721 0.9704
5.6805 3.8995 -2.9721 0.9704
5.3109 4.3896 -2.9721 0.9704
4.2203 4.9919 -2.8197 0.9719
2.2129 6.1509 -2.8197 0.9719
-0.6543 6.5040 -2.8197 0.9719
-1.2306 6.4199 -2.8197 0.9719
-1.7971 6.2849 -2.8197 0.9719
-2.3494 6.1000 -2.8197 0.9719
-3.8775 5.2626 -2.8197 0.9719
-4.3305 4.8966 -2.8197 0.9719
-5.0058 4.7345 -2.9721 0.9704
-6.0788 3.2438 -2.9721 0.9704
-6.3434 2.6898 -2.9721 0.9704
-6.8286 0.9184 -2.9721 0.9704
-6.8833 0.3070 -2.9721 0.9704
-6.8833 -0.3069 -2.9721 0.9704
-6.8286 -0.9184 -2.9721 0.9704
-6.5576 -2.1145 -2.9721 0.9704
-5.4074 -4.2701 -2.9721 0.9704
-5.0058 -4.7345 -2.9721 0.9704
-4.0871 -5.5470 -2.9721 0.9704
-3.0388 -6.1838 -2.9721 0.9704
-1.8943 -6.6246 -2.9721 0.9704
-0.0768 -6.8897 -2.9721 0.9704
1.7462 -6.6652 -2.9721 0.9704
2.3325 -6.4833 -2.9721 0.9704
2.9003 -6.2499 -2.9721 0.9704
3.9625 -5.6367 -2.9721 0.9704
5.3109 -4.3895 -2.9721 0.9704
6.2819 -2.8304 -2.9721 0.9704
6.5089 -2.2601 -2.9721 0.9704
6.8747 -0.4602 -2.9721 0.9704
6.8884 0.1535 -2.9721 0.9704
6.8474 0.7660 -2.9721 0.9704
6.7520 1.3724 -2.9721 0.9704
5.5012 4.1486 -2.9721 0.9704
4.4385 4.7989 -2.8197 0.9719
3.0130 5.8010 -2.8197 0.9719
2.4847 6.0462 -2.8197 0.9719
1.3733 6.3909 -2.8197 0.9719
0.7990 6.4878 -2.8197 0.9719
-0.3639 6.5267 -2.8197 0.9719
-0.9434 6.4684 -2.8197 0.9719
-2.6188 5.9893 -2.8197 0.9719
-4.6199 4.7770 -2.8666 0.9715
-5.5922 4.0250 -2.9721 0.9704
-6.2173 2.9697 -2.9721 0.9704
-6.6453 1.8204 -2.9721 0.9704
-6.8628 0.6133 -2.9721 0.9704
-6.5607 -0.5863 -2.9721 0.9715
-6.4825 -1.1679 -2.9721 0.9715
-6.1727 -2.2987 -2.9721 0.9715
-5.6673 -3.3568 -2.9721 0.9715
-5.3461 -3.8479 -2.9721 0.9715
-3.6671 -5.4716 -2.9721 0.9715
-3.1655 -5.7763 -2.9721 0.9715
-2.0912 -6.2461 -2.9721 0.9715
-1.5270 -6.4074 -2.9721 0.9715
-0.9506 -6.5179 -2.9721 0.9715
-0.3667 -6.5766 -2.9721 0.9715
0.2201 -6.5832 -2.9721 0.9715
2.5037 -6.0925 -2.9721 0.9715
3.0360 -5.8454 -2.9721 0.9715
4.0244 -5.2145 -2.9721 0.9715
4.8852 -4.4183 -2.9721 0.9715
5.5911 -3.4822 -2.9721 0.9715
5.8789 -2.9707 -2.9721 0.9715
6.1200 -2.4357 -2.9721 0.9715
6.5852 -0.1467 -2.9721 0.9715
6.5721 0.4400 -2.9721 0.9715
6.3900 1.5983 -2.9721 0.9715
5.7407 3.2297 -2.9721 0.9715
5.0771 4.1963 -2.9721 0.9715
4.6835 4.6316 -2.9721 0.9715
4.0369 4.7748 -2.8213 0.9729
3.5938 5.1123 -2.8197 0.9729
3.1246 5.4119 -2.8197 0.9729
2.1155 5.8802 -2.8197 0.9729
1.5837 6.0451 -2.8197 0.9729
-0.6255 6.2177 -2.8197 0.9729
-1.1764 6.1374 -2.8197 0.9729
-1.7180 6.0083 -2.8197 0.9729
-2.7561 5.6085 -2.8197 0.9729
-3.2443 5.3409 -2.8197 0.9729
-3.7068 5.0310 -2.8197 0.9729
-4.2223 4.7743 -2.8758 0.9724
-6.4240 1.4555 -2.9721 0.9715
-6.5803 0.2934 -2.9721 0.9715
-6.5803 -0.2934 -2.9721 0.9715
-4.7855 -4.5261 -2.9721 0.9715
-2.9051 -5.9116 -2.9721 0.9715
-2.3674 -6.1467 -2.9721 0.9715
-1.2400 -6.4691 -2.9721 0.9715
-0.6593 -6.5538 -2.9721 0.9715
-0.0734 -6.5864 -2.9721 0.9715
0.5131 -6.5668 -2.9721 0.9715
1.0956 -6.4951 -2.9721 0.9715
2.7726 -5.9749 -2.9721 0.9715
3.2934 -5.7044 -2.9721 0.9715
3.7881 -5.3886 -2.9721 0.9715
5.4305 -3.7278 -2.9721 0.9715
5.7407 -3.2297 -2.9721 0.9715
6.5069 -1.0231 -2.9721 0.9715
6.5721 -0.4399 -2.9721 0.9715
6.5852 0.1467 -2.9721 0.9715
6.5460 0.7323 -2.9721 0.9715
6.3125 1.8813 -2.9721 0.9715
5.8789 2.9707 -2.9721 0.9715
5.2590 3.9660 -2.9721 0.9715
4.8852 4.4184 -2.9721 0.9715
4.3889 4.7452 -2.9165 0.9720
3.3625 5.2673 -2.8197 0.9729
2.3753 5.7801 -2.8197 0.9729
0.7639 6.2023 -2.8197 0.9729
-1.9840 5.9258 -2.8197 0.9729
-2.5035 5.7257 -2.8197 0.9729
-3.0032 5.4802 -2.8197 0.9729
-3.9273 4.8609 -2.8197 0.9729
-4.5791 4.7348 -2.9721 0.9715
-5.3461 3.8479 -2.9721 0.9715
-5.9436 2.8390 -2.9721 0.9715
-6.5607 0.5863 -2.9721 0.9715
-6.3052 0.0000 -2.9721 0.9725
-5.9087 -2.2004 -2.9721 0.9725
-5.6894 -2.7176 -2.9721 0.9725
-4.3833 -4.5323 -2.9721 0.9725
-3.9625 -4.9045 -2.9721 0.9725
-3.0301 -5.5293 -2.9721 0.9725
-2.5260 -5.7771 -2.9721 0.9725
-1.4617 -6.1334 -2.9721 0.9725
-0.3510 -6.2954 -2.9721 0.9725
0.2107 -6.3016 -2.9721 0.9725
1.3247 -6.1644 -2.9721 0.9725
1.8681 -6.0221 -2.9721 0.9725
3.3927 -5.3145 -2.9721 0.9725
4.2812 -4.6288 -2.9721 0.9725
5.3520 -3.3333 -2.9721 0.9725
5.6275 -2.8437 -2.9721 0.9725
5.8582 -2.3315 -2.9721 0.9725
6.0425 -1.8009 -2.9721 0.9725
6.1788 -1.2559 -2.9721 0.9725
6.2286 0.9794 -2.9721 0.9725
6.1167 1.5299 -2.9721 0.9725
4.8600 4.0169 -2.9721 0.9725
4.0108 4.7440 -2.9283 0.9729
2.5180 5.4261 -2.8197 0.9739
-0.0666 5.9815 -2.8197 0.9739
-2.1499 5.5821 -2.8197 0.9739
-2.6382 5.3687 -2.8197 0.9739
-3.1056 5.1125 -2.8197 0.9739
-5.2764 3.4517 -2.9721 0.9725
-5.8048 2.4615 -2.9721 0.9725
-6.0009 1.9350 -2.9721 0.9725
-6.2989 0.2809 -2.9721 0.9725
-6.2989 -0.2808 -2.9721 0.9725
-6.2489 -0.8404 -2.9721 0.9725
-6.0009 -1.9350 -2.9721 0.9725
-5.8048 -2.4615 -2.9721 0.9725
-5.2764 -3.4517 -2.9721 0.9725
-3.7401 -5.0761 -2.9721 0.9725
-3.2734 -5.3888 -2.9721 0.9725
-2.7808 -5.6588 -2.9721 0.9725
-2.2661 -5.8838 -2.9721 0.9725
0.4912 -6.2860 -2.9721 0.9725
1.0487 -6.2173 -2.9721 0.9725
2.1345 -5.9329 -2.9721 0.9725
2.6541 -5.7193 -2.9721 0.9725
4.0708 -4.8149 -2.9721 0.9725
5.4952 -3.0915 -2.9721 0.9725
6.2286 -0.9794 -2.9721 0.9725
6.3036 0.1405 -2.9721 0.9725
6.1788 1.2559 -2.9721 0.9725
5.6275 2.8437 -2.9721 0.9725
5.3520 3.3333 -2.9721 0.9725
5.0341 3.7964 -2.9721 0.9725
4.6762 4.2294 -2.9721 0.9725
4.2812 4.6288 -2.9721 0.9725
2.7572 5.3085 -2.8197 0.9739
1.2567 5.8483 -2.8197 0.9739
0.7312 5.9370 -2.8197 0.9739
-2.3965 5.4808 -2.8197 0.9739
-2.8748 5.2458 -2.8197 0.9739
-3.3303 4.9691 -2.8197 0.9739
-3.8543 4.7706 -2.8910 0.9732
-4.3833 4.5323 -2.9721 0.9725
-5.4250 3.2132 -2.9721 0.9725
-5.9087 2.2005 -2.9721 0.9725
-5.9469 -1.0714 -2.9721 0.9734
-5.8279 -1.5964 -2.9721 0.9734
-5.6627 -2.1088 -2.9721 0.9734
-5.4526 -2.6045 -2.9721 0.9734
-3.7975 -4.7002 -2.9721 0.9734
-2.4208 -5.5365 -2.9721 0.9734
-1.9184 -5.7300 -2.9721 0.9734
-0.8721 -5.9794 -2.9721 0.9734
-0.3364 -6.0332 -2.9721 0.9734
0.2019 -6.0393 -2.9721 0.9734
3.6919 -4.7837 -2.9721 0.9734
4.1030 -4.4361 -2.9721 0.9734
4.4815 -4.0533 -2.9721 0.9734
5.6143 -2.2344 -2.9721 0.9734
6.0052 -0.6718 -2.9721 0.9734
5.8621 1.4662 -2.9721 0.9734
4.6577 3.8497 -2.9721 0.9734
3.9013 4.6145 -2.9721 0.9734
2.4131 5.2002 -2.8197 0.9748
1.4529 5.5457 -2.8197 0.9748
0.9535 5.6529 -2.8197 0.9748
-0.0639 5.7325 -2.8197 0.9748
-0.5738 5.7040 -2.8197 0.9748
-2.9763 4.8997 -2.8197 0.9748
-3.5115 4.7658 -2.9117 0.9740
-4.0031 4.5264 -2.9721 0.9734
-4.3901 4.1521 -2.9721 0.9734
-4.7423 3.7449 -2.9721 0.9734
-5.5632 2.3590 -2.9721 0.9734
-5.7510 1.8545 -2.9721 0.9734
-5.8933 1.3353 -2.9721 0.9734
-5.9887 0.8054 -2.9721 0.9734
-6.0366 0.2692 -2.9721 0.9734
-6.0366 -0.2692 -2.9721 0.9734
-5.3311 -2.8448 -2.9721 0.9734
-4.7423 -3.7449 -2.9721 0.9734
-4.3901 -4.1522 -2.9721 0.9734
-2.6650 -5.4232 -2.9721 0.9734
-1.6613 -5.8098 -2.9721 0.9734
-0.0673 -6.0422 -2.9721 0.9734
1.0051 -5.9585 -2.9721 0.9734
2.0456 -5.6859 -2.9721 0.9734
3.0213 -5.2331 -2.9721 0.9734
3.4751 -4.9434 -2.9721 0.9734
3.9013 -4.6145 -2.9721 0.9734
4.2965 -4.2489 -2.9721 0.9734
4.6577 -3.8496 -2.9721 0.9734
5.2664 -2.9629 -2.9721 0.9734
5.5092 -2.4823 -2.9721 0.9734
5.7083 -1.9821 -2.9721 0.9734
5.9693 -0.9386 -2.9721 0.9734
6.0052 0.6718 -2.9721 0.9734
5.9216 1.2036 -2.9721 0.9734
5.6143 2.2345 -2.9721 0.9734
5.3932 2.7253 -2.9721 0.9734
5.1292 3.1945 -2.9721 0.9734
4.4815 4.0533 -2.9721 0.9734
3.0847 4.8321 -2.8197 0.9748
2.6424 5.0875 -2.8197 0.9748
1.6985 5.4754 -2.8197 0.9748
1.2044 5.6048 -2.8197 0.9748
-0.3192 5.7239 -2.8197 0.9748
-0.8274 5.6728 -2.8197 0.9748
-2.2967 5.2527 -2.8197 0.9748
-2.7551 5.0274 -2.8197 0.9748
-3.7975 4.7003 -2.9721 0.9734
-4.2008 4.3436 -2.9721 0.9734
-4.5707 3.9525 -2.9721 0.9734
-5.1991 3.0794 -2.9721 0.9734
-5.9469 1.0714 -2.9721 0.9734
-5.7973 0.0000 -2.9721 0.9743
-5.5913 -1.5316 -2.9721 0.9743
-5.4328 -2.0232 -2.9721 0.9743
-5.2312 -2.4987 -2.9721 0.9743
-4.9880 -2.9544 -2.9721 0.9743
-4.7053 -3.3866 -2.9721 0.9743
-4.3852 -3.7920 -2.9721 0.9743
-4.0302 -4.1672 -2.9721 0.9743
-2.7861 -5.0840 -2.9721 0.9743
-2.3225 -5.3118 -2.9721 0.9743
-0.3228 -5.7883 -2.9721 0.9743
0.7086 -5.7538 -2.9721 0.9743
2.2036 -5.3621 -2.9721 0.9743
2.6721 -5.1447 -2.9721 0.9743
3.9364 -4.2560 -2.9721 0.9743
4.2996 -3.8887 -2.9721 0.9743
5.3864 -2.1437 -2.9721 0.9743
5.6811 -1.1547 -2.9721 0.9743
5.7614 -0.6445 -2.9721 0.9743
5.7844 0.3872 -2.9721 0.9743
5.4765 1.9017 -2.9721 0.9743
5.2855 2.3816 -2.9721 0.9743
5.0526 2.8425 -2.9721 0.9743
4.7795 3.2810 -2.9721 0.9743
4.4685 3.6934 -2.9721 0.9743
4.1221 4.0764 -2.9721 0.9743
3.3308 4.7381 -2.9692 0.9743
1.8619 5.1753 -2.8197 0.9756
1.3939 5.3205 -2.8197 0.9756
0.9148 5.4234 -2.8197 0.9756
-0.5505 5.4724 -2.8197 0.9756
-1.0354 5.4017 -2.8197 0.9756
-1.9768 5.1326 -2.8197 0.9756
-4.2119 3.9836 -2.9721 0.9743
-4.5497 3.5929 -2.9721 0.9743
-5.1147 2.7293 -2.9721 0.9743
-5.3373 2.2632 -2.9721 0.9743
-5.6540 1.2810 -2.9721 0.9743
-5.7915 0.2582 -2.9721 0.9743
-5.7456 -0.7727 -2.9721 0.9743
-5.1147 -2.7293 -2.9721 0.9743
-3.8406 -4.3426 -2.9721 0.9743
-2.5568 -5.2030 -2.9721 0.9743
-0.0646 -5.7969 -2.9721 0.9743
0.9643 -5.7165 -2.9721 0.9743
1.4692 -5.6080 -2.9721 0.9743
2.4403 -5.2587 -2.9721 0.9743
4.1221 -4.0764 -2.9721 0.9743
4.4685 -3.6933 -2.9721 0.9743
5.2855 -2.3815 -2.9721 0.9743
5.4765 -1.9016 -2.9721 0.9743
5.6241 -1.4067 -2.9721 0.9743
5.7844 -0.3872 -2.9721 0.9743
5.6811 1.1548 -2.9721 0.9743
5.5558 1.6558 -2.9721 0.9743
4.6286 3.4906 -2.9721 0.9743
4.2996 3.8887 -2.9721 0.9743
3.9364 4.2560 -2.9721 0.9743
3.0344 4.7534 -2.8911 0.9750
2.0906 5.0872 -2.8197 0.9756
1.1555 5.3773 -2.8197 0.9756
0.1838 5.4970 -2.8197 0.9756
-0.3062 5.4915 -2.8197 0.9756
-0.7938 5.4425 -2.8197 0.9756
-1.2750 5.3502 -2.8197 0.9756
-2.2034 5.0394 -2.8197 0.9756
-2.6432 4.8233 -2.8197 0.9756
-3.1903 4.7602 -2.9378 0.9746
-4.0302 4.1672 -2.9721 0.9743
-4.7053 3.3866 -2.9721 0.9743
-4.9880 2.9544 -2.9721 0.9743
-5.4328 2.0232 -2.9721 0.9743
-5.5913 1.5316 -2.9721 0.9743
-5.5453 -0.4955 -2.9721 0.9751
-5.2173 -1.9430 -2.9721 0.9751
-4.7902 -2.8372 -2.9721 0.9751
-4.5186 -3.2523 -2.9721 0.9751
-3.4988 -4.3305 -2.9721 0.9751
-2.6756 -4.8823 -2.9721 0.9751
-1.7675 -5.2793 -2.9721 0.9751
-1.2906 -5.4157 -2.9721 0.9751
-0.8035 -5.5091 -2.9721 0.9751
-0.3100 -5.5587 -2.9721 0.9751
0.6805 -5.5256 -2.9721 0.9751
1.6495 -5.3174 -2.9721 0.9751
2.1162 -5.1495 -2.9721 0.9751
3.7803 -4.0872 -2.9721 0.9751
4.7258 -2.9432 -2.9721 0.9751
4.9690 -2.5109 -2.9721 0.9751
5.1727 -2.0587 -2.9721 0.9751
5.5329 -0.6189 -2.9721 0.9751
5.5549 0.3719 -2.9721 0.9751
5.4010 1.3509 -2.9721 0.9751
5.2593 1.8262 -2.9721 0.9751
5.0759 2.2871 -2.9721 0.9751
4.8522 2.7298 -2.9721 0.9751
4.5900 3.1509 -2.9721 0.9751
3.9586 3.9147 -2.9721 0.9751
3.2018 4.5546 -2.9721 0.9751
2.7410 4.7475 -2.9265 0.9754
1.7881 4.9700 -2.8197 0.9763
0.8785 5.2083 -2.8197 0.9763
-0.9944 5.1874 -2.8197 0.9763
-1.4521 5.0784 -2.8197 0.9763
-2.8876 4.7536 -2.9692 0.9751
-3.3024 4.4821 -2.9721 0.9751
-4.0448 3.8256 -2.9721 0.9751
-4.3693 3.4504 -2.9721 0.9751
-5.4297 1.2302 -2.9721 0.9751
-5.5177 0.7420 -2.9721 0.9751
-5.5618 0.2480 -2.9721 0.9751
-5.5618 -0.2480 -2.9721 0.9751
-5.5177 -0.7421 -2.9721 0.9751
-5.4297 -1.2302 -2.9721 0.9751
-5.2987 -1.7086 -2.9721 0.9751
-4.9118 -2.6210 -2.9721 0.9751
-4.0448 -3.8255 -2.9721 0.9751
-2.4554 -4.9966 -2.9721 0.9751
-1.5306 -5.3528 -2.9721 0.9751
-0.5573 -5.5394 -2.9721 0.9751
0.9260 -5.4898 -2.9721 0.9751
1.4110 -5.3856 -2.9721 0.9751
1.8847 -5.2386 -2.9721 0.9751
2.3435 -5.0501 -2.9721 0.9751
2.7837 -4.8215 -2.9721 0.9751
3.9586 -3.9147 -2.9721 0.9751
4.2913 -3.5468 -2.9721 0.9751
5.2593 -1.8262 -2.9721 0.9751
5.4010 -1.3509 -2.9721 0.9751
5.5549 -0.3719 -2.9721 0.9751
5.5660 0.1240 -2.9721 0.9751
5.5329 0.6190 -2.9721 0.9751
5.4558 1.1089 -2.9721 0.9751
4.7258 2.9432 -2.9721 0.9751
4.4451 3.3522 -2.9721 0.9751
4.1291 3.7345 -2.9721 0.9751
2.9957 4.6927 -2.9721 0.9751
2.4722 4.7599 -2.8633 0.9760
2.0077 4.8855 -2.8197 0.9763
1.5649 5.0448 -2.8197 0.9763
0.1765 5.2790 -2.8197 0.9763
-0.2941 5.2737 -2.8197 0.9763
-0.7623 5.2266 -2.8197 0.9763
-1.2244 5.1380 -2.8197 0.9763
-3.0995 4.6248 -2.9721 0.9751
-3.4988 4.3306 -2.9721 0.9751
-4.2112 3.6416 -2.9721 0.9751
-4.7902 2.8373 -2.9721 0.9751
-5.4792 0.9871 -2.9721 0.9751
-5.5453 0.4955 -2.9721 0.9751
-5.3513 0.0000 -2.9721 0.9758
-5.3301 -0.4763 -2.9721 0.9758
-5.2665 -0.9488 -2.9721 0.9758
-5.0149 -1.8675 -2.9721 0.9758
-4.8287 -2.3065 -2.9721 0.9758
-4.6043 -2.7271 -2.9721 0.9758
-4.3433 -3.1261 -2.9721 0.9758
-4.0478 -3.5002 -2.9721 0.9758
-2.1439 -4.9031 -2.9721 0.9758
-1.6989 -5.0745 -2.9721 0.9758
-1.2405 -5.2055 -2.9721 0.9758
-0.7723 -5.2953 -2.9721 0.9758
-0.2979 -5.3430 -2.9721 0.9758
0.1788 -5.3483 -2.9721 0.9758
2.0341 -4.9496 -2.9721 0.9758
2.8795 -4.5106 -2.9721 0.9758
3.9688 -3.5896 -2.9721 0.9758
4.5424 -2.8290 -2.9721 0.9758
4.9720 -1.9788 -2.9721 0.9758
5.1284 -1.5284 -2.9721 0.9758
5.3500 -0.1192 -2.9721 0.9758
5.2864 0.8312 -2.9721 0.9758
4.8789 2.1983 -2.9721 0.9758
4.6639 2.6239 -2.9721 0.9758
4.1248 3.4093 -2.9721 0.9758
3.8050 3.7628 -2.9721 0.9758
3.4550 4.0866 -2.9721 0.9758
3.0775 4.3778 -2.9721 0.9758
2.6757 4.6344 -2.9721 0.9758
2.2051 4.7520 -2.9096 0.9763
1.7198 4.7804 -2.8216 0.9770
1.2867 4.9112 -2.8197 0.9770
0.3955 5.0615 -2.8197 0.9770
-0.5082 5.0514 -2.8197 0.9770
-0.9558 4.9862 -2.8197 0.9770
-1.8389 4.7746 -2.8417 0.9769
-2.3376 4.7570 -2.9438 0.9760
-2.7782 4.5736 -2.9721 0.9758
-3.8879 3.6771 -2.9721 0.9758
-4.9267 2.0891 -2.9721 0.9758
-5.2190 -1.1825 -2.9721 0.9758
-5.0931 -1.6423 -2.9721 0.9758
-4.7212 -2.5193 -2.9721 0.9758
-4.1997 -3.3164 -2.9721 0.9758
-2.7782 -4.5736 -2.9721 0.9758
-2.3601 -4.8027 -2.9721 0.9758
-1.9233 -4.9938 -2.9721 0.9758
-1.0074 -5.2556 -2.9721 0.9758
-0.5356 -5.3244 -2.9721 0.9758
-0.0596 -5.3510 -2.9721 0.9758
0.4169 -5.3350 -2.9721 0.9758
0.8901 -5.2768 -2.9721 0.9758
1.3562 -5.1766 -2.9721 0.9758
1.8116 -5.0353 -2.9721 0.9758
3.0775 -4.3778 -2.9721 0.9758
4.1248 -3.4092 -2.9721 0.9758
4.4118 -3.0285 -2.9721 0.9758
4.6639 -2.6238 -2.9721 0.9758
4.8789 -2.1983 -2.9721 0.9758
5.0552 -1.7554 -2.9721 0.9758
5.1914 -1.2985 -2.9721 0.9758
5.2864 -0.8312 -2.9721 0.9758
5.3181 0.5949 -2.9721 0.9758
4.7762 2.4135 -2.9721 0.9758
4.2726 3.2221 -2.9721 0.9758
3.2695 4.2364 -2.9721 0.9758
2.8795 4.5106 -2.9721 0.9758
2.4623 4.7407 -2.9669 0.9759
1.9569 4.7619 -2.8594 0.9767
1.5042 4.8490 -2.8197 0.9770
1.0666 4.9636 -2.8197 0.9770
0.6206 5.0389 -2.8197 0.9770
0.1696 5.0741 -2.8197 0.9770
-0.7327 5.0238 -2.8197 0.9770
-1.1769 4.9386 -2.8197 0.9770
-2.5717 4.6929 -2.9721 0.9758
-2.9792 4.4453 -2.9721 0.9758
-3.3631 4.1625 -2.9721 0.9758
-3.7202 3.8467 -2.9721 0.9758
-4.0478 3.5003 -2.9721 0.9758
-4.3433 3.1261 -2.9721 0.9758
-4.6043 2.7271 -2.9721 0.9758
-4.8287 2.3065 -2.9721 0.9758
-5.1612 1.4138 -2.9721 0.9758
-5.2665 0.9488 -2.9721 0.9758
-5.1478 0.0000 -2.9721 0.9765
-4.8242 -1.7965 -2.9721 0.9765
-4.6451 -2.2188 -2.9721 0.9765
-4.4292 -2.6234 -2.9721 0.9765
-4.1781 -3.0072 -2.9721 0.9765
-3.5787 -3.7004 -2.9721 0.9765
-2.4740 -4.5144 -2.9721 0.9765
-2.0623 -4.7166 -2.9721 0.9765
-0.2866 -5.1398 -2.9721 0.9765
0.1720 -5.1450 -2.9721 0.9765
1.5252 -4.9167 -2.9721 0.9765
1.9567 -4.7614 -2.9721 0.9765
2.3728 -4.5684 -2.9721 0.9765
3.4954 -3.7792 -2.9721 0.9765
3.8179 -3.4531 -2.9721 0.9765
4.1101 -3.0995 -2.9721 0.9765
4.5945 -2.3217 -2.9721 0.9765
4.7829 -1.9036 -2.9721 0.9765
4.9334 -1.4703 -2.9721 0.9765
5.1159 -0.5723 -2.9721 0.9765
5.1363 0.3438 -2.9721 0.9765
5.0853 0.7996 -2.9721 0.9765
4.9940 1.2491 -2.9721 0.9765
4.6934 2.1147 -2.9721 0.9765
4.4866 2.5241 -2.9721 0.9765
4.2441 2.9134 -2.9721 0.9765
3.9679 3.2796 -2.9721 0.9765
3.3236 3.9312 -2.9721 0.9765
2.9605 4.2114 -2.9721 0.9765
2.5739 4.4582 -2.9721 0.9765
1.7097 4.7521 -2.9158 0.9769
1.2487 4.7664 -2.8447 0.9775
0.3805 4.8690 -2.8197 0.9777
-0.4889 4.8594 -2.8197 0.9777
-1.3637 4.7693 -2.8639 0.9773
-2.2704 4.6201 -2.9721 0.9765
-3.4103 3.8561 -2.9721 0.9765
-3.7400 3.5373 -2.9721 0.9765
-4.0400 3.1904 -2.9721 0.9765
-4.3079 2.8181 -2.9721 0.9765
-4.7394 2.0097 -2.9721 0.9765
-4.8994 1.5799 -2.9721 0.9765
-5.0206 1.1375 -2.9721 0.9765
-5.1019 0.6862 -2.9721 0.9765
-5.1019 -0.6861 -2.9721 0.9765
-4.8994 -1.5799 -2.9721 0.9765
-4.5417 -2.4235 -2.9721 0.9765
-4.3079 -2.8181 -2.9721 0.9765
-3.7400 -3.5373 -2.9721 0.9765
-3.0536 -4.1443 -2.9721 0.9765
-2.2704 -4.6201 -2.9721 0.9765
-1.8502 -4.8038 -2.9721 0.9765
-1.4153 -4.9495 -2.9721 0.9765
-0.9691 -5.0558 -2.9721 0.9765
-0.5153 -5.1220 -2.9721 0.9765
-0.0573 -5.1475 -2.9721 0.9765
0.4010 -5.1321 -2.9721 0.9765
1.3046 -4.9797 -2.9721 0.9765
2.9605 -4.2113 -2.9721 0.9765
3.3236 -3.9311 -2.9721 0.9765
3.6603 -3.6197 -2.9721 0.9765
4.4865 -2.5241 -2.9721 0.9765
4.6934 -2.1147 -2.9721 0.9765
4.8630 -1.6886 -2.9721 0.9765
4.9940 -1.2491 -2.9721 0.9765
5.0853 -0.7996 -2.9721 0.9765
5.1363 -0.3438 -2.9721 0.9765
5.1466 0.1147 -2.9721 0.9765
5.1159 0.5723 -2.9721 0.9765
5.0447 1.0254 -2.9721 0.9765
4.9334 1.4703 -2.9721 0.9765
4.7829 1.9036 -2.9721 0.9765
3.4954 3.7792 -2.9721 0.9765
3.1452 4.0753 -2.9721 0.9765
2.7700 4.3391 -2.9721 0.9765
1.4765 4.7598 -2.8772 0.9772
1.0273 4.7806 -2.8231 0.9777
0.1632 4.8812 -2.8197 0.9777
-0.2719 4.8763 -2.8197 0.9777
-1.5947 4.7632 -2.9001 0.9771
-2.0623 4.7167 -2.9721 0.9765
-2.4740 4.5144 -2.9721 0.9765
-3.2352 4.0042 -2.9721 0.9765
-3.5787 3.7004 -2.9721 0.9765
-3.8939 3.3672 -2.9721 0.9765
-4.1781 3.0072 -2.9721 0.9765
-4.4292 2.6234 -2.9721 0.9765
-4.6451 2.2188 -2.9721 0.9765
-4.8242 1.7966 -2.9721 0.9765
-4.9649 1.3601 -2.9721 0.9765
-5.0663 0.9127 -2.9721 0.9765
-5.1274 0.4582 -2.9721 0.9765
