ply
format ascii 1.0
element vertex 1650
property float32 x
property float32 y
property float32 z
property float32 I
end_header
9.0973 -6.8606 1.6207 0.9550
9.5695 -5.9599 1.6035 0.9555
9.0399 -7.4716 1.4697 0.9538
8.9999 -6.1781 1.3680 0.9569
8.6840 -6.5489 1.1797 0.9572
9.1782 -5.7162 1.1728 0.9574
8.7042 -7.1942 1.2249 0.9556
8.8624 -6.0837 1.1660 0.9577
9.6763 -5.4438 1.2043 0.9563
8.5739 -6.4659 0.9845 0.9578
8.7598 -6.0132 0.9741 0.9582
9.5209 -5.3564 1.0015 0.9571
8.8633 -8.0164 0.8956 0.9532
8.4885 -6.4015 0.7967 0.9583
8.9751 -5.5898 0.7924 0.9585
8.6776 -5.9568 0.7888 0.9587
8.4317 -6.3587 0.6151 0.9586
8.6242 -5.9202 0.6093 0.9590
9.3414 -5.2554 0.6243 0.9580
8.4404 -7.6339 0.4732 0.9555
9.9064 -5.0059 0.4615 0.9565
8.2944 -6.8555 0.4474 0.9578
8.5796 -5.8896 0.4327 0.9592
-3.9042 7.1242 0.3378 0.9680
8.3593 -6.3041 0.2611 0.9590
8.2633 -6.8298 0.2674 0.9580
8.5548 -5.8725 0.2588 0.9593
9.2509 -5.2044 0.2647 0.9584
8.3558 -7.5574 0.0936 0.9559
8.8254 -5.4965 0.0864 0.9593
9.8206 -4.9626 0.0915 0.9569
8.5404 -5.8627 0.0861 0.9594
-3.9032 7.1224 0.0675 0.9680
8.3411 -6.2903 -0.0868 0.9591
9.8149 -4.9597 -0.0914 0.9570
8.2430 -6.8130 -0.0889 0.9581
8.5371 -5.8604 -0.0861 0.9594
-3.9027 7.1215 -0.0675 0.9680
8.8367 -5.5036 -0.2596 0.9592
8.2588 -6.8261 -0.2672 0.9580
9.2461 -5.2018 -0.2646 0.9584
8.8562 -5.5157 -0.4338 0.9591
8.2821 -6.8453 -0.4468 0.9579
8.5685 -5.8820 -0.4321 0.9592
9.2705 -5.2155 -0.4423 0.9583
-3.9017 7.1197 -0.3376 0.9680
8.5355 -7.7199 -0.6703 0.9549
8.9038 -5.5454 -0.6109 0.9588
9.9791 -5.0427 -0.6512 0.9562
8.6123 -5.9120 -0.6084 0.9590
-3.9012 7.1188 -0.4728 0.9680
8.4677 -6.3858 -0.7948 0.9584
10.1009 -5.1042 -0.8481 0.9556
8.3980 -6.9412 -0.8165 0.9572
9.3889 -5.2821 -0.8073 0.9577
8.5519 -6.4493 -0.9820 0.9579
10.3185 -5.2142 -1.0599 0.9546
8.5113 -7.0347 -1.0123 0.9566
8.7383 -5.9985 -0.9717 0.9583
9.4937 -5.3411 -0.9986 0.9572
9.1420 -5.6937 -1.1682 0.9576
8.8290 -6.0608 -1.1616 0.9578
9.6259 -5.4155 -1.1980 0.9565
-3.8997 7.1161 -0.8802 0.9679
9.2903 -5.7860 -1.3716 0.9568
8.9646 -6.1538 -1.3626 0.9571
9.8388 -5.5352 -1.4147 0.9555
-3.8992 7.1151 -1.0168 0.9678
-3.8987 7.1142 -1.1539 0.9678
9.9337 -6.1868 -1.8635 0.9537
9.4933 -6.5168 -1.8336 0.9544
-3.8982 7.1133 -1.2916 0.9677
1.1462 14.6683 -2.8472 0.9418
-7.5777 12.4747 -2.8246 0.9423
-10.5749 10.0017 -2.8168 0.9424
-12.1628 7.9566 -2.8126 0.9425
-12.8149 6.8383 -2.8109 0.9425
-13.3658 5.6676 -2.8094 0.9426
-2.1171 14.5157 -2.8388 0.9420
-3.3966 14.2530 -2.8354 0.9421
-4.6464 13.8782 -2.8322 0.9421
-5.8567 13.3946 -2.8290 0.9422
-3.8972 7.1114 -1.5693 0.9675
-10.1231 10.4673 -2.8179 0.9424
-11.0056 9.5169 -2.8156 0.9424
-11.8002 8.4933 -2.8135 0.9425
-12.5012 7.4045 -2.8117 0.9425
-13.6019 5.0655 -2.8088 0.9426
-13.9853 -1.2497 -2.9601 0.9442
-13.8204 -2.4899 -2.9605 0.9442
-13.5471 -3.7109 -2.9612 0.9442
-13.1674 -4.9036 -2.9622 0.9442
-11.4212 -8.2205 -2.9667 0.9441
-8.8632 -10.9701 -2.9732 0.9440
-7.8585 -11.7257 -2.9758 0.9439
-5.6658 -12.9579 -2.9815 0.9438
-3.2853 -13.7856 -2.9877 0.9437
0.4751 -14.2099 -2.9974 0.9435
2.9936 -13.9309 -3.0039 0.9434
5.4275 -13.2071 -3.0103 0.9433
8.7490 -11.3364 -3.0189 0.9431
11.4600 -8.6423 -3.0260 0.9430
12.8259 -6.4812 -3.0296 0.9429
13.3580 -5.3163 -3.0310 0.9429
13.7833 -4.1078 -3.0321 0.9429
14.0981 -2.8655 -3.0329 0.9429
14.2998 -1.5996 -3.0335 0.9429
14.3577 0.9612 -3.0337 0.9429
14.2136 2.2350 -3.0333 0.9429
13.9552 3.4905 -3.0327 0.9429
12.4393 5.6049 -2.8764 0.9458
11.8852 6.6865 -2.8750 0.9458
11.2364 7.7134 -2.8733 0.9458
9.6772 9.5701 -2.8693 0.9459
8.7800 10.3850 -2.8670 0.9459
6.7873 11.7560 -2.8618 0.9460
4.5863 12.7478 -2.8561 0.9461
2.2486 13.3307 -2.8501 0.9462
-1.3488 13.4071 -2.8407 0.9464
-3.6966 12.9277 -2.8346 0.9465
-4.8275 12.5344 -2.8317 0.9466
-5.9180 12.0429 -2.8289 0.9466
-8.8653 10.0242 -2.8212 0.9468
-9.7147 9.1881 -2.8190 0.9468
-10.4864 8.2811 -2.8170 0.9468
-11.1747 7.3102 -2.8152 0.9469
-11.7744 6.2830 -2.8136 0.9469
-13.3710 4.3117 -2.9618 0.9442
-14.0266 -0.6254 -2.9600 0.9442
-13.9165 -1.8715 -2.9603 0.9442
-12.9384 -5.4863 -2.9628 0.9442
-12.4045 -6.6192 -2.9641 0.9441
-11.7725 -7.7012 -2.9658 0.9441
-10.2342 -9.6794 -2.9697 0.9440
-8.3694 -11.3589 -2.9745 0.9440
-7.3317 -12.0696 -2.9772 0.9439
-5.0855 -13.2040 -2.9830 0.9438
-0.1583 -14.2092 -2.9958 0.9436
3.6131 -13.7911 -3.0056 0.9434
6.0135 -12.9588 -3.0118 0.9433
8.2317 -11.7096 -3.0176 0.9432
13.1051 -5.9048 -3.0303 0.9429
13.5843 -4.7169 -3.0316 0.9429
13.9547 -3.4903 -3.0326 0.9429
14.2132 -2.2349 -3.0332 0.9429
14.3576 -0.9611 -3.0336 0.9429
14.3000 1.5997 -3.0335 0.9429
14.0985 2.8657 -3.0330 0.9429
12.6794 5.0463 -2.8770 0.9457
10.0977 9.1329 -2.8704 0.9459
9.2377 9.9877 -2.8681 0.9459
7.3077 11.4474 -2.8632 0.9460
6.2539 12.0409 -2.8604 0.9460
4.0118 12.9327 -2.8546 0.9462
1.6516 13.4104 -2.8485 0.9463
0.4510 13.4894 -2.8454 0.9463
-0.7506 13.4612 -2.8423 0.9464
-3.1187 13.0865 -2.8361 0.9465
-4.2665 12.7436 -2.8332 0.9465
-5.3784 12.3007 -2.8303 0.9466
-3.8966 7.1105 -1.7094 0.9674
-9.2993 9.6155 -2.8201 0.9468
-10.1106 8.7430 -2.8179 0.9468
-10.8413 7.8032 -2.8160 0.9469
-12.0396 5.7509 -2.8129 0.9469
-13.8208 2.4900 -2.9606 0.9442
-13.9855 1.2498 -2.9602 0.9442
-12.9807 0.0000 -2.9627 0.9481
-12.9296 -1.1554 -2.9629 0.9481
-12.5242 -3.4307 -2.9639 0.9481
-12.1728 -4.5332 -2.9648 0.9481
-11.1857 -6.6253 -2.9673 0.9481
-10.5574 -7.5987 -2.9689 0.9480
-9.0546 -9.3623 -2.9728 0.9480
-6.2745 -11.4495 -2.9800 0.9478
-5.2352 -11.9732 -2.9826 0.9478
-3.0352 -12.7361 -2.9883 0.9477
-1.8914 -12.9685 -2.9913 0.9476
0.4388 -13.1248 -2.9973 0.9475
2.7645 -12.8649 -3.0034 0.9474
3.9024 -12.5802 -3.0063 0.9474
6.0826 -11.7110 -3.0120 0.9473
7.1071 -11.1330 -3.0147 0.9473
8.0765 -10.4650 -3.0172 0.9472
8.9829 -9.7122 -3.0196 0.9472
9.8188 -8.8806 -3.0217 0.9471
10.5772 -7.9766 -3.0237 0.9471
11.2517 -7.0076 -3.0255 0.9471
11.8368 -5.9814 -3.0270 0.9470
12.3274 -4.9062 -3.0283 0.9470
12.7195 -3.7908 -3.0293 0.9470
13.0098 -2.6443 -3.0301 0.9470
13.1957 -1.4761 -3.0306 0.9470
13.2491 0.8869 -3.0308 0.9470
12.8780 3.2210 -3.0299 0.9470
8.9324 8.8335 -2.8673 0.9498
6.2662 10.8534 -2.8604 0.9499
2.0766 12.3111 -2.8496 0.9501
-0.1388 12.4590 -2.8439 0.9502
-2.3409 12.2124 -2.8381 0.9503
-3.4152 11.9439 -2.8354 0.9503
-4.4605 11.5814 -2.8326 0.9504
-5.4685 11.1281 -2.8300 0.9504
-7.3422 9.9650 -2.8251 0.9505
-11.3555 4.8153 -2.8153 0.9507
-12.3612 3.9860 -2.9644 0.9481
-12.6635 2.8692 -2.9636 0.9481
-12.9680 0.5783 -2.9628 0.9481
-12.8660 -1.7303 -2.9630 0.9481
-11.4670 -6.1189 -2.9666 0.9481
-10.8823 -7.1188 -2.9681 0.9480
-10.2114 -8.0639 -2.9698 0.9480
-8.6317 -9.7600 -2.9739 0.9479
-5.7608 -11.7228 -2.9813 0.9478
-2.4660 -12.8650 -2.9898 0.9477
2.1876 -12.9688 -3.0019 0.9475
3.3365 -12.7353 -3.0049 0.9474
7.5992 -10.8099 -3.0159 0.9472
8.5381 -10.0989 -3.0184 0.9472
10.2081 -8.4372 -3.0228 0.9471
12.8776 -3.2209 -3.0298 0.9470
13.2757 0.2959 -3.0309 0.9470
13.1959 1.4762 -3.0307 0.9470
13.0102 2.6444 -3.0302 0.9470
12.7201 3.7910 -3.0295 0.9470
11.2355 5.6776 -2.8732 0.9497
10.6803 6.6518 -2.8718 0.9497
9.3203 8.4297 -2.8683 0.9497
8.5270 9.2193 -2.8663 0.9498
7.6666 9.9339 -2.8641 0.9498
6.7464 10.5681 -2.8617 0.9499
4.7572 11.5760 -2.8565 0.9499
3.7045 11.9421 -2.8538 0.9500
-0.6933 12.4342 -2.8424 0.9502
-1.7955 12.3107 -2.8396 0.9502
-4.9696 11.3658 -2.8313 0.9504
-6.8939 10.2864 -2.8263 0.9505
-9.3453 8.0813 -2.8199 0.9506
-10.0212 7.2129 -2.8181 0.9506
-10.6176 6.2888 -2.8166 0.9506
-12.7774 2.3020 -2.9633 0.9481
-12.9298 1.1555 -2.9629 0.9481
-12.0632 0.0000 -2.9651 0.9515
-11.8739 -2.1391 -2.9656 0.9515
-11.3119 -4.2126 -2.9670 0.9515
-10.8960 -5.2045 -2.9681 0.9515
-10.3940 -6.1563 -2.9694 0.9515
-9.1476 -7.9102 -2.9726 0.9514
-8.4126 -8.6985 -2.9745 0.9514
-6.7468 -10.0668 -2.9788 0.9513
-3.8571 -11.5204 -2.9862 0.9512
-2.8189 -11.8287 -2.9889 0.9511
-0.6782 -12.1636 -2.9945 0.9511
2.5666 -11.9441 -3.0029 0.9509
4.6521 -11.3201 -3.0083 0.9508
5.6460 -10.8705 -3.0109 0.9508
6.5966 -10.3333 -3.0134 0.9508
9.1120 -8.2413 -3.0199 0.9507
11.4383 -4.5523 -3.0260 0.9506
12.3174 -0.2745 -3.0284 0.9505
12.1695 1.9136 -3.0280 0.9505
11.6322 4.0391 -3.0267 0.9505
10.1781 5.7261 -2.8705 0.9530
9.6232 6.6061 -2.8691 0.9531
8.9920 7.4321 -2.8675 0.9531
8.2896 8.1978 -2.8657 0.9531
6.6951 9.5239 -2.8615 0.9532
1.9280 11.4301 -2.8492 0.9534
0.9022 11.5456 -2.8465 0.9534
-1.1570 11.5010 -2.8412 0.9535
-2.1740 11.3418 -2.8386 0.9535
-4.1431 10.7572 -2.8334 0.9536
-7.6124 8.6075 -2.8244 0.9538
-9.5983 6.2789 -2.8192 0.9539
-11.4871 3.7041 -2.9667 0.9515
-11.7682 2.6664 -2.9659 0.9515
-11.9568 1.6081 -2.9654 0.9515
-12.0514 0.5374 -2.9652 0.9515
-12.0513 -0.5373 -2.9651 0.9515
-11.9566 -1.6080 -2.9654 0.9515
-11.4866 -3.7039 -2.9666 0.9515
-11.1149 -4.7131 -2.9675 0.9515
-10.6555 -5.6859 -2.9687 0.9515
-10.1119 -6.6148 -2.9701 0.9514
-8.7889 -8.3124 -2.9735 0.9514
-8.0195 -9.0678 -2.9755 0.9514
-1.2188 -12.1156 -2.9931 0.9511
2.0311 -12.0410 -3.0015 0.9509
3.0976 -11.8233 -3.0043 0.9509
6.1272 -10.6126 -3.0121 0.9508
7.0531 -10.0332 -3.0145 0.9507
7.9241 -9.3726 -3.0168 0.9507
10.1381 -6.9594 -3.0226 0.9506
10.7228 -6.0325 -3.0241 0.9506
11.2220 -5.0563 -3.0254 0.9506
11.6316 -4.0389 -3.0265 0.9505
11.9483 -2.9884 -3.0274 0.9505
12.2926 -0.8229 -3.0283 0.9505
12.0712 2.4536 -3.0278 0.9505
11.8022 3.5175 -3.0271 0.9505
8.6493 7.8229 -2.8666 0.9531
7.1154 9.2198 -2.8626 0.9532
4.4160 10.7458 -2.8556 0.9533
2.4364 11.3381 -2.8505 0.9534
1.4163 11.4993 -2.8479 0.9534
-0.6438 11.5466 -2.8425 0.9535
-4.6161 10.5574 -2.8322 0.9536
-3.8956 7.1086 -1.9925 0.9672
-6.4043 9.5560 -2.8276 0.9537
-7.2240 8.9413 -2.8254 0.9538
-7.9855 8.2570 -2.8234 0.9538
-9.3115 6.7021 -2.8200 0.9538
-11.6391 3.1883 -2.9663 0.9515
-11.2608 0.0000 -2.9672 0.9545
-11.2164 -1.0022 -2.9673 0.9545
-10.8642 -2.9760 -2.9682 0.9545
-10.5590 -3.9322 -2.9690 0.9545
-9.1560 -6.5901 -2.9726 0.9544
-8.5377 -7.3828 -2.9741 0.9544
-7.1022 -8.7905 -2.9778 0.9543
-6.2961 -9.3943 -2.9799 0.9543
-5.4390 -9.9248 -2.9821 0.9543
-4.5375 -10.3776 -2.9845 0.9542
-2.6300 -11.0359 -2.9894 0.9542
1.3916 -11.2992 -2.9998 0.9540
2.3939 -11.1401 -3.0024 0.9540
3.3788 -10.8921 -3.0050 0.9539
4.3384 -10.5569 -3.0075 0.9539
6.1511 -9.6355 -3.0122 0.9538
6.9894 -9.0563 -3.0144 0.9538
7.7730 -8.4040 -3.0164 0.9538
8.4954 -7.6836 -3.0183 0.9537
9.1508 -6.9009 -3.0200 0.9537
11.0015 -3.2788 -3.0249 0.9536
11.2521 -2.2870 -3.0256 0.9536
11.4126 -1.2767 -3.0260 0.9536
11.4817 -0.2558 -3.0262 0.9536
11.3440 1.7838 -3.0259 0.9536
11.1383 2.7859 -3.0253 0.9536
10.4619 4.7140 -3.0236 0.9536
7.7288 7.6432 -2.8642 0.9560
7.0133 8.2954 -2.8623 0.9561
4.5624 9.8318 -2.8560 0.9562
3.6662 10.1905 -2.8537 0.9562
2.7424 10.4676 -2.8513 0.9562
1.7983 10.6610 -2.8489 0.9563
0.8415 10.7694 -2.8464 0.9563
-1.0794 10.7291 -2.8414 0.9564
-2.0283 10.5813 -2.8389 0.9564
-3.8657 10.0371 -2.8342 0.9565
-3.6229 7.3723 -2.1645 0.9666
-7.1043 8.0330 -2.8257 0.9566
-8.4059 6.6381 -2.8223 0.9567
-11.1613 1.5011 -2.9675 0.9545
-11.2497 0.5017 -2.9672 0.9545
-10.9849 -2.4888 -2.9679 0.9545
-10.7222 -3.4574 -2.9685 0.9545
-10.3750 -4.3993 -2.9694 0.9545
-9.9459 -5.3072 -2.9705 0.9544
-9.4382 -6.1742 -2.9718 0.9544
-8.8557 -6.9932 -2.9733 0.9544
-8.2027 -7.7580 -2.9750 0.9544
-7.4843 -8.4626 -2.9769 0.9543
-5.8735 -9.6690 -2.9810 0.9543
-4.9934 -10.1612 -2.9833 0.9542
-4.0724 -10.5737 -2.9857 0.9542
-2.1367 -11.1469 -2.9907 0.9541
-1.1370 -11.3026 -2.9933 0.9541
-0.1267 -11.3689 -2.9959 0.9541
5.7136 -9.8962 -3.0111 0.9538
6.5767 -9.3554 -3.0133 0.9538
7.3884 -8.7390 -3.0154 0.9538
9.4516 -6.4881 -3.0208 0.9537
10.8430 -3.7651 -3.0245 0.9536
11.1379 -2.7858 -3.0253 0.9536
11.4587 -0.7670 -3.0261 0.9536
11.2524 2.2872 -3.0256 0.9536
10.6633 4.2440 -3.0241 0.9536
9.7188 4.9112 -2.8693 0.9560
7.3783 7.9774 -2.8633 0.9560
5.8389 9.1465 -2.8593 0.9561
4.9978 9.6225 -2.8571 0.9561
4.1182 10.0212 -2.8549 0.9562
2.2724 10.5749 -2.8501 0.9562
0.3608 10.7914 -2.8451 0.9563
-0.6006 10.7713 -2.8426 0.9564
-2.4965 10.4760 -2.8377 0.9564
-3.8716 7.0647 -2.1228 0.9672
-7.4527 7.7061 -2.8248 0.9566
-8.1041 7.0079 -2.8231 0.9566
-8.6910 6.2554 -2.8216 0.9567
-9.2088 5.4544 -2.8202 0.9567
-10.8646 2.9762 -2.9683 0.9545
-11.2166 1.0024 -2.9673 0.9545
-9.0908 -5.3845 -2.9727 0.9570
-8.5793 -6.1749 -2.9741 0.9570
-3.3711 -10.0689 -2.9875 0.9568
-1.5349 -10.5237 -2.9923 0.9568
0.3560 -10.6466 -2.9972 0.9567
1.3032 -10.5813 -2.9996 0.9567
2.2417 -10.4318 -3.0021 0.9566
4.0621 -9.8846 -3.0068 0.9566
6.5433 -8.4784 -3.0132 0.9565
7.9526 -7.1926 -3.0169 0.9564
9.5838 -4.8429 -3.0212 0.9564
10.6817 -1.1949 -3.0241 0.9563
10.7248 0.7180 -3.0242 0.9563
10.6174 1.6695 -3.0240 0.9563
10.4250 2.6075 -3.0235 0.9563
10.1492 3.5242 -3.0228 0.9563
9.7923 4.4122 -3.0219 0.9564
7.8475 6.4861 -2.8645 0.9586
6.5655 7.7658 -2.8612 0.9586
5.0778 8.7950 -2.8573 0.9587
4.2717 9.2053 -2.8552 0.9587
2.5679 9.8017 -2.8508 0.9588
1.6840 9.9833 -2.8485 0.9588
0.7881 10.0854 -2.8462 0.9588
-1.0109 10.0488 -2.8416 0.9589
-1.8998 9.9109 -2.8393 0.9589
-3.6212 9.4022 -2.8348 0.9590
-5.2232 8.5985 -2.8306 0.9591
-6.6562 7.5263 -2.8269 0.9591
-7.8762 6.2198 -2.8237 0.9592
-8.3945 5.4915 -2.8223 0.9592
-9.7225 4.1228 -2.9713 0.9571
-10.5422 -0.4701 -2.9691 0.9571
-10.2940 -2.3323 -2.9697 0.9571
-10.0476 -3.2399 -2.9703 0.9571
-9.7221 -4.1225 -2.9711 0.9571
-9.3198 -4.9732 -2.9722 0.9571
-8.8438 -5.7853 -2.9734 0.9570
-7.6856 -7.2690 -2.9764 0.9570
-7.0122 -7.9288 -2.9781 0.9570
-5.5025 -9.0583 -2.9820 0.9569
-4.6778 -9.5189 -2.9841 0.9569
-3.8148 -9.9049 -2.9864 0.9569
-1.0650 -10.5860 -2.9935 0.9568
-0.1186 -10.6475 -2.9959 0.9567
0.8302 -10.6245 -2.9984 0.9567
1.7740 -10.5170 -3.0008 0.9566
2.7052 -10.3257 -3.0033 0.9566
4.5001 -9.6975 -3.0079 0.9565
5.3493 -9.2653 -3.0101 0.9565
6.1571 -8.7585 -3.0122 0.9565
7.6221 -7.5376 -3.0161 0.9564
8.8472 -6.0732 -3.0193 0.9564
9.7918 -4.4119 -3.0217 0.9564
10.1488 -3.5240 -3.0227 0.9563
10.4247 -2.6074 -3.0234 0.9563
10.6172 -1.6694 -3.0239 0.9563
10.6818 1.1950 -3.0241 0.9563
10.2974 3.0690 -3.0232 0.9563
9.9807 3.9723 -3.0224 0.9563
8.6482 5.3862 -2.8665 0.9585
8.1307 6.1317 -2.8652 0.9586
7.5487 6.8274 -2.8637 0.9586
6.9071 7.4679 -2.8621 0.9586
5.4665 8.5631 -2.8583 0.9587
4.6793 9.0092 -2.8563 0.9587
-0.5625 10.0880 -2.8427 0.9589
-1.4570 9.9897 -2.8404 0.9589
-2.3384 9.8125 -2.8381 0.9590
-3.2000 9.5579 -2.8359 0.9590
-4.0349 9.2280 -2.8337 0.9590
-3.8416 7.0100 -2.2490 0.9673
-6.3163 7.8178 -2.8278 0.9591
-6.9827 7.2201 -2.8260 0.9591
-7.5933 6.5662 -2.8244 0.9591
-8.1435 5.8613 -2.8230 0.9592
-9.8950 3.6850 -2.9708 0.9571
-10.1811 2.7890 -2.9701 0.9571
-8.5476 -5.0627 -2.9742 0.9594
-8.0664 -5.8058 -2.9754 0.9594
-7.5212 -6.5038 -2.9768 0.9593
-6.2557 -7.7427 -2.9801 0.9593
-5.5451 -8.2739 -2.9819 0.9593
-4.7898 -8.7403 -2.9838 0.9592
-3.9956 -9.1382 -2.9859 0.9592
-3.1687 -9.4644 -2.9880 0.9592
-2.3154 -9.7160 -2.9902 0.9592
-1.4426 -9.8910 -2.9925 0.9591
-0.5569 -9.9878 -2.9948 0.9591
1.2247 -9.9436 -2.9994 0.9590
2.1065 -9.8026 -3.0017 0.9590
2.9728 -9.5834 -3.0040 0.9590
3.8168 -9.2876 -3.0062 0.9589
5.4105 -8.4753 -3.0103 0.9589
7.4707 -6.7568 -3.0157 0.9588
9.3746 -3.7310 -3.0207 0.9587
10.0330 -1.1223 -3.0224 0.9587
10.0937 -0.2249 -3.0226 0.9587
9.9727 1.5682 -3.0223 0.9587
9.7921 2.4492 -3.0219 0.9587
7.8885 5.4152 -2.8646 0.9608
6.1680 7.2956 -2.8601 0.9609
4.7707 8.2632 -2.8565 0.9609
4.0136 8.6491 -2.8546 0.9610
1.5824 9.3814 -2.8483 0.9611
-0.1058 9.4987 -2.8439 0.9611
-0.9501 9.4443 -2.8417 0.9611
-1.7856 9.3151 -2.8395 0.9612
-2.6056 9.1125 -2.8374 0.9612
-3.5642 7.2529 -2.4194 0.9668
-4.9101 8.0832 -2.8314 0.9613
-6.8588 6.4871 -2.8263 0.9613
-7.4052 5.8479 -2.8249 0.9614
-7.8928 5.1633 -2.8236 0.9614
-8.7634 4.6763 -2.9738 0.9594
-9.8351 1.3227 -2.9709 0.9594
-9.9130 -0.4420 -2.9707 0.9594
-9.8349 -1.3226 -2.9709 0.9594
-9.6794 -2.1930 -2.9713 0.9594
-9.1414 -3.8762 -2.9726 0.9594
-8.7630 -4.6760 -2.9736 0.9594
-8.3152 -5.4395 -2.9748 0.9594
-7.8015 -6.1608 -2.9761 0.9593
-7.2258 -6.8341 -2.9776 0.9593
-6.5925 -7.4542 -2.9792 0.9593
-4.3972 -8.9480 -2.9849 0.9592
-3.5859 -9.3104 -2.9870 0.9592
-2.7450 -9.5997 -2.9891 0.9592
-1.8810 -9.8132 -2.9914 0.9591
-1.0009 -9.9492 -2.9937 0.9591
-0.1115 -10.0066 -2.9960 0.9591
1.6671 -9.8829 -3.0006 0.9590
2.5420 -9.7027 -3.0028 0.9590
3.3980 -9.4449 -3.0051 0.9590
5.0259 -8.7051 -3.0093 0.9589
5.7845 -8.2286 -3.0113 0.9589
6.4980 -7.6858 -3.0131 0.9588
8.7891 -4.9447 -3.0191 0.9588
9.1976 -4.1442 -3.0202 0.9588
9.5328 -3.3101 -3.0211 0.9587
9.9725 -1.5681 -3.0223 0.9587
10.0734 -0.6743 -3.0225 0.9587
10.0937 0.2249 -3.0226 0.9587
9.8923 2.0107 -3.0221 0.9587
9.6723 2.8827 -3.0215 0.9587
9.3750 3.7312 -3.0208 0.9587
9.0028 4.5494 -3.0198 0.9588
8.1236 5.0595 -2.8652 0.9608
7.0913 6.4137 -2.8625 0.9609
6.4888 7.0156 -2.8610 0.9609
5.8351 7.5608 -2.8593 0.9609
4.3964 8.4646 -2.8556 0.9610
3.6230 8.8162 -2.8536 0.9610
2.8219 9.0970 -2.8515 0.9610
1.1625 9.4390 -2.8472 0.9611
0.3175 9.4976 -2.8450 0.9611
-0.5286 9.4809 -2.8428 0.9611
-1.3693 9.3890 -2.8406 0.9612
-3.0078 8.9840 -2.8364 0.9612
-3.7928 8.6744 -2.8343 0.9612
-3.8317 6.9919 -2.3869 0.9673
-5.2636 7.8539 -2.8305 0.9613
-6.5648 6.7880 -2.8271 0.9613
-7.1391 6.1735 -2.8256 0.9614
-8.1151 4.8067 -2.8237 0.9614
-8.9615 4.2806 -2.9732 0.9594
-9.3586 0.0000 -2.9721 0.9615
-9.3217 -0.8330 -2.9722 0.9615
-9.0285 -2.4731 -2.9730 0.9615
-8.7745 -3.2676 -2.9736 0.9615
-8.4512 -4.0367 -2.9744 0.9615
-8.0610 -4.7745 -2.9754 0.9614
-7.6071 -5.4752 -2.9766 0.9614
-6.5219 -6.7435 -2.9794 0.9614
-5.2287 -7.8018 -2.9827 0.9614
-4.5164 -8.2413 -2.9846 0.9613
-1.3600 -9.3247 -2.9927 0.9612
2.8020 -9.0328 -3.0035 0.9611
3.5973 -8.7536 -3.0056 0.9611
4.3651 -8.4042 -3.0076 0.9610
5.7932 -7.5064 -3.0113 0.9610
6.4419 -6.9649 -3.0130 0.9610
7.0399 -6.3672 -3.0146 0.9609
8.0644 -5.0225 -3.0172 0.9609
9.3204 -1.8944 -3.0206 0.9609
9.4532 -1.0575 -3.0209 0.9609
8.6668 3.9051 -3.0190 0.9609
8.2822 4.6595 -3.0180 0.9609
6.9466 5.7415 -2.8621 0.9629
6.4048 6.3339 -2.8607 0.9629
3.7827 8.1516 -2.8540 0.9630
0.6981 8.9341 -2.8460 0.9631
-0.8957 8.9034 -2.8418 0.9631
-1.6834 8.7820 -2.8398 0.9632
-3.2093 8.3327 -2.8358 0.9632
-3.5469 7.2177 -2.5540 0.9668
-5.9009 6.6723 -2.8288 0.9633
-6.4680 6.1174 -2.8273 0.9633
-7.4434 4.8693 -2.8248 0.9634
-8.2647 4.4102 -2.9751 0.9614
-9.2758 1.2475 -2.9724 0.9615
-9.3494 0.4170 -2.9722 0.9615
-9.3494 -0.4169 -2.9722 0.9615
-9.1290 -2.0683 -2.9727 0.9615
-8.9103 -2.8732 -2.9733 0.9615
-7.8418 -5.1299 -2.9760 0.9614
-6.8141 -6.4447 -2.9786 0.9614
-5.5694 -7.5589 -2.9818 0.9614
-4.8775 -8.0294 -2.9836 0.9613
-3.3809 -8.7784 -2.9875 0.9613
-2.5880 -9.0506 -2.9896 0.9613
1.5714 -9.3157 -3.0003 0.9611
2.3960 -9.1454 -3.0025 0.9611
3.2027 -8.9021 -3.0046 0.9611
3.9850 -8.5875 -3.0066 0.9610
4.7366 -8.2040 -3.0086 0.9610
6.1236 -7.2429 -3.0122 0.9610
6.7476 -6.6728 -3.0138 0.9610
7.3183 -6.0487 -3.0153 0.9609
7.8311 -5.3757 -3.0166 0.9609
8.2817 -4.6592 -3.0178 0.9609
8.6665 -3.9049 -3.0188 0.9609
8.9821 -3.1189 -3.0197 0.9609
9.3962 -1.4774 -3.0208 0.9609
9.4913 -0.6353 -3.0210 0.9609
9.5103 0.2120 -3.0211 0.9609
9.4533 1.0575 -3.0210 0.9609
9.1135 2.7161 -3.0201 0.9609
8.8334 3.5157 -3.0194 0.9609
7.1971 5.4275 -2.8628 0.9629
6.6823 6.0438 -2.8614 0.9629
5.4990 7.1253 -2.8584 0.9629
4.8401 7.5819 -2.8567 0.9630
3.4147 8.3092 -2.8530 0.9630
1.0958 8.8974 -2.8470 0.9631
0.2993 8.9531 -2.8449 0.9631
-0.4984 8.9377 -2.8429 0.9631
-1.2909 8.8515 -2.8408 0.9632
-3.5761 8.1788 -2.8349 0.9632
-4.9632 7.4057 -2.8313 0.9633
-7.2206 5.1971 -2.8254 0.9634
-8.0488 4.7674 -2.9709 0.9615
-8.4515 4.0370 -2.9746 0.9615
-9.3218 0.8330 -2.9723 0.9615
-8.8501 0.0001 -2.9735 0.9633
-8.8152 -0.7877 -2.9735 0.9633
-8.5378 -2.3387 -2.9742 0.9633
-8.2975 -3.0900 -2.9748 0.9633
-7.9916 -3.8172 -2.9756 0.9633
-7.1931 -5.1773 -2.9777 0.9633
-5.5775 -6.9033 -2.9818 0.9632
-4.9437 -7.3764 -2.9835 0.9632
-1.2856 -8.8147 -2.9929 0.9631
0.2981 -8.9152 -2.9970 0.9631
1.0911 -8.8594 -2.9991 0.9630
2.6482 -8.5371 -3.0031 0.9630
3.3998 -8.2728 -3.0051 0.9630
4.1252 -7.9424 -3.0070 0.9629
5.4745 -7.0934 -3.0105 0.9629
6.6522 -6.0165 -3.0136 0.9629
7.1645 -5.4029 -3.0149 0.9628
8.0149 -4.0501 -3.0171 0.9628
8.6104 -2.5662 -3.0187 0.9628
8.9316 -0.9991 -3.0196 0.9628
8.9855 -0.2002 -3.0197 0.9628
8.7173 2.1804 -3.0191 0.9628
8.4869 2.9470 -3.0185 0.9628
8.1889 3.6898 -3.0177 0.9628
7.8256 4.4027 -3.0168 0.9628
5.4927 6.4968 -2.8584 0.9647
3.5749 7.7037 -2.8534 0.9648
2.8732 7.9862 -2.8516 0.9648
1.4098 8.3580 -2.8478 0.9649
0.6599 8.4446 -2.8459 0.9649
-0.0943 8.4640 -2.8439 0.9649
-0.8467 8.4162 -2.8420 0.9649
-1.5913 8.3018 -2.8400 0.9650
-3.5295 7.1824 -2.6888 0.9668
-4.9984 6.7840 -2.8312 0.9651
-7.8152 4.1704 -2.9762 0.9633
-8.1529 3.4572 -2.9753 0.9633
-8.4262 2.7171 -2.9746 0.9633
-8.6330 1.9560 -2.9741 0.9633
-8.8414 0.3943 -2.9735 0.9633
-8.8413 -0.3942 -2.9735 0.9633
-8.7716 -1.1797 -2.9736 0.9633
-8.6328 -1.9559 -2.9740 0.9633
-8.1526 -3.4570 -2.9752 0.9633
-7.4152 -4.8507 -2.9771 0.9633
-6.9568 -5.4937 -2.9783 0.9633
-6.4431 -6.0938 -2.9796 0.9633
-5.8780 -6.6463 -2.9811 0.9633
-5.2659 -7.1469 -2.9826 0.9632
-3.1963 -8.2990 -2.9880 0.9632
-2.4466 -8.5561 -2.9899 0.9631
-0.8920 -8.8663 -2.9940 0.9631
-0.0993 -8.9166 -2.9960 0.9631
0.6952 -8.8962 -2.9981 0.9630
1.4852 -8.8050 -3.0001 0.9630
6.3761 -6.3054 -3.0128 0.9629
6.9152 -5.7155 -3.0143 0.9629
8.1886 -3.6896 -3.0176 0.9628
8.9855 0.2003 -3.0197 0.9628
8.6107 2.5663 -3.0188 0.9628
7.5904 4.7274 -3.0044 0.9630
6.8005 5.1286 -2.8617 0.9647
5.7781 6.2473 -2.8591 0.9647
4.5739 7.1650 -2.8560 0.9648
3.9157 7.5392 -2.8543 0.9648
3.2272 7.8529 -2.8525 0.9648
1.7813 8.2897 -2.8488 0.9649
1.0357 8.4097 -2.8468 0.9649
-1.9589 8.2199 -2.8391 0.9650
-4.6926 7.0019 -2.8320 0.9651
-5.8534 6.0524 -2.8289 0.9651
-7.6229 4.5151 -2.9767 0.9633
-7.9920 3.8175 -2.9757 0.9633
-8.8152 0.7877 -2.9736 0.9633
-8.3891 0.0000 -2.9747 0.9650
-8.2571 -1.4876 -2.9750 0.9650
-7.8651 -2.9289 -2.9760 0.9650
-7.5751 -3.6183 -2.9767 0.9650
-7.2251 -4.2794 -2.9776 0.9650
-6.8180 -4.9072 -2.9787 0.9650
-5.8448 -6.0434 -2.9812 0.9649
-4.0467 -7.3843 -2.9858 0.9649
-2.6765 -7.9943 -2.9893 0.9649
-1.2182 -8.3528 -2.9931 0.9648
-0.4703 -8.4335 -2.9951 0.9648
0.2824 -8.4474 -2.9970 0.9648
1.0338 -8.3941 -2.9990 0.9647
1.7780 -8.2742 -3.0009 0.9647
2.5090 -8.0882 -3.0028 0.9647
3.2209 -7.8376 -3.0046 0.9647
3.9080 -7.5243 -3.0064 0.9647
5.1859 -6.7196 -3.0098 0.9646
5.7664 -6.2345 -3.0113 0.9646
6.3013 -5.6992 -3.0127 0.9646
6.7864 -5.1178 -3.0139 0.9646
7.2177 -4.4952 -3.0151 0.9646
7.5916 -3.8362 -3.0160 0.9645
7.9051 -3.1461 -3.0169 0.9645
8.1555 -2.4306 -3.0175 0.9645
8.3408 -1.6953 -3.0180 0.9645
8.4595 -0.9463 -3.0183 0.9645
8.0386 2.7913 -3.0173 0.9645
6.8988 4.7358 -2.9671 0.9651
6.2175 5.1390 -2.8602 0.9663
4.6323 6.5896 -2.8561 0.9664
3.3867 7.2983 -2.8529 0.9664
2.7221 7.5662 -2.8512 0.9664
2.0366 7.7736 -2.8494 0.9665
1.3358 7.9190 -2.8476 0.9665
0.6252 8.0013 -2.8458 0.9665
-0.8023 7.9750 -2.8421 0.9666
-2.8753 7.4654 -2.8367 0.9666
-4.7373 6.4296 -2.8318 0.9667
-7.4078 3.9530 -2.9773 0.9650
-7.7280 3.2770 -2.9764 0.9650
-8.3148 1.1183 -2.9749 0.9650
-8.3808 0.3738 -2.9747 0.9650
-8.3808 -0.3737 -2.9747 0.9650
-8.3147 -1.1182 -2.9748 0.9650
-7.9869 -2.5754 -2.9757 0.9650
-7.7277 -3.2768 -2.9763 0.9650
-6.5939 -5.2071 -2.9792 0.9650
-6.1068 -5.7757 -2.9805 0.9650
-5.5711 -6.2993 -2.9819 0.9649
-4.3705 -7.1947 -2.9850 0.9649
-3.7148 -7.5595 -2.9867 0.9649
-1.5886 -8.2875 -2.9922 0.9648
0.6587 -8.4291 -2.9980 0.9648
1.4072 -8.3425 -2.9999 0.9647
2.1455 -8.1894 -3.0018 0.9647
2.8677 -7.9709 -3.0037 0.9647
3.5679 -7.6886 -3.0055 0.9647
4.2406 -7.3448 -3.0073 0.9646
6.0398 -5.9728 -3.0120 0.9646
6.5503 -5.4140 -3.0133 0.9646
7.0090 -4.8114 -3.0145 0.9646
8.0383 -2.7912 -3.0172 0.9645
8.4086 -1.3221 -3.0182 0.9645
8.4935 -0.5685 -3.0184 0.9645
8.5106 0.1897 -3.0185 0.9645
8.4596 0.9464 -3.0184 0.9645
8.1557 2.4307 -3.0176 0.9645
6.4416 4.8579 -2.8608 0.9663
5.4734 5.9179 -2.8583 0.9664
4.9226 6.3784 -2.8569 0.9664
4.3330 6.7876 -2.8554 0.9664
3.7096 7.1422 -2.8538 0.9664
3.0574 7.4397 -2.8521 0.9664
1.6877 7.8541 -2.8485 0.9665
0.9814 7.9680 -2.8467 0.9665
0.2681 8.0186 -2.8448 0.9665
-0.4464 8.0054 -2.8430 0.9665
-1.1564 7.9287 -2.8411 0.9666
-2.5406 7.5884 -2.8376 0.9666
-3.2040 7.3278 -2.8358 0.9666
-5.0177 6.2105 -2.8311 0.9667
-5.5479 5.7365 -2.8297 0.9667
-6.0337 5.2176 -2.8285 0.9667
-6.6376 4.7775 -2.8999 0.9659
-8.2572 1.4876 -2.9750 0.9650
-7.1956 -3.4370 -2.9777 0.9665
-5.0209 -6.2144 -2.9833 0.9665
-2.5419 -7.5922 -2.9897 0.9664
-1.8572 -7.7929 -2.9915 0.9664
-1.1569 -7.9321 -2.9933 0.9664
-0.4466 -8.0085 -2.9951 0.9663
0.9817 -7.9706 -2.9988 0.9663
1.6883 -7.8564 -3.0007 0.9663
2.3822 -7.6796 -3.0025 0.9663
3.0581 -7.4414 -3.0042 0.9662
3.7104 -7.1437 -3.0059 0.9662
5.9820 -5.4104 -3.0118 0.9661
6.8517 -4.2672 -3.0141 0.9661
7.5040 -2.9865 -3.0158 0.9661
7.7416 -2.3072 -3.0165 0.9661
8.0301 -0.8983 -3.0172 0.9661
8.0624 0.5398 -3.0173 0.9661
7.9819 1.2551 -3.0171 0.9661
7.8375 1.9603 -3.0168 0.9661
6.6540 4.5677 -3.0137 0.9661
5.4425 5.3823 -2.8582 0.9678
4.9396 5.8427 -2.8569 0.9679
4.3978 6.2561 -2.8555 0.9679
3.8216 6.6192 -2.8540 0.9679
2.5845 7.1838 -2.8508 0.9679
0.5937 7.5976 -2.8457 0.9680
-0.0848 7.6156 -2.8439 0.9680
-0.7619 7.5732 -2.8422 0.9680
-1.4320 7.4707 -2.8404 0.9680
-5.0227 5.6793 -2.8311 0.9681
-7.0366 3.7549 -2.9782 0.9665
-7.8985 1.0623 -2.9759 0.9665
-7.8984 -1.0622 -2.9759 0.9665
-7.7734 -1.7612 -2.9762 0.9665
-7.3406 -3.1127 -2.9773 0.9665
-7.0363 -3.7546 -2.9781 0.9665
-6.2633 -4.9460 -2.9801 0.9665
-5.8005 -5.4860 -2.9813 0.9665
-4.7402 -6.4334 -2.9840 0.9665
-4.1509 -6.8333 -2.9855 0.9664
-2.8767 -7.4693 -2.9888 0.9664
-2.2018 -7.7002 -2.9906 0.9664
-1.5086 -7.8703 -2.9924 0.9664
0.6254 -8.0040 -2.9979 0.9663
2.7228 -7.5681 -3.0034 0.9662
4.0260 -6.9733 -3.0067 0.9662
4.6332 -6.5907 -3.0083 0.9662
6.6536 -4.5674 -3.0136 0.9661
7.8374 -1.9602 -3.0167 0.9661
7.9818 -1.2550 -3.0171 0.9661
8.0786 0.1801 -3.0174 0.9661
7.9176 1.6094 -3.0170 0.9661
7.7418 2.3074 -3.0165 0.9661
6.8520 4.2675 -3.0143 0.9661
5.6781 5.1356 -2.8588 0.9678
2.9028 7.0636 -2.8517 0.9679
0.9318 7.5660 -2.8466 0.9680
0.2546 7.6142 -2.8448 0.9680
-0.4239 7.6019 -2.8430 0.9680
-1.0981 7.5294 -2.8413 0.9680
-2.4128 7.2067 -2.8379 0.9681
-3.0429 6.9594 -2.8362 0.9681
-5.2695 5.4487 -2.8304 0.9682
-5.7311 4.9559 -2.8292 0.9682
-6.4765 4.6615 -2.9797 0.9665
-6.8634 4.0652 -2.9787 0.9665
-7.4714 2.7824 -2.9771 0.9665
-7.6879 2.1060 -2.9765 0.9665
-7.8438 1.4132 -2.9761 0.9665
-7.9377 0.7094 -2.9758 0.9665
-7.5547 -0.6750 -2.9768 0.9679
-7.4652 -1.3449 -2.9770 0.9679
-7.3168 -2.0042 -2.9774 0.9679
-7.1106 -2.6480 -2.9779 0.9679
-6.8482 -3.2711 -2.9786 0.9679
-6.1634 -4.4361 -2.9804 0.9679
-5.7461 -4.9688 -2.9814 0.9679
-5.2832 -5.4627 -2.9826 0.9679
-4.7781 -5.9139 -2.9839 0.9679
-4.2347 -6.3186 -2.9853 0.9678
-3.0504 -6.9765 -2.9884 0.9678
-2.4187 -7.2243 -2.9900 0.9678
-1.1007 -7.5472 -2.9934 0.9678
0.9340 -7.5833 -2.9987 0.9677
1.6062 -7.4744 -3.0005 0.9677
2.2663 -7.3059 -3.0022 0.9677
2.9092 -7.0791 -3.0038 0.9676
3.5297 -6.7958 -3.0055 0.9676
4.6833 -6.0684 -3.0085 0.9676
5.2072 -5.6300 -3.0098 0.9676
6.1278 -4.6212 -3.0122 0.9676
6.5170 -4.0588 -3.0133 0.9675
6.8545 -3.4637 -3.0141 0.9675
7.1373 -2.8405 -3.0149 0.9675
7.3632 -2.1944 -3.0155 0.9675
7.5305 -1.5306 -3.0159 0.9675
7.6375 -0.8544 -3.0162 0.9675
7.6836 -0.1712 -3.0163 0.9675
7.4545 1.8645 -3.0158 0.9675
7.2577 2.5202 -3.0153 0.9675
7.0031 3.1555 -3.0146 0.9675
5.1769 5.1196 -2.8575 0.9692
4.6987 5.5577 -2.8563 0.9692
4.1834 5.9511 -2.8550 0.9692
3.6354 6.2967 -2.8535 0.9692
1.2067 7.1537 -2.8473 0.9693
0.5648 7.2285 -2.8456 0.9693
-1.3625 7.1083 -2.8406 0.9694
-1.9887 6.9549 -2.8390 0.9694
-2.5984 6.7465 -2.8374 0.9694
-3.7494 6.1724 -2.8344 0.9694
-4.2818 5.8113 -2.8330 0.9695
-5.2397 4.9557 -2.8305 0.9695
-6.3541 4.1567 -2.9800 0.9679
-7.3984 1.6763 -2.9773 0.9679
-7.5174 1.0111 -2.9769 0.9679
-7.5772 0.3379 -2.9768 0.9679
-7.3983 -1.6762 -2.9772 0.9679
-6.9863 -2.9624 -2.9782 0.9679
-6.3538 -4.1564 -2.9799 0.9679
-5.9607 -4.7071 -2.9809 0.9679
-5.5202 -5.2209 -2.9820 0.9679
-5.0357 -5.6939 -2.9833 0.9679
-3.3573 -6.8319 -2.9876 0.9678
-2.7374 -7.1074 -2.9892 0.9678
-1.4355 -7.4886 -2.9926 0.9678
-0.0850 -7.6334 -2.9961 0.9677
0.5951 -7.6151 -2.9978 0.9677
2.5903 -7.1997 -3.0030 0.9677
3.2226 -6.9444 -3.0047 0.9676
3.8299 -6.6335 -3.0062 0.9676
4.4073 -6.2695 -3.0077 0.9676
5.4540 -5.3936 -3.0105 0.9676
5.9148 -4.8887 -3.0117 0.9676
7.4543 -1.8645 -3.0157 0.9675
7.5916 -1.1937 -3.0161 0.9675
7.6682 -0.5133 -3.0163 0.9675
7.6376 0.8544 -3.0162 0.9675
7.3634 2.1946 -3.0155 0.9675
7.1375 2.8407 -3.0150 0.9675
6.8547 3.4639 -3.0143 0.9675
6.5173 4.0591 -3.0134 0.9675
6.1282 4.6215 -3.0124 0.9676
4.9427 5.3440 -2.8569 0.9692
4.4454 5.7602 -2.8556 0.9692
3.3504 6.4507 -2.8528 0.9692
2.7615 6.7197 -2.8513 0.9693
2.1512 6.9350 -2.8497 0.9693
0.2422 7.2443 -2.8448 0.9693
-1.0448 7.1641 -2.8414 0.9694
-1.6774 7.0385 -2.8398 0.9694
-2.2959 6.8575 -2.8382 0.9694
-3.4716 6.3349 -2.8351 0.9694
-4.0196 5.9978 -2.8337 0.9695
-5.0148 5.1853 -2.8311 0.9695
-6.5319 3.8689 -2.9795 0.9679
-6.8485 3.2713 -2.9787 0.9679
-7.1108 2.6481 -2.9780 0.9679
-7.4653 1.3450 -2.9771 0.9679
-7.2312 0.0000 -2.9777 0.9692
-7.2026 -0.6436 -2.9777 0.9692
-6.9757 -1.9109 -2.9783 0.9692
-6.7791 -2.5245 -2.9788 0.9692
-6.2270 -3.6882 -2.9802 0.9692
-5.8758 -4.2291 -2.9811 0.9692
-5.0365 -5.2077 -2.9833 0.9691
-4.5549 -5.6377 -2.9845 0.9691
-4.0369 -6.0234 -2.9858 0.9691
-3.4864 -6.3618 -2.9873 0.9691
-1.0492 -7.1937 -2.9936 0.9690
-0.4050 -7.2626 -2.9952 0.9690
0.2432 -7.2739 -2.9969 0.9690
2.1599 -6.9627 -3.0019 0.9690
2.7725 -6.7464 -3.0035 0.9689
3.9287 -6.1541 -3.0065 0.9689
4.4629 -5.7827 -3.0079 0.9689
4.9620 -5.3648 -3.0092 0.9689
5.8390 -4.4034 -3.0115 0.9689
6.2098 -3.8675 -3.0125 0.9688
7.1751 -1.4584 -3.0150 0.9688
7.2771 -0.8140 -3.0153 0.9688
7.3064 0.4891 -3.0154 0.9688
7.2334 1.1374 -3.0152 0.9688
7.1027 1.7766 -3.0149 0.9688
6.6728 3.0067 -3.0138 0.9688
6.3771 3.5877 -3.0130 0.9688
6.0307 4.1399 -3.0121 0.9689
5.6364 4.6586 -3.0111 0.9689
4.9331 4.8784 -2.8569 0.9704
2.9151 6.2818 -2.8517 0.9705
1.7532 6.6921 -2.8487 0.9705
1.1500 6.8179 -2.8471 0.9705
0.5383 6.8893 -2.8455 0.9705
-0.6909 6.8679 -2.8423 0.9706
-3.0378 6.1817 -2.8362 0.9706
-4.0817 5.5398 -2.8335 0.9707
-5.6828 4.4877 -2.9818 0.9692
-6.0577 3.9628 -2.9808 0.9692
-6.6608 2.8245 -2.9792 0.9692
-6.8844 2.2199 -2.9786 0.9692
-7.1671 0.9639 -2.9778 0.9692
-7.2240 -0.3221 -2.9777 0.9692
-7.1670 -0.9638 -2.9778 0.9692
-7.0535 -1.5981 -2.9781 0.9692
-6.6606 -2.8243 -2.9791 0.9692
-6.3843 -3.4067 -2.9798 0.9692
-6.0574 -3.9626 -2.9806 0.9692
-5.2625 -4.9772 -2.9827 0.9692
-3.7654 -6.1987 -2.9865 0.9691
-2.6093 -6.7749 -2.9895 0.9691
-1.3682 -7.1378 -2.9927 0.9690
-0.0811 -7.2754 -2.9961 0.9690
0.5671 -7.2579 -2.9978 0.9690
1.2116 -7.1826 -2.9994 0.9690
1.8471 -7.0501 -3.0011 0.9690
2.4685 -6.8614 -3.0027 0.9689
3.6497 -6.3215 -3.0058 0.9689
5.1971 -5.1395 -3.0098 0.9689
6.0304 -4.1396 -3.0120 0.9689
6.6726 -3.0065 -3.0137 0.9688
7.3064 -0.4891 -3.0154 0.9688
7.0160 2.0911 -3.0146 0.9688
6.5314 3.3005 -3.0134 0.9688
5.8393 4.4037 -3.0116 0.9689
5.2506 4.7489 -2.9153 0.9698
4.2362 5.4890 -2.8551 0.9705
3.7291 5.8416 -2.8538 0.9705
3.1928 6.1473 -2.8524 0.9705
2.6317 6.4038 -2.8509 0.9705
2.0502 6.6091 -2.8494 0.9705
1.4530 6.7617 -2.8479 0.9705
0.8449 6.8604 -2.8463 0.9705
0.2308 6.9045 -2.8447 0.9706
-0.3844 6.8938 -2.8431 0.9706
-1.5988 6.7090 -2.8400 0.9706
-2.1884 6.5365 -2.8384 0.9706
-3.8318 5.7175 -2.8342 0.9707
-4.3235 5.3513 -2.8329 0.9707
-4.7806 4.9432 -2.8317 0.9707
-5.4782 4.7373 -2.9823 0.9692
-5.8761 4.2294 -2.9812 0.9692
-6.2273 3.6885 -2.9803 0.9692
-6.9759 1.9109 -2.9784 0.9692
-7.1174 1.2823 -2.9780 0.9692
-7.2027 0.6437 -2.9777 0.9692
-6.9050 0.0000 -2.9785 0.9704
-6.8777 -0.6146 -2.9786 0.9704
-6.4732 -2.4106 -2.9796 0.9704
-4.3490 -5.3828 -2.9850 0.9703
-3.8543 -5.7509 -2.9863 0.9703
-1.0016 -6.8675 -2.9937 0.9702
-0.3866 -6.9331 -2.9953 0.9702
0.2322 -6.9437 -2.9969 0.9702
2.0617 -6.6462 -3.0017 0.9701
4.7359 -5.1203 -3.0086 0.9701
5.1748 -4.6803 -3.0098 0.9701
5.9265 -3.6911 -3.0117 0.9700
6.2332 -3.1498 -3.0125 0.9700
6.4903 -2.5830 -3.0132 0.9700
6.6956 -1.9955 -3.0137 0.9700
6.8476 -1.3918 -3.0142 0.9700
6.9449 -0.7769 -3.0144 0.9700
6.5997 2.2917 -3.0136 0.9700
5.3794 4.4462 -3.0104 0.9701
4.2735 5.0547 -2.8552 0.9716
3.8050 5.4127 -2.8540 0.9716
2.2366 6.2168 -2.8499 0.9716
1.6736 6.3879 -2.8485 0.9716
1.0978 6.5081 -2.8470 0.9717
-0.6596 6.5564 -2.8424 0.9717
-2.3646 6.1396 -2.8380 0.9717
-3.8972 5.2893 -2.8340 0.9718
-4.3506 4.9194 -2.8328 0.9718
-5.0250 4.7526 -2.9835 0.9703
-5.4261 4.2850 -2.9824 0.9703
-5.7841 3.7838 -2.9815 0.9703
-6.0963 3.2531 -2.9807 0.9703
-6.7353 1.5261 -2.9790 0.9704
-6.8437 0.9204 -2.9787 0.9704
-6.8982 0.3076 -2.9785 0.9704
-6.8437 -0.9204 -2.9787 0.9704
-6.5736 -2.1197 -2.9793 0.9704
-6.3600 -2.6968 -2.9799 0.9704
-6.0961 -3.2529 -2.9806 0.9703
-5.7839 -3.7836 -2.9814 0.9703
-4.1057 -5.5723 -2.9857 0.9703
-2.4911 -6.4680 -2.9898 0.9703
-0.6949 -6.9071 -2.9945 0.9702
0.5414 -6.9283 -2.9977 0.9702
2.3563 -6.5494 -3.0024 0.9701
2.9313 -6.3168 -3.0039 0.9701
5.3791 -4.4459 -3.0103 0.9701
6.0859 -3.4238 -3.0121 0.9700
6.3681 -2.8693 -3.0129 0.9700
6.5995 -2.2916 -3.0135 0.9700
6.7784 -1.6954 -3.0140 0.9700
6.9031 -1.0854 -3.0143 0.9700
6.9449 0.7770 -3.0144 0.9700
6.6958 1.9956 -3.0138 0.9700
5.1751 4.6806 -3.0099 0.9701
4.4953 4.8603 -2.8558 0.9716
3.5593 5.5756 -2.8533 0.9716
2.5120 6.1125 -2.8506 0.9716
1.9570 6.3087 -2.8492 0.9716
1.3870 6.4544 -2.8477 0.9717
-0.3670 6.5810 -2.8432 0.9717
-2.0893 6.2404 -2.8387 0.9717
-3.1595 5.7654 -2.8359 0.9718
-3.6585 5.4588 -2.8346 0.9718
-5.6107 4.0384 -2.9819 0.9703
-5.9461 3.5219 -2.9811 0.9703
-6.2344 2.9780 -2.9803 0.9704
-6.6611 1.8247 -2.9792 0.9704
-6.7962 1.2244 -2.9788 0.9704
-6.8777 0.6146 -2.9786 0.9704
-6.5767 -0.5877 -2.9793 0.9714
-6.3694 -1.7447 -2.9799 0.9714
-6.1898 -2.3051 -2.9803 0.9714
-5.6855 -3.3675 -2.9816 0.9714
-5.0013 -4.3247 -2.9834 0.9714
-3.6852 -5.4986 -2.9868 0.9714
-0.3696 -6.6280 -2.9953 0.9713
0.2219 -6.6380 -2.9969 0.9713
1.9708 -6.3531 -3.0014 0.9712
2.5296 -6.1555 -3.0029 0.9712
3.0689 -5.9087 -3.0043 0.9712
3.5842 -5.6146 -3.0056 0.9712
4.0715 -5.2755 -3.0069 0.9712
5.3264 -4.0168 -3.0102 0.9711
5.9574 -3.0104 -3.0118 0.9711
6.2031 -2.4687 -3.0125 0.9711
6.3993 -1.9072 -3.0130 0.9711
6.5445 -1.3302 -3.0134 0.9711
6.6375 -0.7425 -3.0136 0.9711
6.6775 -0.1488 -3.0137 0.9711
6.5976 1.0375 -3.0135 0.9711
6.4785 1.6204 -3.0132 0.9711
6.0865 2.7425 -3.0122 0.9711
5.5011 3.7763 -3.0107 0.9711
4.7413 4.6888 -3.0088 0.9712
3.6369 5.1737 -2.8535 0.9726
2.6597 5.7315 -2.8510 0.9727
2.1380 5.9426 -2.8497 0.9727
1.5998 6.1064 -2.8483 0.9727
1.0494 6.2214 -2.8468 0.9727
-0.6306 6.2680 -2.8425 0.9727
-1.1853 6.1839 -2.8410 0.9727
-2.2607 5.8699 -2.8382 0.9728
-3.2627 5.3711 -2.8356 0.9728
-4.2243 4.7765 -2.8772 0.9724
-5.5308 3.6181 -2.9821 0.9714
-5.8293 3.1106 -2.9813 0.9714
-6.4405 1.4593 -2.9797 0.9714
-6.5963 0.2942 -2.9793 0.9714
-6.5442 -0.8801 -2.9794 0.9714
-6.2858 -2.0269 -2.9801 0.9714
-6.0815 -2.5787 -2.9806 0.9714
-5.8291 -3.1105 -2.9812 0.9714
-4.8045 -4.5440 -2.9839 0.9714
-3.9257 -5.3279 -2.9861 0.9714
-3.4373 -5.6585 -2.9874 0.9714
-2.9213 -5.9447 -2.9887 0.9714
-2.3817 -6.1840 -2.9901 0.9713
-0.0740 -6.6396 -2.9961 0.9713
0.5176 -6.6232 -2.9976 0.9713
2.2524 -6.2606 -3.0022 0.9712
3.8316 -5.4505 -3.0063 0.9712
5.5009 -3.7761 -3.0106 0.9711
5.8167 -3.2724 -3.0114 0.9711
6.0863 -2.7423 -3.0122 0.9711
6.4784 -1.6203 -3.0132 0.9711
6.5976 -1.0374 -3.0135 0.9711
6.6641 -0.4461 -3.0137 0.9711
6.3994 1.9072 -3.0130 0.9711
5.9576 3.0106 -3.0119 0.9711
5.6646 3.5280 -3.0112 0.9711
4.3933 4.7500 -2.9195 0.9720
3.8646 5.0076 -2.8541 0.9726
2.9130 5.6086 -2.8517 0.9726
1.3259 6.1700 -2.8476 0.9727
-1.4593 6.1234 -2.8403 0.9728
-1.9975 5.9662 -2.8389 0.9728
-3.9469 4.8853 -2.8339 0.9728
-5.0015 4.3250 -2.9835 0.9714
-5.3649 3.8615 -2.9826 0.9714
-5.6857 3.3677 -2.9817 0.9714
-5.9614 2.8476 -2.9810 0.9714
-6.1899 2.3052 -2.9804 0.9714
-6.3695 1.7448 -2.9799 0.9714
-6.4988 1.1708 -2.9796 0.9714
-6.5768 0.5877 -2.9794 0.9714
-6.2970 -0.5627 -2.9801 0.9724
-6.2223 -1.1210 -2.9803 0.9724
-6.0985 -1.6705 -2.9806 0.9724
-5.9264 -2.2070 -2.9810 0.9724
-5.7075 -2.7262 -2.9816 0.9724
-5.1363 -3.6968 -2.9830 0.9724
-0.9166 -6.2849 -2.9939 0.9723
-0.3538 -6.3447 -2.9954 0.9723
0.2124 -6.3541 -2.9969 0.9723
0.7775 -6.3131 -2.9983 0.9723
1.3370 -6.2218 -2.9998 0.9723
1.8864 -6.0810 -3.0012 0.9722
2.4212 -5.8917 -3.0026 0.9722
3.8968 -5.0491 -3.0064 0.9722
4.3323 -4.6840 -3.0076 0.9722
4.7337 -4.2813 -3.0086 0.9722
5.4210 -3.3762 -3.0104 0.9722
6.2631 -1.2730 -3.0126 0.9721
6.3520 -0.7106 -3.0129 0.9721
6.3903 -0.1424 -3.0130 0.9721
6.3776 0.4269 -3.0130 0.9721
5.8249 2.6246 -3.0116 0.9721
5.2647 3.6141 -3.0101 0.9722
4.9207 4.0671 -3.0092 0.9722
4.5377 4.4875 -3.0083 0.9722
3.0251 5.2397 -2.8519 0.9736
2.5457 5.4858 -2.8507 0.9736
0.4702 6.0179 -2.8453 0.9737
-0.0672 6.0329 -2.8439 0.9737
-1.1347 5.9196 -2.8412 0.9737
-1.6563 5.7924 -2.8398 0.9737
-2.1642 5.6194 -2.8385 0.9737
-3.5674 4.8417 -2.8348 0.9738
-4.9674 3.9228 -2.9836 0.9724
-5.2953 3.4641 -2.9827 0.9724
-5.5812 2.9783 -2.9820 0.9724
-5.8229 2.4692 -2.9814 0.9724
-6.1666 1.3972 -2.9804 0.9724
-6.3157 0.2816 -2.9800 0.9724
-6.1665 -1.3971 -2.9804 0.9724
-6.0184 -1.9406 -2.9808 0.9724
-5.8228 -2.4690 -2.9813 0.9724
-4.1958 -4.7442 -2.9855 0.9724
-2.7967 -5.6910 -2.9891 0.9723
-1.7449 -6.1023 -2.9918 0.9723
-0.6359 -6.3211 -2.9947 0.9723
-0.0708 -6.3557 -2.9961 0.9723
2.1559 -5.9923 -3.0019 0.9722
2.6819 -5.7793 -3.0033 0.9722
3.1870 -5.5201 -3.0046 0.9722
4.9205 -4.0669 -3.0091 0.9722
5.2645 -3.6139 -3.0100 0.9722
5.5668 -3.1318 -3.0108 0.9722
5.8247 -2.6244 -3.0115 0.9721
6.0363 -2.0960 -3.0120 0.9721
6.1998 -1.5506 -3.0125 0.9721
6.3139 -0.9928 -3.0128 0.9721
6.3775 -0.4269 -3.0129 0.9721
6.3521 0.7106 -3.0129 0.9721
6.2632 1.2731 -3.0127 0.9721
5.9366 2.3628 -3.0119 0.9721
5.7016 2.8812 -3.0113 0.9721
5.4212 3.3764 -3.0105 0.9722
4.7339 4.2816 -3.0088 0.9722
3.6988 4.7927 -2.8537 0.9736
2.7881 5.3681 -2.8513 0.9736
1.7905 5.7722 -2.8488 0.9736
1.2691 5.9058 -2.8474 0.9736
0.2016 6.0314 -2.8446 0.9737
-0.3358 6.0224 -2.8432 0.9737
-0.8701 5.9658 -2.8419 0.9737
-1.3969 5.8618 -2.8405 0.9737
-2.4119 5.5162 -2.8379 0.9737
-3.3488 4.9968 -2.8354 0.9738
-3.8562 4.7729 -2.8924 0.9732
-4.4024 4.5521 -2.9851 0.9724
-4.7885 4.1408 -2.9841 0.9724
-5.1365 3.6970 -2.9832 0.9724
-5.4437 3.2243 -2.9823 0.9724
-5.7077 2.7264 -2.9817 0.9724
-6.2224 1.1211 -2.9803 0.9724
-5.9646 -1.0745 -2.9809 0.9733
-5.8458 -1.6013 -2.9812 0.9733
-5.6809 -2.1155 -2.9816 0.9733
-5.4710 -2.6133 -2.9822 0.9733
-4.2196 -4.3630 -2.9854 0.9733
-3.3816 -5.0457 -2.9876 0.9733
-2.4354 -5.5699 -2.9900 0.9733
-1.4105 -5.9187 -2.9927 0.9732
0.2036 -6.0895 -2.9968 0.9732
1.2813 -5.9625 -2.9996 0.9732
1.8077 -5.8275 -3.0010 0.9732
4.5358 -4.1024 -3.0081 0.9731
4.8845 -3.6835 -3.0090 0.9731
6.0497 0.9513 -3.0121 0.9731
5.9405 1.4859 -3.0118 0.9731
5.5812 2.5148 -3.0109 0.9731
5.3341 3.0010 -3.0103 0.9731
5.0446 3.4629 -3.0096 0.9731
4.7150 3.8971 -3.0087 0.9731
3.9468 4.6683 -3.0067 0.9731
3.3497 4.7650 -2.8648 0.9744
2.8988 5.0210 -2.8516 0.9745
2.4394 5.2569 -2.8504 0.9745
1.9610 5.4508 -2.8492 0.9745
1.4674 5.6012 -2.8479 0.9745
0.9626 5.7069 -2.8466 0.9745
-0.0644 5.7817 -2.8439 0.9746
-0.5785 5.7504 -2.8426 0.9746
-1.5874 5.5516 -2.8400 0.9746
-2.0743 5.3859 -2.8387 0.9746
-2.5443 5.1776 -2.8375 0.9746
-2.9938 4.9286 -2.8363 0.9746
-4.0219 4.5477 -2.9861 0.9733
-4.4092 4.1703 -2.9850 0.9733
-5.5816 2.3669 -2.9820 0.9733
-5.7692 1.8604 -2.9815 0.9733
-6.0064 0.8078 -2.9809 0.9733
-6.0541 -0.2699 -2.9807 0.9733
-5.5815 -2.3667 -2.9819 0.9733
-5.3498 -2.8547 -2.9825 0.9733
-5.0756 -3.3203 -2.9832 0.9733
-4.7613 -3.7599 -2.9840 0.9733
-4.0217 -4.5474 -2.9859 0.9733
-3.6023 -4.8891 -2.9870 0.9733
-2.6805 -5.4547 -2.9894 0.9733
-2.1853 -5.6740 -2.9907 0.9733
-1.6724 -5.8486 -2.9920 0.9732
-1.1457 -5.9770 -2.9933 0.9732
-0.0679 -6.0911 -2.9961 0.9732
0.4748 -6.0758 -2.9975 0.9732
1.0141 -6.0122 -2.9989 0.9732
2.0660 -5.7424 -3.0017 0.9732
2.5700 -5.5382 -3.0030 0.9732
3.9466 -4.6680 -3.0066 0.9731
4.7148 -3.8969 -3.0086 0.9731
5.3339 -3.0008 -3.0102 0.9731
5.5810 -2.5147 -3.0108 0.9731
6.0496 -0.9512 -3.0121 0.9731
6.1106 -0.4090 -3.0123 0.9731
6.1228 0.1365 -3.0123 0.9731
6.0862 0.6809 -3.0122 0.9731
5.8680 1.7489 -3.0117 0.9731
5.6882 2.2639 -3.0112 0.9731
5.4631 2.7606 -3.0106 0.9731
5.1945 3.2352 -3.0099 0.9731
4.5360 4.1026 -3.0082 0.9731
3.1203 4.8878 -2.8522 0.9745
2.2024 5.3592 -2.8498 0.9745
1.7159 5.5315 -2.8486 0.9745
1.2162 5.6597 -2.8473 0.9745
0.7073 5.7428 -2.8459 0.9745
0.1933 5.7802 -2.8446 0.9745
-0.3218 5.7718 -2.8433 0.9746
-1.8327 5.4741 -2.8394 0.9746
-2.7719 5.0581 -2.8369 0.9746
-5.2180 3.0907 -2.9829 0.9733
-5.4712 2.6134 -2.9823 0.9733
-5.6810 2.1157 -2.9817 0.9733
-5.7923 -0.5176 -2.9814 0.9742
-5.7236 -1.0311 -2.9816 0.9742
-5.6096 -1.5366 -2.9818 0.9742
-5.4513 -2.0301 -2.9822 0.9742
-4.7243 -3.4003 -2.9841 0.9742
-4.4041 -3.8083 -2.9849 0.9742
-4.0489 -4.1864 -2.9858 0.9742
-3.6614 -4.5318 -2.9868 0.9742
-0.8429 -5.7791 -2.9941 0.9741
-0.3253 -5.8338 -2.9955 0.9741
1.7342 -5.5905 -3.0008 0.9740
2.2258 -5.4162 -3.0021 0.9740
2.7002 -5.1988 -3.0033 0.9740
3.1534 -4.9398 -3.0045 0.9740
3.5819 -4.6412 -3.0056 0.9740
3.9822 -4.3054 -3.0067 0.9740
4.6853 -3.5334 -3.0085 0.9740
4.9825 -3.1031 -3.0093 0.9740
5.2401 -2.6479 -3.0100 0.9740
5.6285 -1.6774 -3.0110 0.9739
5.8378 -0.6530 -3.0115 0.9739
5.8613 0.3924 -3.0116 0.9739
5.8028 0.9125 -3.0115 0.9739
5.6981 1.4253 -3.0112 0.9739
4.1709 4.1247 -3.0073 0.9740
2.3402 5.0430 -2.8502 0.9753
1.8813 5.2291 -2.8490 0.9753
1.4078 5.3735 -2.8478 0.9753
0.9235 5.4750 -2.8465 0.9754
0.4323 5.5330 -2.8452 0.9754
-1.5231 5.3265 -2.8402 0.9754
-2.9011 4.7759 -2.8648 0.9752
-3.4567 4.6915 -2.9875 0.9741
-4.8706 3.1863 -2.9838 0.9742
-5.1337 2.7395 -2.9831 0.9742
-5.3561 2.2712 -2.9826 0.9742
-5.5361 1.7852 -2.9821 0.9742
-5.8096 0.2591 -2.9814 0.9742
-5.7637 -0.7751 -2.9815 0.9742
-3.8590 -4.3634 -2.9863 0.9742
-3.4565 -4.6912 -2.9874 0.9741
-3.0264 -4.9821 -2.9885 0.9741
-2.5719 -5.2337 -2.9897 0.9741
-1.6046 -5.6115 -2.9922 0.9741
-0.5847 -5.8122 -2.9948 0.9741
0.9729 -5.7680 -2.9988 0.9740
2.4654 -5.3128 -3.0027 0.9740
2.9297 -5.0743 -3.0039 0.9740
4.1707 -4.1245 -3.0072 0.9740
4.5226 -3.7380 -3.0081 0.9740
4.8387 -3.3216 -3.0089 0.9740
5.1164 -2.8784 -3.0096 0.9740
5.6980 -1.4251 -3.0112 0.9739
5.8612 -0.3923 -3.0116 0.9739
5.4562 2.1715 -3.0106 0.9739
4.9827 3.1033 -3.0094 0.9740
4.6855 3.5336 -3.0086 0.9740
4.3512 3.9354 -3.0078 0.9740
3.5821 4.6415 -3.0058 0.9740
3.0372 4.7577 -2.8937 0.9749
2.5630 4.9347 -2.8507 0.9753
-0.8000 5.4856 -2.8420 0.9754
-2.2180 5.0727 -2.8383 0.9754
-2.6596 4.8532 -2.8372 0.9754
-3.1919 4.7628 -2.9393 0.9746
-4.0491 4.1867 -2.9860 0.9742
-4.4043 3.8086 -2.9851 0.9742
-5.0071 2.9658 -2.9835 0.9742
-5.6097 1.5367 -2.9819 0.9742
-5.7237 1.0312 -2.9816 0.9742
-5.5858 0.0000 -2.9819 0.9750
-5.5637 -0.4971 -2.9820 0.9750
-5.4977 -0.9904 -2.9821 0.9750
-5.3882 -1.4760 -2.9824 0.9750
-5.0426 -2.4086 -2.9833 0.9750
-4.2301 -3.6578 -2.9854 0.9750
-3.8888 -4.0210 -2.9863 0.9750
-3.5166 -4.3526 -2.9872 0.9749
-2.6911 -4.9106 -2.9894 0.9749
-2.2442 -5.1326 -2.9905 0.9749
-1.2997 -5.4537 -2.9930 0.9749
-0.8095 -5.5501 -2.9942 0.9749
0.1876 -5.6105 -2.9968 0.9749
0.6865 -5.5739 -2.9981 0.9749
1.1804 -5.4930 -2.9994 0.9748
1.6653 -5.3685 -3.0006 0.9748
2.1374 -5.2011 -3.0019 0.9748
3.0280 -4.7433 -3.0042 0.9748
3.4394 -4.4566 -3.0053 0.9748
3.8237 -4.1341 -3.0063 0.9748
4.1778 -3.7786 -3.0072 0.9748
4.4988 -3.3927 -3.0080 0.9748
5.4042 -1.6106 -3.0104 0.9748
5.5267 -1.1233 -3.0107 0.9748
5.6277 0.3768 -3.0110 0.9747
4.3428 3.5894 -3.0077 0.9748
2.2472 4.8425 -2.8499 0.9761
1.8065 5.0213 -2.8488 0.9761
1.3519 5.1601 -2.8476 0.9761
0.8868 5.2577 -2.8464 0.9761
-0.0593 5.3270 -2.8439 0.9761
-0.5330 5.2983 -2.8427 0.9761
-1.9114 4.9630 -2.8391 0.9762
-3.7066 4.1912 -2.9869 0.9749
-4.0637 3.8434 -2.9859 0.9750
-4.3884 3.4655 -2.9851 0.9750
-4.6782 3.0604 -2.9843 0.9750
-4.9309 2.6312 -2.9837 0.9750
-5.3175 1.7147 -2.9827 0.9750
-5.5362 0.7446 -2.9821 0.9750
-5.5803 0.2489 -2.9819 0.9750
-5.4483 -1.2344 -2.9823 0.9750
-4.9308 -2.6311 -2.9836 0.9750
-4.6780 -3.0602 -2.9842 0.9750
-4.3882 -3.4653 -2.9850 0.9750
-3.7064 -4.1909 -2.9867 0.9750
-2.9066 -4.7850 -2.9888 0.9749
-2.4702 -5.0266 -2.9899 0.9749
-2.0138 -5.2285 -2.9911 0.9749
-1.5410 -5.3892 -2.9923 0.9749
-0.5615 -5.5818 -2.9949 0.9749
0.4374 -5.5978 -2.9975 0.9749
0.9343 -5.5390 -2.9987 0.9749
1.4242 -5.4362 -3.0000 0.9748
1.9032 -5.2900 -3.0013 0.9748
4.0047 -3.9603 -3.0067 0.9748
4.3426 -3.5892 -3.0076 0.9748
4.6460 -3.1893 -3.0084 0.9748
4.9126 -2.7638 -3.0091 0.9748
5.1401 -2.3160 -3.0097 0.9748
5.3267 -1.8496 -3.0102 0.9748
5.5715 -0.8761 -3.0109 0.9748
5.6389 0.1257 -3.0110 0.9747
5.6052 0.6271 -3.0110 0.9748
5.4043 1.6107 -3.0105 0.9748
5.0315 2.5426 -3.0095 0.9748
4.7842 2.9797 -3.0089 0.9748
4.4990 3.3929 -3.0081 0.9748
3.8239 4.1344 -3.0064 0.9748
1.1204 5.2141 -2.8470 0.9761
0.6516 5.2908 -2.8458 0.9761
0.1781 5.3255 -2.8446 0.9761
-0.2965 5.3179 -2.8433 0.9761
-0.7683 5.2682 -2.8421 0.9761
-2.1302 4.8719 -2.8386 0.9762
-2.6131 4.7683 -2.9027 0.9756
-3.5168 4.3529 -2.9874 0.9749
-4.5378 3.2661 -2.9847 0.9750
-5.0427 2.4088 -2.9834 0.9750
-5.3488 -0.4779 -2.9825 0.9757
-5.2853 -0.9521 -2.9827 0.9757
-5.1800 -1.4189 -2.9830 0.9757
-5.0338 -1.8746 -2.9833 0.9757
-4.8478 -2.3155 -2.9838 0.9757
-4.6233 -2.7383 -2.9844 0.9757
-4.3622 -3.1397 -2.9850 0.9757
-3.7384 -3.8654 -2.9867 0.9757
-3.3806 -4.1842 -2.9876 0.9757
-2.9957 -4.4699 -2.9886 0.9757
-1.7103 -5.1082 -2.9919 0.9757
-1.2493 -5.2423 -2.9931 0.9756
-0.7781 -5.3348 -2.9943 0.9756
0.1803 -5.3927 -2.9968 0.9756
2.0543 -4.9988 -3.0017 0.9756
2.4920 -4.7980 -3.0028 0.9756
2.9102 -4.5588 -3.0039 0.9756
3.3056 -4.2831 -3.0049 0.9755
3.6749 -3.9732 -3.0059 0.9755
4.3236 -3.2605 -3.0076 0.9755
5.1936 -1.5478 -3.0099 0.9755
5.3866 -0.6026 -3.0104 0.9755
5.4191 -0.1207 -3.0105 0.9755
5.4083 0.3621 -3.0104 0.9755
3.1111 4.4257 -3.0046 0.9756
2.7039 4.6834 -3.0035 0.9756
2.2071 4.7561 -2.9121 0.9763
1.7363 4.8262 -2.8486 0.9768
0.8524 5.0535 -2.8463 0.9768
-0.0570 5.1203 -2.8440 0.9768
-2.3390 4.7597 -2.9455 0.9760
-3.9065 3.6948 -2.9863 0.9757
-4.4974 2.9421 -2.9848 0.9757
-4.9458 2.0972 -2.9836 0.9757
-5.1121 1.6485 -2.9832 0.9757
-5.2379 1.1868 -2.9828 0.9757
-5.2378 -1.1867 -2.9828 0.9757
-5.1120 -1.6484 -2.9831 0.9757
-4.7402 -2.5294 -2.9841 0.9757
-4.4972 -2.9419 -2.9847 0.9757
-3.1913 -4.3313 -2.9881 0.9757
-2.3745 -4.8319 -2.9902 0.9757
-1.4813 -5.1804 -2.9925 0.9756
-1.0147 -5.2938 -2.9937 0.9756
0.4204 -5.3805 -2.9974 0.9756
1.3689 -5.2249 -2.9999 0.9756
2.2754 -4.9033 -3.0022 0.9756
3.1110 -4.4254 -3.0044 0.9756
3.4937 -4.1323 -3.0054 0.9755
4.1735 -3.4494 -3.0072 0.9755
4.9398 -2.2258 -3.0092 0.9755
5.1191 -1.7775 -3.0097 0.9755
5.2576 -1.3150 -3.0100 0.9755
5.3543 -0.8419 -3.0103 0.9755
5.4191 0.1208 -3.0105 0.9755
5.3113 1.0796 -3.0102 0.9755
5.0346 2.0037 -3.0095 0.9755
4.8354 2.4435 -3.0090 0.9755
4.5978 2.8636 -3.0084 0.9755
4.3237 3.2607 -3.0077 0.9755
4.0153 3.6316 -3.0069 0.9755
3.3057 4.2834 -3.0051 0.9755
2.9104 4.5591 -3.0040 0.9756
2.4644 4.7449 -2.9695 0.9758
1.9584 4.7673 -2.8626 0.9767
1.5193 4.8978 -2.8480 0.9768
1.0769 5.0115 -2.8469 0.9768
0.6263 5.0854 -2.8457 0.9768
0.1711 5.1188 -2.8445 0.9768
-1.6234 4.8488 -2.8399 0.9769
-2.0853 4.7693 -2.8910 0.9765
-3.7386 3.8657 -2.9868 0.9757
-4.0666 3.5166 -2.9859 0.9757
-4.3624 3.1399 -2.9852 0.9757
-4.6234 2.7385 -2.9845 0.9757
-4.8479 2.3156 -2.9839 0.9757
-5.0339 1.8747 -2.9834 0.9757
-5.1801 1.4190 -2.9830 0.9757
-5.2854 0.9522 -2.9827 0.9757
-5.3488 0.4780 -2.9826 0.9757
-5.1667 0.0000 -2.9830 0.9764
-4.9839 -1.3652 -2.9835 0.9764
-4.8432 -1.8036 -2.9838 0.9764
-4.6642 -2.2278 -2.9843 0.9764
-4.1969 -3.0208 -2.9855 0.9764
-3.9124 -3.3831 -2.9862 0.9764
-3.2524 -4.0255 -2.9879 0.9764
-2.8821 -4.3004 -2.9889 0.9764
-1.6453 -4.9143 -2.9921 0.9763
-0.7485 -5.1321 -2.9944 0.9763
-0.2889 -5.1804 -2.9956 0.9763
1.0914 -5.0787 -2.9992 0.9763
1.9761 -4.8085 -3.0015 0.9763
2.7993 -4.3850 -3.0036 0.9763
3.1795 -4.1198 -3.0046 0.9762
3.8619 -3.4929 -3.0064 0.9762
4.4222 -2.7541 -3.0078 0.9762
4.6507 -2.3501 -3.0084 0.9762
4.9952 -1.4887 -3.0093 0.9762
5.1498 0.8098 -3.0098 0.9762
5.0569 1.2648 -3.0096 0.9762
2.6009 4.5049 -3.0032 0.9763
1.7111 4.7561 -2.9182 0.9769
0.8200 4.8612 -2.8462 0.9775
0.3839 4.9129 -2.8451 0.9775
-0.0550 4.9337 -2.8487 0.9775
-0.4929 4.8992 -2.8428 0.9775
-0.9266 4.8340 -2.8417 0.9775
-1.3646 4.7724 -2.8658 0.9773
-3.0705 4.1673 -2.9885 0.9764
-3.4281 3.8763 -2.9876 0.9764
-4.3270 2.8306 -2.9852 0.9764
-4.7585 2.0178 -2.9841 0.9764
-4.9185 1.5861 -2.9837 0.9764
-5.1616 -0.2301 -2.9830 0.9764
-5.0395 -1.1418 -2.9833 0.9764
-4.9184 -1.5859 -2.9836 0.9764
-4.7584 -2.0177 -2.9840 0.9764
-4.0587 -3.2051 -2.9858 0.9764
-3.4280 -3.8760 -2.9875 0.9764
-3.0703 -4.1670 -2.9884 0.9764
-2.2844 -4.6486 -2.9904 0.9764
-1.4250 -4.9836 -2.9926 0.9763
-0.9762 -5.0927 -2.9938 0.9763
-0.0578 -5.1892 -2.9962 0.9763
0.8639 -5.1213 -2.9986 0.9763
1.7596 -4.8908 -3.0009 0.9763
2.6007 -4.5046 -3.0031 0.9763
3.7020 -3.6609 -3.0060 0.9762
4.2946 -2.9481 -3.0075 0.9762
4.5410 -2.5547 -3.0082 0.9762
4.9236 -1.7096 -3.0092 0.9762
5.2017 -0.3482 -3.0099 0.9762
4.9953 1.4888 -3.0094 0.9762
4.6508 2.3502 -3.0085 0.9762
4.4223 2.7543 -3.0079 0.9762
4.1587 3.1362 -3.0073 0.9762
3.8621 3.4931 -3.0065 0.9762
3.5349 3.8219 -3.0056 0.9762
2.3972 4.6155 -3.0027 0.9763
1.9509 4.7472 -2.9632 0.9766
1.0359 4.8208 -2.8468 0.9775
0.6025 4.8919 -2.8457 0.9775
0.1649 4.9328 -2.8495 0.9775
-0.2742 4.9173 -2.8434 0.9775
-1.5957 4.7662 -2.9019 0.9771
-2.0755 4.7468 -2.9911 0.9764
-2.4889 4.5416 -2.9900 0.9764
-3.2525 4.0258 -2.9880 0.9764
-3.5969 3.7192 -2.9871 0.9764
-4.6643 2.2280 -2.9844 0.9764
-4.8433 1.8037 -2.9839 0.9764
-5.0853 0.9162 -2.9832 0.9764
