ply
format ascii 1.0
element vertex 1586
property float32 x
property float32 y
property float32 z
property float32 I
end_header
-5.7844 7.1595 5.3141 0.9584
-5.8053 7.1853 4.9313 0.9590
-5.8030 7.1825 4.1664 0.9603
-5.8014 7.1805 3.6230 0.9611
-5.8009 7.1799 3.4467 0.9614
-5.8004 7.1792 3.2727 0.9616
-5.7984 7.1768 2.5959 0.9624
-5.7979 7.1762 2.4310 0.9626
-5.7974 7.1756 2.2675 0.9627
-5.7969 7.1750 2.1053 0.9629
-5.7960 7.1738 1.7847 0.9631
7.1566 -6.4727 1.7015 0.9616
7.4080 -6.1229 1.6947 0.9617
-5.7955 7.1732 1.6261 0.9632
6.9445 -6.2809 1.4910 0.9628
7.5936 -5.7266 1.5145 0.9622
6.8377 -6.7619 1.5313 0.9618
7.1958 -5.9475 1.4866 0.9629
-5.7946 7.1721 1.3115 0.9634
6.5210 -7.0504 1.2035 0.9620
6.6984 -6.0583 1.1318 0.9642
6.5387 -6.4663 1.1524 0.9636
-5.7942 7.1715 1.1554 0.9635
6.3862 -6.9047 1.0202 0.9629
8.5100 -5.3001 1.0874 0.9605
6.8746 -5.6820 0.9674 0.9648
-5.7937 7.1710 1.0000 0.9636
6.3048 -6.8167 0.8513 0.9634
7.1346 -5.3804 0.8192 0.9647
8.2804 -5.1571 0.8943 0.9616
6.5590 -7.7580 0.9314 0.9600
6.8088 -5.6276 0.8098 0.9651
7.5729 -5.1985 0.8421 0.9638
-5.7932 7.1704 0.8451 0.9636
6.5220 -5.8988 0.6590 0.9653
7.0835 -5.3419 0.6649 0.9650
6.3420 -6.2718 0.6684 0.9649
7.5042 -5.1514 0.6821 0.9641
-5.7928 7.1698 0.6908 0.9637
6.2003 -6.7036 0.5318 0.9641
6.4875 -5.8676 0.5095 0.9656
7.0433 -5.3116 0.5138 0.9653
6.2591 -7.4033 0.5646 0.9619
6.7316 -5.5638 0.5087 0.9656
6.1610 -6.6612 0.3773 0.9643
7.0090 -5.2858 0.3650 0.9655
6.1773 -7.3065 0.3978 0.9624
6.7024 -5.5397 0.3616 0.9658
6.1476 -6.6467 0.2258 0.9644
6.9973 -5.2769 0.2186 0.9655
6.4369 -5.8218 0.0721 0.9659
6.9855 -5.2680 0.0727 0.9656
7.9374 -4.9435 0.0777 0.9633
6.1396 -7.2620 0.0790 0.9627
6.6806 -5.5217 0.0720 0.9659
-5.7910 7.1676 0.0766 0.9638
6.1349 -6.6330 -0.0751 0.9645
6.9862 -5.2685 -0.0727 0.9656
6.1405 -7.2630 -0.0790 0.9627
6.2509 -6.1817 -0.0731 0.9654
6.6812 -5.5222 -0.0720 0.9659
6.4483 -5.8322 -0.2168 0.9658
7.9599 -4.9575 -0.2339 0.9632
6.1582 -7.2840 -0.2379 0.9626
6.2625 -6.1931 -0.2196 0.9654
6.4592 -5.8421 -0.3621 0.9657
7.9829 -4.9718 -0.3910 0.9630
6.2742 -6.2046 -0.3669 0.9653
6.7032 -5.5403 -0.3616 0.9658
7.4112 -5.0875 -0.3738 0.9647
6.2026 -6.7062 -0.5320 0.9641
7.0456 -5.3133 -0.5140 0.9653
6.7335 -5.5654 -0.5088 0.9656
6.5241 -5.9006 -0.6592 0.9653
6.3478 -7.5082 -0.7368 0.9613
6.3442 -6.2739 -0.6686 0.9648
-5.7887 7.1648 -0.6903 0.9637
6.3091 -6.8213 -0.8518 0.9634
7.1387 -5.3835 -0.8197 0.9647
6.5770 -7.7794 -0.9339 0.9599
6.8124 -5.6306 -0.8103 0.9651
6.6325 -5.9987 -0.9700 0.9647
8.5288 -5.3118 -1.0898 0.9604
6.8783 -5.6851 -0.9679 0.9647
7.6717 -5.2663 -1.0093 0.9633
-5.7878 7.1637 -0.9989 0.9636
6.5303 -7.0605 -1.2052 0.9620
6.7042 -6.0636 -1.1328 0.9642
7.7951 -5.3511 -1.1849 0.9626
6.8127 -6.1617 -1.3066 0.9636
6.6626 -6.5888 -1.3328 0.9628
7.0624 -5.8372 -1.3032 0.9637
-5.7869 7.1626 -1.3097 0.9635
6.9543 -6.2897 -1.4931 0.9627
-5.7864 7.1620 -1.4662 0.9634
7.1746 -6.4890 -1.7058 0.9615
12.7984 7.2003 -2.8418 0.9419
12.1078 8.3115 -2.8420 0.9419
11.3211 9.3571 -2.8423 0.9419
2.4456 14.4986 -2.8454 0.9419
1.1456 14.6611 -2.8458 0.9418
-1.4724 14.6366 -2.8467 0.9418
-2.7698 14.4497 -2.8472 0.9418
-5.2895 13.7338 -2.8480 0.9418
-6.4918 13.2105 -2.8485 0.9418
-7.6429 12.5820 -2.8489 0.9418
12.4655 7.7636 -2.8419 0.9419
7.9064 12.3852 -2.8435 0.9419
3.0888 14.3742 -2.8452 0.9419
-2.1232 14.5576 -2.8470 0.9418
-4.6721 13.9548 -2.8478 0.9418
-5.8965 13.4856 -2.8483 0.9418
-7.0744 12.9091 -2.8487 0.9418
-5.7855 7.1608 -1.7815 0.9632
-10.2374 10.5854 -2.8498 0.9418
-14.2468 0.0000 -3.0035 0.9434
-13.7398 -3.7637 -3.0033 0.9434
-11.5595 -8.3200 -3.0026 0.9434
-10.7721 -9.3150 -3.0023 0.9434
-9.8992 -10.2357 -3.0020 0.9435
-7.9257 -11.8260 -3.0013 0.9435
-5.7019 -13.0405 -3.0005 0.9435
-3.2985 -13.8411 -2.9997 0.9435
1.7383 -14.1138 -2.9979 0.9435
2.9871 -13.9010 -2.9975 0.9435
7.6465 -11.9781 -2.9959 0.9436
13.1951 -5.2515 -2.9940 0.9436
13.6095 -4.0560 -2.9939 0.9436
14.1966 -0.3163 -2.9937 0.9436
14.1685 0.9485 -2.9937 0.9436
14.0281 2.2058 -2.9937 0.9436
12.2904 5.5378 -2.8419 0.9464
8.7072 10.2989 -2.8432 0.9464
6.7448 11.6824 -2.8439 0.9463
5.6790 12.2379 -2.8442 0.9463
3.4201 13.0545 -2.8450 0.9463
2.2449 13.3090 -2.8454 0.9463
-1.3516 13.4351 -2.8467 0.9463
-2.5424 13.2634 -2.8471 0.9463
-3.7133 12.9863 -2.8475 0.9463
-4.8551 12.6061 -2.8479 0.9463
-5.9586 12.1255 -2.8483 0.9463
-7.0151 11.5485 -2.8486 0.9463
-9.8203 9.2880 -2.8496 0.9462
-10.6090 8.3779 -2.8499 0.9462
-11.9282 6.3651 -2.8503 0.9462
-12.4482 5.2785 -2.8505 0.9462
-13.8941 3.1480 -3.0034 0.9434
-14.1195 -1.8989 -3.0035 0.9434
-13.8941 -3.1480 -3.0034 0.9434
-13.1146 -5.5611 -3.0031 0.9434
-9.4329 -10.6660 -3.0018 0.9435
-8.4452 -11.4619 -3.0015 0.9435
-7.3906 -12.1666 -3.0011 0.9435
-6.2776 -12.7744 -3.0007 0.9435
-5.1150 -13.2807 -3.0003 0.9435
-0.1585 -14.2226 -2.9986 0.9435
1.1079 -14.1782 -2.9982 0.9435
2.3651 -14.0213 -2.9977 0.9435
5.9829 -12.8929 -2.9965 0.9436
9.1732 -10.8502 -2.9954 0.9436
10.9494 -9.0499 -2.9948 0.9436
12.3785 -6.9640 -2.9943 0.9436
13.7764 -3.4457 -2.9938 0.9436
14.0280 -2.2058 -2.9937 0.9436
14.1966 0.3164 -2.9937 0.9436
13.9161 2.8286 -2.9938 0.9436
12.5246 4.9847 -2.8419 0.9464
11.4439 7.1273 -2.8422 0.9464
10.0006 9.0451 -2.8427 0.9464
9.1568 9.9003 -2.8430 0.9464
8.2402 10.6771 -2.8434 0.9464
7.2581 11.3696 -2.8437 0.9464
6.2181 11.9720 -2.8441 0.9463
2.8354 13.1949 -2.8452 0.9463
0.4511 13.4924 -2.8461 0.9463
-0.7517 13.4810 -2.8465 0.9463
-3.1309 13.1379 -2.8473 0.9463
-4.2884 12.8089 -2.8477 0.9463
-5.4122 12.3781 -2.8481 0.9463
-7.5231 11.2253 -2.8488 0.9463
-5.7851 7.1603 -1.9406 0.9631
-12.8888 4.7999 -2.8995 0.9453
-13.7399 3.7638 -3.0033 0.9434
-13.1053 -1.1711 -3.0031 0.9474
-11.3184 -6.7039 -3.0025 0.9475
-8.2642 -10.2287 -3.0014 0.9475
-6.3183 -11.5293 -3.0007 0.9475
-5.2664 -12.0445 -3.0004 0.9475
-4.1729 -12.4638 -3.0000 0.9475
-3.0466 -12.7841 -2.9996 0.9475
-1.8964 -13.0028 -2.9992 0.9475
-0.7315 -13.1182 -2.9988 0.9475
1.6056 -13.0365 -2.9980 0.9475
6.0512 -11.6506 -2.9965 0.9476
8.0192 -10.3908 -2.9958 0.9476
12.1892 -4.8512 -2.9943 0.9476
12.5721 -3.7469 -2.9942 0.9476
13.0365 -1.4583 -2.9941 0.9476
13.0885 0.8762 -2.9941 0.9476
12.9588 2.0377 -2.9941 0.9476
10.8538 6.1062 -2.8424 0.9502
10.2680 7.0486 -2.8426 0.9502
9.6006 7.9352 -2.8429 0.9502
8.8571 8.7590 -2.8431 0.9502
8.0431 9.5135 -2.8434 0.9502
6.2303 10.7912 -2.8441 0.9502
4.2193 11.7278 -2.8448 0.9501
3.1591 12.0584 -2.8451 0.9501
-0.1389 12.4696 -2.8463 0.9501
-5.5035 11.1992 -2.8481 0.9501
-6.4792 10.6662 -2.8485 0.9501
-7.4036 10.0483 -2.8488 0.9501
-8.2695 9.3505 -2.8491 0.9501
-9.7981 7.7375 -2.8496 0.9501
-10.4487 6.8353 -2.8498 0.9501
-11.4966 4.8750 -2.8502 0.9501
-13.1445 0.5861 -3.0031 0.9474
-12.5217 -4.0377 -3.0029 0.9475
-11.6061 -6.1932 -3.0026 0.9475
-10.3226 -8.1517 -3.0021 0.9475
-7.7999 -10.5861 -3.0013 0.9475
-5.7980 -11.7986 -3.0006 0.9475
-3.6133 -12.6365 -2.9998 0.9475
-2.4739 -12.9062 -2.9994 0.9475
-1.3152 -13.0735 -2.9990 0.9475
-0.1464 -13.1369 -2.9986 0.9475
4.4451 -12.3555 -2.9970 0.9476
10.1146 -8.3599 -2.9951 0.9476
10.8176 -7.4259 -2.9948 0.9476
11.4348 -6.4331 -2.9946 0.9476
11.9613 -5.3895 -2.9944 0.9476
12.3929 -4.3033 -2.9943 0.9476
12.7263 -3.1830 -2.9942 0.9476
13.0885 -0.8762 -2.9940 0.9476
12.8553 2.6130 -2.9941 0.9476
11.1147 5.6165 -2.8423 0.9502
8.4585 9.1453 -2.8433 0.9502
7.6118 9.8629 -2.8436 0.9502
6.7045 10.5023 -2.8439 0.9502
5.7438 11.0587 -2.8442 0.9502
4.7373 11.5274 -2.8446 0.9502
0.4167 12.4625 -2.8461 0.9501
-1.8001 12.3423 -2.8468 0.9501
-2.8918 12.1346 -2.8472 0.9501
-3.9609 11.8306 -2.8476 0.9501
-4.9988 11.4326 -2.8479 0.9501
-5.9973 10.9436 -2.8483 0.9501
-6.9483 10.3676 -2.8486 0.9501
-8.6782 8.9732 -2.8492 0.9501
-9.4433 8.1660 -2.8495 0.9501
-10.1335 7.2937 -2.8497 0.9501
-10.7432 6.3633 -2.8499 0.9501
-11.2677 5.3821 -2.8501 0.9501
-12.3292 4.5915 -3.0029 0.9475
-12.9489 2.3329 -3.0031 0.9474
-13.1053 1.1711 -3.0031 0.9474
-12.2165 0.0000 -3.0028 0.9509
-12.1679 -1.0873 -3.0028 0.9509
-11.7818 -3.2274 -3.0027 0.9509
-11.4473 -4.2630 -3.0025 0.9509
-11.0219 -5.2647 -3.0024 0.9509
-10.5090 -6.2245 -3.0022 0.9509
-9.9126 -7.1346 -3.0020 0.9509
-9.2375 -7.9879 -3.0018 0.9509
-8.4891 -8.7777 -3.0015 0.9509
-7.6734 -9.4975 -3.0012 0.9510
-6.7970 -10.1417 -3.0009 0.9510
-1.7609 -12.0739 -2.9992 0.9510
-0.6792 -12.1812 -2.9988 0.9510
1.4909 -12.1056 -2.9980 0.9510
3.6128 -11.6466 -2.9973 0.9510
4.6345 -11.2775 -2.9969 0.9510
5.6192 -10.8190 -2.9966 0.9510
7.4469 -9.6492 -2.9960 0.9510
9.7291 -7.3370 -2.9952 0.9510
11.3197 -4.5051 -2.9947 0.9511
11.9383 -2.4265 -2.9944 0.9511
12.1791 -0.2714 -2.9944 0.9511
12.1550 0.8137 -2.9944 0.9511
11.8186 2.9561 -2.9945 0.9511
11.5090 3.9964 -2.9946 0.9511
9.5354 6.5457 -2.8429 0.9535
8.9157 7.3690 -2.8431 0.9535
8.2251 8.1340 -2.8434 0.9535
5.7856 10.0210 -2.8442 0.9535
4.8713 10.4973 -2.8445 0.9535
3.9181 10.8905 -2.8449 0.9534
2.9336 11.1973 -2.8452 0.9534
0.9020 11.5430 -2.8459 0.9534
-0.1290 11.5789 -2.8463 0.9534
-2.1805 11.3754 -2.8470 0.9534
-3.1847 11.1375 -2.8473 0.9534
-4.1638 10.8111 -2.8477 0.9534
-5.1101 10.3989 -2.8480 0.9534
-6.8744 9.3300 -2.8486 0.9534
-7.6783 8.6820 -2.8489 0.9534
-8.4213 7.9648 -2.8491 0.9534
-9.0975 7.1843 -2.8494 0.9534
-9.7015 6.3465 -2.8496 0.9534
-11.2459 4.7687 -3.0025 0.9509
-12.1073 -1.6283 -3.0028 0.9509
-11.6261 -3.7489 -3.0026 0.9509
-10.2209 -6.6862 -3.0021 0.9509
-8.0893 -9.1467 -3.0014 0.9509
-5.3837 -10.9554 -3.0004 0.9510
-4.3867 -11.3898 -3.0001 0.9510
-3.3551 -11.7336 -2.9997 0.9510
-2.2972 -11.9842 -2.9993 0.9510
-0.1359 -12.1986 -2.9986 0.9510
0.9503 -12.1607 -2.9982 0.9510
3.0906 -11.7967 -2.9975 0.9510
4.1278 -11.4734 -2.9971 0.9510
5.1320 -11.0592 -2.9968 0.9510
8.6654 -8.5693 -2.9956 0.9510
9.3929 -7.7634 -2.9953 0.9510
12.0344 -1.8923 -2.9944 0.9511
12.1550 -0.8137 -2.9944 0.9511
12.1791 0.2714 -2.9944 0.9511
12.1067 1.3544 -2.9944 0.9511
11.6754 3.4796 -2.9945 0.9511
9.8172 6.1143 -2.8428 0.9535
9.2347 6.9642 -2.8430 0.9535
8.5789 7.7592 -2.8432 0.9535
7.8549 8.4927 -2.8435 0.9535
4.3991 10.7045 -2.8447 0.9534
1.4152 11.4906 -2.8457 0.9534
0.3869 11.5724 -2.8461 0.9534
-0.6447 11.5624 -2.8464 0.9534
-1.6715 11.4605 -2.8468 0.9534
-3.6779 10.9853 -2.8475 0.9534
-5.5686 10.1614 -2.8481 0.9534
-6.4516 9.6265 -2.8484 0.9534
-8.0578 8.3317 -2.8490 0.9534
-10.4618 4.9972 -2.8498 0.9534
-12.0227 2.1660 -3.0027 0.9509
-11.3948 0.0000 -3.0025 0.9540
-11.3495 -1.0142 -3.0025 0.9540
-11.2140 -2.0203 -3.0025 0.9540
-10.9894 -3.0103 -3.0024 0.9540
-10.6774 -3.9763 -3.0023 0.9540
-10.2807 -4.9106 -3.0021 0.9540
-9.8022 -5.8059 -3.0020 0.9540
-9.2460 -6.6548 -3.0018 0.9540
-7.9183 -8.1875 -3.0013 0.9540
-7.1575 -8.8590 -3.0010 0.9540
-5.4723 -9.9858 -3.0004 0.9540
-4.5613 -10.4321 -3.0001 0.9540
-1.6426 -11.2627 -2.9991 0.9540
-0.6336 -11.3629 -2.9988 0.9540
1.3908 -11.2925 -2.9981 0.9540
2.3901 -11.1226 -2.9977 0.9540
4.3234 -10.5203 -2.9971 0.9540
5.2420 -10.0927 -2.9967 0.9540
6.1189 -9.5851 -2.9964 0.9540
6.9471 -9.0016 -2.9962 0.9541
7.7200 -8.3468 -2.9959 0.9541
8.4316 -7.6259 -2.9956 0.9541
10.1448 -5.1263 -2.9951 0.9541
10.5603 -4.2029 -2.9949 0.9541
11.1374 -2.2637 -2.9947 0.9541
11.2945 -1.2635 -2.9947 0.9541
11.3395 0.7591 -2.9947 0.9541
11.2271 1.7654 -2.9947 0.9541
11.0257 2.7577 -2.9948 0.9541
10.7369 3.7283 -2.9949 0.9541
6.9679 8.2417 -2.8438 0.9563
6.2072 8.8299 -2.8441 0.9563
4.5442 9.7926 -2.8446 0.9563
2.7366 10.4454 -2.8453 0.9563
0.8414 10.7676 -2.8459 0.9563
-0.1203 10.8011 -2.8463 0.9563
-2.9707 10.3891 -2.8472 0.9563
-4.7667 9.6999 -2.8479 0.9563
-5.6117 9.2381 -2.8481 0.9563
-6.4122 8.7028 -2.8484 0.9563
-7.1620 8.0983 -2.8487 0.9563
-9.0491 5.9197 -2.8493 0.9563
-9.5407 5.0911 -2.8495 0.9563
-10.4895 4.4480 -3.0022 0.9540
-11.2930 1.5188 -3.0025 0.9540
-11.3834 -0.5076 -3.0025 0.9540
-11.1127 -2.5178 -3.0024 0.9540
-10.8442 -3.4968 -3.0023 0.9540
-8.9400 -7.0599 -3.0017 0.9540
-8.2755 -7.8269 -3.0014 0.9540
-7.5454 -8.5317 -3.0012 0.9540
-6.7555 -9.1686 -3.0009 0.9540
-5.9120 -9.7325 -3.0006 0.9540
-4.0919 -10.6243 -3.0000 0.9540
-3.1297 -10.9451 -2.9996 0.9540
-2.1428 -11.1790 -2.9993 0.9540
-1.1392 -11.3240 -2.9989 0.9540
-0.1268 -11.3792 -2.9986 0.9540
0.8864 -11.3439 -2.9982 0.9540
6.5395 -9.3025 -2.9963 0.9541
8.7626 -7.2425 -2.9955 0.9541
9.3718 -6.4334 -2.9953 0.9541
9.9066 -5.5733 -2.9951 0.9541
10.3628 -4.6692 -2.9950 0.9541
10.7368 -3.7282 -2.9949 0.9541
11.0257 -2.7577 -2.9948 0.9541
11.3395 -0.7590 -2.9947 0.9541
11.2945 1.2635 -2.9947 0.9541
10.8921 3.2462 -2.9948 0.9541
8.6150 6.4969 -2.8432 0.9563
8.0032 7.2384 -2.8434 0.9563
7.3278 7.9227 -2.8437 0.9563
3.1990 10.3126 -2.8451 0.9563
1.3201 10.7189 -2.8458 0.9563
0.3609 10.7951 -2.8461 0.9563
-0.6014 10.7856 -2.8464 0.9563
-2.5048 10.5105 -2.8471 0.9563
-5.1943 9.4784 -2.8480 0.9563
-8.7762 6.3167 -2.8492 0.9563
-10.6775 3.9764 -3.0023 0.9540
-11.2140 2.0203 -3.0025 0.9540
-11.3495 1.0142 -3.0025 0.9540
-10.6707 0.0000 -3.0023 0.9566
-10.5014 -1.8919 -3.0022 0.9566
-10.2911 -2.8190 -3.0021 0.9566
-9.1795 -5.4370 -3.0017 0.9566
-8.0690 -6.9775 -3.0014 0.9566
-6.7029 -8.2963 -3.0009 0.9566
-4.2717 -9.7696 -3.0000 0.9567
-1.5384 -10.5478 -2.9991 0.9567
-0.5934 -10.6417 -2.9988 0.9567
0.3561 -10.6511 -2.9984 0.9567
1.3026 -10.5760 -2.9981 0.9567
2.2385 -10.4170 -2.9978 0.9567
4.9095 -9.4525 -2.9969 0.9567
5.7308 -8.9772 -2.9966 0.9567
7.2305 -7.8175 -2.9961 0.9567
7.8970 -7.1424 -2.9958 0.9567
9.0370 -5.6283 -2.9954 0.9567
9.5016 -4.8013 -2.9953 0.9567
9.8908 -3.9364 -2.9951 0.9567
10.6419 -0.2371 -2.9949 0.9567
10.0562 3.4919 -2.9951 0.9567
8.3316 5.7193 -2.8433 0.9589
7.7900 6.4387 -2.8435 0.9589
4.2560 9.1714 -2.8447 0.9589
2.5630 9.7827 -2.8453 0.9588
0.7880 10.0843 -2.8459 0.9588
-0.1127 10.1156 -2.8462 0.9588
-1.9049 9.9375 -2.8469 0.9588
-3.6374 9.4443 -2.8475 0.9588
-5.2553 8.6514 -2.8480 0.9588
-6.0050 8.1501 -2.8483 0.9588
-6.7071 7.5839 -2.8485 0.9588
-8.9811 4.7925 -2.8641 0.9586
-9.8231 4.1654 -3.0020 0.9566
-10.1552 3.2747 -3.0021 0.9566
-10.5754 1.4223 -3.0022 0.9566
-10.6601 0.4754 -3.0023 0.9566
-10.5754 -1.4223 -3.0022 0.9566
-9.8230 -4.1653 -3.0020 0.9566
-9.4128 -5.0228 -3.0018 0.9566
-8.9279 -5.8404 -3.0017 0.9566
-5.5366 -9.1145 -3.0005 0.9567
-4.7029 -9.5702 -3.0002 0.9567
-2.9310 -10.2503 -2.9996 0.9567
-2.0068 -10.4693 -2.9992 0.9567
-1.0669 -10.6053 -2.9989 0.9567
1.7723 -10.5069 -2.9979 0.9567
3.6064 -10.0240 -2.9973 0.9567
5.3255 -9.2240 -2.9967 0.9567
6.1248 -8.7126 -2.9964 0.9567
6.8753 -8.1321 -2.9962 0.9567
7.5712 -7.4873 -2.9959 0.9567
8.2070 -6.7832 -2.9957 0.9567
8.7776 -6.0255 -2.9955 0.9567
9.7059 -4.3732 -2.9952 0.9567
10.0562 -3.4919 -2.9951 0.9567
10.6419 0.2372 -2.9949 0.9567
10.4315 2.1203 -2.9950 0.9567
10.2016 3.0404 -2.9951 0.9567
9.8909 3.9365 -2.9952 0.9567
6.8631 7.4203 -2.8438 0.9589
6.1759 8.0024 -2.8441 0.9589
5.4397 8.5211 -2.8443 0.9589
4.6601 8.9723 -2.8446 0.9589
2.9960 9.6583 -2.8452 0.9589
1.2364 10.0387 -2.8458 0.9588
-1.4602 10.0119 -2.8467 0.9588
-2.3458 9.8433 -2.8470 0.9588
-3.2129 9.5964 -2.8473 0.9588
-4.0547 9.2733 -2.8476 0.9588
-5.6357 8.4091 -2.8482 0.9588
-5.6679 7.0153 -2.5375 0.9632
-7.0386 7.2779 -2.8486 0.9588
-7.6590 6.6230 -2.8489 0.9588
-8.2186 5.9154 -2.8490 0.9588
-10.6283 0.9498 -3.0023 0.9566
-9.8685 -1.7779 -3.0020 0.9590
-9.3964 -3.4992 -3.0018 0.9590
-8.6263 -5.1093 -3.0016 0.9590
-7.5828 -6.5571 -3.0012 0.9590
-5.5797 -8.3255 -3.0005 0.9590
-4.8161 -8.7883 -3.0002 0.9590
-3.1810 -9.5012 -2.9997 0.9590
-0.5577 -10.0009 -2.9987 0.9590
2.1037 -9.7899 -2.9978 0.9591
2.9664 -9.5629 -2.9975 0.9591
4.6141 -8.8838 -2.9970 0.9591
6.7955 -7.3472 -2.9962 0.9591
8.4935 -5.2898 -2.9956 0.9591
9.2960 -3.6997 -2.9954 0.9591
9.9424 -1.1122 -2.9951 0.9591
9.1222 4.1103 -2.9954 0.9591
7.3214 6.0513 -2.8437 0.9611
6.1334 7.2546 -2.8441 0.9611
2.4087 9.1939 -2.8454 0.9611
-0.1059 9.5065 -2.8462 0.9611
-2.6145 9.1436 -2.8471 0.9611
-3.4183 8.8754 -2.8474 0.9611
-4.9387 8.1302 -2.8479 0.9611
-5.6432 7.6591 -2.8482 0.9611
-6.1550 6.9596 -2.7815 0.9619
-6.9128 6.5381 -2.8486 0.9610
-7.4678 5.8973 -2.8488 0.9610
-9.7794 2.2157 -3.0020 0.9590
-9.9380 1.3366 -3.0020 0.9590
-10.0176 -0.4467 -3.0020 0.9590
-9.9380 -1.3365 -3.0020 0.9590
-9.7794 -2.2157 -3.0020 0.9590
-9.5431 -3.0772 -3.0019 0.9590
-8.8456 -4.7201 -3.0016 0.9590
-8.3899 -5.4884 -3.0015 0.9590
-7.2829 -6.8881 -3.0011 0.9590
-5.9453 -8.0690 -3.0006 0.9590
-3.6013 -9.3505 -2.9998 0.9590
-1.0027 -9.9667 -2.9989 0.9590
1.6656 -9.8744 -2.9980 0.9590
2.5376 -9.6860 -2.9977 0.9591
4.2140 -9.0809 -2.9971 0.9591
6.4617 -7.6429 -2.9963 0.9591
7.1158 -7.0370 -2.9961 0.9591
7.7134 -6.3752 -2.9959 0.9591
9.1221 -4.1102 -2.9954 0.9591
9.4514 -3.2819 -2.9953 0.9591
9.9425 1.1122 -2.9951 0.9591
9.5881 2.8576 -2.9953 0.9591
9.2961 3.6997 -2.9954 0.9591
8.9303 4.5127 -2.9955 0.9591
8.0619 5.0210 -2.8434 0.9611
3.6121 8.7896 -2.8450 0.9611
1.1620 9.4344 -2.8458 0.9611
-1.3723 9.4090 -2.8467 0.9611
-2.2045 9.2505 -2.8470 0.9611
-3.8105 8.7148 -2.8475 0.9611
-6.6145 6.8394 -2.8485 0.9611
-8.1880 4.8498 -2.8490 0.9610
-9.0473 4.3216 -3.0017 0.9590
-9.3964 3.4993 -3.0018 0.9590
-9.6709 2.6491 -3.0019 0.9590
-9.8685 1.7779 -3.0020 0.9590
-9.3022 -1.6758 -3.0018 0.9611
-8.5282 -4.0736 -3.0015 0.9611
-8.1314 -4.8162 -3.0014 0.9611
-7.6700 -5.5205 -3.0012 0.9611
-7.1478 -6.1809 -3.0010 0.9611
-6.5688 -6.7921 -3.0008 0.9611
-5.9378 -7.3493 -3.0006 0.9611
-5.2597 -7.8480 -3.0004 0.9611
-4.5399 -8.2843 -3.0001 0.9611
-3.7842 -8.6547 -2.9999 0.9611
-2.9986 -8.9564 -2.9996 0.9611
-0.5257 -9.4277 -2.9987 0.9611
1.9832 -9.2289 -2.9979 0.9612
5.0775 -7.9537 -2.9968 0.9612
6.4063 -6.9264 -2.9963 0.9612
7.5319 -5.6800 -2.9960 0.9612
8.0071 -4.9868 -2.9958 0.9612
8.7637 -3.4879 -2.9955 0.9612
9.0391 -2.6939 -2.9954 0.9612
9.3731 -1.0485 -2.9953 0.9612
9.4105 0.6300 -2.9953 0.9612
9.1500 2.2886 -2.9954 0.9612
8.9103 3.0940 -2.9955 0.9612
7.3820 5.0675 -2.8436 0.9631
5.7821 6.8391 -2.8442 0.9631
4.4786 7.7571 -2.8447 0.9631
3.0328 8.4298 -2.8452 0.9631
-0.0998 8.9616 -2.8462 0.9631
-2.4646 8.6193 -2.8471 0.9631
-3.2223 8.3665 -2.8473 0.9631
-3.9545 8.0472 -2.8476 0.9631
-4.6555 7.6639 -2.8478 0.9631
-5.9415 6.7181 -2.8483 0.9631
-6.5163 6.1631 -2.8485 0.9631
-8.3381 4.4494 -3.0015 0.9611
-9.2183 2.0886 -3.0018 0.9611
-9.4428 0.4211 -3.0019 0.9611
-9.2182 -2.0885 -3.0018 0.9611
-8.7013 -3.6896 -3.0016 0.9611
-7.4163 -5.8565 -3.0011 0.9611
-6.8651 -6.4930 -3.0009 0.9611
-5.6043 -7.6062 -3.0005 0.9611
-4.9047 -8.0741 -3.0003 0.9611
0.7355 -9.4123 -2.9983 0.9612
1.5702 -9.3086 -2.9980 0.9612
2.3922 -9.1310 -2.9977 0.9612
3.9725 -8.5606 -2.9972 0.9612
4.7183 -8.1723 -2.9969 0.9612
5.4265 -7.7193 -2.9967 0.9612
6.7082 -6.6339 -2.9962 0.9612
7.2716 -6.0101 -2.9960 0.9612
8.2211 -4.6251 -2.9957 0.9612
8.5998 -3.8749 -2.9956 0.9612
8.9102 -3.0940 -2.9955 0.9612
9.3172 -1.4650 -2.9954 0.9612
9.4105 -0.6300 -2.9953 0.9612
9.3732 1.0486 -2.9953 0.9612
9.2428 1.8787 -2.9954 0.9612
9.0391 2.6940 -2.9955 0.9612
7.1492 5.3915 -2.8437 0.9631
6.0808 6.5745 -2.8441 0.9631
4.8195 7.5496 -2.8445 0.9631
4.1288 7.9493 -2.8448 0.9631
1.0954 8.8937 -2.8458 0.9631
-0.4990 8.9487 -2.8464 0.9631
-2.0781 8.7201 -2.8469 0.9631
-4.9924 7.4493 -2.8479 0.9631
-6.2351 6.4470 -2.8484 0.9631
-8.0513 4.7688 -2.9718 0.9615
-8.8573 3.2985 -3.0017 0.9611
-9.1160 2.4971 -3.0017 0.9611
-9.4146 0.8413 -3.0018 0.9611
-8.9340 0.0000 -3.0017 0.9630
-8.7923 -1.5840 -3.0016 0.9630
-8.3718 -3.1177 -3.0015 0.9630
-8.0607 -3.8503 -3.0014 0.9630
-7.6857 -4.5522 -3.0012 0.9630
-6.2089 -6.4199 -3.0007 0.9630
-5.6124 -6.9466 -3.0005 0.9630
-2.8344 -8.4658 -2.9995 0.9630
-2.0694 -8.6837 -2.9993 0.9630
-1.2882 -8.8327 -2.9990 0.9630
0.2982 -8.9194 -2.9985 0.9630
3.3910 -8.2516 -2.9974 0.9631
4.1117 -7.9164 -2.9971 0.9631
5.4493 -7.0609 -2.9967 0.9631
6.0557 -6.5473 -2.9965 0.9631
8.2843 -3.2971 -2.9957 0.9631
8.5446 -2.5465 -2.9956 0.9631
8.9134 -0.1986 -2.9955 0.9631
8.8075 1.3849 -2.9955 0.9631
8.4228 2.9248 -2.9957 0.9631
7.7714 4.3721 -2.9959 0.9631
6.9784 4.7902 -2.8438 0.9649
6.5245 5.3926 -2.8439 0.9649
6.0190 5.9523 -2.8441 0.9649
5.4657 6.4648 -2.8443 0.9649
4.2335 7.3326 -2.8447 0.9649
2.8668 7.9684 -2.8452 0.9649
0.6599 8.4449 -2.8460 0.9649
-0.8480 8.4296 -2.8465 0.9649
-4.4004 7.2441 -2.8477 0.9649
-5.0281 6.8242 -2.8479 0.9649
-6.1592 5.8254 -2.8483 0.9649
-7.8811 4.2055 -3.0013 0.9630
-8.5025 2.7417 -3.0015 0.9630
-8.9252 0.3980 -3.0017 0.9630
-8.5025 -2.7417 -3.0015 0.9630
-8.2244 -3.4874 -3.0014 0.9630
-7.4751 -4.8900 -3.0012 0.9630
-5.9165 -6.6899 -3.0006 0.9630
-4.6360 -7.6318 -3.0002 0.9630
-3.9380 -8.0135 -2.9999 0.9630
-2.4543 -8.5833 -2.9994 0.9630
-0.0994 -8.9243 -2.9986 0.9630
0.6952 -8.8969 -2.9983 0.9630
1.4842 -8.7989 -2.9980 0.9630
2.2613 -8.6311 -2.9978 0.9630
3.0202 -8.3949 -2.9975 0.9631
3.7551 -8.0920 -2.9973 0.9631
4.4601 -7.7251 -2.9970 0.9631
6.3412 -6.2709 -2.9964 0.9631
7.3517 -5.0467 -2.9960 0.9631
7.7713 -4.3721 -2.9959 0.9631
8.1293 -3.6629 -2.9958 0.9631
8.4228 -2.9247 -2.9957 0.9631
8.6495 -2.1634 -2.9956 0.9631
8.8075 -1.3849 -2.9955 0.9631
8.9134 0.1987 -2.9955 0.9631
8.7372 1.7759 -2.9956 0.9631
7.9583 4.0215 -2.9958 0.9631
7.5596 4.7082 -2.9922 0.9631
6.2779 5.6781 -2.8440 0.9649
5.7480 6.2147 -2.8442 0.9649
3.9028 7.5142 -2.8449 0.9649
3.2188 7.8324 -2.8451 0.9649
2.5091 8.0885 -2.8453 0.9649
1.7794 8.2805 -2.8456 0.9649
0.2831 8.4663 -2.8461 0.9649
-0.4716 8.4587 -2.8464 0.9649
-1.2228 8.3839 -2.8466 0.9649
-1.9643 8.2425 -2.8469 0.9649
-2.6904 8.0357 -2.8471 0.9649
-5.8934 6.0938 -2.8482 0.9649
-6.4128 5.5454 -2.8484 0.9649
-6.8813 4.9529 -2.8486 0.9649
-7.6858 4.5523 -3.0013 0.9630
-8.0608 3.8504 -3.0014 0.9630
-8.7923 1.5840 -3.0016 0.9630
-8.3306 -1.5008 -3.0015 0.9647
-7.6374 -3.6481 -3.0012 0.9647
-7.2821 -4.3132 -3.0011 0.9647
-6.4014 -5.5354 -3.0008 0.9647
-5.3178 -6.5819 -3.0004 0.9647
-4.7105 -7.0286 -3.0002 0.9647
-2.6856 -8.0215 -2.9995 0.9647
-1.2206 -8.3691 -2.9990 0.9647
-0.4708 -8.4438 -2.9987 0.9647
1.0336 -8.3921 -2.9982 0.9648
4.5479 -7.1242 -2.9970 0.9648
5.1636 -6.6906 -2.9968 0.9648
6.2673 -5.6684 -2.9964 0.9648
7.5410 -3.8106 -2.9960 0.9648
7.8500 -3.1242 -2.9959 0.9648
8.0967 -2.4130 -2.9958 0.9648
8.2792 -1.6828 -2.9957 0.9648
8.3960 -0.9392 -2.9957 0.9648
8.4462 -0.1882 -2.9957 0.9648
8.3459 1.3124 -2.9957 0.9648
8.1961 2.0500 -2.9957 0.9648
7.9813 2.7715 -2.9958 0.9648
7.3640 4.1430 -2.9960 0.9648
6.1824 5.1099 -2.8441 0.9665
4.6136 6.5630 -2.8446 0.9665
3.3774 7.2781 -2.8450 0.9665
2.7164 7.5504 -2.8453 0.9665
2.0338 7.7629 -2.8455 0.9665
-0.0894 8.0265 -2.8462 0.9665
-2.2074 7.7196 -2.8470 0.9665
-3.5417 7.2071 -2.8474 0.9665
-4.7641 6.4659 -2.8478 0.9665
-5.3211 6.0166 -2.8480 0.9665
-5.8358 5.5195 -2.8482 0.9665
-7.0827 4.6333 -3.0010 0.9647
-7.4673 3.9847 -3.0012 0.9647
-8.0560 2.5978 -3.0014 0.9647
-8.3892 1.1283 -3.0015 0.9647
-8.4564 0.3771 -3.0015 0.9647
-8.2554 -1.8704 -3.0014 0.9647
-8.0559 -2.5977 -3.0014 0.9647
-7.4672 -3.9846 -3.0012 0.9647
-6.6418 -5.2449 -3.0009 0.9647
-5.6059 -6.3387 -3.0005 0.9647
-5.0191 -6.8120 -3.0003 0.9647
-4.3926 -7.2312 -3.0001 0.9647
-3.0404 -7.8942 -2.9996 0.9647
-1.5923 -8.3068 -2.9991 0.9647
-0.8465 -8.4148 -2.9989 0.9647
0.6587 -8.4302 -2.9983 0.9647
1.4063 -8.3373 -2.9981 0.9648
3.5582 -7.6677 -2.9973 0.9648
4.8606 -6.9143 -2.9969 0.9648
5.4563 -6.4537 -2.9967 0.9648
6.0087 -5.9421 -2.9965 0.9648
6.9663 -4.7821 -2.9962 0.9648
7.3639 -4.1429 -2.9960 0.9648
7.7032 -3.4709 -2.9959 0.9648
7.9813 -2.7714 -2.9958 0.9648
8.1961 -2.0499 -2.9957 0.9648
8.3459 -1.3123 -2.9957 0.9648
8.2792 1.6829 -2.9957 0.9648
8.0967 2.4131 -2.9958 0.9648
7.5411 3.8107 -2.9960 0.9648
7.1723 4.4670 -2.9961 0.9648
6.4037 4.8293 -2.8440 0.9665
5.9488 5.3804 -2.8441 0.9665
4.3168 6.7622 -2.8447 0.9665
3.6981 7.1201 -2.8449 0.9665
2.3775 7.6643 -2.8454 0.9665
0.2682 8.0221 -2.8461 0.9665
-1.1586 7.9439 -2.8466 0.9665
-2.5492 7.6139 -2.8471 0.9665
-5.0476 6.2475 -2.8479 0.9665
-5.5840 5.7738 -2.8481 0.9665
-6.0761 5.2542 -2.8483 0.9665
-6.6370 4.7771 -2.8996 0.9659
-7.6375 3.6481 -3.0012 0.9647
-7.9322 2.9540 -3.0013 0.9647
-8.0058 -0.7154 -3.0014 0.9663
-7.9102 -1.4251 -3.0013 0.9663
-7.5319 -2.8049 -3.0012 0.9663
-7.2521 -3.4640 -3.0011 0.9663
-6.9147 -4.0956 -3.0010 0.9663
-6.5225 -4.6945 -3.0008 0.9663
-6.0784 -5.2562 -3.0007 0.9663
-5.0496 -6.2499 -3.0003 0.9663
-2.5502 -7.6170 -2.9994 0.9663
-1.8620 -7.8131 -2.9992 0.9663
-1.1591 -7.9472 -2.9990 0.9663
-0.4471 -8.0181 -2.9987 0.9663
2.3785 -7.6675 -2.9977 0.9663
4.3187 -6.7652 -2.9971 0.9663
4.9034 -6.3535 -2.9969 0.9663
5.4491 -5.8915 -2.9967 0.9663
5.9515 -5.3828 -2.9965 0.9663
6.8110 -4.2419 -2.9962 0.9663
7.9731 -0.8919 -2.9958 0.9663
8.0049 0.5359 -2.9958 0.9663
7.7833 1.9467 -2.9959 0.9663
7.5793 2.6319 -2.9960 0.9663
7.3152 3.2961 -2.9961 0.9663
6.9931 3.9342 -2.9962 0.9663
5.8709 4.8525 -2.8442 0.9680
5.4160 5.3561 -2.8443 0.9680
4.3811 6.2323 -2.8447 0.9680
3.2072 6.9113 -2.8451 0.9680
1.9313 7.3716 -2.8455 0.9680
-0.0849 7.6218 -2.8462 0.9680
-0.7630 7.5846 -2.8465 0.9680
-1.4352 7.4872 -2.8467 0.9680
-2.0960 7.3304 -2.8469 0.9680
-2.7404 7.1153 -2.8471 0.9680
-3.3630 6.8436 -2.8474 0.9680
-4.5238 6.1398 -2.8478 0.9680
-6.0513 4.7787 -2.8792 0.9676
-6.7253 4.3995 -3.0009 0.9663
-7.9659 1.0713 -3.0013 0.9663
-8.0297 0.3581 -3.0014 0.9663
-7.3993 -3.1376 -3.0011 0.9663
-7.0905 -3.7836 -3.0010 0.9663
-6.7253 -4.3995 -3.0009 0.9663
-3.5431 -7.2100 -2.9998 0.9663
-0.0895 -8.0298 -2.9986 0.9663
0.6255 -8.0052 -2.9983 0.9663
4.0132 -6.9511 -2.9972 0.9663
5.1814 -6.1286 -2.9968 0.9663
6.1852 -5.1122 -2.9964 0.9663
6.6154 -4.5412 -2.9963 0.9663
7.5793 -2.6318 -2.9960 0.9663
8.0208 0.1787 -2.9958 0.9663
7.8622 1.5981 -2.9959 0.9663
7.4546 2.9669 -2.9960 0.9663
6.8110 4.2420 -2.9962 0.9663
6.2647 4.7245 -2.9299 0.9671
5.1722 5.5922 -2.8444 0.9680
2.2576 7.2780 -2.8454 0.9680
0.2547 7.6177 -2.8461 0.9680
-3.6647 6.6872 -2.8475 0.9680
-4.2457 6.3350 -2.8477 0.9680
-4.7930 5.9323 -2.8479 0.9680
-5.7695 4.9891 -2.8482 0.9680
-7.5319 2.8049 -3.0012 0.9663
-7.7519 2.1235 -3.0013 0.9663
-7.9102 1.4251 -3.0013 0.9663
-8.0058 0.7154 -3.0014 0.9663
-7.6470 0.0000 -3.0012 0.9677
-7.6166 -0.6806 -3.0012 0.9677
-7.5257 -1.3558 -3.0012 0.9677
-7.3751 -2.0202 -3.0011 0.9677
-5.7830 -5.0008 -3.0006 0.9677
-3.6733 -6.7029 -2.9998 0.9677
-3.0619 -7.0028 -2.9996 0.9677
-1.1028 -7.5612 -2.9989 0.9677
-0.4254 -7.6287 -2.9987 0.9677
1.6048 -7.4683 -2.9980 0.9677
2.9031 -7.0644 -2.9976 0.9677
3.5201 -6.7775 -2.9973 0.9677
4.6654 -6.0451 -2.9970 0.9677
5.6627 -5.1216 -2.9966 0.9677
6.4804 -4.0360 -2.9963 0.9677
6.8137 -3.4431 -2.9962 0.9677
7.3158 -2.1803 -2.9960 0.9677
7.5862 -0.8486 -2.9960 0.9677
7.6165 0.5099 -2.9959 0.9677
7.4056 1.8523 -2.9960 0.9677
6.2944 4.3209 -2.9964 0.9677
5.7221 4.7295 -2.9135 0.9686
5.1532 5.0961 -2.8444 0.9693
3.0515 6.5758 -2.8451 0.9693
2.4543 6.8218 -2.8454 0.9693
1.2060 7.1500 -2.8458 0.9693
0.5649 7.2295 -2.8460 0.9693
-0.0808 7.2516 -2.8462 0.9693
-0.7260 7.2162 -2.8465 0.9693
-1.9942 6.9742 -2.8469 0.9693
-2.6072 6.7696 -2.8471 0.9693
-6.0003 4.7384 -3.0007 0.9677
-6.3985 4.1857 -3.0008 0.9677
-7.0397 2.9851 -3.0010 0.9677
-7.2777 2.3468 -3.0011 0.9677
-7.6394 0.3407 -3.0012 0.9677
-7.4578 -1.6897 -3.0012 0.9677
-7.2777 -2.3467 -3.0011 0.9677
-7.0397 -2.9850 -3.0010 0.9677
-6.7458 -3.5997 -3.0009 0.9677
-5.5544 -5.2533 -3.0005 0.9677
-5.0645 -5.7264 -3.0003 0.9677
-4.5344 -6.1541 -3.0001 0.9677
-0.0851 -7.6398 -2.9986 0.9677
1.2706 -7.5327 -2.9981 0.9677
3.2148 -6.9278 -2.9975 0.9677
3.8184 -6.6137 -2.9972 0.9677
4.3916 -6.2472 -2.9970 0.9677
4.9299 -5.8312 -2.9969 0.9677
5.4291 -5.3689 -2.9967 0.9677
5.8851 -4.8641 -2.9965 0.9677
6.6537 -3.7432 -2.9963 0.9677
7.2115 -2.5041 -2.9961 0.9677
7.4056 -1.8522 -2.9960 0.9677
7.6165 -0.5098 -2.9959 0.9677
7.4807 1.5205 -2.9960 0.9677
7.3158 2.1804 -2.9961 0.9677
7.0929 2.8229 -2.9961 0.9677
6.8137 3.4432 -2.9962 0.9677
6.4805 4.0361 -2.9963 0.9677
6.0958 4.5971 -2.9965 0.9677
5.3749 4.8614 -2.8443 0.9693
4.9212 5.3207 -2.8445 0.9693
4.4284 5.7380 -2.8447 0.9693
3.9003 6.1098 -2.8448 0.9693
2.7556 6.7055 -2.8452 0.9693
0.8864 7.1969 -2.8459 0.9693
-1.0467 7.1770 -2.8466 0.9693
-2.9063 6.6470 -2.8472 0.9693
-4.0394 6.0272 -2.8476 0.9693
-4.5601 5.6441 -2.8478 0.9693
-5.0446 5.2161 -2.8479 0.9693
-6.8997 3.2957 -3.0010 0.9677
-7.1658 2.6686 -3.0011 0.9677
-7.3751 2.0203 -3.0011 0.9677
-7.5258 1.3558 -3.0012 0.9677
-7.2881 0.0000 -3.0011 0.9690
-7.2592 -0.6486 -3.0011 0.9690
-7.0289 -1.9254 -3.0010 0.9690
-6.8295 -2.5433 -3.0009 0.9690
-6.5758 -3.1410 -3.0009 0.9690
-6.2699 -3.7137 -3.0007 0.9690
-5.9143 -4.2568 -3.0006 0.9690
-5.5117 -4.7661 -3.0005 0.9690
-4.0560 -6.0519 -3.0000 0.9690
-2.9183 -6.6743 -2.9996 0.9690
-1.0511 -7.2066 -2.9989 0.9690
-0.4054 -7.2710 -2.9987 0.9690
0.8900 -7.2266 -2.9983 0.9690
3.3551 -6.4598 -2.9974 0.9690
4.9417 -5.3429 -2.9969 0.9690
6.7605 -2.6906 -2.9962 0.9690
7.0586 1.7655 -2.9961 0.9690
6.6341 2.9892 -2.9963 0.9690
6.3419 3.5679 -2.9964 0.9690
2.9084 6.2675 -2.8452 0.9706
2.3392 6.5020 -2.8454 0.9706
1.1495 6.8147 -2.8458 0.9705
0.5384 6.8905 -2.8460 0.9705
-0.0770 6.9116 -2.8462 0.9705
-0.6919 6.8778 -2.8464 0.9705
-1.3014 6.7895 -2.8467 0.9705
-1.9007 6.6471 -2.8469 0.9705
-2.4849 6.4521 -2.8471 0.9705
-3.5900 5.9100 -2.8474 0.9705
-4.1021 5.5674 -2.8476 0.9705
-5.0518 4.7780 -2.8633 0.9704
-5.7187 4.5160 -3.0006 0.9690
-6.4293 3.4308 -3.0008 0.9690
-6.7094 2.8450 -3.0009 0.9690
-6.9361 2.2366 -3.0010 0.9690
-7.2809 0.3247 -3.0011 0.9690
-5.7186 -4.5159 -3.0005 0.9690
-5.2937 -5.0068 -3.0004 0.9690
-4.8268 -5.4578 -3.0002 0.9690
-4.3217 -5.8654 -3.0001 0.9690
-1.3711 -7.1528 -2.9990 0.9690
-0.7290 -7.2460 -2.9988 0.9690
1.2110 -7.1795 -2.9981 0.9690
1.8451 -7.0427 -2.9979 0.9690
2.4644 -6.8500 -2.9977 0.9690
4.1858 -5.9544 -2.9971 0.9690
4.6989 -5.5578 -2.9969 0.9690
5.9994 -4.1183 -2.9965 0.9690
6.3419 -3.5679 -2.9964 0.9690
6.8736 -2.3867 -2.9962 0.9690
7.2741 0.1621 -2.9961 0.9690
7.2308 0.8089 -2.9961 0.9690
7.1302 1.4493 -2.9961 0.9690
6.9730 2.0782 -2.9962 0.9690
6.7606 2.6906 -2.9962 0.9690
6.4944 3.2818 -2.9963 0.9690
5.8101 4.3817 -2.9966 0.9690
5.2327 4.7328 -2.9053 0.9699
4.6906 5.0714 -2.8446 0.9706
4.2208 5.4691 -2.8447 0.9706
3.7175 5.8234 -2.8449 0.9706
3.1846 6.1316 -2.8451 0.9706
1.4519 6.7565 -2.8457 0.9705
-0.3848 6.9016 -2.8463 0.9705
-0.9976 6.8404 -2.8465 0.9705
-3.8499 5.7444 -2.8475 0.9705
-4.3461 5.3793 -2.8477 0.9705
-4.8079 4.9714 -2.8479 0.9705
-6.2700 3.7137 -3.0008 0.9690
-6.8295 2.5434 -3.0010 0.9690
-7.0290 1.9255 -3.0010 0.9690
-7.1725 1.2922 -3.0011 0.9690
-7.2592 0.6487 -3.0011 0.9690
-6.9571 0.0000 -3.0010 0.9701
-6.9294 -0.6192 -3.0010 0.9701
-6.7097 -1.8379 -3.0009 0.9701
-6.5193 -2.4278 -3.0008 0.9701
-6.2772 -2.9983 -3.0007 0.9702
-4.8353 -4.9996 -3.0002 0.9702
-4.3709 -5.4099 -3.0001 0.9702
-2.7858 -6.3713 -2.9995 0.9702
-2.2075 -6.5935 -2.9993 0.9702
-0.3870 -6.9410 -2.9987 0.9702
0.2323 -6.9474 -2.9985 0.9702
0.8496 -6.8986 -2.9983 0.9702
2.0591 -6.6378 -2.9979 0.9702
2.6415 -6.4277 -2.9977 0.9702
3.2029 -6.1667 -2.9975 0.9702
3.7388 -5.8568 -2.9973 0.9702
4.2450 -5.5004 -2.9971 0.9702
5.5466 -4.1829 -2.9967 0.9702
6.4539 -2.5686 -2.9963 0.9702
6.9029 -0.7722 -2.9962 0.9702
6.9442 -0.1547 -2.9962 0.9702
6.8617 1.0789 -2.9962 0.9702
6.7385 1.6854 -2.9963 0.9702
6.3332 2.8537 -2.9964 0.9702
6.0543 3.4061 -2.9965 0.9702
5.3549 4.4259 -2.9967 0.9702
4.7876 4.7346 -2.9044 0.9711
4.2578 5.0362 -2.8447 0.9717
2.7765 5.9832 -2.8452 0.9717
1.6719 6.3815 -2.8456 0.9717
1.0973 6.5055 -2.8458 0.9717
-0.6605 6.5656 -2.8464 0.9717
-1.2423 6.4813 -2.8466 0.9717
-1.8144 6.3454 -2.8468 0.9717
-2.3721 6.1591 -2.8470 0.9717
-2.9111 5.9240 -2.8472 0.9717
-3.9158 5.3146 -2.8476 0.9717
-4.3735 4.9453 -2.8477 0.9717
-5.0279 4.7554 -2.9852 0.9703
-5.8213 3.8081 -3.0006 0.9702
-6.6211 2.1351 -3.0009 0.9701
-6.7850 1.5373 -3.0009 0.9701
-6.9502 0.3099 -3.0010 0.9701
-6.9502 -0.3099 -3.0010 0.9701
-6.6211 -2.1350 -3.0009 0.9701
-6.4046 -2.7158 -3.0008 0.9701
-5.8212 -3.8080 -3.0006 0.9702
-5.4590 -4.3109 -3.0005 0.9702
-4.1254 -5.5991 -3.0000 0.9702
-3.0669 -6.2411 -2.9996 0.9702
-0.0774 -6.9511 -2.9986 0.9702
0.5415 -6.9299 -2.9984 0.9702
2.3526 -6.5392 -2.9977 0.9702
2.9251 -6.3035 -2.9976 0.9702
3.4743 -6.0177 -2.9974 0.9702
3.9959 -5.6842 -2.9972 0.9702
4.4857 -5.3057 -2.9970 0.9702
5.7273 -3.9316 -2.9966 0.9702
6.0543 -3.4060 -2.9965 0.9702
6.3332 -2.8536 -2.9964 0.9702
6.5619 -2.2785 -2.9963 0.9702
6.9029 0.7722 -2.9962 0.9702
6.4540 2.5686 -2.9964 0.9702
6.1999 3.1330 -2.9964 0.9702
5.8967 3.6725 -2.9966 0.9702
5.5466 4.1829 -2.9967 0.9702
4.4778 4.8414 -2.8446 0.9717
4.0293 5.2210 -2.8448 0.9717
3.5489 5.5592 -2.8450 0.9717
2.5073 6.1011 -2.8453 0.9717
0.2205 6.5944 -2.8461 0.9717
-0.3674 6.5883 -2.8463 0.9717
-0.9524 6.5299 -2.8465 0.9717
-2.0953 6.2585 -2.8469 0.9717
-2.6442 6.0476 -2.8471 0.9717
-3.1722 5.7886 -2.8473 0.9717
-3.6751 5.4836 -2.8475 0.9717
-5.9852 3.5451 -3.0007 0.9702
-6.2772 2.9984 -3.0008 0.9701
-6.5194 2.4279 -3.0008 0.9701
-6.6506 0.0000 -3.0009 0.9712
-6.4142 -1.7570 -3.0008 0.9712
-6.2322 -2.3209 -3.0007 0.9712
-6.0007 -2.8663 -3.0007 0.9712
-5.7216 -3.3889 -3.0006 0.9712
-5.3971 -3.8845 -3.0004 0.9712
-4.6224 -4.7795 -3.0002 0.9712
-4.1784 -5.1717 -3.0000 0.9712
-3.1949 -5.8299 -2.9997 0.9712
-1.5408 -6.4656 -2.9991 0.9713
-0.3700 -6.6355 -2.9987 0.9713
1.3959 -6.4961 -2.9981 0.9713
3.5744 -5.5991 -2.9973 0.9713
4.5100 -4.8762 -2.9970 0.9713
5.3026 -3.9989 -2.9967 0.9713
5.9272 -2.9951 -2.9965 0.9713
6.1701 -2.4556 -2.9964 0.9713
6.3640 -1.8966 -2.9964 0.9713
6.5075 -1.3227 -2.9963 0.9713
6.5993 -0.7382 -2.9963 0.9713
6.6388 -0.1479 -2.9963 0.9713
6.5599 1.0315 -2.9963 0.9713
6.4422 1.6113 -2.9964 0.9713
6.2733 2.1783 -2.9964 0.9713
6.0547 2.7281 -2.9965 0.9713
5.1194 4.2312 -2.9968 0.9713
4.7227 4.6704 -2.9970 0.9713
3.6260 5.1581 -2.8449 0.9727
2.1348 5.9339 -2.8455 0.9727
1.0490 6.2192 -2.8458 0.9727
0.4914 6.2883 -2.8460 0.9727
-0.6314 6.2767 -2.8464 0.9727
-1.1877 6.1960 -2.8466 0.9727
-3.7434 5.0806 -2.8475 0.9727
-4.2210 4.7729 -2.8750 0.9724
-4.8309 4.5690 -3.0003 0.9712
-6.1226 2.5962 -3.0007 0.9712
-6.6440 0.2963 -3.0009 0.9712
-6.6440 -0.2963 -3.0009 0.9712
-6.4861 -1.4696 -3.0008 0.9712
-6.3295 -2.0410 -3.0008 0.9712
-6.1225 -2.5962 -3.0007 0.9712
-5.8670 -3.1307 -3.0006 0.9712
-4.8308 -4.5689 -3.0002 0.9712
-3.9438 -5.3525 -2.9999 0.9712
-3.4515 -5.6820 -2.9998 0.9712
-2.9319 -5.9662 -2.9996 0.9712
-2.3891 -6.2031 -2.9994 0.9713
-1.2512 -6.5276 -2.9990 0.9713
-0.6652 -6.6126 -2.9988 0.9713
1.6839 -6.4273 -2.9980 0.9713
2.7964 -6.0261 -2.9976 0.9713
3.3215 -5.7530 -2.9974 0.9713
3.8201 -5.4342 -2.9972 0.9713
4.7226 -4.6703 -2.9969 0.9713
5.1193 -4.2312 -2.9968 0.9713
5.4754 -3.7586 -2.9967 0.9713
6.4421 -1.6113 -2.9963 0.9713
6.6256 -0.4435 -2.9963 0.9713
6.5993 0.7383 -2.9963 0.9713
6.5075 1.3227 -2.9963 0.9713
6.3640 1.8967 -2.9964 0.9713
6.1701 2.4557 -2.9965 0.9713
4.3794 4.7350 -2.9102 0.9721
3.3927 5.3146 -2.8450 0.9727
2.9064 5.5958 -2.8452 0.9727
2.3970 5.8327 -2.8454 0.9727
0.2108 6.3042 -2.8461 0.9727
-1.4625 6.1371 -2.8467 0.9727
-2.0031 5.9830 -2.8469 0.9727
-2.5278 5.7813 -2.8471 0.9727
-3.0325 5.5337 -2.8472 0.9727
-4.5977 4.7540 -2.9841 0.9714
-5.0297 4.3494 -3.0003 0.9712
-5.3971 3.8846 -3.0005 0.9712
-6.0007 2.8663 -3.0007 0.9712
-6.5452 1.1792 -3.0009 0.9712
-6.6242 0.5920 -3.0009 0.9712
-6.3660 0.0000 -3.0008 0.9722
-6.3407 -0.5666 -3.0008 0.9722
-6.2651 -1.1287 -3.0007 0.9722
-5.4767 -3.2439 -3.0005 0.9722
-4.8144 -4.1632 -3.0002 0.9722
-4.4246 -4.5750 -3.0001 0.9722
-3.9996 -4.9504 -3.0000 0.9722
-3.5430 -5.2864 -2.9998 0.9723
-3.0582 -5.5805 -2.9996 0.9723
-2.0201 -6.0336 -2.9993 0.9723
-0.3542 -6.3517 -2.9987 0.9723
1.3362 -6.2183 -2.9981 0.9723
3.4216 -5.3598 -2.9974 0.9723
3.8848 -5.0337 -2.9972 0.9723
4.3172 -4.6677 -2.9971 0.9723
5.0760 -3.8279 -2.9968 0.9723
5.3963 -3.3609 -2.9967 0.9723
5.9064 -2.3507 -2.9965 0.9723
6.0920 -1.8156 -2.9965 0.9723
6.3551 -0.1416 -2.9964 0.9723
6.3425 0.4246 -2.9964 0.9723
6.1668 1.5425 -2.9965 0.9723
5.5406 3.1171 -2.9967 0.9723
4.9005 4.0504 -2.9969 0.9723
4.5208 4.4707 -2.9970 0.9723
4.0024 4.7341 -2.9222 0.9730
3.4710 4.9376 -2.8450 0.9737
2.5408 5.4754 -2.8453 0.9737
2.0435 5.6802 -2.8455 0.9737
1.5300 5.8399 -2.8457 0.9737
0.4704 6.0194 -2.8460 0.9737
-0.0673 6.0377 -2.8462 0.9737
-1.6603 5.8066 -2.8468 0.9736
-4.2021 4.7515 -2.9900 0.9723
-4.6241 4.3735 -3.0002 0.9722
-4.9953 3.9447 -3.0003 0.9722
-5.3267 3.4846 -3.0004 0.9722
-5.8605 2.4851 -3.0006 0.9722
-6.0586 1.9537 -3.0007 0.9722
-6.3092 -0.8485 -3.0008 0.9722
-6.0586 -1.9536 -3.0007 0.9722
-5.6159 -2.9967 -3.0005 0.9722
-5.3267 -3.4846 -3.0004 0.9722
-4.9952 -3.9447 -3.0003 0.9722
-4.2163 -4.7674 -3.0000 0.9722
-3.7750 -5.1235 -2.9999 0.9722
-2.2869 -5.9378 -2.9994 0.9723
-1.1977 -6.2484 -2.9990 0.9723
-0.0709 -6.3609 -2.9986 0.9723
0.4955 -6.3416 -2.9984 0.9723
1.6119 -6.1525 -2.9980 0.9723
2.1529 -5.9842 -2.9978 0.9723
3.1795 -5.5070 -2.9975 0.9723
3.6568 -5.2019 -2.9973 0.9723
4.1051 -4.8555 -2.9971 0.9723
4.9005 -4.0504 -2.9969 0.9723
5.7959 -2.6115 -2.9966 0.9723
6.2796 -0.9874 -2.9964 0.9723
6.0921 1.8157 -2.9965 0.9723
5.9064 2.3507 -2.9965 0.9723
5.6739 2.8672 -2.9966 0.9723
5.3964 3.3609 -2.9967 0.9723
3.2477 5.0874 -2.8451 0.9737
1.2683 5.9024 -2.8458 0.9737
0.2018 6.0346 -2.8461 0.9737
-2.4197 5.5340 -2.8470 0.9736
-3.3629 5.0179 -2.8474 0.9736
-3.8528 4.7687 -2.8898 0.9733
-4.4246 4.5751 -3.0001 0.9722
-5.9655 2.2216 -3.0007 0.9722
-6.1397 1.6819 -3.0007 0.9722
-6.1008 0.0000 -3.0007 0.9732
-5.8839 -1.6117 -3.0006 0.9732
-5.5046 -2.6293 -3.0005 0.9732
-4.6139 -3.9898 -3.0002 0.9732
-4.2403 -4.3844 -3.0000 0.9732
-3.8330 -4.7442 -2.9999 0.9732
-2.9308 -5.3481 -2.9996 0.9732
-0.3394 -6.0872 -2.9987 0.9732
0.2037 -6.0929 -2.9985 0.9732
0.7452 -6.0502 -2.9983 0.9732
1.2806 -5.9595 -2.9981 0.9732
1.8059 -5.8215 -2.9979 0.9732
2.8091 -5.4085 -2.9976 0.9732
3.2792 -5.1367 -2.9974 0.9732
4.1375 -4.4735 -2.9971 0.9732
4.8648 -3.6687 -2.9969 0.9732
5.4378 -2.7478 -2.9967 0.9732
5.6606 -2.2529 -2.9966 0.9732
5.8386 -1.7401 -2.9966 0.9732
5.9702 -1.2135 -2.9965 0.9732
6.0544 -0.6773 -2.9965 0.9732
6.0907 -0.1357 -2.9965 0.9732
6.0786 0.4070 -2.9965 0.9732
5.9103 1.4783 -2.9965 0.9732
5.7553 1.9985 -2.9966 0.9732
4.3327 4.2847 -2.9971 0.9732
3.9343 4.6535 -2.9972 0.9732
3.3402 4.7515 -2.8567 0.9744
2.8923 5.0097 -2.8452 0.9745
2.4351 5.2475 -2.8454 0.9745
0.9624 5.7054 -2.8459 0.9745
0.4508 5.7688 -2.8460 0.9745
-0.5793 5.7580 -2.8464 0.9745
-2.0803 5.4014 -2.8469 0.9745
-3.0054 4.9475 -2.8472 0.9745
-3.5099 4.7637 -2.9103 0.9740
-4.0407 4.5689 -3.0000 0.9732
-5.3820 2.8719 -3.0005 0.9732
-6.0947 0.2718 -3.0007 0.9732
-5.9499 -1.3480 -3.0006 0.9732
-5.6164 -2.3815 -3.0005 0.9732
-5.3819 -2.8719 -3.0004 0.9732
-5.1048 -3.3394 -3.0003 0.9732
-4.4315 -4.1913 -3.0001 0.9732
-4.0407 -4.5688 -3.0000 0.9732
-3.1663 -5.2123 -2.9997 0.9732
-0.0679 -6.0961 -2.9986 0.9732
2.5654 -5.5284 -2.9977 0.9732
3.0472 -5.2778 -2.9975 0.9732
3.9343 -4.6534 -2.9972 0.9732
5.0233 -3.4482 -2.9968 0.9732
5.3101 -2.9874 -2.9967 0.9732
5.5547 -2.5028 -2.9967 0.9732
6.0786 -0.4069 -2.9965 0.9732
5.8386 1.7401 -2.9966 0.9732
5.4378 2.7479 -2.9967 0.9732
4.1376 4.4736 -2.9972 0.9732
3.1125 4.8757 -2.8451 0.9745
2.1990 5.3509 -2.8454 0.9745
0.7073 5.7428 -2.8460 0.9745
-0.3222 5.7779 -2.8463 0.9745
-1.3417 5.6300 -2.8467 0.9745
-2.7819 5.0764 -2.8472 0.9745
-3.8331 4.7443 -2.9999 0.9732
-4.9509 3.5635 -3.0003 0.9732
-5.2486 3.1088 -3.0004 0.9732
-5.7170 2.1290 -3.0006 0.9732
-5.8529 0.0000 -3.0006 0.9740
-5.8297 -0.5209 -3.0006 0.9740
-5.4847 -2.0425 -3.0005 0.9740
-5.2810 -2.5225 -3.0004 0.9740
-5.0354 -2.9824 -3.0003 0.9740
-4.7498 -3.4187 -3.0002 0.9740
-4.4265 -3.8277 -3.0001 0.9740
-3.6773 -4.5515 -2.9998 0.9740
-3.2575 -4.8605 -2.9997 0.9740
-2.8118 -5.1309 -2.9995 0.9740
-2.3438 -5.3605 -2.9994 0.9740
0.7149 -5.8046 -2.9983 0.9741
2.2227 -5.4085 -2.9978 0.9741
3.1461 -4.9282 -2.9975 0.9741
3.5720 -4.6284 -2.9973 0.9741
3.9696 -4.2919 -2.9972 0.9741
4.6673 -3.5198 -2.9970 0.9741
5.2171 -2.6363 -2.9968 0.9741
5.7280 -1.1642 -2.9966 0.9741
5.8088 -0.6498 -2.9966 0.9741
5.8436 -0.1302 -2.9966 0.9741
5.7741 0.9079 -2.9966 0.9741
5.5218 1.9174 -2.9967 0.9741
5.0946 2.8662 -2.9968 0.9741
4.1568 4.1108 -2.9972 0.9741
3.7746 4.4646 -2.9973 0.9741
3.3243 4.7290 -2.9635 0.9744
2.7749 4.8063 -2.8452 0.9754
2.3362 5.0345 -2.8454 0.9754
1.8790 5.2228 -2.8455 0.9754
0.9233 5.4738 -2.8459 0.9754
0.4325 5.5346 -2.8460 0.9754
-0.5557 5.5243 -2.8464 0.9754
-1.9958 5.1820 -2.8469 0.9753
-2.4493 4.9841 -2.8470 0.9753
-2.8981 4.7710 -2.8618 0.9752
-4.2515 4.0211 -3.0001 0.9740
-4.8974 3.2038 -3.0003 0.9740
-5.1633 2.7553 -3.0004 0.9740
-5.7081 1.2933 -3.0006 0.9740
-5.8471 0.2608 -3.0006 0.9740
-5.7081 -1.2932 -3.0006 0.9740
-5.3882 -2.2848 -3.0004 0.9740
-5.1633 -2.7552 -3.0004 0.9740
-4.8974 -3.2037 -3.0003 0.9740
-4.5927 -3.6268 -3.0002 0.9740
-4.2515 -4.0210 -3.0000 0.9740
-3.8765 -4.3833 -2.9999 0.9740
-3.4709 -4.7107 -2.9998 0.9740
-3.0377 -5.0006 -2.9996 0.9740
-2.5804 -5.2509 -2.9995 0.9740
-2.1027 -5.4594 -2.9993 0.9740
-1.6083 -5.6246 -2.9991 0.9740
-1.1012 -5.7451 -2.9989 0.9740
-0.5855 -5.8199 -2.9988 0.9740
0.4556 -5.8308 -2.9984 0.9741
0.9727 -5.7668 -2.9982 0.9741
1.9796 -5.5023 -2.9979 0.9741
2.4613 -5.3040 -2.9977 0.9741
2.9235 -5.0636 -2.9976 0.9741
3.3624 -4.7830 -2.9974 0.9741
4.1568 -4.1107 -2.9971 0.9741
4.5060 -3.7243 -2.9970 0.9741
5.3293 -2.4013 -2.9967 0.9741
5.8320 -0.3904 -2.9966 0.9741
5.7280 1.1643 -2.9966 0.9741
5.6017 1.6695 -2.9966 0.9741
4.9620 3.0904 -2.9969 0.9741
4.6674 3.5198 -2.9970 0.9741
4.3357 3.9215 -2.9971 0.9741
3.5721 4.6285 -2.9974 0.9741
3.0287 4.7444 -2.8857 0.9750
2.5581 4.9253 -2.8453 0.9754
2.1097 5.1337 -2.8455 0.9754
1.6445 5.3014 -2.8456 0.9754
0.6786 5.5096 -2.8460 0.9754
-0.3091 5.5433 -2.8463 0.9754
-1.2872 5.4014 -2.8466 0.9753
-1.7629 5.2656 -2.8468 0.9753
-3.1886 4.7577 -2.9362 0.9746
-3.6774 4.5516 -2.9999 0.9740
-4.4265 3.8278 -3.0001 0.9740
-4.7498 3.4187 -3.0002 0.9740
-5.4847 2.0425 -3.0005 0.9740
-5.6448 1.5463 -3.0005 0.9740
-5.6206 0.0000 -3.0005 0.9748
-5.5983 -0.5002 -3.0005 0.9748
-5.0714 -2.4224 -3.0003 0.9748
-4.8355 -2.8641 -3.0002 0.9748
-4.5613 -3.2830 -3.0002 0.9748
-4.2508 -3.6758 -3.0000 0.9748
-3.9066 -4.0394 -2.9999 0.9748
-3.5314 -4.3709 -2.9998 0.9748
-1.7836 -5.3274 -2.9992 0.9748
-0.3127 -5.6084 -2.9987 0.9749
0.1877 -5.6137 -2.9985 0.9749
2.1345 -5.1941 -2.9978 0.9749
3.0213 -4.7328 -2.9975 0.9749
3.4304 -4.4449 -2.9974 0.9749
3.8123 -4.1218 -2.9973 0.9749
4.4823 -3.3803 -2.9970 0.9749
5.3796 -1.6033 -2.9967 0.9749
5.5009 -1.1181 -2.9967 0.9749
5.5786 -0.6240 -2.9966 0.9749
5.6008 0.3750 -2.9966 0.9749
5.3029 1.8414 -2.9968 0.9749
5.1181 2.3061 -2.9968 0.9749
4.6284 3.1772 -2.9970 0.9749
4.3274 3.5767 -2.9971 0.9749
3.2291 4.5935 -2.9975 0.9749
2.7360 4.7389 -2.9212 0.9755
2.2436 4.8349 -2.8454 0.9761
1.8045 5.0156 -2.8456 0.9761
1.3510 5.1566 -2.8457 0.9761
-0.0594 5.3312 -2.8462 0.9761
-0.5337 5.3051 -2.8464 0.9761
-1.9166 4.9764 -2.8469 0.9761
-2.3520 4.7864 -2.8470 0.9761
-4.0828 3.8615 -3.0000 0.9748
-4.4105 3.4829 -3.0001 0.9748
-4.7031 3.0766 -3.0002 0.9748
-4.9584 2.6459 -3.0003 0.9748
-5.3492 1.7249 -3.0004 0.9748
-5.4816 1.2420 -3.0005 0.9748
-5.6150 -0.2504 -3.0005 0.9748
-5.3492 -1.7249 -3.0004 0.9748
-5.1743 -2.1941 -3.0004 0.9748
-4.9584 -2.6459 -3.0003 0.9748
-4.7031 -3.0766 -3.0002 0.9748
-4.4104 -3.4829 -3.0001 0.9748
-4.0828 -3.8614 -3.0000 0.9748
-3.3331 -4.5237 -2.9997 0.9748
-2.0192 -5.2428 -2.9993 0.9748
-0.5623 -5.5891 -2.9988 0.9749
-0.0626 -5.6166 -2.9986 0.9749
0.9342 -5.5381 -2.9982 0.9749
1.4233 -5.4326 -2.9981 0.9749
1.9011 -5.2841 -2.9979 0.9749
2.3637 -5.0937 -2.9977 0.9749
3.6249 -4.2876 -2.9973 0.9749
4.3274 -3.5766 -2.9971 0.9749
4.6284 -3.1772 -2.9970 0.9749
4.8926 -2.7525 -2.9969 0.9749
5.3029 -1.8413 -2.9967 0.9749
5.5452 -0.8719 -2.9967 0.9749
5.5786 0.6241 -2.9967 0.9749
5.2157 2.0758 -2.9968 0.9749
5.0104 2.5319 -2.9969 0.9749
4.7653 2.9679 -2.9969 0.9749
4.4823 3.3803 -2.9970 0.9749
3.8123 4.1218 -2.9973 0.9749
3.4305 4.4450 -2.9974 0.9749
3.0162 4.7247 -2.9924 0.9749
2.4685 4.7527 -2.8590 0.9760
2.0261 4.9302 -2.8455 0.9761
1.5793 5.0912 -2.8456 0.9761
0.1782 5.3285 -2.8461 0.9761
-0.2968 5.3235 -2.8463 0.9761
-1.2361 5.1871 -2.8466 0.9761
-3.1283 4.6677 -2.9997 0.9748
-3.9066 4.0395 -2.9999 0.9748
-4.2508 3.6759 -3.0001 0.9748
-5.2670 1.9615 -3.0004 0.9748
-5.4208 1.4849 -3.0005 0.9748
-5.5315 0.9966 -3.0005 0.9748
-5.5983 0.5003 -3.0005 0.9748
-5.3809 -0.4808 -3.0004 0.9756
-5.3167 -0.9579 -3.0004 0.9756
-5.0625 -1.8853 -3.0003 0.9756
-4.8745 -2.3283 -3.0003 0.9756
-4.6478 -2.7529 -3.0002 0.9756
-4.3842 -3.1555 -3.0001 0.9756
-4.0858 -3.5331 -3.0000 0.9756
-3.7550 -3.8826 -2.9999 0.9756
-2.1635 -4.9480 -2.9993 0.9756
-1.7144 -5.1206 -2.9992 0.9756
-1.2518 -5.2526 -2.9990 0.9756
0.6599 -5.3581 -2.9983 0.9756
2.4878 -4.7899 -2.9977 0.9756
5.0134 -1.9953 -2.9968 0.9756
5.3622 -0.5998 -2.9967 0.9756
5.3943 -0.1202 -2.9967 0.9756
5.3302 0.8382 -2.9967 0.9756
5.2345 1.3093 -2.9968 0.9756
4.9196 2.2167 -2.9969 0.9756
4.7029 2.6458 -2.9970 0.9756
4.1595 3.4379 -2.9972 0.9756
3.1038 4.4153 -2.9975 0.9756
2.6987 4.6743 -2.9977 0.9756
1.2986 4.9566 -2.8457 0.9768
0.8523 5.0528 -2.8459 0.9768
0.3992 5.1088 -2.8461 0.9768
-0.5130 5.0993 -2.8464 0.9768
-0.9649 5.0336 -2.8465 0.9768
-2.3360 4.7536 -2.9417 0.9761
-3.2038 4.3482 -2.9997 0.9756
-3.5782 4.0460 -2.9998 0.9756
-3.9243 3.7116 -3.0000 0.9756
-4.2392 3.3477 -3.0001 0.9756
-5.1415 1.6579 -3.0004 0.9756
-5.2687 1.1938 -3.0004 0.9756
-5.2687 -1.1937 -3.0004 0.9756
-4.9734 -2.1089 -3.0003 0.9756
-4.5205 -2.9571 -3.0001 0.9756
-3.9243 -3.7115 -2.9999 0.9756
-3.2038 -4.3481 -2.9997 0.9756
-2.3818 -4.8468 -2.9994 0.9756
-1.9409 -5.0393 -2.9992 0.9756
-1.4846 -5.1918 -2.9991 0.9756
-0.5405 -5.3722 -2.9988 0.9756
-0.0601 -5.3986 -2.9986 0.9756
2.6986 -4.6742 -2.9976 0.9756
4.7029 -2.6458 -2.9969 0.9756
4.9196 -2.2166 -2.9969 0.9756
5.3302 -0.8381 -2.9967 0.9756
5.3836 -0.3604 -2.9967 0.9756
5.3943 0.1202 -2.9967 0.9756
5.1710 1.5411 -2.9968 0.9756
5.0134 1.9953 -2.9969 0.9756
4.8160 2.4337 -2.9969 0.9756
4.3085 3.2492 -2.9971 0.9756
1.9550 4.7572 -2.8565 0.9767
1.5180 4.8937 -2.8457 0.9768
1.0765 5.0096 -2.8458 0.9768
0.1712 5.1217 -2.8461 0.9768
-0.7396 5.0715 -2.8465 0.9768
-2.0825 4.7628 -2.8870 0.9765
-3.7550 3.8827 -2.9999 0.9756
-4.0858 3.5331 -3.0000 0.9756
-4.8745 2.3284 -3.0003 0.9756
-5.1968 0.0000 -3.0004 0.9763
-5.1144 -0.9214 -3.0003 0.9763
-5.0121 -1.3729 -3.0003 0.9763
-4.2174 -3.0355 -3.0000 0.9763
-3.6121 -3.7349 -2.9998 0.9763
-2.0812 -4.7598 -2.9993 0.9763
-1.2042 -5.0529 -2.9990 0.9763
1.0910 -5.0771 -2.9982 0.9763
2.3932 -4.6078 -2.9977 0.9763
3.1720 -4.1101 -2.9975 0.9763
3.5251 -3.8113 -2.9974 0.9763
4.9745 -1.4825 -2.9969 0.9763
5.0866 -1.0339 -2.9968 0.9763
5.1584 -0.5771 -2.9968 0.9763
5.1893 -0.1156 -2.9968 0.9763
5.0356 1.2595 -2.9968 0.9763
4.2798 2.9379 -2.9971 0.9763
4.0014 3.3073 -2.9972 0.9763
2.9859 4.2475 -2.9976 0.9763
2.5961 4.4965 -2.9977 0.9763
2.1857 4.7100 -2.9978 0.9763
1.2496 4.7697 -2.8467 0.9775
0.3846 4.9219 -2.8503 0.9775
-0.0549 4.9295 -2.8462 0.9775
-0.4935 4.9054 -2.8464 0.9775
-1.3628 4.7653 -2.8615 0.9774
-1.8302 4.7521 -2.9400 0.9768
-2.6973 4.4404 -2.9995 0.9763
-3.0819 4.1828 -2.9997 0.9763
-3.7750 3.5704 -2.9999 0.9763
-4.5846 2.4464 -3.0002 0.9763
-5.1917 -0.2315 -3.0004 0.9763
-5.1504 -0.6927 -3.0004 0.9763
-4.9459 -1.5948 -3.0003 0.9763
-4.7842 -2.0287 -3.0002 0.9763
-3.7750 -3.5703 -2.9999 0.9763
-3.0819 -4.1827 -2.9996 0.9763
-2.2912 -4.6625 -2.9994 0.9763
-0.9779 -5.1014 -2.9989 0.9763
-0.5199 -5.1679 -2.9987 0.9763
0.8638 -5.1208 -2.9983 0.9763
2.1856 -4.7099 -2.9978 0.9763
2.5961 -4.4965 -2.9977 0.9763
2.9858 -4.2474 -2.9975 0.9763
3.3519 -3.9646 -2.9974 0.9763
4.5241 -2.5453 -2.9970 0.9763
4.7326 -2.1324 -2.9969 0.9763
5.0356 -1.2594 -2.9968 0.9763
5.1790 -0.3467 -2.9968 0.9763
5.0866 1.0339 -2.9968 0.9763
4.1447 3.1257 -2.9972 0.9763
3.5251 3.8113 -2.9974 0.9763
1.0356 4.8192 -2.8458 0.9775
0.6026 4.8925 -2.8460 0.9775
-1.5933 4.7591 -2.8975 0.9771
-2.0742 4.7438 -2.9892 0.9764
-2.4967 4.5560 -2.9995 0.9763
-3.2652 4.0415 -2.9997 0.9763
-3.6121 3.7350 -2.9998 0.9763
