ply
format ascii 1.0
element vertex 1640
property float32 x
property float32 y
property float32 z
property float32 I
end_header
8.2275 -6.8003 1.8821 0.9576
7.8229 -7.0754 1.6796 0.9582
8.0514 -6.0719 1.6058 0.9600
7.8101 -6.4552 1.6135 0.9598
7.5239 -6.8050 1.4430 0.9598
8.2441 -5.6593 1.4223 0.9604
7.7395 -5.8366 1.2148 0.9617
7.5058 -7.4227 1.3229 0.9583
7.4978 -6.1971 1.2190 0.9615
8.0993 -5.5599 1.2311 0.9612
7.2485 -6.5559 1.0601 0.9614
8.4811 -5.2821 1.0837 0.9606
7.4018 -6.1178 1.0416 0.9621
7.1730 -6.4876 0.8867 0.9619
7.1540 -7.0747 0.9224 0.9604
7.8989 -5.4223 0.8784 0.9622
7.1105 -6.4311 0.7185 0.9623
7.4766 -5.6384 0.5454 0.9632
7.7940 -5.3503 0.5506 0.9628
8.8914 -5.0022 0.5942 0.9599
7.1447 -7.7248 0.4375 0.9587
7.0314 -6.3595 0.3942 0.9628
7.4407 -5.6113 0.3875 0.9634
6.9503 -6.8733 0.4064 0.9616
7.2010 -5.9518 0.3884 0.9633
8.8118 -4.9575 0.4204 0.9603
7.0807 -7.6555 0.2601 0.9591
8.1515 -5.0768 0.2395 0.9623
7.1891 -5.9419 0.2326 0.9634
8.7809 -4.9400 0.2513 0.9605
7.0545 -7.6272 0.0863 0.9593
6.9202 -6.8435 0.0809 0.9618
7.7283 -5.3052 0.0779 0.9632
8.7559 -4.9260 0.0835 0.9606
7.0576 -7.6307 -0.0864 0.9593
7.4182 -5.5944 -0.0772 0.9635
8.1379 -5.0683 -0.0797 0.9624
7.1788 -5.9335 -0.0774 0.9634
7.7301 -5.3064 -0.0779 0.9632
8.7594 -4.9279 -0.0835 0.9606
7.0845 -7.6596 -0.2602 0.9591
7.4305 -5.6036 -0.2321 0.9634
6.9367 -6.8599 -0.2433 0.9617
7.7433 -5.3155 -0.2342 0.9631
7.4440 -5.6138 -0.3877 0.9634
8.1768 -5.0926 -0.4005 0.9622
7.2044 -5.9546 -0.3886 0.9633
7.7586 -5.3260 -0.3913 0.9630
8.8227 -4.9636 -0.4209 0.9603
7.3179 -7.9121 -0.6277 0.9577
7.0760 -6.3999 -0.5557 0.9625
8.2328 -5.1274 -0.5649 0.9619
7.8001 -5.3545 -0.5510 0.9628
7.1166 -6.4366 -0.7191 0.9622
7.5210 -5.6719 -0.7059 0.9629
8.2897 -5.1629 -0.7319 0.9616
7.0649 -6.9866 -0.7446 0.9609
7.2804 -6.0174 -0.7078 0.9628
7.5820 -5.7179 -0.8706 0.9626
7.1688 -7.0894 -0.9243 0.9603
7.3411 -6.0676 -0.8731 0.9625
9.2714 -5.2160 -0.9753 0.9582
7.2595 -6.5659 -1.0617 0.9614
7.6541 -5.7723 -1.0398 0.9622
7.4124 -6.1265 -1.0431 0.9620
8.6913 -5.4130 -1.2831 0.9596
7.5424 -7.4588 -1.3293 0.9581
8.1190 -5.5734 -1.2341 0.9611
7.8779 -5.9410 -1.4034 0.9609
9.0695 -5.6486 -1.5197 0.9577
7.9380 -7.1795 -1.7043 0.9576
12.7516 7.1739 -2.8314 0.9421
11.2842 9.3266 -2.8330 0.9421
9.4586 11.1877 -2.8351 0.9421
8.4288 11.9901 -2.8363 0.9420
6.1749 13.3066 -2.8388 0.9420
4.9685 13.8101 -2.8402 0.9420
-0.1638 14.7061 -2.8461 0.9418
-2.7716 14.4592 -2.8491 0.9418
13.5896 5.4085 -2.8305 0.9422
13.0570 6.5980 -2.8310 0.9421
12.4210 7.7359 -2.8318 0.9421
10.8593 9.8217 -2.8335 0.9421
9.9457 10.7532 -2.8345 0.9421
7.8880 12.3563 -2.8369 0.9420
6.7600 13.0153 -2.8382 0.9420
3.0858 14.3600 -2.8423 0.9419
1.7963 14.5852 -2.8438 0.9419
-3.4138 14.3251 -2.8498 0.9418
-14.3009 0.0000 -3.0149 0.9432
-13.3975 -4.9893 -3.0140 0.9432
-12.8979 -6.1608 -3.0134 0.9432
-12.2956 -7.2827 -3.0127 0.9433
-6.8538 -12.5066 -3.0066 0.9434
-5.7110 -13.0613 -3.0053 0.9434
-4.5237 -13.5116 -3.0039 0.9434
-3.3016 -13.8542 -3.0025 0.9434
1.7376 -14.1082 -2.9968 0.9435
2.9850 -13.8909 -2.9953 0.9436
8.6617 -11.2233 -2.9888 0.9437
9.6226 -10.4039 -2.9877 0.9437
10.5068 -9.5029 -2.9866 0.9437
11.3074 -8.5273 -2.9857 0.9437
12.0181 -7.4850 -2.9849 0.9438
12.6336 -6.3840 -2.9841 0.9438
13.8645 -2.8181 -2.9827 0.9438
13.7254 3.4330 -2.9827 0.9438
12.2474 5.5184 -2.8320 0.9466
11.7101 6.5880 -2.8326 0.9466
11.0800 7.6060 -2.8333 0.9465
8.6851 10.2728 -2.8360 0.9465
7.7392 11.0092 -2.8371 0.9465
6.7314 11.6591 -2.8382 0.9465
5.6693 12.2171 -2.8394 0.9464
3.4165 13.0405 -2.8420 0.9464
2.2433 13.2991 -2.8433 0.9464
-2.5439 13.2714 -2.8488 0.9463
-4.8612 12.6219 -2.8515 0.9462
-7.0283 11.5702 -2.8540 0.9462
-10.6399 8.4022 -2.8582 0.9461
-11.9675 6.3861 -2.8597 0.9461
-14.1725 1.9060 -3.0147 0.9432
-14.2866 0.6371 -3.0149 0.9432
-13.9458 -3.1597 -3.0146 0.9432
-13.6075 -4.3879 -3.0142 0.9432
-13.1608 -5.5807 -3.0137 0.9432
-12.6093 -6.7285 -3.0131 0.9432
-11.9575 -7.8222 -3.0124 0.9433
-11.2107 -8.8530 -3.0115 0.9433
-9.4572 -10.6934 -3.0095 0.9433
-8.4647 -11.4884 -3.0084 0.9433
-7.4057 -12.1914 -3.0072 0.9434
-6.2885 -12.7967 -3.0059 0.9434
-5.1223 -13.2998 -3.0046 0.9434
-2.6806 -13.9843 -3.0018 0.9435
-1.4246 -14.1605 -3.0004 0.9435
-0.1585 -14.2243 -2.9989 0.9435
2.3638 -14.0135 -2.9961 0.9436
7.0928 -12.2851 -2.9906 0.9437
8.1547 -11.6003 -2.9894 0.9437
10.0748 -9.9632 -2.9871 0.9437
10.9180 -9.0240 -2.9862 0.9437
11.6744 -8.0140 -2.9853 0.9438
12.3381 -6.9413 -2.9845 0.9438
12.9041 -5.8143 -2.9838 0.9438
13.7260 -3.4331 -2.9828 0.9438
14.1149 -0.9449 -2.9824 0.9438
14.1427 0.3152 -2.9823 0.9438
13.5597 4.0412 -2.9829 0.9438
11.9906 6.0591 -2.8323 0.9466
11.4064 7.1039 -2.8329 0.9465
7.2426 11.3453 -2.8376 0.9465
6.2066 11.9499 -2.8388 0.9464
5.1206 12.4603 -2.8400 0.9464
3.9931 12.8724 -2.8413 0.9464
2.8328 13.1829 -2.8427 0.9464
0.4510 13.4892 -2.8454 0.9463
-6.5045 11.8692 -2.8534 0.9462
-8.5128 10.5365 -2.8557 0.9461
-9.4203 9.7406 -2.8568 0.9461
-10.2534 8.8665 -2.8577 0.9461
-11.0052 7.9211 -2.8586 0.9461
-13.1511 -1.1752 -3.0136 0.9473
-12.9936 -2.3409 -3.0135 0.9473
-12.7325 -3.4878 -3.0132 0.9473
-11.3529 -6.7243 -3.0116 0.9473
-7.3349 -10.9445 -3.0071 0.9474
-5.2741 -12.0621 -3.0048 0.9474
-4.1778 -12.4785 -3.0035 0.9474
-1.8975 -13.0102 -3.0009 0.9475
-0.7317 -13.1216 -2.9996 0.9475
2.7573 -12.8316 -2.9956 0.9476
3.8868 -12.5298 -2.9943 0.9476
6.0418 -11.6325 -2.9918 0.9476
7.0504 -11.0443 -2.9906 0.9477
8.0024 -10.3690 -2.9895 0.9477
8.8905 -9.6123 -2.9885 0.9477
10.4476 -7.8789 -2.9867 0.9477
11.6734 -5.8988 -2.9852 0.9478
12.1498 -4.8355 -2.9847 0.9478
13.0685 -0.2912 -2.9835 0.9478
12.6828 3.1722 -2.9839 0.9478
11.3167 5.0991 -2.8331 0.9503
9.5741 7.9132 -2.8350 0.9503
7.1502 10.1713 -2.8378 0.9503
6.2188 10.7713 -2.8388 0.9503
5.2375 11.2865 -2.8399 0.9502
4.2139 11.7127 -2.8411 0.9502
3.1560 12.0464 -2.8423 0.9502
2.0722 12.2848 -2.8435 0.9502
-1.2487 12.4124 -2.8473 0.9501
-2.3495 12.2575 -2.8486 0.9501
-3.4327 12.0049 -2.8499 0.9501
-5.5114 11.2155 -2.8522 0.9500
-6.4904 10.6847 -2.8534 0.9500
-5.2390 7.1104 -2.0158 0.9644
-8.2880 9.3714 -2.8555 0.9500
-9.0922 8.5994 -2.8564 0.9499
-10.4788 6.8549 -2.8580 0.9499
-11.0499 5.8964 -2.8587 0.9499
-11.5332 4.8905 -2.8593 0.9499
-12.5632 4.0511 -3.0129 0.9473
-13.0852 1.7598 -3.0135 0.9473
-13.0854 -1.7598 -3.0136 0.9473
-12.5638 -4.0513 -3.0130 0.9473
-12.1515 -5.1526 -3.0125 0.9473
-11.6424 -6.2126 -3.0120 0.9473
-11.0408 -7.2226 -3.0113 0.9473
-9.5801 -9.0608 -3.0097 0.9473
-8.7328 -9.8743 -3.0087 0.9474
-7.8166 -10.6088 -3.0077 0.9474
-5.8074 -11.8176 -3.0054 0.9474
-3.6170 -12.6496 -3.0029 0.9475
-1.3158 -13.0790 -3.0003 0.9475
-0.1464 -13.1383 -2.9989 0.9475
4.4401 -12.3416 -2.9936 0.9476
5.5187 -11.8925 -2.9924 0.9476
9.3084 -9.2053 -2.9880 0.9477
10.0877 -8.3377 -2.9871 0.9477
11.4003 -6.4137 -2.9856 0.9477
12.3522 -4.2891 -2.9844 0.9478
12.9140 -2.0306 -2.9838 0.9478
13.0428 -0.8731 -2.9836 0.9478
12.9910 1.4532 -2.9836 0.9478
12.5296 3.7342 -2.9841 0.9478
8.4377 9.1228 -2.8363 0.9503
7.5948 9.8409 -2.8372 0.9503
6.6912 10.4816 -2.8383 0.9503
5.7339 11.0398 -2.8394 0.9502
3.6887 11.8913 -2.8417 0.9502
2.6168 12.1777 -2.8429 0.9502
1.5232 12.3677 -2.8442 0.9502
0.4166 12.4597 -2.8454 0.9501
-2.8939 12.1432 -2.8492 0.9501
-5.0053 11.4475 -2.8517 0.9500
-6.0068 10.9610 -2.8528 0.9500
-8.6987 8.9944 -2.8559 0.9500
-9.4677 8.1871 -2.8568 0.9499
-11.3028 5.3989 -2.8590 0.9499
-13.1509 1.1752 -3.0136 0.9473
-12.0613 -2.1729 -3.0124 0.9508
-11.8190 -3.2376 -3.0121 0.9508
-11.4825 -4.2761 -3.0118 0.9508
-11.0546 -5.2803 -3.0113 0.9508
-10.5387 -6.2421 -3.0107 0.9508
-9.9391 -7.1537 -3.0100 0.9508
-7.6895 -9.5174 -3.0075 0.9508
-5.8762 -10.7226 -3.0054 0.9509
-4.8966 -11.1989 -3.0043 0.9509
-3.8790 -11.5858 -3.0032 0.9509
-2.8312 -11.8804 -3.0020 0.9509
-1.7619 -12.0803 -3.0007 0.9510
-0.6794 -12.1841 -2.9995 0.9510
0.4076 -12.1912 -2.9983 0.9510
1.4904 -12.1015 -2.9970 0.9510
2.5606 -11.9159 -2.9958 0.9510
5.6111 -10.8033 -2.9923 0.9511
6.5480 -10.2573 -2.9912 0.9511
7.4325 -9.6305 -2.9902 0.9511
8.2575 -8.9279 -2.9892 0.9511
9.7041 -7.3182 -2.9875 0.9512
10.8431 -5.4793 -2.9862 0.9512
11.2858 -4.4916 -2.9857 0.9512
11.6391 -3.4688 -2.9852 0.9512
12.0676 -1.3499 -2.9847 0.9512
11.7810 2.9466 -2.9850 0.9512
11.4733 3.9839 -2.9853 0.9512
9.5093 6.5278 -2.8351 0.9536
8.2055 8.1146 -2.8366 0.9536
7.4529 8.8153 -2.8374 0.9536
5.7757 10.0038 -2.8393 0.9535
1.9243 11.4081 -2.8437 0.9535
0.9017 11.5388 -2.8449 0.9534
-1.1595 11.5255 -2.8473 0.9534
-3.1872 11.1464 -2.8496 0.9534
-5.1170 10.4128 -2.8518 0.9533
-7.6943 8.7001 -2.8548 0.9533
-11.2316 4.7626 -2.9987 0.9510
-11.6619 3.7605 -3.0118 0.9508
-12.2439 0.5460 -3.0125 0.9508
-10.8074 -5.7670 -3.0110 0.9508
-9.6094 -7.5884 -3.0097 0.9508
-8.8935 -8.4114 -3.0089 0.9508
-5.3917 -10.9718 -3.0049 0.9509
-4.3921 -11.4037 -3.0037 0.9509
-1.2217 -12.1443 -3.0001 0.9510
-0.1359 -12.1997 -2.9989 0.9510
0.9501 -12.1584 -2.9976 0.9510
2.0276 -12.0206 -2.9964 0.9510
3.0882 -11.7876 -2.9952 0.9510
5.1253 -11.0447 -2.9928 0.9511
6.0857 -10.5407 -2.9917 0.9511
6.9973 -9.9537 -2.9907 0.9511
7.8528 -9.2883 -2.9897 0.9511
8.6457 -8.5499 -2.9888 0.9511
10.5893 -5.9574 -2.9865 0.9512
11.0754 -4.9903 -2.9859 0.9512
11.4738 -3.9841 -2.9854 0.9512
11.9958 -1.8862 -2.9848 0.9512
11.6386 3.4687 -2.9851 0.9512
9.7896 6.0970 -2.8348 0.9536
9.2102 6.9457 -2.8354 0.9536
8.5576 7.7399 -2.8362 0.9536
4.3932 10.6903 -2.8409 0.9535
3.4256 11.0432 -2.8420 0.9535
2.4301 11.3088 -2.8431 0.9535
1.4145 11.4849 -2.8443 0.9535
-2.6870 11.2751 -2.8490 0.9534
-3.6813 10.9956 -2.8502 0.9534
-5.5768 10.1764 -2.8523 0.9533
-4.9559 7.3947 -2.1881 0.9640
-8.0754 8.3499 -2.8552 0.9533
-8.7891 7.6003 -2.8561 0.9533
-9.4332 6.7896 -2.8568 0.9533
-11.4820 4.2759 -3.0116 0.9508
-11.4293 0.0000 -3.0116 0.9538
-11.2476 -2.0264 -3.0114 0.9538
-11.0217 -3.0191 -3.0112 0.9538
-10.3091 -4.9242 -3.0104 0.9538
-9.2691 -6.6715 -3.0093 0.9539
-8.6364 -7.4682 -3.0085 0.9539
-2.6408 -11.0815 -3.0017 0.9540
-1.6434 -11.2682 -3.0006 0.9540
1.3904 -11.2889 -2.9971 0.9540
2.3887 -11.1161 -2.9960 0.9541
3.3674 -10.8554 -2.9948 0.9541
4.3186 -10.5087 -2.9938 0.9541
7.7044 -8.3299 -2.9898 0.9541
8.4129 -7.6090 -2.9890 0.9542
9.0545 -6.8284 -2.9883 0.9542
9.6242 -5.9940 -2.9876 0.9542
10.1175 -5.1126 -2.9870 0.9542
10.5307 -4.1911 -2.9865 0.9542
10.8605 -3.2368 -2.9861 0.9542
11.1044 -2.2571 -2.9858 0.9542
11.2604 -1.2597 -2.9856 0.9542
11.1932 1.7601 -2.9857 0.9542
7.6560 7.5712 -2.8372 0.9564
6.1959 8.8138 -2.8389 0.9564
4.5380 9.7792 -2.8408 0.9564
3.6509 10.1479 -2.8418 0.9564
0.8411 10.7641 -2.8450 0.9563
-1.0816 10.7510 -2.8472 0.9563
-2.9729 10.3968 -2.8494 0.9563
-4.7726 9.7120 -2.8514 0.9562
-7.1759 8.1140 -2.8542 0.9562
-8.5055 6.7167 -2.8558 0.9562
-9.0717 5.9344 -2.8564 0.9561
-9.5658 5.1045 -2.8570 0.9561
-10.8752 3.5068 -3.0109 0.9538
-11.1454 2.5252 -3.0113 0.9538
-11.3268 1.5233 -3.0115 0.9538
-11.4179 0.5092 -3.0116 0.9538
-11.4179 -0.5091 -3.0116 0.9538
-11.3270 -1.5233 -3.0115 0.9538
-11.1457 -2.5253 -3.0113 0.9538
-10.8757 -3.5070 -3.0110 0.9538
-10.0786 -5.3781 -3.0102 0.9538
-8.2941 -7.8445 -3.0082 0.9539
-7.5609 -8.5493 -3.0073 0.9539
-6.7679 -9.1856 -3.0064 0.9539
-5.9216 -9.7484 -3.0055 0.9539
-4.0966 -10.6365 -3.0034 0.9539
-3.1325 -10.9549 -3.0023 0.9540
-0.1268 -11.3802 -2.9989 0.9540
0.8863 -11.3419 -2.9977 0.9540
2.8810 -10.9966 -2.9954 0.9541
3.8469 -10.6926 -2.9943 0.9541
4.7816 -10.3041 -2.9932 0.9541
5.6778 -9.8342 -2.9922 0.9541
9.3486 -6.4175 -2.9879 0.9542
9.8806 -5.5587 -2.9873 0.9542
10.3343 -4.6564 -2.9868 0.9542
10.7062 -3.7176 -2.9863 0.9542
10.9933 -2.7496 -2.9860 0.9542
11.3052 -0.7568 -2.9856 0.9542
11.3275 0.2524 -2.9855 0.9542
11.2603 1.2596 -2.9856 0.9542
10.8601 3.2366 -2.9860 0.9542
9.6027 4.8525 -2.8350 0.9565
8.5936 6.4808 -2.8362 0.9565
7.3121 7.9058 -2.8376 0.9564
5.7981 9.0825 -2.8393 0.9564
4.9683 9.5657 -2.8403 0.9564
3.1958 10.3024 -2.8423 0.9564
0.3608 10.7929 -2.8455 0.9563
-0.6014 10.7864 -2.8466 0.9563
-1.5597 10.6942 -2.8477 0.9563
-3.4337 10.2560 -2.8499 0.9562
-4.3345 9.9133 -2.8509 0.9562
-8.7973 6.3319 -2.8561 0.9562
-9.9961 4.7748 -2.9190 0.9552
-10.7075 3.9876 -3.0107 0.9538
-11.2473 2.0263 -3.0114 0.9538
-11.3837 1.0172 -3.0116 0.9538
-10.7010 0.0000 -3.0108 0.9565
-10.6584 -0.9524 -3.0108 0.9565
-10.5309 -1.8972 -3.0106 0.9565
-9.2022 -5.4504 -3.0092 0.9565
-7.4303 -7.6829 -3.0072 0.9566
-6.7152 -8.3115 -3.0064 0.9566
-1.5391 -10.5527 -3.0005 0.9567
1.3022 -10.5728 -2.9972 0.9567
2.2372 -10.4112 -2.9961 0.9567
4.0449 -9.8428 -2.9941 0.9567
5.7223 -8.9638 -2.9921 0.9568
7.8806 -7.1276 -2.9896 0.9568
8.4817 -6.3963 -2.9889 0.9568
9.0155 -5.6149 -2.9883 0.9568
9.4777 -4.7893 -2.9877 0.9568
10.4024 -2.1144 -2.9866 0.9568
10.6115 -0.2365 -2.9864 0.9569
10.5905 0.7090 -2.9864 0.9569
10.2980 2.5757 -2.9867 0.9568
8.7848 4.9422 -2.8360 0.9590
8.3116 5.7056 -2.8365 0.9590
7.7725 6.4241 -2.8371 0.9590
7.1716 7.0921 -2.8378 0.9590
5.8036 8.2558 -2.8393 0.9589
5.0473 8.7422 -2.8402 0.9589
4.2505 9.1597 -2.8411 0.9589
3.4195 9.5048 -2.8420 0.9589
2.5609 9.7748 -2.8430 0.9589
1.6813 9.9675 -2.8440 0.9589
-0.1127 10.1150 -2.8461 0.9588
-1.0129 10.0684 -2.8471 0.9588
-2.7840 9.7363 -2.8491 0.9588
-3.6408 9.4531 -2.8501 0.9588
-6.7193 7.5976 -2.8537 0.9587
-7.3708 6.9713 -2.8545 0.9587
-7.9640 6.2891 -2.8551 0.9587
-8.9768 4.7902 -2.8628 0.9586
-9.8484 4.1761 -3.0097 0.9565
-10.1824 3.2834 -3.0101 0.9565
-10.6050 1.4262 -3.0107 0.9565
-10.6903 0.4767 -3.0108 0.9565
-10.6052 -1.4263 -3.0107 0.9565
-8.9494 -5.8544 -3.0089 0.9565
-8.3911 -6.6264 -3.0083 0.9565
-7.7662 -7.3452 -3.0075 0.9566
-7.0797 -8.0052 -3.0068 0.9566
-6.3374 -8.6011 -3.0059 0.9566
-5.5450 -9.1283 -3.0050 0.9566
-2.9334 -10.2588 -3.0021 0.9566
-1.0673 -10.6088 -2.9999 0.9567
0.8300 -10.6223 -2.9978 0.9567
2.6983 -10.2994 -2.9956 0.9567
4.4786 -9.6512 -2.9936 0.9568
5.3181 -9.2113 -2.9926 0.9568
6.8630 -8.1175 -2.9908 0.9568
8.7573 -6.0116 -2.9886 0.9568
10.2983 -2.5758 -2.9868 0.9568
10.5906 -0.7089 -2.9864 0.9569
10.5485 1.1800 -2.9864 0.9569
9.8644 3.9260 -2.9871 0.9568
8.0500 6.0708 -2.8368 0.9590
7.4794 6.7647 -2.8374 0.9590
6.1648 7.9879 -2.8389 0.9589
5.4309 8.5074 -2.8398 0.9589
2.9933 9.6494 -2.8425 0.9589
1.2358 10.0343 -2.8445 0.9589
0.3380 10.1081 -2.8456 0.9588
-0.5633 10.1017 -2.8466 0.9588
-1.4607 10.0151 -2.8476 0.9588
-2.3471 9.8489 -2.8486 0.9588
-4.0590 9.2831 -2.8506 0.9588
-4.8707 8.8879 -2.8516 0.9588
-4.8812 7.2833 -2.4668 0.9642
-7.0520 7.2918 -2.8541 0.9587
-8.2371 5.9288 -2.8555 0.9587
-8.7339 5.1731 -2.8560 0.9587
-9.6519 4.6103 -3.0095 0.9565
-10.0254 3.7335 -3.0099 0.9565
-10.3191 2.8267 -3.0103 0.9565
-10.5306 1.8972 -3.0106 0.9565
-10.6583 0.9524 -3.0107 0.9565
-10.0543 0.0000 -3.0100 0.9589
-10.0142 -0.8949 -3.0100 0.9589
-9.8945 -1.7826 -3.0099 0.9589
-9.6958 -2.6560 -3.0097 0.9589
-9.4200 -3.5080 -3.0094 0.9589
-9.0692 -4.3320 -3.0090 0.9589
-8.6463 -5.1212 -3.0085 0.9589
-8.1547 -5.8694 -3.0080 0.9589
-7.5983 -6.5705 -3.0073 0.9589
-6.3099 -7.8099 -3.0059 0.9589
-4.8225 -8.8000 -3.0042 0.9590
-4.0189 -9.1915 -3.0033 0.9590
-3.1839 -9.5097 -3.0023 0.9590
-2.3241 -9.7521 -3.0014 0.9590
0.3347 -10.0095 -2.9983 0.9590
2.1026 -9.7849 -2.9963 0.9591
4.6086 -8.8732 -2.9934 0.9591
6.1053 -7.9109 -2.9917 0.9591
6.7834 -7.3342 -2.9909 0.9591
8.4744 -5.2779 -2.9889 0.9592
9.2730 -3.6906 -2.9880 0.9592
9.9160 -1.1093 -2.9872 0.9592
9.9553 0.6664 -2.9871 0.9592
7.8128 5.3632 -2.8371 0.9612
6.7410 6.6663 -2.8383 0.9612
6.1224 7.2416 -2.8390 0.9612
5.4550 7.7599 -2.8397 0.9612
2.4069 9.1869 -2.8432 0.9611
0.7403 9.4745 -2.8451 0.9611
-1.7909 9.3429 -2.8480 0.9611
-2.6162 9.1495 -2.8490 0.9610
-4.1997 8.5462 -2.8508 0.9610
-4.9452 8.1409 -2.8517 0.9610
-5.1289 6.9610 -2.5886 0.9645
-6.3138 7.1391 -2.8532 0.9610
-7.4831 5.9094 -2.8546 0.9610
-7.9810 5.2209 -2.8552 0.9610
-9.2534 3.9238 -3.0091 0.9589
-9.5671 3.0850 -3.0094 0.9589
-9.8047 2.2215 -3.0097 0.9589
-9.9641 1.3401 -3.0099 0.9589
-9.8049 -2.2215 -3.0098 0.9589
-9.2538 -3.9239 -3.0092 0.9589
-8.8666 -4.7313 -3.0088 0.9589
-8.4088 -5.5008 -3.0083 0.9589
-7.8843 -6.2262 -3.0077 0.9589
-6.6524 -7.5220 -3.0063 0.9589
-3.6049 -9.3599 -3.0028 0.9590
-2.7566 -9.6405 -3.0018 0.9590
-1.0030 -9.9698 -2.9998 0.9590
-0.1116 -10.0161 -2.9988 0.9590
2.5360 -9.6799 -2.9958 0.9591
3.3864 -9.4127 -2.9948 0.9591
4.9986 -8.6578 -2.9929 0.9591
6.4508 -7.6300 -2.9913 0.9591
7.1025 -7.0238 -2.9905 0.9591
8.2317 -5.6508 -2.9892 0.9592
8.7004 -4.8948 -2.9886 0.9592
9.1001 -4.1003 -2.9882 0.9592
9.4277 -3.2737 -2.9878 0.9592
9.6806 -2.4213 -2.9875 0.9592
9.9554 -0.6664 -2.9871 0.9592
9.9159 1.1093 -2.9871 0.9592
9.5633 2.8502 -2.9875 0.9592
9.2727 3.6904 -2.9878 0.9592
8.9086 4.5017 -2.9882 0.9592
7.0304 6.3587 -2.8380 0.9612
5.1046 7.9963 -2.8401 0.9612
4.3739 8.4213 -2.8410 0.9612
2.8133 9.0691 -2.8427 0.9611
1.1615 9.4305 -2.8446 0.9611
0.3176 9.4996 -2.8456 0.9611
-1.3727 9.4119 -2.8475 0.9611
-3.0217 9.0254 -2.8494 0.9610
-6.6264 6.8516 -2.8536 0.9610
-10.0142 0.8949 -3.0100 0.9589
-9.4758 0.0000 -3.0094 0.9610
-9.4382 -0.8434 -3.0094 0.9610
-9.3253 -1.6800 -3.0092 0.9610
-9.1381 -2.5032 -3.0090 0.9610
-8.8782 -3.3063 -3.0088 0.9610
-8.5477 -4.0829 -3.0084 0.9610
-7.6859 -5.5319 -3.0074 0.9610
-5.9474 -7.3612 -3.0055 0.9611
-5.2672 -7.8593 -3.0047 0.9611
-4.5456 -8.2946 -3.0039 0.9611
-3.7882 -8.6638 -3.0030 0.9611
-1.3634 -9.3482 -3.0002 0.9611
-0.5258 -9.4294 -2.9993 0.9611
0.3155 -9.4357 -2.9983 0.9612
2.7945 -9.0085 -2.9955 0.9612
3.5841 -8.7214 -2.9946 0.9612
4.3449 -8.3654 -2.9937 0.9612
5.7561 -7.4584 -2.9921 0.9612
6.3955 -6.9147 -2.9913 0.9612
6.9840 -6.3166 -2.9906 0.9612
8.4000 -4.2447 -2.9890 0.9613
8.7433 -3.4797 -2.9886 0.9613
9.0173 -2.6874 -2.9882 0.9613
9.2199 -1.8741 -2.9880 0.9613
9.3496 -1.0459 -2.9878 0.9613
9.4054 -0.2096 -2.9877 0.9613
9.2938 1.4614 -2.9878 0.9613
8.8888 3.0865 -2.9883 0.9613
8.2028 4.6148 -2.9890 0.9613
5.7723 6.8275 -2.8394 0.9632
5.1430 7.3160 -2.8401 0.9632
4.4726 7.7468 -2.8409 0.9632
3.7664 8.1164 -2.8417 0.9631
3.0300 8.4219 -2.8425 0.9631
2.2690 8.6608 -2.8434 0.9631
1.4896 8.8312 -2.8443 0.9631
-0.0998 8.9611 -2.8461 0.9631
-0.8973 8.9195 -2.8470 0.9631
-3.2249 8.3734 -2.8497 0.9630
-3.9586 8.0555 -2.8505 0.9630
-4.6612 7.6734 -2.8513 0.9630
-5.1144 6.9414 -2.7382 0.9645
-5.9510 6.7289 -2.8528 0.9630
-6.5278 6.1740 -2.8535 0.9630
-7.0529 5.5697 -2.8541 0.9630
-7.5221 4.9208 -2.8547 0.9630
-8.7212 3.6981 -3.0085 0.9610
-9.2407 2.0936 -3.0091 0.9610
-9.3909 1.2630 -3.0093 0.9610
-9.4664 0.4221 -3.0094 0.9610
-9.4664 -0.4221 -3.0094 0.9610
-9.3911 -1.2630 -3.0093 0.9610
-9.2409 -2.0937 -3.0091 0.9610
-9.0171 -2.9077 -3.0089 0.9610
-8.7216 -3.6983 -3.0086 0.9610
-7.9254 -5.1846 -3.0077 0.9610
-7.4311 -5.8683 -3.0071 0.9610
-6.8779 -6.5051 -3.0065 0.9610
-3.3980 -8.8227 -3.0026 0.9611
-2.5984 -9.0873 -3.0017 0.9611
-1.7788 -9.2796 -3.0007 0.9611
0.7354 -9.4108 -2.9978 0.9612
1.5696 -9.3050 -2.9969 0.9612
4.7125 -8.1623 -2.9933 0.9612
6.6964 -6.6222 -2.9910 0.9612
7.2577 -5.9986 -2.9903 0.9613
7.7612 -5.3278 -2.9897 0.9613
8.2032 -4.6150 -2.9892 0.9613
8.5801 -3.8660 -2.9888 0.9613
8.8891 -3.0866 -2.9884 0.9613
9.1277 -2.2830 -2.9881 0.9613
9.2940 -1.4614 -2.9879 0.9613
9.3868 -0.6284 -2.9878 0.9613
9.3495 1.0459 -2.9878 0.9613
8.7429 3.4796 -2.9884 0.9613
8.3996 4.2445 -2.9888 0.9613
6.0700 6.5628 -2.8391 0.9632
5.4631 7.0787 -2.8397 0.9632
4.8126 7.5388 -2.8405 0.9632
4.1237 7.9395 -2.8413 0.9631
0.2994 8.9552 -2.8456 0.9631
-2.8483 8.5075 -2.8492 0.9630
-4.8420 7.2248 -2.7621 0.9642
-5.6446 6.9865 -2.8525 0.9630
-6.7971 5.8777 -2.8538 0.9630
-7.2948 5.2504 -2.8544 0.9630
-8.0392 4.7616 -2.9674 0.9615
-8.8779 3.3062 -3.0086 0.9610
-9.4381 0.8434 -3.0093 0.9610
-8.9552 0.0000 -3.0088 0.9629
-8.8129 -1.5877 -3.0087 0.9629
-8.3905 -3.1247 -3.0082 0.9629
-8.0782 -3.8586 -3.0078 0.9629
-7.7016 -4.5617 -3.0074 0.9629
-5.6210 -6.9572 -3.0051 0.9630
-3.5805 -8.1887 -3.0028 0.9630
-2.0707 -8.6888 -3.0010 0.9630
-1.2887 -8.8360 -3.0001 0.9630
0.2982 -8.9191 -2.9983 0.9630
1.8737 -8.7196 -2.9965 0.9631
2.6416 -8.5157 -2.9956 0.9631
3.3881 -8.2444 -2.9948 0.9631
4.1073 -7.9080 -2.9939 0.9631
5.4416 -7.0508 -2.9924 0.9631
7.1064 -5.3592 -2.9905 0.9631
7.9414 -4.0130 -2.9895 0.9631
8.2660 -3.2898 -2.9891 0.9632
8.7168 -1.7718 -2.9886 0.9632
8.8394 -0.9888 -2.9884 0.9632
8.8921 -0.1981 -2.9883 0.9632
8.8745 0.5941 -2.9883 0.9632
8.6293 2.1583 -2.9886 0.9632
6.9641 4.7806 -2.8381 0.9650
6.5121 5.3824 -2.8386 0.9650
5.4569 6.4545 -2.8398 0.9650
4.8619 6.9162 -2.8404 0.9650
3.5605 7.6726 -2.8419 0.9649
2.8642 7.9613 -2.8427 0.9649
2.1449 8.1870 -2.8435 0.9649
1.4081 8.3479 -2.8444 0.9649
-0.0944 8.4704 -2.8461 0.9649
-2.3310 8.1519 -2.8487 0.9649
-3.7415 7.6138 -2.8503 0.9648
-5.6244 6.3596 -2.8525 0.9648
-7.2881 4.7677 -2.9261 0.9639
-7.8973 4.2142 -3.0075 0.9629
-8.5215 2.7478 -3.0082 0.9629
-8.7330 1.9786 -3.0085 0.9629
-8.8750 1.1936 -3.0087 0.9629
-8.9463 0.3989 -3.0088 0.9629
-8.9463 -0.3989 -3.0088 0.9629
-8.5218 -2.7479 -3.0083 0.9629
-8.2425 -3.4951 -3.0080 0.9629
-7.8977 -4.2143 -3.0076 0.9629
-7.0231 -5.5461 -3.0067 0.9629
-3.9422 -8.0222 -3.0032 0.9630
-2.4560 -8.5892 -3.0015 0.9630
-0.0994 -8.9249 -2.9988 0.9630
0.6951 -8.8956 -2.9979 0.9630
1.4837 -8.7958 -2.9970 0.9631
4.4549 -7.7162 -2.9935 0.9631
5.1227 -7.2871 -2.9928 0.9631
6.3306 -6.2605 -2.9914 0.9631
6.8613 -5.6710 -2.9908 0.9631
7.3374 -5.0369 -2.9902 0.9631
8.4039 -2.9182 -2.9889 0.9632
8.6295 -2.1584 -2.9887 0.9632
8.8745 -0.5941 -2.9884 0.9632
8.8393 0.9888 -2.9884 0.9632
8.7166 1.7717 -2.9885 0.9632
8.5249 2.5407 -2.9887 0.9632
7.9411 4.0128 -2.9894 0.9632
7.5535 4.7044 -2.9898 0.9631
6.7448 5.0865 -2.8383 0.9650
6.2665 5.6677 -2.8388 0.9650
5.7384 6.2043 -2.8394 0.9650
5.1646 6.6919 -2.8401 0.9650
4.5496 7.1268 -2.8408 0.9650
3.8982 7.5054 -2.8415 0.9649
3.2156 7.8247 -2.8423 0.9649
2.5071 8.0821 -2.8431 0.9649
1.0350 8.4036 -2.8448 0.9649
0.2830 8.4649 -2.8457 0.9649
-0.4717 8.4591 -2.8465 0.9649
-2.6922 8.0411 -2.8491 0.9649
-3.3982 7.7718 -2.8499 0.9648
-4.0775 7.4406 -2.8507 0.9648
-4.7248 7.0500 -2.8514 0.9648
-5.3349 6.6031 -2.8521 0.9648
-6.8942 4.9622 -2.8539 0.9648
-7.7012 4.5614 -3.0073 0.9629
-8.0778 3.8584 -3.0077 0.9629
-8.6358 2.3656 -3.0084 0.9629
-8.4838 0.0000 -3.0082 0.9646
-8.3490 -1.5042 -3.0081 0.9646
-8.1815 -2.2412 -3.0079 0.9646
-7.9489 -2.9602 -3.0077 0.9646
-7.6531 -3.6555 -3.0074 0.9646
-7.2964 -4.3217 -3.0070 0.9646
-5.3255 -6.5914 -3.0047 0.9647
-4.0705 -7.4277 -3.0033 0.9647
-3.3923 -7.7585 -3.0025 0.9647
-2.6876 -8.0275 -3.0017 0.9647
1.7755 -8.2624 -2.9966 0.9648
2.5031 -8.0694 -2.9958 0.9648
3.2105 -7.8124 -2.9950 0.9648
4.5425 -7.1157 -2.9934 0.9648
5.7296 -6.1947 -2.9921 0.9648
6.2569 -5.6590 -2.9914 0.9648
7.1586 -4.4584 -2.9904 0.9648
7.8336 -3.1177 -2.9896 0.9649
8.2609 -1.6791 -2.9891 0.9649
8.3771 -0.9371 -2.9889 0.9649
8.3271 1.3094 -2.9890 0.9649
8.1779 2.0454 -2.9891 0.9649
7.9641 2.7654 -2.9893 0.9649
7.6871 3.4637 -2.9897 0.9648
6.1713 5.1007 -2.8390 0.9666
5.6939 5.6309 -2.8395 0.9666
4.0067 6.9397 -2.8414 0.9666
2.7141 7.5441 -2.8429 0.9665
2.0325 7.7578 -2.8437 0.9665
0.6251 7.9998 -2.8453 0.9665
-0.8036 7.9885 -2.8469 0.9665
-1.5119 7.8875 -2.8477 0.9665
-3.5449 7.2137 -2.8501 0.9665
-5.8451 5.5282 -2.8527 0.9664
-7.0957 4.6418 -3.0066 0.9647
-7.4818 3.9924 -3.0070 0.9646
-8.4078 1.1307 -3.0081 0.9646
-8.4754 0.3779 -3.0082 0.9646
-8.4754 -0.3779 -3.0082 0.9646
-8.4079 -1.1308 -3.0082 0.9646
-8.2735 -1.8746 -3.0080 0.9646
-8.0733 -2.6033 -3.0078 0.9646
-7.8088 -3.3112 -3.0075 0.9646
-7.0961 -4.6421 -3.0067 0.9647
-6.6537 -5.2543 -3.0062 0.9647
-4.3979 -7.2399 -3.0037 0.9647
-3.7351 -7.6007 -3.0029 0.9647
-3.0430 -7.9009 -3.0021 0.9647
-2.3270 -8.1382 -3.0013 0.9647
-1.5930 -8.3106 -3.0005 0.9647
-0.8468 -8.4171 -2.9996 0.9647
2.1415 -8.1740 -2.9962 0.9648
4.2216 -7.3120 -2.9938 0.9648
4.8544 -6.9055 -2.9931 0.9648
5.9992 -5.9327 -2.9917 0.9648
6.5022 -5.3742 -2.9912 0.9648
7.6874 -3.4638 -2.9898 0.9648
7.9643 -2.7655 -2.9894 0.9649
8.2607 1.6791 -2.9890 0.9649
7.8333 3.1176 -2.9895 0.9649
7.1583 4.4582 -2.9902 0.9648
5.9385 5.3711 -2.8392 0.9666
5.4380 5.8795 -2.8398 0.9666
3.0471 7.4147 -2.8425 0.9666
1.6851 7.8418 -2.8441 0.9665
0.9807 7.9629 -2.8449 0.9665
0.2682 8.0209 -2.8457 0.9665
-0.4469 8.0152 -2.8465 0.9665
-4.4765 6.6794 -2.8511 0.9665
-5.0544 6.2559 -2.8518 0.9664
-5.5924 5.7825 -2.8524 0.9664
-7.6528 3.6554 -3.0072 0.9646
-8.1813 2.2411 -3.0079 0.9646
-8.3489 1.5041 -3.0081 0.9646
-8.4500 0.7551 -3.0082 0.9646
-8.0228 -0.7169 -3.0077 0.9662
-7.9269 -1.4281 -3.0076 0.9662
-7.7679 -2.1279 -3.0075 0.9662
-7.5470 -2.8106 -3.0072 0.9662
-7.2662 -3.4708 -3.0069 0.9662
-6.9276 -4.1032 -3.0065 0.9662
-6.5339 -4.7028 -3.0061 0.9662
-6.0884 -5.2648 -3.0056 0.9662
-5.5946 -5.7848 -3.0050 0.9662
-3.2211 -7.3669 -3.0023 0.9663
2.3771 -7.6629 -2.9959 0.9663
3.0489 -7.4190 -2.9952 0.9663
5.9422 -5.3744 -2.9918 0.9664
6.3958 -4.8233 -2.9913 0.9664
6.7987 -4.2342 -2.9908 0.9664
7.1476 -3.6118 -2.9904 0.9664
7.4398 -2.9610 -2.9900 0.9664
7.6731 -2.2868 -2.9898 0.9664
7.8456 -1.5947 -2.9896 0.9664
7.9561 -0.8900 -2.9894 0.9664
8.0035 -0.1783 -2.9894 0.9664
6.9797 3.9267 -2.9905 0.9664
6.6035 4.5330 -2.9909 0.9664
5.8609 4.8442 -2.8393 0.9681
4.9110 5.8088 -2.8404 0.9680
4.3755 6.2242 -2.8410 0.9680
1.2671 7.5116 -2.8445 0.9680
0.5936 7.5966 -2.8453 0.9680
-0.0849 7.6214 -2.8461 0.9680
-1.4356 7.4897 -2.8476 0.9680
-2.7423 7.1202 -2.8491 0.9679
-3.3660 6.8496 -2.8499 0.9679
-6.7371 4.4072 -3.0062 0.9662
-7.1036 3.7906 -3.0066 0.9662
-7.4137 3.1437 -3.0070 0.9662
-7.6649 2.4716 -3.0073 0.9662
-7.8550 1.7797 -3.0075 0.9662
-7.9827 1.0736 -3.0077 0.9662
-8.0468 0.3588 -3.0077 0.9662
-7.4140 -3.1438 -3.0071 0.9662
-6.3174 -4.9888 -3.0058 0.9662
-4.7721 -6.4768 -3.0041 0.9662
-2.8894 -7.5021 -3.0020 0.9663
-1.5127 -7.8914 -3.0004 0.9663
-0.8041 -7.9926 -2.9996 0.9663
-0.0895 -8.0302 -2.9988 0.9663
1.3350 -7.9145 -2.9971 0.9663
2.0336 -7.7622 -2.9963 0.9663
4.0090 -6.9439 -2.9940 0.9663
4.6101 -6.5579 -2.9933 0.9664
5.1744 -6.1203 -2.9927 0.9664
6.1751 -5.1039 -2.9915 0.9664
6.9800 -3.9269 -2.9906 0.9664
7.5640 -2.6265 -2.9899 0.9664
8.0035 0.1784 -2.9893 0.9664
7.9560 0.8900 -2.9894 0.9664
7.8455 1.5947 -2.9895 0.9664
5.1644 5.5837 -2.8401 0.9680
4.6479 6.0224 -2.8407 0.9680
3.5080 6.7542 -2.8420 0.9680
2.2561 7.2728 -2.8434 0.9680
1.6002 7.4467 -2.8442 0.9680
0.9313 7.5616 -2.8449 0.9680
-0.4244 7.6111 -2.8465 0.9680
-2.4221 7.2344 -2.8488 0.9680
-6.9272 4.1030 -3.0064 0.9662
-7.9267 1.4281 -3.0076 0.9662
-8.0227 0.7169 -3.0077 0.9662
-7.6625 -0.0000 -3.0073 0.9676
-7.6320 -0.6820 -3.0073 0.9676
-7.1795 -2.6737 -3.0068 0.9676
-6.5903 -3.9034 -3.0061 0.9676
-5.7920 -5.0086 -3.0052 0.9676
-5.3223 -5.5033 -3.0047 0.9676
-4.8104 -5.9539 -3.0041 0.9676
-4.2605 -6.3572 -3.0035 0.9677
-1.7724 -7.4373 -3.0007 0.9677
0.2553 -7.6354 -2.9984 0.9677
0.9336 -7.5804 -2.9976 0.9677
2.2617 -7.2911 -2.9961 0.9677
2.9010 -7.0591 -2.9953 0.9677
3.5169 -6.7713 -2.9946 0.9677
4.6597 -6.0378 -2.9933 0.9678
5.6542 -5.1139 -2.9921 0.9678
6.4693 -4.0291 -2.9912 0.9678
6.8013 -3.4369 -2.9908 0.9678
7.3015 -2.1761 -2.9902 0.9678
7.4657 -1.5175 -2.9900 0.9678
7.5708 -0.8469 -2.9899 0.9678
6.2835 4.3134 -2.9912 0.9678
5.7362 4.7411 -2.9207 0.9685
5.1454 5.0884 -2.8401 0.9694
4.6730 5.5273 -2.8407 0.9694
3.6205 6.2709 -2.8419 0.9694
3.0487 6.5697 -2.8425 0.9694
2.4524 6.8166 -2.8432 0.9694
1.2056 7.1470 -2.8446 0.9693
0.5648 7.2278 -2.8454 0.9693
-0.0808 7.2513 -2.8461 0.9693
-0.7261 7.2172 -2.8468 0.9693
-3.7705 6.2071 -2.8503 0.9693
-5.2796 4.9935 -2.8521 0.9693
-6.0096 4.7457 -3.0053 0.9676
-6.4091 4.1926 -3.0058 0.9676
-6.7578 3.6061 -3.0062 0.9676
-7.2916 2.3512 -3.0068 0.9676
-7.5939 1.0213 -3.0072 0.9676
-7.6549 -0.3413 -3.0073 0.9676
-7.2918 -2.3513 -3.0069 0.9676
-6.7580 -3.6062 -3.0063 0.9676
-6.0099 -4.7460 -3.0055 0.9676
-5.5627 -5.2612 -3.0050 0.9676
-5.0714 -5.7343 -3.0044 0.9676
-4.5400 -6.1617 -3.0038 0.9676
-3.9727 -6.5399 -3.0032 0.9677
-3.3741 -6.8660 -3.0025 0.9677
-2.7489 -7.1374 -3.0018 0.9677
-0.0851 -7.6402 -2.9987 0.9677
3.2122 -6.9220 -2.9950 0.9677
3.8146 -6.6071 -2.9943 0.9677
4.9235 -5.8236 -2.9930 0.9678
5.4213 -5.3612 -2.9924 0.9678
6.9473 -3.1303 -2.9906 0.9678
7.1976 -2.4993 -2.9903 0.9678
7.3909 -1.8486 -2.9901 0.9678
7.5257 -1.1833 -2.9899 0.9678
7.6009 -0.5088 -2.9898 0.9678
7.4656 1.5174 -2.9899 0.9678
6.0856 4.5894 -2.9915 0.9678
5.3665 4.8537 -2.8399 0.9694
4.9141 5.3131 -2.8404 0.9694
4.4226 5.7305 -2.8410 0.9694
3.8958 6.1027 -2.8416 0.9694
2.1466 6.9199 -2.8435 0.9693
1.5225 7.0853 -2.8443 0.9693
0.8861 7.1946 -2.8450 0.9693
0.2423 7.2467 -2.8457 0.9693
-2.9085 6.6520 -2.8493 0.9693
-3.4898 6.3682 -2.8500 0.9693
-5.0515 5.2232 -2.8518 0.9693
-6.2155 4.4736 -3.0056 0.9676
-6.5900 3.9033 -3.0060 0.9676
-6.9121 3.3016 -3.0064 0.9676
-7.1793 2.6736 -3.0067 0.9676
-7.3894 2.0242 -3.0070 0.9676
-7.6320 0.6820 -3.0073 0.9676
-7.3022 0.0000 -3.0069 0.9689
-7.2731 -0.6499 -3.0069 0.9689
-6.8419 -2.5479 -3.0064 0.9689
-6.2805 -3.7199 -3.0058 0.9689
-5.9237 -4.2636 -3.0054 0.9689
-5.0722 -5.2447 -3.0044 0.9689
-3.5043 -6.3946 -3.0026 0.9689
-2.9206 -6.6796 -3.0020 0.9690
-1.6892 -7.0883 -3.0006 0.9690
-1.0514 -7.2088 -2.9998 0.9690
-0.4055 -7.2720 -2.9991 0.9690
0.2433 -7.2774 -2.9984 0.9690
2.1557 -6.9495 -2.9962 0.9690
2.7651 -6.7284 -2.9955 0.9690
4.4416 -5.7551 -2.9935 0.9690
5.3896 -4.8746 -2.9924 0.9691
6.9600 -2.0743 -2.9906 0.9691
7.2168 -0.8073 -2.9903 0.9691
7.2598 -0.1618 -2.9902 0.9691
7.2454 0.4850 -2.9902 0.9691
6.8608 2.3823 -2.9906 0.9691
6.6221 2.9838 -2.9909 0.9691
6.3309 3.5617 -2.9912 0.9691
4.9046 4.8503 -2.8404 0.9706
4.4543 5.2685 -2.8409 0.9706
3.9684 5.6452 -2.8415 0.9706
3.4509 5.9772 -2.8421 0.9706
2.9059 6.2620 -2.8427 0.9706
2.3375 6.4973 -2.8433 0.9706
1.7504 6.6811 -2.8440 0.9706
-0.0770 6.9112 -2.8461 0.9705
-0.6920 6.8787 -2.8468 0.9705
-2.4865 6.4561 -2.8489 0.9705
-3.0520 6.2106 -2.8495 0.9705
-3.5934 5.9156 -2.8501 0.9705
-4.1065 5.5735 -2.8507 0.9705
-4.5872 5.1868 -2.8513 0.9705
-5.0516 4.7778 -2.8632 0.9704
-5.7271 4.5227 -3.0050 0.9689
-6.4401 3.4366 -3.0058 0.9689
-6.7211 2.8500 -3.0062 0.9689
-7.1211 1.6134 -3.0067 0.9689
-7.2368 0.9733 -3.0068 0.9689
-7.2949 0.3253 -3.0069 0.9689
-7.2369 -0.9733 -3.0068 0.9689
-7.1212 -1.6134 -3.0067 0.9689
-6.7214 -2.8501 -3.0063 0.9689
-6.1081 -3.9958 -3.0056 0.9689
-5.3013 -5.0139 -3.0047 0.9689
-4.8331 -5.4649 -3.0042 0.9689
-4.3267 -5.8723 -3.0036 0.9689
-3.7861 -6.2328 -3.0030 0.9689
-3.2156 -6.5436 -3.0023 0.9690
-2.0036 -7.0069 -3.0009 0.9690
-1.3716 -7.1556 -3.0002 0.9690
-0.7291 -7.2476 -2.9995 0.9690
1.2107 -7.1774 -2.9973 0.9690
1.8442 -7.0394 -2.9965 0.9690
3.0617 -6.5978 -2.9951 0.9690
5.1676 -5.1103 -2.9927 0.9691
5.6009 -4.6293 -2.9922 0.9691
6.3312 -3.5619 -2.9913 0.9691
6.6223 -2.9839 -2.9910 0.9691
7.2167 0.8073 -2.9902 0.9691
7.1164 1.4465 -2.9903 0.9691
6.7481 2.6857 -2.9907 0.9691
6.4829 3.2760 -2.9910 0.9691
6.1664 3.8405 -2.9914 0.9691
4.2155 5.4622 -2.8412 0.9706
3.7134 5.8169 -2.8418 0.9706
3.1816 6.1256 -2.8424 0.9706
2.6243 6.3860 -2.8430 0.9706
1.4512 6.7532 -2.8443 0.9706
0.8446 6.8573 -2.8450 0.9706
-0.9979 6.8419 -2.8471 0.9705
-1.6032 6.7275 -2.8478 0.9705
-2.7720 6.3396 -2.8492 0.9705
-3.8538 5.7503 -2.8504 0.9705
-4.3512 5.3855 -2.8510 0.9705
-4.8142 4.9778 -2.8516 0.9705
-5.4951 4.7518 -2.9915 0.9691
-6.2802 3.7198 -3.0057 0.9689
-6.5872 3.1464 -3.0060 0.9689
-6.8417 2.5479 -3.0063 0.9689
-7.0419 1.9290 -3.0066 0.9689
-7.1861 1.2946 -3.0067 0.9689
-6.9422 -0.6204 -3.0065 0.9701
-6.7217 -1.8413 -3.0063 0.9701
-6.5307 -2.4321 -3.0060 0.9701
-5.9948 -3.5507 -3.0055 0.9701
-5.6542 -4.0696 -3.0051 0.9701
-4.8416 -5.0062 -3.0042 0.9701
-3.8759 -5.7832 -3.0031 0.9701
-3.3451 -6.1040 -3.0025 0.9701
-2.2089 -6.5975 -3.0012 0.9701
-1.0036 -6.8815 -2.9998 0.9702
-0.3871 -6.9419 -2.9991 0.9702
0.8495 -6.8973 -2.9977 0.9702
3.2002 -6.1616 -2.9950 0.9702
4.7116 -5.0942 -2.9932 0.9702
6.4428 -2.5642 -2.9912 0.9702
6.8901 -0.7708 -2.9906 0.9702
6.9312 -0.1544 -2.9906 0.9702
6.8490 1.0770 -2.9907 0.9702
6.7262 1.6823 -2.9908 0.9702
6.3223 2.8487 -2.9912 0.9702
6.0443 3.4004 -2.9915 0.9702
5.7183 3.9254 -2.9919 0.9702
5.3470 4.4194 -2.9923 0.9702
3.7886 5.3894 -2.8417 0.9717
2.2315 6.2027 -2.8435 0.9717
1.6710 6.3781 -2.8441 0.9717
1.0969 6.5030 -2.8448 0.9717
-0.0735 6.5976 -2.8461 0.9717
-1.2427 6.4831 -2.8474 0.9717
-1.8152 6.3482 -2.8481 0.9716
-2.3736 6.1629 -2.8487 0.9716
-5.0247 4.7523 -2.9833 0.9703
-5.4667 4.3170 -3.0047 0.9701
-5.8300 3.8139 -3.0051 0.9701
-6.4154 2.7204 -3.0058 0.9701
-6.6326 2.1387 -3.0061 0.9701
-6.7971 1.5400 -3.0063 0.9701
-6.9629 0.3105 -3.0065 0.9701
-6.9630 -0.3105 -3.0065 0.9701
-6.4156 -2.7204 -3.0059 0.9701
-6.1474 -3.2803 -3.0056 0.9701
-5.4670 -4.3172 -3.0049 0.9701
-5.0602 -4.7859 -3.0044 0.9701
-4.6134 -5.2164 -3.0039 0.9701
-3.6140 -5.9495 -3.0028 0.9701
-3.0695 -6.2463 -3.0021 0.9701
-2.5009 -6.4933 -3.0015 0.9701
-1.9126 -6.6886 -3.0008 0.9701
-0.6960 -6.9186 -2.9994 0.9702
0.5414 -6.9291 -2.9980 0.9702
2.3512 -6.5353 -2.9959 0.9702
2.9229 -6.2987 -2.9953 0.9702
4.4804 -5.2995 -2.9935 0.9702
6.5504 -2.2746 -2.9911 0.9702
6.7263 -1.6823 -2.9908 0.9702
6.8490 -1.0770 -2.9907 0.9702
6.9175 -0.4631 -2.9906 0.9702
6.9312 0.1545 -2.9906 0.9702
6.8900 0.7708 -2.9906 0.9702
6.7943 1.3810 -2.9907 0.9702
6.6448 1.9804 -2.9909 0.9702
5.5382 4.1765 -2.9921 0.9702
5.1452 4.6536 -2.9925 0.9702
4.4719 4.8350 -2.8409 0.9717
3.5451 5.5533 -2.8420 0.9717
2.5054 6.0964 -2.8431 0.9717
1.3854 6.4470 -2.8444 0.9717
0.8062 6.5462 -2.8451 0.9717
0.2204 6.5935 -2.8458 0.9717
-0.3674 6.5886 -2.8464 0.9717
-0.9526 6.5312 -2.8471 0.9717
-1.5304 6.4220 -2.8478 0.9717
-2.0964 6.2618 -2.8484 0.9716
-2.6460 6.0517 -2.8491 0.9716
-3.1748 5.7934 -2.8497 0.9716
-4.1534 5.1407 -2.8508 0.9716
-4.6175 4.7745 -2.8651 0.9715
-6.5305 2.4320 -3.0060 0.9701
-6.7215 1.8412 -3.0062 0.9701
-6.2425 -2.3247 -3.0057 0.9712
-6.0103 -2.8709 -3.0055 0.9712
-5.7304 -3.3941 -3.0051 0.9712
-5.4049 -3.8902 -3.0048 0.9712
-2.1116 -6.3069 -3.0010 0.9712
-0.9595 -6.5785 -2.9997 0.9712
0.2220 -6.6414 -2.9984 0.9713
0.8121 -6.5938 -2.9977 0.9713
1.3954 -6.4938 -2.9970 0.9713
1.9675 -6.3425 -2.9964 0.9713
2.5236 -6.1409 -2.9957 0.9713
3.0596 -5.8907 -2.9951 0.9713
3.5710 -5.5939 -2.9945 0.9713
5.6288 -3.5057 -2.9921 0.9713
6.3532 -1.8935 -2.9913 0.9713
6.4961 -1.3204 -2.9911 0.9713
6.6138 0.4428 -2.9909 0.9713
6.5483 1.0297 -2.9910 0.9713
6.2626 2.1746 -2.9913 0.9713
5.7788 3.2511 -2.9918 0.9713
5.4672 3.7530 -2.9922 0.9713
5.1121 4.2253 -2.9926 0.9713
2.6522 5.7153 -2.8430 0.9727
1.5975 6.0976 -2.8442 0.9727
0.4913 6.2870 -2.8455 0.9727
-0.0703 6.3072 -2.8461 0.9727
-1.7353 6.0686 -2.8480 0.9727
-2.2690 5.8914 -2.8486 0.9727
-2.7849 5.6672 -2.8492 0.9727
-3.2790 5.3979 -2.8498 0.9727
-3.7471 5.0856 -2.8503 0.9727
-4.8369 4.5746 -3.0040 0.9712
-5.5729 3.6456 -3.0048 0.9712
-6.1323 2.6003 -3.0055 0.9712
-6.3400 2.0444 -3.0058 0.9712
-6.4973 -1.4721 -3.0060 0.9712
-6.3401 -2.0444 -3.0058 0.9712
-5.8762 -3.1356 -3.0053 0.9712
-4.8371 -4.5749 -3.0041 0.9712
-3.4548 -5.6873 -3.0026 0.9712
-2.9343 -5.9711 -3.0020 0.9712
-1.8283 -6.3940 -3.0007 0.9712
-1.2517 -6.5300 -3.0001 0.9712
-0.6654 -6.6140 -2.9994 0.9713
-0.0740 -6.6454 -2.9987 0.9713
1.1049 -6.5503 -2.9974 0.9713
4.7167 -4.6645 -2.9932 0.9713
6.4310 -1.6085 -2.9912 0.9713
6.6269 0.1477 -2.9909 0.9713
6.4960 1.3204 -2.9911 0.9713
5.9176 2.9903 -2.9917 0.9713
5.6286 3.5055 -2.9920 0.9713
5.2949 3.9931 -2.9924 0.9713
4.9192 4.4491 -2.9928 0.9713
3.8477 4.9856 -2.8416 0.9727
1.3244 6.1634 -2.8445 0.9727
0.7708 6.2582 -2.8451 0.9727
-1.4630 6.1392 -2.8477 0.9727
-2.5295 5.7850 -2.8489 0.9727
-3.0350 5.5381 -2.8495 0.9727
-3.5165 5.2470 -2.8501 0.9727
-3.9703 4.9141 -2.8506 0.9727
-4.5953 4.7515 -2.9826 0.9714
-5.4046 3.8900 -3.0047 0.9712
-6.0101 2.8708 -3.0054 0.9712
-6.2424 2.3247 -3.0056 0.9712
-6.4250 1.7600 -3.0059 0.9712
-6.5565 1.1812 -3.0060 0.9712
-6.3767 0.0000 -3.0058 0.9722
-6.2755 -1.1306 -3.0057 0.9722
-4.4299 -4.5804 -3.0037 0.9722
-3.5464 -5.2915 -3.0027 0.9722
-2.5510 -5.8343 -3.0015 0.9722
-2.0212 -6.0370 -3.0009 0.9722
-0.3542 -6.3524 -2.9990 0.9723
0.2126 -6.3574 -2.9984 0.9723
0.7774 -6.3119 -2.9977 0.9723
1.8834 -6.0714 -2.9965 0.9723
2.4158 -5.8785 -2.9959 0.9723
3.8808 -5.0286 -2.9942 0.9723
4.3123 -4.6624 -2.9937 0.9723
4.7094 -4.2594 -2.9932 0.9723
5.6653 -2.8628 -2.9921 0.9723
6.0821 -1.8127 -2.9916 0.9723
6.2190 -1.2641 -2.9914 0.9723
6.3316 0.4239 -2.9913 0.9723
5.9954 2.0818 -2.9916 0.9723
5.5322 3.1124 -2.9921 0.9723
5.2338 3.5928 -2.9925 0.9723
4.5152 4.4651 -2.9933 0.9723
-1.1372 5.9324 -2.8473 0.9736
-1.6610 5.8089 -2.8479 0.9736
-2.6657 5.4246 -2.8491 0.9736
-3.1386 5.1668 -2.8496 0.9736
-3.5866 4.8678 -2.8501 0.9736
-4.2005 4.7495 -2.9888 0.9724
-5.0017 3.9498 -3.0042 0.9722
-5.6241 3.0011 -3.0049 0.9722
-5.8695 2.4889 -3.0052 0.9722
-6.2187 1.4090 -3.0056 0.9722
-6.3196 0.8499 -3.0058 0.9722
-6.3704 0.2840 -3.0058 0.9722
-6.2188 -1.4090 -3.0057 0.9722
-6.0683 -1.9568 -3.0055 0.9722
-5.8697 -2.4889 -3.0053 0.9722
-5.6243 -3.0012 -3.0050 0.9722
-1.7501 -6.1204 -3.0006 0.9722
-1.1981 -6.2505 -3.0000 0.9722
-0.0709 -6.3612 -2.9987 0.9723
0.4955 -6.3409 -2.9981 0.9723
1.6112 -6.1499 -2.9968 0.9723
3.1768 -5.5024 -2.9950 0.9723
3.6533 -5.1969 -2.9944 0.9723
4.1006 -4.8503 -2.9939 0.9723
4.5153 -4.4653 -2.9934 0.9723
4.8941 -4.0451 -2.9930 0.9723
5.5324 -3.1125 -2.9922 0.9723
6.1566 -1.5398 -2.9915 0.9723
6.2690 -0.9857 -2.9914 0.9723
6.3316 -0.4238 -2.9913 0.9723
6.2189 1.2640 -2.9914 0.9723
6.0820 1.8126 -2.9915 0.9723
5.8969 2.3469 -2.9917 0.9723
5.3884 3.3559 -2.9923 0.9723
5.0689 3.8227 -2.9926 0.9723
4.7092 4.2592 -2.9931 0.9723
4.3121 4.6621 -2.9935 0.9723
3.6835 4.7727 -2.8418 0.9737
3.2446 5.0825 -2.8423 0.9737
2.2929 5.5794 -2.8434 0.9737
1.7875 5.7625 -2.8440 0.9737
1.2678 5.8999 -2.8446 0.9737
0.7378 5.9906 -2.8452 0.9737
0.2017 6.0338 -2.8458 0.9737
-0.3362 6.0291 -2.8464 0.9737
-2.4212 5.5374 -2.8488 0.9736
-4.4296 4.5802 -3.0035 0.9722
-4.8204 4.1684 -3.0040 0.9722
-5.1730 3.7233 -3.0044 0.9722
-5.4846 3.2485 -3.0048 0.9722
-6.1495 1.6846 -3.0055 0.9722
-6.0863 -0.5439 -3.0055 0.9731
-5.8931 -1.6143 -3.0053 0.9731
-5.5127 -2.6332 -3.0049 0.9731
-5.2559 -3.1131 -3.0046 0.9731
-4.9575 -3.5682 -3.0043 0.9731
-3.8370 -4.7491 -3.0030 0.9732
-2.9332 -5.3524 -3.0020 0.9732
-2.4447 -5.5911 -3.0014 0.9732
-0.3395 -6.0879 -2.9990 0.9732
0.7450 -6.0491 -2.9978 0.9732
1.2802 -5.9576 -2.9972 0.9732
2.3153 -5.6340 -2.9960 0.9732
2.8070 -5.4045 -2.9954 0.9732
3.2763 -5.1323 -2.9949 0.9732
4.8585 -3.6639 -2.9930 0.9732
5.1647 -3.2166 -2.9927 0.9732
5.6521 -2.2495 -2.9921 0.9732
5.9606 -1.2115 -2.9917 0.9733
6.0446 -0.6762 -2.9916 0.9733
6.0807 -0.1355 -2.9916 0.9733
5.5463 2.4990 -2.9921 0.9732
5.3024 2.9830 -2.9924 0.9732
5.0164 3.4435 -2.9927 0.9732
4.6905 3.8768 -2.9931 0.9732
3.3443 4.7573 -2.8602 0.9744
1.9573 5.4404 -2.8438 0.9746
1.4656 5.5941 -2.8443 0.9746
-1.0898 5.6853 -2.8473 0.9745
-1.5918 5.5669 -2.8479 0.9745
-2.5546 5.1985 -2.8490 0.9745
-3.0077 4.9514 -2.8495 0.9745
-4.0449 4.5736 -3.0031 0.9732
-4.7931 3.7851 -3.0040 0.9731
-5.3895 2.8759 -3.0047 0.9731
-5.6246 2.3850 -3.0049 0.9731
-6.1045 -0.2722 -3.0055 0.9731
-5.9593 -1.3502 -3.0054 0.9731
-5.8151 -1.8751 -3.0052 0.9731
-5.6248 -2.3851 -3.0050 0.9731
-4.7933 -3.7852 -3.0041 0.9731
-4.4368 -4.1963 -3.0037 0.9731
-4.0451 -4.5738 -3.0032 0.9731
-2.6916 -5.4772 -3.0017 0.9732
-1.6772 -5.8654 -3.0005 0.9732
-0.0679 -6.0964 -2.9987 0.9732
0.4749 -6.0770 -2.9981 0.9732
1.0136 -6.0093 -2.9975 0.9732
2.0622 -5.7321 -2.9963 0.9732
3.0447 -5.2736 -2.9951 0.9732
3.9302 -4.6486 -2.9941 0.9732
4.3277 -4.2797 -2.9936 0.9732
5.0166 -3.4437 -2.9928 0.9732
5.7465 -1.9954 -2.9920 0.9732
5.9009 -1.4759 -2.9918 0.9732
6.0445 0.6762 -2.9916 0.9733
5.8293 1.7373 -2.9918 0.9732
5.4297 2.7438 -2.9923 0.9732
5.1645 3.2165 -2.9925 0.9732
4.5135 4.0822 -2.9933 0.9732
4.1328 4.4684 -2.9937 0.9732
3.6588 4.7409 -2.9455 0.9737
2.6642 5.1295 -2.8430 0.9746
0.1933 5.7826 -2.8458 0.9745
-1.3421 5.6317 -2.8476 0.9745
-1.8384 5.4910 -2.8481 0.9745
-2.3203 5.3067 -2.8487 0.9745
-2.7839 5.0800 -2.8492 0.9745
-3.2256 4.8129 -2.8497 0.9745
-3.8348 4.7464 -3.0013 0.9732
-4.6194 3.9946 -3.0037 0.9731
-5.2558 3.1130 -3.0045 0.9731
-5.5125 2.6331 -3.0048 0.9731
-5.7255 2.1322 -3.0050 0.9731
-6.0135 1.0834 -3.0054 0.9731
-5.4927 -2.0455 -3.0049 0.9740
-5.2884 -2.5261 -3.0046 0.9740
-4.4317 -3.8323 -3.0037 0.9740
-3.2604 -4.8648 -3.0023 0.9740
-2.3453 -5.3639 -3.0013 0.9740
-1.8583 -5.5504 -3.0007 0.9740
-1.3566 -5.6926 -3.0002 0.9740
1.7318 -5.5827 -2.9966 0.9741
2.2214 -5.4054 -2.9961 0.9741
3.1435 -4.9242 -2.9950 0.9741
3.5687 -4.6241 -2.9945 0.9741
3.9655 -4.2874 -2.9940 0.9741
4.6616 -3.5154 -2.9932 0.9741
4.9554 -3.0862 -2.9929 0.9741
5.4231 -2.1583 -2.9923 0.9741
5.7191 -1.1625 -2.9920 0.9741
5.7997 -0.6488 -2.9919 0.9741
5.8343 -0.1300 -2.9918 0.9741
5.8228 0.3898 -2.9918 0.9741
5.6617 1.4161 -2.9920 0.9741
5.0875 2.8622 -2.9926 0.9741
4.8131 3.3040 -2.9929 0.9741
4.1520 4.1060 -2.9937 0.9741
3.7706 4.4599 -2.9941 0.9741
2.7726 4.8023 -2.8429 0.9754
2.3346 5.0309 -2.8434 0.9754
1.4061 5.3671 -2.8444 0.9754
0.4324 5.5336 -2.8455 0.9754
-0.0618 5.5512 -2.8461 0.9754
-0.5558 5.5247 -2.8467 0.9753
-1.5271 5.3408 -2.8478 0.9753
-2.4508 4.9873 -2.8488 0.9753
-2.8987 4.7719 -2.8624 0.9752
-3.4739 4.7149 -3.0024 0.9740
-3.8804 4.3876 -3.0029 0.9740
-4.5981 3.6311 -3.0037 0.9740
-4.9037 3.2078 -3.0041 0.9740
-5.5784 1.7988 -3.0049 0.9740
-5.7167 1.2952 -3.0051 0.9740
-5.8561 -0.2612 -3.0052 0.9740
-5.3959 -2.2880 -3.0047 0.9740
-4.5983 -3.6312 -3.0039 0.9740
-3.4741 -4.7151 -3.0026 0.9740
-3.0402 -5.0048 -3.0021 0.9740
-1.6090 -5.6271 -3.0005 0.9740
0.4556 -5.8302 -2.9981 0.9741
0.9725 -5.7654 -2.9975 0.9741
1.4815 -5.6549 -2.9969 0.9741
1.9786 -5.4995 -2.9963 0.9741
2.4597 -5.3006 -2.9958 0.9741
2.9212 -5.0597 -2.9953 0.9741
3.7708 -4.4601 -2.9943 0.9741
4.8132 -3.3041 -2.9931 0.9741
5.0877 -2.8623 -2.9927 0.9741
5.6618 -1.4161 -2.9921 0.9741
5.8228 -0.3898 -2.9919 0.9741
5.5932 1.6670 -2.9921 0.9741
5.4229 2.1583 -2.9923 0.9741
5.2097 2.6326 -2.9925 0.9741
4.9552 3.0861 -2.9928 0.9741
4.6614 3.5153 -2.9931 0.9741
4.3305 3.9167 -2.9935 0.9741
0.6784 5.5082 -2.8453 0.9754
-0.8014 5.4951 -2.8469 0.9753
-1.7637 5.2679 -2.8481 0.9753
-3.6808 4.5558 -3.0027 0.9740
-4.0723 4.2107 -3.0031 0.9740
-4.4315 3.8321 -3.0035 0.9740
-5.0420 2.9864 -3.0043 0.9740
-5.2883 2.5260 -3.0045 0.9740
-5.4925 2.0454 -3.0048 0.9740
-5.7688 1.0393 -3.0051 0.9740
-5.8386 0.5218 -3.0052 0.9740
-5.5396 -0.9980 -3.0049 0.9748
-5.2744 -1.9642 -3.0046 0.9748
-4.8418 -2.8678 -3.0041 0.9748
-4.5668 -3.2870 -3.0038 0.9748
-3.5348 -4.3751 -3.0026 0.9748
-2.2522 -5.1510 -3.0012 0.9748
-1.7845 -5.3301 -3.0007 0.9748
-1.3028 -5.4667 -3.0001 0.9748
-0.3128 -5.6090 -2.9990 0.9748
0.6864 -5.5735 -2.9978 0.9749
2.1333 -5.1912 -2.9962 0.9749
2.5865 -4.9798 -2.9956 0.9749
3.0189 -4.7291 -2.9951 0.9749
3.4273 -4.4409 -2.9947 0.9749
4.7592 -2.9640 -2.9931 0.9749
5.3719 -1.6010 -2.9924 0.9749
5.4928 -1.1165 -2.9922 0.9749
5.5369 0.8706 -2.9922 0.9749
5.4376 1.3600 -2.9923 0.9749
5.1110 2.3029 -2.9926 0.9749
4.8861 2.7489 -2.9929 0.9749
4.3222 3.5724 -2.9935 0.9749
3.9876 3.9434 -2.9939 0.9749
3.2262 4.5893 -2.9947 0.9749
2.7404 4.7465 -2.9259 0.9755
1.8034 5.0128 -2.8440 0.9761
1.3504 5.1544 -2.8445 0.9761
0.8864 5.2551 -2.8450 0.9761
0.4153 5.3141 -2.8456 0.9761
-0.0594 5.3310 -2.8461 0.9761
-0.5337 5.3056 -2.8466 0.9761
-1.9176 4.9788 -2.8482 0.9761
-2.3535 4.7893 -2.8487 0.9761
-2.8858 4.7507 -2.9674 0.9751
-3.3360 4.5276 -3.0023 0.9748
-4.4155 3.4869 -3.0035 0.9748
-4.7088 3.0804 -3.0039 0.9748
-5.4895 1.2437 -3.0048 0.9748
-5.5786 0.7502 -3.0049 0.9748
-5.6233 0.2508 -3.0050 0.9748
-5.6234 -0.2507 -3.0050 0.9748
-5.5786 -0.7503 -3.0049 0.9748
-5.3568 -1.7273 -3.0047 0.9748
-4.9649 -2.6494 -3.0043 0.9748
-4.0872 -3.8657 -3.0033 0.9748
-3.7265 -4.2136 -3.0029 0.9748
-2.9194 -4.8060 -3.0019 0.9748
-2.4797 -5.0460 -3.0014 0.9748
-1.5452 -5.4037 -3.0004 0.9748
-1.0579 -5.5188 -2.9998 0.9748
-0.5624 -5.5900 -2.9993 0.9748
-0.0626 -5.6168 -2.9987 0.9749
0.9339 -5.5368 -2.9975 0.9749
1.4228 -5.4307 -2.9970 0.9749
1.9001 -5.2815 -2.9964 0.9749
2.3623 -5.0905 -2.9959 0.9749
3.2263 -4.5895 -2.9949 0.9749
3.6215 -4.2835 -2.9944 0.9749
3.9878 -3.9436 -2.9940 0.9749
4.3224 -3.5725 -2.9936 0.9749
4.6227 -3.1733 -2.9933 0.9749
4.8863 -2.7490 -2.9930 0.9749
5.1111 -2.3029 -2.9927 0.9749
5.2954 -1.8387 -2.9925 0.9749
5.4377 -1.3601 -2.9923 0.9749
5.5923 -0.3743 -2.9921 0.9749
5.5701 0.6231 -2.9921 0.9749
5.4927 1.1164 -2.9922 0.9749
5.3718 1.6010 -2.9923 0.9749
5.2083 2.0729 -2.9925 0.9749
5.0035 2.5284 -2.9927 0.9749
4.4768 3.3761 -2.9933 0.9749
3.0188 4.7288 -2.9950 0.9749
1.1195 5.2099 -2.8447 0.9761
0.1781 5.3279 -2.8458 0.9761
-0.2968 5.3236 -2.8464 0.9761
-0.7696 5.2770 -2.8469 0.9761
-2.1376 4.8889 -2.8485 0.9761
-3.1307 4.6714 -3.0020 0.9748
-4.2555 3.6799 -3.0033 0.9748
-4.5667 3.2869 -3.0037 0.9748
-4.8416 2.8677 -3.0040 0.9748
-5.4285 1.4870 -3.0047 0.9748
-5.5395 0.9980 -3.0049 0.9748
-5.6065 0.5010 -3.0049 0.9748
-5.3886 -0.4815 -3.0047 0.9756
-5.3242 -0.9592 -3.0046 0.9756
-5.0693 -1.8878 -3.0044 0.9756
-4.6535 -2.7563 -3.0039 0.9756
-3.7587 -3.8865 -3.0029 0.9756
-3.3974 -4.2051 -3.0025 0.9756
-2.5973 -4.7394 -3.0016 0.9756
-2.1648 -4.9509 -3.0011 0.9756
-1.7152 -5.1231 -3.0006 0.9756
-1.2522 -5.2545 -3.0000 0.9756
1.5986 -5.1535 -2.9968 0.9756
2.0506 -4.9899 -2.9963 0.9756
3.2945 -4.2688 -2.9948 0.9756
4.8098 -2.4305 -2.9930 0.9756
5.1638 -1.5390 -2.9926 0.9756
5.3545 -0.5990 -2.9924 0.9756
5.2270 1.3074 -2.9925 0.9756
5.0902 1.7675 -2.9927 0.9756
4.9130 2.2137 -2.9929 0.9756
4.6968 2.6424 -2.9931 0.9756
4.4434 3.0503 -2.9934 0.9756
3.8331 3.7906 -2.9941 0.9756
3.4810 4.1173 -2.9945 0.9756
1.7335 4.8184 -2.8441 0.9768
1.2980 4.9545 -2.8445 0.9768
0.8520 5.0512 -2.8451 0.9768
0.3991 5.1079 -2.8456 0.9768
-0.9651 5.0347 -2.8471 0.9768
-1.4105 4.9328 -2.8494 0.9768
-2.3363 4.7542 -2.9421 0.9761
-2.8059 4.6191 -3.0017 0.9756
-4.5258 2.9606 -3.0037 0.9756
-5.1484 1.6602 -3.0044 0.9756
-5.3617 0.7211 -3.0047 0.9756
-5.4047 0.2410 -3.0047 0.9756
-5.3617 -0.7211 -3.0047 0.9756
-5.1485 -1.6602 -3.0045 0.9756
-4.2440 -3.3514 -3.0034 0.9756
-3.2065 -4.3519 -3.0023 0.9756
-2.8060 -4.6193 -3.0018 0.9756
-1.9419 -5.0420 -3.0008 0.9756
-1.4852 -5.1939 -3.0003 0.9756
-1.0168 -5.3046 -2.9998 0.9756
-0.5405 -5.3730 -2.9992 0.9756
0.8977 -5.3220 -2.9976 0.9756
1.8265 -5.0767 -2.9965 0.9756
2.2707 -4.8932 -2.9960 0.9756
3.1013 -4.4116 -2.9950 0.9756
4.1549 -3.4341 -2.9938 0.9756
4.4436 -3.0504 -2.9935 0.9756
5.0903 -1.7675 -2.9927 0.9756
5.2271 -1.3074 -2.9926 0.9756
5.3225 -0.8369 -2.9924 0.9756
5.3758 -0.3599 -2.9924 0.9756
5.3544 0.5990 -2.9924 0.9756
5.2800 1.0732 -2.9925 0.9756
4.5747 2.8491 -2.9932 0.9756
3.9979 3.6159 -2.9939 0.9756
3.6607 3.9579 -2.9943 0.9756
3.2943 4.2686 -2.9947 0.9756
2.4617 4.7396 -2.9662 0.9759
0.6262 5.0846 -2.8453 0.9768
0.1712 5.1211 -2.8458 0.9768
-0.2853 5.1170 -2.8464 0.9768
-1.1885 4.9871 -2.8474 0.9768
-2.0829 4.7638 -2.8876 0.9765
-2.5971 4.7391 -3.0014 0.9756
-3.0091 4.4899 -3.0019 0.9756
-3.7586 3.8863 -3.0028 0.9756
-4.0901 3.5369 -3.0031 0.9756
-4.3892 3.1592 -3.0035 0.9756
-4.8807 2.3313 -3.0041 0.9756
-5.0692 1.8878 -3.0043 0.9756
-5.2174 1.4292 -3.0045 0.9756
-5.1832 -0.4632 -3.0045 0.9763
-5.1213 -0.9227 -3.0044 0.9763
-3.6156 -3.7385 -3.0027 0.9763
-3.2681 -4.0449 -3.0023 0.9763
-2.8947 -4.3192 -3.0019 0.9763
-1.2046 -5.0546 -3.0000 0.9763
-0.7498 -5.1408 -2.9995 0.9763
-0.2892 -5.1863 -2.9989 0.9763
0.1735 -5.1905 -2.9984 0.9763
0.6347 -5.1536 -2.9979 0.9763
1.5379 -4.9576 -2.9968 0.9763
1.9727 -4.8003 -2.9963 0.9763
2.7917 -4.3730 -2.9954 0.9763
3.5218 -3.8077 -2.9945 0.9763
4.1401 -3.1222 -2.9938 0.9763
4.4012 -2.7411 -2.9935 0.9763
4.9678 -1.4806 -2.9929 0.9763
5.0797 -1.0325 -2.9927 0.9763
5.1512 -0.5763 -2.9926 0.9763
5.1717 0.3462 -2.9926 0.9763
5.0287 1.2578 -2.9927 0.9763
4.5186 2.5421 -2.9933 0.9763
4.2747 2.9344 -2.9936 0.9763
2.9833 4.2439 -2.9950 0.9763
2.5942 4.4932 -2.9955 0.9763
1.7092 4.7507 -2.9149 0.9770
1.2505 4.7730 -2.8487 0.9775
-0.0549 4.9293 -2.8461 0.9775
-0.4935 4.9057 -2.8466 0.9775
-1.3626 4.7671 -2.8626 0.9774
-2.2925 4.6652 -3.0011 0.9763
-2.6991 4.4433 -3.0015 0.9763
-3.4451 3.8955 -3.0024 0.9763
-4.0822 3.2237 -3.0031 0.9763
-4.9523 1.5969 -3.0042 0.9763
-5.0750 1.1499 -3.0043 0.9763
-5.1574 0.6936 -3.0044 0.9763
-5.1988 -0.2318 -3.0045 0.9763
-5.1574 -0.6936 -3.0044 0.9763
-5.0751 -1.1499 -3.0044 0.9763
-4.5902 -2.4494 -3.0038 0.9763
-4.0824 -3.2238 -3.0033 0.9763
-3.0844 -4.1862 -3.0021 0.9763
-2.2926 -4.6654 -3.0012 0.9763
-1.8680 -4.8501 -3.0007 0.9763
-1.4287 -4.9963 -3.0002 0.9763
-0.0578 -5.1935 -2.9987 0.9763
0.4045 -5.1772 -2.9981 0.9763
0.8636 -5.1197 -2.9976 0.9763
1.3156 -5.0217 -2.9971 0.9763
1.7570 -4.8838 -2.9966 0.9763
2.5943 -4.4934 -2.9956 0.9763
2.9835 -4.2441 -2.9952 0.9763
3.3489 -3.9611 -2.9948 0.9763
3.6877 -3.6468 -2.9944 0.9763
3.9972 -3.3037 -2.9940 0.9763
4.5187 -2.5421 -2.9934 0.9763
4.7266 -2.1297 -2.9931 0.9763
5.1205 -0.8052 -2.9927 0.9763
5.1512 0.5763 -2.9926 0.9763
5.0796 1.0325 -2.9927 0.9763
4.9678 1.4805 -2.9928 0.9763
4.4010 2.7410 -2.9934 0.9763
3.8461 3.4786 -2.9941 0.9763
3.5217 3.8076 -2.9944 0.9763
2.7915 4.3729 -2.9952 0.9763
1.9487 4.7418 -2.9599 0.9766
1.0352 4.8175 -2.8449 0.9775
0.6024 4.8913 -2.8453 0.9775
0.1648 4.9297 -2.8477 0.9775
-0.7116 4.8793 -2.8469 0.9775
-1.1433 4.7974 -2.8474 0.9775
-1.5939 4.7607 -2.8986 0.9771
-2.4983 4.5587 -3.0013 0.9763
-2.8945 4.3190 -3.0018 0.9763
-3.6155 3.7384 -3.0026 0.9763
-4.2220 3.0388 -3.0033 0.9763
-4.4762 2.6512 -3.0036 0.9763
-4.6948 2.2425 -3.0039 0.9763
-4.8761 1.8159 -3.0041 0.9763
-5.0186 1.3748 -3.0043 0.9763
-5.1213 0.9227 -3.0044 0.9763
