ply
format ascii 1.0
element vertex 1617
property float32 x
property float32 y
property float32 z
property float32 I
end_header
-3.6012 7.3282 1.4397 0.9674
-3.5975 7.3207 1.2989 0.9675
9.3724 -6.4338 1.6170 0.9551
9.4468 -5.8836 1.3947 0.9561
-3.5902 7.3060 1.0201 0.9677
9.1291 -6.2668 1.3876 0.9563
-3.5866 7.2986 0.8821 0.9678
8.9182 -7.3711 1.2550 0.9545
8.9748 -6.1609 1.1808 0.9571
9.7656 -5.4941 1.2154 0.9559
8.6792 -6.5453 0.9966 0.9573
9.1450 -5.6956 0.9877 0.9576
-3.5830 7.2913 0.7448 0.9679
8.8554 -6.0789 0.9847 0.9578
8.5933 -6.4805 0.8066 0.9577
10.2031 -5.1558 0.8567 0.9552
8.5671 -7.0809 0.8329 0.9564
8.7728 -6.0222 0.7974 0.9582
9.4901 -5.3390 0.8160 0.9573
8.5242 -6.4284 0.6218 0.9581
10.0403 -5.0736 0.6552 0.9559
-3.5760 7.2769 0.4722 0.9680
9.4030 -5.2900 0.6284 0.9577
8.9418 -5.5690 0.4380 0.9587
9.9454 -5.0257 0.4633 0.9564
-3.5724 7.2696 0.3368 0.9681
8.5489 -7.7320 0.2875 0.9549
8.4421 -6.3665 0.2637 0.9586
9.8842 -4.9947 0.2762 0.9567
8.3581 -6.9081 0.2704 0.9575
8.6292 -5.9236 0.2610 0.9590
9.3014 -5.2329 0.2662 0.9582
8.4275 -6.3554 0.0877 0.9587
8.8919 -5.5379 0.0871 0.9590
9.8608 -4.9829 0.0918 0.9568
-3.5654 7.2553 0.0672 0.9682
8.3412 -6.8942 0.0899 0.9576
9.2834 -5.2228 0.0885 0.9583
8.4784 -7.6682 -0.0950 0.9553
9.2693 -5.2148 -0.0884 0.9583
8.4305 -6.3578 -0.2633 0.9586
8.8948 -5.5398 -0.2613 0.9589
8.3449 -6.8973 -0.2700 0.9576
9.2873 -5.2250 -0.2657 0.9583
8.5698 -7.7509 -0.4804 0.9548
8.9095 -5.5489 -0.4364 0.9588
9.8902 -4.9978 -0.4608 0.9566
-3.5549 7.2339 -0.3351 0.9682
9.3054 -5.2351 -0.4439 0.9582
8.7044 -7.8726 -0.6836 0.9541
8.4878 -6.4010 -0.6192 0.9583
-3.5528 7.2297 -0.4692 0.9682
8.4218 -6.9608 -0.6364 0.9572
8.6723 -5.9532 -0.6127 0.9587
9.3587 -5.2651 -0.6254 0.9579
8.5345 -6.4362 -0.8011 0.9580
8.9980 -5.6040 -0.7944 0.9584
-3.5525 7.2290 -0.6036 0.9682
8.7173 -5.9841 -0.7924 0.9585
9.4161 -5.2974 -0.8096 0.9576
10.2540 -5.1816 -1.0533 0.9549
-3.5522 7.2284 -0.7384 0.9682
8.7909 -6.0346 -0.9775 0.9581
9.5153 -5.3532 -1.0009 0.9571
9.1662 -5.7088 -1.1713 0.9575
8.7315 -7.2168 -1.2287 0.9554
8.8748 -6.0922 -1.1676 0.9576
9.6291 -5.4172 -1.1984 0.9565
8.8556 -6.6783 -1.3899 0.9563
9.3129 -5.8001 -1.3749 0.9567
-3.5516 7.2272 -1.0091 0.9681
8.9964 -7.4358 -1.4626 0.9540
9.0084 -6.1839 -1.3693 0.9569
9.0788 -6.8467 -1.6174 0.9551
9.5123 -5.9244 -1.5940 0.9557
-3.5513 7.2266 -1.1453 0.9680
9.1879 -6.3071 -1.5851 0.9560
10.1692 -5.7211 -1.6596 0.9540
9.8688 -6.1463 -1.8513 0.9540
9.4918 -6.5158 -1.8333 0.9544
-3.5506 7.2254 -1.4195 0.9678
-3.5503 7.2247 -1.5578 0.9677
-14.5599 0.0000 -3.0695 0.9422
-14.3292 -2.5815 -3.0695 0.9422
-14.0425 -3.8467 -3.0695 0.9422
-13.6444 -5.0812 -3.0695 0.9422
-11.8172 -8.5055 -3.0695 0.9422
-10.1219 -10.4660 -3.0695 0.9422
-9.1502 -11.3254 -3.0695 0.9422
-5.8330 -13.3404 -3.0695 0.9422
-4.6225 -13.8066 -3.0695 0.9422
-2.1013 -14.4074 -3.0695 0.9422
-0.8106 -14.5373 -3.0695 0.9422
5.5343 -13.4670 -3.0695 0.9422
8.8956 -11.5264 -3.0695 0.9422
10.7984 -9.7665 -3.0695 0.9422
11.6248 -8.7667 -3.0695 0.9422
13.9534 -4.1585 -3.0695 0.9422
14.4696 -1.6187 -3.0695 0.9422
14.1248 3.5329 -3.0695 0.9422
12.6155 5.6843 -2.9171 0.9450
10.6655 8.8153 -2.9171 0.9450
5.8245 12.5514 -2.9171 0.9450
4.6842 13.0200 -2.9171 0.9450
2.3015 13.6443 -2.9171 0.9450
1.0780 13.7950 -2.9171 0.9450
-1.3850 13.7675 -2.9171 0.9450
-2.6049 13.5896 -2.9171 0.9450
-3.8041 13.3038 -2.9171 0.9450
-7.1837 11.8261 -2.9171 0.9450
-8.2078 11.1397 -2.9171 0.9450
-10.0529 9.5080 -2.9171 0.9450
-12.2077 6.5142 -2.9171 0.9450
-14.2000 3.2173 -3.0695 0.9422
-14.4300 -1.9406 -3.0695 0.9422
-13.8573 -4.4684 -3.0695 0.9422
-13.4045 -5.6840 -3.0695 0.9422
-12.8454 -6.8545 -3.0695 0.9422
-12.1844 -7.9706 -3.0695 0.9422
-9.6456 -10.9065 -3.0695 0.9422
-8.6366 -11.7217 -3.0695 0.9422
-6.4215 -13.0673 -3.0695 0.9422
-5.2329 -13.5870 -3.0695 0.9422
-0.1622 -14.5589 -3.0695 0.9422
2.4217 -14.3570 -3.0695 0.9422
3.6900 -14.0845 -3.0695 0.9422
6.1288 -13.2071 -3.0695 0.9422
8.3733 -11.9112 -3.0695 0.9422
10.3526 -10.2379 -3.0695 0.9422
12.0038 -8.2401 -3.0695 0.9422
13.2746 -5.9812 -3.0695 0.9422
14.1248 -3.5328 -3.0695 0.9422
14.3831 -2.2616 -3.0695 0.9422
14.5274 -0.9725 -3.0695 0.9422
14.5563 0.3244 -3.0695 0.9422
14.4696 1.6187 -3.0695 0.9422
14.2681 2.9001 -3.0695 0.9422
13.9534 4.1586 -3.0695 0.9422
12.3498 6.2406 -2.9171 0.9450
11.7453 7.3151 -2.9171 0.9450
11.0476 8.3314 -2.9171 0.9450
8.4540 10.9541 -2.9171 0.9450
6.3778 12.2795 -2.9171 0.9450
4.0996 13.2157 -2.9171 0.9450
2.9070 13.5282 -2.9171 0.9450
1.6914 13.7332 -2.9171 0.9450
-0.7703 13.8155 -2.9171 0.9450
-5.5434 12.6780 -2.9171 0.9450
-6.6498 12.1344 -2.9171 0.9450
-7.7034 11.4943 -2.9171 0.9450
-11.2305 8.0832 -2.9171 0.9450
-11.9054 7.0516 -2.9171 0.9450
-12.4857 5.9639 -2.9171 0.9450
-12.9670 4.8290 -2.9171 0.9450
-14.0425 3.8467 -3.0695 0.9422
-14.3292 2.5815 -3.0695 0.9422
-14.5021 1.2959 -3.0695 0.9422
-13.4484 0.0000 -3.0695 0.9463
-12.9706 -3.5530 -3.0695 0.9463
-11.5710 -6.8535 -3.0695 0.9463
-7.4871 -11.1715 -3.0695 0.9463
-6.4630 -11.7936 -3.0695 0.9463
-5.3877 -12.3220 -3.0695 0.9463
-4.2696 -12.7526 -3.0695 0.9463
-3.1176 -13.0820 -3.0695 0.9463
-1.9409 -13.3076 -3.0695 0.9463
-0.7487 -13.4275 -3.0695 0.9463
0.4494 -13.4409 -3.0695 0.9463
3.9844 -12.8446 -3.0695 0.9463
8.2165 -10.6465 -3.0695 0.9463
9.1315 -9.8729 -3.0695 0.9463
9.9740 -9.0210 -3.0695 0.9463
10.7374 -8.0974 -3.0695 0.9463
11.4155 -7.1096 -3.0695 0.9463
12.4952 -4.9729 -3.0695 0.9463
13.1789 -2.6787 -3.0695 0.9463
13.3650 -1.4951 -3.0695 0.9463
13.4451 -0.2996 -3.0695 0.9463
13.4184 0.8983 -3.0695 0.9463
13.0465 3.2631 -3.0695 0.9463
11.6525 5.2504 -2.9171 0.9489
11.1389 6.2667 -2.9171 0.9489
10.5369 7.2332 -2.9171 0.9489
9.8513 8.1423 -2.9171 0.9489
9.0875 8.9868 -2.9171 0.9489
7.3501 10.4557 -2.9171 0.9489
5.3798 11.5933 -2.9171 0.9489
4.3266 12.0261 -2.9171 0.9489
-0.1424 12.7799 -2.9171 0.9489
-1.2793 12.7165 -2.9171 0.9489
-3.5137 12.2882 -2.9171 0.9489
-4.5935 11.9267 -2.9171 0.9489
-3.5497 7.2235 -1.8370 0.9675
-9.2855 8.7822 -2.9171 0.9489
-10.0303 7.9209 -2.9171 0.9489
-10.6955 6.9967 -2.9171 0.9489
-12.7994 4.1273 -3.0695 0.9463
-13.1160 2.9717 -3.0695 0.9463
-13.4351 0.5991 -3.0695 0.9463
-13.4350 -0.5991 -3.0695 0.9463
-13.3284 -1.7925 -3.0695 0.9463
-12.3813 -5.2501 -3.0695 0.9463
-11.8648 -6.3312 -3.0695 0.9463
-11.2542 -7.3622 -3.0695 0.9463
-10.5543 -8.3346 -3.0695 0.9463
-9.7706 -9.2409 -3.0695 0.9463
-7.9773 -10.8269 -3.0695 0.9463
-6.9820 -11.4939 -3.0695 0.9463
-5.9313 -12.0697 -3.0695 0.9463
-4.8335 -12.5498 -3.0695 0.9463
-2.5318 -13.2079 -3.0695 0.9463
-1.3461 -13.3808 -3.0695 0.9463
3.4083 -13.0093 -3.0695 0.9463
4.5527 -12.6544 -3.0695 0.9463
5.6609 -12.1989 -3.0695 0.9463
7.7341 -11.0019 -3.0695 0.9463
8.6827 -10.2699 -3.0695 0.9463
9.5623 -9.4563 -3.0695 0.9463
11.0874 -7.6111 -3.0695 0.9463
11.7208 -6.5940 -3.0695 0.9463
12.2612 -5.5246 -3.0695 0.9463
12.7043 -4.4114 -3.0695 0.9463
13.0465 -3.2631 -3.0695 0.9463
13.2852 -2.0890 -3.0695 0.9463
13.4184 -0.8982 -3.0695 0.9463
13.3650 1.4951 -3.0695 0.9463
11.4070 5.7642 -2.9171 0.9489
10.8487 6.7566 -2.9171 0.9489
9.4788 8.5731 -2.9171 0.9489
8.6782 9.3827 -2.9171 0.9489
7.8086 10.1179 -2.9171 0.9489
6.8771 10.7728 -2.9171 0.9489
5.8909 11.3421 -2.9171 0.9489
4.8581 11.8214 -2.9171 0.9489
3.7866 12.2069 -2.9171 0.9489
2.6851 12.4955 -2.9171 0.9489
0.4271 12.7736 -2.9171 0.9489
-0.7115 12.7609 -2.9171 0.9489
-2.9628 12.4325 -2.9171 0.9489
-5.1202 11.7103 -2.9171 0.9489
-8.0321 9.9414 -2.9171 0.9489
-9.6675 8.3598 -2.9171 0.9489
-10.3732 7.4662 -2.9171 0.9489
-11.5326 5.5087 -2.9171 0.9489
-13.2353 2.3845 -3.0695 0.9463
-13.3950 1.1970 -3.0695 0.9463
-12.2900 -2.2142 -3.0695 0.9499
-10.7446 -6.3640 -3.0695 0.9499
-10.1355 -7.2950 -3.0695 0.9499
-9.4459 -8.1682 -3.0695 0.9499
-8.6814 -8.9765 -3.0695 0.9499
-7.8480 -9.7136 -3.0695 0.9499
-6.9523 -10.3736 -3.0695 0.9499
-6.0014 -10.9512 -3.0695 0.9499
-5.0029 -11.4419 -3.0695 0.9499
-3.9646 -11.8418 -3.0695 0.9499
-2.8950 -12.1477 -3.0695 0.9499
-0.6952 -12.4685 -3.0695 0.9499
0.4173 -12.4808 -3.0695 0.9499
2.6236 -12.2091 -3.0695 0.9499
4.7467 -11.5505 -3.0695 0.9499
6.7195 -10.5259 -3.0695 0.9499
8.4793 -9.1677 -3.0695 0.9499
9.9704 -7.5191 -3.0695 0.9499
10.6001 -6.6018 -3.0695 0.9499
11.9676 -3.5667 -3.0695 0.9499
12.4104 -1.3883 -3.0695 0.9499
12.3363 1.9398 -3.0695 0.9499
12.1147 3.0301 -3.0695 0.9499
11.7969 4.0963 -3.0695 0.9499
10.8202 4.8754 -2.9171 0.9523
9.7843 6.7165 -2.9171 0.9523
9.1477 7.5608 -2.9171 0.9523
5.9339 10.2779 -2.9171 0.9523
4.9956 10.7652 -2.9171 0.9523
4.0176 11.1671 -2.9171 0.9523
3.0077 11.4804 -2.9171 0.9523
1.9740 11.7025 -2.9171 0.9523
0.9246 11.8318 -2.9171 0.9523
-2.2342 11.6556 -2.9171 0.9523
-3.2627 11.4105 -2.9171 0.9523
-4.2654 11.0748 -2.9171 0.9523
-7.0397 9.5544 -2.9171 0.9523
-7.8622 8.8899 -2.9171 0.9523
-9.9315 6.4970 -2.9171 0.9523
-10.4704 5.5872 -2.9171 0.9523
-12.1791 2.7595 -3.0695 0.9499
-12.3764 1.6645 -3.0695 0.9499
-12.4754 -0.5563 -3.0695 0.9499
-12.3764 -1.6645 -3.0695 0.9499
-11.8852 -3.8325 -3.0695 0.9499
-11.4969 -4.8751 -3.0695 0.9499
-8.2730 -9.3544 -3.0695 0.9499
-7.4075 -10.0536 -3.0695 0.9499
-6.4833 -10.6730 -3.0695 0.9499
-4.4882 -11.6534 -3.0695 0.9499
-3.4332 -12.0066 -3.0695 0.9499
-2.3509 -12.2646 -3.0695 0.9499
-1.2500 -12.4251 -3.0695 0.9499
-0.1391 -12.4871 -3.0695 0.9499
0.9729 -12.4499 -3.0695 0.9499
2.0771 -12.3139 -3.0695 0.9499
3.1648 -12.0801 -3.0695 0.9499
4.2275 -11.7505 -3.0695 0.9499
6.2439 -10.8148 -3.0695 0.9499
9.6256 -7.9557 -3.0695 0.9499
10.2955 -7.0674 -3.0695 0.9499
10.8837 -6.1230 -3.0695 0.9499
12.4847 0.2782 -3.0695 0.9499
11.9676 3.5668 -3.0695 0.9499
10.5923 5.3525 -2.9171 0.9523
9.4754 7.1458 -2.9171 0.9523
8.8018 7.9608 -2.9171 0.9523
5.4702 10.5320 -2.9171 0.9523
2.4933 11.6030 -2.9171 0.9523
-0.6607 11.8494 -2.9171 0.9523
-2.7512 11.5446 -2.9171 0.9523
-6.6071 9.8586 -2.9171 0.9523
-7.4584 9.2314 -2.9171 0.9523
-8.2504 8.5309 -2.9171 0.9523
-8.9770 7.7627 -2.9171 0.9523
-10.7089 5.1152 -2.9171 0.9523
-11.7027 4.3582 -3.0695 0.9499
-12.0441 3.2993 -3.0695 0.9499
-12.2900 2.2142 -3.0695 0.9499
-11.6490 0.0000 -3.0695 0.9530
-11.2351 -3.0776 -3.0695 0.9530
-10.9166 -4.0654 -3.0695 0.9530
-10.0228 -5.9365 -3.0695 0.9530
-9.4546 -6.8050 -3.0695 0.9530
-8.8114 -7.6195 -3.0695 0.9530
-7.3208 -9.0611 -3.0695 0.9530
-6.4853 -9.6767 -3.0695 0.9530
3.4513 -11.1260 -3.0695 0.9530
4.4279 -10.7746 -3.0695 0.9530
7.9097 -8.5519 -3.0695 0.9530
9.8880 -6.1583 -3.0695 0.9530
10.8233 -4.3075 -3.0695 0.9530
11.5768 -1.2951 -3.0695 0.9530
11.6230 0.7781 -3.0695 0.9530
11.3009 2.8266 -3.0695 0.9530
9.6485 5.4281 -2.9171 0.9552
7.1475 8.4541 -2.9171 0.9552
6.3667 9.0567 -2.9171 0.9552
5.5353 9.5874 -2.9171 0.9552
2.8057 10.7092 -2.9171 0.9552
-1.1081 11.0150 -2.9171 0.9552
-3.9789 10.3309 -2.9171 0.9552
-3.5491 7.2222 -2.1204 0.9673
-6.5669 8.9126 -2.9171 0.9552
-9.2644 6.0605 -2.9171 0.9552
-9.7670 5.2119 -2.9171 0.9552
-11.0868 3.5751 -3.0695 0.9530
-11.6374 -0.5189 -3.0695 0.9530
-11.5450 -1.5527 -3.0695 0.9530
-11.3610 -2.5741 -3.0695 0.9530
-11.0868 -3.5750 -3.0695 0.9530
-10.7246 -4.5476 -3.0695 0.9530
-9.7484 -6.3771 -3.0695 0.9530
-9.1421 -7.2194 -3.0695 0.9530
-6.9099 -9.3782 -3.0695 0.9530
-5.1377 -10.4548 -3.0695 0.9530
-4.1867 -10.8706 -3.0695 0.9530
-2.1930 -11.4407 -3.0695 0.9530
-0.1298 -11.6483 -3.0695 0.9530
0.9075 -11.6136 -3.0695 0.9530
2.9523 -11.2687 -3.0695 0.9530
6.6993 -9.5298 -3.0695 0.9530
8.9790 -7.4213 -3.0695 0.9530
10.1526 -5.7117 -3.0695 0.9530
10.6207 -4.7854 -3.0695 0.9530
11.0044 -3.8212 -3.0695 0.9530
11.6230 -0.7780 -3.0695 0.9530
11.5768 1.2951 -3.0695 0.9530
10.8233 4.3076 -3.0695 0.9530
8.8389 6.6658 -2.9171 0.9552
8.2105 7.4260 -2.9171 0.9552
6.7638 8.7641 -2.9171 0.9552
4.2080 10.2397 -2.9171 0.9552
2.3258 10.8235 -2.9171 0.9552
1.3533 10.9876 -2.9171 0.9552
-2.5664 10.7690 -2.9171 0.9552
-3.5147 10.4979 -2.9171 0.9552
-4.4351 10.1434 -2.9171 0.9552
-5.3203 9.7084 -2.9171 0.9552
-6.9574 8.6112 -2.9171 0.9552
-7.6962 7.9578 -2.9171 0.9552
-8.3740 7.2413 -2.9171 0.9552
-8.9852 6.4672 -2.9171 0.9552
-10.0415 4.7964 -2.9323 0.9550
-10.9166 4.0654 -3.0695 0.9530
-11.2351 3.0776 -3.0695 0.9530
-11.4644 2.0654 -3.0695 0.9530
-11.6027 1.0368 -3.0695 0.9530
-10.9097 0.0000 -3.0695 0.9557
-10.8664 -0.9710 -3.0695 0.9557
-10.2238 -3.8073 -3.0695 0.9557
-8.8546 -6.3731 -3.0695 0.9557
-8.2522 -7.1359 -3.0695 0.9557
-7.5843 -7.8421 -3.0695 0.9557
-6.8562 -8.4861 -3.0695 0.9557
-6.0737 -9.0626 -3.0695 0.9557
-5.2430 -9.5672 -3.0695 0.9557
-4.3706 -9.9959 -3.0695 0.9557
-3.4636 -10.3453 -3.0695 0.9557
-2.5291 -10.6125 -3.0695 0.9557
-1.5745 -10.7954 -3.0695 0.9557
0.3645 -10.9036 -3.0695 0.9557
1.3336 -10.8279 -3.0695 0.9557
4.1469 -10.0908 -3.0695 0.9557
5.0285 -9.6817 -3.0695 0.9557
6.6655 -8.6367 -3.0695 0.9557
8.0912 -7.3180 -3.0695 0.9557
8.7104 -6.5688 -3.0695 0.9557
9.7371 -4.9204 -3.0695 0.9557
10.1364 -4.0342 -3.0695 0.9557
10.8421 -1.2128 -3.0695 0.9557
10.8853 0.7287 -3.0695 0.9557
10.7773 1.6946 -3.0695 0.9557
10.3060 3.5787 -3.0695 0.9557
9.0362 5.0837 -2.9171 0.9578
8.5478 5.8678 -2.9171 0.9578
7.3720 7.2904 -2.9171 0.9578
6.6939 7.9176 -2.9171 0.9578
5.9626 8.4820 -2.9171 0.9578
4.3643 9.4047 -2.9171 0.9578
3.5099 9.7559 -2.9171 0.9578
-0.1155 10.3674 -2.9171 0.9578
-1.0378 10.3160 -2.9171 0.9578
-1.9518 10.1826 -2.9171 0.9578
-2.8504 9.9685 -2.9171 0.9578
-9.1472 4.8811 -2.9171 0.9578
-10.0440 4.2590 -3.0695 0.9557
-10.8988 0.4860 -3.0695 0.9557
-10.8988 -0.4860 -3.0695 0.9557
-10.8123 -1.4541 -3.0695 0.9557
-8.5619 -6.7613 -3.0695 0.9557
-7.9261 -7.4965 -3.0695 0.9557
-7.2275 -8.1722 -3.0695 0.9557
-6.4714 -8.7831 -3.0695 0.9557
-5.6640 -9.3242 -3.0695 0.9557
-1.0920 -10.8549 -3.0695 0.9557
0.8499 -10.8765 -3.0695 0.9557
5.4548 -9.4481 -3.0695 0.9557
6.2741 -8.9251 -3.0695 0.9557
7.0436 -8.3312 -3.0695 0.9557
7.7572 -7.6712 -3.0695 0.9557
8.4092 -6.9504 -3.0695 0.9557
8.9944 -6.1743 -3.0695 0.9557
9.5082 -5.3492 -3.0695 0.9557
10.3060 -3.5786 -3.0695 0.9557
10.9070 0.2431 -3.0695 0.9557
10.8421 1.2129 -3.0695 0.9557
10.4552 3.1160 -3.0695 0.9557
10.1364 4.0342 -3.0695 0.9557
9.3860 4.7430 -2.9588 0.9572
8.8007 5.4812 -2.9171 0.9578
7.6895 6.9547 -2.9171 0.9578
5.5789 8.7391 -2.9171 0.9578
3.0718 9.9025 -2.9171 0.9578
1.2674 10.2903 -2.9171 0.9578
-0.5772 10.3520 -2.9171 0.9578
-1.4963 10.2595 -2.9171 0.9578
-3.2916 9.8316 -2.9171 0.9578
-5.7722 8.6127 -2.9171 0.9578
-6.5158 8.0647 -2.9171 0.9578
-7.2078 7.4528 -2.9171 0.9578
-7.8425 6.7817 -2.9171 0.9578
-8.9207 5.2837 -2.9171 0.9578
-10.2238 3.8074 -3.0695 0.9557
-10.5220 2.8823 -3.0695 0.9557
-10.2529 0.0000 -3.0695 0.9581
-10.0904 -1.8179 -3.0695 0.9581
-9.8886 -2.7088 -3.0695 0.9581
-9.6082 -3.5781 -3.0695 0.9581
-8.8216 -5.2250 -3.0695 0.9581
-8.3215 -5.9895 -3.0695 0.9581
-6.4435 -7.9752 -3.0695 0.9581
-5.7081 -8.5170 -3.0695 0.9581
-4.9273 -8.9913 -3.0695 0.9581
-4.1075 -9.3941 -3.0695 0.9581
-1.4797 -10.1455 -3.0695 0.9581
2.1540 -10.0240 -3.0695 0.9581
3.0377 -9.7925 -3.0695 0.9581
3.8972 -9.4833 -3.0695 0.9581
6.2642 -8.1167 -3.0695 0.9581
6.9618 -7.5270 -3.0695 0.9581
7.6041 -6.8775 -3.0695 0.9581
8.1860 -6.1734 -3.0695 0.9581
9.1509 -4.6241 -3.0695 0.9581
9.5261 -3.7913 -3.0695 0.9581
10.1893 -1.1398 -3.0695 0.9581
10.2300 0.6848 -3.0695 0.9581
10.1284 1.5926 -3.0695 0.9581
9.9465 2.4878 -3.0695 0.9581
9.6856 3.3632 -3.0695 0.9581
8.4921 4.7776 -2.9171 0.9601
7.5105 6.2076 -2.9171 0.9601
6.9282 6.8514 -2.9171 0.9601
6.2909 7.4409 -2.9171 0.9601
2.4694 9.4257 -2.9171 0.9601
1.6207 9.6081 -2.9171 0.9601
0.7591 9.7142 -2.9171 0.9601
-0.9753 9.6949 -2.9171 0.9601
-1.8343 9.5696 -2.9171 0.9601
-2.6788 9.3684 -2.9171 0.9601
-3.4808 7.0831 -2.3628 0.9676
-5.7798 7.8445 -2.9171 0.9601
-6.4551 7.2989 -2.9171 0.9601
-7.0791 6.6954 -2.9171 0.9601
-8.1541 5.3341 -2.9171 0.9601
-10.2427 0.4568 -3.0695 0.9581
-9.7581 -3.1466 -3.0695 0.9581
-9.4393 -4.0026 -3.0695 0.9581
-9.0456 -4.8269 -3.0695 0.9581
-8.0464 -6.3542 -3.0695 0.9581
-7.4490 -7.0452 -3.0695 0.9581
-6.7923 -7.6802 -3.0695 0.9581
-6.0818 -8.2543 -3.0695 0.9581
-5.3230 -8.7628 -3.0695 0.9581
-1.9302 -10.0696 -3.0695 0.9581
-1.0263 -10.2014 -3.0695 0.9581
0.7987 -10.2217 -3.0695 0.9581
2.5984 -9.9181 -3.0695 0.9581
4.3158 -9.3003 -3.0695 0.9581
5.8964 -8.3877 -3.0695 0.9581
7.2901 -7.2094 -3.0695 0.9581
8.9358 -5.0272 -3.0695 0.9581
9.3478 -4.2119 -3.0695 0.9581
9.6856 -3.3632 -3.0695 0.9581
9.9465 -2.4878 -3.0695 0.9581
10.1284 -1.5926 -3.0695 0.9581
10.1893 1.1399 -3.0695 0.9581
10.0474 2.0422 -3.0695 0.9581
9.8258 2.9284 -3.0695 0.9581
7.7796 5.8669 -2.9171 0.9601
6.6161 7.1533 -2.9171 0.9601
5.2430 8.2130 -2.9171 0.9601
4.4912 8.6471 -2.9171 0.9601
2.8869 9.3064 -2.9171 0.9601
1.1911 9.6708 -2.9171 0.9601
0.3256 9.7384 -2.9171 0.9601
-0.5425 9.7287 -2.9171 0.9601
-3.8373 7.0021 -2.3904 0.9672
-5.4247 8.0942 -2.9171 0.9601
-7.9084 5.6921 -2.9171 0.9601
-8.3836 4.9656 -2.9171 0.9601
-9.2516 4.4191 -3.0695 0.9581
-9.8886 2.7088 -3.0695 0.9581
-10.0904 1.8179 -3.0695 0.9581
-10.2122 0.9125 -3.0695 0.9581
-9.6652 0.0000 -3.0695 0.9602
-9.0575 -3.3730 -3.0695 0.9602
-8.7213 -4.1658 -3.0695 0.9602
-7.8445 -5.6461 -3.0695 0.9602
-7.3109 -6.3219 -3.0695 0.9602
-6.7191 -6.9476 -3.0695 0.9602
-6.0741 -7.5180 -3.0695 0.9602
-4.6449 -8.4758 -3.0695 0.9602
-3.8721 -8.8556 -3.0695 0.9602
-3.0685 -9.1651 -3.0695 0.9602
-2.2406 -9.4019 -3.0695 0.9602
-1.3949 -9.5640 -3.0695 0.9602
2.8636 -9.2312 -3.0695 0.9602
4.4549 -8.5772 -3.0695 0.9602
5.9051 -7.6515 -3.0695 0.9602
6.5627 -7.0955 -3.0695 0.9602
8.9801 -3.5740 -3.0695 0.9602
9.6628 -0.2153 -3.0695 0.9602
9.6436 0.6456 -3.0695 0.9602
9.5479 1.5014 -3.0695 0.9602
9.1304 3.1704 -3.0695 0.9602
7.5727 5.1984 -2.9171 0.9622
5.9303 7.0144 -2.9171 0.9622
5.2824 7.5144 -2.9171 0.9622
3.8664 8.3319 -2.9171 0.9622
0.7156 9.1574 -2.9171 0.9622
-0.1023 9.1847 -2.9171 0.9622
-0.9194 9.1392 -2.9171 0.9622
-1.7292 9.0211 -2.9171 0.9622
-2.5252 8.8313 -2.9171 0.9622
-5.4485 7.3948 -2.9171 0.9622
-7.6867 5.0284 -2.9171 0.9622
-8.5271 4.5502 -3.0695 0.9602
-8.8982 3.7732 -3.0695 0.9602
-9.1988 2.9662 -3.0695 0.9602
-9.6556 0.4305 -3.0695 0.9602
-9.6556 -0.4306 -3.0695 0.9602
-9.4263 -2.1357 -3.0695 0.9602
-9.1988 -2.9662 -3.0695 0.9602
-8.8982 -3.7732 -3.0695 0.9602
-8.5271 -4.5502 -3.0695 0.9602
-8.0883 -5.2911 -3.0695 0.9602
-7.0220 -6.6413 -3.0695 0.9602
-5.7332 -7.7811 -3.0695 0.9602
-5.0179 -8.2605 -3.0695 0.9602
-4.2627 -8.6744 -3.0695 0.9602
-3.4737 -9.0194 -3.0695 0.9602
-2.6572 -9.2927 -3.0695 0.9602
-1.8195 -9.4923 -3.0695 0.9602
-0.1077 -9.6646 -3.0695 0.9602
1.6076 -9.5305 -3.0695 0.9602
4.0684 -8.7671 -3.0695 0.9602
4.8326 -8.3703 -3.0695 0.9602
8.8120 -3.9705 -3.0695 0.9602
9.3763 -2.3452 -3.0695 0.9602
9.6053 1.0745 -3.0695 0.9602
8.6263 4.3591 -3.0695 0.9602
6.8123 6.1614 -2.9171 0.9622
6.2369 6.7432 -2.9171 0.9622
5.6119 7.2716 -2.9171 0.9622
4.2337 8.1514 -2.9171 0.9622
2.7214 8.7729 -2.9171 0.9622
0.3069 9.1802 -2.9171 0.9622
-0.5114 9.1711 -2.9171 0.9622
-1.3256 9.0891 -2.9171 0.9622
-2.9162 8.7101 -2.9171 0.9622
-3.8273 6.9839 -2.5292 0.9671
-5.1137 7.6302 -2.9171 0.9622
-9.3218 2.5535 -3.0695 0.9602
-9.6268 0.8603 -3.0695 0.9602
-9.1359 0.0000 -3.0695 0.9622
-9.0997 -0.8132 -3.0695 0.9622
-8.5615 -3.1883 -3.0695 0.9622
-8.2438 -3.9377 -3.0695 0.9622
-7.8606 -4.6558 -3.0695 0.9622
-7.4150 -5.3370 -3.0695 0.9622
-6.9105 -5.9758 -3.0695 0.9622
-6.3512 -6.5671 -3.0695 0.9622
-5.7415 -7.1063 -3.0695 0.9622
-5.0862 -7.5892 -3.0695 0.9622
-4.3906 -8.0118 -3.0695 0.9622
-2.9005 -8.6633 -3.0695 0.9622
0.3053 -9.1308 -3.0695 0.9622
1.9194 -8.9320 -3.0695 0.9622
2.7068 -8.7257 -3.0695 0.9622
4.2110 -8.1076 -3.0695 0.9622
4.9159 -7.7006 -3.0695 0.9622
5.5818 -7.2325 -3.0695 0.9622
6.2033 -6.7070 -3.0695 0.9622
7.2942 -5.5008 -3.0695 0.9622
7.7549 -4.8298 -3.0695 0.9622
8.7554 -2.6094 -3.0695 0.9622
8.9529 -1.8197 -3.0695 0.9622
9.0793 -1.0157 -3.0695 0.9622
9.0250 1.4191 -3.0695 0.9622
8.3294 3.7531 -3.0695 0.9622
7.1650 4.9183 -2.9198 0.9640
6.1734 6.1051 -2.9171 0.9640
4.9932 7.1029 -2.9171 0.9640
3.6547 7.8757 -2.9171 0.9640
1.4441 8.5614 -2.9171 0.9640
-0.0967 8.6818 -2.9171 0.9640
-1.6345 8.5271 -2.9171 0.9640
-5.7519 6.5037 -2.9171 0.9640
-8.0602 4.3010 -3.0695 0.9622
-8.6951 2.8038 -3.0695 0.9622
-8.9101 2.0188 -3.0695 0.9622
-9.1269 0.4070 -3.0695 0.9622
-9.1269 -0.4070 -3.0695 0.9622
-8.4110 -3.5665 -3.0695 0.9622
-6.6375 -6.2777 -3.0695 0.9622
-5.4193 -7.3551 -3.0695 0.9622
-3.2835 -8.5254 -3.0695 0.9622
-2.5117 -8.7839 -3.0695 0.9622
-1.7199 -8.9725 -3.0695 0.9622
0.7117 -9.1081 -3.0695 0.9622
1.5196 -9.0087 -3.0695 0.9622
3.0928 -8.5965 -3.0695 0.9622
3.8456 -8.2871 -3.0695 0.9622
4.5680 -7.9119 -3.0695 0.9622
5.2540 -7.4739 -3.0695 0.9622
5.8984 -6.9767 -3.0695 0.9622
8.6304 -2.9968 -3.0695 0.9622
9.0250 -1.4191 -3.0695 0.9622
9.1155 -0.6102 -3.0695 0.9622
9.0793 1.0157 -3.0695 0.9622
8.7554 2.6094 -3.0695 0.9622
8.1540 4.1204 -3.0695 0.9622
7.6071 4.7377 -3.0110 0.9629
6.9321 5.2278 -2.9171 0.9640
5.8954 6.3740 -2.9171 0.9640
5.3046 6.8734 -2.9171 0.9640
4.0019 7.7051 -2.9171 0.9640
3.3002 8.0306 -2.9171 0.9640
1.8241 8.4886 -2.9171 0.9640
1.0613 8.6172 -2.9171 0.9640
0.2901 8.6775 -2.9171 0.9640
-0.4834 8.6689 -2.9171 0.9640
-1.2530 8.5915 -2.9171 0.9640
-2.0127 8.4458 -2.9171 0.9640
-2.7565 8.2332 -2.9171 0.9640
-4.8337 7.2124 -2.9171 0.9640
-5.4564 6.7535 -2.9171 0.9640
-6.5674 5.6791 -2.9171 0.9640
-7.8606 4.6558 -3.0695 0.9622
-8.2438 3.9377 -3.0695 0.9622
-8.5615 3.1884 -3.0695 0.9622
-8.9912 1.6198 -3.0695 0.9622
-9.0997 0.8131 -3.0695 0.9622
-8.6566 0.0000 -3.0695 0.9639
-8.6222 -0.7705 -3.0695 0.9639
-8.3490 -2.2870 -3.0695 0.9639
-5.4403 -6.7335 -3.0695 0.9639
-3.4680 -7.9315 -3.0695 0.9639
-1.2493 -8.5659 -3.0695 0.9639
0.2893 -8.6518 -3.0695 0.9639
1.0582 -8.5916 -3.0695 0.9639
1.8187 -8.4634 -3.0695 0.9639
2.5647 -8.2679 -3.0695 0.9639
3.9900 -7.6822 -3.0695 0.9639
5.2889 -6.8530 -3.0695 0.9639
6.9115 -5.2122 -3.0695 0.9639
7.7262 -3.9042 -3.0695 0.9639
8.0430 -3.2010 -3.0695 0.9639
8.4831 -1.7243 -3.0695 0.9639
8.6544 -0.1929 -3.0695 0.9639
8.5515 1.3447 -3.0695 0.9639
8.1776 2.8396 -3.0695 0.9639
7.8924 3.5562 -3.0695 0.9639
6.9143 4.7464 -2.9738 0.9650
5.3114 6.2824 -2.9171 0.9657
4.7312 6.7302 -2.9171 0.9657
3.4629 7.4625 -2.9171 0.9657
2.0850 7.9582 -2.9171 0.9657
0.6409 8.2018 -2.9171 0.9657
-0.0916 8.2263 -2.9171 0.9657
-0.8235 8.1855 -2.9171 0.9657
-2.9568 7.6771 -2.9171 0.9657
-4.2711 7.0312 -2.9171 0.9657
-4.8800 6.6231 -2.9171 0.9657
-5.4501 6.1625 -2.9171 0.9657
-6.4564 5.0986 -2.9171 0.9657
-7.2442 4.7390 -3.0695 0.9639
-7.6373 4.0754 -3.0695 0.9639
-8.4426 1.9129 -3.0695 0.9639
-8.5794 -1.1538 -3.0695 0.9639
-8.4426 -1.9129 -3.0695 0.9639
-8.2388 -2.6567 -3.0695 0.9639
-7.9697 -3.3794 -3.0695 0.9639
-6.7937 -5.3649 -3.0695 0.9639
-6.2892 -5.9483 -3.0695 0.9639
-5.7348 -6.4845 -3.0695 0.9639
-4.4942 -7.3985 -3.0695 0.9639
-2.3799 -8.3230 -3.0695 0.9639
1.4398 -8.5360 -3.0695 0.9639
2.1939 -8.3739 -3.0695 0.9639
5.5889 -6.6106 -3.0695 0.9639
7.5446 -4.2445 -3.0695 0.9639
7.8924 -3.5562 -3.0695 0.9639
8.1776 -2.8396 -3.0695 0.9639
8.3979 -2.1004 -3.0695 0.9639
8.5515 -1.3447 -3.0695 0.9639
8.6373 -0.5782 -3.0695 0.9639
8.6544 0.1929 -3.0695 0.9639
8.6029 0.9624 -3.0695 0.9639
8.0430 3.2010 -3.0695 0.9639
7.7262 3.9042 -3.0695 0.9639
5.0263 6.5128 -2.9171 0.9657
4.4267 6.9343 -2.9171 0.9657
3.1271 7.6093 -2.9171 0.9657
2.4374 7.8574 -2.9171 0.9657
1.7284 8.0432 -2.9171 0.9657
0.2749 8.2222 -2.9171 0.9657
-0.4580 8.2140 -2.9171 0.9657
-1.1873 8.1407 -2.9171 0.9657
-2.6118 7.8012 -2.9171 0.9657
-3.2958 7.5378 -2.9171 0.9657
-4.5801 6.8340 -2.9171 0.9657
-6.2229 5.3811 -2.9171 0.9657
-6.6771 4.8059 -2.9171 0.9657
-7.8112 3.7311 -3.0695 0.9639
-8.5194 1.5348 -3.0695 0.9639
-8.1876 -0.7316 -3.0695 0.9655
-7.7034 -2.8688 -3.0695 0.9655
-7.0727 -4.1891 -3.0695 0.9655
-6.2178 -5.3768 -3.0695 0.9655
-5.7146 -5.9088 -3.0695 0.9655
-5.1660 -6.3940 -3.0695 0.9655
-3.2932 -7.5317 -3.0695 0.9655
-1.9056 -7.9962 -3.0695 0.9655
0.2747 -8.2156 -3.0695 0.9655
2.4354 -7.8511 -3.0695 0.9655
3.1246 -7.6032 -3.0695 0.9655
3.7889 -7.2949 -3.0695 0.9655
4.4231 -6.9288 -3.0695 0.9655
5.0223 -6.5075 -3.0695 0.9655
5.5815 -6.0347 -3.0695 0.9655
6.0965 -5.5140 -3.0695 0.9655
6.5631 -4.9494 -3.0695 0.9655
7.3367 -3.7074 -3.0695 0.9655
8.2018 0.5490 -3.0695 0.9655
8.1204 1.2769 -3.0695 0.9655
7.9745 1.9946 -3.0695 0.9655
6.7771 4.6522 -3.0695 0.9655
6.0215 4.9769 -2.9171 0.9672
5.5546 5.4931 -2.9171 0.9672
5.0437 5.9657 -2.9171 0.9672
1.9798 7.5570 -2.9171 0.9672
1.2994 7.7032 -2.9171 0.9672
0.6086 7.7883 -2.9171 0.9672
-0.0870 7.8116 -2.9171 0.9672
-0.7819 7.7729 -2.9171 0.9672
-2.1477 7.5110 -2.9171 0.9672
-2.8077 7.2901 -2.9171 0.9672
-3.4049 6.9287 -2.8828 0.9676
-4.6339 6.2893 -2.9171 0.9672
-6.1309 4.8415 -2.9171 0.9672
-6.8790 4.5001 -3.0695 0.9655
-7.2522 3.8699 -3.0695 0.9655
-7.5679 3.2091 -3.0695 0.9655
-8.0170 1.8164 -3.0695 0.9655
-8.2120 0.3662 -3.0695 0.9655
-8.2120 -0.3662 -3.0695 0.9655
-8.1468 -1.0956 -3.0695 0.9655
-8.0170 -1.8164 -3.0695 0.9655
-7.8235 -2.5227 -3.0695 0.9655
-7.2522 -3.8699 -3.0695 0.9655
-6.8790 -4.5000 -3.0695 0.9655
-6.4512 -5.0944 -3.0695 0.9655
-5.9722 -5.6484 -3.0695 0.9655
-5.4457 -6.1575 -3.0695 0.9655
-4.8760 -6.6178 -3.0695 0.9655
-3.6254 -7.3775 -3.0695 0.9655
-2.9544 -7.6709 -3.0695 0.9655
-2.2599 -7.9034 -3.0695 0.9655
0.6404 -8.1952 -3.0695 0.9655
2.0833 -7.9518 -3.0695 0.9655
4.1101 -7.1189 -3.0695 0.9655
5.8448 -5.7801 -3.0695 0.9655
6.3361 -5.2369 -3.0695 0.9655
6.7771 -4.6522 -3.0695 0.9655
7.4945 -3.3769 -3.0695 0.9655
7.7654 -2.6964 -3.0695 0.9655
7.9745 -1.9946 -3.0695 0.9655
8.1204 -1.2769 -3.0695 0.9655
8.1692 0.9139 -3.0695 0.9655
8.0555 1.6374 -3.0695 0.9655
7.6375 3.0397 -3.0695 0.9655
5.7938 5.2402 -2.9171 0.9672
4.7729 6.1845 -2.9171 0.9672
3.6008 6.9327 -2.9171 0.9672
2.9694 7.2257 -2.9171 0.9672
-1.1274 7.7303 -2.9171 0.9672
-1.8110 7.5993 -2.9171 0.9672
-2.4802 7.4079 -2.9171 0.9672
-3.7543 6.8508 -2.9171 0.9672
-4.3492 6.4895 -2.9171 0.9672
-5.4309 5.6155 -2.9171 0.9672
-7.0727 4.1892 -3.0695 0.9655
-8.0899 1.4575 -3.0695 0.9655
-8.1876 0.7317 -3.0695 0.9655
-7.8210 0.0000 -3.0695 0.9670
-7.7899 -0.6961 -3.0695 0.9670
-7.6971 -1.3867 -3.0695 0.9670
-7.3292 -2.7294 -3.0695 0.9670
-6.7292 -3.9857 -3.0695 0.9670
-4.9151 -6.0835 -3.0695 0.9670
-4.3542 -6.4968 -3.0695 0.9670
-3.1332 -7.1659 -3.0695 0.9670
-0.4354 -7.8088 -3.0695 0.9670
0.2613 -7.8166 -3.0695 0.9670
3.6049 -6.9406 -3.0695 0.9670
5.3105 -5.7416 -3.0695 0.9670
6.2444 -4.7091 -3.0695 0.9670
6.9804 -3.5273 -3.0695 0.9670
7.4952 -2.2338 -3.0695 0.9670
7.6643 -1.5578 -3.0695 0.9670
7.7725 -0.8695 -3.0695 0.9670
7.8190 -0.1742 -3.0695 0.9670
7.5873 1.8977 -3.0695 0.9670
6.4479 4.4263 -3.0695 0.9670
5.2849 5.2263 -2.9171 0.9686
4.7987 5.6760 -2.9171 0.9686
3.7163 6.4369 -2.9171 0.9686
2.5162 6.9938 -2.9171 0.9686
1.8837 7.1900 -2.9171 0.9686
1.2363 7.3291 -2.9171 0.9686
0.5790 7.4101 -2.9171 0.9686
-1.3992 7.2998 -2.9171 0.9686
-2.0434 7.1462 -2.9171 0.9686
-3.8588 6.3525 -2.9171 0.9686
-6.0403 4.7700 -3.0207 0.9675
-6.5450 4.2815 -3.0695 0.9670
-7.2004 3.0533 -3.0695 0.9670
-7.4436 2.4003 -3.0695 0.9670
-7.6276 1.7282 -3.0695 0.9670
-7.7512 1.0424 -3.0695 0.9670
-7.8132 0.3484 -3.0695 0.9670
-7.6277 -1.7282 -3.0695 0.9670
-7.4436 -2.4003 -3.0695 0.9670
-6.9001 -3.6820 -3.0695 0.9670
-6.5450 -4.2815 -3.0695 0.9670
-2.8109 -7.2984 -3.0695 0.9670
-2.1502 -7.5196 -3.0695 0.9670
-1.4724 -7.6811 -3.0695 0.9670
-0.7828 -7.7817 -3.0695 0.9670
0.6093 -7.7972 -3.0695 0.9670
1.3009 -7.7120 -3.0695 0.9670
2.6476 -7.3592 -3.0695 0.9670
3.2921 -7.0943 -3.0695 0.9670
5.0494 -5.9725 -3.0695 0.9670
5.5610 -5.4994 -3.0695 0.9670
6.0284 -4.9826 -3.0695 0.9670
7.3882 -2.5655 -3.0695 0.9670
7.5873 -1.8977 -3.0695 0.9670
7.7260 -1.2148 -3.0695 0.9670
7.8035 -0.5224 -3.0695 0.9670
7.6643 1.5579 -3.0695 0.9670
7.4952 2.2338 -3.0695 0.9670
7.2666 2.8921 -3.0695 0.9670
6.6387 4.1346 -3.0695 0.9670
5.0468 5.4566 -2.9171 0.9686
4.5411 5.8841 -2.9171 0.9686
2.8252 6.8748 -2.9171 0.9686
2.2021 7.0990 -2.9171 0.9686
0.2484 7.4285 -2.9171 0.9686
-1.7230 7.2302 -2.9171 0.9686
-2.9777 6.8102 -2.9171 0.9686
-4.1380 6.1743 -2.9171 0.9686
-7.0572 3.3710 -3.0695 0.9670
-7.3292 2.7295 -3.0695 0.9670
-7.5431 2.0663 -3.0695 0.9670
-7.7899 0.6961 -3.0695 0.9670
-7.4246 -0.6634 -3.0695 0.9683
-7.3361 -1.3216 -3.0695 0.9683
-6.7263 -3.2129 -3.0695 0.9683
-6.4136 -3.7988 -3.0695 0.9683
-6.0501 -4.3546 -3.0695 0.9683
-4.1500 -6.1921 -3.0695 0.9683
-2.3666 -7.0686 -3.0695 0.9683
-1.0758 -7.3762 -3.0695 0.9683
4.0110 -6.2831 -3.0695 0.9683
5.0615 -5.4724 -3.0695 0.9683
5.5284 -5.0002 -3.0695 0.9683
5.9515 -4.4883 -3.0695 0.9683
6.3274 -3.9407 -3.0695 0.9683
7.4080 -0.8287 -3.0695 0.9683
7.4524 -0.1661 -3.0695 0.9683
7.3637 1.1579 -3.0695 0.9683
6.7962 3.0622 -3.0695 0.9683
6.4967 3.6550 -3.0695 0.9683
2.9819 6.4260 -2.9171 0.9698
2.3982 6.6659 -2.9171 0.9698
1.1783 6.9854 -2.9171 0.9698
0.5519 7.0626 -2.9171 0.9698
-0.0789 7.0837 -2.9171 0.9698
-1.3336 6.9575 -2.9171 0.9698
-2.5461 6.6108 -2.9171 0.9698
-3.1244 6.3579 -2.9171 0.9698
-3.6779 6.0546 -2.9171 0.9698
-4.2022 5.7032 -2.9171 0.9698
-5.1468 4.8678 -2.9171 0.9698
-5.8501 4.6197 -3.0695 0.9683
-7.3877 0.9936 -3.0695 0.9683
-7.4468 0.3321 -3.0695 0.9683
-7.3877 -0.9936 -3.0695 0.9683
-7.2700 -1.6471 -3.0695 0.9683
-7.0945 -2.2877 -3.0695 0.9683
-6.8627 -2.9100 -3.0695 0.9683
-6.5765 -3.5093 -3.0695 0.9683
-5.8501 -4.6197 -3.0695 0.9683
-4.9383 -5.5838 -3.0695 0.9683
-4.4217 -6.0011 -3.0695 0.9683
-3.8700 -6.3709 -3.0695 0.9683
-2.0493 -7.1670 -3.0695 0.9683
-0.7461 -7.4168 -3.0695 0.9683
-0.0830 -7.4537 -3.0695 0.9683
0.5807 -7.4315 -3.0695 0.9683
1.8892 -7.2109 -3.0695 0.9683
4.2869 -6.0982 -3.0695 0.9683
5.3002 -5.2415 -3.0695 0.9683
5.7457 -4.7489 -3.0695 0.9683
6.1456 -4.2187 -3.0695 0.9683
6.7962 -3.0622 -3.0695 0.9683
7.4376 -0.4979 -3.0695 0.9683
7.4524 0.1661 -3.0695 0.9683
7.4080 0.8287 -3.0695 0.9683
7.3049 1.4848 -3.0695 0.9683
6.9259 2.7564 -3.0695 0.9683
6.6530 3.3619 -3.0695 0.9683
5.2687 4.7652 -2.9253 0.9697
4.8102 5.2007 -2.9171 0.9698
4.3282 5.6082 -2.9171 0.9698
2.6927 6.5524 -2.9171 0.9698
-1.0224 7.0100 -2.9171 0.9698
-2.2491 6.7176 -2.9171 0.9698
-3.4045 6.2124 -2.9171 0.9698
-3.9439 5.8848 -2.9171 0.9698
-4.4520 5.5104 -2.9171 0.9698
-4.9248 5.0922 -2.9171 0.9698
-6.0501 4.3546 -3.0695 0.9683
-6.4136 3.7988 -3.0695 0.9683
-6.7263 3.2129 -3.0695 0.9683
-7.3361 1.3217 -3.0695 0.9683
-7.4246 0.6635 -3.0695 0.9683
-7.1159 0.0000 -3.0695 0.9695
-7.0877 -0.6334 -3.0695 0.9695
-6.6685 -2.4834 -3.0695 0.9695
-5.7755 -4.1569 -3.0695 0.9695
-5.3826 -4.6545 -3.0695 0.9695
-4.9469 -5.1151 -3.0695 0.9695
-4.4720 -5.5351 -3.0695 0.9695
-2.8508 -6.5199 -3.0695 0.9695
-2.2592 -6.7478 -3.0695 0.9695
-1.0270 -7.0414 -3.0695 0.9695
0.2378 -7.1119 -3.0695 0.9695
1.4950 -6.9571 -3.0695 0.9695
2.7048 -6.5818 -3.0695 0.9695
3.2799 -6.3149 -3.0695 0.9695
3.8290 -5.9979 -3.0695 0.9695
4.3476 -5.6333 -3.0695 0.9695
6.6115 -2.6313 -3.0695 0.9695
6.8195 -2.0324 -3.0695 0.9695
7.0718 -0.7911 -3.0695 0.9695
7.1000 0.4753 -3.0695 0.9695
6.2018 3.4891 -3.0695 0.9695
4.3661 5.1643 -2.9171 0.9710
3.3813 5.8566 -2.9171 0.9710
2.2893 6.3633 -2.9171 0.9710
1.7139 6.5419 -2.9171 0.9710
1.1248 6.6684 -2.9171 0.9710
0.5268 6.7421 -2.9171 0.9710
-1.2731 6.6417 -2.9171 0.9710
-1.8592 6.5020 -2.9171 0.9710
-2.4305 6.3108 -2.9171 0.9710
-2.9826 6.0694 -2.9171 0.9710
-3.5109 5.7798 -2.9171 0.9710
-4.0114 5.4444 -2.9171 0.9710
-4.4801 5.0657 -2.9171 0.9710
-6.5513 2.7780 -3.0695 0.9695
-6.7725 2.1839 -3.0695 0.9695
-7.0524 0.9485 -3.0695 0.9695
-6.7725 -2.1838 -3.0695 0.9695
-6.5513 -2.7779 -3.0695 0.9695
-3.6944 -6.0818 -3.0695 0.9695
-2.5575 -6.6404 -3.0695 0.9695
-1.3396 -6.9887 -3.0695 0.9695
-0.7123 -7.0802 -3.0695 0.9695
0.5544 -7.0943 -3.0695 0.9695
1.1836 -7.0168 -3.0695 0.9695
1.8034 -6.8836 -3.0695 0.9695
2.9953 -6.4548 -3.0695 0.9695
3.5580 -6.1626 -3.0695 0.9695
4.0923 -5.8214 -3.0695 0.9695
4.5942 -5.4341 -3.0695 0.9695
5.0597 -5.0036 -3.0695 0.9695
5.4849 -4.5334 -3.0695 0.9695
6.4878 -2.9232 -3.0695 0.9695
6.9033 -1.7266 -3.0695 0.9695
7.0295 -1.1053 -3.0695 0.9695
7.1000 -0.4753 -3.0695 0.9695
7.1142 0.1586 -3.0695 0.9695
6.6115 2.6313 -3.0695 0.9695
6.0402 3.7619 -3.0695 0.9695
2.5705 6.2550 -2.9171 0.9710
0.2260 6.7588 -2.9171 0.9710
-2.1470 6.4128 -2.9171 0.9710
-3.7649 5.6177 -2.9171 0.9710
-5.3826 4.6545 -3.0695 0.9695
-5.7755 4.1570 -3.0695 0.9695
-6.4210 3.0671 -3.0695 0.9695
-6.6685 2.4834 -3.0695 0.9695
-6.8631 1.8800 -3.0695 0.9695
-7.0032 1.2617 -3.0695 0.9695
-7.0877 0.6334 -3.0695 0.9695
-6.7757 -0.6054 -3.0695 0.9706
-5.5213 -3.9740 -3.0695 0.9706
-5.1457 -4.4496 -3.0695 0.9706
-4.2752 -5.2915 -3.0695 0.9706
-3.7873 -5.6510 -3.0695 0.9706
-0.9818 -6.7315 -3.0695 0.9706
0.2273 -6.7989 -3.0695 0.9706
0.8316 -6.7517 -3.0695 0.9706
1.4292 -6.6509 -3.0695 0.9706
2.0155 -6.4973 -3.0695 0.9706
3.6604 -5.7339 -3.0695 0.9706
4.1563 -5.3854 -3.0695 0.9706
4.6191 -4.9941 -3.0695 0.9706
5.0453 -4.5632 -3.0695 0.9706
5.4314 -4.0960 -3.0695 0.9706
5.7744 -3.5963 -3.0695 0.9706
6.6664 -1.3550 -3.0695 0.9706
6.7606 -0.7562 -3.0695 0.9706
6.5994 1.6507 -3.0695 0.9706
6.4263 2.2315 -3.0695 0.9706
5.9289 3.3355 -3.0695 0.9706
5.6085 3.8500 -3.0695 0.9706
4.7923 4.7392 -3.0411 0.9709
4.1740 4.9370 -2.9171 0.9720
3.7180 5.2889 -2.9171 0.9720
2.7213 5.8643 -2.9171 0.9720
1.0753 6.3749 -2.9171 0.9720
0.5036 6.4453 -2.9171 0.9720
-0.6471 6.4325 -2.9171 0.9720
-1.2171 6.3494 -2.9171 0.9720
-2.3236 6.0330 -2.9171 0.9720
-3.3564 5.5255 -2.9171 0.9720
-3.8349 5.2048 -2.9171 0.9720
-4.2829 4.8428 -2.9171 0.9720
-4.9423 4.6745 -3.0695 0.9706
-5.6928 3.7241 -3.0695 0.9706
-6.0017 3.2026 -3.0695 0.9706
-6.2629 2.6557 -3.0695 0.9706
-6.4744 2.0878 -3.0695 0.9706
-6.7420 0.9067 -3.0695 0.9706
-6.7960 0.3030 -3.0695 0.9706
-6.7960 -0.3030 -3.0695 0.9706
-6.7420 -0.9067 -3.0695 0.9706
-6.4744 -2.0877 -3.0695 0.9706
-6.2629 -2.6557 -3.0695 0.9706
-5.6928 -3.7241 -3.0695 0.9706
-4.5067 -5.0958 -3.0695 0.9706
-3.5318 -5.8141 -3.0695 0.9706
-2.4450 -6.3482 -3.0695 0.9706
-1.8702 -6.5406 -3.0695 0.9706
-1.2807 -6.6811 -3.0695 0.9706
-0.0758 -6.8023 -3.0695 0.9706
2.3029 -6.4011 -3.0695 0.9706
3.4014 -5.8913 -3.0695 0.9706
3.9122 -5.5652 -3.0695 0.9706
4.3920 -5.1949 -3.0695 0.9706
5.9289 -3.3355 -3.0695 0.9706
6.2022 -2.7946 -3.0695 0.9706
6.5994 -1.6506 -3.0695 0.9706
6.7606 0.7563 -3.0695 0.9706
6.6664 1.3550 -3.0695 0.9706
6.3205 2.5155 -3.0695 0.9706
6.0716 3.0681 -3.0695 0.9706
5.7744 3.5963 -3.0695 0.9706
4.4066 4.7644 -2.9283 0.9719
3.4787 5.4493 -2.9171 0.9720
1.3582 6.3207 -2.9171 0.9720
0.7903 6.4165 -2.9171 0.9720
-0.9330 6.3973 -2.9171 0.9720
-2.5900 5.9235 -2.9171 0.9720
-3.1069 5.6695 -2.9171 0.9720
-3.5992 5.3704 -2.9171 0.9720
-4.0629 5.0288 -2.9171 0.9720
-5.1457 4.4496 -3.0695 0.9706
-5.5213 3.9740 -3.0695 0.9706
-5.8531 3.4668 -3.0695 0.9706
-6.3750 2.3741 -3.0695 0.9706
-6.5610 1.7973 -3.0695 0.9706
-6.6949 1.2062 -3.0695 0.9706
-6.7757 0.6055 -3.0695 0.9706
-6.5118 0.0000 -3.0695 0.9716
-6.4860 -0.5796 -3.0695 0.9716
-5.8759 -2.8067 -3.0695 0.9716
-5.6028 -3.3185 -3.0695 0.9716
-4.0924 -5.0652 -3.0695 0.9716
-3.1294 -5.7105 -3.0695 0.9716
-2.6088 -5.9664 -3.0695 0.9716
0.2176 -6.5081 -3.0695 0.9716
2.4752 -6.0230 -3.0695 0.9716
3.0014 -5.7788 -3.0695 0.9716
3.9785 -5.1551 -3.0695 0.9716
5.1991 -3.9208 -3.0695 0.9716
5.8119 -2.9369 -3.0695 0.9716
6.2405 -1.8599 -3.0695 0.9716
6.3813 -1.2971 -3.0695 0.9716
6.4714 -0.7239 -3.0695 0.9716
6.4328 1.0115 -3.0695 0.9716
6.1515 2.1361 -3.0695 0.9716
5.9370 2.6751 -3.0695 0.9716
4.6301 4.5788 -3.0695 0.9716
3.0942 5.3594 -2.9171 0.9730
2.6049 5.6135 -2.9171 0.9730
2.0950 5.8231 -2.9171 0.9730
1.5684 5.9864 -2.9171 0.9730
1.0293 6.1023 -2.9171 0.9730
-0.6194 6.1574 -2.9171 0.9730
-1.1650 6.0779 -2.9171 0.9730
-2.2242 5.7750 -2.9171 0.9730
-2.7294 5.5541 -2.9171 0.9730
-3.6709 4.9822 -2.9171 0.9730
-4.7310 4.4745 -3.0695 0.9716
-6.5053 0.2901 -3.0695 0.9716
-6.5053 -0.2901 -3.0695 0.9716
-6.1976 -1.9984 -3.0695 0.9716
-5.4494 -3.5648 -3.0695 0.9716
-5.1105 -4.0357 -3.0695 0.9716
-4.7310 -4.4745 -3.0695 0.9716
-4.3139 -4.8779 -3.0695 0.9716
-3.3807 -5.5654 -3.0695 0.9716
-2.8720 -5.8442 -3.0695 0.9716
-2.3404 -6.0767 -3.0695 0.9716
-1.7902 -6.2609 -3.0695 0.9716
-1.2259 -6.3954 -3.0695 0.9716
-0.6518 -6.4791 -3.0695 0.9716
-0.0725 -6.5114 -3.0695 0.9716
2.7410 -5.9068 -3.0695 0.9716
3.7449 -5.3272 -3.0695 0.9716
4.2042 -4.9727 -3.0695 0.9716
5.0193 -4.1485 -3.0695 0.9716
5.3686 -3.6853 -3.0695 0.9716
6.1515 -2.1360 -3.0695 0.9716
6.3172 -1.5800 -3.0695 0.9716
6.4973 -0.4349 -3.0695 0.9716
6.3813 1.2971 -3.0695 0.9716
6.2405 1.8599 -3.0695 0.9716
5.5274 3.4425 -3.0695 0.9716
5.1991 3.9208 -3.0695 0.9716
4.3838 4.7398 -3.0434 0.9719
3.3299 5.2162 -2.9171 0.9730
2.3523 5.7240 -2.9171 0.9730
1.8335 5.9107 -2.9171 0.9730
1.3001 6.0504 -2.9171 0.9730
0.7565 6.1421 -2.9171 0.9730
0.2068 6.1850 -2.9171 0.9730
-0.3445 6.1789 -2.9171 0.9730
-0.8931 6.1237 -2.9171 0.9730
-1.9647 5.8684 -2.9171 0.9730
-2.4792 5.6702 -2.9171 0.9730
-2.9741 5.4270 -2.9171 0.9730
-4.5269 4.6808 -3.0695 0.9716
-5.8759 2.8067 -3.0695 0.9716
-6.2804 1.7204 -3.0695 0.9716
-6.4860 0.5796 -3.0695 0.9716
-6.2407 0.0000 -3.0695 0.9726
-6.2159 -0.5554 -3.0695 0.9726
-6.1418 -1.1065 -3.0695 0.9726
-5.8483 -2.1779 -3.0695 0.9726
-5.6313 -2.6898 -3.0695 0.9726
-5.0651 -3.6456 -3.0695 0.9726
-4.3385 -4.4860 -3.0695 0.9726
-2.9992 -5.4727 -3.0695 0.9726
-2.5001 -5.7180 -3.0695 0.9726
-1.9813 -5.9178 -3.0695 0.9726
-1.4467 -6.0707 -3.0695 0.9726
0.7628 -6.1939 -3.0695 0.9726
2.3721 -5.7722 -3.0695 0.9726
3.8129 -4.9405 -3.0695 0.9726
4.2375 -4.5815 -3.0695 0.9726
4.9826 -3.7576 -3.0695 0.9726
6.1156 -1.2430 -3.0695 0.9726
6.2020 -0.6938 -3.0695 0.9726
6.0542 1.5143 -3.0695 0.9726
5.6898 2.5637 -3.0695 0.9726
5.1451 3.5319 -3.0695 0.9726
4.8103 3.9758 -3.0695 0.9726
4.4373 4.3882 -3.0695 0.9726
2.9654 5.1363 -2.9171 0.9739
2.4965 5.3798 -2.9171 0.9739
0.9865 5.8482 -2.9171 0.9739
0.4620 5.9128 -2.9171 0.9739
-1.6305 5.7023 -2.9171 0.9739
-3.0791 5.0689 -2.9171 0.9739
-3.5275 4.7875 -2.9249 0.9738
-4.1343 4.6748 -3.0695 0.9726
-4.5340 4.2882 -3.0695 0.9726
-4.8977 3.8677 -3.0695 0.9726
-5.7455 2.4363 -3.0695 0.9726
-5.9395 1.9153 -3.0695 0.9726
-6.1850 0.8318 -3.0695 0.9726
-6.1850 -0.8318 -3.0695 0.9726
-5.9395 -1.9153 -3.0695 0.9726
-5.5058 -2.9380 -3.0695 0.9726
-4.8977 -3.8677 -3.0695 0.9726
-4.5340 -4.2882 -3.0695 0.9726
-3.2400 -5.3337 -3.0695 0.9726
-1.7157 -6.0002 -3.0695 0.9726
0.4862 -6.2217 -3.0695 0.9726
1.5816 -6.0370 -3.0695 0.9726
3.1203 -5.4046 -3.0695 0.9726
4.0292 -4.7657 -3.0695 0.9726
4.8103 -3.9758 -3.0695 0.9726
5.1451 -3.5319 -3.0695 0.9726
5.4390 -3.0599 -3.0695 0.9726
6.0542 -1.5143 -3.0695 0.9726
6.2391 0.1390 -3.0695 0.9726
6.2020 0.6938 -3.0695 0.9726
6.1156 1.2431 -3.0695 0.9726
5.7983 2.3077 -3.0695 0.9726
5.5699 2.8146 -3.0695 0.9726
4.9826 3.7576 -3.0695 0.9726
4.6284 4.1862 -3.0695 0.9726
3.6719 4.7578 -2.9560 0.9736
3.1913 4.9991 -2.9171 0.9739
2.7337 5.2633 -2.9171 0.9739
1.7572 5.6646 -2.9171 0.9739
-0.3302 5.9216 -2.9171 0.9739
-0.8559 5.8688 -2.9171 0.9739
-1.3749 5.7693 -2.9171 0.9739
-2.8503 5.2011 -2.9171 0.9739
-3.3019 4.9267 -2.9171 0.9739
-4.7205 4.0820 -3.0695 0.9726
-5.0651 3.6457 -3.0695 0.9726
-5.3695 3.1804 -3.0695 0.9726
-6.0189 1.6488 -3.0695 0.9726
-6.1418 1.1065 -3.0695 0.9726
-5.9873 0.0000 -3.0695 0.9734
-5.8924 -1.0616 -3.0695 0.9734
-5.7746 -1.5818 -3.0695 0.9734
-5.4026 -2.5806 -3.0695 0.9734
-5.1515 -3.0512 -3.0695 0.9734
-4.5289 -3.9163 -3.0695 0.9734
-4.1623 -4.3038 -3.0695 0.9734
-3.7627 -4.6572 -3.0695 0.9734
-2.3986 -5.4858 -3.0695 0.9734
-1.9009 -5.6775 -3.0695 0.9734
-0.8641 -5.9246 -3.0695 0.9734
-0.3333 -5.9780 -3.0695 0.9734
0.7319 -5.9424 -3.0695 0.9734
1.7739 -5.7185 -3.0695 0.9734
2.2758 -5.5379 -3.0695 0.9734
3.2217 -5.0466 -3.0695 0.9734
4.0654 -4.3955 -3.0695 0.9734
4.4405 -4.0162 -3.0695 0.9734
4.7803 -3.6050 -3.0695 0.9734
5.0822 -3.1652 -3.0695 0.9734
5.5629 -2.2140 -3.0695 0.9734
5.7379 -1.7100 -3.0695 0.9734
5.9502 -0.6656 -3.0695 0.9734
5.9858 -0.1334 -3.0695 0.9734
5.9739 0.3999 -3.0695 0.9734
5.9146 0.9300 -3.0695 0.9734
5.4588 2.4596 -3.0695 0.9734
5.2182 2.9357 -3.0695 0.9734
4.9362 3.3885 -3.0695 0.9734
4.6150 3.8144 -3.0695 0.9734
4.2572 4.2100 -3.0695 0.9734
3.8656 4.5722 -3.0695 0.9734
2.8450 4.9277 -2.9171 0.9747
1.9262 5.3541 -2.9171 0.9747
1.4421 5.5043 -2.9171 0.9747
0.4433 5.6727 -2.9171 0.9747
-1.0712 5.5883 -2.9171 0.9747
-3.9665 4.4850 -3.0695 0.9734
-4.3499 4.1141 -3.0695 0.9734
-5.0104 3.2777 -3.0695 0.9734
-5.2823 2.8187 -3.0695 0.9734
-5.6984 1.8375 -3.0695 0.9734
-5.8393 1.3230 -3.0695 0.9734
-5.9339 0.7980 -3.0695 0.9734
-5.9814 0.2667 -3.0695 0.9734
-5.6984 -1.8375 -3.0695 0.9734
-5.5122 -2.3374 -3.0695 0.9734
-3.9665 -4.4849 -3.0695 0.9734
-3.5515 -4.8202 -3.0695 0.9734
-2.6406 -5.3735 -3.0695 0.9734
-2.1519 -5.5872 -3.0695 0.9734
-1.6460 -5.7566 -3.0695 0.9734
-1.1272 -5.8802 -3.0695 0.9734
-0.5993 -5.9572 -3.0695 0.9734
-0.0667 -5.9869 -3.0695 0.9734
0.4664 -5.9691 -3.0695 0.9734
0.9959 -5.9039 -3.0695 0.9734
2.0269 -5.6338 -3.0695 0.9734
2.9936 -5.1851 -3.0695 0.9734
3.4433 -4.8981 -3.0695 0.9734
3.8656 -4.5722 -3.0695 0.9734
4.2572 -4.2100 -3.0695 0.9734
5.4588 -2.4596 -3.0695 0.9734
5.8084 -1.4528 -3.0695 0.9734
5.9146 -0.9300 -3.0695 0.9734
5.9739 -0.3999 -3.0695 0.9734
5.8673 1.1926 -3.0695 0.9734
5.7379 1.7101 -3.0695 0.9734
5.5629 2.2140 -3.0695 0.9734
5.0822 3.1653 -3.0695 0.9734
3.6559 4.7371 -3.0677 0.9735
3.0617 4.7961 -2.9171 0.9747
2.1628 5.2629 -2.9171 0.9747
-1.8065 5.3957 -2.9171 0.9747
-4.1623 4.3038 -3.0695 0.9734
-4.5289 3.9163 -3.0695 0.9734
-4.8595 3.4976 -3.0695 0.9734
-5.1515 3.0512 -3.0695 0.9734
-5.4026 2.5806 -3.0695 0.9734
-5.6109 2.0895 -3.0695 0.9734
-5.7746 1.5818 -3.0695 0.9734
-5.8924 1.0616 -3.0695 0.9734
-5.7270 -0.5118 -3.0695 0.9743
-5.6587 -1.0195 -3.0695 0.9743
-5.5455 -1.5191 -3.0695 0.9743
-5.3883 -2.0066 -3.0695 0.9743
-5.1883 -2.4782 -3.0695 0.9743
-4.6667 -3.3589 -3.0695 0.9743
-4.3492 -3.7609 -3.0695 0.9743
-2.3035 -5.2682 -3.0695 0.9743
-1.8255 -5.4524 -3.0695 0.9743
-0.8298 -5.6896 -3.0695 0.9743
-0.3201 -5.7409 -3.0695 0.9743
0.1921 -5.7466 -3.0695 0.9743
1.7035 -5.4916 -3.0695 0.9743
2.1856 -5.3183 -3.0695 0.9743
2.6502 -5.1026 -3.0695 0.9743
3.9042 -4.2211 -3.0695 0.9743
4.2644 -3.8569 -3.0695 0.9743
4.5907 -3.4620 -3.0695 0.9743
4.8806 -3.0397 -3.0695 0.9743
5.3423 -2.1262 -3.0695 0.9743
5.7484 -0.1281 -3.0695 0.9743
5.7370 0.3840 -3.0695 0.9743
5.6800 0.8932 -3.0695 0.9743
5.4317 1.8861 -3.0695 0.9743
5.2423 2.3621 -3.0695 0.9743
5.0112 2.8193 -3.0695 0.9743
4.0883 4.0430 -3.0695 0.9743
3.7122 4.3909 -3.0695 0.9743
3.3067 4.7038 -3.0695 0.9743
2.3001 4.9567 -2.9171 0.9755
1.3849 5.2860 -2.9171 0.9755
0.9089 5.3883 -2.9171 0.9755
-0.0609 5.4640 -2.9171 0.9755
-1.0287 5.3667 -2.9171 0.9755
-1.9639 5.0993 -2.9171 0.9755
-2.8974 4.7698 -2.9793 0.9750
-3.4107 4.6290 -3.0695 0.9743
-4.5125 3.5635 -3.0695 0.9743
-5.4724 1.7646 -3.0695 0.9743
-5.6077 1.2705 -3.0695 0.9743
-5.6985 0.7664 -3.0695 0.9743
-5.7441 0.2561 -3.0695 0.9743
-5.7441 -0.2561 -3.0695 0.9743
-5.6985 -0.7663 -3.0695 0.9743
-5.6077 -1.2705 -3.0695 0.9743
-5.4724 -1.7646 -3.0695 0.9743
-5.2936 -2.2447 -3.0695 0.9743
-4.8117 -3.1477 -3.0695 0.9743
-4.5125 -3.5634 -3.0695 0.9743
-4.1774 -3.9509 -3.0695 0.9743
-3.8092 -4.3071 -3.0695 0.9743
-2.9851 -4.9142 -3.0695 0.9743
-2.0665 -5.3656 -3.0695 0.9743
-0.5755 -5.7209 -3.0695 0.9743
2.4203 -5.2156 -3.0695 0.9743
3.3067 -4.7038 -3.0695 0.9743
3.7122 -4.3909 -3.0695 0.9743
4.0883 -4.0430 -3.0695 0.9743
4.4320 -3.6631 -3.0695 0.9743
5.5780 -1.3952 -3.0695 0.9743
5.6800 -0.8931 -3.0695 0.9743
5.7142 0.6392 -3.0695 0.9743
5.6346 1.1453 -3.0695 0.9743
5.5103 1.6423 -3.0695 0.9743
4.8807 3.0397 -3.0695 0.9743
3.9042 4.2212 -3.0695 0.9743
2.5187 4.8493 -2.9171 0.9755
1.1480 5.3424 -2.9171 0.9755
0.6680 5.4234 -2.9171 0.9755
-0.7886 5.4071 -2.9171 0.9755
-1.2667 5.3155 -2.9171 0.9755
-2.1891 5.0067 -2.9171 0.9755
-3.1876 4.7562 -3.0566 0.9744
-3.6135 4.4725 -3.0695 0.9743
-4.3492 3.7610 -3.0695 0.9743
-4.9472 2.9302 -3.0695 0.9743
-5.1883 2.4782 -3.0695 0.9743
-5.5455 1.5191 -3.0695 0.9743
-5.6587 1.0195 -3.0695 0.9743
-5.7270 0.5118 -3.0695 0.9743
-5.5267 0.0000 -3.0695 0.9750
-5.1792 -1.9287 -3.0695 0.9750
-4.9870 -2.3821 -3.0695 0.9750
-4.7552 -2.8165 -3.0695 0.9750
-4.4856 -3.2286 -3.0695 0.9750
-4.1805 -3.6150 -3.0695 0.9750
-3.8421 -3.9727 -3.0695 0.9750
-1.7546 -5.2407 -3.0695 0.9750
-0.7976 -5.4688 -3.0695 0.9750
2.1007 -5.1119 -3.0695 0.9750
3.3766 -4.3752 -3.0695 0.9750
4.4126 -3.3277 -3.0695 0.9750
4.9327 -2.4926 -3.0695 0.9750
5.1350 -2.0437 -3.0695 0.9750
5.2965 -1.5785 -3.0695 0.9750
5.4160 -1.1008 -3.0695 0.9750
5.5253 -0.1231 -3.0695 0.9750
5.4596 0.8585 -3.0695 0.9750
5.3615 1.3410 -3.0695 0.9750
5.2209 1.8129 -3.0695 0.9750
5.0388 2.2704 -3.0695 0.9750
4.8168 2.7099 -3.0695 0.9750
4.5564 3.1279 -3.0695 0.9750
4.2600 3.5210 -3.0695 0.9750
3.9297 3.8862 -3.0695 0.9750
3.5682 4.2205 -3.0695 0.9750
3.1784 4.5213 -3.0695 0.9750
2.2157 4.7747 -2.9234 0.9762
1.7780 4.9422 -2.9171 0.9763
0.4092 5.2364 -2.9171 0.9763
-0.0585 5.2520 -2.9171 0.9763
-1.4440 5.0499 -2.9171 0.9763
-2.8693 4.7235 -3.0695 0.9750
-4.0153 3.7977 -3.0695 0.9750
-4.3374 3.4252 -3.0695 0.9750
-4.8759 2.6019 -3.0695 0.9750
-5.0882 2.1576 -3.0695 0.9750
-5.3901 1.2212 -3.0695 0.9750
-5.4774 0.7367 -3.0695 0.9750
-5.5212 0.2462 -3.0695 0.9750
-5.3901 -1.2212 -3.0695 0.9750
-4.8759 -2.6018 -3.0695 0.9750
-4.6250 -3.0255 -3.0695 0.9750
-3.6613 -4.1399 -3.0695 0.9750
-3.2783 -4.4494 -3.0695 0.9750
-2.8693 -4.7235 -3.0695 0.9750
-1.9863 -5.1574 -3.0695 0.9750
-1.5194 -5.3137 -3.0695 0.9750
-1.0404 -5.4279 -3.0695 0.9750
-0.5532 -5.4989 -3.0695 0.9750
-0.0616 -5.5263 -3.0695 0.9750
0.9193 -5.4497 -3.0695 0.9750
1.4007 -5.3463 -3.0695 0.9750
1.8710 -5.2004 -3.0695 0.9750
3.1784 -4.5213 -3.0695 0.9750
3.5682 -4.2205 -3.0695 0.9750
3.9297 -3.8861 -3.0695 0.9750
4.2600 -3.5209 -3.0695 0.9750
4.8167 -2.7099 -3.0695 0.9750
5.2209 -1.8129 -3.0695 0.9750
5.3615 -1.3410 -3.0695 0.9750
5.4596 -0.8585 -3.0695 0.9750
5.5144 -0.3691 -3.0695 0.9750
5.5253 0.1231 -3.0695 0.9750
5.4924 0.6144 -3.0695 0.9750
4.6913 2.9218 -3.0695 0.9750
4.4126 3.3277 -3.0695 0.9750
4.0989 3.7072 -3.0695 0.9750
3.7527 4.0573 -3.0695 0.9750
2.9738 4.6584 -3.0695 0.9750
2.4707 4.7569 -2.9770 0.9758
1.5561 5.0165 -2.9171 0.9763
0.1755 5.2494 -2.9171 0.9763
-0.2924 5.2442 -2.9171 0.9763
-0.7580 5.1973 -2.9171 0.9763
-2.1042 4.8124 -2.9171 0.9763
-3.4733 4.2989 -3.0695 0.9750
-3.8421 3.9727 -3.0695 0.9750
-4.9870 2.3821 -3.0695 0.9750
-5.1792 1.9288 -3.0695 0.9750
-5.3303 1.4602 -3.0695 0.9750
-5.4391 0.9799 -3.0695 0.9750
-5.5048 0.4919 -3.0695 0.9750
-5.3165 0.0000 -3.0695 0.9757
-5.2323 -0.9426 -3.0695 0.9757
-4.7974 -2.2915 -3.0695 0.9757
-4.3151 -3.1058 -3.0695 0.9757
-3.6960 -3.8216 -3.0695 0.9757
-3.3412 -4.1354 -3.0695 0.9757
-2.1299 -4.8712 -3.0695 0.9757
-0.7673 -5.2609 -3.0695 0.9757
-0.2960 -5.3083 -3.0695 0.9757
0.1777 -5.3136 -3.0695 0.9757
1.1170 -5.1979 -3.0695 0.9757
2.0209 -4.9175 -3.0695 0.9757
2.8607 -4.4812 -3.0695 0.9757
3.6100 -3.9030 -3.0695 0.9757
4.2448 -3.2012 -3.0695 0.9757
4.5129 -2.8106 -3.0695 0.9757
4.7451 -2.3978 -3.0695 0.9757
5.0951 -1.5185 -3.0695 0.9757
5.2100 -1.0590 -3.0695 0.9757
5.3047 0.3551 -3.0695 0.9757
5.1577 1.2900 -3.0695 0.9757
5.0224 1.7440 -3.0695 0.9757
4.8472 2.1841 -3.0695 0.9757
4.3832 3.0089 -3.0695 0.9757
4.0980 3.3871 -3.0695 0.9757
3.7802 3.7384 -3.0695 0.9757
2.6583 4.6043 -3.0695 0.9757
2.2038 4.7491 -3.0227 0.9761
1.2805 4.8876 -2.9171 0.9769
-0.5057 5.0272 -2.9171 0.9769
-0.9512 4.9622 -2.9171 0.9769
-1.3891 4.8579 -2.9171 0.9769
-1.8380 4.7722 -2.9525 0.9767
-2.3361 4.7538 -3.0581 0.9758
-2.7602 4.5439 -3.0695 0.9757
-3.1537 4.2802 -3.0695 0.9757
-4.4491 2.9105 -3.0695 0.9757
-5.0600 1.6317 -3.0695 0.9757
-5.1851 1.1748 -3.0695 0.9757
-5.2691 0.7086 -3.0695 0.9757
-5.3113 -0.2368 -3.0695 0.9757
-5.2691 -0.7086 -3.0695 0.9757
-5.1851 -1.1748 -3.0695 0.9757
-5.0600 -1.6316 -3.0695 0.9757
-4.8947 -2.0755 -3.0695 0.9757
-4.6905 -2.5029 -3.0695 0.9757
-4.1724 -3.2949 -3.0695 0.9757
-3.5221 -3.9825 -3.0695 0.9757
-2.3448 -4.7715 -3.0695 0.9757
-1.4616 -5.1116 -3.0695 0.9757
-1.0009 -5.2215 -3.0695 0.9757
-0.5322 -5.2898 -3.0695 0.9757
-0.0592 -5.3162 -3.0695 0.9757
0.4142 -5.3004 -3.0695 0.9757
0.8843 -5.2425 -3.0695 0.9757
1.3474 -5.1429 -3.0695 0.9757
2.2379 -4.8226 -3.0695 0.9757
3.0575 -4.3494 -3.0695 0.9757
4.0980 -3.3871 -3.0695 0.9757
4.3832 -3.0089 -3.0695 0.9757
4.6336 -2.6068 -3.0695 0.9757
5.0224 -1.7439 -3.0695 0.9757
5.2520 -0.8258 -3.0695 0.9757
5.3047 -0.3551 -3.0695 0.9757
5.3152 0.1185 -3.0695 0.9757
5.2836 0.5911 -3.0695 0.9757
5.2100 1.0590 -3.0695 0.9757
5.0951 1.5185 -3.0695 0.9757
4.7451 2.3978 -3.0695 0.9757
4.2448 3.2012 -3.0695 0.9757
2.8607 4.4813 -3.0695 0.9757
2.4505 4.7181 -3.0695 0.9757
1.4970 4.8257 -2.9171 0.9769
0.6176 5.0147 -2.9171 0.9769
0.1688 5.0498 -2.9171 0.9769
-1.1713 4.9149 -2.9171 0.9769
-1.6041 4.7912 -2.9171 0.9769
-3.3412 4.1355 -3.0695 0.9757
-4.0215 3.4775 -3.0695 0.9757
-4.7974 2.2915 -3.0695 0.9757
-5.2323 0.9427 -3.0695 0.9757
