ply
format ascii 1.0
element vertex 1650
property float32 x
property float32 y
property float32 z
property float32 I
end_header
-6.4090 7.2467 5.3730 0.9567
-6.4579 7.3020 5.2039 0.9568
-6.4544 7.2982 4.7921 0.9575
-6.4528 7.2962 4.5913 0.9578
-6.4495 7.2926 4.1994 0.9585
-6.4387 7.2804 2.9097 0.9602
-6.4373 7.2787 2.7339 0.9604
-6.4358 7.2771 2.5598 0.9606
-6.4344 7.2755 2.3873 0.9608
-6.4315 7.2723 2.0467 0.9611
6.9223 -6.2609 1.8062 0.9627
6.3072 -6.8193 1.6379 0.9630
6.4000 -6.3291 1.5871 0.9641
6.4860 -5.8662 1.3926 0.9652
-6.4273 7.2675 1.5449 0.9615
6.2349 -6.1658 1.3963 0.9651
6.8375 -5.6514 1.4125 0.9647
5.9522 -7.0403 1.3113 0.9634
6.1323 -6.0643 1.2267 0.9658
6.7201 -5.5543 1.2401 0.9654
6.2955 -5.6940 1.0638 0.9664
7.0472 -5.3145 1.1061 0.9650
-6.4246 7.2644 1.2153 0.9617
5.7953 -6.8547 1.1249 0.9645
6.0466 -5.9797 1.0657 0.9663
7.8517 -5.3899 1.1935 0.9623
5.8070 -6.2785 0.9276 0.9662
6.2350 -5.6392 0.9119 0.9667
6.9629 -5.2510 0.9459 0.9655
-6.4232 7.2629 1.0517 0.9617
5.9889 -5.9226 0.9136 0.9667
6.4825 -5.3579 0.7710 0.9668
7.4475 -5.1124 0.8282 0.9644
6.8317 -5.1520 0.6412 0.9663
5.5903 -6.6122 0.6489 0.9659
6.4458 -5.3276 0.6267 0.9670
7.3686 -5.0583 0.6698 0.9648
6.7881 -5.1191 0.4952 0.9665
5.5501 -6.5647 0.5007 0.9661
5.8720 -5.8070 0.4810 0.9675
7.3092 -5.0175 0.5164 0.9651
5.4989 -7.1252 0.3742 0.9646
5.6578 -6.1172 0.3465 0.9672
6.7538 -5.0933 0.3517 0.9667
5.5200 -6.5291 0.3555 0.9664
5.6481 -6.1066 0.2074 0.9673
6.0792 -5.4983 0.2044 0.9677
6.7401 -5.0829 0.2105 0.9668
8.1874 -5.0992 0.2405 0.9621
5.8401 -5.7754 0.2048 0.9677
7.2399 -4.9699 0.2190 0.9655
5.4653 -7.0816 0.0743 0.9649
6.7265 -5.0727 0.0700 0.9669
5.4987 -6.5039 0.0708 0.9665
6.3607 -5.2573 0.0686 0.9675
5.4661 -7.0827 -0.0744 0.9648
5.6389 -6.0967 -0.0690 0.9673
6.0698 -5.4898 -0.0680 0.9678
8.1381 -5.0685 -0.0797 0.9624
-6.4138 7.2522 -0.0805 0.9620
5.4992 -6.5045 -0.0708 0.9665
5.8310 -5.7664 -0.0682 0.9677
6.3614 -5.2578 -0.0686 0.9675
6.0798 -5.4989 -0.2044 0.9677
6.7409 -5.0836 -0.2106 0.9668
8.1901 -5.1008 -0.2406 0.9621
-6.4125 7.2507 -0.2414 0.9620
5.5100 -6.5172 -0.2128 0.9664
7.2409 -4.9706 -0.2190 0.9655
5.6585 -6.1179 -0.3465 0.9672
6.0899 -5.5080 -0.3414 0.9677
6.7546 -5.0939 -0.3518 0.9667
8.4572 -5.2672 -0.4143 0.9609
-6.4111 7.2491 -0.4024 0.9620
5.5208 -6.5300 -0.3555 0.9663
5.8503 -5.7855 -0.3421 0.9676
6.3839 -5.2765 -0.3444 0.9674
7.2594 -4.9833 -0.3661 0.9654
5.6832 -6.1446 -0.4875 0.9670
6.1145 -5.5302 -0.4802 0.9675
-6.4098 7.2477 -0.5635 0.9620
5.5524 -6.5674 -0.5009 0.9661
5.8738 -5.8087 -0.4811 0.9674
7.3125 -5.0198 -0.5166 0.9651
5.6058 -7.2637 -0.6876 0.9639
5.7143 -6.1782 -0.6307 0.9668
5.5926 -6.6150 -0.6491 0.9659
5.9042 -5.8388 -0.6223 0.9672
6.4480 -5.3294 -0.6269 0.9670
6.1791 -5.5887 -0.7638 0.9671
6.8855 -5.1926 -0.7906 0.9660
-6.4071 7.2446 -0.8866 0.9619
5.6420 -6.6734 -0.8012 0.9655
5.9357 -5.8699 -0.7653 0.9670
7.4558 -5.1181 -0.8291 0.9643
5.9676 -7.7325 -1.0594 0.9615
5.8108 -6.2825 -0.9282 0.9662
6.2384 -5.6423 -0.9124 0.9667
5.9922 -5.9258 -0.9141 0.9667
6.5531 -5.4163 -0.9222 0.9664
5.8761 -6.3532 -1.0845 0.9657
6.2991 -5.6972 -1.0644 0.9663
6.0501 -5.9830 -1.0663 0.9663
7.2056 -5.4340 -1.2837 0.9642
-6.4030 7.2400 -1.3747 0.9617
5.9619 -7.0517 -1.3134 0.9634
6.1380 -6.0700 -1.2278 0.9657
6.7266 -5.5596 -1.2413 0.9654
6.4918 -5.8715 -1.3938 0.9652
7.4305 -5.6037 -1.4820 0.9630
-6.4016 7.2384 -1.5387 0.9616
6.2408 -6.1717 -1.3976 0.9651
6.8457 -5.6581 -1.4142 0.9647
6.6593 -6.0230 -1.5832 0.9642
6.4096 -6.3386 -1.5895 0.9640
7.0584 -5.8339 -1.6147 0.9635
6.9406 -6.2774 -1.8110 0.9626
12.7975 7.1998 -2.8416 0.9419
10.4438 10.3281 -2.8424 0.9419
9.4843 11.2180 -2.8428 0.9419
8.4493 12.0193 -2.8432 0.9419
6.1861 13.3308 -2.8440 0.9419
3.7257 14.2209 -2.8449 0.9419
2.4456 14.4984 -2.8453 0.9419
-2.7698 14.4499 -2.8472 0.9418
-5.2896 13.7342 -2.8481 0.9418
-6.4920 13.2109 -2.8486 0.9418
-7.6432 12.5825 -2.8490 0.9418
-8.7340 11.8539 -2.8494 0.9418
13.6415 5.4292 -2.8413 0.9419
13.1050 6.6223 -2.8415 0.9419
9.9740 10.7837 -2.8426 0.9419
8.9757 11.6302 -2.8430 0.9419
6.7733 13.0410 -2.8438 0.9419
5.5866 13.5942 -2.8442 0.9419
4.3551 14.0396 -2.8446 0.9419
-2.1232 14.5577 -2.8470 0.9418
-8.1967 12.2304 -2.8492 0.9418
-14.2479 0.0000 -3.0037 0.9434
-14.1912 -1.2681 -3.0037 0.9434
-13.3506 -4.9718 -3.0034 0.9434
-11.5602 -8.3205 -3.0027 0.9434
-10.7727 -9.3155 -3.0025 0.9434
-8.9483 -11.0755 -3.0018 0.9435
-7.9261 -11.8265 -3.0014 0.9435
-6.8411 -12.4834 -3.0010 0.9435
-5.7021 -13.0409 -3.0006 0.9435
-4.5181 -13.4947 -3.0002 0.9435
-2.0530 -14.0779 -2.9993 0.9435
-0.7919 -14.2026 -2.9988 0.9435
0.4752 -14.2145 -2.9984 0.9435
1.7383 -14.1136 -2.9979 0.9435
5.4029 -13.1471 -2.9966 0.9436
9.6465 -10.4296 -2.9951 0.9436
12.6752 -6.4050 -2.9940 0.9436
13.6085 -4.0558 -2.9937 0.9436
14.1112 -1.5785 -2.9935 0.9436
14.1955 -0.3163 -2.9934 0.9436
10.3925 8.5897 -2.8424 0.9464
9.5877 9.4815 -2.8427 0.9464
8.7068 10.2984 -2.8431 0.9464
1.0516 13.4579 -2.8458 0.9463
-0.1504 13.5001 -2.8463 0.9463
-2.5424 13.2636 -2.8471 0.9463
-3.7134 12.9866 -2.8476 0.9463
-8.0165 10.8801 -2.8491 0.9463
-11.9290 6.3655 -2.8505 0.9462
-13.5592 4.3723 -3.0035 0.9434
-13.8951 3.1482 -3.0036 0.9434
-14.1206 1.8990 -3.0037 0.9434
-14.2337 0.6347 -3.0037 0.9434
-13.8950 -3.1482 -3.0036 0.9434
-13.1155 -5.5614 -3.0033 0.9434
-12.5676 -6.7062 -3.0031 0.9434
-11.9199 -7.7976 -3.0029 0.9434
-11.1775 -8.8268 -3.0026 0.9434
-10.3465 -9.7856 -3.0023 0.9434
-7.3909 -12.1671 -3.0012 0.9435
-3.9122 -13.6816 -3.0000 0.9435
-1.4239 -14.1542 -2.9991 0.9435
2.3651 -14.0211 -2.9977 0.9435
3.6031 -13.7529 -2.9972 0.9435
7.1056 -12.3072 -2.9960 0.9436
10.1010 -9.9890 -2.9949 0.9436
11.7098 -8.0383 -2.9943 0.9436
12.3777 -6.9636 -2.9941 0.9436
12.9475 -5.8339 -2.9939 0.9436
13.7754 -3.4454 -2.9936 0.9436
14.1674 -0.9483 -2.9935 0.9436
14.1956 0.3164 -2.9934 0.9436
14.1112 1.5786 -2.9935 0.9436
12.0311 6.0796 -2.8418 0.9464
11.4431 7.1269 -2.8421 0.9464
6.2179 11.9716 -2.8440 0.9463
-0.7517 13.4810 -2.8465 0.9463
-1.9489 13.3627 -2.8469 0.9463
-3.1310 13.1381 -2.8473 0.9463
-4.2885 12.8092 -2.8478 0.9463
-7.5234 11.2257 -2.8489 0.9463
-10.9728 7.8978 -2.8502 0.9462
-11.6331 6.8904 -2.8504 0.9462
-13.7408 3.7640 -3.0036 0.9434
-13.1062 -1.1712 -3.0033 0.9474
-12.9497 -2.3329 -3.0033 0.9474
-12.3299 -4.5917 -3.0030 0.9474
-11.8716 -5.6706 -3.0029 0.9475
-11.3190 -6.7043 -3.0027 0.9475
-9.1432 -9.4540 -3.0019 0.9475
-7.3205 -10.9229 -3.0012 0.9475
-6.3185 -11.5297 -3.0008 0.9475
-4.1730 -12.4641 -3.0001 0.9475
-1.8964 -13.0029 -2.9992 0.9475
1.6056 -13.0364 -2.9980 0.9475
2.7592 -12.8400 -2.9976 0.9475
3.8905 -12.5418 -2.9971 0.9475
8.0189 -10.3903 -2.9957 0.9476
10.4759 -7.9003 -2.9948 0.9476
11.1366 -6.9360 -2.9945 0.9476
11.7090 -5.9168 -2.9943 0.9476
13.0357 -1.4582 -2.9939 0.9476
13.1136 -0.2922 -2.9938 0.9476
13.0876 0.8761 -2.9938 0.9476
12.9579 2.0376 -2.9939 0.9476
10.8531 6.1059 -2.8423 0.9502
10.2674 7.0482 -2.8425 0.9502
8.0428 9.5130 -2.8433 0.9502
6.2301 10.7908 -2.8440 0.9502
5.2456 11.3039 -2.8443 0.9502
3.1591 12.0581 -2.8451 0.9501
2.0736 12.2931 -2.8455 0.9501
-0.1389 12.4695 -2.8463 0.9501
-1.2484 12.4094 -2.8467 0.9501
-2.3483 12.2508 -2.8471 0.9501
-5.5036 11.1996 -2.8482 0.9501
-6.4794 10.6666 -2.8485 0.9501
-9.0702 8.5786 -2.8495 0.9501
-10.4493 6.8357 -2.8500 0.9501
-11.4973 4.8753 -2.8503 0.9501
-12.5226 4.0381 -3.0031 0.9474
-12.8328 2.9076 -3.0032 0.9474
-13.1454 0.5862 -3.0033 0.9474
-13.1454 -0.5862 -3.0033 0.9474
-13.0409 -1.7538 -3.0033 0.9474
-11.6069 -6.1936 -3.0028 0.9475
-11.0087 -7.2016 -3.0025 0.9475
-9.5557 -9.0377 -3.0020 0.9475
-7.8003 -10.5866 -3.0014 0.9475
-4.7244 -12.2666 -3.0003 0.9475
-3.6134 -12.6367 -2.9999 0.9475
-2.4740 -12.9064 -2.9994 0.9475
-1.3152 -13.0736 -2.9990 0.9475
1.0233 -13.0960 -2.9982 0.9475
3.3282 -12.7035 -2.9973 0.9475
5.5264 -11.9089 -2.9966 0.9476
7.5485 -10.7378 -2.9958 0.9476
9.3307 -9.2274 -2.9952 0.9476
10.1140 -8.3595 -2.9949 0.9476
10.8170 -7.4255 -2.9947 0.9476
11.4342 -6.4328 -2.9944 0.9476
11.9606 -5.3891 -2.9942 0.9476
12.3921 -4.3030 -2.9941 0.9476
12.7254 -3.1828 -2.9940 0.9476
13.0876 -0.8761 -2.9938 0.9476
13.1136 0.2923 -2.9938 0.9476
9.9436 7.4989 -2.8426 0.9502
8.4581 9.1449 -2.8431 0.9502
6.7042 10.5020 -2.8438 0.9502
2.6190 12.1877 -2.8453 0.9501
-4.9989 11.4329 -2.8480 0.9501
-5.9974 10.9439 -2.8484 0.9501
-6.9485 10.3679 -2.8487 0.9501
-7.8446 9.7095 -2.8490 0.9501
-8.6786 8.9737 -2.8493 0.9501
-9.4438 8.1664 -2.8496 0.9501
-10.7438 6.3636 -2.8501 0.9501
-13.1062 1.1712 -3.0033 0.9474
-12.0234 -2.1661 -3.0029 0.9509
-11.4480 -4.2632 -3.0027 0.9509
-11.0226 -5.2650 -3.0026 0.9509
-9.9131 -7.1350 -3.0022 0.9509
-7.6737 -9.4979 -3.0013 0.9509
-5.8669 -10.7056 -3.0007 0.9510
-3.8748 -11.5734 -3.0000 0.9510
-2.8289 -11.8709 -2.9996 0.9510
-1.7610 -12.0740 -2.9992 0.9510
1.4909 -12.1055 -2.9980 0.9510
2.5621 -11.9232 -2.9976 0.9510
5.6191 -10.8187 -2.9965 0.9510
6.5590 -10.2744 -2.9962 0.9510
7.4466 -9.6489 -2.9959 0.9510
9.0377 -8.1741 -2.9953 0.9510
10.3422 -6.4412 -2.9948 0.9511
11.3191 -4.5049 -2.9945 0.9511
11.6746 -3.4794 -2.9944 0.9511
12.0337 1.8923 -2.9942 0.9511
11.8179 2.9559 -2.9943 0.9511
8.9152 7.3687 -2.8430 0.9535
8.2247 8.1336 -2.8432 0.9535
7.4689 8.8342 -2.8435 0.9535
5.7854 10.0207 -2.8441 0.9535
4.8711 10.4971 -2.8444 0.9535
1.9255 11.4153 -2.8455 0.9534
-1.1592 11.5229 -2.8466 0.9534
-2.1805 11.3755 -2.8470 0.9534
-5.1103 10.3991 -2.8481 0.9534
-6.8746 9.3304 -2.8487 0.9534
-6.3258 7.1527 -2.3471 0.9614
-10.2291 5.4585 -2.8499 0.9534
-11.6269 3.7492 -3.0028 0.9509
-11.9149 2.6996 -3.0029 0.9509
-12.2051 0.5443 -3.0030 0.9509
-11.9148 -2.6995 -3.0029 0.9509
-11.6268 -3.7492 -3.0028 0.9509
-11.2465 -4.7689 -3.0026 0.9509
-10.2215 -6.6865 -3.0023 0.9509
-8.8725 -8.3915 -3.0018 0.9509
-7.2426 -9.8298 -3.0012 0.9510
-6.3383 -10.4343 -3.0009 0.9510
-5.3838 -10.9557 -3.0005 0.9510
-4.3868 -11.3901 -3.0001 0.9510
-3.3552 -11.7338 -2.9998 0.9510
-2.2971 -11.9844 -2.9994 0.9510
-0.1359 -12.1986 -2.9986 0.9510
2.0286 -12.0262 -2.9978 0.9510
3.0905 -11.7965 -2.9974 0.9510
5.1319 -11.0589 -2.9967 0.9510
7.8687 -9.3071 -2.9957 0.9510
8.6650 -8.5690 -2.9954 0.9510
9.3925 -7.7631 -2.9952 0.9510
11.5083 -3.9961 -2.9944 0.9511
11.8178 -2.9558 -2.9943 0.9511
12.1542 -0.8136 -2.9942 0.9511
12.1783 0.2714 -2.9942 0.9511
12.1060 1.3543 -2.9942 0.9511
9.8167 6.1139 -2.8426 0.9535
9.2342 6.9639 -2.8429 0.9535
7.8546 8.4923 -2.8434 0.9535
7.0683 9.1587 -2.8436 0.9535
6.2257 9.7524 -2.8440 0.9535
4.3990 10.7043 -2.8446 0.9534
3.4292 11.0547 -2.8450 0.9534
1.4152 11.4905 -2.8457 0.9534
-0.6447 11.5624 -2.8464 0.9534
-4.6417 10.6158 -2.8479 0.9534
-5.5688 10.1617 -2.8482 0.9534
-6.4518 9.6268 -2.8485 0.9534
-8.7685 7.5825 -2.8494 0.9534
-9.4093 6.7725 -2.8496 0.9534
-10.4624 4.9975 -2.8500 0.9534
-11.4481 4.2633 -3.0027 0.9509
-12.0234 2.1661 -3.0029 0.9509
-12.1687 1.0874 -3.0030 0.9509
-11.3954 0.0000 -3.0027 0.9540
-11.3502 -1.0142 -3.0027 0.9540
-10.9900 -3.0104 -3.0025 0.9540
-10.6780 -3.9765 -3.0024 0.9540
-10.2812 -4.9109 -3.0023 0.9540
-9.8027 -5.8062 -3.0021 0.9540
-7.9187 -8.1878 -3.0014 0.9540
-6.3403 -9.4603 -3.0009 0.9540
-4.5615 -10.4323 -3.0002 0.9540
-0.6336 -11.3629 -2.9988 0.9540
0.3802 -11.3728 -2.9984 0.9540
2.3901 -11.1225 -2.9977 0.9540
6.1187 -9.5848 -2.9963 0.9541
6.9468 -9.0013 -2.9960 0.9541
8.4312 -7.6256 -2.9955 0.9541
9.6483 -6.0090 -2.9951 0.9541
10.1442 -5.1261 -2.9949 0.9541
10.8914 -3.2460 -2.9946 0.9541
11.1368 -2.2636 -2.9945 0.9541
11.2938 -1.2634 -2.9945 0.9541
11.3614 -0.2531 -2.9945 0.9541
11.3389 0.7591 -2.9945 0.9541
11.0251 2.7576 -2.9946 0.9541
10.7363 3.7280 -2.9947 0.9541
8.8951 6.1062 -2.8430 0.9564
8.3170 6.8742 -2.8432 0.9563
6.2070 8.8296 -2.8440 0.9563
5.3971 9.3480 -2.8442 0.9563
3.6549 10.1591 -2.8449 0.9563
2.7365 10.4453 -2.8452 0.9563
1.7962 10.6487 -2.8456 0.9563
0.8414 10.7676 -2.8459 0.9563
-0.1203 10.8011 -2.8462 0.9563
-1.0813 10.7488 -2.8466 0.9563
-2.0340 10.6112 -2.8469 0.9563
-2.9707 10.3893 -2.8473 0.9563
-3.8841 10.0848 -2.8476 0.9563
-5.6118 9.2384 -2.8482 0.9563
-6.4125 8.7031 -2.8485 0.9563
-7.8554 7.4296 -2.8490 0.9563
-9.0496 5.9200 -2.8495 0.9563
-9.5412 5.0913 -2.8496 0.9563
-10.4901 4.4482 -3.0024 0.9540
-10.8448 3.4971 -3.0025 0.9540
-11.1134 2.5180 -3.0026 0.9540
-11.2936 1.5189 -3.0027 0.9540
-11.2936 -1.5188 -3.0027 0.9540
-11.1134 -2.5179 -3.0026 0.9540
-10.8448 -3.4970 -3.0025 0.9540
-10.4900 -4.4481 -3.0024 0.9540
-8.9405 -7.0602 -3.0018 0.9540
-8.2759 -7.8273 -3.0016 0.9540
-5.9122 -9.7328 -3.0007 0.9540
-5.0219 -10.2193 -3.0004 0.9540
-1.1392 -11.3241 -2.9990 0.9540
-0.1268 -11.3792 -2.9986 0.9540
0.8864 -11.3439 -2.9982 0.9540
1.8923 -11.2186 -2.9979 0.9540
4.7874 -10.3164 -2.9968 0.9540
5.6860 -9.8483 -2.9965 0.9540
6.5393 -9.3022 -2.9962 0.9541
7.3406 -8.6824 -2.9959 0.9541
8.0835 -7.9939 -2.9956 0.9541
8.7622 -7.2421 -2.9954 0.9541
10.3622 -4.6690 -2.9948 0.9541
10.7362 -3.7280 -2.9947 0.9541
11.1368 2.2637 -2.9946 0.9541
10.8915 3.2460 -2.9946 0.9541
9.1580 5.7037 -2.8429 0.9564
8.6146 6.4966 -2.8431 0.9563
8.0028 7.2381 -2.8433 0.9563
0.3609 10.7950 -2.8461 0.9563
-0.6014 10.7856 -2.8464 0.9563
-1.5592 10.6906 -2.8468 0.9563
-3.4308 10.2472 -2.8474 0.9563
-4.3297 9.9023 -2.8478 0.9563
-5.1944 9.4787 -2.8481 0.9563
-6.0181 8.9796 -2.8484 0.9563
-8.1789 7.0726 -2.8492 0.9563
-8.7766 6.3171 -2.8494 0.9563
-10.0273 4.7897 -2.9281 0.9551
-10.6781 3.9766 -3.0025 0.9540
-10.6713 0.0000 -3.0024 0.9566
-10.6289 -0.9498 -3.0024 0.9566
-10.5020 -1.8920 -3.0024 0.9566
-9.1799 -5.4373 -3.0019 0.9566
-8.0693 -6.9778 -3.0015 0.9566
-7.4157 -7.6677 -3.0012 0.9566
-6.7032 -8.2966 -3.0010 0.9566
-5.9376 -8.8595 -3.0007 0.9567
-4.2718 -9.7699 -3.0001 0.9567
-3.3849 -10.1102 -2.9998 0.9567
-0.5934 -10.6417 -2.9988 0.9567
0.3561 -10.6511 -2.9984 0.9567
1.3026 -10.5759 -2.9981 0.9567
4.0490 -9.8528 -2.9971 0.9567
4.9094 -9.4523 -2.9968 0.9567
6.5063 -8.4304 -2.9962 0.9567
9.5012 -4.8011 -2.9951 0.9567
10.2011 -3.0402 -2.9949 0.9567
10.6413 -0.2371 -2.9947 0.9567
10.6202 0.7110 -2.9947 0.9567
10.5149 1.6534 -2.9948 0.9567
7.7897 6.4383 -2.8434 0.9589
6.5258 7.7187 -2.8438 0.9589
5.8134 8.2697 -2.8441 0.9589
5.0547 8.7551 -2.8444 0.9589
3.4231 9.5146 -2.8450 0.9589
-0.1127 10.1155 -2.8462 0.9588
-1.9049 9.9376 -2.8469 0.9588
-2.7821 9.7296 -2.8472 0.9588
-3.6374 9.4444 -2.8475 0.9588
-5.2554 8.6517 -2.8481 0.9588
-6.0052 8.1504 -2.8484 0.9588
-6.2836 7.1049 -2.6686 0.9614
-7.3564 6.9577 -2.8489 0.9588
-8.9883 4.7963 -2.8664 0.9585
-9.8236 4.1656 -3.0021 0.9566
-10.5760 1.4224 -3.0024 0.9566
-10.6607 0.4754 -3.0024 0.9566
-10.6607 -0.4754 -3.0024 0.9566
-10.5760 -1.4223 -3.0024 0.9566
-10.4072 -2.3579 -3.0023 0.9566
-9.8235 -4.1655 -3.0021 0.9566
-9.4133 -5.0231 -3.0020 0.9566
-8.9283 -5.8406 -3.0018 0.9566
-7.7502 -7.3301 -3.0014 0.9566
-7.0664 -7.9901 -3.0011 0.9566
-5.5368 -9.1148 -3.0006 0.9567
-3.8322 -9.9500 -2.9999 0.9567
-2.9310 -10.2504 -2.9996 0.9567
-2.0068 -10.4694 -2.9993 0.9567
-1.0669 -10.6053 -2.9989 0.9567
0.8302 -10.6240 -2.9983 0.9567
1.7723 -10.5068 -2.9979 0.9567
3.6063 -10.0239 -2.9973 0.9567
4.4837 -9.6621 -2.9969 0.9567
6.1246 -8.7123 -2.9963 0.9567
6.8751 -8.1319 -2.9961 0.9567
8.2067 -6.7829 -2.9956 0.9567
8.7772 -6.0252 -2.9954 0.9567
10.3262 -2.5827 -2.9948 0.9567
10.5780 1.1833 -2.9948 0.9567
10.2011 3.0403 -2.9949 0.9567
9.8904 3.9363 -2.9950 0.9567
7.4954 6.7792 -2.8435 0.9589
6.8628 7.4201 -2.8437 0.9589
5.4395 8.5208 -2.8442 0.9589
4.6600 8.9721 -2.8445 0.9589
3.8433 9.3521 -2.8448 0.9589
0.3380 10.1099 -2.8461 0.9588
-2.3458 9.8434 -2.8471 0.9588
-3.2129 9.5966 -2.8474 0.9588
-4.0548 9.2736 -2.8477 0.9588
-7.6593 6.6233 -2.8490 0.9588
-8.2190 5.9157 -2.8492 0.9588
-8.7134 5.1610 -2.8493 0.9588
-9.6280 4.5989 -3.0021 0.9566
-9.9996 3.7239 -3.0022 0.9566
-10.5020 1.8921 -3.0024 0.9566
-9.9882 -0.8925 -3.0022 0.9590
-9.6713 -2.6492 -3.0021 0.9590
-9.3968 -3.4994 -3.0020 0.9590
-9.0477 -4.3217 -3.0018 0.9590
-6.9688 -7.2057 -3.0011 0.9590
-4.8162 -8.7885 -3.0003 0.9590
-4.0145 -9.1814 -3.0000 0.9590
0.3347 -10.0099 -2.9984 0.9590
1.2241 -9.9393 -2.9981 0.9590
3.8054 -9.2598 -2.9972 0.9591
4.6140 -8.8835 -2.9969 0.9591
5.3859 -8.4368 -2.9966 0.9591
6.1149 -7.9233 -2.9964 0.9591
6.7953 -7.3470 -2.9961 0.9591
7.4217 -6.7125 -2.9959 0.9591
8.9298 -4.5124 -2.9953 0.9591
9.2956 -3.6995 -2.9952 0.9591
10.0014 -0.2229 -2.9950 0.9591
9.9816 0.6682 -2.9950 0.9591
9.8826 1.5540 -2.9950 0.9591
9.7053 2.4275 -2.9951 0.9591
9.1218 4.1101 -2.9953 0.9591
7.3211 6.0511 -2.8435 0.9611
6.1332 7.2544 -2.8440 0.9611
5.4636 7.7722 -2.8442 0.9611
4.7506 8.2283 -2.8445 0.9611
2.4087 9.1938 -2.8453 0.9611
1.5810 9.3727 -2.8456 0.9611
0.7406 9.4772 -2.8459 0.9611
-1.7902 9.3392 -2.8468 0.9611
-3.4184 8.8756 -2.8474 0.9611
-4.1952 8.5370 -2.8477 0.9611
-4.9388 8.1305 -2.8480 0.9611
-6.2552 7.0729 -2.8268 0.9613
-8.8460 4.7204 -3.0018 0.9590
-9.5436 3.0775 -3.0020 0.9590
-9.7799 2.2159 -3.0021 0.9590
-9.9385 1.3366 -3.0022 0.9590
-10.0181 -0.4467 -3.0022 0.9590
-9.9385 -1.3366 -3.0022 0.9590
-9.5436 -3.0774 -3.0020 0.9590
-9.2314 -3.9144 -3.0019 0.9590
-8.8460 -4.7203 -3.0018 0.9590
-7.2832 -6.8884 -3.0012 0.9590
-3.6014 -9.3507 -2.9999 0.9590
1.6656 -9.8744 -2.9980 0.9591
2.5376 -9.6859 -2.9976 0.9591
7.1155 -7.0367 -2.9960 0.9591
7.7131 -6.3750 -2.9958 0.9591
8.2493 -5.6628 -2.9956 0.9591
8.7201 -4.9058 -2.9954 0.9591
9.1217 -4.1100 -2.9953 0.9591
9.4510 -3.2817 -2.9952 0.9591
9.7052 -2.4274 -2.9951 0.9591
9.8826 -1.5539 -2.9950 0.9591
9.9816 -0.6682 -2.9950 0.9591
9.9419 1.1122 -2.9950 0.9591
9.2956 3.6996 -2.9952 0.9591
12.6524 6.3935 -4.2440 0.9425
7.5831 5.7188 -2.8435 0.9611
7.0445 6.3714 -2.8436 0.9611
4.3796 8.4322 -2.8446 0.9611
3.6120 8.7894 -2.8449 0.9611
1.9968 9.2925 -2.8455 0.9611
1.1619 9.4343 -2.8458 0.9611
0.3177 9.5013 -2.8461 0.9611
-3.0194 9.0186 -2.8473 0.9611
-4.5715 8.3420 -2.8479 0.9611
-5.2963 7.9028 -2.8481 0.9611
-5.9792 7.4006 -2.8484 0.9611
-7.1978 6.2241 -2.8488 0.9610
-7.7237 5.5592 -2.8490 0.9610
-9.4526 0.0000 -3.0020 0.9611
-9.4150 -0.8413 -3.0020 0.9611
-8.8576 -3.2986 -3.0018 0.9611
-8.1317 -4.8164 -3.0015 0.9611
-7.1480 -6.1811 -3.0012 0.9611
-6.5691 -6.7923 -3.0009 0.9611
-5.9380 -7.3495 -3.0007 0.9611
-5.2598 -7.8482 -3.0005 0.9611
-3.7843 -8.6549 -2.9999 0.9611
-1.3629 -9.3445 -2.9991 0.9611
1.1540 -9.3697 -2.9981 0.9612
1.9832 -9.2288 -2.9978 0.9612
2.7964 -9.0148 -2.9976 0.9612
4.3497 -8.3746 -2.9970 0.9612
5.0773 -7.9535 -2.9967 0.9612
5.7646 -7.4694 -2.9965 0.9612
7.5316 -5.6798 -2.9958 0.9612
8.4184 -4.2540 -2.9955 0.9612
8.7633 -3.4877 -2.9954 0.9612
9.0386 -2.6938 -2.9953 0.9612
9.4288 -0.2101 -2.9952 0.9612
8.9098 3.0939 -2.9954 0.9612
7.3817 5.0673 -2.8435 0.9631
2.2706 8.6670 -2.8454 0.9631
1.4904 8.8355 -2.8457 0.9631
-1.6875 8.8037 -2.8468 0.9631
-3.2223 8.3666 -2.8474 0.9631
-3.9546 8.0473 -2.8476 0.9631
-4.6556 7.6641 -2.8479 0.9631
-5.3197 7.2200 -2.8481 0.9631
-6.5165 6.1633 -2.8486 0.9631
-7.5070 4.9109 -2.8489 0.9631
-8.3385 4.4496 -3.0016 0.9611
-9.4432 0.4211 -3.0020 0.9611
-9.4432 -0.4211 -3.0020 0.9611
-8.7017 -3.6898 -3.0017 0.9611
-7.9089 -5.1737 -3.0014 0.9611
-6.8654 -6.4932 -3.0010 0.9611
-5.6045 -7.6064 -3.0006 0.9611
-4.9048 -8.0744 -3.0003 0.9611
-4.1663 -8.4781 -3.0001 0.9611
-1.7779 -9.2749 -2.9992 0.9611
-0.9452 -9.3954 -2.9989 0.9611
0.7355 -9.4122 -2.9983 0.9612
2.3922 -9.1309 -2.9977 0.9612
5.4264 -7.7191 -2.9966 0.9612
6.0914 -7.2049 -2.9964 0.9612
7.7769 -5.3385 -2.9958 0.9612
8.5994 -3.8746 -2.9955 0.9612
9.1495 -2.2884 -2.9953 0.9612
9.4101 -0.6299 -2.9952 0.9612
9.4288 0.2101 -2.9952 0.9612
9.3727 1.0485 -2.9952 0.9612
9.2423 1.8786 -2.9952 0.9612
9.0387 2.6938 -2.9953 0.9612
8.4185 4.2541 -2.9955 0.9612
7.6037 4.7356 -2.8449 0.9631
7.1489 5.3912 -2.8436 0.9631
6.6411 6.0065 -2.8438 0.9631
5.4717 7.0899 -2.8442 0.9631
4.1287 7.9491 -2.8447 0.9631
2.6543 8.5568 -2.8452 0.9631
1.8824 8.7600 -2.8455 0.9631
1.0954 8.8936 -2.8458 0.9631
0.2995 8.9567 -2.8461 0.9631
-1.2936 8.8697 -2.8467 0.9631
-2.0781 8.7202 -2.8470 0.9631
-2.8463 8.5015 -2.8472 0.9631
-4.3093 7.8636 -2.8478 0.9631
-4.9926 7.4495 -2.8480 0.9631
-5.6362 6.9761 -2.8482 0.9631
-7.2805 5.2403 -2.8488 0.9631
-8.0569 4.7721 -2.9739 0.9615
-8.5286 4.0738 -3.0017 0.9611
-8.9344 0.0000 -3.0018 0.9630
-8.8989 -0.7952 -3.0018 0.9630
-8.0611 -3.8504 -3.0015 0.9630
-7.6860 -4.5524 -3.0014 0.9630
-7.2499 -5.2182 -3.0012 0.9630
-6.2091 -6.4201 -3.0008 0.9630
-3.5770 -8.1808 -2.9999 0.9630
-2.0695 -8.6838 -2.9993 0.9630
-0.4969 -8.9114 -2.9987 0.9630
0.2982 -8.9195 -2.9985 0.9630
1.8746 -8.7236 -2.9979 0.9630
4.1116 -7.9162 -2.9971 0.9631
4.7995 -7.5182 -2.9968 0.9631
5.4492 -7.0607 -2.9966 0.9631
6.6138 -5.9818 -2.9962 0.9631
7.5687 -4.7138 -2.9958 0.9631
7.9579 -4.0213 -2.9957 0.9631
8.5442 -2.5464 -2.9955 0.9631
8.8600 -0.9911 -2.9954 0.9631
8.8953 0.5955 -2.9954 0.9631
8.8071 1.3849 -2.9954 0.9631
8.6491 2.1633 -2.9955 0.9631
8.1290 3.6628 -2.9956 0.9631
7.7711 4.3720 -2.9958 0.9631
6.9778 4.7900 -2.8437 0.9649
6.0188 5.9521 -2.8440 0.9649
4.2334 7.3324 -2.8447 0.9649
3.5642 7.6808 -2.8449 0.9649
2.8667 7.9682 -2.8452 0.9649
1.4088 8.3518 -2.8457 0.9649
0.6599 8.4449 -2.8460 0.9649
-0.0944 8.4709 -2.8462 0.9649
-1.5951 8.3215 -2.8468 0.9649
-4.4005 7.2442 -2.8478 0.9649
-6.1594 5.8255 -2.8484 0.9649
-7.8814 4.2057 -3.0014 0.9630
-8.5029 2.7419 -3.0017 0.9630
-8.8546 1.1909 -3.0018 0.9630
-8.9256 -0.3980 -3.0018 0.9630
-8.8546 -1.1908 -3.0018 0.9630
-8.5028 -2.7418 -3.0017 0.9630
-7.8814 -4.2056 -3.0014 0.9630
-7.0101 -5.5358 -3.0011 0.9630
-6.4891 -6.1374 -3.0009 0.9630
-5.2974 -7.1896 -3.0005 0.9630
-4.6361 -7.6320 -3.0002 0.9630
-3.2089 -8.3316 -2.9997 0.9630
-2.4544 -8.5834 -2.9995 0.9630
-1.6805 -8.7669 -2.9992 0.9630
-0.8934 -8.8809 -2.9989 0.9630
0.6952 -8.8969 -2.9983 0.9630
1.4842 -8.7989 -2.9980 0.9630
2.2612 -8.6310 -2.9977 0.9631
3.7550 -8.0919 -2.9972 0.9631
4.4600 -7.7249 -2.9970 0.9631
5.1294 -7.2967 -2.9967 0.9631
5.7581 -6.8107 -2.9965 0.9631
7.3514 -5.0465 -2.9959 0.9631
7.7710 -4.3719 -2.9958 0.9631
8.1290 -3.6627 -2.9956 0.9631
8.4224 -2.9246 -2.9955 0.9631
8.8953 -0.5954 -2.9954 0.9631
8.9130 0.1986 -2.9954 0.9631
8.8600 0.9912 -2.9954 0.9631
8.5443 2.5465 -2.9955 0.9631
8.2840 3.2970 -2.9956 0.9631
7.5441 4.6985 -2.9861 0.9632
5.7478 6.2145 -2.8441 0.9649
5.1723 6.7019 -2.8443 0.9649
3.2187 7.8323 -2.8450 0.9649
2.5090 8.0884 -2.8453 0.9649
0.2831 8.4663 -2.8461 0.9649
-0.4717 8.4587 -2.8464 0.9649
-1.9643 8.2426 -2.8469 0.9649
-3.3952 7.7651 -2.8474 0.9649
-5.3274 6.5938 -2.8481 0.9649
-6.4130 5.5455 -2.8485 0.9649
-7.6861 4.5525 -3.0014 0.9630
-8.0611 3.8505 -3.0015 0.9630
-8.3722 3.1178 -3.0016 0.9630
-8.8990 0.7952 -3.0018 0.9630
-8.4652 0.0000 -3.0016 0.9647
-8.3309 -1.5009 -3.0016 0.9647
-8.1641 -2.2364 -3.0015 0.9647
-3.3892 -7.7514 -2.9998 0.9647
-1.2206 -8.3692 -2.9990 0.9647
-0.4708 -8.4439 -2.9987 0.9647
0.2826 -8.4515 -2.9985 0.9647
1.0336 -8.3920 -2.9982 0.9648
1.7763 -8.2660 -2.9979 0.9648
3.2131 -7.8187 -2.9974 0.9648
3.8960 -7.5011 -2.9972 0.9648
6.7463 -5.0876 -2.9961 0.9648
7.1720 -4.4668 -2.9960 0.9648
8.0964 -2.4129 -2.9956 0.9648
7.7029 3.4708 -2.9958 0.9648
7.3637 4.1428 -2.9959 0.9648
5.7032 5.6400 -2.8441 0.9665
4.0114 6.9479 -2.8447 0.9665
3.3773 7.2779 -2.8450 0.9665
2.0337 7.7628 -2.8455 0.9665
0.6253 8.0018 -2.8460 0.9665
-0.0894 8.0264 -2.8462 0.9665
-0.8035 7.9873 -2.8465 0.9665
-2.8860 7.4933 -2.8472 0.9665
-3.5417 7.2072 -2.8475 0.9665
-4.1695 6.8639 -2.8477 0.9665
-4.7642 6.4661 -2.8479 0.9665
-5.8360 5.5197 -2.8483 0.9665
-6.3045 4.9786 -2.8485 0.9665
-7.4675 3.9848 -3.0013 0.9647
-8.0563 2.5979 -3.0015 0.9647
-8.2557 1.8705 -3.0016 0.9647
-8.3896 -1.1283 -3.0016 0.9647
-8.2557 -1.8704 -3.0016 0.9647
-8.0563 -2.5978 -3.0015 0.9647
-7.7928 -3.3044 -3.0014 0.9647
-7.4675 -3.9848 -3.0013 0.9647
-7.0829 -4.6334 -3.0011 0.9647
-6.6420 -5.2451 -3.0010 0.9647
-4.3927 -7.2314 -3.0002 0.9647
-3.7313 -7.5930 -2.9999 0.9647
-0.8465 -8.4149 -2.9989 0.9647
-0.0942 -8.4561 -2.9986 0.9647
0.6587 -8.4301 -2.9983 0.9647
2.8618 -7.9545 -2.9975 0.9648
4.2261 -7.3198 -2.9970 0.9648
4.8605 -6.9141 -2.9968 0.9648
6.0085 -5.9419 -2.9964 0.9648
6.5131 -5.3832 -2.9962 0.9648
7.9810 -2.7713 -2.9957 0.9648
8.4291 -0.5642 -2.9955 0.9648
8.2788 1.6828 -2.9956 0.9648
7.5408 3.8106 -2.9959 0.9648
6.4035 4.8291 -2.8439 0.9665
4.9011 6.3505 -2.8444 0.9665
3.6980 7.1200 -2.8449 0.9665
2.3774 7.6642 -2.8453 0.9665
1.6860 7.8460 -2.8456 0.9665
0.9811 7.9656 -2.8458 0.9665
0.2682 8.0221 -2.8461 0.9665
-0.4469 8.0149 -2.8464 0.9665
-1.8612 7.8100 -2.8469 0.9665
-2.5492 7.6140 -2.8471 0.9665
-3.2170 7.3575 -2.8474 0.9665
-3.8594 7.0426 -2.8476 0.9665
-5.5841 5.7740 -2.8482 0.9665
-6.0763 5.2544 -2.8484 0.9665
-8.1641 2.2364 -3.0015 0.9647
-8.3309 1.5009 -3.0016 0.9647
-8.0380 0.0000 -3.0015 0.9663
-7.9105 -1.4251 -3.0014 0.9663
-7.7521 -2.1235 -3.0014 0.9663
-6.9150 -4.0957 -3.0011 0.9663
-5.5863 -5.7762 -3.0006 0.9663
-4.4731 -6.6742 -3.0002 0.9663
-3.8610 -7.0454 -3.0000 0.9663
-3.2183 -7.3604 -2.9997 0.9663
-2.5502 -7.6171 -2.9995 0.9663
-0.4471 -8.0181 -2.9987 0.9663
0.2683 -8.0254 -2.9985 0.9663
0.9815 -7.9690 -2.9982 0.9663
1.6867 -7.8493 -2.9980 0.9663
2.3785 -7.6675 -2.9977 0.9663
3.6997 -7.1231 -2.9972 0.9663
4.9033 -6.3534 -2.9968 0.9663
5.4490 -5.8913 -2.9966 0.9663
6.8107 -4.2417 -2.9961 0.9663
7.4543 -2.9667 -2.9959 0.9663
8.0205 -0.1787 -2.9957 0.9663
8.0046 0.5359 -2.9957 0.9663
7.9252 1.2462 -2.9957 0.9663
7.7830 1.9467 -2.9958 0.9663
6.9928 3.9341 -2.9961 0.9663
4.9180 5.8171 -2.8444 0.9680
4.3810 6.2321 -2.8446 0.9680
3.8092 6.5978 -2.8448 0.9680
2.5795 7.1698 -2.8453 0.9680
0.5938 7.5985 -2.8460 0.9680
-0.0849 7.6218 -2.8462 0.9680
-1.4352 7.4873 -2.8467 0.9680
-2.7404 7.1154 -2.8472 0.9680
-3.3631 6.8438 -2.8474 0.9680
-5.5416 5.2412 -2.8482 0.9680
-6.0534 4.7803 -2.8802 0.9676
-6.7255 4.3997 -3.0010 0.9663
-7.0908 3.7838 -3.0012 0.9663
-7.3997 3.1378 -3.0013 0.9663
-7.6498 2.4668 -3.0014 0.9663
-7.8392 1.7762 -3.0014 0.9663
-7.9662 1.0714 -3.0015 0.9663
-7.9662 -1.0713 -3.0015 0.9663
-7.6498 -2.4667 -3.0013 0.9663
-7.3996 -3.1377 -3.0013 0.9663
-7.0907 -3.7837 -3.0011 0.9663
-6.7255 -4.3996 -3.0010 0.9663
-6.3069 -4.9805 -3.0009 0.9663
-5.3233 -6.0191 -3.0005 0.9663
-2.8871 -7.4962 -2.9996 0.9663
-1.5120 -7.8880 -2.9991 0.9663
-0.0895 -8.0297 -2.9986 0.9663
4.6156 -6.5657 -2.9969 0.9663
5.1813 -6.1284 -2.9967 0.9663
6.6152 -4.5410 -2.9962 0.9663
7.3149 -3.2959 -2.9959 0.9663
7.7829 -1.9466 -2.9958 0.9663
7.9252 -1.2461 -2.9957 0.9663
7.6886 2.2914 -2.9958 0.9663
7.4544 2.9668 -2.9959 0.9663
6.8108 4.2418 -2.9961 0.9663
6.2532 4.7158 -2.9246 0.9671
5.1721 5.5920 -2.8443 0.9680
4.6541 6.0306 -2.8445 0.9680
4.0992 6.4213 -2.8447 0.9680
2.8962 7.0475 -2.8451 0.9680
2.2576 7.2779 -2.8454 0.9680
0.9316 7.5641 -2.8459 0.9680
-1.1002 7.5435 -2.8466 0.9680
-1.7674 7.4162 -2.8468 0.9680
-2.4206 7.2301 -2.8471 0.9680
-4.2457 6.3351 -2.8477 0.9680
-5.7697 4.9893 -2.8483 0.9680
-6.5227 4.6948 -3.0009 0.9663
-7.2524 3.4642 -3.0012 0.9663
-7.7522 2.1236 -3.0014 0.9663
-8.0061 0.7155 -3.0015 0.9663
-7.6473 -0.0000 -3.0013 0.9677
-7.6169 -0.6806 -3.0013 0.9677
-7.1661 -2.6687 -3.0012 0.9677
-6.8999 -3.2958 -3.0011 0.9677
-6.5789 -3.8967 -3.0010 0.9677
-6.2057 -4.4665 -3.0008 0.9677
-5.3148 -5.4955 -3.0005 0.9677
-4.2557 -6.3499 -3.0001 0.9677
-3.6734 -6.7031 -2.9999 0.9677
-2.4263 -7.2470 -2.9994 0.9677
-1.7715 -7.4337 -2.9992 0.9677
-1.1028 -7.5612 -2.9990 0.9677
-0.4254 -7.6288 -2.9987 0.9677
0.9338 -7.5821 -2.9982 0.9677
1.6048 -7.4682 -2.9980 0.9677
2.2630 -7.2952 -2.9977 0.9677
3.5201 -6.7773 -2.9973 0.9677
4.1090 -6.4367 -2.9971 0.9677
4.6653 -6.0450 -2.9969 0.9677
5.6625 -5.1214 -2.9965 0.9677
6.4802 -4.0359 -2.9962 0.9677
7.4804 -1.5204 -2.9959 0.9677
7.5859 -0.8486 -2.9958 0.9677
7.6313 -0.1700 -2.9958 0.9677
7.4053 1.8522 -2.9959 0.9677
7.2113 2.5040 -2.9960 0.9677
5.7122 4.7212 -2.9085 0.9687
5.1530 5.0960 -2.8443 0.9693
4.1684 5.9296 -2.8447 0.9693
3.6243 6.2775 -2.8449 0.9693
3.0514 6.5757 -2.8451 0.9693
1.8375 7.0136 -2.8455 0.9693
1.2060 7.1499 -2.8458 0.9693
0.5649 7.2295 -2.8460 0.9693
-1.3655 7.1236 -2.8467 0.9693
-1.9942 6.9743 -2.8469 0.9693
-4.8072 5.4357 -2.8479 0.9693
-5.2723 4.9865 -2.8481 0.9693
-6.3987 4.1859 -3.0009 0.9677
-6.7461 3.5998 -3.0010 0.9677
-7.2780 2.3469 -3.0012 0.9677
-7.4581 1.6898 -3.0013 0.9677
-7.5790 1.0193 -3.0013 0.9677
-7.6397 0.3407 -3.0013 0.9677
-7.6397 -0.3406 -3.0013 0.9677
-7.5790 -1.0193 -3.0013 0.9677
-7.4581 -1.6897 -3.0013 0.9677
-7.2779 -2.3468 -3.0012 0.9677
-5.5545 -5.2534 -3.0006 0.9677
-5.0646 -5.7266 -3.0004 0.9677
-1.4386 -7.5049 -2.9991 0.9677
0.5952 -7.6164 -2.9983 0.9677
2.5856 -7.1868 -2.9976 0.9677
4.3915 -6.2470 -2.9970 0.9677
6.2941 -4.3207 -2.9963 0.9677
6.9599 -3.1360 -2.9961 0.9677
7.2112 -2.5040 -2.9960 0.9677
7.4053 -1.8521 -2.9959 0.9677
7.5407 -1.1857 -2.9959 0.9677
7.6162 -0.5098 -2.9958 0.9677
7.5860 0.8486 -2.9958 0.9677
7.4804 1.5205 -2.9959 0.9677
7.0927 2.8228 -2.9960 0.9677
6.8135 3.4431 -2.9961 0.9677
4.4282 5.7379 -2.8446 0.9693
3.9002 6.1096 -2.8448 0.9693
2.7556 6.7054 -2.8452 0.9693
1.5233 7.0888 -2.8456 0.9693
0.8864 7.1968 -2.8459 0.9693
0.2423 7.2478 -2.8461 0.9693
-0.4038 7.2411 -2.8463 0.9693
-1.6815 7.0560 -2.8468 0.9693
-2.3030 6.8789 -2.8470 0.9693
-3.4867 6.3625 -2.8475 0.9693
-4.0395 6.0273 -2.8477 0.9693
-4.5602 5.6442 -2.8478 0.9693
-5.5279 4.7802 -2.8682 0.9691
-6.5789 3.8967 -3.0010 0.9677
-7.3754 2.0203 -3.0013 0.9677
-7.5260 1.3559 -3.0013 0.9677
-7.6169 0.6807 -3.0013 0.9677
-7.2884 0.0000 -3.0012 0.9690
-7.2594 -0.6487 -3.0012 0.9690
-5.0654 -5.2376 -3.0004 0.9690
-4.5789 -5.6674 -3.0002 0.9690
-3.5010 -6.3886 -2.9998 0.9690
-2.3125 -6.9071 -2.9994 0.9690
-1.0511 -7.2066 -2.9989 0.9690
-0.4054 -7.2710 -2.9987 0.9690
0.8900 -7.2265 -2.9982 0.9690
2.1569 -6.9532 -2.9978 0.9690
2.7670 -6.7331 -2.9976 0.9690
3.9164 -6.1350 -2.9972 0.9690
4.4466 -5.7617 -2.9970 0.9690
5.8099 -4.3815 -2.9965 0.9690
6.1766 -3.8468 -2.9963 0.9690
6.7603 -2.6905 -2.9961 0.9690
7.1299 -1.4492 -2.9960 0.9690
7.2305 -0.8088 -2.9960 0.9690
7.2738 -0.1621 -2.9959 0.9690
7.2594 0.4860 -2.9960 0.9690
7.1874 1.1302 -2.9960 0.9690
5.9992 4.1183 -2.9964 0.9690
5.6092 4.6361 -2.9966 0.9690
4.9115 4.8571 -2.8444 0.9706
4.4600 5.2753 -2.8446 0.9706
3.4544 5.9833 -2.8449 0.9706
2.9084 6.2675 -2.8451 0.9706
1.7513 6.6848 -2.8456 0.9705
0.5384 6.8904 -2.8460 0.9705
-0.6919 6.8779 -2.8464 0.9705
-1.9007 6.6472 -2.8469 0.9705
-3.0496 6.2058 -2.8473 0.9705
-4.5817 5.1806 -2.8478 0.9705
-6.7096 2.8451 -3.0010 0.9690
-7.1081 1.6105 -3.0012 0.9690
-7.2233 0.9714 -3.0012 0.9690
-7.2811 0.3247 -3.0012 0.9690
-7.1080 -1.6104 -3.0011 0.9690
-6.7096 -2.8451 -3.0010 0.9690
-5.7188 -4.5161 -3.0006 0.9690
-4.3218 -5.8655 -3.0001 0.9690
-3.7823 -6.2265 -2.9999 0.9690
-3.2129 -6.5380 -2.9997 0.9690
-2.6180 -6.7975 -2.9995 0.9690
-2.0025 -7.0030 -2.9993 0.9690
-1.3711 -7.1529 -2.9991 0.9690
-0.0811 -7.2815 -2.9986 0.9690
3.0641 -6.6029 -2.9975 0.9690
4.1857 -5.9542 -2.9971 0.9690
5.1745 -5.1171 -2.9967 0.9690
5.9992 -4.1182 -2.9964 0.9690
6.8733 -2.3866 -2.9961 0.9690
7.0583 -1.7654 -2.9960 0.9690
7.1873 -1.1301 -2.9960 0.9690
7.2305 0.8089 -2.9960 0.9690
7.1299 1.4493 -2.9960 0.9690
6.7603 2.6906 -2.9961 0.9690
6.4942 3.2817 -2.9962 0.9690
5.2241 4.7250 -2.9006 0.9700
3.7174 5.8233 -2.8448 0.9706
2.6264 6.3910 -2.8452 0.9706
0.8448 6.8594 -2.8459 0.9705
0.2310 6.9079 -2.8461 0.9705
-0.9976 6.8404 -2.8466 0.9705
-1.6026 6.7250 -2.8468 0.9705
-2.1950 6.5562 -2.8470 0.9705
-2.7700 6.3353 -2.8472 0.9705
-4.3462 5.3794 -2.8478 0.9705
-4.8080 4.9715 -2.8479 0.9705
-5.5007 4.7566 -2.9945 0.9690
-5.9145 4.2571 -3.0007 0.9690
-7.0292 1.9255 -3.0011 0.9690
-7.1728 1.2923 -3.0012 0.9690
-7.2594 0.6487 -3.0012 0.9690
-6.5195 -2.4279 -3.0009 0.9701
-6.2774 -2.9984 -3.0008 0.9701
-5.9854 -3.5451 -3.0007 0.9702
-5.6459 -4.0636 -3.0006 0.9702
-3.8719 -5.7772 -3.0000 0.9702
-2.2075 -6.5936 -2.9994 0.9702
-1.6118 -6.7634 -2.9991 0.9702
-0.3870 -6.9410 -2.9987 0.9702
0.2323 -6.9473 -2.9985 0.9702
0.8496 -6.8986 -2.9983 0.9702
2.0590 -6.6377 -2.9978 0.9702
2.6415 -6.4276 -2.9976 0.9702
3.7388 -5.8566 -2.9972 0.9702
5.1524 -4.6600 -2.9967 0.9702
5.5464 -4.1827 -2.9966 0.9702
5.8965 -3.6723 -2.9964 0.9702
6.1997 -3.1328 -2.9963 0.9702
6.4537 -2.5685 -2.9962 0.9702
6.8066 -1.3835 -2.9961 0.9702
6.9026 -0.7722 -2.9961 0.9702
6.8614 1.0789 -2.9961 0.9702
6.7383 1.6854 -2.9961 0.9702
6.3330 2.8535 -2.9963 0.9702
5.7272 3.9315 -2.9965 0.9702
4.7801 4.7271 -2.8999 0.9711
3.7928 5.3953 -2.8448 0.9717
2.7764 5.9831 -2.8452 0.9717
2.2331 6.2069 -2.8454 0.9717
0.5140 6.5778 -2.8460 0.9717
-1.8144 6.3455 -2.8469 0.9717
-3.4271 5.6418 -2.8474 0.9717
-3.9159 5.3147 -2.8476 0.9717
-5.0287 4.7561 -2.9857 0.9703
-6.4049 2.7159 -3.0009 0.9701
-6.9504 0.3099 -3.0011 0.9701
-6.7852 -1.5373 -3.0010 0.9701
-6.6213 -2.1351 -3.0010 0.9701
-6.4048 -2.7158 -3.0009 0.9701
-5.0535 -4.7795 -3.0004 0.9702
-4.1255 -5.5992 -3.0001 0.9702
-3.0670 -6.2412 -2.9997 0.9702
-1.9116 -6.6851 -2.9993 0.9702
-0.6958 -6.9171 -2.9988 0.9702
1.1561 -6.8536 -2.9981 0.9702
2.9251 -6.3034 -2.9975 0.9702
3.9958 -5.6842 -2.9971 0.9702
4.9398 -4.8850 -2.9968 0.9702
5.7271 -3.9314 -2.9965 0.9702
6.3330 -2.8535 -2.9963 0.9702
6.7383 -1.6853 -2.9961 0.9702
6.8614 -1.0789 -2.9961 0.9702
6.9302 -0.4639 -2.9961 0.9702
6.8066 1.3835 -2.9961 0.9702
6.6566 1.9839 -2.9962 0.9702
6.4538 2.5685 -2.9963 0.9702
6.1997 3.1329 -2.9963 0.9702
5.8965 3.6724 -2.9965 0.9702
5.1524 4.6601 -2.9967 0.9702
4.0292 5.2209 -2.8447 0.9717
3.5488 5.5591 -2.8449 0.9717
1.9544 6.3005 -2.8455 0.9717
1.3860 6.4499 -2.8457 0.9717
-0.9524 6.5300 -2.8465 0.9717
-1.5299 6.4197 -2.8467 0.9717
-2.6443 6.0476 -2.8471 0.9717
-3.1723 5.7887 -2.8473 0.9717
-3.6751 5.4837 -2.8475 0.9717
-5.6459 4.0637 -3.0006 0.9702
-6.5196 2.4279 -3.0009 0.9701
-6.7099 1.8380 -3.0010 0.9701
-6.6244 -0.5919 -3.0010 0.9712
-6.5454 -1.1792 -3.0009 0.9712
-6.2324 -2.3210 -3.0008 0.9712
-6.0009 -2.8664 -3.0007 0.9712
-5.7218 -3.3890 -3.0006 0.9712
-5.3972 -3.8846 -3.0005 0.9712
-5.0298 -4.3494 -3.0004 0.9712
-4.6225 -4.7796 -3.0002 0.9712
-3.7014 -5.5228 -2.9999 0.9712
-2.6632 -6.0909 -2.9995 0.9712
-2.1104 -6.3033 -2.9993 0.9713
-1.5408 -6.4656 -2.9991 0.9713
-0.9592 -6.5767 -2.9989 0.9713
-0.3700 -6.6355 -2.9987 0.9713
0.2221 -6.6416 -2.9985 0.9713
1.3959 -6.4961 -2.9981 0.9713
3.0620 -5.8953 -2.9975 0.9713
3.5743 -5.5990 -2.9973 0.9713
4.0582 -5.2584 -2.9971 0.9713
4.5099 -4.8760 -2.9969 0.9713
4.9257 -4.4550 -2.9968 0.9713
5.3025 -3.9987 -2.9967 0.9713
6.1699 -2.4555 -2.9963 0.9713
6.5073 -1.3226 -2.9962 0.9713
6.5991 -0.7382 -2.9962 0.9713
6.5597 1.0315 -2.9962 0.9713
6.2731 2.1783 -2.9963 0.9713
5.4753 3.7586 -2.9966 0.9713
5.1192 4.2312 -2.9967 0.9713
4.7225 4.6702 -2.9969 0.9713
1.5983 6.1007 -2.8456 0.9727
0.4914 6.2883 -2.8460 0.9727
-0.0703 6.3075 -2.8462 0.9727
-0.6314 6.2767 -2.8464 0.9727
-1.1877 6.1960 -2.8466 0.9727
-1.7345 6.0661 -2.8468 0.9727
-2.2677 5.8881 -2.8470 0.9727
-2.7830 5.6632 -2.8472 0.9727
-3.2762 5.3934 -2.8474 0.9727
-3.7434 5.0807 -2.8475 0.9727
-4.8310 4.5691 -3.0003 0.9712
-5.8672 3.1309 -3.0007 0.9712
-6.3297 2.0411 -3.0009 0.9712
-6.4863 1.4696 -3.0009 0.9712
-6.5915 0.8865 -3.0010 0.9712
-6.6443 0.2963 -3.0010 0.9712
-6.4863 -1.4696 -3.0009 0.9712
-6.3297 -2.0410 -3.0009 0.9712
-6.1227 -2.5962 -3.0008 0.9712
-5.8672 -3.1308 -3.0007 0.9712
-4.4049 -4.9806 -3.0002 0.9712
-1.8274 -6.3908 -2.9992 0.9713
-0.0740 -6.6452 -2.9986 0.9713
0.5177 -6.6249 -2.9984 0.9713
1.6839 -6.4272 -2.9980 0.9713
2.2491 -6.2514 -2.9978 0.9713
2.7964 -6.0260 -2.9976 0.9713
3.8201 -5.4341 -2.9972 0.9713
4.7225 -4.6702 -2.9969 0.9713
5.4752 -3.7585 -2.9966 0.9713
5.7878 -3.2562 -2.9965 0.9713
6.0545 -2.7279 -2.9964 0.9713
6.4419 -1.6112 -2.9962 0.9713
6.5597 -1.0314 -2.9962 0.9713
6.6254 -0.4435 -2.9962 0.9713
6.6386 0.1480 -2.9962 0.9713
6.5073 1.3227 -2.9962 0.9713
6.3638 1.8967 -2.9963 0.9713
5.9270 2.9951 -2.9964 0.9713
5.3025 3.9988 -2.9967 0.9713
3.3927 5.3145 -2.8450 0.9727
2.9064 5.5958 -2.8451 0.9727
2.3969 5.8326 -2.8453 0.9727
0.7710 6.2599 -2.8459 0.9727
0.2108 6.3042 -2.8461 0.9727
-0.9104 6.2425 -2.8465 0.9727
-2.0031 5.9830 -2.8469 0.9727
-2.5279 5.7814 -2.8471 0.9727
-3.0326 5.5338 -2.8473 0.9727
-6.4144 1.7571 -3.0009 0.9712
-6.3662 0.0000 -3.0009 0.9722
-5.7441 -2.7437 -3.0007 0.9722
-5.4769 -3.2439 -3.0006 0.9722
-4.8146 -4.1633 -3.0003 0.9722
-4.4247 -4.5751 -3.0002 0.9722
-3.5430 -5.2865 -2.9999 0.9722
-3.0582 -5.5806 -2.9997 0.9723
-0.9182 -6.2954 -2.9989 0.9723
-0.3542 -6.3517 -2.9987 0.9723
0.2126 -6.3575 -2.9985 0.9723
0.7775 -6.3130 -2.9983 0.9723
1.3362 -6.2183 -2.9981 0.9723
2.4173 -5.8821 -2.9977 0.9723
2.9310 -5.6433 -2.9975 0.9723
3.4215 -5.3596 -2.9973 0.9723
3.8847 -5.0336 -2.9972 0.9723
5.3962 -3.3608 -2.9966 0.9723
5.6737 -2.8670 -2.9965 0.9723
5.9062 -2.3506 -2.9964 0.9723
6.0919 -1.8155 -2.9964 0.9723
6.2292 -1.2661 -2.9963 0.9723
6.3423 0.4246 -2.9963 0.9723
6.0050 2.0852 -2.9964 0.9723
5.5405 3.1170 -2.9966 0.9723
4.9004 4.0503 -2.9968 0.9723
4.5207 4.4706 -2.9970 0.9723
3.4709 4.9375 -2.8449 0.9737
2.0435 5.6801 -2.8455 0.9737
1.0042 5.9532 -2.8458 0.9737
-0.0673 6.0377 -2.8462 0.9737
-1.1369 5.9310 -2.8466 0.9736
-1.6603 5.8066 -2.8468 0.9736
-2.6639 5.4209 -2.8472 0.9736
-3.1360 5.1626 -2.8473 0.9736
-4.2022 4.7515 -2.9900 0.9723
-4.9954 3.9448 -3.0004 0.9722
-5.6161 2.9969 -3.0006 0.9722
-6.0588 1.9537 -3.0008 0.9722
-6.3094 0.8486 -3.0009 0.9722
-6.3599 -0.2836 -3.0009 0.9722
-6.2087 -1.4067 -3.0008 0.9722
-6.0588 -1.9537 -3.0008 0.9722
-5.8607 -2.4851 -3.0007 0.9722
-5.6161 -2.9968 -3.0006 0.9722
-4.9954 -3.9448 -3.0004 0.9722
-4.6242 -4.3735 -3.0002 0.9722
-3.3039 -5.4390 -2.9998 0.9723
-2.8065 -5.7111 -2.9996 0.9723
-2.2869 -5.9379 -2.9994 0.9723
-1.1977 -6.2485 -2.9990 0.9723
-0.6368 -6.3298 -2.9988 0.9723
-0.0709 -6.3609 -2.9986 0.9723
1.0579 -6.2719 -2.9982 0.9723
2.1529 -5.9841 -2.9978 0.9723
2.6768 -5.7684 -2.9976 0.9723
3.1794 -5.5069 -2.9974 0.9723
3.6567 -5.2018 -2.9972 0.9723
4.1050 -4.8554 -2.9971 0.9723
4.5206 -4.4705 -2.9969 0.9723
4.9004 -4.0503 -2.9968 0.9723
5.2412 -3.5979 -2.9967 0.9723
5.5404 -3.1170 -2.9966 0.9723
5.7957 -2.6114 -2.9965 0.9723
6.0050 -2.0851 -2.9964 0.9723
6.3549 0.1416 -2.9963 0.9723
6.3171 0.7067 -2.9963 0.9723
6.2292 1.2662 -2.9963 0.9723
5.9062 2.3507 -2.9964 0.9723
5.6737 2.8671 -2.9965 0.9723
5.3962 3.3608 -2.9966 0.9723
4.7152 4.2647 -2.9969 0.9723
3.6872 4.7778 -2.8449 0.9737
3.2476 5.0873 -2.8450 0.9737
2.7821 5.3565 -2.8452 0.9737
2.2944 5.5832 -2.8454 0.9737
0.7380 5.9922 -2.8459 0.9737
0.2018 6.0346 -2.8461 0.9737
-0.3362 6.0290 -2.8463 0.9737
-1.9174 5.7271 -2.8469 0.9736
-3.3630 5.0179 -2.8474 0.9736
-4.4247 4.5752 -3.0002 0.9722
-4.8146 4.1633 -3.0003 0.9722
-5.7441 2.7438 -3.0007 0.9722
-6.1399 1.6819 -3.0008 0.9722
-6.2653 1.1288 -3.0008 0.9722
-6.0042 -1.0817 -3.0008 0.9732
-4.9510 -3.5635 -3.0004 0.9732
-4.6140 -3.9898 -3.0002 0.9732
-3.8331 -4.7443 -3.0000 0.9732
-2.4431 -5.5875 -2.9995 0.9732
-1.9360 -5.7824 -2.9993 0.9732
-0.8799 -6.0332 -2.9989 0.9732
-0.3394 -6.0872 -2.9987 0.9732
0.2037 -6.0929 -2.9985 0.9732
0.7452 -6.0502 -2.9983 0.9732
1.2806 -5.9595 -2.9981 0.9732
2.3167 -5.6373 -2.9977 0.9732
3.7231 -4.8241 -2.9972 0.9732
4.5190 -4.0871 -2.9969 0.9732
4.8646 -3.6686 -2.9968 0.9732
5.1717 -3.2209 -2.9967 0.9732
5.8384 -1.7400 -2.9965 0.9732
5.9700 -1.2134 -2.9964 0.9732
6.0905 -0.1357 -2.9964 0.9732
6.0181 0.9463 -2.9964 0.9732
5.9101 1.4782 -2.9964 0.9732
5.7552 1.9984 -2.9965 0.9732
5.5546 2.5028 -2.9966 0.9732
5.3099 2.9873 -2.9967 0.9732
5.0232 3.4482 -2.9968 0.9732
4.6965 3.8818 -2.9969 0.9732
4.3326 4.2846 -2.9970 0.9732
2.4351 5.2475 -2.8453 0.9745
-0.0645 5.7864 -2.8462 0.9745
-1.0895 5.6840 -2.8466 0.9745
-2.0803 5.4015 -2.8469 0.9745
-2.5530 5.1952 -2.8471 0.9745
-3.5095 4.7632 -2.9100 0.9740
-4.4316 4.1914 -3.0002 0.9732
-4.7873 3.7805 -3.0003 0.9732
-5.3821 2.8720 -3.0005 0.9732
-5.6165 2.3817 -3.0006 0.9732
-5.9501 1.3481 -3.0007 0.9732
-6.0465 0.8132 -3.0008 0.9732
-6.0949 -0.2718 -3.0008 0.9732
-5.9500 -1.3481 -3.0007 0.9732
-5.6165 -2.3816 -3.0006 0.9732
-4.7873 -3.7804 -3.0003 0.9732
-4.4316 -4.1914 -3.0002 0.9732
-4.0408 -4.5689 -3.0000 0.9732
-3.6179 -4.9102 -2.9999 0.9732
-3.1663 -5.2124 -2.9997 0.9732
-2.1917 -5.6906 -2.9994 0.9732
-0.6103 -6.0662 -2.9988 0.9732
0.4749 -6.0775 -2.9984 0.9732
2.0633 -5.7350 -2.9978 0.9732
2.5654 -5.5283 -2.9976 0.9732
3.5046 -4.9853 -2.9973 0.9732
3.9342 -4.6534 -2.9971 0.9732
4.3325 -4.2845 -2.9970 0.9732
4.6965 -3.8817 -2.9969 0.9732
5.0231 -3.4482 -2.9968 0.9732
5.3099 -2.9873 -2.9967 0.9732
6.0181 -0.9463 -2.9964 0.9732
6.0784 -0.4069 -2.9964 0.9732
5.9700 1.2135 -2.9964 0.9732
5.6605 2.2529 -2.9965 0.9732
5.4377 2.7478 -2.9966 0.9732
4.8647 3.6687 -2.9968 0.9732
4.1375 4.4734 -2.9971 0.9732
2.6663 5.1336 -2.8452 0.9745
0.1934 5.7833 -2.8461 0.9745
-0.8352 5.7267 -2.8465 0.9745
-1.8376 5.4886 -2.8469 0.9745
-3.2229 4.8089 -2.8474 0.9745
-3.8331 4.7444 -3.0000 0.9732
-4.2404 4.3846 -3.0001 0.9732
-4.9510 3.5636 -3.0004 0.9732
-5.2488 3.1089 -3.0005 0.9732
-5.8840 1.6119 -3.0007 0.9732
-5.7603 -1.0377 -3.0007 0.9740
-5.4848 -2.0426 -3.0006 0.9740
-5.2811 -2.5226 -3.0005 0.9740
-5.0355 -2.9825 -3.0004 0.9740
-4.0681 -4.2064 -3.0000 0.9740
-3.6774 -4.5515 -2.9999 0.9740
-2.8118 -5.1309 -2.9996 0.9740
-1.8573 -5.5476 -2.9992 0.9740
-1.3561 -5.6905 -2.9991 0.9740
-0.8442 -5.7882 -2.9989 0.9740
-0.3256 -5.8401 -2.9987 0.9741
1.2286 -5.7175 -2.9981 0.9741
2.2226 -5.4084 -2.9978 0.9741
2.6950 -5.1888 -2.9976 0.9741
3.1460 -4.9281 -2.9974 0.9741
3.9696 -4.2918 -2.9971 0.9741
4.9618 -3.0902 -2.9968 0.9741
5.6015 -1.6694 -2.9966 0.9741
5.8434 -0.1302 -2.9965 0.9741
5.7739 0.9079 -2.9965 0.9741
5.3292 2.4012 -2.9967 0.9741
5.0945 2.8661 -2.9967 0.9741
4.8193 3.3083 -2.9968 0.9741
4.5059 3.7243 -2.9970 0.9741
4.1567 4.1107 -2.9971 0.9741
2.7749 4.8063 -2.8452 0.9754
2.3362 5.0344 -2.8453 0.9754
1.4067 5.3695 -2.8457 0.9754
-0.0618 5.5514 -2.8462 0.9754
-1.0453 5.4532 -2.8466 0.9754
-1.5266 5.3388 -2.8467 0.9753
-1.9958 5.1821 -2.8469 0.9753
-3.4709 4.7108 -2.9998 0.9740
-3.8766 4.3835 -3.0000 0.9740
-4.2516 4.0211 -3.0001 0.9740
-4.5928 3.6269 -3.0002 0.9740
-5.1635 2.7553 -3.0005 0.9740
-5.3883 2.2849 -3.0005 0.9740
-5.7083 1.2934 -3.0006 0.9740
-5.8008 0.7801 -3.0007 0.9740
-5.8473 0.2608 -3.0007 0.9740
-5.7083 -1.2933 -3.0006 0.9740
-5.1634 -2.7553 -3.0004 0.9740
-4.8976 -3.2038 -3.0003 0.9740
-4.5928 -3.6269 -3.0002 0.9740
-4.2516 -4.0210 -3.0001 0.9740
-3.8766 -4.3833 -3.0000 0.9740
-3.4709 -4.7107 -2.9998 0.9740
-2.5804 -5.2509 -2.9995 0.9740
-2.1027 -5.4595 -2.9993 0.9740
-1.1012 -5.7451 -2.9990 0.9740
-0.5855 -5.8199 -2.9988 0.9740
-0.0652 -5.8486 -2.9986 0.9741
0.4556 -5.8308 -2.9984 0.9741
0.9727 -5.7668 -2.9982 0.9741
1.4821 -5.6570 -2.9980 0.9741
2.4613 -5.3039 -2.9977 0.9741
3.3623 -4.7830 -2.9974 0.9741
3.7745 -4.4645 -2.9972 0.9741
4.1567 -4.1106 -2.9971 0.9741
4.5059 -3.7242 -2.9969 0.9741
4.8193 -3.3082 -2.9968 0.9741
5.0945 -2.8661 -2.9967 0.9741
5.3292 -2.4012 -2.9966 0.9741
5.5216 -1.9173 -2.9966 0.9741
5.6703 -1.4182 -2.9965 0.9741
5.8318 -0.3903 -2.9965 0.9741
5.8434 0.1302 -2.9965 0.9741
5.8086 0.6498 -2.9965 0.9741
5.7278 1.1642 -2.9965 0.9741
5.4308 2.1614 -2.9966 0.9741
2.5581 4.9253 -2.8453 0.9754
1.1662 5.4270 -2.8458 0.9754
-1.2872 5.4014 -2.8467 0.9753
-2.6689 4.8702 -2.8472 0.9753
-4.4266 3.8278 -3.0002 0.9740
-4.7499 3.4188 -3.0003 0.9740
-5.2811 2.5226 -3.0005 0.9740
-5.4848 2.0426 -3.0006 0.9740
-5.8298 0.5210 -3.0007 0.9740
-5.6208 0.0000 -3.0006 0.9748
-5.2671 -1.9615 -3.0005 0.9748
-5.0715 -2.4224 -3.0004 0.9748
-2.7003 -4.9273 -2.9995 0.9748
-2.2509 -5.1479 -2.9994 0.9748
-0.8107 -5.5586 -2.9989 0.9749
0.1877 -5.6136 -2.9985 0.9749
0.6865 -5.5743 -2.9983 0.9749
2.1345 -5.1940 -2.9978 0.9749
3.4304 -4.4448 -2.9973 0.9749
4.1637 -3.7659 -2.9971 0.9749
4.4822 -3.3802 -2.9970 0.9749
4.7651 -2.9677 -2.9969 0.9749
5.0102 -2.5317 -2.9968 0.9749
5.5008 -1.1180 -2.9966 0.9749
5.5784 -0.6240 -2.9966 0.9749
5.6118 -0.1250 -2.9966 0.9749
5.6006 0.3749 -2.9966 0.9749
5.5451 0.8719 -2.9966 0.9749
5.4455 1.3621 -2.9966 0.9749
5.1180 2.3061 -2.9967 0.9749
4.6283 3.1772 -2.9969 0.9749
4.3273 3.5767 -2.9970 0.9749
3.6249 4.2876 -2.9973 0.9749
3.2291 4.5934 -2.9974 0.9749
2.2436 4.8348 -2.8454 0.9761
0.8867 5.2567 -2.8459 0.9761
-1.4660 5.1271 -2.8467 0.9761
-2.3520 4.7864 -2.8470 0.9761
-2.8852 4.7498 -2.9668 0.9751
-3.3332 4.5239 -2.9998 0.9748
-3.7228 4.2095 -2.9999 0.9748
-4.0829 3.8616 -3.0001 0.9748
-4.4105 3.4830 -3.0002 0.9748
-4.7032 3.0767 -3.0003 0.9748
-5.1745 2.1942 -3.0005 0.9748
-5.3494 1.7250 -3.0005 0.9748
-5.5706 0.7492 -3.0006 0.9748
-5.6152 -0.2504 -3.0006 0.9748
-5.3494 -1.7249 -3.0005 0.9748
-4.9585 -2.6459 -3.0004 0.9748
-4.7032 -3.0767 -3.0003 0.9748
-4.4105 -3.4829 -3.0002 0.9748
-4.0829 -3.8615 -3.0000 0.9748
-3.3332 -4.5238 -2.9998 0.9748
-2.9172 -4.8023 -2.9996 0.9748
-2.4780 -5.0426 -2.9995 0.9748
-1.0576 -5.5172 -2.9990 0.9748
-0.5623 -5.5891 -2.9988 0.9749
0.9342 -5.5380 -2.9982 0.9749
1.9011 -5.2841 -2.9979 0.9749
2.3637 -5.0936 -2.9977 0.9749
2.8075 -4.8627 -2.9976 0.9749
3.6249 -4.2875 -2.9973 0.9749
4.3273 -3.5766 -2.9970 0.9749
4.8925 -2.7525 -2.9968 0.9749
5.6118 0.1251 -2.9966 0.9749
5.5784 0.6241 -2.9966 0.9749
5.5008 1.1181 -2.9966 0.9749
5.3795 1.6033 -2.9966 0.9749
5.2156 2.0757 -2.9967 0.9749
5.0102 2.5318 -2.9968 0.9749
4.4822 3.3803 -2.9970 0.9749
4.1638 3.7659 -2.9971 0.9749
1.1199 5.2118 -2.8458 0.9761
0.1781 5.3284 -2.8461 0.9761
-0.7695 5.2762 -2.8465 0.9761
-2.6092 4.7612 -2.8984 0.9757
-3.1283 4.6678 -2.9997 0.9748
-3.9067 4.0396 -3.0000 0.9748
-4.8357 2.8642 -3.0003 0.9748
-5.4209 1.4850 -3.0005 0.9748
-5.5317 0.9966 -3.0006 0.9748
-5.5985 0.5003 -3.0006 0.9748
-5.3811 -0.4808 -3.0005 0.9756
-5.2104 -1.4272 -3.0005 0.9756
-2.1635 -4.9480 -2.9994 0.9756
-1.2518 -5.2527 -2.9990 0.9756
0.1804 -5.3958 -2.9985 0.9756
1.1342 -5.2778 -2.9982 0.9756
2.4878 -4.7898 -2.9977 0.9756
3.6643 -3.9618 -2.9972 0.9756
4.0022 -3.6198 -2.9971 0.9756
4.5803 -2.8526 -2.9969 0.9756
4.8159 -2.4336 -2.9968 0.9756
5.0133 -1.9952 -2.9968 0.9756
5.3621 -0.5998 -2.9966 0.9756
5.3941 -0.1202 -2.9966 0.9756
5.3834 0.3604 -2.9966 0.9756
4.9195 2.2166 -2.9968 0.9756
4.4488 3.0539 -2.9970 0.9756
4.1595 3.4379 -2.9971 0.9756
3.8371 3.7946 -2.9972 0.9756
3.4843 4.1213 -2.9973 0.9756
2.6986 4.6742 -2.9976 0.9756
2.1990 4.7387 -2.9014 0.9764
1.7344 4.8210 -2.8456 0.9768
1.2985 4.9565 -2.8457 0.9768
0.8523 5.0527 -2.8459 0.9768
0.3992 5.1088 -2.8460 0.9768
-0.0571 5.1244 -2.8462 0.9768
-0.9649 5.0337 -2.8465 0.9768
-1.8423 4.7834 -2.8469 0.9768
-2.3352 4.7521 -2.9407 0.9761
-2.8040 4.6160 -2.9996 0.9756
-3.2038 4.3483 -2.9997 0.9756
-3.5783 4.0461 -2.9999 0.9756
-3.9244 3.7117 -3.0000 0.9756
-4.2393 3.3478 -3.0001 0.9756
-4.7660 2.5432 -3.0003 0.9756
-4.9736 2.1090 -3.0004 0.9756
-5.1416 1.6580 -3.0004 0.9756
-5.2689 1.1938 -3.0005 0.9756
-5.3543 0.7201 -3.0005 0.9756
-5.3972 -0.2407 -3.0005 0.9756
-5.3543 -0.7200 -3.0005 0.9756
-5.1416 -1.6579 -3.0004 0.9756
-4.9736 -2.1089 -3.0004 0.9756
-2.8039 -4.6159 -2.9996 0.9756
-1.9409 -5.0394 -2.9993 0.9756
-1.4846 -5.1918 -2.9991 0.9756
0.4206 -5.3823 -2.9984 0.9756
0.8979 -5.3231 -2.9982 0.9756
1.3681 -5.2218 -2.9981 0.9756
1.8273 -5.0791 -2.9979 0.9756
2.2720 -4.8960 -2.9977 0.9756
2.6986 -4.6741 -2.9976 0.9756
3.4843 -4.1212 -2.9973 0.9756
4.4488 -3.0539 -2.9970 0.9756
4.9195 -2.2166 -2.9968 0.9756
5.2343 -1.3092 -2.9967 0.9756
5.3300 -0.8381 -2.9967 0.9756
5.3834 -0.3604 -2.9966 0.9756
5.3941 0.1202 -2.9966 0.9756
5.3621 0.5999 -2.9966 0.9756
5.1709 1.5411 -2.9967 0.9756
5.0133 1.9953 -2.9968 0.9756
4.5803 2.8527 -2.9969 0.9756
4.3084 3.2491 -2.9970 0.9756
3.6643 3.9619 -2.9973 0.9756
3.2973 4.2725 -2.9974 0.9756
2.4551 4.7269 -2.9583 0.9759
0.6264 5.0858 -2.8460 0.9768
-0.2853 5.1169 -2.8463 0.9768
-0.7397 5.0715 -2.8465 0.9768
-1.6273 4.8605 -2.8468 0.9768
-2.0817 4.7611 -2.8860 0.9765
-3.0069 4.4866 -2.9997 0.9756
-4.0859 3.5332 -3.0001 0.9756
-4.6479 2.7530 -3.0003 0.9756
-5.3811 0.4809 -3.0005 0.9756
-5.1763 -0.4625 -3.0005 0.9763
-4.8700 -1.8136 -3.0003 0.9763
-4.6892 -2.2398 -3.0003 0.9763
-4.4711 -2.6482 -3.0002 0.9763
-3.9304 -3.3987 -3.0000 0.9763
-3.6122 -3.7349 -2.9999 0.9763
-2.8925 -4.3158 -2.9996 0.9763
-2.0812 -4.7598 -2.9993 0.9763
-1.6492 -4.9259 -2.9992 0.9763
-1.2042 -5.0529 -2.9990 0.9763
-0.2892 -5.1858 -2.9987 0.9763
1.9737 -4.8027 -2.9979 0.9763
2.7937 -4.3762 -2.9976 0.9763
3.1720 -4.1100 -2.9974 0.9763
4.1446 -3.1256 -2.9971 0.9763
4.6329 -2.3411 -2.9969 0.9763
4.8227 -1.9194 -2.9968 0.9763
4.9744 -1.4825 -2.9968 0.9763
5.0865 -1.0338 -2.9967 0.9763
5.1583 -0.5770 -2.9967 0.9763
5.1892 -0.1156 -2.9967 0.9763
4.5241 2.5452 -2.9969 0.9763
4.2797 2.9379 -2.9970 0.9763
4.0014 3.3072 -2.9971 0.9763
2.9858 4.2474 -2.9975 0.9763
2.5960 4.4965 -2.9977 0.9763
2.1856 4.7100 -2.9978 0.9763
1.7052 4.7397 -2.9081 0.9770
0.8199 4.8606 -2.8459 0.9775
-0.4935 4.9053 -2.8464 0.9775
-1.3615 4.7637 -2.8605 0.9774
-2.6973 4.4404 -2.9996 0.9763
-3.4422 3.8921 -2.9998 0.9763
-4.3486 2.8447 -3.0002 0.9763
-4.5847 2.4465 -3.0002 0.9763
-4.7843 2.0288 -3.0003 0.9763
-5.1918 0.2315 -3.0005 0.9763
-5.1506 -0.6926 -3.0004 0.9763
-4.0780 -3.2204 -3.0000 0.9763
-3.7751 -3.5704 -2.9999 0.9763
-3.0819 -4.1828 -2.9997 0.9763
-1.8671 -4.8477 -2.9992 0.9763
-1.4281 -4.9944 -2.9991 0.9763
-0.9779 -5.1014 -2.9989 0.9763
-0.0579 -5.1934 -2.9986 0.9763
0.4046 -5.1776 -2.9984 0.9763
0.8638 -5.1208 -2.9983 0.9763
1.3160 -5.0233 -2.9981 0.9763
1.7578 -4.8860 -2.9979 0.9763
3.3518 -3.9645 -2.9974 0.9763
4.2797 -2.9378 -2.9970 0.9763
4.5240 -2.5452 -2.9969 0.9763
4.7325 -2.1323 -2.9969 0.9763
4.9034 -1.7026 -2.9968 0.9763
5.0354 -1.2594 -2.9968 0.9763
5.1892 0.1156 -2.9967 0.9763
4.9744 1.4825 -2.9968 0.9763
4.6329 2.3411 -2.9969 0.9763
4.1446 3.1256 -2.9971 0.9763
3.1720 4.1101 -2.9974 0.9763
1.4728 4.7478 -2.8700 0.9773
0.6026 4.8924 -2.8460 0.9775
-0.2745 4.9223 -2.8463 0.9775
-2.0734 4.7421 -2.9881 0.9764
-2.8925 4.3159 -2.9996 0.9763
-3.6122 3.7350 -2.9999 0.9763
-3.9304 3.3988 -3.0000 0.9763
-4.4711 2.6483 -3.0002 0.9763
-4.6892 2.2398 -3.0003 0.9763
-5.0122 1.3730 -3.0004 0.9763
