ply
format ascii 1.0
element vertex 1630
property float32 x
property float32 y
property float32 z
property float32 I
end_header
-5.2432 7.1162 5.1033 0.9600
-5.2417 7.1141 4.7174 0.9607
-5.2409 7.1130 4.5296 0.9611
-5.2395 7.1111 4.1636 0.9617
-5.2387 7.1101 3.9850 0.9620
-5.2380 7.1091 3.8091 0.9623
-5.2366 7.1072 3.4648 0.9628
-5.2360 7.1063 3.2961 0.9630
-5.2353 7.1054 3.1295 0.9632
-5.2346 7.1045 2.9649 0.9634
-5.2340 7.1036 2.8022 0.9636
-5.2333 7.1028 2.6413 0.9638
-5.2321 7.1010 2.3242 0.9642
-5.2302 7.0985 1.8588 0.9646
-5.2296 7.0976 1.7061 0.9647
-5.2290 7.0968 1.5543 0.9648
-5.2284 7.0960 1.4035 0.9649
7.7644 -6.4174 1.6040 0.9600
7.4615 -6.7486 1.4310 0.9602
7.5752 -6.2611 1.3979 0.9611
8.2195 -5.6423 1.4181 0.9605
7.3105 -6.6120 1.2353 0.9610
8.6577 -5.3921 1.2782 0.9597
-5.2271 7.0944 1.1043 0.9651
7.4561 -6.1626 1.2122 0.9618
8.0750 -5.5432 1.2274 0.9613
7.2020 -6.5138 1.0533 0.9617
7.3613 -6.0843 1.0359 0.9623
7.9571 -5.4622 1.0469 0.9619
7.2908 -6.0260 0.8672 0.9627
9.3127 -5.2392 0.9796 0.9580
7.3827 -7.9820 0.8148 0.9573
7.4800 -5.6410 0.7021 0.9631
8.2647 -5.1473 0.7297 0.9617
-5.2254 7.0919 0.6601 0.9653
6.9909 -6.9135 0.7368 0.9613
8.2081 -5.1121 0.5632 0.9620
-5.2248 7.0911 0.5130 0.9653
7.1970 -5.9485 0.5438 0.9633
8.9035 -5.0090 0.5950 0.9599
7.0308 -7.6016 0.4305 0.9594
7.4057 -5.5849 0.3857 0.9635
8.1524 -5.0774 0.3993 0.9623
8.8068 -4.9546 0.4202 0.9604
7.3936 -5.5758 0.2309 0.9636
8.1342 -5.0661 0.2390 0.9624
7.7108 -5.2932 0.2332 0.9633
6.9678 -7.5335 0.0853 0.9598
7.3816 -5.5668 0.0768 0.9637
8.1166 -5.0551 0.0795 0.9625
-5.2230 7.0887 0.0732 0.9654
6.8676 -6.7915 0.0803 0.9621
7.1377 -5.8995 0.0770 0.9636
7.6978 -5.2843 0.0776 0.9633
6.9624 -6.2971 -0.0780 0.9631
7.3828 -5.5676 -0.0769 0.9637
6.9751 -6.3086 -0.2345 0.9631
7.3949 -5.5768 -0.2310 0.9636
8.1360 -5.0671 -0.2390 0.9624
-5.2218 7.0871 -0.2195 0.9654
6.8834 -6.8071 -0.2414 0.9620
7.7122 -5.2941 -0.2333 0.9633
7.0380 -7.6094 -0.4310 0.9594
8.1576 -5.0806 -0.3996 0.9623
6.9018 -6.8253 -0.4036 0.9619
7.7265 -5.3040 -0.3897 0.9632
7.1645 -7.7462 -0.6145 0.9586
7.0289 -6.3573 -0.5520 0.9627
7.4455 -5.6149 -0.5431 0.9633
8.2135 -5.1154 -0.5636 0.9620
-5.2207 7.0855 -0.5126 0.9654
6.9476 -6.8707 -0.5691 0.9616
7.7678 -5.3323 -0.5488 0.9630
7.0692 -6.3937 -0.7143 0.9625
8.2702 -5.1507 -0.7301 0.9617
-5.2201 7.0847 -0.6595 0.9653
6.9966 -6.9191 -0.7374 0.9613
9.0427 -5.0873 -0.7775 0.9592
7.1340 -6.4523 -0.8818 0.9621
7.5434 -5.6887 -0.8662 0.9628
8.3672 -5.2112 -0.9037 0.9612
7.0965 -7.0179 -0.9150 0.9607
7.2976 -6.0316 -0.8680 0.9627
7.8805 -5.4096 -0.8763 0.9623
7.6150 -5.7428 -1.0345 0.9624
7.2059 -7.1260 -1.0992 0.9600
7.9653 -5.4679 -1.0479 0.9619
7.3239 -6.6241 -1.2375 0.9610
-5.2183 7.0823 -1.1024 0.9652
7.4297 -7.3474 -1.3095 0.9588
7.4671 -6.1717 -1.2140 0.9617
8.0882 -5.5522 -1.2294 0.9612
9.0770 -5.6532 -1.5210 0.9577
-5.2177 7.0815 -1.2511 0.9651
7.5867 -6.2706 -1.4000 0.9610
8.2394 -5.6560 -1.4215 0.9604
7.7783 -7.0350 -1.6700 0.9584
7.7829 -6.4328 -1.6078 0.9599
8.4278 -6.3557 -1.8613 0.9580
13.3637 6.0214 -2.8365 0.9420
12.7766 7.1880 -2.8369 0.9420
12.0882 8.2981 -2.8374 0.9420
11.3038 9.3429 -2.8380 0.9420
10.4297 10.3141 -2.8386 0.9420
8.4399 12.0060 -2.8400 0.9420
7.3398 12.7130 -2.8408 0.9419
6.1810 13.3197 -2.8416 0.9419
4.9724 13.8212 -2.8425 0.9419
2.4447 14.4931 -2.8443 0.9419
-2.7706 14.4540 -2.8480 0.9418
-4.0474 14.1546 -2.8489 0.9418
-5.2159 7.0790 -1.7016 0.9648
13.6178 5.4198 -2.8363 0.9420
10.8776 9.8382 -2.8383 0.9420
9.9610 10.7698 -2.8389 0.9420
8.9652 11.6166 -2.8396 0.9420
7.8978 12.3717 -2.8404 0.9420
6.7672 13.0292 -2.8412 0.9419
5.5823 13.5839 -2.8420 0.9419
4.3525 14.0312 -2.8429 0.9419
3.0874 14.3674 -2.8438 0.9419
-0.8189 14.6871 -2.8466 0.9418
-2.1236 14.5607 -2.8476 0.9418
-4.6746 13.9624 -2.8494 0.9418
-14.2151 -1.2703 -3.0088 0.9433
-13.7633 -3.7701 -3.0085 0.9433
-12.8741 -6.1494 -3.0078 0.9433
-8.9581 -11.0876 -3.0051 0.9434
-7.9338 -11.8380 -3.0043 0.9434
-6.8469 -12.4940 -3.0036 0.9434
-5.7061 -13.0503 -3.0028 0.9434
-4.5207 -13.5025 -3.0019 0.9435
-3.3000 -13.8473 -3.0010 0.9435
2.9862 -13.8964 -2.9965 0.9436
4.2099 -13.5715 -2.9956 0.9436
5.3996 -13.1392 -2.9948 0.9436
8.6722 -11.2369 -2.9924 0.9436
9.6357 -10.4180 -2.9917 0.9436
10.5225 -9.5170 -2.9911 0.9437
12.0387 -7.4977 -2.9900 0.9437
13.1737 -5.2430 -2.9891 0.9437
13.8921 -2.8237 -2.9886 0.9437
14.0875 -1.5759 -2.9885 0.9437
14.1435 0.9468 -2.9884 0.9437
13.7527 3.4398 -2.9887 0.9437
12.2704 5.5288 -2.8373 0.9465
11.7312 6.5999 -2.8377 0.9465
10.3786 8.5782 -2.8386 0.9464
9.5758 9.4697 -2.8392 0.9464
7.7486 11.0226 -2.8405 0.9464
5.6745 12.2282 -2.8420 0.9464
2.2442 13.3043 -2.8444 0.9463
1.0514 13.4553 -2.8453 0.9463
-1.3517 13.4367 -2.8470 0.9463
-2.5431 13.2670 -2.8479 0.9463
-4.8579 12.6133 -2.8495 0.9462
-5.9629 12.1343 -2.8503 0.9462
-7.0212 11.5585 -2.8511 0.9462
-10.6232 8.3891 -2.8537 0.9462
-12.4680 5.2869 -2.8551 0.9461
-13.5807 4.3793 -3.0083 0.9433
-14.1440 1.9022 -3.0087 0.9433
-14.2577 -0.6358 -3.0088 0.9433
-14.1442 -1.9022 -3.0087 0.9433
-13.9180 -3.1534 -3.0086 0.9433
-11.1926 -8.8387 -3.0067 0.9434
-10.3595 -9.7979 -3.0061 0.9434
-8.4543 -11.4742 -3.0047 0.9434
-2.6795 -13.9785 -3.0006 0.9435
-1.4242 -14.1572 -2.9997 0.9435
-0.1585 -14.2235 -2.9988 0.9435
2.3645 -14.0178 -2.9970 0.9435
3.6017 -13.7476 -2.9961 0.9436
5.9787 -12.8838 -2.9944 0.9436
7.0998 -12.2972 -2.9936 0.9436
8.1641 -11.6135 -2.9928 0.9436
10.9349 -9.0379 -2.9908 0.9437
11.6937 -8.0273 -2.9902 0.9437
12.9278 -5.8250 -2.9893 0.9437
13.7530 -3.4398 -2.9887 0.9437
14.1435 -0.9468 -2.9884 0.9437
14.0874 1.5759 -2.9884 0.9437
13.5863 4.0492 -2.9888 0.9437
12.0127 6.0703 -2.8375 0.9465
8.2310 10.6652 -2.8402 0.9464
7.2508 11.3582 -2.8409 0.9464
6.2127 11.9616 -2.8416 0.9464
2.8342 13.1892 -2.8440 0.9463
0.4510 13.4908 -2.8457 0.9463
-1.9492 13.3652 -2.8474 0.9463
-4.2906 12.8153 -2.8491 0.9463
-5.4157 12.3862 -2.8499 0.9462
-6.4985 11.8582 -2.8507 0.9462
-9.4074 9.7272 -2.8528 0.9462
-10.2380 8.8531 -2.8534 0.9462
-11.6497 6.9001 -2.8545 0.9462
-12.2193 5.8367 -2.8549 0.9461
-13.7630 3.7701 -3.0084 0.9433
-14.2150 1.2703 -3.0087 0.9433
-11.8885 -5.6786 -3.0071 0.9474
-11.3344 -6.7134 -3.0067 0.9474
-7.3271 -10.9327 -3.0039 0.9474
-6.3234 -11.5387 -3.0032 0.9474
-5.2700 -12.0527 -3.0024 0.9475
-3.0479 -12.7894 -3.0008 0.9475
0.4390 -13.1293 -2.9983 0.9475
2.7583 -12.8363 -2.9967 0.9476
6.0468 -11.6422 -2.9943 0.9476
7.0574 -11.0551 -2.9936 0.9476
10.4631 -7.8906 -2.9911 0.9477
11.1221 -6.9269 -2.9906 0.9477
11.6929 -5.9087 -2.9902 0.9477
13.0155 -1.4560 -2.9892 0.9477
13.0672 0.8748 -2.9892 0.9477
12.9378 2.0344 -2.9893 0.9477
12.7061 3.1780 -2.9894 0.9477
11.3364 5.1080 -2.8380 0.9503
10.8381 6.0974 -2.8383 0.9503
10.2538 7.0389 -2.8387 0.9503
9.5882 7.9249 -2.8392 0.9502
8.0343 9.5031 -2.8403 0.9502
4.2167 11.7207 -2.8430 0.9502
3.1577 12.0527 -2.8438 0.9502
0.9712 12.4284 -2.8454 0.9501
-0.1389 12.4691 -2.8461 0.9501
-1.2485 12.4107 -2.8469 0.9501
-2.3488 12.2537 -2.8477 0.9501
-3.4311 11.9993 -2.8485 0.9501
-6.4843 10.6747 -2.8507 0.9500
-5.2146 7.0774 -2.0065 0.9646
-9.0801 8.5880 -2.8526 0.9500
-10.4626 6.8444 -2.8536 0.9500
-11.5135 4.8822 -2.8544 0.9500
-12.5409 4.0439 -3.0075 0.9474
-13.0609 1.7566 -3.0079 0.9474
-13.1658 -0.5871 -3.0080 0.9474
-10.3361 -8.1623 -3.0060 0.9474
-8.7218 -9.8618 -3.0049 0.9474
-7.8077 -10.5967 -3.0042 0.9474
-5.8024 -11.8075 -3.0028 0.9475
-4.7272 -12.2739 -3.0020 0.9475
-3.6151 -12.6426 -3.0013 0.9475
-2.4748 -12.9107 -3.0004 0.9475
2.1841 -12.9482 -2.9971 0.9476
3.3270 -12.6989 -2.9963 0.9476
4.4429 -12.3491 -2.9955 0.9476
5.5229 -11.9015 -2.9947 0.9476
7.5419 -10.7285 -2.9932 0.9476
8.4650 -10.0124 -2.9926 0.9476
9.3206 -9.2174 -2.9919 0.9476
10.1021 -8.3496 -2.9914 0.9476
10.8033 -7.4160 -2.9909 0.9477
11.9438 -5.3816 -2.9900 0.9477
12.3740 -4.2967 -2.9897 0.9477
12.9380 -2.0344 -2.9893 0.9477
13.0154 1.4560 -2.9892 0.9477
12.5523 3.7410 -2.9895 0.9477
11.0982 5.6082 -2.8381 0.9503
10.5564 6.5746 -2.8385 0.9503
9.9309 7.4893 -2.8390 0.9502
7.6038 9.8526 -2.8406 0.9502
4.7341 11.5197 -2.8427 0.9502
0.4166 12.4611 -2.8457 0.9501
-1.8004 12.3445 -2.8473 0.9501
-3.9627 11.8361 -2.8489 0.9501
-5.0018 11.4395 -2.8496 0.9501
-6.0016 10.9516 -2.8504 0.9501
-7.8520 9.7185 -2.8517 0.9500
-8.6877 8.9830 -2.8523 0.9500
-10.7579 6.3720 -2.8538 0.9500
-11.2839 5.3899 -2.8542 0.9500
-12.9694 2.3366 -3.0078 0.9474
-13.1264 1.1730 -3.0080 0.9474
-12.2349 0.0000 -3.0073 0.9509
-11.4637 -4.2691 -3.0068 0.9509
-11.0371 -5.2720 -3.0065 0.9509
-9.9249 -7.1435 -3.0057 0.9509
-8.4982 -8.7871 -3.0047 0.9509
-6.8029 -10.1505 -3.0035 0.9509
-5.8711 -10.7134 -3.0029 0.9509
-4.8931 -11.1908 -3.0022 0.9509
-3.8767 -11.5791 -3.0014 0.9509
-2.8300 -11.8753 -3.0007 0.9510
-1.7614 -12.0769 -2.9999 0.9510
-0.6793 -12.1826 -2.9991 0.9510
1.4907 -12.1037 -2.9976 0.9510
2.5615 -11.9199 -2.9968 0.9510
7.4402 -9.6406 -2.9933 0.9511
8.2671 -8.9383 -2.9927 0.9511
9.7175 -7.3283 -2.9916 0.9511
10.3297 -6.4334 -2.9912 0.9511
11.3040 -4.4989 -2.9905 0.9511
12.1607 -0.2710 -2.9898 0.9511
12.0164 1.8895 -2.9899 0.9511
11.4924 3.9906 -2.9903 0.9511
10.0659 5.6630 -2.8389 0.9535
8.9050 7.3602 -2.8397 0.9535
6.6478 9.4566 -2.8413 0.9535
5.7810 10.0130 -2.8419 0.9535
4.8679 10.4902 -2.8426 0.9535
2.9323 11.1925 -2.8440 0.9535
-0.1290 11.5784 -2.8461 0.9534
-2.1810 11.3780 -2.8476 0.9534
-4.1659 10.8165 -2.8491 0.9534
-5.1133 10.4052 -2.8497 0.9534
-5.1885 7.0419 -2.1500 0.9646
-7.6856 8.6903 -2.8516 0.9533
-9.1080 7.1925 -2.8526 0.9533
-9.7135 6.3543 -2.8531 0.9533
-10.2419 5.4653 -2.8535 0.9533
-11.6427 3.7543 -3.0069 0.9509
-12.1253 1.6307 -3.0072 0.9509
-12.2227 -0.5450 -3.0073 0.9509
-11.9317 -2.7033 -3.0071 0.9509
-9.5961 -7.5779 -3.0055 0.9509
-8.8820 -8.4005 -3.0050 0.9509
-7.2491 -9.8384 -3.0038 0.9509
-6.3432 -10.4424 -3.0032 0.9509
-5.3874 -10.9630 -3.0025 0.9509
-2.2979 -11.9880 -3.0003 0.9510
0.9502 -12.1597 -2.9980 0.9510
5.1289 -11.0525 -2.9950 0.9510
6.0909 -10.5497 -2.9943 0.9511
7.0041 -9.9635 -2.9936 0.9511
7.8615 -9.2986 -2.9930 0.9511
8.6563 -8.5604 -2.9924 0.9511
10.0335 -6.8876 -2.9914 0.9511
10.6053 -5.9664 -2.9910 0.9511
11.8013 -2.9517 -2.9901 0.9511
12.1366 -0.8124 -2.9899 0.9511
12.0884 1.3523 -2.9899 0.9511
11.9205 2.4230 -2.9900 0.9511
10.3076 5.2087 -2.8387 0.9535
9.8043 6.1062 -2.8391 0.9535
9.2233 6.9556 -2.8395 0.9535
8.5690 7.7502 -2.8399 0.9535
7.0617 9.1501 -2.8410 0.9535
6.2206 9.7444 -2.8416 0.9535
5.3298 10.2617 -2.8422 0.9535
4.3963 10.6979 -2.8429 0.9535
3.4275 11.0494 -2.8436 0.9535
-0.6447 11.5627 -2.8465 0.9534
-1.6717 11.4624 -2.8473 0.9534
-2.6860 11.2710 -2.8480 0.9534
-3.6795 10.9900 -2.8487 0.9534
-5.5724 10.1684 -2.8501 0.9534
-6.4567 9.6341 -2.8507 0.9534
-8.7778 7.5905 -2.8524 0.9533
-9.4201 6.7802 -2.8529 0.9533
-11.4634 4.2691 -3.0067 0.9509
-12.0404 2.1692 -3.0072 0.9509
-11.3654 -1.0156 -3.0067 0.9539
-11.2296 -2.0231 -3.0066 0.9539
-11.0044 -3.0144 -3.0065 0.9539
-10.6916 -3.9816 -3.0063 0.9539
-9.8143 -5.8130 -3.0056 0.9539
-9.2567 -6.6626 -3.0053 0.9539
-7.1641 -8.8670 -3.0038 0.9539
-6.3452 -9.4676 -3.0032 0.9539
-5.4762 -9.9928 -3.0026 0.9540
-4.5641 -10.4383 -3.0019 0.9540
-3.6161 -10.8006 -3.0012 0.9540
-1.6430 -11.2653 -2.9998 0.9540
-0.6337 -11.3641 -2.9991 0.9540
3.3689 -10.8603 -2.9962 0.9541
4.3212 -10.5149 -2.9955 0.9541
5.2388 -10.0864 -2.9949 0.9541
6.1144 -9.5781 -2.9942 0.9541
9.6374 -6.0022 -2.9917 0.9541
10.1321 -5.1199 -2.9913 0.9541
10.8774 -3.2418 -2.9908 0.9541
11.1221 -2.2606 -2.9906 0.9541
11.2787 -1.2617 -2.9905 0.9541
9.3914 5.2835 -2.8394 0.9564
8.8850 6.0992 -2.8397 0.9564
8.3080 6.8668 -2.8401 0.9564
7.6651 7.5802 -2.8406 0.9564
6.2019 8.8224 -2.8416 0.9564
5.3932 9.3413 -2.8422 0.9564
3.6531 10.1540 -2.8434 0.9563
2.7355 10.4412 -2.8441 0.9563
1.7957 10.6458 -2.8448 0.9563
0.8413 10.7659 -2.8455 0.9563
-0.1203 10.8007 -2.8461 0.9563
-1.0814 10.7497 -2.8468 0.9563
-4.7694 9.7055 -2.8495 0.9563
-5.1579 7.0004 -2.2912 0.9647
-7.1684 8.1055 -2.8512 0.9562
-9.0595 5.9265 -2.8526 0.9562
-9.5523 5.0973 -2.8530 0.9562
-10.5029 4.4537 -3.0061 0.9539
-11.3086 1.5209 -3.0067 0.9539
-11.3994 0.5083 -3.0067 0.9539
-11.3087 -1.5209 -3.0067 0.9539
-10.8588 -3.5015 -3.0064 0.9539
-10.5032 -4.4537 -3.0061 0.9539
-10.0641 -5.3703 -3.0058 0.9539
-9.5450 -6.2440 -3.0055 0.9539
-8.9501 -7.0678 -3.0050 0.9539
-7.5526 -8.5399 -3.0040 0.9539
-6.7613 -9.1765 -3.0035 0.9539
-4.0941 -10.6300 -3.0016 0.9540
-2.1435 -11.1823 -3.0002 0.9540
3.8489 -10.6982 -2.9959 0.9541
4.7848 -10.3109 -2.9952 0.9541
5.6823 -9.8420 -2.9946 0.9541
6.5344 -9.2952 -2.9939 0.9541
7.3343 -8.6751 -2.9934 0.9541
9.8946 -5.5666 -2.9915 0.9541
10.3496 -4.6633 -2.9912 0.9541
11.2115 -1.7629 -2.9905 0.9541
11.3460 0.2529 -2.9904 0.9541
9.6169 4.8596 -2.8392 0.9564
7.3205 7.9148 -2.8408 0.9564
5.8034 9.0908 -2.8419 0.9564
4.9722 9.5733 -2.8425 0.9564
-0.6014 10.7859 -2.8465 0.9563
-1.5594 10.6921 -2.8472 0.9563
-4.9569 7.3962 -2.3461 0.9638
-7.5231 7.7788 -2.8515 0.9562
-8.1870 7.0796 -2.8520 0.9562
-8.7859 6.3238 -2.8524 0.9562
-9.3152 5.5174 -2.8528 0.9562
-9.9967 4.7750 -2.9192 0.9552
-11.2294 2.0231 -3.0066 0.9539
-10.6848 0.0000 -3.0062 0.9566
-10.3043 -2.8226 -3.0060 0.9566
-9.6391 -4.6042 -3.0055 0.9566
-9.1900 -5.4433 -3.0052 0.9566
-8.6680 -6.2388 -3.0048 0.9566
-8.0772 -6.9846 -3.0044 0.9566
-7.4223 -7.6746 -3.0039 0.9566
-6.7087 -8.3034 -3.0034 0.9566
-4.2741 -9.7751 -3.0017 0.9566
-0.5934 -10.6428 -2.9991 0.9567
0.3561 -10.6509 -2.9984 0.9567
1.3024 -10.5746 -2.9977 0.9567
2.2379 -10.4144 -2.9970 0.9567
3.1553 -10.1716 -2.9964 0.9567
4.9067 -9.4470 -2.9951 0.9567
7.8894 -7.1355 -2.9930 0.9568
8.4919 -6.4040 -2.9925 0.9568
9.0270 -5.6221 -2.9921 0.9568
9.4905 -4.7958 -2.9918 0.9568
10.5647 -1.1818 -2.9910 0.9568
10.6067 0.7101 -2.9909 0.9568
10.3134 2.5796 -2.9911 0.9568
8.7967 4.9490 -2.8398 0.9589
7.7818 6.4319 -2.8405 0.9589
7.1795 7.1000 -2.8409 0.9589
5.8089 8.2633 -2.8419 0.9589
5.0513 8.7492 -2.8425 0.9589
4.2534 9.1659 -2.8430 0.9589
-1.0128 10.0673 -2.8468 0.9588
-2.7829 9.7326 -2.8481 0.9588
-5.2587 8.6570 -2.8499 0.9588
-6.7127 7.5902 -2.8509 0.9588
-7.3629 6.9638 -2.8514 0.9588
-7.9547 6.2818 -2.8518 0.9588
-8.4834 5.5496 -2.8522 0.9588
-8.9735 4.7884 -2.8617 0.9586
-9.8348 4.1704 -3.0056 0.9566
-10.1678 3.2787 -3.0058 0.9566
-10.4199 2.3609 -3.0060 0.9566
-10.5891 1.4241 -3.0061 0.9566
-10.6741 -0.4759 -3.0062 0.9566
-10.4200 -2.3608 -3.0060 0.9566
-9.4239 -5.0287 -3.0054 0.9566
-8.3809 -6.6183 -3.0046 0.9566
-7.0725 -7.9970 -3.0037 0.9566
-3.8340 -9.9547 -3.0014 0.9566
-1.0671 -10.6070 -2.9994 0.9567
-0.1187 -10.6575 -2.9987 0.9567
1.7720 -10.5049 -2.9974 0.9567
3.6049 -10.0198 -2.9961 0.9567
4.4814 -9.6572 -2.9954 0.9567
5.3221 -9.2181 -2.9948 0.9567
6.1203 -8.7061 -2.9942 0.9567
7.5643 -7.4805 -2.9932 0.9568
8.1988 -6.7765 -2.9927 0.9568
8.7682 -6.0190 -2.9923 0.9568
9.2680 -5.2141 -2.9919 0.9568
9.6943 -4.3680 -2.9916 0.9568
10.0437 -3.4875 -2.9914 0.9568
10.3136 -2.5796 -2.9912 0.9568
10.6067 -0.7100 -2.9909 0.9568
9.3551 4.7273 -2.9491 0.9574
7.4881 6.7727 -2.8407 0.9589
6.8567 7.4134 -2.8412 0.9589
4.6570 8.9664 -2.8427 0.9589
3.8413 9.3473 -2.8433 0.9589
2.9947 9.6541 -2.8439 0.9589
2.1241 9.8845 -2.8445 0.9589
0.3380 10.1090 -2.8458 0.9588
-3.2141 9.6000 -2.8484 0.9588
-4.0566 9.2778 -2.8490 0.9588
-6.3674 7.8811 -2.8507 0.9588
-7.0448 7.2843 -2.8511 0.9588
-7.6664 6.6294 -2.8516 0.9588
-8.7227 5.1665 -2.8524 0.9587
-9.6388 4.6041 -3.0054 0.9566
-10.0112 3.7283 -3.0057 0.9566
-10.3041 2.8226 -3.0059 0.9566
-10.6422 0.9510 -3.0062 0.9566
-10.0399 0.0000 -3.0058 0.9589
-10.0000 -0.8936 -3.0057 0.9589
-9.8805 -1.7801 -3.0057 0.9589
-9.6824 -2.6523 -3.0055 0.9589
-8.1451 -5.8625 -3.0044 0.9590
-7.5900 -6.5633 -3.0041 0.9590
-6.9747 -7.2118 -3.0036 0.9590
-5.5837 -8.3314 -3.0026 0.9590
-4.8191 -8.7937 -3.0021 0.9590
-4.0165 -9.1860 -3.0015 0.9590
-1.4460 -9.9147 -2.9997 0.9590
0.3347 -10.0097 -2.9984 0.9590
2.1032 -9.7877 -2.9971 0.9591
2.9654 -9.5596 -2.9965 0.9591
3.8038 -9.2559 -2.9959 0.9591
4.6116 -8.8788 -2.9953 0.9591
6.7899 -7.3411 -2.9937 0.9591
7.9817 -6.0192 -2.9929 0.9591
8.4847 -5.2843 -2.9925 0.9591
8.9204 -4.5076 -2.9922 0.9591
9.2854 -3.6954 -2.9919 0.9591
9.7922 -1.9903 -2.9915 0.9591
9.9302 -1.1108 -2.9914 0.9591
9.9696 0.6674 -2.9914 0.9591
9.8709 1.5521 -2.9915 0.9591
8.4245 4.7396 -2.8939 0.9604
7.8222 5.3697 -2.8405 0.9612
7.3142 6.0454 -2.8409 0.9612
6.7480 6.6733 -2.8413 0.9611
6.1283 7.2486 -2.8417 0.9611
3.9976 8.6147 -2.8432 0.9611
3.2156 8.9380 -2.8438 0.9611
2.4078 9.1906 -2.8443 0.9611
1.5806 9.3704 -2.8449 0.9611
0.7405 9.4759 -2.8455 0.9611
-0.9518 9.4611 -2.8468 0.9611
-3.4197 8.8790 -2.8485 0.9611
-4.1972 8.5411 -2.8491 0.9610
-4.9417 8.1351 -2.8496 0.9610
-6.3080 7.1326 -2.8506 0.9610
-6.9188 6.5438 -2.8511 0.9610
-7.4749 5.9029 -2.8515 0.9610
-9.2414 3.9187 -3.0052 0.9590
-9.5542 3.0809 -3.0054 0.9590
-9.7911 2.2184 -3.0056 0.9589
-9.9501 1.3382 -3.0057 0.9589
-10.0299 0.4473 -3.0057 0.9589
-9.9502 -1.3381 -3.0057 0.9589
-9.2416 -3.9188 -3.0052 0.9590
-7.8754 -6.2191 -3.0043 0.9590
-7.2896 -6.8944 -3.0038 0.9590
-5.9498 -8.0751 -3.0029 0.9590
-1.8865 -9.8415 -3.0000 0.9590
-0.1116 -10.0158 -2.9987 0.9590
0.7801 -9.9838 -2.9981 0.9590
1.6653 -9.8727 -2.9974 0.9591
3.3880 -9.4171 -2.9962 0.9591
4.2119 -9.0763 -2.9956 0.9591
5.7523 -8.1827 -2.9945 0.9591
7.1097 -7.0309 -2.9935 0.9591
7.7061 -6.3692 -2.9931 0.9591
8.2413 -5.6573 -2.9927 0.9591
9.4404 -3.2780 -2.9918 0.9591
9.9697 -0.6674 -2.9914 0.9591
9.9894 0.2227 -2.9914 0.9591
9.9301 1.1109 -2.9914 0.9591
8.9202 4.5076 -2.9921 0.9591
8.0532 5.0156 -2.8403 0.9612
7.5757 5.7132 -2.8407 0.9612
7.0381 6.3656 -2.8411 0.9612
6.4446 6.9678 -2.8415 0.9611
5.7998 7.5150 -2.8419 0.9611
4.3770 8.4272 -2.8429 0.9611
3.6102 8.7851 -2.8435 0.9611
1.9962 9.2898 -2.8446 0.9611
1.1617 9.4325 -2.8452 0.9611
-0.5293 9.4931 -2.8465 0.9611
-1.3725 9.4103 -2.8471 0.9611
-2.2050 9.2528 -2.8477 0.9611
-3.0204 9.0216 -2.8482 0.9611
-5.9835 7.4059 -2.8504 0.9610
-6.6200 6.8450 -2.8508 0.9610
-7.7309 5.5644 -2.8517 0.9610
-9.0573 4.3263 -3.0050 0.9590
-9.6823 2.6523 -3.0055 0.9589
-10.0000 0.8936 -3.0057 0.9589
-9.4631 0.0000 -3.0053 0.9611
-9.4255 -0.8422 -3.0053 0.9611
-9.1262 -2.4999 -3.0051 0.9611
-8.8670 -3.3021 -3.0049 0.9611
-8.5372 -4.0779 -3.0047 0.9611
-7.6774 -5.5258 -3.0041 0.9611
-6.5743 -6.7978 -3.0033 0.9611
-3.7861 -8.6590 -3.0013 0.9611
-2.1900 -9.1895 -3.0002 0.9611
-1.3631 -9.3462 -2.9996 0.9611
-0.5257 -9.4285 -2.9990 0.9611
1.9827 -9.2269 -2.9972 0.9612
3.5859 -8.7258 -2.9961 0.9612
4.3475 -8.3704 -2.9955 0.9612
5.7608 -7.4644 -2.9945 0.9612
6.9909 -6.3229 -2.9936 0.9612
7.5250 -5.6748 -2.9932 0.9612
7.9992 -4.9820 -2.9929 0.9612
9.0290 -2.6909 -2.9921 0.9612
9.2322 -1.8765 -2.9919 0.9612
9.4181 -0.2099 -2.9918 0.9612
9.1395 2.2859 -2.9920 0.9612
8.9003 3.0905 -2.9921 0.9612
8.5905 3.8707 -2.9924 0.9612
6.8957 5.6994 -2.8412 0.9632
5.7775 6.8337 -2.8420 0.9631
5.1471 7.3219 -2.8424 0.9631
2.2699 8.6641 -2.8445 0.9631
1.4900 8.8335 -2.8450 0.9631
-0.0998 8.9613 -2.8461 0.9631
-1.6878 8.8052 -2.8473 0.9631
-2.4653 8.6217 -2.8478 0.9631
-3.2235 8.3696 -2.8484 0.9631
-4.6581 7.6683 -2.8494 0.9630
-5.9459 6.7231 -2.8504 0.9630
-7.0457 5.5639 -2.8512 0.9630
-7.5138 4.9153 -2.8515 0.9630
-8.3465 4.4539 -3.0045 0.9611
-9.0054 2.9039 -3.0050 0.9611
-9.2286 2.0910 -3.0052 0.9611
-9.4537 0.4216 -3.0053 0.9611
-9.4537 -0.4215 -3.0053 0.9611
-9.3785 -1.2613 -3.0053 0.9611
-9.0056 -2.9039 -3.0050 0.9611
-6.8711 -6.4986 -3.0035 0.9611
-4.9077 -8.0792 -3.0021 0.9611
-3.3963 -8.8182 -3.0011 0.9611
-0.1052 -9.4416 -2.9987 0.9611
0.7354 -9.4116 -2.9981 0.9612
2.3916 -9.1285 -2.9969 0.9612
3.1939 -8.8777 -2.9963 0.9612
3.9707 -8.5566 -2.9958 0.9612
4.7157 -8.1677 -2.9952 0.9612
5.4230 -7.7143 -2.9947 0.9612
7.7698 -5.3337 -2.9930 0.9612
8.5907 -3.8707 -2.9924 0.9612
9.3064 -1.4633 -2.9919 0.9612
9.3995 -0.6292 -2.9918 0.9612
9.4181 0.2099 -2.9918 0.9612
8.7540 3.4841 -2.9922 0.9612
8.4099 4.2497 -2.9925 0.9612
7.1423 5.3863 -2.8410 0.9632
6.0757 6.5690 -2.8417 0.9631
4.1264 7.9447 -2.8431 0.9631
2.6533 8.5536 -2.8442 0.9631
1.0952 8.8920 -2.8453 0.9631
0.2994 8.9560 -2.8459 0.9631
-0.4990 8.9489 -2.8464 0.9631
-3.5935 8.2185 -2.8487 0.9631
-4.3115 7.8675 -2.8492 0.9630
-4.8951 7.3040 -2.7924 0.9638
-6.7904 5.8719 -2.8510 0.9630
-7.2870 5.2449 -2.8513 0.9630
-8.5370 4.0778 -3.0046 0.9611
-9.1261 2.4999 -3.0051 0.9611
-9.3128 1.6778 -3.0052 0.9611
-8.9438 0.0000 -3.0050 0.9630
-8.9083 -0.7960 -3.0050 0.9630
-8.8019 -1.5857 -3.0049 0.9630
-8.3805 -3.1209 -3.0046 0.9630
-6.2138 -6.4250 -3.0031 0.9630
-3.5786 -8.1844 -3.0012 0.9630
-2.8354 -8.4689 -3.0007 0.9630
-2.0700 -8.6861 -3.0001 0.9630
-0.4969 -8.9122 -2.9990 0.9630
1.0907 -8.8557 -2.9978 0.9630
1.8742 -8.7218 -2.9973 0.9631
2.6426 -8.5188 -2.9967 0.9631
4.7968 -7.5141 -2.9952 0.9631
6.0513 -6.5425 -2.9943 0.9631
7.1136 -5.3646 -2.9935 0.9631
8.2758 -3.2936 -2.9926 0.9631
8.7277 -1.7739 -2.9923 0.9631
8.9035 -0.1984 -2.9922 0.9631
8.8859 0.5949 -2.9922 0.9631
8.7978 1.3834 -2.9922 0.9631
8.4139 2.9217 -2.9925 0.9631
8.1210 3.6592 -2.9927 0.9631
7.7637 4.3679 -2.9929 0.9631
6.5187 5.3879 -2.8414 0.9649
6.0140 5.9474 -2.8418 0.9649
4.8657 6.9215 -2.8426 0.9649
1.4085 8.3500 -2.8451 0.9649
-0.0944 8.4707 -2.8461 0.9649
-1.5954 8.3229 -2.8472 0.9649
-2.3302 8.1494 -2.8478 0.9649
-5.0312 6.8284 -2.8497 0.9648
-5.6198 6.3544 -2.8501 0.9648
-6.6592 5.2588 -2.8509 0.9648
-7.2884 4.7679 -2.9262 0.9639
-8.2327 3.4910 -3.0044 0.9630
-8.7223 1.9762 -3.0048 0.9630
-8.8638 1.1921 -3.0049 0.9630
-8.8639 -1.1921 -3.0049 0.9630
-8.5114 -2.7445 -3.0047 0.9630
-8.2328 -3.4910 -3.0045 0.9630
-7.4821 -4.8945 -3.0040 0.9630
-6.4942 -6.1422 -3.0033 0.9630
-5.9210 -6.6949 -3.0029 0.9630
-5.3008 -7.1942 -3.0024 0.9630
-4.6387 -7.6363 -3.0019 0.9630
-3.9400 -8.0176 -3.0014 0.9630
-2.4551 -8.5861 -3.0004 0.9630
-1.6809 -8.7689 -2.9998 0.9630
1.4840 -8.7975 -2.9976 0.9631
3.0192 -8.3919 -2.9965 0.9631
3.7534 -8.0884 -2.9959 0.9631
5.1264 -7.2924 -2.9949 0.9631
6.3363 -6.2661 -2.9941 0.9631
6.8680 -5.6765 -2.9937 0.9631
7.3451 -5.0421 -2.9933 0.9631
8.4140 -2.9216 -2.9925 0.9631
8.6402 -2.1611 -2.9924 0.9631
8.7979 -1.3834 -2.9923 0.9631
8.9035 0.1984 -2.9922 0.9631
8.8506 0.9901 -2.9922 0.9631
8.5354 2.5439 -2.9924 0.9631
8.2757 3.2937 -2.9926 0.9631
7.9503 4.0175 -2.9928 0.9631
6.2726 5.6733 -2.8416 0.9649
3.2173 7.8288 -2.8438 0.9649
2.5082 8.0855 -2.8443 0.9649
1.7789 8.2782 -2.8448 0.9649
0.2830 8.4656 -2.8459 0.9649
-0.4717 8.4588 -2.8464 0.9649
-1.2229 8.3849 -2.8470 0.9649
-1.9647 8.2443 -2.8475 0.9649
-2.6912 8.0382 -2.8480 0.9649
-4.7216 7.0452 -2.8495 0.9648
-5.8977 6.0982 -2.8503 0.9648
-6.8873 4.9572 -2.8511 0.9648
-7.6929 4.5565 -3.0040 0.9630
-8.0687 3.8541 -3.0043 0.9630
-8.3803 3.1209 -3.0045 0.9630
-8.6253 2.3628 -3.0047 0.9630
-8.8018 1.5858 -3.0049 0.9630
-8.9083 0.7961 -3.0049 0.9630
-8.4400 -0.7542 -3.0046 0.9647
-7.9399 -2.9568 -3.0043 0.9647
-6.8749 -4.9482 -3.0035 0.9647
-6.4065 -5.5399 -3.0032 0.9647
-5.8873 -6.0874 -3.0028 0.9647
-5.3214 -6.5863 -3.0024 0.9647
-4.7134 -7.0328 -3.0020 0.9647
-4.0681 -7.4233 -3.0015 0.9647
-3.3907 -7.7546 -3.0011 0.9647
-2.6866 -8.0243 -3.0005 0.9647
-1.9614 -8.2302 -3.0000 0.9647
-0.4709 -8.4445 -2.9990 0.9647
1.0335 -8.3912 -2.9979 0.9648
1.7759 -8.2644 -2.9973 0.9648
3.2120 -7.8159 -2.9963 0.9648
5.1604 -6.6864 -2.9949 0.9648
6.2625 -5.6640 -2.9941 0.9648
7.5340 -3.8071 -2.9932 0.9648
7.8424 -3.1212 -2.9930 0.9648
8.0886 -2.4106 -2.9928 0.9648
8.4373 -0.1880 -2.9925 0.9648
8.3371 1.3110 -2.9926 0.9648
8.1877 2.0479 -2.9927 0.9648
7.6957 3.4675 -2.9930 0.9648
6.1772 5.1056 -2.8417 0.9666
4.6107 6.5588 -2.8428 0.9665
4.0092 6.9442 -2.8432 0.9665
3.3758 7.2746 -2.8437 0.9665
2.0332 7.7605 -2.8446 0.9665
1.3346 7.9121 -2.8451 0.9665
-0.0894 8.0262 -2.8462 0.9665
-2.2079 7.7216 -2.8477 0.9665
-3.5432 7.2102 -2.8486 0.9665
-4.1715 6.8673 -2.8491 0.9665
-5.8401 5.5235 -2.8503 0.9665
-6.3093 4.9824 -2.8506 0.9665
-7.0887 4.6372 -3.0036 0.9647
-8.3978 1.1294 -3.0046 0.9647
-8.4652 0.3775 -3.0046 0.9647
-8.4652 -0.3775 -3.0046 0.9647
-8.3979 -1.1294 -3.0046 0.9647
-7.8001 -3.3075 -3.0042 0.9647
-7.0889 -4.6373 -3.0037 0.9647
-6.1530 -5.8195 -3.0030 0.9647
-4.3951 -7.2352 -3.0018 0.9647
-3.7331 -7.5965 -3.0013 0.9647
-3.0416 -7.8973 -3.0008 0.9647
-2.3262 -8.1353 -3.0003 0.9647
-1.5926 -8.3086 -2.9998 0.9647
1.4061 -8.3361 -2.9976 0.9648
2.8609 -7.9519 -2.9966 0.9648
3.5567 -7.6644 -2.9961 0.9648
4.8577 -6.9102 -2.9951 0.9648
5.4527 -6.4495 -2.9947 0.9648
6.0043 -5.9378 -2.9943 0.9648
6.9604 -4.7780 -2.9936 0.9648
7.9734 -2.7686 -2.9929 0.9648
8.1877 -2.0479 -2.9927 0.9648
8.4206 -0.5637 -2.9925 0.9648
8.3872 0.9383 -2.9925 0.9648
7.8423 3.1212 -2.9929 0.9648
7.5339 3.8071 -2.9931 0.9648
7.1658 4.4629 -2.9934 0.9648
4.8979 6.3464 -2.8426 0.9665
0.9809 7.9644 -2.8454 0.9665
0.2682 8.0215 -2.8459 0.9665
-1.8616 7.8115 -2.8474 0.9665
-2.5499 7.6162 -2.8479 0.9665
-5.5879 5.7778 -2.8501 0.9665
-6.6299 4.7719 -2.8965 0.9659
-7.2886 4.3170 -3.0037 0.9647
-8.0456 0.0000 -3.0043 0.9662
-7.9179 -1.4265 -3.0042 0.9662
-7.7593 -2.1254 -3.0041 0.9662
-7.2586 -3.4672 -3.0038 0.9662
-6.9207 -4.0991 -3.0036 0.9662
-6.5278 -4.6984 -3.0033 0.9662
-5.5901 -5.7801 -3.0026 0.9662
-5.0528 -6.2539 -3.0022 0.9663
-4.4755 -6.6779 -3.0018 0.9663
-3.8628 -7.0487 -3.0014 0.9663
-3.2196 -7.3634 -3.0009 0.9663
-2.5510 -7.6195 -3.0004 0.9663
-1.8624 -7.8150 -3.0000 0.9663
0.9814 -7.9682 -2.9979 0.9663
3.0502 -7.4222 -2.9964 0.9663
3.6981 -7.1201 -2.9960 0.9663
5.4455 -5.8876 -2.9947 0.9663
5.9472 -5.3789 -2.9943 0.9663
6.4016 -4.8277 -2.9940 0.9663
6.8053 -4.2383 -2.9937 0.9663
7.1549 -3.6155 -2.9935 0.9664
7.9652 -0.8910 -2.9928 0.9664
7.9176 1.2450 -2.9929 0.9664
7.7757 1.9448 -2.9930 0.9664
7.3084 3.2931 -2.9933 0.9664
5.8663 4.8486 -2.8419 0.9680
5.4120 5.3521 -2.8422 0.9680
3.2057 6.9082 -2.8438 0.9680
2.5785 7.1672 -2.8442 0.9680
1.9307 7.3695 -2.8447 0.9680
1.2673 7.5133 -2.8452 0.9680
0.5937 7.5976 -2.8457 0.9680
-0.0849 7.6216 -2.8462 0.9680
-0.7631 7.5851 -2.8466 0.9680
-1.4354 7.4883 -2.8471 0.9680
-2.0965 7.3321 -2.8476 0.9680
-2.7413 7.1175 -2.8481 0.9680
-3.3644 6.8464 -2.8485 0.9680
-5.0558 5.7167 -2.8497 0.9679
-5.5453 5.2447 -2.8501 0.9679
-7.4060 3.1404 -3.0038 0.9662
-7.6566 2.4690 -3.0040 0.9662
-8.0376 -0.3584 -3.0043 0.9662
-7.9737 -1.0723 -3.0043 0.9662
-6.7309 -4.4031 -3.0034 0.9662
-6.3117 -4.9842 -3.0031 0.9662
-5.8424 -5.5256 -3.0028 0.9662
-4.7689 -6.4723 -3.0020 0.9663
-4.1733 -6.8701 -3.0016 0.9663
-3.5447 -7.2132 -3.0012 0.9663
-2.8882 -7.4989 -3.0007 0.9663
-2.2089 -7.7249 -3.0002 0.9663
1.3353 -7.9159 -2.9977 0.9663
3.3775 -7.2783 -2.9962 0.9663
4.0113 -6.9478 -2.9957 0.9663
4.6131 -6.5622 -2.9953 0.9663
5.7020 -5.6388 -2.9945 0.9663
6.1806 -5.1083 -2.9942 0.9663
7.5722 -2.6293 -2.9931 0.9664
7.7757 -1.9448 -2.9930 0.9664
7.9177 -1.2450 -2.9929 0.9664
8.0128 0.1786 -2.9928 0.9664
7.6815 2.2893 -2.9930 0.9664
7.4476 2.9641 -2.9932 0.9664
6.2803 4.7362 -2.9373 0.9670
5.1686 5.5882 -2.8424 0.9680
0.2547 7.6171 -2.8459 0.9680
-0.4244 7.6109 -2.8464 0.9680
-1.1003 7.5442 -2.8469 0.9680
-3.0558 6.9889 -2.8483 0.9680
-4.2479 6.3383 -2.8491 0.9679
-5.3058 5.4862 -2.8499 0.9679
-6.5276 4.6983 -3.0032 0.9662
-7.2585 3.4671 -3.0037 0.9662
-7.5388 2.8075 -3.0039 0.9662
-7.9179 1.4265 -3.0042 0.9662
-8.0136 0.7162 -3.0043 0.9662
-7.6542 0.0000 -3.0040 0.9676
-7.6238 -0.6812 -3.0040 0.9676
-6.9055 -3.2985 -3.0035 0.9677
-6.2103 -4.4699 -3.0030 0.9677
-5.3182 -5.4990 -3.0024 0.9677
-4.8071 -5.9498 -3.0021 0.9677
-3.6750 -6.7061 -3.0012 0.9677
-3.0631 -7.0055 -3.0008 0.9677
-2.4271 -7.2493 -3.0004 0.9677
0.2553 -7.6356 -2.9984 0.9677
0.9337 -7.5813 -2.9979 0.9677
1.6046 -7.4669 -2.9975 0.9677
2.2624 -7.2933 -2.9970 0.9677
3.5187 -6.7746 -2.9961 0.9677
4.6628 -6.0417 -2.9953 0.9677
6.0912 -4.5936 -2.9942 0.9677
6.4753 -4.0328 -2.9939 0.9678
7.0867 -2.8204 -2.9935 0.9678
7.6244 -0.1699 -2.9931 0.9678
7.3987 1.8506 -2.9932 0.9678
7.2050 2.5018 -2.9934 0.9678
5.7355 4.7405 -2.9204 0.9685
4.6764 5.5313 -2.8428 0.9694
4.1661 5.9263 -2.8431 0.9694
3.6226 6.2745 -2.8435 0.9693
3.0502 6.5730 -2.8439 0.9693
1.8370 7.0118 -2.8448 0.9693
1.2058 7.1486 -2.8452 0.9693
-0.7260 7.2166 -2.8466 0.9693
-1.9947 6.9758 -2.8475 0.9693
-2.6080 6.7717 -2.8480 0.9693
-3.2009 6.5136 -2.8484 0.9693
-4.8100 5.4387 -2.8496 0.9693
-6.7514 3.6027 -3.0034 0.9677
-7.2841 2.3488 -3.0038 0.9676
-7.4646 1.6913 -3.0039 0.9676
-7.5857 1.0202 -3.0040 0.9676
-7.6466 0.3410 -3.0040 0.9676
-7.6466 -0.3410 -3.0040 0.9676
-7.4647 -1.6912 -3.0039 0.9676
-6.0047 -4.7419 -3.0029 0.9677
-5.5582 -5.2569 -3.0026 0.9677
-5.0677 -5.7301 -3.0022 0.9677
-2.1016 -7.3496 -3.0001 0.9677
-0.7649 -7.6034 -2.9992 0.9677
-0.0851 -7.6400 -2.9987 0.9677
0.5951 -7.6160 -2.9982 0.9677
1.9354 -7.3875 -2.9972 0.9677
3.2136 -6.9251 -2.9963 0.9677
3.8167 -6.6107 -2.9959 0.9677
4.9270 -5.8277 -2.9951 0.9677
5.4255 -5.3654 -2.9947 0.9677
6.2895 -4.3175 -2.9941 0.9678
6.6482 -3.7402 -2.9938 0.9678
6.9542 -3.1334 -2.9936 0.9678
7.6093 -0.5094 -2.9931 0.9678
7.6244 0.1699 -2.9931 0.9678
7.5790 0.8479 -2.9931 0.9678
7.4737 1.5191 -2.9932 0.9678
6.0911 4.5935 -2.9941 0.9677
5.3710 4.8578 -2.8423 0.9694
3.3397 6.4301 -2.8437 0.9693
2.1474 6.9224 -2.8446 0.9693
0.8862 7.1958 -2.8455 0.9693
0.2423 7.2473 -2.8459 0.9693
-1.0468 7.1778 -2.8468 0.9693
-1.6818 7.0572 -2.8473 0.9693
-2.9073 6.6493 -2.8482 0.9693
-3.4881 6.3651 -2.8486 0.9693
-4.5626 5.6473 -2.8494 0.9693
-6.5839 3.8997 -3.0032 0.9677
-6.9054 3.2985 -3.0035 0.9677
-7.1721 2.6709 -3.0037 0.9676
-7.6237 0.6813 -3.0040 0.9676
-6.8353 -2.5454 -3.0035 0.9689
-6.5812 -3.1436 -3.0033 0.9689
-5.5155 -4.7694 -3.0026 0.9689
-4.5814 -5.6705 -3.0019 0.9690
-4.0580 -6.0550 -3.0015 0.9690
-3.5025 -6.3913 -3.0011 0.9690
-2.9194 -6.6768 -3.0007 0.9690
-1.6888 -7.0865 -2.9998 0.9690
-0.4055 -7.2714 -2.9989 0.9690
0.8900 -7.2259 -2.9980 0.9690
1.5293 -7.1169 -2.9975 0.9690
4.4444 -5.7587 -2.9954 0.9690
5.8060 -4.3785 -2.9944 0.9690
6.1721 -3.8440 -2.9942 0.9690
7.2243 -0.8081 -2.9934 0.9690
7.0523 1.7639 -2.9935 0.9690
6.6285 2.9867 -2.9938 0.9690
6.3368 3.5651 -2.9940 0.9690
4.9084 4.8540 -2.8426 0.9706
4.4574 5.2723 -2.8429 0.9706
3.4528 5.9805 -2.8436 0.9706
2.9072 6.2650 -2.8440 0.9706
2.3384 6.4998 -2.8444 0.9706
1.7509 6.6831 -2.8448 0.9706
1.1493 6.8134 -2.8453 0.9706
0.5384 6.8897 -2.8457 0.9705
-0.0770 6.9114 -2.8462 0.9705
-0.6919 6.8782 -2.8466 0.9705
-1.9011 6.6486 -2.8475 0.9705
-2.4857 6.4539 -2.8479 0.9705
-4.1041 5.5702 -2.8491 0.9705
-4.5842 5.1834 -2.8494 0.9705
-6.1027 3.9922 -3.0029 0.9689
-6.4343 3.4335 -3.0031 0.9689
-6.9420 2.2385 -3.0035 0.9689
-7.1140 1.6118 -3.0036 0.9689
-7.2294 0.9723 -3.0037 0.9689
-7.2294 -0.9722 -3.0037 0.9689
-6.9421 -2.2385 -3.0036 0.9689
-6.7149 -2.8474 -3.0034 0.9689
-4.3240 -5.8686 -3.0017 0.9690
-3.2141 -6.5405 -3.0009 0.9690
-1.3714 -7.1542 -2.9996 0.9690
-0.7290 -7.2468 -2.9991 0.9690
-0.0811 -7.2817 -2.9987 0.9690
0.5672 -7.2589 -2.9982 0.9690
3.0630 -6.6006 -2.9964 0.9690
4.1837 -5.9513 -2.9956 0.9690
4.6962 -5.5546 -2.9952 0.9690
5.1714 -5.1140 -2.9949 0.9690
5.6054 -4.6330 -2.9946 0.9690
6.3369 -3.5651 -2.9940 0.9690
6.6286 -2.9867 -2.9938 0.9690
6.8677 -2.3847 -2.9936 0.9690
7.1812 -1.1292 -2.9934 0.9690
7.2674 0.1620 -2.9933 0.9690
7.1238 1.4480 -2.9934 0.9690
6.4891 3.2791 -2.9939 0.9690
5.8058 4.3784 -2.9944 0.9690
4.6875 5.0681 -2.8427 0.9706
3.7156 5.8204 -2.8434 0.9706
3.1832 6.1288 -2.8438 0.9706
2.0467 6.5980 -2.8446 0.9706
1.4516 6.7550 -2.8451 0.9706
0.2309 6.9074 -2.8459 0.9705
-1.6029 6.7262 -2.8472 0.9705
-2.1955 6.5578 -2.8477 0.9705
-4.8108 4.9744 -2.8496 0.9705
-5.9185 4.2599 -3.0028 0.9689
-6.2747 3.7166 -3.0030 0.9689
-6.8525 -1.2345 -3.0035 0.9701
-6.7153 -1.8395 -3.0034 0.9701
-6.5246 -2.4297 -3.0033 0.9701
-5.9897 -3.5477 -3.0029 0.9701
-5.2648 -4.5527 -3.0024 0.9701
-4.8382 -5.0027 -3.0021 0.9701
-3.8737 -5.7800 -3.0014 0.9701
-2.7868 -6.3736 -3.0006 0.9702
-2.2082 -6.5954 -3.0002 0.9702
-1.6121 -6.7648 -2.9998 0.9702
-1.0035 -6.8804 -2.9993 0.9702
-0.3871 -6.9414 -2.9989 0.9702
0.8496 -6.8980 -2.9980 0.9702
1.4599 -6.7940 -2.9976 0.9702
3.2017 -6.1643 -2.9963 0.9702
4.7148 -5.0976 -2.9952 0.9702
5.8924 -3.6698 -2.9944 0.9702
6.1951 -3.1305 -2.9941 0.9702
6.4488 -2.5665 -2.9939 0.9702
6.6513 -1.9823 -2.9938 0.9702
6.8970 -0.7715 -2.9936 0.9702
6.9244 0.4636 -2.9936 0.9702
6.8558 1.0780 -2.9936 0.9702
6.3281 2.8513 -2.9940 0.9702
6.0496 3.4035 -2.9942 0.9702
5.7231 3.9287 -2.9944 0.9702
5.3512 4.4229 -2.9947 0.9702
4.7976 4.7444 -2.9105 0.9710
4.2553 5.0332 -2.8431 0.9717
2.7754 5.9809 -2.8441 0.9717
2.2324 6.2050 -2.8445 0.9717
-0.6605 6.5660 -2.8466 0.9717
-1.8148 6.3467 -2.8474 0.9717
-2.3728 6.1608 -2.8478 0.9716
-3.9177 5.3171 -2.8489 0.9716
-5.0247 4.7524 -2.9833 0.9703
-6.1419 3.2774 -3.0029 0.9701
-6.4096 2.7179 -3.0031 0.9701
-6.6264 2.1368 -3.0033 0.9701
-6.7906 1.5386 -3.0034 0.9701
-6.9561 0.3102 -3.0035 0.9701
-6.4097 -2.7179 -3.0032 0.9701
-6.1420 -3.2774 -3.0030 0.9701
-5.4627 -4.3138 -3.0025 0.9701
-4.1276 -5.6020 -3.0016 0.9701
-3.6122 -5.9464 -3.0012 0.9701
-0.6959 -6.9178 -2.9991 0.9702
-0.0774 -6.9512 -2.9987 0.9702
0.5415 -6.9295 -2.9982 0.9702
1.1559 -6.8528 -2.9978 0.9702
1.7610 -6.7218 -2.9973 0.9702
2.3520 -6.5374 -2.9969 0.9702
4.9369 -4.8822 -2.9951 0.9702
5.3514 -4.4230 -2.9948 0.9702
6.0497 -3.4035 -2.9942 0.9702
6.3282 -2.8513 -2.9940 0.9702
6.5565 -2.2766 -2.9939 0.9702
6.1950 3.1305 -2.9941 0.9702
4.4750 4.8384 -2.8429 0.9717
4.0271 5.2181 -2.8432 0.9717
3.5471 5.5565 -2.8436 0.9717
0.2205 6.5940 -2.8459 0.9717
-1.5301 6.4208 -2.8472 0.9717
-2.6451 6.0494 -2.8480 0.9716
-3.1734 5.7908 -2.8484 0.9716
-4.1509 5.1377 -2.8491 0.9716
-5.2647 4.5526 -3.0023 0.9701
-5.9895 3.5476 -3.0028 0.9701
-6.2820 3.0007 -3.0030 0.9701
-6.5245 2.4298 -3.0032 0.9701
-6.7152 1.8395 -3.0034 0.9701
-6.9353 0.6198 -3.0035 0.9701
-6.6561 0.0000 -3.0033 0.9712
-6.6296 -0.5924 -3.0033 0.9712
-6.5505 -1.1801 -3.0033 0.9712
-6.4192 -1.7584 -3.0032 0.9712
-5.0328 -4.3520 -3.0022 0.9712
-4.6251 -4.7823 -3.0019 0.9712
-3.7031 -5.5253 -3.0013 0.9712
-2.6641 -6.0929 -3.0005 0.9712
-2.1109 -6.3049 -3.0001 0.9712
-1.5412 -6.4669 -2.9997 0.9712
0.8122 -6.5945 -2.9980 0.9713
1.9680 -6.3442 -2.9972 0.9713
2.5245 -6.1430 -2.9968 0.9713
3.5728 -5.5967 -2.9960 0.9713
4.0563 -5.2559 -2.9957 0.9713
4.5075 -4.8734 -2.9954 0.9713
4.9229 -4.4525 -2.9951 0.9713
5.6334 -3.5085 -2.9945 0.9713
5.9229 -2.9929 -2.9943 0.9713
6.1654 -2.4537 -2.9942 0.9713
6.3590 -1.8952 -2.9940 0.9713
6.5022 -1.3216 -2.9939 0.9713
6.5939 -0.7376 -2.9938 0.9713
5.1160 4.2285 -2.9948 0.9713
4.7198 4.6675 -2.9951 0.9713
4.0682 4.8119 -2.8432 0.9727
3.1513 5.4582 -2.8438 0.9727
2.6533 5.7178 -2.8442 0.9727
2.1342 5.9320 -2.8446 0.9727
1.5979 6.0993 -2.8450 0.9727
1.0489 6.2181 -2.8453 0.9727
0.4913 6.2877 -2.8457 0.9727
-2.2683 5.8896 -2.8477 0.9727
-2.7839 5.6650 -2.8481 0.9727
-3.2774 5.3954 -2.8485 0.9727
-3.7451 5.0829 -2.8488 0.9727
-4.2193 4.7709 -2.8738 0.9724
-5.2218 4.1237 -3.0023 0.9712
-5.5686 3.6428 -3.0025 0.9712
-6.5966 -0.8871 -3.0033 0.9712
-6.3344 -2.0426 -3.0031 0.9712
-5.8713 -3.1330 -3.0028 0.9712
-5.5687 -3.6429 -3.0026 0.9712
-3.9457 -5.3552 -3.0014 0.9712
-3.4530 -5.6845 -3.0011 0.9712
-2.9330 -5.9685 -3.0007 0.9712
-1.8278 -6.3923 -2.9999 0.9712
-0.6653 -6.6132 -2.9991 0.9713
-0.0740 -6.6453 -2.9987 0.9713
1.1051 -6.5513 -2.9978 0.9713
1.6835 -6.4260 -2.9974 0.9713
3.3202 -5.7507 -2.9962 0.9713
3.8184 -5.4316 -2.9959 0.9713
4.7199 -4.6676 -2.9952 0.9713
5.1161 -4.2285 -2.9949 0.9713
5.7838 -3.2539 -2.9944 0.9713
6.4370 -1.6100 -2.9939 0.9713
6.6201 -0.4431 -2.9938 0.9713
6.6333 0.1479 -2.9938 0.9713
6.5022 1.3217 -2.9939 0.9713
6.3589 1.8952 -2.9940 0.9713
5.9228 2.9929 -2.9943 0.9713
4.3880 4.7443 -2.9160 0.9720
0.7709 6.2591 -2.8455 0.9727
0.2108 6.3038 -2.8459 0.9727
-0.3512 6.2984 -2.8464 0.9727
-0.9105 6.2430 -2.8468 0.9727
-1.4628 6.1381 -2.8472 0.9727
-2.0036 5.9844 -2.8475 0.9727
-2.5286 5.7830 -2.8479 0.9727
-3.5147 5.2444 -2.8486 0.9727
-3.9680 4.9113 -2.8490 0.9727
-4.5953 4.7515 -2.9826 0.9714
-5.0327 4.3520 -3.0021 0.9712
-5.4006 3.8871 -3.0024 0.9712
-5.7256 3.3913 -3.0026 0.9712
-6.0051 2.8684 -3.0028 0.9712
-6.4192 1.7584 -3.0031 0.9712
-6.5504 1.1801 -3.0032 0.9712
-6.6296 0.5925 -3.0033 0.9712
-6.2699 -1.1296 -3.0031 0.9722
-6.1443 -1.6831 -3.0030 0.9722
-4.8173 -4.1657 -3.0020 0.9722
-4.4270 -4.5775 -3.0018 0.9722
-3.5446 -5.2888 -3.0011 0.9722
-3.0594 -5.5826 -3.0008 0.9722
0.7775 -6.3125 -2.9980 0.9723
1.3360 -6.2174 -2.9976 0.9723
2.4166 -5.8805 -2.9969 0.9723
2.9301 -5.6413 -2.9965 0.9723
3.4201 -5.3575 -2.9961 0.9723
3.8830 -5.0313 -2.9958 0.9723
4.3149 -4.6652 -2.9955 0.9723
5.0728 -3.8255 -2.9949 0.9723
5.3927 -3.3586 -2.9947 0.9723
5.9021 -2.3490 -2.9943 0.9723
6.2245 -1.2652 -2.9941 0.9723
6.3123 -0.7061 -2.9940 0.9723
6.2746 0.9867 -2.9940 0.9723
6.0006 2.0837 -2.9942 0.9723
5.5367 3.1149 -2.9946 0.9723
5.2379 3.5956 -2.9948 0.9723
4.8974 4.0479 -2.9950 0.9723
4.5181 4.4681 -2.9953 0.9723
4.0099 4.7430 -2.9277 0.9729
3.4693 4.9352 -2.8436 0.9737
3.0166 5.2250 -2.8439 0.9737
2.5399 5.4734 -2.8443 0.9737
2.0429 5.6785 -2.8446 0.9737
1.5296 5.8385 -2.8450 0.9737
0.4703 6.0188 -2.8458 0.9737
-0.6045 6.0085 -2.8465 0.9736
-1.1370 5.9316 -2.8469 0.9736
-2.1712 5.6375 -2.8477 0.9736
-3.1372 5.1645 -2.8484 0.9736
-3.5848 4.8653 -2.8487 0.9736
-4.2004 4.7496 -2.9888 0.9724
-4.6267 4.3759 -3.0018 0.9722
-4.9982 3.9471 -3.0021 0.9722
-5.3301 3.4869 -3.0023 0.9722
-6.0630 1.9551 -3.0029 0.9722
-6.3646 -0.2838 -3.0031 0.9722
-6.3141 -0.8491 -3.0031 0.9722
-6.2133 -1.4077 -3.0030 0.9722
-6.0631 -1.9551 -3.0029 0.9722
-5.6198 -2.9988 -3.0026 0.9722
-4.9984 -3.9471 -3.0022 0.9722
-3.7768 -5.1259 -3.0013 0.9722
-3.3053 -5.4412 -3.0010 0.9722
-1.1979 -6.2494 -2.9995 0.9723
-0.0709 -6.3611 -2.9987 0.9723
0.4955 -6.3413 -2.9983 0.9723
1.6116 -6.1513 -2.9974 0.9723
2.1524 -5.9827 -2.9971 0.9723
2.6760 -5.7666 -2.9967 0.9723
3.1783 -5.5049 -2.9963 0.9723
4.5182 -4.4682 -2.9953 0.9723
4.8976 -4.0479 -2.9951 0.9723
5.5368 -3.1149 -2.9946 0.9723
5.7917 -2.6096 -2.9944 0.9723
6.0007 -2.0836 -2.9943 0.9723
6.3500 0.1416 -2.9940 0.9723
6.2245 1.2652 -2.9941 0.9723
5.9020 2.3489 -2.9943 0.9723
5.0727 3.8255 -2.9949 0.9723
4.7125 4.2622 -2.9951 0.9723
4.3148 4.6652 -2.9954 0.9723
3.2462 5.0851 -2.8438 0.9737
2.7811 5.3545 -2.8441 0.9737
1.7881 5.7642 -2.8448 0.9737
1.2681 5.9012 -2.8452 0.9737
0.2017 6.0342 -2.8460 0.9737
-0.3362 6.0290 -2.8463 0.9737
-1.4002 5.8755 -2.8471 0.9736
-2.4204 5.5356 -2.8478 0.9736
-3.3643 5.0199 -2.8485 0.9736
-5.4804 3.2461 -3.0025 0.9722
-5.7479 2.7456 -3.0027 0.9722
-6.3456 0.5671 -3.0031 0.9722
-6.1053 0.0000 -3.0029 0.9732
-5.5084 -2.6311 -3.0025 0.9732
-5.2520 -3.1107 -3.0023 0.9732
-4.6166 -3.9921 -3.0019 0.9732
-3.3969 -5.0684 -3.0010 0.9732
-2.4438 -5.5892 -3.0004 0.9732
-1.9364 -5.7838 -3.0000 0.9732
-1.4138 -5.9324 -2.9996 0.9732
-0.8800 -6.0339 -2.9992 0.9732
-0.3394 -6.0876 -2.9988 0.9732
0.7451 -6.0497 -2.9981 0.9732
2.3161 -5.6358 -2.9969 0.9732
3.2779 -5.1346 -2.9962 0.9732
4.1355 -4.4712 -2.9956 0.9732
4.5166 -4.0850 -2.9953 0.9732
5.6567 -2.2513 -2.9945 0.9732
5.8343 -1.7388 -2.9944 0.9732
5.9658 -1.2126 -2.9943 0.9732
6.0860 -0.1356 -2.9942 0.9732
6.0137 0.9456 -2.9942 0.9732
5.9059 1.4772 -2.9943 0.9732
5.7511 1.9970 -2.9944 0.9732
5.5508 2.5011 -2.9945 0.9732
5.0201 3.4461 -2.9949 0.9732
4.6938 3.8796 -2.9952 0.9732
1.9579 5.4422 -2.8447 0.9745
1.4660 5.5955 -2.8451 0.9745
0.9622 5.7045 -2.8454 0.9745
0.4507 5.7683 -2.8458 0.9745
-0.5793 5.7583 -2.8465 0.9745
-3.0065 4.9493 -2.8483 0.9745
-5.6202 2.3832 -3.0026 0.9732
-5.8103 1.8736 -3.0027 0.9732
-6.0508 0.8138 -3.0029 0.9732
-6.0993 0.2720 -3.0029 0.9732
-6.0993 -0.2720 -3.0029 0.9732
-5.6203 -2.3832 -3.0026 0.9732
-5.1080 -3.3415 -3.0022 0.9732
-4.4340 -4.1936 -3.0018 0.9732
-4.0427 -4.5712 -3.0015 0.9732
-3.1675 -5.2144 -3.0009 0.9732
-0.6103 -6.0668 -2.9990 0.9732
0.4749 -6.0772 -2.9983 0.9732
2.5647 -5.5267 -2.9968 0.9732
3.0460 -5.2759 -2.9964 0.9732
3.9324 -4.6512 -2.9958 0.9732
4.6939 -3.8796 -2.9952 0.9732
5.0202 -3.4461 -2.9950 0.9732
5.5509 -2.5011 -2.9946 0.9732
5.9059 -1.4771 -2.9943 0.9732
6.0860 0.1356 -2.9942 0.9732
6.0499 0.6768 -2.9942 0.9732
5.8343 1.7388 -2.9944 0.9732
4.1354 4.4711 -2.9955 0.9732
3.6585 4.7405 -2.9452 0.9737
3.1112 4.8736 -2.8439 0.9746
2.1983 5.3492 -2.8445 0.9745
1.2153 5.6556 -2.8452 0.9745
-1.3419 5.6308 -2.8471 0.9745
-1.8380 5.4897 -2.8474 0.9745
-2.7828 5.0780 -2.8481 0.9745
-3.8348 4.7464 -3.0013 0.9732
-4.2424 4.3867 -3.0016 0.9732
-4.6165 3.9920 -3.0018 0.9732
-4.9538 3.5656 -3.0021 0.9732
-5.6487 -1.5473 -3.0026 0.9740
-5.2844 -2.5241 -3.0024 0.9740
-5.0385 -2.9843 -3.0022 0.9740
-4.7526 -3.4207 -3.0020 0.9740
-4.0701 -4.2085 -3.0015 0.9740
-2.8128 -5.1327 -3.0006 0.9740
-2.3445 -5.3621 -3.0003 0.9740
-1.8578 -5.5488 -2.9999 0.9740
-1.3564 -5.6915 -2.9996 0.9740
-0.8443 -5.7889 -2.9992 0.9740
0.1954 -5.8454 -2.9985 0.9741
0.7148 -5.8041 -2.9981 0.9741
1.2285 -5.7168 -2.9977 0.9741
1.7322 -5.5840 -2.9974 0.9741
2.6942 -5.1872 -2.9967 0.9741
3.1449 -4.9263 -2.9963 0.9741
3.9677 -4.2898 -2.9957 0.9741
4.6647 -3.5178 -2.9952 0.9741
4.9589 -3.0884 -2.9950 0.9741
5.2138 -2.6346 -2.9948 0.9741
5.5978 -1.6683 -2.9946 0.9741
5.7239 -1.1634 -2.9945 0.9741
5.8046 -0.6493 -2.9944 0.9741
5.8277 0.3902 -2.9944 0.9741
5.7699 0.9073 -2.9944 0.9741
4.1546 4.1086 -2.9955 0.9741
3.3299 4.7369 -2.9684 0.9743
2.7738 4.8044 -2.8441 0.9754
2.3355 5.0328 -2.8444 0.9754
0.9232 5.4730 -2.8454 0.9754
-0.0618 5.5513 -2.8462 0.9754
-1.0454 5.4537 -2.8469 0.9753
-1.9963 5.1832 -2.8475 0.9753
-3.4723 4.7127 -3.0010 0.9740
-3.8783 4.3853 -3.0013 0.9740
-5.5740 1.7974 -3.0025 0.9740
-5.7121 1.2942 -3.0026 0.9740
-5.8513 0.2610 -3.0027 0.9740
-5.5741 -1.7974 -3.0026 0.9740
-5.3918 -2.2863 -3.0024 0.9740
-3.8784 -4.3854 -3.0014 0.9740
-3.0388 -5.0025 -3.0008 0.9740
-2.1032 -5.4609 -3.0001 0.9740
-1.6086 -5.6258 -2.9998 0.9740
-0.0652 -5.8487 -2.9986 0.9741
1.4818 -5.6560 -2.9975 0.9741
2.4606 -5.3024 -2.9968 0.9741
2.9224 -5.0618 -2.9965 0.9741
3.7729 -4.4625 -2.9959 0.9741
4.1547 -4.1086 -2.9956 0.9741
5.3258 -2.3997 -2.9948 0.9741
5.5180 -1.9160 -2.9946 0.9741
5.8277 -0.3901 -2.9944 0.9741
5.8393 0.1302 -2.9944 0.9741
5.7238 1.1634 -2.9944 0.9741
5.2137 2.6346 -2.9948 0.9741
4.9588 3.0884 -2.9950 0.9741
4.3333 3.9193 -2.9954 0.9741
3.5704 4.6263 -2.9960 0.9741
3.0336 4.7520 -2.8903 0.9750
2.5572 4.9235 -2.8443 0.9754
1.1660 5.4261 -2.8453 0.9754
0.1855 5.5482 -2.8460 0.9754
-0.3091 5.5434 -2.8463 0.9754
-1.2874 5.4021 -2.8470 0.9753
-1.7633 5.2667 -2.8474 0.9753
-2.6698 4.8717 -2.8480 0.9753
-3.1882 4.7571 -2.9359 0.9746
-5.6487 1.5474 -3.0026 0.9740
-5.7642 1.0385 -3.0027 0.9740
-5.8338 0.5213 -3.0027 0.9740
-5.5353 -0.9972 -3.0025 0.9748
-5.4244 -1.4859 -3.0025 0.9748
-5.2704 -1.9627 -3.0024 0.9748
-4.8384 -2.8658 -3.0020 0.9748
-3.9085 -4.0414 -3.0014 0.9748
-3.1295 -4.6695 -3.0008 0.9748
-1.3025 -5.4657 -2.9995 0.9748
-0.3127 -5.6087 -2.9988 0.9749
0.6865 -5.5739 -2.9981 0.9749
1.1797 -5.4901 -2.9978 0.9749
2.5874 -4.9816 -2.9967 0.9749
3.0202 -4.7311 -2.9964 0.9749
3.4290 -4.4430 -2.9961 0.9749
3.8105 -4.1198 -2.9959 0.9749
4.1617 -3.7640 -2.9956 0.9749
4.4798 -3.3784 -2.9954 0.9749
5.2123 -2.0744 -2.9948 0.9749
5.6080 -0.1249 -2.9945 0.9749
4.3250 3.5747 -2.9954 0.9749
3.9900 3.9458 -2.9957 0.9749
3.2277 4.5915 -2.9962 0.9749
2.7401 4.7461 -2.9256 0.9755
2.2429 4.8333 -2.8445 0.9761
0.8866 5.2559 -2.8455 0.9761
-0.5337 5.3053 -2.8465 0.9761
-1.9171 4.9776 -2.8475 0.9761
-2.3526 4.7877 -2.8478 0.9761
-3.3345 4.5256 -3.0009 0.9748
-3.7244 4.2112 -3.0012 0.9748
-4.0848 3.8634 -3.0015 0.9748
-4.9614 2.6475 -3.0021 0.9748
-5.1776 2.1955 -3.0022 0.9748
-5.4852 1.2428 -3.0025 0.9748
-5.5742 0.7497 -3.0025 0.9748
-5.5742 -0.7496 -3.0026 0.9748
-5.4853 -1.2428 -3.0025 0.9748
-5.1777 -2.1955 -3.0023 0.9748
-4.7058 -3.0784 -3.0020 0.9748
-3.7245 -4.2113 -3.0013 0.9748
-3.3345 -4.5256 -3.0010 0.9748
-2.4788 -5.0441 -3.0004 0.9748
-2.0198 -5.2442 -3.0000 0.9748
-1.5448 -5.4025 -2.9997 0.9748
-0.0626 -5.6167 -2.9986 0.9749
0.4375 -5.5993 -2.9983 0.9749
0.9341 -5.5375 -2.9979 0.9749
1.9006 -5.2829 -2.9972 0.9749
2.3630 -5.0922 -2.9969 0.9749
4.6257 -3.1754 -2.9953 0.9749
4.8897 -2.7509 -2.9951 0.9749
5.1148 -2.3046 -2.9949 0.9749
5.4420 -1.3611 -2.9947 0.9749
5.5969 -0.3746 -2.9945 0.9749
5.6080 0.1250 -2.9945 0.9749
5.5746 0.6236 -2.9945 0.9749
5.4971 1.1174 -2.9946 0.9749
5.0072 2.5303 -2.9949 0.9749
3.8104 4.1198 -2.9958 0.9749
3.4290 4.4430 -2.9961 0.9749
3.0201 4.7310 -2.9963 0.9749
2.0255 4.9287 -2.8447 0.9761
-0.7696 5.2766 -2.8467 0.9761
-1.2363 5.1878 -2.8470 0.9761
-3.5329 4.3728 -3.0011 0.9748
-3.9084 4.0413 -3.0013 0.9748
-4.5638 3.2849 -3.0018 0.9748
-4.8384 2.8658 -3.0020 0.9748
-5.5352 0.9972 -3.0025 0.9748
-5.6021 0.5007 -3.0026 0.9748
-5.4059 0.0000 -3.0024 0.9756
-5.2136 -1.4281 -3.0023 0.9756
-4.3866 -3.1572 -3.0017 0.9756
-4.0879 -3.5349 -3.0015 0.9756
-1.7148 -5.1218 -2.9998 0.9756
-0.3006 -5.3910 -2.9988 0.9756
0.1804 -5.3957 -2.9985 0.9756
2.4871 -4.7884 -2.9968 0.9756
2.9031 -4.5476 -2.9965 0.9756
3.2960 -4.2707 -2.9962 0.9756
3.6627 -3.9601 -2.9960 0.9756
4.3062 -3.2474 -2.9955 0.9756
4.5778 -2.8511 -2.9953 0.9756
4.8131 -2.4322 -2.9951 0.9756
5.0103 -1.9940 -2.9950 0.9756
5.2841 -1.0740 -2.9948 0.9756
5.3586 -0.5994 -2.9947 0.9756
5.2310 1.3084 -2.9948 0.9756
5.0940 1.7688 -2.9949 0.9756
3.8353 3.7928 -2.9958 0.9756
3.4828 4.1195 -2.9960 0.9756
3.1025 4.4135 -2.9963 0.9756
0.8522 5.0521 -2.8455 0.9768
0.3992 5.1084 -2.8458 0.9768
-0.9650 5.0341 -2.8468 0.9768
-1.4104 4.9324 -2.8492 0.9768
-1.8426 4.7843 -2.8474 0.9768
-2.3362 4.7542 -2.9420 0.9761
-4.2414 3.3494 -3.0016 0.9756
-4.7686 2.5446 -3.0020 0.9756
-4.9764 2.1102 -3.0021 0.9756
-5.2721 1.1945 -3.0023 0.9756
-5.3576 0.7206 -3.0024 0.9756
-5.4006 0.2409 -3.0024 0.9756
-5.2722 -1.1945 -3.0023 0.9756
-5.1448 -1.6590 -3.0023 0.9756
-4.9765 -2.1102 -3.0021 0.9756
-4.7687 -2.5446 -3.0020 0.9756
-4.5230 -2.9588 -3.0018 0.9756
-3.9262 -3.7133 -3.0014 0.9756
-3.5798 -4.0477 -3.0012 0.9756
-3.2050 -4.3499 -3.0009 0.9756
-1.0167 -5.3038 -2.9993 0.9756
-0.5405 -5.3726 -2.9990 0.9756
-0.0601 -5.3987 -2.9986 0.9756
0.4206 -5.3821 -2.9983 0.9756
1.8269 -5.0780 -2.9973 0.9756
2.2714 -4.8947 -2.9970 0.9756
2.6978 -4.6726 -2.9967 0.9756
3.1026 -4.4136 -2.9964 0.9756
3.8354 -3.7928 -2.9958 0.9756
4.7001 -2.6442 -2.9952 0.9756
5.2311 -1.3084 -2.9948 0.9756
5.3266 -0.8376 -2.9947 0.9756
5.3906 0.1202 -2.9947 0.9756
5.3586 0.5995 -2.9947 0.9756
5.1676 1.5402 -2.9948 0.9756
5.0102 1.9941 -2.9949 0.9756
4.5778 2.8511 -2.9952 0.9756
3.6627 3.9600 -2.9959 0.9756
3.2959 4.2707 -2.9962 0.9756
2.9030 4.5476 -2.9964 0.9756
1.9576 4.7611 -2.8589 0.9767
1.5177 4.8926 -2.8450 0.9768
1.0763 5.0087 -2.8453 0.9768
0.6263 5.0853 -2.8457 0.9768
-0.2853 5.1170 -2.8463 0.9768
-1.1883 4.9864 -2.8470 0.9768
-3.7566 3.8844 -3.0012 0.9756
-4.3865 3.1572 -3.0017 0.9756
-4.6504 2.7545 -3.0019 0.9756
-4.8774 2.3298 -3.0020 0.9756
-5.0656 1.8865 -3.0022 0.9756
-5.2136 1.4282 -3.0023 0.9756
-5.3202 0.9585 -3.0024 0.9756
-5.1176 -0.9220 -3.0022 0.9763
-5.0151 -1.3738 -3.0022 0.9763
-4.8728 -1.8146 -3.0021 0.9763
-3.9323 -3.4003 -3.0014 0.9763
-3.6137 -3.7366 -3.0012 0.9763
-2.4975 -4.5573 -3.0004 0.9763
-1.6496 -4.9270 -2.9998 0.9763
-0.7497 -5.1403 -2.9991 0.9763
2.7928 -4.3748 -2.9966 0.9763
3.5236 -3.8096 -2.9961 0.9763
4.6303 -2.3398 -2.9953 0.9763
4.8200 -1.9183 -2.9951 0.9763
5.0834 -1.0332 -2.9949 0.9763
5.1551 -0.5766 -2.9949 0.9763
5.1859 -0.1155 -2.9948 0.9763
5.1756 0.3465 -2.9948 0.9763
4.9005 1.7017 -2.9950 0.9763
4.7298 2.1312 -2.9951 0.9763
4.5216 2.5438 -2.9953 0.9763
3.9994 3.3056 -2.9957 0.9763
3.3504 3.9629 -2.9961 0.9763
2.9847 4.2458 -2.9964 0.9763
2.5952 4.4950 -2.9967 0.9763
2.1850 4.7086 -2.9969 0.9763
1.2505 4.7731 -2.8488 0.9775
0.3840 4.9142 -2.8458 0.9775
-0.0549 4.9294 -2.8462 0.9775
-0.9283 4.8426 -2.8468 0.9775
-1.3631 4.7668 -2.8624 0.9774
-1.8307 4.7533 -2.9408 0.9767
-2.2918 4.6638 -3.0002 0.9763
-3.0830 4.1843 -3.0007 0.9763
-3.7767 3.5720 -3.0012 0.9763
-4.0799 3.2219 -3.0015 0.9763
-4.5871 2.4478 -3.0018 0.9763
-5.0714 1.1490 -3.0022 0.9763
-5.1536 0.6931 -3.0022 0.9763
-5.1949 0.2317 -3.0023 0.9763
-5.1537 -0.6931 -3.0023 0.9763
-5.0714 -1.1490 -3.0022 0.9763
-4.9489 -1.5958 -3.0021 0.9763
-4.7870 -2.0299 -3.0020 0.9763
-4.3508 -2.8462 -3.0017 0.9763
-4.0800 -3.2219 -3.0015 0.9763
-3.7768 -3.5720 -3.0013 0.9763
-3.4436 -3.8937 -3.0011 0.9763
-3.0831 -4.1844 -3.0008 0.9763
-2.6982 -4.4417 -3.0005 0.9763
-2.2919 -4.6638 -3.0002 0.9763
-1.4284 -4.9953 -2.9996 0.9763
1.3159 -5.0225 -2.9977 0.9763
1.7575 -4.8850 -2.9973 0.9763
2.1851 -4.7087 -2.9970 0.9763
2.5952 -4.4950 -2.9967 0.9763
2.9848 -4.2459 -2.9964 0.9763
3.9995 -3.3056 -2.9957 0.9763
4.2775 -2.9363 -2.9955 0.9763
4.5216 -2.5438 -2.9953 0.9763
4.7298 -2.1311 -2.9952 0.9763
5.1756 -0.3464 -2.9948 0.9763
5.1551 0.5767 -2.9949 0.9763
5.0834 1.0333 -2.9949 0.9763
4.9714 1.4816 -2.9950 0.9763
4.6303 2.3398 -2.9952 0.9763
4.1425 3.1241 -2.9956 0.9763
3.8483 3.4806 -2.9958 0.9763
3.5235 3.8096 -2.9960 0.9763
2.3925 4.6064 -2.9968 0.9763
1.9485 4.7415 -2.9597 0.9766
1.4759 4.7580 -2.8762 0.9773
0.1648 4.9296 -2.8477 0.9775
-0.7116 4.8789 -2.8466 0.9775
-1.5938 4.7606 -2.8985 0.9771
-2.4974 4.5573 -3.0003 0.9763
-2.8934 4.3173 -3.0006 0.9763
-3.2665 4.0430 -3.0009 0.9763
-3.9322 3.4003 -3.0013 0.9763
-4.2195 3.0370 -3.0016 0.9763
-4.8728 1.8147 -3.0020 0.9763
-5.0151 1.3738 -3.0021 0.9763
