ply
format ascii 1.0
element vertex 1633
property float32 x
property float32 y
property float32 z
property float32 I
end_header
-4.7611 7.1040 4.7497 0.9616
-4.7594 7.1015 4.3827 0.9623
-4.7586 7.1003 4.2041 0.9626
-4.7570 7.0979 3.8555 0.9632
-4.7562 7.0968 3.6852 0.9635
-4.7557 7.0961 3.5176 0.9637
-4.7552 7.0952 3.1894 0.9642
-4.7549 7.0948 3.0284 0.9644
-4.7546 7.0944 2.8694 0.9646
-4.7543 7.0940 2.7121 0.9648
-4.7541 7.0936 2.5565 0.9650
-4.7538 7.0932 2.4025 0.9651
-4.7535 7.0928 2.2499 0.9653
-4.7528 7.0916 1.7998 0.9657
-4.7523 7.0909 1.5051 0.9659
8.3721 -6.3137 1.6698 0.9584
8.2608 -6.8278 1.7066 0.9575
8.7722 -6.0218 1.6943 0.9578
9.1134 -5.6759 1.5271 0.9575
7.9728 -6.5897 1.4712 0.9591
8.4899 -5.8280 1.4647 0.9592
7.7803 -7.0369 1.3146 0.9586
7.8115 -6.4564 1.2700 0.9600
8.3278 -5.7167 1.2658 0.9601
-4.7515 7.0897 1.0695 0.9662
7.6058 -6.8790 1.1123 0.9596
7.8897 -5.9499 1.0718 0.9610
7.6864 -6.3530 1.0816 0.9607
9.5227 -5.3574 1.1851 0.9570
-4.7512 7.0894 0.9257 0.9662
8.5400 -5.3188 0.9224 0.9604
7.6620 -7.5771 0.9879 0.9576
8.1201 -5.5741 0.9029 0.9612
-4.7510 7.0890 0.7824 0.9663
7.4240 -6.7147 0.7502 0.9606
8.4488 -5.2620 0.7459 0.9609
7.5048 -7.4217 0.7910 0.9585
8.0454 -5.5229 0.7313 0.9616
9.0747 -5.1054 0.7803 0.9591
7.3762 -6.6714 0.5793 0.9609
7.4082 -7.3261 0.6068 0.9591
8.0021 -5.4932 0.5653 0.9619
-4.7505 7.0882 0.4970 0.9664
7.3390 -7.2578 0.4292 0.9595
8.9001 -5.0071 0.4246 0.9599
-4.7503 7.0879 0.3548 0.9664
7.4358 -6.1458 0.2406 0.9621
7.9413 -5.4514 0.2402 0.9622
7.2924 -6.5955 0.0817 0.9614
7.6386 -5.7605 0.0795 0.9625
7.9277 -5.4421 0.0799 0.9623
8.8411 -4.9739 0.0843 0.9602
7.2898 -6.5932 -0.0817 0.9614
7.6363 -5.7588 -0.0795 0.9625
8.3073 -5.1739 -0.0813 0.9616
7.4210 -6.1336 -0.0800 0.9622
7.3043 -6.6064 -0.2456 0.9614
7.6486 -5.7681 -0.2389 0.9624
7.3042 -7.2233 -0.2562 0.9597
7.9385 -5.4495 -0.2401 0.9622
8.8572 -4.9830 -0.2534 0.9602
-4.7493 7.0864 -0.2127 0.9664
7.6609 -5.7774 -0.3990 0.9623
8.3392 -5.1937 -0.4085 0.9614
7.3284 -7.2472 -0.4285 0.9596
7.9518 -5.4587 -0.4010 0.9621
8.8851 -4.9987 -0.4239 0.9600
7.3668 -6.6629 -0.5785 0.9610
7.6992 -5.8063 -0.5616 0.9621
8.3885 -5.2244 -0.5756 0.9612
7.3927 -7.3108 -0.6056 0.9592
7.4139 -6.7055 -0.7491 0.9607
7.4775 -7.3947 -0.7881 0.9587
-4.7485 7.0853 -0.6392 0.9664
7.4943 -6.7782 -0.9264 0.9602
7.8008 -5.8829 -0.8957 0.9615
8.5217 -5.3074 -0.9204 0.9605
7.6320 -7.5475 -0.9840 0.9578
7.5922 -6.2751 -0.9030 0.9612
8.1044 -5.5633 -0.9012 0.9613
9.1997 -5.1757 -0.9677 0.9585
-4.7483 7.0849 -0.7819 0.9663
7.8745 -5.9385 -1.0698 0.9611
8.1843 -5.6182 -1.0768 0.9608
7.7450 -7.0049 -1.3087 0.9588
7.9810 -6.0187 -1.2527 0.9605
8.3018 -5.6989 -1.2619 0.9602
8.1114 -6.1171 -1.4450 0.9598
9.0363 -5.6278 -1.5142 0.9579
8.4483 -5.7994 -1.4575 0.9594
-4.7475 7.0838 -1.2129 0.9661
8.3181 -6.2729 -1.6590 0.9587
8.1738 -6.7558 -1.6886 0.9580
8.6879 -5.9639 -1.6780 0.9582
-4.7473 7.0834 -1.3578 0.9661
-0.1638 14.7057 -2.8460 0.9418
-2.7638 14.4185 -2.8410 0.9419
-4.0327 14.1032 -2.8386 0.9420
-5.2676 13.6770 -2.8362 0.9420
-8.6738 11.7722 -2.8297 0.9422
-9.6806 10.9461 -2.8278 0.9422
-10.6098 10.0347 -2.8260 0.9422
-11.4543 9.0454 -2.8244 0.9423
-12.8644 6.8646 -2.8217 0.9423
-13.4193 5.6903 -2.8207 0.9423
-2.1197 14.5335 -2.8423 0.9419
-4.6550 13.9037 -2.8374 0.9420
-7.0351 12.8375 -2.8329 0.9421
-4.7468 7.0827 -1.6500 0.9659
-9.1865 11.3702 -2.8288 0.9422
-13.1548 6.2835 -2.8212 0.9423
-13.8751 -2.4997 -2.9722 0.9440
-13.2177 -4.9223 -2.9735 0.9440
-9.8267 -10.1608 -2.9800 0.9439
-6.8063 -12.4200 -2.9858 0.9437
-4.5030 -13.4498 -2.9902 0.9437
-3.2906 -13.8079 -2.9925 0.9436
-2.0502 -14.0571 -2.9949 0.9436
-0.7915 -14.1951 -2.9973 0.9435
1.7407 -14.1333 -3.0021 0.9434
4.2257 -13.6223 -3.0069 0.9434
5.4255 -13.2022 -3.0091 0.9433
7.6914 -12.0483 -3.0135 0.9432
8.7390 -11.3235 -3.0155 0.9432
11.4396 -8.6270 -3.0206 0.9431
12.1677 -7.5781 -3.0220 0.9431
12.7990 -6.4676 -3.0232 0.9431
14.0641 -2.8587 -3.0256 0.9430
14.3219 0.9587 -3.0261 0.9430
14.1785 2.2295 -3.0258 0.9430
11.8606 6.6726 -2.8690 0.9459
11.2148 7.6985 -2.8678 0.9459
10.4799 8.6619 -2.8663 0.9459
9.6621 9.5550 -2.8648 0.9460
8.7681 10.3709 -2.8631 0.9460
7.8052 11.1030 -2.8612 0.9460
6.7813 11.7456 -2.8593 0.9461
4.5846 12.7431 -2.8551 0.9461
3.4296 13.0905 -2.8529 0.9462
1.0525 13.4696 -2.8483 0.9463
-0.1504 13.4990 -2.8460 0.9463
-2.5374 13.2372 -2.8415 0.9464
-3.7026 12.9487 -2.8392 0.9464
-4.8367 12.5582 -2.8371 0.9465
-5.9308 12.0689 -2.8350 0.9465
-7.9658 10.8113 -2.8311 0.9466
-8.8909 10.0531 -2.8293 0.9466
-10.5209 8.3083 -2.8262 0.9467
-12.3271 5.2271 -2.8228 0.9467
-13.7510 3.1156 -2.9725 0.9440
-14.0826 0.6279 -2.9718 0.9440
-14.0826 -0.6280 -2.9718 0.9440
-11.0844 -8.7532 -2.9776 0.9439
-5.0957 -13.2308 -2.9890 0.9437
-3.9009 -13.6422 -2.9913 0.9436
-1.4225 -14.1401 -2.9961 0.9436
2.3695 -14.0474 -3.0033 0.9434
6.0105 -12.9522 -3.0103 0.9433
8.2232 -11.6977 -3.0145 0.9432
10.1796 -10.0668 -3.0182 0.9432
11.8154 -8.1108 -3.0213 0.9431
12.4958 -7.0300 -3.0226 0.9431
13.0767 -5.8921 -3.0237 0.9431
14.1785 -2.2295 -3.0258 0.9430
14.2645 1.5957 -3.0260 0.9430
14.0641 2.8587 -3.0256 0.9430
11.5492 7.1929 -2.8684 0.9459
10.8581 8.1885 -2.8671 0.9459
10.0810 9.1177 -2.8656 0.9460
8.2947 10.7478 -2.8622 0.9460
7.3004 11.4358 -2.8603 0.9460
6.2491 12.0317 -2.8583 0.9461
5.1497 12.5310 -2.8562 0.9461
4.0108 12.9297 -2.8540 0.9462
1.6522 13.4148 -2.8495 0.9462
0.4513 13.4977 -2.8472 0.9463
-1.9459 13.3424 -2.8426 0.9464
-3.1233 13.1059 -2.8403 0.9464
-5.3893 12.3256 -2.8360 0.9465
-6.4603 11.7886 -2.8340 0.9465
-8.4368 10.4424 -2.8302 0.9466
-9.3272 9.6442 -2.8285 0.9466
-10.1429 8.7710 -2.8269 0.9467
-10.8780 7.8295 -2.8255 0.9467
-11.5266 6.8272 -2.8243 0.9467
-12.8904 4.8005 -2.8999 0.9453
-13.8751 2.4997 -2.9722 0.9440
-13.0293 -0.0000 -2.9739 0.9479
-12.8246 -2.3104 -2.9742 0.9479
-11.2235 -6.6477 -2.9773 0.9479
-9.0809 -9.3896 -2.9814 0.9478
-7.2806 -10.8635 -2.9849 0.9478
-5.2460 -11.9979 -2.9888 0.9477
-4.1602 -12.4257 -2.9908 0.9477
-1.8939 -12.9853 -2.9952 0.9476
0.4392 -13.1348 -2.9996 0.9475
1.6077 -13.0533 -3.0018 0.9475
5.0100 -12.1911 -3.0083 0.9474
6.0793 -11.7047 -3.0104 0.9473
8.0685 -10.4546 -3.0142 0.9473
9.8050 -8.8681 -3.0175 0.9472
11.2322 -6.9955 -3.0202 0.9472
12.3029 -4.8964 -3.0223 0.9471
12.6929 -3.7829 -3.0230 0.9471
13.1665 -1.4729 -3.0239 0.9471
13.2460 -0.2952 -3.0241 0.9471
13.2194 0.8849 -3.0240 0.9471
12.8501 3.2140 -3.0233 0.9471
10.9485 6.1595 -2.8672 0.9498
10.3527 7.1067 -2.8661 0.9498
8.0951 9.5749 -2.8618 0.9499
7.2065 10.2513 -2.8601 0.9499
5.2678 11.3519 -2.8564 0.9499
0.9721 12.4408 -2.8482 0.9501
-0.1389 12.4686 -2.8460 0.9501
-1.2472 12.3975 -2.8439 0.9502
-2.3440 12.2283 -2.8418 0.9502
-3.4206 11.9625 -2.8398 0.9502
-4.4686 11.6024 -2.8378 0.9503
-6.4463 10.6121 -2.8340 0.9503
-8.2159 9.2899 -2.8306 0.9504
-9.0054 8.5172 -2.8291 0.9504
-12.4055 4.0003 -2.9750 0.9479
-12.9140 1.7368 -2.9741 0.9479
-12.9140 -1.7368 -2.9741 0.9479
-12.7099 -2.8796 -2.9745 0.9479
-12.0034 -5.0899 -2.9758 0.9479
-11.5064 -6.1400 -2.9768 0.9479
-10.2438 -8.0894 -2.9792 0.9479
-9.4877 -8.9734 -2.9806 0.9478
-8.6560 -9.7874 -2.9822 0.9478
-7.7550 -10.5251 -2.9840 0.9478
-6.7916 -11.1805 -2.9858 0.9477
-5.7733 -11.7483 -2.9877 0.9477
-4.7079 -12.2238 -2.9898 0.9477
-3.6038 -12.6032 -2.9919 0.9476
-1.3140 -13.0616 -2.9963 0.9476
-0.1463 -13.1365 -2.9985 0.9475
1.0242 -13.1071 -3.0007 0.9475
3.3368 -12.7366 -3.0052 0.9474
4.4604 -12.3979 -3.0073 0.9474
6.5969 -11.4261 -3.0114 0.9473
7.5924 -10.8004 -3.0133 0.9473
8.5287 -10.0877 -3.0151 0.9472
10.9072 -7.4874 -3.0196 0.9472
11.5349 -6.4894 -3.0208 0.9471
12.0707 -5.4388 -3.0218 0.9471
12.8501 -3.2140 -3.0233 0.9471
13.2195 -0.8849 -3.0240 0.9471
9.3066 8.4173 -2.8641 0.9498
8.5160 9.2074 -2.8626 0.9498
7.6583 9.9231 -2.8610 0.9499
6.7406 10.5589 -2.8592 0.9499
5.7703 11.1097 -2.8573 0.9499
4.7553 11.5713 -2.8554 0.9500
3.7039 11.9403 -2.8534 0.9500
1.5259 12.3897 -2.8492 0.9501
0.4168 12.4671 -2.8471 0.9501
-2.8853 12.1073 -2.8408 0.9502
-4.9792 11.3879 -2.8368 0.9503
-7.7961 9.6494 -2.8314 0.9504
-10.0532 7.2358 -2.8271 0.9504
-10.6530 6.3098 -2.8260 0.9505
-11.1684 5.3347 -2.8250 0.9505
-12.2164 4.5494 -2.9754 0.9479
-12.5700 3.4433 -2.9747 0.9479
-12.1059 0.0000 -2.9756 0.9514
-11.9155 -2.1467 -2.9760 0.9514
-11.6790 -3.1992 -2.9764 0.9513
-11.3503 -4.2269 -2.9771 0.9513
-10.9319 -5.2217 -2.9779 0.9513
-10.4272 -6.1760 -2.9788 0.9513
-9.1743 -7.9333 -2.9812 0.9513
-8.4358 -8.7225 -2.9826 0.9512
-6.7628 -10.0909 -2.9858 0.9512
-5.8413 -10.6590 -2.9876 0.9512
-2.8231 -11.8463 -2.9934 0.9511
-1.7587 -12.0588 -2.9954 0.9510
2.5673 -11.9473 -3.0037 0.9509
4.6511 -11.3178 -3.0077 0.9508
7.4894 -9.7043 -3.0131 0.9508
9.1006 -8.2310 -3.0162 0.9507
9.8015 -7.3916 -3.0175 0.9507
10.4246 -6.4925 -3.0187 0.9507
12.2187 -1.3669 -3.0221 0.9506
12.2925 -0.2739 -3.0222 0.9506
12.2679 0.8212 -3.0222 0.9506
12.1451 1.9097 -3.0219 0.9506
11.6101 4.0315 -3.0209 0.9506
10.1612 5.7166 -2.8657 0.9531
4.8903 10.5385 -2.8557 0.9533
2.9405 11.2239 -2.8519 0.9533
1.9286 11.4333 -2.8500 0.9534
-0.1290 11.5781 -2.8461 0.9534
-1.1582 11.5127 -2.8441 0.9535
-3.1768 11.1099 -2.8402 0.9535
-5.0897 10.3573 -2.8366 0.9536
-7.6321 8.6298 -2.8317 0.9537
-9.0328 7.1331 -2.8291 0.9537
-10.1468 5.4145 -2.8269 0.9537
-11.1520 4.7289 -2.9774 0.9513
-11.9987 1.6137 -2.9758 0.9514
-12.0939 0.5393 -2.9756 0.9514
-12.0939 -0.5393 -2.9756 0.9514
-11.9987 -1.6137 -2.9758 0.9514
-11.5260 -3.7166 -2.9767 0.9513
-9.5165 -7.5151 -2.9806 0.9513
-8.8138 -8.3361 -2.9819 0.9513
-7.2036 -9.7768 -2.9850 0.9512
-6.3084 -10.3851 -2.9867 0.9512
-4.3726 -11.3531 -2.9904 0.9511
0.9510 -12.1704 -3.0006 0.9510
4.1410 -11.5100 -3.0067 0.9509
7.0477 -10.0255 -3.0122 0.9508
7.9164 -9.3636 -3.0139 0.9507
10.1231 -6.9491 -3.0181 0.9507
12.1452 -1.9097 -3.0220 0.9506
12.2679 -0.8212 -3.0222 0.9506
11.7795 3.5107 -3.0212 0.9506
8.6380 7.8126 -2.8628 0.9532
7.9045 8.5462 -2.8614 0.9532
6.2571 9.8016 -2.8583 0.9532
5.3566 10.3134 -2.8566 0.9533
4.4146 10.7424 -2.8548 0.9533
1.4168 11.5039 -2.8490 0.9534
-2.6796 11.2441 -2.8412 0.9535
-5.5443 10.1172 -2.8357 0.9536
-8.7080 7.5301 -2.8297 0.9537
-9.3396 6.7222 -2.8285 0.9537
-9.8971 5.8621 -2.8274 0.9537
-11.9155 2.1467 -2.9760 0.9514
-12.0582 1.0775 -2.9757 0.9514
-11.2985 0.0000 -2.9772 0.9543
-11.2540 -1.0057 -2.9772 0.9543
-10.2024 -4.8732 -2.9793 0.9543
-9.7311 -5.7637 -2.9802 0.9543
-9.1827 -6.6093 -2.9812 0.9543
-8.5614 -7.4033 -2.9824 0.9543
-7.1197 -8.8121 -2.9852 0.9542
-4.5461 -10.3971 -2.9901 0.9541
-2.6338 -11.0519 -2.9937 0.9541
-1.6407 -11.2496 -2.9956 0.9541
-0.6333 -11.3583 -2.9976 0.9540
3.3790 -10.8929 -3.0052 0.9539
4.3378 -10.5554 -3.0071 0.9539
7.7657 -8.3961 -3.0136 0.9538
9.1392 -6.8922 -3.0162 0.9538
11.2322 -2.2830 -3.0202 0.9537
11.3920 -1.2744 -3.0205 0.9537
11.4607 -0.2554 -3.0206 0.9537
11.3233 1.7805 -3.0204 0.9537
11.1185 2.7810 -3.0200 0.9537
10.8249 3.7588 -3.0194 0.9537
8.3730 6.9204 -2.8623 0.9561
7.7204 7.6348 -2.8611 0.9561
5.4206 9.3888 -2.8567 0.9561
4.5608 9.8284 -2.8550 0.9562
3.6658 10.1892 -2.8533 0.9562
2.7426 10.4686 -2.8516 0.9562
1.7989 10.6644 -2.8498 0.9562
0.8420 10.7752 -2.8479 0.9563
-0.1203 10.8004 -2.8461 0.9563
-2.0308 10.5944 -2.8424 0.9564
-2.9638 10.3651 -2.8407 0.9564
-8.9851 5.8778 -2.8292 0.9566
-10.4079 4.4133 -2.9788 0.9543
-10.7570 3.4687 -2.9782 0.9543
-11.0212 2.4971 -2.9777 0.9543
-11.2874 0.5033 -2.9772 0.9543
-11.2874 -0.5033 -2.9772 0.9543
-11.1984 -1.5061 -2.9774 0.9543
-11.0212 -2.4971 -2.9777 0.9543
-8.8809 -7.0131 -2.9818 0.9543
-7.5033 -8.4841 -2.9844 0.9542
-6.7218 -9.1229 -2.9859 0.9542
-3.1225 -10.9202 -2.9928 0.9541
-1.1383 -11.3152 -2.9966 0.9540
1.8952 -11.2355 -3.0024 0.9540
3.8621 -10.7349 -3.0062 0.9539
5.7110 -9.8917 -3.0097 0.9539
6.5723 -9.3492 -3.0113 0.9538
8.1339 -8.0437 -3.0143 0.9538
9.4390 -6.4795 -3.0168 0.9537
9.9816 -5.6156 -3.0178 0.9537
10.4449 -4.7062 -3.0187 0.9537
11.1186 -2.7809 -3.0200 0.9537
11.3234 -1.7805 -3.0204 0.9537
11.4378 -0.7657 -3.0206 0.9537
11.3920 1.2744 -3.0205 0.9537
10.9827 3.2732 -3.0197 0.9537
10.6455 4.2368 -3.0191 0.9537
8.6747 6.5419 -2.8629 0.9561
8.0546 7.2850 -2.8617 0.9561
5.8351 9.1406 -2.8575 0.9561
4.9956 9.6183 -2.8559 0.9562
4.1173 10.0188 -2.8542 0.9562
3.2073 10.3392 -2.8524 0.9562
2.2729 10.5770 -2.8507 0.9562
1.3216 10.7305 -2.8488 0.9563
-2.4999 10.4901 -2.8415 0.9564
-4.3150 9.8686 -2.8381 0.9564
-5.1732 9.4399 -2.8364 0.9564
-4.7018 7.0155 -2.2254 0.9657
-6.7578 8.3642 -2.8334 0.9565
-7.4718 7.7258 -2.8321 0.9565
-8.1262 7.0270 -2.8308 0.9565
-8.7159 6.2733 -2.8297 0.9566
-9.2364 5.4708 -2.8287 0.9566
-10.0202 4.7862 -2.9261 0.9551
-10.8998 2.9858 -2.9779 0.9543
-11.1207 2.0035 -2.9775 0.9543
-10.5863 -0.0000 -2.9785 0.9570
-10.5446 -0.9422 -2.9786 0.9570
-10.4197 -1.8772 -2.9788 0.9570
-10.2126 -2.7975 -2.9792 0.9570
-8.6031 -6.1921 -2.9823 0.9569
-8.0208 -6.9359 -2.9834 0.9569
-7.3747 -7.6254 -2.9847 0.9569
-4.2583 -9.7391 -2.9906 0.9568
-3.3765 -10.0851 -2.9923 0.9568
-2.4669 -10.3516 -2.9941 0.9567
-0.5932 -10.6377 -2.9976 0.9567
0.3562 -10.6547 -2.9995 0.9567
1.3039 -10.5871 -3.0013 0.9566
2.2424 -10.4353 -3.0031 0.9566
4.0618 -9.8838 -3.0065 0.9566
5.7561 -9.0167 -3.0098 0.9565
6.5390 -8.4728 -3.0113 0.9565
7.2705 -7.8608 -3.0127 0.9565
7.9447 -7.1855 -3.0139 0.9565
8.5561 -6.4524 -3.0151 0.9564
9.5707 -4.8363 -3.0170 0.9564
10.7284 -0.2391 -3.0192 0.9564
10.5999 1.6668 -3.0190 0.9564
10.4082 2.6033 -3.0186 0.9564
10.1334 3.5187 -3.0181 0.9564
9.7778 4.4057 -3.0174 0.9564
8.8694 4.9899 -2.8633 0.9586
7.2281 7.1480 -2.8601 0.9586
5.8407 8.3086 -2.8575 0.9587
3.4326 9.5411 -2.8529 0.9587
1.6846 9.9868 -2.8495 0.9588
0.7885 10.0910 -2.8478 0.9588
-0.1127 10.1151 -2.8461 0.9588
-1.0119 10.0588 -2.8444 0.9589
-1.9021 9.9229 -2.8427 0.9589
-2.7761 9.7085 -2.8410 0.9589
-4.4484 9.0523 -2.8378 0.9590
-5.2337 8.6158 -2.8363 0.9590
-6.6719 7.5441 -2.8336 0.9590
-7.8973 6.2364 -2.8312 0.9590
-8.4181 5.5069 -2.8302 0.9591
-8.9843 4.7941 -2.8652 0.9586
-9.7515 4.1350 -2.9801 0.9569
-10.4925 -1.4111 -2.9787 0.9570
-10.3263 -2.3396 -2.9790 0.9570
-10.0787 -3.2499 -2.9795 0.9570
-9.7515 -4.1350 -2.9801 0.9569
-8.8689 -5.8017 -2.9818 0.9569
-8.3202 -6.5704 -2.9829 0.9569
-7.0293 -7.9481 -2.9853 0.9569
-5.5140 -9.0773 -2.9882 0.9568
-3.8213 -9.9219 -2.9915 0.9568
-2.0039 -10.4543 -2.9949 0.9567
-1.0661 -10.5975 -2.9967 0.9567
-0.1187 -10.6568 -2.9985 0.9567
0.8308 -10.6315 -3.0004 0.9567
1.7748 -10.5217 -3.0022 0.9566
6.1536 -8.7535 -3.0105 0.9565
8.2586 -6.8259 -3.0145 0.9565
8.8366 -6.0660 -3.0156 0.9564
9.7779 -4.4057 -3.0174 0.9564
10.1335 -3.5187 -3.0181 0.9564
10.5999 -1.6668 -3.0190 0.9564
10.7284 0.2391 -3.0192 0.9564
10.6641 1.1929 -3.0191 0.9564
10.5146 2.1372 -3.0188 0.9564
9.3403 4.7199 -2.9444 0.9574
8.6370 5.3792 -2.8628 0.9586
7.5409 6.8204 -2.8607 0.9586
6.2066 8.0421 -2.8582 0.9587
1.2376 10.0489 -2.8487 0.9588
-1.4586 10.0007 -2.8435 0.9589
-2.3415 9.8254 -2.8418 0.9589
-4.8460 8.8428 -2.8371 0.9590
-6.3307 7.8356 -2.8342 0.9590
-8.1658 5.8774 -2.8307 0.9591
-9.5588 4.5659 -2.9805 0.9569
-10.4197 1.8772 -2.9788 0.9570
-9.7963 -1.7649 -2.9800 0.9593
-8.9866 -4.2925 -2.9816 0.9593
-8.5712 -5.0767 -2.9824 0.9593
-8.0878 -5.8212 -2.9833 0.9592
-7.5403 -6.5203 -2.9844 0.9592
-5.5568 -8.2913 -2.9881 0.9592
-4.7991 -8.7572 -2.9896 0.9592
-4.0026 -9.1542 -2.9911 0.9591
-3.1736 -9.4791 -2.9927 0.9591
-1.4443 -9.9026 -2.9960 0.9591
0.3348 -10.0131 -2.9994 0.9590
1.2254 -9.9492 -3.0011 0.9590
2.9733 -9.5850 -3.0045 0.9590
3.8167 -9.2873 -3.0061 0.9589
4.6305 -8.9153 -3.0076 0.9589
6.8309 -7.3855 -3.0118 0.9589
7.4641 -6.7509 -3.0130 0.9588
8.0383 -6.0620 -3.0141 0.9588
8.9912 -4.5434 -3.0159 0.9588
9.3621 -3.7260 -3.0166 0.9588
10.0180 -1.1207 -3.0179 0.9588
10.0783 -0.2246 -3.0180 0.9588
9.9577 1.5658 -3.0178 0.9588
9.7777 2.4455 -3.0174 0.9588
9.1857 4.1389 -3.0163 0.9588
8.4128 4.7330 -2.8899 0.9605
7.8798 5.4092 -2.8614 0.9609
6.7909 6.7157 -2.8593 0.9609
5.4878 7.8065 -2.8568 0.9609
4.7689 8.2600 -2.8554 0.9610
3.2255 8.9654 -2.8525 0.9610
2.4134 9.2119 -2.8509 0.9610
1.5830 9.3849 -2.8493 0.9610
0.7410 9.4832 -2.8477 0.9611
-0.1059 9.5061 -2.8461 0.9611
-0.9510 9.4536 -2.8445 0.9611
-2.6092 9.1251 -2.8413 0.9611
-7.4242 5.8629 -2.8321 0.9613
-8.7875 4.6892 -2.9819 0.9593
-9.4756 3.0555 -2.9806 0.9593
-9.8647 1.3267 -2.9799 0.9593
-9.9432 0.4434 -2.9797 0.9593
-9.7085 -2.1997 -2.9802 0.9593
-9.4756 -3.0555 -2.9806 0.9593
-9.1679 -3.8875 -2.9812 0.9593
-7.8218 -6.1768 -2.9838 0.9592
-5.9192 -8.0336 -2.9875 0.9592
-4.4053 -8.9645 -2.9904 0.9592
-1.0020 -9.9599 -2.9969 0.9591
-0.1116 -10.0152 -2.9986 0.9590
1.6678 -9.8875 -3.0020 0.9590
4.2277 -9.1104 -3.0068 0.9589
5.0243 -8.7024 -3.0084 0.9589
6.4937 -7.6808 -3.0112 0.9589
7.1546 -7.0753 -3.0124 0.9589
8.3017 -5.6988 -3.0146 0.9588
8.7787 -4.9388 -3.0155 0.9588
9.1858 -4.1389 -3.0163 0.9588
10.0582 -0.6733 -3.0180 0.9588
10.0783 0.2246 -3.0180 0.9588
9.8776 2.0077 -3.0176 0.9588
9.6583 2.8785 -3.0172 0.9588
9.3620 3.7260 -3.0166 0.9588
8.1142 5.0536 -2.8618 0.9609
7.0847 6.4078 -2.8599 0.9609
5.1334 8.0413 -2.8561 0.9609
2.8221 9.0977 -2.8517 0.9610
2.0001 9.3077 -2.8501 0.9610
1.1631 9.4435 -2.8485 0.9611
0.3178 9.5041 -2.8469 0.9611
-0.5291 9.4893 -2.8453 0.9611
-2.2007 9.2347 -2.8421 0.9611
-3.0123 8.9973 -2.8406 0.9612
-3.7991 8.6889 -2.8391 0.9612
-4.5551 8.3120 -2.8376 0.9612
-4.6763 6.9775 -2.5147 0.9655
-6.5803 6.8040 -2.8338 0.9612
-7.1570 6.1889 -2.8327 0.9613
-8.9866 4.2925 -2.9816 0.9593
-9.3309 3.4749 -2.9809 0.9593
-9.6015 2.6301 -2.9804 0.9593
-9.7963 1.7649 -2.9800 0.9593
-9.9137 0.8859 -2.9798 0.9593
-9.2381 -1.6644 -2.9811 0.9614
-9.0543 -2.4802 -2.9815 0.9614
-8.7991 -3.2768 -2.9819 0.9614
-8.4743 -4.0478 -2.9826 0.9614
-8.0824 -4.7872 -2.9833 0.9613
-7.6265 -5.4892 -2.9842 0.9613
-7.1100 -6.1482 -2.9852 0.9613
-5.2393 -7.8176 -2.9888 0.9613
-1.3615 -9.3354 -2.9962 0.9612
-0.5255 -9.4246 -2.9978 0.9612
0.3156 -9.4390 -2.9994 0.9611
1.1551 -9.3785 -3.0010 0.9611
5.0973 -7.9848 -3.0085 0.9610
5.7903 -7.5027 -3.0098 0.9610
7.0344 -6.3622 -3.0122 0.9610
7.5753 -5.7128 -3.0132 0.9610
8.4730 -4.2816 -3.0149 0.9609
8.8224 -3.5112 -3.0156 0.9609
9.4971 -0.2116 -3.0169 0.9609
9.3835 1.4755 -3.0167 0.9609
9.2139 2.3045 -3.0163 0.9609
8.9709 3.1150 -3.0159 0.9609
8.6563 3.9003 -3.0153 0.9609
8.2728 4.6542 -3.0145 0.9609
7.4258 5.0976 -2.8605 0.9629
5.8090 6.8709 -2.8574 0.9629
3.0402 8.4505 -2.8521 0.9630
1.4922 8.8464 -2.8492 0.9630
0.6985 8.9394 -2.8477 0.9631
-3.2142 8.3455 -2.8402 0.9632
-3.9423 8.0224 -2.8388 0.9632
-4.4833 7.3805 -2.7425 0.9644
-5.2974 7.1897 -2.8362 0.9632
-6.4831 6.1316 -2.8339 0.9632
-7.0007 5.5284 -2.8330 0.9633
-7.4626 4.8818 -2.8321 0.9633
-9.1552 2.0743 -2.9812 0.9614
-9.3766 -0.4181 -2.9808 0.9614
-8.9355 -2.8813 -2.9817 0.9614
-8.6452 -3.6659 -2.9822 0.9614
-7.8622 -5.1432 -2.9837 0.9613
-7.3756 -5.8244 -2.9847 0.9613
-6.8303 -6.4600 -2.9857 0.9613
-6.2306 -7.0450 -2.9869 0.9613
-4.8870 -8.0450 -2.9894 0.9613
-3.3864 -8.7925 -2.9923 0.9612
-1.7756 -9.2631 -2.9954 0.9612
-0.9446 -9.3893 -2.9970 0.9612
0.7359 -9.4181 -3.0002 0.9611
3.2031 -8.9030 -3.0049 0.9611
5.4492 -7.7515 -3.0092 0.9610
6.7427 -6.6680 -3.0116 0.9610
7.3121 -6.0436 -3.0127 0.9610
7.8235 -5.3705 -3.0137 0.9610
8.6563 -3.9003 -3.0153 0.9609
9.2140 -2.3045 -3.0164 0.9609
9.3835 -1.4755 -3.0167 0.9609
9.4782 -0.6345 -3.0169 0.9609
9.4971 0.2117 -3.0169 0.9609
9.4403 1.0561 -3.0168 0.9609
8.4730 4.2816 -3.0149 0.9609
7.6467 4.7624 -2.8609 0.9629
6.6768 6.0388 -2.8591 0.9629
4.8382 7.5789 -2.8556 0.9630
3.4145 8.3087 -2.8528 0.9630
2.6601 8.5753 -2.8514 0.9630
1.0964 8.9017 -2.8484 0.9631
-0.4988 8.9455 -2.8454 0.9631
-2.0748 8.7061 -2.8424 0.9631
-3.5819 8.1920 -2.8395 0.9632
-5.6113 6.9451 -2.8356 0.9632
-6.7486 5.8357 -2.8334 0.9632
-8.0552 4.7711 -2.9733 0.9615
-8.4742 4.0478 -2.9825 0.9614
-8.7991 3.2768 -2.9819 0.9614
-9.2380 1.6643 -2.9811 0.9614
-8.7350 -1.5737 -2.9821 0.9632
-7.2108 -5.1900 -2.9850 0.9632
-6.1804 -6.3905 -2.9870 0.9632
-4.9533 -7.3908 -2.9893 0.9632
-4.2777 -7.8058 -2.9906 0.9631
-3.5676 -8.1592 -2.9919 0.9631
-2.0664 -8.6708 -2.9948 0.9631
-1.2871 -8.8247 -2.9963 0.9631
-0.4967 -8.9087 -2.9978 0.9630
0.2983 -8.9221 -2.9993 0.9630
1.0918 -8.8646 -3.0009 0.9630
1.8774 -8.7366 -3.0024 0.9630
3.4000 -8.2733 -3.0053 0.9630
4.8173 -7.5462 -3.0080 0.9629
5.4721 -7.0904 -3.0092 0.9629
6.6475 -6.0123 -3.0115 0.9629
7.1586 -5.3986 -3.0124 0.9629
8.0067 -4.0460 -3.0141 0.9629
8.3368 -3.3179 -3.0147 0.9628
8.6004 -2.5632 -3.0152 0.9628
8.7955 -1.7878 -3.0156 0.9628
8.9562 0.5996 -3.0159 0.9628
8.4770 2.9435 -3.0149 0.9628
7.0173 4.8171 -2.8597 0.9647
6.5587 5.4209 -2.8589 0.9647
5.4897 6.4933 -2.8568 0.9648
4.8880 6.9533 -2.8557 0.9648
3.5746 7.7030 -2.8532 0.9648
2.8734 7.9868 -2.8518 0.9648
-0.0944 8.4706 -2.8461 0.9649
-0.8475 8.4243 -2.8447 0.9649
-3.7270 7.5842 -2.8392 0.9650
-4.3853 7.2192 -2.8379 0.9650
-6.1295 5.7973 -2.8346 0.9650
-7.3015 4.7764 -2.9314 0.9639
-8.1743 3.4662 -2.9831 0.9632
-8.7961 -1.1830 -2.9819 0.9632
-8.6567 -1.9614 -2.9822 0.9632
-8.4489 -2.7244 -2.9826 0.9632
-7.8351 -4.1809 -2.9838 0.9632
-7.4338 -4.8630 -2.9846 0.9632
-5.8907 -6.6607 -2.9875 0.9632
-3.9266 -7.9903 -2.9913 0.9631
-2.4500 -8.5680 -2.9941 0.9631
-1.6785 -8.7564 -2.9956 0.9631
-0.8929 -8.8755 -2.9971 0.9631
0.6956 -8.9022 -3.0001 0.9630
1.4860 -8.8094 -3.0016 0.9630
3.7660 -8.1155 -3.0060 0.9630
4.4754 -7.7516 -3.0073 0.9629
5.1498 -7.3256 -3.0086 0.9629
6.3720 -6.3014 -3.0109 0.9629
6.9099 -5.7112 -3.0120 0.9629
7.3931 -5.0751 -3.0129 0.9629
8.1799 -3.6857 -3.0144 0.9628
8.8668 -1.3942 -3.0157 0.9628
8.9562 -0.5996 -3.0159 0.9628
8.7955 1.7878 -3.0155 0.9628
8.6004 2.5632 -3.0152 0.9628
8.0066 4.0459 -3.0140 0.9629
7.5719 4.7159 -2.9971 0.9631
6.3097 5.7068 -2.8584 0.9647
4.5725 7.1626 -2.8551 0.9648
1.7820 8.2925 -2.8497 0.9648
1.0363 8.4140 -2.8483 0.9649
0.2831 8.4685 -2.8469 0.9649
-1.9613 8.2300 -2.8426 0.9649
-4.6506 6.9392 -2.8066 0.9654
-5.3051 6.5662 -2.8362 0.9650
-6.3806 5.5175 -2.8341 0.9650
-6.8443 4.9262 -2.8333 0.9650
-8.0126 3.8273 -2.9834 0.9632
-8.5612 2.3452 -2.9824 0.9632
-8.7350 1.5737 -2.9821 0.9632
-8.4117 0.0000 -2.9827 0.9649
-8.3785 -0.7487 -2.9827 0.9649
-8.2791 -1.4916 -2.9829 0.9649
-8.1144 -2.2228 -2.9832 0.9649
-7.5943 -3.6275 -2.9842 0.9649
-6.8341 -4.9189 -2.9857 0.9649
-6.3711 -5.5092 -2.9866 0.9649
-5.8573 -6.0564 -2.9876 0.9649
-5.2969 -6.5561 -2.9886 0.9649
-4.6942 -7.0042 -2.9898 0.9648
-3.3808 -7.7320 -2.9923 0.9648
-0.4707 -8.4414 -2.9979 0.9648
1.0345 -8.3992 -3.0007 0.9647
1.7788 -8.2777 -3.0022 0.9647
3.2212 -7.8383 -3.0049 0.9647
3.9078 -7.5238 -3.0062 0.9647
4.5638 -7.1491 -3.0075 0.9646
5.7635 -6.2314 -3.0098 0.9646
6.2974 -5.6956 -3.0108 0.9646
6.7814 -5.1141 -3.0117 0.9646
7.8971 -3.1429 -3.0138 0.9646
8.3316 -1.6935 -3.0147 0.9646
8.4499 -0.9453 -3.0149 0.9646
8.5007 -0.1895 -3.0150 0.9646
8.3991 1.3207 -3.0148 0.9646
8.2474 2.0628 -3.0145 0.9646
7.7485 3.4913 -3.0135 0.9646
7.4054 4.1662 -3.0129 0.9646
4.6308 6.5873 -2.8552 0.9664
4.0244 6.9705 -2.8540 0.9664
3.3866 7.2979 -2.8528 0.9664
-1.5096 7.8757 -2.8434 0.9665
-2.2036 7.7064 -2.8421 0.9666
-3.5319 7.1872 -2.8396 0.9666
-4.1558 6.8415 -2.8384 0.9666
-5.2989 5.9916 -2.8362 0.9666
-7.0454 4.6089 -2.9853 0.9649
-7.7475 3.2852 -2.9839 0.9649
-8.0078 2.5822 -2.9834 0.9649
-8.3370 1.1212 -2.9828 0.9649
-8.4034 0.3747 -2.9827 0.9649
-8.4034 -0.3747 -2.9827 0.9649
-7.4259 -3.9626 -2.9846 0.9649
-7.0455 -4.6089 -2.9853 0.9649
-6.6092 -5.2192 -2.9861 0.9649
-6.1203 -5.7885 -2.9871 0.9649
-5.0006 -6.7868 -2.9892 0.9649
-4.3784 -7.2078 -2.9904 0.9648
-3.0337 -7.8767 -2.9930 0.9648
-2.3216 -8.1192 -2.9943 0.9648
-0.8461 -8.4100 -2.9971 0.9648
-0.0942 -8.4561 -2.9986 0.9647
1.4079 -8.3468 -3.0015 0.9647
2.8682 -7.9722 -3.0042 0.9647
3.5680 -7.6887 -3.0056 0.9647
4.2400 -7.3438 -3.0069 0.9647
6.0364 -5.9695 -3.0103 0.9646
6.5459 -5.4103 -3.0113 0.9646
8.3991 -1.3207 -3.0148 0.9646
8.4838 -0.5679 -3.0150 0.9646
8.5007 0.1894 -3.0150 0.9646
8.4498 0.9453 -3.0149 0.9646
8.3315 1.6935 -3.0147 0.9646
8.1468 2.4280 -3.0143 0.9646
7.8971 3.1429 -3.0138 0.9646
7.5845 3.8326 -3.0132 0.9646
7.2116 4.4914 -3.0125 0.9646
6.4367 4.8541 -2.8586 0.9664
5.4705 5.9147 -2.8568 0.9664
4.9206 6.3758 -2.8557 0.9664
3.7091 7.1414 -2.8534 0.9664
3.0575 7.4399 -2.8522 0.9664
1.6884 7.8569 -2.8496 0.9665
0.9819 7.9723 -2.8482 0.9665
0.2683 8.0241 -2.8468 0.9665
-0.4468 8.0123 -2.8455 0.9665
-2.5441 7.5989 -2.8415 0.9666
-3.8478 7.0212 -2.8390 0.9666
-4.4556 6.6482 -2.8378 0.9666
-5.0277 6.2229 -2.8367 0.9666
-6.0472 5.2292 -2.8348 0.9666
-7.2428 4.2899 -2.9849 0.9649
-8.1144 2.2228 -2.9832 0.9649
-8.3785 0.7487 -2.9827 0.9649
-7.9898 0.0000 -2.9835 0.9665
-7.9583 -0.7112 -2.9835 0.9665
-7.8639 -1.4168 -2.9837 0.9665
-7.4899 -2.7893 -2.9844 0.9665
-7.2132 -3.4454 -2.9850 0.9664
-6.8793 -4.0746 -2.9856 0.9664
-6.4910 -4.6719 -2.9864 0.9664
-6.0511 -5.2326 -2.9872 0.9664
-5.5631 -5.7522 -2.9881 0.9664
-5.0308 -6.2266 -2.9891 0.9664
-4.4582 -6.6521 -2.9902 0.9664
-3.8499 -7.0253 -2.9914 0.9664
-2.5455 -7.6029 -2.9939 0.9663
-1.1581 -7.9408 -2.9966 0.9663
-0.4470 -8.0160 -2.9979 0.9663
0.9823 -7.9755 -3.0006 0.9663
1.6890 -7.8599 -3.0020 0.9663
2.3829 -7.6818 -3.0033 0.9662
4.3331 -6.7877 -3.0070 0.9662
5.4719 -5.9162 -3.0092 0.9662
6.8465 -4.2640 -3.0118 0.9661
7.4971 -2.9838 -3.0131 0.9661
7.9094 -1.6077 -3.0139 0.9661
8.0700 -0.1798 -3.0142 0.9661
8.0539 0.5391 -3.0141 0.9661
7.9735 1.2538 -3.0140 0.9661
5.4397 5.3794 -2.8567 0.9679
4.9376 5.8403 -2.8558 0.9679
4.3966 6.2543 -2.8547 0.9679
3.2155 6.9292 -2.8525 0.9679
-0.7626 7.5803 -2.8449 0.9680
-2.0927 7.3185 -2.8423 0.9680
-3.3542 6.8257 -2.8399 0.9680
-4.5078 6.1181 -2.8377 0.9681
-5.0327 5.6906 -2.8367 0.9681
-6.0551 4.7817 -2.8811 0.9676
-6.6918 4.3776 -2.9859 0.9664
-7.3588 3.1204 -2.9847 0.9664
-7.6061 2.4527 -2.9842 0.9665
-7.7933 1.7657 -2.9839 0.9665
-7.9819 0.3559 -2.9835 0.9665
-7.6061 -2.4527 -2.9842 0.9665
-7.3588 -3.1204 -2.9847 0.9664
-4.7492 -6.4457 -2.9897 0.9664
-3.5339 -7.1912 -2.9920 0.9664
-2.8810 -7.4804 -2.9933 0.9664
-2.2047 -7.7104 -2.9946 0.9663
-1.5104 -7.8795 -2.9959 0.9663
-0.8034 -7.9863 -2.9972 0.9663
-0.0895 -8.0298 -2.9986 0.9663
1.3369 -7.9256 -3.0013 0.9663
3.3877 -7.3003 -3.0052 0.9662
4.6321 -6.5892 -3.0076 0.9662
5.2020 -6.1530 -3.0087 0.9662
5.7310 -5.6675 -3.0097 0.9662
6.2146 -5.1364 -3.0106 0.9662
6.6489 -4.5642 -3.0115 0.9662
7.6232 -2.6470 -3.0133 0.9661
7.8296 -1.9583 -3.0137 0.9661
8.0539 -0.5391 -3.0141 0.9661
7.2004 3.6385 -3.0125 0.9661
6.8464 4.2640 -3.0118 0.9661
6.2743 4.7317 -2.9344 0.9670
5.1938 5.6155 -2.8563 0.9679
4.1129 6.4427 -2.8542 0.9679
3.5217 6.7805 -2.8531 0.9679
2.9030 7.0641 -2.8519 0.9679
0.9323 7.5701 -2.8481 0.9680
-0.4242 7.6085 -2.8455 0.9680
-1.0993 7.5372 -2.8442 0.9680
-2.4161 7.2164 -2.8417 0.9680
-4.2316 6.3140 -2.8382 0.9681
-4.7750 5.9102 -2.8372 0.9681
-6.8793 4.0746 -2.9856 0.9664
-7.2131 3.4454 -2.9850 0.9664
-7.7073 2.1113 -2.9840 0.9665
-7.8638 1.4167 -2.9837 0.9665
-7.9582 0.7112 -2.9835 0.9665
-7.5736 -0.6768 -2.9843 0.9679
-7.3348 -2.0092 -2.9847 0.9678
-6.8644 -3.2788 -2.9856 0.9678
-6.5467 -3.8776 -2.9862 0.9678
-6.1770 -4.4459 -2.9870 0.9678
-5.7583 -4.9794 -2.9878 0.9678
-5.2938 -5.4738 -2.9886 0.9678
-2.4220 -7.2342 -2.9941 0.9677
-1.7693 -7.4242 -2.9954 0.9677
-1.1019 -7.5554 -2.9967 0.9677
-0.4253 -7.6268 -2.9980 0.9677
2.9097 -7.0803 -3.0043 0.9676
4.1221 -6.4572 -3.0066 0.9676
4.6822 -6.0668 -3.0077 0.9676
5.2053 -5.6279 -3.0087 0.9676
5.6873 -5.1438 -3.0096 0.9676
6.1242 -4.6185 -3.0105 0.9676
6.5126 -4.0561 -3.0112 0.9676
6.8492 -3.4611 -3.0118 0.9676
7.3567 -2.1925 -3.0128 0.9676
7.5235 -1.5292 -3.0131 0.9675
7.6761 -0.1710 -3.0134 0.9675
7.4475 1.8628 -3.0130 0.9676
7.2512 2.5179 -3.0126 0.9676
6.9972 3.1528 -3.0121 0.9676
6.3247 4.3416 -3.0108 0.9676
5.7307 4.7365 -2.9179 0.9686
5.1746 5.1172 -2.8562 0.9692
2.4592 6.8354 -2.8510 0.9693
1.8403 7.0242 -2.8498 0.9693
1.2073 7.1571 -2.8486 0.9693
-0.0808 7.2515 -2.8462 0.9693
-1.3640 7.1162 -2.8437 0.9693
-1.9912 6.9635 -2.8425 0.9694
-3.7557 6.1827 -2.8392 0.9694
-6.3681 4.1658 -2.9866 0.9678
-6.7121 3.5817 -2.9859 0.9678
-7.2384 2.3341 -2.9849 0.9678
-7.4166 1.6804 -2.9846 0.9679
-7.5361 1.0135 -2.9843 0.9679
-7.5962 0.3388 -2.9842 0.9679
-7.5962 -0.3387 -2.9842 0.9679
-7.5362 -1.0135 -2.9843 0.9679
-7.4166 -1.6804 -2.9846 0.9679
-6.7122 -3.5817 -2.9859 0.9678
-6.3682 -4.1658 -2.9866 0.9678
-5.9736 -4.7173 -2.9873 0.9678
-5.5316 -5.2317 -2.9882 0.9678
-5.0456 -5.7051 -2.9891 0.9678
-2.7413 -7.1177 -2.9935 0.9678
-1.4371 -7.4972 -2.9960 0.9677
0.5955 -7.6204 -2.9999 0.9677
1.2719 -7.5404 -3.0012 0.9677
1.9388 -7.4004 -3.0025 0.9677
2.5909 -7.2014 -3.0037 0.9676
3.2228 -6.9450 -3.0049 0.9676
4.4065 -6.2683 -3.0072 0.9676
4.9486 -5.8532 -3.0082 0.9676
5.4517 -5.3912 -3.0092 0.9676
6.3247 -4.3417 -3.0108 0.9676
6.6876 -3.7623 -3.0115 0.9676
6.9973 -3.1528 -3.0121 0.9676
7.5844 -1.1926 -3.0132 0.9675
7.6608 -0.5128 -3.0134 0.9675
7.5235 1.5292 -3.0131 0.9675
7.3567 2.1925 -3.0128 0.9676
7.1313 2.8382 -3.0124 0.9676
6.8492 3.4611 -3.0118 0.9676
6.5126 4.0561 -3.0112 0.9676
6.1242 4.6185 -3.0104 0.9676
5.3982 4.8824 -2.8566 0.9692
4.9407 5.3419 -2.8558 0.9692
3.9126 6.1290 -2.8538 0.9692
3.3503 6.4505 -2.8527 0.9692
2.7618 6.7204 -2.8516 0.9693
2.1518 6.9367 -2.8504 0.9693
1.5252 7.0978 -2.8492 0.9693
0.8870 7.2022 -2.8480 0.9693
-1.6793 7.0468 -2.8431 0.9694
-2.8998 6.6320 -2.8408 0.9694
-4.0267 6.0082 -2.8386 0.9694
-5.0248 5.1956 -2.8367 0.9694
-6.5466 3.8776 -2.9862 0.9678
-6.8644 3.2788 -2.9856 0.9678
-7.1278 2.6544 -2.9851 0.9678
-7.4838 1.3483 -2.9844 0.9679
-7.5736 0.6768 -2.9843 0.9679
-7.2487 0.0000 -2.9849 0.9691
-7.2201 -0.6452 -2.9850 0.9691
-7.1344 -1.2853 -2.9851 0.9691
-5.4892 -4.7467 -2.9883 0.9691
-5.0464 -5.2179 -2.9891 0.9691
-4.5634 -5.6481 -2.9900 0.9691
-2.9121 -6.6600 -2.9932 0.9690
-2.3086 -6.8955 -2.9944 0.9690
0.2434 -7.2795 -2.9992 0.9690
1.5315 -7.1268 -3.0017 0.9690
3.9283 -6.1536 -3.0063 0.9689
6.2060 -3.8651 -3.0106 0.9689
6.5267 -3.2981 -3.0112 0.9689
7.0102 -2.0893 -3.0121 0.9689
7.2708 -0.8134 -3.0126 0.9688
7.3145 -0.1630 -3.0127 0.9688
6.9097 2.3993 -3.0119 0.9689
6.6677 3.0043 -3.0115 0.9689
6.3726 3.5852 -3.0109 0.9689
4.4761 5.2944 -2.8549 0.9705
3.4642 6.0001 -2.8529 0.9705
1.1506 6.8212 -2.8485 0.9705
0.5387 6.8937 -2.8474 0.9705
-0.6916 6.8743 -2.8450 0.9706
-1.3001 6.7827 -2.8438 0.9706
-2.4802 6.4396 -2.8416 0.9706
-3.5800 5.8935 -2.8395 0.9706
-5.0554 4.7814 -2.8653 0.9703
-6.3987 3.4145 -2.9865 0.9691
-6.6760 2.8309 -2.9860 0.9691
-7.0704 1.6019 -2.9852 0.9691
-7.1844 0.9662 -2.9850 0.9691
-6.6760 -2.8309 -2.9860 0.9691
-6.3987 -3.4144 -2.9865 0.9691
-6.0707 -3.9712 -2.9872 0.9691
-5.6945 -4.4969 -2.9879 0.9691
-4.8097 -5.4384 -2.9896 0.9691
-4.3079 -5.8468 -2.9905 0.9691
-3.7717 -6.2091 -2.9916 0.9691
-2.6130 -6.7845 -2.9938 0.9690
-1.9996 -6.9929 -2.9949 0.9690
3.0714 -6.6187 -3.0046 0.9689
3.6497 -6.3214 -3.0057 0.9689
4.1993 -5.9736 -3.0068 0.9689
5.1952 -5.1376 -3.0087 0.9689
6.0270 -4.1373 -3.0103 0.9689
6.9097 -2.3993 -3.0120 0.9689
7.0967 -1.7750 -3.0123 0.9689
7.2271 -1.1364 -3.0126 0.9688
7.3145 0.1630 -3.0127 0.9688
7.2708 0.8134 -3.0126 0.9688
7.1690 1.4571 -3.0124 0.9688
5.8359 4.4011 -3.0099 0.9689
5.2404 4.7396 -2.9096 0.9699
4.7083 5.0906 -2.8553 0.9704
4.2352 5.4877 -2.8544 0.9705
3.7287 5.8409 -2.8535 0.9705
3.1929 6.1473 -2.8524 0.9705
2.6320 6.4047 -2.8514 0.9705
0.8454 6.8643 -2.8479 0.9705
-0.3847 6.8997 -2.8456 0.9705
-1.6007 6.7167 -2.8433 0.9706
-2.7640 6.3216 -2.8410 0.9706
-3.8383 5.7272 -2.8390 0.9706
-5.8884 4.2382 -2.9875 0.9691
-6.7949 2.5305 -2.9858 0.9691
-6.8120 -1.2273 -2.9857 0.9703
-6.4879 -2.4161 -2.9864 0.9703
-5.6221 -4.0466 -2.9880 0.9703
-5.2409 -4.5320 -2.9887 0.9703
-3.8608 -5.7607 -2.9914 0.9702
-3.3339 -6.0835 -2.9924 0.9702
-2.2040 -6.5830 -2.9946 0.9702
-0.3869 -6.9394 -2.9980 0.9702
0.2323 -6.9490 -2.9992 0.9702
1.4619 -6.8031 -3.0016 0.9701
2.0624 -6.6485 -3.0027 0.9701
2.6469 -6.4410 -3.0038 0.9701
5.1729 -4.6786 -3.0086 0.9701
5.5702 -4.2006 -3.0094 0.9701
5.9233 -3.6890 -3.0101 0.9701
6.8423 -1.3907 -3.0118 0.9700
6.9811 -0.1555 -3.0121 0.9700
6.0823 3.4219 -3.0104 0.9701
5.7524 3.9488 -3.0097 0.9701
5.3768 4.4441 -3.0090 0.9701
4.2724 5.0535 -2.8545 0.9716
3.8045 5.4120 -2.8536 0.9716
3.3066 5.7272 -2.8526 0.9716
1.6742 6.3903 -2.8495 0.9716
-3.4179 5.6267 -2.8398 0.9717
-3.9039 5.2984 -2.8389 0.9717
-4.3586 4.9284 -2.8380 0.9717
-6.1094 3.2601 -2.9871 0.9703
-6.3742 2.7029 -2.9866 0.9703
-6.5886 2.1246 -2.9862 0.9703
-6.7509 1.5296 -2.9858 0.9703
-6.8597 0.9225 -2.9856 0.9703
-6.8597 -0.9226 -2.9856 0.9703
-6.3743 -2.7029 -2.9866 0.9703
-6.1094 -3.2601 -2.9871 0.9703
-4.5920 -5.1923 -2.9900 0.9703
-3.0601 -6.2271 -2.9929 0.9702
-2.4946 -6.4771 -2.9940 0.9702
-1.3077 -6.8219 -2.9963 0.9702
0.5418 -6.9332 -2.9998 0.9702
1.1572 -6.8601 -3.0010 0.9701
1.7638 -6.7325 -3.0021 0.9701
2.9318 -6.3178 -3.0044 0.9701
4.0082 -5.7018 -3.0064 0.9701
4.5012 -5.3240 -3.0074 0.9701
5.3769 -4.4441 -3.0090 0.9701
5.7524 -3.9488 -3.0097 0.9701
6.0823 -3.4218 -3.0104 0.9701
6.3639 -2.8674 -3.0109 0.9701
6.5948 -2.2900 -3.0114 0.9700
6.7732 -1.6941 -3.0117 0.9700
6.9811 0.1556 -3.0121 0.9700
6.2293 3.1478 -3.0106 0.9701
5.9232 3.6890 -3.0101 0.9701
5.1728 4.6786 -3.0086 0.9701
4.4940 4.8588 -2.8549 0.9716
3.0477 5.8678 -2.8522 0.9716
2.5124 6.1136 -2.8511 0.9716
1.3876 6.4573 -2.8490 0.9716
0.2205 6.5958 -2.8468 0.9717
-0.3673 6.5867 -2.8456 0.9717
-0.9517 6.5253 -2.8445 0.9717
-1.5281 6.4122 -2.8434 0.9717
-2.6388 6.0352 -2.8413 0.9717
-3.6646 5.4679 -2.8393 0.9717
-4.1354 5.1184 -2.8384 0.9717
-5.6221 4.0466 -2.9880 0.9703
-6.2480 2.9844 -2.9868 0.9703
-6.4878 2.4161 -2.9863 0.9703
-6.6763 1.8288 -2.9860 0.9703
-6.8120 1.2272 -2.9857 0.9703
-6.8939 0.6160 -2.9856 0.9703
-6.5135 -1.1735 -2.9863 0.9714
-6.2035 -2.3102 -2.9869 0.9714
-5.6974 -3.3746 -2.9879 0.9714
-5.3755 -3.8691 -2.9885 0.9714
-5.0110 -4.3331 -2.9892 0.9713
-3.6913 -5.5078 -2.9917 0.9713
-3.1874 -5.8163 -2.9927 0.9713
-2.6580 -6.0790 -2.9937 0.9713
-2.1071 -6.2937 -2.9947 0.9713
-1.5392 -6.4585 -2.9958 0.9713
-0.9586 -6.5723 -2.9969 0.9713
0.8128 -6.5995 -3.0003 0.9712
2.5303 -6.1570 -3.0036 0.9712
3.0693 -5.9094 -3.0046 0.9712
4.0709 -5.2749 -3.0065 0.9712
4.5256 -4.8931 -3.0074 0.9712
5.3242 -4.0152 -3.0089 0.9712
5.9541 -3.0087 -3.0101 0.9711
6.3950 -1.9060 -3.0110 0.9711
6.5399 -1.3293 -3.0112 0.9711
6.6326 -0.7420 -3.0114 0.9711
6.5928 1.0367 -3.0113 0.9711
6.4739 1.6192 -3.0111 0.9711
6.3034 2.1888 -3.0108 0.9711
5.8136 3.2707 -3.0098 0.9712
5.4983 3.7744 -3.0092 0.9712
3.6367 5.1732 -2.8533 0.9726
2.6600 5.7322 -2.8514 0.9726
1.6004 6.1087 -2.8494 0.9727
0.4916 6.2910 -2.8473 0.9727
-0.0703 6.3074 -2.8462 0.9727
-2.7769 5.6509 -2.8410 0.9727
-3.2678 5.3796 -2.8401 0.9728
-3.7325 5.0657 -2.8392 0.9728
-4.8136 4.5527 -2.9895 0.9713
-5.1984 4.1051 -2.9888 0.9714
-5.5419 3.6254 -2.9881 0.9714
-5.8415 3.1171 -2.9876 0.9714
-6.0948 2.5844 -2.9871 0.9714
-6.4550 1.4625 -2.9864 0.9714
-6.5591 0.8821 -2.9862 0.9714
-6.6113 0.2948 -2.9861 0.9714
-6.4550 -1.4625 -2.9864 0.9714
-6.0948 -2.5844 -2.9871 0.9714
-5.8415 -3.1171 -2.9876 0.9714
-5.5420 -3.6254 -2.9882 0.9714
-5.1984 -4.1052 -2.9888 0.9714
-4.8136 -4.5527 -2.9896 0.9713
-3.9324 -5.3370 -2.9912 0.9713
-2.9256 -5.9535 -2.9932 0.9713
-2.3850 -6.1924 -2.9942 0.9713
-1.2501 -6.5219 -2.9964 0.9713
-0.0740 -6.6452 -2.9986 0.9713
1.1062 -6.5580 -3.0009 0.9712
1.6861 -6.4358 -3.0020 0.9712
2.2531 -6.2625 -3.0031 0.9712
2.8025 -6.0392 -3.0041 0.9712
4.3026 -5.0890 -3.0070 0.9712
5.1394 -4.2478 -3.0086 0.9712
5.4984 -3.7744 -3.0093 0.9712
5.8137 -3.2707 -3.0099 0.9712
6.3034 -2.1888 -3.0108 0.9711
6.5928 -1.0367 -3.0113 0.9711
6.6725 0.1487 -3.0115 0.9711
6.6326 0.7420 -3.0114 0.9711
6.5399 1.3293 -3.0112 0.9711
6.3950 1.9059 -3.0110 0.9711
5.9541 3.0087 -3.0101 0.9711
5.6616 3.5261 -3.0096 0.9712
4.9444 4.4720 -3.0082 0.9712
3.4020 5.3292 -2.8528 0.9726
2.4016 5.8440 -2.8509 0.9727
1.8713 6.0325 -2.8499 0.9727
1.3265 6.1728 -2.8489 0.9727
-0.3511 6.2968 -2.8457 0.9727
-1.4609 6.1303 -2.8435 0.9727
-2.0000 5.9737 -2.8425 0.9727
-2.5229 5.7700 -2.8415 0.9727
-3.9538 4.8937 -2.8388 0.9728
-4.6011 4.7574 -2.9863 0.9714
-5.0110 4.3332 -2.9892 0.9713
-5.6974 3.3746 -2.9879 0.9714
-5.9741 2.8536 -2.9873 0.9714
-6.3837 1.7487 -2.9865 0.9714
-5.9391 -2.2117 -2.9874 0.9724
-5.4546 -3.2307 -2.9883 0.9724
-5.1464 -3.7041 -2.9889 0.9723
-4.4102 -4.5601 -2.9903 0.9723
-3.0514 -5.5680 -2.9929 0.9723
-2.5445 -5.8194 -2.9939 0.9723
-0.9176 -6.2914 -2.9970 0.9723
-0.3541 -6.3504 -2.9981 0.9723
0.2126 -6.3590 -2.9992 0.9723
0.7780 -6.3171 -3.0002 0.9722
1.8871 -6.0834 -3.0024 0.9722
3.8965 -5.0488 -3.0062 0.9722
4.3316 -4.6832 -3.0070 0.9722
4.7324 -4.2802 -3.0078 0.9722
5.0957 -3.8429 -3.0085 0.9722
5.4187 -3.3748 -3.0091 0.9722
5.9331 -2.3613 -3.0101 0.9722
6.1205 -1.8241 -3.0104 0.9722
6.2591 -1.2722 -3.0107 0.9722
6.3860 -0.1423 -3.0109 0.9721
6.0328 2.0948 -3.0103 0.9722
5.8216 2.6231 -3.0099 0.9722
5.5641 3.1303 -3.0094 0.9722
4.9189 4.0656 -3.0081 0.9722
4.5364 4.4862 -3.0074 0.9722
4.0079 4.7406 -2.9262 0.9729
3.0253 5.2400 -2.8521 0.9736
2.5461 5.4867 -2.8512 0.9736
2.0470 5.6896 -2.8502 0.9736
1.5319 5.8472 -2.8493 0.9736
0.4706 6.0219 -2.8472 0.9736
-1.6582 5.7992 -2.8432 0.9737
-2.1671 5.6267 -2.8422 0.9737
-3.5732 4.8496 -2.8395 0.9737
-4.2032 4.7526 -2.9907 0.9723
-4.6083 4.3585 -2.9899 0.9723
-5.8351 2.4743 -2.9876 0.9724
-6.1800 1.4002 -2.9869 0.9724
-6.2797 0.8445 -2.9867 0.9724
-6.3297 0.2823 -2.9867 0.9724
-6.2797 -0.8446 -2.9867 0.9724
-6.1800 -1.4002 -2.9869 0.9724
-6.0314 -1.9449 -2.9872 0.9724
-5.5926 -2.9843 -2.9881 0.9724
-4.9768 -3.9301 -2.9892 0.9723
-3.7646 -5.1093 -2.9916 0.9723
-0.6365 -6.3272 -2.9975 0.9723
-0.0709 -6.3610 -2.9986 0.9723
1.0589 -6.2773 -3.0008 0.9722
2.1566 -5.9943 -3.0029 0.9722
3.1873 -5.5206 -3.0048 0.9722
4.1181 -4.8709 -3.0066 0.9722
6.0328 -2.0948 -3.0103 0.9722
6.3732 -0.4266 -3.0109 0.9721
6.3478 0.7101 -3.0109 0.9721
6.1204 1.8241 -3.0104 0.9722
5.9331 2.3613 -3.0101 0.9722
5.0957 3.8429 -3.0085 0.9722
3.6984 4.7921 -2.8534 0.9736
3.2562 5.1008 -2.8526 0.9736
2.7884 5.3687 -2.8517 0.9736
1.7912 5.7742 -2.8498 0.9736
0.7385 5.9960 -2.8477 0.9736
-0.3361 6.0276 -2.8457 0.9737
-0.8709 5.9716 -2.8447 0.9737
-1.9146 5.7186 -2.8427 0.9737
-5.1464 3.7041 -2.9889 0.9723
-5.7195 2.7320 -2.9878 0.9724
-5.9391 2.2118 -2.9874 0.9724
-6.1117 1.6742 -2.9871 0.9724
-6.2360 1.1235 -2.9868 0.9724
-6.3109 0.5639 -2.9867 0.9724
-6.0732 0.0000 -2.9871 0.9733
-5.8582 -1.6047 -2.9876 0.9733
-5.4822 -2.6186 -2.9883 0.9733
-5.2282 -3.0967 -2.9888 0.9733
-4.9328 -3.5504 -2.9893 0.9733
-4.5982 -3.9762 -2.9900 0.9733
-4.2271 -4.3707 -2.9907 0.9733
-3.8223 -4.7308 -2.9915 0.9733
-2.9246 -5.3367 -2.9932 0.9732
-2.4387 -5.5775 -2.9941 0.9732
-1.9332 -5.7743 -2.9951 0.9732
-0.8794 -6.0296 -2.9971 0.9732
-0.3394 -6.0861 -2.9981 0.9732
0.2038 -6.0942 -2.9992 0.9732
0.7456 -6.0540 -3.0002 0.9732
1.2819 -5.9656 -3.0012 0.9732
1.8084 -5.8298 -3.0022 0.9732
2.8152 -5.4203 -3.0041 0.9731
3.7338 -4.8380 -3.0059 0.9731
4.5348 -4.1015 -3.0074 0.9731
4.8829 -3.6824 -3.0081 0.9731
5.4605 -2.7593 -3.0092 0.9731
5.6852 -2.2626 -3.0096 0.9731
5.8647 -1.7479 -3.0100 0.9731
5.9975 -1.2190 -3.0102 0.9731
6.0825 -0.6804 -3.0104 0.9731
6.1191 -0.1363 -3.0104 0.9731
6.1069 0.4088 -3.0104 0.9731
6.0460 0.9507 -3.0103 0.9731
5.7807 2.0073 -3.0098 0.9731
5.3317 2.9995 -3.0089 0.9731
5.0426 3.4615 -3.0084 0.9731
4.7135 3.8958 -3.0077 0.9731
4.3470 4.2989 -3.0070 0.9731
3.9462 4.6675 -3.0063 0.9731
2.8991 5.0214 -2.8519 0.9745
2.4399 5.2579 -2.8510 0.9745
1.9616 5.4524 -2.8501 0.9745
1.4681 5.6035 -2.8491 0.9745
0.9632 5.7100 -2.8482 0.9745
0.4510 5.7711 -2.8472 0.9745
-1.5893 5.5580 -2.8433 0.9746
-2.9984 4.9360 -2.8406 0.9746
-4.0286 4.5552 -2.9910 0.9733
-4.4170 4.1776 -2.9903 0.9733
-4.7702 3.7670 -2.9896 0.9733
-5.3605 2.8605 -2.9885 0.9733
-5.5930 2.3716 -2.9881 0.9733
-5.7812 1.8642 -2.9877 0.9733
-5.9237 1.3421 -2.9874 0.9733
-6.0192 0.8095 -2.9872 0.9733
-6.0672 -0.2705 -2.9872 0.9733
-6.0192 -0.8095 -2.9872 0.9733
-5.9237 -1.3421 -2.9874 0.9733
-5.7812 -1.8642 -2.9877 0.9733
-5.0856 -3.3268 -2.9890 0.9733
-4.0287 -4.5553 -2.9911 0.9733
-3.6082 -4.8971 -2.9919 0.9732
-3.1589 -5.2003 -2.9927 0.9732
-2.1882 -5.6815 -2.9946 0.9732
-1.6744 -5.8557 -2.9956 0.9732
-1.1469 -5.9834 -2.9966 0.9732
-0.6100 -6.0638 -2.9976 0.9732
1.0147 -6.0158 -3.0007 0.9732
2.5706 -5.5394 -3.0037 0.9731
3.0544 -5.2903 -3.0046 0.9731
3.5141 -4.9989 -3.0055 0.9731
3.9462 -4.6675 -3.0063 0.9731
4.3471 -4.2989 -3.0071 0.9731
4.7135 -3.8958 -3.0078 0.9731
5.0426 -3.4615 -3.0084 0.9731
5.3317 -2.9995 -3.0089 0.9731
5.5784 -2.5135 -3.0094 0.9731
6.0460 -0.9507 -3.0103 0.9731
6.0825 0.6804 -3.0104 0.9731
5.6852 2.2627 -3.0096 0.9731
5.1923 3.2338 -3.0087 0.9731
4.1507 4.4877 -3.0067 0.9731
3.1204 4.8879 -2.8523 0.9745
2.6721 5.1448 -2.8514 0.9745
2.2029 5.3605 -2.8505 0.9745
1.2168 5.6624 -2.8487 0.9745
0.7077 5.7463 -2.8477 0.9745
-0.3221 5.7767 -2.8457 0.9745
-2.3148 5.2940 -2.8419 0.9746
-2.7759 5.0654 -2.8410 0.9746
-4.2270 4.3707 -2.9907 0.9733
-4.5982 3.9762 -2.9900 0.9733
-4.9328 3.5504 -2.9893 0.9733
-5.4822 2.6186 -2.9883 0.9733
-5.9774 1.0769 -2.9873 0.9733
-6.0492 0.5405 -2.9872 0.9733
-5.8045 -0.5187 -2.9877 0.9741
-5.0166 -2.9713 -2.9892 0.9741
-4.4120 -3.8152 -2.9903 0.9741
-4.0559 -4.1937 -2.9910 0.9741
-2.8060 -5.1204 -2.9934 0.9741
-1.8548 -5.5401 -2.9952 0.9741
-1.3548 -5.6850 -2.9962 0.9741
-0.8437 -5.7849 -2.9971 0.9741
-0.3256 -5.8390 -2.9981 0.9741
1.2298 -5.7232 -3.0011 0.9740
2.7007 -5.1998 -3.0039 0.9740
3.5819 -4.6412 -3.0056 0.9740
4.6841 -3.5324 -3.0077 0.9740
5.2380 -2.6469 -3.0088 0.9740
5.6257 -1.6766 -3.0095 0.9740
5.7531 -1.1693 -3.0097 0.9740
4.8372 3.3206 -3.0080 0.9740
3.3287 4.7352 -2.9674 0.9743
2.3407 5.0441 -2.8508 0.9753
1.8819 5.2308 -2.8499 0.9753
0.9240 5.4781 -2.8481 0.9753
0.4326 5.5367 -2.8472 0.9753
-0.0618 5.5514 -2.8462 0.9754
-0.5555 5.5221 -2.8453 0.9754
-1.9928 5.1741 -2.8425 0.9754
-2.4446 4.9746 -2.8417 0.9754
-2.9003 4.7746 -2.8640 0.9752
-3.8655 4.3708 -2.9913 0.9741
-4.5771 3.6145 -2.9900 0.9741
-4.8797 3.1922 -2.9894 0.9741
-5.5473 1.7888 -2.9881 0.9741
-5.6840 1.2878 -2.9879 0.9741
-5.8218 0.2596 -2.9876 0.9741
-5.7758 -0.7768 -2.9877 0.9741
-5.6840 -1.2878 -2.9879 0.9741
-3.8655 -4.3708 -2.9914 0.9741
-0.5853 -5.8178 -2.9976 0.9741
0.9735 -5.7714 -3.0006 0.9740
1.4838 -5.6636 -3.0016 0.9740
1.9827 -5.5109 -3.0025 0.9740
2.4660 -5.3142 -3.0035 0.9740
3.3711 -4.7955 -3.0052 0.9740
3.7856 -4.4776 -3.0060 0.9740
4.5216 -3.7372 -3.0074 0.9740
4.8373 -3.3206 -3.0080 0.9740
5.1145 -2.8774 -3.0085 0.9740
5.5452 -1.9255 -3.0093 0.9740
5.8580 -0.3921 -3.0099 0.9740
5.2380 2.6469 -3.0087 0.9740
4.9808 3.1021 -3.0083 0.9740
4.6841 3.5324 -3.0077 0.9740
4.3501 3.9345 -3.0070 0.9740
3.9818 4.3050 -3.0063 0.9740
3.5819 4.6412 -3.0056 0.9740
1.6467 5.3086 -2.8495 0.9753
1.1673 5.4323 -2.8486 0.9753
-0.8008 5.4909 -2.8448 0.9754
-1.2859 5.3961 -2.8439 0.9754
-3.1913 4.7617 -2.9387 0.9746
-4.7331 3.4067 -2.9897 0.9741
-5.7356 1.0333 -2.9878 0.9741
-5.8045 0.5187 -2.9877 0.9741
-5.5751 -0.4982 -2.9881 0.9749
-5.2465 -1.9538 -2.9887 0.9749
-5.0524 -2.4133 -2.9891 0.9749
-4.8183 -2.8539 -2.9895 0.9749
-4.5459 -3.2720 -2.9901 0.9749
-3.8954 -4.0278 -2.9913 0.9749
-3.5223 -4.3596 -2.9920 0.9749
-3.1211 -4.6570 -2.9928 0.9749
-2.6949 -4.9176 -2.9936 0.9749
-1.3011 -5.4597 -2.9963 0.9749
-0.3127 -5.6075 -2.9982 0.9749
0.6869 -5.5776 -3.0001 0.9748
2.1381 -5.2027 -3.0028 0.9748
3.4395 -4.4567 -3.0053 0.9748
4.4978 -3.3919 -3.0073 0.9748
5.2365 -2.0841 -3.0088 0.9748
5.4018 -1.6099 -3.0091 0.9748
5.5241 -1.1228 -3.0093 0.9748
5.6024 -0.6267 -3.0095 0.9748
5.6360 -0.1256 -3.0095 0.9748
5.6248 0.3765 -3.0095 0.9748
5.5688 0.8756 -3.0094 0.9748
4.9110 2.7629 -3.0081 0.9748
4.3417 3.5885 -3.0070 0.9748
4.0043 3.9599 -3.0064 0.9748
3.2371 4.6049 -3.0049 0.9748
2.7395 4.7449 -2.9249 0.9755
1.3525 5.1624 -2.8489 0.9761
0.8874 5.2606 -2.8480 0.9761
-0.0594 5.3312 -2.8462 0.9761
-1.0031 5.2329 -2.8444 0.9761
-1.4644 5.1213 -2.8435 0.9761
-2.3514 4.7850 -2.8462 0.9761
-3.7125 4.1978 -2.9916 0.9749
-4.0705 3.8498 -2.9910 0.9749
-4.3961 3.4715 -2.9903 0.9749
-4.6867 3.0659 -2.9898 0.9749
-5.1546 2.1857 -2.9889 0.9749
-5.4594 1.2369 -2.9883 0.9749
-5.5917 -0.2494 -2.9881 0.9749
-5.1546 -2.1857 -2.9889 0.9749
-4.3961 -3.4715 -2.9904 0.9749
-3.3250 -4.5127 -2.9924 0.9749
-2.9109 -4.7920 -2.9932 0.9749
-2.4735 -5.0335 -2.9940 0.9749
-2.0163 -5.2352 -2.9949 0.9749
-0.0626 -5.6167 -2.9986 0.9749
0.4377 -5.6018 -2.9996 0.9748
3.6351 -4.2996 -3.0057 0.9748
4.6448 -3.1885 -3.0076 0.9748
4.9110 -2.7629 -3.0081 0.9748
5.1382 -2.3151 -3.0086 0.9748
5.6248 -0.3765 -3.0095 0.9748
5.6360 0.1256 -3.0095 0.9748
5.6024 0.6267 -3.0094 0.9748
5.5241 1.1228 -3.0093 0.9748
5.4018 1.6099 -3.0091 0.9748
5.2365 2.0841 -3.0087 0.9748
5.0296 2.5415 -3.0083 0.9748
4.7827 2.9786 -3.0079 0.9748
4.1771 3.7780 -3.0067 0.9748
3.8234 4.1339 -3.0060 0.9748
3.4395 4.4567 -3.0053 0.9748
3.0199 4.7308 -2.9963 0.9749
2.4721 4.7598 -2.8632 0.9760
1.5814 5.0978 -2.8494 0.9761
-3.1211 4.6570 -2.9928 0.9749
-3.5223 4.3596 -2.9920 0.9749
-4.2375 3.6643 -2.9906 0.9749
-5.2465 1.9538 -2.9887 0.9749
-5.3990 1.4790 -2.9884 0.9749
-4.8570 -2.3200 -2.9895 0.9757
-4.6319 -2.7435 -2.9899 0.9757
-4.3700 -3.1454 -2.9904 0.9757
-4.0735 -3.5225 -2.9910 0.9757
-3.7446 -3.8719 -2.9916 0.9757
-3.0002 -4.4766 -2.9930 0.9756
0.6603 -5.3611 -3.0000 0.9756
1.1352 -5.2826 -3.0009 0.9756
1.6013 -5.1621 -3.0018 0.9756
2.0550 -5.0006 -3.0027 0.9756
2.4926 -4.7992 -3.0035 0.9756
3.3058 -4.2834 -3.0051 0.9755
4.0147 -3.6310 -3.0064 0.9755
4.3227 -3.2599 -3.0070 0.9755
4.5965 -2.8627 -3.0075 0.9755
5.0327 -2.0030 -3.0084 0.9755
5.1915 -1.5472 -3.0087 0.9755
5.3090 -1.0791 -3.0089 0.9755
5.2555 1.3145 -3.0088 0.9755
4.9381 2.2250 -3.0082 0.9755
4.4641 3.0644 -3.0073 0.9755
3.8485 3.8059 -3.0061 0.9755
3.4937 4.1323 -3.0054 0.9755
2.2041 4.7498 -2.9082 0.9763
1.7369 4.8279 -2.8497 0.9768
1.3000 4.9619 -2.8488 0.9768
-0.0571 5.1244 -2.8462 0.9768
-2.3381 4.7579 -2.9443 0.9760
-2.7981 4.6064 -2.9934 0.9756
-3.1962 4.3380 -2.9926 0.9756
-3.9129 3.7008 -2.9913 0.9757
-4.5054 2.9473 -2.9901 0.9757
-4.7491 2.5342 -2.9897 0.9757
-4.9552 2.1012 -2.9893 0.9757
-5.2482 1.1891 -2.9887 0.9757
-5.3755 0.2397 -2.9885 0.9757
-5.2482 -1.1891 -2.9887 0.9757
-4.7491 -2.5342 -2.9897 0.9757
-4.5054 -2.9473 -2.9901 0.9757
-4.2260 -3.3372 -2.9907 0.9757
-3.5688 -4.0353 -2.9919 0.9757
-3.1962 -4.3380 -2.9926 0.9756
-2.3777 -4.8384 -2.9942 0.9756
-1.9382 -5.0323 -2.9951 0.9756
-1.0158 -5.2993 -2.9968 0.9756
-0.5403 -5.3704 -2.9977 0.9756
-0.0601 -5.3987 -2.9986 0.9756
0.8986 -5.3271 -3.0005 0.9756
1.3696 -5.2276 -3.0014 0.9756
1.8300 -5.0864 -3.0023 0.9756
2.2761 -4.9047 -3.0031 0.9756
2.7043 -4.6840 -3.0039 0.9756
3.8485 -3.8059 -3.0061 0.9755
4.1728 -3.4489 -3.0067 0.9755
4.4641 -3.0644 -3.0073 0.9755
4.9382 -2.2250 -3.0082 0.9755
5.2555 -1.3145 -3.0088 0.9755
5.3519 -0.8415 -3.0090 0.9755
5.3842 0.6023 -3.0090 0.9755
5.3090 1.0791 -3.0089 0.9755
5.0327 2.0029 -3.0084 0.9755
4.8338 2.4426 -3.0080 0.9755
0.6267 5.0886 -2.8475 0.9768
0.1713 5.1226 -2.8467 0.9768
-1.6253 4.8545 -2.8432 0.9768
-3.0002 4.4766 -2.9930 0.9756
-3.3859 4.1907 -2.9923 0.9757
-3.7446 3.8719 -2.9916 0.9757
-4.6318 2.7434 -2.9899 0.9757
-5.0436 1.8782 -2.9891 0.9757
-5.1769 0.0000 -2.9889 0.9764
-5.1564 -0.4608 -2.9889 0.9764
-5.0951 -0.9179 -2.9890 0.9764
-4.8524 -1.8071 -2.9895 0.9764
-4.6728 -2.2320 -2.9898 0.9764
-4.4562 -2.6394 -2.9902 0.9764
-4.2043 -3.0260 -2.9907 0.9764
-3.6025 -3.7250 -2.9919 0.9763
-2.4922 -4.5476 -2.9940 0.9763
-1.2032 -5.0486 -2.9965 0.9763
-0.7492 -5.1372 -2.9973 0.9763
0.1736 -5.1917 -2.9991 0.9763
0.6352 -5.1571 -3.0000 0.9763
1.0920 -5.0816 -3.0008 0.9763
1.5404 -4.9656 -3.0017 0.9763
1.9768 -4.8102 -3.0025 0.9763
2.7998 -4.3858 -3.0041 0.9763
4.4213 -2.7536 -3.0072 0.9762
4.6495 -2.3495 -3.0076 0.9762
5.1065 -1.0379 -3.0085 0.9762
5.1995 0.3480 -3.0087 0.9762
5.0550 1.2644 -3.0084 0.9762
4.9220 1.7091 -3.0081 0.9762
4.5399 2.5541 -3.0074 0.9762
4.2938 2.9475 -3.0069 0.9762
4.0137 3.3174 -3.0064 0.9762
2.9927 4.2572 -3.0045 0.9763
2.1894 4.7180 -3.0029 0.9763
0.3842 4.9163 -2.8471 0.9775
-0.0549 4.9295 -2.8462 0.9775
-0.4933 4.9036 -2.8454 0.9775
-1.3638 4.7695 -2.8641 0.9773
-1.8319 4.7565 -2.9428 0.9767
-2.2874 4.6547 -2.9944 0.9763
-4.0657 3.2106 -2.9910 0.9764
-4.9278 1.5890 -2.9893 0.9764
-5.1717 0.2306 -2.9889 0.9764
-5.0493 -1.1440 -2.9891 0.9764
-4.9278 -1.5890 -2.9893 0.9764
-4.5691 -2.4381 -2.9900 0.9764
-4.3346 -2.8355 -2.9905 0.9764
-4.0657 -3.2106 -2.9910 0.9764
-3.7645 -3.5604 -2.9916 0.9764
-3.4334 -3.8822 -2.9922 0.9763
-3.0749 -4.1733 -2.9929 0.9763
-2.6919 -4.4315 -2.9936 0.9763
-2.2874 -4.6548 -2.9944 0.9763
-1.8645 -4.8412 -2.9952 0.9763
-0.9772 -5.0979 -2.9969 0.9763
0.4047 -5.1795 -2.9995 0.9763
0.8644 -5.1245 -3.0004 0.9763
1.7603 -4.8928 -3.0021 0.9763
2.1894 -4.7180 -3.0029 0.9763
4.9220 -1.7091 -3.0082 0.9762
5.0550 -1.2643 -3.0084 0.9762
5.1996 -0.3481 -3.0087 0.9762
5.2099 0.1161 -3.0087 0.9762
5.1788 0.5794 -3.0086 0.9762
4.9935 1.4882 -3.0083 0.9762
4.6494 2.3495 -3.0076 0.9762
4.4212 2.7536 -3.0072 0.9762
3.5347 3.8216 -3.0055 0.9762
3.1798 4.1202 -3.0048 0.9762
2.3977 4.6164 -3.0033 0.9763
1.0365 4.8233 -2.8483 0.9775
0.1649 4.9308 -2.8484 0.9775
-0.7112 4.8760 -2.8450 0.9775
-1.1420 4.7920 -2.8442 0.9775
-1.5949 4.7636 -2.9003 0.9771
-2.4922 4.5476 -2.9940 0.9763
-4.4562 2.6394 -2.9902 0.9764
-4.8524 1.8070 -2.9895 0.9764
-5.1564 0.4608 -2.9889 0.9764
