ply
format ascii 1.0
element vertex 1650
property float32 x
property float32 y
property float32 z
property float32 I
end_header
-3.8987 7.1143 4.6838 0.9632
-3.8961 7.1095 3.9875 0.9645
-3.8948 7.1072 3.6569 0.9651
-3.8942 7.1061 3.4953 0.9653
-3.8936 7.1049 3.3362 0.9656
-3.8930 7.1039 3.1793 0.9658
-3.8918 7.1017 2.8715 0.9662
-3.8907 7.0996 2.5711 0.9666
-3.8896 7.0976 2.2772 0.9669
-3.8880 7.0946 1.8465 0.9674
-3.8869 7.0927 1.5652 0.9676
9.5924 -6.5848 1.8527 0.9540
9.5303 -5.9355 1.5970 0.9557
8.7727 -6.6158 1.3769 0.9567
9.8856 -5.5615 1.4214 0.9553
9.1392 -5.6919 1.1678 0.9576
8.8134 -6.0501 1.1595 0.9579
-3.8843 7.0879 0.8767 0.9680
9.0258 -5.6213 0.9748 0.9582
10.4003 -5.2555 1.0683 0.9543
8.7115 -5.9801 0.9687 0.9584
8.6564 -7.8293 0.8747 0.9543
8.9367 -5.5659 0.7890 0.9586
10.1305 -5.1192 0.8506 0.9555
8.3556 -6.9061 0.8124 0.9574
-3.8832 7.0860 0.6055 0.9681
8.4474 -7.6402 0.6634 0.9554
8.8778 -5.5292 0.6092 0.9590
9.9870 -5.0466 0.6517 0.9562
8.5764 -5.8873 0.6059 0.9592
9.3072 -5.2362 0.6220 0.9581
8.3551 -7.5567 0.4684 0.9559
8.3333 -6.2844 0.4340 0.9591
9.8908 -4.9981 0.4608 0.9566
8.2358 -6.8071 0.4443 0.9581
8.5320 -5.8569 0.4303 0.9594
8.8020 -5.4819 0.2586 0.9594
9.8271 -4.9659 0.2746 0.9569
8.2045 -6.7812 0.2654 0.9583
8.5068 -5.8396 0.2573 0.9596
9.2161 -5.1849 0.2637 0.9586
8.2707 -7.4804 0.0927 0.9564
8.2919 -6.2532 0.0863 0.9593
9.7971 -4.9507 0.0912 0.9570
8.4924 -5.8297 0.0856 0.9596
9.1981 -5.1747 0.0877 0.9587
8.2636 -7.4740 -0.0926 0.9564
8.4883 -5.8269 -0.0856 0.9597
9.1927 -5.1717 -0.0877 0.9587
-3.8807 7.0813 -0.0671 0.9682
8.3017 -6.2606 -0.2593 0.9592
8.5019 -5.8362 -0.2572 0.9596
9.2102 -5.1816 -0.2635 0.9586
8.3308 -7.5348 -0.4671 0.9560
8.3193 -6.2739 -0.4333 0.9591
8.8149 -5.4900 -0.4318 0.9593
8.2206 -6.7945 -0.4434 0.9582
9.2331 -5.1945 -0.4405 0.9585
-3.8797 7.0795 -0.3357 0.9682
8.4142 -7.6102 -0.6608 0.9556
8.8623 -5.5195 -0.6081 0.9590
9.9576 -5.0318 -0.6498 0.9563
9.2890 -5.2259 -0.6208 0.9582
8.6057 -5.9075 -0.7822 0.9590
9.3488 -5.2596 -0.8039 0.9579
9.4531 -5.3182 -0.9944 0.9574
-3.8781 7.0767 -0.7398 0.9681
8.5873 -6.4760 -1.1666 0.9576
8.7277 -6.5819 -1.3699 0.9569
9.2416 -5.7557 -1.3644 0.9571
8.7905 -7.2656 -1.4292 0.9551
8.9065 -6.1140 -1.3538 0.9574
9.8002 -5.5135 -1.4091 0.9557
8.9490 -6.7488 -1.5942 0.9557
9.4524 -5.8870 -1.5839 0.9560
10.2928 -5.7906 -1.6798 0.9534
9.8723 -6.1486 -1.8520 0.9540
-3.8761 7.0729 -1.2843 0.9679
-3.8755 7.0720 -1.4220 0.9678
1.1466 14.6735 -2.8482 0.9418
-0.1637 14.6966 -2.8442 0.9419
-1.4691 14.6033 -2.8403 0.9420
-7.5699 12.4618 -2.8216 0.9423
-10.5591 9.9867 -2.8125 0.9425
-11.3957 8.9991 -2.8100 0.9426
0.4915 14.6997 -2.8462 0.9418
-2.1167 14.5132 -2.8383 0.9420
-3.8751 7.0711 -1.5604 0.9677
-13.0786 6.2471 -2.8049 0.9427
-13.7952 -2.4853 -2.9551 0.9443
-13.1448 -4.8952 -2.9571 0.9443
-12.6632 -6.0487 -2.9586 0.9442
-8.8542 -10.9590 -2.9702 0.9440
-4.4930 -13.4200 -2.9835 0.9438
-2.0475 -14.0390 -2.9910 0.9437
1.7410 -14.1356 -3.0026 0.9434
6.5971 -12.7016 -3.0174 0.9432
9.7493 -10.5409 -3.0270 0.9430
11.4838 -8.6603 -3.0323 0.9429
12.2181 -7.6095 -3.0345 0.9429
14.3350 -1.6036 -3.0410 0.9427
14.4221 -0.3214 -3.0412 0.9427
14.3930 0.9635 -3.0411 0.9427
14.2480 2.2404 -3.0407 0.9427
11.2593 7.7290 -2.8791 0.9457
9.6944 9.5870 -2.8743 0.9458
6.7961 11.7712 -2.8655 0.9460
4.5905 12.7595 -2.8588 0.9461
3.4324 13.1013 -2.8552 0.9461
2.2498 13.3379 -2.8516 0.9462
1.0524 13.4679 -2.8480 0.9463
-1.3487 13.4065 -2.8406 0.9464
-2.5334 13.2164 -2.8370 0.9465
-3.6950 12.9224 -2.8335 0.9465
-6.9533 11.4467 -2.8235 0.9467
-8.8545 10.0119 -2.8177 0.9468
-9.7015 9.1757 -2.8152 0.9469
-11.7548 6.2726 -2.8089 0.9470
-13.8907 1.8681 -2.9548 0.9443
-14.0003 -0.6243 -2.9545 0.9443
-13.3470 -4.3038 -2.9565 0.9443
-12.3848 -6.6087 -2.9594 0.9442
-11.0322 -8.7121 -2.9636 0.9442
-10.2216 -9.6675 -2.9661 0.9441
-8.3615 -11.3483 -2.9717 0.9440
-3.8932 -13.6151 -2.9854 0.9438
-0.1584 -14.2140 -2.9968 0.9435
3.6164 -13.8037 -3.0083 0.9433
4.8366 -13.4436 -3.0120 0.9433
7.1604 -12.4021 -3.0191 0.9431
10.2140 -10.1008 -3.0284 0.9430
13.6166 -4.7282 -3.0388 0.9428
13.9885 -3.4988 -3.0399 0.9428
14.2481 -2.2404 -3.0407 0.9427
14.4221 0.3214 -3.0412 0.9427
14.1324 2.8726 -3.0403 0.9428
13.8163 4.1177 -3.0393 0.9428
12.7084 5.0578 -2.8836 0.9456
11.5965 7.2224 -2.8802 0.9457
9.2533 10.0046 -2.8730 0.9458
6.2614 12.0553 -2.8639 0.9460
5.1575 12.5500 -2.8605 0.9460
4.0151 12.9434 -2.8570 0.9461
2.8436 13.2328 -2.8534 0.9462
-1.9433 13.3246 -2.8388 0.9464
-3.1177 13.0823 -2.8352 0.9465
-5.3747 12.2923 -2.8283 0.9466
-7.4523 11.1196 -2.8220 0.9467
-8.4038 10.4015 -2.8191 0.9468
-10.0963 8.7306 -2.8140 0.9469
-12.0191 5.7411 -2.8081 0.9470
-13.7950 2.4853 -2.9551 0.9443
-12.9583 0.0000 -2.9577 0.9482
-12.9076 -1.1534 -2.9578 0.9482
-12.7557 -2.2981 -2.9583 0.9482
-11.1701 -6.6160 -2.9631 0.9481
-9.8336 -8.5034 -2.9672 0.9481
-8.1840 -10.1294 -2.9723 0.9480
-4.1515 -12.3998 -2.9846 0.9478
-3.0348 -12.7346 -2.9880 0.9477
-0.7306 -13.1017 -2.9950 0.9476
0.4390 -13.1304 -2.9986 0.9475
1.6078 -13.0547 -3.0022 0.9475
2.7667 -12.8749 -3.0057 0.9474
6.0903 -11.7260 -3.0158 0.9472
8.9983 -9.7288 -3.0247 0.9471
9.8368 -8.8968 -3.0273 0.9470
12.7480 -3.7993 -3.0361 0.9469
13.0394 -2.6504 -3.0370 0.9469
13.3062 -0.2965 -3.0378 0.9469
13.2794 0.8890 -3.0377 0.9469
11.5038 5.1834 -2.8799 0.9495
10.9908 6.1833 -2.8783 0.9496
9.7071 8.0231 -2.8744 0.9496
8.9472 8.8481 -2.8721 0.9497
8.1170 9.6008 -2.8695 0.9497
7.2234 10.2754 -2.8668 0.9498
4.2385 11.7811 -2.8577 0.9499
2.0777 12.3175 -2.8511 0.9500
0.9720 12.4388 -2.8477 0.9501
-2.3405 12.2101 -2.8376 0.9503
-4.4581 11.5752 -2.8311 0.9504
-5.4647 11.1204 -2.8281 0.9504
-7.3350 9.9552 -2.8224 0.9505
-8.1845 9.2543 -2.8198 0.9506
-9.6800 7.6442 -2.8152 0.9507
-10.3148 6.7477 -2.8133 0.9507
-12.8442 1.7274 -2.9580 0.9482
-12.9456 0.5773 -2.9577 0.9482
-12.9457 -0.5772 -2.9577 0.9482
-12.8443 -1.7274 -2.9580 0.9482
-12.6422 -2.8643 -2.9586 0.9482
-12.3409 -3.9795 -2.9596 0.9482
-11.9427 -5.0641 -2.9608 0.9482
-11.4504 -6.1101 -2.9623 0.9481
-10.1988 -8.0539 -2.9661 0.9481
-9.4488 -8.9366 -2.9684 0.9480
-6.7706 -11.1460 -2.9766 0.9479
-3.5970 -12.5796 -2.9863 0.9477
-2.4660 -12.8647 -2.9897 0.9477
-0.1463 -13.1290 -2.9968 0.9476
1.0241 -13.1056 -3.0004 0.9475
5.5589 -11.9792 -3.0142 0.9473
6.6101 -11.4490 -3.0174 0.9472
7.6106 -10.8262 -3.0205 0.9472
10.9470 -7.5147 -3.0306 0.9470
12.5638 -4.3626 -3.0356 0.9469
12.9067 -3.2282 -3.0366 0.9469
13.1459 -2.0671 -3.0373 0.9469
13.3062 0.2966 -3.0378 0.9469
13.2259 1.4796 -3.0376 0.9469
11.2585 5.6892 -2.8791 0.9496
10.7011 6.6647 -2.8774 0.9496
10.0586 7.5855 -2.8755 0.9496
8.5405 9.2338 -2.8708 0.9497
5.7805 11.1294 -2.8624 0.9498
4.7618 11.5871 -2.8593 0.9499
2.6259 12.2198 -2.8528 0.9500
0.4167 12.4623 -2.8460 0.9501
-1.7953 12.3094 -2.8393 0.9502
-2.8804 12.0867 -2.8360 0.9503
-6.8876 10.2771 -2.8237 0.9505
-8.5849 8.8767 -2.8186 0.9506
-10.0073 7.2029 -2.8142 0.9507
-11.1126 5.3080 -2.8109 0.9507
-12.5037 3.4251 -2.9590 0.9482
-11.9969 -1.0721 -2.9606 0.9516
-11.8557 -2.1359 -2.9610 0.9516
-10.3807 -6.1485 -2.9655 0.9515
-9.7981 -7.0522 -2.9673 0.9515
-8.4045 -8.6902 -2.9716 0.9514
-7.6039 -9.4115 -2.9740 0.9514
-6.7420 -10.0598 -2.9767 0.9513
-5.8254 -10.6300 -2.9795 0.9513
-4.8609 -11.1172 -2.9824 0.9512
-3.8561 -11.5176 -2.9855 0.9512
-0.6784 -12.1666 -2.9952 0.9510
2.5685 -11.9529 -3.0051 0.9509
5.6528 -10.8836 -3.0145 0.9507
8.3501 -9.0280 -3.0227 0.9506
9.1276 -8.2554 -3.0251 0.9506
9.8332 -7.4155 -3.0272 0.9505
11.4617 -4.5616 -3.0322 0.9505
11.8265 -3.5246 -3.0333 0.9504
12.2695 -1.3725 -3.0347 0.9504
12.3439 -0.2751 -3.0349 0.9504
12.3190 0.8247 -3.0348 0.9504
11.9734 2.9948 -3.0337 0.9504
11.6556 4.0473 -3.0328 0.9504
8.3025 8.2105 -2.8701 0.9530
4.8973 10.5534 -2.8597 0.9532
3.9345 10.9361 -2.8568 0.9533
0.9025 11.5495 -2.8475 0.9534
-4.1411 10.7522 -2.8321 0.9536
-8.3333 7.8816 -2.8193 0.9539
-8.9952 7.1035 -2.8173 0.9539
-11.4696 3.6985 -2.9622 0.9516
-11.7499 2.6622 -2.9613 0.9516
-11.9380 -1.6055 -2.9608 0.9516
-11.7500 -2.6622 -2.9614 0.9516
-11.4698 -3.6985 -2.9622 0.9516
-10.0994 -6.6067 -2.9664 0.9515
-9.4774 -7.4842 -2.9683 0.9515
-8.7799 -8.3039 -2.9704 0.9514
-8.0123 -9.0596 -2.9728 0.9514
-6.2901 -10.3549 -2.9781 0.9513
-5.3487 -10.8842 -2.9809 0.9513
-4.3631 -11.3285 -2.9839 0.9512
-3.3410 -11.6841 -2.9871 0.9512
-0.1358 -12.1914 -2.9968 0.9510
0.9509 -12.1686 -3.0002 0.9510
2.0324 -12.0489 -3.0035 0.9509
3.1001 -11.8330 -3.0067 0.9509
5.1598 -11.1191 -3.0130 0.9508
6.1350 -10.6262 -3.0160 0.9507
7.0631 -10.0473 -3.0188 0.9507
8.7475 -8.6505 -3.0239 0.9506
9.4898 -7.8435 -3.0262 0.9506
10.1570 -6.9724 -3.0282 0.9505
11.2446 -5.0666 -3.0315 0.9505
11.6558 -4.0473 -3.0328 0.9504
12.1953 -1.9176 -3.0344 0.9504
12.3439 0.2751 -3.0349 0.9504
12.2695 1.3726 -3.0346 0.9504
12.0965 2.4587 -3.0341 0.9504
9.9287 6.1837 -2.8751 0.9530
9.3330 7.0383 -2.8733 0.9530
8.6633 7.8355 -2.8712 0.9530
7.1251 9.2322 -2.8665 0.9531
4.4200 10.7555 -2.8582 0.9532
3.4416 11.0947 -2.8553 0.9533
1.4169 11.5041 -2.8491 0.9534
0.3869 11.5718 -2.8459 0.9534
-0.6439 11.5475 -2.8428 0.9535
-4.6136 10.5517 -2.8307 0.9537
-6.3990 9.5480 -2.8252 0.9538
-8.6729 7.4998 -2.8183 0.9539
-9.2997 6.6935 -2.8164 0.9539
-10.3276 4.9331 -2.8133 0.9539
-11.2955 4.2065 -2.9627 0.9516
-11.6212 3.1834 -2.9617 0.9516
-11.9969 1.0721 -2.9606 0.9516
-11.2443 0.0000 -2.9629 0.9546
-11.2002 -1.0008 -2.9630 0.9546
-11.0682 -1.9940 -2.9634 0.9545
-10.5450 -3.9270 -2.9650 0.9545
-10.1577 -4.8519 -2.9662 0.9545
-8.5292 -7.3755 -2.9712 0.9544
-7.8444 -8.1111 -2.9733 0.9544
-6.2921 -9.3884 -2.9780 0.9543
-4.5359 -10.3739 -2.9834 0.9542
-3.5980 -10.7467 -2.9863 0.9542
-2.6298 -11.0352 -2.9892 0.9542
-1.6389 -11.2369 -2.9923 0.9541
0.3802 -11.3728 -2.9984 0.9540
4.3428 -10.5675 -3.0105 0.9538
5.2710 -10.1486 -3.0133 0.9538
6.9991 -9.0690 -3.0186 0.9537
8.5092 -7.6961 -3.0232 0.9536
9.1665 -6.9128 -3.0252 0.9536
10.2581 -5.1837 -3.0285 0.9536
10.6834 -4.2519 -3.0298 0.9535
11.0232 -3.2852 -3.0309 0.9535
11.4357 -1.2793 -3.0321 0.9535
11.4819 0.7686 -3.0322 0.9535
11.1600 2.7913 -3.0312 0.9535
10.8640 3.7724 -3.0303 0.9535
10.4804 4.7222 -3.0290 0.9536
9.5052 5.3476 -2.8738 0.9559
8.9866 6.1689 -2.8722 0.9559
8.3966 6.9400 -2.8704 0.9559
7.7401 7.6544 -2.8684 0.9560
7.0228 8.3066 -2.8662 0.9560
3.6691 10.1986 -2.8560 0.9562
0.8418 10.7729 -2.8473 0.9563
-1.0794 10.7294 -2.8415 0.9564
-2.0280 10.5799 -2.8386 0.9564
-3.8641 10.0329 -2.8330 0.9565
-5.5715 9.1720 -2.8278 0.9566
-7.7782 7.3566 -2.8210 0.9567
-10.3614 4.3937 -2.9656 0.9545
-10.7076 3.4528 -2.9645 0.9545
-11.2333 -0.5009 -2.9629 0.9546
-11.1452 -1.4989 -2.9632 0.9545
-10.9695 -2.4854 -2.9637 0.9545
-10.7077 -3.4528 -2.9645 0.9545
-9.4275 -6.1672 -2.9685 0.9545
-8.1950 -7.7508 -2.9722 0.9544
-7.4782 -8.4557 -2.9744 0.9544
-6.7012 -9.0950 -2.9768 0.9543
-5.8701 -9.6635 -2.9793 0.9543
-4.0712 -10.5707 -2.9848 0.9542
-3.1173 -10.9017 -2.9877 0.9542
-2.1367 -11.1471 -2.9907 0.9541
-1.1372 -11.3045 -2.9938 0.9541
0.8869 -11.3504 -3.0000 0.9540
1.8956 -11.2380 -3.0030 0.9540
2.8912 -11.0358 -3.0061 0.9539
3.8658 -10.7453 -3.0090 0.9539
5.7205 -9.9082 -3.0147 0.9538
8.1550 -8.0646 -3.0221 0.9537
10.0146 -5.6341 -3.0278 0.9536
10.6832 4.2518 -3.0298 0.9536
9.2551 5.7641 -2.8730 0.9559
8.7002 6.5612 -2.8713 0.9559
8.0763 7.3046 -2.8694 0.9560
5.8456 9.1570 -2.8626 0.9561
3.2096 10.3468 -2.8546 0.9562
1.3216 10.7303 -2.8488 0.9563
-0.6007 10.7723 -2.8429 0.9564
-3.4150 10.2000 -2.8343 0.9565
-4.3051 9.8461 -2.8316 0.9565
-5.9720 8.9108 -2.8265 0.9566
-6.7358 8.3370 -2.8242 0.9566
-7.4454 7.6985 -2.8220 0.9567
-10.5449 3.9270 -2.9650 0.9545
-10.8492 2.9719 -2.9641 0.9545
-11.0682 1.9940 -2.9634 0.9545
-10.3732 -1.8688 -2.9656 0.9571
-9.8825 -3.6803 -2.9671 0.9571
-9.0809 -5.3786 -2.9695 0.9571
-7.9923 -6.9112 -2.9728 0.9570
-7.3503 -7.6001 -2.9748 0.9570
-5.8951 -8.7961 -2.9793 0.9570
-5.0930 -9.2936 -2.9817 0.9569
-4.2493 -9.7184 -2.9843 0.9569
-3.3705 -10.0671 -2.9870 0.9568
-0.5927 -10.6299 -2.9954 0.9567
1.3039 -10.5870 -3.0012 0.9566
2.2432 -10.4389 -3.0041 0.9566
3.1664 -10.2074 -3.0069 0.9566
4.9348 -9.5012 -3.0123 0.9565
5.7658 -9.0319 -3.0148 0.9565
7.2870 -7.8786 -3.0195 0.9564
10.3162 -3.0745 -3.0287 0.9563
10.5514 -2.1447 -3.0294 0.9562
10.7668 -0.2399 -3.0301 0.9562
10.7452 0.7193 -3.0300 0.9562
10.4442 2.6123 -3.0291 0.9563
10.1674 3.5305 -3.0282 0.9563
9.8093 4.4199 -3.0271 0.9563
8.4111 5.7739 -2.8704 0.9585
4.2755 9.2136 -2.8578 0.9587
3.4354 9.5490 -2.8552 0.9587
2.5695 9.8078 -2.8526 0.9587
0.7883 10.0887 -2.8472 0.9588
-0.1126 10.1090 -2.8444 0.9589
-1.8996 9.9099 -2.8390 0.9589
-2.7714 9.6924 -2.8363 0.9590
-3.6198 9.3987 -2.8337 0.9590
-5.2199 8.5931 -2.8288 0.9591
-6.6505 7.5198 -2.8245 0.9591
-7.2884 6.8933 -2.8225 0.9592
-7.8681 6.2134 -2.8208 0.9592
-8.9668 4.7849 -2.8596 0.9586
-10.0350 3.2359 -2.9666 0.9571
-10.2806 2.3293 -2.9658 0.9571
-10.4453 1.4048 -2.9653 0.9572
-10.5280 -0.4694 -2.9651 0.9572
-10.4454 -1.4047 -2.9653 0.9572
-10.2806 -2.3293 -2.9658 0.9571
-10.0351 -3.2359 -2.9666 0.9571
-8.8345 -5.7793 -2.9703 0.9571
-7.6790 -7.2627 -2.9738 0.9570
-7.0069 -7.9229 -2.9759 0.9570
-5.4997 -9.0537 -2.9805 0.9569
-3.8138 -9.9024 -2.9856 0.9569
-2.0014 -10.4411 -2.9911 0.9568
-1.0651 -10.5879 -2.9940 0.9567
-0.1187 -10.6509 -2.9969 0.9567
3.6196 -10.0608 -3.0083 0.9565
4.5047 -9.7074 -3.0110 0.9565
6.1649 -8.7696 -3.0161 0.9564
8.8618 -6.0833 -3.0243 0.9563
9.3729 -5.2731 -3.0258 0.9563
9.8094 -4.4199 -3.0272 0.9563
10.1675 -3.5305 -3.0282 0.9563
10.4443 -2.6123 -3.0291 0.9562
10.7452 -0.7193 -3.0300 0.9562
10.7020 1.1972 -3.0299 0.9562
9.9983 3.9792 -3.0277 0.9563
9.3755 4.7376 -2.9555 0.9573
8.1432 6.1411 -2.8696 0.9585
6.9163 7.4778 -2.8659 0.9586
6.2187 8.0578 -2.8637 0.9586
5.4724 8.5724 -2.8615 0.9586
3.0053 9.6881 -2.8539 0.9587
1.2376 10.0484 -2.8485 0.9588
0.3380 10.1089 -2.8458 0.9588
-1.4569 9.9894 -2.8403 0.9589
-2.3380 9.8108 -2.8376 0.9590
-3.1990 9.5549 -2.8350 0.9590
-4.0331 9.2240 -2.8325 0.9590
-6.3112 7.8115 -2.8255 0.9591
-6.9764 7.2136 -2.8235 0.9592
-9.8824 3.6803 -2.9670 0.9571
-9.9103 0.0000 -2.9670 0.9595
-9.7549 -1.7574 -2.9674 0.9595
-9.5617 -2.6192 -2.9680 0.9595
-8.9514 -4.2757 -2.9699 0.9594
-8.0589 -5.8004 -2.9726 0.9594
-6.9109 -7.1459 -2.9761 0.9593
-5.5422 -8.2696 -2.9803 0.9593
-4.7879 -8.7368 -2.9826 0.9593
-3.1682 -9.4629 -2.9876 0.9592
-2.3154 -9.7158 -2.9902 0.9592
-1.4427 -9.8921 -2.9928 0.9591
-0.5571 -9.9903 -2.9955 0.9591
2.9751 -9.5910 -3.0063 0.9589
3.8203 -9.2961 -3.0089 0.9589
4.6363 -8.9265 -3.0114 0.9589
5.4167 -8.4851 -3.0138 0.9588
8.5722 -5.3388 -3.0234 0.9587
9.9098 -2.0142 -3.0275 0.9587
10.0511 -1.1244 -3.0279 0.9586
10.1119 -0.2253 -3.0281 0.9586
9.9904 1.5709 -3.0277 0.9587
9.8091 2.4535 -3.0271 0.9587
9.5493 3.3159 -3.0263 0.9587
7.9004 5.4233 -2.8689 0.9608
7.3823 6.1016 -2.8673 0.9608
6.1755 7.3045 -2.8636 0.9608
4.7754 8.2713 -2.8593 0.9609
4.0170 8.6565 -2.8570 0.9609
2.4144 9.2157 -2.8521 0.9610
-0.1058 9.5005 -2.8444 0.9611
-3.4027 8.8349 -2.8344 0.9612
-5.6026 7.6040 -2.8277 0.9613
-6.2528 7.0702 -2.8257 0.9614
-6.8528 6.4814 -2.8239 0.9614
-7.3982 5.8422 -2.8222 0.9614
-7.8846 5.1579 -2.8207 0.9614
-9.1312 3.8720 -2.9693 0.9594
-9.6677 2.1904 -2.9677 0.9595
-9.9006 0.4415 -2.9670 0.9595
-9.9006 -0.4415 -2.9670 0.9595
-9.8228 -1.3210 -2.9672 0.9595
-9.6678 -2.1904 -2.9677 0.9595
-8.7538 -4.6712 -2.9705 0.9594
-7.7946 -6.1553 -2.9734 0.9594
-7.2201 -6.8287 -2.9752 0.9594
-6.5879 -7.4491 -2.9771 0.9593
-5.9029 -8.0115 -2.9792 0.9593
-5.1703 -8.5115 -2.9815 0.9593
-4.3957 -8.9450 -2.9838 0.9592
-3.5851 -9.3084 -2.9863 0.9592
-2.7447 -9.5988 -2.9889 0.9592
-1.0011 -9.9511 -2.9942 0.9591
-0.1115 -10.0097 -2.9969 0.9591
0.7806 -9.9890 -2.9996 0.9590
2.5438 -9.7097 -3.0050 0.9590
3.4009 -9.4530 -3.0076 0.9589
4.2323 -9.1205 -3.0102 0.9589
7.7779 -6.4286 -3.0210 0.9587
8.3238 -5.7140 -3.0226 0.9587
8.8036 -4.9528 -3.0241 0.9587
9.2133 -4.1513 -3.0253 0.9587
9.8092 -2.4534 -3.0271 0.9587
9.9905 -1.5709 -3.0277 0.9587
10.0917 -0.6755 -3.0280 0.9586
10.1119 0.2254 -3.0281 0.9586
10.0511 1.1244 -3.0279 0.9586
9.0173 4.5567 -3.0247 0.9587
8.1362 5.0673 -2.8696 0.9608
7.6489 5.7684 -2.8681 0.9608
7.1010 6.4225 -2.8664 0.9608
6.4970 7.0245 -2.8646 0.9608
5.1412 8.0535 -2.8605 0.9609
3.6259 8.8232 -2.8558 0.9610
2.0006 9.3101 -2.8509 0.9610
1.1630 9.4427 -2.8483 0.9611
0.3176 9.5001 -2.8457 0.9611
-0.5287 9.4821 -2.8431 0.9611
-3.0070 8.9815 -2.8356 0.9612
-5.2603 7.8489 -2.8287 0.9613
-6.5594 6.7824 -2.8248 0.9614
-7.1326 6.1678 -2.8230 0.9614
-8.1076 4.8022 -2.8211 0.9614
-9.2931 3.4608 -2.9688 0.9594
-9.7548 1.7575 -2.9674 0.9595
-9.8714 0.8821 -2.9671 0.9595
-9.3477 0.0000 -2.9687 0.9615
-8.7652 -3.2642 -2.9705 0.9615
-8.4427 -4.0328 -2.9715 0.9615
-8.0535 -4.7701 -2.9726 0.9615
-3.7664 -8.6140 -2.9857 0.9613
-2.9871 -8.9221 -2.9881 0.9613
-2.1830 -9.1601 -2.9906 0.9613
-1.3601 -9.3259 -2.9931 0.9612
-0.5251 -9.4179 -2.9956 0.9612
0.3155 -9.4354 -2.9982 0.9612
1.1550 -9.3778 -3.0008 0.9611
1.9868 -9.2457 -3.0033 0.9611
2.8041 -9.0396 -3.0058 0.9611
3.6005 -8.7612 -3.0082 0.9610
6.4503 -6.9739 -3.0169 0.9609
8.0768 -5.0303 -3.0219 0.9609
8.4961 -4.2933 -3.0232 0.9608
9.1285 -2.7206 -3.0251 0.9608
9.3363 -1.8977 -3.0257 0.9608
9.4694 -1.0593 -3.0261 0.9608
9.5076 0.6364 -3.0262 0.9608
9.4123 1.4800 -3.0259 0.9608
9.2416 2.3115 -3.0254 0.9608
8.9969 3.1241 -3.0246 0.9608
8.6804 3.9112 -3.0237 0.9608
7.4439 5.1100 -2.8675 0.9628
6.9560 5.7493 -2.8660 0.9628
5.1801 7.3688 -2.8606 0.9629
3.7858 8.1583 -2.8563 0.9630
3.0423 8.4561 -2.8540 0.9630
2.2757 8.6862 -2.8517 0.9630
0.6983 8.9370 -2.8469 0.9631
-0.8957 8.9040 -2.8420 0.9631
-3.2083 8.3302 -2.8350 0.9632
-5.2833 7.1706 -2.8286 0.9633
-5.8967 6.6675 -2.8268 0.9633
-6.9773 5.5099 -2.8235 0.9634
-7.4363 4.8646 -2.8221 0.9634
-8.2562 4.4057 -2.9720 0.9615
-9.2651 -1.2460 -2.9689 0.9615
-8.9007 -2.8701 -2.9701 0.9615
-8.6125 -3.6520 -2.9709 0.9615
-8.2563 -4.4057 -2.9720 0.9615
-7.8348 -5.1253 -2.9733 0.9615
-6.8091 -6.4400 -2.9765 0.9614
-4.8754 -8.0260 -2.9824 0.9614
-4.1448 -8.4344 -2.9846 0.9613
-2.5878 -9.0500 -2.9893 0.9613
-0.9438 -9.3812 -2.9944 0.9612
-0.1051 -9.4360 -2.9969 0.9612
0.7358 -9.4160 -2.9995 0.9611
1.5723 -9.3210 -3.0020 0.9611
2.3977 -9.1518 -3.0046 0.9611
3.2053 -8.9093 -3.0070 0.9610
4.7416 -8.2127 -3.0117 0.9610
5.4577 -7.7637 -3.0139 0.9610
7.3287 -6.0573 -3.0196 0.9609
8.2947 -4.6665 -3.0225 0.9608
8.9970 -3.1241 -3.0247 0.9608
9.2416 -2.3115 -3.0254 0.9608
9.5076 -0.6364 -3.0262 0.9608
9.4694 1.0593 -3.0261 0.9608
9.3363 1.8977 -3.0257 0.9608
8.8475 3.5213 -3.0242 0.9608
7.6659 4.7745 -2.8682 0.9628
6.6911 6.0517 -2.8652 0.9628
4.1471 7.9846 -2.8574 0.9629
2.6615 8.5798 -2.8529 0.9630
1.0962 8.9008 -2.8481 0.9631
0.2994 8.9554 -2.8457 0.9631
-1.2909 8.8515 -2.8408 0.9632
-2.0719 8.6941 -2.8384 0.9632
-2.8352 8.4682 -2.8361 0.9632
-3.5748 8.1758 -2.8339 0.9632
-3.8206 6.9717 -2.5248 0.9672
-5.5956 6.9258 -2.8277 0.9633
-6.1859 6.3962 -2.8259 0.9633
-9.2009 1.6576 -2.9691 0.9615
-8.8404 0.0000 -2.9702 0.9634
-8.8057 -0.7869 -2.9703 0.9634
-8.7016 -1.5677 -2.9707 0.9634
-8.2893 -3.0870 -2.9719 0.9634
-7.9842 -3.8137 -2.9729 0.9634
-7.6159 -4.5109 -2.9740 0.9633
-7.1874 -5.1731 -2.9753 0.9633
-6.7018 -5.7952 -2.9768 0.9633
-4.9415 -7.3732 -2.9822 0.9632
-2.8240 -8.4350 -2.9886 0.9632
-0.4964 -8.9025 -2.9957 0.9631
1.0917 -8.8638 -3.0006 0.9630
1.8778 -8.7384 -3.0030 0.9630
3.4026 -8.2798 -3.0076 0.9629
4.1291 -7.9500 -3.0098 0.9629
4.8237 -7.5562 -3.0120 0.9629
7.6311 -4.7527 -3.0205 0.9628
8.0270 -4.0562 -3.0217 0.9628
8.3590 -3.3268 -3.0227 0.9627
8.9462 -1.0008 -3.0245 0.9627
9.0002 -0.2005 -3.0247 0.9627
8.9822 0.6013 -3.0246 0.9627
8.8922 1.3982 -3.0243 0.9627
8.5000 2.9516 -3.0231 0.9627
7.8368 4.4089 -3.0211 0.9628
7.0333 4.8281 -2.8662 0.9646
6.5724 5.4322 -2.8648 0.9647
6.0595 5.9924 -2.8633 0.9647
4.8949 6.9632 -2.8597 0.9647
4.2528 7.3661 -2.8577 0.9647
2.8752 7.9917 -2.8535 0.9648
1.4104 8.3617 -2.8491 0.9649
0.6601 8.4473 -2.8468 0.9649
-0.8467 8.4168 -2.8422 0.9649
-2.3220 8.1205 -2.8377 0.9650
-3.5945 7.3146 -2.7383 0.9662
-4.3752 7.2026 -2.8314 0.9651
-6.5979 5.2103 -2.8246 0.9651
-7.2911 4.7697 -2.9273 0.9639
-7.8077 4.1663 -2.9734 0.9633
-8.8317 0.3938 -2.9702 0.9634
-8.6238 -1.9539 -2.9709 0.9634
-8.1448 -3.4537 -2.9724 0.9634
-7.8078 -4.1663 -2.9734 0.9633
-7.4090 -4.8467 -2.9746 0.9633
-6.9515 -5.4895 -2.9760 0.9633
-5.8745 -6.6424 -2.9793 0.9633
-4.6097 -7.5886 -2.9832 0.9632
-1.6765 -8.7463 -2.9921 0.9631
-0.8921 -8.8680 -2.9945 0.9631
-0.0994 -8.9194 -2.9969 0.9631
0.6955 -8.9000 -2.9994 0.9630
1.4860 -8.8099 -3.0018 0.9630
3.0293 -8.4200 -3.0065 0.9629
3.7695 -8.1231 -3.0087 0.9629
5.1573 -7.3363 -3.0130 0.9629
6.9246 -5.7233 -3.0184 0.9628
7.8369 -4.4089 -3.0211 0.9628
8.7311 -2.1838 -3.0239 0.9627
8.8923 -1.3982 -3.0243 0.9627
8.9822 -0.6013 -3.0246 0.9627
9.0002 0.2006 -3.0247 0.9627
8.8205 1.7928 -3.0241 0.9627
8.6242 2.5703 -3.0235 0.9627
7.5963 4.7310 -3.0067 0.9629
6.8096 5.1354 -2.8656 0.9647
6.3222 5.7181 -2.8641 0.9647
5.2020 6.7404 -2.8606 0.9647
3.9191 7.5456 -2.8567 0.9648
3.2295 7.8586 -2.8546 0.9648
1.7823 8.2939 -2.8502 0.9648
1.0361 8.4129 -2.8479 0.9649
0.2830 8.4649 -2.8456 0.9649
-0.4711 8.4496 -2.8433 0.9649
-1.2204 8.3674 -2.8410 0.9649
-1.9587 8.2191 -2.8388 0.9650
-2.6804 8.0059 -2.8366 0.9650
-3.3798 7.7297 -2.8345 0.9650
-3.8106 6.9535 -2.6641 0.9671
-5.2909 6.5487 -2.8286 0.9651
-5.8493 6.0481 -2.8269 0.9651
-6.3609 5.5005 -2.8254 0.9651
-6.8218 4.9100 -2.8240 0.9652
-8.2892 3.0870 -2.9719 0.9634
-8.7016 1.5677 -2.9706 0.9634
-8.8056 0.7869 -2.9703 0.9634
-8.3806 0.0001 -2.9716 0.9651
-8.2489 -1.4861 -2.9720 0.9651
-7.8579 -2.9263 -2.9732 0.9650
-7.5685 -3.6152 -2.9741 0.9650
-7.2193 -4.2760 -2.9752 0.9650
-6.8129 -4.9036 -2.9764 0.9650
-6.3524 -5.4931 -2.9778 0.9650
-5.2836 -6.5396 -2.9811 0.9649
-4.6834 -6.9882 -2.9829 0.9649
-4.0455 -7.3821 -2.9849 0.9649
-3.3747 -7.7182 -2.9869 0.9649
-1.2184 -8.3539 -2.9935 0.9648
1.0343 -8.3982 -3.0004 0.9647
1.7791 -8.2791 -3.0027 0.9647
3.2235 -7.8440 -3.0071 0.9646
5.1917 -6.7270 -3.0131 0.9646
6.3093 -5.7064 -3.0165 0.9645
7.2278 -4.5015 -3.0193 0.9645
7.6026 -3.8417 -3.0204 0.9645
7.9169 -3.1508 -3.0214 0.9645
8.3538 -1.6980 -3.0227 0.9645
8.4217 1.3242 -3.0229 0.9645
8.0504 2.7954 -3.0218 0.9645
7.7674 3.4999 -3.0209 0.9645
7.4225 4.1759 -3.0198 0.9645
6.9036 4.7391 -2.9692 0.9651
4.6368 6.5960 -2.8589 0.9664
4.0287 6.9780 -2.8571 0.9664
1.3363 7.9224 -2.8488 0.9665
-0.0894 8.0215 -2.8445 0.9665
-2.2004 7.6955 -2.8381 0.9666
-4.7348 6.4262 -2.8303 0.9667
-5.2848 5.9757 -2.8286 0.9667
-6.2643 4.9470 -2.8304 0.9667
-7.4011 3.9494 -2.9746 0.9650
-7.7207 3.2739 -2.9736 0.9650
-8.3723 0.3734 -2.9716 0.9651
-8.3064 -1.1171 -2.9719 0.9651
-8.1751 -1.8522 -2.9723 0.9651
-7.9794 -2.5730 -2.9729 0.9650
-7.7208 -3.2739 -2.9737 0.9650
-7.4012 -3.9494 -2.9746 0.9650
-7.0230 -4.5942 -2.9758 0.9650
-4.3689 -7.1921 -2.9839 0.9649
-3.0286 -7.8636 -2.9880 0.9649
-2.3184 -8.1079 -2.9902 0.9648
-0.0942 -8.4515 -2.9970 0.9648
0.6590 -8.4327 -2.9993 0.9647
1.4080 -8.3470 -3.0015 0.9647
2.8699 -7.9769 -3.0060 0.9647
4.2447 -7.3520 -3.0102 0.9646
4.8853 -6.9495 -3.0121 0.9646
5.4878 -6.4910 -3.0140 0.9646
6.0472 -5.9802 -3.0157 0.9645
6.5589 -5.4210 -3.0172 0.9645
7.0186 -4.8180 -3.0186 0.9645
7.4226 -4.1759 -3.0199 0.9645
8.0505 -2.7954 -3.0218 0.9645
8.2691 -2.0682 -3.0224 0.9645
8.4217 -1.3242 -3.0229 0.9645
8.4727 0.9478 -3.0231 0.9645
8.3537 1.6980 -3.0227 0.9645
8.1679 2.4343 -3.0221 0.9645
7.6025 3.8417 -3.0204 0.9645
7.2277 4.5015 -3.0192 0.9645
6.4498 4.8641 -2.8645 0.9663
5.9884 5.4162 -2.8631 0.9663
5.4796 5.9245 -2.8615 0.9663
4.3370 6.7938 -2.8580 0.9664
2.3830 7.6822 -2.8520 0.9664
1.6886 7.8580 -2.8499 0.9665
0.9817 7.9710 -2.8478 0.9665
-1.1564 7.9290 -2.8412 0.9666
-1.8561 7.7887 -2.8391 0.9666
-3.2030 7.3256 -2.8350 0.9666
-5.0148 6.2069 -2.8295 0.9667
-6.0293 5.2137 -2.8264 0.9667
-6.6329 4.7740 -2.8978 0.9659
-7.5684 3.6151 -2.9741 0.9650
-8.0852 2.2148 -2.9725 0.9650
-8.3476 0.7460 -2.9717 0.9651
-7.9615 0.0000 -2.9729 0.9666
-7.8364 -1.4118 -2.9733 0.9666
-7.6808 -2.1040 -2.9738 0.9666
-7.4648 -2.7799 -2.9744 0.9666
-5.5485 -5.7371 -2.9803 0.9665
-4.4484 -6.6375 -2.9837 0.9665
-3.8424 -7.0114 -2.9855 0.9664
-3.2051 -7.3303 -2.9875 0.9664
-2.5417 -7.5917 -2.9895 0.9664
-1.1570 -7.9333 -2.9937 0.9663
0.9821 -7.9744 -3.0002 0.9663
1.6892 -7.8610 -3.0024 0.9663
3.0605 -7.4473 -3.0066 0.9662
4.3381 -6.7954 -3.0105 0.9662
4.9286 -6.3862 -3.0123 0.9661
5.4805 -5.9255 -3.0140 0.9661
7.5147 -2.9908 -3.0201 0.9661
8.0907 -0.1803 -3.0219 0.9660
8.0745 0.5405 -3.0218 0.9660
7.8489 1.9632 -3.0211 0.9660
7.6414 2.6534 -3.0205 0.9661
7.3729 3.3221 -3.0197 0.9661
7.0456 3.9638 -3.0187 0.9661
2.5862 7.1884 -2.8527 0.9679
1.9348 7.3849 -2.8507 0.9679
0.5939 7.6000 -2.8466 0.9680
-1.4320 7.4706 -2.8404 0.9680
-3.3479 6.8128 -2.8346 0.9681
-5.5022 5.2040 -2.8280 0.9682
-6.6713 4.3642 -2.9768 0.9665
-7.3344 3.1101 -2.9748 0.9666
-7.9536 0.3547 -2.9729 0.9666
-7.7663 -1.7596 -2.9735 0.9666
-7.3345 -3.1101 -2.9748 0.9666
-7.0308 -3.7517 -2.9758 0.9665
-6.6714 -4.3642 -2.9769 0.9665
-6.2591 -4.9428 -2.9781 0.9665
-5.7971 -5.4829 -2.9795 0.9665
-4.7383 -6.4308 -2.9828 0.9665
-4.1496 -6.8311 -2.9846 0.9664
-3.5273 -7.1779 -2.9865 0.9664
-2.2018 -7.7000 -2.9905 0.9664
-1.5088 -7.8710 -2.9926 0.9664
-0.0894 -8.0254 -2.9970 0.9663
0.6257 -8.0073 -2.9991 0.9663
3.3904 -7.3060 -3.0076 0.9662
4.6379 -6.5975 -3.0114 0.9662
5.2097 -6.1621 -3.0131 0.9661
5.7406 -5.6770 -3.0147 0.9661
6.6624 -4.5735 -3.0176 0.9661
7.0457 -3.9639 -3.0187 0.9661
7.3730 -3.3221 -3.0197 0.9661
7.6415 -2.6534 -3.0205 0.9661
7.8489 -1.9631 -3.0212 0.9660
7.9937 -1.2569 -3.0216 0.9660
8.0745 -0.5405 -3.0218 0.9660
7.9292 1.6117 -3.0214 0.9660
7.7529 2.3106 -3.0209 0.9660
7.5146 2.9908 -3.0201 0.9661
7.2165 3.6466 -3.0192 0.9661
6.8608 4.2729 -3.0181 0.9661
6.2919 4.7450 -2.9427 0.9669
5.6846 5.1414 -2.8621 0.9678
5.2018 5.6241 -2.8607 0.9678
3.5248 6.7864 -2.8555 0.9679
2.9048 7.0685 -2.8536 0.9679
1.6033 7.4611 -2.8497 0.9679
-0.4239 7.6031 -2.8435 0.9680
-1.0982 7.5297 -2.8414 0.9680
-4.7633 5.8956 -2.8302 0.9682
-5.2663 5.4454 -2.8287 0.9682
-5.7272 4.9525 -2.8273 0.9682
-6.4716 4.6580 -2.9774 0.9665
-6.8578 4.0619 -2.9763 0.9665
-7.1897 3.4342 -2.9752 0.9666
-7.4647 2.7799 -2.9744 0.9666
-7.6808 2.1040 -2.9738 0.9666
-7.8363 1.4118 -2.9733 0.9666
-7.9301 0.7087 -2.9730 0.9666
-7.4587 -1.3437 -2.9744 0.9680
-7.3106 -2.0026 -2.9749 0.9680
-6.8430 -3.2686 -2.9763 0.9679
-6.1594 -4.4332 -2.9784 0.9679
-5.7428 -4.9660 -2.9797 0.9679
-5.2805 -5.4600 -2.9811 0.9679
-3.6565 -6.6722 -2.9861 0.9678
-3.0500 -6.9754 -2.9879 0.9678
-2.4186 -7.2239 -2.9899 0.9678
0.2553 -7.6346 -2.9980 0.9677
0.9344 -7.5868 -3.0001 0.9677
2.2678 -7.3108 -3.0042 0.9676
4.1265 -6.4640 -3.0098 0.9676
5.2130 -5.6362 -3.0131 0.9675
6.1354 -4.6269 -3.0159 0.9675
6.5254 -4.0641 -3.0171 0.9675
7.5412 -1.5328 -3.0202 0.9675
7.6947 -0.1714 -3.0207 0.9675
7.6024 1.1954 -3.0204 0.9675
7.0123 3.1596 -3.0186 0.9675
6.7011 3.7700 -3.0176 0.9675
6.3366 4.3499 -3.0165 0.9675
5.7458 4.7490 -2.9256 0.9685
5.1825 5.1251 -2.8606 0.9692
2.4603 6.8384 -2.8523 0.9693
1.2072 7.1567 -2.8485 0.9693
-0.7250 7.2064 -2.8426 0.9694
-3.7480 6.1701 -2.8333 0.9695
-4.2798 5.8087 -2.8317 0.9695
-4.7773 5.4018 -2.8302 0.9695
-5.2365 4.9527 -2.8288 0.9695
-6.3494 4.1536 -2.9778 0.9679
-6.6916 3.5707 -2.9768 0.9679
-6.9808 2.9601 -2.9759 0.9679
-7.5107 1.0101 -2.9743 0.9680
-7.5107 -1.0101 -2.9743 0.9680
-7.3919 -1.6748 -2.9747 0.9680
-6.9808 -2.9601 -2.9759 0.9679
-5.0333 -5.6912 -2.9819 0.9679
-4.5092 -6.1199 -2.9835 0.9679
-3.9489 -6.5007 -2.9852 0.9678
-2.0951 -7.3269 -2.9908 0.9678
-0.7638 -7.5926 -2.9949 0.9677
-0.0851 -7.6357 -2.9970 0.9677
0.5953 -7.6182 -2.9991 0.9677
1.2719 -7.5402 -3.0011 0.9677
1.9393 -7.4021 -3.0032 0.9677
2.5921 -7.2049 -3.0051 0.9676
4.4116 -6.2756 -3.0107 0.9676
4.9554 -5.8613 -3.0124 0.9676
5.9219 -4.8946 -3.0153 0.9675
7.2676 -2.5236 -3.0194 0.9675
7.6025 -1.1954 -3.0204 0.9675
7.6947 0.1715 -3.0207 0.9675
7.6485 0.8556 -3.0205 0.9675
7.5412 1.5329 -3.0202 0.9675
7.3736 2.1976 -3.0197 0.9675
7.1471 2.8445 -3.0190 0.9675
6.5254 4.0640 -3.0171 0.9675
6.1353 4.6269 -3.0159 0.9675
4.9478 5.3495 -2.8599 0.9692
3.9166 6.1353 -2.8567 0.9692
2.7633 6.7242 -2.8532 0.9692
1.5253 7.0982 -2.8494 0.9693
-0.4034 7.2340 -2.8435 0.9693
-1.6773 7.0382 -2.8397 0.9694
-2.2955 6.8564 -2.8378 0.9694
-2.8948 6.6207 -2.8359 0.9694
-4.5331 5.6107 -2.8309 0.9695
-5.5254 4.7780 -2.8669 0.9691
-6.1593 4.4332 -2.9784 0.9679
-6.8429 3.2686 -2.9763 0.9679
-7.1048 2.6459 -2.9755 0.9679
-7.3106 2.0026 -2.9749 0.9680
-7.4587 1.3438 -2.9744 0.9680
-7.2251 0.0000 -2.9752 0.9692
-7.1114 -1.2812 -2.9755 0.9692
-6.9702 -1.9093 -2.9759 0.9692
-6.7740 -2.5227 -2.9765 0.9692
-6.5242 -3.1164 -2.9773 0.9692
-5.4750 -4.7344 -2.9805 0.9692
-5.0341 -5.2053 -2.9819 0.9692
-4.5531 -5.6354 -2.9833 0.9691
-2.9074 -6.6493 -2.9884 0.9691
-2.3054 -6.8859 -2.9902 0.9691
-1.6845 -7.0683 -2.9921 0.9691
-1.0493 -7.1948 -2.9940 0.9690
-0.4051 -7.2644 -2.9960 0.9690
0.2433 -7.2764 -2.9980 0.9690
3.3664 -6.4815 -3.0075 0.9689
5.8460 -4.4087 -3.0151 0.9688
7.0253 -2.0938 -3.0187 0.9688
7.1850 -1.4604 -3.0191 0.9688
7.3311 -0.1634 -3.0196 0.9688
7.2433 1.1390 -3.0193 0.9688
7.1122 1.7789 -3.0189 0.9688
6.9243 2.4044 -3.0183 0.9688
6.6812 3.0104 -3.0176 0.9688
6.0377 4.1446 -3.0156 0.9688
5.6425 4.6637 -3.0144 0.9688
4.9382 4.8835 -2.8599 0.9704
2.9171 6.2862 -2.8537 0.9705
2.3446 6.5169 -2.8519 0.9705
1.7541 6.6955 -2.8501 0.9705
1.1505 6.8206 -2.8483 0.9705
-0.0770 6.9075 -2.8445 0.9706
-0.6910 6.8687 -2.8427 0.9706
-1.8954 6.6287 -2.8390 0.9706
-4.5544 5.1497 -2.8309 0.9707
-5.0517 4.7779 -2.8632 0.9704
-5.6792 4.4848 -2.9799 0.9692
-6.0535 3.9601 -2.9787 0.9692
-6.6556 2.8223 -2.9769 0.9692
-7.0477 1.5968 -2.9757 0.9692
-7.2180 0.3219 -2.9752 0.9692
-7.2180 -0.3219 -2.9752 0.9692
-7.1611 -0.9631 -2.9754 0.9692
-6.8789 -2.2181 -2.9762 0.9692
-6.3799 -3.4044 -2.9777 0.9692
-4.2987 -5.8342 -2.9841 0.9691
-3.7644 -6.1970 -2.9857 0.9691
-3.1997 -6.5112 -2.9875 0.9691
-2.6091 -6.7743 -2.9893 0.9691
-1.9970 -6.9840 -2.9911 0.9691
-0.0811 -7.2776 -2.9970 0.9690
1.8481 -7.0543 -3.0029 0.9689
2.4702 -6.8662 -3.0048 0.9689
3.0734 -6.6231 -3.0066 0.9689
3.6529 -6.3270 -3.0084 0.9689
4.7219 -5.5851 -3.0116 0.9689
5.6426 -4.6637 -3.0144 0.9688
6.3849 -3.5921 -3.0167 0.9688
6.6813 -3.0104 -3.0176 0.9688
7.2433 -1.1389 -3.0193 0.9688
7.3165 -0.4898 -3.0195 0.9688
7.3311 0.1634 -3.0196 0.9688
7.2872 0.8152 -3.0194 0.9688
6.8096 2.7102 -3.0180 0.9688
6.2174 3.8723 -3.0162 0.9688
5.8459 4.4086 -3.0150 0.9688
5.2534 4.7514 -2.9168 0.9698
4.7146 5.0974 -2.8592 0.9704
2.0513 6.6128 -2.8510 0.9705
-0.9960 6.8289 -2.8417 0.9706
-1.5988 6.7088 -2.8399 0.9706
-2.1882 6.5357 -2.8381 0.9706
-2.7595 6.3111 -2.8364 0.9706
-3.3083 6.0369 -2.8347 0.9707
-3.8303 5.7153 -2.8331 0.9707
-5.8722 4.2265 -2.9793 0.9692
-6.2228 3.6858 -2.9782 0.9692
-6.5242 3.1163 -2.9773 0.9692
-6.9702 1.9094 -2.9759 0.9692
-7.1966 0.6431 -2.9752 0.9692
-6.8995 0.0000 -2.9761 0.9704
-6.8723 -0.6141 -2.9762 0.9704
-6.6560 -1.8233 -2.9769 0.9704
-6.4686 -2.4089 -2.9775 0.9704
-6.2300 -2.9758 -2.9782 0.9704
-5.6073 -4.0359 -2.9801 0.9704
-4.8068 -4.9702 -2.9826 0.9703
-3.3279 -6.0727 -2.9871 0.9703
-2.7758 -6.3484 -2.9888 0.9703
-0.3867 -6.9348 -2.9961 0.9702
2.0630 -6.6503 -3.0035 0.9701
2.6483 -6.4442 -3.0053 0.9701
3.2132 -6.1864 -3.0070 0.9701
3.7531 -5.8791 -3.0087 0.9701
4.2637 -5.5246 -3.0102 0.9701
6.2409 -3.1537 -3.0163 0.9700
6.4985 -2.5864 -3.0170 0.9700
6.7043 -1.9981 -3.0177 0.9700
6.8566 -1.3936 -3.0181 0.9700
6.9541 -0.7779 -3.0184 0.9700
6.9123 1.0869 -3.0183 0.9700
6.7872 1.6976 -3.0179 0.9700
6.6080 2.2946 -3.0174 0.9700
6.3760 2.8729 -3.0166 0.9700
5.7620 3.9554 -3.0148 0.9700
5.3850 4.4509 -3.0136 0.9700
4.8056 4.7524 -2.9154 0.9710
3.8082 5.4173 -2.8564 0.9716
2.7843 6.0001 -2.8533 0.9716
0.5141 6.5785 -2.8463 0.9717
-0.0735 6.5940 -2.8445 0.9717
-0.6597 6.5572 -2.8428 0.9717
-1.2399 6.4684 -2.8410 0.9717
-2.3643 6.1387 -2.8376 0.9718
-2.8996 5.9005 -2.8359 0.9718
-3.4114 5.6159 -2.8344 0.9718
-3.8956 5.2872 -2.8329 0.9718
-5.0222 4.7500 -2.9819 0.9703
-5.4229 4.2824 -2.9806 0.9703
-5.7804 3.7814 -2.9795 0.9704
-6.3555 2.6950 -2.9778 0.9704
-6.5687 2.1182 -2.9771 0.9704
-6.7301 1.5248 -2.9767 0.9704
-6.3556 -2.6950 -2.9778 0.9704
-6.0921 -3.2509 -2.9786 0.9704
-4.5817 -5.1806 -2.9832 0.9703
-3.5942 -5.9168 -2.9863 0.9703
-3.0550 -6.2167 -2.9879 0.9703
-2.4910 -6.4676 -2.9896 0.9703
-1.9066 -6.6676 -2.9914 0.9702
-0.6950 -6.9086 -2.9951 0.9702
-0.0774 -6.9474 -2.9970 0.9702
0.5416 -6.9311 -2.9989 0.9702
1.1571 -6.8596 -3.0008 0.9702
1.7641 -6.7336 -3.0026 0.9701
2.3579 -6.5538 -3.0044 0.9701
4.5066 -5.3304 -3.0110 0.9700
6.0933 -3.4280 -3.0158 0.9700
6.6080 -2.2946 -3.0174 0.9700
6.7873 -1.6976 -3.0179 0.9700
6.9961 0.1560 -3.0186 0.9700
6.9541 0.7780 -3.0184 0.9700
6.8566 1.3937 -3.0181 0.9700
6.4985 2.5863 -3.0170 0.9700
6.2409 3.1537 -3.0162 0.9700
5.9336 3.6955 -3.0153 0.9700
5.1804 4.6854 -3.0130 0.9700
4.4996 4.8650 -2.8585 0.9715
2.5136 6.1164 -2.8524 0.9716
1.9580 6.3121 -2.8507 0.9716
0.8069 6.5511 -2.8472 0.9717
0.2204 6.5928 -2.8454 0.9717
-0.3670 6.5821 -2.8437 0.9717
-0.9508 6.5193 -2.8419 0.9717
-1.5263 6.4048 -2.8401 0.9717
-2.0891 6.2398 -2.8384 0.9717
-2.6346 6.0255 -2.8367 0.9718
-3.1587 5.7638 -2.8351 0.9718
-3.6572 5.4569 -2.8336 0.9718
-5.6072 4.0358 -2.9801 0.9704
-5.9421 3.5196 -2.9791 0.9704
-6.2300 2.9758 -2.9782 0.9704
-6.6560 1.8233 -2.9769 0.9704
-6.8723 0.6141 -2.9762 0.9704
-6.5979 0.0000 -2.9771 0.9715
-6.3650 -1.7436 -2.9778 0.9715
-6.1857 -2.3036 -2.9783 0.9714
-5.3618 -3.8592 -2.9809 0.9714
-4.5962 -4.7525 -2.9832 0.9714
-3.1819 -5.8063 -2.9875 0.9714
-2.6539 -6.0697 -2.9891 0.9713
-2.1044 -6.2854 -2.9908 0.9713
-1.5375 -6.4515 -2.9925 0.9713
-0.3697 -6.6297 -2.9961 0.9713
0.2220 -6.6403 -2.9979 0.9713
0.8126 -6.5982 -2.9997 0.9712
3.0713 -5.9133 -3.0066 0.9712
5.3323 -4.0212 -3.0135 0.9711
5.6710 -3.5319 -3.0145 0.9711
5.9646 -3.0140 -3.0154 0.9711
6.6460 -0.7435 -3.0175 0.9711
6.6860 -0.1490 -3.0176 0.9711
5.8235 3.2763 -3.0150 0.9711
5.5070 3.7804 -3.0140 0.9711
5.1468 4.2539 -3.0129 0.9711
4.7458 4.6933 -3.0117 0.9711
4.0883 4.8357 -2.8573 0.9726
3.6400 5.1779 -2.8559 0.9726
3.1630 5.4786 -2.8544 0.9726
2.1392 5.9460 -2.8513 0.9727
1.6006 6.1093 -2.8497 0.9727
1.0498 6.2238 -2.8480 0.9727
0.4914 6.2888 -2.8463 0.9727
-0.0702 6.3038 -2.8446 0.9727
-0.6306 6.2688 -2.8428 0.9727
-1.1854 6.1841 -2.8412 0.9727
-2.2605 5.8691 -2.8379 0.9728
-3.2617 5.3696 -2.8348 0.9728
-3.7249 5.0554 -2.8334 0.9728
-4.2223 4.7742 -2.8758 0.9724
-4.8023 4.5420 -2.9825 0.9714
-5.1855 4.0949 -2.9814 0.9714
-5.5274 3.6159 -2.9803 0.9714
-6.4358 1.4582 -2.9776 0.9715
-6.5394 0.8795 -2.9772 0.9715
-6.5914 -0.2939 -2.9771 0.9715
-6.5394 -0.8795 -2.9772 0.9715
-6.4358 -1.4582 -2.9776 0.9715
-6.0776 -2.5771 -2.9787 0.9714
-5.8256 -3.1086 -2.9794 0.9714
-5.5275 -3.6159 -2.9803 0.9714
-5.1855 -4.0950 -2.9814 0.9714
-4.8024 -4.5420 -2.9826 0.9714
-4.3809 -4.9536 -2.9839 0.9714
-3.9245 -5.3263 -2.9852 0.9714
-3.4365 -5.6573 -2.9867 0.9714
-2.9209 -5.9438 -2.9883 0.9714
-2.3816 -6.1836 -2.9900 0.9713
-1.8228 -6.3747 -2.9917 0.9713
-0.6644 -6.6047 -2.9952 0.9713
-0.0740 -6.6416 -2.9970 0.9713
1.1061 -6.5574 -3.0006 0.9712
2.2538 -6.2647 -3.0041 0.9712
2.8041 -6.0426 -3.0058 0.9712
4.3074 -5.0948 -3.0104 0.9711
4.7459 -4.6933 -3.0117 0.9711
5.5071 -3.7804 -3.0140 0.9711
5.8236 -3.2763 -3.0150 0.9711
6.0937 -2.7457 -3.0158 0.9711
6.3153 -2.1929 -3.0165 0.9711
6.4866 -1.6224 -3.0170 0.9711
6.6060 -1.0387 -3.0174 0.9711
6.6727 -0.4467 -3.0176 0.9711
6.6860 0.1490 -3.0176 0.9711
6.6460 0.7435 -3.0175 0.9711
6.5528 1.3319 -3.0172 0.9711
5.6709 3.5319 -3.0145 0.9711
4.9512 4.4781 -3.0123 0.9711
3.8679 5.0119 -2.8566 0.9726
3.4048 5.3336 -2.8552 0.9726
2.9151 5.6125 -2.8537 0.9726
2.4026 5.8465 -2.8521 0.9726
1.8717 6.0337 -2.8505 0.9727
-0.3509 6.2925 -2.8437 0.9727
-1.4593 6.1233 -2.8403 0.9728
-1.9973 5.9657 -2.8387 0.9728
-2.5190 5.7610 -2.8371 0.9728
-4.5962 4.7524 -2.9832 0.9714
-5.3618 3.8592 -2.9808 0.9714
-5.6821 3.3655 -2.9798 0.9714
-5.9574 2.8456 -2.9790 0.9714
-6.3649 1.7436 -2.9778 0.9715
-6.4940 1.1700 -2.9774 0.9715
-6.3175 0.0000 -2.9779 0.9724
-6.2926 -0.5623 -2.9780 0.9724
-6.2181 -1.1203 -2.9782 0.9724
-6.0944 -1.6695 -2.9786 0.9724
-5.9227 -2.2056 -2.9791 0.9724
-5.7042 -2.7246 -2.9798 0.9724
-4.7862 -4.1388 -2.9826 0.9724
-4.4005 -4.5501 -2.9838 0.9724
-3.9798 -4.9259 -2.9851 0.9724
-3.0463 -5.5587 -2.9879 0.9724
-2.5407 -5.8108 -2.9895 0.9723
-0.9168 -6.2860 -2.9944 0.9723
-0.3539 -6.3463 -2.9962 0.9723
1.8875 -6.0846 -3.0030 0.9722
2.4229 -5.8957 -3.0046 0.9722
3.4333 -5.3782 -3.0077 0.9722
4.7385 -4.2857 -3.0117 0.9721
5.4271 -3.3800 -3.0138 0.9721
5.7080 -2.8844 -3.0146 0.9721
6.3982 -0.1425 -3.0167 0.9721
6.3216 0.9941 -3.0165 0.9721
6.2074 1.5526 -3.0161 0.9721
6.0435 2.0986 -3.0156 0.9721
5.8315 2.6276 -3.0150 0.9721
5.2702 3.6178 -3.0133 0.9721
4.9256 4.0711 -3.0122 0.9721
4.5419 4.4916 -3.0110 0.9721
1.5320 5.8476 -2.8495 0.9736
-0.0672 6.0343 -2.8446 0.9737
-0.6037 6.0008 -2.8429 0.9737
-2.1640 5.6187 -2.8382 0.9737
-2.6541 5.4010 -2.8367 0.9737
-3.1227 5.1407 -2.8352 0.9738
-3.5662 4.8401 -2.8339 0.9738
-4.1943 4.7426 -2.9844 0.9724
-4.9648 3.9207 -2.9820 0.9724
-6.0145 1.9395 -2.9788 0.9724
-6.1623 1.3962 -2.9784 0.9724
-6.3113 0.2815 -2.9779 0.9724
-6.1623 -1.3962 -2.9784 0.9724
-4.9649 -3.9207 -2.9821 0.9724
-4.5979 -4.3487 -2.9832 0.9724
-4.1944 -4.7426 -2.9844 0.9724
-3.7573 -5.0994 -2.9858 0.9724
-2.2800 -5.9198 -2.9903 0.9723
-1.7450 -6.1026 -2.9919 0.9723
-1.1956 -6.2372 -2.9936 0.9723
-0.6360 -6.3224 -2.9953 0.9723
2.6838 -5.7835 -3.0054 0.9722
3.6704 -5.2212 -3.0084 0.9722
4.1224 -4.8760 -3.0098 0.9722
4.9256 -4.0712 -3.0123 0.9721
5.2703 -3.6179 -3.0133 0.9721
5.5731 -3.1354 -3.0142 0.9721
5.8316 -2.6276 -3.0150 0.9721
6.3217 -0.9940 -3.0165 0.9721
6.3855 -0.4274 -3.0167 0.9721
6.3599 0.7115 -3.0166 0.9721
5.9434 2.3654 -3.0153 0.9721
5.4270 3.3800 -3.0138 0.9721
5.1030 3.8483 -3.0128 0.9721
3.7019 4.7967 -2.8561 0.9736
2.7900 5.3718 -2.8533 0.9736
1.7915 5.7752 -2.8502 0.9736
0.7383 5.9945 -2.8470 0.9736
0.2017 6.0330 -2.8454 0.9737
-1.3969 5.8619 -2.8405 0.9737
-1.9121 5.7111 -2.8389 0.9737
-2.8913 5.2760 -2.8360 0.9737
-3.3478 4.9953 -2.8346 0.9738
-4.7861 4.1388 -2.9826 0.9724
-5.4404 3.2224 -2.9806 0.9724
-5.9227 2.2056 -2.9791 0.9724
-6.0561 0.0000 -2.9787 0.9734
-5.9607 -1.0739 -2.9790 0.9734
-5.2152 -3.0890 -2.9813 0.9733
-4.9210 -3.5419 -2.9822 0.9733
-4.2181 -4.3615 -2.9843 0.9733
-3.8147 -4.7216 -2.9856 0.9733
-3.3809 -5.0446 -2.9869 0.9733
-2.4352 -5.5695 -2.9898 0.9733
-1.4106 -5.9192 -2.9929 0.9732
-0.8787 -6.0245 -2.9945 0.9732
-0.3391 -6.0822 -2.9962 0.9732
0.7455 -6.0526 -2.9995 0.9732
1.2819 -5.9655 -3.0011 0.9732
1.8087 -5.8308 -3.0027 0.9732
2.3218 -5.6497 -3.0043 0.9731
3.2899 -5.1536 -3.0073 0.9731
4.1552 -4.4925 -3.0099 0.9731
4.5403 -4.1064 -3.0111 0.9731
5.1999 -3.2385 -3.0131 0.9731
5.4690 -2.7636 -3.0139 0.9731
5.6946 -2.2664 -3.0146 0.9730
6.0935 -0.6817 -3.0158 0.9730
6.1179 0.4096 -3.0159 0.9730
5.0497 3.4664 -3.0126 0.9731
4.3520 4.3038 -3.0105 0.9731
3.3512 4.7672 -2.8662 0.9744
1.9621 5.4537 -2.8508 0.9745
1.4681 5.6038 -2.8493 0.9745
0.4508 5.7690 -2.8462 0.9745
-0.0644 5.7830 -2.8446 0.9745
-1.5874 5.5514 -2.8399 0.9746
-2.0741 5.3853 -2.8384 0.9746
-4.4073 4.1684 -2.9837 0.9733
-4.7591 3.7582 -2.9827 0.9733
-5.5783 2.3654 -2.9802 0.9734
-5.9073 1.3384 -2.9792 0.9734
-6.0501 0.2698 -2.9787 0.9734
-6.0501 -0.2698 -2.9787 0.9734
-6.0024 -0.8072 -2.9789 0.9734
-5.9073 -1.3384 -2.9792 0.9734
-5.7656 -1.8591 -2.9796 0.9734
-5.0731 -3.3187 -2.9817 0.9733
-4.4074 -4.1685 -2.9838 0.9733
-4.0204 -4.5460 -2.9850 0.9733
-3.6014 -4.8879 -2.9862 0.9733
-0.6096 -6.0593 -2.9954 0.9732
1.0146 -6.0150 -3.0003 0.9732
2.0672 -5.7460 -3.0035 0.9731
3.0563 -5.2937 -3.0066 0.9731
4.3520 -4.3038 -3.0105 0.9731
5.3398 -3.0041 -3.0135 0.9731
5.5874 -2.5175 -3.0143 0.9731
6.1302 0.1366 -3.0159 0.9730
6.0935 0.6817 -3.0158 0.9730
6.0081 1.2212 -3.0155 0.9730
5.8748 1.7509 -3.0151 0.9730
5.6946 2.2664 -3.0146 0.9730
5.1999 3.2385 -3.0131 0.9731
4.5403 4.1064 -3.0110 0.9731
3.1226 4.8915 -2.8543 0.9745
2.6735 5.1475 -2.8529 0.9745
2.2037 5.3623 -2.8515 0.9745
1.7168 5.5343 -2.8500 0.9745
-0.3219 5.7728 -2.8438 0.9746
-0.8340 5.7181 -2.8422 0.9746
-2.3114 5.2862 -2.8377 0.9746
-2.7713 5.0571 -2.8363 0.9746
-4.5878 3.9672 -2.9832 0.9733
-4.9210 3.5420 -2.9822 0.9733
-5.2151 3.0890 -2.9813 0.9733
-5.4680 2.6118 -2.9805 0.9733
-5.6775 2.1144 -2.9799 0.9734
-5.8422 1.6004 -2.9794 0.9734
-5.7887 -0.5173 -2.9795 0.9742
-5.4483 -2.0290 -2.9806 0.9742
-4.7222 -3.3988 -2.9828 0.9742
-4.4024 -3.8069 -2.9838 0.9742
-4.0476 -4.1851 -2.9849 0.9742
-3.6604 -4.5305 -2.9861 0.9742
-3.2440 -4.8404 -2.9873 0.9741
1.2298 -5.7230 -3.0010 0.9740
1.7352 -5.5937 -3.0025 0.9740
2.2273 -5.4197 -3.0040 0.9740
3.1559 -4.9436 -3.0069 0.9740
3.5849 -4.6452 -3.0082 0.9740
4.6900 -3.5369 -3.0115 0.9739
5.4621 -2.1738 -3.0139 0.9739
5.6349 -1.6794 -3.0144 0.9739
5.8798 -0.1310 -3.0151 0.9739
5.8095 0.9135 -3.0149 0.9739
5.7045 1.4268 -3.0146 0.9739
5.5540 1.9286 -3.0141 0.9739
4.1745 4.1283 -3.0099 0.9740
2.7828 4.8199 -2.8533 0.9753
2.3416 5.0461 -2.8519 0.9753
1.4084 5.3759 -2.8491 0.9753
-0.5551 5.5178 -2.8431 0.9754
-1.9901 5.1671 -2.8387 0.9754
-2.4409 4.9671 -2.8373 0.9754
-2.9002 4.7743 -2.8639 0.9752
-3.4557 4.6901 -2.9866 0.9742
-5.5328 1.7841 -2.9803 0.9742
-5.6688 1.2844 -2.9799 0.9742
-5.7601 0.7747 -2.9796 0.9742
-5.8059 0.2589 -2.9795 0.9742
-5.6688 -1.2844 -2.9799 0.9742
-5.5328 -1.7841 -2.9803 0.9742
-5.1309 -2.7379 -2.9816 0.9742
-4.5668 -3.6063 -2.9833 0.9742
-4.2292 -3.9999 -2.9843 0.9742
-3.0259 -4.9813 -2.9880 0.9741
-1.6047 -5.6119 -2.9923 0.9741
-1.0994 -5.7353 -2.9939 0.9741
-0.0651 -5.8455 -2.9970 0.9741
0.4557 -5.8312 -2.9986 0.9741
1.9831 -5.5122 -3.0033 0.9740
2.4671 -5.3164 -3.0048 0.9740
2.9319 -5.0782 -3.0062 0.9740
3.3737 -4.7992 -3.0075 0.9740
4.1746 -4.1283 -3.0100 0.9740
5.1219 -2.8815 -3.0128 0.9739
5.3593 -2.4148 -3.0136 0.9739
5.5540 -1.9286 -3.0142 0.9739
5.7045 -1.4268 -3.0146 0.9739
5.8446 0.6538 -3.0150 0.9739
5.7627 1.1713 -3.0148 0.9739
5.4621 2.1739 -3.0139 0.9739
4.9877 3.1063 -3.0124 0.9739
4.6900 3.5369 -3.0115 0.9739
3.9857 4.3094 -3.0093 0.9740
3.5849 4.6451 -3.0081 0.9740
2.5647 4.9379 -2.8526 0.9753
1.6469 5.3092 -2.8498 0.9753
0.6788 5.5113 -2.8468 0.9753
0.1855 5.5470 -2.8453 0.9754
-0.3088 5.5385 -2.8438 0.9754
-1.2846 5.3904 -2.8409 0.9754
-1.7584 5.2520 -2.8394 0.9754
-2.6591 4.8523 -2.8367 0.9754
-4.4023 3.8069 -2.9838 0.9742
-5.0045 2.9642 -2.9819 0.9742
-5.2471 2.5064 -2.9812 0.9742
-5.4483 2.0290 -2.9806 0.9742
-5.6063 1.5357 -2.9801 0.9742
-5.5825 0.0000 -2.9802 0.9750
-5.3852 -1.4751 -2.9808 0.9750
-4.8070 -2.8472 -2.9825 0.9750
-3.8876 -4.0198 -2.9854 0.9750
-3.5158 -4.3515 -2.9865 0.9750
-3.1158 -4.6490 -2.9877 0.9749
-2.6908 -4.9101 -2.9890 0.9749
-1.7792 -5.3143 -2.9918 0.9749
-0.8096 -5.5510 -2.9948 0.9749
-0.3125 -5.6039 -2.9963 0.9749
0.1876 -5.6123 -2.9978 0.9749
0.6868 -5.5762 -2.9993 0.9748
1.1810 -5.4957 -3.0008 0.9748
1.6662 -5.3714 -3.0023 0.9748
2.1388 -5.2043 -3.0038 0.9748
2.5947 -4.9956 -3.0051 0.9748
3.0303 -4.7469 -3.0065 0.9748
3.4423 -4.4603 -3.0077 0.9748
3.8271 -4.1378 -3.0089 0.9748
4.5032 -3.3960 -3.0110 0.9748
5.0367 -2.5451 -3.0126 0.9747
5.4102 -1.6124 -3.0137 0.9747
5.5329 -1.1246 -3.0141 0.9747
5.6115 -0.6277 -3.0143 0.9747
5.6453 -0.1258 -3.0144 0.9747
5.6340 0.3772 -3.0144 0.9747
5.4770 1.3699 -3.0139 0.9747
4.9177 2.7666 -3.0122 0.9747
4.3467 3.5927 -3.0105 0.9748
3.6382 4.3033 -3.0083 0.9748
3.2394 4.6082 -3.0071 0.9748
2.7442 4.7530 -2.9299 0.9754
2.2485 4.8454 -2.8516 0.9761
1.8075 5.0240 -2.8503 0.9761
1.3525 5.1624 -2.8489 0.9761
-0.0594 5.3282 -2.8446 0.9761
-0.5331 5.2991 -2.8432 0.9761
-1.0021 5.2280 -2.8417 0.9762
-1.4627 5.1155 -2.8403 0.9762
-1.9113 4.9626 -2.8389 0.9762
-2.8882 4.7547 -2.9699 0.9751
-4.9284 2.6299 -2.9821 0.9750
-5.1418 2.1803 -2.9815 0.9750
-5.4452 1.2337 -2.9806 0.9750
-5.5770 0.2487 -2.9802 0.9750
-5.4453 -1.2337 -2.9806 0.9750
-4.6760 -3.0589 -2.9829 0.9750
-4.3865 -3.4640 -2.9838 0.9750
-2.9062 -4.7843 -2.9884 0.9749
-1.0558 -5.5081 -2.9940 0.9749
-0.0625 -5.6137 -2.9970 0.9749
1.4250 -5.4390 -3.0016 0.9748
1.9043 -5.2932 -3.0030 0.9748
2.3690 -5.1050 -3.0045 0.9748
2.8153 -4.8762 -3.0058 0.9748
3.6383 -4.3033 -3.0083 0.9748
4.0083 -3.9639 -3.0095 0.9748
4.3467 -3.5926 -3.0105 0.9748
4.9177 -2.7666 -3.0122 0.9747
5.1456 -2.3185 -3.0129 0.9747
5.3326 -1.8516 -3.0135 0.9747
5.5777 -0.8771 -3.0142 0.9747
5.6453 0.1258 -3.0144 0.9747
5.6115 0.6278 -3.0143 0.9747
5.5329 1.1246 -3.0141 0.9747
4.7889 2.9826 -3.0118 0.9747
4.1816 3.7821 -3.0099 0.9748
3.8270 4.1378 -3.0089 0.9748
3.0255 4.7393 -3.0016 0.9748
2.4758 4.7657 -2.8668 0.9759
2.0300 4.9396 -2.8510 0.9761
1.1209 5.2162 -2.8482 0.9761
0.6518 5.2926 -2.8468 0.9761
0.1781 5.3269 -2.8453 0.9761
-1.2337 5.1769 -2.8410 0.9762
-1.6887 5.0440 -2.8396 0.9762
-2.1300 4.8714 -2.8383 0.9762
-3.5157 4.3515 -2.9865 0.9750
-4.5357 3.2646 -2.9833 0.9750
-5.4945 0.9899 -2.9804 0.9750
-5.5604 0.4969 -2.9802 0.9750
-5.3458 -0.4777 -2.9809 0.9757
-5.2825 -0.9517 -2.9811 0.9757
-5.1773 -1.4182 -2.9814 0.9757
-4.6213 -2.7372 -2.9831 0.9757
-4.0651 -3.5152 -2.9848 0.9757
-3.7374 -3.8644 -2.9858 0.9757
-2.9952 -4.4692 -2.9881 0.9757
-2.5866 -4.7200 -2.9893 0.9757
-2.1572 -4.9337 -2.9906 0.9757
-1.7103 -5.1084 -2.9920 0.9757
-0.7782 -5.3358 -2.9949 0.9756
0.1804 -5.3946 -2.9978 0.9756
0.6601 -5.3597 -2.9992 0.9756
1.1351 -5.2822 -3.0007 0.9756
1.6015 -5.1627 -3.0021 0.9756
2.0556 -5.0019 -3.0035 0.9756
2.4937 -4.8012 -3.0048 0.9755
3.3082 -4.2866 -3.0073 0.9755
3.6780 -3.9766 -3.0084 0.9755
4.0187 -3.6347 -3.0095 0.9755
4.3276 -3.2636 -3.0104 0.9755
4.6022 -2.8663 -3.0113 0.9755
4.8402 -2.4459 -3.0120 0.9755
5.3170 -1.0807 -3.0134 0.9755
5.3925 -0.6033 -3.0137 0.9755
5.4250 -0.1209 -3.0138 0.9755
5.4141 0.3624 -3.0137 0.9755
5.3601 0.8428 -3.0136 0.9755
5.2633 1.3165 -3.0133 0.9755
5.1245 1.7794 -3.0128 0.9755
4.7259 2.6588 -3.0116 0.9755
4.1773 3.4527 -3.0099 0.9755
3.8521 3.8095 -3.0089 0.9755
3.4965 4.1357 -3.0079 0.9755
3.1133 4.4288 -3.0067 0.9755
1.7372 4.8287 -2.8501 0.9768
1.2999 4.9618 -2.8487 0.9768
-0.0571 5.1214 -2.8446 0.9768
-0.9633 5.0253 -2.8418 0.9769
-1.4061 4.9173 -2.8405 0.9769
-2.3384 4.7585 -2.9447 0.9760
-3.1907 4.3304 -2.9874 0.9757
-3.9051 3.6934 -2.9853 0.9757
-4.4954 2.9408 -2.9835 0.9757
-5.2351 1.1862 -2.9812 0.9757
-5.3617 0.2391 -2.9808 0.9757
-5.3617 -0.2391 -2.9808 0.9757
-5.3194 -0.7154 -2.9810 0.9757
-5.2351 -1.1861 -2.9812 0.9757
-5.1094 -1.6475 -2.9816 0.9757
-4.7381 -2.5283 -2.9828 0.9757
-4.4954 -2.9407 -2.9835 0.9757
-4.2170 -3.3301 -2.9843 0.9757
-3.9051 -3.6934 -2.9853 0.9757
-3.5621 -4.0278 -2.9863 0.9757
-2.7938 -4.5991 -2.9887 0.9757
-2.3743 -4.8316 -2.9900 0.9757
-1.9357 -5.0260 -2.9913 0.9757
-0.5399 -5.3665 -2.9956 0.9756
1.3696 -5.2276 -3.0014 0.9756
1.8303 -5.0874 -3.0028 0.9756
2.2769 -4.9065 -3.0042 0.9756
3.1134 -4.4288 -3.0067 0.9755
3.4966 -4.1357 -3.0079 0.9755
3.8522 -3.8095 -3.0090 0.9755
4.7259 -2.6588 -3.0116 0.9755
4.9449 -2.2281 -3.0123 0.9755
5.2633 -1.3164 -3.0133 0.9755
5.4250 0.1209 -3.0138 0.9755
5.3925 0.6032 -3.0137 0.9755
4.8402 2.4459 -3.0120 0.9755
4.0187 3.6347 -3.0095 0.9755
2.4650 4.7460 -2.9702 0.9758
1.9597 4.7687 -2.8634 0.9767
1.0774 5.0135 -2.8481 0.9768
0.6265 5.0871 -2.8467 0.9768
-0.2851 5.1126 -2.8439 0.9768
-1.1859 4.9762 -2.8412 0.9769
-1.6233 4.8486 -2.8398 0.9769
-2.0848 4.7681 -2.8903 0.9765
-2.5866 4.7200 -2.9893 0.9757
-3.3798 4.1832 -2.9869 0.9757
-3.7373 3.8644 -2.9858 0.9757
-4.3605 3.1385 -2.9839 0.9757
-4.6213 2.7372 -2.9831 0.9757
-5.1773 1.4182 -2.9814 0.9757
-5.3458 0.4777 -2.9809 0.9757
-5.1640 0.0000 -2.9814 0.9764
-5.1436 -0.4596 -2.9815 0.9764
-4.9815 -1.3646 -2.9820 0.9764
-4.8409 -1.8028 -2.9824 0.9764
-4.6621 -2.2269 -2.9830 0.9764
-4.1954 -3.0197 -2.9844 0.9764
-3.5958 -3.7180 -2.9862 0.9764
-3.2517 -4.0247 -2.9873 0.9764
-2.4885 -4.5410 -2.9896 0.9764
-2.0754 -4.7465 -2.9909 0.9764
-1.6454 -4.9145 -2.9922 0.9763
-0.2889 -5.1818 -2.9963 0.9763
0.6350 -5.1557 -2.9992 0.9763
1.5405 -4.9660 -3.0019 0.9763
1.9772 -4.8113 -3.0033 0.9763
2.3987 -4.6182 -3.0045 0.9763
2.8013 -4.3882 -3.0058 0.9762
3.8653 -3.4960 -3.0090 0.9762
4.4264 -2.7568 -3.0107 0.9762
4.6553 -2.3524 -3.0114 0.9762
4.8472 -1.9291 -3.0120 0.9762
5.0004 -1.4903 -3.0125 0.9762
5.1138 -1.0394 -3.0128 0.9762
5.1864 -0.5802 -3.0130 0.9762
5.2176 -0.1163 -3.0131 0.9762
5.1552 0.8106 -3.0129 0.9762
4.9287 1.7115 -3.0122 0.9762
4.2986 2.9509 -3.0103 0.9762
4.0178 3.3208 -3.0094 0.9762
3.3631 3.9779 -3.0074 0.9762
2.9946 4.2599 -3.0063 0.9762
2.1901 4.7195 -3.0039 0.9763
1.7113 4.7568 -2.9186 0.9769
0.8203 4.8630 -2.8473 0.9775
0.3840 4.9143 -2.8460 0.9775
-0.4929 4.9000 -2.8433 0.9775
-3.0697 4.1663 -2.9878 0.9764
-3.4271 3.8751 -2.9867 0.9764
-4.9160 1.5852 -2.9822 0.9764
-5.0370 1.1412 -2.9818 0.9764
-5.1182 0.6883 -2.9816 0.9764
-5.1589 0.2301 -2.9815 0.9764
-4.7562 -2.0168 -2.9827 0.9764
-4.5588 -2.4326 -2.9833 0.9764
-3.4272 -3.8752 -2.9868 0.9764
-3.0698 -4.1663 -2.9879 0.9764
-2.2843 -4.6483 -2.9903 0.9764
-0.5194 -5.1626 -2.9956 0.9763
0.4046 -5.1777 -2.9985 0.9763
0.8642 -5.1235 -2.9999 0.9763
1.7606 -4.8936 -3.0026 0.9763
2.1901 -4.7195 -3.0039 0.9763
2.9946 -4.2599 -3.0064 0.9762
3.7051 -3.6641 -3.0085 0.9762
4.2987 -2.9509 -3.0103 0.9762
4.9287 -1.7114 -3.0123 0.9762
5.1552 -0.8106 -3.0129 0.9762
5.2176 0.1163 -3.0131 0.9762
5.1138 1.0395 -3.0128 0.9762
5.0004 1.4903 -3.0125 0.9762
4.4264 2.7568 -3.0107 0.9762
3.1820 4.1230 -3.0069 0.9762
1.9512 4.7480 -2.9637 0.9766
1.0363 4.8227 -2.8479 0.9775
0.1649 4.9332 -2.8498 0.9775
-0.7106 4.8720 -2.8426 0.9775
-2.8816 4.2997 -2.9884 0.9764
-3.2517 4.0247 -2.9873 0.9764
-4.1954 3.0197 -2.9844 0.9764
-4.4464 2.6336 -2.9836 0.9764
-4.6621 2.2269 -2.9830 0.9764
-4.8409 1.8028 -2.9824 0.9764
-4.9814 1.3646 -2.9820 0.9764
