ply
format ascii 1.0
element vertex 1634
property float32 x
property float32 y
property float32 z
property float32 I
end_header
-5.2867 7.1752 4.7579 0.9604
-5.2849 7.1727 3.8431 0.9619
-5.2845 7.1722 3.6685 0.9622
-5.2842 7.1717 3.4962 0.9624
-5.2828 7.1699 2.8284 0.9633
-5.2822 7.1690 2.5054 0.9637
-5.2815 7.1682 2.1885 0.9640
-5.2812 7.1678 2.0321 0.9641
-5.2809 7.1673 1.8769 0.9643
-5.2806 7.1669 1.7227 0.9644
7.4668 -6.7533 1.6032 0.9600
7.8945 -5.9535 1.5745 0.9607
-5.2800 7.1661 1.4174 0.9646
7.5923 -6.2752 1.5685 0.9609
7.3368 -7.2555 1.4677 0.9592
7.4134 -6.1273 1.3680 0.9619
7.5820 -5.7179 1.1900 0.9624
8.6619 -5.3947 1.2788 0.9597
-5.2794 7.1653 1.1153 0.9648
7.9826 -5.4798 1.2134 0.9617
8.4341 -5.2528 1.0777 0.9608
-5.2791 7.1649 0.9653 0.9648
6.9440 -6.8671 1.0593 0.9615
7.2068 -5.9566 1.0141 0.9631
7.8656 -5.3994 1.0348 0.9623
7.0161 -7.5857 0.9473 0.9593
6.9503 -6.2862 0.8591 0.9631
-5.2788 7.1645 0.8159 0.9649
6.8586 -6.7826 0.8843 0.9620
7.1390 -5.9006 0.8491 0.9635
7.7129 -5.2946 0.7011 0.9632
9.2270 -5.1910 0.7934 0.9584
7.3176 -5.5185 0.5338 0.9639
-5.2782 7.1637 0.5183 0.9650
7.6681 -5.2639 0.5417 0.9634
8.9754 -5.0495 0.5998 0.9596
6.7066 -7.2511 0.4107 0.9612
6.8136 -6.1625 0.3820 0.9639
7.2800 -5.4901 0.3791 0.9642
8.0892 -5.0380 0.3962 0.9626
-5.2779 7.1632 0.3700 0.9650
7.0144 -5.7975 0.3784 0.9642
8.8595 -4.9843 0.4227 0.9601
8.0686 -5.0252 0.2371 0.9627
-5.2776 7.1629 0.2219 0.9650
6.6803 -6.6063 0.2343 0.9631
7.6098 -5.2238 0.2302 0.9637
6.6640 -7.2051 0.0816 0.9615
6.7901 -6.1412 0.0761 0.9640
7.2554 -5.4716 0.0755 0.9643
8.0511 -5.0142 0.0788 0.9628
-5.2773 7.1624 0.0739 0.9650
6.6661 -6.5923 0.0779 0.9632
6.9913 -5.7784 0.0754 0.9644
8.7700 -4.9339 0.0836 0.9605
6.7892 -6.1404 -0.0761 0.9640
6.6651 -6.5912 -0.0779 0.9632
6.9904 -5.7777 -0.0754 0.9644
8.7670 -4.9322 -0.0836 0.9606
6.6806 -7.2230 -0.2454 0.9614
8.0670 -5.0242 -0.2370 0.9627
6.7021 -7.2462 -0.4104 0.9613
7.2787 -5.4891 -0.3791 0.9642
8.0846 -5.0351 -0.3960 0.9626
-5.2764 7.1612 -0.3699 0.9650
7.6224 -5.2325 -0.3844 0.9637
6.7675 -7.3170 -0.5805 0.9609
7.3141 -5.5158 -0.5336 0.9640
8.1397 -5.0694 -0.5585 0.9623
-5.2761 7.1608 -0.5181 0.9650
7.6641 -5.2611 -0.5414 0.9634
6.8496 -7.4057 -0.7560 0.9603
6.8874 -6.2293 -0.6959 0.9634
7.3528 -5.5451 -0.6901 0.9637
-5.2758 7.1604 -0.6665 0.9650
6.7812 -6.7061 -0.7147 0.9625
7.0824 -5.8537 -0.6886 0.9638
7.7087 -5.2917 -0.7007 0.9632
7.0004 -7.5687 -0.9452 0.9594
-5.2755 7.1600 -0.8153 0.9649
6.8514 -6.7755 -0.8834 0.9620
7.7744 -5.3368 -0.8645 0.9628
7.0170 -6.3465 -1.0262 0.9626
7.4798 -5.6408 -1.0161 0.9630
8.4225 -5.2456 -1.0763 0.9609
-5.2752 7.1596 -0.9646 0.9649
6.9363 -6.8595 -1.0581 0.9615
7.8579 -5.3942 -1.0338 0.9624
7.1134 -6.4337 -1.2019 0.9621
7.0785 -7.0001 -1.2475 0.9607
7.9704 -5.4714 -1.2115 0.9618
7.6937 -5.8021 -1.3706 0.9618
-5.2746 7.1588 -1.2648 0.9647
7.2976 -7.2167 -1.4598 0.9594
7.8768 -5.9402 -1.5710 0.9608
7.8645 -6.5001 -1.7991 0.9594
2.4486 14.5162 -2.8488 0.9418
-1.4715 14.6276 -2.8450 0.9419
-2.7664 14.4321 -2.8437 0.9419
-4.0382 14.1224 -2.8425 0.9419
-5.2737 7.1576 -1.7205 0.9644
-11.4976 9.0796 -2.8351 0.9421
-12.2569 8.0181 -2.8344 0.9421
-12.9189 6.8937 -2.8337 0.9421
-13.4785 5.7154 -2.8331 0.9421
3.0935 14.3958 -2.8494 0.9418
-0.8187 14.6819 -2.8456 0.9418
-3.4058 14.2914 -2.8431 0.9419
-4.6623 13.9255 -2.8419 0.9419
-5.8807 13.4496 -2.8407 0.9419
-7.0516 12.8676 -2.8395 0.9420
-8.1657 12.1842 -2.8384 0.9420
-9.2144 11.4049 -2.8374 0.9420
-10.1895 10.5359 -2.8364 0.9420
-11.0833 9.5842 -2.8355 0.9420
-12.6003 7.4633 -2.8340 0.9421
-13.2118 6.3107 -2.8334 0.9421
-13.7186 5.1089 -2.8329 0.9421
-14.1022 -1.2601 -2.9849 0.9438
-13.6572 -3.7411 -2.9853 0.9438
-13.2716 -4.9424 -2.9856 0.9438
-12.7811 -6.1050 -2.9861 0.9437
-12.1893 -7.2197 -2.9867 0.9437
-11.5009 -8.2778 -2.9873 0.9437
-10.7212 -9.2709 -2.9881 0.9437
-7.8981 -11.7848 -2.9908 0.9437
-5.6876 -13.0078 -2.9930 0.9436
-4.5090 -13.4676 -2.9941 0.9436
-3.2937 -13.8209 -2.9953 0.9436
-2.0513 -14.0649 -2.9965 0.9436
-0.7916 -14.1975 -2.9978 0.9435
6.5699 -12.6494 -3.0050 0.9434
9.6883 -10.4749 -3.0081 0.9433
11.3985 -8.5960 -3.0098 0.9433
13.2727 -5.2824 -3.0116 0.9433
13.6921 -4.0807 -3.0120 0.9433
14.0025 -2.8461 -3.0124 0.9433
14.2012 -1.5886 -3.0126 0.9433
14.2867 -0.3183 -3.0127 0.9433
12.3618 5.5700 -2.8584 0.9461
11.8148 6.6470 -2.8579 0.9461
10.4442 8.6324 -2.8566 0.9461
8.7431 10.3415 -2.8549 0.9461
4.5779 12.7245 -2.8509 0.9462
3.4258 13.0762 -2.8498 0.9462
1.0522 13.4655 -2.8474 0.9463
-1.3508 13.4276 -2.8451 0.9463
-2.5395 13.2487 -2.8439 0.9463
-4.8445 12.5785 -2.8417 0.9464
-5.9425 12.0928 -2.8406 0.9464
-6.9927 11.5117 -2.8395 0.9464
-9.7761 9.2462 -2.8368 0.9465
-10.5574 8.3371 -2.8360 0.9465
-11.8629 6.3303 -2.8347 0.9465
-13.4781 4.3462 -2.9855 0.9438
-14.1442 0.6307 -2.9848 0.9438
-14.1441 -0.6307 -2.9848 0.9438
-13.8096 -3.1288 -2.9851 0.9438
-13.4778 -4.3460 -2.9854 0.9438
-13.0393 -5.5291 -2.9859 0.9437
-12.4976 -6.6689 -2.9864 0.9437
-11.1221 -8.7830 -2.9877 0.9437
-9.3939 -10.6218 -2.9894 0.9437
-8.4139 -11.4194 -2.9903 0.9437
-7.3666 -12.1270 -2.9914 0.9436
-5.1035 -13.2508 -2.9936 0.9436
-2.6753 -13.9567 -2.9959 0.9436
3.6089 -13.7751 -3.0021 0.9434
5.9988 -12.9271 -3.0044 0.9434
7.1282 -12.3464 -3.0055 0.9434
8.2017 -11.6671 -3.0066 0.9434
10.1469 -10.0344 -3.0085 0.9433
11.0028 -9.0940 -3.0094 0.9433
11.7715 -8.0807 -3.0101 0.9433
12.4468 -7.0024 -3.0108 0.9433
13.0232 -5.8679 -3.0114 0.9433
13.4959 -4.6863 -3.0118 0.9433
13.8611 -3.4669 -3.0122 0.9433
14.1159 -2.2196 -3.0125 0.9433
14.2867 0.3184 -3.0127 0.9433
14.2013 1.5887 -3.0126 0.9433
13.6925 4.0808 -3.0121 0.9433
12.5986 5.0142 -2.8587 0.9461
12.1003 6.1146 -2.8582 0.9461
10.8198 8.1596 -2.8570 0.9461
10.0480 9.0879 -2.8562 0.9461
8.2725 10.7190 -2.8545 0.9462
7.2831 11.4089 -2.8535 0.9462
6.2366 12.0075 -2.8525 0.9462
5.1411 12.5103 -2.8514 0.9462
4.0057 12.9132 -2.8503 0.9462
1.6514 13.4080 -2.8480 0.9463
0.4512 13.4962 -2.8469 0.9463
-0.7515 13.4772 -2.8457 0.9463
-1.9472 13.3513 -2.8445 0.9463
-5.3990 12.3478 -2.8411 0.9464
-6.4741 11.8138 -2.8401 0.9464
-8.4604 10.4715 -2.8381 0.9465
-10.1769 8.8003 -2.8364 0.9465
-10.9169 7.8576 -2.8357 0.9465
-11.5703 6.8532 -2.8350 0.9465
-12.1320 5.7950 -2.8345 0.9465
-13.6575 3.7412 -2.9853 0.9438
-13.9350 2.5105 -2.9851 0.9438
-13.0820 0.0000 -2.9859 0.9477
-13.0302 -1.1643 -2.9859 0.9477
-12.8755 -2.3196 -2.9861 0.9477
-12.6189 -3.4567 -2.9863 0.9477
-12.2626 -4.5666 -2.9866 0.9477
-11.8092 -5.6407 -2.9871 0.9477
-11.2622 -6.6706 -2.9876 0.9477
-9.9054 -8.5655 -2.9889 0.9477
-7.2967 -10.8873 -2.9914 0.9476
-5.2542 -12.0166 -2.9934 0.9476
-0.7312 -13.1140 -2.9978 0.9475
0.4391 -13.1321 -2.9990 0.9475
2.7626 -12.8559 -3.0013 0.9475
3.8973 -12.5636 -3.0024 0.9475
5.0019 -12.1713 -3.0035 0.9474
8.0478 -10.4278 -3.0065 0.9474
9.7747 -8.8407 -3.0082 0.9474
11.1926 -6.9708 -3.0096 0.9473
11.7708 -5.9480 -3.0101 0.9473
12.6426 -3.7679 -3.0110 0.9473
12.9291 -2.6279 -3.0113 0.9473
13.1914 -0.2939 -3.0116 0.9473
13.1651 0.8813 -3.0116 0.9473
12.7988 3.2012 -3.0112 0.9473
10.3178 7.0829 -2.8564 0.9499
8.8943 8.7958 -2.8551 0.9500
8.0738 9.5498 -2.8543 0.9500
7.1897 10.2274 -2.8534 0.9500
6.2488 10.8233 -2.8525 0.9500
5.2589 11.3327 -2.8515 0.9500
3.1640 12.0769 -2.8495 0.9501
-0.1389 12.4696 -2.8463 0.9501
-2.3458 12.2381 -2.8441 0.9502
-3.4245 11.9762 -2.8430 0.9502
-4.4752 11.6197 -2.8420 0.9502
-5.2731 7.1567 -2.0290 0.9642
-8.2382 9.3151 -2.8383 0.9503
-9.0321 8.5426 -2.8375 0.9503
-9.7542 7.7028 -2.8368 0.9503
-10.3987 6.8026 -2.8362 0.9503
-10.9607 5.8488 -2.8356 0.9503
-11.4359 4.8492 -2.8351 0.9503
-12.7601 2.8911 -2.9862 0.9477
-13.0691 0.5828 -2.9859 0.9477
-12.9657 -1.7437 -2.9860 0.9477
-11.5471 -6.1617 -2.9873 0.9477
-10.9550 -7.1664 -2.9879 0.9477
-9.5152 -8.9994 -2.9893 0.9477
-8.6788 -9.8132 -2.9901 0.9477
-6.8055 -11.2034 -2.9919 0.9476
-5.7833 -11.7685 -2.9929 0.9476
-3.6076 -12.6164 -2.9950 0.9476
-2.4712 -12.8922 -2.9961 0.9476
-1.3145 -13.0659 -2.9973 0.9475
-0.1464 -13.1360 -2.9984 0.9475
1.0238 -13.1019 -2.9996 0.9475
2.1867 -12.9637 -3.0007 0.9475
3.3331 -12.7224 -3.0018 0.9475
5.5401 -11.9385 -3.0040 0.9474
7.5741 -10.7742 -3.0060 0.9474
9.3699 -9.2661 -3.0078 0.9474
10.8698 -7.4616 -3.0093 0.9473
11.4931 -6.4659 -3.0099 0.9473
12.0251 -5.4182 -3.0104 0.9473
12.4615 -4.3270 -3.0108 0.9473
13.0338 -2.0494 -3.0114 0.9473
13.1650 -0.8812 -3.0116 0.9473
13.1126 1.4669 -3.0115 0.9473
12.9293 2.6280 -3.0114 0.9473
11.1730 5.6460 -2.8573 0.9499
10.6242 6.6169 -2.8567 0.9499
8.4925 9.1820 -2.8547 0.9500
7.6393 9.8986 -2.8539 0.9500
6.7259 10.5359 -2.8530 0.9500
5.7595 11.0891 -2.8520 0.9500
3.6995 11.9261 -2.8500 0.9501
0.4168 12.4658 -2.8468 0.9501
-2.8881 12.1191 -2.8436 0.9502
-7.8162 9.6743 -2.8387 0.9503
-8.6438 8.9377 -2.8379 0.9503
-9.4025 8.1307 -2.8372 0.9503
-10.0864 7.2598 -2.8365 0.9503
-10.6903 6.3319 -2.8359 0.9503
-11.2094 5.3543 -2.8354 0.9503
-12.2629 4.5668 -2.9867 0.9477
-12.6192 3.4568 -2.9864 0.9477
-12.8757 2.3197 -2.9861 0.9477
-12.1032 -1.0815 -2.9868 0.9512
-11.9594 -2.1546 -2.9870 0.9512
-9.8695 -7.1036 -2.9890 0.9511
-9.2000 -7.9555 -2.9896 0.9511
-7.6476 -9.4654 -2.9911 0.9511
-6.7767 -10.1114 -2.9920 0.9511
-5.8515 -10.6777 -2.9929 0.9511
-3.8681 -11.5535 -2.9948 0.9511
-2.8254 -11.8559 -2.9958 0.9510
-1.7596 -12.0646 -2.9968 0.9510
-0.6790 -12.1776 -2.9979 0.9510
0.4077 -12.1940 -2.9990 0.9510
1.4919 -12.1136 -3.0000 0.9510
3.6186 -11.6652 -3.0021 0.9509
5.6333 -10.8460 -3.0041 0.9509
6.5783 -10.3047 -3.0050 0.9509
7.4716 -9.6812 -3.0059 0.9509
9.0745 -8.2074 -3.0075 0.9509
10.3904 -6.4712 -3.0088 0.9508
10.9271 -5.5217 -3.0093 0.9508
12.0020 -2.4395 -3.0104 0.9508
12.1722 -1.3616 -3.0106 0.9508
12.2454 -0.2728 -3.0107 0.9508
12.2210 0.8181 -3.0107 0.9508
12.0993 1.9026 -3.0105 0.9508
10.1275 5.6977 -2.8562 0.9533
9.5784 6.5753 -2.8557 0.9533
8.9533 7.4001 -2.8551 0.9533
8.2572 8.1657 -2.8544 0.9533
7.4957 8.8659 -2.8537 0.9533
5.8016 10.0487 -2.8521 0.9533
4.8826 10.5219 -2.8512 0.9533
3.9255 10.9111 -2.8502 0.9534
-9.6584 6.3183 -2.8369 0.9536
-10.1806 5.4326 -2.8364 0.9536
-11.5673 3.7300 -2.9874 0.9512
-11.8522 2.6854 -2.9871 0.9512
-12.0434 1.6197 -2.9869 0.9512
-12.1393 -0.5413 -2.9868 0.9512
-12.0432 -1.6196 -2.9869 0.9512
-11.8520 -2.6853 -2.9871 0.9512
-11.1904 -4.7451 -2.9877 0.9512
-10.7253 -5.7232 -2.9881 0.9512
-8.8375 -8.3585 -2.9899 0.9511
-8.0606 -9.1142 -2.9907 0.9511
-7.2193 -9.7981 -2.9915 0.9511
-6.3204 -10.4048 -2.9924 0.9511
-5.3709 -10.9295 -2.9933 0.9511
-2.2949 -11.9721 -2.9963 0.9510
-1.2206 -12.1331 -2.9974 0.9510
0.9507 -12.1659 -2.9995 0.9510
2.0304 -12.0372 -3.0006 0.9510
3.0948 -11.8128 -3.0016 0.9509
5.1437 -11.0844 -3.0036 0.9509
6.1118 -10.5859 -3.0046 0.9509
10.6694 -6.0024 -3.0091 0.9508
11.1631 -5.0298 -3.0096 0.9508
12.2454 0.2729 -3.0107 0.9508
12.1723 1.3617 -3.0106 0.9508
10.3721 5.2413 -2.8565 0.9533
7.8842 8.5243 -2.8541 0.9533
7.0923 9.1898 -2.8533 0.9533
3.4350 11.0733 -2.8497 0.9534
2.4349 11.3312 -2.8488 0.9534
1.4162 11.4989 -2.8478 0.9534
0.3870 11.5753 -2.8468 0.9534
-0.6446 11.5596 -2.8458 0.9534
-1.6703 11.4523 -2.8448 0.9534
-2.6820 11.2543 -2.8438 0.9535
-3.6718 10.9672 -2.8428 0.9535
-5.5545 10.1358 -2.8409 0.9535
-6.4327 9.5983 -2.8401 0.9535
-8.0281 8.3010 -2.8385 0.9535
-9.3683 6.7429 -2.8372 0.9536
-10.4116 4.9733 -2.8361 0.9536
-11.7213 3.2109 -2.9872 0.9512
-11.9596 2.1547 -2.9870 0.9512
-11.3381 0.0000 -2.9876 0.9542
-11.2932 -1.0091 -2.9876 0.9542
-11.1590 -2.0104 -2.9877 0.9542
-10.9366 -2.9958 -2.9879 0.9542
-10.2344 -4.8885 -2.9886 0.9542
-9.7602 -5.7809 -2.9891 0.9542
-9.2085 -6.6279 -2.9896 0.9542
-5.4592 -9.9617 -2.9932 0.9541
-3.6086 -10.7783 -2.9950 0.9541
-1.6414 -11.2546 -2.9970 0.9540
0.3803 -11.3748 -2.9989 0.9540
3.3753 -10.8808 -3.0019 0.9540
4.3317 -10.5405 -3.0028 0.9540
5.2542 -10.1162 -3.0037 0.9539
7.7465 -8.3754 -3.0062 0.9539
8.4632 -7.6545 -3.0069 0.9539
10.1907 -5.1496 -3.0086 0.9539
10.9450 -3.2619 -3.0094 0.9539
11.3515 -1.2698 -3.0098 0.9538
11.4198 -0.2544 -3.0099 0.9538
11.2835 1.7743 -3.0097 0.9539
8.9330 6.1322 -2.8551 0.9562
8.3501 6.9016 -2.8545 0.9562
6.9909 8.2689 -2.8532 0.9562
4.5541 9.8139 -2.8508 0.9562
3.6615 10.1772 -2.8500 0.9562
2.7402 10.4594 -2.8491 0.9563
1.7978 10.6583 -2.8481 0.9563
0.8418 10.7725 -2.8472 0.9563
-0.1203 10.8011 -2.8463 0.9563
-1.0808 10.7440 -2.8453 0.9563
-2.0322 10.6017 -2.8444 0.9563
-2.9667 10.3754 -2.8435 0.9563
-3.8772 10.0670 -2.8426 0.9564
-4.7564 9.6790 -2.8417 0.9564
-5.1853 7.0376 -2.3034 0.9645
-7.1386 8.0718 -2.8394 0.9564
-9.0116 5.8952 -2.8375 0.9564
-10.7930 3.4803 -2.9881 0.9542
-11.0589 2.5057 -2.9879 0.9542
-11.2372 -1.5112 -2.9877 0.9542
-11.0587 -2.5056 -2.9878 0.9542
-10.7927 -3.4802 -2.9881 0.9542
-10.4413 -4.4274 -2.9884 0.9542
-10.0072 -5.3400 -2.9888 0.9542
-9.4938 -6.2105 -2.9893 0.9542
-8.2455 -7.7985 -2.9905 0.9541
-6.7355 -9.1414 -2.9920 0.9541
-5.0107 -10.1965 -2.9937 0.9541
-2.1408 -11.1685 -2.9965 0.9540
-1.1386 -11.3184 -2.9975 0.9540
-0.1268 -11.3786 -2.9984 0.9540
7.3648 -8.7111 -3.0058 0.9539
8.7968 -7.2707 -3.0072 0.9539
11.0799 -2.7713 -3.0095 0.9539
11.2834 -1.7742 -3.0097 0.9539
10.9452 3.2621 -3.0094 0.9539
9.6731 4.8881 -2.8558 0.9562
8.6502 6.5234 -2.8548 0.9562
6.6148 8.5711 -2.8528 0.9562
5.8241 9.1233 -2.8521 0.9562
4.9875 9.6028 -2.8513 0.9562
1.3210 10.7261 -2.8477 0.9563
0.3610 10.7975 -2.8467 0.9563
-0.6013 10.7833 -2.8458 0.9563
-1.5581 10.6834 -2.8449 0.9563
-2.5020 10.4989 -2.8439 0.9563
-4.3211 9.8828 -2.8421 0.9564
-6.0014 8.9548 -2.8405 0.9564
-6.7728 8.3829 -2.8397 0.9564
-7.4902 7.7448 -2.8390 0.9564
-9.2645 5.4874 -2.8373 0.9564
-10.6278 3.9579 -2.9883 0.9542
-10.9368 2.9959 -2.9880 0.9542
-11.1591 2.0105 -2.9878 0.9542
-10.6210 0.0000 -2.9883 0.9568
-10.2448 -2.8063 -2.9886 0.9568
-9.9553 -3.7074 -2.9889 0.9568
-9.5869 -4.5793 -2.9893 0.9568
-9.1426 -5.4151 -2.9897 0.9568
-7.3913 -7.6425 -2.9914 0.9568
-6.6832 -8.2719 -2.9921 0.9568
-5.9219 -8.8361 -2.9928 0.9568
-5.1133 -9.3306 -2.9936 0.9568
-3.3799 -10.0951 -2.9953 0.9567
-2.4687 -10.3589 -2.9962 0.9567
-1.5373 -10.5407 -2.9971 0.9567
-0.5932 -10.6389 -2.9980 0.9567
0.3562 -10.6529 -2.9989 0.9567
3.1609 -10.1896 -3.0017 0.9566
5.7454 -9.0001 -3.0042 0.9566
8.5330 -6.4349 -3.0070 0.9566
9.9345 -3.9538 -3.0084 0.9565
10.2480 -3.0542 -3.0087 0.9565
10.6286 -1.1890 -3.0091 0.9565
10.6925 -0.2382 -3.0091 0.9565
10.6712 0.7144 -3.0091 0.9565
10.3746 2.5949 -3.0089 0.9565
7.2110 7.1312 -2.8534 0.9587
5.8297 8.2929 -2.8521 0.9588
3.4288 9.5306 -2.8497 0.9588
2.5662 9.7950 -2.8489 0.9588
-1.0123 10.0624 -2.8454 0.9588
-1.9033 9.9293 -2.8445 0.9589
-3.6314 9.4288 -2.8428 0.9589
-5.2428 8.6308 -2.8412 0.9589
-5.1693 7.0158 -2.4519 0.9644
-7.3314 6.9340 -2.8392 0.9589
-8.4413 5.5221 -2.8381 0.9590
-10.6105 0.4732 -2.9883 0.9568
-10.5265 -1.4156 -2.9884 0.9568
-10.3593 -2.3471 -2.9885 0.9568
-9.7808 -4.1474 -2.9891 0.9568
-8.8930 -5.8175 -2.9899 0.9568
-8.3414 -6.5871 -2.9905 0.9568
-6.3089 -8.5625 -2.9924 0.9568
-5.5232 -9.0923 -2.9932 0.9568
-3.8256 -9.9330 -2.9948 0.9567
-2.0050 -10.4602 -2.9966 0.9567
-1.0664 -10.6004 -2.9975 0.9567
-0.1187 -10.6565 -2.9985 0.9567
0.8305 -10.6280 -2.9994 0.9567
3.6122 -10.0402 -3.0021 0.9566
4.4927 -9.6816 -3.0030 0.9566
5.3381 -9.2458 -3.0038 0.9566
7.5968 -7.5126 -3.0060 0.9566
9.7479 -4.3921 -3.0082 0.9565
10.1013 -3.5075 -3.0085 0.9565
10.3744 -2.5948 -3.0088 0.9565
10.5649 -1.6612 -3.0090 0.9565
10.6287 1.1890 -3.0091 0.9565
10.4802 2.1302 -3.0090 0.9565
8.0996 6.1083 -2.8543 0.9587
7.5223 6.8036 -2.8537 0.9587
6.1941 8.0259 -2.8524 0.9587
5.4538 8.5432 -2.8517 0.9588
4.6705 8.9923 -2.8509 0.9588
3.8505 9.3697 -2.8501 0.9588
2.1270 9.8981 -2.8485 0.9588
0.3381 10.1122 -2.8467 0.9588
-2.3433 9.8332 -2.8441 0.9589
-4.8537 8.8570 -2.8416 0.9589
-5.6213 8.3876 -2.8409 0.9589
-6.3439 7.8520 -2.8401 0.9589
-7.0160 7.2545 -2.8395 0.9589
-7.6322 6.5998 -2.8389 0.9589
-8.6782 5.1402 -2.8378 0.9590
-10.2450 2.8064 -2.9887 0.9568
-10.4534 1.8833 -2.9885 0.9568
-10.5790 0.9454 -2.9883 0.9568
-9.9837 0.0000 -2.9889 0.9592
-9.9441 -0.8886 -2.9889 0.9592
-9.8259 -1.7702 -2.9890 0.9592
-9.6300 -2.6379 -2.9892 0.9592
-9.3578 -3.4848 -2.9895 0.9592
-8.5937 -5.0901 -2.9902 0.9592
-8.1078 -5.8356 -2.9907 0.9591
-7.5576 -6.5353 -2.9912 0.9591
-6.9473 -7.1834 -2.9918 0.9591
-4.8060 -8.7698 -2.9939 0.9591
-4.0074 -9.1651 -2.9947 0.9591
-3.1766 -9.4879 -2.9955 0.9591
-2.3201 -9.7357 -2.9963 0.9591
2.1057 -9.7992 -3.0006 0.9590
4.6236 -8.9020 -3.0031 0.9590
5.3989 -8.4573 -3.0039 0.9590
7.4465 -6.7349 -3.0059 0.9589
8.0179 -6.0465 -3.0065 0.9589
8.9658 -4.5306 -3.0074 0.9589
9.3346 -3.7150 -3.0078 0.9589
9.6291 -2.8698 -3.0081 0.9589
9.9866 -1.1171 -3.0084 0.9589
10.0267 0.6712 -3.0085 0.9589
9.9268 1.5610 -3.0084 0.9589
9.7480 2.4382 -3.0082 0.9589
9.1595 4.1271 -3.0077 0.9589
8.4195 4.7367 -2.8921 0.9605
7.8595 5.3953 -2.8540 0.9610
6.7759 6.7008 -2.8530 0.9610
6.1513 7.2758 -2.8524 0.9610
4.7615 8.2473 -2.8510 0.9610
3.2221 8.9561 -2.8495 0.9610
1.5822 9.3802 -2.8479 0.9611
-0.1059 9.5067 -2.8463 0.9611
-0.9513 9.4567 -2.8454 0.9611
-2.6115 9.1330 -2.8438 0.9611
-3.4131 8.8619 -2.8430 0.9611
-4.9276 8.1121 -2.8415 0.9611
-6.2849 7.1065 -2.8402 0.9612
-6.8910 6.5175 -2.8396 0.9612
-7.4423 5.8772 -2.8391 0.9612
-9.1939 3.8986 -2.9897 0.9592
-9.5035 3.0645 -2.9894 0.9592
-9.8949 1.3308 -2.9890 0.9592
-9.9738 0.4448 -2.9889 0.9592
-9.7376 -2.2062 -2.9891 0.9592
-9.1937 -3.8984 -2.9896 0.9592
-8.3591 -5.4682 -2.9904 0.9592
-7.2597 -6.8661 -2.9915 0.9591
-3.5956 -9.3357 -2.9951 0.9591
-2.7512 -9.6213 -2.9959 0.9591
-1.8844 -9.8308 -2.9967 0.9591
4.2219 -9.0979 -3.0027 0.9590
5.0162 -8.6883 -3.0035 0.9590
8.2800 -5.6839 -3.0067 0.9589
8.7544 -4.9251 -3.0072 0.9589
9.9267 -1.5609 -3.0084 0.9589
10.0266 -0.6712 -3.0085 0.9589
10.0467 0.2239 -3.0085 0.9589
9.6293 2.8699 -3.0081 0.9589
9.3348 3.7152 -3.0079 0.9589
7.6107 5.7396 -2.8538 0.9610
4.3889 8.4501 -2.8507 0.9610
-2.2024 9.2416 -2.8442 0.9611
-3.0153 9.0063 -2.8434 0.9611
-3.8039 8.6998 -2.8426 0.9611
-4.5620 8.3246 -2.8419 0.9611
-5.2835 7.8835 -2.8412 0.9611
-7.1738 6.2035 -2.8393 0.9612
-9.0117 4.3046 -2.9899 0.9592
-9.3580 3.4850 -2.9896 0.9592
-9.4131 0.0000 -2.9895 0.9613
-9.3759 -0.8378 -2.9895 0.9613
-9.2644 -1.6690 -2.9896 0.9613
-9.0796 -2.4871 -2.9898 0.9613
-8.4963 -4.0583 -2.9903 0.9613
-7.1254 -6.1615 -2.9916 0.9612
-6.5499 -6.7725 -2.9922 0.9612
-4.5309 -8.2678 -2.9942 0.9612
-3.7780 -8.6404 -2.9949 0.9612
-2.9947 -8.9446 -2.9957 0.9612
0.3155 -9.4375 -2.9989 0.9611
1.9849 -9.2371 -3.0005 0.9611
2.8000 -9.0262 -3.0013 0.9611
4.3582 -8.3910 -3.0029 0.9611
5.0890 -7.9717 -3.0036 0.9611
5.7796 -7.4888 -3.0043 0.9611
8.4504 -4.2702 -3.0069 0.9610
8.7980 -3.5015 -3.0073 0.9610
9.2809 -1.8864 -3.0077 0.9610
9.4501 0.6327 -3.0079 0.9610
9.1875 2.2980 -3.0077 0.9610
7.4078 5.0852 -2.8536 0.9630
5.7980 6.8579 -2.8520 0.9630
5.1635 7.3452 -2.8514 0.9630
4.4882 7.7738 -2.8507 0.9630
2.2732 8.6768 -2.8486 0.9631
1.4915 8.8423 -2.8478 0.9631
0.6984 8.9375 -2.8471 0.9631
-0.0998 8.9617 -2.8463 0.9631
-1.6863 8.7972 -2.8447 0.9631
-3.2176 8.3544 -2.8432 0.9631
-3.9475 8.0329 -2.8425 0.9631
-4.6456 7.6478 -2.8418 0.9631
-5.9254 6.7000 -2.8405 0.9632
-8.3079 4.4332 -2.9906 0.9613
-8.6684 3.6758 -2.9902 0.9613
-9.1812 2.0802 -2.9897 0.9613
-9.3294 1.2547 -2.9896 0.9613
-8.6682 -3.6756 -2.9902 0.9613
-7.8812 -5.1556 -2.9909 0.9612
-7.3922 -5.8375 -2.9914 0.9612
-6.8445 -6.4734 -2.9919 0.9612
-6.2424 -7.0583 -2.9925 0.9612
-3.3897 -8.8012 -2.9953 0.9612
-2.5936 -9.0703 -2.9961 0.9612
1.5713 -9.3151 -3.0001 0.9611
2.3948 -9.1407 -3.0009 0.9611
5.4397 -7.7379 -3.0039 0.9611
6.1081 -7.2247 -3.0046 0.9611
6.7283 -6.6537 -3.0052 0.9611
7.2952 -6.0296 -3.0058 0.9611
8.2513 -4.6421 -3.0067 0.9610
8.6328 -3.8897 -3.0071 0.9610
8.9457 -3.1063 -3.0074 0.9610
9.3560 -1.4711 -3.0078 0.9610
9.4501 -0.6326 -3.0079 0.9610
9.4690 0.2111 -3.0080 0.9610
9.2810 1.8865 -3.0078 0.9610
9.0757 2.7049 -3.0076 0.9610
7.6352 4.7553 -2.8567 0.9630
7.1734 5.4097 -2.8534 0.9630
6.6623 6.0257 -2.8529 0.9630
4.1369 7.9650 -2.8504 0.9630
3.4107 8.2996 -2.8497 0.9630
1.0960 8.8987 -2.8474 0.9631
-1.2929 8.8648 -2.8451 0.9631
-2.0762 8.7122 -2.8443 0.9631
-2.8426 8.4906 -2.8436 0.9631
-3.5861 8.2018 -2.8428 0.9631
-5.5946 6.9246 -2.8272 0.9633
-6.7635 5.8487 -2.8397 0.9632
-7.2560 5.2226 -2.8392 0.9632
-8.0407 4.7626 -2.9679 0.9615
-8.4966 4.0585 -2.9904 0.9613
-9.2645 1.6691 -2.9896 0.9613
-8.8992 0.0000 -2.9900 0.9631
-8.8640 -0.7921 -2.9900 0.9631
-8.7586 -1.5779 -2.9901 0.9631
-8.3411 -3.1062 -2.9905 0.9631
-7.2267 -5.2014 -2.9916 0.9631
-6.1920 -6.4025 -2.9926 0.9631
-5.5987 -6.9295 -2.9931 0.9631
-4.9607 -7.4019 -2.9938 0.9631
-2.0676 -8.6759 -2.9966 0.9631
-0.4968 -8.9095 -2.9981 0.9630
1.0913 -8.8610 -2.9997 0.9630
1.8762 -8.7310 -3.0004 0.9630
2.6465 -8.5315 -3.0012 0.9630
4.8099 -7.5345 -3.0033 0.9630
5.4626 -7.0780 -3.0040 0.9630
6.0721 -6.5650 -3.0046 0.9630
6.6335 -5.9997 -3.0051 0.9630
7.1424 -5.3863 -3.0056 0.9630
7.5946 -4.7299 -3.0061 0.9629
7.9865 -4.0357 -3.0065 0.9629
8.5772 -2.5563 -3.0071 0.9629
8.9490 -0.1994 -3.0074 0.9629
8.9312 0.5979 -3.0074 0.9629
8.4546 2.9358 -3.0070 0.9629
7.0011 4.8061 -2.8532 0.9648
5.4799 6.4817 -2.8517 0.9648
1.4098 8.3578 -2.8477 0.9649
0.6601 8.4480 -2.8470 0.9649
-3.0416 7.8975 -2.8434 0.9649
-4.3916 7.2296 -2.8421 0.9649
-6.1419 5.8090 -2.8403 0.9650
-7.2892 4.7684 -2.9265 0.9639
-8.4710 2.7316 -2.9904 0.9631
-8.6799 1.9666 -2.9902 0.9631
-8.8201 1.1862 -2.9901 0.9631
-8.8904 -0.3964 -2.9900 0.9631
-8.1948 -3.4749 -2.9906 0.9631
-7.8539 -4.1909 -2.9910 0.9631
-6.4705 -6.1197 -2.9923 0.9631
-5.9012 -6.6726 -2.9928 0.9631
-3.9312 -7.9997 -2.9948 0.9631
-3.2043 -8.3198 -2.9955 0.9631
-2.4517 -8.5741 -2.9962 0.9631
-0.8931 -8.8774 -2.9977 0.9631
-0.0994 -8.9240 -2.9985 0.9630
0.6954 -8.8997 -2.9993 0.9630
1.4852 -8.8048 -3.0001 0.9630
2.2635 -8.6398 -3.0008 0.9630
3.7614 -8.1056 -3.0023 0.9630
4.4690 -7.7404 -3.0030 0.9630
5.7730 -6.8284 -3.0043 0.9630
6.8948 -5.6987 -3.0054 0.9630
7.3758 -5.0632 -3.0059 0.9630
8.8422 -1.3904 -3.0073 0.9629
8.9490 0.1995 -3.0074 0.9629
8.5774 2.5563 -3.0071 0.9629
7.9867 4.0359 -3.0065 0.9629
7.5769 4.7190 -2.9991 0.9630
6.7797 5.1128 -2.8530 0.9648
5.7637 6.2317 -2.8520 0.9648
5.1852 6.7187 -2.8514 0.9648
2.5121 8.0984 -2.8488 0.9649
1.0359 8.4113 -2.8474 0.9649
0.2831 8.4679 -2.8466 0.9649
-0.4716 8.4573 -2.8459 0.9649
-1.2221 8.3796 -2.8452 0.9649
-1.9626 8.2355 -2.8444 0.9649
-2.6871 8.0261 -2.8437 0.9649
-4.0657 7.4189 -2.8424 0.9649
-5.3144 6.5777 -2.8411 0.9649
-5.8776 6.0774 -2.8406 0.9650
-6.3940 5.5291 -2.8401 0.9650
-7.6601 4.5371 -2.9912 0.9631
-8.3413 3.1064 -2.9905 0.9631
-8.4336 0.0000 -2.9904 0.9648
-8.3003 -1.4953 -2.9905 0.9648
-8.1347 -2.2283 -2.9907 0.9648
-7.2589 -4.2994 -2.9915 0.9648
-6.8484 -4.9291 -2.9919 0.9648
-6.3834 -5.5199 -2.9924 0.9648
-5.3054 -6.5666 -2.9934 0.9648
-4.7008 -7.0141 -2.9940 0.9648
-3.3842 -7.7398 -2.9953 0.9648
-1.9592 -8.2209 -2.9967 0.9648
-0.4707 -8.4422 -2.9981 0.9648
0.2826 -8.4527 -2.9989 0.9647
1.0341 -8.3960 -2.9996 0.9647
1.7777 -8.2726 -3.0003 0.9647
5.1755 -6.7060 -3.0037 0.9647
5.7529 -6.2200 -3.0043 0.9647
6.2848 -5.6842 -3.0048 0.9647
6.7669 -5.1031 -3.0053 0.9647
7.1952 -4.4812 -3.0057 0.9647
7.5664 -3.8235 -3.0061 0.9647
8.4275 -0.9427 -3.0069 0.9647
8.4781 -0.1889 -3.0070 0.9646
8.3771 1.3172 -3.0069 0.9647
8.2262 2.0576 -3.0068 0.9647
8.0099 2.7813 -3.0065 0.9647
7.3884 4.1567 -3.0060 0.9647
6.2005 5.1249 -2.8524 0.9664
4.6238 6.5774 -2.8509 0.9665
4.0192 6.9615 -2.8503 0.9665
3.3829 7.2899 -2.8497 0.9665
0.6255 8.0046 -2.8470 0.9665
-0.8033 7.9848 -2.8456 0.9665
-1.5104 7.8796 -2.8449 0.9665
-2.8822 7.4835 -2.8435 0.9665
-4.1615 6.8509 -2.8423 0.9666
-4.7538 6.4519 -2.8417 0.9666
-5.8203 5.5048 -2.8406 0.9666
-6.2861 4.9641 -2.8402 0.9666
-7.0609 4.6190 -2.9918 0.9648
-7.4430 3.9718 -2.9914 0.9648
-7.7661 3.2932 -2.9911 0.9648
-8.0277 2.5886 -2.9908 0.9648
-8.4252 -0.3757 -2.9904 0.9648
-8.2256 -1.8636 -2.9906 0.9648
-8.0276 -2.5885 -2.9908 0.9648
-7.4428 -3.9716 -2.9914 0.9648
-6.6225 -5.2297 -2.9921 0.9648
-6.1317 -5.7993 -2.9926 0.9648
-5.0081 -6.7970 -2.9937 0.9648
-3.7252 -7.5805 -2.9950 0.9648
-3.0364 -7.8837 -2.9956 0.9648
-2.3232 -8.1246 -2.9963 0.9648
-1.5912 -8.3010 -2.9970 0.9648
-0.0942 -8.4558 -2.9985 0.9647
1.4072 -8.3426 -3.0000 0.9647
2.8655 -7.9647 -3.0014 0.9647
4.2342 -7.3338 -3.0028 0.9647
4.8711 -6.9292 -3.0034 0.9647
6.0248 -5.9581 -3.0045 0.9647
6.5323 -5.3991 -3.0050 0.9647
6.9880 -4.7970 -3.0055 0.9647
8.0097 -2.7813 -3.0065 0.9647
8.2261 -2.0575 -3.0067 0.9647
8.3770 -1.3172 -3.0069 0.9647
8.4782 0.1890 -3.0070 0.9646
8.1261 2.4219 -3.0067 0.9647
5.4608 5.9042 -2.8517 0.9664
4.9127 6.3655 -2.8512 0.9665
4.3257 6.7762 -2.8506 0.9665
3.0544 7.4326 -2.8493 0.9665
2.3802 7.6732 -2.8487 0.9665
0.2683 8.0236 -2.8466 0.9665
-0.4468 8.0136 -2.8459 0.9665
-1.1580 7.9401 -2.8452 0.9665
-4.4621 6.6580 -2.8420 0.9666
-5.5698 5.7591 -2.8409 0.9666
-7.2591 4.2996 -2.9916 0.9648
-7.6121 3.6360 -2.9913 0.9648
-7.9048 2.9438 -2.9910 0.9648
-7.7256 -2.1162 -2.9911 0.9664
-7.5071 -2.7956 -2.9913 0.9664
-6.5039 -4.6812 -2.9923 0.9664
-6.0623 -5.2422 -2.9927 0.9664
-4.4642 -6.6610 -2.9942 0.9663
-3.2137 -7.3500 -2.9955 0.9663
-2.5473 -7.6085 -2.9961 0.9663
-1.8605 -7.8068 -2.9968 0.9663
0.9819 -7.9726 -2.9996 0.9663
4.9142 -6.3674 -3.0034 0.9662
5.4624 -5.9058 -3.0040 0.9662
6.4250 -4.8453 -3.0049 0.9662
7.1841 -3.6303 -3.0057 0.9662
7.9537 1.2507 -3.0065 0.9662
7.0150 3.9467 -3.0056 0.9662
5.4300 5.3699 -2.8516 0.9679
3.8163 6.6100 -2.8501 0.9679
3.2121 6.9220 -2.8495 0.9679
1.9331 7.3787 -2.8482 0.9680
0.5939 7.6010 -2.8469 0.9680
-2.7370 7.1066 -2.8437 0.9680
-3.3580 6.8333 -2.8431 0.9680
-5.5274 5.2278 -2.8409 0.9680
-6.7057 4.3867 -2.9922 0.9664
-7.0687 3.7720 -2.9918 0.9664
-7.8121 1.7700 -2.9911 0.9664
-8.0016 -0.3568 -2.9908 0.9664
-7.3754 -3.1274 -2.9914 0.9664
-7.0685 -3.7718 -2.9917 0.9664
-6.2893 -4.9666 -2.9925 0.9664
-5.8232 -5.5075 -2.9929 0.9664
-5.3107 -6.0049 -2.9934 0.9664
-4.7560 -6.4549 -2.9940 0.9663
-4.1634 -6.8539 -2.9945 0.9663
-0.8036 -7.9879 -2.9978 0.9663
-0.0895 -8.0295 -2.9985 0.9663
0.6257 -8.0075 -2.9992 0.9663
1.3363 -7.9219 -2.9999 0.9663
2.0365 -7.7733 -3.0006 0.9663
3.3840 -7.2922 -3.0019 0.9663
4.0204 -6.9636 -3.0025 0.9663
5.7205 -5.6571 -3.0042 0.9662
6.2023 -5.1263 -3.0047 0.9662
7.3391 -3.3068 -3.0058 0.9662
7.6049 -2.6407 -3.0061 0.9662
8.0016 0.8952 -3.0065 0.9662
7.7154 2.2995 -3.0063 0.9662
7.4796 2.9768 -3.0060 0.9662
7.1843 3.6304 -3.0057 0.9662
6.8319 4.2550 -3.0054 0.9662
6.2771 4.7338 -2.9358 0.9670
5.6643 5.1231 -2.8519 0.9679
5.1850 5.6060 -2.8514 0.9679
4.6646 6.0441 -2.8509 0.9679
3.5177 6.7728 -2.8498 0.9679
2.9003 7.0575 -2.8492 0.9679
2.2601 7.2860 -2.8486 0.9680
1.6023 7.4566 -2.8479 0.9680
0.2547 7.6190 -2.8466 0.9680
-5.2895 5.4693 -2.8412 0.9680
-6.5040 4.6814 -2.9924 0.9664
-6.8940 4.0834 -2.9920 0.9664
-7.5072 2.7958 -2.9914 0.9664
-7.8830 1.4202 -2.9910 0.9664
-7.9778 0.7129 -2.9909 0.9664
-7.6215 0.0000 -2.9912 0.9678
-7.5913 -0.6783 -2.9912 0.9678
-7.3513 -2.0137 -2.9915 0.9678
-7.1434 -2.6602 -2.9917 0.9678
-6.5597 -3.8853 -2.9922 0.9678
-6.1886 -4.4543 -2.9926 0.9678
-5.7684 -4.9881 -2.9930 0.9678
-4.7941 -5.9337 -2.9939 0.9678
-4.2477 -6.3380 -2.9945 0.9677
-3.6674 -6.6922 -2.9950 0.9677
-3.0578 -6.9934 -2.9956 0.9677
-1.7702 -7.4279 -2.9969 0.9677
0.2553 -7.6367 -2.9989 0.9677
0.9342 -7.5853 -2.9995 0.9677
4.1167 -6.4486 -3.0026 0.9677
4.6751 -6.0577 -3.0032 0.9677
5.6770 -5.1345 -3.0042 0.9676
6.1124 -4.6095 -3.0046 0.9676
6.4992 -4.0477 -3.0050 0.9676
6.8344 -3.4536 -3.0053 0.9676
7.3397 -2.1874 -3.0058 0.9676
7.5057 -1.5256 -3.0060 0.9676
7.6120 -0.8515 -3.0061 0.9676
7.6425 0.5116 -3.0062 0.9676
7.5664 1.1898 -3.0061 0.9676
6.9820 3.1460 -3.0055 0.9676
6.3122 4.3332 -3.0049 0.9676
5.7327 4.7383 -2.9190 0.9685
5.1658 5.1086 -2.8514 0.9693
4.6899 5.5472 -2.8509 0.9693
4.1768 5.9416 -2.8504 0.9693
3.6307 6.2886 -2.8499 0.9693
1.2068 7.1544 -2.8475 0.9693
-1.3647 7.1194 -2.8450 0.9693
-1.9925 6.9681 -2.8444 0.9693
-3.1951 6.5018 -2.8432 0.9693
-4.7966 5.4236 -2.8416 0.9694
-7.0182 2.9760 -2.9918 0.9678
-7.4336 1.6843 -2.9914 0.9678
-7.5537 1.0159 -2.9913 0.9678
-7.6140 0.3396 -2.9912 0.9678
-7.0181 -2.9759 -2.9918 0.9678
-6.7260 -3.5890 -2.9921 0.9678
-5.9845 -4.7258 -2.9928 0.9678
-5.0533 -5.7138 -2.9937 0.9678
-0.0851 -7.6396 -2.9985 0.9677
1.9376 -7.3955 -3.0005 0.9677
2.5887 -7.1953 -3.0011 0.9677
3.8249 -6.6250 -3.0024 0.9677
4.4003 -6.2594 -3.0029 0.9677
4.9408 -5.8440 -3.0035 0.9677
5.9005 -4.8769 -3.0044 0.9676
6.3120 -4.3330 -3.0048 0.9676
6.6735 -3.7544 -3.0052 0.9676
6.9819 -3.1458 -3.0055 0.9676
7.2347 -2.5121 -3.0057 0.9676
7.4301 -1.8584 -3.0059 0.9676
7.6120 0.8516 -3.0061 0.9676
7.5058 1.5256 -3.0060 0.9676
7.3398 2.1875 -3.0059 0.9676
7.1155 2.8319 -3.0057 0.9676
6.8346 3.4537 -3.0054 0.9676
6.4994 4.0479 -3.0051 0.9676
5.3887 4.8738 -2.8516 0.9693
4.9327 5.3333 -2.8512 0.9693
3.3466 6.4435 -2.8496 0.9693
2.7593 6.7144 -2.8490 0.9693
0.8868 7.2002 -2.8472 0.9693
-0.4037 7.2402 -2.8460 0.9693
-1.0463 7.1739 -2.8453 0.9693
-1.6803 7.0508 -2.8447 0.9693
-2.3007 6.8718 -2.8441 0.9693
-2.9025 6.6384 -2.8435 0.9693
-4.5506 5.6324 -2.8419 0.9694
-5.0330 5.2042 -2.8414 0.9694
-6.1888 4.4545 -2.9927 0.9678
-7.5011 1.3514 -2.9914 0.9678
-7.5914 0.6784 -2.9913 0.9678
-7.2362 -0.6466 -2.9916 0.9691
-7.1501 -1.2881 -2.9917 0.9691
-7.0074 -1.9195 -2.9918 0.9691
-6.5569 -3.1319 -2.9922 0.9691
-6.2528 -3.7035 -2.9925 0.9691
-5.8990 -4.2458 -2.9929 0.9690
-5.4984 -4.7546 -2.9933 0.9690
-4.0488 -6.0412 -2.9947 0.9690
-3.4956 -6.3787 -2.9952 0.9690
-2.3102 -6.9001 -2.9964 0.9690
-1.0506 -7.2033 -2.9976 0.9690
0.2433 -7.2786 -2.9988 0.9690
0.8904 -7.2295 -2.9995 0.9690
1.5307 -7.1230 -3.0001 0.9690
2.1590 -6.9600 -3.0007 0.9690
2.7705 -6.7416 -3.0013 0.9690
3.3602 -6.4695 -3.0019 0.9690
4.4556 -5.7732 -3.0030 0.9689
5.4103 -4.8933 -3.0039 0.9689
5.8252 -4.3929 -3.0043 0.9689
6.5133 -3.2912 -3.0050 0.9689
6.7810 -2.6988 -3.0053 0.9689
6.9948 -2.0846 -3.0055 0.9689
7.1529 -1.4539 -3.0057 0.9689
7.2542 -0.8115 -3.0058 0.9689
7.2978 -0.1626 -3.0058 0.9689
7.2832 0.4876 -3.0058 0.9689
7.2108 1.1339 -3.0058 0.9689
6.3600 3.5781 -3.0049 0.9689
5.6235 4.6480 -3.0042 0.9689
4.9232 4.8687 -2.8511 0.9705
3.9807 5.6626 -2.8502 0.9705
1.7529 6.6907 -2.8481 0.9705
1.1502 6.8187 -2.8475 0.9705
-0.6917 6.8760 -2.8457 0.9705
-1.8991 6.6416 -2.8445 0.9706
-3.0454 6.1972 -2.8434 0.9706
-4.5720 5.1697 -2.8419 0.9706
-5.0487 4.7750 -2.8615 0.9704
-6.9152 2.2299 -2.9919 0.9691
-7.0858 1.6055 -2.9918 0.9691
-7.2003 0.9684 -2.9916 0.9691
-7.2578 0.3237 -2.9916 0.9691
-7.2577 -0.3236 -2.9916 0.9691
-6.0819 -3.9786 -2.9927 0.9691
-5.7044 -4.5047 -2.9931 0.9690
-5.2815 -4.9952 -2.9935 0.9690
-4.3135 -5.8543 -2.9944 0.9690
-3.2083 -6.5287 -2.9955 0.9690
-0.7287 -7.2437 -2.9979 0.9690
-0.0811 -7.2814 -2.9985 0.9690
1.2117 -7.1834 -2.9998 0.9690
1.8466 -7.0485 -3.0004 0.9690
4.7087 -5.5695 -3.0032 0.9689
5.1866 -5.1291 -3.0037 0.9689
5.6233 -4.6477 -3.0041 0.9689
6.0155 -4.1293 -3.0045 0.9689
6.8947 -2.3941 -3.0054 0.9689
7.2107 -1.1338 -3.0057 0.9689
7.2832 -0.4875 -3.0058 0.9689
7.1530 1.4539 -3.0057 0.9689
6.9948 2.0847 -3.0055 0.9689
6.7811 2.6988 -3.0053 0.9689
6.1940 3.8577 -3.0048 0.9689
5.2419 4.7411 -2.9104 0.9699
4.7010 5.0827 -2.8509 0.9705
4.2293 5.4801 -2.8505 0.9705
3.1895 6.1410 -2.8495 0.9705
0.2310 6.9090 -2.8466 0.9705
-2.1929 6.5497 -2.8442 0.9706
-2.7666 6.3273 -2.8436 0.9706
-3.3181 6.0548 -2.8431 0.9706
-4.3375 5.3687 -2.8421 0.9706
-4.7974 4.9605 -2.8416 0.9706
-5.8992 4.2460 -2.9929 0.9690
-6.8092 2.5358 -2.9920 0.9691
-6.9085 -0.6173 -2.9919 0.9702
-6.8263 -1.2298 -2.9920 0.9702
-6.5008 -2.4209 -2.9923 0.9702
-6.2600 -2.9901 -2.9925 0.9702
-5.9696 -3.5357 -2.9928 0.9702
-5.6318 -4.0535 -2.9931 0.9702
-5.2493 -4.5392 -2.9935 0.9702
-4.8251 -4.9891 -2.9939 0.9702
-4.3625 -5.3995 -2.9944 0.9702
-2.7824 -6.3635 -2.9959 0.9702
-2.2054 -6.5872 -2.9965 0.9702
0.2323 -6.9482 -2.9988 0.9702
0.8500 -6.9013 -2.9994 0.9702
2.0610 -6.6439 -3.0006 0.9702
3.7451 -5.8666 -3.0023 0.9701
4.7275 -5.1112 -3.0033 0.9701
5.1644 -4.6709 -3.0037 0.9701
5.9122 -3.6821 -3.0044 0.9701
6.2171 -3.1416 -3.0047 0.9701
6.9242 -0.7746 -3.0055 0.9701
6.8828 1.0823 -3.0054 0.9701
6.5812 2.2853 -3.0051 0.9701
5.7421 3.9418 -3.0043 0.9701
4.2665 5.0464 -2.8505 0.9716
3.7998 5.4053 -2.8501 0.9716
2.7802 5.9912 -2.8491 0.9716
1.6733 6.3868 -2.8480 0.9716
-0.6603 6.5640 -2.8457 0.9717
-1.8130 6.3404 -2.8446 0.9717
-2.3696 6.1527 -2.8440 0.9717
-2.9073 5.9162 -2.8435 0.9717
-3.4217 5.6330 -2.8430 0.9717
-3.9089 5.3051 -2.8425 0.9717
-4.3648 4.9354 -2.8421 0.9717
-6.1210 3.2663 -2.9927 0.9702
-6.3868 2.7083 -2.9925 0.9702
-6.6020 2.1289 -2.9922 0.9702
-6.9291 0.3090 -2.9919 0.9702
-6.9291 -0.3089 -2.9919 0.9702
-6.8742 -0.9244 -2.9919 0.9702
-6.7649 -1.5327 -2.9920 0.9702
-6.6020 -2.1288 -2.9922 0.9702
-6.3867 -2.7082 -2.9924 0.9702
-6.1208 -3.2661 -2.9927 0.9702
-5.8064 -3.7984 -2.9930 0.9702
-5.4459 -4.3006 -2.9933 0.9702
-5.0422 -4.7688 -2.9937 0.9702
-4.1180 -5.5890 -2.9946 0.9702
-1.9100 -6.6795 -2.9967 0.9702
-0.6957 -6.9150 -2.9979 0.9702
1.7628 -6.7284 -3.0003 0.9702
2.3551 -6.5461 -3.0009 0.9701
2.9290 -6.3117 -3.0015 0.9701
3.4797 -6.0271 -3.0020 0.9701
4.0031 -5.6944 -3.0025 0.9701
4.4947 -5.3164 -3.0030 0.9701
4.9508 -4.8959 -3.0035 0.9701
5.3677 -4.4365 -3.0039 0.9701
5.7420 -3.9416 -3.0043 0.9701
6.0707 -3.4153 -3.0046 0.9701
6.3511 -2.8617 -3.0049 0.9701
6.7588 -1.6905 -3.0053 0.9701
6.9519 -0.4654 -3.0055 0.9701
6.9658 0.1553 -3.0055 0.9701
6.9243 0.7746 -3.0055 0.9701
6.8276 1.3878 -3.0054 0.9701
6.6767 1.9899 -3.0052 0.9701
6.2172 3.1417 -3.0048 0.9701
5.9123 3.6823 -3.0045 0.9701
5.5605 4.1934 -3.0042 0.9701
5.1645 4.6711 -3.0038 0.9701
3.0446 5.8620 -2.8493 0.9716
2.5103 6.1086 -2.8488 0.9716
1.9563 6.3065 -2.8483 0.9716
1.3870 6.4544 -2.8477 0.9717
-0.9520 6.5274 -2.8454 0.9717
-2.0934 6.2527 -2.8443 0.9717
-4.6165 4.7734 -2.8645 0.9715
-5.2494 4.5394 -2.9936 0.9702
-5.6319 4.0537 -2.9932 0.9702
-5.9697 3.5359 -2.9929 0.9702
-6.2601 2.9902 -2.9926 0.9702
-6.5009 2.4210 -2.9923 0.9702
-6.5265 -1.1758 -2.9923 0.9713
-6.2152 -2.3146 -2.9926 0.9713
-4.6131 -4.7698 -2.9941 0.9713
-3.1904 -5.8218 -2.9955 0.9713
-2.6601 -6.0837 -2.9960 0.9713
-1.5398 -6.4613 -2.9971 0.9713
1.9702 -6.3513 -3.0005 0.9712
3.0662 -5.9035 -3.0016 0.9712
3.5801 -5.6081 -3.0021 0.9712
4.9367 -4.4650 -3.0035 0.9712
6.1871 -2.4624 -3.0047 0.9712
6.3822 -1.9021 -3.0049 0.9712
6.5264 -1.3265 -3.0051 0.9712
6.5792 1.0346 -3.0051 0.9712
5.8031 3.2648 -3.0044 0.9712
4.7327 4.6803 -3.0034 0.9712
0.4915 6.2901 -2.8468 0.9727
-0.0703 6.3076 -2.8463 0.9727
-1.1871 6.1929 -2.8452 0.9727
-2.2654 5.8821 -2.8441 0.9727
-3.7370 5.0720 -2.8427 0.9727
-4.2192 4.7707 -2.8737 0.9724
-5.2068 4.1118 -2.9936 0.9713
-5.5515 3.6316 -2.9933 0.9713
-5.8521 3.1228 -2.9930 0.9713
-6.1063 2.5893 -2.9927 0.9713
-6.4678 1.4654 -2.9924 0.9713
-6.5724 0.8839 -2.9923 0.9713
-4.3963 -4.9710 -2.9943 0.9713
-3.9370 -5.3433 -2.9948 0.9713
-3.4463 -5.6734 -2.9953 0.9713
-2.3866 -6.1967 -2.9963 0.9713
0.5178 -6.6265 -2.9991 0.9713
1.1058 -6.5554 -2.9997 0.9712
2.2514 -6.2578 -3.0008 0.9712
2.7999 -6.0337 -3.0014 0.9712
3.3264 -5.7615 -3.0019 0.9712
4.2966 -5.0821 -3.0028 0.9712
4.7326 -4.6802 -3.0033 0.9712
5.1310 -4.2409 -3.0037 0.9712
5.4888 -3.7678 -3.0040 0.9712
5.8030 -3.2647 -3.0043 0.9712
6.4607 -1.6159 -3.0050 0.9712
6.5792 -1.0345 -3.0051 0.9712
6.5265 1.3266 -3.0051 0.9712
6.3822 1.9021 -3.0049 0.9712
4.9369 4.4651 -3.0036 0.9712
3.8592 5.0005 -2.8501 0.9727
2.3998 5.8395 -2.8487 0.9727
1.8702 6.0288 -2.8482 0.9727
1.3259 6.1702 -2.8476 0.9727
0.7713 6.2625 -2.8471 0.9727
-1.4616 6.1333 -2.8449 0.9727
-2.0013 5.9777 -2.8444 0.9727
-3.0284 5.5262 -2.8434 0.9727
-3.5077 5.2338 -2.8429 0.9727
-3.9590 4.9001 -2.8425 0.9727
-4.5953 4.7515 -2.9826 0.9714
-5.3845 3.8755 -2.9934 0.9713
-5.7074 3.3805 -2.9931 0.9713
-6.2153 2.3146 -2.9926 0.9713
-6.6051 0.5903 -2.9922 0.9713
-6.3484 0.0000 -2.9925 0.9723
-6.3232 -0.5650 -2.9925 0.9723
-6.2480 -1.1256 -2.9926 0.9723
-6.1232 -1.6773 -2.9927 0.9723
-5.7295 -2.7367 -2.9930 0.9723
-5.4637 -3.2361 -2.9933 0.9723
-5.1545 -3.7099 -2.9936 0.9723
-4.4161 -4.5661 -2.9943 0.9723
-3.9927 -4.9417 -2.9947 0.9723
-2.5464 -5.8237 -2.9961 0.9723
-1.4740 -6.1851 -2.9972 0.9723
-0.3541 -6.3508 -2.9983 0.9723
1.3371 -6.2221 -2.9999 0.9722
2.4199 -5.8886 -3.0010 0.9722
3.4268 -5.3679 -3.0020 0.9722
4.3256 -4.6767 -3.0029 0.9722
4.7253 -4.2737 -3.0033 0.9722
5.0875 -3.8366 -3.0036 0.9722
5.6883 -2.8744 -3.0042 0.9722
5.9220 -2.3569 -3.0045 0.9722
6.1087 -1.8205 -3.0046 0.9722
6.3732 -0.1420 -3.0049 0.9722
6.3605 0.4258 -3.0049 0.9722
6.2973 0.9902 -3.0049 0.9722
6.1839 1.5468 -3.0047 0.9722
6.0214 2.0909 -3.0046 0.9722
5.8110 2.6184 -3.0044 0.9722
5.2538 3.6066 -3.0039 0.9722
4.9114 4.0594 -3.0035 0.9722
4.0083 4.7411 -2.9265 0.9729
0.4705 6.0210 -2.8468 0.9736
-1.1363 5.9281 -2.8452 0.9737
-1.6591 5.8024 -2.8447 0.9737
-2.1686 5.6307 -2.8442 0.9737
-6.0426 1.9485 -2.9928 0.9723
-6.1918 1.4029 -2.9926 0.9723
-6.3421 0.2829 -2.9925 0.9723
-6.3421 -0.2828 -2.9925 0.9723
-5.6021 -2.9893 -2.9932 0.9723
-4.2085 -4.7587 -2.9945 0.9723
-0.6366 -6.3281 -2.9980 0.9723
-0.0709 -6.3608 -2.9986 0.9723
1.0585 -6.2749 -2.9997 0.9723
1.6131 -6.1569 -3.0002 0.9722
2.6801 -5.7754 -3.0012 0.9722
3.1840 -5.5148 -3.0017 0.9722
3.6628 -5.2104 -3.0022 0.9722
4.1126 -4.8644 -3.0027 0.9722
6.0213 -2.0908 -3.0046 0.9722
6.2972 -0.9902 -3.0048 0.9722
6.3605 -0.4257 -3.0049 0.9722
6.3732 0.1421 -3.0049 0.9722
6.3352 0.7087 -3.0049 0.9722
6.2468 1.2697 -3.0048 0.9722
6.1087 1.8206 -3.0047 0.9722
5.9221 2.3570 -3.0045 0.9722
5.6884 2.8745 -3.0043 0.9722
5.4095 3.3691 -3.0040 0.9722
5.0876 3.8368 -3.0037 0.9722
4.7254 4.2739 -3.0033 0.9722
3.6940 4.7863 -2.8499 0.9736
1.7901 5.7708 -2.8481 0.9736
1.2692 5.9062 -2.8476 0.9736
0.7383 5.9946 -2.8471 0.9736
0.2018 6.0354 -2.8465 0.9736
-1.3991 5.8711 -2.8450 0.9737
-1.9158 5.7222 -2.8445 0.9737
-3.3578 5.0103 -2.8430 0.9737
-3.8515 4.7671 -2.8888 0.9733
-4.8045 4.1546 -2.9940 0.9723
-5.1546 3.7101 -2.9937 0.9723
-6.1233 1.6774 -2.9927 0.9723
-6.2480 1.1256 -2.9926 0.9723
-6.3232 0.5651 -2.9925 0.9723
-6.0605 -0.5415 -2.9927 0.9732
-5.7027 -2.1237 -2.9931 0.9732
-4.9402 -3.5557 -2.9938 0.9732
-4.6046 -3.9817 -2.9941 0.9732
-3.8266 -4.7362 -2.9949 0.9732
-2.9271 -5.3412 -2.9958 0.9732
-0.3394 -6.0864 -2.9983 0.9732
0.2037 -6.0935 -2.9988 0.9732
0.7454 -6.0523 -2.9994 0.9732
1.8073 -5.8262 -3.0004 0.9732
2.3191 -5.6432 -3.0009 0.9732
2.8126 -5.4153 -3.0014 0.9732
3.7294 -4.8322 -3.0023 0.9732
4.1452 -4.4817 -3.0027 0.9732
4.5282 -4.0955 -3.0031 0.9732
4.8753 -3.6766 -3.0034 0.9731
5.1838 -3.2285 -3.0037 0.9731
5.4510 -2.7545 -3.0040 0.9731
5.6750 -2.2586 -3.0042 0.9731
6.1073 -0.1361 -3.0047 0.9731
6.0952 0.4081 -3.0047 0.9731
6.0346 0.9489 -3.0046 0.9731
5.7702 2.0037 -3.0043 0.9731
5.5686 2.5091 -3.0042 0.9731
4.3412 4.2931 -3.0030 0.9732
3.3449 4.7582 -2.8607 0.9744
2.8964 5.0166 -2.8492 0.9745
2.4380 5.2537 -2.8487 0.9745
1.9604 5.4490 -2.8483 0.9745
1.4674 5.6009 -2.8478 0.9745
0.9629 5.7083 -2.8473 0.9745
-0.0645 5.7865 -2.8463 0.9745
-1.0890 5.6814 -2.8453 0.9745
-2.5500 5.1892 -2.8438 0.9746
-3.5089 4.7624 -2.9095 0.9740
-4.0337 4.5610 -2.9948 0.9732
-4.4230 4.1833 -2.9944 0.9732
-4.7773 3.7726 -2.9940 0.9732
-5.0936 3.3321 -2.9937 0.9732
-5.6027 2.3758 -2.9932 0.9732
-5.7915 1.8676 -2.9930 0.9732
-6.0304 0.8111 -2.9928 0.9732
-6.0786 0.2711 -2.9927 0.9732
-6.0785 -0.2710 -2.9927 0.9732
-5.9344 -1.3445 -2.9929 0.9732
-5.6026 -2.3757 -2.9932 0.9732
-5.3693 -2.8651 -2.9934 0.9732
-4.4229 -4.1831 -2.9943 0.9732
-4.0336 -4.5608 -2.9947 0.9732
-3.6121 -4.9023 -2.9951 0.9732
-2.1896 -5.6851 -2.9965 0.9732
-1.6752 -5.8584 -2.9970 0.9732
-1.1473 -5.9853 -2.9975 0.9732
-0.0679 -6.0960 -2.9986 0.9732
0.4750 -6.0789 -2.9991 0.9732
1.0144 -6.0136 -2.9996 0.9732
3.0513 -5.2850 -3.0016 0.9732
4.7065 -3.8899 -3.0033 0.9731
5.0346 -3.4560 -3.0036 0.9731
5.3227 -2.9945 -3.0039 0.9731
5.7702 -2.0036 -3.0043 0.9731
5.9259 -1.4821 -3.0045 0.9731
6.0345 -0.9488 -3.0046 0.9731
5.6751 2.2587 -3.0043 0.9731
5.1839 3.2286 -3.0038 0.9731
3.1172 4.8830 -2.8494 0.9745
2.6698 5.1403 -2.8489 0.9745
-0.3221 5.7774 -2.8460 0.9745
-0.8349 5.7247 -2.8455 0.9745
-1.8361 5.4841 -2.8445 0.9745
-2.3165 5.2981 -2.8441 0.9746
-2.7784 5.0701 -2.8436 0.9746
-3.8268 4.7365 -2.9950 0.9732
-4.6047 3.9819 -2.9942 0.9732
-5.8688 1.6077 -2.9930 0.9732
-6.0605 0.5416 -2.9928 0.9732
-5.6309 -1.5425 -2.9932 0.9741
-5.4716 -2.0376 -2.9933 0.9741
-5.0243 -2.9759 -2.9937 0.9741
-4.7399 -3.4116 -2.9940 0.9741
-4.0608 -4.1988 -2.9947 0.9741
-3.6715 -4.5442 -2.9950 0.9741
-2.8084 -5.1246 -2.9959 0.9741
-1.3553 -5.6872 -2.9973 0.9741
-0.3256 -5.8393 -2.9983 0.9741
1.7339 -5.5896 -3.0003 0.9740
2.2249 -5.4139 -3.0008 0.9740
3.1505 -4.9352 -3.0017 0.9740
3.5778 -4.6358 -3.0021 0.9740
3.9767 -4.2995 -3.0025 0.9740
4.6771 -3.5271 -3.0032 0.9740
4.9730 -3.0972 -3.0035 0.9740
5.2293 -2.6425 -3.0038 0.9740
5.7427 -1.1672 -3.0043 0.9740
5.8472 0.3915 -3.0044 0.9740
5.6849 1.4219 -3.0043 0.9740
4.8299 3.3156 -3.0034 0.9740
4.1647 4.1186 -3.0028 0.9740
3.7811 4.4723 -3.0024 0.9740
3.3287 4.7351 -2.9673 0.9743
2.3389 5.0402 -2.8486 0.9753
1.8807 5.2276 -2.8482 0.9753
1.4077 5.3734 -2.8477 0.9753
0.9237 5.4764 -2.8472 0.9753
0.4326 5.5359 -2.8468 0.9753
-0.0618 5.5515 -2.8463 0.9754
-0.5556 5.5231 -2.8458 0.9754
-1.0448 5.4508 -2.8453 0.9754
-3.4657 4.7037 -2.9953 0.9741
-3.8701 4.3760 -2.9949 0.9741
-4.2437 4.0137 -2.9946 0.9741
-4.8871 3.1970 -2.9939 0.9741
-5.3756 2.2795 -2.9934 0.9741
-5.5568 1.7919 -2.9933 0.9741
-5.6940 1.2901 -2.9931 0.9741
-5.7860 0.7782 -2.9930 0.9741
-5.8322 0.2601 -2.9930 0.9741
-5.7860 -0.7781 -2.9930 0.9741
-5.1517 -2.7490 -2.9936 0.9741
-4.8870 -3.1969 -2.9939 0.9741
-3.8700 -4.3759 -2.9949 0.9741
-3.4656 -4.7035 -2.9952 0.9741
-3.0336 -4.9940 -2.9957 0.9741
-2.5775 -5.2450 -2.9961 0.9741
-0.0652 -5.8485 -2.9986 0.9741
0.4557 -5.8321 -2.9991 0.9740
1.4831 -5.6608 -3.0001 0.9740
1.9813 -5.5072 -3.0006 0.9740
2.9273 -5.0702 -3.0015 0.9740
5.1062 -2.8727 -3.0037 0.9740
5.3421 -2.4070 -3.0039 0.9740
5.6849 -1.4219 -3.0042 0.9740
5.7891 -0.9102 -3.0043 0.9740
5.8472 -0.3914 -3.0044 0.9740
5.8589 0.1306 -3.0044 0.9740
5.6158 1.6737 -3.0042 0.9740
5.4442 2.1668 -3.0040 0.9740
4.9731 3.0973 -3.0036 0.9740
4.3442 3.9292 -3.0030 0.9740
3.5779 4.6360 -3.0022 0.9740
3.0325 4.7503 -2.8893 0.9750
1.6459 5.3058 -2.8479 0.9753
1.1669 5.4303 -2.8475 0.9753
0.1855 5.5493 -2.8465 0.9754
-0.3091 5.5428 -2.8460 0.9754
-0.8010 5.4924 -2.8455 0.9754
-1.2865 5.3984 -2.8451 0.9754
-2.2225 5.0831 -2.8442 0.9754
-2.6657 4.8644 -2.8437 0.9754
-3.6716 4.5444 -2.9951 0.9741
-4.0609 4.1990 -2.9947 0.9741
-4.4180 3.8204 -2.9944 0.9741
-4.7400 3.4117 -2.9941 0.9741
-5.0244 2.9760 -2.9938 0.9741
-5.8149 0.5196 -2.9930 0.9741
-5.5182 -0.9941 -2.9933 0.9749
-5.4080 -1.4814 -2.9934 0.9749
-5.2549 -1.9569 -2.9935 0.9749
-5.0602 -2.4170 -2.9937 0.9749
-4.8253 -2.8580 -2.9939 0.9749
-3.9000 -4.0325 -2.9948 0.9749
-3.1240 -4.6613 -2.9956 0.9749
-2.6971 -4.9215 -2.9960 0.9749
-1.7823 -5.3233 -2.9969 0.9749
-0.8104 -5.5568 -2.9978 0.9749
-0.3127 -5.6077 -2.9983 0.9749
1.1805 -5.4938 -2.9998 0.9748
1.6651 -5.3677 -3.0003 0.9748
3.0254 -4.7392 -3.0016 0.9748
4.1716 -3.7729 -3.0027 0.9748
4.4913 -3.3870 -3.0030 0.9748
5.2279 -2.0806 -3.0038 0.9748
5.3926 -1.6071 -3.0039 0.9748
5.5145 -1.1208 -3.0041 0.9748
5.5925 -0.6256 -3.0041 0.9748
5.6149 0.3759 -3.0042 0.9748
5.4590 1.3654 -3.0040 0.9748
5.1299 2.3114 -3.0037 0.9748
3.9993 3.9550 -3.0026 0.9748
3.2339 4.6003 -3.0019 0.9748
2.7392 4.7445 -2.9246 0.9755
2.2461 4.8402 -2.8485 0.9761
1.3519 5.1601 -2.8477 0.9761
0.4154 5.3164 -2.8467 0.9761
-1.0034 5.2346 -2.8453 0.9761
-2.8855 4.7502 -2.9671 0.9751
-4.6935 3.0704 -2.9941 0.9749
-5.3368 1.7209 -2.9935 0.9749
-5.5570 0.7474 -2.9932 0.9749
-5.6013 -0.2497 -2.9932 0.9749
-5.4685 -1.2390 -2.9933 0.9749
-5.3367 -1.7208 -2.9934 0.9749
-5.1627 -2.1891 -2.9936 0.9749
-4.9477 -2.6402 -2.9938 0.9749
-4.6934 -3.0703 -2.9941 0.9749
-4.0755 -3.8546 -2.9947 0.9749
-3.7167 -4.2025 -2.9950 0.9749
-3.3283 -4.5172 -2.9954 0.9749
-2.4753 -5.0371 -2.9962 0.9749
-1.5435 -5.3979 -2.9971 0.9749
-0.0626 -5.6165 -2.9986 0.9749
0.9346 -5.5405 -2.9995 0.9748
1.4242 -5.4362 -3.0000 0.9748
1.9027 -5.2887 -3.0005 0.9748
2.3662 -5.0991 -3.0009 0.9748
3.2338 -4.6000 -3.0018 0.9748
3.6308 -4.2945 -3.0022 0.9748
4.3358 -3.5836 -3.0029 0.9748
5.1298 -2.3114 -3.0037 0.9748
5.3155 -1.8457 -3.0039 0.9748
5.6149 -0.3758 -3.0042 0.9748
5.6261 0.1254 -3.0042 0.9748
5.5925 0.6256 -3.0042 0.9748
5.3927 1.6072 -3.0040 0.9748
4.1717 3.7731 -3.0028 0.9748
3.4358 4.4519 -3.0021 0.9748
3.0199 4.7305 -2.9961 0.9749
2.0281 4.9351 -2.8483 0.9761
1.1206 5.2148 -2.8474 0.9761
0.1782 5.3292 -2.8465 0.9761
-0.7693 5.2746 -2.8456 0.9761
-1.2355 5.1844 -2.8451 0.9761
-2.1344 4.8817 -2.8442 0.9761
-3.1241 4.6615 -2.9957 0.9749
-3.5261 4.3644 -2.9953 0.9749
-3.9001 4.0327 -2.9949 0.9749
-4.5523 3.2766 -2.9943 0.9749
-5.0603 2.4171 -2.9938 0.9749
-5.5182 0.9942 -2.9933 0.9749
-5.5847 0.4991 -2.9932 0.9749
-5.3683 -0.4797 -2.9934 0.9756
-5.0513 -1.8811 -2.9937 0.9756
-4.8641 -2.3234 -2.9939 0.9756
-4.3758 -3.1495 -2.9944 0.9756
-3.3893 -4.1950 -2.9953 0.9756
-3.0029 -4.4806 -2.9957 0.9756
-2.5925 -4.7307 -2.9961 0.9756
-1.2511 -5.2498 -2.9974 0.9756
-0.3006 -5.3901 -2.9983 0.9756
0.6601 -5.3597 -2.9993 0.9756
1.1347 -5.2805 -2.9997 0.9756
2.0536 -4.9972 -3.0006 0.9756
2.4906 -4.7952 -3.0011 0.9756
3.3022 -4.2788 -3.0019 0.9756
3.6704 -3.9684 -3.0022 0.9756
4.8264 -2.4389 -3.0034 0.9756
5.3751 -0.6012 -3.0039 0.9756
5.4074 -0.1204 -3.0040 0.9756
5.3430 0.8402 -3.0039 0.9756
4.9305 2.2216 -3.0035 0.9756
4.7129 2.6515 -3.0033 0.9756
3.1082 4.4216 -3.0018 0.9756
2.7020 4.6800 -3.0014 0.9756
1.7359 4.8252 -2.8480 0.9768
1.2994 4.9598 -2.8476 0.9768
0.8527 5.0550 -2.8472 0.9768
0.3993 5.1100 -2.8467 0.9768
-0.9645 5.0316 -2.8454 0.9768
-2.8006 4.6104 -2.9960 0.9756
-3.1994 4.3422 -2.9956 0.9756
-3.5727 4.0398 -2.9952 0.9756
-4.2315 3.3416 -2.9946 0.9756
-4.7561 2.5379 -2.9940 0.9756
-4.9627 2.1044 -2.9938 0.9756
-5.3843 0.2401 -2.9934 0.9756
-5.3843 -0.2400 -2.9934 0.9756
-5.3417 -0.7184 -2.9934 0.9756
-5.1300 -1.6542 -2.9936 0.9756
-4.9627 -2.1043 -2.9938 0.9756
-4.7560 -2.5379 -2.9940 0.9756
-4.5116 -2.9513 -2.9942 0.9756
-4.2314 -3.3414 -2.9945 0.9756
-3.5726 -4.0396 -2.9951 0.9756
-3.1993 -4.3421 -2.9955 0.9756
-1.9392 -5.0351 -2.9967 0.9756
-1.4836 -5.1885 -2.9972 0.9756
-1.0161 -5.3007 -2.9976 0.9756
-0.5403 -5.3710 -2.9981 0.9756
-0.0601 -5.3986 -2.9986 0.9756
0.4207 -5.3834 -2.9990 0.9756
0.8983 -5.3254 -2.9995 0.9756
1.8288 -5.0833 -3.0004 0.9756
2.2744 -4.9011 -3.0009 0.9756
3.1082 -4.4213 -3.0017 0.9756
3.4898 -4.1277 -3.0021 0.9756
4.4577 -3.0600 -3.0030 0.9756
4.7128 -2.6513 -3.0033 0.9756
5.1089 -1.7739 -3.0037 0.9756
5.4074 0.1205 -3.0040 0.9756
5.1830 1.5448 -3.0038 0.9756
4.8265 2.4390 -3.0034 0.9756
4.5899 2.8587 -3.0032 0.9756
4.0096 3.6265 -3.0026 0.9756
1.9569 4.7618 -2.8593 0.9767
1.5192 4.8973 -2.8478 0.9768
-1.6261 4.8570 -2.8447 0.9768
-3.0030 4.4808 -2.9958 0.9756
-3.7489 3.8764 -2.9950 0.9756
-4.6385 2.7474 -2.9942 0.9756
-4.8642 2.3235 -2.9939 0.9756
-5.3045 0.9556 -2.9935 0.9756
-5.3683 0.4797 -2.9934 0.9756
-5.1851 0.0000 -2.9936 0.9763
-5.1645 -0.4615 -2.9936 0.9763
-5.1030 -0.9193 -2.9937 0.9763
-5.0011 -1.3699 -2.9938 0.9763
-4.8596 -1.8097 -2.9939 0.9763
-4.4623 -2.6430 -2.9943 0.9763
-4.2097 -3.0299 -2.9945 0.9763
-3.6064 -3.7290 -2.9951 0.9763
-3.2606 -4.0357 -2.9955 0.9763
-1.6480 -4.9224 -2.9970 0.9763
-1.2036 -5.0503 -2.9975 0.9763
-0.7494 -5.1381 -2.9979 0.9763
-0.2891 -5.1852 -2.9983 0.9763
0.6350 -5.1559 -2.9993 0.9763
1.0916 -5.0796 -2.9997 0.9763
1.9755 -4.8070 -3.0006 0.9763
2.7972 -4.3817 -3.0014 0.9763
3.1765 -4.1159 -3.0018 0.9763
3.8568 -3.4883 -3.0024 0.9763
4.1524 -3.1315 -3.0027 0.9763
4.4150 -2.7497 -3.0030 0.9763
4.8333 -1.9236 -3.0034 0.9763
4.9856 -1.4858 -3.0035 0.9763
5.1911 0.3475 -3.0038 0.9763
5.1394 0.8081 -3.0037 0.9763
5.0470 1.2624 -3.0036 0.9763
4.5334 2.5505 -3.0031 0.9763
4.2881 2.9436 -3.0029 0.9763
1.7085 4.7490 -2.9138 0.9770
0.3848 4.9244 -2.8517 0.9774
-0.0549 4.9296 -2.8463 0.9775
-0.4934 4.9045 -2.8458 0.9775
-0.9278 4.8403 -2.8454 0.9775
-1.3628 4.7660 -2.8619 0.9774
-3.4370 3.8863 -2.9954 0.9763
-4.0708 3.2147 -2.9947 0.9763
-4.3403 2.8394 -2.9945 0.9763
-4.7743 2.0245 -2.9940 0.9763
-5.0571 1.1458 -2.9937 0.9763
-5.1389 0.6912 -2.9937 0.9763
-5.1799 -0.2310 -2.9936 0.9763
-4.9352 -1.5914 -2.9938 0.9763
-4.7743 -2.0244 -2.9940 0.9763
-4.0707 -3.2146 -2.9947 0.9763
-3.7688 -3.5645 -2.9950 0.9763
-3.4369 -3.8862 -2.9953 0.9763
-2.6941 -4.4350 -2.9960 0.9763
-2.2890 -4.6578 -2.9964 0.9763
0.4047 -5.1787 -2.9990 0.9763
0.8641 -5.1229 -2.9995 0.9763
1.7593 -4.8899 -3.0004 0.9763
2.1878 -4.7146 -3.0008 0.9763
3.3569 -3.9706 -3.0019 0.9763
4.5333 -2.5504 -3.0031 0.9763
5.1394 -0.8081 -3.0037 0.9763
5.2014 0.1160 -3.0038 0.9763
5.0983 1.0363 -3.0037 0.9763
4.9856 1.4859 -3.0036 0.9763
4.8334 1.9237 -3.0034 0.9763
4.6427 2.3461 -3.0032 0.9763
4.4151 2.7498 -3.0030 0.9763
3.8569 3.4884 -3.0025 0.9763
3.5308 3.8175 -3.0022 0.9763
3.1766 4.1161 -3.0018 0.9763
2.3959 4.6130 -3.0011 0.9763
1.9479 4.7401 -2.9587 0.9766
0.6028 4.8941 -2.8469 0.9775
0.1647 4.9276 -2.8465 0.9775
-0.2748 4.9278 -2.8494 0.9775
-0.7113 4.8772 -2.8456 0.9775
-2.0743 4.7441 -2.9894 0.9764
-3.6065 3.7292 -2.9952 0.9763
-3.9237 3.3930 -2.9949 0.9763
-4.2097 3.0300 -2.9946 0.9763
-4.8596 1.8098 -2.9939 0.9763
-5.1031 0.9194 -2.9937 0.9763
-5.1645 0.4615 -2.9936 0.9763
