ply
format ascii 1.0
element vertex 1602
property float32 x
property float32 y
property float32 z
property float32 I
end_header
-3.5995 7.3248 1.4391 0.9674
-3.5958 7.3173 1.2983 0.9675
9.7218 -6.6736 1.8777 0.9534
9.1921 -6.9321 1.6376 0.9545
9.6126 -5.9868 1.6107 0.9553
-3.5922 7.3099 1.1585 0.9676
9.2797 -6.3702 1.6010 0.9555
8.9211 -6.7277 1.4002 0.9560
-3.5886 7.3026 1.0197 0.9677
8.7606 -6.6067 1.1902 0.9568
-3.5850 7.2952 0.8817 0.9678
8.8320 -7.2998 1.2428 0.9549
8.9275 -6.1284 1.1745 0.9574
9.7002 -5.4573 1.2072 0.9562
8.6489 -6.5224 0.9931 0.9574
-3.5814 7.2879 0.7445 0.9679
9.5593 -5.3780 1.0055 0.9569
-3.5778 7.2807 0.6079 0.9680
8.7436 -6.0021 0.7948 0.9584
9.4534 -5.3184 0.8128 0.9574
8.9713 -5.5874 0.6156 0.9585
10.0072 -5.0569 0.6530 0.9561
8.4474 -6.9819 0.6383 0.9570
8.6916 -5.9664 0.6140 0.9586
9.3827 -5.2786 0.6270 0.9578
8.4613 -6.3810 0.4406 0.9585
8.9252 -5.5587 0.4372 0.9588
-3.5707 7.2663 0.3366 0.9681
8.3860 -6.9312 0.4524 0.9574
8.5351 -7.7195 0.2870 0.9550
8.4368 -6.3625 0.2635 0.9586
8.9012 -5.5437 0.2615 0.9589
-3.5672 7.2591 0.2017 0.9682
8.3518 -6.9030 0.2702 0.9576
8.6240 -5.9201 0.2609 0.9590
8.4221 -6.3514 0.0877 0.9587
8.8865 -5.5346 0.0870 0.9590
9.8527 -4.9788 0.0917 0.9568
-3.5637 7.2519 0.0672 0.9682
8.4912 -7.6799 -0.0952 0.9552
8.8856 -5.5340 -0.0870 0.9590
9.8512 -4.9781 -0.0917 0.9568
8.3343 -6.8885 -0.0899 0.9577
8.6089 -5.9097 -0.0868 0.9591
9.2758 -5.2185 -0.0885 0.9583
8.5325 -7.7172 -0.2869 0.9550
8.4358 -6.3618 -0.2635 0.9586
9.8746 -4.9898 -0.2759 0.9567
8.6135 -7.7905 -0.4829 0.9546
8.4583 -6.3787 -0.4405 0.9585
9.9155 -5.0105 -0.4619 0.9565
8.6440 -5.9338 -0.4359 0.9589
9.3221 -5.2446 -0.4447 0.9581
8.7488 -7.9128 -0.6871 0.9538
-3.5526 7.2294 -0.4692 0.9682
8.5576 -6.4536 -0.8032 0.9579
10.1309 -5.1194 -0.8506 0.9555
8.6433 -6.5182 -0.9925 0.9574
9.1071 -5.6720 -0.9836 0.9578
8.6363 -7.1381 -1.0272 0.9560
8.8204 -6.0549 -0.9808 0.9579
9.5524 -5.3741 -1.0048 0.9569
8.7505 -6.5991 -1.1888 0.9569
9.3651 -5.8326 -1.3826 0.9565
9.2172 -7.6182 -1.4985 0.9529
9.1718 -6.9168 -1.6339 0.9546
10.1992 -6.3521 -1.9133 0.9525
-3.5508 7.2257 -1.2820 0.9679
-14.2583 0.0000 -3.0059 0.9434
-14.2017 -1.2691 -3.0059 0.9434
-12.8659 -6.1455 -3.0059 0.9434
-10.7851 -9.3262 -3.0059 0.9434
-9.9122 -10.2492 -3.0059 0.9434
-7.9380 -11.8442 -3.0059 0.9434
-6.8522 -12.5037 -3.0059 0.9434
-3.3054 -13.8698 -3.0059 0.9434
-0.7938 -14.2361 -3.0059 0.9434
1.7429 -14.1513 -3.0059 0.9434
2.9955 -13.9400 -3.0059 0.9434
4.2244 -13.6181 -3.0059 0.9434
5.4197 -13.1880 -3.0059 0.9434
6.5720 -12.6533 -3.0059 0.9434
7.6721 -12.0182 -3.0059 0.9434
8.7113 -11.2876 -3.0059 0.9434
11.3840 -8.5850 -3.0059 0.9434
12.1029 -7.5377 -3.0059 0.9434
13.6643 -4.0724 -3.0059 0.9434
13.9725 -2.8401 -3.0059 0.9434
14.2547 -0.3176 -3.0059 0.9434
13.8322 3.4597 -3.0059 0.9434
12.3405 5.5604 -2.8535 0.9462
9.6241 9.5175 -2.8535 0.9462
7.7841 11.0731 -2.8535 0.9462
4.5821 12.7362 -2.8535 0.9462
3.4303 13.0935 -2.8535 0.9462
1.0545 13.4942 -2.8535 0.9462
-1.3548 13.4674 -2.8535 0.9462
-2.5481 13.2933 -2.8535 0.9462
-3.7212 13.0138 -2.8535 0.9462
-8.0289 10.8969 -2.8535 0.9462
-9.8338 9.3007 -2.8535 0.9462
-10.6225 8.3885 -2.8535 0.9462
-11.9416 6.3722 -2.8535 0.9462
-12.4613 5.2841 -2.8535 0.9462
-13.9058 3.1506 -3.0059 0.9434
-14.1310 1.9005 -3.0059 0.9434
-14.2441 0.6352 -3.0059 0.9434
-14.2441 -0.6352 -3.0059 0.9434
-13.9058 -3.1506 -3.0059 0.9434
-13.5702 -4.3758 -3.0059 0.9434
-12.5793 -6.7125 -3.0059 0.9434
-10.3589 -9.7974 -3.0059 0.9434
-9.4458 -10.6805 -3.0059 0.9434
-7.4025 -12.1861 -3.0059 0.9434
-5.1245 -13.3055 -3.0059 0.9434
-0.1588 -14.2573 -3.0059 0.9434
2.3716 -14.0596 -3.0059 0.9434
3.6135 -13.7928 -3.0059 0.9434
4.8268 -13.4163 -3.0059 0.9434
6.0018 -12.9335 -3.0059 0.9434
8.1999 -11.6645 -3.0059 0.9434
9.2055 -10.8883 -3.0059 0.9434
11.7551 -8.0694 -3.0059 0.9434
12.4267 -6.9911 -3.0059 0.9434
12.9996 -5.8573 -3.0059 0.9434
13.4693 -4.6771 -3.0059 0.9434
14.2547 0.3177 -3.0059 0.9434
12.0806 6.1046 -2.8535 0.9462
11.4893 7.1556 -2.8535 0.9462
10.8068 8.1498 -2.8535 0.9462
10.0385 9.0793 -2.8535 0.9462
8.2697 10.7153 -2.8535 0.9462
7.2832 11.4088 -2.8535 0.9462
5.1449 12.5194 -2.8535 0.9462
4.0102 12.9277 -2.8535 0.9462
0.4523 13.5278 -2.8535 0.9462
-3.1378 13.1666 -2.8535 0.9462
-4.2972 12.8351 -2.8535 0.9462
-8.5063 10.5285 -2.8535 0.9462
-11.6458 6.8979 -2.8535 0.9462
-12.2136 5.8339 -2.8535 0.9462
-12.8837 4.7980 -2.8984 0.9453
-14.0323 2.5281 -3.0059 0.9434
-14.2017 1.2691 -3.0059 0.9434
-13.1698 0.0000 -3.0059 0.9474
-10.6890 -7.6934 -3.0059 0.9474
-8.2766 -10.2441 -3.0059 0.9474
-5.2761 -12.0667 -3.0059 0.9474
-4.1812 -12.4885 -3.0059 0.9474
-1.9007 -13.0319 -3.0059 0.9474
-0.7332 -13.1494 -3.0059 0.9474
0.4401 -13.1624 -3.0059 0.9474
2.7668 -12.8759 -3.0059 0.9474
3.9019 -12.5785 -3.0059 0.9474
6.0703 -11.6874 -3.0059 0.9474
7.0864 -11.1007 -3.0059 0.9474
9.7674 -8.8341 -3.0059 0.9474
10.5149 -7.9297 -3.0059 0.9474
11.1790 -6.9623 -3.0059 0.9474
11.7543 -5.9397 -3.0059 0.9474
13.0882 -1.4641 -3.0059 0.9474
13.0099 2.0457 -3.0059 0.9474
11.3985 5.1359 -2.8535 0.9500
10.8961 6.1301 -2.8535 0.9500
9.6366 7.9648 -2.8535 0.9500
8.0717 9.5473 -2.8535 0.9500
7.1899 10.2278 -2.8535 0.9500
3.1685 12.0939 -2.8535 0.9500
0.9740 12.4641 -2.8535 0.9500
-0.1393 12.5013 -2.8535 0.9500
-1.2514 12.4393 -2.8535 0.9500
-3.4371 12.0204 -2.8535 0.9500
-4.4933 11.6667 -2.8535 0.9500
-6.4907 10.6852 -2.8535 0.9500
-9.0831 8.5907 -2.8535 0.9500
-9.8116 7.7482 -2.8535 0.9500
-12.5343 4.0418 -3.0059 0.9474
-13.0523 1.7554 -3.0059 0.9474
-12.5343 -4.0418 -3.0059 0.9474
-11.6191 -6.2001 -3.0059 0.9474
-11.0211 -7.2096 -3.0059 0.9474
-8.7247 -9.8652 -3.0059 0.9474
-6.8374 -11.2558 -3.0059 0.9474
-5.8084 -11.8197 -3.0059 0.9474
-4.7333 -12.2898 -3.0059 0.9474
-2.4793 -12.9343 -3.0059 0.9474
-1.3182 -13.1036 -3.0059 0.9474
2.1905 -12.9863 -3.0059 0.9474
4.4584 -12.3922 -3.0059 0.9474
5.5436 -11.9462 -3.0059 0.9474
6.5849 -11.4054 -3.0059 0.9474
9.3642 -9.2604 -3.0059 0.9474
12.0072 -5.4102 -3.0059 0.9474
13.1665 0.2934 -3.0059 0.9474
12.9059 2.6232 -3.0059 0.9474
10.6122 6.6094 -2.8535 0.9500
9.2722 8.3862 -2.8535 0.9500
8.4890 9.1782 -2.8535 0.9500
7.6384 9.8974 -2.8535 0.9500
5.7625 11.0949 -2.8535 0.9500
2.6266 12.2231 -2.8535 0.9500
1.5282 12.4083 -2.8535 0.9500
0.4178 12.4951 -2.8535 0.9500
-0.6960 12.4827 -2.8535 0.9500
-3.9692 11.8553 -2.8535 0.9500
-6.9603 10.3854 -2.8535 0.9500
-9.4567 8.1776 -2.8535 0.9500
-10.1471 7.3034 -2.8535 0.9500
-11.2812 5.3886 -2.8535 0.9500
-12.3418 4.5961 -3.0059 0.9474
-12.7019 3.4794 -3.0059 0.9474
-12.9611 2.3351 -3.0059 0.9474
-13.1175 1.1722 -3.0059 0.9474
-11.4603 -4.2678 -3.0059 0.9509
-9.9255 -7.1439 -3.0059 0.9509
-9.2503 -7.9990 -3.0059 0.9509
-8.5016 -8.7906 -3.0059 0.9509
-6.8083 -10.1587 -3.0059 0.9509
-2.8350 -11.8960 -3.0059 0.9509
-1.7649 -12.1011 -3.0059 0.9509
0.4086 -12.2223 -3.0059 0.9509
1.4949 -12.1374 -3.0059 0.9509
3.6232 -11.6801 -3.0059 0.9509
5.6367 -10.8526 -3.0059 0.9509
6.5803 -10.3078 -3.0059 0.9509
10.3805 -6.4651 -3.0059 0.9509
10.9147 -5.5154 -3.0059 0.9509
11.3623 -4.5221 -3.0059 0.9509
12.1533 -1.3596 -3.0059 0.9509
12.2261 -0.2724 -3.0059 0.9509
11.5525 4.0114 -3.0059 0.9509
8.9483 7.3960 -2.8535 0.9533
8.2545 8.1630 -2.8535 0.9533
6.6764 9.4973 -2.8535 0.9533
3.9300 10.9237 -2.8535 0.9533
2.9422 11.2301 -2.8535 0.9533
1.9309 11.4474 -2.8535 0.9533
0.9044 11.5739 -2.8535 0.9533
-0.1293 11.6084 -2.8535 0.9533
-1.1620 11.5508 -2.8535 0.9533
-2.1855 11.4016 -2.8535 0.9533
-3.1916 11.1618 -2.8535 0.9533
-6.8863 9.3462 -2.8535 0.9533
-7.6908 8.6962 -2.8535 0.9533
-10.2421 5.4654 -2.8535 0.9533
-11.9268 2.7023 -3.0059 0.9509
-12.2170 -0.5448 -3.0059 0.9509
-12.1200 -1.6300 -3.0059 0.9509
-11.9268 -2.7022 -3.0059 0.9509
-10.7892 -5.7573 -3.0059 0.9509
-10.2339 -6.6947 -3.0059 0.9509
-8.8848 -8.4031 -3.0059 0.9509
-8.1016 -9.1606 -3.0059 0.9509
-7.2541 -9.8453 -3.0059 0.9509
-6.3490 -10.4519 -3.0059 0.9509
-5.3935 -10.9755 -3.0059 0.9509
0.9527 -12.1920 -3.0059 0.9509
3.0993 -11.8299 -3.0059 0.9509
6.1146 -10.5907 -3.0059 0.9509
10.0822 -6.9210 -3.0059 0.9509
10.6582 -5.9962 -3.0059 0.9509
12.0807 -1.8996 -3.0059 0.9509
12.2018 -0.8168 -3.0059 0.9509
12.1533 1.3596 -3.0059 0.9509
11.7197 3.4929 -3.0059 0.9509
10.3614 5.2358 -2.8535 0.9533
9.8542 6.1373 -2.8535 0.9533
9.2689 6.9900 -2.8535 0.9533
8.6099 7.7872 -2.8535 0.9533
7.8827 8.5226 -2.8535 0.9533
6.2467 9.7852 -2.8535 0.9533
2.4390 11.3500 -2.8535 0.9533
0.3879 11.6026 -2.8535 0.9533
-0.6463 11.5911 -2.8535 0.9533
-1.6754 11.4876 -2.8535 0.9533
-5.5791 10.1806 -2.8535 0.9533
-7.2958 9.0301 -2.8535 0.9533
-8.0706 8.3450 -2.8535 0.9533
-9.9885 5.9162 -2.8535 0.9533
-11.7946 3.2309 -3.0059 0.9509
-12.0354 2.1683 -3.0059 0.9509
-12.1806 1.0885 -3.0059 0.9509
-11.4077 0.0000 -3.0059 0.9539
-10.6904 -3.9812 -3.0059 0.9539
-10.2937 -4.9169 -3.0059 0.9539
-9.2588 -6.6640 -3.0059 0.9539
-8.6289 -7.4617 -3.0059 0.9539
-7.9305 -8.2001 -3.0059 0.9539
-7.1692 -8.8734 -3.0059 0.9539
-6.3510 -9.4763 -3.0059 0.9539
-5.4823 -10.0039 -3.0059 0.9539
-4.5701 -10.4522 -3.0059 0.9539
-3.6217 -10.8175 -3.0059 0.9539
-2.6445 -11.0969 -3.0059 0.9539
-1.6463 -11.2882 -3.0059 0.9539
0.3812 -11.4013 -3.0059 0.9539
3.3798 -10.8955 -3.0059 0.9539
4.3361 -10.5514 -3.0059 0.9539
5.2581 -10.1236 -3.0059 0.9539
6.1383 -9.6154 -3.0059 0.9539
6.9697 -9.0309 -3.0059 0.9539
8.4605 -7.6521 -3.0059 0.9539
9.1080 -6.8687 -3.0059 0.9539
9.6832 -6.0307 -3.0059 0.9539
10.5991 -4.2183 -3.0059 0.9539
10.9325 -3.2582 -3.0059 0.9539
11.1791 -2.2722 -3.0059 0.9539
11.3369 -1.2682 -3.0059 0.9539
11.2692 1.7720 -3.0059 0.9539
11.0667 2.7680 -3.0059 0.9539
10.7765 3.7420 -3.0059 0.9539
8.9281 6.1288 -2.8535 0.9562
8.3472 6.8991 -2.8535 0.9562
7.7000 7.6147 -2.8535 0.9562
6.9917 8.2698 -2.8535 0.9562
6.2279 8.8593 -2.8535 0.9562
4.5584 9.8231 -2.8535 0.9562
3.6660 10.1899 -2.8535 0.9562
2.7445 10.4757 -2.8535 0.9562
0.8436 10.7964 -2.8535 0.9562
-0.1206 10.8286 -2.8535 0.9562
-1.0840 10.7749 -2.8535 0.9562
-2.0387 10.6357 -2.8535 0.9562
-3.5412 7.2062 -2.1157 0.9673
-6.4237 8.7184 -2.8535 0.9562
-7.8677 7.4413 -2.8535 0.9562
-8.4988 6.7114 -2.8535 0.9562
-9.5541 5.0983 -2.8535 0.9562
-10.5025 4.4534 -3.0059 0.9539
-10.8572 3.5010 -3.0059 0.9539
-11.3963 0.5082 -3.0059 0.9539
-11.3963 -0.5082 -3.0059 0.9539
-11.3059 -1.5205 -3.0059 0.9539
-11.1257 -2.5207 -3.0059 0.9539
-10.5025 -4.4534 -3.0059 0.9539
-10.0644 -5.3705 -3.0059 0.9539
-9.5464 -6.2450 -3.0059 0.9539
-8.2879 -7.8387 -3.0059 0.9539
-7.5574 -8.5452 -3.0059 0.9539
-5.0312 -10.2382 -3.0059 0.9539
-0.1271 -11.4069 -3.0059 0.9539
1.8974 -11.2487 -3.0059 0.9539
3.8618 -10.7341 -3.0059 0.9539
5.7038 -9.8793 -3.0059 0.9539
8.1112 -8.0214 -3.0059 0.9539
11.2692 -1.7720 -3.0059 0.9539
11.3822 -0.7619 -3.0059 0.9539
11.4048 0.2542 -3.0059 0.9539
11.1791 2.2723 -3.0059 0.9539
10.9325 3.2582 -3.0059 0.9539
8.6462 6.5204 -2.8535 0.9562
6.6164 8.5731 -2.8535 0.9562
4.1163 10.0165 -2.8535 0.9562
3.2085 10.3431 -2.8535 0.9562
1.3238 10.7481 -2.8535 0.9562
0.3619 10.8233 -2.8535 0.9562
-2.5104 10.5343 -2.8535 0.9562
-3.4381 10.2691 -2.8535 0.9562
-5.2044 9.4968 -2.8535 0.9562
-8.1914 7.0834 -2.8535 0.9562
-8.7894 6.3262 -2.8535 0.9562
-9.3175 5.5188 -2.8535 0.9562
-11.2269 2.0226 -3.0059 0.9539
-11.3624 1.0154 -3.0059 0.9539
-10.6837 0.0000 -3.0059 0.9566
-10.6413 -0.9509 -3.0059 0.9566
-8.6712 -6.2411 -3.0059 0.9566
-7.4272 -7.6797 -3.0059 0.9566
-5.9479 -8.8748 -3.0059 0.9566
-5.1344 -9.3690 -3.0059 0.9566
-2.4767 -10.3926 -3.0059 0.9566
-0.5948 -10.6671 -3.0059 0.9566
1.3060 -10.6036 -3.0059 0.9566
3.1653 -10.2040 -3.0059 0.9566
4.9244 -9.4811 -3.0059 0.9566
6.5274 -8.4578 -3.0059 0.9566
7.2543 -7.8432 -3.0059 0.9566
8.5300 -6.4328 -3.0059 0.9566
9.0687 -5.6480 -3.0059 0.9566
9.5354 -4.8184 -3.0059 0.9566
9.9264 -3.9506 -3.0059 0.9566
10.2386 -3.0514 -3.0059 0.9566
10.4696 -2.1280 -3.0059 0.9566
10.6810 -0.2380 -3.0059 0.9566
10.6598 0.7136 -3.0059 0.9566
10.5540 1.6596 -3.0059 0.9566
10.0925 3.5045 -3.0059 0.9566
8.8392 4.9729 -2.8535 0.9587
7.2113 7.1314 -2.8535 0.9587
6.5480 7.7450 -2.8535 0.9587
5.8326 8.2970 -2.8535 0.9587
4.2691 9.1997 -2.8535 0.9587
3.4334 9.5432 -2.8535 0.9587
2.5703 9.8109 -2.8535 0.9587
1.6869 10.0007 -2.8535 0.9587
-1.0152 10.0911 -2.8535 0.9587
-1.9093 9.9607 -2.8535 0.9587
-2.7883 9.7512 -2.8535 0.9587
-6.0160 8.1650 -2.8535 0.9587
-7.3684 6.9690 -2.8535 0.9587
-7.9594 6.2855 -2.8535 0.9587
-8.4873 5.5521 -2.8535 0.9587
-8.9880 4.7962 -2.8663 0.9586
-9.8359 4.1708 -3.0059 0.9566
-10.6731 0.4759 -3.0059 0.9566
-10.6731 -0.4759 -3.0059 0.9566
-10.1681 -3.2788 -3.0059 0.9566
-9.4257 -5.0297 -3.0059 0.9566
-4.7119 -9.5884 -3.0059 0.9566
-2.9372 -10.2720 -3.0059 0.9566
-1.0694 -10.6300 -3.0059 0.9566
-0.1190 -10.6830 -3.0059 0.9566
1.7770 -10.5348 -3.0059 0.9566
2.7076 -10.3349 -3.0059 0.9566
4.4971 -9.6911 -3.0059 0.9566
6.1441 -8.7402 -3.0059 0.9566
6.8977 -8.1586 -3.0059 0.9566
8.2349 -6.8063 -3.0059 0.9566
9.3113 -5.2384 -3.0059 0.9566
9.7406 -4.3889 -3.0059 0.9566
10.5540 -1.6596 -3.0059 0.9566
10.6598 -0.7136 -3.0059 0.9566
10.6174 1.1878 -3.0059 0.9566
10.2386 3.0514 -3.0059 0.9566
8.0975 6.1066 -2.8535 0.9587
7.5218 6.8031 -2.8535 0.9587
6.1965 8.0290 -2.8535 0.9587
5.4572 8.5486 -2.8535 0.9587
4.6747 9.0004 -2.8535 0.9587
3.0048 9.6867 -2.8535 0.9587
1.2397 10.0660 -2.8535 0.9587
0.3389 10.1363 -2.8535 0.9587
-1.4637 10.0359 -2.8535 0.9587
-2.3511 9.8657 -2.8535 0.9587
-3.2199 9.6173 -2.8535 0.9587
-7.6715 6.6338 -2.8535 0.9587
-8.2315 5.9247 -2.8535 0.9587
-8.7262 5.1685 -2.8535 0.9587
-9.6404 4.6048 -3.0059 0.9566
-10.6413 0.9509 -3.0059 0.9566
-10.0405 0.0000 -3.0059 0.9589
-9.8814 -1.7802 -3.0059 0.9589
-9.6837 -2.6526 -3.0059 0.9589
-9.4092 -3.5040 -3.0059 0.9589
-9.0600 -4.3276 -3.0059 0.9589
-8.6388 -5.1168 -3.0059 0.9589
-8.1491 -5.8654 -3.0059 0.9589
-7.5947 -6.5674 -3.0059 0.9589
-6.9801 -7.2173 -3.0059 0.9589
-5.5898 -8.3405 -3.0059 0.9589
-4.0224 -9.1995 -3.0059 0.9589
-3.1877 -9.5210 -3.0059 0.9589
-0.5590 -10.0249 -3.0059 0.9589
4.6279 -8.9103 -3.0059 0.9589
5.4026 -8.4630 -3.0059 0.9589
7.4465 -6.7350 -3.0059 0.9589
8.9613 -4.5284 -3.0059 0.9589
9.9782 -1.1162 -3.0059 0.9589
9.7404 2.4363 -3.0059 0.9589
9.1541 4.1247 -3.0059 0.9589
8.4342 4.7450 -2.8972 0.9604
7.8581 5.3943 -2.8535 0.9610
6.7772 6.7021 -2.8535 0.9610
5.4815 7.7975 -2.8535 0.9610
4.7657 8.2545 -2.8535 0.9610
2.4156 9.2203 -2.8535 0.9610
1.5854 9.3987 -2.8535 0.9610
0.7425 9.5025 -2.8535 0.9610
-0.1062 9.5308 -2.8535 0.9610
-0.9541 9.4836 -2.8535 0.9610
-1.7943 9.3610 -2.8535 0.9610
-5.6538 7.6735 -2.8535 0.9610
-6.3144 7.1398 -2.8535 0.9610
-7.9763 5.2179 -2.8535 0.9610
-8.8582 4.7269 -3.0059 0.9589
-9.5559 3.0814 -3.0059 0.9589
-9.7923 2.2187 -3.0059 0.9589
-10.0305 0.4473 -3.0059 0.9589
-10.0305 -0.4473 -3.0059 0.9589
-9.7923 -2.2186 -3.0059 0.9589
-9.5559 -3.0814 -3.0059 0.9589
-9.2438 -3.9197 -3.0059 0.9589
-8.4023 -5.4965 -3.0059 0.9589
-7.8798 -6.2226 -3.0059 0.9589
-7.2946 -6.8992 -3.0059 0.9589
-6.6516 -7.5211 -3.0059 0.9589
-5.2127 -8.5813 -3.0059 0.9589
-3.6086 -9.3696 -3.0059 0.9589
-1.8902 -9.8609 -3.0059 0.9589
-1.0050 -9.9900 -3.0059 0.9589
-0.1118 -10.0398 -3.0059 0.9589
0.7822 -10.0099 -3.0059 0.9589
1.6700 -9.9006 -3.0059 0.9589
3.3990 -9.4476 -3.0059 0.9589
5.0202 -8.6953 -3.0059 0.9589
5.7742 -8.2139 -3.0059 0.9589
6.4824 -7.6674 -3.0059 0.9589
8.2778 -5.6824 -3.0059 0.9589
8.7507 -4.9230 -3.0059 0.9589
9.1541 -4.1246 -3.0059 0.9589
9.4849 -3.2935 -3.0059 0.9589
10.0181 -0.6706 -3.0059 0.9589
10.0380 0.2237 -3.0059 0.9589
9.8393 1.9999 -3.0059 0.9589
9.3288 3.7128 -3.0059 0.9589
8.0906 5.0389 -2.8535 0.9610
7.6100 5.7390 -2.8535 0.9610
7.0690 6.3935 -2.8535 0.9610
6.4719 6.9973 -2.8535 0.9610
5.8234 7.5456 -2.8535 0.9610
5.1287 8.0340 -2.8535 0.9610
4.3933 8.4586 -2.8535 0.9610
2.8239 9.1035 -2.8535 0.9610
-1.3756 9.4316 -2.8535 0.9610
-3.0260 9.0383 -2.8535 0.9610
-3.8329 6.9941 -2.3877 0.9672
-6.6262 6.8514 -2.8535 0.9610
-7.7360 5.5680 -2.8535 0.9610
-9.0600 4.3276 -3.0059 0.9589
-9.8814 1.7802 -3.0059 0.9589
-8.1437 -4.8235 -3.0059 0.9611
-7.6820 -5.5292 -3.0059 0.9611
-6.5800 -6.8036 -3.0059 0.9611
-3.0049 -8.9753 -3.0059 0.9611
-2.1942 -9.2071 -3.0059 0.9611
-1.3660 -9.3658 -3.0059 0.9611
-0.5269 -9.4503 -3.0059 0.9611
0.3163 -9.4597 -3.0059 0.9611
1.1570 -9.3940 -3.0059 0.9611
1.9885 -9.2537 -3.0059 0.9611
2.8042 -9.0400 -3.0059 0.9611
4.3626 -8.3996 -3.0059 0.9611
5.0929 -7.9779 -3.0059 0.9611
5.7828 -7.4929 -3.0059 0.9611
7.0197 -6.3489 -3.0059 0.9611
8.0342 -5.0037 -3.0059 0.9611
9.4063 -1.0522 -3.0059 0.9611
9.4626 -0.2109 -3.0059 0.9611
9.3501 1.4703 -3.0059 0.9611
9.1821 2.2966 -3.0059 0.9611
8.9412 3.1047 -3.0059 0.9611
8.6294 3.8882 -3.0059 0.9611
8.2491 4.6409 -3.0059 0.9611
7.4077 5.0851 -2.8535 0.9630
6.9257 5.7242 -2.8535 0.9630
5.8010 6.8615 -2.8535 0.9630
5.1673 7.3506 -2.8535 0.9630
4.4925 7.7813 -2.8535 0.9630
3.0417 8.4546 -2.8535 0.9630
2.2771 8.6917 -2.8535 0.9630
1.4945 8.8599 -2.8535 0.9630
-0.1001 8.9845 -2.8535 0.9630
-0.8994 8.9399 -2.8535 0.9630
-1.6915 8.8244 -2.8535 0.9630
-2.4702 8.6388 -2.8535 0.9630
-5.3298 7.2336 -2.8535 0.9630
-7.0515 5.5685 -2.8535 0.9630
-8.3504 4.4559 -3.0059 0.9611
-9.0082 2.9048 -3.0059 0.9611
-9.2310 2.0915 -3.0059 0.9611
-9.4556 0.4216 -3.0059 0.9611
-9.3805 -1.2616 -3.0059 0.9611
-8.7139 -3.6950 -3.0059 0.9611
-8.3504 -4.4559 -3.0059 0.9611
-7.4281 -5.8659 -3.0059 0.9611
-6.8765 -6.5037 -3.0059 0.9611
-6.2703 -7.0900 -3.0059 0.9611
-5.6144 -7.6199 -3.0059 0.9611
-4.9139 -8.0894 -3.0059 0.9611
-4.1744 -8.4946 -3.0059 0.9611
-3.4018 -8.8325 -3.0059 0.9611
-2.6021 -9.1002 -3.0059 0.9611
-0.9474 -9.4174 -3.0059 0.9611
0.7374 -9.4362 -3.0059 0.9611
1.5743 -9.3331 -3.0059 0.9611
2.3987 -9.1559 -3.0059 0.9611
3.2042 -8.9061 -3.0059 0.9611
6.1108 -7.2279 -3.0059 0.9611
7.8033 -5.3566 -3.0059 0.9611
8.9412 -3.1047 -3.0059 0.9611
9.4438 -0.6322 -3.0059 0.9611
9.4063 1.0523 -3.0059 0.9611
9.2753 1.8853 -3.0059 0.9611
9.0707 2.7034 -3.0059 0.9611
8.4476 4.2688 -3.0059 0.9611
7.1738 5.4100 -2.8535 0.9630
6.6638 6.0271 -2.8535 0.9630
6.1009 6.5963 -2.8535 0.9630
4.1414 7.9737 -2.8535 0.9630
2.6621 8.5817 -2.8535 0.9630
1.8877 8.7846 -2.8535 0.9630
1.0983 8.9177 -2.8535 0.9630
0.3002 8.9801 -2.8535 0.9630
-0.5002 8.9712 -2.8535 0.9630
-3.8229 6.9759 -2.5263 0.9672
-7.2925 5.2489 -2.8535 0.9630
-8.8698 3.3032 -3.0059 0.9611
-9.1286 2.5006 -3.0059 0.9611
-9.4274 0.8425 -3.0059 0.9611
-8.9112 -0.7963 -3.0059 0.9630
-8.0730 -3.8561 -3.0059 0.9630
-7.6977 -4.5594 -3.0059 0.9630
-6.2197 -6.4311 -3.0059 0.9630
-4.9809 -7.4320 -3.0059 0.9630
-4.2996 -7.8458 -3.0059 0.9630
-3.5842 -8.1973 -3.0059 0.9630
-2.8404 -8.4838 -3.0059 0.9630
-2.0740 -8.7029 -3.0059 0.9630
0.2990 -8.9417 -3.0059 0.9630
1.0936 -8.8796 -3.0059 0.9630
2.6507 -8.5450 -3.0059 0.9630
3.4007 -8.2751 -3.0059 0.9630
4.1237 -7.9396 -3.0059 0.9630
6.0748 -6.5680 -3.0059 0.9630
6.6353 -6.0013 -3.0059 0.9630
7.9851 -4.0350 -3.0059 0.9630
8.3125 -3.3083 -3.0059 0.9630
8.5740 -2.5553 -3.0059 0.9630
8.9444 -0.1993 -3.0059 0.9630
8.4516 2.9347 -3.0059 0.9630
8.1569 3.6754 -3.0059 0.9630
7.0019 4.8066 -2.8535 0.9648
6.5464 5.4108 -2.8535 0.9648
4.8843 6.9481 -2.8535 0.9648
4.2465 7.3552 -2.8535 0.9648
3.5750 7.7040 -2.8535 0.9648
2.1524 8.2158 -2.8535 0.9648
1.4126 8.3748 -2.8535 0.9648
0.6616 8.4673 -2.8535 0.9648
-0.8501 8.4504 -2.8535 0.9648
-3.0525 7.9256 -2.8535 0.9648
-3.4461 7.0126 -2.6252 0.9676
-4.4093 7.2588 -2.8535 0.9648
-5.0379 6.8375 -2.8535 0.9648
-6.1704 5.8360 -2.8535 0.9648
-6.6654 5.2636 -2.8535 0.9648
-8.2367 3.4927 -3.0059 0.9630
-8.8668 1.1925 -3.0059 0.9630
-8.8668 -1.1925 -3.0059 0.9630
-8.7255 -1.9769 -3.0059 0.9630
-8.5149 -2.7457 -3.0059 0.9630
-7.8932 -4.2119 -3.0059 0.9630
-7.0213 -5.5447 -3.0059 0.9630
-5.9270 -6.7018 -3.0059 0.9630
-4.6448 -7.6464 -3.0059 0.9630
-3.9458 -8.0295 -3.0059 0.9630
-0.8955 -8.9017 -3.0059 0.9630
-0.0997 -8.9461 -3.0059 0.9630
0.6970 -8.9195 -3.0059 0.9630
1.4881 -8.8220 -3.0059 0.9630
2.2674 -8.6546 -3.0059 0.9630
3.7660 -8.1154 -3.0059 0.9630
4.4733 -7.7480 -3.0059 0.9630
5.1452 -7.3191 -3.0059 0.9630
6.3614 -6.2909 -3.0059 0.9630
6.8961 -5.6997 -3.0059 0.9630
7.3760 -5.0633 -3.0059 0.9630
7.7974 -4.3867 -3.0059 0.9630
8.6793 -2.1708 -3.0059 0.9630
8.8381 -1.3897 -3.0059 0.9630
8.7674 1.7821 -3.0059 0.9630
8.3125 3.3083 -3.0059 0.9630
7.5903 4.7272 -3.0043 0.9630
6.2989 5.6970 -2.8535 0.9648
5.7668 6.2351 -2.8535 0.9648
5.1890 6.7236 -2.8535 0.9648
3.9147 7.5371 -2.8535 0.9648
1.7843 8.3035 -2.8535 0.9648
1.0382 8.4294 -2.8535 0.9648
-0.4728 8.4799 -2.8535 0.9648
-1.9689 8.2617 -2.8535 0.9648
-4.7283 7.0552 -2.8535 0.9648
-5.9043 6.1050 -2.8535 0.9648
-6.4243 5.5553 -2.8535 0.9648
-8.0730 3.8562 -3.0059 0.9630
-8.3842 3.1223 -3.0059 0.9630
-8.6288 2.3637 -3.0059 0.9630
-8.4773 0.0000 -3.0059 0.9647
-8.4436 -0.7545 -3.0059 0.9647
-8.3429 -1.5030 -3.0059 0.9647
-8.1761 -2.2397 -3.0059 0.9647
-5.8933 -6.0936 -3.0059 0.9647
-5.3276 -6.5940 -3.0059 0.9647
-4.0740 -7.4341 -3.0059 0.9647
-1.9652 -8.2463 -3.0059 0.9647
-1.2234 -8.3885 -3.0059 0.9647
-0.4720 -8.4641 -3.0059 0.9647
1.0362 -8.4137 -3.0059 0.9647
1.7810 -8.2881 -3.0059 0.9647
3.2223 -7.8410 -3.0059 0.9647
3.9074 -7.5230 -3.0059 0.9647
5.7561 -6.2234 -3.0059 0.9647
7.1958 -4.4816 -3.0059 0.9647
7.5661 -3.8233 -3.0059 0.9647
7.8764 -3.1347 -3.0059 0.9647
8.1241 -2.4212 -3.0059 0.9647
8.4247 -0.9424 -3.0059 0.9647
8.4583 0.5662 -3.0059 0.9647
8.3744 1.3168 -3.0059 0.9647
8.2239 2.0569 -3.0059 0.9647
7.7289 3.4825 -3.0059 0.9647
7.3883 4.1566 -3.0059 0.9647
6.2030 5.1269 -2.8535 0.9664
5.1957 6.1455 -2.8535 0.9664
2.7243 7.5723 -2.8535 0.9664
0.6269 8.0230 -2.8535 0.9664
-0.0896 8.0470 -2.8535 0.9664
-0.8055 8.0070 -2.8535 0.9664
-1.5150 7.9036 -2.8535 0.9664
-2.8923 7.5097 -2.8535 0.9664
-5.8467 5.5298 -2.8535 0.9664
-6.3156 4.9874 -2.8535 0.9664
-7.4791 3.9910 -3.0059 0.9647
-8.0682 2.6016 -3.0059 0.9647
-8.4016 1.1299 -3.0059 0.9647
-8.4688 0.3776 -3.0059 0.9647
-8.0682 -2.6017 -3.0059 0.9647
-7.8046 -3.3094 -3.0059 0.9647
-7.0942 -4.6408 -3.0059 0.9647
-5.6160 -6.3501 -3.0059 0.9647
-3.7388 -7.6082 -3.0059 0.9647
4.2386 -7.3415 -3.0059 0.9647
4.8752 -6.9351 -3.0059 0.9647
5.4732 -6.4737 -3.0059 0.9647
6.0276 -5.9608 -3.0059 0.9647
7.3883 -4.1566 -3.0059 0.9647
8.0082 -2.7807 -3.0059 0.9647
8.3744 -1.3168 -3.0059 0.9647
8.3074 1.6885 -3.0059 0.9647
8.1241 2.4212 -3.0059 0.9647
7.8764 3.1347 -3.0059 0.9647
7.5661 3.8233 -3.0059 0.9647
7.1958 4.4816 -3.0059 0.9647
5.9684 5.3981 -2.8535 0.9664
4.9168 6.3708 -2.8535 0.9664
4.3302 6.7832 -2.8535 0.9664
3.7093 7.1416 -2.8535 0.9664
3.0589 7.4435 -2.8535 0.9664
1.6907 7.8679 -2.8535 0.9664
0.2689 8.0430 -2.8535 0.9664
-0.4480 8.0350 -2.8535 0.9664
-3.2240 7.3734 -2.8535 0.9664
-4.4802 6.6850 -2.8535 0.9664
-5.0575 6.2597 -2.8535 0.9664
-6.6434 4.7816 -2.9024 0.9659
-7.6494 3.6538 -3.0059 0.9647
-8.1761 2.2396 -3.0059 0.9647
-8.3430 1.5031 -3.0059 0.9647
-8.4436 0.7545 -3.0059 0.9647
-8.0179 -0.7165 -3.0059 0.9662
-7.9224 -1.4273 -3.0059 0.9662
-7.7639 -2.1267 -3.0059 0.9662
-7.5438 -2.8093 -3.0059 0.9662
-7.2638 -3.4696 -3.0059 0.9662
-6.9261 -4.1023 -3.0059 0.9662
-6.5335 -4.7025 -3.0059 0.9662
-5.5962 -5.7864 -3.0059 0.9662
-5.0590 -6.2616 -3.0059 0.9662
-4.4816 -6.6870 -3.0059 0.9662
-3.8686 -7.0594 -3.0059 0.9662
-2.5557 -7.6335 -3.0059 0.9662
-1.1618 -7.9656 -3.0059 0.9662
-0.4482 -8.0374 -3.0059 0.9662
0.2690 -8.0454 -3.0059 0.9662
2.3850 -7.6884 -3.0059 0.9662
3.0598 -7.4457 -3.0059 0.9662
3.7104 -7.1438 -3.0059 0.9662
6.4271 -4.8469 -3.0059 0.9662
6.8330 -4.2557 -3.0059 0.9662
7.4793 -2.9767 -3.0059 0.9662
7.7146 -2.2992 -3.0059 0.9662
7.8886 -1.6034 -3.0059 0.9662
8.0000 -0.8949 -3.0059 0.9662
8.0479 -0.1793 -3.0059 0.9662
8.0319 0.5377 -3.0059 0.9662
7.9522 1.2504 -3.0059 0.9662
7.8093 1.9533 -3.0059 0.9662
7.6045 2.6406 -3.0059 0.9662
7.3393 3.3069 -3.0059 0.9662
7.0158 3.9471 -3.0059 0.9662
5.8903 4.8684 -2.8535 0.9679
4.3948 6.2516 -2.8535 0.9679
3.2167 6.9318 -2.8535 0.9679
1.9367 7.3923 -2.8535 0.9679
1.2711 7.5354 -2.8535 0.9679
0.5953 7.6185 -2.8535 0.9679
-0.0851 7.6413 -2.8535 0.9679
-0.7649 7.6034 -2.8535 0.9679
-1.4386 7.5051 -2.8535 0.9679
-3.9674 6.5312 -2.8535 0.9679
-4.5329 6.1522 -2.8535 0.9679
-5.5519 5.2510 -2.8535 0.9679
-7.6614 2.4705 -3.0059 0.9662
-7.8509 1.7788 -3.0059 0.9662
-8.0419 0.3586 -3.0059 0.9662
-7.9781 -1.0729 -3.0059 0.9662
-7.1020 -3.7898 -3.0059 0.9662
-6.7365 -4.4068 -3.0059 0.9662
-6.3176 -4.9889 -3.0059 0.9662
-4.7750 -6.4807 -3.0059 0.9662
-3.5503 -7.2246 -3.0059 0.9662
-2.2131 -7.7397 -3.0059 0.9662
0.6271 -8.0254 -3.0059 0.9662
2.7251 -7.5746 -3.0059 0.9662
3.3885 -7.3020 -3.0059 0.9662
4.6295 -6.5855 -3.0059 0.9662
5.1972 -6.1473 -3.0059 0.9662
5.7238 -5.6603 -3.0059 0.9662
6.6367 -4.5558 -3.0059 0.9662
7.9522 -1.2504 -3.0059 0.9662
8.0319 -0.5377 -3.0059 0.9662
8.0000 0.8949 -3.0059 0.9662
7.4793 2.9767 -3.0059 0.9662
6.2883 4.7423 -2.9410 0.9669
5.6675 5.1260 -2.8535 0.9679
5.1888 5.6101 -2.8535 0.9679
4.6689 6.0496 -2.8535 0.9679
4.1119 6.4412 -2.8535 0.9679
2.2641 7.2987 -2.8535 0.9679
1.6055 7.4712 -2.8535 0.9679
0.2554 7.6375 -2.8535 0.9679
-0.4254 7.6299 -2.8535 0.9679
-1.1029 7.5618 -2.8535 0.9679
-3.6725 6.7015 -2.8535 0.9679
-4.2544 6.3480 -2.8535 0.9679
-5.3125 5.4931 -2.8535 0.9679
-5.7803 4.9985 -2.8535 0.9679
-7.5438 2.8093 -3.0059 0.9662
-7.7639 2.1268 -3.0059 0.9662
-8.0179 0.7165 -3.0059 0.9662
-7.6286 -0.6817 -3.0059 0.9676
-6.2162 -4.4741 -3.0059 0.9676
-5.3244 -5.5054 -3.0059 0.9676
-4.8133 -5.9575 -3.0059 0.9676
-3.6808 -6.7165 -3.0059 0.9676
-3.0683 -7.0175 -3.0059 0.9676
-1.7755 -7.4503 -3.0059 0.9676
-1.1053 -7.5787 -3.0059 0.9676
0.2559 -7.6547 -3.0059 0.9676
0.9362 -7.6015 -3.0059 0.9676
2.9112 -7.0841 -3.0059 0.9676
4.1212 -6.4557 -3.0059 0.9676
5.2005 -5.6227 -3.0059 0.9676
5.6803 -5.1375 -3.0059 0.9676
6.5012 -4.0490 -3.0059 0.9676
6.8358 -3.4543 -3.0059 0.9676
7.1161 -2.8321 -3.0059 0.9676
7.3399 -2.1875 -3.0059 0.9676
7.5055 -1.5255 -3.0059 0.9676
7.6419 0.5116 -3.0059 0.9676
7.5660 1.1897 -3.0059 0.9676
7.2352 2.5123 -3.0059 0.9676
6.9829 3.1463 -3.0059 0.9676
6.6751 3.7554 -3.0059 0.9676
6.3144 4.3346 -3.0059 0.9676
5.7430 4.7467 -2.9242 0.9685
5.1697 5.1124 -2.8535 0.9692
4.6941 5.5523 -2.8535 0.9692
4.1813 5.9480 -2.8535 0.9692
3.0605 6.5951 -2.8535 0.9692
2.4613 6.8414 -2.8535 0.9692
-0.0810 7.2702 -2.8535 0.9692
-0.7278 7.2341 -2.8535 0.9692
-1.3687 7.1406 -2.8535 0.9692
-4.8167 5.4463 -2.8535 0.9692
-6.0107 4.7467 -3.0059 0.9676
-7.5906 1.0208 -3.0059 0.9676
-7.5906 -1.0208 -3.0059 0.9676
-7.4696 -1.6924 -3.0059 0.9676
-7.0512 -2.9900 -3.0059 0.9676
-6.7571 -3.6057 -3.0059 0.9676
-5.5644 -5.2628 -3.0059 0.9676
-4.5431 -6.1660 -3.0059 0.9676
-2.1056 -7.3638 -3.0059 0.9676
-0.7666 -7.6205 -3.0059 0.9676
-0.0853 -7.6585 -3.0059 0.9676
0.5967 -7.6357 -3.0059 0.9676
3.2239 -6.9473 -3.0059 0.9676
3.8295 -6.6328 -3.0059 0.9676
4.4046 -6.2656 -3.0059 0.9676
4.9448 -5.8488 -3.0059 0.9676
5.4458 -5.3854 -3.0059 0.9676
6.3144 -4.3346 -3.0059 0.9676
7.2352 -2.5123 -3.0059 0.9676
7.4301 -1.8584 -3.0059 0.9676
7.6115 0.8515 -3.0059 0.9676
6.8358 3.4543 -3.0059 0.9676
6.5012 4.0490 -3.0059 0.9676
6.1150 4.6116 -3.0059 0.9676
5.3923 4.8770 -2.8535 0.9692
4.9368 5.3376 -2.8535 0.9692
4.4421 5.7559 -2.8535 0.9692
3.9122 6.1284 -2.8535 0.9692
3.3512 6.4523 -2.8535 0.9692
2.7636 6.7249 -2.8535 0.9692
0.8888 7.2161 -2.8535 0.9692
0.2430 7.2666 -2.8535 0.9692
-0.4048 7.2594 -2.8535 0.9692
-1.6855 7.0726 -2.8535 0.9692
-2.9128 6.6617 -2.8535 0.9692
-4.5693 5.6555 -2.8535 0.9692
-5.0545 5.2263 -2.8535 0.9692
-5.5332 4.7847 -2.8709 0.9691
-6.2162 4.4742 -3.0059 0.9676
-6.5898 3.9031 -3.0059 0.9676
-6.9110 3.3011 -3.0059 0.9676
-7.5376 1.3580 -3.0059 0.9676
-7.2708 -0.6497 -3.0059 0.9689
-7.1841 -1.2943 -3.0059 0.9689
-6.8408 -2.5476 -3.0059 0.9689
-6.5869 -3.1463 -3.0059 0.9689
-6.2808 -3.7201 -3.0059 0.9689
-5.9247 -4.2644 -3.0059 0.9689
-5.5217 -4.7747 -3.0059 0.9689
-5.0748 -5.2473 -3.0059 0.9689
-4.5876 -5.6781 -3.0059 0.9689
-3.5081 -6.4015 -3.0059 0.9689
-1.0535 -7.2234 -3.0059 0.9689
-0.4064 -7.2884 -3.0059 0.9689
0.2439 -7.2957 -3.0059 0.9689
2.1628 -6.9721 -3.0059 0.9689
2.7747 -6.7519 -3.0059 0.9689
3.9279 -6.1529 -3.0059 0.9689
4.4599 -5.7789 -3.0059 0.9689
5.8282 -4.3953 -3.0059 0.9689
6.5152 -3.2922 -3.0059 0.9689
6.7824 -2.6993 -3.0059 0.9689
6.9957 -2.0849 -3.0059 0.9689
7.1535 -1.4540 -3.0059 0.9689
7.2980 -0.1626 -3.0059 0.9689
7.2835 0.4876 -3.0059 0.9689
7.2112 1.1339 -3.0059 0.9689
7.0817 1.7713 -3.0059 0.9689
6.3621 3.5793 -3.0059 0.9689
5.6267 4.6506 -3.0059 0.9689
3.4649 6.0013 -2.8535 0.9705
2.3459 6.5205 -2.8535 0.9705
1.7562 6.7035 -2.8535 0.9705
1.1526 6.8332 -2.8535 0.9705
0.5399 6.9087 -2.8535 0.9705
-0.0772 6.9293 -2.8535 0.9705
-0.6936 6.8949 -2.8535 0.9705
-1.3046 6.8058 -2.8535 0.9705
-3.0563 6.2193 -2.8535 0.9705
-5.7289 4.5240 -3.0059 0.9689
-6.1088 3.9962 -3.0059 0.9689
-6.7206 2.8498 -3.0059 0.9689
-7.1194 1.6130 -3.0059 0.9689
-7.2347 0.9730 -3.0059 0.9689
-7.2926 -0.3252 -3.0059 0.9689
-7.2347 -0.9729 -3.0059 0.9689
-6.7206 -2.8497 -3.0059 0.9689
-4.8360 -5.4681 -3.0059 0.9689
-3.2195 -6.5515 -3.0059 0.9689
-2.6236 -6.8120 -3.0059 0.9689
-2.0069 -7.0185 -3.0059 0.9689
-0.7307 -7.2631 -3.0059 0.9689
-0.0813 -7.2993 -3.0059 0.9689
0.5687 -7.2776 -3.0059 0.9689
1.2142 -7.1981 -3.0059 0.9689
3.0727 -6.6216 -3.0059 0.9689
3.6499 -6.3218 -3.0059 0.9689
4.1981 -5.9718 -3.0059 0.9689
4.7130 -5.5745 -3.0059 0.9689
5.1904 -5.1329 -3.0059 0.9689
5.6267 -4.6506 -3.0059 0.9689
6.3621 -3.5792 -3.0059 0.9689
6.8959 -2.3945 -3.0059 0.9689
7.0816 -1.7713 -3.0059 0.9689
7.2835 -0.4876 -3.0059 0.9689
7.2980 0.1627 -3.0059 0.9689
7.2545 0.8115 -3.0059 0.9689
7.1535 1.4540 -3.0059 0.9689
6.9957 2.0850 -3.0059 0.9689
5.2513 4.7495 -2.9156 0.9698
4.7053 5.0873 -2.8535 0.9705
4.2338 5.4860 -2.8535 0.9705
3.7288 5.8410 -2.8535 0.9705
0.8471 6.8778 -2.8535 0.9705
0.2316 6.9259 -2.8535 0.9705
-0.3858 6.9190 -2.8535 0.9705
-4.3550 5.3903 -2.8535 0.9705
-4.8175 4.9812 -2.8535 0.9705
-6.5869 3.1463 -3.0059 0.9689
-7.2708 0.6497 -3.0059 0.9689
-6.9409 -0.6202 -3.0059 0.9701
-6.8581 -1.2355 -3.0059 0.9701
-6.7209 -1.8410 -3.0059 0.9701
-6.5304 -2.4319 -3.0059 0.9701
-6.2880 -3.0035 -3.0059 0.9701
-5.9957 -3.5513 -3.0059 0.9701
-3.8796 -5.7887 -3.0059 0.9701
-2.2124 -6.6080 -3.0059 0.9701
-1.6154 -6.7787 -3.0059 0.9701
-1.0057 -6.8955 -3.0059 0.9701
-0.3880 -6.9577 -3.0059 0.9701
2.6488 -6.4454 -3.0059 0.9701
3.7496 -5.8737 -3.0059 0.9701
4.7317 -5.1158 -3.0059 0.9701
5.1682 -4.6744 -3.0059 0.9701
5.9151 -3.6840 -3.0059 0.9701
6.2195 -3.1429 -3.0059 0.9701
6.4746 -2.5768 -3.0059 0.9701
6.6782 -1.9903 -3.0059 0.9701
6.9668 -0.1552 -3.0059 0.9701
6.8839 1.0825 -3.0059 0.9701
6.7603 1.6909 -3.0059 0.9701
6.5829 2.2859 -3.0059 0.9701
6.3534 2.8627 -3.0059 0.9701
5.7451 3.9438 -3.0059 0.9701
4.8041 4.7509 -2.9145 0.9710
4.2710 5.0517 -2.8535 0.9716
3.8044 5.4118 -2.8535 0.9716
3.3076 5.7289 -2.8535 0.9716
2.7846 6.0006 -2.8535 0.9716
2.2394 6.2246 -2.8535 0.9716
0.5153 6.5951 -2.8535 0.9716
-0.6621 6.5820 -2.8535 0.9716
-2.3776 6.1732 -2.8535 0.9716
-2.9176 5.9371 -2.8535 0.9716
-3.9240 5.3257 -2.8535 0.9716
-4.3824 4.9553 -2.8535 0.9716
-5.0345 4.7616 -2.9891 0.9703
-5.4689 4.3187 -3.0059 0.9701
-6.4156 2.7204 -3.0059 0.9701
-6.9616 0.3104 -3.0059 0.9701
-6.9063 -0.9288 -3.0059 0.9701
-6.6322 -2.1386 -3.0059 0.9701
-6.4156 -2.7204 -3.0059 0.9701
-6.1480 -3.2806 -3.0059 0.9701
-5.8316 -3.8148 -3.0059 0.9701
-5.4689 -4.3187 -3.0059 0.9701
-5.0628 -4.7884 -3.0059 0.9701
-4.6165 -5.2199 -3.0059 0.9701
-4.1336 -5.6101 -3.0059 0.9701
-3.0734 -6.2541 -3.0059 0.9701
-1.9158 -6.7000 -3.0059 0.9701
-1.3119 -6.8439 -3.0059 0.9701
-0.0776 -6.9681 -3.0059 0.9701
0.5429 -6.9473 -3.0059 0.9701
1.1591 -6.8714 -3.0059 0.9701
3.4843 -6.0349 -3.0059 0.9701
4.0076 -5.7008 -3.0059 0.9701
4.9548 -4.8999 -3.0059 0.9701
5.7451 -3.9438 -3.0059 0.9701
6.0733 -3.4168 -3.0059 0.9701
6.3534 -2.8627 -3.0059 0.9701
6.5829 -2.2858 -3.0059 0.9701
6.7603 -1.6909 -3.0059 0.9701
6.8289 1.3880 -3.0059 0.9701
6.2195 3.1429 -3.0059 0.9701
5.9151 3.6840 -3.0059 0.9701
5.1682 4.6744 -3.0059 0.9701
4.0417 5.2370 -2.8535 0.9716
3.0491 5.8706 -2.8535 0.9716
2.5145 6.1187 -2.8535 0.9716
1.9599 6.3182 -2.8535 0.9716
0.2210 6.6115 -2.8535 0.9716
-0.9547 6.5460 -2.8535 0.9716
-2.1002 6.2730 -2.8535 0.9716
-2.6502 6.0611 -2.8535 0.9716
-3.1791 5.8012 -2.8535 0.9716
-5.6558 4.0708 -3.0059 0.9701
-5.9957 3.5513 -3.0059 0.9701
-6.8581 1.2356 -3.0059 0.9701
-6.6618 0.0000 -3.0059 0.9712
-6.5563 -1.1812 -3.0059 0.9712
-5.0391 -4.3574 -3.0059 0.9712
-4.6312 -4.7887 -3.0059 0.9712
-3.7088 -5.5339 -3.0059 0.9712
-2.6689 -6.1038 -3.0059 0.9712
-1.5443 -6.4803 -3.0059 0.9712
-0.3709 -6.6514 -3.0059 0.9712
0.2226 -6.6581 -3.0059 0.9712
0.8143 -6.6118 -3.0059 0.9712
1.3996 -6.5131 -3.0059 0.9712
3.5846 -5.6152 -3.0059 0.9712
4.5234 -4.8906 -3.0059 0.9712
4.9407 -4.4686 -3.0059 0.9712
5.6548 -3.5218 -3.0059 0.9712
6.1896 -2.4634 -3.0059 0.9712
6.5283 -1.3269 -3.0059 0.9712
6.6205 -0.7406 -3.0059 0.9712
6.6469 0.4450 -3.0059 0.9712
6.0737 2.7367 -3.0059 0.9712
5.1349 4.2441 -3.0059 0.9712
3.6369 5.1736 -2.8535 0.9726
3.1620 5.4768 -2.8535 0.9726
2.6620 5.7365 -2.8535 0.9726
1.6027 6.1176 -2.8535 0.9726
-0.6330 6.2923 -2.8535 0.9726
-1.1905 6.2110 -2.8535 0.9726
-1.7386 6.0804 -2.8535 0.9726
-4.2273 4.7799 -2.8792 0.9724
-4.8400 4.5776 -3.0059 0.9712
-5.5749 3.6470 -3.0059 0.9712
-6.3403 2.0445 -3.0059 0.9712
-6.4971 1.4721 -3.0059 0.9712
-6.6552 -0.2967 -3.0059 0.9712
-6.6024 -0.8879 -3.0059 0.9712
-6.4971 -1.4720 -3.0059 0.9712
-6.3403 -2.0445 -3.0059 0.9712
-6.1332 -2.6007 -3.0059 0.9712
-5.5749 -3.6469 -3.0059 0.9712
-4.4133 -4.9902 -3.0059 0.9712
-3.9516 -5.3632 -3.0059 0.9712
-3.4586 -5.6936 -3.0059 0.9712
-1.8315 -6.4051 -3.0059 0.9712
-0.0742 -6.6614 -3.0059 0.9712
0.5190 -6.6415 -3.0059 0.9712
1.1081 -6.5690 -3.0059 0.9712
1.6883 -6.4443 -3.0059 0.9712
2.2552 -6.2684 -3.0059 0.9712
3.3309 -5.7693 -3.0059 0.9712
5.4923 -3.7702 -3.0059 0.9712
5.8060 -3.2664 -3.0059 0.9712
6.5809 -1.0348 -3.0059 0.9712
6.6601 0.1484 -3.0059 0.9712
6.5283 1.3270 -3.0059 0.9712
6.3843 1.9027 -3.0059 0.9712
6.1896 2.4634 -3.0059 0.9712
5.9458 3.0046 -3.0059 0.9712
5.6548 3.5218 -3.0059 0.9712
4.3941 4.7509 -2.9200 0.9720
3.8638 5.0065 -2.8535 0.9726
2.9149 5.6122 -2.8535 0.9726
2.4038 5.8494 -2.8535 0.9726
1.8737 6.0401 -2.8535 0.9726
1.3286 6.1829 -2.8535 0.9726
-0.3521 6.3142 -2.8535 0.9726
-0.9127 6.2579 -2.8535 0.9726
-3.5208 5.2534 -2.8535 0.9726
-3.9744 4.9191 -2.8535 0.9726
-4.6041 4.7606 -2.9883 0.9714
-5.0391 4.3575 -3.0059 0.9712
-6.0112 2.8713 -3.0059 0.9712
-6.2430 2.3249 -3.0059 0.9712
-6.5563 1.1812 -3.0059 0.9712
-6.6354 0.5929 -3.0059 0.9712
-6.3516 -0.5676 -3.0059 0.9722
-6.2759 -1.1306 -3.0059 0.9722
-5.9760 -2.2255 -3.0059 0.9722
-4.4332 -4.5838 -3.0059 0.9722
-4.0076 -4.9602 -3.0059 0.9722
-3.0646 -5.5922 -3.0059 0.9722
-2.5547 -5.8428 -3.0059 0.9722
-1.4783 -6.2032 -3.0059 0.9722
0.2131 -6.3733 -3.0059 0.9722
1.3397 -6.2345 -3.0059 0.9722
1.8893 -6.0906 -3.0059 0.9722
3.4313 -5.3750 -3.0059 0.9722
4.3299 -4.6815 -3.0059 0.9722
4.7294 -4.2775 -3.0059 0.9722
5.0914 -3.8396 -3.0059 0.9722
5.9249 -2.3580 -3.0059 0.9722
6.1113 -1.8213 -3.0059 0.9722
6.2491 -1.2702 -3.0059 0.9722
6.3374 -0.7089 -3.0059 0.9722
6.3753 -0.1420 -3.0059 0.9722
6.1863 1.5473 -3.0059 0.9722
6.0241 2.0918 -3.0059 0.9722
5.5577 3.1267 -3.0059 0.9722
5.2574 3.6090 -3.0059 0.9722
4.0155 4.7496 -2.9318 0.9729
3.0268 5.2426 -2.8535 0.9736
2.5482 5.4912 -2.8535 0.9736
2.0493 5.6962 -2.8535 0.9736
1.5342 5.8560 -2.8535 0.9736
1.0069 5.9693 -2.8535 0.9736
0.4716 6.0352 -2.8535 0.9736
-1.1396 5.9453 -2.8535 0.9736
-1.6643 5.8203 -2.8535 0.9736
-2.1757 5.6491 -2.8535 0.9736
-3.5909 4.8736 -2.8535 0.9736
-4.2084 4.7585 -2.9944 0.9723
-4.6330 4.3818 -3.0059 0.9722
-5.0046 3.9521 -3.0059 0.9722
-5.6260 3.0021 -3.0059 0.9722
-6.2193 1.4091 -3.0059 0.9722
-6.3200 0.8500 -3.0059 0.9722
-6.3706 0.2841 -3.0059 0.9722
-6.3200 -0.8499 -3.0059 0.9722
-5.8709 -2.4895 -3.0059 0.9722
-5.6260 -3.0021 -3.0059 0.9722
-5.3365 -3.4910 -3.0059 0.9722
-4.6330 -4.3818 -3.0059 0.9722
-4.2246 -4.7768 -3.0059 0.9722
-3.7826 -5.1338 -3.0059 0.9722
-3.3107 -5.4501 -3.0059 0.9722
-2.2919 -5.9508 -3.0059 0.9722
-1.7532 -6.1312 -3.0059 0.9722
-0.6383 -6.3449 -3.0059 0.9722
-0.0710 -6.3765 -3.0059 0.9722
0.4968 -6.3575 -3.0059 0.9722
1.6161 -6.1687 -3.0059 0.9722
2.6843 -5.7844 -3.0059 0.9722
4.5342 -4.4839 -3.0059 0.9722
6.0241 -2.0918 -3.0059 0.9722
6.1863 -1.5473 -3.0059 0.9722
5.9249 2.3580 -3.0059 0.9722
5.6915 2.8761 -3.0059 0.9722
5.4129 3.3712 -3.0059 0.9722
5.0914 3.8396 -3.0059 0.9722
4.3299 4.6815 -3.0059 0.9722
3.2573 5.1025 -2.8535 0.9736
1.2718 5.9185 -2.8535 0.9736
0.2023 6.0502 -2.8535 0.9736
-0.3370 6.0442 -2.8535 0.9736
-0.8736 5.9902 -2.8535 0.9736
-1.4033 5.8887 -2.8535 0.9736
-2.4252 5.5466 -2.8535 0.9736
-2.9092 5.3087 -2.8535 0.9736
-5.4867 3.2498 -3.0059 0.9722
-5.7542 2.7486 -3.0059 0.9722
-6.0146 -1.0836 -3.0059 0.9731
-5.8943 -1.6146 -3.0059 0.9731
-5.5146 -2.6341 -3.0059 0.9731
-5.2583 -3.1145 -3.0059 0.9731
-4.9602 -3.5701 -3.0059 0.9731
-2.9370 -5.3594 -3.0059 0.9731
-1.9403 -5.7952 -3.0059 0.9731
-1.4167 -5.9449 -3.0059 0.9731
-0.8820 -6.0474 -3.0059 0.9731
-0.3402 -6.1019 -3.0059 0.9731
1.2839 -5.9750 -3.0059 0.9731
1.8107 -5.8370 -3.0059 0.9731
2.3230 -5.6527 -3.0059 0.9731
2.8169 -5.4235 -3.0059 0.9731
3.2884 -5.1512 -3.0059 0.9731
4.8794 -3.6797 -3.0059 0.9731
5.4545 -2.7563 -3.0059 0.9731
5.6782 -2.2599 -3.0059 0.9731
5.8568 -1.7455 -3.0059 0.9731
5.9889 -1.2173 -3.0059 0.9731
6.0735 -0.6794 -3.0059 0.9731
5.5719 2.5106 -3.0059 0.9731
5.3263 2.9965 -3.0059 0.9731
4.7107 3.8935 -3.0059 0.9731
0.4520 5.7839 -2.8535 0.9745
-0.0646 5.8012 -2.8535 0.9745
-0.5807 5.7724 -2.8535 0.9745
-1.0922 5.6979 -2.8535 0.9745
-2.0851 5.4139 -2.8535 0.9745
-2.5587 5.2069 -2.8535 0.9745
-4.0487 4.5779 -3.0059 0.9731
-4.4401 4.1994 -3.0059 0.9731
-4.7962 3.7875 -3.0059 0.9731
-5.1143 3.3457 -3.0059 0.9731
-5.3918 2.8771 -3.0059 0.9731
-5.6265 2.3858 -3.0059 0.9731
-5.8165 1.8756 -3.0059 0.9731
-5.9603 1.3504 -3.0059 0.9731
-6.0569 0.8146 -3.0059 0.9731
-6.1053 0.2722 -3.0059 0.9731
-6.1053 -0.2722 -3.0059 0.9731
-6.0569 -0.8146 -3.0059 0.9731
-5.8165 -1.8755 -3.0059 0.9731
-5.3918 -2.8771 -3.0059 0.9731
-5.1143 -3.3456 -3.0059 0.9731
-4.7962 -3.7875 -3.0059 0.9731
-4.4401 -4.1994 -3.0059 0.9731
-1.6802 -5.8759 -3.0059 0.9731
-1.1505 -6.0021 -3.0059 0.9731
-0.0681 -6.1110 -3.0059 0.9731
0.4761 -6.0928 -3.0059 0.9731
1.0165 -6.0262 -3.0059 0.9731
1.5488 -5.9119 -3.0059 0.9731
2.5725 -5.5436 -3.0059 0.9731
3.5146 -4.9996 -3.0059 0.9731
3.9457 -4.6670 -3.0059 0.9731
4.3454 -4.2973 -3.0059 0.9731
4.7106 -3.8934 -3.0059 0.9731
5.0385 -3.4587 -3.0059 0.9731
5.5719 -2.5105 -3.0059 0.9731
5.9288 -1.4829 -3.0059 0.9731
5.4545 2.7563 -3.0059 0.9731
4.8794 3.6798 -3.0059 0.9731
4.5325 4.0994 -3.0059 0.9731
2.6741 5.1485 -2.8535 0.9745
1.7189 5.5411 -2.8535 0.9745
1.2189 5.6721 -2.8535 0.9745
-0.3230 5.7926 -2.8535 0.9745
-0.8373 5.7408 -2.8535 0.9745
-1.8419 5.5014 -2.8535 0.9745
-3.2299 4.8193 -2.8535 0.9745
-3.8407 4.7537 -3.0059 0.9731
-4.2486 4.3930 -3.0059 0.9731
-4.6227 3.9974 -3.0059 0.9731
-4.9602 3.5701 -3.0059 0.9731
-5.2583 3.1145 -3.0059 0.9731
-5.5146 2.6341 -3.0059 0.9731
-5.7272 2.1329 -3.0059 0.9731
-5.8943 1.6146 -3.0059 0.9731
-6.0146 1.0836 -3.0059 0.9731
-5.8633 0.0000 -3.0059 0.9740
-5.2907 -2.5271 -3.0059 0.9740
-5.0448 -2.9880 -3.0059 0.9740
-4.7588 -3.4252 -3.0059 0.9740
-4.4350 -3.8351 -3.0059 0.9740
-3.6848 -4.5607 -3.0059 0.9740
-3.2642 -4.8706 -3.0059 0.9740
-2.8178 -5.1418 -3.0059 0.9740
-1.3592 -5.7035 -3.0059 0.9740
-0.8462 -5.8019 -3.0059 0.9740
-0.3264 -5.8542 -3.0059 0.9740
0.1959 -5.8600 -3.0059 0.9740
2.7025 -5.2033 -3.0059 0.9740
3.9812 -4.3044 -3.0059 0.9740
4.3485 -3.9330 -3.0059 0.9740
4.6813 -3.5303 -3.0059 0.9740
4.9769 -3.0997 -3.0059 0.9740
5.8269 -0.6519 -3.0059 0.9740
5.8502 0.3916 -3.0059 0.9740
5.1101 2.8749 -3.0059 0.9740
4.1690 4.1228 -3.0059 0.9740
3.7855 4.4775 -3.0059 0.9740
2.7830 4.8203 -2.8535 0.9753
2.3429 5.0489 -2.8535 0.9753
0.9258 5.4885 -2.8535 0.9753
0.4336 5.5491 -2.8535 0.9753
-1.0478 5.4665 -2.8535 0.9753
-2.0005 5.1941 -2.8535 0.9753
-3.8843 4.3921 -3.0059 0.9740
-4.2598 4.0289 -3.0059 0.9740
-4.9066 3.2098 -3.0059 0.9740
-5.1729 2.7604 -3.0059 0.9740
-5.3980 2.2890 -3.0059 0.9740
-5.7183 1.2956 -3.0059 0.9740
-5.8109 0.7815 -3.0059 0.9740
-5.8574 0.2612 -3.0059 0.9740
-5.8574 -0.2612 -3.0059 0.9740
-5.8109 -0.7815 -3.0059 0.9740
-5.7183 -1.2956 -3.0059 0.9740
-4.9066 -3.2097 -3.0059 0.9740
-4.2598 -4.0289 -3.0059 0.9740
-3.4780 -4.7203 -3.0059 0.9740
-3.0440 -5.0112 -3.0059 0.9740
-2.5859 -5.2622 -3.0059 0.9740
-2.1073 -5.4715 -3.0059 0.9740
-0.5869 -5.8338 -3.0059 0.9740
-0.0653 -5.8629 -3.0059 0.9740
0.9752 -5.7816 -3.0059 0.9740
2.9316 -5.0777 -3.0059 0.9740
3.3719 -4.7966 -3.0059 0.9740
3.7855 -4.4775 -3.0059 0.9740
4.8339 -3.3183 -3.0059 0.9740
5.1101 -2.8749 -3.0059 0.9740
5.3457 -2.4087 -3.0059 0.9740
5.5388 -1.9233 -3.0059 0.9740
5.6880 -1.4227 -3.0059 0.9740
5.7921 -0.9108 -3.0059 0.9740
5.8502 -0.3916 -3.0059 0.9740
5.4477 2.1681 -3.0059 0.9740
5.2331 2.6444 -3.0059 0.9740
4.3485 3.9330 -3.0059 0.9740
3.5823 4.6417 -3.0059 0.9740
2.5655 4.9395 -2.8535 0.9753
2.1157 5.1482 -2.8535 0.9753
1.6491 5.3161 -2.8535 0.9753
1.1694 5.4418 -2.8535 0.9753
0.1860 5.5629 -2.8535 0.9753
-0.3099 5.5574 -2.8535 0.9753
-0.8033 5.5078 -2.8535 0.9753
-2.2299 5.0998 -2.8535 0.9753
-2.6749 4.8811 -2.8535 0.9753
-3.1940 4.7658 -2.9413 0.9745
-3.6848 4.5607 -3.0059 0.9740
-4.4350 3.8352 -3.0059 0.9740
-4.7588 3.4252 -3.0059 0.9740
-5.2907 2.5271 -3.0059 0.9740
-5.7704 1.0396 -3.0059 0.9740
-5.6307 0.0000 -3.0059 0.9748
-5.6084 -0.5012 -3.0059 0.9748
-5.4307 -1.4876 -3.0059 0.9748
-5.0809 -2.4269 -3.0059 0.9748
-4.8447 -2.8695 -3.0059 0.9748
-4.5700 -3.2893 -3.0059 0.9748
-3.1348 -4.6774 -3.0059 0.9748
-0.3135 -5.6220 -3.0059 0.9748
0.1882 -5.6275 -3.0059 0.9748
0.6883 -5.5885 -3.0059 0.9748
1.6682 -5.3779 -3.0059 0.9748
2.1403 -5.2081 -3.0059 0.9748
2.5953 -4.9969 -3.0059 0.9748
3.4402 -4.4576 -3.0059 0.9748
4.1760 -3.7770 -3.0059 0.9748
5.2316 -2.0821 -3.0059 0.9748
5.3962 -1.6082 -3.0059 0.9748
5.5179 -1.1215 -3.0059 0.9748
5.5958 -0.6260 -3.0059 0.9748
5.6293 -0.1254 -3.0059 0.9748
5.6181 0.3761 -3.0059 0.9748
5.5624 0.8747 -3.0059 0.9748
5.3192 1.8470 -3.0059 0.9748
4.9074 2.7609 -3.0059 0.9748
4.3401 3.5872 -3.0059 0.9748
4.0036 3.9593 -3.0059 0.9748
3.6353 4.2999 -3.0059 0.9748
2.2500 4.8486 -2.8535 0.9761
1.8095 5.0296 -2.8535 0.9761
-0.0595 5.3449 -2.8535 0.9761
-0.5350 5.3184 -2.8535 0.9761
-1.4695 5.1393 -2.8535 0.9761
-2.8910 4.7592 -2.9727 0.9751
-3.3400 4.5331 -3.0059 0.9748
-4.7120 3.0825 -3.0059 0.9748
-5.1839 2.1982 -3.0059 0.9748
-5.3590 1.7281 -3.0059 0.9748
-5.5805 0.7505 -3.0059 0.9748
-5.6251 0.2508 -3.0059 0.9748
-5.6251 -0.2508 -3.0059 0.9748
-5.3590 -1.7281 -3.0059 0.9748
-5.1839 -2.1982 -3.0059 0.9748
-4.4190 -3.4896 -3.0059 0.9748
-3.7302 -4.2178 -3.0059 0.9748
-3.3400 -4.5331 -3.0059 0.9748
-2.4834 -5.0535 -3.0059 0.9748
-2.0237 -5.2545 -3.0059 0.9748
-1.5480 -5.4137 -3.0059 0.9748
-0.5636 -5.6024 -3.0059 0.9748
-0.0627 -5.6304 -3.0059 0.9748
1.4270 -5.4469 -3.0059 0.9748
1.9062 -5.2983 -3.0059 0.9748
3.6353 -4.2999 -3.0059 0.9748
4.0036 -3.9592 -3.0059 0.9748
4.3401 -3.5872 -3.0059 0.9748
5.1337 -2.3131 -3.0059 0.9748
5.4624 -1.3662 -3.0059 0.9748
5.5624 -0.8746 -3.0059 0.9748
5.6181 -0.3761 -3.0059 0.9748
5.6293 0.1255 -3.0059 0.9748
5.5179 1.1216 -3.0059 0.9748
5.0255 2.5395 -3.0059 0.9748
4.4956 3.3903 -3.0059 0.9748
4.1760 3.7770 -3.0059 0.9748
3.0254 4.7392 -3.0015 0.9748
2.4754 4.7666 -2.8673 0.9759
1.5837 5.1053 -2.8535 0.9761
1.1230 5.2260 -2.8535 0.9761
-0.2976 5.3370 -2.8535 0.9761
-1.2391 5.1996 -2.8535 0.9761
-1.6970 5.0687 -2.8535 0.9761
-2.1414 4.8975 -2.8535 0.9761
-2.6147 4.7712 -2.9045 0.9756
-4.2591 3.6830 -3.0059 0.9748
-4.5700 3.2894 -3.0059 0.9748
-5.0808 2.4269 -3.0059 0.9748
-5.2767 1.9651 -3.0059 0.9748
-5.4307 1.4876 -3.0059 0.9748
-5.5415 0.9984 -3.0059 0.9748
-5.3907 -0.4817 -3.0059 0.9755
-5.3265 -0.9596 -3.0059 0.9755
-5.2199 -1.4299 -3.0059 0.9755
-4.3927 -3.1616 -3.0059 0.9755
-4.0939 -3.5401 -3.0059 0.9755
-3.4013 -4.2098 -3.0059 0.9755
-2.6010 -4.7462 -3.0059 0.9755
-1.2547 -5.2648 -3.0059 0.9755
-0.3013 -5.4038 -3.0059 0.9755
0.1809 -5.4092 -3.0059 0.9755
2.0572 -5.0060 -3.0059 0.9755
3.3067 -4.2846 -3.0059 0.9755
3.6749 -3.9733 -3.0059 0.9755
4.0140 -3.6304 -3.0059 0.9755
4.5941 -2.8612 -3.0059 0.9755
5.0286 -2.0013 -3.0059 0.9755
5.4109 -0.1206 -3.0059 0.9755
5.2505 1.3132 -3.0059 0.9755
5.1127 1.7754 -3.0059 0.9755
4.9344 2.2233 -3.0059 0.9755
4.1717 3.4480 -3.0059 0.9755
3.8483 3.8056 -3.0059 0.9755
3.4943 4.1331 -3.0059 0.9755
3.1125 4.4277 -3.0059 0.9755
0.4003 5.1222 -2.8535 0.9768
-0.0572 5.1375 -2.8535 0.9768
-0.9672 5.0459 -2.8535 0.9768
-1.4125 4.9398 -2.8535 0.9768
-2.3404 4.7626 -2.9473 0.9760
-2.8099 4.6257 -3.0059 0.9755
-3.2104 4.3572 -3.0059 0.9755
-3.9321 3.7190 -3.0059 0.9755
-4.2475 3.3542 -3.0059 0.9755
-4.5292 2.9629 -3.0059 0.9755
-5.1510 1.6610 -3.0059 0.9755
-5.2784 1.1960 -3.0059 0.9755
-5.4068 0.2411 -3.0059 0.9755
-5.4068 -0.2411 -3.0059 0.9755
-5.3639 -0.7214 -3.0059 0.9755
-5.2784 -1.1959 -3.0059 0.9755
-5.1510 -1.6610 -3.0059 0.9755
-4.9828 -2.1129 -3.0059 0.9755
-4.7749 -2.5479 -3.0059 0.9755
-4.5292 -2.9629 -3.0059 0.9755
-2.8099 -4.6256 -3.0059 0.9755
-2.3870 -4.8574 -3.0059 0.9755
-1.4879 -5.2036 -3.0059 0.9755
-1.0189 -5.3154 -3.0059 0.9755
-0.0603 -5.4119 -3.0059 0.9755
0.4216 -5.3957 -3.0059 0.9755
0.9002 -5.3368 -3.0059 0.9755
1.3716 -5.2355 -3.0059 0.9755
2.2782 -4.9094 -3.0059 0.9755
3.1125 -4.4276 -3.0059 0.9755
4.4620 -3.0630 -3.0059 0.9755
4.7170 -2.6537 -3.0059 0.9755
4.9344 -2.2233 -3.0059 0.9755
5.3465 -0.8407 -3.0059 0.9755
5.4001 -0.3615 -3.0059 0.9755
5.3787 0.6017 -3.0059 0.9755
4.8305 2.4410 -3.0059 0.9755
4.5941 2.8612 -3.0059 0.9755
4.0140 3.6304 -3.0059 0.9755
3.6749 3.9733 -3.0059 0.9755
3.3067 4.2846 -3.0059 0.9755
2.9122 4.5619 -3.0059 0.9755
0.6280 5.0993 -2.8535 0.9768
0.1717 5.1350 -2.8535 0.9768
-0.7415 5.0840 -2.8535 0.9768
-1.6312 4.8720 -2.8535 0.9768
-3.0131 4.4959 -3.0059 0.9755
-3.4013 4.2099 -3.0059 0.9755
-4.6567 2.7581 -3.0059 0.9755
-4.8837 2.3328 -3.0059 0.9755
-5.0719 1.8888 -3.0059 0.9755
-5.2199 1.4299 -3.0059 0.9755
-5.3907 0.4817 -3.0059 0.9755
-5.2064 0.0000 -3.0059 0.9762
-5.1857 -0.4634 -3.0059 0.9762
-5.0214 -1.3755 -3.0059 0.9762
-4.8791 -1.8170 -3.0059 0.9762
-4.4796 -2.6532 -3.0059 0.9762
-4.2257 -3.0414 -3.0059 0.9762
-3.2720 -4.0498 -3.0059 0.9762
-2.8985 -4.3249 -3.0059 0.9762
-2.5021 -4.5657 -3.0059 0.9762
-2.0858 -4.7704 -3.0059 0.9762
-1.6529 -4.9370 -3.0059 0.9762
0.6364 -5.1674 -3.0059 0.9762
1.0938 -5.0902 -3.0059 0.9762
3.1809 -4.1217 -3.0059 0.9762
3.8613 -3.4924 -3.0059 0.9762
4.1569 -3.1348 -3.0059 0.9762
5.1021 -1.0370 -3.0059 0.9762
5.2051 -0.1160 -3.0059 0.9762
5.1948 0.3478 -3.0059 0.9762
5.1432 0.8087 -3.0059 0.9762
4.9183 1.7079 -3.0059 0.9762
4.5376 2.5528 -3.0059 0.9762
3.3614 3.9759 -3.0059 0.9762
2.6032 4.5089 -3.0059 0.9762
2.1916 4.7227 -3.0059 0.9762
1.2530 4.7825 -2.8544 0.9774
-0.0551 4.9421 -2.8535 0.9774
-1.3656 4.7757 -2.8678 0.9773
-1.8339 4.7616 -2.9459 0.9767
-2.7030 4.4498 -3.0059 0.9762
-3.7826 3.5776 -3.0059 0.9762
-4.0860 3.2267 -3.0059 0.9762
-5.0777 1.1505 -3.0059 0.9762
-5.1600 0.6939 -3.0059 0.9762
-5.2012 0.2319 -3.0059 0.9762
-5.1600 -0.6939 -3.0059 0.9762
-4.9552 -1.5978 -3.0059 0.9762
-3.7826 -3.5775 -3.0059 0.9762
-3.0883 -4.1915 -3.0059 0.9762
-2.7030 -4.4497 -3.0059 0.9762
-2.2962 -4.6727 -3.0059 0.9762
-1.4314 -5.0058 -3.0059 0.9762
-0.9801 -5.1133 -3.0059 0.9762
-0.5211 -5.1802 -3.0059 0.9762
-0.0580 -5.2061 -3.0059 0.9762
0.4056 -5.1906 -3.0059 0.9762
0.8660 -5.1339 -3.0059 0.9762
1.7625 -4.8990 -3.0059 0.9762
2.1916 -4.7227 -3.0059 0.9762
2.9942 -4.2593 -3.0059 0.9762
3.3614 -3.9759 -3.0059 0.9762
3.7019 -3.6609 -3.0059 0.9762
4.0131 -3.3169 -3.0059 0.9762
4.2924 -2.9465 -3.0059 0.9762
4.5376 -2.5528 -3.0059 0.9762
4.7468 -2.1388 -3.0059 0.9762
4.9183 -1.7078 -3.0059 0.9762
5.0508 -1.2633 -3.0059 0.9762
5.1432 -0.8087 -3.0059 0.9762
5.1021 1.0371 -3.0059 0.9762
4.9895 1.4871 -3.0059 0.9762
4.8374 1.9252 -3.0059 0.9762
4.6468 2.3481 -3.0059 0.9762
4.1569 3.1348 -3.0059 0.9762
3.5352 3.8222 -3.0059 0.9762
2.8015 4.3884 -3.0059 0.9762
1.4782 4.7654 -2.8806 0.9772
1.0384 4.8321 -2.8535 0.9774
0.6042 4.9054 -2.8535 0.9774
-0.2753 4.9379 -2.8553 0.9774
-0.7133 4.8907 -2.8535 0.9774
-1.5966 4.7689 -2.9035 0.9770
-3.2720 4.0498 -3.0059 0.9762
-3.6195 3.7425 -3.0059 0.9762
-5.1857 0.4634 -3.0059 0.9762
