ply
format ascii 1.0
element vertex 1607
property float32 x
property float32 y
property float32 z
property float32 I
end_header
8.4639 -6.3829 1.6880 0.9580
8.4011 -6.9437 1.7356 0.9568
8.8338 -6.0641 1.7062 0.9575
8.5518 -5.8705 1.4754 0.9590
8.8612 -5.5188 1.3082 0.9588
7.8946 -6.5251 1.2835 0.9596
7.7127 -6.9757 1.1280 0.9590
7.9519 -5.9968 1.0803 0.9607
8.6852 -5.4092 1.1098 0.9597
7.7652 -6.4181 1.0927 0.9603
8.2546 -5.6664 1.0860 0.9605
9.4994 -5.3443 1.1822 0.9571
7.8947 -7.8072 1.0179 0.9564
7.6855 -6.3522 0.9141 0.9607
8.1734 -5.6107 0.9089 0.9610
9.2455 -5.2014 0.9725 0.9583
7.5126 -6.7947 0.7591 0.9602
7.8057 -5.8866 0.7327 0.9615
8.4931 -5.2896 0.7498 0.9607
9.0906 -5.1143 0.7817 0.9590
7.4626 -6.7496 0.5861 0.9605
7.7654 -5.8562 0.5665 0.9618
8.4425 -5.2580 0.5793 0.9609
8.0537 -5.5286 0.5690 0.9616
7.7256 -5.8262 0.4023 0.9620
8.3925 -5.2269 0.4111 0.9612
7.4620 -7.3794 0.4364 0.9589
7.5254 -6.2199 0.4059 0.9617
8.9276 -5.0226 0.4259 0.9598
7.7086 -5.8133 0.2408 0.9621
10.0829 -5.0951 0.2817 0.9558
7.5069 -6.2046 0.2429 0.9618
7.9921 -5.4862 0.2417 0.9620
7.3770 -6.6721 0.0827 0.9610
7.6958 -5.8037 0.0801 0.9622
7.3920 -7.3101 0.0864 0.9593
8.8742 -4.9925 0.0846 0.9601
7.6935 -5.8020 -0.0801 0.9622
8.3505 -5.2007 -0.0818 0.9614
9.9692 -5.0377 -0.0928 0.9563
7.3878 -7.3060 -0.0864 0.9593
7.9758 -5.4751 -0.0804 0.9620
8.8704 -4.9904 -0.0846 0.9601
-4.7759 7.1262 -0.0713 0.9663
7.3891 -6.6830 -0.2485 0.9609
8.3661 -5.2105 -0.2458 0.9613
10.0659 -5.0865 -0.2813 0.9559
7.4126 -7.3305 -0.2600 0.9591
7.9892 -5.4843 -0.2417 0.9620
8.8904 -5.0016 -0.2544 0.9600
7.4476 -7.3651 -0.4355 0.9589
7.5174 -6.2133 -0.4055 0.9617
8.0026 -5.4935 -0.4036 0.9619
-4.7746 7.1243 -0.3566 0.9662
7.4531 -6.7410 -0.5853 0.9605
8.4325 -5.2518 -0.5786 0.9610
7.5589 -6.2476 -0.5712 0.9615
8.0451 -5.5226 -0.5684 0.9617
8.9807 -5.0525 -0.6002 0.9596
-4.7740 7.1233 -0.4994 0.9662
7.7972 -5.8802 -0.7319 0.9616
8.4827 -5.2831 -0.7489 0.9607
7.6201 -7.5357 -0.8031 0.9579
8.0881 -5.5522 -0.7352 0.9614
7.5841 -6.8595 -0.9375 0.9598
8.5674 -5.3358 -0.9253 0.9603
8.1576 -5.5999 -0.9071 0.9610
8.6618 -5.3946 -1.1068 0.9598
8.2381 -5.6551 -1.0838 0.9606
9.4241 -5.3019 -1.1729 0.9574
7.8636 -7.1123 -1.3287 0.9582
8.8259 -5.4968 -1.3030 0.9590
7.8690 -6.5039 -1.2793 0.9597
8.3584 -5.7378 -1.2705 0.9600
-4.7714 7.1194 -1.0740 0.9660
8.2300 -7.4436 -1.5784 0.9562
8.0230 -6.6312 -1.4805 0.9588
8.5099 -5.8417 -1.4682 0.9592
-4.7707 7.1184 -1.2188 0.9660
8.3959 -6.3317 -1.6745 0.9583
8.7488 -6.0057 -1.6898 0.9579
-4.7694 7.1164 -1.5106 0.9658
1.1467 14.6752 -2.8486 0.9418
-0.1638 14.7061 -2.8461 0.9418
-1.4708 14.6203 -2.8436 0.9419
-12.2078 7.9860 -2.8230 0.9423
-12.8644 6.8647 -2.8218 0.9423
-13.4193 5.6903 -2.8207 0.9423
0.4917 14.7053 -2.8473 0.9418
-3.4019 14.2752 -2.8399 0.9420
-4.6551 13.9040 -2.8375 0.9420
-9.1866 11.3704 -2.8288 0.9422
-10.1555 10.5007 -2.8269 0.9422
-12.5485 7.4325 -2.8224 0.9423
-13.1548 6.2836 -2.8212 0.9423
-14.0963 0.0000 -2.9718 0.9440
-14.0409 -1.2547 -2.9719 0.9440
-13.5998 -3.7254 -2.9727 0.9440
-12.1437 -7.1927 -2.9755 0.9439
-11.4603 -8.2487 -2.9768 0.9439
-10.6860 -9.2405 -2.9783 0.9439
-9.8265 -10.1605 -2.9799 0.9439
-8.8885 -11.0014 -2.9817 0.9438
-5.6778 -12.9855 -2.9879 0.9437
-3.2905 -13.8075 -2.9924 0.9436
-2.0501 -14.0567 -2.9948 0.9436
0.4756 -14.2204 -2.9996 0.9435
4.2256 -13.6221 -3.0068 0.9434
6.5838 -12.6760 -3.0113 0.9433
13.3283 -5.3045 -3.0242 0.9430
14.0642 -2.8587 -3.0256 0.9430
14.2646 -1.5957 -3.0260 0.9430
14.3221 0.9588 -3.0261 0.9430
11.8608 6.6728 -2.8690 0.9459
11.2150 7.6987 -2.8678 0.9459
10.4801 8.6621 -2.8664 0.9459
9.6623 9.5552 -2.8648 0.9460
8.7682 10.3712 -2.8631 0.9460
6.7815 11.7459 -2.8593 0.9461
4.5847 12.7434 -2.8551 0.9461
3.4296 13.0908 -2.8529 0.9462
2.2491 13.3335 -2.8507 0.9462
-0.1504 13.4993 -2.8461 0.9463
-4.8367 12.5583 -2.8371 0.9465
-6.9767 11.4852 -2.8330 0.9465
-7.9659 10.8114 -2.8311 0.9466
-9.7449 9.2167 -2.8277 0.9466
-10.5210 8.3083 -2.8262 0.9467
-11.2135 7.3355 -2.8249 0.9467
-11.8170 6.3058 -2.8238 0.9467
-13.4219 4.3280 -2.9731 0.9440
-13.9717 1.8790 -2.9720 0.9440
-14.0825 -0.6279 -2.9718 0.9440
-13.9717 -1.8790 -2.9720 0.9440
-13.7509 -3.1155 -2.9724 0.9440
-12.9870 -5.5069 -2.9739 0.9440
-11.8137 -7.7282 -2.9761 0.9439
-10.2665 -9.7100 -2.9791 0.9439
-7.3501 -12.0999 -2.9847 0.9438
-6.2484 -12.7150 -2.9868 0.9437
-3.9008 -13.6419 -2.9913 0.9436
-2.6732 -13.9459 -2.9936 0.9436
-0.1584 -14.2217 -2.9984 0.9435
1.1089 -14.1908 -3.0008 0.9435
4.8301 -13.4254 -3.0080 0.9433
7.1444 -12.3745 -3.0124 0.9433
8.2231 -11.6975 -3.0144 0.9432
12.4957 -7.0300 -3.0226 0.9431
13.0766 -5.8921 -3.0237 0.9431
13.5533 -4.7062 -3.0247 0.9430
13.9216 -3.4820 -3.0254 0.9430
14.1786 -2.2295 -3.0259 0.9430
14.3221 -0.9587 -3.0261 0.9430
14.3508 0.3198 -3.0262 0.9430
14.2646 1.5958 -3.0260 0.9430
14.0642 2.8587 -3.0256 0.9430
12.6510 5.0350 -2.8705 0.9459
11.5494 7.1930 -2.8684 0.9459
9.2244 9.9733 -2.8640 0.9460
7.3005 11.4361 -2.8603 0.9460
5.1498 12.5313 -2.8562 0.9461
4.0109 12.9301 -2.8540 0.9462
-0.7513 13.4737 -2.8449 0.9463
-4.2741 12.7662 -2.8382 0.9465
-5.3894 12.3258 -2.8361 0.9465
-4.7680 7.1144 -1.8055 0.9656
-8.4369 10.4425 -2.8302 0.9466
-9.3273 9.6443 -2.8285 0.9466
-10.8780 7.8296 -2.8256 0.9467
-13.8750 2.4997 -2.9722 0.9440
-14.0409 1.2547 -2.9719 0.9440
-13.0292 0.0000 -2.9738 0.9479
-12.9779 -1.1597 -2.9739 0.9479
-12.5699 -3.4432 -2.9747 0.9479
-12.2163 -4.5494 -2.9754 0.9479
-6.2887 -11.4753 -2.9867 0.9477
-1.8938 -12.9850 -2.9951 0.9476
1.6076 -13.0531 -3.0018 0.9475
5.0099 -12.1909 -3.0083 0.9474
6.0792 -11.7046 -3.0103 0.9473
7.1015 -11.1243 -3.0123 0.9473
8.9720 -9.7004 -3.0159 0.9472
9.8049 -8.8681 -3.0175 0.9472
11.2321 -6.9954 -3.0202 0.9472
12.9816 -2.6386 -3.0236 0.9471
13.1665 -1.4729 -3.0239 0.9471
11.4573 5.1625 -2.8683 0.9497
10.9487 6.1597 -2.8673 0.9498
10.3529 7.1068 -2.8662 0.9498
9.6749 7.9965 -2.8649 0.9498
8.0952 9.5751 -2.8618 0.9499
7.2066 10.2516 -2.8601 0.9499
5.2679 11.3521 -2.8564 0.9499
4.2337 11.7679 -2.8545 0.9500
3.1673 12.0893 -2.8524 0.9500
2.0772 12.3142 -2.8503 0.9501
-0.1389 12.4689 -2.8461 0.9501
-4.4686 11.6025 -2.8378 0.9503
-5.4798 11.1512 -2.8359 0.9503
-8.2160 9.2900 -2.8307 0.9504
-9.0055 8.5173 -2.8291 0.9504
-9.7231 7.6782 -2.8278 0.9504
-10.3634 6.7795 -2.8265 0.9505
-11.3933 4.8312 -2.8246 0.9505
-12.4054 4.0003 -2.9750 0.9479
-12.9139 1.7368 -2.9741 0.9479
-13.0164 -0.5804 -2.9739 0.9479
-12.4054 -4.0002 -2.9750 0.9479
-11.5062 -6.1399 -2.9767 0.9479
-10.9182 -7.1423 -2.9778 0.9479
-10.2436 -8.0893 -2.9791 0.9479
-6.7914 -11.1802 -2.9857 0.9477
-5.7731 -11.7480 -2.9877 0.9477
-1.3140 -13.0613 -2.9962 0.9476
-0.1463 -13.1362 -2.9984 0.9475
2.1883 -12.9733 -3.0029 0.9475
3.3368 -12.7363 -3.0051 0.9474
5.5499 -11.9597 -3.0093 0.9473
8.5286 -10.0877 -3.0150 0.9472
9.3978 -9.2936 -3.0167 0.9472
10.9071 -7.4873 -3.0196 0.9472
11.5348 -6.4894 -3.0208 0.9471
12.8501 -3.2140 -3.0233 0.9471
13.0872 -2.0579 -3.0238 0.9471
12.9817 2.6387 -3.0236 0.9471
12.6930 3.7829 -3.0230 0.9471
11.2142 5.6668 -2.8678 0.9498
10.0238 7.5594 -2.8655 0.9498
9.3068 8.4175 -2.8642 0.9498
7.6584 9.9233 -2.8610 0.9499
6.7407 10.5591 -2.8593 0.9499
5.7704 11.1099 -2.8574 0.9499
4.7554 11.5716 -2.8555 0.9500
3.7040 11.9405 -2.8535 0.9500
2.6246 12.2139 -2.8514 0.9500
0.4168 12.4673 -2.8472 0.9501
-4.7674 7.1134 -1.9545 0.9655
-7.7962 9.6495 -2.8315 0.9504
-9.3736 8.1057 -2.8284 0.9504
-10.0532 7.2359 -2.8271 0.9504
-10.6530 6.3098 -2.8260 0.9505
-11.1684 5.3347 -2.8250 0.9505
-12.5700 3.4433 -2.9747 0.9479
-12.9779 1.1597 -2.9739 0.9479
-12.0581 -1.0775 -2.9757 0.9514
-11.6788 -3.1992 -2.9764 0.9513
-11.3501 -4.2268 -2.9770 0.9513
-10.9318 -5.2217 -2.9778 0.9513
-10.4270 -6.1759 -2.9788 0.9513
-9.1741 -7.9332 -2.9812 0.9513
-8.4356 -8.7224 -2.9826 0.9512
-7.6297 -9.4435 -2.9841 0.9512
-3.8637 -11.5401 -2.9913 0.9511
-1.7587 -12.0585 -2.9954 0.9510
-0.6789 -12.1756 -2.9974 0.9510
2.5673 -11.9471 -3.0036 0.9509
3.6229 -11.6790 -3.0056 0.9509
6.5921 -10.3264 -3.0113 0.9508
7.4893 -9.7042 -3.0130 0.9508
9.8014 -7.3916 -3.0175 0.9507
11.4177 -4.5441 -3.0206 0.9506
12.2679 0.8212 -3.0222 0.9506
12.1452 1.9098 -3.0220 0.9506
11.9254 2.9827 -3.0216 0.9506
11.6103 4.0315 -3.0210 0.9506
8.9797 7.4219 -2.8635 0.9531
6.6896 9.5160 -2.8592 0.9532
4.8904 10.5387 -2.8557 0.9533
3.9305 10.9251 -2.8539 0.9533
2.9406 11.2241 -2.8520 0.9533
0.9027 11.5519 -2.8481 0.9534
-0.1290 11.5783 -2.8461 0.9534
-1.1582 11.5129 -2.8442 0.9535
-4.1503 10.7761 -2.8384 0.9535
-5.0898 10.3574 -2.8366 0.9536
-8.3659 7.9124 -2.8304 0.9537
-9.6280 6.2984 -2.8279 0.9537
-11.9986 1.6137 -2.9758 0.9514
-12.0938 -0.5393 -2.9756 0.9514
-11.8087 -2.6755 -2.9762 0.9513
-11.5258 -3.7166 -2.9767 0.9513
-11.1520 -4.7288 -2.9774 0.9513
-10.1434 -6.6355 -2.9793 0.9513
-9.5164 -7.5150 -2.9805 0.9513
-8.0407 -9.0918 -2.9833 0.9512
-6.3083 -10.3849 -2.9867 0.9512
-5.3622 -10.9118 -2.9885 0.9512
2.0318 -12.0455 -3.0026 0.9509
3.0980 -11.8249 -3.0046 0.9509
4.1409 -11.5098 -3.0066 0.9509
6.1237 -10.6066 -3.0104 0.9508
7.0476 -10.0254 -3.0122 0.9508
7.9163 -9.3635 -3.0139 0.9507
8.7228 -8.6262 -3.0154 0.9507
9.4604 -7.8192 -3.0168 0.9507
10.1230 -6.9490 -3.0181 0.9507
11.2024 -5.0476 -3.0202 0.9506
11.6102 -4.0315 -3.0209 0.9506
11.9253 -2.9827 -3.0215 0.9506
12.2679 -0.8212 -3.0222 0.9506
12.2188 1.3669 -3.0221 0.9506
11.7796 3.5107 -3.0213 0.9506
10.4076 5.2592 -2.8663 0.9531
9.8948 6.1626 -2.8653 0.9531
8.6382 7.8128 -2.8629 0.9532
6.2572 9.8017 -2.8583 0.9532
5.3567 10.3136 -2.8566 0.9533
4.4147 10.7426 -2.8548 0.9533
3.4388 11.0857 -2.8529 0.9533
1.4169 11.5042 -2.8491 0.9534
-2.6796 11.2443 -2.8412 0.9535
-4.6248 10.5771 -2.8375 0.9536
-4.7491 7.0862 -2.0968 0.9655
-8.0070 8.2792 -2.8310 0.9537
-9.3397 6.7223 -2.8285 0.9537
-9.8972 5.8621 -2.8274 0.9537
-12.0581 1.0775 -2.9757 0.9514
-11.1207 -2.0035 -2.9775 0.9543
-10.8998 -2.9857 -2.9779 0.9543
-10.5928 -3.9448 -2.9785 0.9543
-10.2022 -4.8732 -2.9792 0.9543
-9.7309 -5.7637 -2.9801 0.9543
-7.8718 -8.1394 -2.9837 0.9542
-6.3103 -9.4155 -2.9867 0.9542
-4.5460 -10.3969 -2.9900 0.9541
-2.6338 -11.0517 -2.9937 0.9541
-0.6333 -11.3581 -2.9975 0.9540
2.3946 -11.1433 -3.0033 0.9539
3.3790 -10.8928 -3.0052 0.9539
6.1476 -9.6300 -3.0105 0.9538
6.9840 -9.0494 -3.0121 0.9538
7.7656 -8.3961 -3.0136 0.9538
8.4859 -7.6751 -3.0150 0.9538
10.2234 -5.1661 -3.0183 0.9537
10.6455 -4.2368 -3.0191 0.9537
10.9827 -3.2732 -3.0197 0.9537
11.2322 -2.2830 -3.0202 0.9537
11.3920 -1.2744 -3.0205 0.9537
11.4608 -0.2554 -3.0207 0.9537
11.4378 0.7657 -3.0206 0.9537
11.3235 1.7805 -3.0204 0.9537
11.1186 2.7810 -3.0200 0.9537
10.8250 3.7588 -3.0195 0.9537
8.3731 6.9205 -2.8624 0.9561
7.0070 8.2879 -2.8598 0.9561
5.4207 9.3890 -2.8567 0.9561
3.6658 10.1894 -2.8534 0.9562
0.8420 10.7754 -2.8480 0.9563
-0.1203 10.8006 -2.8461 0.9563
-2.0308 10.5946 -2.8425 0.9564
-2.9638 10.3652 -2.8407 0.9564
-4.7490 9.6639 -2.8373 0.9564
-4.4523 7.3295 -2.2597 0.9651
-6.3801 8.6592 -2.8342 0.9565
-8.4295 6.6567 -2.8302 0.9565
-8.9851 5.8778 -2.8292 0.9566
-9.4695 5.0531 -2.8282 0.9566
-11.0211 2.4971 -2.9777 0.9543
-11.2873 0.5033 -2.9772 0.9543
-10.7569 -3.4687 -2.9782 0.9543
-10.4078 -4.4133 -2.9788 0.9543
-8.2247 -7.7789 -2.9830 0.9543
-4.0795 -10.5923 -2.9909 0.9541
-3.1225 -10.9200 -2.9927 0.9541
-2.1395 -11.1616 -2.9946 0.9541
-0.1268 -11.3787 -2.9985 0.9540
3.8621 -10.7347 -3.0061 0.9539
6.5722 -9.3491 -3.0113 0.9538
8.1338 -8.0437 -3.0143 0.9538
8.8213 -7.2910 -3.0156 0.9538
9.9816 -5.6156 -3.0178 0.9537
11.1186 -2.7809 -3.0200 0.9537
11.3921 1.2744 -3.0205 0.9537
11.2323 2.2831 -3.0202 0.9537
10.9828 3.2732 -3.0198 0.9537
10.6456 4.2369 -3.0191 0.9537
9.7039 4.9036 -2.8649 0.9560
9.2260 5.7460 -2.8640 0.9560
8.6748 6.5420 -2.8629 0.9561
6.6292 8.5897 -2.8590 0.9561
5.8352 9.1407 -2.8575 0.9561
4.1173 10.0190 -2.8542 0.9562
3.2073 10.3394 -2.8525 0.9562
1.3216 10.7307 -2.8489 0.9563
0.3610 10.7988 -2.8471 0.9563
-1.5573 10.6779 -2.8434 0.9563
-2.4999 10.4902 -2.8416 0.9564
-3.4216 10.2198 -2.8398 0.9564
-4.3150 9.8687 -2.8381 0.9564
-5.1733 9.4400 -2.8365 0.9564
-4.7023 7.0163 -2.2256 0.9657
-6.7578 8.3643 -2.8334 0.9565
-8.1262 7.0271 -2.8308 0.9565
-8.7159 6.2734 -2.8297 0.9566
-10.0232 4.7877 -2.9270 0.9551
-10.5929 3.9448 -2.9785 0.9543
-10.8998 2.9858 -2.9779 0.9543
-11.1207 2.0035 -2.9775 0.9543
-11.2539 1.0056 -2.9772 0.9543
-10.4196 -1.8771 -2.9788 0.9570
-10.2125 -2.7975 -2.9792 0.9570
-9.9248 -3.6960 -2.9798 0.9569
-8.0207 -6.9358 -2.9834 0.9569
-7.3746 -7.6253 -2.9846 0.9569
-4.2583 -9.7389 -2.9906 0.9568
-2.4669 -10.3514 -2.9940 0.9567
1.3039 -10.5870 -3.0012 0.9566
6.5389 -8.4728 -3.0112 0.9565
7.2705 -7.8607 -3.0126 0.9565
7.9447 -7.1855 -3.0139 0.9565
9.9656 -3.9662 -3.0178 0.9564
10.2811 -3.0641 -3.0184 0.9564
10.5146 -2.1372 -3.0188 0.9564
10.6641 -1.1929 -3.0191 0.9564
10.4083 2.6033 -3.0187 0.9564
10.1335 3.5187 -3.0181 0.9564
9.7779 4.4057 -3.0175 0.9564
8.8695 4.9899 -2.8633 0.9586
8.3875 5.7577 -2.8624 0.9586
7.8389 6.4790 -2.8613 0.9586
7.2282 7.1481 -2.8602 0.9586
5.8408 8.3087 -2.8575 0.9587
5.0755 8.7911 -2.8561 0.9587
4.2706 9.2030 -2.8545 0.9587
1.6846 9.9870 -2.8496 0.9588
0.7885 10.0912 -2.8479 0.9588
-1.9021 9.9230 -2.8427 0.9589
-2.7761 9.7086 -2.8411 0.9589
-4.4485 9.0524 -2.8379 0.9590
-4.4338 7.2990 -2.4028 0.9651
-5.9768 8.1119 -2.8349 0.9590
-6.6720 7.5442 -2.8336 0.9590
-7.3138 6.9173 -2.8324 0.9590
-7.8973 6.2365 -2.8313 0.9590
-8.4181 5.5069 -2.8303 0.9591
-8.9868 4.7955 -2.8660 0.9586
-9.7515 4.1350 -2.9801 0.9569
-10.4924 1.4111 -2.9787 0.9570
-10.5758 0.4716 -2.9785 0.9570
-10.4924 -1.4111 -2.9787 0.9570
-10.3262 -2.3396 -2.9790 0.9570
-9.7514 -4.1349 -2.9801 0.9569
-9.3471 -4.9877 -2.9809 0.9569
-7.7053 -7.2876 -2.9840 0.9569
-2.9247 -10.2283 -2.9931 0.9568
-0.1187 -10.6566 -2.9985 0.9567
0.8307 -10.6313 -3.0003 0.9567
3.6164 -10.0519 -3.0056 0.9566
5.3472 -9.2616 -3.0089 0.9565
7.6151 -7.5307 -3.0133 0.9565
8.2585 -6.8258 -3.0145 0.9565
8.8365 -6.0659 -3.0156 0.9564
10.6000 -1.6668 -3.0190 0.9564
10.7284 0.2391 -3.0193 0.9564
10.2812 3.0641 -3.0184 0.9564
9.9657 3.9662 -3.0178 0.9564
8.6371 5.3793 -2.8629 0.9586
8.1213 6.1246 -2.8619 0.9586
6.2067 8.0422 -2.8582 0.9587
5.4635 8.5585 -2.8568 0.9587
3.0034 9.6819 -2.8521 0.9588
1.2377 10.0491 -2.8487 0.9588
0.3381 10.1132 -2.8470 0.9588
-0.5630 10.0971 -2.8453 0.9588
-1.4586 10.0009 -2.8436 0.9589
-2.3415 9.8255 -2.8419 0.9589
-3.2049 9.5725 -2.8402 0.9589
-4.0419 9.2441 -2.8386 0.9589
-4.8460 8.8429 -2.8371 0.9590
-6.9999 7.2378 -2.8330 0.9590
-7.6131 6.5833 -2.8318 0.9590
-9.9249 3.6961 -2.9798 0.9569
-10.2125 2.7975 -2.9792 0.9570
-10.4196 1.8772 -2.9788 0.9570
-9.9529 0.0000 -2.9797 0.9593
-9.9137 -0.8859 -2.9798 0.9593
-9.3309 -3.4749 -2.9809 0.9593
-8.9865 -4.2925 -2.9815 0.9593
-8.5711 -5.0766 -2.9823 0.9593
-6.9326 -7.1682 -2.9855 0.9592
-6.2697 -7.7601 -2.9867 0.9592
-5.5567 -8.2911 -2.9881 0.9592
-4.7990 -8.7570 -2.9895 0.9592
0.3348 -10.0130 -2.9994 0.9590
1.2253 -9.9491 -3.0011 0.9590
5.4083 -8.4719 -3.0091 0.9589
6.1437 -7.9606 -3.0105 0.9589
7.4641 -6.7509 -3.0130 0.9588
9.6584 -2.8785 -3.0172 0.9588
10.0180 -1.1207 -3.0179 0.9588
9.9578 1.5658 -3.0178 0.9588
9.7778 2.4456 -3.0174 0.9588
9.5197 3.3056 -3.0170 0.9588
8.4123 4.7327 -2.8897 0.9605
7.8799 5.4093 -2.8614 0.9609
7.3646 6.0870 -2.8604 0.9609
6.7910 6.7158 -2.8593 0.9609
4.7690 8.2602 -2.8555 0.9610
4.0128 8.6474 -2.8540 0.9610
3.2255 8.9656 -2.8525 0.9610
-0.1059 9.5063 -2.8462 0.9611
-1.7877 9.3263 -2.8429 0.9611
-2.6093 9.1251 -2.8414 0.9611
-3.4092 8.8519 -2.8398 0.9612
-4.4153 7.2686 -2.5461 0.9651
-6.8755 6.5028 -2.8332 0.9613
-7.9140 5.1771 -2.8312 0.9613
-9.1678 3.8875 -2.9812 0.9593
-9.4755 3.0555 -2.9806 0.9593
-9.9431 0.4434 -2.9797 0.9593
-9.8647 -1.3267 -2.9799 0.9593
-9.7084 -2.1996 -2.9802 0.9593
-9.1678 -3.8874 -2.9812 0.9593
-8.3377 -5.4543 -2.9828 0.9593
-7.2436 -6.8509 -2.9849 0.9592
-5.9191 -8.0335 -2.9874 0.9592
-2.7489 -9.6136 -2.9935 0.9591
-1.8834 -9.8255 -2.9951 0.9591
-0.1116 -10.0151 -2.9985 0.9590
1.6678 -9.8874 -3.0019 0.9590
3.3982 -9.4455 -3.0052 0.9590
6.4937 -7.6808 -3.0111 0.9589
7.1545 -7.0753 -3.0124 0.9589
8.7786 -4.9388 -3.0155 0.9588
9.1858 -4.1389 -3.0163 0.9588
9.5197 -3.3056 -3.0169 0.9588
10.0180 1.1207 -3.0179 0.9588
9.6584 2.8785 -3.0172 0.9588
9.3621 3.7260 -3.0167 0.9588
8.1143 5.0537 -2.8619 0.9609
7.0848 6.4078 -2.8599 0.9609
5.8315 7.5562 -2.8575 0.9609
4.3952 8.4623 -2.8548 0.9610
3.6227 8.8153 -2.8533 0.9610
2.8222 9.0979 -2.8518 0.9610
0.3178 9.5042 -2.8470 0.9611
-0.5291 9.4894 -2.8454 0.9611
-2.2008 9.2348 -2.8422 0.9611
-3.0123 8.9974 -2.8406 0.9612
-3.7992 8.6890 -2.8391 0.9612
-4.5551 8.3121 -2.8376 0.9612
-6.5803 6.8040 -2.8338 0.9612
-7.6767 5.5254 -2.8317 0.9613
-8.9866 4.2925 -2.9816 0.9593
-9.3309 3.4749 -2.9809 0.9593
-9.6015 2.6301 -2.9804 0.9593
-9.7962 1.7649 -2.9800 0.9593
-9.9137 0.8859 -2.9798 0.9593
-9.3858 0.0000 -2.9808 0.9614
-9.2380 -1.6643 -2.9811 0.9614
-8.4742 -4.0478 -2.9825 0.9614
-7.6264 -5.4891 -2.9841 0.9613
-7.1099 -6.1482 -2.9851 0.9613
-5.9117 -7.3170 -2.9874 0.9613
-5.2392 -7.8174 -2.9887 0.9613
-4.5247 -8.2565 -2.9901 0.9613
-3.7737 -8.6306 -2.9915 0.9612
-2.9920 -8.9367 -2.9930 0.9612
-2.1859 -9.1723 -2.9945 0.9612
1.1551 -9.3784 -3.0009 0.9611
1.9862 -9.2432 -3.0025 0.9611
3.5973 -8.7536 -3.0056 0.9611
8.0561 -5.0174 -3.0141 0.9610
8.8224 -3.5112 -3.0156 0.9609
9.1015 -2.7125 -3.0161 0.9609
9.3080 -1.8920 -3.0165 0.9609
9.2140 2.3046 -3.0164 0.9609
8.6564 3.9004 -3.0153 0.9609
6.9405 5.7364 -2.8596 0.9629
4.4948 7.7852 -2.8550 0.9630
2.2749 8.6832 -2.8507 0.9630
-0.8966 8.9122 -2.8446 0.9631
-1.6853 8.7923 -2.8431 0.9631
-2.4599 8.6030 -2.8417 0.9631
-3.2142 8.3456 -2.8402 0.9632
-3.9423 8.0225 -2.8388 0.9632
-4.3968 7.2381 -2.6896 0.9651
-5.9139 6.6870 -2.8350 0.9632
-6.4831 6.1317 -2.8340 0.9632
-7.0007 5.5284 -2.8330 0.9633
-8.6452 3.6659 -2.9822 0.9614
-8.9355 2.8813 -2.9817 0.9614
-9.1552 2.0743 -2.9812 0.9614
-9.3026 1.2511 -2.9810 0.9614
-9.3766 -0.4181 -2.9808 0.9614
-8.6452 -3.6658 -2.9822 0.9614
-8.2865 -4.4218 -2.9829 0.9613
-6.8302 -6.4599 -2.9857 0.9613
-6.2305 -7.0449 -2.9868 0.9613
-5.5810 -7.5747 -2.9881 0.9613
-4.8869 -8.0449 -2.9894 0.9613
-0.9446 -9.3892 -2.9969 0.9612
-0.1052 -9.4410 -2.9985 0.9611
0.7359 -9.4180 -3.0001 0.9611
1.5721 -9.3201 -3.0017 0.9611
2.3967 -9.1480 -3.0033 0.9611
3.2030 -8.9029 -3.0048 0.9611
5.4491 -7.7515 -3.0091 0.9610
6.7427 -6.6680 -3.0116 0.9610
7.8235 -5.3705 -3.0137 0.9610
8.9709 -3.1150 -3.0159 0.9609
9.3835 -1.4755 -3.0167 0.9609
9.4782 -0.6345 -3.0169 0.9609
9.4972 0.2117 -3.0169 0.9609
9.4403 1.0561 -3.0168 0.9609
9.3081 1.8919 -3.0165 0.9609
8.4730 4.2816 -3.0150 0.9609
7.1904 5.4225 -2.8601 0.9629
6.6769 6.0389 -2.8591 0.9629
6.1106 6.6067 -2.8580 0.9629
4.8383 7.5790 -2.8556 0.9630
4.1426 7.9758 -2.8543 0.9630
1.0964 8.9019 -2.8485 0.9631
-0.4988 8.9456 -2.8454 0.9631
-1.2923 8.8610 -2.8439 0.9631
-3.5819 8.1921 -2.8395 0.9632
-5.6113 6.9452 -2.8356 0.9632
-9.3488 0.8354 -2.9809 0.9614
-8.8748 0.0000 -2.9818 0.9632
-8.7350 -1.5737 -2.9820 0.9632
-8.5612 -2.3451 -2.9824 0.9632
-8.3198 -3.0983 -2.9828 0.9632
-8.0125 -3.8273 -2.9834 0.9632
-7.6419 -4.5263 -2.9841 0.9632
-7.2107 -5.1900 -2.9849 0.9632
-3.5675 -8.1591 -2.9919 0.9631
-2.8285 -8.4482 -2.9933 0.9631
1.0918 -8.8645 -3.0008 0.9630
1.8774 -8.7365 -3.0023 0.9630
4.1247 -7.9414 -3.0066 0.9629
5.4721 -7.0904 -3.0092 0.9629
6.0838 -6.5778 -3.0104 0.9629
6.6475 -6.0123 -3.0114 0.9629
7.1586 -5.3985 -3.0124 0.9629
8.0067 -4.0459 -3.0140 0.9629
8.3367 -3.3179 -3.0147 0.9628
8.6004 -2.5632 -3.0152 0.9628
8.7955 -1.7877 -3.0156 0.9628
8.9204 -0.9979 -3.0158 0.9628
8.9562 0.5996 -3.0159 0.9628
8.8668 1.3943 -3.0157 0.9628
8.1799 3.6857 -3.0144 0.9628
7.0174 4.8171 -2.8598 0.9647
6.0482 5.9812 -2.8579 0.9647
4.8881 6.9534 -2.8557 0.9648
2.1501 8.2071 -2.8505 0.9648
-0.0944 8.4707 -2.8462 0.9649
-0.8475 8.4245 -2.8447 0.9649
-1.5932 8.3114 -2.8433 0.9649
-3.0386 7.8896 -2.8405 0.9650
-3.7270 7.5843 -2.8392 0.9650
-4.3728 7.1987 -2.8299 0.9651
-5.0084 6.7974 -2.8368 0.9650
-6.1296 5.7973 -2.8346 0.9650
-6.6191 5.2271 -2.8337 0.9650
-8.1743 3.4662 -2.9831 0.9632
-8.4488 2.7244 -2.9826 0.9632
-8.6566 1.9613 -2.9822 0.9632
-8.8660 0.3954 -2.9818 0.9632
-8.7960 -1.1829 -2.9819 0.9632
-8.6566 -1.9613 -2.9822 0.9632
-8.4488 -2.7244 -2.9826 0.9632
-7.8350 -4.1809 -2.9838 0.9632
-6.9734 -5.5068 -2.9854 0.9632
-6.4577 -6.1077 -2.9864 0.9632
-5.8906 -6.6606 -2.9875 0.9632
-3.9265 -7.9903 -2.9912 0.9631
-3.2013 -8.3119 -2.9926 0.9631
-0.0994 -8.9241 -2.9985 0.9630
1.4859 -8.8093 -3.0016 0.9630
2.2652 -8.6463 -3.0031 0.9630
3.0273 -8.4145 -3.0045 0.9630
3.7660 -8.1154 -3.0059 0.9630
5.1497 -7.3256 -3.0086 0.9629
8.1798 -3.6857 -3.0144 0.9628
8.4770 -2.9435 -3.0149 0.9628
8.8668 -1.3943 -3.0157 0.9628
8.9742 0.2000 -3.0159 0.9628
8.6004 2.5632 -3.0152 0.9628
8.0067 4.0460 -3.0141 0.9629
5.1940 6.7301 -2.8563 0.9648
3.2272 7.8529 -2.8525 0.9648
2.5142 8.1051 -2.8512 0.9648
1.7820 8.2926 -2.8498 0.9648
0.2831 8.4687 -2.8469 0.9649
-2.6848 8.0190 -2.8412 0.9649
-3.3862 7.7446 -2.8399 0.9650
-4.0603 7.4091 -2.8386 0.9650
-4.6511 6.9399 -2.8069 0.9654
-6.3807 5.5176 -2.8342 0.9650
-7.6419 4.5263 -2.9841 0.9632
-8.0126 3.8273 -2.9834 0.9632
-8.3784 -0.7487 -2.9827 0.9649
-8.2791 -1.4915 -2.9829 0.9649
-8.1143 -2.2227 -2.9832 0.9649
-7.8854 -2.9366 -2.9837 0.9649
-7.5942 -3.6274 -2.9842 0.9649
-6.8340 -4.9188 -2.9857 0.9649
-5.8573 -6.0563 -2.9875 0.9649
-5.2969 -6.5560 -2.9886 0.9649
-3.3807 -7.7320 -2.9923 0.9648
-2.6803 -8.0057 -2.9936 0.9648
-1.9580 -8.2163 -2.9950 0.9648
-1.2196 -8.3619 -2.9964 0.9648
-0.4707 -8.4413 -2.9978 0.9648
0.2826 -8.4538 -2.9993 0.9647
1.7787 -8.2776 -3.0021 0.9647
3.9077 -7.5237 -3.0062 0.9647
5.7634 -6.2313 -3.0098 0.9646
7.2116 -4.4914 -3.0125 0.9646
8.1468 -2.4280 -3.0143 0.9646
8.5008 -0.1894 -3.0150 0.9646
8.4838 0.5679 -3.0150 0.9646
8.2474 2.0628 -3.0145 0.9646
7.7486 3.4913 -3.0136 0.9646
6.8827 4.7247 -2.9602 0.9652
4.6308 6.5874 -2.8552 0.9664
3.3866 7.2980 -2.8528 0.9664
2.0372 7.7759 -2.8503 0.9665
0.6256 8.0063 -2.8476 0.9665
-0.0894 8.0263 -2.8462 0.9665
-0.8031 7.9826 -2.8448 0.9665
-2.8795 7.4764 -2.8409 0.9666
-3.5319 7.1873 -2.8396 0.9666
-4.1559 6.8415 -2.8384 0.9666
-4.7464 6.4419 -2.8373 0.9666
-5.2990 5.9917 -2.8362 0.9666
-6.2732 4.9539 -2.8344 0.9666
-7.0454 4.6089 -2.9853 0.9649
-7.4259 3.9626 -2.9846 0.9649
-7.7475 3.2853 -2.9839 0.9649
-8.0078 2.5822 -2.9834 0.9649
-8.3370 1.1212 -2.9828 0.9649
-8.4034 0.3747 -2.9827 0.9649
-8.3370 -1.1212 -2.9828 0.9649
-8.0078 -2.5822 -2.9834 0.9649
-7.7475 -3.2852 -2.9839 0.9649
-7.4258 -3.9625 -2.9845 0.9649
-7.0454 -4.6089 -2.9853 0.9649
-6.1202 -5.7885 -2.9870 0.9649
-5.5826 -6.3124 -2.9881 0.9649
-4.3784 -7.2077 -2.9904 0.9648
-3.7210 -7.5720 -2.9916 0.9648
-3.0336 -7.8766 -2.9929 0.9648
-0.0942 -8.4559 -2.9985 0.9647
0.6591 -8.4348 -3.0000 0.9647
1.4079 -8.3467 -3.0014 0.9647
4.2399 -7.3438 -3.0068 0.9647
4.8787 -6.9401 -3.0081 0.9646
5.4791 -6.4808 -3.0092 0.9646
6.5458 -5.4103 -3.0112 0.9646
7.0034 -4.8076 -3.0121 0.9646
7.4054 -4.1662 -3.0129 0.9646
7.7485 -3.4913 -3.0136 0.9646
8.2474 -2.0628 -3.0145 0.9646
8.4838 -0.5679 -3.0150 0.9646
8.5008 0.1894 -3.0150 0.9646
8.4499 0.9453 -3.0149 0.9646
7.8972 3.1430 -3.0139 0.9646
7.5846 3.8327 -3.0133 0.9646
7.2117 4.4915 -3.0125 0.9646
4.3319 6.7858 -2.8546 0.9664
3.7092 7.1415 -2.8535 0.9664
2.3821 7.6791 -2.8509 0.9665
0.9819 7.9723 -2.8482 0.9665
0.2683 8.0242 -2.8469 0.9665
-0.4468 8.0125 -2.8455 0.9665
-1.1576 7.9371 -2.8441 0.9665
-1.8586 7.7989 -2.8428 0.9665
-4.4556 6.6483 -2.8378 0.9666
-5.5596 5.7486 -2.8357 0.9666
-6.0472 5.2293 -2.8348 0.9666
-6.6425 4.7810 -2.9020 0.9659
-7.2428 4.2899 -2.9849 0.9649
-7.5942 3.6275 -2.9842 0.9649
-8.1143 2.2228 -2.9832 0.9649
-8.2791 1.4916 -2.9829 0.9649
-8.3785 0.7487 -2.9827 0.9649
-7.9898 0.0000 -2.9835 0.9665
-7.9582 -0.7111 -2.9835 0.9665
-6.4909 -4.6719 -2.9863 0.9664
-6.0510 -5.2325 -2.9872 0.9664
-5.5630 -5.7521 -2.9881 0.9664
-3.8499 -7.0252 -2.9914 0.9664
-2.5454 -7.6028 -2.9939 0.9663
-1.1581 -7.9407 -2.9965 0.9663
0.2684 -8.0275 -2.9992 0.9663
0.9823 -7.9754 -3.0006 0.9663
1.6890 -7.8599 -3.0020 0.9663
2.3829 -7.6817 -3.0033 0.9662
3.7103 -7.1436 -3.0058 0.9662
4.9219 -6.3774 -3.0081 0.9662
5.9787 -5.4074 -3.0102 0.9662
6.8465 -4.2640 -3.0118 0.9661
7.9094 -1.6077 -3.0139 0.9661
8.0217 -0.8974 -3.0141 0.9661
8.0700 -0.1798 -3.0142 0.9661
8.0539 0.5391 -3.0141 0.9661
7.8296 1.9583 -3.0137 0.9661
7.6232 2.6471 -3.0133 0.9661
7.3561 3.3145 -3.0128 0.9661
7.0305 3.9553 -3.0122 0.9661
5.4397 5.3795 -2.8568 0.9679
4.9377 5.8403 -2.8558 0.9679
4.3967 6.2544 -2.8548 0.9679
2.5849 7.1850 -2.8513 0.9679
1.9343 7.3833 -2.8501 0.9679
-0.0849 7.6217 -2.8462 0.9680
-0.7626 7.5804 -2.8449 0.9680
-2.0927 7.3186 -2.8424 0.9680
-2.7346 7.1002 -2.8411 0.9680
-4.5079 6.1181 -2.8377 0.9681
-5.5174 5.2184 -2.8358 0.9681
-7.0532 3.7637 -2.9853 0.9664
-7.9819 0.3559 -2.9835 0.9665
-7.3587 -3.1204 -2.9847 0.9664
-7.0532 -3.7637 -2.9852 0.9664
-6.6917 -4.3775 -2.9859 0.9664
-6.2772 -4.9571 -2.9867 0.9664
-5.8128 -5.4977 -2.9876 0.9664
-5.3022 -5.9952 -2.9886 0.9664
-4.7492 -6.4457 -2.9896 0.9664
-4.1582 -6.8454 -2.9908 0.9664
-0.0895 -8.0296 -2.9986 0.9663
0.6259 -8.0094 -2.9999 0.9663
1.3369 -7.9255 -3.0013 0.9663
2.0379 -7.7786 -3.0026 0.9662
3.3877 -7.3002 -3.0052 0.9662
6.2145 -5.1364 -3.0106 0.9662
7.0304 -3.9552 -3.0122 0.9661
7.3561 -3.3145 -3.0128 0.9661
7.6232 -2.6471 -3.0133 0.9661
7.9735 -1.2538 -3.0140 0.9661
8.0539 -0.5391 -3.0141 0.9661
8.0217 0.8974 -3.0141 0.9661
7.9095 1.6077 -3.0139 0.9661
7.2005 3.6386 -3.0125 0.9661
6.8465 4.2640 -3.0118 0.9661
2.2618 7.2914 -2.8507 0.9679
0.2548 7.6197 -2.8468 0.9680
-0.4242 7.6086 -2.8455 0.9680
-1.0993 7.5373 -2.8443 0.9680
-3.6543 6.6682 -2.8394 0.9681
-4.2316 6.3141 -2.8383 0.9681
-5.2804 5.4598 -2.8363 0.9681
-5.7436 4.9666 -2.8354 0.9681
-6.8793 4.0746 -2.9856 0.9664
-7.7073 2.1113 -2.9840 0.9665
-7.9582 0.7112 -2.9835 0.9665
-7.5736 -0.6768 -2.9843 0.9679
-7.4837 -1.3483 -2.9844 0.9679
-7.1277 -2.6544 -2.9851 0.9678
-6.8643 -3.2788 -2.9856 0.9678
-6.5466 -3.8776 -2.9862 0.9678
-6.1769 -4.4459 -2.9869 0.9678
-5.7583 -4.9794 -2.9877 0.9678
-4.7871 -5.9251 -2.9896 0.9678
-3.0550 -6.9871 -2.9929 0.9678
-0.4253 -7.6267 -2.9979 0.9677
1.6069 -7.4778 -3.0018 0.9677
2.2670 -7.3081 -3.0031 0.9677
2.9097 -7.0803 -3.0043 0.9676
4.6821 -6.0668 -3.0077 0.9676
5.2053 -5.6279 -3.0087 0.9676
5.6873 -5.1438 -3.0096 0.9676
6.5126 -4.0561 -3.0112 0.9676
7.1314 -2.8382 -3.0124 0.9676
7.3567 -2.1925 -3.0128 0.9676
7.5235 -1.5292 -3.0131 0.9675
7.6762 -0.1711 -3.0134 0.9675
7.5844 1.1926 -3.0133 0.9675
7.2513 2.5179 -3.0126 0.9676
6.6876 3.7624 -3.0115 0.9676
6.3247 4.3417 -3.0108 0.9676
5.7306 4.7365 -2.9179 0.9686
4.6971 5.5558 -2.8553 0.9692
4.1825 5.9498 -2.8544 0.9692
0.5652 7.2331 -2.8474 0.9693
-0.7256 7.2125 -2.8450 0.9693
-1.9912 6.9636 -2.8426 0.9694
-2.6020 6.7560 -2.8414 0.9694
-3.7557 6.1828 -2.8392 0.9694
-4.2896 5.8219 -2.8382 0.9694
-5.2504 4.9659 -2.8363 0.9694
-6.3681 4.1659 -2.9866 0.9678
-6.7121 3.5817 -2.9859 0.9678
-7.0030 2.9695 -2.9854 0.9678
-7.5361 1.0135 -2.9843 0.9679
-7.5961 -0.3387 -2.9842 0.9679
-7.5361 -1.0135 -2.9843 0.9679
-7.4166 -1.6804 -2.9846 0.9679
-7.2384 -2.3341 -2.9849 0.9678
-7.0030 -2.9695 -2.9853 0.9678
-6.3681 -4.1658 -2.9866 0.9678
-5.0455 -5.7050 -2.9891 0.9678
-4.5192 -6.1335 -2.9901 0.9678
-3.3626 -6.8427 -2.9923 0.9678
-2.7413 -7.1176 -2.9935 0.9678
0.5955 -7.6203 -2.9999 0.9677
1.2719 -7.5403 -3.0012 0.9677
2.5908 -7.2014 -3.0037 0.9676
3.8297 -6.6331 -3.0061 0.9676
4.4065 -6.2683 -3.0072 0.9676
4.9486 -5.8532 -3.0082 0.9676
5.4516 -5.3913 -3.0092 0.9676
6.9973 -3.1528 -3.0121 0.9676
7.5844 -1.1926 -3.0132 0.9675
7.6609 -0.5128 -3.0134 0.9675
7.6762 0.1711 -3.0134 0.9675
7.3568 2.1926 -3.0128 0.9676
6.5126 4.0561 -3.0112 0.9676
4.4442 5.7585 -2.8549 0.9692
2.7618 6.7205 -2.8516 0.9693
2.1518 6.9368 -2.8505 0.9693
0.2424 7.2496 -2.8468 0.9693
-2.8998 6.6321 -2.8408 0.9694
-4.0267 6.0082 -2.8387 0.9694
-5.0248 5.1956 -2.8367 0.9694
-5.5314 4.7832 -2.8700 0.9691
-6.1770 4.4459 -2.9869 0.9678
-6.5466 3.8776 -2.9862 0.9678
-6.8644 3.2788 -2.9856 0.9678
-7.1277 2.6544 -2.9851 0.9678
-7.3347 2.0092 -2.9847 0.9678
-7.4837 1.3483 -2.9844 0.9679
-7.5736 0.6768 -2.9843 0.9679
-7.2487 0.0000 -2.9849 0.9691
-6.9923 -1.9154 -2.9854 0.9691
-6.2408 -3.6964 -2.9868 0.9691
-5.4892 -4.7466 -2.9882 0.9691
-5.0463 -5.2179 -2.9891 0.9691
-4.0438 -6.0338 -2.9910 0.9691
-2.9120 -6.6600 -2.9932 0.9690
-1.6864 -7.0763 -2.9955 0.9690
-0.4053 -7.2692 -2.9980 0.9690
0.2434 -7.2794 -2.9992 0.9690
2.1605 -6.9649 -3.0029 0.9689
3.3638 -6.4765 -3.0052 0.9689
4.4619 -5.7815 -3.0073 0.9689
4.9604 -5.3631 -3.0082 0.9689
6.2060 -3.8652 -3.0106 0.9689
6.7955 -2.7045 -3.0117 0.9689
7.0102 -2.0893 -3.0121 0.9689
7.1691 -1.4572 -3.0124 0.9688
7.2708 -0.8134 -3.0126 0.9688
7.3145 -0.1630 -3.0127 0.9688
7.2271 1.1364 -3.0126 0.9688
7.0967 1.7750 -3.0123 0.9689
6.6678 3.0043 -3.0115 0.9689
6.3727 3.5852 -3.0109 0.9689
6.0270 4.1373 -3.0103 0.9689
5.6334 4.6561 -3.0095 0.9689
4.9312 4.8765 -2.8558 0.9704
2.9153 6.2824 -2.8519 0.9705
0.5387 6.8938 -2.8474 0.9705
-0.0770 6.9116 -2.8462 0.9705
-1.3002 6.7828 -2.8439 0.9706
-2.4802 6.4397 -2.8416 0.9706
-4.0890 5.5496 -2.8385 0.9706
-5.0564 4.7823 -2.8659 0.9703
-6.0706 3.9712 -2.9871 0.9691
-6.3987 3.4145 -2.9865 0.9691
-7.1843 0.9662 -2.9850 0.9691
-7.2415 -0.3229 -2.9849 0.9691
-7.0703 -1.6019 -2.9852 0.9691
-6.9004 -2.2251 -2.9855 0.9691
-6.3986 -3.4144 -2.9865 0.9691
-5.2730 -4.9872 -2.9886 0.9691
-4.8096 -5.4383 -2.9895 0.9691
-3.7717 -6.2090 -2.9915 0.9691
-2.6130 -6.7844 -2.9937 0.9690
-1.3698 -7.1459 -2.9961 0.9690
-0.7286 -7.2424 -2.9973 0.9690
-0.0811 -7.2815 -2.9986 0.9690
2.4692 -6.8631 -3.0035 0.9689
4.1993 -5.9735 -3.0068 0.9689
5.1952 -5.1376 -3.0087 0.9689
5.6334 -4.6561 -3.0095 0.9689
6.0269 -4.1372 -3.0103 0.9689
6.3727 -3.5852 -3.0109 0.9689
6.6677 -3.0043 -3.0115 0.9689
7.2271 -1.1364 -3.0126 0.9688
7.2999 -0.4887 -3.0127 0.9688
7.3145 0.1630 -3.0127 0.9688
7.2708 0.8134 -3.0126 0.9688
5.8360 4.4011 -3.0099 0.9689
5.2404 4.7396 -2.9096 0.9699
3.7287 5.8409 -2.8535 0.9705
3.1929 6.1474 -2.8525 0.9705
0.8454 6.8644 -2.8480 0.9705
-0.3847 6.8998 -2.8456 0.9705
-1.6007 6.7168 -2.8433 0.9706
-3.8383 5.7272 -2.8390 0.9706
-4.7899 4.9528 -2.8372 0.9706
-5.4892 4.7467 -2.9883 0.9691
-5.8884 4.2382 -2.9875 0.9691
-6.2408 3.6965 -2.9868 0.9691
-6.8938 -0.6160 -2.9856 0.9703
-6.8120 -1.2272 -2.9857 0.9703
-6.6763 -1.8288 -2.9860 0.9703
-6.2480 -2.9844 -2.9868 0.9703
-4.8180 -4.9818 -2.9895 0.9703
-2.2040 -6.5829 -2.9945 0.9702
-1.6099 -6.7555 -2.9957 0.9702
2.0624 -6.6484 -3.0027 0.9701
2.6469 -6.4409 -3.0038 0.9701
3.2108 -6.1820 -3.0049 0.9701
3.7496 -5.8736 -3.0059 0.9701
4.2589 -5.5184 -3.0069 0.9701
4.7346 -5.1190 -3.0078 0.9701
5.5702 -4.2007 -3.0094 0.9701
5.9233 -3.6891 -3.0101 0.9701
6.4858 -2.5813 -3.0111 0.9700
6.8423 -1.3907 -3.0118 0.9700
6.9393 -0.7763 -3.0120 0.9700
6.9672 0.4664 -3.0121 0.9700
6.8977 1.0846 -3.0119 0.9700
6.5948 2.2900 -3.0114 0.9700
2.7828 5.9967 -2.8517 0.9716
2.2372 6.2183 -2.8506 0.9716
1.6742 6.3904 -2.8496 0.9716
1.0984 6.5115 -2.8485 0.9716
-0.6602 6.5626 -2.8451 0.9717
-1.8119 6.3366 -2.8429 0.9717
-2.3678 6.1479 -2.8418 0.9717
-2.9046 5.9106 -2.8408 0.9717
-3.9039 5.2984 -2.8389 0.9717
-4.3587 4.9284 -2.8380 0.9717
-5.0324 4.7597 -2.9879 0.9703
-5.4369 4.2935 -2.9884 0.9703
-5.7962 3.7917 -2.9877 0.9703
-6.9143 0.3083 -2.9855 0.9703
-6.9143 -0.3083 -2.9855 0.9703
-6.8597 -0.9225 -2.9856 0.9703
-6.7508 -1.5295 -2.9858 0.9703
-6.5886 -2.1245 -2.9861 0.9703
-6.1094 -3.2600 -2.9871 0.9703
-5.7961 -3.7917 -2.9877 0.9703
-5.0345 -4.7616 -2.9891 0.9703
-3.6009 -5.9279 -2.9918 0.9702
-2.4946 -6.4770 -2.9940 0.9702
-1.9089 -6.6758 -2.9951 0.9702
-1.3076 -6.8219 -2.9962 0.9702
-0.6955 -6.9138 -2.9974 0.9702
0.5418 -6.9331 -2.9998 0.9702
2.3569 -6.5512 -3.0032 0.9701
4.9586 -4.9037 -3.0082 0.9701
5.3768 -4.4441 -3.0090 0.9701
5.7524 -3.9488 -3.0097 0.9701
6.3639 -2.8674 -3.0109 0.9701
6.7732 -1.6941 -3.0117 0.9700
6.9811 0.1555 -3.0121 0.9700
6.9394 0.7763 -3.0120 0.9700
6.8423 1.3908 -3.0118 0.9700
6.6907 1.9941 -3.0115 0.9700
6.4858 2.5813 -3.0112 0.9700
6.2293 3.1479 -3.0107 0.9701
5.9233 3.6891 -3.0101 0.9701
5.5702 4.2007 -3.0094 0.9701
5.1729 4.6786 -3.0086 0.9701
3.5591 5.5752 -2.8532 0.9716
3.0477 5.8679 -2.8522 0.9716
2.5124 6.1137 -2.8512 0.9716
0.2205 6.5959 -2.8468 0.9717
-0.9517 6.5254 -2.8445 0.9717
-1.5281 6.4122 -2.8434 0.9717
-2.0920 6.2484 -2.8424 0.9717
-2.6388 6.0353 -2.8413 0.9717
-3.6646 5.4679 -2.8393 0.9717
-4.1354 5.1185 -2.8384 0.9717
-4.6232 4.7804 -2.8686 0.9714
-5.9587 3.5294 -2.9874 0.9703
-6.2480 2.9845 -2.9868 0.9703
-6.4878 2.4161 -2.9863 0.9703
-6.6763 1.8288 -2.9860 0.9703
-6.6179 0.0000 -2.9861 0.9714
-6.5134 -1.1734 -2.9863 0.9714
-6.3837 -1.7487 -2.9865 0.9714
-5.9740 -2.8535 -2.9873 0.9714
-5.6974 -3.3745 -2.9878 0.9714
-5.3755 -3.8690 -2.9885 0.9714
-4.6066 -4.7632 -2.9899 0.9713
-4.1655 -5.1557 -2.9908 0.9713
-3.6912 -5.5077 -2.9917 0.9713
-3.1874 -5.8162 -2.9926 0.9713
-2.1071 -6.2936 -2.9947 0.9713
-1.5391 -6.4585 -2.9958 0.9713
-0.9585 -6.5723 -2.9969 0.9713
-0.3699 -6.6340 -2.9980 0.9713
0.8128 -6.5994 -3.0003 0.9712
1.3975 -6.5033 -3.0014 0.9712
1.9715 -6.3554 -3.0025 0.9712
2.5302 -6.1570 -3.0036 0.9712
4.9445 -4.4720 -3.0082 0.9712
5.3242 -4.0151 -3.0089 0.9712
5.6616 -3.5261 -3.0096 0.9712
6.1992 -2.4672 -3.0106 0.9711
6.6326 -0.7420 -3.0114 0.9711
6.6725 -0.1487 -3.0115 0.9711
6.6592 0.4458 -3.0115 0.9711
6.5928 1.0367 -3.0114 0.9711
6.4739 1.6193 -3.0111 0.9711
6.3034 2.1888 -3.0108 0.9711
6.0827 2.7408 -3.0104 0.9711
5.8137 3.2707 -3.0099 0.9712
5.1394 4.2479 -3.0086 0.9712
2.1386 5.9443 -2.8504 0.9727
1.6004 6.1088 -2.8494 0.9727
0.4916 6.2911 -2.8473 0.9727
-0.0703 6.3075 -2.8462 0.9727
-0.6312 6.2738 -2.8451 0.9727
-1.7322 6.0580 -2.8430 0.9727
-2.7770 5.6510 -2.8410 0.9727
-3.2678 5.3796 -2.8401 0.9728
-5.1984 4.1052 -2.9888 0.9714
-5.5420 3.6254 -2.9882 0.9714
-6.0948 2.5844 -2.9871 0.9714
-6.4549 1.4625 -2.9864 0.9714
-6.6113 0.2948 -2.9861 0.9714
-6.5591 -0.8821 -2.9862 0.9714
-6.4549 -1.4625 -2.9864 0.9714
-5.8415 -3.1171 -2.9876 0.9714
-5.5419 -3.6254 -2.9881 0.9714
-4.8136 -4.5526 -2.9895 0.9713
-4.3904 -4.9643 -2.9903 0.9713
-3.4428 -5.6675 -2.9921 0.9713
-1.8250 -6.3823 -2.9952 0.9713
0.5179 -6.6279 -2.9997 0.9712
1.1062 -6.5579 -3.0008 0.9712
1.6861 -6.4358 -3.0020 0.9712
2.2530 -6.2624 -3.0030 0.9712
2.8025 -6.0392 -3.0041 0.9712
3.3300 -5.7677 -3.0051 0.9712
3.8314 -5.4502 -3.0061 0.9712
5.1394 -4.2479 -3.0086 0.9712
6.0827 -2.7407 -3.0104 0.9711
6.4739 -1.6192 -3.0111 0.9711
6.5928 -1.0366 -3.0113 0.9711
6.6592 -0.4458 -3.0115 0.9711
6.6326 0.7420 -3.0114 0.9711
6.5399 1.3293 -3.0113 0.9711
6.3950 1.9059 -3.0110 0.9711
5.9541 3.0088 -3.0101 0.9711
5.3242 4.0152 -3.0089 0.9712
3.8641 5.0069 -2.8537 0.9726
2.9133 5.6091 -2.8519 0.9726
2.4017 5.8441 -2.8509 0.9727
-0.3511 6.2969 -2.8457 0.9727
-3.5037 5.2279 -2.8397 0.9728
-5.6974 3.3746 -2.9879 0.9714
-6.2034 2.3102 -2.9869 0.9714
-6.3837 1.7487 -2.9865 0.9714
-6.5134 1.1735 -2.9863 0.9714
-6.5917 0.5890 -2.9861 0.9714
-6.2360 -1.1235 -2.9868 0.9724
-6.1117 -1.6742 -2.9871 0.9724
-5.9391 -2.2117 -2.9874 0.9724
-5.7195 -2.7320 -2.9878 0.9724
-5.1464 -3.7041 -2.9889 0.9723
-3.9878 -4.9358 -2.9911 0.9723
-2.0171 -6.0247 -2.9949 0.9723
-0.9176 -6.2913 -2.9970 0.9723
0.7780 -6.3171 -3.0002 0.9722
1.3377 -6.2250 -3.0013 0.9722
2.4218 -5.8932 -3.0034 0.9722
2.9377 -5.6561 -3.0043 0.9722
3.8964 -5.0487 -3.0062 0.9722
4.3315 -4.6832 -3.0070 0.9722
4.7324 -4.2802 -3.0078 0.9722
5.4187 -3.3747 -3.0091 0.9722
5.6985 -2.8796 -3.0096 0.9722
5.9331 -2.3613 -3.0101 0.9722
6.2591 -1.2722 -3.0107 0.9722
6.3733 0.4267 -3.0109 0.9721
6.3097 0.9921 -3.0108 0.9721
6.1960 1.5497 -3.0106 0.9722
5.8216 2.6231 -3.0099 0.9722
4.0080 4.7407 -2.9263 0.9729
1.5319 5.8473 -2.8493 0.9736
1.0050 5.9583 -2.8483 0.9736
0.4706 6.0219 -2.8473 0.9736
-1.1359 5.9259 -2.8442 0.9737
-1.6582 5.7992 -2.8432 0.9737
-2.6584 5.4097 -2.8413 0.9737
-3.1284 5.1500 -2.8404 0.9737
-4.9768 3.9302 -2.9892 0.9723
-5.5926 2.9843 -2.9881 0.9724
-5.8351 2.4743 -2.9876 0.9724
-6.0314 1.9449 -2.9872 0.9724
-6.1800 1.4002 -2.9869 0.9724
-6.3297 -0.2822 -2.9866 0.9724
-6.0314 -1.9448 -2.9872 0.9724
-5.8351 -2.4743 -2.9876 0.9724
-5.5926 -2.9843 -2.9880 0.9724
-5.3057 -3.4708 -2.9886 0.9724
-4.9768 -3.9301 -2.9892 0.9723
-4.6083 -4.3585 -2.9899 0.9723
-4.2032 -4.7526 -2.9907 0.9723
-3.2958 -5.4257 -2.9924 0.9723
-2.8007 -5.6993 -2.9934 0.9723
-2.2831 -5.9279 -2.9944 0.9723
-1.1967 -6.2431 -2.9964 0.9723
1.0588 -6.2772 -3.0008 0.9722
2.1566 -5.9943 -3.0029 0.9722
3.1873 -5.5205 -3.0048 0.9722
5.2624 -3.6124 -3.0088 0.9722
5.8216 -2.6231 -3.0099 0.9722
6.0328 -2.0948 -3.0103 0.9722
6.1959 -1.5497 -3.0106 0.9722
6.3097 -0.9922 -3.0108 0.9721
6.3733 -0.4266 -3.0109 0.9721
6.2591 1.2722 -3.0107 0.9722
5.6986 2.8796 -3.0096 0.9722
4.7324 4.2802 -3.0078 0.9722
4.3316 4.6833 -3.0070 0.9722
3.6985 4.7922 -2.8534 0.9736
3.2563 5.1008 -2.8526 0.9736
2.2988 5.5938 -2.8508 0.9736
1.2697 5.9087 -2.8488 0.9736
0.2018 6.0358 -2.8467 0.9736
-0.8709 5.9717 -2.8447 0.9737
-4.4102 4.5601 -2.9903 0.9723
-4.7973 4.1484 -2.9896 0.9723
-5.1464 3.7042 -2.9889 0.9723
-6.1117 1.6742 -2.9871 0.9724
-6.0732 0.0000 -2.9871 0.9733
-5.4822 -2.6186 -2.9883 0.9733
-5.2282 -3.0967 -2.9887 0.9733
-4.9328 -3.5504 -2.9893 0.9733
-3.3869 -5.0536 -2.9923 0.9732
-2.9245 -5.3366 -2.9931 0.9732
-1.9332 -5.7742 -2.9950 0.9732
-1.4121 -5.9254 -2.9960 0.9732
-0.8794 -6.0296 -2.9970 0.9732
1.8084 -5.8298 -3.0022 0.9732
2.8152 -5.4203 -3.0041 0.9731
4.1507 -4.4877 -3.0067 0.9731
4.5348 -4.1015 -3.0074 0.9731
5.1923 -3.2338 -3.0087 0.9731
5.4605 -2.7593 -3.0092 0.9731
5.6852 -2.2627 -3.0096 0.9731
5.8647 -1.7479 -3.0100 0.9731
5.9975 -1.2190 -3.0102 0.9731
6.1069 0.4088 -3.0104 0.9731
6.0460 0.9507 -3.0103 0.9731
5.9370 1.4850 -3.0101 0.9731
5.7807 2.0073 -3.0098 0.9731
5.3317 2.9996 -3.0089 0.9731
5.0426 3.4616 -3.0084 0.9731
4.3471 4.2989 -3.0071 0.9731
3.9462 4.6676 -3.0063 0.9731
3.3461 4.7599 -2.8618 0.9744
0.4510 5.7712 -2.8472 0.9745
-1.0886 5.6794 -2.8443 0.9746
-1.5893 5.5581 -2.8433 0.9746
-2.9984 4.9360 -2.8406 0.9746
-3.5134 4.7684 -2.9132 0.9739
-4.0287 4.5553 -2.9910 0.9733
-4.4170 4.1776 -2.9903 0.9733
-5.3605 2.8605 -2.9885 0.9733
-6.0672 0.2705 -2.9871 0.9733
-6.0672 -0.2705 -2.9871 0.9733
-5.9236 -1.3421 -2.9874 0.9733
-5.7812 -1.8642 -2.9877 0.9733
-5.5930 -2.3716 -2.9880 0.9733
-5.0855 -3.3268 -2.9890 0.9733
-4.4170 -4.1775 -2.9903 0.9733
-3.6082 -4.8971 -2.9918 0.9732
-3.1589 -5.2002 -2.9927 0.9732
-2.6843 -5.4625 -2.9936 0.9732
-2.1882 -5.6815 -2.9945 0.9732
-1.6744 -5.8556 -2.9955 0.9732
-1.1469 -5.9834 -2.9965 0.9732
-0.0679 -6.0961 -2.9986 0.9732
0.4751 -6.0801 -2.9996 0.9732
1.0147 -6.0157 -3.0007 0.9732
1.5467 -5.9036 -3.0017 0.9732
2.5706 -5.5394 -3.0036 0.9731
3.0543 -5.2902 -3.0046 0.9731
3.5141 -4.9989 -3.0055 0.9731
4.3471 -4.2989 -3.0070 0.9731
5.3317 -2.9996 -3.0089 0.9731
5.9370 -1.4849 -3.0101 0.9731
6.1069 -0.4088 -3.0104 0.9731
6.0825 0.6804 -3.0104 0.9731
5.8647 1.7479 -3.0100 0.9731
5.1923 3.2338 -3.0087 0.9731
4.5348 4.1015 -3.0074 0.9731
4.1507 4.4877 -3.0067 0.9731
3.1204 4.8881 -2.8523 0.9745
2.6722 5.1448 -2.8515 0.9745
0.7077 5.7463 -2.8477 0.9745
-1.3403 5.6243 -2.8438 0.9746
-1.8350 5.4808 -2.8428 0.9746
-2.7759 5.0654 -2.8410 0.9746
-4.9328 3.5504 -2.9893 0.9733
-5.2282 3.0967 -2.9888 0.9733
-5.4822 2.6186 -2.9883 0.9733
-5.6927 2.1200 -2.9879 0.9733
-5.9773 1.0769 -2.9873 0.9733
-6.0492 0.5406 -2.9872 0.9733
-5.8275 0.0000 -2.9876 0.9741
-5.8045 -0.5187 -2.9876 0.9741
-5.4624 -2.0342 -2.9883 0.9741
-4.0558 -4.1937 -2.9910 0.9741
-1.8548 -5.5400 -2.9952 0.9741
-1.3548 -5.6850 -2.9961 0.9741
-0.8437 -5.7849 -2.9971 0.9741
-0.3256 -5.8389 -2.9981 0.9741
0.1955 -5.8467 -2.9991 0.9740
2.2265 -5.4179 -3.0030 0.9740
3.9818 -4.3050 -3.0063 0.9740
4.3501 -3.9345 -3.0071 0.9740
4.9808 -3.1021 -3.0083 0.9740
5.2380 -2.6469 -3.0088 0.9740
5.4536 -2.1704 -3.0092 0.9740
5.6257 -1.6767 -3.0095 0.9740
5.8346 -0.6527 -3.0099 0.9740
5.8697 -0.1308 -3.0100 0.9740
5.7996 0.9120 -3.0098 0.9740
5.6951 1.4245 -3.0096 0.9740
5.3511 2.4111 -3.0090 0.9740
4.8373 3.3206 -3.0080 0.9740
4.1701 4.1239 -3.0067 0.9740
3.7856 4.4776 -3.0060 0.9740
3.3288 4.7353 -2.9675 0.9743
2.3407 5.0441 -2.8508 0.9753
1.8819 5.2308 -2.8500 0.9753
1.4084 5.3758 -2.8490 0.9753
0.9240 5.4781 -2.8481 0.9753
0.4326 5.5368 -2.8472 0.9753
-0.0618 5.5515 -2.8462 0.9754
-0.5555 5.5221 -2.8453 0.9754
-1.0445 5.4489 -2.8444 0.9754
-1.5248 5.3326 -2.8434 0.9754
-2.4446 4.9747 -2.8417 0.9754
-2.9008 4.7754 -2.8645 0.9752
-4.2382 4.0084 -2.9906 0.9741
-4.5771 3.6145 -2.9900 0.9741
-4.8797 3.1922 -2.9894 0.9741
-5.1436 2.7447 -2.9889 0.9741
-5.7757 0.7768 -2.9877 0.9741
-5.8218 -0.2596 -2.9876 0.9741
-5.7757 -0.7767 -2.9877 0.9741
-4.8797 -3.1921 -2.9894 0.9741
-3.4620 -4.6987 -2.9921 0.9741
-2.5755 -5.2410 -2.9938 0.9741
-0.0652 -5.8486 -2.9986 0.9741
0.4558 -5.8331 -2.9996 0.9740
0.9735 -5.7713 -3.0006 0.9740
2.4660 -5.3141 -3.0034 0.9740
4.1701 -4.1239 -3.0067 0.9740
4.5216 -3.7372 -3.0074 0.9740
5.1145 -2.8773 -3.0085 0.9740
5.5452 -1.9255 -3.0093 0.9740
5.8580 -0.3921 -3.0099 0.9740
5.8697 0.1308 -3.0100 0.9740
5.7531 1.1694 -3.0097 0.9740
5.4536 2.1705 -3.0092 0.9740
5.2380 2.6469 -3.0088 0.9740
3.0328 4.7508 -2.8895 0.9750
2.5635 4.9356 -2.8513 0.9753
2.1134 5.1426 -2.8504 0.9753
1.1673 5.4324 -2.8486 0.9753
-0.3090 5.5423 -2.8458 0.9754
-0.8008 5.4910 -2.8448 0.9754
-1.7606 5.2586 -2.8430 0.9754
-2.6634 4.8601 -2.8413 0.9754
-3.1918 4.7625 -2.9392 0.9746
-4.7331 3.4067 -2.9897 0.9741
-5.0166 2.9714 -2.9892 0.9741
-5.6212 1.5398 -2.9880 0.9741
-5.7355 1.0333 -2.9878 0.9741
-5.5972 0.0000 -2.9880 0.9749
-5.5751 -0.4982 -2.9881 0.9749
-5.2465 -1.9538 -2.9887 0.9749
-5.0524 -2.4133 -2.9891 0.9749
-4.5459 -3.2720 -2.9900 0.9749
-4.2375 -3.6643 -2.9906 0.9749
-3.8954 -4.0278 -2.9913 0.9749
-3.5223 -4.3596 -2.9920 0.9749
-2.6949 -4.9176 -2.9936 0.9749
-2.2472 -5.1394 -2.9944 0.9749
-1.3011 -5.4597 -2.9962 0.9749
-0.8103 -5.5556 -2.9972 0.9749
-0.3127 -5.6074 -2.9981 0.9749
0.1877 -5.6148 -2.9991 0.9748
1.1810 -5.4960 -3.0010 0.9748
2.5934 -4.9932 -3.0037 0.9748
3.4395 -4.4567 -3.0053 0.9748
4.1771 -3.7780 -3.0067 0.9748
4.4977 -3.3919 -3.0073 0.9748
4.7827 -2.9787 -3.0079 0.9748
5.0296 -2.5416 -3.0084 0.9748
5.2365 -2.0841 -3.0088 0.9748
5.5241 -1.1228 -3.0093 0.9748
5.6024 -0.6267 -3.0095 0.9748
5.6361 -0.1256 -3.0095 0.9748
5.6248 0.3766 -3.0095 0.9748
5.5688 0.8757 -3.0094 0.9748
5.4684 1.3678 -3.0092 0.9748
5.3245 1.8489 -3.0089 0.9748
5.1382 2.3152 -3.0086 0.9748
4.9110 2.7629 -3.0081 0.9748
4.6448 3.1885 -3.0076 0.9748
3.2372 4.6049 -3.0049 0.9748
2.2477 4.8438 -2.8507 0.9761
1.8072 5.0231 -2.8498 0.9761
1.3525 5.1624 -2.8489 0.9761
0.8874 5.2607 -2.8481 0.9761
0.4155 5.3171 -2.8471 0.9761
-0.0594 5.3313 -2.8462 0.9761
-0.5335 5.3031 -2.8453 0.9761
-1.0031 5.2329 -2.8444 0.9761
-1.4644 5.1213 -2.8436 0.9761
-1.9138 4.9691 -2.8427 0.9761
-2.3516 4.7855 -2.8465 0.9761
-3.3250 4.5128 -2.9924 0.9749
-3.7125 4.1978 -2.9917 0.9749
-4.0705 3.8499 -2.9910 0.9749
-4.3961 3.4716 -2.9903 0.9749
-4.6867 3.0659 -2.9898 0.9749
-5.4594 1.2369 -2.9883 0.9749
-5.5475 0.7461 -2.9881 0.9749
-5.5475 -0.7461 -2.9881 0.9749
-5.3280 -1.7180 -2.9886 0.9749
-5.1545 -2.1857 -2.9889 0.9749
-4.9402 -2.6362 -2.9893 0.9749
-4.6867 -3.0659 -2.9898 0.9749
-2.4735 -5.0335 -2.9940 0.9749
-2.0163 -5.2352 -2.9949 0.9749
-1.5428 -5.3955 -2.9958 0.9749
-0.0626 -5.6167 -2.9986 0.9749
0.4377 -5.6017 -2.9996 0.9748
0.9349 -5.5423 -3.0005 0.9748
1.4249 -5.4388 -3.0015 0.9748
2.8137 -4.8734 -3.0041 0.9748
3.2371 -4.6049 -3.0049 0.9748
3.6351 -4.2996 -3.0057 0.9748
5.4684 -1.3677 -3.0092 0.9748
5.5688 -0.8757 -3.0094 0.9748
5.6361 0.1256 -3.0095 0.9748
5.4018 1.6099 -3.0091 0.9748
5.2366 2.0841 -3.0088 0.9748
4.1772 3.7780 -3.0067 0.9748
3.4395 4.4567 -3.0053 0.9748
2.4722 4.7599 -2.8634 0.9760
2.0294 4.9384 -2.8502 0.9761
1.1210 5.2168 -2.8485 0.9761
0.1782 5.3295 -2.8467 0.9761
-0.2968 5.3225 -2.8458 0.9761
-2.1330 4.8783 -2.8423 0.9761
-2.6126 4.7674 -2.9022 0.9757
-3.1211 4.6570 -2.9928 0.9749
-3.5223 4.3596 -2.9920 0.9749
-4.2375 3.6643 -2.9906 0.9749
-4.5459 3.2720 -2.9901 0.9749
-4.8183 2.8539 -2.9895 0.9749
-5.0524 2.4133 -2.9891 0.9749
-5.2465 1.9538 -2.9887 0.9749
-5.3990 1.4790 -2.9884 0.9749
-5.5089 0.9925 -2.9882 0.9749
-5.5751 0.4982 -2.9881 0.9749
-5.1902 -1.4218 -2.9888 0.9757
-5.0435 -1.8782 -2.9891 0.9757
-4.6318 -2.7434 -2.9899 0.9757
-4.0735 -3.5225 -2.9909 0.9757
-3.7446 -3.8719 -2.9916 0.9757
-3.3859 -4.1907 -2.9923 0.9757
-3.0002 -4.4765 -2.9930 0.9756
-2.5905 -4.7271 -2.9938 0.9756
-2.1601 -4.9402 -2.9946 0.9756
-0.7788 -5.3401 -2.9972 0.9756
-0.3005 -5.3899 -2.9982 0.9756
0.1804 -5.3969 -2.9991 0.9756
1.6013 -5.1621 -3.0018 0.9756
2.4926 -4.7992 -3.0035 0.9756
2.9106 -4.5595 -3.0043 0.9756
3.3057 -4.2833 -3.0051 0.9755
3.6747 -3.9730 -3.0058 0.9755
4.0146 -3.6310 -3.0064 0.9755
4.8338 -2.4426 -3.0080 0.9755
5.1915 -1.5472 -3.0087 0.9755
5.4166 -0.1207 -3.0091 0.9755
5.4058 0.3619 -3.0091 0.9755
5.3520 0.8416 -3.0090 0.9755
5.1172 1.7769 -3.0085 0.9755
3.8485 3.8059 -3.0061 0.9755
2.2043 4.7501 -2.9084 0.9763
1.3000 4.9619 -2.8488 0.9768
0.8529 5.0564 -2.8480 0.9768
0.3994 5.1107 -2.8471 0.9768
-0.5128 5.0974 -2.8454 0.9768
-2.3384 4.7586 -2.9448 0.9760
-3.1962 4.3379 -2.9926 0.9756
-4.5054 2.9473 -2.9901 0.9757
-4.7491 2.5342 -2.9897 0.9757
-5.3329 0.7172 -2.9885 0.9757
-5.3329 -0.7172 -2.9885 0.9757
-5.1219 -1.6516 -2.9889 0.9757
-4.9551 -2.1011 -2.9893 0.9757
-4.5054 -2.9473 -2.9901 0.9757
-4.2259 -3.3372 -2.9907 0.9757
-3.9129 -3.7008 -2.9913 0.9757
-2.7981 -4.6063 -2.9934 0.9756
-2.3777 -4.8384 -2.9942 0.9756
-1.9381 -5.0323 -2.9950 0.9756
-1.4830 -5.1863 -2.9959 0.9756
-1.0158 -5.2993 -2.9968 0.9756
0.8986 -5.3271 -3.0005 0.9756
1.3696 -5.2276 -3.0014 0.9756
2.2760 -4.9047 -3.0031 0.9756
3.4937 -4.1324 -3.0054 0.9755
4.1728 -3.4489 -3.0067 0.9755
4.4641 -3.0644 -3.0073 0.9755
4.9382 -2.2250 -3.0082 0.9755
5.4166 0.1207 -3.0091 0.9755
5.3842 0.6023 -3.0090 0.9755
5.3090 1.0791 -3.0089 0.9755
4.8338 2.4427 -3.0080 0.9755
4.5965 2.8628 -3.0075 0.9755
4.0147 3.6310 -3.0064 0.9755
3.6748 3.9731 -3.0058 0.9755
2.4612 4.7386 -2.9656 0.9759
1.9577 4.7637 -2.8605 0.9767
1.0775 5.0142 -2.8484 0.9768
0.6267 5.0887 -2.8476 0.9768
0.1713 5.1227 -2.8467 0.9768
-0.2853 5.1160 -2.8458 0.9768
-1.1871 4.9813 -2.8441 0.9768
-1.6253 4.8545 -2.8432 0.9768
-2.0847 4.7679 -2.8901 0.9765
-3.0002 4.4766 -2.9930 0.9756
-4.8569 2.3200 -2.9895 0.9757
-5.2958 0.9541 -2.9886 0.9757
-5.1768 0.0000 -2.9888 0.9764
-4.9935 -1.3679 -2.9892 0.9764
-4.8523 -1.8070 -2.9895 0.9764
-4.4562 -2.6394 -2.9902 0.9764
-4.2043 -3.0261 -2.9907 0.9764
-3.6025 -3.7250 -2.9918 0.9763
-2.4922 -4.5476 -2.9940 0.9763
-1.2031 -5.0486 -2.9964 0.9763
-0.7492 -5.1371 -2.9973 0.9763
1.0920 -5.0816 -3.0008 0.9763
1.5404 -4.9656 -3.0017 0.9763
2.7998 -4.3858 -3.0041 0.9763
3.1798 -4.1202 -3.0048 0.9762
3.5347 -3.8216 -3.0055 0.9762
3.8616 -3.4926 -3.0061 0.9762
4.4212 -2.7536 -3.0072 0.9762
4.6495 -2.3495 -3.0076 0.9762
4.8407 -1.9265 -3.0080 0.9762
5.1065 -1.0379 -3.0085 0.9762
5.1788 -0.5793 -3.0086 0.9762
5.2099 -0.1161 -3.0087 0.9762
5.1996 0.3481 -3.0087 0.9762
5.1478 0.8095 -3.0086 0.9762
4.9220 1.7091 -3.0082 0.9762
4.2939 2.9476 -3.0070 0.9762
4.0138 3.3175 -3.0064 0.9762
2.1894 4.7180 -3.0029 0.9763
1.7091 4.7505 -2.9148 0.9770
1.2511 4.7754 -2.8501 0.9775
0.8205 4.8640 -2.8479 0.9775
0.3842 4.9163 -2.8471 0.9775
-2.6919 4.4316 -2.9936 0.9763
-3.0749 4.1734 -2.9929 0.9763
-3.4334 3.8822 -2.9922 0.9763
-4.5690 2.4381 -2.9900 0.9764
-4.7673 2.0215 -2.9896 0.9764
-5.0493 1.1440 -2.9891 0.9764
-5.1717 0.2306 -2.9889 0.9764
-5.1717 -0.2306 -2.9889 0.9764
-4.7673 -2.0215 -2.9896 0.9764
-4.5690 -2.4381 -2.9900 0.9764
-3.0749 -4.1733 -2.9929 0.9763
-1.8645 -4.8411 -2.9952 0.9763
-1.4266 -4.9893 -2.9960 0.9763
-0.5197 -5.1662 -2.9977 0.9763
0.8644 -5.1244 -3.0004 0.9763
1.7603 -4.8928 -3.0021 0.9763
2.6013 -4.5056 -3.0037 0.9763
2.9927 -4.2572 -3.0045 0.9763
3.3606 -3.9749 -3.0052 0.9762
3.7018 -3.6608 -3.0058 0.9762
4.0137 -3.3174 -3.0064 0.9762
4.5399 -2.5541 -3.0074 0.9762
5.0550 -1.2643 -3.0084 0.9762
5.1478 -0.8094 -3.0086 0.9762
5.1996 -0.3481 -3.0087 0.9762
5.2099 0.1161 -3.0087 0.9762
5.1788 0.5794 -3.0086 0.9762
4.1579 3.1357 -3.0067 0.9762
3.8616 3.4927 -3.0061 0.9762
3.5347 3.8217 -3.0055 0.9762
3.1798 4.1202 -3.0048 0.9762
0.6029 4.8951 -2.8475 0.9775
0.1649 4.9312 -2.8486 0.9775
-0.2749 4.9299 -2.8507 0.9775
-1.1420 4.7921 -2.8442 0.9775
-1.5951 4.7642 -2.9007 0.9771
-2.4922 4.5477 -2.9940 0.9763
-2.8863 4.3067 -2.9932 0.9763
-3.2574 4.0318 -2.9925 0.9763
-4.4562 2.6395 -2.9902 0.9764
-4.6728 2.2320 -2.9898 0.9764
