ply
format ascii 1.0
element vertex 1630
property float32 x
property float32 y
property float32 z
property float32 I
end_header
9.6901 -6.6519 1.8716 0.9535
9.5931 -5.9746 1.6075 0.9554
8.8790 -6.6960 1.3936 0.9562
9.3537 -5.8255 1.3809 0.9565
9.1530 -7.5652 1.4881 0.9533
9.9171 -5.5793 1.4259 0.9552
8.7227 -6.5781 1.1850 0.9570
8.7666 -7.2458 1.2336 0.9553
9.6875 -5.4501 1.2056 0.9563
10.3617 -5.2360 1.0643 0.9544
9.5425 -5.3685 1.0038 0.9570
8.4780 -7.0073 0.8243 0.9568
8.7124 -5.9807 0.7919 0.9585
8.6642 -7.8363 0.6804 0.9543
8.4715 -6.3886 0.6180 0.9584
8.9437 -5.5702 0.6137 0.9587
10.0080 -5.0573 0.6531 0.9561
8.6598 -5.9447 0.6118 0.9588
9.3645 -5.2684 0.6258 0.9579
8.5294 -7.7144 0.4782 0.9550
8.4252 -6.3537 0.4388 0.9586
8.3394 -6.8927 0.4499 0.9576
8.4512 -7.6437 0.2842 0.9554
8.4000 -6.3347 0.2624 0.9588
8.8724 -5.5258 0.2607 0.9590
9.8630 -4.9840 0.2756 0.9567
9.2754 -5.2183 0.2654 0.9583
8.4240 -7.6191 0.0944 0.9556
8.3851 -6.3236 0.0873 0.9589
8.4206 -7.6160 -0.0944 0.9556
8.3832 -6.3221 -0.0873 0.9589
8.8555 -5.5153 -0.0867 0.9591
8.2906 -6.8524 -0.0894 0.9579
9.2547 -5.2066 -0.0883 0.9584
8.4469 -7.6397 -0.2840 0.9555
8.3066 -6.8656 -0.2688 0.9578
9.2725 -5.2166 -0.2653 0.9583
8.5115 -7.6982 -0.4772 0.9551
8.4185 -6.3487 -0.4384 0.9587
8.8903 -5.5369 -0.4355 0.9589
8.3321 -6.8867 -0.4495 0.9576
9.2992 -5.2316 -0.4436 0.9582
8.9362 -5.5655 -0.6132 0.9587
9.9939 -5.0501 -0.6522 0.9561
8.3880 -6.9329 -0.6338 0.9573
8.6527 -5.9397 -0.6113 0.9588
9.3556 -5.2634 -0.6252 0.9579
8.5151 -6.4215 -0.7992 0.9581
8.9883 -5.5979 -0.7935 0.9584
8.4617 -6.9938 -0.8227 0.9569
10.3207 -5.2153 -1.0601 0.9546
8.5760 -7.0883 -1.0200 0.9563
8.7818 -6.0284 -0.9765 0.9581
9.5262 -5.3593 -1.0021 0.9570
9.1816 -5.7184 -1.1733 0.9574
8.7298 -7.2154 -1.2285 0.9555
8.8766 -6.0935 -1.1678 0.9576
9.6589 -5.4340 -1.2021 0.9564
8.8543 -6.6773 -1.3897 0.9563
9.0419 -7.4733 -1.4700 0.9538
9.8712 -5.5535 -1.4194 0.9554
9.2154 -6.3260 -1.5899 0.9558
10.3808 -5.8401 -1.6941 0.9530
10.0651 -6.2686 -1.8882 0.9531
2.4476 14.5106 -2.8477 0.9418
-1.4693 14.6052 -2.8406 0.9419
-4.0289 14.0901 -2.8360 0.9420
-6.4533 13.1320 -2.8315 0.9421
-7.5909 12.4963 -2.8295 0.9422
-8.6670 11.7629 -2.8275 0.9422
-9.6732 10.9377 -2.8257 0.9422
-10.6019 10.0272 -2.8239 0.9423
-11.4460 9.0388 -2.8224 0.9423
-12.8554 6.8598 -2.8198 0.9424
1.7981 14.5992 -2.8466 0.9418
0.4911 14.6891 -2.8442 0.9419
-2.1176 14.5192 -2.8394 0.9420
-4.6508 13.8911 -2.8348 0.9421
-7.0292 12.8268 -2.8305 0.9421
-8.1372 12.1415 -2.8285 0.9422
-9.1793 11.3614 -2.8266 0.9422
-12.5396 7.4272 -2.8204 0.9424
-13.1456 6.2791 -2.8192 0.9424
-13.6478 5.0825 -2.8183 0.9424
-13.8650 -2.4979 -2.9701 0.9440
-13.5898 -3.7226 -2.9705 0.9440
-10.6766 -9.2324 -2.9757 0.9439
-9.8175 -10.1513 -2.9772 0.9439
-8.8800 -10.9910 -2.9789 0.9439
-7.8713 -11.7448 -2.9807 0.9438
-3.2867 -13.7915 -2.9889 0.9437
-2.0477 -14.0398 -2.9912 0.9436
0.4748 -14.2021 -2.9958 0.9436
1.7383 -14.1142 -2.9980 0.9435
4.2197 -13.6029 -3.0026 0.9434
5.4176 -13.1829 -3.0047 0.9434
7.6797 -12.0300 -3.0089 0.9433
8.7255 -11.3059 -3.0108 0.9433
9.7029 -10.4906 -3.0126 0.9433
10.6039 -9.5907 -3.0142 0.9432
12.1479 -7.5658 -3.0171 0.9432
12.7781 -6.4570 -3.0183 0.9432
13.3064 -5.2958 -3.0193 0.9431
13.7286 -4.0916 -3.0201 0.9431
14.0411 -2.8539 -3.0207 0.9431
14.2989 0.9572 -3.0212 0.9431
14.1559 2.2259 -3.0210 0.9431
13.8996 3.4765 -3.0206 0.9431
12.3924 5.5838 -2.8655 0.9460
11.8422 6.6623 -2.8645 0.9460
11.1978 7.6869 -2.8634 0.9460
6.7723 11.7301 -2.8555 0.9461
5.6976 12.2779 -2.8536 0.9462
3.4255 13.0748 -2.8495 0.9462
2.2464 13.3179 -2.8473 0.9463
1.0514 13.4547 -2.8452 0.9463
-0.1502 13.4846 -2.8430 0.9464
-1.3488 13.4074 -2.8408 0.9464
-2.5348 13.2241 -2.8387 0.9464
-4.8322 12.5467 -2.8345 0.9465
-5.9256 12.0582 -2.8325 0.9466
-6.9706 11.4752 -2.8306 0.9466
-11.8082 6.3011 -2.8217 0.9468
-12.3180 5.2233 -2.8207 0.9468
-13.7417 3.1135 -2.9705 0.9440
-13.9623 1.8778 -2.9700 0.9440
-13.9618 -1.8777 -2.9699 0.9440
-13.7409 -3.1133 -2.9703 0.9440
-12.9770 -5.5027 -2.9716 0.9440
-11.8039 -7.7218 -2.9737 0.9440
-11.0746 -8.7455 -2.9750 0.9439
-10.2573 -9.7013 -2.9764 0.9439
-8.3841 -11.3790 -2.9798 0.9439
-7.3427 -12.0877 -2.9816 0.9438
-6.2418 -12.7017 -2.9836 0.9438
-5.0900 -13.2160 -2.9857 0.9437
-3.8964 -13.6264 -2.9878 0.9437
-1.4207 -14.1224 -2.9923 0.9436
-0.1582 -14.2037 -2.9946 0.9436
2.3662 -14.0282 -2.9992 0.9435
3.6082 -13.7722 -3.0014 0.9435
4.8232 -13.4063 -3.0037 0.9434
6.0016 -12.9331 -3.0058 0.9434
7.1338 -12.3560 -3.0079 0.9433
8.2106 -11.6797 -3.0099 0.9433
12.4754 -7.0185 -3.0177 0.9432
13.0553 -5.8824 -3.0188 0.9431
13.5310 -4.6985 -3.0197 0.9431
14.2987 -0.9572 -3.0212 0.9431
14.3275 0.3193 -3.0213 0.9431
14.2417 1.5932 -3.0212 0.9431
14.0418 2.8541 -3.0208 0.9431
13.7297 4.0919 -3.0203 0.9431
12.6306 5.0269 -2.8659 0.9459
12.1294 6.1293 -2.8650 0.9460
10.8418 8.1762 -2.8628 0.9460
10.0662 9.1044 -2.8614 0.9460
9.2110 9.9589 -2.8599 0.9461
7.2906 11.4204 -2.8564 0.9461
6.2410 12.0161 -2.8545 0.9462
5.1432 12.5152 -2.8526 0.9462
4.0060 12.9140 -2.8505 0.9462
2.8386 13.2095 -2.8484 0.9463
0.4508 13.4830 -2.8441 0.9463
-3.1203 13.0931 -2.8376 0.9465
-7.4725 11.1497 -2.8296 0.9466
-10.1351 8.7642 -2.8248 0.9467
-12.0750 5.7678 -2.8212 0.9468
-13.8657 2.4980 -2.9702 0.9440
-14.0314 1.2538 -2.9699 0.9440
-13.0198 -0.0000 -2.9717 0.9480
-12.8148 -2.3087 -2.9720 0.9480
-12.2067 -4.5458 -2.9730 0.9480
-11.7568 -5.6157 -2.9738 0.9479
-8.2056 -10.1562 -2.9801 0.9478
-5.2402 -11.9846 -2.9855 0.9477
-3.0363 -12.7407 -2.9894 0.9477
-1.8916 -12.9694 -2.9915 0.9476
-0.7302 -13.0955 -2.9936 0.9476
0.4386 -13.1178 -2.9957 0.9476
1.6055 -13.0359 -2.9978 0.9475
3.8968 -12.5621 -3.0020 0.9475
5.0028 -12.1736 -3.0040 0.9474
6.0704 -11.6876 -3.0060 0.9474
8.9583 -9.6855 -3.0113 0.9473
11.7957 -5.9606 -3.0165 0.9472
12.9608 -2.6344 -3.0187 0.9472
13.0667 2.0547 -3.0190 0.9472
11.4394 5.1544 -2.8638 0.9498
8.9074 8.8087 -2.8593 0.9499
7.1967 10.2374 -2.8562 0.9500
-0.1388 12.4552 -2.8430 0.9502
-4.4644 11.5915 -2.8351 0.9503
-5.4748 11.1408 -2.8333 0.9503
-6.4406 10.6027 -2.8315 0.9504
-11.3844 4.8274 -2.8224 0.9505
-12.3967 3.9974 -2.9729 0.9480
-12.9043 -1.7354 -2.9718 0.9480
-12.7001 -2.8774 -2.9722 0.9480
-11.4967 -6.1348 -2.9743 0.9479
-10.2345 -8.0821 -2.9765 0.9479
-8.6476 -9.7780 -2.9793 0.9479
-5.7670 -11.7355 -2.9845 0.9478
-1.3124 -13.0453 -2.9925 0.9476
1.0229 -13.0899 -2.9968 0.9476
3.3322 -12.7189 -3.0010 0.9475
8.5156 -10.0723 -3.0104 0.9473
10.1769 -8.4114 -3.0135 0.9473
10.8899 -7.4755 -3.0148 0.9472
11.5165 -6.4791 -3.0160 0.9472
12.0514 -5.4301 -3.0170 0.9472
12.4903 -4.3371 -3.0178 0.9472
12.9615 2.6346 -3.0189 0.9472
7.6478 9.9095 -2.8570 0.9499
6.7316 10.5448 -2.8554 0.9500
5.7628 11.0953 -2.8536 0.9500
4.7493 11.5568 -2.8518 0.9500
3.6994 11.9257 -2.8499 0.9501
0.4164 12.4534 -2.8440 0.9502
-1.7957 12.3125 -2.8400 0.9502
-4.9746 11.3773 -2.8342 0.9503
-5.9638 10.8825 -2.8324 0.9504
-7.7896 9.6413 -2.8290 0.9504
-8.6122 8.9049 -2.8275 0.9504
-9.3660 8.0991 -2.8261 0.9505
-10.0452 7.2301 -2.8249 0.9505
-10.6446 6.3048 -2.8238 0.9505
-12.2077 4.5462 -2.9733 0.9480
-11.9061 -2.1450 -2.9736 0.9514
-11.6695 -3.1966 -2.9740 0.9514
-10.9226 -5.2173 -2.9753 0.9514
-10.4180 -6.1706 -2.9762 0.9513
-9.8309 -7.0758 -2.9773 0.9513
-9.1657 -7.9259 -2.9784 0.9513
-8.4276 -8.7141 -2.9798 0.9513
-7.6223 -9.4342 -2.9812 0.9513
-6.7558 -10.0804 -2.9828 0.9512
-4.8670 -11.1312 -2.9862 0.9512
-3.8593 -11.5272 -2.9880 0.9512
-2.8198 -11.8324 -2.9898 0.9511
-0.6781 -12.1606 -2.9937 0.9511
0.4072 -12.1807 -2.9957 0.9510
2.5638 -11.9311 -2.9996 0.9510
4.6445 -11.3017 -3.0034 0.9509
5.6354 -10.8500 -3.0052 0.9509
6.5825 -10.3113 -3.0069 0.9509
8.3152 -8.9903 -3.0101 0.9508
9.7863 -7.3802 -3.0128 0.9508
11.3998 -4.5370 -3.0158 0.9507
11.7610 -3.5052 -3.0165 0.9507
12.1996 -1.3647 -3.0174 0.9507
12.2489 0.8200 -3.0175 0.9507
12.1266 1.9068 -3.0173 0.9507
11.9072 2.9782 -3.0170 0.9507
11.5928 4.0255 -3.0164 0.9507
10.1459 5.7080 -2.8614 0.9532
9.5943 6.5861 -2.8605 0.9532
8.2677 8.1761 -2.8581 0.9532
6.6804 9.5031 -2.8553 0.9533
5.8049 10.0544 -2.8537 0.9533
4.8841 10.5251 -2.8520 0.9533
2.9370 11.2105 -2.8485 0.9534
1.9263 11.4200 -2.8467 0.9534
-3.1736 11.0989 -2.8374 0.9536
-4.1463 10.7656 -2.8357 0.9536
-5.0850 10.3476 -2.8340 0.9536
-7.6255 8.6223 -2.8293 0.9537
-8.3587 7.9057 -2.8280 0.9537
-9.0253 7.1272 -2.8267 0.9537
-9.6201 6.2932 -2.8256 0.9538
-10.1385 5.4101 -2.8247 0.9538
-11.5174 3.7139 -2.9745 0.9514
-11.8001 2.6736 -2.9740 0.9514
-11.9897 1.6125 -2.9736 0.9514
-11.7995 -2.6734 -2.9738 0.9514
-11.5166 -3.7136 -2.9743 0.9514
-11.1428 -4.7249 -2.9750 0.9514
-10.6809 -5.6995 -2.9758 0.9514
-9.5078 -7.5082 -2.9778 0.9513
-8.8055 -8.3281 -2.9791 0.9513
-8.0330 -9.0830 -2.9805 0.9513
-7.1963 -9.7669 -2.9820 0.9513
-5.3565 -10.9001 -2.9853 0.9512
-3.3430 -11.6913 -2.9889 0.9511
-2.2906 -11.9501 -2.9908 0.9511
-0.1357 -12.1827 -2.9947 0.9511
2.0291 -12.0296 -2.9986 0.9510
3.0938 -11.8088 -3.0006 0.9510
5.1449 -11.0870 -3.0043 0.9509
6.1149 -10.5913 -3.0061 0.9509
7.0373 -10.0106 -3.0078 0.9508
10.1074 -6.9383 -3.0134 0.9508
11.1849 -5.0396 -3.0154 0.9507
11.5920 -4.0252 -3.0162 0.9507
11.9066 -2.9780 -3.0168 0.9507
12.2487 -0.8199 -3.0175 0.9507
12.2734 0.2735 -3.0175 0.9507
12.1999 1.3648 -3.0174 0.9507
11.7618 3.5054 -3.0167 0.9507
10.3917 5.2512 -2.8619 0.9532
9.8800 6.1533 -2.8610 0.9532
9.2897 7.0057 -2.8599 0.9532
8.6257 7.8015 -2.8587 0.9532
5.3497 10.3001 -2.8529 0.9533
4.4091 10.7290 -2.8512 0.9533
3.4346 11.0720 -2.8494 0.9534
2.4339 11.3265 -2.8476 0.9534
1.4152 11.4908 -2.8458 0.9534
-1.6676 11.4339 -2.8402 0.9535
-5.5393 10.1079 -2.8331 0.9536
-6.4133 9.5693 -2.8315 0.9537
-7.2357 8.9557 -2.8300 0.9537
-8.0001 8.2721 -2.8286 0.9537
-8.7007 7.5237 -2.8273 0.9537
-9.8891 5.8573 -2.8251 0.9538
-11.6702 3.1968 -2.9742 0.9514
-10.8908 -2.9833 -2.9755 0.9544
-10.5840 -3.9415 -2.9760 0.9544
-10.1935 -4.8690 -2.9767 0.9543
-9.7224 -5.7586 -2.9775 0.9543
-8.5533 -7.3963 -2.9796 0.9543
-7.1125 -8.8032 -2.9821 0.9543
-6.3038 -9.4059 -2.9836 0.9542
-5.4444 -9.9348 -2.9851 0.9542
-2.6307 -11.0389 -2.9902 0.9541
-1.6387 -11.2360 -2.9920 0.9541
-0.6325 -11.3441 -2.9938 0.9541
2.3914 -11.1286 -2.9993 0.9540
3.3744 -10.8780 -3.0011 0.9540
4.3317 -10.5406 -3.0028 0.9540
5.2557 -10.1189 -3.0045 0.9539
6.1387 -9.6162 -3.0062 0.9539
8.4732 -7.6636 -3.0104 0.9538
9.1254 -6.8818 -3.0116 0.9538
9.7051 -6.0444 -3.0127 0.9538
10.2077 -5.1582 -3.0137 0.9538
10.6291 -4.2303 -3.0144 0.9538
10.9658 -3.2682 -3.0151 0.9538
11.2149 -2.2795 -3.0156 0.9538
11.3745 -1.2724 -3.0159 0.9538
11.4432 -0.2550 -3.0160 0.9538
11.4204 0.7645 -3.0160 0.9538
11.1020 2.7768 -3.0155 0.9538
10.4297 4.6994 -3.0143 0.9538
9.4602 5.3222 -2.8602 0.9561
8.9461 6.1412 -2.8593 0.9561
6.9973 8.2765 -2.8558 0.9562
5.4136 9.3766 -2.8530 0.9562
1.7968 10.6520 -2.8464 0.9563
-0.1202 10.7886 -2.8430 0.9564
-1.0793 10.7285 -2.8412 0.9564
-5.5819 9.1890 -2.8330 0.9565
-6.3743 8.6513 -2.8316 0.9565
-7.1156 8.0458 -2.8302 0.9565
-8.4222 6.6510 -2.8278 0.9566
-10.3999 4.4099 -2.9766 0.9543
-11.2785 0.5029 -2.9749 0.9544
-11.1894 -1.5048 -2.9750 0.9544
-11.0122 -2.4950 -2.9753 0.9544
-10.7480 -3.4658 -2.9757 0.9544
-10.3990 -4.4095 -2.9763 0.9544
-9.4577 -6.1869 -2.9780 0.9543
-8.8726 -7.0066 -2.9790 0.9543
-6.7149 -9.1135 -2.9829 0.9543
-4.9978 -10.1702 -2.9859 0.9542
-4.0750 -10.5805 -2.9876 0.9542
-3.1189 -10.9075 -2.9893 0.9542
-2.1370 -11.1485 -2.9911 0.9541
-0.1266 -11.3645 -2.9947 0.9541
0.8859 -11.3376 -2.9966 0.9540
1.8927 -11.2206 -2.9984 0.9540
3.8568 -10.7201 -3.0020 0.9540
7.3712 -8.7187 -3.0084 0.9539
8.1217 -8.0317 -3.0098 0.9538
9.4246 -6.4696 -3.0122 0.9538
9.9663 -5.6070 -3.0132 0.9538
10.4288 -4.6990 -3.0141 0.9538
10.8082 -3.7530 -3.0148 0.9538
11.1014 -2.7767 -3.0153 0.9538
11.3060 -1.7778 -3.0157 0.9538
11.4432 0.2550 -3.0160 0.9538
11.2154 2.2796 -3.0157 0.9538
10.6300 4.2306 -3.0147 0.9538
9.6893 4.8962 -2.8606 0.9561
8.6622 6.5324 -2.8588 0.9561
8.0433 7.2747 -2.8577 0.9561
6.6201 8.5779 -2.8551 0.9562
5.8274 9.1285 -2.8537 0.9562
4.9892 9.6059 -2.8522 0.9562
3.2034 10.3266 -2.8490 0.9563
2.2702 10.5646 -2.8473 0.9563
1.3201 10.7182 -2.8456 0.9563
0.3606 10.7866 -2.8438 0.9563
-4.3108 9.8591 -2.8353 0.9565
-3.8777 7.0759 -2.1261 0.9672
-6.7517 8.3567 -2.8309 0.9565
-7.4652 7.7190 -2.8296 0.9566
-10.5847 3.9418 -2.9762 0.9544
-11.1122 2.0020 -2.9752 0.9544
-11.2452 1.0049 -2.9749 0.9544
-10.4110 -1.8756 -2.9764 0.9570
-10.2039 -2.7951 -2.9767 0.9570
-9.1088 -5.3951 -2.9786 0.9570
-8.5950 -6.1864 -2.9795 0.9569
-7.3674 -7.6179 -2.9817 0.9569
-5.9052 -8.8112 -2.9843 0.9569
-4.2536 -9.7282 -2.9873 0.9568
-3.3726 -10.0736 -2.9889 0.9568
-2.4640 -10.3394 -2.9905 0.9568
-1.5348 -10.5237 -2.9922 0.9568
-0.5924 -10.6245 -2.9939 0.9567
1.3022 -10.5733 -2.9974 0.9567
2.2394 -10.4214 -2.9991 0.9567
5.7478 -9.0038 -3.0055 0.9566
7.2599 -7.8493 -3.0082 0.9565
7.9329 -7.1749 -3.0095 0.9565
8.5433 -6.4428 -3.0106 0.9565
9.0858 -5.6587 -3.0116 0.9565
9.5562 -4.8290 -3.0125 0.9565
9.9505 -3.9602 -3.0132 0.9565
10.2655 -3.0595 -3.0138 0.9565
10.4987 -2.1339 -3.0143 0.9565
10.6480 -1.1912 -3.0146 0.9565
10.5842 1.6643 -3.0145 0.9565
10.1188 3.5136 -3.0137 0.9565
8.8564 4.9825 -2.8591 0.9587
8.3753 5.7494 -2.8582 0.9587
7.8277 6.4697 -2.8573 0.9587
3.4284 9.5293 -2.8494 0.9588
2.5652 9.7913 -2.8478 0.9588
1.6826 9.9752 -2.8462 0.9588
-1.0108 10.0480 -2.8413 0.9589
-1.9001 9.9125 -2.8397 0.9589
-2.7732 9.6986 -2.8381 0.9590
-3.5320 7.1875 -2.2532 0.9673
-5.2288 8.6077 -2.8336 0.9590
-6.6659 7.5372 -2.8310 0.9591
-7.3072 6.9111 -2.8298 0.9591
-7.8904 6.2309 -2.8288 0.9591
-8.4108 5.5021 -2.8278 0.9591
-10.0707 3.2474 -2.9771 0.9570
-10.3181 2.3378 -2.9766 0.9570
-10.5673 0.4712 -2.9761 0.9570
-10.4838 -1.4099 -2.9762 0.9570
-10.3177 -2.3377 -2.9765 0.9570
-10.0701 -3.2472 -2.9769 0.9570
-9.7430 -4.1314 -2.9775 0.9570
-9.3388 -4.9834 -2.9782 0.9570
-8.8607 -5.7964 -2.9791 0.9570
-8.3123 -6.5642 -2.9800 0.9569
-7.0222 -7.9401 -2.9823 0.9569
-5.5081 -9.0676 -2.9850 0.9569
-4.6815 -9.5266 -2.9865 0.9569
-3.8170 -9.9107 -2.9881 0.9568
-2.9214 -10.2166 -2.9897 0.9568
-2.0015 -10.4419 -2.9914 0.9568
-1.0648 -10.5846 -2.9931 0.9568
2.7022 -10.3142 -2.9999 0.9567
3.6115 -10.0383 -3.0016 0.9566
7.6039 -7.5197 -3.0089 0.9565
8.2463 -6.8157 -3.0101 0.9565
8.8233 -6.0568 -3.0111 0.9565
9.3303 -5.2491 -3.0121 0.9565
10.3925 -2.5993 -3.0141 0.9565
10.5839 -1.6642 -3.0144 0.9565
10.6908 -0.7157 -3.0147 0.9565
10.7123 0.2387 -3.0147 0.9565
10.4991 2.1340 -3.0144 0.9565
9.3625 4.7311 -2.9514 0.9573
8.6245 5.3714 -2.8587 0.9587
8.1095 6.1157 -2.8578 0.9587
6.1983 8.0313 -2.8543 0.9587
5.4563 8.5471 -2.8530 0.9587
3.8505 9.3696 -2.8501 0.9588
2.9996 9.6700 -2.8486 0.9588
-0.5624 10.0859 -2.8421 0.9589
-3.8420 7.0108 -2.2493 0.9673
-6.3249 7.8285 -2.8316 0.9590
-8.1587 5.8723 -2.8283 0.9591
-8.6462 5.1212 -2.8274 0.9591
-9.9170 3.6931 -2.9774 0.9570
-10.5361 0.9415 -2.9762 0.9570
-9.7879 -1.7634 -2.9775 0.9593
-9.5932 -2.6279 -2.9778 0.9593
-9.3227 -3.4718 -2.9783 0.9593
-8.5633 -5.0720 -2.9796 0.9593
-8.0802 -5.8157 -2.9805 0.9593
-7.5329 -6.5140 -2.9814 0.9593
-6.9258 -7.1612 -2.9825 0.9593
-5.5509 -8.2825 -2.9850 0.9592
-4.7939 -8.7477 -2.9864 0.9592
-3.1700 -9.4683 -2.9893 0.9592
-2.3159 -9.7179 -2.9908 0.9591
1.2238 -9.9363 -2.9972 0.9591
2.1044 -9.7932 -2.9988 0.9590
3.8114 -9.2746 -3.0019 0.9590
4.6241 -8.9029 -3.0034 0.9590
5.4007 -8.4600 -3.0048 0.9590
6.1350 -7.9493 -3.0062 0.9589
7.4532 -6.7410 -3.0086 0.9589
8.5360 -5.3163 -3.0106 0.9589
8.9778 -4.5366 -3.0114 0.9589
9.3481 -3.7204 -3.0121 0.9589
9.6439 -2.8742 -3.0127 0.9589
10.0030 -1.1190 -3.0134 0.9588
10.0434 0.6723 -3.0135 0.9588
9.9431 1.5635 -3.0134 0.9588
9.7636 2.4421 -3.0131 0.9588
9.1728 4.1331 -3.0120 0.9589
8.4316 4.7436 -2.8963 0.9604
7.8685 5.4014 -2.8573 0.9609
6.7816 6.7064 -2.8554 0.9610
5.4806 7.7962 -2.8530 0.9610
1.5812 9.3739 -2.8460 0.9611
0.7402 9.4724 -2.8445 0.9611
-0.1058 9.4955 -2.8430 0.9611
-1.7858 9.3163 -2.8399 0.9612
-2.6065 9.1156 -2.8384 0.9612
-4.9149 8.0911 -2.8342 0.9612
-6.8692 6.4969 -2.8306 0.9613
-7.4176 5.8576 -2.8296 0.9613
-7.9069 5.1725 -2.8287 0.9613
-8.7803 4.6853 -2.9795 0.9593
-9.1603 3.8843 -2.9788 0.9593
-9.8564 -1.3255 -2.9774 0.9593
-9.7002 -2.1977 -2.9776 0.9593
-9.4673 -3.0528 -2.9780 0.9593
-9.1597 -3.8840 -2.9786 0.9593
-8.3300 -5.4492 -2.9800 0.9593
-7.2365 -6.8443 -2.9820 0.9593
-5.9131 -8.0252 -2.9843 0.9592
-5.1776 -8.5235 -2.9857 0.9592
-4.4005 -8.9547 -2.9871 0.9592
-1.0008 -9.9478 -2.9932 0.9591
4.2218 -9.0978 -3.0027 0.9590
5.7735 -8.2129 -3.0055 0.9589
6.4844 -7.6698 -3.0068 0.9589
7.7475 -6.4035 -3.0092 0.9589
8.7656 -4.9314 -3.0110 0.9589
9.1721 -4.1327 -3.0118 0.9589
10.0634 0.2243 -3.0135 0.9588
10.0032 1.1190 -3.0135 0.9588
9.8632 2.0048 -3.0132 0.9588
9.3487 3.7207 -3.0123 0.9589
8.9785 4.5371 -3.0117 0.9589
8.1025 5.0463 -2.8577 0.9609
7.0749 6.3989 -2.8559 0.9610
6.4748 7.0005 -2.8548 0.9610
5.1267 8.0308 -2.8524 0.9610
1.9977 9.2967 -2.8468 0.9611
1.1617 9.4326 -2.8453 0.9611
0.3174 9.4934 -2.8437 0.9611
-0.5285 9.4789 -2.8422 0.9611
-2.1985 9.2251 -2.8392 0.9612
-3.0092 8.9882 -2.8377 0.9612
-5.2693 7.8623 -2.8336 0.9613
-5.9455 7.3589 -2.8323 0.9613
-7.1505 6.1833 -2.8301 0.9613
-7.6699 5.5204 -2.8291 0.9613
-8.9792 4.2890 -2.9791 0.9593
-9.3233 3.4721 -2.9785 0.9593
-9.7883 1.7634 -2.9776 0.9593
-9.9056 0.8852 -2.9774 0.9593
-9.3408 -0.8347 -2.9783 0.9614
-9.0463 -2.4780 -2.9788 0.9614
-8.7912 -3.2738 -2.9793 0.9614
-7.1030 -6.1422 -2.9822 0.9614
-5.9056 -7.3095 -2.9844 0.9613
-5.2337 -7.8093 -2.9856 0.9613
-4.5198 -8.2476 -2.9869 0.9613
-3.7695 -8.6211 -2.9882 0.9613
-2.9886 -8.9266 -2.9896 0.9613
-2.1833 -9.1616 -2.9911 0.9612
-0.5249 -9.4130 -2.9941 0.9612
1.1536 -9.3665 -2.9971 0.9612
4.3583 -8.3913 -3.0030 0.9611
5.7821 -7.4921 -3.0056 0.9611
6.4285 -6.9504 -3.0068 0.9610
7.5643 -5.7045 -3.0088 0.9610
9.0881 -2.7086 -3.0117 0.9610
9.2943 -1.8891 -3.0121 0.9610
9.4264 -1.0545 -3.0123 0.9610
9.4832 -0.2113 -3.0125 0.9610
9.4644 0.6336 -3.0125 0.9610
8.9582 3.1106 -3.0116 0.9610
8.6442 3.8949 -3.0111 0.9610
8.2614 4.6478 -3.0104 0.9610
7.4153 5.0904 -2.8565 0.9630
6.3912 6.3204 -2.8547 0.9630
5.1654 7.3478 -2.8525 0.9630
4.4889 7.7751 -2.8512 0.9630
1.4905 8.8361 -2.8458 0.9631
-0.0997 8.9513 -2.8430 0.9631
-1.6835 8.7829 -2.8401 0.9632
-2.4573 8.5939 -2.8387 0.9632
-3.4977 7.1176 -2.5186 0.9673
-4.6340 7.6287 -2.8347 0.9632
-5.2924 7.1828 -2.8335 0.9632
-6.4771 6.1260 -2.8313 0.9633
-6.9942 5.5233 -2.8304 0.9633
-7.4558 4.8774 -2.8295 0.9633
-8.6380 3.6628 -2.9797 0.9614
-9.1476 2.0726 -2.9788 0.9614
-9.3687 0.4178 -2.9783 0.9614
-9.3686 -0.4178 -2.9783 0.9614
-8.6374 -3.6626 -2.9795 0.9614
-8.2789 -4.4177 -2.9802 0.9614
-7.8548 -5.1383 -2.9809 0.9614
-7.3684 -5.8187 -2.9818 0.9614
-6.8235 -6.4536 -2.9827 0.9613
-6.2242 -7.0378 -2.9838 0.9613
-4.1489 -8.4427 -2.9875 0.9613
-1.7735 -9.2521 -2.9918 0.9612
-0.1051 -9.4294 -2.9948 0.9612
0.7350 -9.4062 -2.9964 0.9612
2.3935 -9.1360 -2.9994 0.9611
3.1987 -8.8911 -3.0008 0.9611
7.3015 -6.0348 -3.0084 0.9610
7.8121 -5.3627 -3.0093 0.9610
8.2607 -4.6474 -3.0101 0.9610
8.6436 -3.8946 -3.0109 0.9610
8.9577 -3.1104 -3.0114 0.9610
9.2004 -2.3012 -3.0119 0.9610
9.0885 2.7087 -3.0118 0.9610
7.6454 4.7616 -2.8605 0.9629
7.1802 5.4148 -2.8561 0.9630
6.6676 6.0305 -2.8551 0.9630
6.1022 6.5977 -2.8541 0.9630
5.4887 7.1119 -2.8530 0.9630
4.1372 7.9656 -2.8506 0.9630
2.6569 8.5649 -2.8479 0.9631
1.0951 8.8914 -2.8451 0.9631
-2.0726 8.6970 -2.8394 0.9632
-2.8371 8.4738 -2.8380 0.9632
-3.5783 8.1838 -2.8366 0.9632
-3.8221 6.9745 -2.5258 0.9672
-5.6059 6.9386 -2.8329 0.9633
-6.1989 6.4096 -2.8318 0.9633
-7.2322 5.2054 -2.8299 0.9633
-8.4671 4.0444 -2.9800 0.9614
-8.7917 3.2741 -2.9794 0.9614
-9.0468 2.4782 -2.9790 0.9614
-9.2303 1.6629 -2.9786 0.9614
-8.8321 -0.7892 -2.9793 0.9633
-8.5536 -2.3431 -2.9797 0.9633
-8.3122 -3.0955 -2.9801 0.9633
-8.0052 -3.8237 -2.9807 0.9633
-7.6347 -4.5220 -2.9813 0.9632
-7.2038 -5.1850 -2.9821 0.9632
-6.7157 -5.8072 -2.9829 0.9632
-6.1741 -6.3840 -2.9839 0.9632
-4.9480 -7.3830 -2.9861 0.9632
2.6453 -8.5277 -2.9998 0.9630
4.1191 -7.9307 -3.0025 0.9630
5.4645 -7.0805 -3.0050 0.9630
6.6380 -6.0038 -3.0072 0.9629
7.6019 -4.7345 -3.0089 0.9629
7.9950 -4.0400 -3.0097 0.9629
8.5879 -2.5595 -3.0108 0.9629
8.9074 -0.9964 -3.0114 0.9629
8.9433 0.5987 -3.0115 0.9629
8.6943 2.1746 -3.0111 0.9629
8.4651 2.9394 -3.0107 0.9629
8.1685 3.6806 -3.0102 0.9629
7.8068 4.3921 -3.0096 0.9629
6.5496 5.4134 -2.8549 0.9648
6.0399 5.9730 -2.8540 0.9648
5.4824 6.4846 -2.8530 0.9648
4.8816 6.9442 -2.8519 0.9648
4.2425 7.3481 -2.8508 0.9648
0.6595 8.4400 -2.8443 0.9649
-0.0943 8.4611 -2.8430 0.9649
-0.8466 8.4151 -2.8416 0.9649
-1.5914 8.3024 -2.8402 0.9650
-2.3230 8.1240 -2.8389 0.9650
-3.0354 7.8813 -2.8376 0.9650
-3.4805 7.0826 -2.6514 0.9672
-6.1238 5.7918 -2.8319 0.9651
-7.2995 4.7751 -2.9306 0.9639
-8.4417 2.7221 -2.9801 0.9633
-8.7886 1.1820 -2.9794 0.9633
-8.8585 0.3950 -2.9792 0.9633
-8.7884 -1.1819 -2.9793 0.9633
-8.6490 -1.9596 -2.9796 0.9633
-8.4412 -2.7219 -2.9799 0.9633
-8.1668 -3.4630 -2.9804 0.9633
-7.4266 -4.8582 -2.9817 0.9632
-6.4513 -6.1016 -2.9834 0.9632
-5.2710 -7.1538 -2.9855 0.9632
-4.6152 -7.5976 -2.9867 0.9632
-3.1977 -8.3026 -2.9893 0.9632
-2.4471 -8.5581 -2.9906 0.9631
-1.6765 -8.7460 -2.9920 0.9631
-0.8918 -8.8647 -2.9934 0.9631
0.6947 -8.8909 -2.9963 0.9631
4.4692 -7.7410 -3.0032 0.9630
6.9000 -5.7030 -3.0076 0.9629
7.3824 -5.0678 -3.0085 0.9629
7.8062 -4.3917 -3.0093 0.9629
8.6939 -2.1745 -3.0110 0.9629
8.8539 -1.3922 -3.0113 0.9629
8.9432 -0.5987 -3.0115 0.9629
8.5883 2.5596 -3.0109 0.9629
7.9956 4.0404 -3.0099 0.9629
7.5878 4.7258 -3.0034 0.9630
6.3010 5.6989 -2.8545 0.9648
5.7668 6.2350 -2.8535 0.9648
4.5665 7.1533 -2.8514 0.9648
3.2231 7.8430 -2.8489 0.9649
2.5111 8.0951 -2.8477 0.9649
1.7798 8.2826 -2.8463 0.9649
1.0351 8.4042 -2.8450 0.9649
-0.4710 8.4464 -2.8423 0.9649
-1.2203 8.3670 -2.8409 0.9649
-2.6820 8.0105 -2.8382 0.9650
-3.3828 7.7366 -2.8370 0.9650
-4.6969 7.0083 -2.8346 0.9650
-5.3000 6.5598 -2.8335 0.9650
-6.3746 5.5124 -2.8315 0.9651
-6.8379 4.9216 -2.8306 0.9651
-8.7275 1.5724 -2.9795 0.9633
-8.8322 0.7893 -2.9793 0.9633
-8.4043 0.0000 -2.9800 0.9650
-8.3711 -0.7480 -2.9801 0.9650
-7.8782 -2.9339 -2.9809 0.9650
-7.2359 -4.2858 -2.9820 0.9649
-6.3647 -5.5037 -2.9836 0.9649
-5.2914 -6.5492 -2.9855 0.9649
-4.6892 -6.9967 -2.9866 0.9649
-4.0494 -7.3891 -2.9877 0.9649
-3.3770 -7.7234 -2.9890 0.9649
-1.2181 -8.3521 -2.9928 0.9648
-0.4701 -8.4311 -2.9942 0.9648
1.0331 -8.3885 -2.9969 0.9648
1.7765 -8.2670 -2.9983 0.9648
2.5063 -8.0796 -2.9996 0.9647
3.9025 -7.5137 -3.0022 0.9647
4.5576 -7.1393 -3.0034 0.9647
5.1769 -6.7079 -3.0045 0.9647
5.7554 -6.2227 -3.0056 0.9647
6.7717 -5.1068 -3.0074 0.9646
7.2013 -4.4850 -3.0082 0.9646
7.5737 -3.8271 -3.0089 0.9646
7.8858 -3.1385 -3.0095 0.9646
8.3196 -1.6911 -3.0103 0.9646
8.4377 -0.9439 -3.0106 0.9646
8.4886 -0.1891 -3.0107 0.9646
8.4717 0.5671 -3.0107 0.9646
8.2358 2.0599 -3.0103 0.9646
8.0188 2.7844 -3.0099 0.9646
7.7379 3.4865 -3.0094 0.9646
6.8967 4.7343 -2.9662 0.9651
6.2046 5.1282 -2.8543 0.9664
5.7218 5.6584 -2.8534 0.9664
5.1938 6.1432 -2.8525 0.9664
3.3824 7.2888 -2.8492 0.9665
2.7190 7.5578 -2.8480 0.9665
-0.0893 8.0172 -2.8429 0.9665
-0.8022 7.9738 -2.8417 0.9666
-2.8765 7.4686 -2.8379 0.9666
-3.4633 7.0476 -2.7844 0.9672
-4.1517 6.8346 -2.8355 0.9666
-5.8036 5.4891 -2.8325 0.9667
-6.2673 4.9492 -2.8317 0.9667
-7.7408 3.2824 -2.9813 0.9649
-8.1977 1.8574 -2.9805 0.9650
-8.3960 0.3744 -2.9801 0.9650
-8.3960 -0.3744 -2.9801 0.9650
-8.3296 -1.1202 -2.9802 0.9650
-8.0005 -2.5798 -2.9807 0.9650
-7.4189 -3.9588 -2.9817 0.9649
-7.0386 -4.6045 -2.9824 0.9649
-6.1141 -5.7827 -2.9840 0.9649
-5.5769 -6.3060 -2.9850 0.9649
-1.5886 -8.2876 -2.9922 0.9648
-0.8450 -8.3999 -2.9935 0.9648
0.6583 -8.4243 -2.9962 0.9648
1.4061 -8.3361 -2.9976 0.9648
2.8644 -7.9617 -3.0003 0.9647
4.8720 -6.9305 -3.0039 0.9647
5.4715 -6.4718 -3.0050 0.9647
6.0279 -5.9611 -3.0061 0.9647
6.9935 -4.8007 -3.0078 0.9646
7.3948 -4.1603 -3.0086 0.9646
8.3870 -1.3188 -3.0105 0.9646
8.4886 0.1892 -3.0107 0.9646
8.1354 2.4246 -3.0101 0.9646
7.8862 3.1386 -3.0097 0.9646
7.5742 3.8274 -3.0091 0.9646
6.4278 4.8474 -2.8547 0.9664
5.4632 5.9067 -2.8530 0.9664
4.9141 6.3673 -2.8520 0.9664
0.9807 7.9629 -2.8449 0.9665
-0.4463 8.0034 -2.8423 0.9666
-1.8566 7.7904 -2.8397 0.9666
-2.5415 7.5910 -2.8385 0.9666
-3.2056 7.3315 -2.8373 0.9666
-3.8020 6.9378 -2.8052 0.9670
-6.0415 5.2243 -2.8321 0.9667
-7.8786 2.9340 -2.9811 0.9649
-8.1073 2.2209 -2.9806 0.9650
-8.2719 1.4903 -2.9803 0.9650
-7.9827 -0.0000 -2.9808 0.9665
-7.9511 -0.7105 -2.9809 0.9665
-7.2063 -3.4421 -2.9821 0.9665
-6.8727 -4.0707 -2.9827 0.9665
-6.4846 -4.6673 -2.9834 0.9665
-5.0255 -6.2201 -2.9860 0.9664
-4.4534 -6.6450 -2.9870 0.9664
-3.2071 -7.3348 -2.9893 0.9664
-2.5425 -7.5942 -2.9905 0.9664
-1.1568 -7.9313 -2.9930 0.9664
0.9810 -7.9654 -2.9968 0.9663
1.6868 -7.8498 -2.9981 0.9663
2.3798 -7.6718 -2.9994 0.9663
3.0544 -7.4325 -3.0006 0.9663
3.7053 -7.1340 -3.0018 0.9663
7.4864 -2.9795 -3.0088 0.9662
7.7231 -2.3017 -3.0092 0.9662
8.0103 -0.8961 -3.0098 0.9662
7.9623 1.2520 -3.0098 0.9662
7.8187 1.9556 -3.0095 0.9662
7.6127 2.6434 -3.0092 0.9662
7.0210 3.9500 -3.0081 0.9662
6.6400 4.5581 -3.0075 0.9662
5.8906 4.8687 -2.8537 0.9679
4.9311 5.8325 -2.8520 0.9679
3.8162 6.6098 -2.8500 0.9679
3.2115 6.9205 -2.8489 0.9679
1.2674 7.5139 -2.8454 0.9680
0.5934 7.5936 -2.8442 0.9680
-0.7617 7.5720 -2.8417 0.9680
-1.4321 7.4709 -2.8405 0.9680
-2.0904 7.3107 -2.8393 0.9681
-3.3508 6.8187 -2.8370 0.9681
-3.9429 6.4909 -2.8359 0.9681
-4.5033 6.1120 -2.8349 0.9681
-7.7864 1.7642 -2.9812 0.9665
-7.9119 1.0641 -2.9810 0.9665
-7.9747 -0.3556 -2.9808 0.9665
-7.9117 -1.0640 -2.9809 0.9665
-7.7861 -1.7641 -2.9811 0.9665
-7.0465 -3.7601 -2.9824 0.9665
-5.8070 -5.4922 -2.9846 0.9664
-5.2967 -5.9891 -2.9855 0.9664
-4.7442 -6.4388 -2.9865 0.9664
-4.1537 -6.8380 -2.9876 0.9664
-1.5086 -7.8702 -2.9923 0.9664
-0.8025 -7.9767 -2.9936 0.9663
-0.0893 -8.0199 -2.9949 0.9663
0.6251 -7.9995 -2.9962 0.9663
2.0353 -7.7685 -2.9988 0.9663
2.7198 -7.5597 -3.0000 0.9663
3.3832 -7.2905 -3.0012 0.9663
4.0202 -6.9632 -3.0024 0.9663
4.6257 -6.5802 -3.0035 0.9662
5.1948 -6.1445 -3.0045 0.9662
5.7230 -5.6596 -3.0055 0.9662
6.6395 -4.5578 -3.0072 0.9662
7.0205 -3.9496 -3.0079 0.9662
7.3456 -3.3098 -3.0085 0.9662
7.8184 -1.9555 -3.0094 0.9662
7.9622 -1.2520 -3.0097 0.9662
8.0104 0.8961 -3.0098 0.9662
7.8984 1.6054 -3.0097 0.9662
7.7234 2.3018 -3.0094 0.9662
7.1907 3.6336 -3.0084 0.9662
6.8373 4.2583 -3.0078 0.9662
6.2862 4.7406 -2.9400 0.9669
5.1869 5.6079 -2.8524 0.9679
4.6656 6.0454 -2.8515 0.9679
3.5173 6.7719 -2.8495 0.9679
2.8994 7.0554 -2.8483 0.9680
-1.0981 7.5289 -2.8411 0.9680
-1.7631 7.3981 -2.8399 0.9680
-3.0443 6.9626 -2.8376 0.9681
-3.6505 6.6614 -2.8365 0.9681
-6.4851 4.6677 -2.9837 0.9665
-7.7005 2.1094 -2.9814 0.9665
-7.8569 1.4155 -2.9811 0.9665
-7.9512 0.7105 -2.9809 0.9665
-7.5968 -0.0000 -2.9815 0.9679
-7.3279 -2.0073 -2.9819 0.9679
-7.1210 -2.6519 -2.9823 0.9679
-6.8578 -3.2757 -2.9828 0.9679
-6.1709 -4.4415 -2.9840 0.9679
-4.7821 -5.9189 -2.9865 0.9678
-4.2377 -6.3231 -2.9874 0.9678
-3.6594 -6.6775 -2.9885 0.9678
-2.4193 -7.2259 -2.9907 0.9678
-1.1006 -7.5464 -2.9931 0.9678
-0.4248 -7.6175 -2.9943 0.9677
0.9334 -7.5784 -2.9968 0.9677
1.6048 -7.4682 -2.9980 0.9677
4.1166 -6.4485 -3.0026 0.9677
4.6758 -6.0586 -3.0036 0.9676
5.6794 -5.1367 -3.0054 0.9676
7.1213 -2.8342 -3.0081 0.9676
7.3463 -2.1894 -3.0085 0.9676
7.6195 -0.8524 -3.0091 0.9676
7.6654 -0.1708 -3.0092 0.9676
7.6501 0.5121 -3.0092 0.9676
7.5739 1.1910 -3.0091 0.9676
7.2414 2.5145 -3.0085 0.9676
6.9878 3.1486 -3.0080 0.9676
6.6786 3.7573 -3.0075 0.9676
6.3163 4.3359 -3.0069 0.9676
5.7410 4.7451 -2.9232 0.9685
5.1677 5.1104 -2.8524 0.9693
4.6909 5.5484 -2.8515 0.9693
4.1771 5.9420 -2.8506 0.9693
3.0552 6.5838 -2.8486 0.9693
1.2058 7.1487 -2.8453 0.9693
0.5645 7.2247 -2.8441 0.9693
-0.0807 7.2432 -2.8429 0.9694
-0.7248 7.2044 -2.8418 0.9694
-3.1884 6.4882 -2.8373 0.9694
-3.7519 6.1764 -2.8363 0.9694
-4.2852 5.8160 -2.8353 0.9694
-4.7843 5.4097 -2.8344 0.9694
-5.9681 4.7129 -2.9846 0.9679
-7.2319 2.3320 -2.9822 0.9679
-7.4099 1.6789 -2.9819 0.9679
-7.5893 0.3384 -2.9815 0.9679
-7.5892 -0.3384 -2.9815 0.9679
-7.4097 -1.6788 -2.9818 0.9679
-7.2316 -2.3319 -2.9821 0.9679
-6.9963 -2.9667 -2.9825 0.9679
-6.7057 -3.5782 -2.9830 0.9679
-5.9676 -4.7125 -2.9843 0.9679
-5.5259 -5.2264 -2.9851 0.9678
-5.0403 -5.6991 -2.9860 0.9678
-3.9525 -6.5068 -2.9879 0.9678
-2.7382 -7.1096 -2.9901 0.9678
-1.4354 -7.4884 -2.9925 0.9678
-0.7635 -7.5895 -2.9937 0.9678
0.5947 -7.6109 -2.9962 0.9677
1.2703 -7.5308 -2.9974 0.9677
1.9363 -7.3908 -2.9986 0.9677
4.9418 -5.8452 -3.0041 0.9676
5.4441 -5.3838 -3.0050 0.9676
6.9874 -3.1483 -3.0079 0.9676
7.2410 -2.5144 -3.0083 0.9676
7.4370 -1.8601 -3.0087 0.9676
7.5737 -1.1909 -3.0090 0.9676
7.6501 -0.5121 -3.0091 0.9676
7.6196 0.8524 -3.0091 0.9676
7.3466 2.1895 -3.0087 0.9676
7.1217 2.8344 -3.0083 0.9676
6.8400 3.4564 -3.0078 0.9676
4.9342 5.3347 -2.8520 0.9693
2.7584 6.7121 -2.8481 0.9693
2.1492 6.9283 -2.8470 0.9693
0.8860 7.1938 -2.8447 0.9693
-0.4032 7.2310 -2.8424 0.9694
-1.0448 7.1635 -2.8412 0.9694
-1.6775 7.0392 -2.8400 0.9694
-2.8967 6.6251 -2.8378 0.9694
-3.4736 6.3386 -2.8368 0.9694
-4.5393 5.6184 -2.8348 0.9694
-5.5302 4.7822 -2.8694 0.9691
-6.1714 4.4419 -2.9842 0.9679
-7.1214 2.6520 -2.9824 0.9679
-7.3282 2.0074 -2.9821 0.9679
-7.4770 1.3471 -2.9818 0.9679
-7.2134 -0.6446 -2.9822 0.9692
-7.1278 -1.2841 -2.9823 0.9692
-6.9857 -1.9136 -2.9826 0.9692
-6.5375 -3.1227 -2.9833 0.9691
-5.8825 -4.2339 -2.9845 0.9691
-3.4882 -6.3651 -2.9888 0.9691
-1.6844 -7.0681 -2.9920 0.9691
-1.0490 -7.1928 -2.9932 0.9690
-0.4048 -7.2604 -2.9944 0.9690
0.8896 -7.2229 -2.9967 0.9690
2.7694 -6.7388 -3.0001 0.9690
3.3594 -6.4680 -3.0012 0.9690
3.9231 -6.1454 -3.0022 0.9690
4.9536 -5.3558 -3.0041 0.9689
5.4122 -4.8950 -3.0050 0.9689
6.1973 -3.8598 -3.0064 0.9689
6.7860 -2.7008 -3.0075 0.9689
7.0004 -2.0863 -3.0079 0.9689
7.1590 -1.4551 -3.0082 0.9689
7.2606 -0.8122 -3.0084 0.9689
7.3043 -0.1628 -3.0085 0.9689
7.2898 0.4880 -3.0085 0.9689
7.0870 1.7726 -3.0082 0.9689
6.9004 2.3961 -3.0079 0.9689
4.9245 4.8700 -2.8520 0.9705
3.9807 5.6626 -2.8503 0.9705
2.9117 6.2745 -2.8483 0.9705
1.7518 6.6864 -2.8462 0.9705
-0.0769 6.9036 -2.8429 0.9706
-0.6908 6.8667 -2.8418 0.9706
-1.8959 6.6302 -2.8396 0.9706
-3.0392 6.1845 -2.8375 0.9706
-3.5763 5.8874 -2.8366 0.9706
-6.0651 3.9676 -2.9844 0.9691
-6.8942 2.2231 -2.9828 0.9692
-7.0639 1.6005 -2.9825 0.9692
-7.1778 0.9653 -2.9823 0.9692
-7.1777 -0.9653 -2.9822 0.9692
-7.0637 -1.6004 -2.9824 0.9692
-6.8939 -2.2230 -2.9827 0.9692
-6.6696 -2.8281 -2.9831 0.9691
-6.0646 -3.9673 -2.9842 0.9691
-5.6887 -4.4923 -2.9848 0.9691
-5.2676 -4.9821 -2.9856 0.9691
-4.8046 -5.4327 -2.9864 0.9691
-3.2017 -6.5153 -2.9893 0.9691
-2.6100 -6.7768 -2.9904 0.9691
-1.3682 -7.1375 -2.9926 0.9691
-0.7277 -7.2338 -2.9938 0.9690
-0.0810 -7.2726 -2.9949 0.9690
0.5668 -7.2538 -2.9961 0.9690
1.8454 -7.0439 -2.9984 0.9690
2.4660 -6.8543 -2.9996 0.9690
4.1936 -5.9655 -3.0027 0.9689
4.7094 -5.5703 -3.0037 0.9689
6.3638 -3.5802 -3.0067 0.9689
6.9000 -2.3959 -3.0077 0.9689
7.0868 -1.7725 -3.0081 0.9689
7.2170 -1.1348 -3.0083 0.9689
7.2897 -0.4880 -3.0085 0.9689
7.1592 1.4552 -3.0083 0.9689
6.5180 3.2937 -3.0072 0.9689
6.1978 3.8601 -3.0066 0.9689
5.8284 4.3954 -3.0060 0.9689
5.2494 4.7478 -2.9146 0.9698
3.7239 5.8334 -2.8498 0.9705
2.0483 6.6030 -2.8468 0.9705
1.4519 6.7565 -2.8457 0.9705
0.2307 6.9015 -2.8435 0.9706
-0.3843 6.8920 -2.8424 0.9706
-2.1889 6.5380 -2.8391 0.9706
-3.3111 6.0419 -2.8371 0.9706
-3.8344 5.7213 -2.8361 0.9706
-4.3270 5.3556 -2.8352 0.9707
-6.5379 3.1229 -2.9835 0.9691
-6.9860 1.9137 -2.9827 0.9692
-6.8874 -0.6154 -2.9828 0.9703
-6.2419 -2.9815 -2.9839 0.9703
-2.7770 -6.3512 -2.9901 0.9703
-2.2015 -6.5754 -2.9911 0.9702
-0.3865 -6.9310 -2.9944 0.9702
0.8492 -6.8948 -2.9966 0.9702
2.0597 -6.6400 -2.9988 0.9702
4.2532 -5.5110 -3.0028 0.9701
6.2207 -3.1434 -3.0065 0.9701
6.9297 -0.7752 -3.0078 0.9701
6.9714 -0.1554 -3.0079 0.9701
6.3554 2.8636 -3.0069 0.9701
6.0743 3.4173 -3.0064 0.9701
5.3699 4.4384 -3.0051 0.9701
4.2668 5.0469 -2.8508 0.9716
3.7996 5.4050 -2.8499 0.9716
3.3024 5.7199 -2.8490 0.9716
2.7793 5.9892 -2.8481 0.9716
0.5136 6.5731 -2.8440 0.9717
-0.0734 6.5903 -2.8429 0.9717
-0.6595 6.5551 -2.8419 0.9717
-2.9015 5.9043 -2.8378 0.9717
-3.8999 5.2929 -2.8360 0.9718
-4.3542 4.9234 -2.8351 0.9718
-5.0297 4.7571 -2.9863 0.9703
-5.7908 3.7881 -2.9849 0.9703
-6.1038 3.2571 -2.9843 0.9703
-6.3684 2.7004 -2.9838 0.9703
-6.5826 2.1226 -2.9834 0.9703
-6.7447 1.5281 -2.9831 0.9703
-6.8533 -0.9217 -2.9828 0.9703
-6.7445 -1.5281 -2.9830 0.9703
-6.3681 -2.7003 -2.9837 0.9703
-6.1034 -3.2569 -2.9841 0.9703
-5.4314 -4.2891 -2.9853 0.9703
-5.0293 -4.7567 -2.9860 0.9703
-4.5872 -5.1868 -2.9868 0.9703
-4.1085 -5.5761 -2.9877 0.9703
-3.5970 -5.9214 -2.9886 0.9703
-2.4918 -6.4697 -2.9906 0.9702
-0.6947 -6.9056 -2.9938 0.9702
0.5411 -6.9246 -2.9961 0.9702
1.1557 -6.8515 -2.9972 0.9702
2.9279 -6.3095 -3.0004 0.9702
3.4790 -6.0259 -3.0014 0.9701
4.0029 -5.6941 -3.0024 0.9701
4.4951 -5.3169 -3.0033 0.9701
5.3695 -4.4380 -3.0049 0.9701
6.0739 -3.4171 -3.0062 0.9701
6.9575 -0.4657 -3.0079 0.9701
6.9714 0.1554 -3.0079 0.9701
6.8330 1.3889 -3.0077 0.9701
6.6816 1.9913 -3.0075 0.9701
6.4771 2.5779 -3.0071 0.9701
5.9155 3.6842 -3.0061 0.9701
4.4880 4.8524 -2.8512 0.9716
4.0372 5.2312 -2.8504 0.9716
1.3859 6.4496 -2.8456 0.9717
0.8061 6.5449 -2.8445 0.9717
-0.3669 6.5792 -2.8424 0.9717
-0.9506 6.5180 -2.8413 0.9717
-2.6360 6.0288 -2.8383 0.9717
-3.1611 5.7683 -2.8373 0.9718
-5.2360 4.5278 -2.9859 0.9703
-5.9532 3.5261 -2.9846 0.9703
-6.2423 2.9817 -2.9841 0.9703
-6.4819 2.4139 -2.9836 0.9703
-6.5855 -0.5885 -2.9833 0.9714
-6.3776 -1.7470 -2.9837 0.9714
-5.9682 -2.8508 -2.9844 0.9714
-5.3701 -3.8651 -2.9854 0.9714
-5.0058 -4.3287 -2.9861 0.9714
-4.6018 -4.7582 -2.9868 0.9714
-3.6873 -5.5018 -2.9884 0.9714
-2.1047 -6.2864 -2.9913 0.9713
-1.5374 -6.4510 -2.9923 0.9713
-0.9574 -6.5645 -2.9934 0.9713
1.9690 -6.3474 -2.9987 0.9713
3.5795 -5.6072 -3.0016 0.9712
4.0656 -5.2679 -3.0025 0.9712
4.9378 -4.4660 -3.0041 0.9712
5.3169 -4.0097 -3.0048 0.9712
6.6235 -0.7410 -3.0073 0.9712
6.6634 -0.1485 -3.0074 0.9712
6.5839 1.0353 -3.0073 0.9712
6.2950 2.1859 -3.0068 0.9712
5.4912 3.7695 -3.0053 0.9712
3.1568 5.4677 -2.8488 0.9727
0.4910 6.2837 -2.8440 0.9727
-0.6304 6.2667 -2.8419 0.9727
-1.1853 6.1835 -2.8409 0.9727
-1.7303 6.0514 -2.8399 0.9728
-2.2613 5.8714 -2.8389 0.9728
-3.2644 5.3739 -2.8371 0.9728
-5.8361 3.1143 -2.9848 0.9714
-6.2939 2.0296 -2.9839 0.9714
-6.5530 0.8813 -2.9834 0.9714
-6.4488 -1.4611 -2.9836 0.9714
-5.8357 -3.1140 -2.9846 0.9714
-5.5364 -3.6217 -2.9851 0.9714
-5.1931 -4.1010 -2.9858 0.9714
-1.8229 -6.3750 -2.9918 0.9713
-1.2487 -6.5142 -2.9928 0.9713
-0.0739 -6.6371 -2.9950 0.9713
0.5173 -6.6197 -2.9960 0.9713
2.2502 -6.2544 -2.9992 0.9713
3.3256 -5.7601 -3.0012 0.9712
5.1324 -4.2421 -3.0045 0.9712
5.4908 -3.7692 -3.0051 0.9712
5.8057 -3.2662 -3.0057 0.9712
6.0743 -2.7370 -3.0062 0.9712
6.2947 -2.1857 -3.0066 0.9712
6.4650 -1.6170 -3.0070 0.9712
6.5837 -1.0352 -3.0072 0.9712
6.6236 0.7410 -3.0073 0.9712
6.5310 1.3275 -3.0072 0.9712
6.1910 2.4640 -3.0066 0.9712
5.3173 4.0100 -3.0050 0.9712
4.3925 4.7491 -2.9189 0.9720
3.3977 5.3224 -2.8492 0.9727
1.8690 6.0251 -2.8464 0.9727
0.2106 6.2982 -2.8434 0.9727
-3.9498 4.8887 -2.8359 0.9728
-4.6018 4.7582 -2.9868 0.9714
-5.6920 3.3714 -2.9851 0.9714
-5.9685 2.8509 -2.9845 0.9714
-6.3778 1.7471 -2.9838 0.9714
-6.5856 0.5885 -2.9834 0.9714
-6.3300 0.0000 -2.9838 0.9724
-6.3049 -0.5634 -2.9838 0.9724
-6.2300 -1.1224 -2.9840 0.9724
-6.1058 -1.6726 -2.9842 0.9724
-5.9333 -2.2096 -2.9845 0.9724
-5.1411 -3.7004 -2.9859 0.9724
-4.7924 -4.1441 -2.9865 0.9724
-3.0480 -5.5619 -2.9896 0.9723
-2.5416 -5.8129 -2.9905 0.9723
-0.9165 -6.2840 -2.9935 0.9723
-0.3537 -6.3428 -2.9945 0.9723
0.2123 -6.3512 -2.9955 0.9723
2.4187 -5.8857 -2.9995 0.9723
3.4261 -5.3669 -3.0014 0.9722
3.8913 -5.0421 -3.0022 0.9722
4.3257 -4.6770 -3.0030 0.9722
4.7260 -4.2744 -3.0037 0.9722
5.0888 -3.8377 -3.0044 0.9722
5.4113 -3.3702 -3.0050 0.9722
5.6908 -2.8757 -3.0055 0.9722
5.9250 -2.3581 -3.0060 0.9722
6.1121 -1.8216 -3.0063 0.9722
6.2505 -1.2704 -3.0066 0.9722
6.3391 -0.7091 -3.0068 0.9722
6.3646 0.4261 -3.0068 0.9722
6.1876 1.5476 -3.0065 0.9722
5.2556 3.6078 -3.0049 0.9722
4.9127 4.0604 -3.0043 0.9722
3.4763 4.9451 -2.8493 0.9736
3.0215 5.2334 -2.8485 0.9736
2.5429 5.4799 -2.8476 0.9736
2.0445 5.6827 -2.8468 0.9736
1.5300 5.8402 -2.8458 0.9737
-0.0672 6.0308 -2.8429 0.9737
-0.6035 5.9988 -2.8420 0.9737
-1.6564 5.7929 -2.8400 0.9737
-2.1647 5.6206 -2.8391 0.9737
-3.5695 4.8446 -2.8365 0.9737
-4.1991 4.7480 -2.9878 0.9724
-4.6039 4.3544 -2.9871 0.9724
-5.3007 3.4676 -2.9858 0.9724
-5.8296 2.4720 -2.9848 0.9724
-6.0257 1.9431 -2.9844 0.9724
-6.1742 1.3989 -2.9841 0.9724
-6.2737 -0.8437 -2.9839 0.9724
-5.8294 -2.4719 -2.9846 0.9724
-5.5870 -2.9813 -2.9851 0.9724
-5.3004 -3.4673 -2.9856 0.9724
-4.9717 -3.9261 -2.9862 0.9724
-2.2805 -5.9212 -2.9910 0.9723
-1.7450 -6.1027 -2.9920 0.9723
-1.1953 -6.2358 -2.9929 0.9723
3.1831 -5.5133 -3.0009 0.9722
3.6623 -5.2097 -3.0018 0.9722
4.1126 -4.8644 -3.0026 0.9722
4.9123 -4.0601 -3.0041 0.9722
5.5565 -3.1261 -3.0053 0.9722
6.0245 -2.0919 -3.0062 0.9722
6.1874 -1.5476 -3.0065 0.9722
6.1123 1.8217 -3.0064 0.9722
5.9252 2.3582 -3.0061 0.9722
5.6911 2.8758 -3.0057 0.9722
5.4116 3.3704 -3.0052 0.9722
5.0892 3.8379 -3.0046 0.9722
4.7264 4.2748 -3.0040 0.9722
4.3261 4.6774 -3.0033 0.9722
2.7849 5.3619 -2.8481 0.9736
-0.8700 5.9649 -2.8415 0.9737
-1.3970 5.8619 -2.8405 0.9737
-1.9125 5.7124 -2.8396 0.9737
-2.8932 5.2794 -2.8378 0.9737
-3.8569 4.7738 -2.8929 0.9732
-5.1415 3.7006 -2.9861 0.9724
-5.4494 3.2277 -2.9855 0.9724
-5.7141 2.7294 -2.9850 0.9724
-6.1060 1.6726 -2.9843 0.9724
-6.0674 0.0000 -2.9843 0.9733
-6.0434 -0.5400 -2.9843 0.9733
-5.9716 -1.0758 -2.9844 0.9733
-5.8525 -1.6032 -2.9846 0.9733
-5.4767 -2.6160 -2.9853 0.9733
-4.9277 -3.5468 -2.9863 0.9733
-3.3833 -5.0481 -2.9890 0.9733
-2.4360 -5.5712 -2.9907 0.9733
-1.4105 -5.9185 -2.9926 0.9732
-0.8784 -6.0225 -2.9935 0.9732
-0.3390 -6.0787 -2.9945 0.9732
0.2035 -6.0868 -2.9955 0.9732
1.8061 -5.8224 -2.9984 0.9732
2.8116 -5.4133 -3.0002 0.9732
4.5287 -4.0960 -3.0034 0.9731
5.1853 -3.2294 -3.0046 0.9731
5.4530 -2.7555 -3.0051 0.9731
5.6775 -2.2596 -3.0055 0.9731
5.9893 -1.2174 -3.0061 0.9731
6.1108 -0.1362 -3.0064 0.9731
6.0986 0.4083 -3.0064 0.9731
5.9291 1.4830 -3.0061 0.9731
5.7730 2.0046 -3.0058 0.9731
5.0361 3.4571 -3.0045 0.9731
3.9413 4.6618 -3.0026 0.9732
2.4369 5.2513 -2.8475 0.9745
1.9592 5.4458 -2.8466 0.9745
0.9620 5.7032 -2.8448 0.9745
-0.0644 5.7797 -2.8429 0.9746
-0.5784 5.7491 -2.8420 0.9746
-1.0874 5.6730 -2.8411 0.9746
-1.5875 5.5519 -2.8402 0.9746
-2.0747 5.3869 -2.8393 0.9746
-2.5452 5.1793 -2.8384 0.9746
-4.0247 4.5508 -2.9881 0.9733
-5.3554 2.8578 -2.9857 0.9733
-6.0614 -0.2703 -2.9843 0.9733
-6.0134 -0.8087 -2.9844 0.9733
-5.7755 -1.8623 -2.9848 0.9733
-5.5875 -2.3693 -2.9851 0.9733
-5.0804 -3.3234 -2.9860 0.9733
-4.7653 -3.7631 -2.9865 0.9733
-3.6043 -4.8918 -2.9886 0.9733
-3.1554 -5.1946 -2.9894 0.9733
-2.6813 -5.4563 -2.9903 0.9733
-1.6724 -5.8488 -2.9921 0.9732
0.4745 -6.0727 -2.9960 0.9732
1.0135 -6.0083 -2.9970 0.9732
3.0504 -5.2834 -3.0007 0.9732
3.5095 -4.9923 -3.0015 0.9732
3.9409 -4.6613 -3.0023 0.9732
4.3413 -4.2931 -3.0030 0.9732
4.7072 -3.8906 -3.0037 0.9731
5.0358 -3.4569 -3.0043 0.9731
5.5708 -2.5101 -3.0053 0.9731
5.7728 -2.0045 -3.0057 0.9731
6.1108 0.1362 -3.0064 0.9731
6.0743 0.6795 -3.0063 0.9731
5.9895 1.2174 -3.0062 0.9731
5.8569 1.7455 -3.0060 0.9731
5.6777 2.2597 -3.0056 0.9731
5.4533 2.7557 -3.0053 0.9731
4.1455 4.4821 -3.0029 0.9732
3.1164 4.8818 -2.8487 0.9745
2.2002 5.3539 -2.8470 0.9745
1.7144 5.5268 -2.8461 0.9745
1.2153 5.6556 -2.8452 0.9745
0.7069 5.7395 -2.8443 0.9746
0.1932 5.7778 -2.8434 0.9746
-0.8338 5.7167 -2.8415 0.9746
-2.7730 5.0600 -2.8380 0.9746
-3.2127 4.7938 -2.8384 0.9746
-3.8185 4.7262 -2.9885 0.9733
-4.2229 4.3665 -2.9878 0.9733
-4.5937 3.9724 -2.9871 0.9733
-5.2232 3.0937 -2.9859 0.9733
-5.4770 2.6162 -2.9854 0.9733
-5.8527 1.6032 -2.9847 0.9733
-6.0435 0.5400 -2.9843 0.9733
-5.8219 0.0000 -2.9847 0.9742
-5.7300 -1.0323 -2.9849 0.9742
-5.6157 -1.5383 -2.9851 0.9742
-5.0115 -2.9684 -2.9861 0.9742
-4.7282 -3.4032 -2.9866 0.9742
-4.4074 -3.8112 -2.9872 0.9741
-4.0516 -4.1893 -2.9878 0.9741
-3.6635 -4.5343 -2.9885 0.9741
-3.2462 -4.8436 -2.9893 0.9741
-2.3372 -5.3453 -2.9909 0.9741
-1.8527 -5.5338 -2.9918 0.9741
1.2283 -5.7161 -2.9974 0.9741
2.6972 -5.1931 -3.0000 0.9740
3.1496 -4.9338 -3.0009 0.9740
3.5772 -4.6351 -3.0016 0.9740
3.9765 -4.2994 -3.0024 0.9740
4.3444 -3.9292 -3.0031 0.9740
4.6778 -3.5277 -3.0037 0.9740
5.2309 -2.6433 -3.0047 0.9740
5.4462 -2.1675 -3.0051 0.9740
5.7453 -1.1678 -3.0057 0.9740
5.8267 -0.6518 -3.0058 0.9740
5.8501 0.3916 -3.0059 0.9740
5.6875 1.4225 -3.0056 0.9740
5.3441 2.4080 -3.0050 0.9740
5.1079 2.8737 -3.0046 0.9740
4.8311 3.3163 -3.0041 0.9740
4.5159 3.7325 -3.0036 0.9740
3.7809 4.4721 -3.0023 0.9740
3.3334 4.7419 -2.9716 0.9743
2.7777 4.8111 -2.8481 0.9753
2.3378 5.0378 -2.8473 0.9753
1.4067 5.3693 -2.8456 0.9754
0.4321 5.5302 -2.8438 0.9754
-0.0618 5.5450 -2.8429 0.9754
-0.5549 5.5158 -2.8420 0.9754
-1.5231 5.3267 -2.8403 0.9754
-1.9906 5.1684 -2.8394 0.9754
-2.4420 4.9693 -2.8386 0.9754
-2.9016 4.7766 -2.8652 0.9752
-3.4586 4.6940 -2.9891 0.9741
-4.2340 4.0045 -2.9877 0.9741
-4.8750 3.1891 -2.9865 0.9742
-5.1387 2.7421 -2.9860 0.9742
-5.3616 2.2735 -2.9856 0.9742
-5.5420 1.7871 -2.9853 0.9742
-5.8162 0.2594 -2.9847 0.9742
-5.5418 -1.7870 -2.9852 0.9742
-5.1384 -2.7419 -2.9859 0.9742
-4.8747 -3.1889 -2.9864 0.9742
-3.8614 -4.3661 -2.9882 0.9741
-3.4583 -4.6936 -2.9889 0.9741
-2.0971 -5.4449 -2.9913 0.9741
-1.6046 -5.6116 -2.9922 0.9741
-0.5846 -5.8108 -2.9941 0.9741
0.4553 -5.8260 -2.9960 0.9741
4.8308 -3.3161 -3.0040 0.9740
5.1076 -2.8735 -3.0045 0.9740
5.3439 -2.4078 -3.0049 0.9740
5.6874 -1.4225 -3.0056 0.9740
5.8501 -0.3916 -3.0059 0.9740
5.8268 0.6518 -3.0059 0.9740
5.6183 1.6744 -3.0055 0.9740
5.2312 2.6434 -3.0048 0.9740
4.9744 3.0981 -3.0044 0.9740
3.0368 4.7571 -2.8934 0.9750
2.1107 5.1362 -2.8469 0.9753
1.6447 5.3021 -2.8460 0.9754
1.1659 5.4258 -2.8452 0.9754
0.6782 5.5063 -2.8443 0.9754
-2.2185 5.0739 -2.8390 0.9754
-2.6606 4.8549 -2.8382 0.9754
-3.6638 4.5347 -2.9888 0.9741
-4.0519 4.1896 -2.9881 0.9741
-4.4077 3.8115 -2.9874 0.9741
-4.7285 3.4034 -2.9868 0.9742
-5.0118 2.9685 -2.9863 0.9742
-5.2553 2.5103 -2.9858 0.9742
-5.7301 1.0323 -2.9849 0.9742
-5.5697 -0.4977 -2.9852 0.9750
-5.5035 -0.9915 -2.9853 0.9750
-5.2413 -1.9518 -2.9857 0.9750
-4.2331 -3.6605 -2.9875 0.9749
-3.5185 -4.3549 -2.9888 0.9749
-3.1177 -4.6518 -2.9895 0.9749
-2.6919 -4.9121 -2.9903 0.9749
-1.2996 -5.4534 -2.9928 0.9749
-0.8093 -5.5490 -2.9937 0.9749
-0.3123 -5.6007 -2.9946 0.9749
0.6861 -5.5707 -2.9964 0.9749
1.1796 -5.4892 -2.9973 0.9749
2.1354 -5.1961 -2.9990 0.9748
3.0245 -4.7377 -3.0006 0.9748
3.8184 -4.1284 -3.0021 0.9748
5.0229 -2.5381 -3.0043 0.9748
5.5949 -0.6259 -3.0054 0.9748
5.6285 -0.1254 -3.0055 0.9748
5.4612 1.3660 -3.0052 0.9748
5.3175 1.8464 -3.0050 0.9748
4.6389 3.1844 -3.0038 0.9748
4.3363 3.5840 -3.0032 0.9748
3.9993 3.9550 -3.0026 0.9748
3.2332 4.5993 -3.0013 0.9748
2.2449 4.8377 -2.8471 0.9761
1.8049 5.0169 -2.8463 0.9761
1.3509 5.1562 -2.8455 0.9761
0.4150 5.3108 -2.8438 0.9761
-0.0593 5.3251 -2.8429 0.9761
-0.5329 5.2971 -2.8421 0.9761
-1.0019 5.2271 -2.8412 0.9762
-2.8896 4.7569 -2.9713 0.9751
-4.3918 3.4681 -2.9874 0.9749
-4.6822 3.0629 -2.9869 0.9749
-4.9355 2.6337 -2.9864 0.9750
-5.3229 1.7164 -2.9857 0.9750
-5.4541 1.2357 -2.9854 0.9750
-5.5421 0.7454 -2.9853 0.9750
-5.5863 -0.2491 -2.9852 0.9750
-5.5420 -0.7453 -2.9852 0.9750
-5.4540 -1.2357 -2.9854 0.9750
-4.6819 -3.0628 -2.9867 0.9750
-4.3915 -3.4679 -2.9872 0.9749
-3.3214 -4.5078 -2.9891 0.9749
-2.4708 -5.0278 -2.9907 0.9749
-1.0555 -5.5066 -2.9932 0.9749
-0.5614 -5.5804 -2.9941 0.9749
0.4372 -5.5949 -2.9959 0.9749
0.9337 -5.5355 -2.9968 0.9749
2.3650 -5.0965 -2.9994 0.9748
3.2329 -4.5989 -3.0010 0.9748
4.6386 -3.1842 -3.0036 0.9748
4.9044 -2.7592 -3.0041 0.9748
5.1313 -2.3121 -3.0045 0.9748
5.5613 -0.8745 -3.0053 0.9748
5.6285 0.1254 -3.0055 0.9748
5.3947 1.6078 -3.0051 0.9748
5.0231 2.5383 -3.0045 0.9748
4.7765 2.9749 -3.0040 0.9748
4.4921 3.3876 -3.0035 0.9748
4.1719 3.7733 -3.0030 0.9748
3.8187 4.1287 -3.0023 0.9748
3.4352 4.4513 -3.0016 0.9748
2.0269 4.9322 -2.8467 0.9761
1.5794 5.0916 -2.8459 0.9761
1.1197 5.2104 -2.8451 0.9761
0.1780 5.3232 -2.8434 0.9761
-0.7682 5.2673 -2.8416 0.9762
-2.1306 4.8729 -2.8392 0.9762
-2.6134 4.7689 -2.9031 0.9756
-3.1179 4.6523 -2.9898 0.9749
-4.2333 3.6607 -2.9877 0.9749
-4.8136 2.8511 -2.9866 0.9750
-5.0475 2.4110 -2.9862 0.9750
-5.2414 1.9519 -2.9858 0.9750
-5.3938 1.4775 -2.9855 0.9750
-5.5036 0.9915 -2.9853 0.9750
-5.5697 0.4977 -2.9852 0.9750
-5.3755 0.0000 -2.9855 0.9757
-5.3542 -0.4785 -2.9856 0.9757
-5.2906 -0.9531 -2.9857 0.9757
-5.1851 -1.4203 -2.9858 0.9757
-5.0385 -1.8763 -2.9861 0.9757
-4.8520 -2.3176 -2.9864 0.9757
-2.9969 -4.4717 -2.9897 0.9757
-2.5876 -4.7218 -2.9905 0.9757
-1.7103 -5.1085 -2.9920 0.9757
-1.2492 -5.2419 -2.9929 0.9756
-0.7779 -5.3338 -2.9937 0.9756
0.1802 -5.3904 -2.9955 0.9756
0.6595 -5.3545 -2.9963 0.9756
2.0524 -4.9942 -2.9989 0.9756
3.3014 -4.2778 -3.0012 0.9756
3.6699 -3.9679 -3.0018 0.9756
4.0093 -3.6262 -3.0025 0.9756
4.3170 -3.2556 -3.0030 0.9756
4.8274 -2.4394 -3.0040 0.9756
5.1846 -1.5452 -3.0046 0.9756
5.3770 -0.6015 -3.0050 0.9755
4.9318 2.2221 -3.0043 0.9756
4.4584 3.0605 -3.0035 0.9756
4.1676 3.4446 -3.0029 0.9756
3.4894 4.1273 -3.0017 0.9756
3.1075 4.4205 -3.0010 0.9756
2.7011 4.6784 -3.0003 0.9756
2.2069 4.7557 -2.9118 0.9763
1.7348 4.8220 -2.8462 0.9768
1.2984 4.9559 -2.8454 0.9768
-1.4060 4.9173 -2.8405 0.9769
-1.8424 4.7838 -2.8471 0.9768
-2.3393 4.7603 -2.9459 0.9760
-2.7953 4.6017 -2.9903 0.9757
-3.5652 4.0313 -2.9889 0.9757
-3.9091 3.6971 -2.9883 0.9757
-4.2218 3.3339 -2.9877 0.9757
-5.2431 1.1879 -2.9858 0.9757
-5.3277 0.7165 -2.9856 0.9757
-5.3702 0.2395 -2.9856 0.9757
-5.3702 -0.2394 -2.9855 0.9757
-5.3277 -0.7165 -2.9856 0.9757
-4.9502 -2.0990 -2.9863 0.9757
-4.2215 -3.3337 -2.9875 0.9757
-2.3750 -4.8330 -2.9908 0.9757
-0.5396 -5.3640 -2.9942 0.9756
0.4202 -5.3778 -2.9959 0.9756
1.3679 -5.2211 -2.9976 0.9756
1.8276 -5.0800 -2.9985 0.9756
2.7008 -4.6779 -3.0001 0.9756
4.1673 -3.4444 -3.0027 0.9756
4.9316 -2.2220 -3.0042 0.9756
5.2485 -1.3127 -3.0048 0.9755
5.3448 -0.8404 -3.0050 0.9755
5.4094 0.1205 -3.0051 0.9755
5.3771 0.6015 -3.0051 0.9755
5.1847 1.5452 -3.0047 0.9755
5.0261 2.0004 -3.0045 0.9756
4.8276 2.4395 -3.0041 0.9756
4.5907 2.8591 -3.0037 0.9756
4.3173 3.2558 -3.0032 0.9756
3.6702 3.9682 -3.0021 0.9756
3.3017 4.2781 -3.0014 0.9756
2.9071 4.5539 -3.0007 0.9756
1.9592 4.7657 -2.8616 0.9767
1.5181 4.8938 -2.8458 0.9768
0.1711 5.1167 -2.8433 0.9768
-0.2849 5.1101 -2.8425 0.9769
-1.1858 4.9757 -2.8409 0.9769
-2.0856 4.7698 -2.8913 0.9765
-2.5879 4.7222 -2.9907 0.9757
-3.3825 4.1865 -2.9893 0.9757
-3.7409 3.8680 -2.9886 0.9757
-4.0695 3.5190 -2.9880 0.9757
-4.6273 2.7408 -2.9870 0.9757
-5.1852 1.4204 -2.9859 0.9757
-5.3543 0.4785 -2.9856 0.9757
-5.1513 -0.4603 -2.9859 0.9764
-4.9885 -1.3665 -2.9862 0.9764
-4.1999 -3.0229 -2.9876 0.9764
-3.9148 -3.3853 -2.9881 0.9764
-2.8831 -4.3019 -2.9899 0.9764
-2.4894 -4.5426 -2.9906 0.9764
-2.0757 -4.7473 -2.9914 0.9764
0.1734 -5.1854 -2.9955 0.9763
1.5384 -4.9594 -2.9979 0.9763
1.9743 -4.8041 -2.9987 0.9763
2.3946 -4.6105 -2.9995 0.9763
4.1524 -3.1315 -3.0027 0.9763
4.4154 -2.7499 -3.0032 0.9763
4.8343 -1.9240 -3.0040 0.9763
5.0997 -1.0365 -3.0045 0.9763
5.1927 0.3476 -3.0047 0.9762
4.5341 2.5509 -3.0036 0.9763
4.2884 2.9438 -3.0031 0.9763
3.3564 3.9700 -3.0015 0.9763
2.5982 4.5002 -3.0001 0.9763
1.2515 4.7770 -2.8511 0.9774
0.8195 4.8582 -2.8445 0.9775
-0.4927 4.8980 -2.8421 0.9775
-3.4299 3.8783 -2.9892 0.9764
-3.7607 3.5569 -2.9886 0.9764
-4.3303 2.8328 -2.9875 0.9764
-4.5646 2.4357 -2.9871 0.9764
-4.7626 2.0196 -2.9867 0.9764
-5.0444 1.1429 -2.9862 0.9764
-5.1666 0.2304 -2.9859 0.9764
-5.1666 -0.2304 -2.9859 0.9764
-5.1257 -0.6893 -2.9860 0.9764
-4.9228 -1.5874 -2.9863 0.9764
-4.7625 -2.0195 -2.9866 0.9764
-4.5644 -2.4356 -2.9869 0.9764
-4.3301 -2.8326 -2.9874 0.9764
-4.0614 -3.2073 -2.9878 0.9764
-3.4297 -3.8780 -2.9890 0.9764
-3.0716 -4.1688 -2.9896 0.9764
-2.2848 -4.6495 -2.9910 0.9764
1.7581 -4.8866 -2.9983 0.9763
2.1866 -4.7120 -2.9991 0.9763
2.9889 -4.2517 -3.0006 0.9763
3.3562 -3.9697 -3.0013 0.9763
3.6970 -3.6560 -3.0019 0.9763
4.2882 -2.9437 -3.0030 0.9763
5.0483 -1.2626 -3.0044 0.9763
5.1409 -0.8084 -3.0046 0.9762
5.1927 -0.3476 -3.0047 0.9762
5.2030 0.1160 -3.0047 0.9762
5.1720 0.5786 -3.0047 0.9762
5.0998 1.0366 -3.0046 0.9763
4.9870 1.4863 -3.0044 0.9763
4.8344 1.9241 -3.0041 0.9763
4.6435 2.3465 -3.0038 0.9763
4.4156 2.7501 -3.0034 0.9763
3.8568 3.4883 -3.0024 0.9763
2.7964 4.3805 -3.0005 0.9763
2.3948 4.6109 -2.9998 0.9763
1.4776 4.7634 -2.8794 0.9772
1.0352 4.8175 -2.8449 0.9775
0.1646 4.9221 -2.8433 0.9775
-0.7103 4.8705 -2.8417 0.9775
-1.5959 4.7666 -2.9022 0.9771
-2.4896 4.5430 -2.9909 0.9764
-2.8834 4.3023 -2.9902 0.9764
-3.2541 4.0277 -2.9895 0.9764
-4.2001 3.0231 -2.9878 0.9764
-4.4518 2.6368 -2.9873 0.9764
-4.8476 1.8053 -2.9865 0.9764
-4.9886 1.3665 -2.9863 0.9764
-5.0901 0.9170 -2.9861 0.9764
