ply
format ascii 1.0
element vertex 1603
property float32 x
property float32 y
property float32 z
property float32 I
end_header
-3.6025 7.3309 1.5807 0.9673
10.0371 -6.2512 1.8829 0.9532
-3.5951 7.3159 1.2980 0.9675
9.6004 -6.5903 1.8543 0.9539
9.1489 -6.8996 1.6299 0.9548
9.3534 -5.8253 1.3809 0.9566
-3.5879 7.3012 1.0195 0.9677
9.0456 -6.2095 1.3749 0.9567
9.8794 -5.5581 1.4205 0.9553
9.2034 -5.7320 1.1760 0.9573
8.7966 -7.2705 1.2379 0.9551
8.9081 -6.1151 1.1720 0.9575
9.0999 -5.6675 0.9828 0.9579
8.6274 -7.1307 1.0261 0.9560
9.0131 -5.6134 0.7957 0.9583
10.1173 -5.1125 0.8495 0.9555
-3.5771 7.2793 0.6078 0.9680
8.5118 -7.0352 0.8275 0.9567
8.7316 -5.9939 0.7937 0.9584
8.7388 -7.9038 0.6863 0.9539
8.5007 -6.4107 0.6201 0.9582
8.9644 -5.5831 0.6151 0.9586
8.4385 -6.9746 0.6376 0.9571
9.3744 -5.2739 0.6265 0.9578
8.4546 -6.3759 0.4403 0.9585
9.9098 -5.0077 0.4617 0.9565
9.3176 -5.2420 0.4445 0.9581
8.5294 -7.7144 0.2868 0.9550
-3.5665 7.2577 0.2017 0.9682
8.6219 -5.9186 0.2608 0.9590
8.4882 -7.6771 0.0951 0.9553
8.8844 -5.5332 0.0870 0.9590
8.3330 -6.8874 0.0899 0.9577
8.6077 -5.9089 0.0868 0.9591
8.4233 -6.3523 -0.0877 0.9587
8.9024 -5.5445 -0.2615 0.9589
-3.5560 7.2363 -0.2011 0.9683
8.6315 -7.8067 -0.4839 0.9545
8.9289 -5.5610 -0.4374 0.9588
9.9259 -5.0158 -0.4624 0.9565
8.5113 -6.4187 -0.6209 0.9582
10.0146 -5.0606 -0.6535 0.9560
-3.5526 7.2293 -0.4691 0.9682
8.4522 -6.9859 -0.6387 0.9570
8.6952 -5.9689 -0.6143 0.9586
8.5700 -6.4629 -0.8044 0.9579
9.0322 -5.6253 -0.7974 0.9582
-3.5523 7.2287 -0.6036 0.9682
9.4616 -5.3230 -0.8136 0.9574
-3.5520 7.2280 -0.7383 0.9682
8.8326 -6.0632 -0.9822 0.9579
9.5676 -5.3827 -1.0064 0.9569
9.2360 -5.7523 -1.1802 0.9572
8.8514 -7.3158 -1.2456 0.9548
9.7137 -5.4648 -1.2089 0.9561
8.9371 -6.7398 -1.4027 0.9559
9.3865 -5.8460 -1.3858 0.9564
-3.5514 7.2268 -1.0091 0.9681
9.9459 -5.5955 -1.4301 0.9550
9.2167 -6.9506 -1.6419 0.9544
-3.5511 7.2262 -1.1452 0.9680
-3.5504 7.2249 -1.4195 0.9678
13.3208 6.0021 -2.8274 0.9422
12.7337 7.1639 -2.8274 0.9422
12.0455 8.2688 -2.8274 0.9422
10.3886 10.2735 -2.8274 0.9422
9.4330 11.1574 -2.8274 0.9422
7.3053 12.6531 -2.8274 0.9422
4.9461 13.7479 -2.8274 0.9422
2.4302 14.4071 -2.8274 0.9422
-1.4624 14.5372 -2.8274 0.9422
-4.0168 14.0476 -2.8274 0.9422
-7.5854 12.4872 -2.8274 0.9422
-8.6667 11.7625 -2.8274 0.9422
-9.6792 10.9445 -2.8274 0.9422
-11.4664 9.0549 -2.8274 0.9422
-12.2268 7.9984 -2.8274 0.9422
-13.4512 5.7038 -2.8274 0.9422
13.5749 5.4027 -2.8274 0.9422
12.4019 7.7240 -2.8274 0.9422
9.9207 10.7261 -2.8274 0.9422
3.0696 14.2845 -2.8274 0.9422
0.4882 14.6024 -2.8274 0.9422
-4.6386 13.8547 -2.8274 0.9422
-7.0216 12.8128 -2.8274 0.9422
-8.1341 12.1369 -2.8274 0.9422
-13.1838 6.2974 -2.8274 0.9422
-13.6919 5.0989 -2.8274 0.9422
-14.0783 -1.2580 -2.9798 0.9439
-13.6322 -3.7342 -2.9798 0.9439
-12.7541 -6.0921 -2.9798 0.9439
-12.1612 -7.2031 -2.9798 0.9439
-9.8261 -10.1601 -2.9798 0.9439
-7.8690 -11.7413 -2.9798 0.9439
-6.7927 -12.3952 -2.9798 0.9439
-4.4874 -13.4031 -2.9798 0.9439
-3.2766 -13.7493 -2.9798 0.9439
-2.0399 -13.9864 -2.9798 0.9439
-0.7869 -14.1124 -2.9798 0.9439
0.4723 -14.1265 -2.9798 0.9439
8.6357 -11.1895 -2.9798 0.9439
9.5973 -10.3765 -2.9798 0.9439
11.2851 -8.5105 -2.9798 0.9439
12.6152 -6.3747 -2.9798 0.9439
13.5456 -4.0370 -2.9798 0.9439
14.1309 -0.3149 -2.9798 0.9439
13.9628 2.1956 -2.9798 0.9439
13.7120 3.4296 -2.9798 0.9439
12.2276 5.5095 -2.8274 0.9467
11.0570 7.5902 -2.8274 0.9467
9.5360 9.4304 -2.8274 0.9467
7.7129 10.9717 -2.8274 0.9467
4.5402 12.6196 -2.8274 0.9467
3.3989 12.9737 -2.8274 0.9467
1.0448 13.3708 -2.8274 0.9467
-3.6871 12.8947 -2.8274 0.9467
-3.5498 7.2237 -1.6968 0.9676
-9.7438 9.2156 -2.8274 0.9467
-10.5253 8.3118 -2.8274 0.9467
-11.8323 6.3139 -2.8274 0.9467
-12.4700 -6.6542 -2.9798 0.9439
-11.8283 -7.7377 -2.9798 0.9439
-8.3842 -11.3792 -2.9798 0.9439
-7.3381 -12.0802 -2.9798 0.9439
-6.2338 -12.6854 -2.9798 0.9439
-5.0800 -13.1899 -2.9798 0.9439
-3.8859 -13.5897 -2.9798 0.9439
-2.6609 -13.8816 -2.9798 0.9439
-0.1575 -14.1335 -2.9798 0.9439
2.3510 -13.9375 -2.9798 0.9439
3.5821 -13.6729 -2.9798 0.9439
4.7849 -13.2998 -2.9798 0.9439
7.0672 -12.2407 -2.9798 0.9439
8.1286 -11.5631 -2.9798 0.9439
10.8947 -9.0047 -2.9798 0.9439
13.3523 -4.6364 -2.9798 0.9439
13.9628 -2.1956 -2.9798 0.9439
13.5456 4.0371 -2.9798 0.9439
11.9700 6.0487 -2.8274 0.9467
11.3841 7.0901 -2.8274 0.9467
9.1065 9.8458 -2.8274 0.9467
5.0978 12.4048 -2.8274 0.9467
3.9735 12.8093 -2.8274 0.9467
2.8176 13.1122 -2.8274 0.9467
1.6394 13.3109 -2.8274 0.9467
-0.7467 13.3907 -2.8274 0.9467
-4.2579 12.7177 -2.8274 0.9467
-6.4453 11.7612 -2.8274 0.9467
-10.8851 7.8346 -2.8274 0.9467
-11.5393 6.8347 -2.8274 0.9467
-13.0554 0.0000 -2.9798 0.9478
-12.8485 -2.3148 -2.9798 0.9478
-12.5915 -3.4491 -2.9798 0.9478
-12.2345 -4.5562 -2.9798 0.9478
-11.7805 -5.6271 -2.9798 0.9478
-10.5961 -7.6266 -2.9798 0.9478
-9.0760 -9.3845 -2.9798 0.9478
-8.2047 -10.1551 -2.9798 0.9478
-5.2303 -11.9619 -2.9798 0.9478
-4.1448 -12.3799 -2.9798 0.9478
-3.0265 -12.6997 -2.9798 0.9478
-1.8841 -12.9187 -2.9798 0.9478
0.4362 -13.0481 -2.9798 0.9478
1.5959 -12.9575 -2.9798 0.9478
2.7428 -12.7640 -2.9798 0.9478
6.0175 -11.5858 -2.9798 0.9478
7.9764 -10.3353 -2.9798 0.9478
8.8647 -9.5844 -2.9798 0.9478
11.0818 -6.9018 -2.9798 0.9478
11.6522 -5.8881 -2.9798 0.9478
12.1300 -4.8276 -2.9798 0.9478
12.7938 -2.6004 -2.9798 0.9478
12.9744 -1.4514 -2.9798 0.9478
13.0521 -0.2908 -2.9798 0.9478
12.6652 3.1678 -2.9798 0.9478
11.2941 5.0889 -2.8274 0.9504
10.7964 6.0739 -2.8274 0.9504
9.5484 7.8920 -2.8274 0.9504
7.9978 9.4599 -2.8274 0.9504
6.1938 10.7280 -2.8274 0.9504
5.2144 11.2368 -2.8274 0.9504
4.1936 11.6562 -2.8274 0.9504
3.1395 11.9833 -2.8274 0.9504
2.0604 12.2151 -2.8274 0.9504
0.9651 12.3500 -2.8274 0.9504
-1.2399 12.3254 -2.8274 0.9504
-3.5495 7.2231 -1.8369 0.9675
-10.9290 5.8319 -2.8274 0.9504
-11.4047 4.8360 -2.8274 0.9504
-12.9389 1.7401 -2.9798 0.9478
-13.0424 -0.5816 -2.9798 0.9478
-12.7327 -2.8848 -2.9798 0.9478
-12.4254 -4.0067 -2.9798 0.9478
-12.0194 -5.0967 -2.9798 0.9478
-11.5181 -6.1462 -2.9798 0.9478
-9.4850 -8.9709 -2.9798 0.9478
-8.6489 -9.7795 -2.9798 0.9478
-7.7442 -10.5105 -2.9798 0.9478
-4.6922 -12.1830 -2.9798 0.9478
-2.4578 -12.8219 -2.9798 0.9478
-0.1454 -13.0546 -2.9798 0.9478
6.5277 -11.3063 -2.9798 0.9478
8.4289 -9.9698 -2.9798 0.9478
9.2828 -9.1800 -2.9798 0.9478
10.7634 -7.3886 -2.9798 0.9478
11.3783 -6.4013 -2.9798 0.9478
12.3330 -4.2825 -2.9798 0.9478
12.6652 -3.1678 -2.9798 0.9478
13.0262 -0.8720 -2.9798 0.9478
13.0521 0.2909 -2.9798 0.9478
12.9744 1.4514 -2.9798 0.9478
12.7938 2.6004 -2.9798 0.9478
12.5115 3.7288 -2.9798 0.9478
9.1873 8.3095 -2.8274 0.9504
8.4113 9.0942 -2.8274 0.9504
6.6656 10.4415 -2.8274 0.9504
5.7098 10.9933 -2.8274 0.9504
3.6702 11.8315 -2.8274 0.9504
0.4139 12.3808 -2.8274 0.9504
-3.9328 11.7468 -2.8274 0.9504
-4.9628 11.3501 -2.8274 0.9504
-8.6118 8.9046 -2.8274 0.9504
-9.3702 8.1027 -2.8274 0.9504
-10.0542 7.2366 -2.8274 0.9504
-10.6584 6.3130 -2.8274 0.9504
-11.1780 5.3393 -2.8274 0.9504
-12.8485 2.3148 -2.9798 0.9478
-12.1229 0.0000 -2.9798 0.9513
-11.9308 -2.1495 -2.9798 0.9513
-11.6922 -3.2028 -2.9798 0.9513
-10.4305 -6.1780 -2.9798 0.9513
-8.4277 -8.7142 -2.9798 0.9513
-6.7491 -10.0704 -2.9798 0.9513
-5.8260 -10.6311 -2.9798 0.9513
-4.8567 -11.1075 -2.9798 0.9513
-3.8488 -11.4957 -2.9798 0.9513
-2.8103 -11.7926 -2.9798 0.9513
-1.7496 -11.9960 -2.9798 0.9513
0.4051 -12.1161 -2.9798 0.9513
2.5469 -11.8523 -2.9798 0.9513
3.5917 -11.5786 -2.9798 0.9513
4.6080 -11.2129 -2.9798 0.9513
5.5877 -10.7583 -2.9798 0.9513
7.4067 -9.5971 -2.9798 0.9513
8.9910 -8.1319 -2.9798 0.9513
9.6791 -7.2993 -2.9798 0.9513
10.2903 -6.4089 -2.9798 0.9513
10.8199 -5.4675 -2.9798 0.9513
11.2636 -4.4828 -2.9798 0.9513
12.1199 -0.2701 -2.9798 0.9513
11.9757 1.8831 -2.9798 0.9513
11.7606 2.9415 -2.9798 0.9513
11.4521 3.9766 -2.9798 0.9513
10.5356 4.7472 -2.8404 0.9535
10.0252 5.6401 -2.8274 0.9537
8.8664 7.3283 -2.8274 0.9537
6.6153 9.4103 -2.8274 0.9537
5.7514 9.9618 -2.8274 0.9537
4.8420 10.4342 -2.8274 0.9537
3.8941 10.8237 -2.8274 0.9537
2.9152 11.1273 -2.8274 0.9537
1.9133 11.3426 -2.8274 0.9537
-1.1514 11.4451 -2.8274 0.9537
-3.1624 11.0596 -2.8274 0.9537
-3.5492 7.2224 -1.9780 0.9674
-6.8233 9.2606 -2.8274 0.9537
-7.6204 8.6166 -2.8274 0.9537
-9.0275 7.1289 -2.8274 0.9537
-9.6261 6.2971 -2.8274 0.9537
-10.1484 5.4154 -2.8274 0.9537
-11.1609 4.7327 -2.9798 0.9513
-11.5379 3.7205 -2.9798 0.9513
-12.0147 1.6159 -2.9798 0.9513
-12.1109 -0.5400 -2.9798 0.9513
-12.0147 -1.6158 -2.9798 0.9513
-11.8232 -2.6788 -2.9798 0.9513
-11.1609 -4.7326 -2.9798 0.9513
-10.6954 -5.7072 -2.9798 0.9513
-7.1911 -9.7598 -2.9798 0.9513
-5.3467 -10.8801 -2.9798 0.9513
-4.3571 -11.3129 -2.9798 0.9513
-2.2822 -11.9061 -2.9798 0.9513
-1.2135 -12.0620 -2.9798 0.9513
3.0724 -11.7271 -2.9798 0.9513
4.1039 -11.4071 -2.9798 0.9513
6.9718 -9.9176 -2.9798 0.9513
7.8269 -9.2577 -2.9798 0.9513
8.6198 -8.5243 -2.9798 0.9513
9.3443 -7.7232 -2.9798 0.9513
10.5656 -5.9441 -2.9798 0.9513
11.0527 -4.9801 -2.9798 0.9513
11.4521 -3.9766 -2.9798 0.9513
11.7606 -2.9415 -2.9798 0.9513
11.9757 -1.8831 -2.9798 0.9513
12.0958 -0.8097 -2.9798 0.9513
12.1199 0.2701 -2.9798 0.9513
12.0477 1.3478 -2.9798 0.9513
11.8800 2.4147 -2.9798 0.9513
11.2636 4.4828 -2.9798 0.9513
9.7640 6.0811 -2.8274 0.9537
9.1840 6.9260 -2.8274 0.9537
8.5311 7.7160 -2.8274 0.9537
7.8105 8.4446 -2.8274 0.9537
7.0279 9.1063 -2.8274 0.9537
6.1895 9.6957 -2.8274 0.9537
5.3020 10.2081 -2.8274 0.9537
3.4080 10.9864 -2.8274 0.9537
2.4167 11.2462 -2.8274 0.9537
1.4061 11.4166 -2.8274 0.9537
-0.6404 11.4851 -2.8274 0.9537
-2.6666 11.1895 -2.8274 0.9537
-3.6519 10.9078 -2.8274 0.9537
-5.5281 10.0874 -2.8274 0.9537
-12.0748 1.0790 -2.9798 0.9513
-11.1294 -2.0050 -2.9798 0.9543
-10.9067 -2.9877 -2.9798 0.9543
-10.5975 -3.9466 -2.9798 0.9543
-9.1783 -6.6061 -2.9798 0.9543
-8.5539 -7.3968 -2.9798 0.9543
-6.2958 -9.3939 -2.9798 0.9543
-5.4347 -9.9171 -2.9798 0.9543
-4.5304 -10.3614 -2.9798 0.9543
0.3779 -11.3022 -2.9798 0.9543
5.2124 -10.0356 -2.9798 0.9543
6.0849 -9.5319 -2.9798 0.9543
7.6786 -8.3020 -2.9798 0.9543
9.5991 -5.9783 -2.9798 0.9543
10.5070 -4.1817 -2.9798 0.9543
11.2384 -1.2572 -2.9798 0.9543
11.2833 0.7553 -2.9798 0.9543
10.9706 2.7439 -2.9798 0.9543
10.3103 4.6456 -2.9798 0.9543
7.6295 7.5450 -2.8274 0.9566
6.1709 8.7782 -2.8274 0.9566
5.3651 9.2926 -2.8274 0.9566
4.5167 9.7333 -2.8274 0.9566
1.7847 10.5807 -2.8274 0.9566
0.8359 10.6976 -2.8274 0.9566
-0.1195 10.7295 -2.8274 0.9566
-2.0200 10.5383 -2.8274 0.9566
-3.8565 10.0132 -2.8274 0.9566
-6.3649 8.6385 -2.8274 0.9566
-7.1085 8.0378 -2.8274 0.9566
-7.7957 7.3732 -2.8274 0.9566
-8.4210 6.6500 -2.8274 0.9566
-8.9795 5.8742 -2.8274 0.9566
-9.4667 5.0516 -2.8274 0.9566
-10.4112 4.4147 -2.9798 0.9543
-10.7628 3.4706 -2.9798 0.9543
-11.2973 0.5038 -2.9798 0.9543
-11.0290 -2.4988 -2.9798 0.9543
-10.4112 -4.4147 -2.9798 0.9543
-4.0644 -10.5529 -2.9798 0.9543
-2.1289 -11.1063 -2.9798 0.9543
-0.1260 -11.3078 -2.9798 0.9543
4.7602 -10.2579 -2.9798 0.9543
5.6543 -9.7935 -2.9798 0.9543
6.5035 -9.2513 -2.9798 0.9543
8.0408 -7.9517 -2.9798 0.9543
9.3232 -6.4000 -2.9798 0.9543
9.8559 -5.5448 -2.9798 0.9543
10.6828 -3.7095 -2.9798 0.9543
10.9706 -2.7439 -2.9798 0.9543
11.1713 -1.7566 -2.9798 0.9543
11.2833 -0.7553 -2.9798 0.9543
9.5769 4.8394 -2.8274 0.9566
8.5671 6.4608 -2.8274 0.9566
7.9581 7.1977 -2.8274 0.9566
7.2859 7.8774 -2.8274 0.9566
5.7737 9.0444 -2.8274 0.9566
3.1791 10.2484 -2.8274 0.9566
2.2543 10.4907 -2.8274 0.9566
-1.5486 10.6179 -2.8274 0.9566
-2.4875 10.4379 -2.8274 0.9566
-4.2987 9.8315 -2.8274 0.9566
-3.8708 7.0633 -2.1223 0.9672
-6.7434 8.3464 -2.8274 0.9566
-7.4595 7.7131 -2.8274 0.9566
-8.1164 7.0186 -2.8274 0.9566
-9.2323 5.4683 -2.8274 0.9566
-10.0100 4.7814 -2.9231 0.9551
-10.5975 3.9466 -2.9798 0.9543
-11.2637 1.0065 -2.9798 0.9543
-10.5909 0.0000 -2.9798 0.9569
-10.5488 -0.9426 -2.9798 0.9569
-10.4231 -1.8778 -2.9798 0.9569
-10.2146 -2.7980 -2.9798 0.9569
-9.9250 -3.6961 -2.9798 0.9569
-8.0111 -6.9274 -2.9798 0.9569
-7.3627 -7.6129 -2.9798 0.9569
-5.8962 -8.7978 -2.9798 0.9569
-4.2429 -9.7038 -2.9798 0.9569
-3.3624 -10.0429 -2.9798 0.9569
-1.5285 -10.4800 -2.9798 0.9569
-0.5896 -10.5744 -2.9798 0.9569
1.2946 -10.5114 -2.9798 0.9569
3.1378 -10.1153 -2.9798 0.9569
7.1912 -7.7751 -2.9798 0.9569
8.9899 -5.5989 -2.9798 0.9569
9.4525 -4.7766 -2.9798 0.9569
10.1497 -3.0249 -2.9798 0.9569
10.5672 0.7074 -2.9798 0.9569
10.4623 1.6451 -2.9798 0.9569
10.2744 2.5698 -2.9798 0.9569
9.6559 4.3508 -2.9798 0.9569
7.1453 7.0662 -2.8274 0.9591
4.2301 9.1155 -2.8274 0.9591
3.4019 9.4559 -2.8274 0.9591
2.5468 9.7211 -2.8274 0.9591
1.6715 9.9092 -2.8274 0.9591
0.7829 10.0187 -2.8274 0.9591
-0.1119 10.0486 -2.8274 0.9591
-1.0059 9.9987 -2.8274 0.9591
-1.8918 9.8695 -2.8274 0.9591
-2.7628 9.6620 -2.8274 0.9591
-3.6118 9.3777 -2.8274 0.9591
-3.4871 7.0961 -2.2246 0.9677
-5.2172 8.5888 -2.8274 0.9591
-7.3010 6.9053 -2.8274 0.9591
-7.8866 6.2280 -2.8274 0.9591
-8.9764 4.7900 -2.8627 0.9586
-9.7505 4.1346 -2.9798 0.9569
-10.0798 3.2503 -2.9798 0.9569
-10.3291 2.3403 -2.9798 0.9569
-10.5803 0.4718 -2.9798 0.9569
-10.4964 -1.4116 -2.9798 0.9569
-10.3291 -2.3402 -2.9798 0.9569
-8.8629 -5.7978 -2.9798 0.9569
-7.0162 -7.9333 -2.9798 0.9569
-6.2822 -8.5264 -2.9798 0.9569
-5.4985 -9.0517 -2.9798 0.9569
-4.6710 -9.5051 -2.9798 0.9569
-2.9117 -10.1828 -2.9798 0.9569
1.7616 -10.4433 -2.9798 0.9569
3.5853 -9.9655 -2.9798 0.9569
6.0908 -8.6642 -2.9798 0.9569
6.8378 -8.0878 -2.9798 0.9569
10.4623 -1.6451 -2.9798 0.9569
10.5672 -0.7074 -2.9798 0.9569
10.5252 1.1774 -2.9798 0.9569
10.1497 3.0249 -2.9798 0.9569
9.8402 3.9163 -2.9798 0.9569
8.5301 5.3126 -2.8274 0.9591
7.4530 6.7408 -2.8274 0.9591
6.8235 7.3774 -2.8274 0.9591
6.1397 7.9555 -2.8274 0.9591
5.4073 8.4704 -2.8274 0.9591
3.8198 9.2949 -2.8274 0.9591
2.9773 9.5980 -2.8274 0.9591
2.1112 9.8249 -2.8274 0.9591
-0.5595 10.0336 -2.8274 0.9591
-2.3296 9.7754 -2.8274 0.9591
-3.1904 9.5293 -2.8274 0.9591
-4.0259 9.2075 -2.8274 0.9591
-3.8410 7.0090 -2.2487 0.9673
-5.5947 8.3478 -2.8274 0.9591
-6.3155 7.8168 -2.8274 0.9591
-7.6013 6.5732 -2.8274 0.9591
-8.1562 5.8705 -2.8274 0.9591
-8.6463 5.1213 -2.8274 0.9591
-10.2146 2.7981 -2.9798 0.9569
-10.5488 0.9427 -2.9798 0.9569
-9.9532 0.0000 -2.9798 0.9593
-9.9137 -0.8859 -2.9798 0.9593
-9.7955 -1.7647 -2.9798 0.9593
-9.5996 -2.6296 -2.9798 0.9593
-8.5638 -5.0724 -2.9798 0.9593
-5.5412 -8.2681 -2.9798 0.9593
-4.7833 -8.7285 -2.9798 0.9593
-3.9875 -9.1196 -2.9798 0.9593
-2.3074 -9.6821 -2.9798 0.9593
-1.4364 -9.8490 -2.9798 0.9593
-0.5541 -9.9378 -2.9798 0.9593
1.2167 -9.8786 -2.9798 0.9593
2.9489 -9.5063 -2.9798 0.9593
3.7833 -9.2062 -2.9798 0.9593
6.7583 -7.3070 -2.9798 0.9593
7.9468 -5.9929 -2.9798 0.9593
8.4486 -5.2619 -2.9798 0.9593
8.8835 -4.4890 -2.9798 0.9593
9.2477 -3.6805 -2.9798 0.9593
9.7538 -1.9825 -2.9798 0.9593
9.8915 -1.1065 -2.9798 0.9593
9.9508 -0.2217 -2.9798 0.9593
9.9310 0.6648 -2.9798 0.9593
9.8324 1.5461 -2.9798 0.9593
9.6558 2.4151 -2.9798 0.9593
8.4265 4.7407 -2.8946 0.9604
7.7862 5.3449 -2.8274 0.9613
6.0974 7.2121 -2.8274 0.9613
5.4313 7.7262 -2.8274 0.9613
4.7221 8.1789 -2.8274 0.9613
2.3935 9.1359 -2.8274 0.9613
-0.1052 9.4436 -2.8274 0.9613
-1.7779 9.2753 -2.8274 0.9613
-2.5964 9.0803 -2.8274 0.9613
-3.3943 8.8131 -2.8274 0.9613
-4.9031 8.0717 -2.8274 0.9613
-7.4118 5.8530 -2.8274 0.9613
-7.9033 5.1701 -2.8274 0.9613
-8.7812 4.6858 -2.9798 0.9593
-9.1634 3.8856 -2.9798 0.9593
-9.4729 3.0547 -2.9798 0.9593
-9.9434 0.4434 -2.9798 0.9593
-9.8644 -1.3266 -2.9798 0.9593
-9.4729 -3.0546 -2.9798 0.9593
-9.1635 -3.8856 -2.9798 0.9593
-8.3293 -5.4488 -2.9798 0.9593
-5.1674 -8.5067 -2.9798 0.9593
-4.3898 -8.9329 -2.9798 0.9593
-3.5773 -9.2882 -2.9798 0.9593
0.7754 -9.9230 -2.9798 0.9593
1.6555 -9.8146 -2.9798 0.9593
5.7241 -8.1426 -2.9798 0.9593
6.4261 -7.6008 -2.9798 0.9593
7.0771 -6.9987 -2.9798 0.9593
9.4025 -3.2649 -2.9798 0.9593
9.9310 -0.6648 -2.9798 0.9593
9.9508 0.2218 -2.9798 0.9593
9.8915 1.1065 -2.9798 0.9593
9.5386 2.8428 -2.9798 0.9593
9.2477 3.6805 -2.9798 0.9593
8.8834 4.4890 -2.9798 0.9593
6.4127 6.9333 -2.8274 0.9613
5.0818 7.9605 -2.8274 0.9613
2.7981 9.0202 -2.8274 0.9613
1.9841 9.2334 -2.8274 0.9613
1.1544 9.3734 -2.8274 0.9613
-0.5258 9.4295 -2.8274 0.9613
-1.3630 9.3454 -2.8274 0.9613
-2.9983 8.9556 -2.8274 0.9613
-5.2578 7.8452 -2.8274 0.9613
-5.9352 7.3461 -2.8274 0.9613
-6.5655 6.7887 -2.8274 0.9613
-7.6652 5.5171 -2.8274 0.9613
-8.9813 4.2900 -2.9798 0.9593
-9.3274 3.4736 -2.9798 0.9593
-9.5996 2.6296 -2.9798 0.9593
-9.9137 0.8859 -2.9798 0.9593
-9.3455 -0.8351 -2.9798 0.9614
-9.2341 -1.6636 -2.9798 0.9614
-9.0493 -2.4788 -2.9798 0.9614
-8.7928 -3.2745 -2.9798 0.9614
-8.0729 -4.7816 -2.9798 0.9614
-7.6153 -5.4811 -2.9798 0.9614
-7.0972 -6.1372 -2.9798 0.9614
-6.5228 -6.7445 -2.9798 0.9614
-5.8966 -7.2983 -2.9798 0.9614
-2.1751 -9.1271 -2.9798 0.9614
-0.5224 -9.3681 -2.9798 0.9614
1.1469 -9.3123 -2.9798 0.9614
1.9712 -9.1733 -2.9798 0.9614
6.3709 -6.8882 -2.9798 0.9614
6.9587 -6.2937 -2.9798 0.9614
7.4913 -5.6494 -2.9798 0.9614
8.7177 -3.4696 -2.9798 0.9614
8.9919 -2.6798 -2.9798 0.9614
9.1947 -1.8689 -2.9798 0.9614
9.3245 -1.0431 -2.9798 0.9614
9.3804 -0.2090 -2.9798 0.9614
9.3618 0.6267 -2.9798 0.9614
9.2688 1.4575 -2.9798 0.9614
9.1023 2.2767 -2.9798 0.9614
8.8636 3.0778 -2.9798 0.9614
8.5544 3.8545 -2.9798 0.9614
8.1774 4.6005 -2.9798 0.9614
7.3399 5.0385 -2.8274 0.9633
6.8623 5.6718 -2.8274 0.9633
5.7479 6.7987 -2.8274 0.9633
3.0139 8.3772 -2.8274 0.9633
-0.0992 8.9023 -2.8274 0.9633
-0.8911 8.8581 -2.8274 0.9633
-3.1997 8.3079 -2.8274 0.9633
-3.4572 7.0351 -2.4895 0.9676
-5.2810 7.1674 -2.8274 0.9633
-7.4503 4.8738 -2.8274 0.9633
-8.2779 4.4172 -2.9798 0.9614
-8.6382 3.6629 -2.9798 0.9614
-8.9299 2.8796 -2.9798 0.9614
-9.2990 -1.2506 -2.9798 0.9614
-8.9299 -2.8795 -2.9798 0.9614
-7.8519 -5.1364 -2.9798 0.9614
-6.8168 -6.4472 -2.9798 0.9614
-6.2159 -7.0284 -2.9798 0.9614
-4.1381 -8.4209 -2.9798 0.9614
-2.5795 -9.0212 -2.9798 0.9614
-1.7664 -9.2149 -2.9798 0.9614
-0.1045 -9.3821 -2.9798 0.9614
1.5606 -9.2520 -2.9798 0.9614
3.1763 -8.8287 -2.9798 0.9614
3.9495 -8.5110 -2.9798 0.9614
5.3960 -7.6758 -2.9798 0.9614
6.0577 -7.1651 -2.9798 0.9614
9.3618 -0.6267 -2.9798 0.9614
9.3804 0.2091 -2.9798 0.9614
9.3245 1.0431 -2.9798 0.9614
8.9919 2.6799 -2.9798 0.9614
7.1081 5.3605 -2.8274 0.9633
5.4394 7.0480 -2.8274 0.9633
4.1035 7.9007 -2.8274 0.9633
3.3841 8.2346 -2.8274 0.9633
1.8704 8.7042 -2.8274 0.9633
1.0883 8.8361 -2.8274 0.9633
0.2975 8.8979 -2.8274 0.9633
-2.0639 8.6603 -2.8274 0.9633
-3.5667 8.1572 -2.8274 0.9633
-3.8211 6.9727 -2.5251 0.9672
-4.9565 7.3955 -2.8274 0.9633
-6.1892 6.3996 -2.8274 0.9633
-6.7342 5.8233 -2.8274 0.9633
-7.2258 5.2008 -2.8274 0.9633
-8.4664 4.0441 -2.9798 0.9614
-9.3455 0.8352 -2.9798 0.9614
-8.8689 0.0000 -2.9798 0.9633
-8.0028 -3.8226 -2.9798 0.9633
-7.6308 -4.5198 -2.9798 0.9633
-6.7086 -5.8011 -2.9798 0.9633
-5.5737 -6.8987 -2.9798 0.9633
-4.9376 -7.3674 -2.9798 0.9633
-4.2622 -7.7776 -2.9798 0.9633
-2.8157 -8.4101 -2.9798 0.9633
-2.0560 -8.6273 -2.9798 0.9633
-1.2800 -8.7761 -2.9798 0.9633
0.2964 -8.8640 -2.9798 0.9633
1.0841 -8.8024 -2.9798 0.9633
1.8633 -8.6710 -2.9798 0.9633
2.6277 -8.4707 -2.9798 0.9633
4.0879 -7.8706 -2.9798 0.9633
4.7722 -7.4755 -2.9798 0.9633
5.4186 -7.0211 -2.9798 0.9633
7.5283 -4.6886 -2.9798 0.9633
7.9157 -4.0000 -2.9798 0.9633
8.2403 -3.2796 -2.9798 0.9633
8.6912 -1.7665 -2.9798 0.9633
8.8140 -0.9860 -2.9798 0.9633
8.8491 0.5924 -2.9798 0.9633
8.7613 1.3777 -2.9798 0.9633
8.6039 2.1520 -2.9798 0.9633
7.7297 4.3486 -2.9798 0.9633
5.9836 5.9173 -2.8274 0.9651
4.8396 6.8845 -2.8274 0.9651
4.2077 7.2879 -2.8274 0.9651
2.1327 8.1406 -2.8274 0.9651
-0.0937 8.4148 -2.8274 0.9651
-0.8423 8.3731 -2.8274 0.9651
-2.3136 8.0911 -2.8274 0.9651
-3.0245 7.8530 -2.8274 0.9651
-5.5750 6.3038 -2.8274 0.9651
-6.1139 5.7825 -2.8274 0.9651
-8.4409 2.7218 -2.9798 0.9633
-8.6497 1.9598 -2.9798 0.9633
-8.7898 1.1821 -2.9798 0.9633
-8.7898 -1.1821 -2.9798 0.9633
-8.6497 -1.9598 -2.9798 0.9633
-7.8246 -4.1753 -2.9798 0.9633
-6.9603 -5.4965 -2.9798 0.9633
-5.8755 -6.6435 -2.9798 0.9633
-4.6045 -7.5800 -2.9798 0.9633
-3.9115 -7.9597 -2.9798 0.9633
-2.4383 -8.5272 -2.9798 0.9633
-1.6696 -8.7104 -2.9798 0.9633
-0.8877 -8.8244 -2.9798 0.9633
-0.0988 -8.8684 -2.9798 0.9633
0.6909 -8.8420 -2.9798 0.9633
1.4752 -8.7454 -2.9798 0.9633
3.7332 -8.0449 -2.9798 0.9633
5.7260 -6.7728 -2.9798 0.9633
6.3061 -6.2362 -2.9798 0.9633
7.7296 -4.3486 -2.9798 0.9633
8.3782 -2.9092 -2.9798 0.9633
8.7613 -1.3776 -2.9798 0.9633
8.8491 -0.5923 -2.9798 0.9633
8.8667 0.1976 -2.9798 0.9633
8.8140 0.9860 -2.9798 0.9633
8.4995 2.5331 -2.9798 0.9633
8.2403 3.2796 -2.9798 0.9633
7.9157 4.0000 -2.9798 0.9633
7.5283 4.6887 -2.9798 0.9633
5.1415 6.6621 -2.8274 0.9651
3.8788 7.4681 -2.8274 0.9651
3.1987 7.7837 -2.8274 0.9651
2.4933 8.0375 -2.8274 0.9651
1.7680 8.2275 -2.8274 0.9651
1.0287 8.3522 -2.8274 0.9651
-0.4685 8.4023 -2.8274 0.9651
-2.6717 7.9800 -2.8274 0.9651
-4.6851 6.9906 -2.8274 0.9651
-5.2887 6.5459 -2.8274 0.9651
-5.8503 6.0492 -2.8274 0.9651
-8.3113 3.0952 -2.9798 0.9633
-8.5538 2.3431 -2.9798 0.9633
-8.7284 1.5725 -2.9798 0.9633
-8.8337 0.7894 -2.9798 0.9633
-8.4036 0.0000 -2.9798 0.9650
-8.2705 -1.4900 -2.9798 0.9650
-6.3566 -5.4967 -2.9798 0.9650
-5.2813 -6.5367 -2.9798 0.9650
-4.0386 -7.3695 -2.9798 0.9650
-3.3667 -7.6997 -2.9798 0.9650
-2.6680 -7.9688 -2.9798 0.9650
-1.2128 -8.3156 -2.9798 0.9650
-0.4679 -8.3906 -2.9798 0.9650
0.2808 -8.3989 -2.9798 0.9650
1.0272 -8.3406 -2.9798 0.9650
3.1943 -7.7728 -2.9798 0.9650
3.8734 -7.4577 -2.9798 0.9650
5.1343 -6.6527 -2.9798 0.9650
5.7061 -6.1694 -2.9798 0.9650
6.2326 -5.6370 -2.9798 0.9650
6.7095 -5.0599 -2.9798 0.9650
7.1333 -4.4426 -2.9798 0.9650
7.8080 -3.1075 -2.9798 0.9650
8.2352 -1.6739 -2.9798 0.9650
8.3515 -0.9342 -2.9798 0.9650
8.3848 0.5613 -2.9798 0.9650
8.1525 2.0391 -2.9798 0.9650
7.3241 4.1205 -2.9798 0.9650
6.8927 4.7315 -2.9645 0.9651
6.1462 5.0800 -2.8274 0.9667
5.1481 6.0892 -2.8274 0.9667
3.9869 6.9055 -2.8274 0.9667
3.3565 7.2330 -2.8274 0.9667
2.0208 7.7135 -2.8274 0.9667
1.3263 7.8627 -2.8274 0.9667
-1.5011 7.8313 -2.8274 0.9667
-2.1922 7.6666 -2.8274 0.9667
-5.7932 5.4791 -2.8274 0.9667
-6.2681 4.9499 -2.8321 0.9667
-7.0325 4.6005 -2.9798 0.9650
-8.3286 1.1201 -2.9798 0.9650
-8.3953 0.3744 -2.9798 0.9650
-8.3953 -0.3744 -2.9798 0.9650
-8.3286 -1.1201 -2.9798 0.9650
-7.9981 -2.5790 -2.9798 0.9650
-7.7368 -3.2807 -2.9798 0.9650
-6.5952 -5.2081 -2.9798 0.9650
-6.1054 -5.7745 -2.9798 0.9650
-5.5672 -6.2950 -2.9798 0.9650
-4.9849 -6.7655 -2.9798 0.9650
-4.3629 -7.1823 -2.9798 0.9650
-3.7063 -7.5421 -2.9798 0.9650
-0.8412 -8.3614 -2.9798 0.9650
2.1298 -8.1292 -2.9798 0.9650
2.8449 -7.9074 -2.9798 0.9650
3.5374 -7.6228 -2.9798 0.9650
4.2018 -7.2777 -2.9798 0.9650
5.4256 -6.4174 -2.9798 0.9650
6.4775 -5.3538 -2.9798 0.9650
7.3241 -4.1204 -2.9798 0.9650
8.3515 0.9343 -2.9798 0.9650
8.0535 2.4002 -2.9798 0.9650
7.5004 3.7901 -2.9798 0.9650
5.9138 5.3487 -2.8274 0.9667
4.8718 6.3125 -2.8274 0.9667
0.9747 7.9140 -2.8274 0.9667
-1.8485 7.7566 -2.8274 0.9667
-2.5315 7.5613 -2.8274 0.9667
-3.8005 6.9350 -2.8041 0.9670
-5.0112 6.2024 -2.8274 0.9667
-5.5433 5.7318 -2.8274 0.9667
-8.1050 2.2202 -2.9798 0.9650
-8.3703 0.7480 -2.9798 0.9650
-7.9483 -0.7103 -2.9798 0.9665
-7.8535 -1.4149 -2.9798 0.9665
-7.6964 -2.1082 -2.9798 0.9665
-7.4782 -2.7849 -2.9798 0.9665
-6.8660 -4.0667 -2.9798 0.9665
-6.0361 -5.2196 -2.9798 0.9665
-4.4427 -6.6289 -2.9798 0.9665
-3.8350 -6.9980 -2.9798 0.9665
-2.5335 -7.5671 -2.9798 0.9665
-1.1517 -7.8964 -2.9798 0.9665
-0.4443 -7.9676 -2.9798 0.9665
2.3643 -7.6217 -2.9798 0.9665
3.0333 -7.3810 -2.9798 0.9665
3.6782 -7.0817 -2.9798 0.9665
5.9183 -5.3528 -2.9798 0.9665
6.7737 -4.2187 -2.9798 0.9665
7.8200 -1.5895 -2.9798 0.9665
7.9621 0.5330 -2.9798 0.9665
7.5384 2.6176 -2.9798 0.9665
6.9549 3.9128 -2.9798 0.9665
6.5790 4.5162 -2.9798 0.9665
4.8886 5.7823 -2.8274 0.9682
4.3545 6.1944 -2.8274 0.9682
3.1872 6.8683 -2.8274 0.9682
1.9190 7.3246 -2.8274 0.9682
0.5899 7.5488 -2.8274 0.9682
-0.7579 7.5338 -2.8274 0.9682
-2.7214 7.0659 -2.8274 0.9682
-3.3395 6.7956 -2.8274 0.9682
-3.9311 6.4714 -2.8274 0.9682
-4.4915 6.0959 -2.8274 0.9682
-5.0162 5.6719 -2.8274 0.9682
-7.0403 3.7568 -2.9798 0.9665
-7.9088 -1.0636 -2.9798 0.9665
-7.3467 -3.1153 -2.9798 0.9665
-5.2866 -5.9776 -2.9798 0.9665
-4.1430 -6.8202 -2.9798 0.9665
-3.5195 -7.1619 -2.9798 0.9665
-1.5023 -7.8372 -2.9798 0.9665
1.3273 -7.8688 -2.9798 0.9665
2.0224 -7.7194 -2.9798 0.9665
4.5892 -6.5283 -2.9798 0.9665
5.1521 -6.0939 -2.9798 0.9665
6.1509 -5.0839 -2.9798 0.9665
6.9549 -3.9127 -2.9798 0.9665
7.2755 -3.2782 -2.9798 0.9665
7.5384 -2.6176 -2.9798 0.9665
7.8831 -1.2396 -2.9798 0.9665
7.9305 0.8872 -2.9798 0.9665
7.4143 2.9508 -2.9798 0.9665
6.7737 4.2187 -2.9798 0.9665
5.6157 5.0791 -2.8274 0.9682
5.1413 5.5587 -2.8274 0.9682
4.6261 5.9943 -2.8274 0.9682
3.4900 6.7195 -2.8274 0.9682
1.5908 7.4029 -2.8274 0.9682
-1.0928 7.4926 -2.8274 0.9682
-1.7553 7.3656 -2.8274 0.9682
-3.0334 6.9377 -2.8274 0.9682
-3.6389 6.6401 -2.8274 0.9682
-4.7585 5.8897 -2.8274 0.9682
-5.2639 5.4428 -2.8274 0.9682
-6.4768 4.6617 -2.9798 0.9665
-7.6964 2.1083 -2.9798 0.9665
-7.9483 0.7103 -2.9798 0.9665
-7.5924 0.0000 -2.9798 0.9679
-7.5623 -0.6758 -2.9798 0.9679
-7.3227 -2.0059 -2.9798 0.9679
-6.8510 -3.2724 -2.9798 0.9679
-6.5325 -3.8692 -2.9798 0.9679
-6.1622 -4.4353 -2.9798 0.9679
-4.7715 -5.9057 -2.9798 0.9679
-4.2269 -6.3070 -2.9798 0.9679
-3.0417 -6.9565 -2.9798 0.9679
0.2537 -7.5882 -2.9798 0.9679
0.9281 -7.5355 -2.9798 0.9679
1.5951 -7.4229 -2.9798 0.9679
2.2494 -7.2515 -2.9798 0.9679
2.8859 -7.0225 -2.9798 0.9679
3.4995 -6.7378 -2.9798 0.9679
5.1553 -5.5738 -2.9798 0.9679
5.6309 -5.0929 -2.9798 0.9679
6.4447 -4.0138 -2.9798 0.9679
7.4403 -1.5123 -2.9798 0.9679
7.5453 -0.8440 -2.9798 0.9679
7.5905 -0.1691 -2.9798 0.9679
7.5755 0.5071 -2.9798 0.9679
7.5003 1.1794 -2.9798 0.9679
6.6171 3.7227 -2.9798 0.9679
5.7377 4.7424 -2.9215 0.9685
5.1224 5.0656 -2.8274 0.9695
3.6021 6.2389 -2.8274 0.9695
2.4388 6.7788 -2.8274 0.9695
1.8258 6.9689 -2.8274 0.9695
0.5612 7.1822 -2.8274 0.9695
-0.0803 7.2037 -2.8274 0.9695
-0.7211 7.1679 -2.8274 0.9695
-1.3562 7.0753 -2.8274 0.9695
-3.1773 6.4656 -2.8274 0.9695
-3.7402 6.1572 -2.8274 0.9695
-5.2340 4.9503 -2.8274 0.9695
-6.3537 4.1564 -2.9798 0.9679
-6.9900 2.9640 -2.9798 0.9679
-7.2260 2.3301 -2.9798 0.9679
-7.4047 1.6777 -2.9798 0.9679
-7.2260 -2.3301 -2.9798 0.9679
-6.9900 -2.9640 -2.9798 0.9679
-5.9585 -4.7054 -2.9798 0.9679
-5.0298 -5.6873 -2.9798 0.9679
-4.5037 -6.1124 -2.9798 0.9679
-3.9418 -6.4890 -2.9798 0.9679
-2.0873 -7.2998 -2.9798 0.9679
-0.7600 -7.5543 -2.9798 0.9679
1.2628 -7.4867 -2.9798 0.9679
1.9242 -7.3446 -2.9798 0.9679
3.1959 -6.8870 -2.9798 0.9679
3.7962 -6.5752 -2.9798 0.9679
4.3664 -6.2112 -2.9798 0.9679
4.9019 -5.7979 -2.9798 0.9679
5.3985 -5.3387 -2.9798 0.9679
5.8522 -4.8370 -2.9798 0.9679
6.6171 -3.7227 -2.9798 0.9679
7.3655 -1.8422 -2.9798 0.9679
7.5003 -1.1793 -2.9798 0.9679
7.5755 -0.5071 -2.9798 0.9679
7.0543 2.8075 -2.9798 0.9679
6.4447 4.0138 -2.9798 0.9679
6.0619 4.5715 -2.9798 0.9679
4.4015 5.7032 -2.8274 0.9695
3.8764 6.0723 -2.8274 0.9695
2.1344 6.8806 -2.8274 0.9695
0.8806 7.1501 -2.8274 0.9695
0.2407 7.2001 -2.8274 0.9695
-0.4011 7.1929 -2.8274 0.9695
-1.6701 7.0079 -2.8274 0.9695
-2.2872 6.8314 -2.8274 0.9695
-2.8861 6.6007 -2.8274 0.9695
-5.0082 5.1785 -2.8274 0.9695
-6.1622 4.4353 -2.9798 0.9679
-6.5325 3.8692 -2.9798 0.9679
-6.8510 3.2725 -2.9798 0.9679
-7.1151 2.6497 -2.9798 0.9679
-7.3227 2.0059 -2.9798 0.9679
-6.7814 -2.5254 -2.9798 0.9692
-5.4737 -4.7333 -2.9798 0.9692
-5.0307 -5.2017 -2.9798 0.9692
-4.5477 -5.6288 -2.9798 0.9692
-3.4777 -6.3459 -2.9798 0.9692
-2.2974 -6.8620 -2.9798 0.9692
-1.6775 -7.0392 -2.9798 0.9692
0.2418 -7.2323 -2.9798 0.9692
0.8846 -7.1821 -2.9798 0.9692
1.5203 -7.0748 -2.9798 0.9692
3.3354 -6.4218 -2.9798 0.9692
3.8938 -6.0995 -2.9798 0.9692
4.9135 -5.3125 -2.9798 0.9692
5.3669 -4.8540 -2.9798 0.9692
6.1425 -3.8256 -2.9798 0.9692
6.7235 -2.6759 -2.9798 0.9692
6.9349 -2.0668 -2.9798 0.9692
7.2346 -0.1612 -2.9798 0.9692
7.2202 0.4834 -2.9798 0.9692
7.1485 1.1241 -2.9798 0.9692
7.0202 1.7559 -2.9798 0.9692
6.8360 2.3737 -2.9798 0.9692
6.5976 2.9727 -2.9798 0.9692
5.5778 4.6102 -2.9798 0.9692
4.8822 4.8281 -2.8274 0.9707
4.4331 5.2435 -2.8274 0.9707
3.9488 5.6172 -2.8274 0.9707
3.4331 5.9464 -2.8274 0.9707
0.5349 6.8454 -2.8274 0.9707
-0.0765 6.8659 -2.8274 0.9707
-0.6873 6.8318 -2.8274 0.9707
-1.2926 6.7435 -2.8274 0.9707
-3.0283 6.1624 -2.8274 0.9707
-3.5648 5.8684 -2.8274 0.9707
-4.0729 5.5279 -2.8274 0.9707
-4.5488 5.1434 -2.8274 0.9707
-5.0538 4.7799 -2.8644 0.9704
-5.6791 4.4847 -2.9798 0.9692
-6.0557 3.9615 -2.9798 0.9692
-6.3843 3.4068 -2.9798 0.9692
-6.6622 2.8250 -2.9798 0.9692
-6.8872 2.2208 -2.9798 0.9692
-7.0575 1.5990 -2.9798 0.9692
-7.1718 0.9646 -2.9798 0.9692
-6.6622 -2.8250 -2.9798 0.9692
-6.0557 -3.9614 -2.9798 0.9692
-5.2574 -4.9724 -2.9798 0.9692
-4.7940 -5.4206 -2.9798 0.9692
-3.7569 -6.1847 -2.9798 0.9692
-3.1915 -6.4945 -2.9798 0.9692
-2.6008 -6.7528 -2.9798 0.9692
-1.9895 -6.9575 -2.9798 0.9692
-1.3623 -7.1070 -2.9798 0.9692
-0.7243 -7.2000 -2.9798 0.9692
-0.0806 -7.2359 -2.9798 0.9692
1.2036 -7.1356 -2.9798 0.9692
1.8340 -7.0001 -2.9798 0.9692
2.4497 -6.8091 -2.9798 0.9692
3.0460 -6.5640 -2.9798 0.9692
3.6182 -6.2669 -2.9798 0.9692
4.1616 -5.9200 -2.9798 0.9692
4.6720 -5.5261 -2.9798 0.9692
5.5778 -4.6102 -2.9798 0.9692
6.3068 -3.5481 -2.9798 0.9692
6.8360 -2.3737 -2.9798 0.9692
7.1485 -1.1240 -2.9798 0.9692
7.2202 -0.4833 -2.9798 0.9692
7.2346 0.1612 -2.9798 0.9692
7.0914 1.4414 -2.9798 0.9692
6.7235 2.6759 -2.9798 0.9692
2.0343 6.5580 -2.8274 0.9707
1.4425 6.7130 -2.8274 0.9707
0.8393 6.8148 -2.8274 0.9707
-0.3823 6.8556 -2.8274 0.9707
-0.9909 6.7944 -2.8274 0.9707
-1.5917 6.6793 -2.8274 0.9707
-2.1799 6.5111 -2.8274 0.9707
-2.7508 6.2912 -2.8274 0.9707
-3.2998 6.0214 -2.8274 0.9707
-3.8226 5.7038 -2.8274 0.9707
-5.4737 4.7333 -2.9798 0.9692
-6.2262 3.6878 -2.9798 0.9692
-6.5297 3.1190 -2.9798 0.9692
-6.7814 2.5254 -2.9798 0.9692
-6.7985 -1.2248 -2.9798 0.9704
-6.4736 -2.4108 -2.9798 0.9704
-5.9436 -3.5204 -2.9798 0.9704
-4.8024 -4.9656 -2.9798 0.9704
-2.7675 -6.3294 -2.9798 0.9704
-1.6014 -6.7198 -2.9798 0.9704
-0.9970 -6.8356 -2.9798 0.9704
0.2308 -6.9041 -2.9798 0.9704
0.8444 -6.8561 -2.9798 0.9704
1.4513 -6.7538 -2.9798 0.9704
2.0467 -6.5978 -2.9798 0.9704
2.6258 -6.3895 -2.9798 0.9704
3.1841 -6.1304 -2.9798 0.9704
4.6905 -5.0714 -2.9798 0.9704
5.8637 -3.6519 -2.9798 0.9704
6.4183 -2.5544 -2.9798 0.9704
6.7695 -1.3760 -2.9798 0.9704
6.8651 -0.7680 -2.9798 0.9704
6.9062 -0.1539 -2.9798 0.9704
6.8925 0.4614 -2.9798 0.9704
5.3246 4.4009 -2.9798 0.9704
3.7696 5.3623 -2.8274 0.9718
1.0902 6.4634 -2.8274 0.9718
-0.0730 6.5543 -2.8274 0.9718
-2.3558 6.1167 -2.8274 0.9718
-2.8909 5.8828 -2.8274 0.9718
-3.4030 5.6021 -2.8274 0.9718
-5.0188 4.7468 -2.9798 0.9704
-6.0945 3.2521 -2.9798 0.9704
-6.7372 1.5265 -2.9798 0.9704
-6.7372 -1.5264 -2.9798 0.9704
-6.5746 -2.1200 -2.9798 0.9704
-6.0945 -3.2521 -2.9798 0.9704
-5.7809 -3.7817 -2.9798 0.9704
-5.0188 -4.7467 -2.9798 0.9704
-4.5764 -5.1746 -2.9798 0.9704
-4.0977 -5.5614 -2.9798 0.9704
-3.5864 -5.9040 -2.9798 0.9704
-2.4828 -6.4463 -2.9798 0.9704
-1.8992 -6.6418 -2.9798 0.9704
-0.6915 -6.8733 -2.9798 0.9704
-0.0770 -6.9075 -2.9798 0.9704
1.1490 -6.8117 -2.9798 0.9704
1.7507 -6.6824 -2.9798 0.9704
3.9727 -5.6513 -2.9798 0.9704
4.9118 -4.8574 -2.9798 0.9704
6.2982 -2.8378 -2.9798 0.9704
6.5257 -2.2660 -2.9798 0.9704
6.8925 -0.4614 -2.9798 0.9704
6.9062 0.1539 -2.9798 0.9704
6.8651 0.7680 -2.9798 0.9704
6.7695 1.3760 -2.9798 0.9704
5.5154 4.1594 -2.9798 0.9704
4.0047 5.1890 -2.8274 0.9718
3.0212 5.8169 -2.8274 0.9718
1.9420 6.2604 -2.8274 0.9718
0.2190 6.5510 -2.8274 0.9718
-0.3649 6.5445 -2.8274 0.9718
-1.5195 6.3761 -2.8274 0.9718
-3.1500 5.7481 -2.8274 0.9718
-4.1193 5.0985 -2.8274 0.9718
-4.6212 4.7783 -2.8674 0.9715
-6.4736 2.4108 -2.9798 0.9704
-6.7985 1.2248 -2.9798 0.9704
-6.8805 0.6149 -2.9798 0.9704
-6.6039 0.0000 -2.9798 0.9714
-6.4993 -1.1709 -2.9798 0.9714
-6.3693 -1.7447 -2.9798 0.9714
-5.9590 -2.8464 -2.9798 0.9714
-5.6820 -3.3655 -2.9798 0.9714
-4.9953 -4.3196 -2.9798 0.9714
-4.5910 -4.7471 -2.9798 0.9714
-4.1503 -5.1368 -2.9798 0.9714
-3.1737 -5.7913 -2.9798 0.9714
-1.5309 -6.4240 -2.9798 0.9714
-0.9531 -6.5348 -2.9798 0.9714
-0.3677 -6.5937 -2.9798 0.9714
1.3874 -6.4565 -2.9798 0.9714
2.5102 -6.1082 -2.9798 0.9714
3.0439 -5.8606 -2.9798 0.9714
3.5535 -5.5664 -2.9798 0.9714
4.0348 -5.2280 -2.9798 0.9714
4.4841 -4.8481 -2.9798 0.9714
4.8978 -4.4298 -2.9798 0.9714
5.2727 -3.9763 -2.9798 0.9714
5.6056 -3.4912 -2.9798 0.9714
6.1358 -2.4420 -2.9798 0.9714
6.4716 -1.3154 -2.9798 0.9714
6.5630 -0.7342 -2.9798 0.9714
6.0210 2.7129 -2.9798 0.9714
5.4445 3.7375 -2.9798 0.9714
5.0903 4.2073 -2.9798 0.9714
3.1331 5.4267 -2.8274 0.9729
2.1213 5.8962 -2.8274 0.9729
1.0422 6.1789 -2.8274 0.9729
0.4882 6.2471 -2.8274 0.9729
-2.2521 5.8475 -2.8274 0.9729
-2.7636 5.6238 -2.8274 0.9729
-4.7979 4.5379 -2.9798 0.9714
-5.5265 3.6153 -2.9798 0.9714
-6.0799 2.5781 -2.9798 0.9714
-6.4407 1.4593 -2.9798 0.9714
-6.5450 0.8802 -2.9798 0.9714
-6.5974 0.2942 -2.9798 0.9714
-6.5974 -0.2942 -2.9798 0.9714
-6.4407 -1.4592 -2.9798 0.9714
-6.2852 -2.0267 -2.9798 0.9714
-6.0799 -2.5781 -2.9798 0.9714
-5.8263 -3.1090 -2.9798 0.9714
-5.1828 -4.0928 -2.9798 0.9714
-4.3750 -4.9469 -2.9798 0.9714
-3.9173 -5.3166 -2.9798 0.9714
-3.4286 -5.6442 -2.9798 0.9714
-2.3735 -6.1627 -2.9798 0.9714
-1.8156 -6.3494 -2.9798 0.9714
-0.6610 -6.5708 -2.9798 0.9714
1.0984 -6.5119 -2.9798 0.9714
1.6737 -6.3883 -2.9798 0.9714
2.2356 -6.2140 -2.9798 0.9714
2.7798 -5.9903 -2.9798 0.9714
3.3020 -5.7191 -2.9798 0.9714
3.7979 -5.4026 -2.9798 0.9714
4.6956 -4.6436 -2.9798 0.9714
5.4445 -3.7375 -2.9798 0.9714
5.7556 -3.2380 -2.9798 0.9714
6.0210 -2.7129 -2.9798 0.9714
6.2385 -2.1662 -2.9798 0.9714
6.5892 -0.4411 -2.9798 0.9714
6.6023 0.1471 -2.9798 0.9714
6.4716 1.3154 -2.9798 0.9714
6.1358 2.4420 -2.9798 0.9714
5.8941 2.9784 -2.9798 0.9714
5.6056 3.4912 -2.9798 0.9714
5.2727 3.9763 -2.9798 0.9714
4.8978 4.4298 -2.9798 0.9714
4.3901 4.7465 -2.9173 0.9720
3.3717 5.2817 -2.8274 0.9729
2.3818 5.7958 -2.8274 0.9729
1.3165 6.1263 -2.8274 0.9729
0.7660 6.2192 -2.8274 0.9729
0.2094 6.2627 -2.8274 0.9729
-0.3489 6.2565 -2.8274 0.9729
-1.4526 6.0955 -2.8274 0.9729
-1.9894 5.9420 -2.8274 0.9729
-3.4886 5.2053 -2.8274 0.9729
-3.9380 4.8741 -2.8274 0.9729
-5.6820 3.3655 -2.9798 0.9714
-5.9590 2.8464 -2.9798 0.9714
-6.4993 1.1709 -2.9798 0.9714
-6.3215 0.0000 -2.9798 0.9724
-6.2213 -1.1208 -2.9798 0.9724
-5.9240 -2.2061 -2.9798 0.9724
-5.1307 -3.6929 -2.9798 0.9724
-4.7817 -4.1348 -2.9798 0.9724
-4.3947 -4.5440 -2.9798 0.9724
-3.5194 -5.2512 -2.9798 0.9724
-1.4655 -6.1493 -2.9798 0.9724
-0.9123 -6.2553 -2.9798 0.9724
-0.3519 -6.3117 -2.9798 0.9724
1.8729 -6.0377 -2.9798 0.9724
2.4029 -5.8470 -2.9798 0.9724
2.9137 -5.6099 -2.9798 0.9724
3.4015 -5.3283 -2.9798 0.9724
3.8622 -5.0045 -2.9798 0.9724
4.2923 -4.6408 -2.9798 0.9724
6.1948 -1.2592 -2.9798 0.9724
6.2823 -0.7028 -2.9798 0.9724
6.3199 -0.1408 -2.9798 0.9724
6.2448 0.9820 -2.9798 0.9724
5.7635 2.5969 -2.9798 0.9724
5.2117 3.5777 -2.9798 0.9724
4.4948 4.4450 -2.9798 0.9724
4.0119 4.7453 -2.9291 0.9729
2.9991 5.1946 -2.8274 0.9738
2.5248 5.4409 -2.8274 0.9738
2.0306 5.6440 -2.8274 0.9738
1.5202 5.8024 -2.8274 0.9738
-0.0668 5.9978 -2.8274 0.9738
-1.1292 5.8909 -2.8274 0.9738
-1.6490 5.7671 -2.8274 0.9738
-2.6454 5.3833 -2.8274 0.9738
-3.1141 5.1265 -2.8274 0.9738
-5.2901 3.4607 -2.9798 0.9724
-5.5771 2.9761 -2.9798 0.9724
-5.8199 2.4679 -2.9798 0.9724
-6.0164 1.9401 -2.9798 0.9724
-6.2651 0.8426 -2.9798 0.9724
-6.3152 0.2816 -2.9798 0.9724
-6.1652 -1.3969 -2.9798 0.9724
-6.0164 -1.9401 -2.9798 0.9724
-5.8199 -2.4678 -2.9798 0.9724
-5.5771 -2.9761 -2.9798 0.9724
-5.2901 -3.4606 -2.9798 0.9724
-4.9611 -3.9177 -2.9798 0.9724
-4.5927 -4.3438 -2.9798 0.9724
-4.1879 -4.7353 -2.9798 0.9724
-3.7498 -5.0892 -2.9798 0.9724
-2.7880 -5.6735 -2.9798 0.9724
-2.2720 -5.8991 -2.9798 0.9724
-1.1901 -6.2085 -2.9798 0.9724
-0.0704 -6.3211 -2.9798 0.9724
0.4925 -6.3022 -2.9798 0.9724
1.0515 -6.2334 -2.9798 0.9724
1.6021 -6.1151 -2.9798 0.9724
2.6609 -5.7342 -2.9798 0.9724
3.1607 -5.4746 -2.9798 0.9724
4.4948 -4.4450 -2.9798 0.9724
5.9717 -2.0736 -2.9798 0.9724
6.1326 -1.5338 -2.9798 0.9724
6.2448 -0.9820 -2.9798 0.9724
6.3074 -0.4222 -2.9798 0.9724
6.2823 0.7028 -2.9798 0.9724
6.0582 1.8055 -2.9798 0.9724
5.6421 2.8510 -2.9798 0.9724
5.0472 3.8062 -2.9798 0.9724
4.2923 4.6408 -2.9798 0.9724
2.7647 5.3230 -2.8274 0.9738
0.7332 5.9532 -2.8274 0.9738
-0.8657 5.9354 -2.8274 0.9738
-1.3905 5.8348 -2.8274 0.9738
-1.9043 5.6879 -2.8274 0.9738
-2.8826 5.2601 -2.8274 0.9738
-3.3394 4.9827 -2.8274 0.9738
-5.1307 3.6929 -2.9798 0.9724
-6.0583 0.0000 -2.9798 0.9734
-6.0343 -0.5392 -2.9798 0.9734
-5.9623 -1.0741 -2.9798 0.9734
-5.8430 -1.6005 -2.9798 0.9734
-5.4667 -2.6112 -2.9798 0.9734
-4.5826 -3.9627 -2.9798 0.9734
-3.8074 -4.7124 -2.9798 0.9734
-2.9115 -5.3128 -2.9798 0.9734
-2.4271 -5.5509 -2.9798 0.9734
-1.9234 -5.7448 -2.9798 0.9734
-1.4044 -5.8932 -2.9798 0.9734
-0.8743 -5.9949 -2.9798 0.9734
0.7406 -6.0129 -2.9798 0.9734
2.3028 -5.6036 -2.9798 0.9734
2.7924 -5.3763 -2.9798 0.9734
3.2599 -5.1065 -2.9798 0.9734
3.7014 -4.7961 -2.9798 0.9734
4.1136 -4.4476 -2.9798 0.9734
4.4932 -4.0638 -2.9798 0.9734
4.8370 -3.6478 -2.9798 0.9734
5.8059 -1.7304 -2.9798 0.9734
6.0208 -0.6735 -2.9798 0.9734
6.0568 -0.1350 -2.9798 0.9734
6.0448 0.4046 -2.9798 0.9734
5.9848 0.9411 -2.9798 0.9734
5.5235 2.4887 -2.9798 0.9734
5.2801 2.9705 -2.9798 0.9734
4.9947 3.4287 -2.9798 0.9734
4.6697 3.8596 -2.9798 0.9734
4.3077 4.2599 -2.9798 0.9734
3.9114 4.6264 -2.9798 0.9734
2.8742 4.9783 -2.8274 0.9747
2.4197 5.2144 -2.8274 0.9747
1.4569 5.5608 -2.8274 0.9747
0.4478 5.7310 -2.8274 0.9747
-0.5754 5.7196 -2.8274 0.9747
-1.0822 5.6457 -2.8274 0.9747
-2.0660 5.3644 -2.8274 0.9747
-2.5353 5.1592 -2.8274 0.9747
-2.9844 4.9131 -2.8274 0.9747
-4.0135 4.5381 -2.9798 0.9734
-5.3449 2.8522 -2.9798 0.9734
-5.9086 1.3387 -2.9798 0.9734
-5.7659 -1.8593 -2.9798 0.9734
-5.5776 -2.3651 -2.9798 0.9734
-5.3449 -2.8521 -2.9798 0.9734
-5.0699 -3.3165 -2.9798 0.9734
-4.7546 -3.7546 -2.9798 0.9734
-4.4015 -4.1629 -2.9798 0.9734
-4.0135 -4.5381 -2.9798 0.9734
-3.5937 -4.8774 -2.9798 0.9734
-2.6719 -5.4373 -2.9798 0.9734
-2.1774 -5.6535 -2.9798 0.9734
0.4720 -6.0399 -2.9798 0.9734
1.0077 -5.9739 -2.9798 0.9734
1.5354 -5.8605 -2.9798 0.9734
2.0509 -5.7006 -2.9798 0.9734
3.0292 -5.2466 -2.9798 0.9734
3.9114 -4.6264 -2.9798 0.9734
4.3077 -4.2599 -2.9798 0.9734
5.5235 -2.4888 -2.9798 0.9734
5.7231 -1.9873 -2.9798 0.9734
5.8773 -1.4700 -2.9798 0.9734
5.9848 -0.9411 -2.9798 0.9734
6.0207 0.6735 -2.9798 0.9734
5.8059 1.7304 -2.9798 0.9734
5.4072 2.7324 -2.9798 0.9734
5.1425 3.2028 -2.9798 0.9734
4.8370 3.6478 -2.9798 0.9734
4.1136 4.4476 -2.9798 0.9734
2.6496 5.1014 -2.8274 0.9747
2.1850 5.3170 -2.8274 0.9747
1.2077 5.6202 -2.8274 0.9747
0.7027 5.7054 -2.8274 0.9747
0.1921 5.7453 -2.8274 0.9747
-0.3200 5.7396 -2.8274 0.9747
-0.8296 5.6883 -2.8274 0.9747
-1.3326 5.5919 -2.8274 0.9747
-2.3029 5.2670 -2.8274 0.9747
-3.8074 4.7125 -2.9798 0.9734
-4.9171 3.5391 -2.9798 0.9734
-5.4667 2.6112 -2.9798 0.9734
-5.6774 2.1143 -2.9798 0.9734
-5.8430 1.6006 -2.9798 0.9734
-6.0343 0.5392 -2.9798 0.9734
-5.2447 -2.5052 -2.9798 0.9742
-5.0009 -2.9620 -2.9798 0.9742
-4.7174 -3.3954 -2.9798 0.9742
-4.3965 -3.8018 -2.9798 0.9742
-4.0407 -4.1780 -2.9798 0.9742
-3.6528 -4.5211 -2.9798 0.9742
-2.3285 -5.3255 -2.9798 0.9742
-1.3474 -5.6540 -2.9798 0.9742
-0.3236 -5.8033 -2.9798 0.9742
0.1942 -5.8091 -2.9798 0.9742
0.7105 -5.7687 -2.9798 0.9742
1.2211 -5.6826 -2.9798 0.9742
2.2093 -5.3761 -2.9798 0.9742
3.5511 -4.6013 -2.9798 0.9742
4.3107 -3.8988 -2.9798 0.9742
4.6406 -3.4997 -2.9798 0.9742
4.9337 -3.0727 -2.9798 0.9742
5.1876 -2.6214 -2.9798 0.9742
5.4003 -2.1493 -2.9798 0.9742
5.6959 -1.1577 -2.9798 0.9742
5.7763 -0.6462 -2.9798 0.9742
5.6386 1.4103 -2.9798 0.9742
3.7526 4.4386 -2.9798 0.9742
2.3215 5.0027 -2.8274 0.9755
1.8670 5.1895 -2.8274 0.9755
1.3977 5.3350 -2.8274 0.9755
0.9173 5.4382 -2.8274 0.9755
0.4296 5.4983 -2.8274 0.9755
-0.5520 5.4874 -2.8274 0.9755
-1.5162 5.3026 -2.8274 0.9755
-2.4324 4.9497 -2.8274 0.9755
-2.9003 4.7746 -2.8640 0.9752
-4.2228 3.9939 -2.9798 0.9742
-4.5615 3.6022 -2.9798 0.9742
-4.8640 3.1819 -2.9798 0.9742
-5.1279 2.7363 -2.9798 0.9742
-5.3511 2.2691 -2.9798 0.9742
-5.5318 1.7838 -2.9798 0.9742
-5.7605 0.7747 -2.9798 0.9742
-5.8066 0.2589 -2.9798 0.9742
-5.6686 -1.2844 -2.9798 0.9742
-5.5318 -1.7838 -2.9798 0.9742
-5.3511 -2.2691 -2.9798 0.9742
-5.1279 -2.7363 -2.9798 0.9742
-4.8640 -3.1819 -2.9798 0.9742
-4.5615 -3.6022 -2.9798 0.9742
-4.2228 -3.9939 -2.9798 0.9742
-3.8506 -4.3539 -2.9798 0.9742
-2.5635 -5.2165 -2.9798 0.9742
-1.0942 -5.7084 -2.9798 0.9742
0.9668 -5.7314 -2.9798 0.9742
1.4730 -5.6225 -2.9798 0.9742
1.9676 -5.4691 -2.9798 0.9742
4.1328 -4.0870 -2.9798 0.9742
4.7919 -3.2895 -2.9798 0.9742
5.0657 -2.8499 -2.9798 0.9742
5.2992 -2.3877 -2.9798 0.9742
5.6386 -1.4103 -2.9798 0.9742
5.7993 -0.3882 -2.9798 0.9742
5.6959 1.1577 -2.9798 0.9742
5.5702 1.6601 -2.9798 0.9742
4.9337 3.0727 -2.9798 0.9742
4.3107 3.8988 -2.9798 0.9742
3.9466 4.2670 -2.9798 0.9742
3.5511 4.6014 -2.9798 0.9742
2.5420 4.8943 -2.8274 0.9755
1.6340 5.2674 -2.8274 0.9755
0.1843 5.5120 -2.8274 0.9755
-0.7959 5.4573 -2.8274 0.9755
-1.2785 5.3648 -2.8274 0.9755
-1.7509 5.2298 -2.8274 0.9755
-3.1911 4.7615 -2.9386 0.9746
-3.6528 4.5211 -2.9798 0.9742
-4.3965 3.8019 -2.9798 0.9742
-4.7174 3.3954 -2.9798 0.9742
-5.2447 2.5052 -2.9798 0.9742
-5.4469 2.0285 -2.9798 0.9742
-5.5818 0.0000 -2.9798 0.9750
-5.5596 -0.4968 -2.9798 0.9750
-5.4934 -0.9896 -2.9798 0.9750
-5.0367 -2.4058 -2.9798 0.9750
-3.8804 -4.0123 -2.9798 0.9750
-3.5079 -4.3418 -2.9798 0.9750
-2.2362 -5.1143 -2.9798 0.9750
-0.8056 -5.5234 -2.9798 0.9750
-0.3108 -5.5731 -2.9798 0.9750
0.1865 -5.5787 -2.9798 0.9750
0.6823 -5.5399 -2.9798 0.9750
1.1727 -5.4572 -2.9798 0.9750
1.6538 -5.3312 -2.9798 0.9750
3.0035 -4.7048 -2.9798 0.9750
3.4103 -4.4188 -2.9798 0.9750
3.7901 -4.0978 -2.9798 0.9750
4.1397 -3.7442 -2.9798 0.9750
4.4566 -3.3609 -2.9798 0.9750
4.7380 -2.9509 -2.9798 0.9750
5.1862 -2.0640 -2.9798 0.9750
5.3493 -1.5942 -2.9798 0.9750
5.4699 -1.1118 -2.9798 0.9750
5.5804 -0.1244 -2.9798 0.9750
5.4150 1.3544 -2.9798 0.9750
5.2729 1.8310 -2.9798 0.9750
5.0891 2.2930 -2.9798 0.9750
4.8648 2.7369 -2.9798 0.9750
3.9688 3.9249 -2.9798 0.9750
2.7417 4.7488 -2.9273 0.9754
2.2294 4.8042 -2.8274 0.9763
1.7930 4.9836 -2.8274 0.9763
1.3423 5.1234 -2.8274 0.9763
-1.4561 5.0922 -2.8274 0.9763
-1.9035 4.9424 -2.8274 0.9763
-2.3479 4.7778 -2.8420 0.9762
-3.6978 4.1812 -2.9798 0.9750
-4.0553 3.8355 -2.9798 0.9750
-4.6711 3.0557 -2.9798 0.9750
-5.5763 0.2487 -2.9798 0.9750
-5.5763 -0.2487 -2.9798 0.9750
-5.4438 -1.2334 -2.9798 0.9750
-5.1389 -2.1791 -2.9798 0.9750
-4.9245 -2.6278 -2.9798 0.9750
-4.3806 -3.4593 -2.9798 0.9750
-4.0553 -3.8355 -2.9798 0.9750
-3.6978 -4.1812 -2.9798 0.9750
-2.8979 -4.7706 -2.9798 0.9750
-2.4618 -5.0096 -2.9798 0.9750
-1.5346 -5.3667 -2.9798 0.9750
-1.0508 -5.4820 -2.9798 0.9750
-0.5587 -5.5537 -2.9798 0.9750
-0.0622 -5.5814 -2.9798 0.9750
1.4146 -5.3996 -2.9798 0.9750
2.3496 -5.0632 -2.9798 0.9750
3.2101 -4.5664 -2.9798 0.9750
3.6038 -4.2625 -2.9798 0.9750
3.9688 -3.9249 -2.9798 0.9750
4.6019 -3.1590 -2.9798 0.9750
5.5693 -0.3728 -2.9798 0.9750
5.5472 0.6206 -2.9798 0.9750
5.3493 1.5943 -2.9798 0.9750
4.9819 2.5175 -2.9798 0.9750
4.4566 3.3609 -2.9798 0.9750
3.7901 4.0978 -2.9798 0.9750
2.0132 4.8988 -2.8274 0.9763
1.5692 5.0586 -2.8274 0.9763
1.1127 5.1781 -2.8274 0.9763
0.1770 5.2933 -2.8274 0.9763
-0.2949 5.2881 -2.8274 0.9763
-2.1218 4.8527 -2.8274 0.9763
-2.6123 4.7669 -2.9018 0.9757
-3.8804 4.0123 -2.9798 0.9750
-4.2221 3.6511 -2.9798 0.9750
-4.5303 3.2607 -2.9798 0.9750
-4.8026 2.8446 -2.9798 0.9750
-5.3835 1.4747 -2.9798 0.9750
-5.3652 0.0000 -2.9798 0.9758
-5.2802 -0.9513 -2.9798 0.9758
-4.6162 -2.7342 -2.9798 0.9758
-4.3545 -3.1342 -2.9798 0.9758
-4.0583 -3.5093 -2.9798 0.9758
-2.5784 -4.7050 -2.9798 0.9758
-2.1494 -4.9158 -2.9798 0.9758
-1.2438 -5.2190 -2.9798 0.9758
0.1793 -5.3622 -2.9798 0.9758
1.5896 -5.1243 -2.9798 0.9758
2.0394 -4.9625 -2.9798 0.9758
2.4729 -4.7613 -2.9798 0.9758
2.8869 -4.5223 -2.9798 0.9758
3.9791 -3.5989 -2.9798 0.9758
4.5542 -2.8364 -2.9798 0.9758
4.9849 -1.9839 -2.9798 0.9758
5.3319 -0.5964 -2.9798 0.9758
5.3532 0.3584 -2.9798 0.9758
5.2049 1.3018 -2.9798 0.9758
5.0683 1.7599 -2.9798 0.9758
2.6826 4.6464 -2.9798 0.9758
2.2057 4.7533 -2.9103 0.9763
0.3966 5.0754 -2.8274 0.9770
-0.0567 5.0905 -2.8274 0.9770
-0.5096 5.0652 -2.8274 0.9770
-1.3996 4.8946 -2.8274 0.9770
-1.8394 4.7760 -2.8425 0.9769
-2.3383 4.7583 -2.9446 0.9760
-3.5543 4.0190 -2.9798 0.9758
-4.2106 3.3251 -2.9798 0.9758
-4.4898 2.9371 -2.9798 0.9758
-4.9395 2.0945 -2.9798 0.9758
-5.3173 0.7151 -2.9798 0.9758
-5.3599 0.2390 -2.9798 0.9758
-5.1063 -1.6466 -2.9798 0.9758
-4.9395 -2.0945 -2.9798 0.9758
-4.4898 -2.9371 -2.9798 0.9758
-4.2106 -3.3251 -2.9798 0.9758
-3.5543 -4.0189 -2.9798 0.9758
-2.3663 -4.8152 -2.9798 0.9758
-1.9283 -5.0067 -2.9798 0.9758
-1.0100 -5.2693 -2.9798 0.9758
-0.5370 -5.3382 -2.9798 0.9758
0.4180 -5.3489 -2.9798 0.9758
1.3597 -5.1900 -2.9798 0.9758
1.8163 -5.0484 -2.9798 0.9758
2.2584 -4.8667 -2.9798 0.9758
3.4639 -4.0971 -2.9798 0.9758
3.8148 -3.7726 -2.9798 0.9758
4.1355 -3.4180 -2.9798 0.9758
4.4233 -3.0364 -2.9798 0.9758
4.6760 -2.6306 -2.9798 0.9758
5.0683 -1.7599 -2.9798 0.9758
5.2049 -1.3018 -2.9798 0.9758
5.3639 0.1195 -2.9798 0.9758
5.1417 1.5324 -2.9798 0.9758
4.9849 1.9839 -2.9798 0.9758
3.9791 3.5989 -2.9798 0.9758
3.6430 3.9388 -2.9798 0.9758
3.2780 4.2474 -2.9798 0.9758
2.4630 4.7420 -2.9677 0.9758
1.9574 4.7632 -2.8601 0.9767
1.5083 4.8623 -2.8274 0.9770
0.1701 5.0879 -2.8274 0.9770
-0.2834 5.0829 -2.8274 0.9770
-1.1801 4.9521 -2.8274 0.9770
-3.3718 4.1733 -2.9798 0.9758
-3.7298 3.8566 -2.9798 0.9758
-4.8413 2.3125 -2.9798 0.9758
-5.1746 1.4175 -2.9798 0.9758
-5.1612 0.0000 -2.9798 0.9764
-4.8367 -1.8012 -2.9798 0.9764
-4.6572 -2.2245 -2.9798 0.9764
-4.4407 -2.6302 -2.9798 0.9764
-3.9040 -3.3759 -2.9798 0.9764
-3.5880 -3.7099 -2.9798 0.9764
-2.8734 -4.2874 -2.9798 0.9764
-2.0677 -4.7289 -2.9798 0.9764
-1.6386 -4.8942 -2.9798 0.9764
-0.7449 -5.1071 -2.9798 0.9764
-0.2873 -5.1532 -2.9798 0.9764
1.0843 -5.0460 -2.9798 0.9764
1.5291 -4.9294 -2.9798 0.9764
1.9618 -4.7737 -2.9798 0.9764
2.3789 -4.5802 -2.9798 0.9764
3.8278 -3.4621 -2.9798 0.9764
4.3810 -2.7285 -2.9798 0.9764
4.6064 -2.3277 -2.9798 0.9764
4.7953 -1.9085 -2.9798 0.9764
4.9462 -1.4741 -2.9798 0.9764
5.0577 -1.0280 -2.9798 0.9764
5.1599 -0.1150 -2.9798 0.9764
5.1496 0.3447 -2.9798 0.9764
5.0985 0.8017 -2.9798 0.9764
4.7056 2.1202 -2.9798 0.9764
3.6698 3.6291 -2.9798 0.9764
2.9682 4.2223 -2.9798 0.9764
1.7101 4.7534 -2.9165 0.9769
1.2491 4.7677 -2.8455 0.9775
0.8145 4.8290 -2.8274 0.9776
0.3815 4.8823 -2.8274 0.9776
-0.4902 4.8726 -2.8274 0.9776
-0.9219 4.8097 -2.8274 0.9776
-1.3641 4.7706 -2.8647 0.9773
-1.8322 4.7572 -2.9433 0.9767
-2.2763 4.6321 -2.9798 0.9764
-3.4192 3.8661 -2.9798 0.9764
-3.7497 3.5465 -2.9798 0.9764
-4.0505 3.1986 -2.9798 0.9764
-4.7516 2.0149 -2.9798 0.9764
-5.1560 0.2299 -2.9798 0.9764
-5.1151 -0.6879 -2.9798 0.9764
-5.0336 -1.1404 -2.9798 0.9764
-4.9121 -1.5839 -2.9798 0.9764
-4.7516 -2.0148 -2.9798 0.9764
-4.5534 -2.4298 -2.9798 0.9764
-3.7497 -3.5464 -2.9798 0.9764
-2.2763 -4.6321 -2.9798 0.9764
-0.9716 -5.0689 -2.9798 0.9764
-0.5166 -5.1353 -2.9798 0.9764
0.4021 -5.1455 -2.9798 0.9764
0.8585 -5.0893 -2.9798 0.9764
1.7472 -4.8564 -2.9798 0.9764
3.3322 -3.9413 -2.9798 0.9764
3.6698 -3.6291 -2.9798 0.9764
3.9782 -3.2880 -2.9798 0.9764
5.0069 -1.2523 -2.9798 0.9764
5.1599 0.1150 -2.9798 0.9764
5.1292 0.5738 -2.9798 0.9764
4.9462 1.4741 -2.9798 0.9764
4.6064 2.3277 -2.9798 0.9764
4.3810 2.7285 -2.9798 0.9764
4.1207 3.1076 -2.9798 0.9764
3.8278 3.4621 -2.9798 0.9764
3.5045 3.7890 -2.9798 0.9764
3.1533 4.0859 -2.9798 0.9764
2.7771 4.3503 -2.9798 0.9764
1.9497 4.7444 -2.9615 0.9766
1.4769 4.7611 -2.8780 0.9772
1.0288 4.7879 -2.8274 0.9776
0.5986 4.8605 -2.8274 0.9776
0.1636 4.8945 -2.8274 0.9776
-0.7068 4.8460 -2.8274 0.9776
-1.1391 4.7799 -2.8369 0.9776
-2.8734 4.2874 -2.9798 0.9764
-3.2436 4.0146 -2.9798 0.9764
-3.5880 3.7100 -2.9798 0.9764
-3.9040 3.3759 -2.9798 0.9764
-4.1890 3.0150 -2.9798 0.9764
-4.6572 2.2246 -2.9798 0.9764
-4.8367 1.8012 -2.9798 0.9764
-4.9778 1.3636 -2.9798 0.9764
