ply
format ascii 1.0
element vertex 1647
property float32 x
property float32 y
property float32 z
property float32 I
end_header
8.4306 -6.3578 1.8619 0.9580
8.0903 -6.1012 1.6135 0.9598
7.8627 -6.4987 1.6243 0.9595
7.8965 -5.9550 1.4068 0.9608
8.9562 -5.5780 1.5008 0.9583
8.2688 -5.6762 1.4266 0.9603
7.4240 -6.7146 1.2544 0.9604
8.6645 -5.3963 1.2792 0.9597
7.5384 -6.2306 1.2256 0.9613
8.1237 -5.5766 1.2348 0.9611
7.2977 -6.6004 1.0673 0.9612
7.4408 -6.1500 1.0471 0.9619
8.0067 -5.4963 1.0534 0.9617
7.2173 -6.5276 0.8921 0.9617
7.6058 -5.7358 0.8733 0.9625
8.3902 -5.2254 0.9062 0.9611
7.3697 -6.0912 0.8765 0.9623
9.2086 -5.1807 0.9687 0.9584
7.3124 -6.0439 0.7109 0.9627
7.1132 -6.4335 0.5586 0.9623
7.5098 -5.6634 0.5478 0.9630
7.8229 -5.3701 0.5527 0.9627
8.8969 -5.0053 0.5946 0.9599
7.2815 -7.8727 0.4459 0.9580
7.4737 -5.6362 0.3892 0.9632
8.1903 -5.1010 0.4012 0.9621
7.0046 -6.9270 0.4096 0.9613
7.2383 -5.9827 0.3905 0.9631
7.7832 -5.3429 0.3925 0.9629
7.2098 -7.7951 0.2648 0.9584
7.0613 -6.3866 0.2374 0.9626
8.1750 -5.0914 0.2402 0.9622
7.2264 -5.9728 0.2338 0.9632
7.7701 -5.3338 0.2350 0.9630
8.7868 -4.9434 0.2514 0.9605
7.4495 -5.6180 0.0775 0.9634
6.9698 -6.8926 0.0815 0.9615
7.2145 -5.9630 0.0778 0.9633
6.9719 -6.8946 -0.0815 0.9615
7.2164 -5.9645 -0.0778 0.9632
7.2173 -7.8033 -0.2651 0.9584
7.0636 -6.3886 -0.2375 0.9626
7.4638 -5.6287 -0.2331 0.9633
8.1776 -5.0931 -0.2403 0.9622
7.7724 -5.3354 -0.2351 0.9630
7.3034 -7.8964 -0.4472 0.9579
7.0795 -6.4030 -0.3969 0.9625
7.4779 -5.6393 -0.3894 0.9632
8.1979 -5.1057 -0.4016 0.9621
7.2426 -5.9862 -0.3907 0.9631
7.7883 -5.3464 -0.3928 0.9629
8.2503 -5.1383 -0.5661 0.9618
7.0703 -6.9920 -0.5792 0.9609
7.2806 -6.0176 -0.5501 0.9629
7.8300 -5.3750 -0.5532 0.9627
8.9097 -5.0125 -0.5954 0.9599
7.1607 -6.4765 -0.7235 0.9620
7.5553 -5.6977 -0.7091 0.9628
8.3073 -5.1738 -0.7334 0.9615
9.0169 -5.0728 -0.7753 0.9593
7.2293 -6.5386 -0.8936 0.9616
8.4071 -5.2360 -0.9080 0.9610
7.3812 -6.1007 -0.8779 0.9623
9.2437 -5.2004 -0.9723 0.9583
7.3123 -6.6136 -1.0694 0.9611
7.3727 -7.2910 -1.1247 0.9591
7.4529 -6.1600 -1.0488 0.9618
8.0200 -5.5054 -1.0551 0.9616
7.4470 -6.7354 -1.2583 0.9603
7.7944 -5.8780 -1.2234 0.9614
7.7203 -7.6348 -1.3607 0.9572
7.9197 -5.9726 -1.4109 0.9607
9.0548 -5.6394 -1.5173 0.9578
8.3055 -5.7014 -1.4329 0.9601
8.5596 -5.8758 -1.6532 0.9588
12.7399 7.1674 -2.8288 0.9422
12.0552 8.2755 -2.8297 0.9422
11.2748 9.3189 -2.8307 0.9421
10.4048 10.2896 -2.8318 0.9421
9.4519 11.1798 -2.8331 0.9421
8.4233 11.9824 -2.8344 0.9421
7.3271 12.6910 -2.8359 0.9420
6.1718 13.3000 -2.8374 0.9420
3.7202 14.1998 -2.8407 0.9419
2.4430 14.4833 -2.8424 0.9419
1.1449 14.6521 -2.8441 0.9419
-2.7719 14.4607 -2.8494 0.9418
12.4099 7.7289 -2.8292 0.9422
9.9383 10.7452 -2.8324 0.9421
8.9466 11.5924 -2.8337 0.9421
0.4912 14.6931 -2.8450 0.9419
-14.3141 0.0000 -3.0177 0.9432
-14.0863 -2.5378 -3.0175 0.9432
-13.4095 -4.9937 -3.0167 0.9432
-12.9091 -6.1661 -3.0160 0.9432
-12.3059 -7.2888 -3.0152 0.9432
-11.6048 -8.3526 -3.0143 0.9432
-8.9755 -11.1091 -3.0109 0.9433
-4.5254 -13.5165 -3.0050 0.9434
-2.0549 -14.0893 -3.0017 0.9435
2.9846 -13.8892 -2.9950 0.9436
6.5375 -12.5869 -2.9901 0.9437
9.6171 -10.3979 -2.9859 0.9437
11.2995 -8.5214 -2.9836 0.9438
13.5486 -4.0379 -2.9805 0.9438
13.8521 -2.8155 -2.9800 0.9439
14.0464 -1.5713 -2.9797 0.9439
13.7129 3.4299 -2.9800 0.9439
11.7002 6.5825 -2.8302 0.9466
10.3541 8.5579 -2.8319 0.9466
4.5597 12.6740 -2.8396 0.9464
3.4154 13.0365 -2.8411 0.9464
2.2428 13.2961 -2.8427 0.9464
-0.1504 13.4982 -2.8459 0.9463
-7.0312 11.5749 -2.8552 0.9461
-8.9804 10.1544 -2.8578 0.9461
-9.8527 9.3186 -2.8590 0.9461
-11.3571 7.4295 -2.8611 0.9460
-12.5014 5.3011 -2.8627 0.9460
-13.6185 4.3914 -3.0166 0.9432
-14.1853 1.9078 -3.0175 0.9432
-14.1859 -1.9078 -3.0176 0.9432
-13.9586 -3.1626 -3.0173 0.9432
-13.6198 -4.3918 -3.0169 0.9432
-13.1724 -5.5855 -3.0164 0.9432
-12.6200 -6.7342 -3.0157 0.9432
-11.9673 -7.8286 -3.0148 0.9432
-11.2194 -8.8598 -3.0138 0.9432
-10.3825 -9.8197 -3.0128 0.9433
-6.2915 -12.8027 -3.0074 0.9434
-5.1243 -13.3050 -3.0058 0.9434
-2.6812 -13.9876 -3.0026 0.9434
-0.1585 -14.2254 -2.9992 0.9435
4.8053 -13.3564 -2.9925 0.9436
5.9718 -12.8690 -2.9909 0.9437
8.1509 -11.5947 -2.9880 0.9437
10.0687 -9.9571 -2.9853 0.9438
10.9107 -9.0179 -2.9842 0.9438
12.3286 -6.9359 -2.9822 0.9438
12.8936 -5.8096 -2.9814 0.9438
13.3565 -4.6379 -2.9807 0.9438
14.1020 -0.9440 -2.9796 0.9439
14.1296 0.3149 -2.9795 0.9439
14.0459 1.5713 -2.9796 0.9439
13.5474 4.0376 -2.9802 0.9439
12.4689 4.9625 -2.8292 0.9466
11.9803 6.0539 -2.8298 0.9466
10.7233 8.0868 -2.8315 0.9466
9.9644 9.0123 -2.8324 0.9466
9.1263 9.8672 -2.8335 0.9465
8.2153 10.6448 -2.8347 0.9465
5.1184 12.4550 -2.8388 0.9464
0.4509 13.4878 -2.8451 0.9463
-0.7517 13.4819 -2.8467 0.9463
-5.4215 12.3994 -2.8530 0.9462
-11.0130 7.9267 -2.8606 0.9460
-11.6786 6.9173 -2.8615 0.9460
-12.8488 4.7850 -2.8905 0.9455
-13.8018 3.7807 -3.0169 0.9432
-14.0855 2.5377 -3.0173 0.9432
-13.2150 0.0000 -3.0162 0.9472
-13.0047 -2.3429 -3.0160 0.9472
-12.7432 -3.4907 -3.0157 0.9472
-12.3801 -4.6104 -3.0153 0.9472
-11.9183 -5.6929 -3.0147 0.9473
-10.7146 -7.7119 -3.0131 0.9473
-8.2877 -10.2578 -3.0100 0.9473
-5.2762 -12.0670 -3.0060 0.9474
-1.8979 -13.0126 -3.0015 0.9475
-0.7317 -13.1231 -2.9999 0.9475
0.4390 -13.1293 -2.9983 0.9475
2.7570 -12.8300 -2.9952 0.9476
3.8860 -12.5273 -2.9937 0.9476
6.0397 -11.6285 -2.9908 0.9477
7.0475 -11.0397 -2.9894 0.9477
7.9987 -10.3642 -2.9881 0.9477
8.8858 -9.6072 -2.9869 0.9477
9.7020 -8.7749 -2.9858 0.9477
10.4409 -7.8738 -2.9848 0.9478
11.0969 -6.9112 -2.9838 0.9478
12.1405 -4.8318 -2.9824 0.9478
12.8007 -2.6018 -2.9814 0.9478
12.9803 -1.4520 -2.9811 0.9478
13.0574 -0.2910 -2.9810 0.9478
12.9027 2.0289 -2.9811 0.9478
12.6720 3.1695 -2.9814 0.9478
11.3076 5.0950 -2.8308 0.9504
10.8117 6.0826 -2.8314 0.9504
10.2301 7.0226 -2.8322 0.9504
9.5673 7.9077 -2.8330 0.9503
8.8286 8.7307 -2.8340 0.9503
4.2124 11.7085 -2.8401 0.9502
3.1551 12.0429 -2.8415 0.9502
0.9708 12.4243 -2.8444 0.9502
-1.2487 12.4126 -2.8474 0.9501
-3.4333 12.0069 -2.8503 0.9501
-4.4906 11.6595 -2.8517 0.9500
-5.5132 11.2190 -2.8531 0.9500
-6.4929 10.6887 -2.8545 0.9500
-7.4217 10.0729 -2.8557 0.9500
-8.2923 9.3763 -2.8569 0.9499
-9.0974 8.6043 -2.8580 0.9499
-9.8306 7.7632 -2.8590 0.9499
-11.5419 4.8943 -2.8614 0.9499
-12.8860 2.9196 -3.0157 0.9472
-13.0961 1.7613 -3.0160 0.9472
-13.2017 0.5887 -3.0162 0.9472
-13.0966 -1.7613 -3.0161 0.9472
-12.8868 -2.9197 -3.0159 0.9472
-12.1613 -5.1568 -3.0150 0.9472
-11.0491 -7.2280 -3.0136 0.9473
-10.3588 -8.1803 -3.0127 0.9473
-7.8209 -10.6146 -3.0093 0.9473
-6.8422 -11.2638 -3.0081 0.9474
-3.6181 -12.6533 -3.0038 0.9474
-2.4763 -12.9185 -3.0022 0.9475
2.1833 -12.9435 -2.9960 0.9476
3.3250 -12.6913 -2.9945 0.9476
4.4391 -12.3388 -2.9930 0.9476
7.5307 -10.7125 -2.9888 0.9477
8.4507 -9.9955 -2.9875 0.9477
9.3032 -9.2001 -2.9863 0.9477
10.7796 -7.3998 -2.9843 0.9478
11.9145 -5.3683 -2.9827 0.9478
13.0573 0.2910 -2.9810 0.9478
12.5191 3.7311 -2.9816 0.9478
9.9086 7.4724 -2.8326 0.9504
9.2071 8.3273 -2.8335 0.9503
8.4324 9.1171 -2.8345 0.9503
6.6877 10.4762 -2.8368 0.9503
5.7313 11.0348 -2.8381 0.9503
4.7286 11.5065 -2.8394 0.9502
3.6875 11.8875 -2.8408 0.9502
2.6162 12.1746 -2.8422 0.9502
1.5230 12.3655 -2.8437 0.9502
-1.8009 12.3478 -2.8481 0.9501
-2.8942 12.1448 -2.8496 0.9501
-6.0089 10.9648 -2.8538 0.9500
-10.1683 7.3188 -2.8595 0.9499
-10.7826 6.3866 -2.8604 0.9499
-12.3789 4.6100 -3.0150 0.9472
-13.0041 2.3428 -3.0159 0.9472
-12.2171 -1.0917 -3.0149 0.9507
-12.0708 -2.1746 -3.0148 0.9507
-11.8282 -3.2401 -3.0145 0.9507
-10.5462 -6.2465 -3.0129 0.9508
-9.9459 -7.1586 -3.0121 0.9508
-9.2665 -8.0130 -3.0112 0.9508
-4.8985 -11.2031 -3.0054 0.9509
-3.8801 -11.5894 -3.0041 0.9509
-2.8319 -11.8832 -3.0027 0.9509
-1.7622 -12.0824 -3.0013 0.9509
-0.6795 -12.1854 -2.9998 0.9510
2.5603 -11.9146 -2.9955 0.9510
3.6089 -11.6339 -2.9940 0.9511
4.6279 -11.2613 -2.9927 0.9511
6.5456 -10.2534 -2.9901 0.9511
8.2534 -8.9235 -2.9877 0.9512
9.6983 -7.3139 -2.9857 0.9512
10.3079 -6.4198 -2.9849 0.9512
12.0582 -1.3489 -2.9824 0.9513
11.9861 1.8848 -2.9824 0.9513
11.7717 2.9444 -2.9826 0.9512
9.5027 6.5233 -2.8331 0.9536
8.2005 8.1097 -2.8348 0.9536
7.4487 8.8104 -2.8358 0.9536
2.9301 11.1841 -2.8418 0.9535
1.9239 11.4059 -2.8432 0.9535
-1.1595 11.5256 -2.8473 0.9534
-3.1877 11.1481 -2.8500 0.9534
-7.6979 8.7042 -2.8561 0.9533
-9.1255 7.2063 -2.8581 0.9532
-9.7335 6.3674 -2.8590 0.9532
-11.6704 3.7633 -3.0140 0.9507
-11.9607 2.7099 -3.0145 0.9507
-12.2537 -0.5464 -3.0150 0.9507
-12.1561 -1.6348 -3.0149 0.9507
-11.9614 -2.7101 -3.0146 0.9507
-11.2883 -4.7866 -3.0138 0.9507
-10.8153 -5.7712 -3.0132 0.9508
-10.2562 -6.7093 -3.0125 0.9508
-8.8989 -8.4165 -3.0107 0.9508
-8.1117 -9.1720 -3.0097 0.9508
-7.2605 -9.8540 -3.0086 0.9508
-6.3521 -10.4569 -3.0074 0.9509
-4.3936 -11.4076 -3.0048 0.9509
-3.3593 -11.7480 -3.0034 0.9509
-2.2992 -11.9947 -3.0020 0.9509
3.0878 -11.7859 -2.9948 0.9511
4.1226 -11.4589 -2.9934 0.9511
7.8492 -9.2840 -2.9883 0.9512
9.3643 -7.7398 -2.9862 0.9512
10.5823 -5.9535 -2.9845 0.9512
11.0677 -4.9868 -2.9838 0.9512
11.4654 -3.9812 -2.9833 0.9512
11.7725 -2.9445 -2.9828 0.9512
12.1059 -0.8104 -2.9823 0.9513
12.1298 0.2704 -2.9822 0.9513
11.6296 3.4660 -2.9828 0.9512
10.2837 5.1966 -2.8321 0.9536
9.7826 6.0927 -2.8328 0.9536
9.2040 6.9411 -2.8335 0.9536
8.5522 7.7350 -2.8344 0.9536
7.8324 8.4683 -2.8353 0.9536
7.0501 9.1352 -2.8364 0.9536
5.3230 10.2487 -2.8386 0.9535
3.4246 11.0399 -2.8412 0.9535
2.4295 11.3062 -2.8425 0.9535
1.4143 11.4830 -2.8438 0.9535
-1.6722 11.4653 -2.8480 0.9534
-2.6873 11.2764 -2.8493 0.9534
-5.5786 10.1797 -2.8533 0.9533
-8.0795 8.3541 -2.8567 0.9533
-8.7940 7.6045 -2.8577 0.9532
-11.4902 4.2790 -3.0138 0.9507
-11.8274 3.2399 -3.0143 0.9507
-12.0702 2.1746 -3.0146 0.9507
-12.2168 1.0917 -3.0149 0.9507
-11.4378 0.0000 -3.0138 0.9538
-11.3923 -1.0180 -3.0138 0.9538
-11.0297 -3.0213 -3.0134 0.9538
-9.8347 -5.8251 -3.0119 0.9538
-8.6416 -7.4727 -3.0103 0.9538
-6.3540 -9.4807 -3.0073 0.9539
-5.4828 -10.0048 -3.0062 0.9539
-3.6190 -10.8095 -3.0037 0.9539
-2.6414 -11.0839 -3.0024 0.9540
-1.6437 -11.2700 -3.0011 0.9540
0.3802 -11.3726 -2.9984 0.9540
1.3903 -11.2885 -2.9970 0.9540
5.2334 -10.0761 -2.9918 0.9541
6.1070 -9.5665 -2.9906 0.9541
6.9317 -8.9816 -2.9895 0.9542
8.4086 -7.6051 -2.9875 0.9542
10.1111 -5.1093 -2.9851 0.9542
10.5236 -4.1883 -2.9845 0.9542
10.8530 -3.2345 -2.9841 0.9542
11.3191 -0.2522 -2.9833 0.9542
11.2967 0.7562 -2.9833 0.9542
11.1849 1.7588 -2.9834 0.9542
10.9849 2.7476 -2.9837 0.9542
10.6980 3.7148 -2.9840 0.9542
9.3715 5.2723 -2.8334 0.9565
8.8671 6.0869 -2.8340 0.9565
8.2923 6.8538 -2.8348 0.9565
5.3863 9.3294 -2.8386 0.9564
1.7948 10.6404 -2.8434 0.9563
0.8410 10.7628 -2.8446 0.9563
-0.1203 10.7998 -2.8459 0.9563
-2.0351 10.6169 -2.8485 0.9563
-2.9733 10.3983 -2.8498 0.9562
-4.7739 9.7147 -2.8522 0.9562
-5.6219 9.2549 -2.8533 0.9562
-7.1791 8.1176 -2.8555 0.9562
-7.8757 7.4489 -2.8564 0.9561
-8.5101 6.7204 -2.8573 0.9561
-9.5717 5.1077 -2.8588 0.9561
-10.5254 4.4632 -3.0125 0.9538
-11.1533 2.5271 -3.0134 0.9538
-11.3350 1.5244 -3.0137 0.9538
-11.4264 -0.5095 -3.0138 0.9538
-11.1539 -2.5271 -3.0135 0.9538
-10.8835 -3.5095 -3.0132 0.9538
-10.5264 -4.4635 -3.0128 0.9538
-10.0855 -5.3817 -3.0122 0.9538
-8.9672 -7.0812 -3.0108 0.9538
-7.5649 -8.5538 -3.0089 0.9539
-5.9242 -9.7525 -3.0068 0.9539
-5.0307 -10.2371 -3.0056 0.9539
-4.0979 -10.6398 -3.0044 0.9539
-2.1446 -11.1881 -3.0017 0.9540
-1.1398 -11.3295 -3.0004 0.9540
1.8914 -11.2129 -2.9963 0.9541
2.8806 -10.9951 -2.9950 0.9541
3.8461 -10.6904 -2.9937 0.9541
4.7803 -10.3013 -2.9924 0.9541
5.6759 -9.8310 -2.9912 0.9541
6.5259 -9.2832 -2.9901 0.9541
7.3236 -8.6623 -2.9890 0.9542
8.7377 -7.2219 -2.9870 0.9542
9.3432 -6.4137 -2.9862 0.9542
10.6989 -3.7150 -2.9843 0.9542
11.2519 1.2587 -2.9834 0.9542
10.8522 3.2343 -2.9838 0.9542
10.5227 4.1880 -2.9843 0.9542
9.5961 4.8492 -2.8331 0.9565
8.5882 6.4767 -2.8344 0.9565
7.9799 7.2174 -2.8352 0.9565
6.5781 8.5235 -2.8370 0.9564
5.7954 9.0785 -2.8380 0.9564
4.9663 9.5619 -2.8391 0.9564
2.2665 10.5476 -2.8427 0.9564
1.3193 10.7122 -2.8440 0.9563
0.3608 10.7920 -2.8453 0.9563
-1.5598 10.6947 -2.8478 0.9563
-4.3355 9.9156 -2.8516 0.9562
-6.8092 8.4278 -2.8550 0.9562
-7.5349 7.7910 -2.8560 0.9562
-8.2010 7.0917 -2.8569 0.9561
-9.3336 5.5283 -2.8584 0.9561
-11.0290 3.0212 -3.0132 0.9538
-11.2554 2.0278 -3.0135 0.9538
-10.7084 0.0000 -3.0129 0.9565
-10.6658 -0.9531 -3.0128 0.9565
-10.5381 -1.8985 -3.0127 0.9565
-10.3265 -2.8287 -3.0124 0.9565
-9.6586 -4.6135 -3.0116 0.9565
-9.2079 -5.4538 -3.0110 0.9565
-8.6840 -6.2503 -3.0104 0.9565
-8.0911 -6.9966 -3.0096 0.9565
-7.4341 -7.6868 -3.0087 0.9565
-6.7184 -8.3154 -3.0078 0.9566
-5.9496 -8.8774 -3.0068 0.9566
-5.1340 -9.3683 -3.0057 0.9566
-3.3890 -10.1224 -3.0034 0.9566
-1.5393 -10.5542 -3.0009 0.9566
-0.5935 -10.6448 -2.9997 0.9567
0.3561 -10.6509 -2.9984 0.9567
1.3021 -10.5724 -2.9971 0.9567
4.9020 -9.4379 -2.9922 0.9568
5.7204 -8.9609 -2.9911 0.9568
7.2137 -7.7993 -2.9891 0.9568
9.4721 -4.7864 -2.9860 0.9569
9.8587 -3.9237 -2.9854 0.9569
10.3955 -2.1129 -2.9846 0.9569
10.5831 0.7085 -2.9843 0.9569
10.4784 1.6477 -2.9844 0.9569
10.2910 2.5740 -2.9846 0.9569
10.0221 3.4801 -2.9850 0.9569
8.3066 5.7022 -2.8348 0.9590
7.7680 6.4204 -2.8355 0.9590
2.5603 9.7726 -2.8424 0.9589
1.6810 9.9657 -2.8435 0.9589
0.7877 10.0800 -2.8447 0.9589
-0.1127 10.1144 -2.8459 0.9588
-1.9058 9.9426 -2.8483 0.9588
-2.7844 9.7376 -2.8495 0.9588
-5.2643 8.6662 -2.8529 0.9587
-7.3742 6.9745 -2.8558 0.9587
-7.9680 6.2923 -2.8566 0.9587
-10.4422 2.3659 -3.0124 0.9565
-10.6122 1.4272 -3.0127 0.9565
-10.6978 -0.4770 -3.0129 0.9565
-10.4427 -2.3660 -3.0126 0.9565
-10.1896 -3.2857 -3.0123 0.9565
-7.0833 -8.0091 -3.0083 0.9565
-5.5472 -9.1320 -3.0062 0.9566
-4.7107 -9.5860 -3.0051 0.9566
3.6024 -10.0130 -2.9940 0.9567
4.4775 -9.6488 -2.9928 0.9568
5.3165 -9.2085 -2.9917 0.9568
6.8602 -8.1142 -2.9896 0.9568
7.5527 -7.4690 -2.9886 0.9568
9.2504 -5.2042 -2.9863 0.9569
9.6750 -4.3593 -2.9857 0.9569
10.0229 -3.4803 -2.9852 0.9569
10.2915 -2.5741 -2.9848 0.9569
10.4788 -1.6477 -2.9845 0.9569
10.6041 0.2363 -2.9843 0.9569
10.5412 1.1792 -2.9843 0.9569
10.1666 3.0300 -2.9848 0.9569
9.3585 4.7291 -2.9502 0.9574
7.4753 6.7611 -2.8359 0.9590
6.8459 7.4017 -2.8367 0.9590
6.1618 7.9842 -2.8376 0.9590
5.4286 8.5038 -2.8385 0.9589
2.9925 9.6468 -2.8418 0.9589
0.3379 10.1073 -2.8453 0.9588
-0.5633 10.1015 -2.8465 0.9588
-1.4607 10.0155 -2.8477 0.9588
-2.3473 9.8499 -2.8489 0.9588
-4.0599 9.2852 -2.8512 0.9588
-7.6787 6.6401 -2.8562 0.9587
-8.7389 5.1761 -2.8577 0.9587
-9.6576 4.6131 -3.0113 0.9565
-10.6656 0.9531 -3.0128 0.9565
-10.0608 0.0000 -3.0120 0.9589
-9.9009 -1.7837 -3.0118 0.9589
-9.4259 -3.5102 -3.0113 0.9589
-9.0747 -4.3346 -3.0108 0.9589
-8.6514 -5.1242 -3.0103 0.9589
-6.9851 -7.2226 -3.0081 0.9589
-6.3127 -7.8133 -3.0072 0.9589
-5.5905 -8.3415 -3.0063 0.9589
-4.8242 -8.8030 -3.0053 0.9590
-4.0201 -9.1942 -3.0042 0.9590
-3.1847 -9.5120 -3.0031 0.9590
-2.3245 -9.7540 -3.0019 0.9590
1.2238 -9.9362 -2.9972 0.9591
2.9638 -9.5543 -2.9948 0.9591
4.6074 -8.8708 -2.9926 0.9591
6.1031 -7.9080 -2.9906 0.9591
7.9687 -6.0095 -2.9880 0.9592
8.4700 -5.2751 -2.9873 0.9592
9.9096 -1.1085 -2.9853 0.9592
9.9686 -0.2221 -2.9851 0.9592
9.9488 0.6660 -2.9851 0.9592
9.8504 1.5489 -2.9852 0.9592
9.6741 2.4197 -2.9855 0.9592
9.0940 4.0976 -2.9862 0.9592
8.4275 4.7413 -2.8949 0.9604
2.4063 9.1849 -2.8426 0.9611
1.5799 9.3663 -2.8437 0.9611
0.7403 9.4735 -2.8448 0.9611
-3.4219 8.8849 -2.8504 0.9610
-4.2007 8.5482 -2.8515 0.9610
-5.1286 6.9606 -2.5884 0.9645
-6.3162 7.1419 -2.8543 0.9610
-6.9288 6.5533 -2.8552 0.9610
-9.2588 3.9261 -3.0108 0.9589
-9.5729 3.0869 -3.0112 0.9589
-9.8108 2.2229 -3.0116 0.9589
-9.9705 1.3409 -3.0118 0.9589
-10.0507 0.4482 -3.0120 0.9589
-9.9708 -1.3409 -3.0119 0.9589
-9.8112 -2.2229 -3.0117 0.9589
-9.5735 -3.0870 -3.0114 0.9589
-9.2596 -3.9263 -3.0111 0.9589
-7.8886 -6.2296 -3.0093 0.9589
-6.6555 -7.5255 -3.0077 0.9589
-4.4265 -9.0076 -3.0047 0.9590
-3.6059 -9.3625 -3.0036 0.9590
-1.0031 -9.9709 -3.0002 0.9590
-0.1116 -10.0167 -2.9990 0.9590
1.6648 -9.8699 -2.9966 0.9591
2.5357 -9.6787 -2.9954 0.9591
3.3858 -9.4110 -2.9943 0.9591
4.2084 -9.0689 -2.9932 0.9591
4.9971 -8.6553 -2.9921 0.9591
6.4483 -7.6271 -2.9901 0.9592
7.0994 -7.0208 -2.9892 0.9592
7.6941 -6.3593 -2.9884 0.9592
9.0948 -4.0979 -2.9864 0.9592
9.8507 -1.5489 -2.9853 0.9592
9.9686 0.2222 -2.9851 0.9592
9.9094 1.1086 -2.9852 0.9592
8.0386 5.0065 -2.8352 0.9612
7.0268 6.3554 -2.8365 0.9612
5.7919 7.5048 -2.8381 0.9612
4.3724 8.4184 -2.8400 0.9612
3.6071 8.7773 -2.8410 0.9612
1.9952 9.2848 -2.8431 0.9611
1.1613 9.4292 -2.8442 0.9611
0.3176 9.4989 -2.8454 0.9611
-0.5293 9.4933 -2.8465 0.9611
-3.0222 9.0268 -2.8499 0.9610
-3.8150 8.7253 -2.8509 0.9610
-5.9909 7.4150 -2.8539 0.9610
-7.7435 5.5735 -2.8563 0.9609
-8.2108 4.8632 -2.8570 0.9609
-9.4252 3.5100 -3.0110 0.9589
-9.7015 2.6575 -3.0114 0.9589
-9.9005 1.7837 -3.0117 0.9589
-9.4816 0.0000 -3.0112 0.9610
-9.4439 -0.8439 -3.0112 0.9610
-8.5526 -4.0852 -3.0101 0.9610
-5.2692 -7.8622 -3.0058 0.9611
-4.5471 -8.2974 -3.0049 0.9611
-3.7893 -8.6663 -3.0039 0.9611
-3.0018 -8.9660 -3.0028 0.9611
-1.3636 -9.3494 -3.0006 0.9611
0.3155 -9.4359 -2.9984 0.9612
1.1536 -9.3669 -2.9973 0.9612
3.5834 -8.7197 -2.9940 0.9612
5.0693 -7.9409 -2.9920 0.9612
5.7541 -7.4558 -2.9910 0.9612
6.3931 -6.9121 -2.9902 0.9613
6.9810 -6.3139 -2.9894 0.9613
7.5134 -5.6661 -2.9886 0.9613
7.9862 -4.9738 -2.9880 0.9613
9.2145 -1.8729 -2.9862 0.9613
9.1219 2.2816 -2.9862 0.9613
7.3624 5.0540 -2.8361 0.9632
3.7653 8.1139 -2.8408 0.9632
3.0292 8.4198 -2.8418 0.9631
-0.0998 8.9607 -2.8459 0.9631
-2.4664 8.6256 -2.8491 0.9630
-3.2255 8.3748 -2.8502 0.9630
-6.5305 6.1765 -2.8547 0.9630
-7.5258 4.9232 -2.8560 0.9630
-9.0220 2.9092 -3.0105 0.9610
-9.2461 2.0949 -3.0108 0.9610
-9.3966 1.2637 -3.0111 0.9610
-9.4721 0.4224 -3.0112 0.9610
-9.4722 -0.4223 -3.0112 0.9610
-9.3968 -1.2637 -3.0112 0.9610
-9.2465 -2.0950 -3.0110 0.9610
-9.0225 -2.9094 -3.0107 0.9610
-8.7267 -3.7004 -3.0103 0.9610
-8.3614 -4.4618 -3.0099 0.9610
-7.9296 -5.1873 -3.0093 0.9610
-7.4349 -5.8712 -3.0087 0.9610
-5.6151 -7.6208 -3.0063 0.9611
-4.1723 -8.4903 -3.0044 0.9611
-3.3989 -8.8249 -3.0034 0.9611
-1.7790 -9.2811 -3.0012 0.9611
-0.1052 -9.4424 -2.9990 0.9611
1.5695 -9.3045 -2.9967 0.9612
2.3905 -9.1245 -2.9956 0.9612
3.1920 -8.8723 -2.9945 0.9612
4.7113 -8.1601 -2.9925 0.9612
7.2544 -5.9959 -2.9890 0.9613
7.7575 -5.3252 -2.9883 0.9613
8.1990 -4.6126 -2.9877 0.9613
8.8841 -3.0849 -2.9867 0.9613
9.1223 -2.2816 -2.9863 0.9613
9.3995 0.2095 -2.9859 0.9613
9.2141 1.8729 -2.9861 0.9613
9.0116 2.6858 -2.9863 0.9613
8.3948 4.2421 -2.9871 0.9613
7.6275 4.7505 -2.8538 0.9630
6.6253 5.9923 -2.8370 0.9632
6.0672 6.5598 -2.8378 0.9632
4.8108 7.5360 -2.8394 0.9632
1.0948 8.8890 -2.8443 0.9631
-4.3152 7.8743 -2.8516 0.9630
-4.7926 7.1511 -2.7340 0.9645
-6.2480 6.4604 -2.8543 0.9630
-6.8000 5.8803 -2.8550 0.9630
-8.0383 4.7611 -2.9670 0.9615
-8.8828 3.3080 -3.0103 0.9610
-9.1431 2.5046 -3.0107 0.9610
-9.3306 1.6811 -3.0110 0.9610
-9.4438 0.8439 -3.0111 0.9610
-8.9248 -0.7975 -3.0105 0.9629
-8.6410 -2.3670 -3.0102 0.9629
-8.3952 -3.1264 -3.0099 0.9629
-7.2674 -5.2307 -3.0084 0.9629
-6.7716 -5.8556 -3.0078 0.9629
-6.2220 -6.4335 -3.0071 0.9629
-5.6232 -6.9600 -3.0063 0.9629
-4.9800 -7.4307 -3.0054 0.9630
-3.5814 -8.1909 -3.0036 0.9630
-2.0710 -8.6903 -3.0016 0.9630
-0.4970 -8.9136 -2.9995 0.9630
2.6413 -8.5146 -2.9952 0.9631
3.3875 -8.2429 -2.9942 0.9631
4.1064 -7.9062 -2.9933 0.9631
7.9374 -4.0110 -2.9880 0.9632
8.2617 -3.2880 -2.9875 0.9632
8.7119 -1.7707 -2.9869 0.9632
8.8693 0.5938 -2.9866 0.9632
8.7815 1.3809 -2.9867 0.9632
8.3989 2.9164 -2.9871 0.9632
8.1069 3.6529 -2.9875 0.9632
7.7508 4.3606 -2.9880 0.9632
6.9606 4.7782 -2.8366 0.9650
5.4547 6.4518 -2.8386 0.9650
4.2267 7.3209 -2.8402 0.9650
2.8635 7.9594 -2.8420 0.9649
1.4079 8.3467 -2.8439 0.9649
0.6597 8.4419 -2.8449 0.9649
-3.7423 7.6154 -2.8509 0.9648
-4.4067 7.2544 -2.8518 0.9648
-5.0364 6.8354 -2.8526 0.9648
-5.6264 6.3618 -2.8534 0.9648
-6.1719 5.8373 -2.8542 0.9648
-7.2874 4.7673 -2.9258 0.9639
-8.2464 3.4968 -3.0095 0.9629
-8.5261 2.7493 -3.0099 0.9629
-8.5266 -2.7494 -3.0100 0.9629
-7.9019 -4.2166 -3.0092 0.9629
-7.0265 -5.5487 -3.0081 0.9629
-5.9285 -6.7034 -3.0067 0.9629
-5.3069 -7.2025 -3.0059 0.9630
-4.6434 -7.6440 -3.0050 0.9630
-3.9434 -8.0245 -3.0041 0.9630
-2.4565 -8.5909 -3.0021 0.9630
-0.0994 -8.9253 -2.9989 0.9630
0.6951 -8.8956 -2.9979 0.9630
1.4836 -8.7953 -2.9968 0.9631
3.0174 -8.3871 -2.9947 0.9631
4.4538 -7.7142 -2.9928 0.9631
5.1212 -7.2849 -2.9919 0.9631
6.3282 -6.2581 -2.9902 0.9631
8.7818 -1.3808 -2.9868 0.9632
8.8694 -0.5937 -2.9866 0.9632
8.8869 0.1980 -2.9866 0.9632
8.8341 0.9883 -2.9866 0.9632
8.2611 3.2878 -2.9873 0.9632
7.5495 4.7019 -2.9882 0.9632
6.7415 5.0840 -2.8369 0.9650
4.5480 7.1243 -2.8398 0.9650
3.2147 7.8227 -2.8415 0.9649
1.7780 8.2743 -2.8435 0.9649
1.0349 8.4026 -2.8444 0.9649
0.2830 8.4644 -2.8455 0.9649
-1.9654 8.2471 -2.8485 0.9649
-4.7262 7.0520 -2.8522 0.9648
-6.8973 4.9644 -2.8552 0.9648
-8.0818 3.8604 -3.0092 0.9629
-8.8177 1.5886 -3.0103 0.9629
-8.4885 0.0001 -3.0099 0.9646
-8.4547 -0.7555 -3.0099 0.9646
-8.3536 -1.5050 -3.0098 0.9646
-7.9531 -2.9617 -3.0093 0.9646
-7.6570 -3.6574 -3.0089 0.9646
-7.3000 -4.3237 -3.0084 0.9646
-6.8849 -4.9554 -3.0079 0.9646
-6.4152 -5.5474 -3.0073 0.9646
-5.8947 -6.0950 -3.0066 0.9647
-5.3275 -6.5939 -3.0059 0.9647
-4.0717 -7.4299 -3.0042 0.9647
-2.6882 -8.0292 -3.0024 0.9647
-1.2212 -8.3731 -3.0004 0.9647
-0.4709 -8.4458 -2.9994 0.9647
0.2826 -8.4513 -2.9984 0.9647
1.0333 -8.3898 -2.9974 0.9648
2.5028 -8.0683 -2.9954 0.9648
3.2100 -7.8111 -2.9945 0.9648
3.8913 -7.4921 -2.9935 0.9648
4.5413 -7.1138 -2.9926 0.9648
5.7276 -6.1926 -2.9910 0.9648
6.2545 -5.6569 -2.9903 0.9648
7.1554 -4.4564 -2.9891 0.9649
7.5224 -3.8012 -2.9885 0.9649
7.8297 -3.1161 -2.9881 0.9649
8.0750 -2.4066 -2.9878 0.9649
8.2565 -1.6782 -2.9875 0.9649
8.3725 -0.9366 -2.9873 0.9649
8.4224 -0.1877 -2.9872 0.9649
8.4057 0.5627 -2.9872 0.9649
8.3225 1.3087 -2.9873 0.9649
7.9598 2.7640 -2.9877 0.9649
7.6831 3.4619 -2.9881 0.9649
6.8925 4.7315 -2.9644 0.9651
5.6915 5.6285 -2.8383 0.9666
5.1692 6.1142 -2.8390 0.9666
4.6057 6.5517 -2.8397 0.9666
2.7135 7.5423 -2.8422 0.9666
1.3341 7.9091 -2.8441 0.9665
-0.0894 8.0257 -2.8460 0.9665
-0.8036 7.9886 -2.8469 0.9665
-2.2088 7.7247 -2.8488 0.9665
-2.8885 7.4998 -2.8497 0.9665
-3.5456 7.2152 -2.8506 0.9665
-4.1750 6.8730 -2.8515 0.9664
-5.3304 6.0273 -2.8531 0.9664
-6.3176 4.9890 -2.8544 0.9664
-7.0988 4.6438 -3.0079 0.9646
-7.4853 3.9943 -3.0084 0.9646
-8.0771 2.6046 -3.0093 0.9646
-8.2777 1.8755 -3.0095 0.9646
-8.4123 1.1314 -3.0098 0.9646
-8.4800 0.3782 -3.0099 0.9646
-8.4800 -0.3781 -3.0099 0.9646
-8.4125 -1.1313 -3.0098 0.9646
-8.2780 -1.8755 -3.0097 0.9646
-8.0776 -2.6047 -3.0094 0.9646
-7.8128 -3.3129 -3.0091 0.9646
-7.4859 -3.9946 -3.0087 0.9646
-7.0995 -4.6442 -3.0082 0.9646
-6.6567 -5.2567 -3.0076 0.9646
-6.1611 -5.8271 -3.0070 0.9646
-5.6166 -6.3508 -3.0062 0.9647
-5.0278 -6.8237 -3.0055 0.9647
-3.7361 -7.6028 -3.0038 0.9647
-3.0437 -7.9027 -3.0028 0.9647
-2.3275 -8.1397 -3.0019 0.9647
-0.8468 -8.4178 -2.9999 0.9647
0.6586 -8.4289 -2.9979 0.9648
2.1413 -8.1731 -2.9959 0.9648
2.8593 -7.9475 -2.9949 0.9648
4.2205 -7.3101 -2.9931 0.9648
5.4467 -6.4424 -2.9914 0.9648
5.9970 -5.9305 -2.9907 0.9648
6.4996 -5.3720 -2.9900 0.9648
6.9505 -4.7712 -2.9893 0.9649
7.3462 -4.1329 -2.9888 0.9649
7.6837 -3.4621 -2.9883 0.9649
7.9603 -2.7641 -2.9879 0.9649
8.1738 -2.0444 -2.9876 0.9649
7.1547 4.4560 -2.9888 0.9649
6.3889 4.8181 -2.8374 0.9666
5.9359 5.3688 -2.8380 0.9666
4.8923 6.3392 -2.8393 0.9666
4.3098 6.7513 -2.8401 0.9666
3.6929 7.1101 -2.8409 0.9666
2.3752 7.6570 -2.8427 0.9665
1.6848 7.8405 -2.8436 0.9665
0.9806 7.9620 -2.8445 0.9665
0.2682 8.0204 -2.8455 0.9665
-0.4469 8.0151 -2.8464 0.9665
-1.1589 7.9462 -2.8474 0.9665
-1.8622 7.8141 -2.8483 0.9665
-3.8641 7.0512 -2.8511 0.9665
-5.0560 6.2579 -2.8527 0.9664
-5.5943 5.7845 -2.8534 0.9664
-6.0884 5.2649 -2.8541 0.9664
-6.6291 4.7714 -2.8962 0.9659
-7.9526 2.9616 -3.0091 0.9646
-8.1856 2.2423 -3.0094 0.9646
-8.4546 0.7555 -3.0098 0.9646
-8.0270 -0.7173 -3.0093 0.9662
-7.7718 -2.1289 -3.0090 0.9662
-7.5508 -2.8119 -3.0087 0.9662
-7.2697 -3.4724 -3.0084 0.9662
-6.9308 -4.1051 -3.0079 0.9662
-5.5967 -5.7870 -3.0062 0.9662
-3.2219 -7.3686 -3.0031 0.9662
-0.4472 -8.0199 -2.9994 0.9663
1.6859 -7.8456 -2.9965 0.9663
2.3768 -7.6620 -2.9956 0.9663
3.0484 -7.4178 -2.9947 0.9663
4.3128 -6.7559 -2.9929 0.9664
6.7958 -4.2324 -2.9895 0.9664
7.6693 -2.2857 -2.9883 0.9664
7.8417 -1.5938 -2.9880 0.9664
7.9520 -0.8895 -2.9879 0.9664
7.9835 0.5345 -2.9878 0.9664
7.9044 1.2429 -2.9879 0.9664
7.5599 2.6251 -2.9883 0.9664
6.9764 3.9249 -2.9890 0.9664
5.8584 4.8421 -2.8381 0.9681
5.4053 5.3454 -2.8387 0.9681
4.9092 5.8067 -2.8393 0.9681
3.8038 6.5885 -2.8408 0.9680
3.2032 6.9028 -2.8416 0.9680
2.5769 7.1626 -2.8424 0.9680
1.2669 7.5106 -2.8442 0.9680
0.5936 7.5960 -2.8451 0.9680
-0.0849 7.6211 -2.8460 0.9680
-1.4357 7.4901 -2.8478 0.9680
-2.0973 7.3348 -2.8487 0.9680
-4.5305 6.1488 -2.8520 0.9679
-5.5517 5.2507 -2.8534 0.9679
-6.0452 4.7739 -2.8763 0.9676
-7.1067 3.7923 -3.0079 0.9662
-7.4171 3.1452 -3.0084 0.9662
-7.6685 2.4728 -3.0087 0.9662
-7.8589 1.7806 -3.0090 0.9662
-7.9867 1.0741 -3.0092 0.9662
-8.0509 0.3590 -3.0093 0.9662
-7.9869 -1.0741 -3.0093 0.9662
-7.6690 -2.4729 -3.0089 0.9662
-7.4176 -3.1453 -3.0086 0.9662
-6.7405 -4.4094 -3.0077 0.9662
-4.1771 -6.8763 -3.0043 0.9662
-3.5475 -7.2189 -3.0035 0.9662
-2.8900 -7.5038 -3.0026 0.9662
-0.8041 -7.9932 -2.9998 0.9663
-0.0895 -8.0305 -2.9989 0.9663
1.3349 -7.9141 -2.9970 0.9663
4.0081 -6.9422 -2.9934 0.9664
5.1728 -6.1183 -2.9918 0.9664
5.6954 -5.6323 -2.9911 0.9664
6.1728 -5.1019 -2.9904 0.9664
6.9770 -3.9251 -2.9893 0.9664
7.5603 -2.6252 -2.9885 0.9664
7.7632 -1.9417 -2.9882 0.9664
7.9046 -1.2429 -2.9879 0.9664
7.9835 -0.5344 -2.9878 0.9664
7.9993 0.1783 -2.9878 0.9664
7.8414 1.5939 -2.9879 0.9664
7.6690 2.2856 -2.9881 0.9664
7.1438 3.6099 -2.9888 0.9664
6.7951 4.2321 -2.9893 0.9664
6.2821 4.7376 -2.9381 0.9670
4.6462 6.0203 -2.8397 0.9681
4.0930 6.4116 -2.8404 0.9680
3.5071 6.7523 -2.8412 0.9680
2.2556 7.2714 -2.8428 0.9680
1.6000 7.4456 -2.8437 0.9680
0.9312 7.5608 -2.8446 0.9680
0.2546 7.6161 -2.8455 0.9680
-3.0576 6.9930 -2.8500 0.9679
-4.8005 5.9417 -2.8524 0.9679
-5.3116 5.4922 -2.8531 0.9679
-6.9302 4.1048 -3.0077 0.9662
-7.2692 3.4722 -3.0081 0.9662
-7.5503 2.8118 -3.0085 0.9662
-7.7715 2.1289 -3.0089 0.9662
-7.9307 1.4288 -3.0091 0.9662
-8.0268 0.7173 -3.0092 0.9662
-7.6358 -0.6823 -3.0088 0.9676
-7.5445 -1.3592 -3.0087 0.9676
-7.3931 -2.0251 -3.0085 0.9676
-6.9156 -3.3033 -3.0079 0.9676
-6.2184 -4.4757 -3.0070 0.9676
-5.7943 -5.0105 -3.0064 0.9676
-5.3243 -5.5052 -3.0058 0.9676
-4.2618 -6.3591 -3.0044 0.9676
-3.0652 -7.0103 -3.0028 0.9677
-2.4284 -7.2532 -3.0020 0.9677
-1.1032 -7.5644 -3.0002 0.9677
2.2615 -7.2902 -2.9957 0.9677
2.9005 -7.0580 -2.9948 0.9677
3.5162 -6.7699 -2.9940 0.9678
5.1760 -5.5962 -2.9917 0.9678
5.6523 -5.1121 -2.9911 0.9678
6.0836 -4.5879 -2.9905 0.9678
6.4667 -4.0275 -2.9900 0.9678
7.0763 -2.8163 -2.9891 0.9678
7.2981 -2.1750 -2.9888 0.9678
7.4621 -1.5167 -2.9885 0.9678
7.5671 -0.8465 -2.9884 0.9678
7.5971 0.5086 -2.9883 0.9678
7.5218 1.1828 -2.9884 0.9678
7.3871 1.8477 -2.9885 0.9678
6.9438 3.1287 -2.9891 0.9678
6.2808 4.3116 -2.9899 0.9678
5.1435 5.0865 -2.8390 0.9694
4.6713 5.5253 -2.8397 0.9694
3.6194 6.2691 -2.8410 0.9694
1.8361 7.0084 -2.8434 0.9693
1.2054 7.1461 -2.8443 0.9693
0.5647 7.2272 -2.8451 0.9693
-0.0808 7.2510 -2.8460 0.9693
-0.7261 7.2172 -2.8468 0.9693
-1.3660 7.1261 -2.8477 0.9693
-3.7713 6.2085 -2.8510 0.9693
-5.2814 4.9951 -2.8530 0.9692
-6.7606 3.6076 -3.0075 0.9676
-7.2949 2.3523 -3.0082 0.9676
-7.4760 1.6939 -3.0085 0.9676
-7.6586 0.3415 -3.0088 0.9676
-7.0563 -2.9921 -3.0081 0.9676
-6.4122 -4.1946 -3.0072 0.9676
-6.0124 -4.7479 -3.0067 0.9676
-5.5648 -5.2632 -3.0061 0.9676
-5.0732 -5.7363 -3.0055 0.9676
-4.5414 -6.1637 -3.0048 0.9676
-3.9738 -6.5418 -3.0041 0.9676
-3.3749 -6.8677 -3.0033 0.9677
-1.4393 -7.5089 -3.0007 0.9677
-0.7651 -7.6049 -2.9998 0.9677
1.2702 -7.5299 -2.9970 0.9677
2.5836 -7.1812 -2.9953 0.9677
3.8138 -6.6057 -2.9936 0.9678
4.9221 -5.8219 -2.9921 0.9678
5.4195 -5.3594 -2.9914 0.9678
6.2814 -4.3119 -2.9902 0.9678
6.9442 -3.1289 -2.9893 0.9678
7.1943 -2.4981 -2.9889 0.9678
7.3874 -1.8477 -2.9887 0.9678
7.5220 -1.1828 -2.9885 0.9678
7.6122 0.1697 -2.9883 0.9678
7.4619 1.5167 -2.9884 0.9678
7.0759 2.8162 -2.9889 0.9678
6.7979 3.4352 -2.9893 0.9678
6.4661 4.0272 -2.9897 0.9678
6.0830 4.5875 -2.9902 0.9678
4.4211 5.7286 -2.8400 0.9694
2.1462 6.9186 -2.8430 0.9694
0.2423 7.2463 -2.8455 0.9693
-4.0447 6.0351 -2.8513 0.9693
-5.0531 5.2249 -2.8527 0.9692
-5.5239 4.7767 -2.8661 0.9691
-6.5926 3.9049 -3.0072 0.9676
-6.9151 3.3031 -3.0077 0.9676
-7.1825 2.6748 -3.0081 0.9676
-7.5443 1.3592 -3.0086 0.9676
-7.6357 0.6824 -3.0087 0.9676
-7.1896 -1.2952 -3.0082 0.9689
-7.0453 -1.9298 -3.0080 0.9689
-6.8450 -2.5491 -3.0078 0.9689
-6.2831 -3.7215 -3.0071 0.9689
-5.9260 -4.2653 -3.0066 0.9689
-5.0740 -5.2465 -3.0055 0.9689
-4.5859 -5.6761 -3.0048 0.9689
-4.0616 -6.0603 -3.0042 0.9689
-2.9213 -6.6811 -3.0026 0.9689
-1.0515 -7.2095 -3.0002 0.9690
0.2433 -7.2775 -2.9984 0.9690
0.8898 -7.2248 -2.9975 0.9690
1.5289 -7.1150 -2.9967 0.9690
3.3516 -6.4529 -2.9942 0.9690
3.9116 -6.1274 -2.9935 0.9690
4.4404 -5.7536 -2.9927 0.9690
4.9338 -5.3343 -2.9921 0.9691
6.1643 -3.8391 -2.9904 0.9691
6.7454 -2.6846 -2.9895 0.9691
7.1133 -1.4458 -2.9890 0.9691
7.2564 -0.1617 -2.9888 0.9691
7.2420 0.4848 -2.9888 0.9691
7.0418 1.7613 -2.9890 0.9691
6.3282 3.5602 -2.9899 0.9691
5.9871 4.1099 -2.9903 0.9691
4.9028 4.8486 -2.8394 0.9706
4.4528 5.2668 -2.8400 0.9706
3.4500 5.9756 -2.8413 0.9706
2.9052 6.2606 -2.8420 0.9706
2.3371 6.4960 -2.8428 0.9706
1.7501 6.6800 -2.8435 0.9706
1.1489 6.8112 -2.8443 0.9706
-1.3019 6.7918 -2.8476 0.9705
-1.9017 6.6508 -2.8484 0.9705
-2.4868 6.4570 -2.8492 0.9705
-3.5942 5.9169 -2.8507 0.9705
-4.5885 5.1883 -2.8521 0.9705
-6.4426 3.4379 -3.0070 0.9689
-6.7239 2.8512 -3.0074 0.9689
-6.9518 2.2417 -3.0078 0.9689
-7.2401 0.9737 -3.0082 0.9689
-7.2983 -0.3254 -3.0083 0.9689
-7.2403 -0.9737 -3.0082 0.9689
-7.1246 -1.6142 -3.0081 0.9689
-6.7244 -2.8513 -3.0076 0.9689
-6.4431 -3.4381 -3.0073 0.9689
-6.1107 -3.9974 -3.0068 0.9689
-4.3281 -5.8740 -3.0045 0.9689
-3.2164 -6.5452 -3.0030 0.9689
-2.6204 -6.8037 -3.0022 0.9690
-2.0039 -7.0080 -3.0014 0.9690
-1.3718 -7.1565 -3.0006 0.9690
-0.0811 -7.2822 -2.9989 0.9690
0.5672 -7.2584 -2.9980 0.9690
3.0612 -6.5967 -2.9946 0.9690
5.1659 -5.1087 -2.9917 0.9691
5.9876 -4.1102 -2.9906 0.9691
6.6195 -2.9826 -2.9897 0.9691
6.8580 -2.3813 -2.9894 0.9691
7.0421 -1.7613 -2.9891 0.9691
7.1704 -1.1275 -2.9889 0.9691
7.2563 0.1617 -2.9888 0.9691
7.2132 0.8069 -2.9888 0.9691
7.1131 1.4458 -2.9889 0.9691
6.9566 2.0733 -2.9891 0.9691
6.4801 3.2745 -2.9897 0.9691
6.1637 3.8389 -2.9901 0.9691
5.2456 4.7444 -2.9125 0.9699
4.6825 5.0626 -2.8397 0.9706
3.1808 6.1241 -2.8416 0.9706
2.6238 6.3846 -2.8424 0.9706
2.0456 6.5946 -2.8431 0.9706
0.8445 6.8566 -2.8447 0.9706
0.2309 6.9066 -2.8456 0.9705
-0.3848 6.9017 -2.8464 0.9705
-0.9979 6.8421 -2.8472 0.9705
-1.6034 6.7280 -2.8480 0.9705
-2.1964 6.5604 -2.8488 0.9705
-3.8547 5.7516 -2.8511 0.9705
-5.4947 4.7515 -2.9913 0.9691
-7.0450 1.9299 -3.0079 0.9689
-6.9730 0.0001 -3.0079 0.9701
-6.8623 -1.2363 -3.0078 0.9701
-5.6564 -4.0712 -3.0062 0.9701
-5.2707 -4.5578 -3.0057 0.9701
-4.3774 -5.4179 -3.0046 0.9701
-3.3459 -6.1054 -3.0032 0.9701
-2.7885 -6.3775 -3.0025 0.9701
-2.2092 -6.5986 -3.0017 0.9701
-1.0037 -6.8821 -3.0001 0.9702
-0.3871 -6.9422 -2.9993 0.9702
0.2323 -6.9472 -2.9984 0.9702
0.8495 -6.8971 -2.9976 0.9702
2.0578 -6.6336 -2.9960 0.9702
2.6393 -6.4224 -2.9952 0.9702
3.1997 -6.1604 -2.9944 0.9702
4.2392 -5.4929 -2.9930 0.9702
6.1872 -3.1265 -2.9903 0.9703
6.4402 -2.5631 -2.9900 0.9703
6.8870 -0.7704 -2.9893 0.9703
6.7232 1.6816 -2.9894 0.9703
6.5473 2.2735 -2.9897 0.9703
6.3196 2.8475 -2.9899 0.9703
5.7161 3.9239 -2.9907 0.9702
4.2511 5.0282 -2.8402 0.9717
3.7875 5.3878 -2.8409 0.9717
3.2937 5.7048 -2.8415 0.9717
2.7735 5.9768 -2.8422 0.9717
2.2311 6.2015 -2.8429 0.9717
1.6707 6.3771 -2.8437 0.9717
0.5138 6.5759 -2.8452 0.9717
-1.2428 6.4834 -2.8476 0.9717
-2.3739 6.1636 -2.8491 0.9716
-2.9138 5.9294 -2.8498 0.9716
-3.9208 5.3214 -2.8512 0.9716
-4.3798 4.9524 -2.8518 0.9716
-5.8321 3.8152 -3.0062 0.9701
-6.1494 3.2815 -3.0066 0.9701
-6.4179 2.7215 -3.0070 0.9701
-6.6354 2.1397 -3.0073 0.9701
-6.9105 0.9294 -3.0077 0.9701
-6.6357 -2.1397 -3.0075 0.9701
-6.4183 -2.7216 -3.0072 0.9701
-5.8326 -3.8155 -3.0065 0.9701
-4.6149 -5.2181 -3.0049 0.9701
-3.0702 -6.2477 -3.0028 0.9701
-2.5013 -6.4945 -3.0021 0.9701
-1.3095 -6.8315 -3.0005 0.9702
-0.6961 -6.9191 -2.9997 0.9702
0.5414 -6.9290 -2.9980 0.9702
1.7605 -6.7196 -2.9964 0.9702
2.3509 -6.5345 -2.9956 0.9702
3.4705 -6.0111 -2.9940 0.9702
4.4792 -5.2980 -2.9927 0.9702
4.9320 -4.8773 -2.9921 0.9702
5.7165 -3.9242 -2.9910 0.9702
6.0422 -3.3993 -2.9905 0.9703
6.3200 -2.8476 -2.9901 0.9703
6.8460 -1.0764 -2.9894 0.9703
6.9144 -0.4629 -2.9892 0.9703
6.9281 0.1544 -2.9892 0.9703
6.4398 2.5630 -2.9898 0.9703
6.1868 3.1263 -2.9901 0.9703
5.8848 3.6651 -2.9905 0.9703
5.1433 4.6519 -2.9915 0.9702
4.4704 4.8334 -2.8400 0.9717
4.0233 5.2132 -2.8405 0.9717
3.5441 5.5518 -2.8412 0.9717
2.5048 6.0952 -2.8425 0.9717
1.9529 6.2955 -2.8433 0.9717
0.2204 6.5932 -2.8456 0.9717
-1.5305 6.4225 -2.8479 0.9716
-4.6178 4.7748 -2.8653 0.9715
-5.2702 4.5573 -3.0054 0.9701
-5.6559 4.0709 -3.0060 0.9701
-6.5331 2.4330 -3.0072 0.9701
-6.8621 1.2363 -3.0077 0.9701
-6.9452 0.6207 -3.0078 0.9701
-6.5594 -1.1817 -3.0073 0.9712
-6.2451 -2.3257 -3.0070 0.9712
-6.0127 -2.8720 -3.0067 0.9712
-5.7326 -3.3954 -3.0063 0.9712
-5.4068 -3.8916 -3.0059 0.9712
-3.7060 -5.5297 -3.0037 0.9712
-0.3701 -6.6366 -2.9992 0.9713
0.8121 -6.5936 -2.9976 0.9713
1.9673 -6.3418 -2.9961 0.9713
4.0530 -5.2516 -2.9932 0.9713
4.5034 -4.8690 -2.9926 0.9713
4.9180 -4.4480 -2.9921 0.9713
5.2934 -3.9919 -2.9915 0.9713
5.6268 -3.5044 -2.9911 0.9713
5.9156 -2.9893 -2.9907 0.9713
6.1575 -2.4506 -2.9903 0.9713
6.3506 -1.8927 -2.9901 0.9713
6.4934 -1.3198 -2.9898 0.9713
6.6241 -0.1476 -2.9896 0.9713
6.5454 1.0293 -2.9897 0.9713
6.2600 2.1737 -2.9900 0.9713
6.0422 2.7225 -2.9903 0.9713
5.7766 3.2499 -2.9907 0.9713
5.4651 3.7516 -2.9911 0.9713
5.1103 4.2238 -2.9915 0.9713
4.7149 4.6627 -2.9920 0.9713
-0.6315 6.2774 -2.8467 0.9727
-1.1880 6.1979 -2.8475 0.9727
-1.7354 6.0691 -2.8482 0.9727
-2.2693 5.8921 -2.8490 0.9727
-3.7479 5.0868 -2.8510 0.9727
-4.8382 4.5760 -3.0048 0.9712
-5.2272 4.1279 -3.0054 0.9712
-5.5748 3.6469 -3.0059 0.9712
-6.6055 0.8884 -3.0073 0.9712
-6.6586 -0.2969 -3.0074 0.9712
-6.6056 -0.8883 -3.0074 0.9712
-6.5001 -1.4727 -3.0073 0.9712
-5.2277 -4.1282 -3.0057 0.9712
-4.4114 -4.9879 -3.0046 0.9712
-3.9491 -5.3597 -3.0040 0.9712
-3.4556 -5.6887 -3.0033 0.9712
-2.9349 -5.9723 -3.0026 0.9712
-2.3911 -6.2084 -3.0019 0.9712
-0.6654 -6.6145 -2.9996 0.9712
1.1049 -6.5500 -2.9972 0.9713
2.2475 -6.2471 -2.9957 0.9713
2.7940 -6.0208 -2.9950 0.9713
3.3180 -5.7469 -2.9942 0.9713
3.8154 -5.4275 -2.9936 0.9713
4.7154 -4.6631 -2.9923 0.9713
5.7770 -3.2501 -2.9909 0.9713
6.2603 -2.1737 -2.9902 0.9713
6.4284 -1.6078 -2.9899 0.9713
6.5456 -1.0292 -2.9898 0.9713
6.6240 0.1477 -2.9896 0.9713
6.5847 0.7366 -2.9897 0.9713
6.1572 2.4505 -2.9902 0.9713
5.2930 3.9917 -2.9913 0.9713
3.8466 4.9842 -2.8408 0.9727
1.8670 6.0187 -2.8434 0.9727
1.3243 6.1626 -2.8441 0.9727
0.7707 6.2576 -2.8449 0.9727
-0.9106 6.2438 -2.8471 0.9727
-4.5951 4.7513 -2.9825 0.9714
-5.0377 4.3563 -3.0051 0.9712
-5.7321 3.3952 -3.0061 0.9712
-6.5592 1.1817 -3.0073 0.9712
-6.2780 -1.1310 -3.0070 0.9722
-5.4868 -3.2498 -3.0060 0.9722
-5.1751 -3.7247 -3.0056 0.9722
-4.8223 -4.1700 -3.0051 0.9722
-2.0215 -6.0379 -3.0014 0.9722
-0.3542 -6.3527 -2.9992 0.9723
0.2126 -6.3574 -2.9984 0.9723
1.8832 -6.0708 -2.9962 0.9723
2.4155 -5.8777 -2.9955 0.9723
3.4178 -5.3539 -2.9941 0.9723
3.8799 -5.0273 -2.9935 0.9723
5.3868 -3.3549 -2.9914 0.9723
5.6633 -2.8618 -2.9910 0.9723
6.0797 -1.8119 -2.9904 0.9723
6.2165 -1.2635 -2.9902 0.9723
6.3040 -0.7052 -2.9901 0.9723
6.3290 0.4237 -2.9900 0.9723
6.2663 0.9854 -2.9901 0.9723
6.1540 1.5393 -2.9902 0.9723
5.9930 2.0810 -2.9904 0.9723
5.7845 2.6064 -2.9907 0.9723
5.5301 3.1112 -2.9910 0.9723
4.5137 4.4637 -2.9923 0.9723
3.0145 5.2213 -2.8419 0.9737
2.0419 5.6756 -2.8432 0.9737
1.5290 5.8362 -2.8439 0.9737
1.0037 5.9506 -2.8446 0.9737
-0.0673 6.0373 -2.8460 0.9737
-0.6045 6.0088 -2.8467 0.9736
-1.6611 5.8094 -2.8481 0.9736
-2.6661 5.4254 -2.8495 0.9736
-3.1391 5.1677 -2.8501 0.9736
-3.5874 4.8689 -2.8508 0.9736
-4.6309 4.3799 -3.0046 0.9722
-5.0032 3.9510 -3.0051 0.9722
-5.3358 3.4905 -3.0055 0.9722
-5.6261 3.0022 -3.0060 0.9722
-5.8716 2.4898 -3.0063 0.9722
-6.3222 0.8503 -3.0070 0.9722
-6.3730 -0.2841 -3.0071 0.9722
-4.6313 -4.3803 -3.0049 0.9722
-4.2223 -4.7743 -3.0043 0.9722
-1.7503 -6.1212 -3.0011 0.9722
-0.6370 -6.3314 -2.9996 0.9723
-0.0709 -6.3614 -2.9988 0.9723
0.4955 -6.3408 -2.9980 0.9723
1.6111 -6.1495 -2.9965 0.9723
2.6746 -5.7636 -2.9951 0.9723
3.6525 -5.1958 -2.9938 0.9723
4.0996 -4.8490 -2.9932 0.9723
4.5141 -4.4641 -2.9926 0.9723
4.8927 -4.0439 -2.9921 0.9723
5.5305 -3.1114 -2.9912 0.9723
5.7848 -2.6065 -2.9908 0.9723
6.1542 -1.5392 -2.9903 0.9723
6.3290 -0.4237 -2.9900 0.9723
6.3039 0.7052 -2.9900 0.9723
6.2163 1.2636 -2.9901 0.9723
5.8946 2.3460 -2.9905 0.9723
5.6629 2.8616 -2.9908 0.9723
3.6832 4.7725 -2.8417 0.9737
3.2437 5.0812 -2.8416 0.9737
2.7792 5.3509 -2.8422 0.9737
1.7873 5.7616 -2.8435 0.9737
0.7378 5.9901 -2.8449 0.9737
-0.3362 6.0291 -2.8464 0.9737
-0.8717 5.9767 -2.8471 0.9736
-1.4005 5.8769 -2.8478 0.9736
-3.3666 5.0233 -2.8505 0.9736
-3.8515 4.7671 -2.8889 0.9733
-4.4308 4.5814 -3.0043 0.9722
-4.8218 4.1696 -3.0048 0.9722
-6.1519 1.6852 -3.0067 0.9722
-6.0887 -0.5441 -3.0067 0.9731
-5.8953 -1.6148 -3.0065 0.9731
-5.7278 -2.1330 -3.0063 0.9731
-5.2578 -3.1142 -3.0057 0.9731
-4.9591 -3.5693 -3.0053 0.9731
-4.2464 -4.3907 -3.0043 0.9731
-3.8380 -4.7504 -3.0038 0.9731
-3.3993 -5.0721 -3.0032 0.9731
-1.9373 -5.7862 -3.0013 0.9732
-1.4142 -5.9344 -3.0006 0.9732
-0.8802 -6.0353 -2.9999 0.9732
0.7450 -6.0490 -2.9977 0.9732
1.2801 -5.9572 -2.9970 0.9732
1.8049 -5.8183 -2.9963 0.9732
3.7187 -4.8184 -2.9937 0.9732
4.1320 -4.4674 -2.9931 0.9732
4.5124 -4.0812 -2.9926 0.9732
5.6500 -2.2486 -2.9910 0.9733
5.8273 -1.7367 -2.9907 0.9733
5.9583 -1.2111 -2.9906 0.9733
6.0422 -0.6759 -2.9904 0.9733
6.0783 -0.1354 -2.9904 0.9733
6.0061 0.9444 -2.9904 0.9733
5.8984 1.4753 -2.9905 0.9733
5.3004 2.9820 -2.9913 0.9733
4.6890 3.8756 -2.9921 0.9732
4.3261 4.2782 -2.9926 0.9732
3.9288 4.6471 -2.9931 0.9732
0.4507 5.7673 -2.8453 0.9745
-0.5793 5.7586 -2.8467 0.9745
-1.0898 5.6856 -2.8474 0.9745
-2.0816 5.4048 -2.8487 0.9745
-2.5550 5.1993 -2.8494 0.9745
-3.0083 4.9523 -2.8500 0.9745
-3.5091 4.7626 -2.9097 0.9740
-4.4377 4.1972 -3.0043 0.9731
-4.7945 3.7862 -3.0048 0.9731
-5.3913 2.8769 -3.0056 0.9731
-5.8171 1.8758 -3.0062 0.9731
-6.1069 0.2723 -3.0067 0.9731
-5.9616 -1.3507 -3.0065 0.9731
-5.8174 -1.8758 -3.0064 0.9731
-5.3916 -2.8770 -3.0058 0.9731
-5.1135 -3.3451 -3.0055 0.9731
-4.0462 -4.5751 -3.0041 0.9731
-3.6223 -4.9162 -3.0035 0.9731
-3.1697 -5.2180 -3.0029 0.9732
-2.6921 -5.4783 -3.0023 0.9732
-2.1934 -5.6949 -3.0016 0.9732
-0.6104 -6.0678 -2.9995 0.9732
-0.0679 -6.0965 -2.9988 0.9732
2.0620 -5.7314 -2.9959 0.9732
3.0442 -5.2726 -2.9946 0.9732
3.5007 -4.9797 -2.9940 0.9732
3.9292 -4.6475 -2.9934 0.9732
4.6894 -3.8758 -2.9923 0.9732
5.0150 -3.4426 -2.9919 0.9732
5.3008 -2.9822 -2.9915 0.9733
5.5445 -2.4982 -2.9912 0.9733
6.0062 -0.9444 -2.9905 0.9733
6.0662 -0.4061 -2.9904 0.9733
6.0421 0.6759 -2.9904 0.9733
5.9582 1.2111 -2.9905 0.9733
5.8270 1.7367 -2.9906 0.9733
5.4277 2.7428 -2.9911 0.9733
5.1626 3.2153 -2.9915 0.9733
4.8566 3.6626 -2.9919 0.9732
4.1316 4.4671 -2.9928 0.9732
3.6592 4.7414 -2.9458 0.9737
2.6636 5.1285 -2.8424 0.9746
2.1971 5.3463 -2.8430 0.9746
1.7129 5.5219 -2.8436 0.9746
0.1933 5.7824 -2.8457 0.9745
-1.8386 5.4916 -2.8484 0.9745
-2.3206 5.3073 -2.8490 0.9745
-2.7844 5.0808 -2.8497 0.9745
-3.2262 4.8139 -2.8503 0.9745
-4.2460 4.3904 -3.0041 0.9731
-4.6207 3.9957 -3.0046 0.9731
-5.2574 3.1140 -3.0055 0.9731
-5.7275 2.1330 -3.0061 0.9731
-6.0886 0.5441 -3.0067 0.9731
-5.6554 -1.5492 -3.0061 0.9740
-5.4947 -2.0462 -3.0059 0.9740
-5.0438 -2.9874 -3.0054 0.9740
-1.8585 -5.5511 -3.0012 0.9740
-1.3568 -5.6933 -3.0005 0.9740
-0.8445 -5.7901 -2.9998 0.9740
0.1954 -5.8454 -2.9984 0.9741
0.7148 -5.8034 -2.9977 0.9741
1.7316 -5.5822 -2.9964 0.9741
3.5679 -4.6231 -2.9939 0.9741
3.9645 -4.2864 -2.9933 0.9741
5.7170 -1.1620 -2.9909 0.9741
5.7975 -0.6485 -2.9908 0.9741
5.8321 -0.1299 -2.9907 0.9741
5.8205 0.3897 -2.9907 0.9741
5.7629 0.9062 -2.9907 0.9741
5.6596 1.4156 -2.9909 0.9741
5.5114 1.9138 -2.9911 0.9741
5.0857 2.8612 -2.9916 0.9741
4.8114 3.3029 -2.9919 0.9741
4.4990 3.7186 -2.9924 0.9741
3.7696 4.4587 -2.9933 0.9741
2.3341 5.0300 -2.8428 0.9754
1.8776 5.2188 -2.8434 0.9754
0.9229 5.4715 -2.8447 0.9754
0.4324 5.5332 -2.8453 0.9754
-0.0618 5.5510 -2.8460 0.9754
-1.0456 5.4546 -2.8473 0.9753
-1.5273 5.3412 -2.8480 0.9753
-1.9970 5.1852 -2.8486 0.9753
-2.8988 4.7722 -2.8625 0.9752
-3.4746 4.7158 -3.0030 0.9740
-3.8813 4.3886 -3.0036 0.9740
-5.7187 1.2957 -3.0061 0.9740
-5.8583 0.2613 -3.0064 0.9740
-5.8583 -0.2612 -3.0064 0.9740
-5.7189 -1.2957 -3.0062 0.9740
-5.5806 -1.7994 -3.0061 0.9740
-5.3978 -2.2888 -3.0058 0.9740
-5.1722 -2.7599 -3.0055 0.9740
-4.9055 -3.2089 -3.0052 0.9740
-4.5998 -3.6324 -3.0048 0.9740
-4.2576 -4.0267 -3.0043 0.9740
-3.4750 -4.7162 -3.0033 0.9740
-2.1042 -5.4634 -3.0015 0.9740
-1.6092 -5.6278 -3.0008 0.9740
-1.1017 -5.7474 -3.0002 0.9740
-0.5856 -5.8213 -2.9995 0.9740
-0.0652 -5.8490 -2.9988 0.9740
0.4556 -5.8302 -2.9981 0.9741
0.9725 -5.7651 -2.9974 0.9741
1.4814 -5.6544 -2.9967 0.9741
1.9784 -5.4989 -2.9960 0.9741
2.4594 -5.2998 -2.9954 0.9741
4.1512 -4.1052 -2.9931 0.9741
4.4994 -3.7188 -2.9926 0.9741
4.8118 -3.3031 -2.9922 0.9741
5.0860 -2.8613 -2.9918 0.9741
5.3199 -2.3970 -2.9915 0.9741
5.5117 -1.9138 -2.9912 0.9741
5.6597 -1.4155 -2.9910 0.9741
5.7630 -0.9062 -2.9908 0.9741
5.8206 -0.3896 -2.9907 0.9741
5.5910 1.6663 -2.9910 0.9741
5.4209 2.1575 -2.9912 0.9741
5.2079 2.6317 -2.9914 0.9741
4.9535 3.0851 -2.9918 0.9741
4.6598 3.5142 -2.9921 0.9741
4.3292 3.9156 -2.9926 0.9741
3.9641 4.2860 -2.9931 0.9741
2.1080 5.1295 -2.8431 0.9754
1.6434 5.2979 -2.8437 0.9754
1.1656 5.4244 -2.8444 0.9754
0.1855 5.5476 -2.8457 0.9754
-0.3091 5.5434 -2.8463 0.9754
-1.7639 5.2684 -2.8483 0.9753
-2.2263 5.0916 -2.8489 0.9753
-3.6816 4.5568 -3.0033 0.9740
-4.0733 4.2118 -3.0038 0.9740
-4.4327 3.8332 -3.0043 0.9740
-4.7570 3.4239 -3.0048 0.9740
-5.0435 2.9873 -3.0052 0.9740
-5.2900 2.5268 -3.0055 0.9740
-5.6552 1.5491 -3.0060 0.9740
-5.7709 1.0397 -3.0062 0.9740
-5.8408 0.5220 -3.0063 0.9740
-5.6310 0.0000 -3.0061 0.9748
-5.4305 -1.4876 -3.0058 0.9748
-5.2762 -1.9649 -3.0056 0.9748
-3.9118 -4.0447 -3.0039 0.9748
-3.5357 -4.3761 -3.0034 0.9748
-2.2526 -5.1519 -3.0017 0.9748
-1.7848 -5.3308 -3.0011 0.9748
-0.3128 -5.6092 -2.9991 0.9748
0.6864 -5.5733 -2.9978 0.9749
1.6630 -5.3610 -2.9965 0.9749
2.1331 -5.1905 -2.9958 0.9749
2.5861 -4.9791 -2.9952 0.9749
3.0184 -4.7282 -2.9946 0.9749
4.4757 -3.3753 -2.9926 0.9749
5.0020 -2.5276 -2.9919 0.9749
5.4908 -1.1161 -2.9912 0.9749
5.5681 -0.6229 -2.9911 0.9749
5.6014 -0.1248 -2.9910 0.9749
5.2934 1.8381 -2.9913 0.9749
5.1092 2.3021 -2.9916 0.9749
4.6210 3.1722 -2.9922 0.9749
4.3209 3.5713 -2.9926 0.9749
2.7406 4.7470 -2.9261 0.9755
-0.5337 5.3056 -2.8466 0.9761
-1.0041 5.2382 -2.8473 0.9761
-1.4666 5.1292 -2.8479 0.9761
-1.9177 4.9794 -2.8485 0.9761
-2.8858 4.7506 -2.9673 0.9751
-4.4166 3.4878 -3.0043 0.9748
-4.7102 3.0812 -3.0047 0.9748
-5.1830 2.1978 -3.0054 0.9748
-5.4914 1.2442 -3.0058 0.9748
-5.5806 0.7505 -3.0060 0.9748
-5.6254 0.2509 -3.0060 0.9748
-5.5807 -0.7505 -3.0060 0.9748
-5.4915 -1.2442 -3.0059 0.9748
-5.3587 -1.7279 -3.0057 0.9748
-4.7105 -3.0814 -3.0049 0.9748
-4.4170 -3.4880 -3.0045 0.9748
-3.7274 -4.2146 -3.0036 0.9748
-2.9201 -4.8070 -3.0026 0.9748
-2.4801 -5.0469 -3.0020 0.9748
-1.5454 -5.4044 -3.0008 0.9748
-0.5624 -5.5903 -2.9994 0.9748
-0.0626 -5.6170 -2.9988 0.9749
0.4375 -5.5990 -2.9981 0.9749
1.4227 -5.4303 -2.9968 0.9749
1.8999 -5.2810 -2.9961 0.9749
2.3619 -5.0898 -2.9955 0.9749
2.8050 -4.8584 -2.9949 0.9749
4.6213 -3.1723 -2.9924 0.9749
5.5903 -0.3742 -2.9910 0.9749
5.6014 0.1249 -2.9910 0.9749
5.4907 1.1161 -2.9911 0.9749
5.2064 2.0721 -2.9915 0.9749
5.0018 2.5275 -2.9917 0.9749
4.7575 2.9630 -2.9920 0.9749
4.1578 3.7605 -2.9928 0.9749
3.8072 4.1163 -2.9933 0.9749
3.4263 4.4396 -2.9938 0.9749
2.0245 4.9262 -2.8432 0.9761
0.6515 5.2894 -2.8451 0.9761
-0.2968 5.3235 -2.8463 0.9761
-3.1313 4.6722 -3.0026 0.9748
-3.5353 4.3758 -3.0031 0.9748
-5.0797 2.4264 -3.0052 0.9748
-5.2760 1.9648 -3.0055 0.9748
-5.6085 0.5012 -3.0060 0.9748
-5.4119 0.0000 -3.0058 0.9755
-5.3260 -0.9595 -3.0057 0.9755
-5.0710 -1.8884 -3.0054 0.9755
-4.8824 -2.3321 -3.0051 0.9755
-4.6550 -2.7571 -3.0048 0.9755
-4.3906 -3.1602 -3.0045 0.9756
-4.0914 -3.5379 -3.0041 0.9756
-3.7597 -3.8875 -3.0037 0.9756
-3.0099 -4.4910 -3.0027 0.9756
-2.5977 -4.7403 -3.0021 0.9756
-2.1651 -4.9517 -3.0016 0.9756
-1.2523 -5.2550 -3.0004 0.9756
-0.7795 -5.3445 -2.9997 0.9756
-0.3006 -5.3915 -2.9991 0.9756
0.1804 -5.3957 -2.9984 0.9756
1.1337 -5.2760 -2.9972 0.9756
2.0504 -4.9893 -2.9959 0.9756
2.9014 -4.5449 -2.9948 0.9756
3.9971 -3.6151 -2.9933 0.9756
4.3024 -3.2446 -2.9928 0.9756
4.5735 -2.8484 -2.9925 0.9756
4.8084 -2.4297 -2.9921 0.9757
5.3206 0.8366 -2.9913 0.9757
5.2252 1.3069 -2.9915 0.9757
5.0884 1.7669 -2.9916 0.9757
4.6953 2.6416 -2.9921 0.9757
4.4421 3.0493 -2.9924 0.9756
3.1004 4.4104 -2.9942 0.9756
2.6960 4.6697 -2.9947 0.9756
1.7333 4.8177 -2.8436 0.9768
1.2979 4.9539 -2.8442 0.9768
0.8520 5.0508 -2.8448 0.9768
0.3991 5.1077 -2.8454 0.9768
-0.5130 5.0997 -2.8466 0.9768
-1.4105 4.9329 -2.8495 0.9768
-1.8433 4.7860 -2.8484 0.9768
-4.5270 2.9615 -3.0045 0.9756
-4.7732 2.5471 -3.0048 0.9755
-4.9814 2.1123 -3.0051 0.9755
-5.2778 1.1958 -3.0055 0.9755
-5.4065 0.2411 -3.0057 0.9755
-5.3636 -0.7213 -3.0057 0.9755
-5.2779 -1.1958 -3.0056 0.9755
-5.1503 -1.6607 -3.0055 0.9755
-4.9817 -2.1124 -3.0053 0.9755
-4.2452 -3.3524 -3.0043 0.9756
-3.9295 -3.7164 -3.0039 0.9756
-3.5825 -4.0508 -3.0034 0.9756
-2.8066 -4.6203 -3.0024 0.9756
-2.3838 -4.8508 -3.0019 0.9756
-1.9422 -5.0427 -3.0013 0.9756
-0.5406 -5.3733 -2.9994 0.9756
2.2704 -4.8925 -2.9956 0.9756
2.6963 -4.6701 -2.9950 0.9756
3.1007 -4.4108 -2.9945 0.9756
4.4423 -3.0495 -2.9926 0.9756
4.6956 -2.6417 -2.9923 0.9756
5.0886 -1.7669 -2.9917 0.9757
5.2254 -1.3069 -2.9915 0.9757
5.3207 -0.8366 -2.9914 0.9757
5.3845 0.1200 -2.9913 0.9757
5.3525 0.5988 -2.9913 0.9757
5.1619 1.5384 -2.9915 0.9757
5.0049 1.9919 -2.9917 0.9757
4.8081 2.4296 -2.9920 0.9757
1.0760 5.0073 -2.8445 0.9768
-0.7398 5.0723 -2.8469 0.9768
-1.1885 4.9874 -2.8475 0.9768
-1.6281 4.8628 -2.8481 0.9768
-2.0829 4.7638 -2.8876 0.9765
-2.5975 4.7398 -3.0018 0.9756
-3.3979 4.2057 -3.0029 0.9756
-4.0911 3.5377 -3.0039 0.9756
-4.3903 3.1600 -3.0043 0.9756
-4.6547 2.7570 -3.0047 0.9756
-4.8822 2.3321 -3.0050 0.9755
-5.0708 1.8884 -3.0052 0.9755
-5.2191 1.4297 -3.0055 0.9755
-5.1230 -0.9229 -3.0054 0.9762
-4.6964 -2.2432 -3.0049 0.9762
-4.4776 -2.6521 -3.0046 0.9762
-4.2233 -3.0397 -3.0043 0.9763
-3.2688 -4.0459 -3.0030 0.9763
-2.8953 -4.3200 -3.0025 0.9763
-2.4988 -4.5598 -3.0020 0.9763
-2.0827 -4.7632 -3.0015 0.9763
-1.6502 -4.9288 -3.0009 0.9763
-1.2047 -5.0551 -3.0003 0.9763
-0.2892 -5.1864 -2.9991 0.9763
0.1736 -5.1905 -2.9984 0.9763
1.0906 -5.0754 -2.9972 0.9763
1.5378 -4.9572 -2.9966 0.9763
1.9725 -4.7997 -2.9960 0.9763
3.5211 -3.8069 -2.9939 0.9763
4.8152 -1.9163 -2.9921 0.9763
5.1495 -0.5760 -2.9916 0.9764
5.1803 -0.1154 -2.9916 0.9764
5.1700 0.3461 -2.9916 0.9764
4.8954 1.6999 -2.9919 0.9763
4.7250 2.1290 -2.9921 0.9763
4.5171 2.5413 -2.9924 0.9763
3.9959 3.3027 -2.9930 0.9763
3.6866 3.6458 -2.9934 0.9763
3.3479 3.9600 -2.9939 0.9763
2.9827 4.2430 -2.9944 0.9763
2.5936 4.4923 -2.9949 0.9763
2.1839 4.7062 -2.9954 0.9763
1.7093 4.7511 -2.9151 0.9769
1.2505 4.7731 -2.8487 0.9775
0.3839 4.9135 -2.8454 0.9775
-0.0549 4.9292 -2.8460 0.9775
-0.4935 4.9057 -2.8466 0.9775
-1.3626 4.7672 -2.8627 0.9774
-1.8307 4.7534 -2.9409 0.9767
-3.4458 3.8963 -3.0030 0.9763
-3.7795 3.5747 -3.0035 0.9763
-4.0832 3.2245 -3.0039 0.9763
-4.7916 2.0318 -3.0049 0.9762
-4.9538 1.5974 -3.0051 0.9762
-5.0766 1.1502 -3.0053 0.9762
-5.1591 0.6939 -3.0054 0.9762
-5.2005 -0.2319 -3.0055 0.9762
-4.9540 -1.5974 -3.0052 0.9762
-4.7918 -2.0319 -3.0050 0.9762
-4.5916 -2.4501 -3.0047 0.9762
-4.0835 -3.2247 -3.0041 0.9763
-3.7798 -3.5748 -3.0037 0.9763
-1.8683 -4.8508 -3.0012 0.9763
-0.9782 -5.1032 -3.0000 0.9763
0.4045 -5.1771 -2.9981 0.9763
0.8636 -5.1195 -2.9975 0.9763
1.3155 -5.0213 -2.9969 0.9763
2.1841 -4.7066 -2.9957 0.9763
2.5939 -4.4927 -2.9952 0.9763
3.3482 -3.9603 -2.9941 0.9763
3.9962 -3.3029 -2.9933 0.9763
4.5174 -2.5414 -2.9925 0.9763
4.7252 -2.1291 -2.9922 0.9763
4.8956 -1.6999 -2.9920 0.9763
4.9661 1.4801 -2.9918 0.9763
4.8149 1.9163 -2.9920 0.9763
4.6256 2.3375 -2.9922 0.9763
4.3997 2.7402 -2.9925 0.9763
4.1388 3.1212 -2.9929 0.9763
2.7910 4.3720 -2.9946 0.9763
2.3912 4.6039 -2.9951 0.9763
1.4761 4.7587 -2.8765 0.9773
-0.2748 4.9288 -2.8501 0.9775
-0.7116 4.8794 -2.8469 0.9775
-2.0746 4.7449 -2.9898 0.9764
-2.8950 4.3197 -3.0022 0.9763
-3.6162 3.7392 -3.0032 0.9763
-3.9353 3.4030 -3.0037 0.9763
-4.2231 3.0396 -3.0041 0.9763
-4.4774 2.6520 -3.0044 0.9763
-4.6961 2.2432 -3.0047 0.9762
-4.8776 1.8164 -3.0050 0.9762
-5.1229 0.9230 -3.0053 0.9762
-5.1849 0.4633 -3.0054 0.9762
