ply
format ascii 1.0
element vertex 1512
property float32 x
property float32 y
property float32 z
property float32 I
end_header
-3.6026 7.3310 1.3007 0.9675
-3.5989 7.3236 1.1607 0.9676
9.3699 -6.4321 1.4242 0.9552
9.4514 -5.8864 1.2077 0.9562
9.1343 -6.2704 1.2017 0.9564
10.0320 -5.6439 1.2485 0.9547
8.8196 -6.6512 1.0127 0.9566
9.2819 -5.7808 1.0025 0.9570
-3.5881 7.3015 0.7458 0.9678
8.9141 -7.3677 1.0602 0.9546
8.9809 -6.1651 0.9987 0.9572
9.1504 -5.6989 0.8078 0.9577
-3.5845 7.2943 0.6091 0.9679
8.6850 -7.1783 0.8444 0.9558
9.6003 -5.4011 0.8255 0.9568
8.5986 -6.4845 0.6273 0.9578
9.0617 -5.6437 0.6218 0.9581
10.2033 -5.1560 0.6658 0.9552
8.5705 -7.0837 0.6476 0.9564
8.7789 -6.0264 0.6202 0.9582
8.8239 -7.9807 0.4947 0.9535
8.9918 -5.6002 0.4405 0.9585
10.0421 -5.0745 0.4678 0.9560
-3.5774 7.2798 0.3373 0.9680
8.4716 -7.0020 0.4570 0.9570
8.7116 -5.9802 0.4394 0.9586
8.4816 -6.3963 0.2649 0.9584
8.9459 -5.5716 0.2628 0.9587
9.3500 -5.2602 0.2675 0.9580
8.5487 -7.7319 0.0958 0.9549
8.3592 -6.9091 0.0901 0.9575
8.6306 -5.9246 0.0870 0.9590
9.3028 -5.2337 0.0887 0.9582
8.5076 -7.6947 -0.0953 0.9552
8.8933 -5.5388 -0.0871 0.9590
9.8618 -4.9834 -0.0918 0.9568
8.3422 -6.8950 -0.0900 0.9576
8.6164 -5.9149 -0.0869 0.9591
8.8788 -5.5297 -0.2609 0.9590
8.6023 -5.9052 -0.2602 0.9591
8.8934 -5.5389 -0.4356 0.9589
9.8656 -4.9853 -0.4596 0.9567
9.2859 -5.2242 -0.4430 0.9582
8.5708 -7.7518 -0.6731 0.9548
8.3614 -6.9109 -0.6318 0.9575
8.6307 -5.9246 -0.6097 0.9589
8.4842 -6.3983 -0.7963 0.9583
8.9474 -5.5725 -0.7899 0.9586
9.9656 -5.0359 -0.8368 0.9562
8.4189 -6.9584 -0.8185 0.9571
9.3549 -5.2630 -0.8044 0.9579
8.9944 -5.6017 -0.9714 0.9583
10.0679 -5.0876 -1.0342 0.9557
9.4128 -5.2956 -0.9901 0.9575
9.0692 -5.6484 -1.1589 0.9579
10.2558 -5.1825 -1.2464 0.9548
-3.5523 7.2287 -0.8736 0.9681
8.5941 -7.1032 -1.2094 0.9561
9.5107 -5.3506 -1.1836 0.9570
9.1616 -5.7059 -1.3526 0.9574
8.7313 -7.2166 -1.4195 0.9554
8.8526 -6.6760 -1.5771 0.9562
9.3083 -5.7973 -1.5598 0.9567
9.0056 -7.4434 -1.6618 0.9539
9.5115 -5.9238 -1.7843 0.9556
-3.5514 7.2268 -1.2822 0.9679
9.1858 -6.3057 -1.7742 0.9559
10.1893 -5.7324 -1.8617 0.9537
9.5049 -6.5248 -2.0329 0.9543
-3.5508 7.2256 -1.5580 0.9677
-3.5505 7.2250 -1.6971 0.9676
-14.2857 0.0000 -3.2606 0.9431
-14.2290 -1.2715 -3.2606 0.9431
-14.0593 -2.5329 -3.2606 0.9431
-13.3875 -4.9855 -3.2606 0.9431
-11.5946 -8.3453 -3.2606 0.9431
-7.9532 -11.8670 -3.2606 0.9431
-6.8654 -12.5278 -3.2606 0.9431
-3.3117 -13.8965 -3.2606 0.9431
-2.0617 -14.1361 -3.2606 0.9431
0.4774 -14.2777 -3.2606 0.9431
4.2325 -13.6442 -3.2606 0.9431
5.4301 -13.2134 -3.2606 0.9431
7.6869 -12.0413 -3.2606 0.9431
8.7281 -11.3093 -3.2606 0.9431
9.7000 -10.4876 -3.2606 0.9431
12.1262 -7.5522 -3.2606 0.9431
12.7502 -6.4429 -3.2606 0.9431
13.2731 -5.2826 -3.2606 0.9431
13.9994 -2.8455 -3.2606 0.9431
14.1971 -1.5882 -3.2606 0.9431
14.2538 0.9542 -3.2606 0.9431
14.1123 2.2191 -3.2606 0.9431
7.8316 11.1406 -3.1082 0.9457
6.8090 11.7935 -3.1082 0.9457
4.6101 12.8139 -3.1082 0.9457
3.4513 13.1734 -3.1082 0.9457
2.2651 13.4283 -3.1082 0.9457
-0.1517 13.6171 -3.1082 0.9457
-1.3631 13.5496 -3.1082 0.9457
-2.5637 13.3745 -3.1082 0.9457
-3.7439 13.0932 -3.1082 0.9457
-7.0700 11.6389 -3.1082 0.9457
-9.8938 9.3575 -3.1082 0.9457
-10.6874 8.4397 -3.1082 0.9457
-11.3961 7.4550 -3.1082 0.9457
-12.0144 6.4111 -3.1082 0.9457
-12.5374 5.3163 -3.1082 0.9457
-13.5963 4.3842 -3.2606 0.9431
-13.9325 3.1567 -3.2606 0.9431
-13.9325 -3.1567 -3.2606 0.9431
-12.6035 -6.7254 -3.2606 0.9431
-11.2114 -8.8535 -3.2606 0.9431
-10.3789 -9.8162 -3.2606 0.9431
-8.4740 -11.5010 -3.2606 0.9431
-6.3005 -12.8212 -3.2606 0.9431
-3.9275 -13.7352 -3.2606 0.9431
-2.6894 -14.0302 -3.2606 0.9431
1.1129 -14.2422 -3.2606 0.9431
2.3761 -14.0867 -3.2606 0.9431
3.6205 -13.8193 -3.2606 0.9431
4.8361 -13.4422 -3.2606 0.9431
6.0133 -12.9584 -3.2606 0.9431
7.1428 -12.3718 -3.2606 0.9431
8.2156 -11.6869 -3.2606 0.9431
9.2232 -10.9093 -3.2606 0.9431
11.0113 -9.1011 -3.2606 0.9431
13.0246 -5.8686 -3.2606 0.9431
13.8587 -3.4663 -3.2606 0.9431
14.2538 -0.9542 -3.2606 0.9431
14.2821 0.3183 -3.2606 0.9431
14.1971 1.5882 -3.2606 0.9431
13.9994 2.8455 -3.2606 0.9431
13.6906 4.0803 -3.2606 0.9431
12.6527 5.0356 -3.1082 0.9457
11.5594 7.1993 -3.1082 0.9457
10.8727 8.1996 -3.1082 0.9457
10.0998 9.1347 -3.1082 0.9457
9.2467 9.9974 -3.1082 0.9457
8.3201 10.7807 -3.1082 0.9457
6.2769 12.0851 -3.1082 0.9457
5.1763 12.5958 -3.1082 0.9457
4.0347 13.0066 -3.1082 0.9457
0.4551 13.6104 -3.1082 0.9457
-0.7582 13.5969 -3.1082 0.9457
-3.1569 13.2470 -3.1082 0.9457
-5.4556 12.4774 -3.1082 0.9457
-6.5445 11.9423 -3.1082 0.9457
-7.5815 11.3124 -3.1082 0.9457
-9.4671 9.7889 -3.1082 0.9457
-11.7169 6.9400 -3.1082 0.9457
-12.2881 5.8696 -3.1082 0.9457
-12.8905 4.8005 -3.1396 0.9451
-13.7781 3.7742 -3.2606 0.9431
-13.2126 -1.1807 -3.2606 0.9468
-13.0551 -2.3520 -3.2606 0.9468
-11.4135 -6.7602 -3.2606 0.9468
-6.3751 -11.6330 -3.2606 0.9468
-3.0752 -12.9039 -3.2606 0.9468
-0.7385 -13.2447 -3.2606 0.9468
2.7870 -12.9693 -3.2606 0.9468
5.0423 -12.2696 -3.2606 0.9468
6.1143 -11.7721 -3.2606 0.9468
10.5912 -7.9872 -3.2606 0.9468
11.2600 -7.0128 -3.2606 0.9468
11.8395 -5.9827 -3.2606 0.9468
12.9995 -2.6422 -3.2606 0.9468
13.2620 -0.2955 -3.2606 0.9468
13.2357 0.8860 -3.2606 0.9468
11.5290 5.1947 -3.1082 0.9492
9.7470 8.0561 -3.1082 0.9492
8.9912 8.8916 -3.1082 0.9492
8.1641 9.6566 -3.1082 0.9492
5.3228 11.4704 -3.1082 0.9492
4.2808 11.8987 -3.1082 0.9492
2.1033 12.4692 -3.1082 0.9492
0.9851 12.6069 -3.1082 0.9492
-1.2657 12.5818 -3.1082 0.9492
-2.3806 12.4192 -3.1082 0.9492
-4.5448 11.8003 -3.1082 0.9492
-6.5651 10.8076 -3.1082 0.9492
-7.5009 10.1803 -3.1082 0.9492
-8.3773 9.4723 -3.1082 0.9492
-11.6419 4.9366 -3.1082 0.9492
-12.6251 4.0711 -3.2606 0.9468
-12.9374 2.9312 -3.2606 0.9468
-13.1469 1.7681 -3.2606 0.9468
-13.2521 0.5909 -3.2606 0.9468
-13.2521 -0.5909 -3.2606 0.9468
-12.9374 -2.9312 -3.2606 0.9468
-12.6251 -4.0711 -3.2606 0.9468
-11.1010 -7.2619 -3.2606 0.9468
-9.6376 -9.1151 -3.2606 0.9468
-8.7880 -9.9367 -3.2606 0.9468
-7.8687 -10.6795 -3.2606 0.9468
-6.8869 -11.3374 -3.2606 0.9468
-3.6469 -12.7541 -3.2606 0.9468
-2.4973 -13.0281 -3.2606 0.9468
-1.3278 -13.1986 -3.2606 0.9468
3.3619 -12.8322 -3.2606 0.9468
4.4907 -12.4821 -3.2606 0.9468
5.5838 -12.0328 -3.2606 0.9468
6.6327 -11.4880 -3.2606 0.9468
11.5613 -6.5042 -3.2606 0.9468
12.8689 -3.2187 -3.2606 0.9468
13.1831 1.4747 -3.2606 0.9468
12.9995 2.6423 -3.2606 0.9468
11.2861 5.7031 -3.1082 0.9492
10.7337 6.6851 -3.1082 0.9492
9.3784 8.4823 -3.1082 0.9492
8.5862 9.2833 -3.1082 0.9492
7.7259 10.0107 -3.1082 0.9492
4.8066 11.6962 -3.1082 0.9492
3.7465 12.0775 -3.1082 0.9492
2.6567 12.3631 -3.1082 0.9492
1.5457 12.5505 -3.1082 0.9492
0.4226 12.6382 -3.1082 0.9492
-1.8250 12.5129 -3.1082 0.9492
-2.9314 12.3008 -3.1082 0.9492
-4.0146 11.9911 -3.1082 0.9492
-5.0660 11.5862 -3.1082 0.9492
-7.0400 10.5044 -3.1082 0.9492
-8.7909 9.0897 -3.1082 0.9492
-9.5651 8.2712 -3.1082 0.9492
-10.2633 7.3871 -3.1082 0.9492
-10.8800 6.4443 -3.1082 0.9492
-11.4104 5.4503 -3.1082 0.9492
-12.4312 4.6295 -3.2606 0.9468
-12.7940 3.5046 -3.2606 0.9468
-13.2126 1.1807 -3.2606 0.9468
-12.3742 0.0000 -3.2606 0.9501
-12.3251 -1.1014 -3.2606 0.9501
-12.1782 -2.1940 -3.2606 0.9501
-11.5962 -4.3185 -3.2606 0.9501
-10.0433 -7.2287 -3.2606 0.9501
-6.8891 -10.2792 -3.2606 0.9501
-3.9286 -11.7340 -3.2606 0.9501
-1.7858 -12.2446 -3.2606 0.9501
-0.6889 -12.3550 -3.2606 0.9501
1.5126 -12.2814 -3.2606 0.9501
3.6662 -11.8186 -3.2606 0.9501
4.7035 -11.4454 -3.2606 0.9501
5.7036 -10.9814 -3.2606 0.9501
6.6583 -10.4301 -3.2606 0.9501
9.1774 -8.3004 -3.2606 0.9501
10.5037 -6.5417 -3.2606 0.9501
11.0442 -5.5809 -3.2606 0.9501
11.8587 -3.5343 -3.2606 0.9501
12.1263 -2.4648 -3.2606 0.9501
12.2975 -1.3757 -3.2606 0.9501
12.3466 0.8265 -3.2606 0.9501
12.2240 1.9221 -3.2606 0.9501
10.7546 4.8458 -3.1082 0.9524
10.2806 5.7838 -3.1082 0.9524
9.0922 7.5149 -3.1082 0.9524
7.6157 9.0079 -3.1082 0.9524
5.8979 10.2155 -3.1082 0.9524
4.9653 10.6999 -3.1082 0.9524
2.9895 11.4107 -3.1082 0.9524
1.9620 11.6315 -3.1082 0.9524
-0.1314 11.7951 -3.1082 0.9524
-4.2395 11.0077 -3.1082 0.9524
-3.5495 7.2230 -2.1207 0.9673
-6.1241 10.0816 -3.1082 0.9524
-6.9971 9.4965 -3.1082 0.9524
-7.8145 8.8360 -3.1082 0.9524
-9.2574 7.3105 -3.1082 0.9524
-9.8713 6.4575 -3.1082 0.9524
-10.4069 5.5533 -3.1082 0.9524
-11.2734 4.7803 -3.2266 0.9506
-12.0683 2.7343 -3.2606 0.9501
-12.3619 0.5512 -3.2606 0.9501
-12.3619 -0.5512 -3.2606 0.9501
-12.2638 -1.6493 -3.2606 0.9501
-12.0683 -2.7343 -3.2606 0.9501
-11.7771 -3.7976 -3.2606 0.9501
-8.9902 -8.5028 -3.2606 0.9501
-8.1977 -9.2693 -3.2606 0.9501
-5.4575 -11.1057 -3.2606 0.9501
-4.4474 -11.5473 -3.2606 0.9501
0.9640 -12.3366 -3.2606 0.9501
2.0582 -12.2018 -3.2606 0.9501
4.1890 -11.6436 -3.2606 0.9501
5.2087 -11.2246 -3.2606 0.9501
7.1164 -10.1232 -3.2606 0.9501
8.7985 -8.7010 -3.2606 0.9501
9.5380 -7.8834 -3.2606 0.9501
10.2018 -7.0032 -3.2606 0.9501
10.7846 -6.0673 -3.2606 0.9501
11.2819 -5.0833 -3.2606 0.9501
12.0044 -3.0025 -3.2606 0.9501
12.3711 0.2757 -3.2606 0.9501
12.1263 2.4647 -3.2606 0.9501
10.0127 6.2360 -3.1082 0.9524
8.0094 8.6597 -3.1082 0.9524
5.4370 10.4681 -3.1082 0.9524
4.4837 10.9105 -3.1082 0.9524
3.4948 11.2662 -3.1082 0.9524
-2.7345 11.4745 -3.1082 0.9524
-6.5671 9.7987 -3.1082 0.9524
-7.4131 9.1754 -3.1082 0.9524
-8.9225 7.7156 -3.1082 0.9524
-9.5738 6.8909 -3.1082 0.9524
-10.1492 6.0114 -3.1082 0.9524
-11.5962 4.3185 -3.2606 0.9501
-12.1782 2.1940 -3.2606 0.9501
-11.5889 0.0000 -3.2606 0.9530
-10.8603 -4.0444 -3.2606 0.9530
-9.4059 -6.7699 -3.2606 0.9530
-8.7660 -7.5802 -3.2606 0.9530
-8.0565 -8.3304 -3.2606 0.9530
-5.5694 -10.1629 -3.2606 0.9530
-3.6792 -10.9893 -3.2606 0.9530
-0.6452 -11.5709 -3.2606 0.9530
1.4166 -11.5020 -3.2606 0.9530
2.4347 -11.3303 -3.2606 0.9530
4.4050 -10.7190 -3.2606 0.9530
6.2358 -9.7682 -3.2606 0.9530
7.8689 -8.5078 -3.2606 0.9530
8.5949 -7.7736 -3.2606 0.9530
9.2527 -6.9778 -3.2606 0.9530
10.3433 -5.2267 -3.2606 0.9530
11.3567 -2.3084 -3.2606 0.9530
11.5171 -1.2884 -3.2606 0.9530
11.4482 1.8001 -3.2606 0.9530
10.4851 4.7244 -3.2357 0.9533
9.6281 5.4167 -3.1082 0.9551
9.1078 6.2521 -3.1082 0.9551
7.8550 7.7679 -3.1082 0.9551
7.1324 8.4362 -3.1082 0.9551
6.3532 9.0376 -3.1082 0.9551
5.5236 9.5672 -3.1082 0.9551
4.6502 10.0209 -3.1082 0.9551
3.7398 10.3950 -3.1082 0.9551
2.7998 10.6866 -3.1082 0.9551
0.8606 11.0137 -3.1082 0.9551
-0.1231 11.0466 -3.1082 0.9551
-2.0797 10.8497 -3.1082 0.9551
-3.9705 10.3091 -3.1082 0.9551
-3.5492 7.2224 -2.2642 0.9671
-7.3186 8.2753 -3.1082 0.9551
-8.6699 6.8465 -3.1082 0.9551
-9.2448 6.0477 -3.1082 0.9551
-9.7464 5.2008 -3.1082 0.9551
-11.3024 2.5608 -3.2606 0.9530
-11.4855 1.5447 -3.2606 0.9530
-11.5774 0.5163 -3.2606 0.9530
-11.4855 -1.5446 -3.2606 0.9530
-11.3024 -2.5608 -3.2606 0.9530
-10.6693 -4.5242 -3.2606 0.9530
-9.6981 -6.3442 -3.2606 0.9530
-9.0950 -7.1822 -3.2606 0.9530
-8.4196 -7.9632 -3.2606 0.9530
-5.1112 -10.4009 -3.2606 0.9530
-4.1651 -10.8145 -3.2606 0.9530
-3.1861 -11.1423 -3.2606 0.9530
0.9028 -11.5537 -3.2606 0.9530
1.9276 -11.4274 -3.2606 0.9530
2.9370 -11.2105 -3.2606 0.9530
3.9232 -10.9046 -3.2606 0.9530
5.7944 -10.0363 -3.2606 0.9530
6.6647 -9.4807 -3.2606 0.9530
7.4821 -8.8499 -3.2606 0.9530
9.5544 -6.5587 -3.2606 0.9530
10.1002 -5.6823 -3.2606 0.9530
10.5659 -4.7608 -3.2606 0.9530
11.2426 -2.8120 -3.2606 0.9530
11.4482 -1.8002 -3.2606 0.9530
11.5630 -0.7740 -3.2606 0.9530
11.5860 0.2582 -3.2606 0.9530
9.8599 4.9824 -3.1082 0.9551
9.3773 5.8402 -3.1082 0.9551
8.8202 6.6517 -3.1082 0.9551
7.5011 8.1101 -3.1082 0.9551
6.7495 8.7456 -3.1082 0.9551
5.9443 9.3116 -3.1082 0.9551
0.3692 11.0411 -3.1082 0.9551
-0.6150 11.0301 -3.1082 0.9551
-1.5943 10.9316 -3.1082 0.9551
-3.5073 10.4757 -3.1082 0.9551
-6.1503 9.1769 -3.1082 0.9551
-6.9427 8.5931 -3.1082 0.9551
-7.6799 7.9410 -3.1082 0.9551
-8.3563 7.2260 -3.1082 0.9551
-8.9662 6.4535 -3.1082 0.9551
-11.1771 3.0618 -3.2606 0.9530
-11.4053 2.0548 -3.2606 0.9530
-11.5429 1.0315 -3.2606 0.9530
-10.8480 -0.9694 -3.2606 0.9555
-10.2064 -3.8009 -3.2606 0.9555
-9.8276 -4.6943 -3.2606 0.9555
-9.3708 -5.5503 -3.2606 0.9555
-8.8396 -6.3624 -3.2606 0.9555
-8.2382 -7.1239 -3.2606 0.9555
-7.5715 -7.8288 -3.2606 0.9555
-6.8446 -8.4717 -3.2606 0.9555
-3.4577 -10.3277 -3.2606 0.9555
2.2881 -10.6481 -3.2606 0.9555
4.1398 -10.0737 -3.2606 0.9555
6.6542 -8.6221 -3.2606 0.9555
7.3952 -7.9955 -3.2606 0.9555
8.6957 -6.5577 -3.2606 0.9555
9.2448 -5.7577 -3.2606 0.9555
9.7206 -4.9120 -3.2606 0.9555
10.1192 -4.0273 -3.2606 0.9555
10.6729 -2.1694 -3.2606 0.9555
10.8885 -0.2426 -3.2606 0.9555
10.8669 0.7275 -3.2606 0.9555
10.7590 1.6918 -3.2606 0.9555
9.0485 5.0906 -3.1082 0.9576
6.7030 7.9284 -3.1082 0.9576
5.9707 8.4935 -3.1082 0.9576
5.1911 8.9912 -3.1082 0.9576
4.3702 9.4175 -3.1082 0.9576
3.5147 9.7691 -3.1082 0.9576
2.6312 10.0432 -3.1082 0.9576
0.8088 10.3506 -3.1082 0.9576
-0.1157 10.3815 -3.1082 0.9576
-3.7314 9.6884 -3.1082 0.9576
-6.1585 8.3584 -3.1082 0.9576
-6.8780 7.7771 -3.1082 0.9576
-7.5429 7.1340 -3.1082 0.9576
-8.1479 6.4343 -3.1082 0.9576
-8.6882 5.6836 -3.1082 0.9576
-10.0270 4.2518 -3.2606 0.9555
-10.7940 1.4517 -3.2606 0.9555
-10.8804 0.4852 -3.2606 0.9555
-10.8804 -0.4852 -3.2606 0.9555
-10.6220 -2.4066 -3.2606 0.9555
-9.6087 -5.1274 -3.2606 0.9555
-9.1142 -5.9623 -3.2606 0.9555
-7.2152 -8.1584 -3.2606 0.9555
-4.8034 -9.7747 -3.2606 0.9555
-2.0503 -10.6964 -3.2606 0.9555
0.8485 -10.8581 -3.2606 0.9555
3.6870 -10.2481 -3.2606 0.9555
6.2635 -8.9099 -3.2606 0.9555
7.0317 -8.3171 -3.2606 0.9555
7.7440 -7.6582 -3.2606 0.9555
9.4921 -5.3402 -3.2606 0.9555
10.2886 -3.5726 -3.2606 0.9555
10.8885 0.2427 -3.2606 0.9555
10.8237 1.2108 -3.2606 0.9555
10.6729 2.1694 -3.2606 0.9555
10.4375 3.1107 -3.2606 0.9555
10.1192 4.0273 -3.2606 0.9555
8.2892 6.2512 -3.1082 0.9576
7.6999 6.9642 -3.1082 0.9576
7.0495 7.6219 -3.1082 0.9576
6.3432 8.2191 -3.1082 0.9576
5.5865 8.7510 -3.1082 0.9576
4.7854 9.2136 -3.1082 0.9576
3.0760 9.9160 -3.1082 0.9576
1.2691 10.3043 -3.1082 0.9576
0.3469 10.3763 -3.1082 0.9576
-0.5780 10.3660 -3.1082 0.9576
-3.2961 9.8450 -3.1082 0.9576
-5.7800 8.6244 -3.1082 0.9576
-10.2064 3.8009 -3.2606 0.9555
-10.5042 2.8774 -3.2606 0.9555
-10.8480 0.9694 -3.2606 0.9555
-10.2669 0.0000 -3.2606 0.9578
-9.6214 -3.5830 -3.2606 0.9578
-8.8337 -5.2322 -3.2606 0.9578
-8.3329 -5.9976 -3.2606 0.9578
-7.7660 -6.7155 -3.2606 0.9578
-5.7159 -8.5287 -3.2606 0.9578
-4.9341 -9.0036 -3.2606 0.9578
-3.2595 -9.7357 -3.2606 0.9578
-2.3801 -9.9872 -3.2606 0.9578
-0.5716 -10.2509 -3.2606 0.9578
0.3431 -10.2612 -3.2606 0.9578
2.1570 -10.0378 -3.2606 0.9578
4.7323 -9.1112 -3.2606 0.9578
6.2727 -8.1278 -3.2606 0.9578
6.9713 -7.5373 -3.2606 0.9578
9.8392 -2.9324 -3.2606 0.9578
10.0612 -2.0450 -3.2606 0.9578
10.2032 -1.1414 -3.2606 0.9578
9.9601 2.4912 -3.2606 0.9578
9.6988 3.3678 -3.2606 0.9578
6.9589 6.8818 -3.1082 0.9598
4.8935 8.4758 -3.1082 0.9598
4.1197 8.8777 -3.1082 0.9598
3.3132 9.2092 -3.1082 0.9598
1.6279 9.6507 -3.1082 0.9598
0.7624 9.7573 -3.1082 0.9598
-0.1090 9.7864 -3.1082 0.9598
-0.9796 9.7379 -3.1082 0.9598
-1.8425 9.6120 -3.1082 0.9598
-2.6907 9.4099 -3.1082 0.9598
-6.4837 7.3313 -3.1082 0.9598
-7.1105 6.7251 -3.1082 0.9598
-8.1902 5.3578 -3.1082 0.9598
-8.9493 4.7755 -3.2215 0.9583
-10.1753 1.3685 -3.2606 0.9578
-10.2567 0.4574 -3.2606 0.9578
-10.2567 -0.4573 -3.2606 0.9578
-10.1753 -1.3684 -3.2606 0.9578
-9.4522 -4.0081 -3.2606 0.9578
-8.0575 -6.3629 -3.2606 0.9578
-6.8016 -7.6907 -3.2606 0.9578
-5.3303 -8.7748 -3.2606 0.9578
-4.5281 -9.2144 -3.2606 0.9578
-2.8226 -9.8713 -3.2606 0.9578
-1.9328 -10.0833 -3.2606 0.9578
-0.1144 -10.2662 -3.2606 0.9578
1.7077 -10.1239 -3.2606 0.9578
3.4756 -9.6607 -3.2606 0.9578
5.9045 -8.3992 -3.2606 0.9578
7.9137 -6.5408 -3.2606 0.9578
8.4645 -5.8105 -3.2606 0.9578
8.9480 -5.0341 -3.2606 0.9578
9.3606 -4.2177 -3.2606 0.9578
9.6988 -3.3678 -3.2606 0.9578
9.9601 -2.4912 -3.2606 0.9578
10.1423 -1.5948 -3.2606 0.9578
10.2032 1.1414 -3.2606 0.9578
9.8392 2.9324 -3.2606 0.9578
9.5392 3.7965 -3.2606 0.9578
9.1634 4.6305 -3.2606 0.9578
8.3076 5.1740 -3.1082 0.9598
7.2586 6.5650 -3.1082 0.9598
5.9796 7.7480 -3.1082 0.9598
5.2662 8.2494 -3.1082 0.9598
2.0562 9.5686 -3.1082 0.9598
0.3270 9.7816 -3.1082 0.9598
-0.5449 9.7718 -3.1082 0.9598
-1.4125 9.6846 -3.1082 0.9598
-2.2688 9.5204 -3.1082 0.9598
-3.1072 9.2807 -3.1082 0.9598
-3.9209 8.9673 -3.1082 0.9598
-5.4487 8.1300 -3.1082 0.9598
-7.9434 5.7173 -3.1082 0.9598
-8.4208 4.9877 -3.1082 0.9598
-9.2643 4.4252 -3.2606 0.9578
-9.9021 2.7125 -3.2606 0.9578
-10.1042 1.8204 -3.2606 0.9578
-10.2261 0.9138 -3.2606 0.9578
-9.7047 0.0000 -3.2606 0.9599
-9.6662 -0.8637 -3.2606 0.9599
-9.3599 -2.5639 -3.2606 0.9599
-9.0945 -3.3868 -3.2606 0.9599
-6.0990 -7.5488 -3.2606 0.9599
-3.8879 -8.8919 -3.2606 0.9599
-3.0811 -9.2026 -3.2606 0.9599
-0.5403 -9.6896 -3.2606 0.9599
0.3243 -9.6993 -3.2606 0.9599
2.0389 -9.4881 -3.2606 0.9599
4.4731 -8.6123 -3.2606 0.9599
5.2219 -8.1800 -3.2606 0.9599
5.9293 -7.6828 -3.2606 0.9599
6.5896 -7.1245 -3.2606 0.9599
7.7484 -5.8433 -3.2606 0.9599
8.6616 -4.3769 -3.2606 0.9599
9.0168 -3.5886 -3.2606 0.9599
9.6445 -1.0789 -3.2606 0.9599
9.5869 1.5075 -3.2606 0.9599
9.1677 3.1834 -3.2606 0.9599
8.8480 3.9867 -3.2606 0.9599
7.6270 5.2357 -3.1082 0.9617
7.1307 5.8937 -3.1082 0.9617
3.8941 8.3916 -3.1082 0.9617
1.5387 9.1223 -3.1082 0.9617
-0.1031 9.2506 -3.1082 0.9617
-0.9260 9.2046 -3.1082 0.9617
-3.3249 8.6330 -3.1082 0.9617
-3.4700 7.0612 -2.6434 0.9673
-4.8029 7.9067 -3.1082 0.9617
-6.7211 6.3568 -3.1082 0.9617
-7.2603 5.7334 -3.1082 0.9617
-8.5620 4.5688 -3.2606 0.9599
-9.2364 2.9783 -3.2606 0.9599
-9.4648 2.1445 -3.2606 0.9599
-9.6181 1.2935 -3.2606 0.9599
-9.6951 0.4323 -3.2606 0.9599
-9.6951 -0.4323 -3.2606 0.9599
-9.6181 -1.2935 -3.2606 0.9599
-7.6163 -6.0145 -3.2606 0.9599
-6.4292 -7.2696 -3.2606 0.9599
-5.7566 -7.8129 -3.2606 0.9599
-2.6681 -9.3308 -3.2606 0.9599
-0.9714 -9.6560 -3.2606 0.9599
-0.1081 -9.7041 -3.2606 0.9599
2.4595 -9.3879 -3.2606 0.9599
4.0850 -8.8031 -3.2606 0.9599
6.9004 -6.8239 -3.2606 0.9599
8.0010 -5.4923 -3.2606 0.9599
8.4581 -4.7584 -3.2606 0.9599
9.1677 -3.1834 -3.2606 0.9599
9.4147 -2.3548 -3.2606 0.9599
9.6830 -0.6482 -3.2606 0.9599
9.7023 0.2162 -3.2606 0.9599
9.6445 1.0789 -3.2606 0.9599
9.5102 1.9331 -3.2606 0.9599
9.0168 3.5886 -3.2606 0.9599
8.6616 4.3769 -3.2606 0.9599
7.8527 4.8907 -3.1082 0.9617
6.2816 6.7916 -3.1082 0.9617
5.6521 7.3237 -3.1082 0.9617
4.9779 7.7977 -3.1082 0.9617
4.2641 8.2098 -3.1082 0.9617
3.5164 8.5568 -3.1082 0.9617
0.3091 9.2460 -3.1082 0.9617
-0.5150 9.2368 -3.1082 0.9617
-2.9370 8.7725 -3.1082 0.9617
-3.8303 6.9895 -2.6779 0.9669
-5.1503 7.6849 -3.1082 0.9617
-6.4313 6.6499 -3.1082 0.9617
-7.5085 5.4043 -3.1082 0.9617
-8.0797 4.7856 -3.1551 0.9611
-9.0945 3.3869 -3.2606 0.9599
-9.3599 2.5640 -3.2606 0.9599
-9.5509 1.7207 -3.2606 0.9599
-9.0498 -1.6304 -3.2606 0.9617
-8.8688 -2.4294 -3.2606 0.9617
-8.6174 -3.2092 -3.2606 0.9617
-8.2975 -3.9634 -3.2606 0.9617
-6.3927 -6.6100 -3.2606 0.9617
-5.7790 -7.1527 -3.2606 0.9617
-4.4192 -8.0640 -3.2606 0.9617
-2.1317 -8.9450 -3.2606 0.9617
-1.3271 -9.0992 -3.2606 0.9617
-0.5119 -9.1812 -3.2606 0.9617
1.1240 -9.1266 -3.2606 0.9617
1.9319 -8.9903 -3.2606 0.9617
3.4953 -8.5053 -3.2606 0.9617
5.6182 -7.2797 -3.2606 0.9617
6.8199 -6.1682 -3.2606 0.9617
7.8055 -4.8613 -3.2606 0.9617
8.5437 -3.4003 -3.2606 0.9617
8.8125 -2.6264 -3.2606 0.9617
9.0113 -1.8316 -3.2606 0.9617
9.1750 0.6142 -3.2606 0.9617
8.9207 2.2313 -3.2606 0.9617
8.3838 3.7776 -3.2606 0.9617
8.0143 4.5088 -3.2606 0.9617
6.2327 6.1637 -3.1082 0.9635
5.0411 7.1711 -3.1082 0.9635
2.9674 8.2482 -3.1082 0.9635
-1.6502 8.6090 -3.1082 0.9635
-2.4099 8.4279 -3.1082 0.9635
-3.1505 8.1800 -3.1082 0.9635
-5.1997 7.0571 -3.1082 0.9635
-5.8071 6.5662 -3.1082 0.9635
-6.3685 6.0233 -3.1082 0.9635
-8.7518 2.8221 -3.2606 0.9617
-8.9682 2.0319 -3.2606 0.9617
-9.1135 1.2257 -3.2606 0.9617
-9.1864 -0.4096 -3.2606 0.9617
-9.1135 -1.2256 -3.2606 0.9617
-8.9682 -2.0319 -3.2606 0.9617
-8.7518 -2.8221 -3.2606 0.9617
-8.1127 -4.3291 -3.2606 0.9617
-7.2166 -5.6989 -3.2606 0.9617
-6.6808 -6.3186 -3.2606 0.9617
-6.0919 -6.8882 -3.2606 0.9617
-5.4546 -7.4030 -3.2606 0.9617
-4.7740 -7.8592 -3.2606 0.9617
-4.0556 -8.2529 -3.2606 0.9617
-1.7311 -9.0311 -3.2606 0.9617
-0.9204 -9.1493 -3.2606 0.9617
0.7164 -9.1676 -3.2606 0.9617
1.5295 -9.0674 -3.2606 0.9617
2.3305 -8.8953 -3.2606 0.9617
4.5978 -7.9636 -3.2606 0.9617
5.2883 -7.5227 -3.2606 0.9617
5.9369 -7.0222 -3.2606 0.9617
7.0879 -5.8583 -3.2606 0.9617
7.5812 -5.2042 -3.2606 0.9617
8.0143 -4.5087 -3.2606 0.9617
8.3838 -3.7775 -3.2606 0.9617
8.6867 -3.0163 -3.2606 0.9617
9.1932 0.2049 -3.2606 0.9617
8.8125 2.6264 -3.2606 0.9617
8.2072 4.1473 -3.2606 0.9617
7.6135 4.7418 -3.1804 0.9626
6.5011 5.8799 -3.1082 0.9635
5.9520 6.4352 -3.1082 0.9635
5.3556 6.9394 -3.1082 0.9635
4.7167 7.3886 -3.1082 0.9635
3.3319 8.1078 -3.1082 0.9635
2.5971 8.3722 -3.1082 0.9635
-1.2651 8.6740 -3.1082 0.9635
-2.0321 8.5269 -3.1082 0.9635
-3.5117 8.0315 -3.1082 0.9635
-3.8202 6.9710 -2.8187 0.9668
-6.0939 6.3010 -3.1082 0.9635
-6.6305 5.7336 -3.1082 0.9635
-7.1145 5.1207 -3.1082 0.9635
-8.2975 3.9634 -3.2606 0.9617
-9.1590 0.8185 -3.2606 0.9617
-8.7320 0.0000 -3.2606 0.9634
-8.6973 -0.7772 -3.2606 0.9634
-8.5936 -1.5482 -3.2606 0.9634
-8.4217 -2.3070 -3.2606 0.9634
-7.5130 -4.4499 -3.2606 0.9634
-6.6050 -5.7115 -3.2606 0.9634
-5.4876 -6.7921 -3.2606 0.9634
-2.7722 -8.2802 -3.2606 0.9634
-2.0242 -8.4941 -3.2606 0.9634
-1.2602 -8.6405 -3.2606 0.9634
0.2918 -8.7271 -3.2606 0.9634
2.5871 -8.3399 -3.2606 0.9634
4.0248 -7.7491 -3.2606 0.9634
5.9290 -6.4104 -3.2606 0.9634
6.9716 -5.2576 -3.2606 0.9634
8.1130 -3.2289 -3.2606 0.9634
8.5570 -1.7393 -3.2606 0.9634
8.6778 -0.9707 -3.2606 0.9634
8.7298 -0.1945 -3.2606 0.9634
8.7125 0.5832 -3.2606 0.9634
8.6260 1.3564 -3.2606 0.9634
7.6103 4.2815 -3.2606 0.9634
6.9222 4.7518 -3.1353 0.9648
5.9185 5.8529 -3.1082 0.9651
4.7870 6.8096 -3.1082 0.9651
4.1619 7.2086 -3.1082 0.9651
3.5038 7.5504 -3.1082 0.9651
2.1095 8.0521 -3.1082 0.9651
1.3845 8.2079 -3.1082 0.9651
0.6485 8.2985 -3.1082 0.9651
-0.0927 8.3233 -3.1082 0.9651
-0.8332 8.2820 -3.1082 0.9651
-2.2884 8.0031 -3.1082 0.9651
-2.9916 7.7676 -3.1082 0.9651
-3.4426 7.0055 -2.9147 0.9672
-4.9375 6.7013 -3.1082 0.9651
-5.5144 6.2352 -3.1082 0.9651
-7.2854 4.7659 -3.2508 0.9635
-8.5161 1.9295 -3.2606 0.9634
-8.6540 1.1639 -3.2606 0.9634
-8.7233 -0.3890 -3.2606 0.9634
-8.5161 -1.9295 -3.2606 0.9634
-8.3106 -2.6798 -3.2606 0.9634
-7.7038 -4.1109 -3.2606 0.9634
-6.8528 -5.4116 -3.2606 0.9634
-6.3440 -6.0001 -3.2606 0.9634
-5.7848 -6.5409 -3.2606 0.9634
-3.1383 -8.1485 -3.2606 0.9634
-2.4006 -8.3955 -3.2606 0.9634
-1.6439 -8.5758 -3.2606 0.9634
2.2130 -8.4468 -3.2606 0.9634
3.6756 -7.9207 -3.2606 0.9634
5.0217 -7.1435 -3.2606 0.9634
5.6376 -6.6681 -3.2606 0.9634
6.2087 -6.1399 -3.2606 0.9634
7.6103 -4.2815 -3.2606 0.9634
7.9611 -3.5871 -3.2606 0.9634
8.4710 -2.1187 -3.2606 0.9634
8.7125 -0.5832 -3.2606 0.9634
8.7298 0.1946 -3.2606 0.9634
8.3682 2.4940 -3.2606 0.9634
8.1130 3.2289 -3.2606 0.9634
7.7934 3.9382 -3.2606 0.9634
7.4120 4.6162 -3.2606 0.9634
6.1734 5.5835 -3.1082 0.9651
5.6519 6.1108 -3.1082 0.9651
5.0856 6.5896 -3.1082 0.9651
3.1640 7.6991 -3.1082 0.9651
1.7488 8.1381 -3.1082 0.9651
1.0175 8.2614 -3.1082 0.9651
0.2781 8.3192 -3.1082 0.9651
-0.4634 8.3109 -3.1082 0.9651
-1.2013 8.2367 -3.1082 0.9651
-1.9296 8.0971 -3.1082 0.9651
-3.3347 7.6267 -3.1082 0.9651
-3.8100 6.9524 -2.9604 0.9667
-4.6341 6.9146 -3.1082 0.9651
-5.2311 6.4747 -3.1082 0.9651
-6.2962 5.4446 -3.1082 0.9651
-7.5130 4.4500 -3.2606 0.9634
-7.8792 3.7636 -3.2606 0.9634
-8.4217 2.3070 -3.2606 0.9634
-8.6973 0.7772 -3.2606 0.9634
-8.1763 -1.4730 -3.2606 0.9649
-8.0127 -2.1949 -3.2606 0.9649
-7.1481 -4.2338 -3.2606 0.9649
-6.7429 -4.8532 -3.2606 0.9649
-5.7756 -5.9719 -3.2606 0.9649
-5.2211 -6.4623 -3.2606 0.9649
-4.6252 -6.9013 -3.2606 0.9649
-3.9926 -7.2856 -3.2606 0.9649
-3.3283 -7.6121 -3.2606 0.9649
3.1579 -7.6843 -3.2606 0.9649
3.8293 -7.3727 -3.2606 0.9649
5.0759 -6.5770 -3.2606 0.9649
5.6411 -6.0991 -3.2606 0.9649
6.1616 -5.5728 -3.2606 0.9649
7.0520 -4.3920 -3.2606 0.9649
7.4150 -3.7469 -3.2606 0.9649
7.7190 -3.0721 -3.2606 0.9649
7.9618 -2.3729 -3.2606 0.9649
8.2564 -0.9236 -3.2606 0.9649
7.5745 3.4129 -3.2606 0.9649
7.2407 4.0736 -3.2606 0.9649
6.8494 4.7018 -3.2606 0.9649
6.1044 5.0454 -3.1082 0.9665
5.1131 6.0478 -3.1082 0.9665
4.5545 6.4789 -3.1082 0.9665
2.6810 7.4520 -3.1082 0.9665
2.0071 7.6611 -3.1082 0.9665
0.6170 7.8955 -3.1082 0.9665
-0.0882 7.9191 -3.1082 0.9665
-0.7927 7.8798 -3.1082 0.9665
-3.4130 6.9452 -3.0371 0.9673
-4.1116 6.7687 -3.1082 0.9665
-5.2466 5.9324 -3.1082 0.9665
-5.7538 5.4419 -3.1082 0.9665
-7.3296 3.9112 -3.2606 0.9649
-7.6487 3.2433 -3.2606 0.9649
-8.1025 1.8358 -3.2606 0.9649
-8.2996 -0.3701 -3.2606 0.9649
-7.9070 -2.5497 -3.2606 0.9649
-6.5200 -5.1488 -3.2606 0.9649
-6.0359 -5.7087 -3.2606 0.9649
-4.3132 -7.1005 -3.2606 0.9649
-3.6641 -7.4562 -3.2606 0.9649
-2.9859 -7.7528 -3.2606 0.9649
-2.2840 -7.9878 -3.2606 0.9649
-1.5640 -8.1593 -3.2606 0.9649
-0.0926 -8.3074 -3.2606 0.9649
2.1055 -8.0367 -3.2606 0.9649
2.8125 -7.8173 -3.2606 0.9649
5.3638 -6.3443 -3.2606 0.9649
6.8494 -4.7018 -3.2606 0.9649
7.2407 -4.0735 -3.2606 0.9649
7.5745 -3.4129 -3.2606 0.9649
7.8482 -2.7252 -3.2606 0.9649
8.2071 -1.2905 -3.2606 0.9649
8.2564 0.9236 -3.2606 0.9649
8.1414 1.6548 -3.2606 0.9649
7.9618 2.3729 -3.2606 0.9649
7.7190 3.0721 -3.2606 0.9649
7.4150 3.7470 -3.2606 0.9649
7.0520 4.3920 -3.2606 0.9649
5.8736 5.3123 -3.1082 0.9665
4.8386 6.2696 -3.1082 0.9665
4.2614 6.6754 -3.1082 0.9665
2.3464 7.5640 -3.1082 0.9665
0.2646 7.9152 -3.1082 0.9665
-0.4409 7.9073 -3.1082 0.9665
-1.8359 7.7038 -3.1082 0.9665
-2.5143 7.5098 -3.1082 0.9665
-3.1727 7.2563 -3.1082 0.9665
-3.7968 6.9282 -3.1007 0.9666
-4.9771 6.1602 -3.1082 0.9665
-5.9905 5.1802 -3.1082 0.9665
-8.1763 1.4730 -3.2606 0.9649
-7.1450 -3.4129 -3.2606 0.9663
-6.8129 -4.0353 -3.2606 0.9663
-5.9895 -5.1793 -3.2606 0.9663
-5.5047 -5.6919 -3.2606 0.9663
-4.9763 -6.1592 -3.2606 0.9663
-2.5139 -7.5086 -3.2606 0.9663
-1.8356 -7.7026 -3.2606 0.9663
-1.1428 -7.8354 -3.2606 0.9663
0.2646 -7.9139 -3.2606 0.9663
2.3460 -7.5628 -3.2606 0.9663
4.2607 -6.6742 -3.2606 0.9663
4.8378 -6.2686 -3.2606 0.9663
5.3766 -5.8131 -3.2606 0.9663
7.0672 -3.5712 -3.2606 0.9663
7.9006 0.5289 -3.2606 0.9663
7.8222 1.2300 -3.2606 0.9663
7.2193 3.2529 -3.2606 0.9663
5.8181 4.8088 -3.1082 0.9679
4.8733 5.7642 -3.1082 0.9679
1.9130 7.3018 -3.1082 0.9679
1.2555 7.4431 -3.1082 0.9679
-0.7555 7.5103 -3.1082 0.9679
-1.4210 7.4132 -3.1082 0.9679
-2.0752 7.2573 -3.1082 0.9679
-2.7129 7.0438 -3.1082 0.9679
-3.9188 6.4512 -3.1082 0.9679
-5.0005 5.6542 -3.1082 0.9679
-5.4839 5.1867 -3.1082 0.9679
-6.6264 4.3348 -3.2606 0.9663
-6.9859 3.7278 -3.2606 0.9663
-7.2900 3.0912 -3.2606 0.9663
-7.5362 2.4301 -3.2606 0.9663
-7.7226 1.7497 -3.2606 0.9663
-7.8476 1.0554 -3.2606 0.9663
-7.5362 -2.4301 -3.2606 0.9663
-6.2143 -4.9074 -3.2606 0.9663
-5.7528 -5.4410 -3.2606 0.9663
-5.2457 -5.9314 -3.2606 0.9663
-4.6970 -6.3748 -3.2606 0.9663
-2.1769 -7.6132 -3.2606 0.9663
-1.4907 -7.7767 -3.2606 0.9663
-0.7926 -7.8785 -3.2606 0.9663
0.6169 -7.8942 -3.2606 0.9663
1.3170 -7.8080 -3.2606 0.9663
2.0068 -7.6598 -3.2606 0.9663
3.3331 -7.1826 -3.2606 0.9663
3.9592 -6.8574 -3.2606 0.9663
4.5538 -6.4778 -3.2606 0.9663
5.1123 -6.0468 -3.2606 0.9663
5.6302 -5.5678 -3.2606 0.9663
6.1034 -5.0446 -3.2606 0.9663
6.9011 -3.8825 -3.2606 0.9663
7.2193 -3.2529 -3.2606 0.9663
7.8222 -1.2300 -3.2606 0.9663
7.9006 -0.5289 -3.2606 0.9663
7.9163 0.1764 -3.2606 0.9663
7.7596 1.5772 -3.2606 0.9663
7.0672 3.5712 -3.2606 0.9663
6.7213 4.1861 -3.2606 0.9663
6.2780 4.7344 -3.2379 0.9666
5.5981 5.0632 -3.1082 0.9679
4.6117 5.9756 -3.1082 0.9679
4.0616 6.3623 -3.1082 0.9679
3.4792 6.6986 -3.1082 0.9679
2.8691 6.9816 -3.1082 0.9679
2.2364 7.2093 -3.1082 0.9679
-2.3964 7.1577 -3.1082 0.9679
-3.0240 6.9160 -3.1082 0.9679
-5.7096 4.9372 -3.1082 0.9679
-6.4267 4.6257 -3.2606 0.9663
-7.1450 3.4129 -3.2606 0.9663
-7.4204 2.7634 -3.2606 0.9663
-7.6370 2.0920 -3.2606 0.9663
-7.8869 0.7048 -3.2606 0.9663
-7.5589 0.0000 -3.2606 0.9676
-7.5289 -0.6728 -3.2606 0.9676
-7.2904 -1.9970 -3.2606 0.9676
-6.1350 -4.4157 -3.2606 0.9676
-3.6327 -6.6288 -3.2606 0.9676
-3.0283 -6.9258 -3.2606 0.9676
-1.7523 -7.3530 -3.2606 0.9676
-0.4208 -7.5472 -3.2606 0.9676
2.2395 -7.2196 -3.2606 0.9676
5.6061 -5.0704 -3.2606 0.9676
6.0351 -4.5513 -3.2606 0.9676
6.4163 -3.9961 -3.2606 0.9676
6.7465 -3.4091 -3.2606 0.9676
7.0232 -2.7951 -3.2606 0.9676
7.2441 -2.1589 -3.2606 0.9676
7.4075 -1.5056 -3.2606 0.9676
7.5121 -0.8404 -3.2606 0.9676
7.1407 2.4796 -3.2606 0.9676
6.8917 3.1052 -3.2606 0.9676
6.5879 3.7063 -3.2606 0.9676
5.1235 5.0667 -3.1082 0.9691
4.6522 5.5026 -3.1082 0.9691
4.1439 5.8948 -3.1082 0.9691
3.0331 6.5362 -3.1082 0.9691
0.5613 7.1838 -3.1082 0.9691
-3.1780 6.4670 -3.1082 0.9691
-3.7410 6.1585 -3.1082 0.9691
-4.7736 5.3976 -3.1082 0.9691
-5.9323 4.6846 -3.2606 0.9676
-6.3257 4.1381 -3.2606 0.9676
-6.6689 3.5586 -3.2606 0.9676
-7.1942 2.3198 -3.2606 0.9676
-7.3721 1.6703 -3.2606 0.9676
-7.4915 -1.0075 -3.2606 0.9676
-7.3721 -1.6703 -3.2606 0.9676
-6.3257 -4.1381 -3.2606 0.9676
-5.9323 -4.6846 -3.2606 0.9676
-5.4917 -5.1940 -3.2606 0.9676
-5.0077 -5.6622 -3.2606 0.9676
-3.3338 -6.7840 -3.2606 0.9676
-2.7167 -7.0538 -3.2606 0.9676
-1.4230 -7.4238 -3.2606 0.9676
-0.7566 -7.5210 -3.2606 0.9676
1.2573 -7.4537 -3.2606 0.9676
1.9157 -7.3121 -3.2606 0.9676
2.5589 -7.1126 -3.2606 0.9676
5.8264 -4.8157 -3.2606 0.9676
6.5879 -3.7063 -3.2606 0.9676
6.8917 -3.1052 -3.2606 0.9676
7.3330 -1.8341 -3.2606 0.9676
7.4672 -1.1742 -3.2606 0.9676
7.5421 -0.5049 -3.2606 0.9676
7.2441 2.1590 -3.2606 0.9676
6.7465 3.4092 -3.2606 0.9676
6.4163 3.9961 -3.2606 0.9676
6.0352 4.5513 -3.2606 0.9676
5.3441 4.8335 -3.1082 0.9691
4.8927 5.2899 -3.1082 0.9691
3.8772 6.0736 -3.1082 0.9691
3.3213 6.3946 -3.1082 0.9691
2.7389 6.6648 -3.1082 0.9691
1.5138 7.0448 -3.1082 0.9691
0.8808 7.1516 -3.1082 0.9691
-0.4012 7.1945 -3.1082 0.9691
-1.0399 7.1302 -3.1082 0.9691
-1.6704 7.0094 -3.1082 0.9691
-2.2876 6.8329 -3.1082 0.9691
-4.0116 5.9857 -3.1082 0.9691
-4.5284 5.6049 -3.1082 0.9691
-5.0093 5.1796 -3.1082 0.9691
-6.1350 4.4157 -3.2606 0.9676
-6.5037 3.8522 -3.2606 0.9676
-7.2904 1.9971 -3.2606 0.9676
-7.4392 1.3403 -3.2606 0.9676
-7.2263 0.0000 -3.2606 0.9688
-7.1118 -1.2812 -3.2606 0.9688
-6.9695 -1.9091 -3.2606 0.9688
-6.7719 -2.5219 -3.2606 0.9688
-6.2175 -3.6826 -3.2606 0.9688
-5.8650 -4.2214 -3.2606 0.9688
-5.4660 -4.7266 -3.2606 0.9688
-4.0231 -6.0028 -3.2606 0.9688
-2.2942 -6.8524 -3.2606 0.9688
-1.6752 -7.0294 -3.2606 0.9688
-0.4023 -7.2150 -3.2606 0.9688
0.2415 -7.2222 -3.2606 0.9688
1.5182 -7.0650 -3.2606 0.9688
2.7468 -6.6838 -3.2606 0.9688
4.9067 -5.3050 -3.2606 0.9688
5.3594 -4.8472 -3.2606 0.9688
6.4496 -3.2591 -3.2606 0.9688
7.2245 -0.1610 -3.2606 0.9688
7.2101 0.4827 -3.2606 0.9688
7.1385 1.1225 -3.2606 0.9688
6.8264 2.3704 -3.2606 0.9688
6.5883 2.9686 -3.2606 0.9688
5.9576 4.0897 -3.2606 0.9688
5.5700 4.6037 -3.2606 0.9688
4.4474 5.2604 -3.1082 0.9702
2.8996 6.2485 -3.1082 0.9702
1.7458 6.6636 -3.1082 0.9702
1.1458 6.7926 -3.1082 0.9702
-0.0767 6.8881 -3.1082 0.9702
-2.4758 6.4282 -3.1082 0.9702
-3.0381 6.1824 -3.1082 0.9702
-3.5763 5.8874 -3.1082 0.9702
-4.5635 5.1600 -3.1082 0.9702
-5.0550 4.7810 -3.1394 0.9699
-6.0473 3.9560 -3.2606 0.9688
-6.3754 3.4020 -3.2606 0.9688
-7.0476 1.5968 -3.2606 0.9688
-7.1618 0.9632 -3.2606 0.9688
-7.2191 0.3219 -3.2606 0.9688
-7.1618 -0.9631 -3.2606 0.9688
-7.0476 -1.5968 -3.2606 0.9688
-6.6528 -2.8211 -3.2606 0.9688
-6.0473 -3.9559 -3.2606 0.9688
-5.6712 -4.4785 -3.2606 0.9688
-5.2500 -4.9654 -3.2606 0.9688
-3.7517 -6.1761 -3.2606 0.9688
-3.1871 -6.4855 -3.2606 0.9688
-2.5972 -6.7434 -3.2606 0.9688
-1.3604 -7.0971 -3.2606 0.9688
-0.7233 -7.1899 -3.2606 0.9688
3.0418 -6.5548 -3.2606 0.9688
5.1381 -5.0812 -3.2606 0.9688
5.5700 -4.6037 -3.2606 0.9688
5.9576 -4.0897 -3.2606 0.9688
6.2980 -3.5432 -3.2606 0.9688
6.8264 -2.3704 -3.2606 0.9688
7.0103 -1.7534 -3.2606 0.9688
7.1385 -1.1225 -3.2606 0.9688
7.2245 0.1610 -3.2606 0.9688
7.0814 1.4394 -3.2606 0.9688
6.9252 2.0639 -3.2606 0.9688
6.7140 2.6721 -3.2606 0.9688
5.7695 4.3510 -3.2606 0.9688
4.6773 5.0571 -3.1082 0.9702
4.2087 5.4533 -3.1082 0.9702
3.1751 6.1131 -3.1082 0.9702
2.0409 6.5792 -3.1082 0.9702
0.8420 6.8368 -3.1082 0.9702
0.2302 6.8847 -3.1082 0.9702
-0.9941 6.8164 -3.1082 0.9702
-3.8350 5.7222 -3.1082 0.9702
-4.3291 5.3582 -3.1082 0.9702
-5.8650 4.2214 -3.2606 0.9688
-6.5206 3.1146 -3.2606 0.9688
-7.1118 1.2813 -3.2606 0.9688
-7.1976 0.6432 -3.2606 0.9688
-6.8076 -1.2264 -3.2606 0.9699
-5.9516 -3.5251 -3.2606 0.9699
-3.8510 -5.7461 -3.2606 0.9699
-3.3243 -6.0661 -3.2606 0.9699
-0.9983 -6.8448 -3.2606 0.9699
-0.3851 -6.9064 -3.2606 0.9699
0.8455 -6.8653 -3.2606 0.9699
1.4532 -6.7628 -3.2606 0.9699
2.0494 -6.6066 -3.2606 0.9699
3.1883 -6.1386 -3.2606 0.9699
3.7220 -5.8304 -3.2606 0.9699
4.2262 -5.4760 -3.2606 0.9699
4.6968 -5.0782 -3.2606 0.9699
5.1302 -4.6399 -3.2606 0.9699
6.4269 -2.5579 -3.2606 0.9699
6.9155 -0.1541 -3.2606 0.9699
6.9018 0.4620 -3.2606 0.9699
6.8332 1.0745 -3.2606 0.9699
4.2572 5.0355 -3.1082 0.9713
3.2969 5.7105 -3.1082 0.9713
2.7756 5.9813 -3.1082 0.9713
1.6711 6.3786 -3.1082 0.9713
1.0968 6.5021 -3.1082 0.9713
0.5137 6.5739 -3.1082 0.9713
-0.6600 6.5608 -3.1082 0.9713
-2.9082 5.9180 -3.1082 0.9713
-3.4234 5.6356 -3.1082 0.9713
-4.3740 4.9458 -3.1123 0.9712
-5.4286 4.2870 -3.2606 0.9699
-5.7886 3.7868 -3.2606 0.9699
-6.1027 3.2565 -3.2606 0.9699
-6.5834 2.1229 -3.2606 0.9699
-6.7462 1.5285 -3.2606 0.9699
-6.8555 0.9220 -3.2606 0.9699
-6.9103 0.3081 -3.2606 0.9699
-6.9103 -0.3081 -3.2606 0.9699
-6.3683 -2.7004 -3.2606 0.9699
-6.1027 -3.2565 -3.2606 0.9699
-5.0255 -4.7531 -3.2606 0.9699
-3.5912 -5.9119 -3.2606 0.9699
-3.0508 -6.2081 -3.2606 0.9699
-1.9017 -6.6506 -3.2606 0.9699
-0.6924 -6.8824 -3.2606 0.9699
-0.0771 -6.9168 -3.2606 0.9699
0.5389 -6.8962 -3.2606 0.9699
3.9781 -5.6588 -3.2606 0.9699
4.4659 -5.2823 -3.2606 0.9699
5.7028 -3.9148 -3.2606 0.9699
6.0286 -3.3916 -3.2606 0.9699
6.3066 -2.8416 -3.2606 0.9699
6.7105 -1.6784 -3.2606 0.9699
6.8332 -1.0745 -3.2606 0.9699
6.9155 0.1541 -3.2606 0.9699
6.7786 1.3778 -3.2606 0.9699
6.1737 3.1197 -3.2606 0.9699
5.8716 3.6569 -3.2606 0.9699
5.5228 4.1649 -3.2606 0.9699
4.4773 4.8408 -3.1082 0.9713
2.5064 6.0990 -3.1082 0.9713
1.9536 6.2978 -3.1082 0.9713
1.3853 6.4467 -3.1082 0.9713
-0.3671 6.5837 -3.1082 0.9713
-0.9516 6.5249 -3.1082 0.9713
-1.5286 6.4143 -3.1082 0.9713
-2.6417 6.0416 -3.1082 0.9713
-4.1440 5.1291 -3.1082 0.9713
-4.6235 4.7807 -3.1350 0.9710
-5.6142 4.0409 -3.2606 0.9699
-5.9516 3.5252 -3.2606 0.9699
-6.2417 2.9814 -3.2606 0.9699
-6.4823 2.4141 -3.2606 0.9699
-6.6714 1.8275 -3.2606 0.9699
-6.8076 1.2265 -3.2606 0.9699
-6.6292 0.0000 -3.2606 0.9709
-6.5242 -1.1754 -3.2606 0.9709
-6.3937 -1.7514 -3.2606 0.9709
-5.7038 -3.3784 -3.2606 0.9709
-4.6086 -4.7652 -3.2606 0.9709
-4.1662 -5.1565 -3.2606 0.9709
-3.1859 -5.8135 -3.2606 0.9709
-2.6558 -6.0740 -3.2606 0.9709
-2.1046 -6.2862 -3.2606 0.9709
-1.5368 -6.4486 -3.2606 0.9709
0.2215 -6.6255 -3.2606 0.9709
3.0555 -5.8830 -3.2606 0.9709
4.5013 -4.8667 -3.2606 0.9709
4.9166 -4.4468 -3.2606 0.9709
5.2928 -3.9915 -3.2606 0.9709
6.1593 -2.4513 -3.2606 0.9709
6.3531 -1.8934 -3.2606 0.9709
6.6144 0.4428 -3.2606 0.9709
6.5487 1.0298 -3.2606 0.9709
6.0440 2.7233 -3.2606 0.9709
5.4654 3.7518 -3.2606 0.9709
2.6600 5.7322 -3.1082 0.9722
1.0511 6.2313 -3.1082 0.9722
-0.0704 6.3190 -3.1082 0.9722
-3.2808 5.4010 -3.1082 0.9722
-3.7485 5.0876 -3.1082 0.9722
-4.8163 4.5552 -3.2606 0.9709
-6.1032 2.5880 -3.2606 0.9709
-6.5701 -0.8836 -3.2606 0.9709
-6.4653 -1.4648 -3.2606 0.9709
-6.1032 -2.5880 -3.2606 0.9709
-2.9237 -5.9496 -3.2606 0.9709
-2.3826 -6.1862 -3.2606 0.9709
-1.2480 -6.5107 -3.2606 0.9709
-0.6636 -6.5959 -3.2606 0.9709
-0.0738 -6.6288 -3.2606 0.9709
1.1026 -6.5368 -3.2606 0.9709
1.6801 -6.4128 -3.2606 0.9709
2.2442 -6.2378 -3.2606 0.9709
2.7905 -6.0133 -3.2606 0.9709
4.7136 -4.6614 -3.2606 0.9709
5.1098 -4.2233 -3.2606 0.9709
5.4654 -3.7518 -3.2606 0.9709
5.7776 -3.2505 -3.2606 0.9709
6.2624 -2.1746 -3.2606 0.9709
6.5487 -1.0297 -3.2606 0.9709
6.6144 -0.4428 -3.2606 0.9709
6.6276 0.1477 -3.2606 0.9709
6.4964 1.3204 -3.2606 0.9709
5.6271 3.5046 -3.2606 0.9709
5.2928 3.9915 -3.2606 0.9709
4.3928 4.7495 -3.1821 0.9716
3.4003 5.3265 -3.1082 0.9722
2.9128 5.6080 -3.1082 0.9722
2.4020 5.8450 -3.1082 0.9722
1.8723 6.0357 -3.1082 0.9722
1.3276 6.1784 -3.1082 0.9722
-0.3518 6.3096 -3.1082 0.9722
-0.9120 6.2532 -3.1082 0.9722
-1.4650 6.1472 -3.1082 0.9722
-2.0063 5.9924 -3.1082 0.9722
-3.9715 4.9155 -3.1082 0.9722
-4.6018 4.7583 -3.2558 0.9709
-5.3805 3.8726 -3.2606 0.9709
-5.9818 2.8573 -3.2606 0.9709
-6.2124 2.3135 -3.2606 0.9709
-6.3348 -0.5661 -3.2606 0.9718
-6.1341 -1.6803 -3.2606 0.9718
-5.9602 -2.2196 -3.2606 0.9718
-5.4722 -3.2412 -3.2606 0.9718
-4.8108 -4.1601 -3.2606 0.9718
-4.4215 -4.5717 -3.2606 0.9718
-3.9970 -4.9471 -3.2606 0.9718
-3.5408 -5.2833 -3.2606 0.9718
-3.0565 -5.5775 -3.2606 0.9718
-2.5480 -5.8274 -3.2606 0.9718
-2.0192 -6.0310 -3.2606 0.9718
-0.3541 -6.3502 -3.2606 0.9718
0.2125 -6.3565 -3.2606 0.9718
1.3362 -6.2181 -3.2606 0.9718
1.8843 -6.0745 -3.2606 0.9718
3.4222 -5.3608 -3.2606 0.9718
5.3986 -3.3623 -3.2606 0.9718
6.2326 -1.2668 -3.2606 0.9718
6.3585 -0.1417 -3.2606 0.9718
6.1700 1.5432 -3.2606 0.9718
5.7986 2.6127 -3.2606 0.9718
5.2435 3.5995 -3.2606 0.9718
4.5222 4.4721 -3.2606 0.9718
3.0314 5.2505 -3.1082 0.9731
2.0524 5.7048 -3.1082 0.9731
1.5365 5.8649 -3.1082 0.9731
1.0084 5.9784 -3.1082 0.9731
0.4723 6.0444 -3.1082 0.9731
-2.1790 5.6577 -3.1082 0.9731
-2.6739 5.4413 -3.1082 0.9731
-4.6207 4.3703 -3.2606 0.9718
-5.8554 2.4829 -3.2606 0.9718
-6.0531 1.9519 -3.2606 0.9718
-6.3537 0.2833 -3.2606 0.9718
-6.3537 -0.2833 -3.2606 0.9718
-6.0531 -1.9519 -3.2606 0.9718
-5.3224 -3.4817 -3.2606 0.9718
-4.9914 -3.9416 -3.2606 0.9718
-4.2134 -4.7642 -3.2606 0.9718
-3.7727 -5.1203 -3.2606 0.9718
-3.3019 -5.4358 -3.2606 0.9718
-2.8050 -5.7081 -3.2606 0.9718
-2.2859 -5.9351 -3.2606 0.9718
-1.7485 -6.1150 -3.2606 0.9718
-1.1973 -6.2463 -3.2606 0.9718
-0.6366 -6.3281 -3.2606 0.9718
-0.0708 -6.3596 -3.2606 0.9718
3.1800 -5.5079 -3.2606 0.9718
4.1062 -4.8568 -3.2606 0.9718
4.5222 -4.4721 -3.2606 0.9718
5.2435 -3.5995 -3.2606 0.9718
5.7986 -2.6127 -3.2606 0.9718
6.0081 -2.0862 -3.2606 0.9718
6.1700 -1.5432 -3.2606 0.9718
6.2829 -0.9879 -3.2606 0.9718
6.3458 -0.4248 -3.2606 0.9718
6.3585 0.1417 -3.2606 0.9718
6.2326 1.2668 -3.2606 0.9718
5.9092 2.3518 -3.2606 0.9718
5.6765 2.8685 -3.2606 0.9718
5.3986 3.3623 -3.2606 0.9718
4.3185 4.6691 -3.2606 0.9718
3.7042 4.7996 -3.1082 0.9731
3.2623 5.1103 -3.1082 0.9731
2.7945 5.3804 -3.1082 0.9731
2.3045 5.6077 -3.1082 0.9731
1.7963 5.7906 -3.1082 0.9731
1.2737 5.9275 -3.1082 0.9731
-0.3375 6.0534 -3.1082 0.9731
-1.4055 5.8976 -3.1082 0.9731
-2.9137 5.3168 -3.1082 0.9731
-3.3753 5.0363 -3.1082 0.9731
-3.8590 4.7764 -3.1481 0.9728
-4.8108 4.1601 -3.2606 0.9718
-5.1620 3.7154 -3.2606 0.9718
-5.4722 3.2412 -3.2606 0.9718
-5.7390 2.7413 -3.2606 0.9718
-5.9602 2.2196 -3.2606 0.9718
-6.2593 1.1277 -3.2606 0.9718
-6.3348 0.5661 -3.2606 0.9718
-6.0836 -0.5436 -3.2606 0.9727
-5.7238 -2.1315 -3.2606 0.9727
-5.5113 -2.6325 -3.2606 0.9727
-5.2552 -3.1126 -3.2606 0.9727
-4.9573 -3.5680 -3.2606 0.9727
-4.6200 -3.9951 -3.2606 0.9727
-3.8385 -4.7509 -3.2606 0.9727
-3.4004 -5.0737 -3.2606 0.9727
-1.4159 -5.9414 -3.2606 0.9727
-0.3400 -6.0983 -3.2606 0.9727
0.2041 -6.1044 -3.2606 0.9727
0.7466 -6.0620 -3.2606 0.9727
1.2832 -5.9715 -3.2606 0.9727
3.2865 -5.1482 -3.2606 0.9727
4.8765 -3.6776 -3.2606 0.9727
5.6749 -2.2585 -3.2606 0.9727
5.9854 -1.2166 -3.2606 0.9727
6.0699 -0.6790 -3.2606 0.9727
6.0942 0.4079 -3.2606 0.9727
5.9253 1.4820 -3.2606 0.9727
5.7698 2.0035 -3.2606 0.9727
5.3232 2.9948 -3.2606 0.9727
4.3429 4.2947 -3.2606 0.9727
3.3548 4.7723 -3.1141 0.9739
2.4508 5.2814 -3.1082 0.9739
1.9710 5.4786 -3.1082 0.9739
0.9684 5.7413 -3.1082 0.9739
-0.0649 5.8220 -3.1082 0.9739
-1.0961 5.7182 -3.1082 0.9739
-1.6007 5.5980 -3.1082 0.9739
-2.0926 5.4333 -3.1082 0.9739
-3.0228 4.9762 -3.1082 0.9739
-4.0463 4.5752 -3.2606 0.9727
-4.7934 3.7853 -3.2606 0.9727
-6.1017 0.2721 -3.2606 0.9727
-6.1017 -0.2721 -3.2606 0.9727
-6.0533 -0.8141 -3.2606 0.9727
-5.6231 -2.3844 -3.2606 0.9727
-5.1113 -3.3437 -3.2606 0.9727
-4.7934 -3.7853 -3.2606 0.9727
-4.4375 -4.1969 -3.2606 0.9727
-1.1498 -5.9986 -3.2606 0.9727
0.4758 -6.0892 -3.2606 0.9727
1.5479 -5.9084 -3.2606 0.9727
2.0677 -5.7471 -3.2606 0.9727
3.0539 -5.2895 -3.2606 0.9727
3.9434 -4.6642 -3.2606 0.9727
4.7079 -3.8911 -3.2606 0.9727
5.3232 -2.9948 -3.2606 0.9727
6.0337 -0.9487 -3.2606 0.9727
6.0942 -0.4079 -3.2606 0.9727
6.0699 0.6790 -3.2606 0.9727
5.1845 3.2289 -3.2606 0.9727
4.8765 3.6776 -3.2606 0.9727
4.5299 4.0970 -3.2606 0.9727
3.1329 4.9076 -3.1082 0.9739
0.7117 5.7787 -3.1082 0.9739
-0.3241 5.8133 -3.1082 0.9739
-0.8403 5.7614 -3.1082 0.9739
-1.3497 5.6637 -3.1082 0.9739
-3.2414 4.8366 -3.1082 0.9739
-4.6200 3.9951 -3.2606 0.9727
-4.9573 3.5680 -3.2606 0.9727
-5.2552 3.1126 -3.2606 0.9727
-5.7238 2.1316 -3.2606 0.9727
-5.8908 1.6137 -3.2606 0.9727
-5.8708 0.0000 -3.2606 0.9735
-5.7778 -1.0409 -3.2606 0.9735
-5.6622 -1.5510 -3.2606 0.9735
-5.0512 -2.9918 -3.2606 0.9735
-4.7649 -3.4296 -3.2606 0.9735
-4.4407 -3.8401 -3.2606 0.9735
-3.6895 -4.5665 -3.2606 0.9735
-3.2684 -4.8768 -3.2606 0.9735
-2.8214 -5.1484 -3.2606 0.9735
-2.3520 -5.3791 -3.2606 0.9735
-0.8473 -5.8093 -3.2606 0.9735
-0.3268 -5.8617 -3.2606 0.9735
0.1962 -5.8675 -3.2606 0.9735
1.2334 -5.7397 -3.2606 0.9735
2.2315 -5.4301 -3.2606 0.9735
3.9863 -4.3099 -3.2606 0.9735
5.2398 -2.6478 -3.2606 0.9735
5.6262 -1.6768 -3.2606 0.9735
5.7531 -1.1694 -3.2606 0.9735
5.8693 -0.1308 -3.2606 0.9735
5.8577 0.3921 -3.2606 0.9735
5.6953 1.4245 -3.2606 0.9735
5.5459 1.9258 -3.2606 0.9735
5.3525 2.4118 -3.2606 0.9735
4.8401 3.3226 -3.2606 0.9735
4.5252 3.7402 -3.2606 0.9735
2.7982 4.8466 -3.1082 0.9747
0.4360 5.5794 -3.1082 0.9747
-2.4682 5.0227 -3.1082 0.9747
-4.2653 4.0340 -3.2606 0.9735
-4.6074 3.6384 -3.2606 0.9735
-5.7257 1.2973 -3.2606 0.9735
-5.8649 -0.2615 -3.2606 0.9735
-5.5875 -1.8017 -3.2606 0.9735
-5.4049 -2.2919 -3.2606 0.9735
-4.9129 -3.2139 -3.2606 0.9735
-4.6074 -3.6384 -3.2606 0.9735
-4.2653 -4.0340 -3.2606 0.9735
-3.0479 -5.0176 -3.2606 0.9735
-2.5892 -5.2689 -3.2606 0.9735
-2.1100 -5.4785 -3.2606 0.9735
-1.6140 -5.6446 -3.2606 0.9735
-0.0654 -5.8704 -3.2606 0.9735
1.4879 -5.6791 -3.2606 0.9735
1.9874 -5.5241 -3.2606 0.9735
3.3763 -4.8028 -3.2606 0.9735
3.7903 -4.4832 -3.2606 0.9735
4.8401 -3.3226 -3.2606 0.9735
5.1166 -2.8786 -3.2606 0.9735
5.3525 -2.4117 -3.2606 0.9735
5.5459 -1.9258 -3.2606 0.9735
5.8577 -0.3921 -3.2606 0.9735
5.8693 0.1308 -3.2606 0.9735
5.7531 1.1694 -3.2606 0.9735
5.6262 1.6768 -3.2606 0.9735
5.2398 2.6478 -3.2606 0.9735
4.9833 3.1037 -3.2606 0.9735
4.6873 3.5349 -3.2606 0.9735
3.5869 4.6476 -3.2606 0.9735
2.5795 4.9665 -3.1082 0.9747
2.1272 5.1763 -3.1082 0.9747
1.6581 5.3452 -3.1082 0.9747
-0.3116 5.5877 -3.1082 0.9747
-0.8077 5.5378 -3.1082 0.9747
-1.2974 5.4439 -3.1082 0.9747
-1.7767 5.3068 -3.1082 0.9747
-2.2420 5.1277 -3.1082 0.9747
-3.6895 4.5666 -3.2606 0.9735
-4.4407 3.8401 -3.2606 0.9735
-4.7649 3.4296 -3.2606 0.9735
-5.8475 0.5225 -3.2606 0.9735
-5.6251 -0.5027 -3.2606 0.9743
-5.5581 -1.0013 -3.2606 0.9743
-5.4469 -1.4921 -3.2606 0.9743
-5.2925 -1.9709 -3.2606 0.9743
-5.0960 -2.4342 -3.2606 0.9743
-4.5837 -3.2991 -3.2606 0.9743
-3.9261 -4.0596 -3.2606 0.9743
-2.7141 -4.9526 -3.2606 0.9743
-2.2625 -5.1745 -3.2606 0.9743
-1.7930 -5.3554 -3.2606 0.9743
-0.8151 -5.5884 -3.2606 0.9743
-0.3144 -5.6388 -3.2606 0.9743
1.1865 -5.5214 -3.2606 0.9743
2.6031 -5.0118 -3.2606 0.9743
3.0388 -4.7603 -3.2606 0.9743
3.4505 -4.4709 -3.2606 0.9743
3.8347 -4.1460 -3.2606 0.9743
4.1885 -3.7883 -3.2606 0.9743
4.7938 -2.9856 -3.2606 0.9743
5.2472 -2.0884 -3.2606 0.9743
5.4123 -1.6130 -3.2606 0.9743
5.5344 -1.1249 -3.2606 0.9743
5.6125 -0.6279 -3.2606 0.9743
5.6461 -0.1258 -3.2606 0.9743
5.3351 1.8525 -3.2606 0.9743
5.1490 2.3200 -3.2606 0.9743
4.9221 2.7691 -3.2606 0.9743
4.3531 3.5980 -3.2606 0.9743
4.0156 3.9711 -3.2606 0.9743
3.6462 4.3128 -3.2606 0.9743
2.7457 4.7557 -3.1705 0.9750
2.2661 4.8834 -3.1082 0.9754
1.8225 5.0657 -3.1082 0.9754
1.3644 5.2078 -3.1082 0.9754
0.8954 5.3086 -3.1082 0.9754
0.4194 5.3672 -3.1082 0.9754
-0.0600 5.3833 -3.1082 0.9754
-0.5389 5.3566 -3.1082 0.9754
-1.0135 5.2873 -3.1082 0.9754
-1.9349 5.0239 -3.1082 0.9754
-2.8923 4.7613 -3.2164 0.9746
-3.3500 4.5467 -3.2606 0.9743
-4.1031 3.8807 -3.2606 0.9743
-4.9825 2.6588 -3.2606 0.9743
-5.5971 0.7527 -3.2606 0.9743
-5.6419 -0.2516 -3.2606 0.9743
-5.5971 -0.7527 -3.2606 0.9743
-5.1994 -2.2047 -3.2606 0.9743
-4.7261 -3.0917 -3.2606 0.9743
-4.4322 -3.5001 -3.2606 0.9743
-4.1031 -3.8807 -3.2606 0.9743
-3.7414 -4.2304 -3.2606 0.9743
-2.0298 -5.2702 -3.2606 0.9743
0.4400 -5.6304 -3.2606 0.9743
2.8238 -4.8909 -3.2606 0.9743
4.3531 -3.5979 -3.2606 0.9743
4.9221 -2.7691 -3.2606 0.9743
5.1490 -2.3200 -3.2606 0.9743
5.3351 -1.8525 -3.2606 0.9743
5.4788 -1.3703 -3.2606 0.9743
5.5790 -0.8772 -3.2606 0.9743
5.6461 0.1258 -3.2606 0.9743
5.6125 0.6279 -3.2606 0.9743
5.2472 2.0884 -3.2606 0.9743
5.0405 2.5471 -3.2606 0.9743
4.7938 2.9856 -3.2606 0.9743
4.5091 3.4004 -3.2606 0.9743
4.1885 3.7883 -3.2606 0.9743
3.4504 4.4709 -3.2606 0.9743
3.0265 4.7408 -3.2473 0.9744
2.4823 4.7793 -3.1093 0.9754
2.0463 4.9795 -3.1082 0.9754
1.1310 5.2635 -3.1082 0.9754
-0.2997 5.3753 -3.1082 0.9754
-1.7092 5.1051 -3.1082 0.9754
-3.1441 4.6914 -3.2606 0.9743
-3.5492 4.3929 -3.2606 0.9743
-3.9261 4.0596 -3.2606 0.9743
-4.5837 3.2992 -3.2606 0.9743
-4.8591 2.8781 -3.2606 0.9743
-5.0960 2.4342 -3.2606 0.9743
-5.4469 1.4921 -3.2606 0.9743
-5.6251 0.5027 -3.2606 0.9743
