ply
format ascii 1.0
element vertex 1653
property float32 x
property float32 y
property float32 z
property float32 I
end_header
-5.2328 7.1020 5.0932 0.9601
-5.2323 7.1014 4.8991 0.9604
-5.2310 7.0996 4.3375 0.9615
-5.2306 7.0990 4.1566 0.9618
-5.2302 7.0985 3.9785 0.9620
-5.2298 7.0979 3.8031 0.9623
-5.2278 7.0952 2.9611 0.9635
-5.2274 7.0947 2.7987 0.9637
-5.2270 7.0942 2.6381 0.9639
-5.2267 7.0937 2.4791 0.9640
-5.2252 7.0917 1.8571 0.9646
8.3174 -6.2724 1.8369 0.9586
-5.2245 7.0908 1.5530 0.9649
8.0473 -6.6512 1.8409 0.9585
7.9819 -6.0195 1.5919 0.9603
-5.2242 7.0903 1.4024 0.9650
7.3927 -6.6863 1.4178 0.9605
7.7877 -5.8730 1.3874 0.9614
9.1187 -5.6792 1.5280 0.9575
7.5285 -6.2224 1.3892 0.9613
7.6640 -5.7797 1.2029 0.9620
8.6571 -5.3917 1.2781 0.9597
-5.2235 7.0893 1.1035 0.9651
7.2938 -7.2130 1.2855 0.9595
8.0488 -5.5252 1.2234 0.9614
7.5684 -5.7076 1.0282 0.9626
-5.2231 7.0889 0.9551 0.9652
7.9308 -5.4442 1.0434 0.9620
7.4973 -5.6540 0.8609 0.9630
-5.2228 7.0884 0.8072 0.9653
9.4346 -5.3078 0.9924 0.9574
7.1545 -7.7354 0.7896 0.9586
7.0143 -6.3440 0.7088 0.9628
7.4410 -5.6115 0.6984 0.9633
7.1904 -5.9430 0.6991 0.9633
7.0154 -7.5849 0.6018 0.9594
6.9744 -6.3080 0.5477 0.9630
7.4028 -5.5827 0.5400 0.9635
6.8839 -6.8077 0.5639 0.9620
7.1528 -5.9119 0.5405 0.9635
8.9255 -5.0214 0.5965 0.9598
6.9321 -7.4949 0.4245 0.9600
7.3665 -5.5554 0.3836 0.9637
8.1343 -5.0661 0.3985 0.9624
7.1170 -5.8823 0.3839 0.9637
6.9232 -6.2616 0.2328 0.9633
6.8228 -6.7472 0.2393 0.9623
7.6768 -5.2698 0.2322 0.9634
7.3425 -5.5372 0.0764 0.9639
8.0976 -5.0433 0.0793 0.9626
6.8085 -6.7330 0.0796 0.9624
7.0933 -5.8628 0.0765 0.9639
7.6638 -5.2609 0.0773 0.9635
6.8708 -7.4286 -0.0841 0.9603
6.9111 -6.2507 -0.0774 0.9634
7.3428 -5.5375 -0.0764 0.9639
8.0981 -5.0436 -0.0793 0.9626
7.0936 -5.8630 -0.0765 0.9639
7.6642 -5.2612 -0.0773 0.9635
6.9236 -6.2620 -0.2328 0.9633
7.3549 -5.5466 -0.2297 0.9638
7.1055 -5.8729 -0.2299 0.9638
8.7692 -4.9335 -0.2509 0.9605
6.9363 -6.2735 -0.3889 0.9633
7.3669 -5.5557 -0.3837 0.9637
8.1359 -5.0671 -0.3985 0.9624
6.8399 -6.7641 -0.4000 0.9622
8.8137 -4.9585 -0.4205 0.9603
7.0177 -7.5875 -0.6020 0.9594
7.4040 -5.5836 -0.5401 0.9635
8.1916 -5.1018 -0.5621 0.9621
6.8853 -6.8090 -0.5640 0.9619
7.1539 -5.9129 -0.5406 0.9635
8.9288 -5.0233 -0.5967 0.9598
7.4422 -5.6124 -0.6985 0.9633
-5.2193 7.0837 -0.6594 0.9653
6.9313 -6.8546 -0.7305 0.9617
7.1916 -5.9440 -0.6992 0.9633
7.7790 -5.3400 -0.7071 0.9629
9.0555 -5.0945 -0.7786 0.9592
7.0777 -6.4014 -0.8749 0.9624
7.4995 -5.6556 -0.8611 0.9630
8.3429 -5.1960 -0.9011 0.9613
-5.2190 7.0833 -0.8066 0.9653
7.0144 -6.9367 -0.9044 0.9611
7.5706 -5.7093 -1.0285 0.9626
8.4502 -5.2628 -1.0798 0.9607
-5.2186 7.0828 -0.9543 0.9652
7.1223 -7.0434 -1.0865 0.9605
7.9334 -5.4460 -1.0437 0.9620
7.2586 -6.5650 -1.2265 0.9613
8.6637 -5.3958 -1.2791 0.9597
7.3013 -7.2204 -1.2868 0.9594
8.0529 -5.5280 -1.2241 0.9614
7.7914 -5.8758 -1.3880 0.9613
9.1756 -5.7146 -1.5375 0.9573
-5.2179 7.0819 -1.2512 0.9651
7.5320 -6.2254 -1.3899 0.9613
8.1983 -5.6278 -1.4144 0.9606
7.6527 -6.9215 -1.6431 0.9591
-5.2176 7.0814 -1.4006 0.9650
7.7208 -6.3814 -1.5950 0.9602
8.4717 -5.8155 -1.6363 0.9592
8.3286 -6.2809 -1.8393 0.9585
-5.2172 7.0809 -1.5509 0.9649
13.4020 6.0387 -2.8446 0.9419
12.1196 8.3196 -2.8448 0.9419
11.3313 9.3656 -2.8449 0.9419
9.4920 11.2272 -2.8451 0.9419
8.4554 12.0279 -2.8452 0.9419
7.3516 12.7333 -2.8453 0.9419
6.1894 13.3378 -2.8455 0.9419
2.4461 14.5013 -2.8459 0.9418
1.1457 14.6622 -2.8460 0.9418
-1.4722 14.6346 -2.8464 0.9418
-2.7691 14.4463 -2.8465 0.9418
-4.0441 14.1432 -2.8467 0.9418
-7.6381 12.5741 -2.8471 0.9418
-9.7474 11.0216 -2.8473 0.9418
-10.6901 10.1106 -2.8474 0.9418
-11.5480 9.1194 -2.8475 0.9418
13.6575 5.4356 -2.8446 0.9419
12.4780 7.7714 -2.8447 0.9419
11.7371 8.8514 -2.8448 0.9419
8.9826 11.6391 -2.8451 0.9419
7.9114 12.3929 -2.8453 0.9419
6.7772 13.0485 -2.8454 0.9419
5.5892 13.6006 -2.8455 0.9419
3.0895 14.3775 -2.8458 0.9418
1.7977 14.5962 -2.8460 0.9418
-0.8188 14.6853 -2.8463 0.9418
-2.1228 14.5549 -2.8464 0.9418
-7.0702 12.9016 -2.8470 0.9418
-11.9429 8.5961 -2.8476 0.9418
-14.2314 0.0000 -3.0003 0.9435
-13.3361 -4.9664 -3.0002 0.9435
-12.2438 -7.2520 -3.0000 0.9435
-11.5494 -8.3127 -3.0000 0.9435
-9.8919 -10.2281 -2.9998 0.9435
-8.9420 -11.0676 -2.9997 0.9435
-7.9211 -11.8191 -2.9995 0.9435
-3.2977 -13.8379 -2.9990 0.9435
-2.0529 -14.0758 -2.9989 0.9435
-0.7919 -14.2019 -2.9987 0.9435
1.7386 -14.1160 -2.9984 0.9435
4.2134 -13.5828 -2.9981 0.9435
6.5543 -12.6194 -2.9979 0.9435
9.6543 -10.4381 -2.9975 0.9435
11.3513 -8.5604 -2.9973 0.9435
12.0678 -7.5159 -2.9972 0.9435
13.2086 -5.2569 -2.9971 0.9435
13.6238 -4.0603 -2.9970 0.9435
13.9310 -2.8316 -2.9970 0.9435
14.0432 2.2082 -2.9970 0.9435
11.7607 6.6165 -2.8448 0.9463
11.1254 7.6372 -2.8449 0.9463
10.4018 8.5973 -2.8450 0.9463
8.7132 10.3061 -2.8452 0.9463
7.7617 11.0412 -2.8453 0.9463
5.6815 12.2434 -2.8455 0.9463
4.5695 12.7011 -2.8457 0.9463
2.2453 13.3113 -2.8459 0.9463
-1.3514 13.4335 -2.8463 0.9463
-2.5418 13.2606 -2.8465 0.9463
-3.7122 12.9823 -2.8466 0.9463
-4.8532 12.6010 -2.8467 0.9463
-7.0111 11.5419 -2.8470 0.9463
-8.9471 10.1167 -2.8472 0.9463
-11.3031 7.3942 -2.8475 0.9463
-12.4356 5.2732 -2.8476 0.9463
-13.5442 4.3674 -3.0002 0.9435
-13.8794 3.1447 -3.0002 0.9435
-14.1043 1.8969 -3.0002 0.9435
-13.8794 -3.1446 -3.0002 0.9435
-12.5548 -6.6994 -3.0001 0.9435
-11.1675 -8.8188 -2.9999 0.9435
-9.4263 -10.6585 -2.9997 0.9435
-8.4399 -11.4547 -2.9996 0.9435
-5.1131 -13.2758 -2.9992 0.9435
-2.6780 -13.9707 -2.9989 0.9435
2.3656 -14.0241 -2.9983 0.9435
3.6043 -13.7573 -2.9982 0.9435
7.1098 -12.3146 -2.9978 0.9435
9.1799 -10.8580 -2.9975 0.9435
10.1095 -9.9975 -2.9974 0.9435
10.9588 -9.0577 -2.9973 0.9435
11.7212 -8.0461 -2.9972 0.9435
12.9614 -5.8401 -2.9971 0.9435
13.4296 -4.6632 -2.9970 0.9435
14.0432 -2.2082 -2.9970 0.9435
14.1840 -0.9495 -2.9970 0.9435
14.2122 0.3168 -2.9969 0.9435
14.1276 1.5804 -2.9970 0.9435
12.5373 4.9897 -2.8447 0.9463
10.7743 8.1253 -2.8449 0.9463
9.1635 9.9075 -2.8451 0.9463
8.2456 10.6842 -2.8452 0.9463
5.1306 12.4846 -2.8456 0.9463
3.9992 12.8923 -2.8457 0.9463
2.8360 13.1977 -2.8459 0.9463
1.6502 13.3984 -2.8460 0.9463
-4.2869 12.8044 -2.8467 0.9463
-5.4098 12.3726 -2.8468 0.9463
-7.5184 11.2183 -2.8471 0.9463
-8.4874 10.5051 -2.8472 0.9463
-10.2163 8.8344 -2.8474 0.9463
-12.1882 5.8219 -2.8476 0.9463
-13.7254 3.7598 -3.0002 0.9435
-14.1748 1.2667 -3.0002 0.9435
-13.1444 0.0000 -3.0001 0.9475
-12.6772 -3.4726 -3.0001 0.9475
-12.3176 -4.5871 -3.0000 0.9475
-10.6674 -7.6779 -2.9998 0.9475
-8.2591 -10.2224 -2.9996 0.9475
-7.3162 -10.9166 -2.9995 0.9475
-6.3153 -11.5240 -2.9993 0.9475
-5.2643 -12.0398 -2.9992 0.9475
-3.0460 -12.7814 -2.9990 0.9475
-1.8962 -13.0012 -2.9988 0.9475
0.4390 -13.1302 -2.9986 0.9475
3.8918 -12.5460 -2.9982 0.9475
6.0541 -11.6562 -2.9979 0.9475
7.0673 -11.0707 -2.9978 0.9475
8.0243 -10.3973 -2.9977 0.9475
9.7400 -8.8093 -2.9975 0.9475
12.5843 -3.7505 -2.9971 0.9475
13.0497 -1.4598 -2.9971 0.9476
13.1017 0.8771 -2.9971 0.9476
12.7388 3.1862 -2.9971 0.9475
11.3639 5.1204 -2.8449 0.9501
10.2765 7.0544 -2.8450 0.9501
9.6081 7.9413 -2.8451 0.9501
8.0483 9.5196 -2.8453 0.9501
6.2334 10.7966 -2.8455 0.9501
5.2479 11.3090 -2.8456 0.9501
3.1599 12.0613 -2.8458 0.9501
-4.4826 11.6389 -2.8467 0.9501
-5.5010 11.1942 -2.8468 0.9501
-5.2162 7.0795 -2.0071 0.9646
-8.2639 9.3442 -2.8471 0.9501
-9.0631 8.5719 -2.8472 0.9501
-9.7903 7.7314 -2.8473 0.9501
-11.0066 5.8733 -2.8475 0.9501
-12.5098 4.0339 -3.0000 0.9475
-13.0271 1.7520 -3.0001 0.9475
-13.1314 0.5856 -3.0001 0.9475
-13.1314 -0.5855 -3.0001 0.9475
-12.8194 -2.9045 -3.0001 0.9475
-12.5098 -4.0339 -3.0001 0.9475
-12.1009 -5.1312 -3.0000 0.9475
-10.3146 -8.1454 -2.9998 0.9475
-7.7954 -10.5800 -2.9995 0.9475
-0.1464 -13.1370 -2.9986 0.9475
1.0234 -13.0973 -2.9985 0.9475
2.1850 -12.9537 -2.9984 0.9475
4.4467 -12.3599 -2.9981 0.9475
7.5533 -10.7447 -2.9977 0.9475
8.4793 -10.0294 -2.9976 0.9475
10.1226 -8.3665 -2.9974 0.9475
10.8268 -7.4322 -2.9974 0.9475
12.9717 -2.0397 -2.9971 0.9476
12.8680 2.6155 -2.9971 0.9476
9.9521 7.5053 -2.8450 0.9501
8.4643 9.1515 -2.8452 0.9501
7.6164 9.8689 -2.8453 0.9501
4.7390 11.5318 -2.8456 0.9501
3.6940 11.9083 -2.8458 0.9501
2.6195 12.1904 -2.8459 0.9501
0.4167 12.4628 -2.8461 0.9501
-5.9943 10.9383 -2.8469 0.9501
-6.9443 10.3617 -2.8470 0.9501
-8.6721 8.9669 -2.8472 0.9501
-9.4361 8.1597 -2.8473 0.9501
-10.1252 7.2877 -2.8474 0.9501
-10.7339 6.3577 -2.8474 0.9501
-11.2574 5.3772 -2.8475 0.9501
-12.6771 3.4727 -3.0001 0.9475
-12.9360 2.3306 -3.0001 0.9475
-13.0922 1.1700 -3.0001 0.9475
-12.2051 0.0001 -3.0000 0.9510
-12.0117 -2.1640 -3.0000 0.9510
-11.7713 -3.2245 -3.0000 0.9510
-11.4374 -4.2593 -2.9999 0.9510
-9.9052 -7.1293 -2.9998 0.9510
-9.2311 -7.9824 -2.9997 0.9510
-7.6690 -9.4921 -2.9995 0.9510
-5.8641 -10.7007 -2.9993 0.9510
-4.8883 -11.1797 -2.9992 0.9510
-3.8737 -11.5700 -2.9991 0.9510
-1.7607 -12.0725 -2.9988 0.9510
0.4076 -12.1924 -2.9986 0.9510
1.4911 -12.1072 -2.9984 0.9510
3.6139 -11.6500 -2.9982 0.9510
6.5626 -10.2801 -2.9978 0.9510
9.0445 -8.1803 -2.9976 0.9510
9.7365 -7.3426 -2.9975 0.9510
11.3297 -4.5091 -2.9973 0.9510
11.6859 -3.4827 -2.9972 0.9510
7.4736 8.8399 -2.8453 0.9534
6.6574 9.4703 -2.8454 0.9534
3.9193 10.8939 -2.8457 0.9534
-1.1591 11.5217 -2.8463 0.9534
-4.1624 10.8074 -2.8467 0.9534
-6.0131 9.8989 -2.8469 0.9534
-5.1948 7.0505 -2.1526 0.9646
-7.6735 8.6765 -2.8471 0.9534
-9.6939 6.3415 -2.8473 0.9534
-11.9033 2.6969 -3.0000 0.9510
-12.0962 1.6268 -3.0000 0.9510
-12.1930 -0.5437 -3.0000 0.9510
-12.0962 -1.6268 -3.0000 0.9510
-11.6159 -3.7456 -3.0000 0.9510
-11.2362 -4.7646 -2.9999 0.9510
-10.7674 -5.7456 -2.9999 0.9510
-8.8662 -8.3856 -2.9996 0.9510
-3.3543 -11.7308 -2.9990 0.9510
3.0914 -11.7997 -2.9983 0.9510
4.1292 -11.4772 -2.9981 0.9510
5.1341 -11.0637 -2.9980 0.9510
6.0983 -10.5624 -2.9979 0.9510
7.8739 -9.3132 -2.9977 0.9510
9.3998 -7.7691 -2.9975 0.9510
10.6279 -5.9791 -2.9974 0.9510
11.1177 -5.0094 -2.9973 0.9510
11.6859 3.4828 -2.9972 0.9510
9.8250 6.1191 -2.8451 0.9534
8.5848 7.7646 -2.8452 0.9534
7.8599 8.4980 -2.8453 0.9534
7.0725 9.1642 -2.8454 0.9534
6.2290 9.7576 -2.8455 0.9534
5.3360 10.2737 -2.8456 0.9534
3.4302 11.0579 -2.8458 0.9534
0.3869 11.5727 -2.8461 0.9534
-2.6846 11.2651 -2.8465 0.9534
-6.4482 9.6214 -2.8469 0.9534
-8.0525 8.3263 -2.8471 0.9534
-8.7619 7.5767 -2.8472 0.9534
-11.4374 4.2594 -2.9999 0.9510
-11.7713 3.2245 -3.0000 0.9510
-12.0116 2.1640 -3.0000 0.9510
-11.3849 0.0000 -2.9999 0.9540
-11.3397 -1.0133 -2.9999 0.9540
-11.2044 -2.0186 -2.9999 0.9540
-10.6688 -3.9731 -2.9998 0.9540
-10.2727 -4.9068 -2.9998 0.9540
-9.7950 -5.8016 -2.9997 0.9540
-9.2396 -6.6502 -2.9997 0.9540
-8.6108 -7.4460 -2.9996 0.9540
-7.1537 -8.8543 -2.9994 0.9540
-6.3371 -9.4556 -2.9993 0.9540
-4.5599 -10.4286 -2.9991 0.9540
-3.6134 -10.7927 -2.9990 0.9540
-1.6425 -11.2615 -2.9988 0.9540
-0.6336 -11.3625 -2.9987 0.9540
2.3906 -11.1249 -2.9983 0.9540
6.1219 -9.5897 -2.9979 0.9540
6.9509 -9.0065 -2.9978 0.9540
9.6560 -6.0138 -2.9975 0.9540
10.1528 -5.1304 -2.9974 0.9540
10.5690 -4.2063 -2.9974 0.9540
11.3044 -1.2646 -2.9973 0.9540
11.3720 -0.2534 -2.9973 0.9540
11.0351 2.7601 -2.9973 0.9540
10.7457 3.7314 -2.9973 0.9540
9.4103 5.2942 -2.8451 0.9563
8.3229 6.8791 -2.8452 0.9563
6.9717 8.2463 -2.8454 0.9563
6.2103 8.8343 -2.8455 0.9563
5.3995 9.3523 -2.8456 0.9563
4.5459 9.7961 -2.8457 0.9563
1.7965 10.6502 -2.8460 0.9563
-0.1203 10.8009 -2.8462 0.9563
-1.0812 10.7477 -2.8463 0.9563
-2.9699 10.3865 -2.8465 0.9563
-4.7648 9.6961 -2.8467 0.9563
-5.1581 7.0007 -2.2913 0.9647
-7.8500 7.4246 -2.8471 0.9563
-9.0425 5.9154 -2.8472 0.9563
-9.5333 5.0872 -2.8473 0.9563
-10.8352 3.4939 -2.9999 0.9540
-11.1033 2.5157 -2.9999 0.9540
-11.3736 0.5072 -2.9999 0.9540
-11.3736 -0.5071 -2.9999 0.9540
-11.2833 -1.5174 -2.9999 0.9540
-11.1034 -2.5157 -2.9999 0.9540
-9.5267 -6.2321 -2.9997 0.9540
-7.5412 -8.5269 -2.9995 0.9540
-5.9095 -9.7283 -2.9993 0.9540
-5.0200 -10.2153 -2.9992 0.9540
-4.0907 -10.6212 -2.9991 0.9540
-3.1290 -10.9427 -2.9990 0.9540
-2.1425 -11.1773 -2.9989 0.9540
0.8865 -11.3449 -2.9985 0.9540
2.8838 -11.0071 -2.9983 0.9540
3.8518 -10.7064 -2.9982 0.9540
4.7893 -10.3207 -2.9981 0.9540
8.0890 -7.9994 -2.9977 0.9540
8.7686 -7.2474 -2.9976 0.9540
9.9142 -5.5777 -2.9975 0.9540
10.3712 -4.6730 -2.9974 0.9540
11.2369 -1.7669 -2.9973 0.9540
11.3495 -0.7597 -2.9973 0.9540
11.3720 0.2535 -2.9973 0.9540
11.1470 2.2657 -2.9973 0.9540
10.9012 3.2489 -2.9973 0.9540
10.5689 4.2063 -2.9974 0.9540
9.6367 4.8697 -2.8451 0.9563
9.1652 5.7082 -2.8451 0.9563
8.0083 7.2431 -2.8453 0.9563
7.3321 7.9274 -2.8453 0.9563
6.5976 8.5488 -2.8454 0.9563
4.9777 9.5837 -2.8456 0.9563
4.1050 9.9890 -2.8457 0.9563
1.3203 10.7199 -2.8460 0.9563
-2.5043 10.5083 -2.8465 0.9563
-3.4297 10.2441 -2.8466 0.9563
-4.3281 9.8986 -2.8467 0.9563
-5.1921 9.4744 -2.8468 0.9563
-6.0149 8.9750 -2.8469 0.9563
-8.1731 7.0676 -2.8471 0.9563
-8.7699 6.3122 -2.8472 0.9563
-9.9973 4.7753 -2.9194 0.9552
-10.6688 3.9731 -2.9998 0.9540
-11.2044 2.0186 -2.9999 0.9540
-11.3397 1.0134 -2.9999 0.9540
-10.4931 -1.8904 -2.9998 0.9567
-9.9915 -3.7208 -2.9998 0.9567
-9.1731 -5.4333 -2.9997 0.9567
-8.6530 -6.2280 -2.9996 0.9567
-7.4113 -7.6632 -2.9995 0.9567
-5.9348 -8.8553 -2.9993 0.9567
-3.3841 -10.1076 -2.9990 0.9567
1.3027 -10.5772 -2.9985 0.9567
2.2389 -10.4189 -2.9984 0.9567
3.1572 -10.1779 -2.9982 0.9567
4.9115 -9.4563 -2.9980 0.9567
5.7334 -8.9813 -2.9979 0.9567
6.5099 -8.4351 -2.9979 0.9567
7.2346 -7.8219 -2.9978 0.9567
7.9019 -7.1468 -2.9977 0.9567
8.5064 -6.4150 -2.9976 0.9567
9.8985 -3.9395 -2.9975 0.9567
10.2097 -3.0428 -2.9974 0.9567
10.4399 -2.1220 -2.9974 0.9567
10.5872 -1.1843 -2.9974 0.9567
10.6506 -0.2373 -2.9974 0.9567
10.3350 2.5850 -2.9974 0.9567
10.0640 3.4947 -2.9974 0.9567
9.7132 4.3766 -2.9975 0.9567
8.8133 4.9583 -2.8452 0.9589
8.3372 5.7232 -2.8452 0.9588
7.7949 6.4427 -2.8453 0.9588
6.5294 7.7231 -2.8454 0.9588
5.0569 8.7589 -2.8456 0.9588
3.4241 9.5174 -2.8458 0.9588
2.5635 9.7847 -2.8459 0.9588
0.7880 10.0849 -2.8461 0.9588
-0.1127 10.1154 -2.8462 0.9588
-1.0126 10.0656 -2.8463 0.9588
-2.7814 9.7273 -2.8465 0.9588
-3.6363 9.4414 -2.8466 0.9588
-4.4623 9.0806 -2.8467 0.9588
-5.2530 8.6477 -2.8468 0.9588
-5.1438 6.9812 -2.4398 0.9646
-6.7035 7.5798 -2.8470 0.9588
-7.3517 6.9532 -2.8470 0.9588
-8.9687 4.7858 -2.8602 0.9586
-10.1473 3.2721 -2.9998 0.9567
-10.3984 2.3560 -2.9998 0.9567
-10.5669 1.4212 -2.9998 0.9567
-10.5669 -1.4211 -2.9998 0.9567
-10.1473 -3.2721 -2.9998 0.9567
-8.9219 -5.8364 -2.9996 0.9567
-8.3669 -6.6072 -2.9996 0.9567
-6.3235 -8.5823 -2.9993 0.9567
-3.8310 -9.9470 -2.9991 0.9567
-2.9304 -10.2481 -2.9990 0.9567
-2.0065 -10.4679 -2.9988 0.9567
-1.0668 -10.6046 -2.9987 0.9567
0.8302 -10.6249 -2.9985 0.9567
1.7726 -10.5085 -2.9984 0.9567
5.3278 -9.2279 -2.9980 0.9567
6.8791 -8.1366 -2.9978 0.9567
8.2123 -6.7876 -2.9977 0.9567
8.7836 -6.0296 -2.9976 0.9567
9.2853 -5.2238 -2.9975 0.9567
10.3350 -2.5849 -2.9974 0.9567
10.5240 -1.6548 -2.9974 0.9567
10.6506 0.2374 -2.9974 0.9567
10.2096 3.0429 -2.9974 0.9567
9.8984 3.9395 -2.9974 0.9567
7.5002 6.7836 -2.8453 0.9588
6.8669 7.4244 -2.8454 0.9588
5.4420 8.5248 -2.8456 0.9588
4.6618 8.9756 -2.8456 0.9588
3.8446 9.3552 -2.8457 0.9588
1.2365 10.0396 -2.8460 0.9588
0.3380 10.1102 -2.8461 0.9588
-1.4600 10.0107 -2.8464 0.9588
-2.3453 9.8414 -2.8465 0.9588
-3.2120 9.5939 -2.8466 0.9588
-4.0533 9.2702 -2.8467 0.9588
-5.6331 8.4052 -2.8468 0.9588
-6.3591 7.8707 -2.8469 0.9588
-7.6542 6.6189 -2.8471 0.9588
-9.9914 3.7209 -2.9998 0.9567
-10.4930 1.8904 -2.9998 0.9567
-10.6197 0.9490 -2.9998 0.9567
-9.3897 -3.4967 -2.9997 0.9590
-9.0411 -4.3185 -2.9997 0.9590
-8.6207 -5.1060 -2.9996 0.9590
-5.5774 -8.3221 -2.9993 0.9590
-4.8144 -8.7852 -2.9992 0.9590
-4.0133 -9.1786 -2.9991 0.9590
5.3883 -8.4406 -2.9980 0.9590
6.1180 -7.9274 -2.9979 0.9591
6.7992 -7.3512 -2.9978 0.9591
7.4263 -6.7167 -2.9977 0.9591
7.9945 -6.0289 -2.9977 0.9591
8.4992 -5.2933 -2.9976 0.9591
9.3027 -3.7024 -2.9975 0.9591
9.5952 -2.8596 -2.9975 0.9591
9.8116 -1.9942 -2.9975 0.9591
9.9501 -1.1131 -2.9974 0.9591
9.9898 0.6688 -2.9974 0.9591
9.7130 2.4294 -2.9975 0.9591
9.4583 3.2843 -2.9975 0.9591
9.1286 4.1132 -2.9975 0.9591
6.7579 6.6831 -2.8454 0.9611
6.1364 7.2582 -2.8455 0.9611
4.7525 8.2317 -2.8456 0.9611
4.0011 8.6223 -2.8457 0.9611
2.4092 9.1956 -2.8459 0.9611
1.5812 9.3739 -2.8460 0.9611
-3.4173 8.8730 -2.8466 0.9611
-4.1936 8.5338 -2.8467 0.9611
-4.9367 8.1270 -2.8468 0.9611
-5.1293 6.9616 -2.5888 0.9645
-7.4633 5.8938 -2.8471 0.9611
-8.8396 4.7170 -2.9996 0.9590
-9.5362 3.0750 -2.9997 0.9590
-9.7721 2.2141 -2.9997 0.9590
-9.9305 1.3356 -2.9998 0.9590
-10.0100 0.4464 -2.9998 0.9590
-9.2246 -3.9115 -2.9997 0.9590
-8.8397 -4.7170 -2.9996 0.9590
-8.3846 -5.4849 -2.9996 0.9590
-7.8630 -6.2093 -2.9995 0.9590
-4.4182 -8.9908 -2.9991 0.9590
-3.6003 -9.3481 -2.9990 0.9590
-2.7539 -9.6311 -2.9989 0.9590
-1.0026 -9.9661 -2.9987 0.9590
-0.1116 -10.0154 -2.9986 0.9590
0.7803 -9.9853 -2.9985 0.9590
3.3903 -9.4234 -2.9982 0.9590
4.2154 -9.0840 -2.9981 0.9590
5.7589 -8.1921 -2.9979 0.9591
6.4650 -7.6468 -2.9979 0.9591
7.1198 -7.0409 -2.9978 0.9591
7.7180 -6.3791 -2.9977 0.9591
8.7264 -4.9094 -2.9976 0.9591
9.4584 -3.2843 -2.9975 0.9591
9.7131 -2.4294 -2.9975 0.9591
9.8906 -1.5552 -2.9975 0.9591
9.9898 -0.6687 -2.9974 0.9591
9.9501 1.1131 -2.9974 0.9591
9.5952 2.8597 -2.9975 0.9591
9.3027 3.7024 -2.9975 0.9591
8.0672 5.0243 -2.8453 0.9611
5.8071 7.5245 -2.8455 0.9611
5.1145 8.0117 -2.8456 0.9611
4.3812 8.4353 -2.8457 0.9611
3.6131 8.7921 -2.8458 0.9611
2.8164 9.0791 -2.8459 0.9611
1.9972 9.2940 -2.8460 0.9611
1.1621 9.4352 -2.8461 0.9611
0.3177 9.5015 -2.8461 0.9611
-1.3721 9.4079 -2.8463 0.9611
-3.8093 8.7120 -2.8466 0.9611
-5.9761 7.3968 -2.8469 0.9611
-6.6109 6.8357 -2.8470 0.9611
-8.1825 4.8466 -2.8471 0.9611
-9.0411 4.3186 -2.9996 0.9590
-9.3897 3.4968 -2.9997 0.9590
-9.8611 1.7766 -2.9997 0.9590
-9.4453 0.0000 -2.9997 0.9611
-9.2956 -1.6747 -2.9997 0.9611
-8.8513 -3.2962 -2.9996 0.9611
-8.5227 -4.0709 -2.9996 0.9611
-8.1264 -4.8133 -2.9995 0.9611
-7.1440 -6.1776 -2.9994 0.9611
0.3155 -9.4365 -2.9986 0.9611
1.1541 -9.3707 -2.9985 0.9612
1.9835 -9.2305 -2.9984 0.9612
5.0795 -7.9570 -2.9980 0.9612
5.7674 -7.4731 -2.9979 0.9612
7.5363 -5.6834 -2.9977 0.9612
8.7697 -3.4902 -2.9976 0.9612
9.3800 -1.0493 -2.9975 0.9612
9.4174 0.6304 -2.9975 0.9612
9.3239 1.4662 -2.9975 0.9612
9.1565 2.2902 -2.9975 0.9612
8.9164 3.0962 -2.9976 0.9612
7.3864 5.0705 -2.8453 0.9631
4.4802 7.7599 -2.8457 0.9631
3.7718 8.1281 -2.8458 0.9631
3.0335 8.4318 -2.8458 0.9631
2.2711 8.6687 -2.8459 0.9631
-0.8971 8.9173 -2.8463 0.9631
-2.4641 8.6175 -2.8465 0.9631
-3.2214 8.3642 -2.8466 0.9631
-5.1149 6.9420 -2.7385 0.9645
-6.5128 6.1598 -2.8469 0.9631
-7.0354 5.5558 -2.8470 0.9631
-7.5021 4.9077 -2.8471 0.9631
-8.3328 4.4465 -2.9996 0.9611
-9.3610 1.2590 -2.9997 0.9611
-9.4360 -0.4207 -2.9997 0.9611
-9.3610 -1.2589 -2.9997 0.9611
-7.9038 -5.1704 -2.9995 0.9611
-6.8616 -6.4896 -2.9994 0.9611
-6.2566 -7.0744 -2.9993 0.9611
-5.6020 -7.6030 -2.9993 0.9611
-4.1649 -8.4753 -2.9991 0.9611
-3.3939 -8.8122 -2.9990 0.9611
-2.5961 -9.0790 -2.9989 0.9611
-1.7776 -9.2737 -2.9988 0.9611
-0.9451 -9.3948 -2.9987 0.9611
-0.1052 -9.4413 -2.9986 0.9611
1.5704 -9.3098 -2.9984 0.9612
2.3927 -9.1328 -2.9983 0.9612
3.1960 -8.8833 -2.9982 0.9612
3.9738 -8.5633 -2.9981 0.9612
4.7201 -8.1754 -2.9981 0.9612
5.4289 -7.7227 -2.9980 0.9612
6.0945 -7.2086 -2.9979 0.9612
7.2758 -6.0136 -2.9978 0.9612
8.2264 -4.6281 -2.9976 0.9612
9.1565 -2.2902 -2.9975 0.9612
9.3239 -1.4661 -2.9975 0.9612
9.4174 -0.6304 -2.9975 0.9612
9.3799 1.0493 -2.9975 0.9612
8.7696 3.4903 -2.9976 0.9612
7.1533 5.3946 -2.8454 0.9631
6.6449 6.0100 -2.8454 0.9631
6.0837 6.5777 -2.8455 0.9631
5.4743 7.0932 -2.8456 0.9631
4.1301 7.9519 -2.8457 0.9631
1.8827 8.7613 -2.8460 0.9631
-0.4990 8.9483 -2.8462 0.9631
-1.2935 8.8686 -2.8463 0.9631
-2.0777 8.7186 -2.8464 0.9631
-4.3077 7.8606 -2.8467 0.9631
-4.9495 7.3853 -2.8235 0.9634
-5.6335 6.9727 -2.8468 0.9631
-6.7808 5.8636 -2.8470 0.9631
-7.2760 5.2369 -2.8470 0.9631
-8.0398 4.7620 -2.9676 0.9615
-9.2956 1.6747 -2.9997 0.9611
-8.8925 -0.7946 -2.9996 0.9630
-8.7865 -1.5830 -2.9996 0.9630
-8.6106 -2.3587 -2.9996 0.9630
-8.3665 -3.1157 -2.9996 0.9630
-7.6813 -4.5496 -2.9995 0.9630
-6.2060 -6.4170 -2.9993 0.9630
-5.6101 -6.9437 -2.9993 0.9630
-4.9697 -7.4153 -2.9992 0.9630
-3.5760 -8.1785 -2.9990 0.9630
-2.0691 -8.6825 -2.9989 0.9630
-0.4969 -8.9112 -2.9987 0.9630
1.8749 -8.7251 -2.9984 0.9630
2.6440 -8.5233 -2.9983 0.9630
3.3920 -8.2539 -2.9982 0.9630
5.4517 -7.0639 -2.9980 0.9630
6.6175 -5.9851 -2.9978 0.9630
7.5735 -4.7168 -2.9977 0.9631
8.2896 -3.2992 -2.9976 0.9631
8.5503 -2.5482 -2.9976 0.9631
8.9196 -0.1987 -2.9976 0.9631
8.6553 2.1649 -2.9976 0.9631
6.9821 4.7929 -2.8454 0.9649
6.5279 5.3955 -2.8454 0.9649
4.8708 6.9289 -2.8456 0.9649
4.2349 7.3351 -2.8457 0.9649
2.8674 7.9702 -2.8459 0.9649
2.1467 8.1940 -2.8459 0.9649
1.4089 8.3528 -2.8460 0.9649
-0.8480 8.4290 -2.8463 0.9649
-1.5949 8.3204 -2.8464 0.9649
-4.3988 7.2415 -2.8467 0.9649
-6.1561 5.8225 -2.8469 0.9649
-6.6500 5.2515 -2.8470 0.9649
-7.2885 4.7680 -2.9262 0.9639
-8.4970 2.7399 -2.9996 0.9630
-8.7072 1.9728 -2.9996 0.9630
-8.8483 1.1900 -2.9996 0.9630
-8.9191 0.3978 -2.9996 0.9630
-8.8483 -1.1900 -2.9996 0.9630
-8.7072 -1.9728 -2.9996 0.9630
-8.2193 -3.4853 -2.9996 0.9630
-7.0062 -5.5327 -2.9994 0.9630
-6.4858 -6.1342 -2.9994 0.9630
-3.9368 -8.0112 -2.9991 0.9630
-0.8934 -8.8804 -2.9987 0.9630
0.6953 -8.8975 -2.9985 0.9630
1.4844 -8.8000 -2.9984 0.9630
2.2617 -8.6327 -2.9983 0.9630
3.0210 -8.3970 -2.9983 0.9630
6.3444 -6.2740 -2.9979 0.9630
8.1345 -3.6652 -2.9977 0.9631
8.9196 0.1988 -2.9976 0.9631
8.8665 0.9919 -2.9976 0.9631
8.7431 1.7771 -2.9976 0.9631
8.5503 2.5483 -2.9976 0.9631
8.2896 3.2992 -2.9976 0.9631
6.7617 5.0993 -2.8454 0.9649
5.7507 6.2176 -2.8455 0.9649
5.1746 6.7049 -2.8456 0.9649
3.2196 7.8345 -2.8458 0.9649
2.5096 8.0901 -2.8459 0.9649
1.7796 8.2816 -2.8460 0.9649
1.0355 8.4074 -2.8461 0.9649
-0.4716 8.4583 -2.8462 0.9649
-2.6898 8.0339 -2.8465 0.9649
-4.0718 7.4301 -2.8467 0.9649
-4.7171 7.0384 -2.8467 0.9649
-7.6812 4.5497 -2.9995 0.9630
-8.0558 3.8479 -2.9995 0.9630
-8.3664 3.1157 -2.9996 0.9630
-8.6106 2.3587 -2.9996 0.9630
-8.8925 0.7947 -2.9996 0.9630
-8.4258 -0.7529 -2.9996 0.9647
-8.3253 -1.4998 -2.9996 0.9647
-7.9274 -2.9521 -2.9995 0.9647
-7.6331 -3.6460 -2.9995 0.9647
-7.2781 -4.3108 -2.9994 0.9647
-4.7089 -7.0262 -2.9992 0.9647
-4.0647 -7.4172 -2.9991 0.9647
0.2826 -8.4518 -2.9986 0.9647
1.0337 -8.3929 -2.9985 0.9647
1.7765 -8.2673 -2.9984 0.9647
2.5053 -8.0761 -2.9983 0.9647
3.2140 -7.8209 -2.9982 0.9648
3.8973 -7.5036 -2.9982 0.9648
4.5496 -7.1267 -2.9981 0.9648
5.1657 -6.6934 -2.9980 0.9648
5.7408 -6.2069 -2.9979 0.9648
6.2704 -5.6712 -2.9979 0.9648
7.1763 -4.4694 -2.9978 0.9648
7.8548 -3.1261 -2.9977 0.9648
8.4015 -0.9398 -2.9976 0.9648
8.2013 2.0513 -2.9976 0.9648
7.3682 4.1453 -2.9977 0.9648
6.8894 4.7293 -2.9631 0.9652
6.1855 5.1124 -2.8455 0.9665
5.7060 5.6428 -2.8455 0.9665
4.6153 6.5654 -2.8457 0.9665
4.0127 6.9503 -2.8457 0.9665
3.3783 7.2801 -2.8458 0.9665
2.7170 7.5521 -2.8459 0.9665
2.0341 7.7641 -2.8460 0.9665
0.6253 8.0022 -2.8461 0.9665
-0.0894 8.0263 -2.8462 0.9665
-0.8035 7.9868 -2.8463 0.9665
-2.8852 7.4913 -2.8465 0.9665
-3.5406 7.2050 -2.8466 0.9665
-4.7623 6.4634 -2.8467 0.9665
-5.8330 5.5169 -2.8469 0.9665
-7.4630 3.9824 -2.9995 0.9647
-7.7879 3.3024 -2.9995 0.9647
-8.0510 2.5961 -2.9995 0.9647
-8.2502 1.8693 -2.9996 0.9647
-8.3839 1.1276 -2.9996 0.9647
-8.4510 0.3769 -2.9996 0.9647
-8.3839 -1.1275 -2.9996 0.9647
-8.0510 -2.5961 -2.9995 0.9647
-7.7879 -3.3023 -2.9995 0.9647
-7.4630 -3.9823 -2.9995 0.9647
-7.0788 -4.6307 -2.9994 0.9647
-6.6385 -5.2423 -2.9994 0.9647
-6.1454 -5.8123 -2.9993 0.9647
-5.6036 -6.3360 -2.9993 0.9647
-3.7302 -7.5908 -2.9990 0.9647
-3.0397 -7.8925 -2.9990 0.9647
-1.5921 -8.3059 -2.9988 0.9647
-0.8465 -8.4145 -2.9987 0.9647
2.1430 -8.1798 -2.9984 0.9647
4.8625 -6.9170 -2.9980 0.9648
5.4587 -6.4565 -2.9980 0.9648
6.0116 -5.9449 -2.9979 0.9648
6.9701 -4.7847 -2.9978 0.9648
7.7078 -3.4729 -2.9977 0.9648
7.9862 -2.7731 -2.9977 0.9648
8.3513 -1.3131 -2.9976 0.9648
8.4350 -0.5646 -2.9976 0.9648
8.4014 0.9399 -2.9976 0.9648
8.1018 2.4146 -2.9977 0.9648
7.1763 4.4695 -2.9978 0.9648
5.9517 5.3830 -2.8455 0.9665
5.4490 5.8915 -2.8456 0.9665
4.9031 6.3532 -2.8456 0.9665
4.3183 6.7646 -2.8457 0.9665
3.0507 7.4234 -2.8458 0.9665
2.3779 7.6657 -2.8459 0.9665
0.2682 8.0222 -2.8462 0.9665
-1.8609 7.8088 -2.8464 0.9665
-3.2161 7.3555 -2.8466 0.9665
-3.8581 7.0402 -2.8466 0.9665
-5.0455 6.2449 -2.8468 0.9665
-7.6330 3.6460 -2.9995 0.9647
-8.1587 2.2349 -2.9995 0.9647
-8.0009 -0.7149 -2.9995 0.9663
-7.9055 -1.4242 -2.9995 0.9663
-7.7473 -2.1221 -2.9995 0.9663
-7.2481 -3.4621 -2.9994 0.9663
-6.9111 -4.0935 -2.9994 0.9663
-6.5193 -4.6922 -2.9994 0.9663
-6.0757 -5.2538 -2.9993 0.9663
-5.0477 -6.2476 -2.9992 0.9663
-4.4715 -6.6719 -2.9991 0.9663
-3.8598 -7.0432 -2.9991 0.9663
-3.2175 -7.3586 -2.9990 0.9663
-2.5497 -7.6156 -2.9989 0.9663
-1.1590 -7.9466 -2.9987 0.9663
-0.4471 -8.0180 -2.9987 0.9663
0.9816 -7.9697 -2.9985 0.9663
1.6870 -7.8505 -2.9984 0.9663
3.0520 -7.4267 -2.9983 0.9663
4.3202 -6.7675 -2.9981 0.9663
4.9053 -6.3560 -2.9980 0.9663
7.1652 -3.6207 -2.9978 0.9663
7.4590 -2.9686 -2.9977 0.9663
7.6935 -2.2929 -2.9977 0.9663
7.8670 -1.5990 -2.9977 0.9663
7.9780 -0.8924 -2.9977 0.9663
8.0258 -0.1788 -2.9977 0.9663
8.0099 0.5362 -2.9977 0.9663
7.7880 1.9479 -2.9977 0.9663
7.3193 3.2980 -2.9977 0.9663
6.9968 3.9364 -2.9978 0.9663
4.9201 5.8195 -2.8456 0.9680
4.3827 6.2345 -2.8457 0.9680
3.8105 6.6000 -2.8457 0.9680
3.2080 6.9131 -2.8458 0.9680
1.9316 7.3728 -2.8460 0.9680
0.5938 7.5988 -2.8461 0.9680
-0.0849 7.6217 -2.8462 0.9680
-1.4350 7.4863 -2.8464 0.9680
-2.7398 7.1137 -2.8465 0.9680
-3.3621 6.8418 -2.8466 0.9680
-3.9578 6.5155 -2.8467 0.9680
-5.0506 5.7108 -2.8468 0.9680
-6.0458 4.7744 -2.8766 0.9676
-6.7218 4.3973 -2.9994 0.9663
-7.0867 3.7816 -2.9994 0.9663
-7.9611 1.0707 -2.9995 0.9663
-8.0248 0.3579 -2.9995 0.9663
-8.0248 -0.3578 -2.9995 0.9663
-7.9611 -1.0706 -2.9995 0.9663
-7.6450 -2.4652 -2.9995 0.9663
-7.3952 -3.1358 -2.9995 0.9663
-6.7219 -4.3972 -2.9994 0.9663
-6.3037 -4.9779 -2.9993 0.9663
-5.3210 -6.0165 -2.9992 0.9663
-4.1698 -6.8644 -2.9991 0.9663
-3.5422 -7.2080 -2.9990 0.9663
-2.8865 -7.4946 -2.9989 0.9663
-2.2079 -7.7215 -2.9989 0.9663
-1.5119 -7.8871 -2.9988 0.9663
-0.0895 -8.0298 -2.9986 0.9663
0.6256 -8.0057 -2.9985 0.9663
2.0350 -7.7675 -2.9984 0.9663
3.3798 -7.2832 -2.9982 0.9663
4.0145 -6.9533 -2.9981 0.9663
6.1883 -5.1147 -2.9979 0.9663
6.6188 -4.5436 -2.9978 0.9663
7.3193 -3.2979 -2.9978 0.9663
7.5837 -2.6333 -2.9977 0.9663
7.9304 -1.2470 -2.9977 0.9663
8.0099 -0.5362 -2.9977 0.9663
8.0258 0.1789 -2.9977 0.9663
7.9780 0.8925 -2.9977 0.9663
7.8670 1.5990 -2.9977 0.9663
7.4589 2.9686 -2.9977 0.9663
6.8146 4.2442 -2.9978 0.9663
6.2794 4.7355 -2.9368 0.9670
5.1744 5.5945 -2.8456 0.9680
4.6560 6.0330 -2.8457 0.9680
4.1007 6.4236 -2.8457 0.9680
3.5127 6.7633 -2.8458 0.9680
1.6012 7.4515 -2.8460 0.9680
0.2547 7.6178 -2.8462 0.9680
-1.7671 7.4151 -2.8464 0.9680
-5.3000 5.4802 -2.8468 0.9680
-5.7668 4.9868 -2.8469 0.9680
-6.5192 4.6923 -2.9993 0.9663
-6.9111 4.0935 -2.9994 0.9663
-7.2481 3.4622 -2.9994 0.9663
-7.6122 -0.6802 -2.9995 0.9677
-7.1619 -2.6671 -2.9994 0.9677
-6.8961 -3.2939 -2.9994 0.9677
-6.5754 -3.8946 -2.9994 0.9677
-6.2026 -4.4643 -2.9993 0.9677
-5.7805 -4.9986 -2.9993 0.9677
-4.8025 -5.9441 -2.9992 0.9677
-3.6723 -6.7011 -2.9990 0.9677
-3.0612 -7.0012 -2.9990 0.9677
-2.4259 -7.2457 -2.9989 0.9677
-1.7713 -7.4327 -2.9988 0.9677
-1.1027 -7.5606 -2.9987 0.9677
0.2553 -7.6360 -2.9986 0.9677
1.6051 -7.4693 -2.9984 0.9677
2.9038 -7.0661 -2.9983 0.9677
3.5211 -6.7794 -2.9982 0.9677
4.6672 -6.0474 -2.9981 0.9677
6.8173 -3.4449 -2.9978 0.9677
7.6210 0.5102 -2.9977 0.9677
7.5454 1.1865 -2.9977 0.9677
6.2974 4.3230 -2.9979 0.9677
5.7347 4.7399 -2.9200 0.9685
4.6812 5.5370 -2.8456 0.9693
2.4548 6.8231 -2.8459 0.9693
1.8378 7.0147 -2.8460 0.9693
0.5649 7.2298 -2.8461 0.9693
-1.9939 6.9731 -2.8464 0.9693
-3.7656 6.1990 -2.8466 0.9693
-4.3025 5.8394 -2.8467 0.9693
-4.8052 5.4334 -2.8467 0.9693
-5.2699 4.9843 -2.8468 0.9693
-5.9975 4.7362 -2.9993 0.9677
-6.7424 3.5979 -2.9994 0.9677
-7.2736 2.3455 -2.9994 0.9677
-7.6350 0.3405 -2.9995 0.9677
-7.6350 -0.3404 -2.9995 0.9677
-7.4536 -1.6887 -2.9995 0.9677
-7.2737 -2.3454 -2.9994 0.9677
-5.0626 -5.7243 -2.9992 0.9677
-2.7463 -7.1305 -2.9989 0.9677
-2.1007 -7.3465 -2.9989 0.9677
1.9362 -7.3903 -2.9984 0.9677
3.8196 -6.6157 -2.9982 0.9677
5.4314 -5.3712 -2.9980 0.9677
7.2156 -2.5055 -2.9978 0.9677
7.4099 -1.8533 -2.9977 0.9677
7.5454 -1.1864 -2.9977 0.9677
7.6210 -0.5101 -2.9977 0.9677
7.4850 1.5214 -2.9977 0.9677
7.3200 2.1816 -2.9977 0.9677
7.0968 2.8245 -2.9978 0.9677
6.8173 3.4450 -2.9978 0.9677
6.4837 4.0381 -2.9978 0.9677
6.0987 4.5992 -2.9979 0.9677
5.3773 4.8635 -2.8456 0.9693
4.4299 5.7401 -2.8457 0.9693
3.9015 6.1117 -2.8457 0.9693
2.1484 6.9258 -2.8459 0.9693
1.5235 7.0897 -2.8460 0.9693
0.8864 7.1973 -2.8461 0.9693
-1.6813 7.0549 -2.8464 0.9693
-2.9056 6.6454 -2.8465 0.9693
-4.0380 6.0252 -2.8467 0.9693
-4.5584 5.6420 -2.8467 0.9693
-5.5222 4.7753 -2.8653 0.9691
-6.8960 3.2940 -2.9994 0.9677
-7.1619 2.6671 -2.9994 0.9677
-7.3709 2.0192 -2.9995 0.9677
-7.6122 0.6803 -2.9995 0.9677
-7.1686 -1.2914 -2.9994 0.9690
-7.0252 -1.9244 -2.9994 0.9690
-6.5726 -3.1394 -2.9994 0.9690
-6.2670 -3.7119 -2.9993 0.9690
-5.9117 -4.2549 -2.9993 0.9690
-4.5772 -5.6653 -2.9991 0.9690
-3.5001 -6.3868 -2.9990 0.9690
-2.3121 -6.9059 -2.9989 0.9690
-1.6882 -7.0841 -2.9988 0.9690
-0.4054 -7.2709 -2.9987 0.9690
0.2433 -7.2779 -2.9986 0.9690
2.7677 -6.7347 -2.9983 0.9690
3.9177 -6.1370 -2.9982 0.9690
4.4483 -5.7638 -2.9981 0.9690
4.9436 -5.3449 -2.9980 0.9690
5.8128 -4.3836 -2.9979 0.9690
6.1798 -3.8487 -2.9979 0.9690
6.4977 -3.2834 -2.9978 0.9690
6.9768 -2.0793 -2.9978 0.9690
7.1916 1.1309 -2.9978 0.9690
7.0625 1.7665 -2.9978 0.9690
6.8773 2.3881 -2.9978 0.9690
4.9136 4.8592 -2.8456 0.9705
2.9091 6.2690 -2.8459 0.9705
2.3396 6.5032 -2.8459 0.9705
1.7516 6.6858 -2.8460 0.9705
1.1496 6.8153 -2.8461 0.9705
0.5385 6.8908 -2.8461 0.9705
-1.3013 6.7887 -2.8463 0.9705
-3.0488 6.2041 -2.8465 0.9705
-4.1007 5.5655 -2.8467 0.9705
-6.0954 3.9874 -2.9993 0.9690
-6.4261 3.4291 -2.9993 0.9690
-6.7059 2.8436 -2.9994 0.9690
-6.9325 2.2355 -2.9994 0.9690
-7.2768 -0.3245 -2.9994 0.9690
-6.9325 -2.2354 -2.9994 0.9690
-6.0954 -3.9874 -2.9993 0.9690
-5.7162 -4.5140 -2.9993 0.9690
-5.2917 -5.0048 -2.9992 0.9690
-4.8251 -5.4558 -2.9992 0.9690
-3.2121 -6.5363 -2.9990 0.9690
-0.7289 -7.2457 -2.9987 0.9690
-0.0811 -7.2816 -2.9986 0.9690
0.5673 -7.2597 -2.9985 0.9690
1.2112 -7.1803 -2.9985 0.9690
3.6405 -6.3055 -2.9982 0.9690
4.1872 -5.9563 -2.9981 0.9690
4.7006 -5.5599 -2.9981 0.9690
6.3450 -3.5696 -2.9979 0.9690
6.8773 -2.3880 -2.9978 0.9690
7.0625 -1.7664 -2.9978 0.9690
7.1341 1.4501 -2.9978 0.9690
6.4977 3.2835 -2.9978 0.9690
6.1797 3.8488 -2.9979 0.9690
5.2436 4.7426 -2.9114 0.9699
4.6923 5.0733 -2.8456 0.9705
4.2222 5.4710 -2.8457 0.9705
3.7186 5.8251 -2.8458 0.9705
2.6270 6.3925 -2.8459 0.9705
1.4520 6.7573 -2.8460 0.9705
0.8449 6.8599 -2.8461 0.9705
-0.3848 6.9013 -2.8462 0.9705
-1.6024 6.7241 -2.8464 0.9705
-2.1946 6.5549 -2.8464 0.9705
-2.7694 6.3337 -2.8465 0.9705
-3.3222 6.0622 -2.8466 0.9705
-3.8487 5.7426 -2.8466 0.9705
-4.8060 4.9695 -2.8468 0.9705
-5.4951 4.7518 -2.9915 0.9691
-5.9116 4.2550 -2.9993 0.9690
-6.2670 3.7120 -2.9993 0.9690
-7.1686 1.2915 -2.9994 0.9690
-7.2552 0.6483 -2.9994 0.9690
-6.9534 0.0001 -2.9994 0.9702
-6.9258 -0.6188 -2.9994 0.9702
-6.5161 -2.4266 -2.9994 0.9702
-6.2742 -2.9969 -2.9993 0.9702
-5.9825 -3.5434 -2.9993 0.9702
-5.2593 -4.5479 -2.9992 0.9702
-3.8707 -5.7754 -2.9991 0.9702
-3.3412 -6.0969 -2.9990 0.9702
-2.2072 -6.5925 -2.9989 0.9702
-1.6116 -6.7626 -2.9988 0.9702
-1.0033 -6.8790 -2.9987 0.9702
-0.3870 -6.9409 -2.9987 0.9702
0.2323 -6.9476 -2.9986 0.9702
3.2037 -6.1683 -2.9982 0.9702
4.7193 -5.1024 -2.9981 0.9702
5.8994 -3.6741 -2.9979 0.9702
6.2029 -3.1344 -2.9979 0.9702
6.4572 -2.5699 -2.9979 0.9702
6.6602 -1.9850 -2.9978 0.9702
6.8104 -1.3843 -2.9978 0.9702
6.9066 -0.7726 -2.9978 0.9702
6.9341 0.4642 -2.9978 0.9702
6.7420 1.6863 -2.9978 0.9702
6.5652 2.2797 -2.9978 0.9702
6.3363 2.8551 -2.9979 0.9702
5.7299 3.9334 -2.9979 0.9702
5.3571 4.4278 -2.9980 0.9702
4.7969 4.7438 -2.9101 0.9710
3.7940 5.3971 -2.8458 0.9717
1.0974 6.5060 -2.8461 0.9717
0.5140 6.5781 -2.8461 0.9717
-1.8141 6.3444 -2.8464 0.9717
-2.3717 6.1579 -2.8465 0.9717
-2.9104 5.9226 -2.8465 0.9717
-3.4261 5.6401 -2.8466 0.9717
-3.9146 5.3129 -2.8466 0.9717
-4.3720 4.9435 -2.8467 0.9717
-5.0247 4.7523 -2.9833 0.9703
-5.8187 3.8064 -2.9993 0.9702
-6.1344 3.2735 -2.9993 0.9702
-6.7815 1.5365 -2.9994 0.9702
-6.8913 0.9268 -2.9994 0.9702
-6.7815 -1.5364 -2.9994 0.9702
-5.8187 -3.8064 -2.9993 0.9702
-5.4567 -4.3091 -2.9992 0.9702
-5.0515 -4.7776 -2.9992 0.9702
-4.6061 -5.2082 -2.9991 0.9702
-3.0663 -6.2397 -2.9990 0.9702
-2.4987 -6.4877 -2.9989 0.9702
-1.3087 -6.8276 -2.9988 0.9702
-0.6958 -6.9168 -2.9987 0.9702
-0.0774 -6.9511 -2.9986 0.9702
0.5415 -6.9302 -2.9985 0.9702
1.1562 -6.8544 -2.9985 0.9702
1.7616 -6.7241 -2.9984 0.9702
2.3531 -6.5405 -2.9983 0.9702
2.9258 -6.3050 -2.9983 0.9702
3.9972 -5.6861 -2.9981 0.9702
4.4873 -5.3076 -2.9981 0.9702
4.9418 -4.8871 -2.9980 0.9702
6.3363 -2.8550 -2.9979 0.9702
6.5652 -2.2796 -2.9978 0.9702
6.7420 -1.6863 -2.9978 0.9702
6.9341 -0.4642 -2.9978 0.9702
6.9066 0.7726 -2.9978 0.9702
6.4572 2.5699 -2.9978 0.9702
6.2029 3.1345 -2.9979 0.9702
5.1546 4.6621 -2.9980 0.9702
4.0306 5.2227 -2.8457 0.9717
3.0409 5.8548 -2.8458 0.9717
2.5078 6.1024 -2.8459 0.9717
1.9547 6.3015 -2.8460 0.9717
1.3861 6.4506 -2.8460 0.9717
0.8065 6.5485 -2.8461 0.9717
0.2205 6.5945 -2.8462 0.9717
-0.3674 6.5881 -2.8462 0.9717
-0.9523 6.5295 -2.8463 0.9717
-4.1474 5.1333 -2.8467 0.9717
-5.9825 3.5435 -2.9993 0.9702
-6.2742 2.9969 -2.9993 0.9702
-6.7063 1.8371 -2.9994 0.9702
-6.9258 0.6189 -2.9994 0.9702
-6.6473 0.0000 -2.9994 0.9713
-5.3949 -3.8830 -2.9992 0.9713
-5.0278 -4.3477 -2.9992 0.9713
-4.6208 -4.7779 -2.9991 0.9713
-3.7003 -5.5212 -2.9990 0.9713
-3.1941 -5.8285 -2.9990 0.9713
-1.5407 -6.4649 -2.9988 0.9713
-0.9591 -6.5763 -2.9987 0.9713
0.8123 -6.5955 -2.9985 0.9713
1.9688 -6.3467 -2.9984 0.9713
2.5258 -6.1462 -2.9983 0.9713
4.0596 -5.2602 -2.9981 0.9713
5.3048 -4.0005 -2.9980 0.9713
6.1731 -2.4568 -2.9979 0.9713
6.3672 -1.8976 -2.9979 0.9713
6.6027 -0.7386 -2.9978 0.9713
6.6290 0.4438 -2.9978 0.9713
6.2763 2.1794 -2.9979 0.9713
6.0575 2.7294 -2.9979 0.9713
5.7906 3.2577 -2.9979 0.9713
5.1214 4.2330 -2.9980 0.9713
3.6271 5.1596 -2.8458 0.9727
3.1535 5.4620 -2.8458 0.9727
1.0491 6.2197 -2.8461 0.9727
0.4914 6.2886 -2.8461 0.9727
-1.1875 6.1954 -2.8463 0.9727
-1.7343 6.0652 -2.8464 0.9727
-2.7823 5.6619 -2.8465 0.9727
-3.2753 5.3919 -2.8466 0.9727
-3.7422 5.0790 -2.8466 0.9727
-4.8291 4.5673 -2.9992 0.9713
-6.1197 2.5950 -2.9993 0.9713
-6.3264 2.0400 -2.9993 0.9713
-6.4829 1.4688 -2.9993 0.9713
-6.4829 -1.4688 -2.9994 0.9713
-6.1197 -2.5949 -2.9993 0.9713
-5.5625 -3.6388 -2.9992 0.9713
-4.8291 -4.5673 -2.9992 0.9713
-2.9313 -5.9650 -2.9989 0.9713
-0.6652 -6.6124 -2.9987 0.9713
-0.0740 -6.6452 -2.9986 0.9713
1.1053 -6.5527 -2.9985 0.9713
1.6841 -6.4282 -2.9984 0.9713
2.2495 -6.2527 -2.9983 0.9713
3.3224 -5.7545 -2.9982 0.9713
4.2899 -5.0740 -2.9981 0.9713
5.4777 -3.7602 -2.9980 0.9713
6.0575 -2.7294 -2.9979 0.9713
6.2764 -2.1794 -2.9979 0.9713
6.4454 -1.6121 -2.9979 0.9713
6.5632 -1.0320 -2.9978 0.9713
6.6290 -0.4437 -2.9978 0.9713
5.3048 4.0006 -2.9980 0.9713
4.9278 4.4569 -2.9980 0.9713
4.3875 4.7438 -2.9156 0.9720
3.8533 4.9929 -2.8457 0.9727
3.3937 5.3161 -2.8458 0.9727
2.9071 5.5971 -2.8459 0.9727
1.8687 6.0242 -2.8460 0.9727
0.7710 6.2604 -2.8461 0.9727
0.2108 6.3043 -2.8462 0.9727
-0.3512 6.2982 -2.8462 0.9727
-2.5273 5.7801 -2.8465 0.9727
-3.9648 4.9073 -2.8467 0.9727
-4.5953 4.7515 -2.9826 0.9714
-5.9980 2.8650 -2.9993 0.9713
-6.2292 2.3198 -2.9993 0.9713
-6.4110 1.7562 -2.9993 0.9713
-6.5419 1.1786 -2.9994 0.9713
-6.6209 0.5917 -2.9994 0.9713
-6.3629 0.0000 -2.9993 0.9723
-6.3377 -0.5663 -2.9993 0.9723
-6.2621 -1.1282 -2.9993 0.9723
-6.1368 -1.6810 -2.9993 0.9723
-5.9628 -2.2205 -2.9993 0.9723
-4.8127 -4.1617 -2.9992 0.9723
-3.5420 -5.2851 -2.9990 0.9723
-2.5488 -5.8291 -2.9989 0.9723
-1.4748 -6.1884 -2.9988 0.9723
-0.3542 -6.3516 -2.9986 0.9723
0.2126 -6.3578 -2.9986 0.9723
1.3364 -6.2190 -2.9985 0.9723
1.8846 -6.0753 -2.9984 0.9723
2.4178 -5.8833 -2.9983 0.9723
3.8860 -5.0352 -2.9982 0.9723
4.7171 -4.2663 -2.9981 0.9723
6.0949 -1.8164 -2.9979 0.9723
6.2324 -1.2668 -2.9979 0.9723
6.3204 -0.7070 -2.9979 0.9723
6.3582 -0.1417 -2.9979 0.9723
6.2826 0.9879 -2.9979 0.9723
6.1698 1.5432 -2.9979 0.9723
6.0080 2.0862 -2.9979 0.9723
5.7985 2.6127 -2.9979 0.9723
4.9024 4.0519 -2.9980 0.9723
4.5223 4.4723 -2.9981 0.9723
3.4720 4.9390 -2.8458 0.9737
3.0187 5.2285 -2.8458 0.9737
2.0439 5.6811 -2.8460 0.9737
1.5302 5.8406 -2.8460 0.9737
1.0043 5.9537 -2.8461 0.9737
0.4704 6.0196 -2.8461 0.9737
-0.0673 6.0377 -2.8462 0.9737
-0.6044 6.0079 -2.8463 0.9737
-1.1368 5.9304 -2.8463 0.9737
-2.1703 5.6351 -2.8464 0.9736
-2.6633 5.4197 -2.8465 0.9736
-3.1352 5.1612 -2.8466 0.9736
-3.5822 4.8618 -2.8466 0.9736
-4.2004 4.7495 -2.9887 0.9724
-5.6135 2.9955 -2.9992 0.9723
-5.8579 2.4840 -2.9993 0.9723
-6.2056 1.4060 -2.9993 0.9723
-6.3566 0.2835 -2.9993 0.9723
-6.3062 -0.8481 -2.9993 0.9723
-6.0558 -1.9527 -2.9993 0.9723
-5.8579 -2.4839 -2.9993 0.9723
-5.6135 -2.9955 -2.9993 0.9723
-4.2150 -4.7659 -2.9991 0.9723
-3.7740 -5.1221 -2.9990 0.9723
-0.0709 -6.3610 -2.9986 0.9723
0.4956 -6.3419 -2.9985 0.9723
1.0580 -6.2725 -2.9985 0.9723
1.6121 -6.1533 -2.9984 0.9723
2.6774 -5.7697 -2.9983 0.9723
4.5224 -4.4722 -2.9981 0.9723
5.2435 -3.5994 -2.9980 0.9723
5.7985 -2.6127 -2.9979 0.9723
6.2826 -0.9879 -2.9979 0.9723
6.2324 1.2668 -2.9979 0.9723
6.0949 1.8165 -2.9979 0.9723
5.6764 2.8684 -2.9979 0.9723
5.3986 3.3623 -2.9980 0.9723
3.6884 4.7793 -2.8458 0.9737
2.7828 5.3578 -2.8459 0.9737
2.2949 5.5844 -2.8459 0.9737
1.2685 5.9030 -2.8460 0.9737
0.2018 6.0346 -2.8462 0.9737
-0.3362 6.0288 -2.8462 0.9737
-0.8714 5.9751 -2.8463 0.9737
-1.9171 5.7261 -2.8464 0.9737
-2.9021 5.2957 -2.8465 0.9736
-3.3620 5.0165 -2.8466 0.9736
-4.4231 4.5735 -2.9991 0.9723
-4.8127 4.1617 -2.9992 0.9723
-5.4745 3.2426 -2.9992 0.9723
-5.7414 2.7425 -2.9993 0.9723
-6.2621 1.1282 -2.9993 0.9723
-6.0980 0.0000 -2.9993 0.9732
-6.0013 -1.0812 -2.9993 0.9732
-5.7145 -2.1281 -2.9993 0.9732
-4.6123 -3.9884 -2.9991 0.9732
-4.2390 -4.3830 -2.9991 0.9732
-3.3946 -5.0650 -2.9990 0.9732
-2.9302 -5.3470 -2.9989 0.9732
-2.4426 -5.5864 -2.9989 0.9732
-1.4134 -5.9308 -2.9988 0.9732
-0.8799 -6.0329 -2.9987 0.9732
-0.3394 -6.0871 -2.9986 0.9732
0.2037 -6.0930 -2.9986 0.9732
0.7452 -6.0506 -2.9985 0.9732
1.2808 -5.9602 -2.9985 0.9732
2.8097 -5.4097 -2.9983 0.9732
4.1389 -4.4749 -2.9981 0.9732
4.8666 -3.6701 -2.9980 0.9732
5.6632 -2.2538 -2.9979 0.9732
5.8412 -1.7409 -2.9979 0.9732
4.6983 3.8833 -2.9980 0.9732
4.3341 4.2861 -2.9981 0.9732
3.9355 4.6549 -2.9981 0.9732
2.8930 5.0108 -2.8459 0.9745
1.9588 5.4446 -2.8460 0.9745
1.4665 5.5974 -2.8460 0.9745
0.9625 5.7059 -2.8461 0.9745
-0.5792 5.7578 -2.8463 0.9745
-1.0894 5.6835 -2.8463 0.9745
-2.5524 5.1940 -2.8465 0.9745
-3.0046 4.9463 -2.8465 0.9745
-6.0435 0.8128 -2.9993 0.9732
-6.0435 -0.8128 -2.9993 0.9732
-5.9472 -1.3474 -2.9993 0.9732
-5.8036 -1.8714 -2.9993 0.9732
-5.6140 -2.3805 -2.9993 0.9732
-5.3798 -2.8707 -2.9992 0.9732
-4.7854 -3.7790 -2.9992 0.9732
-1.6762 -5.8619 -2.9988 0.9732
1.5450 -5.8971 -2.9984 0.9732
2.5660 -5.5295 -2.9983 0.9732
3.0479 -5.2791 -2.9983 0.9732
3.5056 -4.9868 -2.9982 0.9732
3.9355 -4.6549 -2.9981 0.9732
5.5572 -2.5039 -2.9980 0.9732
5.7579 -1.9993 -2.9979 0.9732
5.9130 -1.4789 -2.9979 0.9732
6.0211 -0.9467 -2.9979 0.9732
6.0573 0.6776 -2.9979 0.9732
4.8666 3.6701 -2.9980 0.9732
4.5207 4.0887 -2.9981 0.9732
4.1389 4.4750 -2.9981 0.9732
2.6669 5.1348 -2.8459 0.9745
2.1994 5.3519 -2.8459 0.9745
1.2157 5.6572 -2.8461 0.9745
0.1934 5.7834 -2.8462 0.9745
-0.3222 5.7778 -2.8462 0.9745
-0.8352 5.7263 -2.8463 0.9745
-1.3415 5.6294 -2.8463 0.9745
-2.3185 5.3025 -2.8465 0.9745
-2.7813 5.0752 -2.8465 0.9745
-5.5023 2.6283 -2.9992 0.9732
-5.8812 1.6111 -2.9993 0.9732
-5.8271 -0.5207 -2.9993 0.9740
-5.6424 -1.5456 -2.9993 0.9740
-5.2789 -2.5215 -2.9992 0.9740
-4.7481 -3.4174 -2.9992 0.9740
-4.0668 -4.2050 -2.9991 0.9740
-3.6764 -4.5502 -2.9990 0.9740
-3.2567 -4.8593 -2.9990 0.9740
-2.8112 -5.1298 -2.9989 0.9740
-1.8571 -5.5468 -2.9988 0.9740
-1.3560 -5.6899 -2.9988 0.9740
-0.8442 -5.7879 -2.9987 0.9741
0.1954 -5.8457 -2.9986 0.9741
0.7149 -5.8049 -2.9985 0.9741
2.6957 -5.1901 -2.9983 0.9741
3.1469 -4.9295 -2.9982 0.9741
3.5731 -4.6297 -2.9982 0.9741
4.3372 -3.9228 -2.9981 0.9741
4.6691 -3.5211 -2.9981 0.9741
4.9639 -3.0915 -2.9980 0.9741
5.2193 -2.6374 -2.9980 0.9741
5.6041 -1.6702 -2.9980 0.9741
5.8346 0.3906 -2.9979 0.9741
5.3316 2.4023 -2.9980 0.9741
4.8212 3.3096 -2.9980 0.9741
3.3297 4.7364 -2.9681 0.9743
2.3367 5.0354 -2.8459 0.9754
1.8793 5.2235 -2.8460 0.9754
1.4069 5.3702 -2.8460 0.9754
0.4325 5.5348 -2.8461 0.9754
-0.0618 5.5514 -2.8462 0.9754
-1.0452 5.4527 -2.8463 0.9754
-2.8982 4.7704 -2.8615 0.9752
-4.2501 4.0197 -2.9991 0.9740
-4.8956 3.2026 -2.9992 0.9740
-5.8445 -0.2606 -2.9993 0.9740
-5.7057 -1.2927 -2.9993 0.9740
-5.3860 -2.2838 -2.9992 0.9740
-4.8956 -3.2026 -2.9992 0.9740
-4.5911 -3.6255 -2.9991 0.9740
-4.2501 -4.0197 -2.9991 0.9740
-3.0370 -4.9995 -2.9990 0.9740
-1.6081 -5.6239 -2.9988 0.9740
-0.0652 -5.8486 -2.9986 0.9741
1.9799 -5.5032 -2.9984 0.9741
2.9242 -5.0647 -2.9983 0.9741
3.3633 -4.7843 -2.9982 0.9741
3.7757 -4.4659 -2.9982 0.9741
4.5076 -3.7256 -2.9981 0.9741
5.5242 -1.9182 -2.9980 0.9741
5.8346 -0.3906 -2.9979 0.9741
5.4333 2.1624 -2.9980 0.9741
4.6691 3.5211 -2.9981 0.9741
3.9709 4.2933 -2.9981 0.9741
2.5587 4.9263 -2.8459 0.9754
2.1101 5.1346 -2.8459 0.9754
1.6447 5.3021 -2.8460 0.9754
1.1663 5.4276 -2.8461 0.9754
0.1855 5.5486 -2.8462 0.9754
-0.3091 5.5432 -2.8462 0.9754
-0.8012 5.4938 -2.8463 0.9754
-1.2871 5.4008 -2.8463 0.9754
-2.2243 5.0872 -2.8465 0.9754
-3.1881 4.7570 -2.9358 0.9746
-3.6763 4.5503 -2.9990 0.9740
-4.0668 4.2051 -2.9991 0.9740
-4.4250 3.8265 -2.9991 0.9740
-4.7481 3.4175 -2.9991 0.9740
-5.0335 2.9814 -2.9992 0.9740
-5.6424 1.5457 -2.9993 0.9740
-5.5292 -0.9961 -2.9992 0.9748
-5.4186 -1.4843 -2.9992 0.9748
-5.2649 -1.9606 -2.9992 0.9748
-5.0695 -2.4215 -2.9992 0.9748
-4.8338 -2.8630 -2.9992 0.9748
-4.2495 -3.6746 -2.9991 0.9748
-3.5305 -4.3698 -2.9990 0.9748
-2.6997 -4.9263 -2.9989 0.9748
-2.2505 -5.1470 -2.9989 0.9749
-1.7834 -5.3268 -2.9988 0.9749
-1.3022 -5.4642 -2.9988 0.9749
-0.8107 -5.5584 -2.9987 0.9749
0.6866 -5.5747 -2.9985 0.9749
1.6641 -5.3644 -2.9984 0.9749
2.1349 -5.1950 -2.9984 0.9749
3.8134 -4.1230 -2.9982 0.9749
4.1652 -3.7672 -2.9981 0.9749
4.4839 -3.3814 -2.9981 0.9749
5.0123 -2.5328 -2.9980 0.9749
5.3819 -1.6039 -2.9980 0.9749
5.4480 1.3627 -2.9980 0.9749
5.3051 1.8421 -2.9980 0.9749
4.6301 3.1784 -2.9981 0.9749
4.3288 3.5779 -2.9981 0.9749
3.9933 3.9490 -2.9981 0.9749
2.2440 4.8357 -2.8459 0.9761
0.8868 5.2571 -2.8461 0.9761
0.4153 5.3153 -2.8461 0.9761
-0.0594 5.3312 -2.8462 0.9761
-1.0037 5.2364 -2.8463 0.9761
-1.4658 5.1264 -2.8464 0.9761
-1.9163 4.9757 -2.8464 0.9761
-3.3323 4.5227 -2.9990 0.9748
-4.4090 3.4818 -2.9991 0.9748
-4.7014 3.0755 -2.9991 0.9748
-4.9565 2.6449 -2.9992 0.9748
-5.1723 2.1933 -2.9992 0.9748
-5.5681 0.7488 -2.9992 0.9748
-5.3471 -1.7242 -2.9992 0.9748
-4.7014 -3.0755 -2.9991 0.9748
-4.4090 -3.4817 -2.9991 0.9748
-3.3323 -4.5226 -2.9990 0.9748
-2.9165 -4.8012 -2.9989 0.9748
-2.4776 -5.0417 -2.9989 0.9749
-2.0190 -5.2421 -2.9988 0.9749
-1.5443 -5.4008 -2.9988 0.9749
-1.0575 -5.5168 -2.9987 0.9749
1.4235 -5.4333 -2.9984 0.9749
2.8082 -4.8639 -2.9983 0.9749
3.6260 -4.2888 -2.9982 0.9749
4.3288 -3.5779 -2.9981 0.9749
4.6301 -3.1783 -2.9981 0.9749
4.8945 -2.7536 -2.9980 0.9749
5.3051 -1.8421 -2.9980 0.9749
5.5476 -0.8723 -2.9980 0.9749
5.6032 -0.3750 -2.9979 0.9749
5.5810 0.6244 -2.9980 0.9749
5.5033 1.1186 -2.9980 0.9749
5.3819 1.6040 -2.9980 0.9749
4.1652 3.7672 -2.9981 0.9749
3.8134 4.1230 -2.9982 0.9749
3.4313 4.4462 -2.9982 0.9749
2.4712 4.7579 -2.8621 0.9760
1.5795 5.0918 -2.8460 0.9761
1.1200 5.2123 -2.8461 0.9761
0.6517 5.2914 -2.8461 0.9761
0.1782 5.3285 -2.8462 0.9761
-0.2968 5.3233 -2.8462 0.9761
-0.7695 5.2759 -2.8463 0.9761
-1.2360 5.1866 -2.8463 0.9761
-1.6928 5.0561 -2.8464 0.9761
-2.1361 4.8854 -2.8464 0.9761
-2.6099 4.7625 -2.8991 0.9757
-3.1275 4.6666 -2.9990 0.9748
-3.5305 4.3698 -2.9990 0.9748
-3.9055 4.0383 -2.9990 0.9748
-4.2495 3.6747 -2.9991 0.9748
-4.8338 2.8631 -2.9992 0.9748
-5.2649 1.9607 -2.9992 0.9748
-5.4186 1.4843 -2.9992 0.9748
-5.3787 -0.4806 -2.9992 0.9756
-5.3146 -0.9575 -2.9992 0.9756
-5.2083 -1.4267 -2.9992 0.9756
-4.0845 -3.5320 -2.9991 0.9756
-3.7539 -3.8815 -2.9990 0.9756
-3.3935 -4.2001 -2.9990 0.9756
-2.5949 -4.7351 -2.9989 0.9756
-2.1631 -4.9472 -2.9989 0.9756
-0.7792 -5.3427 -2.9987 0.9756
0.1804 -5.3959 -2.9986 0.9756
0.6599 -5.3584 -2.9985 0.9756
1.1342 -5.2783 -2.9985 0.9756
1.5995 -5.1563 -2.9984 0.9756
2.0521 -4.9934 -2.9984 0.9756
2.4883 -4.7908 -2.9983 0.9756
3.2982 -4.2736 -2.9982 0.9756
3.6655 -3.9630 -2.9982 0.9756
4.0036 -3.6210 -2.9981 0.9756
4.3099 -3.2502 -2.9981 0.9756
4.8178 -2.4345 -2.9980 0.9756
5.1731 -1.5417 -2.9980 0.9756
5.2898 -1.0752 -2.9980 0.9756
5.3966 -0.1202 -2.9980 0.9756
5.3858 0.3606 -2.9980 0.9756
5.2366 1.3098 -2.9980 0.9756
4.7046 2.6468 -2.9980 0.9756
4.4504 3.0551 -2.9981 0.9756
4.1609 3.4391 -2.9981 0.9756
3.8383 3.7958 -2.9981 0.9756
2.6992 4.6752 -2.9983 0.9756
1.7347 4.8217 -2.8460 0.9768
-0.0571 5.1244 -2.8462 0.9768
-0.5130 5.0990 -2.8463 0.9768
-0.9648 5.0332 -2.8463 0.9768
-1.8421 4.7828 -2.8465 0.9768
-4.2378 3.3466 -2.9991 0.9756
-4.5189 2.9562 -2.9991 0.9756
-4.7642 2.5423 -2.9991 0.9756
-4.9716 2.1082 -2.9992 0.9756
-5.1395 1.6573 -2.9992 0.9756
-5.3520 0.7198 -2.9992 0.9756
-5.3520 -0.7198 -2.9992 0.9756
-5.2666 -1.1932 -2.9992 0.9756
-5.1395 -1.6572 -2.9992 0.9756
-4.9716 -2.1081 -2.9992 0.9756
-4.5190 -2.9561 -2.9991 0.9756
-4.2379 -3.3466 -2.9991 0.9756
-3.9231 -3.7104 -2.9991 0.9756
-3.5773 -4.0448 -2.9990 0.9756
-3.2030 -4.3471 -2.9990 0.9756
-2.8033 -4.6149 -2.9989 0.9756
-2.3814 -4.8460 -2.9989 0.9756
-1.4844 -5.1912 -2.9988 0.9756
-1.0164 -5.3027 -2.9987 0.9756
-0.0601 -5.3987 -2.9986 0.9756
0.8980 -5.3236 -2.9985 0.9756
1.8276 -5.0799 -2.9984 0.9756
2.2724 -4.8970 -2.9983 0.9756
2.6992 -4.6752 -2.9983 0.9756
3.4853 -4.1224 -2.9982 0.9756
4.1609 -3.4390 -2.9981 0.9756
4.4504 -3.0550 -2.9981 0.9756
4.7046 -2.6468 -2.9981 0.9756
4.9215 -2.2175 -2.9980 0.9756
5.0993 -1.7706 -2.9980 0.9756
5.3324 -0.8384 -2.9980 0.9756
5.3858 -0.3605 -2.9980 0.9756
5.3966 0.1203 -2.9980 0.9756
5.3644 0.6001 -2.9980 0.9756
5.2898 1.0752 -2.9980 0.9756
5.0154 1.9961 -2.9980 0.9756
4.8178 2.4346 -2.9980 0.9756
4.3099 3.2503 -2.9981 0.9756
3.6654 3.9631 -2.9982 0.9756
2.9048 4.5503 -2.9983 0.9756
2.4612 4.7387 -2.9657 0.9759
1.9567 4.7614 -2.8591 0.9767
1.0766 5.0100 -2.8461 0.9768
-1.1881 4.9853 -2.8463 0.9768
-1.6271 4.8598 -2.8464 0.9768
-2.5949 4.7352 -2.9989 0.9756
-4.0845 3.5321 -2.9991 0.9756
-4.3827 3.1545 -2.9991 0.9756
-4.6462 2.7520 -2.9991 0.9756
-4.8727 2.3275 -2.9992 0.9756
-5.0606 1.8846 -2.9992 0.9756
-5.1124 -0.9210 -2.9992 0.9763
-5.0102 -1.3724 -2.9992 0.9763
-4.8681 -1.8129 -2.9992 0.9763
-4.6874 -2.2389 -2.9991 0.9763
-4.4695 -2.6472 -2.9991 0.9763
-3.2644 -4.0404 -2.9990 0.9763
-2.4963 -4.5551 -2.9989 0.9763
-2.0809 -4.7591 -2.9988 0.9763
-1.2041 -5.0525 -2.9987 0.9763
-0.2892 -5.1857 -2.9986 0.9763
0.1735 -5.1908 -2.9986 0.9763
1.0911 -5.0776 -2.9985 0.9763
1.5387 -4.9602 -2.9984 0.9763
1.9740 -4.8035 -2.9984 0.9763
2.3937 -4.6087 -2.9983 0.9763
3.1728 -4.1111 -2.9982 0.9763
3.5261 -3.8123 -2.9982 0.9763
3.8514 -3.4833 -2.9982 0.9763
4.1461 -3.1267 -2.9981 0.9763
4.6347 -2.3420 -2.9981 0.9763
5.0887 -1.0343 -2.9980 0.9763
5.1605 -0.5772 -2.9980 0.9763
5.1811 0.3469 -2.9980 0.9763
5.1297 0.8066 -2.9980 0.9763
4.5258 2.5462 -2.9981 0.9763
4.0027 3.3083 -2.9981 0.9763
3.6924 3.6515 -2.9982 0.9763
2.9865 4.2484 -2.9982 0.9763
2.5966 4.4975 -2.9983 0.9763
1.7089 4.7500 -2.9144 0.9770
1.2505 4.7733 -2.8488 0.9775
0.8199 4.8609 -2.8461 0.9775
-0.0549 4.9295 -2.8462 0.9775
-0.4935 4.9051 -2.8462 0.9775
-1.3629 4.7665 -2.8622 0.9774
-2.2908 4.6617 -2.9989 0.9763
-3.0812 4.1818 -2.9990 0.9763
-4.0767 3.2194 -2.9991 0.9763
-4.3471 2.8438 -2.9991 0.9763
-4.5830 2.4456 -2.9991 0.9763
-4.7825 2.0280 -2.9992 0.9763
-5.0663 1.1479 -2.9992 0.9763
-5.1484 0.6924 -2.9992 0.9763
-5.1896 0.2314 -2.9992 0.9763
-5.1484 -0.6924 -2.9992 0.9763
-4.9440 -1.5942 -2.9992 0.9763
-4.7825 -2.0279 -2.9992 0.9763
-4.5830 -2.4455 -2.9991 0.9763
-4.3471 -2.8437 -2.9991 0.9763
-4.0767 -3.2193 -2.9991 0.9763
-2.2908 -4.6617 -2.9989 0.9763
-0.0579 -5.1934 -2.9986 0.9763
0.4046 -5.1779 -2.9986 0.9763
0.8638 -5.1212 -2.9985 0.9763
1.3162 -5.0239 -2.9985 0.9763
1.7581 -4.8867 -2.9984 0.9763
2.1860 -4.7108 -2.9984 0.9763
2.9866 -4.2484 -2.9983 0.9763
3.3528 -3.9657 -2.9982 0.9763
3.6924 -3.6514 -2.9982 0.9763
4.0027 -3.3083 -2.9981 0.9763
4.2812 -2.9389 -2.9981 0.9763
4.5258 -2.5461 -2.9981 0.9763
4.7344 -2.1332 -2.9981 0.9763
5.1914 0.1157 -2.9980 0.9763
5.1605 0.5773 -2.9980 0.9763
5.0886 1.0344 -2.9980 0.9763
4.9764 1.4832 -2.9980 0.9763
4.4079 2.7453 -2.9981 0.9763
3.8514 3.4834 -2.9981 0.9763
2.7943 4.3773 -2.9983 0.9763
1.4758 4.7576 -2.8759 0.9773
1.0357 4.8196 -2.8461 0.9775
0.1647 4.9270 -2.8462 0.9775
-0.7115 4.8783 -2.8463 0.9775
-1.1429 4.7957 -2.8463 0.9775
-1.5938 4.7604 -2.8983 0.9771
-2.8918 4.3149 -2.9989 0.9763
-3.2644 4.0404 -2.9990 0.9763
-3.9292 3.3978 -2.9991 0.9763
-4.2161 3.0346 -2.9991 0.9763
-4.4695 2.6473 -2.9991 0.9763
-4.6874 2.2390 -2.9991 0.9763
-4.8681 1.8129 -2.9992 0.9763
-5.0102 1.3725 -2.9992 0.9763
