ply
format ascii 1.0
element vertex 524
property float32 x
property float32 y
property float32 z
property float32 I
end_header
-5.9460 -6.0882 1.7941 0.9658
-5.6671 -5.8027 1.5696 0.9675
-5.1184 -6.2651 1.5656 0.9676
-5.5165 -5.6485 1.3922 0.9684
-4.9826 -6.0989 1.3887 0.9685
-4.8273 -5.9088 1.0853 0.9696
-4.5457 -6.6956 1.1511 0.9678
-4.7797 -5.8506 0.9467 0.9700
-4.7010 -5.7542 0.6812 0.9706
-4.3645 -6.4288 0.7124 0.9693
-5.1687 -5.2924 0.5544 0.9708
-5.8451 -5.0102 0.4484 0.9696
-5.1411 -5.2640 0.4286 0.9709
-5.8190 -4.9878 0.3187 0.9698
-5.1265 -5.2491 0.3051 0.9711
-4.2891 -6.3177 0.3175 0.9699
-4.6310 -5.6685 0.1825 0.9711
-4.2800 -6.3043 0.1900 0.9700
-5.7927 -4.9652 0.0634 0.9699
-5.1090 -5.2312 0.0608 0.9712
-4.6233 -5.6590 0.0607 0.9712
-4.2710 -6.2911 0.0632 0.9700
-5.7924 -4.9650 -0.0634 0.9699
-5.1089 -5.2311 -0.0608 0.9712
-5.8056 -4.9763 -0.1907 0.9699
-5.1176 -5.2400 -0.1827 0.9711
-4.6309 -5.6683 -0.1825 0.9711
-5.8188 -4.9876 -0.3187 0.9698
-5.1263 -5.2489 -0.3051 0.9711
-4.2888 -6.3173 -0.3175 0.9699
-5.8866 -5.0457 -0.5810 0.9694
-5.1683 -5.2919 -0.5543 0.9708
-5.1963 -5.3206 -0.6818 0.9706
-4.7005 -5.7536 -0.6811 0.9706
-4.3640 -6.4280 -0.7123 0.9693
-4.7326 -5.7928 -0.8114 0.9704
-4.4084 -6.4934 -0.8513 0.9689
-6.0781 -5.2099 -1.0032 0.9682
-4.7789 -5.8496 -0.9466 0.9700
-6.1857 -5.3021 -1.1588 0.9676
-5.3389 -5.4666 -1.0869 0.9696
-4.5439 -6.6930 -1.1507 0.9678
-6.3799 -5.4686 -1.3380 0.9665
-5.4222 -5.5519 -1.2357 0.9691
-4.8995 -5.9972 -1.2331 0.9691
-4.6672 -6.8746 -1.3231 0.9669
-5.5149 -5.6468 -1.3918 0.9684
-4.9812 -6.0972 -1.3883 0.9685
12.9522 6.9111 -2.8410 0.9419
12.2912 8.0306 -2.8412 0.9419
10.6860 10.0734 -2.8419 0.9419
9.7543 10.9806 -2.8423 0.9419
8.7459 11.8022 -2.8427 0.9419
-14.2510 0.0000 -3.0044 0.9434
-14.1950 -1.2607 -3.0044 0.9434
-13.7498 -3.7423 -3.0042 0.9434
-12.8735 -6.1062 -3.0038 0.9434
-10.8150 -9.2701 -3.0030 0.9434
-5.3495 -6.5480 -1.7826 0.9660
-6.9233 -12.4400 -3.0014 0.9435
-4.6211 -13.4612 -3.0005 0.9435
-2.1759 -14.0603 -2.9995 0.9435
2.8356 -13.9323 -2.9974 0.9435
6.3920 -12.6925 -2.9960 0.9436
7.4886 -12.0755 -2.9955 0.9436
8.5263 -11.3641 -2.9951 0.9436
11.2074 -8.7228 -2.9940 0.9436
14.1842 -0.5864 -2.9929 0.9436
-12.9548 -2.3194 -3.0039 0.9474
-11.8892 -5.6393 -3.0034 0.9474
-10.7075 -7.6451 -3.0029 0.9475
-9.9883 -8.5615 -3.0026 0.9475
-8.3212 -10.1854 -3.0020 0.9475
-4.2682 -12.4330 -3.0003 0.9475
4.8448 -12.2025 -2.9966 0.9476
6.9175 -11.1545 -2.9958 0.9476
10.3531 -8.0579 -2.9944 0.9476
11.0243 -7.1098 -2.9941 0.9476
11.6092 -6.1062 -2.9939 0.9476
12.1030 -5.0549 -2.9937 0.9476
12.8032 -2.8426 -2.9934 0.9476
13.0042 -1.6988 -2.9933 0.9476
13.1033 -0.5417 -2.9933 0.9476
13.0999 0.6196 -2.9933 0.9476
12.7862 2.9186 -2.9934 0.9476
10.9847 5.8613 -2.8418 0.9502
10.4239 6.8106 -2.8420 0.9502
8.2720 9.3120 -2.8429 0.9502
-12.0280 -2.1534 -3.0035 0.9509
-11.7899 -3.2089 -3.0034 0.9509
-11.4593 -4.2391 -3.0032 0.9509
-11.0387 -5.2359 -3.0031 0.9509
-8.5335 -8.7376 -3.0020 0.9509
-7.7263 -9.4572 -3.0017 0.9509
-6.8586 -10.1024 -3.0014 0.9509
-4.9696 -11.1502 -3.0006 0.9510
-2.9259 -11.8482 -2.9998 0.9510
-1.8661 -12.0588 -2.9993 0.9510
0.2882 -12.1954 -2.9985 0.9510
1.3657 -12.1203 -2.9980 0.9510
4.4990 -11.3314 -2.9968 0.9510
5.4830 -10.8876 -2.9964 0.9510
8.1469 -9.0622 -2.9953 0.9510
8.9157 -8.3051 -2.9950 0.9510
10.7812 -5.6707 -2.9942 0.9511
11.8902 -2.6399 -2.9938 0.9511
12.1689 -0.5031 -2.9937 0.9511
12.1657 0.5754 -2.9937 0.9511
12.0673 1.6494 -2.9937 0.9511
11.8744 2.7105 -2.9938 0.9511
11.5885 3.7505 -2.9939 0.9511
10.2012 5.4433 -2.8421 0.9535
9.6804 6.3248 -2.8423 0.9535
9.0837 7.1570 -2.8425 0.9535
7.6818 8.6476 -2.8431 0.9535
-11.3974 0.0001 -3.0032 0.9539
-11.2188 -2.0085 -3.0032 0.9539
-10.9968 -2.9930 -3.0031 0.9540
-8.6503 -7.4146 -3.0021 0.9540
-7.9597 -8.1500 -3.0018 0.9540
-5.5381 -9.9511 -3.0008 0.9540
-1.7407 -11.2486 -2.9993 0.9540
1.2740 -11.3063 -2.9981 0.9540
2.2689 -11.1478 -2.9977 0.9540
3.2458 -10.9019 -2.9973 0.9540
6.8233 -9.0942 -2.9958 0.9541
9.5512 -6.1597 -2.9947 0.9541
10.4859 -4.3795 -2.9943 0.9541
11.0927 -2.4628 -2.9941 0.9541
11.3498 0.5368 -2.9940 0.9541
9.0310 5.9005 -2.8426 0.9564
8.4743 6.6768 -2.8428 0.9564
-10.6731 0.0000 -3.0029 0.9566
-10.6312 -0.9441 -3.0029 0.9566
-10.5058 -1.8809 -3.0029 0.9566
-10.2979 -2.8028 -3.0028 0.9566
-9.6419 -4.5733 -3.0025 0.9566
-8.6839 -6.2002 -3.0021 0.9566
-5.9911 -8.8247 -3.0010 0.9566
-5.1864 -9.3191 -3.0007 0.9567
-4.3412 -9.7402 -3.0003 0.9567
-3.4621 -10.0849 -3.0000 0.9567
0.2518 -10.6542 -2.9985 0.9567
1.1932 -10.5889 -2.9981 0.9567
3.9307 -9.9002 -2.9970 0.9567
5.6127 -9.0505 -2.9963 0.9567
6.3906 -8.5175 -2.9960 0.9567
7.7902 -7.2566 -2.9954 0.9567
8.4009 -6.5385 -2.9952 0.9567
8.9457 -5.7693 -2.9950 0.9567
9.4204 -4.9550 -2.9948 0.9567
10.3897 -2.3067 -2.9944 0.9567
10.5445 1.4412 -2.9943 0.9567
9.7969 4.1603 -2.9946 0.9567
8.4585 5.5265 -2.8428 0.9589
7.9371 6.2535 -2.8430 0.9589
7.3534 6.9317 -2.8432 0.9589
-9.6771 -2.6338 -3.0025 0.9590
-9.0607 -4.2977 -3.0023 0.9590
-8.6445 -5.0821 -3.0021 0.9590
-7.0048 -7.1723 -3.0014 0.9590
-6.3423 -7.7632 -3.0012 0.9590
-4.0797 -9.1535 -3.0002 0.9590
-3.2535 -9.4775 -2.9999 0.9590
-2.4021 -9.7270 -2.9996 0.9590
-0.6501 -9.9957 -2.9989 0.9590
0.2366 -10.0129 -2.9985 0.9590
1.9971 -9.8121 -2.9978 0.9591
2.8569 -9.5959 -2.9974 0.9591
7.8957 -6.1453 -2.9954 0.9591
8.8540 -4.6570 -2.9950 0.9591
9.9940 -0.4132 -2.9946 0.9591
9.9914 0.4726 -2.9946 0.9591
9.9105 1.3546 -2.9946 0.9591
9.7520 2.2261 -2.9947 0.9591
9.5172 3.0801 -2.9948 0.9591
7.4597 5.8775 -2.8432 0.9611
6.3082 7.1013 -2.8437 0.9611
5.6558 7.6322 -2.8439 0.9611
-9.4540 0.0000 -3.0024 0.9611
-9.1217 -2.4827 -3.0023 0.9611
-8.8660 -3.2798 -3.0022 0.9611
-8.5407 -4.0511 -3.0021 0.9611
-5.9785 -7.3178 -3.0010 0.9611
-3.8457 -8.6286 -3.0001 0.9611
-0.6129 -9.4227 -2.9988 0.9611
1.8826 -9.2498 -2.9978 0.9612
3.4825 -8.7713 -2.9972 0.9612
4.2444 -8.4280 -2.9969 0.9612
4.9728 -8.0187 -2.9966 0.9612
5.6622 -7.5467 -2.9963 0.9612
6.9024 -6.4296 -2.9958 0.9612
7.4436 -5.7934 -2.9956 0.9612
8.9893 -2.8504 -2.9950 0.9612
9.2060 -2.0439 -2.9949 0.9612
9.3505 -1.2215 -2.9948 0.9612
9.4218 -0.3895 -2.9948 0.9612
9.4194 0.4455 -2.9948 0.9612
9.1937 2.0986 -2.9949 0.9612
8.9723 2.9038 -2.9950 0.9612
8.6806 3.6863 -2.9951 0.9612
11.7895 6.2907 -4.2438 0.9455
7.0326 5.5409 -2.8434 0.9631
-8.6217 -2.3466 -3.0021 0.9630
-8.0726 -3.8290 -3.0019 0.9630
-7.7018 -4.5279 -3.0017 0.9630
-7.2706 -5.1911 -3.0015 0.9630
-6.2411 -6.3903 -3.0011 0.9630
-5.6509 -6.9168 -3.0009 0.9630
-5.0164 -7.3889 -3.0006 0.9630
-3.6350 -8.1559 -3.0001 0.9630
-2.8990 -8.4446 -2.9998 0.9630
-1.3651 -8.8215 -2.9991 0.9630
0.2109 -8.9221 -2.9985 0.9630
3.2919 -8.2913 -2.9973 0.9631
5.9620 -6.6317 -2.9962 0.9631
6.5248 -6.0779 -2.9960 0.9631
7.0364 -5.4764 -2.9957 0.9631
7.4928 -4.8322 -2.9956 0.9631
7.8905 -4.1502 -2.9954 0.9631
8.7025 -1.9321 -2.9951 0.9631
8.6909 1.9838 -2.9951 0.9631
8.4816 2.7450 -2.9952 0.9631
10.5754 6.9096 -4.2443 0.9481
5.6215 6.3283 -2.8439 0.9649
5.0401 6.8013 -2.8442 0.9649
-8.4331 -0.7489 -3.0020 0.9647
-8.1688 -2.2233 -3.0019 0.9647
-7.9398 -2.9372 -3.0018 0.9647
-7.6486 -3.6279 -3.0017 0.9647
-7.2973 -4.2901 -3.0016 0.9647
-6.8888 -4.9185 -3.0014 0.9647
-5.9134 -6.0548 -3.0010 0.9647
-5.3542 -6.5536 -3.0008 0.9647
-4.7530 -7.0011 -3.0005 0.9647
-4.1147 -7.3934 -3.0003 0.9647
-3.4442 -7.7278 -3.0000 0.9647
-2.0280 -8.2122 -2.9994 0.9647
-1.2935 -8.3586 -2.9991 0.9647
-0.5489 -8.4394 -2.9988 0.9647
2.4123 -8.1024 -2.9976 0.9648
5.6494 -6.2841 -2.9963 0.9648
6.1827 -5.7592 -2.9961 0.9648
7.1000 -4.5789 -2.9957 0.9648
8.0523 -2.5533 -2.9953 0.9648
8.2464 -1.8309 -2.9953 0.9648
8.3759 -1.0942 -2.9952 0.9648
8.3693 1.1439 -2.9952 0.9648
8.0371 2.6011 -2.9954 0.9648
7.7757 3.3020 -2.9955 0.9648
7.4535 3.9771 -2.9956 0.9648
10.0212 6.5474 -4.2446 0.9505
6.2994 4.9632 -2.8437 0.9665
-8.0390 0.0000 -3.0019 0.9663
-8.0075 -0.7111 -3.0019 0.9663
-7.9131 -1.4167 -3.0018 0.9663
-7.7566 -2.1111 -3.0017 0.9663
-7.5392 -2.7889 -3.0017 0.9663
-7.2626 -3.4448 -3.0015 0.9663
-6.1020 -5.2304 -3.0011 0.9663
-5.0841 -6.2230 -3.0007 0.9663
-3.9072 -7.0205 -3.0002 0.9663
-3.2705 -7.3380 -2.9999 0.9663
-2.6083 -7.5979 -2.9997 0.9663
-1.9258 -7.7981 -2.9994 0.9663
0.1897 -8.0278 -2.9985 0.9663
0.8991 -7.9788 -2.9982 0.9663
1.6012 -7.8672 -2.9979 0.9663
2.9621 -7.4605 -2.9974 0.9663
4.2298 -6.8206 -2.9969 0.9663
6.3317 -4.9280 -2.9960 0.9663
6.7424 -4.3483 -2.9959 0.9663
7.1003 -3.7346 -2.9957 0.9663
7.4026 -3.0917 -2.9956 0.9663
7.8311 -1.7387 -2.9954 0.9663
8.0148 -0.3313 -2.9954 0.9663
7.9478 1.0863 -2.9954 0.9663
7.8207 1.7852 -2.9954 0.9663
7.3841 3.1357 -2.9956 0.9663
7.0781 3.7768 -2.9957 0.9663
9.5164 6.2176 -4.2448 0.9526
5.5420 5.2243 -2.8440 0.9680
-7.6482 0.0000 -3.0017 0.9677
-7.6182 -0.6766 -3.0017 0.9677
-6.9096 -3.2774 -3.0014 0.9677
-6.5923 -3.8756 -3.0013 0.9677
-6.2233 -4.4434 -3.0011 0.9677
-5.8055 -4.9762 -3.0010 0.9677
-4.2940 -6.3248 -3.0003 0.9677
-3.1116 -6.9815 -2.9999 0.9677
-0.4959 -7.6247 -2.9988 0.9677
1.5235 -7.4853 -2.9980 0.9677
2.1795 -7.3204 -2.9977 0.9677
4.5825 -6.1076 -2.9967 0.9677
6.0244 -4.6888 -2.9962 0.9677
7.0434 -2.9417 -2.9957 0.9677
7.2758 -2.3070 -2.9957 0.9677
7.6259 -0.3153 -2.9955 0.9677
7.6239 0.3606 -2.9955 0.9677
7.5622 1.0336 -2.9955 0.9677
7.0259 2.9836 -2.9958 0.9677
6.7346 3.5936 -2.9959 0.9677
4.8130 5.4181 -2.8443 0.9693
-7.2892 0.0000 -3.0016 0.9690
-7.1750 -1.2845 -3.0015 0.9690
-4.6100 -5.6428 -3.0005 0.9690
-3.5429 -6.3660 -3.0000 0.9690
-2.3652 -6.8896 -2.9996 0.9690
-0.4727 -7.2671 -2.9988 0.9690
0.8153 -7.2354 -2.9983 0.9690
1.4521 -7.1343 -2.9980 0.9690
2.0773 -6.9773 -2.9978 0.9690
3.8359 -6.1853 -2.9970 0.9690
4.3677 -5.8213 -2.9968 0.9690
4.8652 -5.4118 -2.9966 0.9690
5.7421 -4.4691 -2.9963 0.9690
6.4393 -3.3869 -2.9960 0.9690
7.1021 -1.5768 -2.9957 0.9690
7.2079 0.9852 -2.9957 0.9690
6.4191 3.4252 -2.9960 0.9690
8.0981 6.3804 -4.2453 0.9564
7.5024 7.0722 -4.2456 0.9564
4.1129 5.5501 -2.8446 0.9706
-6.9308 -0.6155 -3.0014 0.9701
-6.8491 -1.2262 -3.0014 0.9701
-6.7136 -1.8273 -3.0013 0.9701
-6.5255 -2.4139 -3.0012 0.9701
-5.6618 -4.0425 -3.0009 0.9701
-5.2817 -4.5272 -3.0007 0.9702
-4.8602 -4.9765 -3.0006 0.9702
-4.4007 -5.3866 -3.0004 0.9702
-3.3820 -6.0770 -3.0000 0.9702
-2.8310 -6.3518 -2.9997 0.9702
-2.2578 -6.5769 -2.9995 0.9702
1.3862 -6.8106 -2.9980 0.9702
3.1254 -6.2060 -2.9973 0.9702
3.6619 -5.9048 -2.9971 0.9702
5.4817 -4.2665 -2.9964 0.9702
5.8374 -3.7646 -2.9962 0.9702
6.1473 -3.2333 -2.9961 0.9702
6.4090 -2.6768 -2.9960 0.9702
6.9391 -0.2869 -2.9958 0.9702
6.8811 0.9405 -2.9958 0.9702
6.6079 2.1386 -2.9959 0.9702
6.1280 3.2699 -2.9961 0.9702
5.8150 3.7993 -2.9963 0.9702
4.3794 4.9299 -2.8444 0.9717
3.9263 5.2984 -2.8446 0.9717
-6.5474 -1.1722 -3.0013 0.9712
-6.4179 -1.7468 -3.0012 0.9712
-6.0093 -2.8503 -3.0010 0.9712
-5.7333 -3.3706 -3.0009 0.9712
-5.4124 -3.8644 -3.0008 0.9712
-2.7063 -6.0722 -2.9997 0.9712
-2.1584 -6.2873 -2.9995 0.9712
-1.5936 -6.4531 -2.9992 0.9713
-1.0164 -6.5683 -2.9990 0.9713
0.1570 -6.6436 -2.9985 0.9713
1.3252 -6.5109 -2.9981 0.9713
2.9879 -5.9330 -2.9974 0.9713
4.4403 -4.9391 -2.9968 0.9713
4.8595 -4.5267 -2.9966 0.9713
5.2406 -4.0788 -2.9965 0.9713
5.5807 -3.5991 -2.9963 0.9713
6.6340 -0.2743 -2.9959 0.9713
6.6322 0.3137 -2.9959 0.9713
6.5785 0.8991 -2.9959 0.9713
6.4733 1.4776 -2.9960 0.9713
6.3173 2.0446 -2.9961 0.9713
5.8585 3.1261 -2.9962 0.9713
5.2164 4.1100 -2.9965 0.9713
6.8471 6.4545 -4.2458 0.9595
3.7536 5.0653 -2.8447 0.9727
-6.2671 -1.1220 -3.0011 0.9722
-6.1432 -1.6720 -3.0011 0.9722
-5.7521 -2.7283 -3.0009 0.9722
-5.4880 -3.2263 -3.0008 0.9722
-5.1808 -3.6990 -3.0007 0.9722
-4.8330 -4.1427 -3.0006 0.9722
-4.4474 -4.5537 -3.0004 0.9722
-4.0269 -4.9290 -3.0002 0.9722
-3.5748 -5.2656 -3.0000 0.9722
-2.5906 -5.8124 -2.9996 0.9723
-2.0661 -6.0184 -2.9994 0.9723
-0.9729 -6.2873 -2.9990 0.9723
-0.4129 -6.3483 -2.9988 0.9723
0.1503 -6.3595 -2.9985 0.9723
4.2505 -4.7280 -2.9969 0.9723
4.6518 -4.3332 -2.9967 0.9723
5.0167 -3.9045 -2.9966 0.9723
5.8653 -2.4497 -2.9962 0.9723
6.3505 -0.2625 -2.9960 0.9723
6.1967 1.4145 -2.9961 0.9723
5.8507 2.4845 -2.9962 0.9723
4.9934 3.9343 -2.9966 0.9723
6.5544 6.1786 -4.2460 0.9610
5.9825 6.7346 -4.2462 0.9609
-6.0060 -1.0752 -3.0010 0.9732
-5.8872 -1.6023 -3.0010 0.9732
-5.5124 -2.6146 -3.0008 0.9732
-4.6317 -3.9701 -3.0005 0.9732
-3.4259 -5.0462 -3.0000 0.9732
-1.4619 -5.9198 -2.9992 0.9732
-0.9324 -6.0255 -2.9990 0.9732
0.1440 -6.0946 -2.9985 0.9732
0.6826 -6.0576 -2.9983 0.9732
1.7392 -5.8416 -2.9979 0.9732
2.2490 -5.6645 -2.9977 0.9732
2.7411 -5.4430 -2.9975 0.9732
3.6570 -4.8741 -2.9971 0.9732
4.4583 -4.1529 -2.9968 0.9732
4.8079 -3.7421 -2.9967 0.9732
5.1199 -3.3019 -2.9965 0.9732
5.3917 -2.8359 -2.9964 0.9732
5.9468 -1.3203 -2.9962 0.9732
6.0847 0.2878 -2.9961 0.9732
5.9389 1.3556 -2.9962 0.9732
5.7336 6.4544 -4.2463 0.9622
-5.8307 -0.5178 -3.0010 0.9740
-5.7619 -1.0316 -3.0009 0.9740
-5.6480 -1.5372 -3.0009 0.9740
-5.2884 -2.5084 -3.0007 0.9740
-3.7024 -4.5318 -3.0001 0.9740
-2.8454 -5.1128 -2.9998 0.9740
-2.3818 -5.3441 -2.9996 0.9740
-1.4026 -5.6795 -2.9992 0.9740
-0.8946 -5.7809 -2.9990 0.9740
-0.3796 -5.8369 -2.9988 0.9741
0.6549 -5.8117 -2.9983 0.9741
1.1663 -5.7305 -2.9981 0.9741
1.6686 -5.6045 -2.9979 0.9741
2.6299 -5.2221 -2.9975 0.9741
3.0813 -4.9687 -2.9973 0.9741
3.5086 -4.6763 -2.9972 0.9741
4.6129 -3.5902 -2.9967 0.9741
5.3932 -2.2525 -2.9964 0.9741
5.5712 -1.7666 -2.9963 0.9741
5.7952 -0.7570 -2.9963 0.9741
5.8394 -0.2414 -2.9962 0.9741
5.8379 0.2761 -2.9962 0.9741
5.7906 0.7915 -2.9963 0.9741
5.6979 1.3007 -2.9963 0.9741
5.5607 1.7996 -2.9964 0.9741
5.3798 2.2846 -2.9964 0.9741
4.8933 3.1971 -2.9966 0.9741
-5.6213 0.0000 -3.0009 0.9748
-5.5332 -0.9906 -3.0009 0.9748
-5.4238 -1.4762 -3.0008 0.9748
-5.0785 -2.4088 -3.0007 0.9748
-4.5742 -3.2659 -3.0005 0.9748
-4.2672 -3.6576 -3.0003 0.9748
-3.9267 -4.0206 -3.0002 0.9748
-3.5555 -4.3520 -3.0000 0.9748
-2.7325 -4.9099 -2.9997 0.9748
-2.2873 -5.1321 -2.9995 0.9748
-1.8243 -5.3139 -2.9993 0.9748
-1.3469 -5.4542 -2.9991 0.9748
0.6289 -5.5812 -2.9983 0.9749
1.1201 -5.5033 -2.9981 0.9749
1.6024 -5.3823 -2.9979 0.9749
2.5256 -5.0150 -2.9976 0.9749
2.9592 -4.7716 -2.9974 0.9749
3.3695 -4.4909 -2.9972 0.9749
3.7534 -4.1750 -2.9971 0.9749
4.1078 -3.8264 -2.9969 0.9749
4.4300 -3.4479 -2.9968 0.9749
4.7175 -3.0424 -2.9967 0.9749
5.1795 -2.1632 -2.9965 0.9749
5.3504 -1.6965 -2.9964 0.9749
5.4794 -1.2165 -2.9964 0.9749
5.5655 -0.7270 -2.9964 0.9749
5.6065 0.2652 -2.9963 0.9749
5.4721 1.2491 -2.9964 0.9749
5.3403 1.7283 -2.9964 0.9749
4.4095 3.4742 -2.9968 0.9749
-5.4030 0.0000 -3.0008 0.9756
-5.3184 -0.9522 -3.0008 0.9756
-4.6572 -2.7380 -3.0005 0.9756
-3.7742 -3.8645 -3.0001 0.9756
-3.4174 -4.1830 -3.0000 0.9756
-3.0338 -4.4687 -2.9998 0.9756
-2.6265 -4.7193 -2.9997 0.9756
-2.1985 -4.9329 -2.9995 0.9756
-1.2946 -5.2425 -2.9991 0.9756
-0.8257 -5.3361 -2.9989 0.9756
-0.3504 -5.3879 -2.9987 0.9756
1.0766 -5.2897 -2.9982 0.9756
1.9918 -5.0166 -2.9978 0.9756
2.8444 -4.5866 -2.9974 0.9756
4.7753 -2.5117 -2.9967 0.9756
4.9786 -2.0793 -2.9966 0.9756
5.2669 -1.1694 -2.9965 0.9756
5.3497 -0.6988 -2.9964 0.9756
5.3455 0.7306 -2.9964 0.9756
5.1332 1.6613 -2.9965 0.9756
4.7603 2.5401 -2.9967 0.9756
4.5171 2.9513 -2.9968 0.9756
4.2385 3.3395 -2.9969 0.9756
3.5839 4.0345 -2.9972 0.9756
4.5526 6.1434 -4.2468 0.9656
-5.1160 -0.9159 -3.0007 0.9763
-4.6956 -2.2272 -3.0005 0.9763
-4.2293 -3.0197 -3.0003 0.9763
-3.9455 -3.3818 -3.0002 0.9763
-2.9184 -4.2987 -2.9998 0.9763
0.1227 -5.1922 -2.9985 0.9763
0.5815 -5.1606 -2.9984 0.9763
1.0357 -5.0887 -2.9982 0.9763
1.4817 -4.9768 -2.9980 0.9763
1.9161 -4.8259 -2.9978 0.9763
2.7363 -4.4122 -2.9975 0.9763
3.1157 -4.1526 -2.9973 0.9763
3.4707 -3.8606 -2.9972 0.9763
4.0964 -3.1882 -2.9969 0.9763
4.3622 -2.8132 -2.9968 0.9763
4.5938 -2.4162 -2.9967 0.9763
4.7894 -2.0003 -2.9967 0.9763
5.0668 -1.1249 -2.9966 0.9763
5.1857 -0.2144 -2.9965 0.9763
5.1843 0.2452 -2.9965 0.9763
5.1423 0.7029 -2.9965 0.9763
4.7775 2.0288 -2.9967 0.9763
4.3454 2.8392 -2.9969 0.9763
3.0910 4.1712 -2.9974 0.9763
