ply
format ascii 1.0
element vertex 530
property float32 x
property float32 y
property float32 z
property float32 I
end_header
-6.1776 -6.3110 4.7145 0.9607
12.5974 -5.3193 5.6309 0.9426
-10.4845 -0.9298 3.5364 0.9566
-9.8910 -0.8772 2.9728 0.9594
-10.1751 -1.8191 3.0945 0.9578
9.4446 10.5114 3.9759 0.9430
-9.6968 -0.8600 2.5651 0.9605
-9.8437 -1.7599 2.6349 0.9595
-9.6407 -0.8550 2.3790 0.9609
-9.7757 -1.7477 2.4410 0.9599
9.4582 10.5265 3.4784 0.9434
9.4649 10.5340 3.2323 0.9436
-9.7155 -1.7369 2.0807 0.9605
-9.9735 0.0000 1.9301 0.9602
-9.7206 -1.7378 1.9109 0.9606
-9.9988 -0.0000 1.7631 0.9602
-9.6244 -0.8536 1.7037 0.9615
-10.0380 0.0000 1.5984 0.9602
-9.7797 -1.7484 1.5820 0.9606
-10.1038 -0.0000 1.4371 0.9600
-9.7132 -0.8614 1.3870 0.9614
-9.8352 -1.7583 1.4211 0.9604
-10.1863 -0.0000 1.2765 0.9598
-9.9127 -1.7721 1.2619 0.9602
8.5504 11.3996 1.7858 0.9442
-10.0178 -1.7909 1.1038 0.9599
9.5111 10.5853 1.5435 0.9444
-10.4664 0.0000 0.9595 0.9588
-10.1677 -1.8177 0.9469 0.9594
8.3918 11.1882 1.2822 0.9454
-10.1351 -0.8988 0.7625 0.9600
9.5240 10.5998 1.0679 0.9444
-10.6573 -1.9053 0.6306 0.9575
10.9509 10.2090 0.8720 0.9418
8.2398 10.9855 0.7998 0.9465
10.9587 10.2162 0.6229 0.9418
-11.1914 -0.9925 0.2802 0.9560
10.9665 10.2235 0.3739 0.9418
9.5435 10.6214 0.3561 0.9445
-14.9355 0.0000 0.1241 0.9420
8.2579 11.0097 0.1144 0.9464
-13.6149 0.0000 -0.1132 0.9470
9.5710 10.6521 -0.1190 0.9443
-12.5086 -0.0000 -0.3119 0.9512
-14.0973 -3.8312 -0.3643 0.9432
9.5775 10.6593 -0.3574 0.9443
-11.9825 -1.0627 -0.5002 0.9530
-13.3700 -4.9383 -0.5926 0.9445
8.2741 11.0313 -0.5734 0.9463
-10.7576 0.0000 -0.6266 0.9578
-11.4733 -2.0512 -0.6788 0.9544
-11.8456 -3.2193 -0.7150 0.9520
-12.2347 -4.5189 -0.7596 0.9491
8.2796 11.0386 -0.8037 0.9462
-10.0521 0.0000 -0.7533 0.9605
-10.3583 -0.9186 -0.7793 0.9591
-11.2754 -4.1646 -0.9008 0.9529
-11.5898 -5.4884 -0.9610 0.9499
8.2850 11.0458 -1.0347 0.9461
-9.9573 -1.7801 -0.9273 0.9602
-10.4537 -3.8611 -1.0217 0.9562
-10.6931 -5.0637 -1.0847 0.9536
8.2905 11.0531 -1.2667 0.9460
-3.7849 0.0000 -0.4105 0.9849
-9.1165 -0.8085 -0.9927 0.9638
-9.3377 -1.6693 -1.0289 0.9626
-10.0888 -5.9210 -1.2688 0.9540
-10.2367 -7.2954 -1.3635 0.9507
-10.3629 -8.8646 -1.4792 0.9466
-3.5692 0.0000 -0.4473 0.9857
-8.9625 -2.4357 -1.1639 0.9633
-9.2541 -4.3823 -1.2832 0.9596
-9.3674 -5.4976 -1.3611 0.9572
-9.4544 -6.7378 -1.4549 0.9543
-9.5092 -8.1343 -1.5682 0.9508
-9.5240 -9.7296 -1.7062 0.9466
14.5209 1.9158 -1.8355 0.9427
8.3015 11.0678 -1.7338 0.9458
-8.2990 -1.4837 -1.1991 0.9665
-8.4440 -2.2949 -1.2446 0.9653
-8.5676 -3.1645 -1.2991 0.9638
-8.7804 -6.2575 -1.5336 0.9574
-8.7375 -8.9262 -1.7767 0.9508
-8.6326 -10.5395 -1.9378 0.9464
14.4428 1.9055 -2.0721 0.9428
8.3071 11.0752 -1.9692 0.9456
-3.2915 0.0000 -0.5241 0.9868
-7.8589 -1.4050 -1.2713 0.9682
-7.9802 -2.1688 -1.3168 0.9671
-8.1483 -3.8587 -1.4357 0.9641
-8.1887 -4.8058 -1.5119 0.9623
-8.1937 -5.8393 -1.6022 0.9601
-8.1565 -6.9771 -1.7092 0.9575
-8.0681 -8.2424 -1.8366 0.9544
-7.9162 -9.6649 -1.9894 0.9507
-7.6816 -11.2811 -2.1733 0.9462
14.3862 1.8981 -2.3107 0.9429
-7.6856 -3.6396 -1.4995 0.9660
-7.7005 -4.5193 -1.5744 0.9644
-7.6779 -5.4717 -1.6624 0.9624
-7.6110 -6.5106 -1.7660 0.9601
-7.4912 -7.6530 -1.8883 0.9574
-7.3065 -8.9205 -2.0332 0.9542
14.3416 1.8922 -2.5507 0.9429
-3.1767 -0.2818 -0.6172 0.9871
-7.2423 -2.6750 -1.4941 0.9690
-7.2704 -3.4429 -1.5567 0.9678
-7.2648 -4.2636 -1.6301 0.9663
-7.1313 -6.1002 -1.8161 0.9625
-6.4898 -9.5308 -2.2314 0.9541
-5.5942 -12.4968 -2.6496 0.9457
7.2321 11.6623 -2.6556 0.9456
-3.0986 -0.2748 -0.6558 0.9874
-3.2280 -0.5771 -0.6913 0.9867
-6.8831 -2.5423 -1.5469 0.9704
-6.8954 -3.2654 -1.6085 0.9693
-6.8734 -4.0339 -1.6802 0.9679
-6.8123 -4.8548 -1.7636 0.9664
-6.5454 -6.6868 -1.9727 0.9625
-5.6249 -10.0713 -2.4320 0.9539
8.2328 10.9761 -2.8926 0.9455
6.5799 10.6105 -2.6321 0.9502
-3.1620 -0.5653 -0.7332 0.9869
-6.5253 -1.7734 -1.5434 0.9726
-6.5549 -3.1041 -1.6554 0.9707
-6.5197 -3.8263 -1.7254 0.9695
-6.4452 -4.5933 -1.8064 0.9680
-5.9164 -7.2233 -2.1311 0.9624
-3.3062 -13.2805 -3.1237 0.9454
14.2134 1.8752 -3.2722 0.9429
7.4857 9.9801 -2.8475 0.9501
6.0321 9.7272 -2.6124 0.9541
-2.9221 0.0000 -0.7183 0.9880
-2.9874 -0.2650 -0.7372 0.9877
-3.0982 -0.5539 -0.7736 0.9871
-6.2443 -2.9570 -1.6983 0.9719
-6.1983 -3.6377 -1.7666 0.9708
-5.9826 -5.1176 -1.9351 0.9681
-5.8003 -5.9255 -2.0382 0.9664
-5.5587 -6.7866 -2.1563 0.9645
-5.2480 -7.7072 -2.2919 0.9623
-4.8559 -8.6943 -2.4478 0.9598
-4.3672 -9.7558 -2.6273 0.9569
-3.0213 -12.1360 -3.0741 0.9498
-2.1127 -13.4729 -3.3521 0.9454
6.8586 9.1440 -2.8096 0.9540
5.5652 8.9743 -2.5956 0.9574
-2.8744 -0.0000 -0.7574 0.9882
-2.9335 -0.2602 -0.7760 0.9879
-3.0365 -0.5429 -0.8128 0.9873
-5.9693 -1.6223 -1.6300 0.9747
-5.9595 -2.8222 -1.7375 0.9731
-5.9048 -3.4654 -1.8041 0.9721
-5.8107 -4.1411 -1.8802 0.9709
-5.4843 -5.6028 -2.0659 0.9681
-4.9288 -7.2383 -2.3075 0.9644
-4.5417 -8.1317 -2.4543 0.9622
-3.4842 -10.0915 -2.8132 0.9568
-2.7798 -11.1658 -3.0320 0.9535
-1.9298 -12.3069 -3.2825 0.9498
14.1684 1.8693 -3.7657 0.9426
10.6376 8.2883 -3.5534 0.9457
9.0460 8.4331 -3.2588 0.9501
7.6138 8.4738 -3.0018 0.9540
-2.8279 -0.0000 -0.7956 0.9883
-2.9766 -0.5322 -0.8508 0.9875
-5.6974 -2.6980 -1.7737 0.9741
-5.6350 -3.3071 -1.8383 0.9732
-5.5340 -3.9439 -1.9120 0.9722
-5.1987 -5.3110 -2.0910 0.9696
-4.2634 -7.6334 -2.4600 0.9643
-0.8294 -12.3435 -3.4808 0.9499
0.2863 -13.3995 -3.7709 0.9458
14.1150 1.8622 -4.0058 0.9426
9.6650 7.5304 -3.4473 0.9504
4.8111 7.7582 -2.5685 0.9628
-2.9211 -0.5222 -0.8884 0.9877
-3.0110 -0.8183 -0.9341 0.9871
-5.4894 -2.0275 -1.7519 0.9759
-5.4548 -2.5832 -1.8069 0.9751
-5.3861 -3.1610 -1.8697 0.9743
-4.6929 -5.7296 -2.2173 0.9695
-4.3876 -6.4436 -2.3339 0.9680
-3.0288 -8.7726 -2.7785 0.9620
0.2615 -12.2390 -3.6650 0.9502
2.8085 -13.9789 -4.2686 0.9422
13.0057 5.4457 -4.2212 0.9428
7.6319 7.1149 -3.1237 0.9574
6.5040 7.2386 -2.9134 0.9602
5.4621 7.2821 -2.7252 0.9627
4.5019 7.2596 -2.5573 0.9650
-2.7823 -0.2468 -0.8871 0.9883
-2.8681 -0.5127 -0.9253 0.9878
-2.9525 -0.8024 -0.9717 0.9872
-5.2293 -2.4764 -1.8376 0.9760
-5.1560 -3.0260 -1.8987 0.9752
-5.0463 -3.5963 -1.9680 0.9743
-4.8964 -4.1885 -2.0464 0.9733
-4.4571 -5.4416 -2.2339 0.9709
-2.8405 -8.2270 -2.7641 0.9641
-1.5263 -9.7330 -3.1288 0.9595
-0.7053 -10.4969 -3.3412 0.9568
1.3221 -11.9911 -3.8313 0.9506
3.9259 -13.3149 -4.4086 0.9434
13.9413 1.8394 -4.4659 0.9427
11.7457 4.9181 -4.0441 0.9480
9.2992 6.0057 -3.5156 0.9546
8.1534 6.3527 -3.2826 0.9575
7.0712 6.5921 -3.0702 0.9602
6.0561 6.7401 -2.8777 0.9627
4.2274 6.8170 -2.5475 0.9669
-2.6945 0.0000 -0.9053 0.9887
-2.7371 -0.2427 -0.9232 0.9885
-5.0642 -1.8705 -1.8138 0.9775
-4.9426 -2.9008 -1.9255 0.9761
-4.2416 -5.1786 -2.2491 0.9721
-3.9457 -5.7947 -2.3554 0.9709
-3.5903 -6.4284 -2.4739 0.9694
-3.1684 -7.0779 -2.6055 0.9678
-2.0942 -8.4121 -2.9126 0.9641
0.2224 -10.4085 -3.4979 0.9570
1.2162 -11.0302 -3.7284 0.9543
2.3311 -11.6023 -3.9761 0.9513
4.9234 -12.5013 -4.5142 0.9449
13.8041 1.8212 -4.6781 0.9429
12.8255 2.8631 -4.4152 0.9461
9.6232 5.0712 -3.6547 0.9551
8.5703 5.5350 -3.4278 0.9579
7.5538 5.8854 -3.2173 0.9604
6.5825 6.1365 -3.0236 0.9627
5.6621 6.3016 -2.8463 0.9649
-2.6518 -0.0000 -0.9403 0.9888
-2.7655 -0.4944 -0.9962 0.9881
-2.8404 -0.7719 -1.0437 0.9876
-4.8239 -2.2844 -1.8926 0.9776
-4.6297 -3.2994 -2.0159 0.9762
-4.0439 -4.9373 -2.2630 0.9733
-2.9986 -6.6986 -2.6024 0.9693
-2.5217 -7.3038 -2.7398 0.9677
-1.9696 -7.9113 -2.8909 0.9660
-0.6118 -9.1056 -3.2360 0.9620
0.2067 -9.6731 -3.4307 0.9598
7.1405 -11.5921 -4.8276 0.9439
13.1884 0.5638 -4.6807 0.9455
6.1525 5.7356 -2.9825 0.9649
5.3125 5.9125 -2.8185 0.9668
-2.6101 -0.0000 -0.9746 0.9889
-2.7159 -0.4855 -1.0302 0.9883
-4.6920 -1.7330 -1.8678 0.9789
-4.4430 -3.1664 -2.0373 0.9770
-4.0982 -4.1867 -2.1877 0.9753
-3.5773 -5.2536 -2.3734 0.9732
-2.3855 -6.9093 -2.7295 0.9693
1.0457 -9.4841 -3.5629 0.9601
1.9858 -9.8839 -3.7645 0.9579
4.1118 -10.4405 -4.1901 0.9532
5.2775 -10.5555 -4.4067 0.9509
6.4878 -10.5326 -4.6192 0.9486
7.7159 -10.3517 -4.8211 0.9464
11.3415 1.4964 -4.2717 0.9523
10.6384 2.3748 -4.0703 0.9545
8.2249 4.3343 -3.4716 0.9611
5.0002 5.5649 -2.7936 0.9686
4.2628 5.6833 -2.6528 0.9701
-2.5691 0.0000 -1.0083 0.9890
-2.6070 -0.2312 -1.0272 0.9888
-2.6674 -0.4769 -1.0635 0.9884
-2.7220 -0.7398 -1.1071 0.9880
-2.7220 -1.0054 -1.1389 0.9876
-4.4692 -2.1164 -1.9408 0.9790
-4.3854 -2.5737 -1.9957 0.9784
-4.2688 -3.0422 -2.0573 0.9777
-4.1168 -3.5215 -2.1262 0.9770
-3.9261 -4.0109 -2.2028 0.9762
-3.6934 -4.5093 -2.2877 0.9753
-3.4149 -5.0152 -2.3813 0.9743
-2.2618 -6.5511 -2.7201 0.9707
-1.7566 -7.0559 -2.8538 0.9692
0.1807 -8.4565 -3.3197 0.9643
1.8466 -9.1908 -3.6792 0.9605
4.8494 -9.6992 -4.2559 0.9545
8.1145 -9.0857 -4.7810 0.9490
9.1394 -8.5716 -4.9177 0.9476
10.0756 -7.8991 -5.0248 0.9465
12.3152 -3.9597 -5.0770 0.9459
12.0388 -0.5509 -4.7298 0.9495
10.3942 1.3714 -4.1148 0.9559
9.7884 2.1851 -3.9362 0.9578
9.1155 2.9007 -3.7543 0.9597
5.4301 5.0622 -2.9136 0.9686
4.0348 5.3792 -2.6391 0.9715
3.3800 5.4504 -2.5170 0.9728
-2.5653 -0.2275 -1.0605 0.9889
-2.6401 -0.7175 -1.1266 0.9882
-2.6438 -0.9765 -1.1606 0.9879
-4.1057 -2.9260 -2.0761 0.9784
-3.9544 -3.3826 -2.1428 0.9777
-3.7659 -3.8473 -2.2169 0.9770
-3.5372 -4.3186 -2.2987 0.9761
-2.5745 -5.7511 -2.5946 0.9731
0.1698 -7.9471 -3.2732 0.9662
0.9144 -8.2925 -3.4354 0.9646
1.7240 -8.5811 -3.6041 0.9628
3.5174 -8.9312 -3.9526 0.9593
8.3467 -7.8282 -4.7121 0.9517
9.1844 -7.2004 -4.8057 0.9508
9.9127 -6.4442 -4.8686 0.9501
10.5059 -5.5767 -4.8978 0.9498
10.9443 -4.6212 -4.8919 0.9499
11.3160 -2.5618 -4.7776 0.9510
11.0312 -0.5048 -4.5472 0.9534
10.6758 0.4564 -4.4001 0.9548
9.5833 1.2644 -3.9804 0.9590
9.0553 2.0214 -3.8206 0.9607
7.8232 3.2757 -3.4925 0.9640
7.1562 3.7711 -3.3309 0.9656
6.4778 4.1836 -3.1754 0.9672
5.1236 4.7764 -2.8844 0.9702
4.4652 4.9695 -2.7511 0.9715
-2.4893 0.0000 -1.0738 0.9892
-2.5220 -0.2237 -1.0921 0.9890
-4.1556 -1.9679 -1.9834 0.9802
-3.3917 -4.1409 -2.3089 0.9770
-3.1255 -4.5901 -2.3954 0.9761
-2.0455 -5.9244 -2.7036 0.9731
-0.4798 -7.1417 -3.0876 0.9693
0.1601 -7.4896 -3.2314 0.9679
1.6154 -8.0404 -3.5376 0.9649
2.4236 -8.2196 -3.6965 0.9634
3.2758 -8.3178 -3.8561 0.9618
5.0633 -8.2199 -4.1644 0.9588
5.9645 -8.0020 -4.3051 0.9575
6.8423 -7.6612 -4.4309 0.9562
10.0288 -4.2347 -4.6959 0.9537
10.2846 -3.3068 -4.6600 0.9540
10.3898 -2.3521 -4.5951 0.9547
10.3479 -1.3968 -4.5041 0.9555
10.1684 -0.4653 -4.3908 0.9566
9.8657 0.4218 -4.2595 0.9579
8.4163 1.8788 -3.7198 0.9631
7.8889 2.5104 -3.5711 0.9646
6.7119 3.5370 -3.2726 0.9675
5.4652 4.2582 -2.9885 0.9703
3.6343 4.8453 -2.6127 0.9740
3.0581 4.9314 -2.5030 0.9750
-2.4589 -0.4396 -1.1271 0.9891
-2.4701 -0.6713 -1.1550 0.9888
-3.9252 -2.3037 -2.0536 0.9802
-3.8085 -2.7142 -2.1102 0.9797
-3.4762 -3.5513 -2.2424 0.9784
-3.2559 -3.9751 -2.3185 0.9777
-2.6933 -4.8224 -2.4923 0.9761
-2.3457 -5.2400 -2.5905 0.9751
-1.9502 -5.6485 -2.6963 0.9741
0.8098 -7.3441 -3.3339 0.9681
1.5184 -7.5573 -3.4781 0.9667
3.0624 -7.7759 -3.7709 0.9640
7.0908 -6.6503 -4.3864 0.9582
7.7792 -6.0987 -4.4602 0.9575
8.3792 -5.4473 -4.5096 0.9571
9.2444 -3.9035 -4.5278 0.9569
9.5690 -1.2917 -4.3569 0.9585
9.4209 -0.4311 -4.2553 0.9595
9.1606 0.3916 -4.1372 0.9606
7.8541 1.7533 -3.6311 0.9653
7.3816 2.3489 -3.4953 0.9666
6.8637 2.8739 -3.3575 0.9679
4.5903 4.2793 -2.8316 0.9728
4.0192 4.4732 -2.7134 0.9740
-2.3615 -0.0000 -1.1132 0.9896
-2.3813 -0.4257 -1.1403 0.9894
-2.3934 -0.6504 -1.1691 0.9891
-2.4883 -1.1783 -1.2978 0.9879
-3.6726 -2.6173 -2.1258 0.9803
-3.5253 -3.0156 -2.1868 0.9797
-2.8747 -4.2218 -2.4076 0.9777
-2.5805 -4.6204 -2.4946 0.9769
-2.2437 -5.0123 -2.5886 0.9760
-0.4313 -6.4199 -3.0330 0.9719
0.1432 -6.7011 -3.1595 0.9708
1.4311 -7.1228 -3.4246 0.9684
2.8725 -7.2936 -3.6951 0.9659
3.6303 -7.2607 -3.8265 0.9647
4.3966 -7.1375 -3.9515 0.9636
7.2149 -5.6563 -4.3215 0.9603
7.7652 -5.0481 -4.3658 0.9599
8.2192 -4.3628 -4.3863 0.9597
8.7926 -2.8271 -4.3536 0.9600
8.8898 -1.2001 -4.2285 0.9611
8.5410 0.3651 -4.0297 0.9629
8.2251 1.0852 -3.9107 0.9640
5.9561 3.1387 -3.1735 0.9707
5.4325 3.5085 -3.0483 0.9718
4.8976 3.8160 -2.9266 0.9729
2.7875 4.4951 -2.4932 0.9769
-2.3093 -0.2048 -1.1403 0.9897
-2.3083 -0.4127 -1.1534 0.9896
-2.3174 -0.6298 -1.1812 0.9894
-2.3271 -0.8595 -1.2202 0.9890
-2.3578 -1.1165 -1.2832 0.9884
-3.3986 -2.9072 -2.1998 0.9803
-3.0092 -3.6740 -2.3358 0.9791
-2.4753 -4.4319 -2.4968 0.9776
-1.3685 -5.4968 -2.7862 0.9751
-0.9118 -5.8146 -2.8949 0.9741
0.7244 -6.5698 -3.2510 0.9710
1.3521 -6.7298 -3.3763 0.9699
2.0138 -6.8299 -3.5023 0.9688
2.7022 -6.8613 -3.6270 0.9677
3.4079 -6.8160 -3.7482 0.9666
4.1190 -6.6870 -3.8629 0.9656
4.8218 -6.4689 -3.9684 0.9647
6.7197 -5.2681 -4.1997 0.9627
7.6473 -4.0593 -4.2584 0.9621
7.9689 -3.3649 -4.2546 0.9622
8.1850 -2.6317 -4.2288 0.9624
8.2920 -1.1193 -4.1154 0.9634
8.1891 -0.3747 -4.0320 0.9641
7.7109 1.0174 -3.8255 0.9659
6.5233 2.0758 -3.3670 0.9699
6.0935 2.5515 -3.2492 0.9710
4.6505 3.6234 -2.8997 0.9741
2.6668 4.3004 -2.4889 0.9777
-2.2442 -0.1990 -1.1551 0.9899
-2.2417 -0.4008 -1.1675 0.9898
-2.2478 -0.6109 -1.1942 0.9896
-2.2719 -1.0758 -1.2887 0.9888
-3.5369 -2.0758 -2.1025 0.9817
-3.4224 -2.4391 -2.1546 0.9813
-3.1041 -3.1712 -2.2750 0.9803
-2.8968 -3.5367 -2.3438 0.9797
-2.0604 -4.6026 -2.5853 0.9776
-1.3079 -5.2537 -2.7756 0.9760
0.6873 -6.2332 -3.2150 0.9722
1.9031 -6.4544 -3.4498 0.9702
2.5487 -6.4714 -3.5657 0.9692
3.2081 -6.4165 -3.6778 0.9683
5.7439 -5.3871 -4.0372 0.9652
6.2815 -4.9246 -4.0920 0.9648
7.4429 -3.1428 -4.1420 0.9643
7.6478 -2.4590 -4.1185 0.9645
7.6750 -0.3512 -3.9389 0.9661
5.7623 2.4128 -3.2027 0.9723
4.8870 3.1562 -2.9825 0.9742
2.5544 4.1190 -2.4848 0.9784
-3.4203 -2.0073 -2.1172 0.9822
-3.1652 -2.7076 -2.2236 0.9813
-2.7908 -3.4073 -2.3512 0.9802
-2.5548 -3.7520 -2.4232 0.9796
-1.9775 -4.4175 -2.5838 0.9783
-1.6336 -4.7315 -2.6722 0.9776
-0.3725 -5.5451 -2.9669 0.9751
0.1230 -5.7553 -3.0731 0.9742
1.2147 -6.0459 -3.2921 0.9724
1.8023 -6.1126 -3.4020 0.9715
2.4094 -6.1178 -3.5101 0.9706
3.6470 -5.9206 -3.7122 0.9690
4.2559 -5.7097 -3.8017 0.9682
5.3911 -5.0562 -3.9457 0.9670
5.8908 -4.6183 -3.9960 0.9666
6.3282 -4.1139 -4.0294 0.9664
6.6924 -3.5524 -4.0448 0.9662
6.9746 -2.9450 -4.0417 0.9663
7.2732 -1.6465 -3.9810 0.9668
7.2871 -0.9837 -3.9255 0.9672
6.5451 1.4611 -3.5800 0.9700
5.0656 2.6694 -3.0567 0.9744
4.2144 3.2836 -2.8521 0.9761
3.7726 3.5170 -2.7534 0.9769
3.3280 3.7039 -2.6582 0.9777
2.8856 3.8472 -2.5673 0.9784
2.4493 3.9496 -2.4810 0.9791
-2.1192 0.0000 -1.1770 0.9904
-2.1250 -0.3799 -1.1989 0.9902
-2.1317 -0.7874 -1.2621 0.9897
-2.1373 -1.0122 -1.3135 0.9892
-2.2183 -1.3019 -1.4286 0.9883
-3.1971 -2.2785 -2.1805 0.9822
-3.0575 -2.6154 -2.2347 0.9818
-2.8891 -2.9516 -2.2939 0.9813
-2.1971 -3.9339 -2.5025 0.9796
-1.8997 -4.2438 -2.5824 0.9790
-1.5672 -4.5393 -2.6672 0.9783
-0.7950 -5.0704 -2.8505 0.9768
-0.3558 -5.2961 -2.9481 0.9760
0.1173 -5.4880 -3.0487 0.9752
1.1545 -5.7462 -3.2552 0.9735
2.2824 -5.7954 -3.4594 0.9719
4.0141 -5.3853 -3.7304 0.9697
4.5613 -5.1072 -3.8031 0.9692
5.5400 -4.3432 -3.9097 0.9683
5.9484 -3.8670 -3.9404 0.9681
6.2892 -3.3384 -3.9546 0.9679
6.5548 -2.7678 -3.9518 0.9680
6.7398 -2.1670 -3.9320 0.9681
6.8416 -1.5488 -3.8959 0.9684
6.6627 0.2848 -3.7038 0.9699
6.4582 0.8521 -3.6179 0.9706
6.1937 1.3826 -3.5246 0.9714
4.4270 2.8591 -2.9269 0.9762
4.0209 3.1329 -2.8310 0.9769
3.1852 3.5449 -2.6468 0.9784
2.3509 3.7909 -2.4774 0.9798
-2.0683 -0.1834 -1.1988 0.9905
-2.0735 -0.7659 -1.2762 0.9898
-2.0740 -0.9822 -1.3249 0.9895
-2.1099 -1.2383 -1.4125 0.9888
-2.9551 -2.5278 -2.2452 0.9822
-2.7898 -2.8501 -2.3027 0.9817
-2.3710 -3.4821 -2.4322 0.9807
-2.1150 -3.7868 -2.5042 0.9802
-1.8265 -4.0803 -2.5810 0.9796
-1.5050 -4.3589 -2.6624 0.9789
-0.3402 -5.0645 -2.9306 0.9768
0.5929 -5.3772 -3.1233 0.9753
1.0990 -5.4699 -3.2211 0.9746
2.7139 -5.4280 -3.5037 0.9724
5.2231 -4.0949 -3.8318 0.9698
5.9257 -3.1454 -3.8733 0.9695
6.1762 -2.6079 -3.8706 0.9695
6.1149 0.8068 -3.5610 0.9719
5.8726 1.3110 -3.4740 0.9726
5.5815 1.7761 -3.3817 0.9733
5.2064 2.1800 -3.2588 0.9743
4.5879 2.4177 -2.9941 0.9763
4.2228 2.7273 -2.9023 0.9770
3.8412 2.9929 -2.8114 0.9778
3.4491 3.2154 -2.7224 0.9785
3.0517 3.3964 -2.6362 0.9791
2.2584 3.6418 -2.4741 0.9804
