ply
format ascii 1.0
element vertex 1610
property float32 x
property float32 y
property float32 z
property float32 I
end_header
-4.4932 -11.6663 6.6739 0.9449
-0.9776 -6.7032 3.3319 0.9703
1.6306 9.6670 4.6212 0.9576
2.0908 9.7297 4.6910 0.9569
-1.0529 -7.2192 3.2919 0.9685
6.8070 9.6830 5.3407 0.9494
-1.0915 -7.4840 3.2624 0.9676
-1.1282 -7.7355 3.2191 0.9667
-1.1623 -7.9695 3.1609 0.9660
-1.2356 -8.4722 3.0359 0.9643
-1.2781 -8.7632 2.9754 0.9633
5.0303 9.6851 3.2673 0.9555
6.8421 9.7330 3.3474 0.9518
4.5028 9.7032 3.0097 0.9565
3.4789 9.6698 2.8914 0.9582
7.4945 9.7108 3.4513 0.9503
3.9692 9.6585 2.9380 0.9575
8.2438 9.7508 3.3645 0.9486
2.5260 9.6418 2.6264 0.9596
2.9929 9.6483 2.6618 0.9591
9.8572 9.7480 3.4076 0.9445
2.5485 9.7276 2.4717 0.9594
2.0701 9.6333 2.4219 0.9602
8.9007 4.0105 1.0589 0.9615
9.2136 3.6669 1.0756 0.9609
8.5863 3.8688 0.8634 0.9629
8.8061 3.5047 0.8689 0.9626
8.5654 4.3283 0.8798 0.9622
9.0012 3.1255 0.7141 0.9625
8.3346 4.2116 0.6998 0.9632
8.2980 4.6684 0.5545 0.9626
8.4635 3.3684 0.5306 0.9642
8.1927 4.1399 0.5346 0.9639
8.1617 3.6775 0.3722 0.9648
9.2434 2.7548 0.4010 0.9621
8.3500 3.3232 0.3737 0.9647
8.0794 4.0827 0.3764 0.9644
8.5747 2.9775 0.2264 0.9643
8.0301 4.5176 0.2298 0.9638
8.2713 3.2919 0.2220 0.9650
8.0015 4.0434 0.2236 0.9648
8.0237 3.6153 0.0731 0.9654
7.9452 4.4699 0.0758 0.9642
8.9582 2.6698 0.0777 0.9633
8.2029 3.2647 0.0734 0.9653
7.9337 4.0091 0.0739 0.9651
8.2172 5.1178 0.0805 0.9620
8.4451 2.9325 -0.0743 0.9649
7.9832 3.5971 -0.0728 0.9656
7.8967 4.4426 -0.0753 0.9644
8.1598 3.2475 -0.0730 0.9655
8.1222 5.0586 -0.0795 0.9624
7.8505 4.4166 -0.2246 0.9646
7.8496 3.9666 -0.2193 0.9654
8.8052 2.6242 -0.3820 0.9639
8.1042 3.2254 -0.3627 0.9657
8.0226 4.9966 -0.3930 0.9629
9.8763 2.4702 -0.5930 0.9600
7.9173 3.5674 -0.5058 0.9658
8.7849 2.6182 -0.5339 0.9639
8.0910 3.2201 -0.5072 0.9657
7.8223 3.9528 -0.5105 0.9655
7.9210 3.5690 -0.6511 0.9658
8.0950 3.2218 -0.6529 0.9657
7.8272 3.9552 -0.6572 0.9654
8.3883 2.9128 -0.8141 0.9650
7.8437 4.4128 -0.8251 0.9645
8.1085 3.2271 -0.8001 0.9656
7.8411 3.9623 -0.8054 0.9653
8.0471 5.0118 -0.8691 0.9626
8.4202 2.9238 -0.9668 0.9648
8.8704 2.6437 -1.0040 0.9634
8.1324 3.2366 -0.9494 0.9654
8.1233 5.0593 -1.0380 0.9622
7.9990 3.6042 -1.0995 0.9652
8.9460 2.6662 -1.1698 0.9631
8.1776 3.2546 -1.1030 0.9651
7.9110 3.9976 -1.1108 0.9649
8.0483 3.6264 -1.2556 0.9650
8.0040 4.5030 -1.3063 0.9636
9.0885 2.7087 -1.3489 0.9624
8.2312 3.2759 -1.2601 0.9648
8.1232 4.5700 -1.4842 0.9630
9.2771 2.7649 -1.5415 0.9615
8.3169 3.3101 -1.4254 0.9644
8.7849 3.0505 -1.6397 0.9629
8.3095 4.6749 -1.6811 0.9620
8.1635 4.1252 -1.6128 0.9635
8.3672 3.7701 -1.7760 0.9633
8.5751 3.4128 -1.7860 0.9631
8.3202 4.2044 -1.8040 0.9627
-10.9324 -9.4535 -3.0469 0.9426
-8.9702 -11.1025 -3.0091 0.9433
-7.9504 -11.8629 -3.0106 0.9433
-6.8479 -12.4958 -3.0040 0.9434
-3.2800 -13.7633 -2.9828 0.9438
-2.0377 -13.9712 -2.9766 0.9439
-0.7840 -14.0602 -2.9688 0.9441
1.1105 14.2120 -3.0053 0.9434
-0.1590 14.2703 -3.0086 0.9433
-3.9237 13.7222 -3.0089 0.9433
-6.2953 12.8105 -3.0092 0.9433
-7.4110 12.2002 -3.0094 0.9433
-8.4682 11.4932 -3.0096 0.9433
-9.4584 10.6948 -3.0099 0.9433
-10.3738 9.8115 -3.0102 0.9433
-11.2072 8.8502 -3.0106 0.9433
-12.5771 6.7113 -3.0054 0.9434
-10.3583 -9.7968 -3.0057 0.9434
-8.4696 -11.4950 -3.0101 0.9433
-7.4095 -12.1976 -3.0088 0.9433
-6.2753 -12.7697 -2.9996 0.9435
-4.7569 -12.3510 -2.7903 0.9473
-2.6616 -13.8852 -2.9806 0.9438
-0.1567 -14.0652 -2.9654 0.9441
8.8284 3.5136 -2.0032 0.9619
8.6490 4.3705 -2.0429 0.9612
-2.0596 14.1220 -3.0087 0.9433
-3.3085 13.8831 -3.0088 0.9433
-5.7182 13.0778 -3.0091 0.9433
-6.8599 12.5178 -3.0093 0.9433
-9.9259 10.2634 -3.0101 0.9433
-10.8012 9.3402 -3.0104 0.9433
-11.5873 8.3400 -3.0098 0.9433
-12.2717 7.2686 -3.0069 0.9434
-13.8348 0.0000 -3.1577 0.9448
-13.3433 -3.6551 -3.1577 0.9448
-12.9650 -4.8282 -3.1577 0.9448
-12.4838 -5.9630 -3.1577 0.9448
-11.9035 -7.0504 -3.1577 0.9448
-11.2288 -8.0819 -3.1577 0.9448
-10.4649 -9.0493 -3.1577 0.9448
-5.2810 -12.0779 -3.0087 0.9474
-4.1759 -12.4726 -3.0021 0.9475
-1.8903 -12.9606 -2.9895 0.9477
1.5971 -12.9678 -2.9822 0.9478
4.0238 -12.9715 -3.0998 0.9458
5.1642 -12.5664 -3.1010 0.9458
7.3196 -11.4660 -3.1048 0.9457
9.2490 -9.9999 -3.1090 0.9456
10.1100 -9.1439 -3.1114 0.9456
11.5904 -7.2186 -3.1165 0.9455
12.7078 -5.0576 -3.1217 0.9454
13.4193 -2.7276 -3.1255 0.9454
13.6210 -1.5237 -3.1283 0.9453
13.5760 2.1347 -3.1367 0.9452
13.3445 3.3377 -3.1396 0.9451
13.0064 4.5163 -3.1425 0.9451
11.3800 7.8120 -3.1505 0.9449
10.6476 8.8005 -3.1529 0.9449
9.8290 9.7201 -3.1551 0.9449
5.8235 12.5495 -3.1577 0.9448
3.5062 13.3832 -3.1577 0.9448
1.0257 13.1271 -3.0053 0.9474
-1.3196 13.1174 -3.0091 0.9473
-2.4819 12.9481 -3.0091 0.9473
-3.6246 12.6762 -3.0092 0.9473
-4.7387 12.3038 -3.0093 0.9473
-6.8460 11.2701 -3.0097 0.9473
-10.3477 8.1714 -3.0094 0.9473
-11.0243 7.2118 -3.0068 0.9474
-12.7371 5.4010 -3.1577 0.9448
-13.1672 4.2459 -3.1577 0.9448
-13.7114 1.8440 -3.1577 0.9448
-13.8211 0.6163 -3.1577 0.9448
-13.8211 -0.6163 -3.1577 0.9448
-12.2057 -6.5132 -3.1577 0.9448
-8.7244 -9.8648 -3.0058 0.9474
-7.8168 -10.6090 -3.0077 0.9474
-6.8454 -11.2690 -3.0094 0.9473
-4.7323 -12.2870 -3.0052 0.9474
-3.6127 -12.6345 -2.9993 0.9475
-0.1466 -13.1589 -3.0036 0.9474
2.1689 -12.8581 -2.9762 0.9479
3.4444 -13.1474 -3.1021 0.9458
4.5983 -12.7814 -3.1003 0.9458
5.7209 -12.3281 -3.1020 0.9458
6.7996 -11.7772 -3.1039 0.9457
10.5115 -8.6879 -3.1126 0.9456
11.2524 -7.7244 -3.1152 0.9455
11.9057 -6.6980 -3.1179 0.9455
12.9242 -4.4875 -3.1226 0.9454
13.2785 -3.3212 -3.1241 0.9454
13.6815 -0.9159 -3.1297 0.9453
13.7210 0.3058 -3.1325 0.9452
13.1887 3.9307 -3.1411 0.9451
12.7980 5.0935 -3.1439 0.9451
12.3045 6.2178 -3.1466 0.9450
9.3894 10.1517 -3.1562 0.9448
7.4443 11.6613 -3.1577 0.9448
5.2587 12.7964 -3.1577 0.9448
4.0989 13.2137 -3.1577 0.9448
1.6095 13.0684 -3.0053 0.9474
0.4400 13.1598 -3.0053 0.9474
-0.7340 13.1636 -3.0092 0.9473
-3.0563 12.8248 -3.0092 0.9473
-4.1858 12.5024 -3.0093 0.9473
-5.2822 12.0808 -3.0094 0.9473
-6.3369 11.5634 -3.0096 0.9473
-7.3415 10.9543 -3.0098 0.9473
-10.6968 7.6991 -3.0081 0.9474
-11.3295 6.7105 -3.0054 0.9474
-12.4838 5.9630 -3.1577 0.9448
-12.9650 4.8282 -3.1577 0.9448
-13.3432 3.6551 -3.1577 0.9448
-13.6156 2.4530 -3.1577 0.9448
-13.7799 1.2314 -3.1577 0.9448
-12.8467 0.0000 -3.1577 0.9485
-12.7957 -1.1434 -3.1577 0.9485
-12.6431 -2.2778 -3.1577 0.9485
-11.0533 -6.5469 -3.1577 0.9485
-8.9309 -9.2345 -3.1577 0.9485
-6.8096 -10.1606 -3.0065 0.9509
-2.8376 -11.9071 -3.0087 0.9508
-1.7677 -12.1201 -3.0106 0.9508
0.4090 -12.2333 -3.0086 0.9508
1.4949 -12.1377 -3.0060 0.9509
2.6790 -12.4669 -3.1343 0.9488
5.8210 -11.2075 -3.1042 0.9493
8.5916 -9.2892 -3.1102 0.9492
9.3910 -8.4937 -3.1124 0.9492
10.1167 -7.6293 -3.1145 0.9491
11.3225 -5.7215 -3.1182 0.9491
11.7958 -4.6946 -3.1206 0.9490
12.1767 -3.6290 -3.1231 0.9490
12.6048 1.9820 -3.1363 0.9488
12.0743 4.1927 -3.1417 0.9487
11.6628 5.2550 -3.1443 0.9487
9.8822 8.1679 -3.1514 0.9486
9.1220 9.0210 -3.1534 0.9485
6.4233 11.1256 -3.1577 0.9485
3.2558 12.4273 -3.1577 0.9485
2.0336 12.0563 -3.0053 0.9509
0.9525 12.1895 -3.0053 0.9509
-1.2255 12.1819 -3.0094 0.9508
-3.3661 11.7720 -3.0095 0.9508
-4.4007 11.4261 -3.0096 0.9508
-5.4005 10.9897 -3.0098 0.9508
-6.3576 10.4660 -3.0100 0.9508
-7.2644 9.8593 -3.0102 0.9508
-8.1138 9.1744 -3.0104 0.9508
-8.8972 8.4150 -3.0101 0.9508
-9.6037 7.5840 -3.0079 0.9508
-10.2324 6.6937 -3.0055 0.9509
-11.3340 6.0480 -3.1577 0.9485
-11.8273 5.0152 -3.1577 0.9485
-12.2267 3.9426 -3.1577 0.9485
-12.7321 1.7123 -3.1577 0.9485
-12.5291 -2.8387 -3.1577 0.9485
-12.2267 -3.9426 -3.1577 0.9485
-11.3340 -6.0480 -3.1577 0.9485
-9.3335 -8.8275 -3.1577 0.9485
-8.3999 -9.4979 -3.1166 0.9491
-7.2535 -9.8445 -3.0057 0.9509
-6.3518 -10.4565 -3.0072 0.9509
-5.3984 -10.9853 -3.0086 0.9508
0.9531 -12.1977 -3.0073 0.9509
2.0872 -12.3736 -3.0844 0.9496
4.2729 -11.8769 -3.1025 0.9493
9.0001 -8.9004 -3.1113 0.9492
10.4499 -7.1734 -3.1155 0.9491
11.0532 -6.2189 -3.1174 0.9491
11.5703 -5.2133 -3.1193 0.9491
11.9980 -4.1662 -3.1219 0.9490
12.5673 -1.9761 -3.1270 0.9489
12.7039 -0.8504 -3.1296 0.9489
12.7398 0.2839 -3.1322 0.9489
12.6750 1.4179 -3.1350 0.9488
12.2440 3.6491 -3.1404 0.9487
9.5118 8.6029 -3.1524 0.9485
8.7138 9.4213 -3.1544 0.9485
7.8489 10.1701 -3.1577 0.9485
6.9126 10.8284 -3.1577 0.9485
5.9213 11.4006 -3.1577 0.9485
4.8831 11.8824 -3.1577 0.9485
3.8061 12.2699 -3.1577 0.9485
0.4086 12.2198 -3.0053 0.9509
-0.6817 12.2249 -3.0095 0.9508
-1.7669 12.1151 -3.0094 0.9508
-4.9054 11.2191 -3.0097 0.9508
-5.8849 10.7385 -3.0099 0.9508
-6.8178 10.1728 -3.0101 0.9508
-9.2599 8.0073 -3.0090 0.9508
-9.9281 7.1458 -3.0067 0.9509
-10.9101 6.4621 -3.1168 0.9491
-11.5921 5.5371 -3.1577 0.9485
-12.0390 4.4834 -3.1577 0.9485
-12.6431 2.2778 -3.1577 0.9485
-12.7957 1.1434 -3.1577 0.9485
-11.5579 -3.1660 -3.1577 0.9516
-11.2302 -4.1822 -3.1577 0.9516
-10.8134 -5.1651 -3.1577 0.9516
-9.7263 -7.0005 -3.1577 0.9516
-9.0646 -7.8385 -3.1577 0.9516
-8.3310 -8.6142 -3.1577 0.9516
-7.5312 -9.3215 -3.1577 0.9516
-6.4062 -9.5587 -3.0321 0.9535
-4.5720 -10.4564 -3.0071 0.9539
-3.6243 -10.8252 -3.0081 0.9539
1.3941 -11.3198 -3.0053 0.9539
3.4998 -11.2822 -3.1126 0.9523
4.4789 -10.8988 -3.1049 0.9524
5.4331 -10.4606 -3.1060 0.9524
7.2083 -9.3401 -3.1088 0.9524
8.0155 -8.6663 -3.1106 0.9523
9.4369 -7.1167 -3.1145 0.9523
10.0397 -6.2528 -3.1166 0.9523
10.5640 -5.3382 -3.1188 0.9522
11.0053 -4.3800 -3.1211 0.9522
11.3600 -3.3856 -3.1235 0.9521
11.7986 -1.3199 -3.1283 0.9521
11.7568 1.8487 -3.1360 0.9520
11.5549 2.8901 -3.1385 0.9519
11.2607 3.9102 -3.1410 0.9519
10.8764 4.9007 -3.1434 0.9519
10.4047 5.8536 -3.1457 0.9518
6.8918 9.8037 -3.1577 0.9516
4.0568 11.2761 -3.1577 0.9516
1.8970 11.2465 -3.0053 0.9539
0.8885 11.3707 -3.0053 0.9539
-0.1273 11.4229 -3.0101 0.9538
-1.1433 11.3648 -3.0097 0.9539
-3.1403 10.9822 -3.0098 0.9538
-4.1054 10.6595 -3.0099 0.9538
-5.9310 9.7638 -3.0102 0.9538
-9.8461 6.4411 -3.1003 0.9525
-10.5726 5.6417 -3.1577 0.9516
-11.0328 4.6783 -3.1577 0.9516
-11.4054 3.6778 -3.1577 0.9516
-11.6875 2.6480 -3.1577 0.9516
-11.8768 1.5973 -3.1577 0.9516
-11.6875 -2.6480 -3.1577 0.9516
-11.4054 -3.6778 -3.1577 0.9516
-10.5726 -5.6417 -3.1577 0.9516
-10.0285 -6.5603 -3.1577 0.9516
-9.4048 -7.4269 -3.1577 0.9516
-8.7065 -8.2345 -3.1577 0.9516
-7.9391 -8.9767 -3.1577 0.9516
-7.0208 -9.5287 -3.1188 0.9522
-4.1023 -10.6514 -3.0076 0.9539
-3.1389 -10.9773 -3.0084 0.9539
-1.1431 -11.3629 -3.0092 0.9539
-0.1272 -11.4158 -3.0082 0.9539
0.8888 -11.3743 -3.0063 0.9539
1.9932 -11.8167 -3.1577 0.9516
3.0088 -11.4847 -3.1284 0.9521
3.9884 -11.0859 -3.1044 0.9524
6.7833 -9.6494 -3.1080 0.9524
7.6193 -9.0122 -3.1097 0.9524
8.3961 -8.3031 -3.1115 0.9523
11.5040 -2.8773 -3.1247 0.9521
11.8837 0.2649 -3.1321 0.9520
11.8227 1.3226 -3.1347 0.9520
11.6675 2.3715 -3.1373 0.9519
11.4193 3.4033 -3.1398 0.9519
11.0797 4.4096 -3.1422 0.9519
10.1372 6.3135 -3.1468 0.9518
8.1254 8.7851 -3.1532 0.9517
5.5236 10.6348 -3.1577 0.9516
4.5551 11.0842 -3.1577 0.9516
3.5505 11.4457 -3.1577 0.9516
2.5177 11.7163 -3.1577 0.9516
0.3811 11.3990 -3.0053 0.9539
-2.6479 11.1110 -3.0097 0.9539
-3.6265 10.8316 -3.0098 0.9538
-4.5763 10.4663 -3.0100 0.9538
-7.9404 8.2103 -3.0097 0.9539
-8.6338 7.4659 -3.0076 0.9539
-9.2573 6.6630 -3.0054 0.9539
-11.2302 4.1822 -3.1577 0.9516
-11.5579 3.1661 -3.1577 0.9516
-11.2232 0.0000 -3.1577 0.9544
-11.0454 -1.9899 -3.1577 0.9544
-9.6565 -5.7195 -3.1577 0.9544
-8.4894 -7.3410 -3.1577 0.9544
-7.8023 -8.0675 -3.1577 0.9544
-6.2483 -9.3230 -3.1577 0.9544
-5.2486 -9.5774 -3.0728 0.9556
-4.2793 -9.7869 -3.0053 0.9566
-3.3922 -10.1319 -3.0062 0.9566
-1.5426 -10.5766 -3.0073 0.9566
-0.5950 -10.6712 -3.0071 0.9566
1.3650 -11.0831 -3.1419 0.9547
3.2906 -10.6078 -3.1249 0.9549
6.7537 -8.7510 -3.1101 0.9551
8.2071 -7.4229 -3.1135 0.9551
9.4048 -5.8574 -3.1173 0.9550
9.8954 -5.0004 -3.1194 0.9550
10.3084 -4.1026 -3.1216 0.9549
11.0503 -1.2362 -3.1285 0.9548
11.1250 -0.2479 -3.1309 0.9548
11.0097 1.7312 -3.1357 0.9547
10.8200 2.7063 -3.1381 0.9547
10.5440 3.6613 -3.1404 0.9547
9.2211 6.3300 -3.1469 0.9546
7.2460 8.5706 -3.1577 0.9544
6.4544 9.1815 -3.1577 0.9544
4.7242 10.1804 -3.1577 0.9544
3.7993 10.5605 -3.1577 0.9544
2.8443 10.8568 -3.1577 0.9544
1.7768 10.5340 -3.0057 0.9566
0.8329 10.6593 -3.0082 0.9565
-1.0709 10.6445 -3.0100 0.9565
-6.3473 8.6146 -3.0106 0.9565
-8.3831 6.6200 -3.0054 0.9566
-9.3921 6.1440 -3.1577 0.9544
-10.3326 4.3814 -3.1577 0.9544
-10.9457 2.4800 -3.1577 0.9544
-11.1230 1.4959 -3.1577 0.9544
-11.2120 -0.4999 -3.1577 0.9544
-11.1230 -1.4959 -3.1577 0.9544
-10.3326 -4.3814 -3.1577 0.9544
-9.3921 -6.1440 -3.1577 0.9544
-7.4352 -8.4070 -3.1577 0.9544
-2.9378 -10.2741 -3.0066 0.9566
-1.0699 -10.6349 -3.0073 0.9566
-0.1191 -10.6854 -3.0066 0.9566
1.8667 -11.0668 -3.1577 0.9544
2.8401 -10.8406 -3.1530 0.9545
3.7463 -10.4131 -3.1136 0.9551
6.3557 -9.0411 -3.1094 0.9551
7.8660 -7.7788 -3.1126 0.9551
8.5321 -7.0520 -3.1144 0.9550
9.1316 -6.2685 -3.1163 0.9550
10.1118 -4.5562 -3.1205 0.9550
10.7747 -2.6950 -3.1249 0.9549
11.0987 -0.7430 -3.1297 0.9548
11.1293 0.2480 -3.1321 0.9548
11.0716 1.2386 -3.1345 0.9548
10.3742 4.1289 -3.1415 0.9547
9.9726 5.0394 -3.1437 0.9546
8.3027 7.5094 -3.1497 0.9545
6.0390 9.4599 -3.1577 0.9544
5.1730 9.9599 -3.1577 0.9544
4.2660 10.3808 -3.1577 0.9544
3.3251 10.7193 -3.1577 0.9544
2.3579 10.9727 -3.1577 0.9544
1.3064 10.6072 -3.0069 0.9566
0.3574 10.6904 -3.0095 0.9565
-0.5956 10.6820 -3.0101 0.9565
-2.4801 10.4067 -3.0100 0.9565
-3.3965 10.1450 -3.0101 0.9565
-4.2862 9.8028 -3.0102 0.9565
-6.7234 8.3216 -3.0100 0.9565
-8.0825 6.9893 -3.0064 0.9566
-9.6564 5.7195 -3.1577 0.9544
-10.8244 2.9651 -3.1577 0.9544
-11.0454 1.9899 -3.1577 0.9544
-10.5475 0.0000 -3.1577 0.9569
-10.5056 -0.9388 -3.1577 0.9569
-10.3804 -1.8701 -3.1577 0.9569
-9.0750 -5.3752 -3.1577 0.9569
-7.3325 -7.5818 -3.1577 0.9569
-6.6286 -8.2043 -3.1577 0.9569
-5.8721 -8.7617 -3.1577 0.9569
-5.0689 -9.2496 -3.1577 0.9569
-3.2239 -9.6293 -3.0401 0.9585
-2.3271 -9.7650 -3.0053 0.9590
-1.4489 -9.9341 -3.0056 0.9589
1.2893 -10.4684 -3.1577 0.9569
2.2159 -10.3121 -3.1577 0.9569
5.5899 -8.7564 -3.1101 0.9576
7.7154 -6.9782 -3.1145 0.9575
8.3106 -6.2673 -3.1162 0.9575
10.0009 -2.9806 -3.1242 0.9574
10.2337 -2.0801 -3.1264 0.9573
10.4554 -0.2330 -3.1309 0.9573
10.4422 0.6990 -3.1332 0.9572
10.3460 1.6269 -3.1354 0.9572
10.1673 2.5430 -3.1377 0.9572
9.9075 3.4403 -3.1399 0.9572
9.1527 5.1492 -3.1440 0.9571
8.6634 5.9471 -3.1459 0.9571
7.4996 7.4165 -3.1577 0.9569
6.0658 8.6288 -3.1577 0.9569
5.2737 9.1344 -3.1577 0.9569
2.6731 10.2032 -3.1577 0.9569
-0.1120 10.0547 -3.0104 0.9589
-1.0065 10.0045 -3.0103 0.9589
-2.7643 9.6674 -3.0102 0.9589
-4.4349 9.0248 -3.0105 0.9589
-5.2209 8.5947 -3.0106 0.9589
-6.6560 7.5261 -3.0079 0.9589
-8.1083 6.4030 -3.0931 0.9578
-8.8266 5.7741 -3.1577 0.9569
-9.7105 4.1176 -3.1577 0.9569
-10.0385 3.2370 -3.1577 0.9569
-10.4534 -1.4058 -3.1577 0.9569
-10.0385 -3.2370 -3.1577 0.9569
-9.3055 -4.9656 -3.1577 0.9569
-6.9875 -7.9009 -3.1577 0.9569
-6.2566 -8.4915 -3.1577 0.9569
-4.6519 -9.4662 -3.1577 0.9569
-3.7014 -9.6105 -3.0832 0.9579
-1.8899 -9.8592 -3.0054 0.9590
0.8217 -10.5154 -3.1577 0.9569
1.7543 -10.4005 -3.1577 0.9569
2.6731 -10.2031 -3.1577 0.9569
3.5320 -9.8175 -3.1236 0.9574
4.3706 -9.4184 -3.1085 0.9576
5.9756 -8.5004 -3.1107 0.9575
7.3950 -7.3131 -3.1137 0.9575
8.0208 -6.6294 -3.1153 0.9575
8.5840 -5.8926 -3.1171 0.9575
9.0800 -5.1083 -3.1190 0.9574
10.3199 -1.6227 -3.1275 0.9573
10.4592 0.2331 -3.1320 0.9573
9.7477 3.8795 -3.1409 0.9571
8.3923 6.3290 -3.1469 0.9571
7.8001 7.0548 -3.1486 0.9570
5.6754 8.8904 -3.1577 0.9569
4.8616 9.3603 -3.1577 0.9569
4.0092 9.7558 -3.1577 0.9569
3.1250 10.0740 -3.1577 0.9569
2.2159 10.3121 -3.1577 0.9569
0.3358 10.0459 -3.0092 0.9589
-2.3309 9.7808 -3.0102 0.9589
-3.1923 9.5349 -3.0103 0.9589
-4.0284 9.2132 -3.0104 0.9589
-4.8327 8.8185 -3.0105 0.9589
-5.5977 8.3524 -3.0102 0.9589
-6.3158 7.8172 -3.0087 0.9589
-6.9828 7.2201 -3.0071 0.9589
-7.5932 6.5661 -3.0053 0.9590
-9.5175 4.5461 -3.1577 0.9569
-10.3804 1.8701 -3.1577 0.9569
-9.9034 -0.8849 -3.1577 0.9591
-9.7854 -1.7629 -3.1577 0.9591
-9.5896 -2.6269 -3.1577 0.9591
-8.9719 -4.2855 -3.1577 0.9591
-8.5549 -5.0671 -3.1577 0.9591
-8.0699 -5.8084 -3.1577 0.9591
-7.5209 -6.5036 -3.1577 0.9591
-6.9122 -7.1472 -3.1577 0.9591
-6.2487 -7.7340 -3.1577 0.9591
-5.5355 -8.2595 -3.1577 0.9591
-3.9833 -9.1101 -3.1577 0.9591
-2.2952 -9.6310 -3.1443 0.9593
-1.4091 -9.6616 -3.1008 0.9599
2.0889 -9.7210 -3.1577 0.9591
2.9458 -9.4965 -3.1577 0.9591
5.2715 -8.2577 -3.1113 0.9597
6.6576 -7.1982 -3.1139 0.9597
7.2754 -6.5802 -3.1154 0.9597
7.8364 -5.9097 -3.1171 0.9596
8.3359 -5.1917 -3.1188 0.9596
8.7701 -4.4317 -3.1207 0.9596
9.6479 -1.9610 -3.1267 0.9595
9.8433 0.6590 -3.1331 0.9594
9.7522 1.5335 -3.1352 0.9594
9.5834 2.3970 -3.1373 0.9594
9.3382 3.2426 -3.1394 0.9594
9.0182 4.0634 -3.1414 0.9593
8.6260 4.8529 -3.1433 0.9593
7.6375 6.3126 -3.1468 0.9593
7.0697 6.9914 -3.1577 0.9591
5.7181 8.1341 -3.1577 0.9591
3.3659 9.3558 -3.1577 0.9591
0.7378 9.4416 -3.0076 0.9610
-0.9488 9.4318 -3.0105 0.9610
-2.6060 9.1139 -3.0104 0.9610
-4.9198 8.0992 -3.0095 0.9610
-6.8751 6.5024 -3.0053 0.9611
-7.8032 6.1621 -3.1577 0.9591
-9.4631 3.0515 -3.1577 0.9591
-9.8542 1.3253 -3.1577 0.9591
-9.9330 -0.4429 -3.1577 0.9591
-9.8542 -1.3252 -3.1577 0.9591
-9.4631 -3.0514 -3.1577 0.9591
-9.1539 -3.8816 -3.1577 0.9591
-8.7721 -4.6809 -3.1577 0.9591
-8.3207 -5.4431 -3.1577 0.9591
-7.2238 -6.8322 -3.1577 0.9591
-6.5870 -7.4480 -3.1577 0.9591
-5.8979 -8.0047 -3.1577 0.9591
-5.1621 -8.4979 -3.1577 0.9591
-4.3852 -8.9236 -3.1577 0.9591
-3.5736 -9.2785 -3.1577 0.9591
-2.7335 -9.5597 -3.1577 0.9591
-1.8490 -9.6458 -3.1191 0.9596
-0.9765 -9.7061 -3.0981 0.9599
-0.1108 -9.9423 -3.1577 0.9591
0.7746 -9.9127 -3.1577 0.9591
1.6538 -9.8044 -3.1577 0.9591
2.5199 -9.6183 -3.1577 0.9591
4.8975 -8.4828 -3.1108 0.9597
5.6352 -8.0162 -3.1119 0.9597
6.3290 -7.4859 -3.1132 0.9597
6.9733 -6.8961 -3.1147 0.9597
7.5633 -6.2512 -3.1162 0.9597
8.0941 -5.5563 -3.1179 0.9596
9.5478 -2.3881 -3.1257 0.9595
9.7290 -1.5298 -3.1278 0.9595
9.8332 -0.6582 -3.1299 0.9595
9.8595 0.2197 -3.1320 0.9595
9.8075 1.0971 -3.1341 0.9594
9.4703 2.8225 -3.1383 0.9594
6.7513 7.2994 -3.1577 0.9591
6.0748 7.8714 -3.1577 0.9591
2.9458 9.4965 -3.1577 0.9591
2.0889 9.7210 -3.1577 0.9591
1.1572 9.3960 -3.0066 0.9610
0.3165 9.4684 -3.0087 0.9610
-2.1974 9.2208 -3.0104 0.9610
-3.0095 8.9889 -3.0105 0.9610
-5.9515 7.3662 -3.0075 0.9610
-6.5801 6.8038 -3.0060 0.9611
-8.5549 5.0671 -3.1577 0.9591
-9.3178 3.4700 -3.1577 0.9591
-9.3612 -0.8365 -3.1577 0.9611
-9.2495 -1.6664 -3.1577 0.9611
-9.0645 -2.4830 -3.1577 0.9611
-8.4807 -4.0508 -3.1577 0.9611
-7.6281 -5.4903 -3.1577 0.9611
-4.5167 -8.2420 -3.1577 0.9611
-3.7652 -8.6112 -3.1577 0.9611
-2.9838 -8.9122 -3.1577 0.9611
1.1488 -9.3279 -3.1577 0.9611
2.7845 -8.9765 -3.1577 0.9611
3.5584 -8.6589 -3.1453 0.9613
6.2950 -6.8061 -3.1149 0.9616
7.4091 -5.5875 -3.1179 0.9616
9.1204 -1.8538 -3.1270 0.9615
9.3165 -0.2076 -3.1310 0.9614
9.0577 2.2655 -3.1370 0.9614
8.8256 3.0646 -3.1389 0.9613
7.7157 5.2965 -3.1443 0.9613
7.2443 5.9876 -3.1577 0.9611
6.0679 7.1772 -3.1577 0.9611
5.4050 7.6887 -3.1577 0.9611
4.6992 8.1393 -3.1577 0.9611
3.9561 8.5253 -3.1577 0.9611
3.1816 8.8435 -3.1577 0.9611
1.4878 8.8203 -3.0053 0.9630
0.6972 8.9229 -3.0071 0.9629
-0.0998 8.9547 -3.0088 0.9629
-0.8968 8.9145 -3.0102 0.9629
-1.6869 8.8003 -3.0106 0.9629
-3.9505 8.0389 -3.0094 0.9629
-5.3091 7.2056 -3.0071 0.9629
-6.7331 6.3681 -3.1137 0.9616
-7.3759 5.8247 -3.1577 0.9611
-8.6527 3.6691 -3.1577 0.9611
-8.9449 2.8844 -3.1577 0.9611
-9.1661 2.0768 -3.1577 0.9611
-9.3146 1.2527 -3.1577 0.9611
-9.3891 -0.4187 -3.1577 0.9611
-8.9449 -2.8843 -3.1577 0.9611
-8.2918 -4.4246 -3.1577 0.9611
-7.8650 -5.1451 -3.1577 0.9611
-7.3759 -5.8247 -3.1577 0.9611
-4.8794 -8.0325 -3.1577 0.9611
-4.1451 -8.4350 -3.1577 0.9611
-2.5839 -9.0363 -3.1577 0.9611
-0.9408 -9.3512 -3.1577 0.9611
0.7322 -9.3699 -3.1577 0.9611
1.5632 -9.2675 -3.1577 0.9611
5.9843 -7.0783 -3.1142 0.9616
6.5934 -6.5204 -3.1156 0.9616
9.0259 -2.2575 -3.1260 0.9615
9.1969 -1.4461 -3.1279 0.9615
9.3195 0.2077 -3.1320 0.9614
9.2700 1.0370 -3.1340 0.9614
9.1468 1.8592 -3.1360 0.9614
8.6830 3.4557 -3.1399 0.9613
8.3458 4.2174 -3.1417 0.9613
7.9418 4.9462 -3.1435 0.9613
7.4740 5.6365 -3.1452 0.9613
6.3816 6.8997 -3.1577 0.9611
5.7421 7.4403 -3.1577 0.9611
5.0571 7.9219 -3.1577 0.9611
2.7845 8.9765 -3.1577 0.9611
1.9745 9.1887 -3.1577 0.9611
-0.4987 8.9436 -3.0095 0.9629
-1.2932 8.8669 -3.0106 0.9629
-2.0772 8.7164 -3.0106 0.9629
-4.3039 7.8536 -3.0089 0.9629
-5.6236 6.9604 -3.0065 0.9629
-7.6281 5.4904 -3.1577 0.9611
-9.0645 2.4830 -3.1577 0.9611
-9.2496 1.6664 -3.1577 0.9611
-8.5889 -2.3527 -3.1577 0.9629
-8.3454 -3.1079 -3.1577 0.9629
-8.0357 -3.8383 -3.1577 0.9629
-7.6622 -4.5383 -3.1577 0.9629
-7.2279 -5.2022 -3.1577 0.9629
-6.7361 -5.8249 -3.1577 0.9629
-5.5966 -6.9270 -3.1577 0.9629
-3.5677 -8.1594 -3.1577 0.9629
-2.8273 -8.4446 -3.1577 0.9629
-2.0645 -8.6627 -3.1577 0.9629
-1.2852 -8.8121 -3.1577 0.9629
1.0886 -8.8385 -3.1577 0.9629
1.8709 -8.7066 -3.1577 0.9629
2.6384 -8.5055 -3.1577 0.9629
4.0617 -7.8202 -3.1247 0.9633
5.3664 -6.9535 -3.1145 0.9634
7.4692 -4.6518 -3.1201 0.9633
8.6425 -1.7567 -3.1272 0.9633
8.8156 0.5902 -3.1329 0.9632
8.5817 2.1465 -3.1367 0.9632
8.3615 2.9034 -3.1385 0.9631
7.7228 4.3448 -3.1420 0.9631
7.3117 5.0199 -3.1446 0.9631
6.8642 5.6734 -3.1577 0.9629
6.3320 6.2619 -3.1577 0.9629
5.1214 7.2853 -3.1577 0.9629
4.4526 7.7123 -3.1577 0.9629
3.7485 8.0780 -3.1577 0.9629
3.0147 8.3796 -3.1577 0.9629
2.2569 8.6146 -3.1577 0.9629
1.4393 8.5326 -3.0683 0.9639
-0.0945 8.4824 -3.0079 0.9646
-2.3337 8.1613 -3.0098 0.9646
-3.0501 7.9194 -3.0092 0.9646
-3.7418 7.6143 -3.0083 0.9646
-6.4700 6.1192 -3.1577 0.9629
-6.9889 5.5191 -3.1577 0.9629
-7.8567 4.1925 -3.1577 0.9629
-8.4756 2.7330 -3.1577 0.9629
-8.6852 1.9678 -3.1577 0.9629
-8.8259 1.1870 -3.1577 0.9629
-8.8259 -1.1870 -3.1577 0.9629
-8.6852 -1.9678 -3.1577 0.9629
-8.1987 -3.4765 -3.1577 0.9629
-7.4524 -4.8751 -3.1577 0.9629
-6.9889 -5.5191 -3.1577 0.9629
-6.4700 -6.1192 -3.1577 0.9629
-5.8996 -6.6708 -3.1577 0.9629
-4.6234 -7.6111 -3.1577 0.9629
-3.9276 -7.9924 -3.1577 0.9629
-3.2007 -8.3103 -3.1577 0.9629
-2.4483 -8.5622 -3.1577 0.9629
-1.6765 -8.7461 -3.1577 0.9629
-0.0992 -8.9048 -3.1577 0.9629
0.6937 -8.8783 -3.1577 0.9629
1.4812 -8.7813 -3.1577 0.9629
3.0147 -8.3795 -3.1577 0.9629
4.3983 -7.6181 -3.1192 0.9634
5.0504 -7.1844 -3.1139 0.9634
6.2492 -6.1799 -3.1164 0.9634
7.2527 -4.9787 -3.1193 0.9634
8.0291 -3.6177 -3.1227 0.9633
8.3239 -2.8904 -3.1244 0.9633
8.5531 -2.1393 -3.1263 0.9633
8.7148 -1.3703 -3.1281 0.9633
8.8076 -0.5896 -3.1300 0.9632
8.8305 0.1968 -3.1319 0.9632
8.7833 0.9826 -3.1339 0.9632
8.2262 3.2740 -3.1394 0.9631
7.1090 5.3611 -3.1572 0.9629
6.6046 5.9736 -3.1577 0.9629
6.0468 6.5377 -3.1577 0.9629
5.4409 7.0500 -3.1577 0.9629
4.1047 7.9029 -3.1577 0.9629
3.3850 8.2369 -3.1577 0.9629
2.6384 8.5055 -3.1577 0.9629
1.0361 8.4126 -3.0055 0.9647
0.2834 8.4761 -3.0072 0.9646
-1.2250 8.3989 -3.0096 0.9646
-2.6946 8.0484 -3.0095 0.9646
-4.7208 7.0439 -3.0067 0.9647
-6.7361 5.8249 -3.1577 0.9629
-7.2278 5.2023 -3.1577 0.9629
-7.6622 4.5383 -3.1577 0.9629
-8.5889 2.3528 -3.1577 0.9629
-8.7642 1.5790 -3.1577 0.9629
-8.4564 0.0000 -3.1577 0.9645
-8.1559 -2.2341 -3.1577 0.9645
-7.9247 -2.9512 -3.1577 0.9645
-7.6306 -3.6448 -3.1577 0.9645
-7.2759 -4.3095 -3.1577 0.9645
-6.8635 -4.9400 -3.1577 0.9645
-5.8788 -6.0786 -3.1577 0.9645
-4.7079 -7.0247 -3.1577 0.9645
-2.6847 -8.0189 -3.1577 0.9645
-0.4708 -8.4432 -3.1577 0.9645
0.2826 -8.4517 -3.1577 0.9645
1.0337 -8.3930 -3.1577 0.9645
1.7766 -8.2676 -3.1577 0.9645
2.5054 -8.0767 -3.1577 0.9645
3.2143 -7.8217 -3.1577 0.9645
3.8815 -7.4732 -3.1445 0.9647
4.4971 -7.0446 -3.1209 0.9649
5.0973 -6.6047 -3.1154 0.9650
6.1924 -5.6007 -3.1178 0.9650
6.6693 -5.0296 -3.1192 0.9650
7.0939 -4.4181 -3.1207 0.9649
7.7729 -3.0935 -3.1239 0.9649
8.0218 -2.3908 -3.1256 0.9649
8.3828 -0.1868 -3.1310 0.9648
8.3710 0.5604 -3.1328 0.9648
8.2927 1.3040 -3.1346 0.9648
8.1483 2.0381 -3.1364 0.9648
7.9390 2.7567 -3.1382 0.9648
7.6663 3.4543 -3.1399 0.9647
7.3322 4.1251 -3.1415 0.9647
6.5181 5.3874 -3.1577 0.9645
6.0128 5.9462 -3.1577 0.9645
4.8632 6.9181 -3.1577 0.9645
4.2282 7.3235 -3.1577 0.9645
2.1431 8.1803 -3.1577 0.9645
1.4065 8.3386 -3.1577 0.9645
0.6270 8.0248 -3.0057 0.9662
-0.0897 8.0525 -3.0071 0.9662
-0.8064 8.0155 -3.0082 0.9662
-1.5169 7.9135 -3.0088 0.9662
-2.2152 7.7469 -3.0087 0.9662
-3.5520 7.2280 -3.0073 0.9662
-4.7740 6.4794 -3.0053 0.9662
-7.0767 4.6294 -3.1577 0.9645
-8.2474 1.8686 -3.1577 0.9645
-8.4480 0.3767 -3.1577 0.9645
-8.4480 -0.3767 -3.1577 0.9645
-8.0483 -2.5952 -3.1577 0.9645
-7.7854 -3.3012 -3.1577 0.9645
-7.4606 -3.9811 -3.1577 0.9645
-6.1438 -5.8107 -3.1577 0.9645
-5.0162 -6.8080 -3.1577 0.9645
-3.7296 -7.5895 -3.1577 0.9645
-1.5920 -8.3052 -3.1577 0.9645
-0.0942 -8.4558 -3.1577 0.9645
0.6588 -8.4307 -3.1577 0.9645
2.1431 -8.1803 -3.1577 0.9645
4.8000 -6.8281 -3.1167 0.9650
5.9355 -5.8698 -3.1172 0.9650
6.4372 -5.3205 -3.1185 0.9650
6.8884 -4.7286 -3.1199 0.9650
7.2855 -4.0988 -3.1215 0.9649
7.6254 -3.4358 -3.1231 0.9649
8.1226 -2.0316 -3.1265 0.9649
8.2759 -1.3013 -3.1283 0.9649
8.3637 -0.5599 -3.1301 0.9648
8.3852 0.1869 -3.1319 0.9648
8.2287 1.6726 -3.1355 0.9648
8.0517 2.3997 -3.1373 0.9648
7.5068 3.7934 -3.1407 0.9647
6.7517 5.0917 -3.1577 0.9645
5.1666 6.6946 -3.1577 0.9645
3.8977 7.5045 -3.1577 0.9645
3.2143 7.8217 -3.1577 0.9645
2.5054 8.0767 -3.1577 0.9645
0.9838 7.9879 -3.0053 0.9662
0.2690 8.0467 -3.0064 0.9662
-1.1628 7.9726 -3.0085 0.9662
-1.8679 7.8382 -3.0088 0.9662
-2.5579 7.6399 -3.0085 0.9662
-3.2269 7.3801 -3.0077 0.9662
-3.8698 7.0615 -3.0068 0.9662
-5.1258 6.3443 -3.0456 0.9658
-5.8788 6.0787 -3.1577 0.9645
-6.3965 5.5313 -3.1577 0.9645
-8.1559 2.2342 -3.1577 0.9645
-8.4228 0.7527 -3.1577 0.9645
-8.0138 -0.7161 -3.1577 0.9660
-7.7599 -2.1256 -3.1577 0.9660
-7.5399 -2.8079 -3.1577 0.9660
-7.2600 -3.4678 -3.1577 0.9660
-6.9226 -4.1002 -3.1577 0.9660
-6.5301 -4.7001 -3.1577 0.9660
-6.0859 -5.2627 -3.1577 0.9660
-5.5933 -5.7834 -3.1577 0.9660
-3.8666 -7.0557 -3.1577 0.9660
-1.1612 -7.9615 -3.1577 0.9660
0.9835 -7.9854 -3.1577 0.9660
1.6903 -7.8661 -3.1577 0.9660
2.3837 -7.6845 -3.1577 0.9660
3.0582 -7.4418 -3.1577 0.9660
3.7084 -7.1401 -3.1577 0.9660
4.8556 -6.2916 -3.1191 0.9664
6.7505 -4.2043 -3.1212 0.9664
7.1014 -3.5885 -3.1227 0.9664
7.3963 -2.9437 -3.1243 0.9664
7.6329 -2.2749 -3.1259 0.9664
7.8093 -1.5873 -3.1276 0.9663
7.9239 -0.8864 -3.1293 0.9663
7.9757 -0.1777 -3.1310 0.9663
7.9643 0.5332 -3.1328 0.9663
7.8896 1.2406 -3.1345 0.9663
7.7520 1.9389 -3.1362 0.9662
7.2930 3.2861 -3.1395 0.9662
6.9812 3.9275 -3.1438 0.9662
6.6332 4.5535 -3.1577 0.9660
5.1945 6.1441 -3.1577 0.9660
4.6270 6.5821 -3.1577 0.9660
2.7237 7.5707 -3.1577 0.9660
2.0390 7.7830 -3.1577 0.9660
1.3382 7.9336 -3.1577 0.9660
0.5965 7.6342 -3.0053 0.9676
-0.7670 7.6238 -3.0072 0.9676
-1.4427 7.5266 -3.0077 0.9676
-2.1069 7.3682 -3.0077 0.9676
-3.3784 6.8749 -3.0064 0.9676
-3.9757 6.5449 -3.0055 0.9676
-4.6615 6.3267 -3.0842 0.9668
-5.3302 6.0269 -3.1577 0.9660
-6.3143 4.9863 -3.1577 0.9660
-7.4073 3.1410 -3.1577 0.9660
-7.4073 -3.1409 -3.1577 0.9660
-7.0983 -3.7878 -3.1577 0.9660
-6.7330 -4.4045 -3.1577 0.9660
-5.3301 -6.0269 -3.1577 0.9660
-4.7726 -6.4773 -3.1577 0.9660
-4.1771 -6.8764 -3.1577 0.9660
-3.5485 -7.2209 -3.1577 0.9660
-1.5147 -7.9018 -3.1577 0.9660
-0.8054 -8.0053 -3.1577 0.9660
-0.0896 -8.0452 -3.1577 0.9660
2.0390 -7.7830 -3.1577 0.9660
3.3867 -7.2982 -3.1577 0.9660
4.5757 -6.5090 -3.1226 0.9664
6.5550 -4.4998 -3.1205 0.9664
7.7287 -1.9331 -3.1268 0.9663
7.8744 -1.2382 -3.1284 0.9663
7.9348 0.8877 -3.1336 0.9663
7.8286 1.5912 -3.1353 0.9663
7.1412 3.6086 -3.1402 0.9662
6.4238 4.8444 -3.1577 0.9660
3.7085 7.1401 -3.1577 0.9660
2.3837 7.6845 -3.1577 0.9660
1.6903 7.8662 -3.1577 0.9660
0.2559 7.6541 -3.0057 0.9676
-0.4265 7.6493 -3.0068 0.9676
-3.6808 6.7166 -3.0059 0.9676
-5.0564 6.2583 -3.1577 0.9660
-6.0859 5.2627 -3.1577 0.9660
-6.5301 4.7001 -3.1577 0.9660
-6.9225 4.1002 -3.1577 0.9660
-7.5399 2.8079 -3.1577 0.9660
-7.6684 0.0000 -3.1577 0.9674
-7.6380 -0.6825 -3.1577 0.9674
-7.3960 -2.0260 -3.1577 0.9674
-6.9196 -3.3052 -3.1577 0.9674
-6.5979 -3.9079 -3.1577 0.9674
-6.2239 -4.4797 -3.1577 0.9674
-5.8005 -5.0158 -3.1577 0.9674
-4.8193 -5.9648 -3.1577 0.9674
-3.6853 -6.7248 -3.1577 0.9674
-3.0721 -7.0261 -3.1577 0.9674
-2.4346 -7.2717 -3.1577 0.9674
-1.7777 -7.4595 -3.1577 0.9674
-1.1067 -7.5881 -3.1577 0.9674
0.2562 -7.6641 -3.1577 0.9674
0.9374 -7.6109 -3.1577 0.9674
1.6110 -7.4972 -3.1577 0.9674
2.9148 -7.0928 -3.1577 0.9674
3.5346 -6.8052 -3.1577 0.9674
4.6359 -6.0069 -3.1245 0.9677
5.1412 -5.5587 -3.1179 0.9678
6.4349 -4.0077 -3.1217 0.9677
7.0502 -2.8059 -3.1246 0.9677
7.2756 -2.1683 -3.1262 0.9677
7.5525 -0.8449 -3.1294 0.9677
7.5907 0.5082 -3.1327 0.9676
6.9510 3.1329 -3.1393 0.9676
6.3221 4.3399 -3.1577 0.9674
5.4525 5.3921 -3.1577 0.9674
4.9509 5.8560 -3.1577 0.9674
3.2279 6.9560 -3.1577 0.9674
2.5960 7.2157 -3.1577 0.9674
1.2755 7.5616 -3.1577 0.9674
-0.0813 7.2983 -3.0055 0.9689
-2.0075 7.0204 -3.0067 0.9689
-3.2191 6.5506 -3.0055 0.9689
-4.5488 6.1736 -3.1577 0.9674
-5.0802 5.7443 -3.1577 0.9674
-6.0182 4.7525 -3.1577 0.9674
-7.4789 1.6945 -3.1577 0.9674
-7.6000 1.0221 -3.1577 0.9674
-7.6608 -0.3416 -3.1577 0.9674
-7.0599 -2.9936 -3.1577 0.9674
-6.4173 -4.1980 -3.1577 0.9674
-4.5487 -6.1736 -3.1577 0.9674
-3.3821 -6.8823 -3.1577 0.9674
-2.7561 -7.1560 -3.1577 0.9674
-1.4436 -7.5313 -3.1577 0.9674
-0.0854 -7.6679 -3.1577 0.9674
1.9434 -7.4180 -3.1577 0.9674
2.5960 -7.2156 -3.1577 0.9674
3.8342 -6.6410 -3.1577 0.9674
4.3734 -6.2213 -3.1315 0.9676
5.8396 -4.8266 -3.1197 0.9678
6.2486 -4.2895 -3.1210 0.9677
6.9165 -3.1164 -3.1239 0.9677
7.1700 -2.4897 -3.1254 0.9677
7.5847 -0.5077 -3.1302 0.9677
7.4610 1.5165 -3.1351 0.9676
7.0811 2.8182 -3.1383 0.9676
6.8137 3.4431 -3.1436 0.9675
6.5092 4.0540 -3.1577 0.9674
5.6873 5.1439 -3.1577 0.9674
5.2069 5.6296 -3.1577 0.9674
2.2720 7.3241 -3.1577 0.9674
0.9374 7.6109 -3.1577 0.9674
0.2439 7.2942 -3.0053 0.9689
-1.6928 7.1031 -3.0068 0.9689
-2.9245 6.6884 -3.0059 0.9689
-3.5075 6.4003 -3.0053 0.9689
-4.2282 6.3089 -3.1273 0.9677
-5.8005 5.0159 -3.1577 0.9674
-6.2239 4.4797 -3.1577 0.9674
-7.3959 2.0260 -3.1577 0.9674
-7.6380 0.6825 -3.1577 0.9674
-7.3204 0.0000 -3.1577 0.9686
-7.2044 -1.2979 -3.1577 0.9686
-6.6055 -3.1552 -3.1577 0.9686
-5.9415 -4.2764 -3.1577 0.9686
-5.5372 -4.7882 -3.1577 0.9686
-5.0891 -5.2621 -3.1577 0.9686
-4.0755 -6.0810 -3.1577 0.9686
-3.5181 -6.4196 -3.1577 0.9686
-2.9327 -6.7073 -3.1577 0.9686
-1.6970 -7.1210 -3.1577 0.9686
-1.0565 -7.2437 -3.1577 0.9686
0.2446 -7.3163 -3.1577 0.9686
0.8948 -7.2655 -3.1577 0.9686
3.3742 -6.4964 -3.1577 0.9686
3.9390 -6.1703 -3.1577 0.9686
4.4412 -5.7546 -3.1356 0.9688
5.3637 -4.8512 -3.1196 0.9690
5.7764 -4.3562 -3.1208 0.9690
6.7309 -2.6788 -3.1249 0.9689
6.9459 -2.0701 -3.1264 0.9689
7.1060 -1.4444 -3.1279 0.9689
7.2568 -0.1617 -3.1311 0.9689
7.1777 1.1287 -3.1342 0.9688
6.8705 2.3857 -3.1373 0.9688
6.6482 2.9955 -3.1454 0.9687
6.3800 3.5894 -3.1577 0.9686
6.0352 4.1430 -3.1577 0.9686
5.6425 4.6637 -3.1577 0.9686
4.2099 5.9887 -3.1577 0.9686
3.6602 6.3397 -3.1577 0.9686
3.0814 6.6403 -3.1577 0.9686
2.4782 6.8882 -3.1577 0.9686
-4.8496 5.4836 -3.1577 0.9686
-5.3185 5.0302 -3.1577 0.9686
-6.1260 4.0075 -3.1577 0.9686
-7.1394 1.6176 -3.1577 0.9686
-7.2551 0.9757 -3.1577 0.9686
-7.1394 -1.6176 -3.1577 0.9686
-6.9671 -2.2466 -3.1577 0.9686
-6.7395 -2.8578 -3.1577 0.9686
-6.1260 -4.0074 -3.1577 0.9686
-5.7451 -4.5368 -3.1577 0.9686
-4.3423 -5.8934 -3.1577 0.9686
-2.0126 -7.0383 -3.1577 0.9686
-0.0816 -7.3199 -3.1577 0.9686
0.5703 -7.2981 -3.1577 0.9686
1.8552 -7.0814 -3.1577 0.9686
4.6794 -5.5348 -3.1264 0.9689
5.5755 -4.6083 -3.1202 0.9690
6.6033 -2.9753 -3.1242 0.9689
7.0329 -1.7591 -3.1272 0.9689
7.1651 -1.1267 -3.1287 0.9689
7.2586 0.1618 -3.1318 0.9689
7.2190 0.8076 -3.1334 0.9689
7.1221 1.4476 -3.1350 0.9688
6.9683 2.0768 -3.1365 0.9688
6.2138 3.8700 -3.1577 0.9686
5.8447 4.4077 -3.1577 0.9686
5.4292 4.9104 -3.1577 0.9686
4.9706 5.3742 -3.1577 0.9686
4.4725 5.7952 -3.1577 0.9686
3.3741 6.4964 -3.1577 0.9686
1.5379 7.1570 -3.1577 0.9686
-0.3879 6.9563 -3.0053 0.9701
-1.6155 6.7787 -3.0059 0.9701
-3.4508 6.2968 -3.0973 0.9692
-4.6005 5.6942 -3.1577 0.9686
-5.9415 4.2764 -3.1577 0.9686
-6.6055 3.1552 -3.1577 0.9686
-6.8602 2.5548 -3.1577 0.9686
-7.0603 1.9340 -3.1577 0.9686
-7.2044 1.2980 -3.1577 0.9686
-6.7496 -1.8489 -3.1577 0.9698
-6.5582 -2.4423 -3.1577 0.9698
-6.0213 -3.5664 -3.1577 0.9698
-5.2935 -4.5775 -3.1577 0.9698
-4.3981 -5.4435 -3.1577 0.9698
-3.8961 -5.8134 -3.1577 0.9698
-3.3632 -6.1371 -3.1577 0.9698
-0.3896 -6.9873 -3.1577 0.9698
0.2338 -6.9943 -3.1577 0.9698
0.8554 -6.9457 -3.1577 0.9698
1.4702 -6.8420 -3.1577 0.9698
2.6601 -6.4729 -3.1577 0.9698
3.2256 -6.2105 -3.1577 0.9698
3.7656 -5.8987 -3.1577 0.9698
5.5230 -4.1651 -3.1213 0.9701
6.1790 -3.1224 -3.1238 0.9701
6.4352 -2.5612 -3.1252 0.9701
6.9374 -0.1546 -3.1311 0.9700
6.8615 1.0789 -3.1341 0.9700
6.7414 1.6862 -3.1356 0.9700
6.3804 2.8749 -3.1577 0.9698
6.0992 3.4314 -3.1577 0.9698
5.7696 3.9606 -3.1577 0.9698
4.0246 5.7251 -3.1577 0.9698
2.9458 6.3480 -3.1577 0.9698
1.7736 6.7697 -3.1577 0.9698
0.5452 6.9770 -3.1577 0.9698
-0.6716 6.6758 -3.0274 0.9710
-1.2539 6.5414 -3.0053 0.9712
-3.0849 6.2777 -3.1561 0.9698
-3.6333 5.9812 -3.1577 0.9698
-4.1512 5.6341 -3.1577 0.9698
-5.0844 4.8088 -3.1577 0.9698
-5.8564 3.8311 -3.1577 0.9698
-6.1742 3.2946 -3.1577 0.9698
-6.8252 1.5464 -3.1577 0.9698
-6.9358 0.9328 -3.1577 0.9698
-6.9913 0.3118 -3.1577 0.9698
-6.1742 -3.2946 -3.1577 0.9698
-5.4922 -4.3371 -3.1577 0.9698
-4.6361 -5.2422 -3.1577 0.9698
-4.1512 -5.6340 -3.1577 0.9698
-3.6333 -5.9811 -3.1577 0.9698
-3.0865 -6.2808 -3.1577 0.9698
-1.3175 -6.8730 -3.1577 0.9698
4.4942 -5.3158 -3.1410 0.9699
4.9266 -4.8720 -3.1264 0.9701
6.0325 -3.3938 -3.1232 0.9701
6.7238 -1.6817 -3.1274 0.9700
6.8500 -1.0771 -3.1288 0.9700
6.9220 -0.4634 -3.1303 0.9700
6.9391 0.1547 -3.1318 0.9700
6.8082 1.3839 -3.1348 0.9700
5.9403 3.6997 -3.1577 0.9698
5.5874 4.2137 -3.1577 0.9698
5.1902 4.6943 -3.1577 0.9698
3.7656 5.8987 -3.1577 0.9698
1.4702 6.8420 -3.1577 0.9698
0.8554 6.9457 -3.1577 0.9698
0.2338 6.9943 -3.1577 0.9698
-0.3798 6.8116 -3.0783 0.9705
-0.9613 6.5907 -3.0053 0.9712
-1.5440 6.4790 -3.0053 0.9712
-3.3632 6.1371 -3.1577 0.9698
-3.8961 5.8134 -3.1577 0.9698
-4.3981 5.4436 -3.1577 0.9698
-5.6800 4.0882 -3.1577 0.9698
-6.0213 3.5664 -3.1577 0.9698
-6.7496 1.8489 -3.1577 0.9698
-6.5928 -1.1877 -3.1577 0.9708
-6.4609 -1.7698 -3.1577 0.9708
-5.0672 -4.3817 -3.1577 0.9708
-4.2100 -5.2107 -3.1577 0.9708
-2.6837 -6.1378 -3.1577 0.9708
-0.9668 -6.6287 -3.1577 0.9708
0.8189 -6.6487 -3.1577 0.9708
2.5463 -6.1961 -3.1577 0.9708
3.0877 -5.9448 -3.1577 0.9708
4.0928 -5.3032 -3.1577 0.9708
4.5332 -4.9012 -3.1470 0.9709
5.6236 -3.5024 -3.1229 0.9711
6.1605 -2.4518 -3.1255 0.9711
6.5034 -1.3218 -3.1282 0.9711
6.5982 -0.7381 -3.1296 0.9711
6.6408 -0.1480 -3.1311 0.9711
6.5678 1.0328 -3.1340 0.9710
6.4600 1.6154 -3.1389 0.9710
5.5228 3.7912 -3.1577 0.9708
5.1635 4.2678 -3.1577 0.9708
4.7631 4.7104 -3.1577 0.9708
3.8525 5.4803 -3.1577 0.9708
2.8198 6.0765 -3.1577 0.9708
2.2678 6.3034 -3.1577 0.9708
1.6977 6.4802 -3.1577 0.9708
1.1142 6.6056 -3.1577 0.9708
0.5219 6.6786 -3.1577 0.9708
-0.0746 6.6985 -3.1577 0.9708
-1.2363 6.4498 -3.0956 0.9714
-4.4379 5.0180 -3.1577 0.9708
-5.2573 4.1517 -3.1577 0.9708
-5.6060 3.6673 -3.1577 0.9708
-5.9101 3.1537 -3.1577 0.9708
-6.1674 2.6152 -3.1577 0.9708
-6.3756 2.0559 -3.1577 0.9708
-6.6392 0.8929 -3.1577 0.9708
-6.6923 0.2984 -3.1577 0.9708
-6.6923 -0.2984 -3.1577 0.9708
-6.6392 -0.8929 -3.1577 0.9708
-6.5333 -1.4802 -3.1577 0.9708
-6.3756 -2.0559 -3.1577 0.9708
-6.1674 -2.6152 -3.1577 0.9708
-4.8669 -4.6031 -3.1577 0.9708
-3.4779 -5.7253 -3.1577 0.9708
-2.9545 -6.0122 -3.1577 0.9708
-2.4077 -6.2513 -3.1577 0.9708
-1.2611 -6.5791 -3.1577 0.9708
0.5219 -6.6785 -3.1577 0.9708
2.8198 -6.0765 -3.1577 0.9708
3.3494 -5.8014 -3.1577 0.9708
4.3221 -5.1121 -3.1556 0.9708
5.1134 -4.2264 -3.1271 0.9711
5.4634 -3.7504 -3.1237 0.9711
5.7752 -3.2491 -3.1235 0.9711
6.6261 -0.4435 -3.1304 0.9711
6.6423 0.1480 -3.1318 0.9710
6.5198 1.3252 -3.1361 0.9710
5.9789 3.0213 -3.1577 0.9708
5.3485 4.0335 -3.1577 0.9708
4.5486 4.9179 -3.1577 0.9708
4.0928 5.3032 -3.1577 0.9708
2.5463 6.1961 -3.1577 0.9708
0.8189 6.6487 -3.1577 0.9708
0.2238 6.6952 -3.1577 0.9708
-0.9539 6.5402 -3.1155 0.9712
-1.5201 6.3788 -3.0910 0.9714
-2.1039 6.2841 -3.1238 0.9711
-2.6837 6.1379 -3.1577 0.9708
-3.7295 5.5648 -3.1577 0.9708
-4.2100 5.2107 -3.1577 0.9708
-5.4370 3.9133 -3.1577 0.9708
-5.7638 3.4139 -3.1577 0.9708
-6.2778 2.3379 -3.1577 0.9708
-6.4609 1.7699 -3.1577 0.9708
-6.5928 1.1878 -3.1577 0.9708
-6.6723 0.5962 -3.1577 0.9708
-6.3183 -1.1383 -3.1577 0.9718
-6.0164 -2.2405 -3.1577 0.9718
-5.7931 -2.7671 -3.1577 0.9718
-5.5238 -3.2717 -3.1577 0.9718
-5.2107 -3.7504 -3.1577 0.9718
-4.8562 -4.1993 -3.1577 0.9718
-4.0347 -4.9938 -3.1577 0.9718
-3.5742 -5.3330 -3.1577 0.9718
-2.5720 -5.8823 -3.1577 0.9718
-2.0382 -6.0879 -3.1577 0.9718
-0.9265 -6.3528 -3.1577 0.9718
-0.3574 -6.4100 -3.1577 0.9718
0.7848 -6.3718 -3.1577 0.9718
1.3488 -6.2767 -3.1577 0.9718
1.9021 -6.1317 -3.1577 0.9718
2.4403 -5.9381 -3.1577 0.9718
2.9591 -5.6973 -3.1577 0.9718
3.4545 -5.4114 -3.1577 0.9718
3.9224 -5.0824 -3.1577 0.9718
4.7396 -4.2867 -3.1433 0.9719
5.0804 -3.8313 -3.1297 0.9720
5.3973 -3.3616 -3.1275 0.9721
6.0928 -1.8158 -3.1270 0.9721
6.2329 -1.2669 -3.1284 0.9720
6.3562 0.4250 -3.1334 0.9720
6.0648 2.1059 -3.1577 0.9718
5.8533 2.6374 -3.1577 0.9718
5.5953 3.1479 -3.1577 0.9718
4.9485 4.0901 -3.1577 0.9718
4.5648 4.5143 -3.1577 0.9718
4.1449 4.9027 -3.1577 0.9718
2.7024 5.8235 -3.1577 0.9718
2.1733 6.0410 -3.1577 0.9718
1.0678 6.3306 -3.1577 0.9718
-0.0715 6.4196 -3.1577 0.9718
-0.6426 6.3878 -3.1577 0.9718
-1.7650 6.1726 -3.1577 0.9718
-2.3074 5.9910 -3.1577 0.9718
-4.2531 4.8091 -3.1577 0.9718
-4.6643 4.4115 -3.1577 0.9718
-5.3726 3.5146 -3.1577 0.9718
-6.2613 -1.4186 -3.1577 0.9718
-5.9106 -2.5063 -3.1577 0.9718
-5.6641 -3.0224 -3.1577 0.9718
-5.3726 -3.5145 -3.1577 0.9718
-3.8082 -5.1685 -3.1577 0.9718
-2.3074 -5.9910 -3.1577 0.9718
-1.7650 -6.1726 -3.1577 0.9718
-0.0715 -6.4196 -3.1577 0.9718
0.5001 -6.4005 -3.1577 0.9718
1.6270 -6.2104 -3.1577 0.9718
2.1733 -6.0409 -3.1577 0.9718
3.6921 -5.2521 -3.1577 0.9718
5.5398 -3.1167 -3.1264 0.9721
6.1689 -1.5429 -3.1277 0.9721
6.3503 -0.4251 -3.1304 0.9720
6.2579 1.2720 -3.1409 0.9719
6.1519 1.8335 -3.1574 0.9718
5.9649 2.3740 -3.1577 0.9718
5.4495 3.3940 -3.1577 0.9718
5.1258 3.8656 -3.1577 0.9718
4.7614 4.3064 -3.1577 0.9718
3.4545 5.4114 -3.1577 0.9718
2.9591 5.6974 -3.1577 0.9718
2.4403 5.9381 -3.1577 0.9718
1.9021 6.1318 -3.1577 0.9718
0.2145 6.4164 -3.1577 0.9718
-1.4883 6.2451 -3.1577 0.9718
-2.5720 5.8823 -3.1577 0.9718
-3.0854 5.6300 -3.1577 0.9718
-3.5742 5.3331 -3.1577 0.9718
-4.0347 4.9938 -3.1577 0.9718
-4.4632 4.6149 -3.1577 0.9718
-5.5238 3.2717 -3.1577 0.9718
-5.7931 2.7671 -3.1577 0.9718
-6.1919 1.6962 -3.1577 0.9718
-6.3945 0.5714 -3.1577 0.9718
-6.1349 -0.5482 -3.1577 0.9727
-6.0618 -1.0921 -3.1577 0.9727
-5.5579 -2.6548 -3.1577 0.9727
-4.2819 -4.4274 -3.1577 0.9727
-3.4291 -5.1165 -3.1577 0.9727
-1.4279 -5.9915 -3.1577 0.9727
-0.8889 -6.0948 -3.1577 0.9727
-0.3429 -6.1498 -3.1577 0.9727
0.7529 -6.1131 -3.1577 0.9727
1.2940 -6.0219 -3.1577 0.9727
2.8390 -5.4660 -3.1577 0.9727
3.3142 -5.1916 -3.1577 0.9727
4.1822 -4.5217 -3.1577 0.9727
4.5662 -4.1298 -3.1564 0.9727
5.6714 -2.2571 -3.1294 0.9729
5.8496 -1.7434 -3.1293 0.9729
6.0710 -0.6791 -3.1319 0.9729
6.1065 0.4088 -3.1376 0.9729
5.8185 2.0204 -3.1577 0.9727
5.6156 2.5303 -3.1577 0.9727
5.3681 3.0201 -3.1577 0.9727
5.0780 3.4859 -3.1577 0.9727
4.7476 3.9240 -3.1577 0.9727
4.3795 4.3310 -3.1577 0.9727
3.9766 4.7036 -3.1577 0.9727
3.0797 5.3342 -3.1577 0.9727
2.5926 5.5871 -3.1577 0.9727
2.0851 5.7957 -3.1577 0.9727
1.0245 6.0735 -3.1577 0.9727
-1.6934 5.9220 -3.1577 0.9727
-3.1978 5.2642 -3.1577 0.9727
-3.6536 4.9587 -3.1577 0.9727
-4.4749 4.2324 -3.1577 0.9727
-4.8339 3.8173 -3.1577 0.9727
-5.1544 3.3719 -3.1577 0.9727
-5.8621 1.8903 -3.1577 0.9727
-6.1044 -0.8209 -3.1577 0.9727
-6.0071 -1.3610 -3.1577 0.9727
-5.8621 -1.8903 -3.1577 0.9727
-4.4749 -4.2323 -3.1577 0.9727
-4.0804 -4.6138 -3.1577 0.9727
-3.6536 -4.9587 -3.1577 0.9727
-3.1978 -5.2642 -3.1577 0.9727
-1.1596 -6.0492 -3.1577 0.9727
0.4798 -6.1406 -3.1577 0.9727
1.0245 -6.0735 -3.1577 0.9727
2.5927 -5.5871 -3.1577 0.9727
3.5422 -5.0388 -3.1577 0.9727
3.9766 -4.7036 -3.1577 0.9727
4.7386 -3.9165 -3.1517 0.9727
5.9220 -1.4812 -3.1296 0.9729
6.0328 -0.9486 -3.1309 0.9729
6.0977 -0.4082 -3.1331 0.9729
6.1154 0.1362 -3.1360 0.9729
5.9028 1.7592 -3.1577 0.9727
5.7227 2.2776 -3.1577 0.9727
5.2283 3.2562 -3.1577 0.9727
4.5681 4.1316 -3.1577 0.9727
4.1822 4.5218 -3.1577 0.9727
2.8390 5.4660 -3.1577 0.9727
1.8249 5.8828 -3.1577 0.9727
0.7529 6.1132 -3.1577 0.9727
-0.3429 6.1498 -3.1577 0.9727
-0.8889 6.0949 -3.1577 0.9727
-1.9555 5.8407 -3.1577 0.9727
-2.4676 5.6435 -3.1577 0.9727
-2.9601 5.4015 -3.1577 0.9727
-3.4291 5.1166 -3.1577 0.9727
-3.8709 4.7910 -3.1577 0.9727
-4.9991 3.5981 -3.1577 0.9727
-5.2995 3.1389 -3.1577 0.9727
-5.9405 1.6273 -3.1577 0.9727
-5.0893 -3.0144 -3.1577 0.9735
-4.8008 -3.4554 -3.1577 0.9735
-4.4742 -3.8690 -3.1577 0.9735
-3.7173 -4.6010 -3.1577 0.9735
-3.2931 -4.9136 -3.1577 0.9735
-2.8427 -5.1872 -3.1577 0.9735
-1.8779 -5.6090 -3.1577 0.9735
-0.3293 -5.9059 -3.1577 0.9735
0.1976 -5.9117 -3.1577 0.9735
1.2427 -5.7830 -3.1577 0.9735
2.7264 -5.2492 -3.1577 0.9735
3.6139 -4.6826 -3.1577 0.9735
4.0163 -4.3424 -3.1577 0.9735
4.3869 -3.9677 -3.1577 0.9735
4.7207 -3.5600 -3.1564 0.9735
5.2453 -2.6505 -3.1374 0.9737
5.7534 -1.1696 -3.1343 0.9737
5.8812 -0.1310 -3.1404 0.9737
5.7383 1.4352 -3.1577 0.9735
5.5877 1.9403 -3.1577 0.9735
5.3929 2.4299 -3.1577 0.9735
5.1552 2.9003 -3.1577 0.9735
4.8766 3.3476 -3.1577 0.9735
4.2058 4.1592 -3.1577 0.9735
2.9575 5.1226 -3.1577 0.9735
2.4898 5.3655 -3.1577 0.9735
0.9838 5.8326 -3.1577 0.9735
0.4608 5.8971 -3.1577 0.9735
-1.6262 5.6871 -3.1577 0.9735
-2.6088 5.3087 -3.1577 0.9735
-3.0709 5.0554 -3.1577 0.9735
-3.9186 4.4308 -3.1577 0.9735
-4.6421 3.6658 -3.1577 0.9735
-5.4456 2.3092 -3.1577 0.9735
-5.9092 0.2635 -3.1577 0.9735
-5.8623 -0.7884 -3.1577 0.9735
-5.6296 -1.8153 -3.1577 0.9735
-5.2186 -2.7847 -3.1577 0.9735
-4.9500 -3.2381 -3.1577 0.9735
-4.2974 -4.0644 -3.1577 0.9735
-3.9186 -4.4308 -3.1577 0.9735
-3.0709 -5.0554 -3.1577 0.9735
-1.6262 -5.6871 -3.1577 0.9735
0.4608 -5.8971 -3.1577 0.9735
0.9838 -5.8326 -3.1577 0.9735
2.4898 -5.3655 -3.1577 0.9735
3.8189 -4.5170 -3.1577 0.9735
4.2058 -4.1592 -3.1577 0.9735
4.5593 -3.7683 -3.1577 0.9735
4.8691 -3.3425 -3.1528 0.9736
5.1290 -2.8856 -3.1417 0.9737
5.3542 -2.4125 -3.1351 0.9737
5.5444 -1.9252 -3.1332 0.9737
5.8896 0.1313 -3.1449 0.9736
5.7965 1.1782 -3.1577 0.9735
5.4958 2.1873 -3.1577 0.9735
5.0209 3.1271 -3.1577 0.9735
4.7226 3.5615 -3.1577 0.9735
4.0163 4.3424 -3.1577 0.9735
3.6139 4.6827 -3.1577 0.9735
2.7264 5.2493 -3.1577 0.9735
2.2483 5.4711 -3.1577 0.9735
1.7525 5.6495 -3.1577 0.9735
1.2427 5.7831 -3.1577 0.9735
0.7230 5.8707 -3.1577 0.9735
-1.3712 5.7539 -3.1577 0.9735
-1.8779 5.6090 -3.1577 0.9735
-2.3697 5.4196 -3.1577 0.9735
-3.2931 4.9136 -3.1577 0.9735
-3.7173 4.6010 -3.1577 0.9735
-4.1121 4.2519 -3.1577 0.9735
-5.3374 2.5495 -3.1577 0.9735
-5.5432 2.0643 -3.1577 0.9735
-5.8916 0.5265 -3.1577 0.9735
-5.3281 -1.9842 -3.1577 0.9743
-5.1303 -2.4505 -3.1577 0.9743
-4.8918 -2.8974 -3.1577 0.9743
-3.9525 -4.0869 -3.1577 0.9743
-3.5731 -4.4224 -3.1577 0.9743
-2.7324 -4.9859 -3.1577 0.9743
-1.8050 -5.3914 -3.1577 0.9743
-1.3180 -5.5306 -3.1577 0.9743
-0.8205 -5.6260 -3.1577 0.9743
-0.3166 -5.6767 -3.1577 0.9743
0.1900 -5.6823 -3.1577 0.9743
1.1945 -5.5586 -3.1577 0.9743
2.1611 -5.2587 -3.1577 0.9743
2.6206 -5.0455 -3.1577 0.9743
3.0593 -4.7923 -3.1577 0.9743
3.4736 -4.5009 -3.1577 0.9743
3.8605 -4.1739 -3.1577 0.9743
4.2167 -3.8137 -3.1577 0.9743
5.0674 -2.5606 -3.1534 0.9744
5.2660 -2.0958 -3.1478 0.9744
5.5500 -1.1280 -3.1455 0.9744
5.6354 -0.6304 -3.1494 0.9744
5.6795 -0.1265 -3.1551 0.9743
5.6728 0.3798 -3.1577 0.9743
5.5156 1.3796 -3.1577 0.9743
5.1836 2.3356 -3.1577 0.9743
4.9551 2.7877 -3.1577 0.9743
4.6874 3.2177 -3.1577 0.9743
4.0426 3.9978 -3.1577 0.9743
3.6707 4.3418 -3.1577 0.9743
3.2697 4.6512 -3.1577 0.9743
2.3932 5.1573 -3.1577 0.9743
1.9247 5.3498 -3.1577 0.9743
0.9456 5.6063 -3.1577 0.9743
0.4429 5.6683 -3.1577 0.9743
-0.0633 5.6852 -3.1577 0.9743
-2.9518 4.8593 -3.1577 0.9743
-3.3725 4.5772 -3.1577 0.9743
-4.1307 3.9068 -3.1577 0.9743
-5.0160 2.6767 -3.1577 0.9743
-5.4112 1.7449 -3.1577 0.9743
-5.5450 1.2563 -3.1577 0.9743
-5.6348 0.7578 -3.1577 0.9743
-5.6799 0.2533 -3.1577 0.9743
-5.6799 -0.2533 -3.1577 0.9743
-5.6348 -0.7578 -3.1577 0.9743
-5.4112 -1.7449 -3.1577 0.9743
-5.2344 -2.2195 -3.1577 0.9743
-5.0160 -2.6766 -3.1577 0.9743
-4.4620 -3.5236 -3.1577 0.9743
-4.1307 -3.9067 -3.1577 0.9743
-3.3725 -4.5772 -3.1577 0.9743
-2.9517 -4.8592 -3.1577 0.9743
-2.5075 -5.1027 -3.1577 0.9743
-2.0434 -5.3056 -3.1577 0.9743
-1.0703 -5.5838 -3.1577 0.9743
0.9456 -5.6063 -3.1577 0.9743
1.4409 -5.4999 -3.1577 0.9743
2.3932 -5.1573 -3.1577 0.9743
3.2697 -4.6512 -3.1577 0.9743
4.0426 -3.9978 -3.1577 0.9743
4.3824 -3.6221 -3.1577 0.9743
4.6874 -3.2177 -3.1577 0.9743
4.9517 -2.7858 -3.1555 0.9743
5.3509 -1.8580 -3.1460 0.9744
5.5975 -0.8802 -3.1470 0.9744
5.6638 -0.3791 -3.1527 0.9744
5.6503 0.6321 -3.1577 0.9743
5.5716 1.1325 -3.1577 0.9743
4.8260 3.0057 -3.1577 0.9743
4.5394 3.4233 -3.1577 0.9743
4.2167 3.8138 -3.1577 0.9743
3.8605 4.1739 -3.1577 0.9743
3.4737 4.5010 -3.1577 0.9743
2.6206 5.0456 -3.1577 0.9743
2.1611 5.2588 -3.1577 0.9743
1.6845 5.4303 -3.1577 0.9743
1.1945 5.5586 -3.1577 0.9743
0.6950 5.6429 -3.1577 0.9743
0.1900 5.6824 -3.1577 0.9743
-1.3180 5.5306 -3.1577 0.9743
-1.8050 5.3914 -3.1577 0.9743
-2.2778 5.2093 -3.1577 0.9743
-2.7324 4.9859 -3.1577 0.9743
-3.1653 4.7229 -3.1577 0.9743
-3.9525 4.0869 -3.1577 0.9743
-4.3006 3.7189 -3.1577 0.9743
-5.1303 2.4505 -3.1577 0.9743
-5.4835 1.5021 -3.1577 0.9743
-5.4693 0.0000 -3.1577 0.9751
-5.4476 -0.4868 -3.1577 0.9751
-5.3827 -0.9697 -3.1577 0.9751
-5.2750 -1.4450 -3.1577 0.9751
-4.9352 -2.3573 -3.1577 0.9751
-4.7058 -2.7872 -3.1577 0.9751
-3.4372 -4.2543 -3.1577 0.9751
-3.0449 -4.5433 -3.1577 0.9751
-2.6285 -4.7963 -3.1577 0.9751
-2.1911 -5.0112 -3.1577 0.9751
-1.7364 -5.1863 -3.1577 0.9751
-0.3045 -5.4608 -3.1577 0.9751
0.6685 -5.4283 -3.1577 0.9751
1.6204 -5.2237 -3.1577 0.9751
2.9429 -4.6100 -3.1577 0.9751
3.3416 -4.3298 -3.1577 0.9751
3.7137 -4.0152 -3.1577 0.9751
4.3668 -3.2931 -3.1577 0.9751
4.6425 -2.8914 -3.1577 0.9751
4.8815 -2.4667 -3.1577 0.9751
5.2406 -1.5618 -3.1572 0.9751
5.4679 -0.1218 -3.1577 0.9751
5.4571 0.3653 -3.1577 0.9751
5.4029 0.8496 -3.1577 0.9751
5.1667 1.7941 -3.1577 0.9751
4.9865 2.2468 -3.1577 0.9751
4.7667 2.6817 -3.1577 0.9751
4.5091 3.0954 -3.1577 0.9751
4.2157 3.4844 -3.1577 0.9751
3.8888 3.8458 -3.1577 0.9751
3.5311 4.1767 -3.1577 0.9751
0.9097 5.3931 -3.1577 0.9751
-0.0609 5.4690 -3.1577 0.9751
-0.5475 5.4419 -3.1577 0.9751
-1.9657 5.1039 -3.1577 0.9751
-2.4122 4.9087 -3.1577 0.9751
-3.2443 4.4032 -3.1577 0.9751
-3.6233 4.0970 -3.1577 0.9751
-4.2923 3.3896 -3.1577 0.9751
-5.2054 1.6785 -3.1577 0.9751
-5.3341 1.2086 -3.1577 0.9751
-5.4205 0.7290 -3.1577 0.9751
-5.3341 -1.2085 -3.1577 0.9751
-5.2054 -1.6785 -3.1577 0.9751
-5.0353 -2.1351 -3.1577 0.9751
-4.5770 -2.9941 -3.1577 0.9751
-4.2923 -3.3896 -3.1577 0.9751
-3.6233 -4.0969 -3.1577 0.9751
-3.2443 -4.4032 -3.1577 0.9751
-2.4122 -4.9086 -3.1577 0.9751
-1.9657 -5.1038 -3.1577 0.9751
-1.5037 -5.2585 -3.1577 0.9751
0.4261 -5.4527 -3.1577 0.9751
0.9097 -5.3931 -3.1577 0.9751
2.7346 -4.7366 -3.1577 0.9751
3.1454 -4.4743 -3.1577 0.9751
4.2157 -3.4844 -3.1577 0.9751
4.7667 -2.6817 -3.1577 0.9751
5.1665 -1.7940 -3.1576 0.9751
5.3049 -1.3268 -3.1571 0.9751
5.4029 -0.8496 -3.1577 0.9751
5.4679 0.1219 -3.1577 0.9751
5.2415 1.5621 -3.1577 0.9751
5.0816 2.0225 -3.1577 0.9751
4.8815 2.4667 -3.1577 0.9751
4.6425 2.8914 -3.1577 0.9751
4.3667 3.2931 -3.1577 0.9751
4.0563 3.6687 -3.1577 0.9751
3.7137 4.0152 -3.1577 0.9751
2.0789 5.0588 -3.1577 0.9751
1.6204 5.2238 -3.1577 0.9751
1.1490 5.3473 -3.1577 0.9751
0.1827 5.4663 -3.1577 0.9751
-0.3045 5.4608 -3.1577 0.9751
-0.7893 5.4121 -3.1577 0.9751
-1.7364 5.1864 -3.1577 0.9751
-3.4372 4.2543 -3.1577 0.9751
-4.9352 2.3574 -3.1577 0.9751
