ply
format ascii 1.0
element vertex 1646
property float32 x
property float32 y
property float32 z
property float32 I
end_header
-4.5618 -11.8445 6.7759 0.9441
-0.9854 -6.7562 3.5003 0.9698
5.6215 9.7366 5.5299 0.9511
2.5518 9.7403 4.9525 0.9561
-1.0596 -7.2654 3.4610 0.9681
6.8083 9.6849 5.5804 0.9490
-1.1660 -7.9948 3.3269 0.9657
-1.2013 -8.2366 3.2668 0.9649
-1.2382 -8.4900 3.2038 0.9640
5.5936 9.6885 3.5529 0.9541
4.4948 9.6861 3.1968 0.9564
3.4850 9.6866 3.0819 0.9579
3.9681 9.6558 3.1253 0.9573
8.2181 9.7204 3.5813 0.9485
9.8504 9.7413 3.6504 0.9443
2.5454 9.7155 2.6464 0.9593
2.0700 9.6328 2.5962 0.9601
8.8831 4.0025 1.2210 0.9615
9.3335 3.2409 1.0717 0.9610
8.5680 3.8606 1.0193 0.9629
8.5778 3.4139 0.8464 0.9636
8.2829 4.6599 0.7122 0.9626
9.6577 2.8783 0.7552 0.9604
8.1501 3.6722 0.5206 0.9648
8.0680 4.0770 0.5265 0.9644
8.0755 3.6387 0.3683 0.9652
8.0169 4.5102 0.3825 0.9638
9.0774 2.7054 0.3938 0.9628
8.1953 3.2616 0.2200 0.9653
7.9266 4.0055 0.2215 0.9651
7.8897 4.4387 0.0752 0.9644
7.8838 3.9838 0.0734 0.9653
8.3943 2.9148 -0.0739 0.9651
7.9408 3.5780 -0.0724 0.9658
7.8482 4.4153 -0.0748 0.9646
8.8230 2.6295 -0.0765 0.9638
8.1017 3.2244 -0.2175 0.9657
7.8335 3.9584 -0.2189 0.9655
9.8781 2.4707 -0.4234 0.9601
7.9148 3.5662 -0.3610 0.9658
8.7823 2.6174 -0.3810 0.9640
8.0885 3.2191 -0.3620 0.9657
7.8198 3.9515 -0.3643 0.9655
7.9235 3.5702 -0.5062 0.9658
7.8302 4.4052 -0.5233 0.9646
8.0975 3.2227 -0.5076 0.9657
7.9367 3.5761 -0.6524 0.9657
7.8460 4.4141 -0.6746 0.9645
7.8435 3.9635 -0.6586 0.9654
8.0494 5.0132 -0.7106 0.9627
7.9639 3.5884 -0.8008 0.9655
7.8843 4.4357 -0.8294 0.9643
8.8777 2.6458 -0.8493 0.9635
8.4801 2.9446 -0.9737 0.9645
8.0060 3.6073 -0.9525 0.9653
8.9544 2.6687 -1.0135 0.9631
7.9179 4.0011 -0.9623 0.9649
8.0603 3.6318 -1.1079 0.9650
8.0165 4.5100 -1.1527 0.9636
7.9779 4.0314 -1.1202 0.9646
8.1395 3.6675 -1.2698 0.9646
8.1337 4.5759 -1.3274 0.9630
8.0617 4.0737 -1.2847 0.9642
8.8014 3.0562 -1.4836 0.9630
8.2442 3.7147 -1.4399 0.9640
8.3214 4.6816 -1.5204 0.9621
8.1781 4.1326 -1.4591 0.9636
8.3800 3.7758 -1.6207 0.9634
-11.0734 -9.5755 -2.8330 0.9421
-10.1857 -10.5319 -2.8353 0.9421
-8.1627 -12.1795 -2.8373 0.9420
-5.8352 -13.3453 -2.8186 0.9424
-4.6124 -13.7763 -2.8114 0.9425
-3.3610 -14.1033 -2.8057 0.9426
-0.8032 -14.4045 -2.7919 0.9429
0.4810 -14.3858 -2.7855 0.9430
8.6097 3.8794 -1.8275 0.9623
-2.7592 14.3943 -2.8363 0.9420
-6.4651 13.1561 -2.8367 0.9420
-9.7138 10.9835 -2.8375 0.9420
-10.6540 10.0765 -2.8378 0.9420
-9.7104 -10.9797 -2.8365 0.9420
-8.7001 -11.8078 -2.8383 0.9420
-7.5981 -12.5081 -2.8321 0.9421
-6.4333 -13.0913 -2.8228 0.9423
-1.4461 -14.3740 -2.7957 0.9428
-0.1605 -14.4083 -2.7884 0.9430
2.3887 -14.1613 -2.7792 0.9432
8.8418 3.5189 -1.8416 0.9620
8.6704 4.3813 -1.8799 0.9612
1.7895 14.5295 -2.8330 0.9421
-3.3977 14.2574 -2.8363 0.9420
-4.6534 13.8991 -2.8365 0.9420
-5.8724 13.4305 -2.8366 0.9420
-7.0450 12.8555 -2.8368 0.9420
-11.9029 8.5672 -2.8380 0.9420
-12.6049 7.4659 -2.8350 0.9421
-14.1608 0.0000 -2.9854 0.9438
-13.2705 -4.9419 -2.9854 0.9438
-11.4933 -8.2723 -2.9854 0.9438
-10.7114 -9.2625 -2.9854 0.9438
-6.4702 -11.8065 -2.8383 0.9465
-5.3837 -12.3129 -2.8331 0.9465
-1.9264 -13.2080 -2.8140 0.9469
-0.7412 -13.2916 -2.8065 0.9470
1.6227 -13.1758 -2.7987 0.9472
2.9254 -13.6136 -2.9355 0.9447
6.4062 -12.3341 -2.9301 0.9448
8.5027 -11.0172 -2.9339 0.9447
9.4567 -10.2245 -2.9361 0.9447
11.8530 -7.3821 -2.9439 0.9445
12.9997 -5.1737 -2.9497 0.9444
13.4176 -3.9989 -2.9516 0.9444
14.0314 -0.3127 -2.9588 0.9442
13.8912 2.1843 -2.9645 0.9441
13.6553 3.4154 -2.9675 0.9441
10.0620 9.9506 -2.9834 0.9438
9.1426 10.8139 -2.9854 0.9438
8.1438 11.5847 -2.9854 0.9438
7.0804 12.2636 -2.9854 0.9438
-0.1499 13.4549 -2.8367 0.9465
-2.5331 13.2149 -2.8367 0.9465
-3.6994 12.9375 -2.8368 0.9465
-4.8364 12.5575 -2.8369 0.9465
-5.9353 12.0779 -2.8371 0.9465
-7.9839 10.8359 -2.8375 0.9465
-8.9175 10.0832 -2.8378 0.9465
-10.5629 8.3415 -2.8375 0.9465
-12.1758 6.4972 -2.9095 0.9451
-13.0371 5.5282 -2.9854 0.9438
-13.8108 3.1291 -2.9854 0.9438
-14.0344 1.8875 -2.9854 0.9438
-14.1467 0.6308 -2.9854 0.9438
-14.1467 -0.6308 -2.9854 0.9438
-14.0344 -1.8875 -2.9854 0.9438
-13.4774 -4.3459 -2.9854 0.9438
-13.0371 -5.5282 -2.9854 0.9438
-12.4934 -6.6666 -2.9854 0.9438
-11.8504 -7.7521 -2.9854 0.9438
-11.1134 -8.7761 -2.9854 0.9438
-7.9796 -10.8300 -2.8360 0.9465
-5.9349 -12.0772 -2.8369 0.9465
-3.6821 -12.8771 -2.8236 0.9467
-2.5166 -13.1286 -2.8182 0.9468
-1.3342 -13.2626 -2.8101 0.9470
1.0368 -13.2685 -2.8058 0.9470
2.2048 -13.0712 -2.7946 0.9473
3.5179 -13.4278 -2.9264 0.9448
4.7007 -13.0657 -2.9274 0.9448
5.8487 -12.6037 -2.9293 0.9448
9.9068 -9.7970 -2.9373 0.9446
10.7486 -8.8839 -2.9398 0.9446
11.5070 -7.8991 -2.9425 0.9445
12.1760 -6.8501 -2.9453 0.9445
12.7499 -5.7448 -2.9482 0.9444
13.5855 -3.3980 -2.9523 0.9444
13.8443 -2.1769 -2.9545 0.9443
13.9967 -0.9370 -2.9574 0.9443
14.0382 0.3128 -2.9603 0.9442
13.9681 1.5626 -2.9631 0.9442
13.7869 2.8023 -2.9660 0.9441
13.4963 4.0223 -2.9690 0.9441
11.9878 7.4661 -2.9773 0.9439
11.2853 8.5107 -2.9799 0.9439
9.6122 10.3926 -2.9844 0.9438
4.1955 13.5250 -2.9854 0.9438
0.4490 13.4304 -2.8330 0.9465
-0.7491 13.4348 -2.8367 0.9465
-4.2721 12.7601 -2.8368 0.9465
-5.3912 12.3299 -2.8370 0.9465
-6.4676 11.8019 -2.8372 0.9465
-7.4930 11.1803 -2.8374 0.9465
-8.4591 10.4699 -2.8377 0.9465
-10.9190 7.8590 -2.8362 0.9465
-11.5640 6.8494 -2.8335 0.9465
-12.7779 6.1035 -2.9854 0.9438
-13.9364 2.5108 -2.9854 0.9438
-13.0279 -1.1641 -2.9854 0.9477
-12.2574 -4.5647 -2.9854 0.9478
-11.8025 -5.6375 -2.9854 0.9477
-9.8937 -8.5554 -2.9854 0.9477
-6.9141 -10.3164 -2.8346 0.9503
-4.9802 -11.3899 -2.8373 0.9503
-3.9480 -11.7921 -2.8383 0.9503
-2.8787 -12.0795 -2.8343 0.9503
0.4153 -12.4207 -2.8365 0.9503
1.5177 -12.3226 -2.8338 0.9503
2.7193 -12.6547 -2.9543 0.9483
3.8024 -12.2576 -2.9292 0.9487
4.8798 -11.8744 -2.9302 0.9487
5.9199 -11.3979 -2.9315 0.9487
8.7400 -9.4495 -2.9379 0.9486
10.2928 -7.7622 -2.9424 0.9485
10.9505 -6.8201 -2.9445 0.9484
12.3893 -3.6924 -2.9507 0.9483
12.6800 -2.5773 -2.9533 0.9483
12.8707 -1.4398 -2.9560 0.9483
12.9594 -0.2888 -2.9586 0.9482
12.8288 2.0173 -2.9641 0.9481
12.6101 3.1540 -2.9668 0.9481
11.8724 5.3495 -2.9722 0.9480
10.0616 8.3162 -2.9794 0.9479
8.4391 9.9819 -2.9834 0.9478
6.5399 11.3274 -2.9854 0.9477
2.0645 12.2392 -2.8330 0.9503
0.9669 12.3744 -2.8330 0.9503
-0.1385 12.4301 -2.8373 0.9503
-3.4174 11.9513 -2.8371 0.9503
-4.4677 11.6002 -2.8372 0.9503
-7.3752 10.0097 -2.8378 0.9503
-8.2375 9.3143 -2.8381 0.9503
-9.7509 7.7002 -2.8358 0.9503
-11.5396 6.1577 -2.9854 0.9477
-12.0419 5.1062 -2.9854 0.9477
-12.4486 4.0142 -2.9854 0.9477
-13.0668 0.5827 -2.9854 0.9477
-13.0668 -0.5826 -2.9854 0.9477
-12.4486 -4.0141 -2.9854 0.9477
-12.0419 -5.1062 -2.9854 0.9477
-10.9458 -7.1604 -2.9854 0.9477
-9.5028 -8.9876 -2.9854 0.9477
-8.4076 -9.5066 -2.8966 0.9493
-5.4814 -11.1544 -2.8367 0.9503
-4.4687 -11.6026 -2.8378 0.9503
-3.4168 -11.9493 -2.8367 0.9503
-1.2447 -12.3730 -2.8383 0.9503
-0.1385 -12.4325 -2.8378 0.9503
0.9677 -12.3840 -2.8352 0.9503
2.0922 -12.4034 -2.8710 0.9497
3.2616 -12.4495 -2.9374 0.9486
4.3453 -12.0779 -2.9297 0.9487
5.4050 -11.6476 -2.9308 0.9487
6.4234 -11.1257 -2.9322 0.9487
8.3073 -9.8259 -2.9368 0.9486
9.9330 -8.2098 -2.9413 0.9485
11.2472 -6.3276 -2.9455 0.9484
12.5470 -3.1382 -2.9520 0.9483
12.9278 -0.8654 -2.9573 0.9482
12.9652 0.2889 -2.9599 0.9482
12.7322 2.5879 -2.9655 0.9481
11.6273 5.8756 -2.9735 0.9480
7.0380 11.0248 -2.9854 0.9477
4.9717 12.0980 -2.9854 0.9477
3.8752 12.4925 -2.9854 0.9477
0.4147 12.4051 -2.8330 0.9503
-0.6921 12.4110 -2.8371 0.9503
-5.9745 10.9021 -2.8375 0.9503
-6.9217 10.3279 -2.8377 0.9503
-9.4020 8.1303 -2.8370 0.9503
-10.0799 7.2551 -2.8346 0.9503
-10.9251 6.4710 -2.8982 0.9492
-11.8025 5.6376 -2.9854 0.9477
-12.2574 4.5647 -2.9854 0.9477
-12.8725 2.3191 -2.9854 0.9477
-12.1455 0.0000 -2.9854 0.9512
-12.0974 -1.0810 -2.9854 0.9512
-11.9531 -2.1534 -2.9854 0.9512
-11.7140 -3.2088 -2.9854 0.9512
-10.4500 -6.1896 -2.9854 0.9512
-9.1871 -7.9443 -2.9854 0.9512
-7.6329 -9.4473 -2.9854 0.9512
-6.4175 -9.5755 -2.8333 0.9536
-5.5408 -10.1107 -2.8339 0.9536
-3.6631 -10.9411 -2.8360 0.9536
-1.6658 -11.4219 -2.8372 0.9536
-0.6425 -11.5235 -2.8369 0.9536
0.3854 -11.5282 -2.8352 0.9536
2.5482 -11.8585 -2.9814 0.9513
7.2984 -9.4569 -2.9363 0.9520
8.1161 -8.7750 -2.9380 0.9520
8.8706 -8.0230 -2.9399 0.9519
11.1460 -4.4360 -2.9487 0.9518
11.5059 -3.4291 -2.9511 0.9517
11.7752 -2.3934 -2.9535 0.9517
11.9514 -1.3369 -2.9560 0.9517
12.0200 0.8047 -2.9611 0.9516
11.9111 1.8729 -2.9637 0.9515
11.7072 2.9282 -2.9663 0.9515
11.4098 3.9619 -2.9688 0.9515
10.5435 5.9317 -2.9736 0.9514
9.3384 7.7184 -2.9779 0.9513
6.9849 9.9361 -2.9854 0.9512
5.1125 11.0171 -2.9854 0.9512
3.0781 11.7490 -2.9854 0.9512
1.9170 11.3650 -2.8330 0.9536
0.8979 11.4905 -2.8330 0.9536
-1.1554 11.4853 -2.8373 0.9536
-2.1731 11.3368 -2.8373 0.9536
-3.1736 11.0988 -2.8374 0.9536
-4.1490 10.7727 -2.8375 0.9536
-5.0917 10.3612 -2.8377 0.9536
-5.9940 9.8675 -2.8378 0.9536
-6.8490 9.2955 -2.8381 0.9536
-7.6498 8.6497 -2.8383 0.9535
-8.3841 7.9296 -2.8365 0.9536
-9.0498 7.1466 -2.8344 0.9536
-11.5594 3.7275 -2.9854 0.9512
-11.8453 2.6838 -2.9854 0.9512
-12.1335 -0.5410 -2.9854 0.9512
-11.1818 -4.7415 -2.9854 0.9512
-10.7154 -5.7179 -2.9854 0.9512
-7.0256 -9.5352 -2.9112 0.9524
-5.9843 -9.8516 -2.8333 0.9536
-2.1729 -11.3355 -2.8370 0.9536
-1.1554 -11.4849 -2.8372 0.9536
-0.1286 -11.5378 -2.8362 0.9536
0.8982 -11.4951 -2.8341 0.9536
5.9681 -10.3371 -2.9339 0.9520
6.8680 -9.7699 -2.9354 0.9520
7.7147 -9.1250 -2.9371 0.9520
8.5016 -8.4074 -2.9390 0.9519
9.2223 -7.6225 -2.9409 0.9519
10.4430 -5.8751 -2.9452 0.9518
10.9329 -4.9261 -2.9475 0.9518
11.6520 -2.9144 -2.9523 0.9517
12.0041 -0.8036 -2.9572 0.9517
12.0385 0.2683 -2.9598 0.9516
11.9775 1.3399 -2.9624 0.9516
11.8210 2.4027 -2.9650 0.9515
11.5701 3.4483 -2.9675 0.9515
11.2266 4.4681 -2.9700 0.9514
10.7931 5.4540 -2.9724 0.9514
6.5353 10.2374 -2.9854 0.9512
5.5982 10.7784 -2.9854 0.9512
2.5517 11.8745 -2.9854 0.9512
0.3851 11.5191 -2.8330 0.9536
-0.6427 11.5256 -2.8374 0.9536
-1.6659 11.4223 -2.8373 0.9536
-3.6650 10.9466 -2.8375 0.9536
-5.5483 10.1244 -2.8378 0.9536
-6.4279 9.5910 -2.8379 0.9536
-8.0254 8.2982 -2.8375 0.9536
-10.4500 6.1896 -2.9854 0.9512
-10.9595 5.2349 -2.9854 0.9512
-11.3819 4.2387 -2.9854 0.9512
-11.7140 3.2088 -2.9854 0.9512
-12.0973 1.0810 -2.9854 0.9512
-11.2847 -1.0084 -2.9854 0.9542
-11.1502 -2.0088 -2.9854 0.9542
-10.9271 -2.9932 -2.9854 0.9542
-10.6174 -3.9539 -2.9854 0.9542
-10.2233 -4.8832 -2.9854 0.9542
-9.7481 -5.7738 -2.9854 0.9542
-9.1955 -6.6185 -2.9854 0.9542
-7.8763 -8.1440 -2.9854 0.9542
-7.1203 -8.8127 -2.9854 0.9542
-6.3076 -9.4115 -2.9854 0.9542
-5.2507 -9.5813 -2.8789 0.9558
-4.3075 -9.8515 -2.8332 0.9565
-1.5528 -10.6468 -2.8351 0.9565
-0.5990 -10.7420 -2.8349 0.9565
1.3661 -11.0922 -2.9449 0.9548
3.3168 -10.6924 -2.9499 0.9547
5.9960 -9.3925 -2.9362 0.9550
6.8114 -8.8257 -2.9376 0.9549
7.5740 -8.1889 -2.9392 0.9549
8.2778 -7.4868 -2.9410 0.9549
8.9171 -6.7247 -2.9429 0.9549
9.4867 -5.9083 -2.9449 0.9548
9.9820 -5.0441 -2.9470 0.9548
10.7342 -3.1991 -2.9514 0.9547
10.9849 -2.2328 -2.9537 0.9547
10.9190 2.7310 -2.9658 0.9545
10.2778 4.6310 -2.9704 0.9544
6.5156 9.2687 -2.9854 0.9542
5.6648 9.8118 -2.9854 0.9542
4.7690 10.2771 -2.9854 0.9542
2.8713 10.9598 -2.9854 0.9542
0.8384 10.7296 -2.8359 0.9565
-1.0779 10.7150 -2.8376 0.9564
-2.0273 10.5763 -2.8376 0.9564
-4.7500 9.6660 -2.8379 0.9564
-6.3894 8.6717 -2.8383 0.9564
-7.8171 7.3934 -2.8351 0.9565
-8.4382 6.6636 -2.8332 0.9565
-10.4307 4.4230 -2.9854 0.9542
-10.7829 3.4771 -2.9854 0.9542
-11.0496 2.5035 -2.9854 0.9542
-11.2286 1.5101 -2.9854 0.9542
-11.3184 0.5047 -2.9854 0.9542
-11.3184 -0.5047 -2.9854 0.9542
-11.2286 -1.5101 -2.9854 0.9542
-11.0496 -2.5035 -2.9854 0.9542
-10.4307 -4.4230 -2.9854 0.9542
-9.4812 -6.2023 -2.9854 0.9542
-7.5057 -8.4868 -2.9854 0.9542
-6.7205 -9.1212 -2.9854 0.9542
-5.8050 -9.5563 -2.9463 0.9548
-3.8650 -10.0352 -2.8336 0.9565
-2.0254 -10.5664 -2.8349 0.9565
-0.1198 -10.7561 -2.8344 0.9565
1.8844 -11.1718 -2.9854 0.9542
3.7775 -10.4997 -2.9403 0.9549
5.5704 -9.6483 -2.9356 0.9550
7.1996 -8.5157 -2.9384 0.9549
7.9336 -7.8457 -2.9401 0.9549
8.6058 -7.1129 -2.9419 0.9549
9.7439 -5.4818 -2.9460 0.9548
10.2005 -4.5961 -2.9481 0.9548
10.8703 -2.7188 -2.9526 0.9547
11.1982 -0.7496 -2.9573 0.9546
11.1720 1.2498 -2.9622 0.9546
11.0254 2.2410 -2.9646 0.9545
10.4699 4.1669 -2.9693 0.9545
9.5793 5.9660 -2.9737 0.9544
8.3807 7.5799 -2.9776 0.9543
6.9221 8.9692 -2.9854 0.9542
4.3065 10.4793 -2.9854 0.9542
2.3802 11.0768 -2.9854 0.9542
1.3150 10.6768 -2.8346 0.9565
0.3598 10.7611 -2.8371 0.9564
-0.5996 10.7527 -2.8377 0.9564
-1.5542 10.6561 -2.8376 0.9564
-4.3146 9.8677 -2.8378 0.9564
-5.9965 8.9475 -2.8382 0.9564
-7.4825 7.7368 -2.8361 0.9565
-8.1359 7.0354 -2.8342 0.9565
-8.9276 6.4257 -2.8984 0.9555
-9.7481 5.7738 -2.9854 0.9542
-10.6173 3.9540 -2.9854 0.9542
-11.2847 1.0084 -2.9854 0.9542
-10.5685 -0.9444 -2.9854 0.9569
-9.5745 -4.5733 -2.9854 0.9569
-9.1294 -5.4073 -2.9854 0.9569
-8.6119 -6.1984 -2.9854 0.9569
-8.0260 -6.9404 -2.9854 0.9569
-7.3765 -7.6271 -2.9854 0.9569
-6.6683 -8.2534 -2.9854 0.9569
-5.9073 -8.8142 -2.9854 0.9569
-5.0993 -9.3050 -2.9854 0.9569
-3.2245 -9.6311 -2.8576 0.9587
-2.3342 -9.7947 -2.8330 0.9590
-1.4533 -9.9647 -2.8333 0.9590
-0.5606 -10.0539 -2.8331 0.9590
1.2970 -10.5310 -2.9854 0.9569
2.2292 -10.3738 -2.9854 0.9569
3.1343 -10.1041 -2.9765 0.9570
3.9744 -9.6712 -2.9419 0.9575
4.8107 -9.2623 -2.9365 0.9576
7.7552 -7.0142 -2.9420 0.9575
8.8868 -5.5348 -2.9457 0.9574
10.2889 -2.0913 -2.9541 0.9573
10.4037 1.6359 -2.9631 0.9572
10.2246 2.5574 -2.9654 0.9572
9.2054 5.1789 -2.9717 0.9571
8.1517 6.7375 -2.9755 0.9570
7.5445 7.4610 -2.9854 0.9569
2.6891 10.2642 -2.9854 0.9569
1.6750 9.9301 -2.8334 0.9590
0.7852 10.0482 -2.8357 0.9590
-0.1124 10.0865 -2.8381 0.9590
-1.0096 10.0359 -2.8379 0.9590
-1.8988 9.9059 -2.8378 0.9590
-2.7730 9.6978 -2.8379 0.9590
-3.6253 9.4128 -2.8380 0.9590
-5.2373 8.6218 -2.8383 0.9589
-6.6768 7.5496 -2.8356 0.9590
-8.1114 6.4055 -2.9080 0.9580
-8.8795 5.8087 -2.9854 0.9569
-9.3612 4.9953 -2.9854 0.9569
-9.7687 4.1423 -2.9854 0.9569
-10.0986 3.2564 -2.9854 0.9569
-10.3484 2.3446 -2.9854 0.9569
-10.5160 1.4143 -2.9854 0.9569
-10.6001 0.4727 -2.9854 0.9569
-10.5160 -1.4142 -2.9854 0.9569
-10.3484 -2.3446 -2.9854 0.9569
-10.0986 -3.2564 -2.9854 0.9569
-9.3612 -4.9953 -2.9854 0.9569
-8.8795 -5.8087 -2.9854 0.9569
-8.3272 -6.5759 -2.9854 0.9569
-7.7089 -7.2910 -2.9854 0.9569
-6.2940 -8.5423 -2.9854 0.9569
-5.5088 -9.0686 -2.9854 0.9569
-2.7682 -9.6810 -2.8330 0.9590
-1.0080 -10.0196 -2.8333 0.9590
0.8221 -10.5203 -2.9690 0.9571
1.7649 -10.4628 -2.9854 0.9569
2.6891 -10.2642 -2.9854 0.9569
3.5490 -9.8647 -2.9497 0.9574
4.3926 -9.4658 -2.9360 0.9576
5.2195 -9.0405 -2.9371 0.9575
6.0059 -8.5435 -2.9383 0.9575
6.7457 -7.9788 -2.9397 0.9575
8.0623 -6.6637 -2.9429 0.9575
9.5550 -4.3053 -2.9487 0.9574
9.9073 -3.4402 -2.9508 0.9574
10.1817 -2.5466 -2.9529 0.9573
10.3758 -1.6315 -2.9552 0.9573
9.8033 3.9016 -2.9686 0.9571
9.4237 4.7620 -2.9707 0.9571
7.8457 7.0961 -2.9764 0.9570
7.2047 7.7896 -2.9854 0.9569
5.7094 8.9436 -2.9854 0.9569
3.1437 10.1343 -2.9854 0.9569
1.2315 9.9991 -2.8346 0.9590
-3.2023 9.5648 -2.8379 0.9590
-6.3356 7.8417 -2.8364 0.9590
-7.6164 6.5862 -2.8330 0.9590
-9.9435 3.7030 -2.9854 0.9569
-9.8138 -1.7680 -2.9854 0.9592
-9.3449 -3.4801 -2.9854 0.9592
-8.0934 -5.8253 -2.9854 0.9592
-6.9324 -7.1680 -2.9854 0.9592
-5.5516 -8.2835 -2.9854 0.9592
-4.7923 -8.7448 -2.9854 0.9592
-3.9950 -9.1366 -2.9854 0.9592
-2.2955 -9.6324 -2.9645 0.9595
-1.4092 -9.6625 -2.9234 0.9600
-0.5464 -9.7995 -2.9383 0.9598
0.3332 -9.9662 -2.9854 0.9592
1.2189 -9.8970 -2.9854 0.9592
2.0950 -9.7493 -2.9854 0.9592
2.9544 -9.5241 -2.9854 0.9592
3.7457 -9.1146 -2.9502 0.9597
5.2822 -8.2745 -2.9390 0.9598
6.6715 -7.2132 -2.9416 0.9598
7.8532 -5.9224 -2.9447 0.9598
8.7896 -4.4415 -2.9483 0.9597
9.1560 -3.6440 -2.9503 0.9597
9.4505 -2.8166 -2.9523 0.9597
9.8140 -1.0979 -2.9565 0.9596
9.7766 1.5373 -2.9629 0.9595
9.6078 2.4031 -2.9650 0.9595
9.3622 3.2509 -2.9670 0.9595
9.0418 4.0741 -2.9690 0.9594
8.6489 4.8658 -2.9710 0.9594
7.6583 6.3298 -2.9745 0.9594
4.9859 8.6359 -2.9854 0.9592
4.1975 9.0454 -2.9854 0.9592
1.5740 9.3316 -2.8331 0.9613
-0.9489 9.4326 -2.8382 0.9612
-2.6062 9.1146 -2.8381 0.9612
-3.4072 8.8467 -2.8382 0.9612
-4.9202 8.0997 -2.8372 0.9612
-5.6190 7.6261 -2.8359 0.9612
-6.2722 7.0921 -2.8344 0.9612
-7.8259 6.1801 -2.9854 0.9592
-8.7977 4.6946 -2.9854 0.9592
-9.1806 3.8929 -2.9854 0.9592
-9.4906 3.0604 -2.9854 0.9592
-9.8829 1.3291 -2.9854 0.9592
-9.8829 -1.3291 -2.9854 0.9592
-8.7977 -4.6946 -2.9854 0.9592
-5.1771 -8.5226 -2.9854 0.9592
-4.3980 -8.9496 -2.9854 0.9592
-3.5840 -9.3055 -2.9854 0.9592
-1.8492 -9.6469 -2.9407 0.9598
0.7768 -9.9415 -2.9854 0.9592
1.6586 -9.8329 -2.9854 0.9592
4.1387 -8.9186 -2.9435 0.9598
4.9075 -8.5000 -2.9384 0.9598
5.6467 -8.0326 -2.9395 0.9598
7.5794 -6.2645 -2.9439 0.9598
8.1116 -5.5683 -2.9456 0.9598
8.5803 -4.8272 -2.9474 0.9597
9.3125 -3.2336 -2.9513 0.9597
9.5699 -2.3936 -2.9533 0.9596
9.7519 -1.5334 -2.9554 0.9596
9.8568 -0.6598 -2.9575 0.9596
9.8835 0.2203 -2.9597 0.9596
9.7018 1.9720 -2.9639 0.9595
9.4945 2.8297 -2.9660 0.9595
9.2113 3.6660 -2.9681 0.9595
7.9304 5.9806 -2.9737 0.9594
5.3657 8.4052 -2.9854 0.9592
3.7904 9.2234 -2.9854 0.9592
2.9544 9.5241 -2.9854 0.9592
0.3166 9.4688 -2.8363 0.9612
-0.5278 9.4656 -2.8382 0.9612
-3.7980 8.6863 -2.8382 0.9612
-5.2749 7.8707 -2.8366 0.9612
-5.9516 7.3664 -2.8352 0.9612
-7.3852 6.3863 -2.9230 0.9601
-8.0934 5.8253 -2.9854 0.9592
-8.5798 5.0818 -2.9854 0.9592
-9.3449 3.4801 -2.9854 0.9592
-9.8138 1.7681 -2.9854 0.9592
-9.4002 0.0000 -2.9854 0.9613
-9.3629 -0.8367 -2.9854 0.9613
-8.4823 -4.0516 -2.9854 0.9613
-7.6295 -5.4914 -2.9854 0.9613
-6.5350 -6.7571 -2.9854 0.9613
-5.9076 -7.3119 -2.9854 0.9613
-5.2334 -7.8087 -2.9854 0.9613
-2.9844 -8.9139 -2.9854 0.9613
-2.1792 -9.1441 -2.9854 0.9613
-1.3567 -9.3018 -2.9854 0.9613
-0.5233 -9.3856 -2.9854 0.9613
0.3141 -9.3950 -2.9854 0.9613
1.1490 -9.3297 -2.9854 0.9613
1.9749 -9.1904 -2.9854 0.9613
2.7850 -8.9782 -2.9854 0.9613
4.2746 -8.2302 -2.9453 0.9618
4.9814 -7.8032 -2.9401 0.9619
6.2912 -6.8020 -2.9425 0.9619
6.8750 -6.2181 -2.9440 0.9618
7.8771 -4.9059 -2.9472 0.9618
8.2875 -4.1878 -2.9489 0.9618
8.9100 -2.6554 -2.9527 0.9617
9.3137 -0.2075 -2.9586 0.9617
9.3016 0.6227 -2.9606 0.9616
9.0560 2.2651 -2.9646 0.9616
8.8242 3.0641 -2.9666 0.9616
8.5219 3.8398 -2.9685 0.9615
8.1513 4.5858 -2.9703 0.9615
5.4060 7.6902 -2.9854 0.9613
3.9569 8.5269 -2.9854 0.9613
1.4837 8.7961 -2.8330 0.9633
-0.8944 8.8908 -2.8378 0.9632
-1.6825 8.7772 -2.8382 0.9632
-2.4570 8.5926 -2.8383 0.9632
-3.2117 8.3390 -2.8379 0.9632
-5.2947 7.1860 -2.8347 0.9632
-7.3773 5.8258 -2.9854 0.9613
-7.8666 5.1461 -2.9854 0.9613
-8.2934 4.4255 -2.9854 0.9613
-8.9467 2.8849 -2.9854 0.9613
-9.1679 2.0772 -2.9854 0.9613
-9.3164 1.2529 -2.9854 0.9613
-9.3909 0.4188 -2.9854 0.9613
-9.3909 -0.4187 -2.9854 0.9613
-8.9466 -2.8849 -2.9854 0.9613
-8.2934 -4.4254 -2.9854 0.9613
-6.8295 -6.4593 -2.9854 0.9613
-5.5760 -7.5678 -2.9854 0.9613
-3.3785 -8.7721 -2.9854 0.9613
-2.5844 -9.0380 -2.9854 0.9613
-1.7697 -9.2321 -2.9854 0.9613
-0.1047 -9.3996 -2.9854 0.9613
1.5635 -9.2693 -2.9854 0.9613
2.3823 -9.0933 -2.9854 0.9613
3.1822 -8.8452 -2.9854 0.9613
3.9118 -8.4297 -2.9514 0.9617
4.6280 -8.0160 -2.9396 0.9619
5.3251 -7.5750 -2.9407 0.9619
5.9806 -7.0739 -2.9419 0.9619
7.6486 -5.2505 -2.9463 0.9618
8.0903 -4.5515 -2.9480 0.9618
8.7800 -3.0487 -2.9517 0.9617
9.1936 -1.4456 -2.9556 0.9617
9.2920 -0.6220 -2.9576 0.9617
9.3169 0.2076 -2.9596 0.9616
9.2677 1.0368 -2.9617 0.9616
9.1449 1.8588 -2.9637 0.9616
8.6818 3.4553 -2.9675 0.9615
8.3450 4.2169 -2.9694 0.9615
7.9412 4.9459 -2.9712 0.9615
6.9717 6.3055 -2.9854 0.9613
6.3828 6.9010 -2.9854 0.9613
5.7432 7.4418 -2.9854 0.9613
4.3328 8.3421 -2.9854 0.9613
3.5731 8.6947 -2.9854 0.9613
2.7850 8.9782 -2.9854 0.9613
1.0907 8.8559 -2.8337 0.9632
0.2983 8.9237 -2.8356 0.9632
-0.4974 8.9197 -2.8372 0.9632
-1.2898 8.8436 -2.8383 0.9632
-4.2924 7.8326 -2.8365 0.9632
-4.9704 7.4164 -2.8354 0.9632
-7.6296 5.4914 -2.9854 0.9613
-8.0880 4.7905 -2.9854 0.9613
-9.0662 2.4835 -2.9854 0.9613
-9.2513 1.6667 -2.9854 0.9613
-9.3629 0.8367 -2.9854 0.9613
-8.8855 0.0000 -2.9854 0.9632
-8.7447 -1.5754 -2.9854 0.9632
-8.5698 -2.3475 -2.9854 0.9632
-8.3269 -3.1009 -2.9854 0.9632
-7.2118 -5.1907 -2.9854 0.9632
-6.1771 -6.3871 -2.9854 0.9632
-5.5841 -6.9116 -2.9854 0.9632
-4.9468 -7.3811 -2.9854 0.9632
-4.2702 -7.7921 -2.9854 0.9632
-2.0599 -8.6434 -2.9854 0.9632
-1.2824 -8.7925 -2.9854 0.9632
0.2969 -8.8805 -2.9854 0.9632
1.0861 -8.8189 -2.9854 0.9632
1.8667 -8.6872 -2.9854 0.9632
2.6325 -8.4866 -2.9854 0.9632
3.3775 -8.2186 -2.9854 0.9632
4.7122 -7.3816 -2.9424 0.9637
5.3503 -6.9326 -2.9422 0.9637
5.9486 -6.4315 -2.9434 0.9637
6.5004 -5.8792 -2.9448 0.9637
7.4475 -4.6383 -2.9478 0.9637
7.8351 -3.9593 -2.9495 0.9636
8.4231 -2.5103 -2.9530 0.9636
8.6185 -1.7518 -2.9549 0.9636
8.7458 -0.9783 -2.9567 0.9635
8.7103 1.3696 -2.9625 0.9635
7.7033 4.3338 -2.9697 0.9634
5.7367 6.7854 -2.9854 0.9632
5.1100 7.2691 -2.9854 0.9632
3.7402 8.0600 -2.9854 0.9632
1.4385 8.5282 -2.9058 0.9642
0.6571 8.4093 -2.8340 0.9650
-0.0940 8.4389 -2.8355 0.9650
-2.3218 8.1197 -2.8374 0.9650
-5.0029 6.7900 -2.8337 0.9650
-6.4556 6.1056 -2.9854 0.9632
-7.8392 4.1832 -2.9854 0.9632
-8.1805 3.4688 -2.9854 0.9632
-8.4567 2.7270 -2.9854 0.9632
-8.8062 1.1843 -2.9854 0.9632
-8.8767 0.3958 -2.9854 0.9632
-8.8767 -0.3958 -2.9854 0.9632
-8.8062 -1.1843 -2.9854 0.9632
-8.1805 -3.4688 -2.9854 0.9632
-7.4358 -4.8643 -2.9854 0.9632
-5.8865 -6.6559 -2.9854 0.9632
-5.2707 -7.1534 -2.9854 0.9632
-3.9189 -7.9746 -2.9854 0.9632
-2.4429 -8.5431 -2.9854 0.9632
-1.6728 -8.7266 -2.9854 0.9632
-0.8894 -8.8409 -2.9854 0.9632
-0.0990 -8.8849 -2.9854 0.9632
3.7248 -8.0267 -2.9731 0.9633
4.3859 -7.5966 -2.9472 0.9637
5.0352 -7.1627 -2.9417 0.9637
6.2306 -6.1615 -2.9441 0.9637
7.2315 -4.9642 -2.9470 0.9637
8.0061 -3.6073 -2.9503 0.9636
8.5292 -2.1333 -2.9539 0.9636
8.6907 -1.3665 -2.9558 0.9636
8.7599 0.9800 -2.9615 0.9635
8.6434 1.7569 -2.9634 0.9635
8.4580 2.5208 -2.9653 0.9634
4.0955 7.8854 -2.9854 0.9632
1.0308 8.3692 -2.8331 0.9650
0.2819 8.4326 -2.8348 0.9650
-0.4700 8.4283 -2.8362 0.9650
-1.9578 8.2154 -2.8375 0.9650
-3.3820 7.7348 -2.8363 0.9650
-7.2117 5.1907 -2.9854 0.9632
-8.0178 3.8298 -2.9854 0.9632
-8.8503 0.7909 -2.9854 0.9632
-6.8334 -4.9183 -2.9854 0.9649
-6.3685 -5.5070 -2.9854 0.9649
-2.6730 -7.9837 -2.9854 0.9649
0.2813 -8.4146 -2.9854 0.9649
2.4944 -8.0413 -2.9854 0.9649
3.2002 -7.7874 -2.9854 0.9649
4.4752 -7.0103 -2.9491 0.9653
5.0711 -6.5708 -2.9431 0.9654
5.6380 -6.0958 -2.9443 0.9654
6.1609 -5.5722 -2.9455 0.9654
6.6355 -5.0041 -2.9469 0.9653
7.9820 -2.3789 -2.9533 0.9653
8.3419 -0.1859 -2.9587 0.9652
8.3304 0.5577 -2.9605 0.9652
7.9013 2.7436 -2.9658 0.9651
5.9864 5.9201 -2.9854 0.9649
5.4357 6.4294 -2.9854 0.9649
4.2096 7.2913 -2.9854 0.9649
2.1337 8.1445 -2.9854 0.9649
0.6225 7.9661 -2.8333 0.9667
-0.8005 7.9571 -2.8357 0.9666
-1.5058 7.8558 -2.8363 0.9666
-2.1991 7.6905 -2.8362 0.9666
-2.8742 7.4627 -2.8356 0.9666
-4.1492 6.8306 -2.8339 0.9667
-6.1168 5.7853 -2.9854 0.9649
-6.6075 5.2179 -2.9854 0.9649
-8.0130 2.5839 -2.9854 0.9649
-8.3442 1.1222 -2.9854 0.9649
-8.4110 0.3751 -2.9854 0.9649
-8.4110 -0.3750 -2.9854 0.9649
-8.2112 -1.8604 -2.9854 0.9649
-8.0130 -2.5838 -2.9854 0.9649
-7.0457 -4.6090 -2.9854 0.9649
-6.6075 -5.2178 -2.9854 0.9649
-5.5776 -6.3067 -2.9854 0.9649
-4.9942 -6.7781 -2.9854 0.9649
-3.7133 -7.5562 -2.9854 0.9649
-3.0260 -7.8567 -2.9854 0.9649
-1.5850 -8.2688 -2.9854 0.9649
-0.8428 -8.3770 -2.9854 0.9649
0.6559 -8.3937 -2.9854 0.9649
2.1337 -8.1444 -2.9854 0.9649
2.8502 -7.9222 -2.9854 0.9649
3.5440 -7.6371 -2.9854 0.9649
4.1675 -7.2184 -2.9555 0.9652
5.3598 -6.3396 -2.9437 0.9654
7.5872 -3.4186 -2.9508 0.9653
8.2352 -1.2949 -2.9560 0.9652
8.3228 -0.5571 -2.9578 0.9652
8.3445 0.1860 -2.9596 0.9652
8.1892 1.6646 -2.9632 0.9652
7.7735 3.0938 -2.9666 0.9651
7.4714 3.7755 -2.9683 0.9651
6.7221 5.0694 -2.9854 0.9649
6.2442 5.6476 -2.9854 0.9649
4.5303 7.0966 -2.9854 0.9649
3.8807 7.4716 -2.9854 0.9649
3.2002 7.7874 -2.9854 0.9649
0.9795 7.9532 -2.8414 0.9666
-1.8543 7.7811 -2.8363 0.9666
-3.2033 7.3262 -2.8352 0.9666
-3.8415 7.0099 -2.8344 0.9666
-4.4486 6.6377 -2.8333 0.9667
-5.1232 6.3411 -2.8906 0.9660
-8.2859 1.4928 -2.9854 0.9649
-7.9949 0.0000 -2.9854 0.9664
-7.9631 -0.7116 -2.9854 0.9664
-7.7108 -2.1122 -2.9854 0.9664
-7.4922 -2.7901 -2.9854 0.9664
-7.2142 -3.4459 -2.9854 0.9664
-6.8788 -4.0743 -2.9854 0.9664
-6.4889 -4.6704 -2.9854 0.9664
-6.0474 -5.2294 -2.9854 0.9664
-5.0244 -6.2188 -2.9854 0.9664
-3.8422 -7.0111 -2.9854 0.9664
-1.8534 -7.7771 -2.9854 0.9664
-1.1538 -7.9111 -2.9854 0.9664
-0.4451 -7.9825 -2.9854 0.9664
2.3687 -7.6359 -2.9854 0.9664
3.0389 -7.3948 -2.9854 0.9664
3.6850 -7.0949 -2.9854 0.9664
4.2629 -6.6778 -2.9583 0.9667
4.8228 -6.2499 -2.9477 0.9669
5.3551 -5.7899 -2.9450 0.9669
5.8516 -5.2925 -2.9462 0.9669
6.3023 -4.7528 -2.9475 0.9669
6.7035 -4.1750 -2.9489 0.9668
7.0521 -3.5635 -2.9504 0.9668
7.5803 -2.2592 -2.9536 0.9668
7.7557 -1.5764 -2.9553 0.9668
7.9103 0.5295 -2.9604 0.9667
7.8363 1.2322 -2.9621 0.9667
7.6999 1.9259 -2.9638 0.9667
7.5021 2.6050 -2.9655 0.9667
6.9366 3.9023 -2.9720 0.9666
6.1624 5.0934 -2.9854 0.9664
4.5978 6.5405 -2.9854 0.9664
2.0262 7.7339 -2.9854 0.9664
1.3298 7.8835 -2.9854 0.9664
-0.0846 7.5885 -2.8338 0.9681
-2.0874 7.3000 -2.8352 0.9681
-3.3471 6.8112 -2.8339 0.9681
-4.6586 6.3228 -2.9326 0.9670
-5.8085 5.4936 -2.9854 0.9664
-6.6905 4.3767 -2.9854 0.9664
-7.6091 2.4536 -2.9854 0.9664
-7.9869 0.3562 -2.9854 0.9664
-7.9869 -0.3561 -2.9854 0.9664
-7.7972 -1.7666 -2.9854 0.9664
-7.3605 -3.1211 -2.9854 0.9664
-5.2965 -5.9888 -2.9854 0.9664
-4.1507 -6.8330 -2.9854 0.9664
-2.1980 -7.6868 -2.9854 0.9664
-0.8003 -7.9547 -2.9854 0.9664
0.6228 -7.9706 -2.9854 0.9664
1.3298 -7.8835 -2.9854 0.9664
3.3653 -7.2520 -2.9854 0.9664
3.9852 -6.9026 -2.9762 0.9665
5.6089 -5.5467 -2.9456 0.9669
6.5093 -4.4684 -2.9482 0.9669
6.8845 -3.8732 -2.9497 0.9668
7.2057 -3.2467 -2.9512 0.9668
7.4701 -2.5939 -2.9528 0.9668
7.6756 -1.9198 -2.9544 0.9668
7.9034 -0.5291 -2.9578 0.9667
7.9237 0.1766 -2.9595 0.9667
7.8811 0.8817 -2.9613 0.9667
7.3806 2.9374 -2.9663 0.9667
6.7863 4.2266 -2.9854 0.9664
6.3832 4.8138 -2.9854 0.9664
5.9294 5.3628 -2.9854 0.9664
4.8846 6.3292 -2.9854 0.9664
4.3019 6.7388 -2.9854 0.9664
3.6850 7.0950 -2.9854 0.9664
3.0389 7.3948 -2.9854 0.9664
2.3687 7.6359 -2.9854 0.9664
1.6796 7.8164 -2.9854 0.9664
0.9731 7.9007 -2.9725 0.9666
0.2535 7.5831 -2.8332 0.9681
-0.4226 7.5786 -2.8343 0.9681
-1.0957 7.5127 -2.8350 0.9681
-1.7602 7.3860 -2.8352 0.9681
-3.0408 6.9545 -2.8343 0.9681
-3.6466 6.6543 -2.8334 0.9681
-4.2428 6.3312 -2.8460 0.9680
-5.5580 5.7469 -2.9854 0.9664
-6.4889 4.6704 -2.9854 0.9664
-7.2141 3.4459 -2.9854 0.9664
-7.7108 2.1122 -2.9854 0.9664
-7.8682 1.4175 -2.9854 0.9664
-7.6066 0.0000 -2.9854 0.9678
-7.4861 -1.3487 -2.9854 0.9678
-6.8638 -3.2785 -2.9854 0.9678
-6.1737 -4.4436 -2.9854 0.9678
-5.2880 -5.4678 -2.9854 0.9678
-4.7804 -5.9168 -2.9854 0.9678
-4.2348 -6.3188 -2.9854 0.9678
-3.6556 -6.6706 -2.9854 0.9678
-3.0474 -6.9695 -2.9854 0.9678
-2.4150 -7.2131 -2.9854 0.9678
-1.0978 -7.5269 -2.9854 0.9678
0.2542 -7.6023 -2.9854 0.9678
2.2536 -7.2651 -2.9854 0.9678
2.8913 -7.0356 -2.9854 0.9678
4.5970 -5.9565 -2.9530 0.9682
5.0985 -5.5125 -2.9470 0.9682
6.7105 -3.3910 -2.9509 0.9682
6.9892 -2.7817 -2.9523 0.9682
7.2128 -2.1496 -2.9539 0.9682
7.1370 2.4783 -2.9651 0.9681
4.9110 5.8088 -2.9854 0.9678
3.2019 6.8999 -2.9854 0.9678
1.9278 7.3583 -2.9854 0.9678
-0.0804 7.2179 -2.8330 0.9695
-0.7227 7.1842 -2.8338 0.9694
-1.9853 6.9431 -2.8342 0.9694
-2.5950 6.7377 -2.8337 0.9695
-3.1836 6.4784 -2.8330 0.9695
-3.8333 6.3105 -2.8978 0.9688
-5.0392 5.6980 -2.9854 0.9678
-6.7109 3.5811 -2.9854 0.9678
-7.0030 2.9696 -2.9854 0.9678
-7.2395 2.3345 -2.9854 0.9678
-7.5991 0.3389 -2.9854 0.9678
-7.5991 -0.3388 -2.9854 0.9678
-7.0030 -2.9695 -2.9854 0.9678
-6.3656 -4.1641 -2.9854 0.9678
-5.9697 -4.7142 -2.9854 0.9678
-3.9491 -6.5011 -2.9854 0.9678
-2.7339 -7.0983 -2.9854 0.9678
-2.0913 -7.3135 -2.9854 0.9678
-0.7614 -7.5684 -2.9854 0.9678
-0.0848 -7.6061 -2.9854 0.9678
3.2019 -6.8999 -2.9854 0.9678
3.8033 -6.5875 -2.9854 0.9678
4.3407 -6.1748 -2.9623 0.9681
4.8533 -5.7405 -2.9503 0.9682
5.3377 -5.2785 -2.9462 0.9683
5.7887 -4.7845 -2.9475 0.9682
6.8566 -3.0894 -2.9516 0.9682
7.4410 -1.1700 -2.9563 0.9682
7.5197 -0.5034 -2.9579 0.9681
7.2384 2.1573 -2.9644 0.9681
6.7614 3.4167 -2.9732 0.9680
6.4567 4.0213 -2.9854 0.9678
5.6414 5.1024 -2.9854 0.9678
4.6474 6.0218 -2.9854 0.9678
4.0930 6.4116 -2.9854 0.9678
3.5061 6.7504 -2.9854 0.9678
2.2536 7.2651 -2.9854 0.9678
1.5981 7.4368 -2.9854 0.9678
0.9298 7.5496 -2.9854 0.9678
0.2422 7.2439 -2.8446 0.9693
-1.0422 7.1455 -2.8341 0.9694
-1.6741 7.0249 -2.8343 0.9694
-2.2925 6.8474 -2.8340 0.9694
-3.4690 6.3301 -2.8330 0.9695
-4.2252 6.3044 -2.9786 0.9679
-6.1737 4.4436 -2.9854 0.9678
-6.5447 3.8765 -2.9854 0.9678
-6.8638 3.2786 -2.9854 0.9678
-7.1285 2.6547 -2.9854 0.9678
-7.3363 2.0096 -2.9854 0.9678
-7.4861 1.3487 -2.9854 0.9678
-7.5764 0.6770 -2.9854 0.9678
-7.2499 0.0000 -2.9854 0.9691
-6.7941 -2.5301 -2.9854 0.9691
-6.2378 -3.6947 -2.9854 0.9691
-5.8842 -4.2352 -2.9854 0.9691
-5.4839 -4.7421 -2.9854 0.9691
-5.0401 -5.2114 -2.9854 0.9691
-4.5562 -5.6393 -2.9854 0.9691
-3.4842 -6.3578 -2.9854 0.9691
-2.9045 -6.6427 -2.9854 0.9691
-2.3017 -6.8748 -2.9854 0.9691
-1.6807 -7.0524 -2.9854 0.9691
0.2422 -7.2458 -2.9854 0.9691
0.8862 -7.1955 -2.9854 0.9691
1.5231 -7.0881 -2.9854 0.9691
2.1479 -6.9244 -2.9854 0.9691
2.7557 -6.7057 -2.9854 0.9691
3.9010 -6.1109 -2.9854 0.9691
4.4031 -5.7053 -2.9676 0.9693
4.8689 -5.2642 -2.9527 0.9695
5.3085 -4.8013 -2.9474 0.9695
7.1369 -0.7984 -2.9572 0.9694
7.1729 0.4802 -2.9603 0.9694
7.1054 1.1173 -2.9618 0.9694
6.9814 1.7462 -2.9634 0.9693
6.8017 2.3618 -2.9649 0.9693
6.5911 2.9699 -2.9769 0.9692
5.5882 4.6188 -2.9854 0.9691
5.1549 5.0978 -2.9854 0.9691
3.6249 6.2786 -2.9854 0.9691
-0.0780 6.9985 -2.8820 0.9702
-2.4727 6.4201 -2.8330 0.9707
-4.3005 5.8367 -2.9854 0.9691
-4.8029 5.4308 -2.9854 0.9691
-6.3962 3.4131 -2.9854 0.9691
-7.0707 1.6020 -2.9854 0.9691
-7.2427 -0.3229 -2.9854 0.9691
-7.1852 -0.9663 -2.9854 0.9691
-7.0707 -1.6020 -2.9854 0.9691
-6.9000 -2.2250 -2.9854 0.9691
-6.0671 -3.9689 -2.9854 0.9691
-5.6897 -4.4931 -2.9854 0.9691
-4.3005 -5.8367 -2.9854 0.9691
-3.7639 -6.1963 -2.9854 0.9691
-3.1975 -6.5067 -2.9854 0.9691
-2.6057 -6.7654 -2.9854 0.9691
-1.9932 -6.9705 -2.9854 0.9691
-1.3649 -7.1202 -2.9854 0.9691
-0.0808 -7.2494 -2.9854 0.9691
1.8374 -7.0132 -2.9854 0.9691
3.6250 -6.2786 -2.9854 0.9691
4.1631 -5.9221 -2.9809 0.9692
4.6348 -5.4820 -2.9561 0.9694
5.9048 -4.0534 -2.9492 0.9695
6.2449 -3.5133 -2.9506 0.9695
6.5359 -2.9449 -2.9519 0.9695
6.7754 -2.3527 -2.9534 0.9695
6.9614 -1.7412 -2.9549 0.9694
7.1672 -0.4798 -2.9579 0.9694
7.1853 0.1601 -2.9595 0.9694
7.1463 0.7994 -2.9611 0.9694
7.0504 1.4331 -2.9626 0.9694
6.4707 3.2698 -2.9854 0.9691
6.1539 3.8327 -2.9854 0.9691
4.4294 5.7394 -2.9854 0.9691
3.9010 6.1109 -2.9854 0.9691
2.7557 6.7057 -2.9854 0.9691
1.5231 7.0881 -2.9854 0.9691
0.8862 7.1955 -2.9854 0.9691
0.2410 7.2088 -2.9701 0.9693
-2.1843 6.5242 -2.8331 0.9707
-3.4478 6.2914 -2.9542 0.9694
-4.0362 6.0225 -2.9854 0.9691
-4.5562 5.6393 -2.9854 0.9691
-5.0401 5.2114 -2.9854 0.9691
-5.8842 4.2352 -2.9854 0.9691
-6.2378 3.6947 -2.9854 0.9691
-6.7941 2.5302 -2.9854 0.9691
-6.9209 0.0000 -2.9854 0.9703
-6.2450 -2.9830 -2.9854 0.9703
-5.2350 -4.5269 -2.9854 0.9703
-4.8113 -4.9749 -2.9854 0.9703
-4.3494 -5.3834 -2.9854 0.9703
-3.8531 -5.7491 -2.9854 0.9703
-1.6044 -6.7323 -2.9854 0.9703
1.4540 -6.7664 -2.9854 0.9703
2.0505 -6.6101 -2.9854 0.9703
2.6307 -6.4014 -2.9854 0.9703
3.1900 -6.1418 -2.9854 0.9703
3.7240 -5.8335 -2.9854 0.9703
4.2254 -5.4749 -2.9832 0.9703
6.8132 -0.7622 -2.9573 0.9706
6.8472 0.4584 -2.9602 0.9705
6.7827 1.0665 -2.9617 0.9705
6.6641 1.6668 -2.9632 0.9705
6.3099 2.8431 -2.9854 0.9703
5.3346 4.4092 -2.9854 0.9703
4.9210 4.8665 -2.9854 0.9703
4.4683 5.2852 -2.9854 0.9703
3.9802 5.6619 -2.9854 0.9703
2.9132 6.2779 -2.9854 0.9703
2.3429 6.5122 -2.9854 0.9703
1.7540 6.6949 -2.9854 0.9703
-0.6709 6.6688 -2.8911 0.9712
-2.4190 6.2807 -2.9032 0.9711
-3.0524 6.2114 -2.9854 0.9703
-5.0282 4.7556 -2.9854 0.9703
-5.4315 4.2892 -2.9854 0.9703
-6.9140 0.3083 -2.9854 0.9703
-6.9140 -0.3083 -2.9854 0.9703
-6.8591 -0.9224 -2.9854 0.9703
-6.7498 -1.5293 -2.9854 0.9703
-4.5850 -5.1843 -2.9854 0.9703
-3.0524 -6.2114 -2.9854 0.9703
-2.4874 -6.4584 -2.9854 0.9703
-1.3029 -6.7971 -2.9854 0.9703
-0.6928 -6.8861 -2.9854 0.9703
0.5392 -6.8998 -2.9854 0.9703
1.7540 -6.6949 -2.9854 0.9703
2.3429 -6.5122 -2.9854 0.9703
2.9132 -6.2778 -2.9854 0.9703
3.4604 -5.9936 -2.9854 0.9703
3.9802 -5.6618 -2.9854 0.9703
4.4506 -5.2642 -2.9735 0.9704
5.6376 -3.8700 -2.9497 0.9707
5.9622 -3.3543 -2.9509 0.9706
6.6459 -1.6622 -2.9551 0.9706
6.8421 -0.4580 -2.9580 0.9706
6.8217 0.7631 -2.9610 0.9705
6.7301 1.3680 -2.9624 0.9705
6.5906 1.9642 -2.9665 0.9705
6.1770 3.1214 -2.9854 0.9703
5.5257 4.1671 -2.9854 0.9703
4.6993 5.0808 -2.9854 0.9703
4.2284 5.4789 -2.9854 0.9703
3.7240 5.8336 -2.9854 0.9703
1.4540 6.7664 -2.9854 0.9703
0.8460 6.8690 -2.9854 0.9703
-0.3794 6.8047 -2.9398 0.9707
-0.9562 6.5562 -2.8580 0.9715
-1.5254 6.4010 -2.8384 0.9717
-2.7439 6.2754 -2.9544 0.9706
-3.8530 5.7492 -2.9854 0.9703
-4.3495 5.3834 -2.9854 0.9703
-5.2350 4.5269 -2.9854 0.9703
-5.9547 3.5270 -2.9854 0.9703
-6.4858 2.4153 -2.9854 0.9703
-6.8112 1.2271 -2.9854 0.9703
-6.6163 0.0000 -2.9854 0.9714
-6.5114 -1.1731 -2.9854 0.9714
-6.2003 -2.3090 -2.9854 0.9714
-5.9702 -2.8517 -2.9854 0.9714
-5.6927 -3.3717 -2.9854 0.9714
-4.5996 -4.7559 -2.9854 0.9714
-3.6835 -5.4961 -2.9854 0.9714
-2.1005 -6.2740 -2.9854 0.9714
-0.9549 -6.5470 -2.9854 0.9714
0.8087 -6.5666 -2.9854 0.9714
1.3900 -6.4686 -2.9854 0.9714
1.9602 -6.3192 -2.9854 0.9714
3.0496 -5.8715 -2.9854 0.9714
4.0423 -5.2378 -2.9854 0.9714
4.4839 -4.8479 -2.9797 0.9714
5.2279 -3.9426 -2.9546 0.9717
5.5522 -3.4580 -2.9514 0.9717
6.0811 -2.4202 -2.9532 0.9717
6.5135 -0.7286 -2.9573 0.9716
6.5556 -0.1461 -2.9588 0.9716
6.5458 0.4382 -2.9602 0.9716
6.2489 2.1699 -2.9848 0.9714
5.4547 3.7445 -2.9854 0.9714
5.0998 4.2151 -2.9854 0.9714
4.7044 4.6523 -2.9854 0.9714
4.2716 5.0525 -2.9854 0.9714
3.3081 5.7299 -2.9854 0.9714
2.7850 6.0016 -2.9854 0.9714
1.1005 6.5241 -2.9854 0.9714
0.5154 6.5962 -2.9854 0.9714
-0.0737 6.6159 -2.9854 0.9714
-0.6623 6.5830 -2.9854 0.9714
-1.2350 6.4431 -2.9601 0.9716
-2.3779 6.1742 -2.9854 0.9714
-2.9181 5.9380 -2.9854 0.9714
-3.4350 5.6547 -2.9854 0.9714
-4.3832 4.9561 -2.9854 0.9714
-4.8069 4.5463 -2.9854 0.9714
-5.1925 4.1004 -2.9854 0.9714
-5.8372 3.1148 -2.9854 0.9714
-6.0913 2.5829 -2.9854 0.9714
-6.2970 2.0305 -2.9854 0.9714
-6.4527 1.4620 -2.9854 0.9714
-6.6097 0.2947 -2.9854 0.9714
-6.5572 -0.8819 -2.9854 0.9714
-6.4527 -1.4620 -2.9854 0.9714
-6.2970 -2.0305 -2.9854 0.9714
-5.1924 -4.1004 -2.9854 0.9714
-4.3832 -4.9561 -2.9854 0.9714
-3.9245 -5.3265 -2.9854 0.9714
-2.9180 -5.9380 -2.9854 0.9714
-0.6623 -6.5830 -2.9854 0.9714
1.1005 -6.5241 -2.9854 0.9714
2.2398 -6.2256 -2.9854 0.9714
2.7850 -6.0015 -2.9854 0.9714
4.2716 -5.0525 -2.9854 0.9714
5.9659 -2.6881 -2.9526 0.9717
6.1842 -2.1474 -2.9539 0.9717
6.5572 0.1461 -2.9595 0.9716
6.5213 0.7295 -2.9609 0.9716
6.4398 1.3093 -2.9652 0.9716
5.6161 3.4978 -2.9854 0.9714
4.0423 5.2378 -2.9854 0.9714
2.5149 6.1197 -2.9854 0.9714
1.3900 6.4686 -2.9854 0.9714
0.8088 6.5667 -2.9854 0.9714
0.2211 6.6126 -2.9854 0.9714
-0.9529 6.5335 -2.9792 0.9714
-1.5186 6.3721 -2.9557 0.9717
-2.1005 6.2740 -2.9854 0.9714
-4.5996 4.7559 -2.9854 0.9714
-5.6927 3.3718 -2.9854 0.9714
-6.2003 2.3090 -2.9854 0.9714
-6.5900 0.5889 -2.9854 0.9714
-6.2330 -1.1229 -2.9854 0.9724
-5.1403 -3.6997 -2.9854 0.9724
-4.7906 -4.1426 -2.9854 0.9724
-4.4029 -4.5525 -2.9854 0.9724
-3.5259 -5.2610 -2.9854 0.9724
-3.0437 -5.5540 -2.9854 0.9724
-2.0107 -6.0056 -2.9854 0.9724
-0.3526 -6.3235 -2.9854 0.9724
1.3306 -6.1919 -2.9854 0.9724
1.8764 -6.0489 -2.9854 0.9724
2.4073 -5.8579 -2.9854 0.9724
2.9192 -5.6204 -2.9854 0.9724
3.4078 -5.3383 -2.9854 0.9724
4.3003 -4.6495 -2.9854 0.9724
4.6837 -4.2362 -2.9769 0.9725
5.3241 -3.3159 -2.9566 0.9726
5.5948 -2.8272 -2.9549 0.9727
5.8215 -2.3169 -2.9535 0.9727
6.0072 -1.7903 -2.9547 0.9727
6.2351 -0.6975 -2.9574 0.9726
6.2753 -0.1398 -2.9588 0.9726
6.2173 0.9777 -2.9667 0.9726
6.1379 1.5353 -2.9824 0.9724
5.7742 2.6018 -2.9854 0.9724
3.6422 5.1812 -2.9854 0.9724
2.6659 5.7449 -2.9854 0.9724
1.6051 6.1265 -2.9854 0.9724
0.4934 6.3141 -2.9854 0.9724
-0.6339 6.3015 -2.9854 0.9724
-1.7412 6.0893 -2.9854 0.9724
-2.2762 5.9101 -2.9854 0.9724
-4.1957 4.7442 -2.9854 0.9724
-5.3000 3.4671 -2.9854 0.9724
-5.5876 2.9816 -2.9854 0.9724
-5.8308 2.4725 -2.9854 0.9724
-6.2768 0.8442 -2.9854 0.9724
-6.3270 -0.2821 -2.9854 0.9724
-6.2768 -0.8441 -2.9854 0.9724
-6.1768 -1.3995 -2.9854 0.9724
-6.0277 -1.9437 -2.9854 0.9724
-5.3000 -3.4671 -2.9854 0.9724
-4.9704 -3.9250 -2.9854 0.9724
-3.7568 -5.0987 -2.9854 0.9724
-3.2881 -5.4129 -2.9854 0.9724
-2.7933 -5.6840 -2.9854 0.9724
-2.2763 -5.9101 -2.9854 0.9724
-1.1923 -6.2200 -2.9854 0.9724
-0.6339 -6.3015 -2.9854 0.9724
-0.0706 -6.3329 -2.9854 0.9724
1.0534 -6.2450 -2.9854 0.9724
1.6051 -6.1265 -2.9854 0.9724
3.1666 -5.4848 -2.9854 0.9724
3.6423 -5.1812 -2.9854 0.9724
4.0889 -4.8364 -2.9854 0.9724
5.4649 -3.0745 -2.9557 0.9727
5.9202 -2.0557 -2.9541 0.9727
6.0824 -1.5213 -2.9554 0.9727
6.2614 -0.4191 -2.9581 0.9726
6.2505 0.6991 -2.9647 0.9726
5.3759 3.3482 -2.9854 0.9724
5.0566 3.8133 -2.9854 0.9724
4.6971 4.2483 -2.9854 0.9724
3.8694 5.0138 -2.9854 0.9724
3.4078 5.3383 -2.9854 0.9724
2.4073 5.8579 -2.9854 0.9724
1.8764 6.0490 -2.9854 0.9724
-0.3526 6.3235 -2.9854 0.9724
-3.5259 5.2611 -2.9854 0.9724
-4.7906 4.1426 -2.9854 0.9724
-5.1403 3.6998 -2.9854 0.9724
-5.4492 3.2276 -2.9854 0.9724
-5.7148 2.7298 -2.9854 0.9724
-5.9352 2.2103 -2.9854 0.9724
-6.1083 1.6733 -2.9854 0.9724
-6.3082 0.5637 -2.9854 0.9724
-6.0696 0.0000 -2.9854 0.9733
-5.9735 -1.0762 -2.9854 0.9733
-5.8540 -1.6036 -2.9854 0.9733
-4.9263 -3.5457 -2.9854 0.9733
-4.5912 -3.9701 -2.9854 0.9733
-4.2196 -4.3630 -2.9854 0.9733
-3.8145 -4.7212 -2.9854 0.9733
-2.9170 -5.3227 -2.9854 0.9733
-2.4316 -5.5612 -2.9854 0.9733
-0.8760 -6.0061 -2.9854 0.9733
0.2028 -6.0662 -2.9854 0.9733
0.7419 -6.0241 -2.9854 0.9733
1.7983 -5.7971 -2.9854 0.9733
2.3071 -5.6140 -2.9854 0.9733
2.7976 -5.3864 -2.9854 0.9733
3.7083 -4.8050 -2.9854 0.9733
4.5015 -4.0714 -2.9854 0.9733
5.1154 -3.1859 -2.9641 0.9735
5.3697 -2.7134 -2.9592 0.9735
5.9831 -0.6693 -2.9612 0.9735
6.0217 0.4031 -2.9684 0.9735
5.8882 1.4728 -2.9854 0.9733
5.7338 1.9910 -2.9854 0.9733
5.5338 2.4934 -2.9854 0.9733
4.3157 4.2679 -2.9854 0.9733
3.9187 4.6351 -2.9854 0.9733
3.0348 5.2565 -2.9854 0.9733
2.5549 5.5057 -2.9854 0.9733
2.0547 5.7113 -2.9854 0.9733
1.0095 5.9851 -2.9854 0.9733
0.4728 6.0512 -2.9854 0.9733
-0.0676 6.0693 -2.9854 0.9733
-1.6687 5.8358 -2.9854 0.9733
-2.1815 5.6641 -2.9854 0.9733
-2.6770 5.4474 -2.9854 0.9733
-3.1512 5.1875 -2.9854 0.9733
-4.0210 4.5466 -2.9854 0.9733
-4.7634 3.7617 -2.9854 0.9733
-5.7767 1.8628 -2.9854 0.9733
-5.9196 1.3412 -2.9854 0.9733
-6.0636 0.2704 -2.9854 0.9733
-5.7767 -1.8627 -2.9854 0.9733
-5.3549 -2.8575 -2.9854 0.9733
-4.4097 -4.1707 -2.9854 0.9733
-3.1512 -5.1875 -2.9854 0.9733
-2.1815 -5.6640 -2.9854 0.9733
-1.6687 -5.8357 -2.9854 0.9733
-0.6076 -6.0391 -2.9854 0.9733
1.0095 -5.9851 -2.9854 0.9733
1.5382 -5.8714 -2.9854 0.9733
2.0547 -5.7112 -2.9854 0.9733
2.5549 -5.5057 -2.9854 0.9733
3.0348 -5.2564 -2.9854 0.9733
3.4906 -4.9654 -2.9854 0.9733
4.3157 -4.2679 -2.9854 0.9733
4.9786 -3.4176 -2.9702 0.9734
5.2460 -2.9514 -2.9606 0.9735
5.4846 -2.4712 -2.9588 0.9735
5.6822 -1.9731 -2.9585 0.9735
5.9454 -0.9349 -2.9602 0.9735
6.0092 -0.4022 -2.9623 0.9735
6.0266 0.1343 -2.9649 0.9735
6.0101 0.6724 -2.9745 0.9734
5.9480 1.2090 -2.9854 0.9733
5.8168 1.7336 -2.9854 0.9733
5.6394 2.2444 -2.9854 0.9733
4.8460 3.6546 -2.9854 0.9733
4.1213 4.4559 -2.9854 0.9733
3.7083 4.8051 -2.9854 0.9733
3.2659 5.1161 -2.9854 0.9733
1.7983 5.7971 -2.9854 0.9733
1.2752 5.9342 -2.9854 0.9733
0.7419 6.0241 -2.9854 0.9733
0.2028 6.0662 -2.9854 0.9733
-0.8760 6.0061 -2.9854 0.9733
-4.2196 4.3630 -2.9854 0.9733
-4.9263 3.5457 -2.9854 0.9733
-5.8540 1.6036 -2.9854 0.9733
-5.6163 -1.5384 -2.9854 0.9742
-5.4571 -2.0322 -2.9854 0.9742
-4.7263 -3.4017 -2.9854 0.9742
-3.6596 -4.5295 -2.9854 0.9742
-2.3329 -5.3354 -2.9854 0.9742
-1.3500 -5.6645 -2.9854 0.9742
-0.8404 -5.7622 -2.9854 0.9742
0.7118 -5.7795 -2.9854 0.9742
1.2234 -5.6932 -2.9854 0.9742
1.7252 -5.5617 -2.9854 0.9742
2.6840 -5.1677 -2.9854 0.9742
4.3188 -3.9061 -2.9854 0.9742
4.6493 -3.5062 -2.9854 0.9742
5.1735 -2.6143 -2.9717 0.9743
5.6667 -1.1518 -2.9646 0.9743
5.7523 -0.6435 -2.9675 0.9743
5.8061 0.3887 -2.9833 0.9742
5.6491 1.4130 -2.9854 0.9742
5.3091 2.3922 -2.9854 0.9742
5.0751 2.8552 -2.9854 0.9742
4.1405 4.0946 -2.9854 0.9742
1.9713 5.4794 -2.9854 0.9742
1.4758 5.6331 -2.9854 0.9742
-0.5829 5.7940 -2.9854 0.9742
-1.6009 5.5988 -2.9854 0.9742
-2.5683 5.2263 -2.9854 0.9742
-3.4542 4.6881 -2.9854 0.9742
-4.5700 3.6089 -2.9854 0.9742
-5.5422 1.7871 -2.9854 0.9742
-5.7712 0.7762 -2.9854 0.9742
-5.8174 0.2594 -2.9854 0.9742
-5.6792 -1.2867 -2.9854 0.9742
-5.3611 -2.2733 -2.9854 0.9742
-5.1375 -2.7414 -2.9854 0.9742
-2.5683 -5.2262 -2.9854 0.9742
-2.0929 -5.4341 -2.9854 0.9742
-1.6009 -5.5988 -2.9854 0.9742
-0.0649 -5.8228 -2.9854 0.9742
0.4536 -5.8055 -2.9854 0.9742
0.9686 -5.7421 -2.9854 0.9742
2.9116 -5.0430 -2.9854 0.9742
3.3489 -4.7639 -2.9854 0.9742
3.7596 -4.4469 -2.9854 0.9742
4.4885 -3.7098 -2.9854 0.9742
4.7984 -3.2939 -2.9838 0.9742
5.0595 -2.8464 -2.9762 0.9742
5.2784 -2.3782 -2.9681 0.9743
5.4625 -1.8968 -2.9645 0.9743
5.6086 -1.4028 -2.9640 0.9743
5.7806 -0.3870 -2.9702 0.9743
5.8100 0.1295 -2.9794 0.9742
5.7065 1.1599 -2.9854 0.9742
4.6493 3.5062 -2.9854 0.9742
4.3188 3.9061 -2.9854 0.9742
3.5578 4.6100 -2.9854 0.9742
1.7252 5.5618 -2.9854 0.9742
1.2234 5.6932 -2.9854 0.9742
-2.3329 5.3355 -2.9854 0.9742
-4.0482 4.1858 -2.9854 0.9742
-5.6163 1.5385 -2.9854 0.9742
-5.7309 1.0325 -2.9854 0.9742
-5.8001 0.5183 -2.9854 0.9742
-5.5700 -0.4977 -2.9854 0.9750
-5.5036 -0.9915 -2.9854 0.9750
-5.3935 -1.4774 -2.9854 0.9750
-5.2406 -1.9516 -2.9854 0.9750
-5.0461 -2.4103 -2.9854 0.9750
-4.8116 -2.8499 -2.9854 0.9750
-3.8877 -4.0198 -2.9854 0.9750
-3.1134 -4.6454 -2.9854 0.9750
-2.6875 -4.9041 -2.9854 0.9750
-2.2404 -5.1238 -2.9854 0.9750
-1.2964 -5.4399 -2.9854 0.9750
-0.8071 -5.5337 -2.9854 0.9750
1.6568 -5.3411 -2.9854 0.9750
2.1256 -5.1725 -2.9854 0.9750
3.4167 -4.4271 -2.9854 0.9750
3.7971 -4.1054 -2.9854 0.9750
4.1475 -3.7512 -2.9854 0.9750
4.4649 -3.3671 -2.9854 0.9750
4.9897 -2.5214 -2.9845 0.9750
5.1891 -2.0651 -2.9815 0.9750
5.3492 -1.5942 -2.9797 0.9750
5.4708 -1.1120 -2.9803 0.9750
5.5523 -0.6212 -2.9825 0.9750
5.5797 0.3735 -2.9854 0.9750
5.4251 1.3569 -2.9854 0.9750
5.0985 2.2973 -2.9854 0.9750
4.6104 3.1649 -2.9854 0.9750
3.9762 3.9323 -2.9854 0.9750
3.2160 4.5749 -2.9854 0.9750
1.8931 5.2621 -2.9854 0.9750
1.4172 5.4097 -2.9854 0.9750
0.4356 5.5752 -2.9854 0.9750
-0.5598 5.5641 -2.9854 0.9750
-1.5375 5.3767 -2.9854 0.9750
-2.0099 5.2186 -2.9854 0.9750
-2.9033 4.7795 -2.9854 0.9750
-3.7048 4.1890 -2.9854 0.9750
-5.3224 1.7163 -2.9854 0.9750
-5.4540 1.2357 -2.9854 0.9750
-5.5423 0.7454 -2.9854 0.9750
-5.5867 0.2491 -2.9854 0.9750
-5.5867 -0.2491 -2.9854 0.9750
-5.5423 -0.7454 -2.9854 0.9750
-5.3224 -1.7162 -2.9854 0.9750
-4.9337 -2.6327 -2.9854 0.9750
-4.6798 -3.0614 -2.9854 0.9750
-4.0629 -3.8426 -2.9854 0.9750
-3.7048 -4.1890 -2.9854 0.9750
-3.3172 -4.5021 -2.9854 0.9750
-2.0099 -5.2185 -2.9854 0.9750
-1.5375 -5.3767 -2.9854 0.9750
-1.0528 -5.4922 -2.9854 0.9750
0.9301 -5.5143 -2.9854 0.9750
1.4172 -5.4096 -2.9854 0.9750
2.3539 -5.0726 -2.9854 0.9750
2.7961 -4.8430 -2.9854 0.9750
3.6105 -4.2705 -2.9854 0.9750
3.9762 -3.9322 -2.9854 0.9750
4.8738 -2.7420 -2.9854 0.9750
5.2744 -1.8315 -2.9806 0.9750
5.5908 0.1246 -2.9854 0.9750
5.4801 1.1139 -2.9854 0.9750
5.1958 2.0679 -2.9854 0.9750
4.9912 2.5222 -2.9854 0.9750
4.7469 2.9564 -2.9854 0.9750
4.4649 3.3671 -2.9854 0.9750
2.5776 4.9628 -2.9854 0.9750
2.1256 5.1725 -2.9854 0.9750
0.6836 5.5503 -2.9854 0.9750
0.1868 5.5891 -2.9854 0.9750
-3.1134 4.6454 -2.9854 0.9750
-3.5145 4.3499 -2.9854 0.9750
-3.8877 4.0198 -2.9854 0.9750
-4.2300 3.6579 -2.9854 0.9750
-5.3935 1.4775 -2.9854 0.9750
-5.5700 0.4978 -2.9854 0.9750
-5.3539 -0.4784 -2.9854 0.9757
-5.2900 -0.9530 -2.9854 0.9757
-5.0373 -1.8759 -2.9854 0.9757
-4.8503 -2.3168 -2.9854 0.9757
-4.6249 -2.7393 -2.9854 0.9757
-4.3627 -3.1400 -2.9854 0.9757
-2.9925 -4.4651 -2.9854 0.9757
-1.7065 -5.0971 -2.9854 0.9757
-1.2461 -5.2288 -2.9854 0.9757
-0.2993 -5.3669 -2.9854 0.9757
0.1796 -5.3722 -2.9854 0.9757
0.6570 -5.3349 -2.9854 0.9757
1.5925 -5.1339 -2.9854 0.9757
2.8923 -4.5307 -2.9854 0.9757
3.2841 -4.2553 -2.9854 0.9757
3.9865 -3.6056 -2.9854 0.9757
4.2916 -3.2364 -2.9854 0.9757
4.5626 -2.8416 -2.9854 0.9757
5.1513 -1.5352 -2.9854 0.9757
5.3739 -0.1197 -2.9854 0.9757
5.3100 0.8350 -2.9854 0.9757
5.0778 1.7632 -2.9854 0.9757
4.6847 2.6356 -2.9854 0.9757
3.8220 3.7796 -2.9854 0.9757
3.4704 4.1048 -2.9854 0.9757
2.6876 4.6551 -2.9854 0.9757
2.2626 4.8758 -2.9854 0.9757
1.8196 5.0579 -2.9854 0.9757
1.3622 5.1997 -2.9854 0.9757
0.8940 5.3004 -2.9854 0.9757
0.4187 5.3589 -2.9854 0.9757
-0.0599 5.3749 -2.9854 0.9757
-0.5381 5.3482 -2.9854 0.9757
-1.0119 5.2791 -2.9854 0.9757
-1.4778 5.1681 -2.9854 0.9757
-1.9319 5.0161 -2.9854 0.9757
-2.7907 4.5941 -2.9854 0.9757
-3.1885 4.3275 -2.9854 0.9757
-3.9052 3.6935 -2.9854 0.9757
-4.4982 2.9426 -2.9854 0.9757
-4.7423 2.5306 -2.9854 0.9757
-4.9487 2.0984 -2.9854 0.9757
-5.2424 1.1878 -2.9854 0.9757
-5.3273 0.7165 -2.9854 0.9757
-5.3699 0.2395 -2.9854 0.9757
-5.1158 -1.6496 -2.9854 0.9757
-4.9487 -2.0984 -2.9854 0.9757
-4.7423 -2.5305 -2.9854 0.9757
-4.4982 -2.9426 -2.9854 0.9757
-4.2185 -3.3313 -2.9854 0.9757
-3.9052 -3.6935 -2.9854 0.9757
-3.5610 -4.0264 -2.9854 0.9757
-2.3707 -4.8242 -2.9854 0.9757
-1.9319 -5.0160 -2.9854 0.9757
-1.4778 -5.1681 -2.9854 0.9757
0.8940 -5.3003 -2.9854 0.9757
1.3622 -5.1997 -2.9854 0.9757
1.8196 -5.0578 -2.9854 0.9757
2.6876 -4.6550 -2.9854 0.9757
3.4704 -4.1048 -2.9854 0.9757
3.8219 -3.7796 -2.9854 0.9757
4.1432 -3.4244 -2.9854 0.9757
4.4315 -3.0421 -2.9854 0.9757
4.9007 -2.2081 -2.9854 0.9757
5.2146 -1.3042 -2.9854 0.9757
5.3419 0.5976 -2.9854 0.9757
5.1513 1.5353 -2.9854 0.9757
4.9942 1.9877 -2.9854 0.9757
4.5626 2.8417 -2.9854 0.9757
4.2916 3.2365 -2.9854 0.9757
3.9865 3.6056 -2.9854 0.9757
3.6498 3.9461 -2.9854 0.9757
3.2841 4.2553 -2.9854 0.9757
2.8923 4.5307 -2.9854 0.9757
2.4776 4.7702 -2.9854 0.9757
2.0431 4.9718 -2.9854 0.9757
0.6570 5.3349 -2.9854 0.9757
0.1796 5.3722 -2.9854 0.9757
-0.2993 5.3669 -2.9854 0.9757
-0.7758 5.3189 -2.9854 0.9757
-1.7065 5.0971 -2.9854 0.9757
-2.1534 4.9250 -2.9854 0.9757
-5.1842 1.4201 -2.9854 0.9757
-5.2901 0.9531 -2.9854 0.9757
-5.3539 0.4784 -2.9854 0.9757
-5.0889 -0.9168 -2.9854 0.9764
-4.9871 -1.3661 -2.9854 0.9764
-4.8457 -1.8046 -2.9854 0.9764
-4.6659 -2.2287 -2.9854 0.9764
-4.1968 -3.0206 -2.9854 0.9764
-3.2496 -4.0221 -2.9854 0.9764
-2.8787 -4.2954 -2.9854 0.9764
-2.4850 -4.5345 -2.9854 0.9764
-1.6416 -4.9033 -2.9854 0.9764
-0.2879 -5.1628 -2.9854 0.9764
0.6321 -5.1320 -2.9854 0.9764
1.9655 -4.7827 -2.9854 0.9764
3.8349 -3.4685 -2.9854 0.9764
4.1284 -3.1134 -2.9854 0.9764
4.3892 -2.7336 -2.9854 0.9764
4.6150 -2.3321 -2.9854 0.9764
4.8043 -1.9120 -2.9854 0.9764
5.0672 -1.0299 -2.9854 0.9764
5.1592 0.3454 -2.9854 0.9764
5.0163 1.2547 -2.9854 0.9764
4.8847 1.6962 -2.9854 0.9764
4.7143 2.1242 -2.9854 0.9764
4.5066 2.5354 -2.9854 0.9764
2.9737 4.2302 -2.9854 0.9764
2.1766 4.6904 -2.9854 0.9764
1.7504 4.8655 -2.9854 0.9764
0.8600 5.0988 -2.9854 0.9764
0.4028 5.1551 -2.9854 0.9764
-1.8584 4.8253 -2.9854 0.9764
-2.2805 4.6408 -2.9854 0.9764
-3.0672 4.1629 -2.9854 0.9764
-3.4256 3.8734 -2.9854 0.9764
-3.7567 3.5531 -2.9854 0.9764
-4.0581 3.2046 -2.9854 0.9764
-4.3272 2.8307 -2.9854 0.9764
-4.5620 2.4343 -2.9854 0.9764
-4.7606 2.0187 -2.9854 0.9764
-5.1247 0.6892 -2.9854 0.9764
-5.1657 -0.2303 -2.9854 0.9764
-5.0430 -1.1426 -2.9854 0.9764
-4.9213 -1.5869 -2.9854 0.9764
-4.7605 -2.0186 -2.9854 0.9764
-4.5620 -2.4343 -2.9854 0.9764
-4.0581 -3.2046 -2.9854 0.9764
-3.4256 -3.8733 -2.9854 0.9764
-3.0672 -4.1628 -2.9854 0.9764
-0.9735 -5.0783 -2.9854 0.9764
-0.0576 -5.1705 -2.9854 0.9764
0.4028 -5.1551 -2.9854 0.9764
0.8600 -5.0988 -2.9854 0.9764
1.7504 -4.8655 -2.9854 0.9764
2.1766 -4.6904 -2.9854 0.9764
2.5854 -4.4780 -2.9854 0.9764
3.3384 -3.9487 -2.9854 0.9764
3.9856 -3.2942 -2.9854 0.9764
4.2630 -2.9264 -2.9854 0.9764
4.7143 -2.1242 -2.9854 0.9764
4.8847 -1.6961 -2.9854 0.9764
5.0163 -1.2547 -2.9854 0.9764
5.1080 -0.8032 -2.9854 0.9764
5.1592 -0.3454 -2.9854 0.9764
5.1695 0.1152 -2.9854 0.9764
5.1387 0.5749 -2.9854 0.9764
5.0672 1.0300 -2.9854 0.9764
4.9554 1.4769 -2.9854 0.9764
4.8043 1.9121 -2.9854 0.9764
4.6150 2.3321 -2.9854 0.9764
3.5110 3.7961 -2.9854 0.9764
3.1592 4.0935 -2.9854 0.9764
2.7823 4.3584 -2.9854 0.9764
2.3833 4.5888 -2.9854 0.9764
1.9655 4.7827 -2.9854 0.9764
1.5320 4.9387 -2.9854 0.9764
0.1728 5.1679 -2.9854 0.9764
-0.2879 5.1628 -2.9854 0.9764
-1.1987 5.0300 -2.9854 0.9764
-1.6416 4.9033 -2.9854 0.9764
-2.8787 4.2954 -2.9854 0.9764
-3.2496 4.0221 -2.9854 0.9764
-3.5947 3.7169 -2.9854 0.9764
-3.9113 3.3822 -2.9854 0.9764
-4.4490 2.6351 -2.9854 0.9764
-4.6659 2.2287 -2.9854 0.9764
-4.9871 1.3661 -2.9854 0.9764
-5.0889 0.9168 -2.9854 0.9764
-5.1503 0.4603 -2.9854 0.9764
