ply
format ascii 1.0
element vertex 1626
property float32 x
property float32 y
property float32 z
property float32 I
end_header
-0.9224 -6.3245 3.5498 0.9712
-0.9464 -6.4891 3.5008 0.9707
-0.9803 -6.7214 3.4823 0.9699
5.6186 9.7317 5.5271 0.9511
3.0256 9.7536 5.0229 0.9555
2.0817 9.6876 4.8737 0.9568
-1.0542 -7.2278 3.4431 0.9682
-1.0919 -7.4866 3.4138 0.9673
6.9786 9.9272 5.4754 0.9481
-1.1966 -8.2047 3.2542 0.9650
-1.2334 -8.4572 3.1914 0.9642
5.5968 9.6940 3.5549 0.9541
6.8199 9.7014 3.5503 0.9517
4.4898 9.6752 3.1932 0.9564
5.0634 9.7488 3.2888 0.9552
2.5307 9.6595 2.8095 0.9594
2.9907 9.6411 2.8401 0.9589
9.8655 9.7562 3.6560 0.9442
2.5370 9.6836 2.6377 0.9594
1.6239 9.6269 2.5725 0.9604
9.0550 9.7901 3.5139 0.9463
10.7873 9.7566 3.5752 0.9418
8.9658 4.0398 1.2323 0.9611
9.4802 3.2919 1.0885 0.9604
8.5944 3.8725 1.0225 0.9628
8.3957 3.7829 0.8442 0.9637
8.6088 4.8432 0.9056 0.9611
8.6029 3.4239 0.8489 0.9635
8.3412 4.2150 0.8568 0.9632
8.8082 3.0585 0.6987 0.9633
8.3061 4.6729 0.7142 0.9625
9.7823 2.9154 0.7649 0.9599
8.1939 4.1406 0.6880 0.9638
8.1604 3.6769 0.5213 0.9648
9.0972 2.7113 0.3947 0.9627
8.4540 5.2652 0.4141 0.9609
8.9602 2.6704 0.2332 0.9633
8.2014 3.2641 0.2201 0.9653
7.9325 4.0085 0.2216 0.9651
8.2247 5.1224 0.2416 0.9620
7.9815 3.5963 0.0728 0.9656
7.8897 3.9869 0.0735 0.9653
8.3966 2.9156 -0.0739 0.9651
7.9427 3.5788 -0.0724 0.9658
7.8503 4.4165 -0.0749 0.9646
7.9296 3.5729 -0.2169 0.9658
8.8054 2.6243 -0.2291 0.9639
7.8354 3.9594 -0.2189 0.9655
8.3646 2.9045 -0.3682 0.9652
7.9167 3.5671 -0.3610 0.9658
8.7850 2.6182 -0.3812 0.9640
7.8217 3.9525 -0.3644 0.9655
8.3725 2.9072 -0.5162 0.9651
7.8280 4.4040 -0.5231 0.9647
8.0956 3.2220 -0.5075 0.9657
7.8277 3.9555 -0.5108 0.9655
8.0192 4.9944 -0.5502 0.9629
8.3887 2.9129 -0.6655 0.9650
7.9348 3.5753 -0.6522 0.9657
8.8196 2.6285 -0.6897 0.9638
8.4209 2.9241 -0.8172 0.9648
8.8689 2.6432 -0.8484 0.9635
8.1338 3.2372 -0.8026 0.9654
7.8674 3.9756 -0.8081 0.9652
8.4730 2.9421 -0.9729 0.9646
8.1786 3.2550 -0.9548 0.9652
8.2225 5.1210 -1.0507 0.9618
8.5412 2.9658 -1.1330 0.9642
9.0794 2.7060 -1.1873 0.9625
8.5943 5.3526 -1.2688 0.9600
8.6401 3.0002 -1.3009 0.9637
8.3167 3.3100 -1.2732 0.9645
8.0503 4.0680 -1.2829 0.9642
8.7773 3.0478 -1.4795 0.9631
8.2265 3.7067 -1.4368 0.9641
8.2954 4.6669 -1.5156 0.9622
8.3619 3.7677 -1.6172 0.9634
8.7814 4.9403 -1.7766 0.9599
8.5687 3.4102 -1.6261 0.9632
8.3069 4.1977 -1.6411 0.9629
-5.8750 -13.4365 -2.8379 0.9420
-4.6439 -13.8705 -2.8306 0.9421
-2.1024 -14.4152 -2.8191 0.9424
-0.8087 -14.5038 -2.8111 0.9425
0.4843 -14.4854 -2.8047 0.9427
1.7689 -14.3624 -2.8004 0.9427
-1.4560 -14.4730 -2.8149 0.9425
-0.1616 -14.5075 -2.8076 0.9426
2.4055 -14.2611 -2.7988 0.9428
8.8086 3.5057 -1.8347 0.9621
-14.2583 0.0000 -3.0059 0.9434
-14.2017 -1.2690 -3.0059 0.9434
-12.8659 -6.1455 -3.0059 0.9434
-10.7851 -9.3262 -3.0059 0.9434
-9.4103 -9.7302 -2.8537 0.9462
-7.5465 -11.2601 -2.8577 0.9461
-6.5170 -11.8920 -2.8589 0.9461
-3.1233 -13.1059 -2.8404 0.9464
-0.7463 -13.3837 -2.8259 0.9467
1.6328 -13.2577 -2.8161 0.9469
2.9450 -13.7051 -2.9553 0.9443
4.1417 -13.3517 -2.9471 0.9445
5.3167 -12.9376 -2.9488 0.9444
6.4506 -12.4197 -2.9504 0.9444
7.5351 -11.8036 -2.9523 0.9444
8.5617 -11.0937 -2.9543 0.9443
11.2160 -8.4584 -2.9616 0.9442
11.9353 -7.4334 -2.9643 0.9441
13.5118 -4.0269 -2.9724 0.9440
13.8223 -2.8095 -2.9736 0.9440
14.1289 -0.3148 -2.9794 0.9439
13.7501 3.4391 -2.9881 0.9437
13.4027 4.6539 -2.9910 0.9437
12.9477 5.8340 -2.9939 0.9436
10.1319 10.0197 -3.0041 0.9434
8.1998 11.6645 -3.0059 0.9434
4.8268 13.4164 -3.0059 0.9434
3.6135 13.7928 -3.0059 0.9434
1.0545 13.4942 -2.8535 0.9462
-1.3566 13.4845 -2.8571 0.9461
-2.5514 13.3105 -2.8572 0.9461
-3.7261 13.0310 -2.8573 0.9461
-8.0417 10.9143 -2.8581 0.9461
-9.8513 9.3173 -2.8586 0.9461
-10.6400 8.4023 -2.8582 0.9461
-12.1826 6.5009 -2.9111 0.9451
-13.1269 5.5663 -3.0059 0.9434
-13.9058 3.1507 -3.0059 0.9434
-14.1310 1.9005 -3.0059 0.9434
-14.2441 0.6352 -3.0059 0.9434
-14.2441 -0.6351 -3.0059 0.9434
-13.9058 -3.1506 -3.0059 0.9434
-13.5702 -4.3758 -3.0059 0.9434
-12.5793 -6.7125 -3.0059 0.9434
-10.0152 -9.4722 -2.9062 0.9452
-8.9709 -10.1435 -2.8548 0.9461
-7.0395 -11.5885 -2.8585 0.9461
-4.7475 -12.3265 -2.7847 0.9474
-0.1495 -13.4127 -2.8278 0.9466
2.2189 -13.1545 -2.8124 0.9469
3.5424 -13.5211 -2.9467 0.9445
4.7333 -13.1566 -2.9477 0.9444
5.8893 -12.6912 -2.9496 0.9444
8.0562 -11.4601 -2.9532 0.9443
9.0508 -10.7053 -2.9554 0.9443
11.5869 -7.9540 -2.9629 0.9442
12.2605 -6.8976 -2.9657 0.9441
12.8384 -5.7847 -2.9687 0.9441
13.3151 -4.6235 -2.9715 0.9440
14.1358 0.3150 -2.9808 0.9438
12.6808 6.4079 -2.9953 0.9436
12.0710 7.5179 -2.9980 0.9435
11.3637 8.5698 -3.0006 0.9435
10.5642 9.5548 -3.0030 0.9434
8.7113 11.2876 -3.0059 0.9434
7.6721 12.0182 -3.0059 0.9434
5.4197 13.1881 -3.0059 0.9434
4.2244 13.6181 -3.0059 0.9434
0.4523 13.5278 -2.8535 0.9462
-3.1419 13.1838 -2.8572 0.9461
-4.3030 12.8524 -2.8574 0.9461
-8.5203 10.5457 -2.8582 0.9461
-11.6484 6.8994 -2.8541 0.9462
-12.8659 6.1455 -3.0059 0.9434
-13.3618 4.9760 -3.0059 0.9434
-14.0324 2.5281 -3.0059 0.9434
-14.2017 1.2691 -3.0059 0.9434
-13.1698 0.0000 -3.0059 0.9474
-10.6890 -7.6934 -3.0059 0.9474
-7.8572 -9.7250 -2.8536 0.9500
-5.0166 -11.4733 -2.8581 0.9499
-3.9764 -11.8769 -2.8587 0.9499
-1.8050 -12.3758 -2.8546 0.9500
-0.6973 -12.5060 -2.8589 0.9499
0.4183 -12.5112 -2.8572 0.9499
2.7354 -12.7296 -2.9718 0.9480
3.8287 -12.3428 -2.9496 0.9484
5.9611 -11.4772 -2.9519 0.9483
6.9636 -10.9083 -2.9538 0.9483
9.6199 -8.7007 -2.9605 0.9482
10.3646 -7.8163 -2.9629 0.9481
11.0274 -6.8679 -2.9652 0.9481
11.6024 -5.8629 -2.9671 0.9481
12.9601 -1.4498 -2.9765 0.9479
12.9179 2.0313 -2.9847 0.9478
11.9549 5.3866 -2.9928 0.9476
11.4377 6.4348 -2.9954 0.9476
10.1315 8.3739 -3.0001 0.9475
8.4978 10.0512 -3.0041 0.9474
7.5739 10.7740 -3.0059 0.9474
3.3377 12.7399 -3.0059 0.9474
0.9739 12.4641 -2.8535 0.9500
-0.1395 12.5199 -2.8578 0.9499
-1.2532 12.4567 -2.8575 0.9499
-3.4421 12.0377 -2.8576 0.9499
-4.5000 11.6841 -2.8578 0.9499
-6.5012 10.7024 -2.8581 0.9499
-9.1000 8.6068 -2.8589 0.9499
-9.8220 7.7564 -2.8565 0.9499
-12.5343 4.0418 -3.0059 0.9474
-13.0523 1.7554 -3.0059 0.9474
-12.5343 -4.0418 -3.0059 0.9474
-11.6190 -6.2001 -3.0059 0.9474
-11.0211 -7.2097 -3.0059 0.9474
-8.4108 -9.5101 -2.8977 0.9492
-6.4966 -10.6948 -2.8561 0.9500
-5.5216 -11.2360 -2.8575 0.9499
-4.5014 -11.6876 -2.8586 0.9499
-2.3504 -12.2616 -2.8496 0.9501
-1.2537 -12.4625 -2.8589 0.9499
2.0943 -12.4162 -2.8739 0.9497
4.3755 -12.1618 -2.9500 0.9484
5.4426 -11.7285 -2.9512 0.9483
6.4681 -11.2031 -2.9526 0.9483
9.2192 -9.1171 -2.9594 0.9482
11.8554 -5.3418 -2.9679 0.9480
13.0553 0.2909 -2.9805 0.9478
12.8206 2.6059 -2.9861 0.9477
12.1776 4.8466 -2.9915 0.9476
11.1443 6.9407 -2.9966 0.9476
9.7519 8.8201 -3.0012 0.9475
8.9342 9.6596 -3.0032 0.9474
8.0463 10.4260 -3.0059 0.9474
6.0703 11.6874 -3.0059 0.9474
2.7668 12.8759 -3.0059 0.9474
1.5282 12.4084 -2.8535 0.9500
0.4178 12.4951 -2.8535 0.9500
-0.6971 12.5008 -2.8576 0.9499
-3.9750 11.8727 -2.8577 0.9499
-6.9717 10.4026 -2.8582 0.9499
-9.4707 8.1896 -2.8577 0.9499
-10.1535 7.3081 -2.8553 0.9500
-11.8837 5.6764 -3.0059 0.9474
-12.3418 4.5961 -3.0059 0.9474
-12.7019 3.4794 -3.0059 0.9474
-12.9611 2.3351 -3.0059 0.9474
-13.1175 1.1722 -3.0059 0.9474
-11.4603 -4.2678 -3.0059 0.9509
-9.9255 -7.1439 -3.0059 0.9509
-9.2503 -7.9990 -3.0059 0.9509
-8.5016 -8.7906 -3.0059 0.9509
-6.4631 -9.6436 -2.8535 0.9533
-2.6950 -11.3086 -2.8575 0.9532
-1.6780 -11.5055 -2.8580 0.9532
0.3882 -11.6124 -2.8559 0.9533
1.4191 -11.5222 -2.8536 0.9533
3.5661 -11.4959 -2.9585 0.9516
5.5388 -10.6640 -2.9537 0.9517
6.4689 -10.1334 -2.9551 0.9517
10.2377 -6.3761 -2.9646 0.9515
10.7728 -5.4437 -2.9668 0.9515
11.2235 -4.4668 -2.9692 0.9515
12.0345 -1.3462 -2.9765 0.9513
12.1168 -0.2701 -2.9791 0.9513
11.4890 3.9895 -2.9894 0.9511
9.4032 7.7720 -2.9986 0.9510
8.6799 8.5837 -3.0006 0.9510
7.0329 10.0045 -3.0059 0.9509
4.1399 11.5071 -3.0059 0.9509
3.0993 11.8299 -3.0059 0.9509
1.9309 11.4474 -2.8535 0.9533
0.9044 11.5739 -2.8535 0.9533
-0.1296 11.6275 -2.8582 0.9532
-1.1638 11.5684 -2.8579 0.9532
-2.1888 11.4188 -2.8578 0.9532
-3.1966 11.1790 -2.8579 0.9532
-6.8985 9.3627 -2.8586 0.9532
-7.7051 8.7123 -2.8588 0.9532
-10.7892 5.7573 -3.0059 0.9509
-11.9269 2.7023 -3.0059 0.9509
-12.2170 -0.5447 -3.0059 0.9509
-12.1200 -1.6300 -3.0059 0.9509
-11.9269 -2.7022 -3.0059 0.9509
-10.7892 -5.7573 -3.0059 0.9509
-10.2339 -6.6947 -3.0059 0.9509
-8.8848 -8.4031 -3.0059 0.9509
-8.1016 -9.1606 -3.0059 0.9509
-7.0283 -9.5387 -2.9123 0.9524
-6.0282 -9.9237 -2.8540 0.9533
-5.1233 -10.4255 -2.8553 0.9533
0.9048 -11.5790 -2.8548 0.9533
3.0617 -11.6864 -2.9695 0.9515
6.0096 -10.4089 -2.9543 0.9517
9.9398 -6.8233 -2.9635 0.9516
10.5156 -5.9160 -2.9657 0.9515
11.9576 -1.8802 -2.9753 0.9514
12.0876 -0.8091 -2.9778 0.9513
12.0606 1.3492 -2.9830 0.9512
11.6504 3.4722 -2.9882 0.9512
10.8681 5.4919 -2.9931 0.9511
10.3441 6.4424 -2.9954 0.9510
9.7367 7.3428 -2.9976 0.9510
9.0507 8.1859 -2.9996 0.9510
8.2914 8.9646 -3.0015 0.9509
6.5803 10.3079 -3.0059 0.9509
2.5692 11.9562 -3.0059 0.9509
0.3879 11.6027 -2.8535 0.9533
-0.6473 11.6090 -2.8579 0.9532
-1.6779 11.5049 -2.8578 0.9532
-5.5885 10.1976 -2.8583 0.9532
-7.3090 9.0465 -2.8587 0.9532
-8.0840 8.3588 -2.8583 0.9532
-10.5220 6.2322 -3.0059 0.9509
-11.7946 3.2309 -3.0059 0.9509
-12.0354 2.1683 -3.0059 0.9509
-12.1806 1.0885 -3.0059 0.9509
-11.4077 0.0000 -3.0059 0.9539
-10.6904 -3.9811 -3.0059 0.9539
-10.2937 -4.9168 -3.0059 0.9539
-9.2588 -6.6640 -3.0059 0.9539
-8.6289 -7.4617 -3.0059 0.9539
-7.9305 -8.2001 -3.0059 0.9539
-7.1692 -8.8734 -3.0059 0.9539
-6.3510 -9.4763 -3.0059 0.9539
-5.2527 -9.5849 -2.8800 0.9558
-4.3391 -9.9236 -2.8539 0.9562
-3.4396 -10.2736 -2.8548 0.9562
-2.5122 -10.5414 -2.8555 0.9562
-1.5642 -10.7248 -2.8559 0.9562
0.3620 -10.8266 -2.8544 0.9562
3.3376 -10.7593 -2.9684 0.9545
4.2618 -10.3705 -2.9544 0.9547
5.1697 -9.9535 -2.9554 0.9547
6.0376 -9.4577 -2.9566 0.9546
6.8587 -8.8870 -2.9580 0.9546
8.3353 -7.5388 -2.9614 0.9546
8.9791 -6.7714 -2.9634 0.9545
9.5526 -5.9494 -2.9654 0.9545
10.4713 -4.1675 -2.9697 0.9545
10.8088 -3.2214 -2.9719 0.9544
11.0612 -2.2483 -2.9742 0.9544
11.2265 -1.2559 -2.9766 0.9543
11.1869 1.7591 -2.9840 0.9542
10.9948 2.7500 -2.9864 0.9542
10.7149 3.7206 -2.9888 0.9542
9.3718 6.4334 -2.9953 0.9541
8.7678 7.2468 -2.9973 0.9540
8.0930 8.0033 -2.9992 0.9540
7.3651 8.7115 -3.0059 0.9539
6.5605 9.3325 -3.0059 0.9539
4.8019 10.3478 -3.0059 0.9539
3.8618 10.7341 -3.0059 0.9539
2.8911 11.0352 -3.0059 0.9539
0.8445 10.8073 -2.8564 0.9561
-0.1209 10.8480 -2.8586 0.9561
-1.0857 10.7925 -2.8582 0.9561
-2.0420 10.6528 -2.8581 0.9561
-4.7844 9.7359 -2.8584 0.9561
-6.4356 8.7345 -2.8588 0.9561
-7.8741 7.4473 -2.8558 0.9562
-8.4998 6.7122 -2.8538 0.9562
-10.0644 5.3705 -3.0059 0.9539
-10.5025 4.4534 -3.0059 0.9539
-10.8572 3.5010 -3.0059 0.9539
-11.3963 0.5082 -3.0059 0.9539
-11.3963 -0.5082 -3.0059 0.9539
-11.3059 -1.5205 -3.0059 0.9539
-11.1257 -2.5207 -3.0059 0.9539
-10.5025 -4.4534 -3.0059 0.9539
-10.0644 -5.3705 -3.0059 0.9539
-9.5465 -6.2450 -3.0059 0.9539
-8.2879 -7.8387 -3.0059 0.9539
-7.5574 -8.5452 -3.0059 0.9539
-4.7762 -9.7191 -2.8535 0.9562
-0.1207 -10.8348 -2.8551 0.9562
1.8974 -11.2487 -3.0059 0.9539
3.8028 -10.5701 -2.9600 0.9546
5.6091 -9.7152 -2.9560 0.9547
7.9888 -7.9003 -2.9605 0.9546
11.1549 -1.7540 -2.9754 0.9544
11.2759 -0.7548 -2.9779 0.9543
11.3077 0.2520 -2.9803 0.9543
11.1020 2.2566 -2.9852 0.9542
10.8657 3.2384 -2.9876 0.9542
9.0790 6.8468 -2.9963 0.9541
6.9697 9.0309 -3.0059 0.9539
4.3362 10.5514 -3.0059 0.9539
3.3798 10.8955 -3.0059 0.9539
1.3245 10.7541 -2.8551 0.9562
0.3619 10.8233 -2.8535 0.9562
-2.5145 10.5514 -2.8581 0.9561
-3.4438 10.2860 -2.8582 0.9561
-5.2135 9.5134 -2.8585 0.9561
-8.1953 7.0867 -2.8549 0.9562
-8.9327 6.4294 -2.9000 0.9555
-9.8152 5.8136 -3.0059 0.9539
-11.2269 2.0226 -3.0059 0.9539
-11.3624 1.0154 -3.0059 0.9539
-10.6837 0.0000 -3.0059 0.9566
-10.6413 -0.9509 -3.0059 0.9566
-8.6712 -6.2411 -3.0059 0.9566
-7.4272 -7.6797 -3.0059 0.9566
-5.9479 -8.8749 -3.0059 0.9566
-5.1344 -9.3690 -3.0059 0.9566
-2.3512 -9.8661 -2.8536 0.9587
-0.5647 -10.1275 -2.8539 0.9587
1.3059 -10.6035 -3.0059 0.9566
3.1529 -10.1639 -2.9941 0.9567
4.8441 -9.3266 -2.9569 0.9573
6.4263 -8.3268 -2.9594 0.9572
7.1455 -7.7256 -2.9609 0.9572
8.4117 -6.3435 -2.9642 0.9572
8.9485 -5.5732 -2.9661 0.9571
9.4154 -4.7578 -2.9681 0.9571
9.8084 -3.9036 -2.9702 0.9571
10.1243 -3.0173 -2.9723 0.9571
10.3604 -2.1058 -2.9746 0.9570
10.5858 -0.2359 -2.9791 0.9570
10.5729 0.7078 -2.9814 0.9569
10.4760 1.6473 -2.9837 0.9569
10.0329 3.4838 -2.9882 0.9568
9.2693 5.2148 -2.9924 0.9568
7.5965 7.5123 -3.0059 0.9566
6.8977 8.1586 -3.0059 0.9566
6.1441 8.7402 -3.0059 0.9566
4.4971 9.6911 -3.0059 0.9566
3.6167 10.0529 -3.0059 0.9566
2.7076 10.3349 -3.0059 0.9566
1.6871 10.0022 -2.8539 0.9587
-1.0169 10.1085 -2.8584 0.9587
-1.9125 9.9775 -2.8583 0.9587
-2.7931 9.7679 -2.8584 0.9587
-6.0253 8.1776 -2.8579 0.9587
-7.3712 6.9717 -2.8546 0.9587
-8.1159 6.4091 -2.9096 0.9579
-8.9406 5.8487 -3.0059 0.9566
-9.4257 5.0297 -3.0059 0.9566
-9.8359 4.1708 -3.0059 0.9566
-10.6731 0.4759 -3.0059 0.9566
-10.6731 -0.4759 -3.0059 0.9566
-10.1681 -3.2788 -3.0059 0.9566
-9.4257 -5.0297 -3.0059 0.9566
-4.7052 -9.5747 -3.0016 0.9566
-2.7883 -9.7512 -2.8535 0.9587
-1.0154 -10.0930 -2.8541 0.9587
-0.1131 -10.1522 -2.8566 0.9587
1.7770 -10.5348 -3.0059 0.9566
2.7076 -10.3348 -3.0059 0.9566
4.4231 -9.5315 -2.9564 0.9573
6.0476 -8.6029 -2.9587 0.9572
6.7925 -8.0342 -2.9601 0.9572
8.1183 -6.7099 -2.9633 0.9572
9.1910 -5.1708 -2.9671 0.9571
9.6213 -4.3352 -2.9691 0.9571
10.4479 -1.6428 -2.9757 0.9570
10.5607 -0.7069 -2.9780 0.9570
10.5349 1.1785 -2.9826 0.9569
10.1744 3.0323 -2.9871 0.9568
8.4998 6.4100 -2.9953 0.9567
7.9002 7.1453 -2.9971 0.9567
6.5274 8.4578 -3.0059 0.9566
5.7487 9.0052 -3.0059 0.9566
4.9244 9.4811 -3.0059 0.9566
3.1653 10.2040 -3.0059 0.9566
1.2404 10.0716 -2.8551 0.9587
0.3394 10.1505 -2.8575 0.9587
-1.4662 10.0529 -2.8584 0.9587
-2.3551 9.8825 -2.8584 0.9587
-3.2255 9.6340 -2.8585 0.9587
-7.6720 6.6342 -2.8537 0.9587
-8.6712 6.2412 -3.0059 0.9566
-9.1923 5.4446 -3.0059 0.9566
-9.6404 4.6048 -3.0059 0.9566
-10.6413 0.9509 -3.0059 0.9566
-10.0405 0.0000 -3.0059 0.9589
-9.8814 -1.7802 -3.0059 0.9589
-9.6837 -2.6526 -3.0059 0.9589
-9.4092 -3.5040 -3.0059 0.9589
-9.0600 -4.3276 -3.0059 0.9589
-8.6388 -5.1168 -3.0059 0.9589
-8.1491 -5.8654 -3.0059 0.9589
-7.5947 -6.5674 -3.0059 0.9589
-6.9801 -7.2173 -3.0059 0.9589
-5.5898 -8.3405 -3.0059 0.9589
-4.0224 -9.1995 -3.0059 0.9589
-3.1877 -9.5210 -3.0059 0.9589
-0.5466 -9.8032 -2.9394 0.9598
4.5546 -8.7691 -2.9583 0.9596
5.3189 -8.3320 -2.9594 0.9596
7.3414 -6.6399 -2.9635 0.9595
8.8506 -4.4724 -2.9688 0.9594
9.8822 -1.1055 -2.9770 0.9593
9.6745 2.4198 -2.9856 0.9592
9.1046 4.1024 -2.9897 0.9592
8.7090 4.8996 -2.9916 0.9591
8.2434 5.6588 -2.9934 0.9591
7.1391 7.0600 -3.0059 0.9589
5.7742 8.2140 -3.0059 0.9589
5.0202 8.6953 -3.0059 0.9589
2.5446 9.7127 -3.0059 0.9589
1.5855 9.3994 -2.8537 0.9610
0.7431 9.5105 -2.8559 0.9610
-0.1064 9.5457 -2.8580 0.9609
-0.9558 9.5008 -2.8587 0.9609
-1.7975 9.3776 -2.8586 0.9609
-5.6599 7.6817 -2.8566 0.9609
-6.3179 7.1438 -2.8551 0.9610
-8.4024 5.4966 -3.0059 0.9589
-8.8582 4.7269 -3.0059 0.9589
-9.5560 3.0814 -3.0059 0.9589
-9.7923 2.2186 -3.0059 0.9589
-10.0305 0.4473 -3.0059 0.9589
-10.0305 -0.4472 -3.0059 0.9589
-9.7923 -2.2186 -3.0059 0.9589
-9.5559 -3.0814 -3.0059 0.9589
-9.2438 -3.9197 -3.0059 0.9589
-8.4023 -5.4965 -3.0059 0.9589
-7.8798 -6.2226 -3.0059 0.9589
-7.2946 -6.8992 -3.0059 0.9589
-6.6516 -7.5211 -3.0059 0.9589
-5.2127 -8.5813 -3.0059 0.9589
-3.6086 -9.3696 -3.0059 0.9589
-1.8499 -9.6505 -2.9418 0.9598
-0.9769 -9.7106 -2.9219 0.9601
-0.1108 -9.9502 -2.9791 0.9593
0.7822 -10.0099 -3.0059 0.9589
1.6700 -9.9006 -3.0059 0.9589
3.3829 -9.4029 -2.9917 0.9591
4.9415 -8.5590 -2.9588 0.9596
5.6859 -8.0884 -2.9600 0.9596
6.3861 -7.5535 -2.9613 0.9595
8.1679 -5.6069 -2.9660 0.9595
8.6398 -4.8607 -2.9678 0.9595
9.0440 -4.0750 -2.9698 0.9594
9.3771 -3.2561 -2.9718 0.9594
9.9252 -0.6644 -2.9781 0.9593
9.9522 0.2218 -2.9802 0.9593
9.7692 1.9857 -2.9845 0.9592
9.2752 3.6915 -2.9887 0.9592
8.4847 5.2844 -2.9925 0.9591
7.9855 6.0222 -2.9943 0.9591
7.4465 6.7350 -3.0059 0.9589
6.8175 7.3711 -3.0059 0.9589
6.1344 7.9486 -3.0059 0.9589
5.4026 8.4630 -3.0059 0.9589
4.6279 8.9103 -3.0059 0.9589
2.9747 9.5897 -3.0059 0.9589
-1.3780 9.4484 -2.8586 0.9609
-3.0315 9.0546 -2.8587 0.9609
-4.5886 8.3732 -2.8585 0.9609
-6.6281 6.8534 -2.8543 0.9610
-8.1491 5.8654 -3.0059 0.9589
-9.0600 4.3276 -3.0059 0.9589
-9.8814 1.7802 -3.0059 0.9589
-8.1437 -4.8235 -3.0059 0.9611
-7.6820 -5.5292 -3.0059 0.9611
-6.5800 -6.8036 -3.0059 0.9611
-3.0050 -8.9753 -3.0059 0.9611
-2.1942 -9.2071 -3.0059 0.9611
-1.3660 -9.3658 -3.0059 0.9611
-0.5270 -9.4502 -3.0059 0.9611
0.3163 -9.4596 -3.0059 0.9611
1.1570 -9.3940 -3.0059 0.9611
1.9885 -9.2537 -3.0059 0.9611
2.8042 -9.0400 -3.0059 0.9611
4.3033 -8.2854 -2.9651 0.9616
5.0160 -7.8574 -2.9605 0.9616
5.6977 -7.3827 -2.9617 0.9616
6.9228 -6.2613 -2.9644 0.9616
7.9319 -4.9400 -2.9676 0.9615
9.3162 -1.0422 -2.9771 0.9614
9.3784 -0.2090 -2.9792 0.9614
9.2795 1.4591 -2.9832 0.9613
9.1189 2.2808 -2.9852 0.9613
8.8855 3.0854 -2.9872 0.9613
8.5811 3.8665 -2.9891 0.9613
8.2079 4.6177 -2.9909 0.9612
7.7688 5.3330 -2.9927 0.9612
7.2938 6.0286 -3.0052 0.9611
6.1108 7.2279 -3.0059 0.9611
5.4432 7.7432 -3.0059 0.9611
4.7325 8.1969 -3.0059 0.9611
3.2041 8.9061 -3.0059 0.9611
2.3987 9.1560 -3.0059 0.9611
1.4945 8.8599 -2.8535 0.9630
-0.1002 8.9958 -2.8571 0.9629
-0.9010 8.9556 -2.8585 0.9629
-1.6946 8.8407 -2.8588 0.9629
-2.4748 8.6548 -2.8588 0.9629
-5.3333 7.2385 -2.8554 0.9630
-7.4281 5.8659 -3.0059 0.9611
-8.3505 4.4559 -3.0059 0.9611
-9.0082 2.9048 -3.0059 0.9611
-9.2310 2.0915 -3.0059 0.9611
-9.4556 0.4216 -3.0059 0.9611
-9.3805 -1.2615 -3.0059 0.9611
-8.7139 -3.6950 -3.0059 0.9611
-8.3505 -4.4559 -3.0059 0.9611
-7.4281 -5.8659 -3.0059 0.9611
-6.8765 -6.5037 -3.0059 0.9611
-6.2704 -7.0900 -3.0059 0.9611
-5.6144 -7.6199 -3.0059 0.9611
-4.9139 -8.0894 -3.0059 0.9611
-4.1744 -8.4947 -3.0059 0.9611
-3.4018 -8.8325 -3.0059 0.9611
-2.6022 -9.1002 -3.0059 0.9611
-0.9474 -9.4174 -3.0059 0.9611
0.7373 -9.4362 -3.0059 0.9611
1.5743 -9.3331 -3.0059 0.9611
2.3987 -9.1559 -3.0059 0.9611
3.2041 -8.9061 -3.0059 0.9611
6.0222 -7.1231 -2.9623 0.9616
7.7017 -5.2869 -2.9668 0.9616
8.8409 -3.0699 -2.9722 0.9615
9.3566 -0.6263 -2.9782 0.9614
9.3321 1.0440 -2.9822 0.9614
9.2084 1.8717 -2.9842 0.9613
9.0112 2.6856 -2.9862 0.9613
8.4029 4.2462 -2.9900 0.9613
7.5257 5.6754 -2.9935 0.9612
7.0197 6.3490 -3.0059 0.9611
6.4267 6.9485 -3.0059 0.9611
4.3626 8.3996 -3.0059 0.9611
2.8042 9.0400 -3.0059 0.9611
1.9885 9.2537 -3.0059 0.9611
1.0986 8.9203 -2.8544 0.9630
0.3005 8.9887 -2.8562 0.9630
-0.5010 8.9847 -2.8578 0.9629
-4.3237 7.8897 -2.8572 0.9629
-7.6821 5.5292 -3.0059 0.9611
-8.8699 3.3032 -3.0059 0.9611
-9.1287 2.5006 -3.0059 0.9611
-9.4274 0.8424 -3.0059 0.9611
-8.9112 -0.7963 -3.0059 0.9630
-8.0730 -3.8561 -3.0059 0.9630
-7.6977 -4.5594 -3.0059 0.9630
-6.2197 -6.4311 -3.0059 0.9630
-4.9809 -7.4319 -3.0059 0.9630
-4.2996 -7.8458 -3.0059 0.9630
-3.5842 -8.1973 -3.0059 0.9630
-2.8404 -8.4838 -3.0059 0.9630
-2.0740 -8.7029 -3.0059 0.9630
0.2989 -8.9417 -3.0059 0.9630
1.0936 -8.8796 -3.0059 0.9630
2.6507 -8.5450 -3.0059 0.9630
3.4007 -8.2751 -3.0059 0.9630
4.0767 -7.8491 -2.9716 0.9634
5.9899 -6.4762 -2.9639 0.9635
6.5455 -5.9201 -2.9652 0.9634
7.8895 -3.9868 -2.9700 0.9634
8.2179 -3.2706 -2.9717 0.9634
8.4816 -2.5278 -2.9735 0.9633
8.8649 -0.1975 -2.9792 0.9633
8.3978 2.9160 -2.9868 0.9632
8.1098 3.6541 -2.9886 0.9632
7.3427 5.0405 -2.9923 0.9631
6.8960 5.6998 -3.0059 0.9630
5.1452 7.3192 -3.0059 0.9630
4.4733 7.7481 -3.0059 0.9630
3.7659 8.1154 -3.0059 0.9630
2.2674 8.6546 -3.0059 0.9630
1.4399 8.5361 -2.9085 0.9641
0.6619 8.4706 -2.8546 0.9648
-0.8513 8.4620 -2.8574 0.9647
-3.0567 7.9364 -2.8574 0.9647
-3.7498 7.6306 -2.8566 0.9648
-4.4125 7.2640 -2.8556 0.9648
-5.0395 6.8396 -2.8544 0.9648
-6.5000 6.1476 -3.0059 0.9630
-7.0213 5.5447 -3.0059 0.9630
-8.2368 3.4927 -3.0059 0.9630
-8.8669 1.1925 -3.0059 0.9630
-8.8669 -1.1925 -3.0059 0.9630
-8.7255 -1.9769 -3.0059 0.9630
-8.5150 -2.7457 -3.0059 0.9630
-7.8932 -4.2119 -3.0059 0.9630
-7.0214 -5.5447 -3.0059 0.9630
-5.9270 -6.7017 -3.0059 0.9630
-4.6449 -7.6464 -3.0059 0.9630
-3.9458 -8.0295 -3.0059 0.9630
-0.8955 -8.9017 -3.0059 0.9630
-0.0997 -8.9461 -3.0059 0.9630
0.6970 -8.9195 -3.0059 0.9630
1.4881 -8.8220 -3.0059 0.9630
2.2674 -8.6546 -3.0059 0.9630
3.7468 -8.0742 -2.9906 0.9631
4.4153 -7.6475 -2.9669 0.9634
5.0702 -7.2124 -2.9621 0.9635
6.2738 -6.2043 -2.9646 0.9635
6.8044 -5.6240 -2.9660 0.9634
7.2817 -4.9986 -2.9675 0.9634
7.7019 -4.3330 -2.9691 0.9634
8.5884 -2.1481 -2.9744 0.9633
8.7511 -1.3760 -2.9763 0.9633
8.7034 1.7691 -2.9840 0.9632
8.2621 3.2882 -2.9877 0.9632
7.5568 4.7065 -2.9911 0.9631
6.6353 6.0013 -3.0059 0.9630
6.0748 6.5681 -3.0059 0.9630
5.4661 7.0827 -3.0059 0.9630
4.1237 7.9396 -3.0059 0.9630
1.8796 8.7470 -3.0059 0.9630
1.0383 8.4301 -2.8538 0.9648
-0.4734 8.4898 -2.8568 0.9648
-1.9721 8.2754 -2.8582 0.9647
-4.7308 7.0588 -2.8550 0.9648
-6.1445 6.3534 -2.9696 0.9634
-6.7674 5.8520 -3.0059 0.9630
-8.0730 3.8562 -3.0059 0.9630
-8.3842 3.1223 -3.0059 0.9630
-8.6288 2.3637 -3.0059 0.9630
-8.4773 0.0000 -3.0059 0.9647
-8.4436 -0.7545 -3.0059 0.9647
-8.3430 -1.5030 -3.0059 0.9647
-8.1761 -2.2396 -3.0059 0.9647
-5.8934 -6.0936 -3.0059 0.9647
-5.3276 -6.5940 -3.0059 0.9647
-4.0740 -7.4341 -3.0059 0.9647
-1.9652 -8.2463 -3.0059 0.9647
-1.2234 -8.3885 -3.0059 0.9647
-0.4720 -8.4641 -3.0059 0.9647
1.0362 -8.4137 -3.0059 0.9647
1.7810 -8.2880 -3.0059 0.9647
3.2223 -7.8410 -3.0059 0.9647
3.8890 -7.4876 -2.9918 0.9648
5.6772 -6.1381 -2.9647 0.9651
7.1071 -4.4263 -2.9689 0.9651
7.4769 -3.7782 -2.9705 0.9651
7.7878 -3.0995 -2.9721 0.9651
8.0374 -2.3954 -2.9738 0.9650
8.3448 -0.9335 -2.9774 0.9650
8.3883 0.5616 -2.9810 0.9649
8.3101 1.3067 -2.9829 0.9649
8.1657 2.0424 -2.9846 0.9649
7.6831 3.4618 -2.9881 0.9649
7.3485 4.1342 -2.9897 0.9648
6.5342 5.4007 -3.0059 0.9647
5.4731 6.4737 -3.0059 0.9647
2.8698 7.9768 -3.0059 0.9647
0.6270 8.0241 -2.8539 0.9664
-0.0897 8.0520 -2.8553 0.9664
-0.8063 8.0151 -2.8564 0.9664
-1.5168 7.9132 -2.8570 0.9664
-2.8952 7.5171 -2.8563 0.9664
-6.1589 5.8251 -3.0059 0.9647
-6.6530 5.2538 -3.0059 0.9647
-7.4791 3.9910 -3.0059 0.9647
-8.0682 2.6017 -3.0059 0.9647
-8.4016 1.1299 -3.0059 0.9647
-8.4689 0.3776 -3.0059 0.9647
-8.0682 -2.6016 -3.0059 0.9647
-7.8046 -3.3094 -3.0059 0.9647
-7.0942 -4.6408 -3.0059 0.9647
-5.6161 -6.3501 -3.0059 0.9647
-3.7388 -7.6082 -3.0059 0.9647
4.1936 -7.2636 -2.9740 0.9650
4.8083 -6.8398 -2.9646 0.9651
5.3970 -6.3836 -2.9641 0.9651
5.9462 -5.8804 -2.9653 0.9651
7.2992 -4.1065 -2.9697 0.9651
7.9204 -2.7503 -2.9730 0.9650
8.2924 -1.3039 -2.9765 0.9650
8.2461 1.6761 -2.9838 0.9649
8.0690 2.4048 -2.9855 0.9649
7.8275 3.1153 -2.9873 0.9649
7.5233 3.8017 -2.9889 0.9649
7.1627 4.4607 -2.9921 0.9648
6.2872 5.6864 -3.0059 0.9647
5.1793 6.7111 -3.0059 0.9647
4.5615 7.1454 -3.0059 0.9647
3.9074 7.5231 -3.0059 0.9647
3.2223 7.8410 -3.0059 0.9647
1.7810 8.2881 -3.0059 0.9647
0.2690 8.0461 -2.8546 0.9664
-0.4484 8.0417 -2.8559 0.9664
-3.2267 7.3797 -2.8559 0.9664
-4.4810 6.6862 -2.8540 0.9664
-5.1261 6.3446 -2.8922 0.9660
-6.8804 4.9522 -3.0059 0.9647
-7.6494 3.6538 -3.0059 0.9647
-8.1761 2.2397 -3.0059 0.9647
-8.3430 1.5031 -3.0059 0.9647
-8.4436 0.7546 -3.0059 0.9647
-8.0180 -0.7165 -3.0059 0.9662
-7.9224 -1.4273 -3.0059 0.9662
-7.7639 -2.1267 -3.0059 0.9662
-7.5438 -2.8093 -3.0059 0.9662
-7.2638 -3.4696 -3.0059 0.9662
-6.9262 -4.1024 -3.0059 0.9662
-6.5335 -4.7025 -3.0059 0.9662
-5.5963 -5.7864 -3.0059 0.9662
-5.0590 -6.2616 -3.0059 0.9662
-4.4816 -6.6870 -3.0059 0.9662
-3.8687 -7.0593 -3.0059 0.9662
-2.5557 -7.6334 -3.0059 0.9662
-1.1618 -7.9656 -3.0059 0.9662
-0.4482 -8.0374 -3.0059 0.9662
0.2690 -8.0454 -3.0059 0.9662
2.3850 -7.6884 -3.0059 0.9662
3.0598 -7.4457 -3.0059 0.9662
3.7104 -7.1438 -3.0059 0.9662
6.3461 -4.7858 -2.9680 0.9666
6.7501 -4.2040 -2.9694 0.9666
7.3961 -2.9436 -2.9725 0.9666
7.6329 -2.2749 -2.9741 0.9666
7.8095 -1.5873 -2.9758 0.9665
7.9244 -0.8865 -2.9775 0.9665
7.9765 -0.1777 -2.9792 0.9665
7.9652 0.5332 -2.9810 0.9665
7.8907 1.2408 -2.9827 0.9665
7.7534 1.9393 -2.9844 0.9665
7.5542 2.6231 -2.9861 0.9664
7.2947 3.2868 -2.9877 0.9664
6.9832 3.9284 -2.9920 0.9664
6.2048 5.1285 -3.0059 0.9662
4.6295 6.5855 -3.0059 0.9662
3.3885 7.3020 -3.0059 0.9662
2.0401 7.7871 -3.0059 0.9662
1.3389 7.9378 -3.0059 0.9662
0.5953 7.6186 -2.8535 0.9679
-0.0852 7.6438 -2.8545 0.9679
-0.7654 7.6084 -2.8554 0.9679
-1.4398 7.5114 -2.8559 0.9679
-3.9675 6.5315 -2.8536 0.9679
-4.6613 6.3263 -2.9343 0.9670
-5.8485 5.5314 -3.0059 0.9662
-7.6614 2.4705 -3.0059 0.9662
-7.8509 1.7788 -3.0059 0.9662
-8.0419 0.3586 -3.0059 0.9662
-7.9781 -1.0729 -3.0059 0.9662
-7.1020 -3.7897 -3.0059 0.9662
-6.7365 -4.4068 -3.0059 0.9662
-6.3176 -4.9889 -3.0059 0.9662
-4.7750 -6.4807 -3.0059 0.9662
-3.5503 -7.2247 -3.0059 0.9662
-2.2131 -7.7397 -3.0059 0.9662
0.6271 -8.0254 -3.0059 0.9662
2.7251 -7.5746 -3.0059 0.9662
3.3885 -7.3020 -3.0059 0.9662
4.5755 -6.5087 -2.9709 0.9666
5.1263 -6.0634 -2.9649 0.9667
5.6478 -5.5852 -2.9661 0.9667
6.5545 -4.4994 -2.9687 0.9666
7.8747 -1.2382 -2.9767 0.9665
7.9583 -0.5327 -2.9784 0.9665
7.9359 0.8878 -2.9818 0.9665
7.4319 2.9578 -2.9869 0.9664
6.4271 4.8470 -3.0059 0.9662
5.9702 5.3998 -3.0059 0.9662
5.4659 5.9097 -3.0059 0.9662
4.9182 6.3728 -3.0059 0.9662
4.3315 6.7852 -3.0059 0.9662
2.3850 7.6885 -3.0059 0.9662
1.6912 7.8703 -3.0059 0.9662
0.2554 7.6384 -2.8539 0.9679
-0.4257 7.6338 -2.8550 0.9679
-1.1037 7.5676 -2.8557 0.9679
-3.6733 6.7028 -2.8541 0.9679
-4.2544 6.3480 -2.8535 0.9679
-5.5962 5.7865 -3.0059 0.9662
-6.0891 5.2654 -3.0059 0.9662
-7.5438 2.8094 -3.0059 0.9662
-7.7639 2.1268 -3.0059 0.9662
-8.0180 0.7165 -3.0059 0.9662
-7.6286 -0.6817 -3.0059 0.9676
-6.2162 -4.4742 -3.0059 0.9676
-5.3244 -5.5054 -3.0059 0.9676
-4.8133 -5.9575 -3.0059 0.9676
-3.6808 -6.7165 -3.0059 0.9676
-3.0684 -7.0175 -3.0059 0.9676
-1.7755 -7.4503 -3.0059 0.9676
-1.1054 -7.5788 -3.0059 0.9676
0.2559 -7.6547 -3.0059 0.9676
0.9362 -7.6015 -3.0059 0.9676
2.9112 -7.0841 -3.0059 0.9676
4.1086 -6.4361 -2.9968 0.9677
5.1322 -5.5489 -2.9665 0.9680
5.6073 -5.0715 -2.9673 0.9680
6.4233 -4.0005 -2.9699 0.9680
6.7571 -3.4145 -2.9713 0.9680
7.0378 -2.8010 -2.9728 0.9680
7.2629 -2.1646 -2.9744 0.9680
7.4307 -1.5104 -2.9760 0.9679
7.5783 0.5073 -2.9809 0.9679
7.5071 1.1805 -2.9825 0.9679
7.1866 2.4955 -2.9857 0.9678
6.9406 3.1273 -2.9877 0.9678
6.6741 3.7548 -3.0055 0.9676
6.3143 4.3346 -3.0059 0.9676
5.9035 4.8794 -3.0059 0.9676
5.4458 5.3855 -3.0059 0.9676
4.9448 5.8488 -3.0059 0.9676
4.4046 6.2657 -3.0059 0.9676
3.2239 6.9474 -3.0059 0.9676
2.5928 7.2068 -3.0059 0.9676
-0.0810 7.2706 -2.8537 0.9692
-0.7280 7.2366 -2.8545 0.9692
-1.3694 7.1441 -2.8549 0.9692
-5.0739 5.7372 -3.0059 0.9676
-6.0108 4.7467 -3.0059 0.9676
-7.5906 1.0208 -3.0059 0.9676
-7.5906 -1.0208 -3.0059 0.9676
-7.4697 -1.6924 -3.0059 0.9676
-7.0512 -2.9900 -3.0059 0.9676
-6.7571 -3.6057 -3.0059 0.9676
-5.5644 -5.2628 -3.0059 0.9676
-4.5432 -6.1660 -3.0059 0.9676
-2.1056 -7.3638 -3.0059 0.9676
-0.7666 -7.6205 -3.0059 0.9676
-0.0853 -7.6584 -3.0059 0.9676
0.5967 -7.6357 -3.0059 0.9676
3.2239 -6.9474 -3.0059 0.9676
3.8295 -6.6328 -3.0059 0.9676
4.3669 -6.2120 -2.9802 0.9679
4.8858 -5.7789 -2.9700 0.9680
5.3747 -5.3152 -2.9667 0.9680
6.2373 -4.2816 -2.9692 0.9680
7.1574 -2.4853 -2.9736 0.9680
7.3541 -1.8394 -2.9752 0.9680
7.5502 0.8446 -2.9817 0.9679
6.8040 3.4382 -2.9920 0.9678
6.5012 4.0490 -3.0059 0.9676
6.1150 4.6116 -3.0059 0.9676
5.6803 5.1375 -3.0059 0.9676
5.2005 5.6227 -3.0059 0.9676
4.6794 6.0633 -3.0059 0.9676
4.1211 6.4557 -3.0059 0.9676
3.5302 6.7969 -3.0059 0.9676
2.9112 7.0841 -3.0059 0.9676
0.9362 7.6015 -3.0059 0.9676
0.2429 7.2666 -2.8535 0.9692
-0.4049 7.2609 -2.8541 0.9692
-1.6863 7.0762 -2.8549 0.9692
-2.9133 6.6629 -2.8540 0.9692
-4.8133 5.9575 -3.0059 0.9676
-5.3245 5.5054 -3.0059 0.9676
-5.7933 5.0097 -3.0059 0.9676
-6.2162 4.4742 -3.0059 0.9676
-6.5898 3.9031 -3.0059 0.9676
-6.9110 3.3011 -3.0059 0.9676
-7.5376 1.3580 -3.0059 0.9676
-7.2708 -0.6497 -3.0059 0.9689
-7.1842 -1.2943 -3.0059 0.9689
-6.8408 -2.5475 -3.0059 0.9689
-6.5870 -3.1463 -3.0059 0.9689
-6.2808 -3.7201 -3.0059 0.9689
-5.9247 -4.2643 -3.0059 0.9689
-5.5217 -4.7747 -3.0059 0.9689
-5.0748 -5.2473 -3.0059 0.9689
-4.5876 -5.6781 -3.0059 0.9689
-3.5082 -6.4016 -3.0059 0.9689
-1.0535 -7.2234 -3.0059 0.9689
-0.4064 -7.2885 -3.0059 0.9689
0.2439 -7.2957 -3.0059 0.9689
2.1628 -6.9720 -3.0059 0.9689
2.7747 -6.7519 -3.0059 0.9689
3.9279 -6.1529 -3.0059 0.9689
4.4291 -5.7390 -2.9852 0.9691
5.7568 -4.3414 -2.9691 0.9693
6.4411 -3.2548 -2.9717 0.9693
6.7084 -2.6699 -2.9732 0.9692
6.9229 -2.0632 -2.9746 0.9692
7.0827 -1.4396 -2.9762 0.9692
7.2333 -0.1612 -2.9793 0.9692
7.2227 0.4835 -2.9808 0.9692
7.1548 1.1251 -2.9824 0.9692
7.0299 1.7583 -2.9839 0.9691
6.3621 3.5793 -3.0059 0.9689
5.6267 4.6506 -3.0059 0.9689
3.6499 6.3218 -3.0059 0.9689
2.4712 6.8688 -3.0059 0.9689
1.8500 7.0615 -3.0059 0.9689
1.2142 7.1981 -3.0059 0.9689
0.5687 7.2776 -3.0059 0.9689
-0.0780 7.0026 -2.8837 0.9702
-0.6937 6.8952 -2.8536 0.9705
-1.3048 6.8070 -2.8540 0.9705
-3.0954 6.2990 -2.8901 0.9701
-5.7289 4.5241 -3.0059 0.9689
-6.1088 3.9962 -3.0059 0.9689
-6.7206 2.8498 -3.0059 0.9689
-7.1194 1.6130 -3.0059 0.9689
-7.2347 0.9730 -3.0059 0.9689
-7.2926 -0.3252 -3.0059 0.9689
-7.2347 -0.9729 -3.0059 0.9689
-6.7206 -2.8497 -3.0059 0.9689
-4.8360 -5.4681 -3.0059 0.9689
-3.2195 -6.5515 -3.0059 0.9689
-2.6236 -6.8120 -3.0059 0.9689
-2.0069 -7.0185 -3.0059 0.9689
-0.7307 -7.2631 -3.0059 0.9689
-0.0813 -7.2993 -3.0059 0.9689
0.5687 -7.2776 -3.0059 0.9689
1.2142 -7.1981 -3.0059 0.9689
3.0727 -6.6216 -3.0059 0.9689
3.6499 -6.3218 -3.0059 0.9689
4.1898 -5.9600 -3.0000 0.9690
4.6643 -5.5170 -2.9749 0.9692
5.1283 -5.0715 -2.9700 0.9693
5.5566 -4.5926 -2.9685 0.9693
6.2883 -3.5377 -2.9710 0.9693
6.8224 -2.3690 -2.9739 0.9692
7.0097 -1.7532 -2.9754 0.9692
7.2170 -0.4831 -2.9785 0.9692
7.2352 0.1612 -2.9801 0.9692
7.1959 0.8050 -2.9816 0.9692
7.0994 1.4430 -2.9832 0.9691
6.9463 2.0702 -2.9847 0.9691
5.4139 4.8966 -3.0059 0.9689
4.9566 5.3590 -3.0059 0.9689
4.4599 5.7789 -3.0059 0.9689
3.9279 6.1530 -3.0059 0.9689
0.8923 7.2451 -3.0059 0.9689
0.2412 7.2134 -2.9720 0.9693
-0.3858 6.9190 -2.8535 0.9705
-4.5876 5.6781 -3.0059 0.9689
-5.0748 5.2473 -3.0059 0.9689
-6.5870 3.1463 -3.0059 0.9689
-7.2708 0.6497 -3.0059 0.9689
-6.9409 -0.6202 -3.0059 0.9701
-6.8581 -1.2355 -3.0059 0.9701
-6.7209 -1.8410 -3.0059 0.9701
-6.5304 -2.4319 -3.0059 0.9701
-6.2880 -3.0035 -3.0059 0.9701
-5.9957 -3.5513 -3.0059 0.9701
-3.8796 -5.7887 -3.0059 0.9701
-2.2124 -6.6080 -3.0059 0.9701
-1.6154 -6.7787 -3.0059 0.9701
-1.0057 -6.8955 -3.0059 0.9701
-0.3880 -6.9577 -3.0059 0.9701
2.6488 -6.4455 -3.0059 0.9701
3.7496 -5.8737 -3.0059 0.9701
4.6903 -5.0711 -2.9797 0.9704
5.1118 -4.6227 -2.9731 0.9704
5.8460 -3.6409 -2.9708 0.9704
6.1495 -3.1075 -2.9721 0.9704
6.4046 -2.5490 -2.9735 0.9704
6.6092 -1.9697 -2.9749 0.9704
6.9050 -0.1539 -2.9793 0.9704
6.8298 1.0739 -2.9823 0.9703
6.7104 1.6784 -2.9837 0.9703
6.5468 2.2733 -2.9894 0.9703
6.3533 2.8627 -3.0059 0.9701
5.7451 3.9438 -3.0059 0.9701
4.9548 4.9000 -3.0059 0.9701
4.4990 5.3215 -3.0059 0.9701
4.0075 5.7009 -3.0059 0.9701
3.4842 6.0349 -3.0059 0.9701
2.9333 6.3211 -3.0059 0.9701
2.3590 6.5571 -3.0059 0.9701
0.5429 6.9473 -3.0059 0.9701
-0.6713 6.6725 -2.8927 0.9712
-2.4203 6.2842 -2.9048 0.9711
-3.0734 6.2542 -3.0059 0.9701
-4.1336 5.6101 -3.0059 0.9701
-4.6165 5.2200 -3.0059 0.9701
-5.0628 4.7884 -3.0059 0.9701
-5.4689 4.3187 -3.0059 0.9701
-6.4156 2.7204 -3.0059 0.9701
-6.9616 0.3104 -3.0059 0.9701
-6.9063 -0.9288 -3.0059 0.9701
-6.6322 -2.1386 -3.0059 0.9701
-6.4156 -2.7204 -3.0059 0.9701
-6.1480 -3.2806 -3.0059 0.9701
-5.8316 -3.8148 -3.0059 0.9701
-5.4689 -4.3187 -3.0059 0.9701
-5.0628 -4.7883 -3.0059 0.9701
-4.6165 -5.2200 -3.0059 0.9701
-4.1336 -5.6101 -3.0059 0.9701
-3.0734 -6.2542 -3.0059 0.9701
-1.9158 -6.7000 -3.0059 0.9701
-1.3119 -6.8439 -3.0059 0.9701
-0.0777 -6.9681 -3.0059 0.9701
0.5429 -6.9473 -3.0059 0.9701
1.1590 -6.8714 -3.0059 0.9701
3.4842 -6.0349 -3.0059 0.9701
4.0075 -5.7008 -3.0059 0.9701
4.9040 -4.8493 -2.9750 0.9704
5.6768 -3.8969 -2.9702 0.9704
6.0036 -3.3776 -2.9714 0.9704
6.2833 -2.8311 -2.9728 0.9704
6.5134 -2.2617 -2.9742 0.9704
6.6920 -1.6738 -2.9756 0.9704
6.7768 1.3775 -2.9830 0.9703
6.2195 3.1429 -3.0059 0.9701
5.9151 3.6840 -3.0059 0.9701
5.1682 4.6744 -3.0059 0.9701
4.2575 5.5167 -3.0059 0.9701
3.2119 6.1841 -3.0059 0.9701
2.6488 6.4455 -3.0059 0.9701
2.0646 6.6557 -3.0059 0.9701
0.2328 6.9646 -3.0059 0.9701
-0.9575 6.5651 -2.8618 0.9715
-2.1106 6.3040 -2.8676 0.9715
-2.7454 6.2789 -2.9560 0.9706
-3.3490 6.1110 -3.0059 0.9701
-5.6558 4.0708 -3.0059 0.9701
-5.9957 3.5513 -3.0059 0.9701
-6.8581 1.2356 -3.0059 0.9701
-6.6618 0.0000 -3.0059 0.9712
-6.5563 -1.1812 -3.0059 0.9712
-5.0391 -4.3574 -3.0059 0.9712
-4.6312 -4.7886 -3.0059 0.9712
-3.7088 -5.5339 -3.0059 0.9712
-2.6689 -6.1038 -3.0059 0.9712
-1.5444 -6.4803 -3.0059 0.9712
-0.3709 -6.6514 -3.0059 0.9712
0.2226 -6.6581 -3.0059 0.9712
0.8143 -6.6118 -3.0059 0.9712
1.3996 -6.5131 -3.0059 0.9712
3.5846 -5.6151 -3.0059 0.9712
4.5110 -4.8772 -2.9977 0.9713
4.8952 -4.4274 -2.9782 0.9715
5.5894 -3.4811 -2.9712 0.9715
6.1233 -2.4370 -2.9737 0.9715
6.4643 -1.3139 -2.9765 0.9715
6.5587 -0.7337 -2.9779 0.9715
6.5912 0.4412 -2.9807 0.9714
6.0737 2.7367 -3.0059 0.9712
5.1349 4.2441 -3.0059 0.9712
3.8312 5.4499 -3.0059 0.9712
3.3309 5.7693 -3.0059 0.9712
2.8042 6.0429 -3.0059 0.9712
1.6883 6.4443 -3.0059 0.9712
-0.6668 6.6283 -3.0059 0.9712
-1.2357 6.4465 -2.9617 0.9716
-1.8073 6.3203 -2.9661 0.9716
-4.4133 4.9902 -3.0059 0.9712
-4.8400 4.5776 -3.0059 0.9712
-5.5749 3.6469 -3.0059 0.9712
-6.3404 2.0445 -3.0059 0.9712
-6.4971 1.4721 -3.0059 0.9712
-6.6552 -0.2967 -3.0059 0.9712
-6.6024 -0.8879 -3.0059 0.9712
-6.4971 -1.4721 -3.0059 0.9712
-6.3403 -2.0445 -3.0059 0.9712
-6.1332 -2.6007 -3.0059 0.9712
-5.5749 -3.6469 -3.0059 0.9712
-4.4133 -4.9902 -3.0059 0.9712
-3.9517 -5.3632 -3.0059 0.9712
-3.4586 -5.6936 -3.0059 0.9712
-1.8315 -6.4051 -3.0059 0.9712
-0.0742 -6.6614 -3.0059 0.9712
0.5190 -6.6415 -3.0059 0.9712
1.1080 -6.5690 -3.0059 0.9712
1.6883 -6.4443 -3.0059 0.9712
2.2552 -6.2684 -3.0059 0.9712
3.3309 -5.7693 -3.0059 0.9712
5.4318 -3.7281 -2.9728 0.9715
5.7401 -3.2293 -2.9718 0.9715
6.5180 -1.0249 -2.9772 0.9715
6.6027 0.1472 -2.9800 0.9714
6.4828 1.3173 -2.9850 0.9714
6.3571 1.8946 -2.9931 0.9713
6.1896 2.4634 -3.0059 0.9712
5.9458 3.0045 -3.0059 0.9712
5.6548 3.5218 -3.0059 0.9712
4.5234 4.8907 -3.0059 0.9712
4.0701 5.2739 -3.0059 0.9712
3.0706 5.9120 -3.0059 0.9712
2.5322 6.1618 -3.0059 0.9712
1.9737 6.3627 -3.0059 0.9712
1.3996 6.5131 -3.0059 0.9712
-0.3709 6.6515 -3.0059 0.9712
-0.9534 6.5370 -2.9808 0.9714
-3.7088 5.5339 -3.0059 0.9712
-4.1867 5.1819 -3.0059 0.9712
-4.6312 4.7887 -3.0059 0.9712
-5.0391 4.3575 -3.0059 0.9712
-6.0113 2.8713 -3.0059 0.9712
-6.2430 2.3249 -3.0059 0.9712
-6.5563 1.1812 -3.0059 0.9712
-6.6354 0.5929 -3.0059 0.9712
-6.3516 -0.5676 -3.0059 0.9722
-6.2759 -1.1306 -3.0059 0.9722
-5.9760 -2.2254 -3.0059 0.9722
-4.4332 -4.5838 -3.0059 0.9722
-4.0076 -4.9602 -3.0059 0.9722
-3.0646 -5.5922 -3.0059 0.9722
-2.5547 -5.8428 -3.0059 0.9722
-1.4783 -6.2032 -3.0059 0.9722
0.2131 -6.3733 -3.0059 0.9722
1.3397 -6.2346 -3.0059 0.9722
1.8893 -6.0906 -3.0059 0.9722
3.4313 -5.3750 -3.0059 0.9722
4.3299 -4.6815 -3.0059 0.9722
4.7114 -4.2613 -2.9945 0.9723
5.0462 -3.8055 -2.9793 0.9724
5.8619 -2.3330 -2.9740 0.9725
6.0489 -1.8028 -2.9753 0.9725
6.1881 -1.2578 -2.9766 0.9725
6.2784 -0.7023 -2.9779 0.9724
6.3189 -0.1408 -2.9793 0.9724
6.1755 1.5446 -3.0007 0.9722
6.0241 2.0918 -3.0059 0.9722
5.5577 3.1267 -3.0059 0.9722
5.2574 3.6090 -3.0059 0.9722
4.1171 4.8697 -3.0059 0.9722
3.1884 5.5226 -3.0059 0.9722
2.6842 5.7844 -3.0059 0.9722
2.1587 6.0004 -3.0059 0.9722
1.6161 6.1687 -3.0059 0.9722
1.0607 6.2881 -3.0059 0.9722
0.4968 6.3575 -3.0059 0.9722
-1.2005 6.2629 -3.0059 0.9722
-1.7532 6.1312 -3.0059 0.9722
-2.2919 5.9508 -3.0059 0.9722
-3.7826 5.1339 -3.0059 0.9722
-4.2246 4.7768 -3.0059 0.9722
-4.6330 4.3819 -3.0059 0.9722
-5.0046 3.9521 -3.0059 0.9722
-5.6260 3.0022 -3.0059 0.9722
-6.2193 1.4091 -3.0059 0.9722
-6.3200 0.8500 -3.0059 0.9722
-6.3706 0.2841 -3.0059 0.9722
-6.3200 -0.8500 -3.0059 0.9722
-5.8709 -2.4895 -3.0059 0.9722
-5.6260 -3.0021 -3.0059 0.9722
-5.3365 -3.4909 -3.0059 0.9722
-4.6330 -4.3818 -3.0059 0.9722
-4.2246 -4.7768 -3.0059 0.9722
-3.7827 -5.1338 -3.0059 0.9722
-3.3107 -5.4501 -3.0059 0.9722
-2.2919 -5.9508 -3.0059 0.9722
-1.7532 -6.1312 -3.0059 0.9722
-0.6383 -6.3449 -3.0059 0.9722
-0.0711 -6.3765 -3.0059 0.9722
0.4968 -6.3575 -3.0059 0.9722
1.6161 -6.1687 -3.0059 0.9722
2.6842 -5.7844 -3.0059 0.9722
4.5288 -4.4787 -3.0024 0.9722
5.9613 -2.0700 -2.9746 0.9725
6.1246 -1.5319 -2.9759 0.9725
5.9249 2.3581 -3.0059 0.9722
5.6915 2.8761 -3.0059 0.9722
5.4129 3.3712 -3.0059 0.9722
5.0914 3.8396 -3.0059 0.9722
4.3299 4.6815 -3.0059 0.9722
3.4313 5.3750 -3.0059 0.9722
1.3397 6.2346 -3.0059 0.9722
0.2131 6.3733 -3.0059 0.9722
-0.3550 6.3670 -3.0059 0.9722
-0.9203 6.3102 -3.0059 0.9722
-1.4783 6.2032 -3.0059 0.9722
-2.5547 5.8428 -3.0059 0.9722
-3.0646 5.5922 -3.0059 0.9722
-5.4867 3.2498 -3.0059 0.9722
-5.7542 2.7485 -3.0059 0.9722
-6.0146 -1.0836 -3.0059 0.9731
-5.8943 -1.6146 -3.0059 0.9731
-5.5146 -2.6341 -3.0059 0.9731
-5.2583 -3.1145 -3.0059 0.9731
-4.9602 -3.5701 -3.0059 0.9731
-2.9370 -5.3594 -3.0059 0.9731
-1.9403 -5.7952 -3.0059 0.9731
-1.4168 -5.9449 -3.0059 0.9731
-0.8820 -6.0474 -3.0059 0.9731
-0.3403 -6.1019 -3.0059 0.9731
1.2839 -5.9750 -3.0059 0.9731
1.8106 -5.8370 -3.0059 0.9731
2.3230 -5.6527 -3.0059 0.9731
2.8169 -5.4235 -3.0059 0.9731
3.2884 -5.1512 -3.0059 0.9731
4.8618 -3.6665 -2.9951 0.9732
5.4059 -2.7317 -2.9791 0.9734
5.6263 -2.2392 -2.9785 0.9734
5.8033 -1.7296 -2.9785 0.9734
5.9359 -1.2065 -2.9793 0.9734
6.0232 -0.6738 -2.9810 0.9733
5.5719 2.5106 -3.0059 0.9731
5.3263 2.9966 -3.0059 0.9731
4.7106 3.8935 -3.0059 0.9731
0.4761 6.0928 -3.0059 0.9731
-0.0681 6.1110 -3.0059 0.9731
-0.6117 6.0807 -3.0059 0.9731
-1.1505 6.0021 -3.0059 0.9731
-2.1965 5.7031 -3.0059 0.9731
-2.6954 5.4849 -3.0059 0.9731
-4.0487 4.5779 -3.0059 0.9731
-4.4401 4.1994 -3.0059 0.9731
-4.7962 3.7875 -3.0059 0.9731
-5.1143 3.3456 -3.0059 0.9731
-5.3918 2.8771 -3.0059 0.9731
-5.6265 2.3858 -3.0059 0.9731
-5.8165 1.8756 -3.0059 0.9731
-5.9603 1.3504 -3.0059 0.9731
-6.0569 0.8146 -3.0059 0.9731
-6.1054 0.2723 -3.0059 0.9731
-6.1054 -0.2722 -3.0059 0.9731
-6.0569 -0.8146 -3.0059 0.9731
-5.8165 -1.8755 -3.0059 0.9731
-5.3918 -2.8771 -3.0059 0.9731
-5.1143 -3.3456 -3.0059 0.9731
-4.7962 -3.7875 -3.0059 0.9731
-4.4401 -4.1994 -3.0059 0.9731
-1.6802 -5.8759 -3.0059 0.9731
-1.1505 -6.0021 -3.0059 0.9731
-0.0681 -6.1110 -3.0059 0.9731
0.4761 -6.0928 -3.0059 0.9731
1.0165 -6.0262 -3.0059 0.9731
1.5488 -5.9119 -3.0059 0.9731
2.5725 -5.5436 -3.0059 0.9731
3.5146 -4.9996 -3.0059 0.9731
3.9457 -4.6670 -3.0059 0.9731
4.3454 -4.2972 -3.0059 0.9731
4.7041 -3.8880 -3.0018 0.9732
5.0080 -3.4378 -2.9878 0.9733
5.5214 -2.4881 -2.9787 0.9734
5.8752 -1.4695 -2.9788 0.9734
5.4545 2.7563 -3.0059 0.9731
4.8794 3.6798 -3.0059 0.9731
4.5325 4.0995 -3.0059 0.9731
2.8169 5.4235 -3.0059 0.9731
1.8106 5.8370 -3.0059 0.9731
1.2839 5.9750 -3.0059 0.9731
-0.3403 6.1019 -3.0059 0.9731
-0.8820 6.0474 -3.0059 0.9731
-1.9403 5.7953 -3.0059 0.9731
-3.4024 5.0767 -3.0059 0.9731
-3.8408 4.7537 -3.0059 0.9731
-4.2486 4.3930 -3.0059 0.9731
-4.6227 3.9975 -3.0059 0.9731
-4.9602 3.5701 -3.0059 0.9731
-5.2583 3.1145 -3.0059 0.9731
-5.5146 2.6341 -3.0059 0.9731
-5.7272 2.1329 -3.0059 0.9731
-5.8943 1.6146 -3.0059 0.9731
-6.0146 1.0836 -3.0059 0.9731
-5.8633 0.0000 -3.0059 0.9740
-5.2907 -2.5271 -3.0059 0.9740
-5.0448 -2.9880 -3.0059 0.9740
-4.7588 -3.4251 -3.0059 0.9740
-4.4350 -3.8351 -3.0059 0.9740
-3.6848 -4.5607 -3.0059 0.9740
-3.2643 -4.8706 -3.0059 0.9740
-2.8178 -5.1418 -3.0059 0.9740
-1.3592 -5.7035 -3.0059 0.9740
-0.8462 -5.8019 -3.0059 0.9740
-0.3264 -5.8542 -3.0059 0.9740
0.1959 -5.8600 -3.0059 0.9740
2.7025 -5.2033 -3.0059 0.9740
3.9812 -4.3044 -3.0059 0.9740
4.3485 -3.9330 -3.0059 0.9740
4.6813 -3.5303 -3.0059 0.9740
4.9657 -3.0927 -2.9992 0.9740
5.7883 -0.6475 -2.9860 0.9742
5.8433 0.3912 -3.0024 0.9740
5.1101 2.8749 -3.0059 0.9740
4.1690 4.1228 -3.0059 0.9740
3.7855 4.4775 -3.0059 0.9740
2.9316 5.0777 -3.0059 0.9740
2.4680 5.3185 -3.0059 0.9740
0.9752 5.7816 -3.0059 0.9740
0.4567 5.8455 -3.0059 0.9740
-1.1038 5.7584 -3.0059 0.9740
-2.1073 5.4715 -3.0059 0.9740
-3.8843 4.3921 -3.0059 0.9740
-4.2598 4.0289 -3.0059 0.9740
-4.9067 3.2098 -3.0059 0.9740
-5.1729 2.7603 -3.0059 0.9740
-5.3981 2.2890 -3.0059 0.9740
-5.7183 1.2956 -3.0059 0.9740
-5.8110 0.7815 -3.0059 0.9740
-5.8575 0.2612 -3.0059 0.9740
-5.8575 -0.2612 -3.0059 0.9740
-5.8110 -0.7815 -3.0059 0.9740
-5.7183 -1.2956 -3.0059 0.9740
-4.9067 -3.2098 -3.0059 0.9740
-4.2598 -4.0289 -3.0059 0.9740
-3.4780 -4.7203 -3.0059 0.9740
-3.0441 -5.0112 -3.0059 0.9740
-2.5859 -5.2622 -3.0059 0.9740
-2.1073 -5.4715 -3.0059 0.9740
-0.5869 -5.8338 -3.0059 0.9740
-0.0653 -5.8629 -3.0059 0.9740
0.9752 -5.7816 -3.0059 0.9740
2.9316 -5.0777 -3.0059 0.9740
3.3719 -4.7966 -3.0059 0.9740
3.7855 -4.4775 -3.0059 0.9740
4.8291 -3.3150 -3.0029 0.9740
5.0894 -2.8633 -2.9938 0.9741
5.3101 -2.3926 -2.9859 0.9742
5.4967 -1.9087 -2.9831 0.9742
5.6442 -1.4117 -2.9827 0.9742
5.7504 -0.9042 -2.9843 0.9742
5.8159 -0.3893 -2.9883 0.9741
5.4477 2.1681 -3.0059 0.9740
5.2331 2.6444 -3.0059 0.9740
4.3485 3.9330 -3.0059 0.9740
3.5823 4.6417 -3.0059 0.9740
2.7025 5.2033 -3.0059 0.9740
2.2287 5.4232 -3.0059 0.9740
1.7371 5.6000 -3.0059 0.9740
1.2318 5.7324 -3.0059 0.9740
0.1959 5.8600 -3.0059 0.9740
-0.3264 5.8542 -3.0059 0.9740
-0.8462 5.8019 -3.0059 0.9740
-2.3490 5.3722 -3.0059 0.9740
-2.8178 5.1418 -3.0059 0.9740
-3.2643 4.8706 -3.0059 0.9740
-3.6848 4.5607 -3.0059 0.9740
-4.4351 3.8351 -3.0059 0.9740
-4.7588 3.4252 -3.0059 0.9740
-5.2907 2.5272 -3.0059 0.9740
-5.7704 1.0396 -3.0059 0.9740
-5.6307 0.0000 -3.0059 0.9748
-5.6084 -0.5011 -3.0059 0.9748
-5.4307 -1.4876 -3.0059 0.9748
-5.0809 -2.4269 -3.0059 0.9748
-4.8447 -2.8695 -3.0059 0.9748
-4.5700 -3.2893 -3.0059 0.9748
-3.1348 -4.6774 -3.0059 0.9748
-0.3135 -5.6220 -3.0059 0.9748
0.1881 -5.6275 -3.0059 0.9748
0.6883 -5.5885 -3.0059 0.9748
1.6682 -5.3779 -3.0059 0.9748
2.1403 -5.2081 -3.0059 0.9748
2.5953 -4.9969 -3.0059 0.9748
3.4402 -4.4576 -3.0059 0.9748
4.1760 -3.7770 -3.0059 0.9748
5.2217 -2.0782 -3.0002 0.9748
5.3808 -1.6036 -2.9974 0.9749
5.5032 -1.1186 -2.9979 0.9749
5.5878 -0.6251 -3.0017 0.9748
5.6283 -0.1254 -3.0054 0.9748
5.6181 0.3761 -3.0059 0.9748
5.5624 0.8747 -3.0059 0.9748
5.3192 1.8470 -3.0059 0.9748
4.9074 2.7609 -3.0059 0.9748
4.3401 3.5872 -3.0059 0.9748
4.0036 3.9593 -3.0059 0.9748
3.6353 4.2999 -3.0059 0.9748
2.3702 5.1076 -3.0059 0.9748
1.9061 5.2983 -3.0059 0.9748
-0.0628 5.6304 -3.0059 0.9748
-0.5636 5.6024 -3.0059 0.9748
-1.5480 5.4138 -3.0059 0.9748
-2.9233 4.8124 -3.0059 0.9748
-3.3400 4.5331 -3.0059 0.9748
-4.7121 3.0825 -3.0059 0.9748
-5.1840 2.1982 -3.0059 0.9748
-5.3590 1.7281 -3.0059 0.9748
-5.5805 0.7505 -3.0059 0.9748
-5.6251 0.2508 -3.0059 0.9748
-5.6251 -0.2508 -3.0059 0.9748
-5.3590 -1.7280 -3.0059 0.9748
-5.1839 -2.1981 -3.0059 0.9748
-4.4190 -3.4896 -3.0059 0.9748
-3.7303 -4.2178 -3.0059 0.9748
-3.3400 -4.5331 -3.0059 0.9748
-2.4834 -5.0535 -3.0059 0.9748
-2.0237 -5.2545 -3.0059 0.9748
-1.5480 -5.4137 -3.0059 0.9748
-0.5636 -5.6024 -3.0059 0.9748
-0.0627 -5.6304 -3.0059 0.9748
1.4270 -5.4469 -3.0059 0.9748
1.9061 -5.2982 -3.0059 0.9748
3.6353 -4.2999 -3.0059 0.9748
4.0036 -3.9593 -3.0059 0.9748
4.3401 -3.5872 -3.0059 0.9748
5.1268 -2.3100 -3.0019 0.9748
5.4466 -1.3622 -2.9972 0.9749
5.5503 -0.8727 -2.9994 0.9748
5.6132 -0.3757 -3.0033 0.9748
5.6293 0.1255 -3.0059 0.9748
5.5179 1.1216 -3.0059 0.9748
5.0255 2.5395 -3.0059 0.9748
4.4956 3.3903 -3.0059 0.9748
4.1760 3.7770 -3.0059 0.9748
3.0298 4.7461 -3.0059 0.9748
2.5953 4.9969 -3.0059 0.9748
1.6682 5.3779 -3.0059 0.9748
1.1829 5.5051 -3.0059 0.9748
-0.3135 5.6220 -3.0059 0.9748
-1.3053 5.4773 -3.0059 0.9748
-1.7877 5.3394 -3.0059 0.9748
-2.2558 5.1591 -3.0059 0.9748
-2.7060 4.9379 -3.0059 0.9748
-4.2592 3.6830 -3.0059 0.9748
-4.5701 3.2893 -3.0059 0.9748
-5.0809 2.4269 -3.0059 0.9748
-5.2767 1.9651 -3.0059 0.9748
-5.4307 1.4876 -3.0059 0.9748
-5.5415 0.9984 -3.0059 0.9748
-5.3907 -0.4817 -3.0059 0.9755
-5.3265 -0.9596 -3.0059 0.9755
-5.2199 -1.4299 -3.0059 0.9755
-4.3927 -3.1617 -3.0059 0.9755
-4.0939 -3.5401 -3.0059 0.9755
-3.4013 -4.2099 -3.0059 0.9755
-2.6010 -4.7462 -3.0059 0.9755
-1.2547 -5.2648 -3.0059 0.9755
-0.3013 -5.4038 -3.0059 0.9755
0.1808 -5.4092 -3.0059 0.9755
2.0572 -5.0060 -3.0059 0.9755
3.3067 -4.2846 -3.0059 0.9755
3.6749 -3.9733 -3.0059 0.9755
4.0140 -3.6304 -3.0059 0.9755
4.5941 -2.8612 -3.0059 0.9755
5.0286 -2.0013 -3.0059 0.9755
5.4108 -0.1205 -3.0059 0.9755
5.2504 1.3133 -3.0059 0.9755
5.1127 1.7754 -3.0059 0.9755
4.9344 2.2234 -3.0059 0.9755
4.1717 3.4480 -3.0059 0.9755
3.8482 3.8056 -3.0059 0.9755
3.4943 4.1331 -3.0059 0.9755
3.1125 4.4277 -3.0059 0.9755
0.4216 5.3958 -3.0059 0.9755
-0.0603 5.4119 -3.0059 0.9755
-1.0189 5.3154 -3.0059 0.9755
-1.4880 5.2037 -3.0059 0.9755
-2.3870 4.8574 -3.0059 0.9755
-2.8099 4.6257 -3.0059 0.9755
-3.2104 4.3572 -3.0059 0.9755
-3.9321 3.7190 -3.0059 0.9755
-4.2475 3.3542 -3.0059 0.9755
-4.5292 2.9629 -3.0059 0.9755
-5.1510 1.6610 -3.0059 0.9755
-5.2784 1.1959 -3.0059 0.9755
-5.4069 0.2411 -3.0059 0.9755
-5.4068 -0.2411 -3.0059 0.9755
-5.3639 -0.7213 -3.0059 0.9755
-5.2784 -1.1959 -3.0059 0.9755
-5.1510 -1.6610 -3.0059 0.9755
-4.9828 -2.1129 -3.0059 0.9755
-4.7749 -2.5480 -3.0059 0.9755
-4.5292 -2.9628 -3.0059 0.9755
-2.8099 -4.6256 -3.0059 0.9755
-2.3870 -4.8574 -3.0059 0.9755
-1.4880 -5.2036 -3.0059 0.9755
-1.0189 -5.3154 -3.0059 0.9755
-0.0603 -5.4119 -3.0059 0.9755
0.4216 -5.3958 -3.0059 0.9755
0.9002 -5.3368 -3.0059 0.9755
1.3716 -5.2355 -3.0059 0.9755
2.2782 -4.9094 -3.0059 0.9755
3.1125 -4.4276 -3.0059 0.9755
4.4620 -3.0630 -3.0059 0.9755
4.7170 -2.6537 -3.0059 0.9755
4.9344 -2.2233 -3.0059 0.9755
5.3465 -0.8407 -3.0059 0.9755
5.4001 -0.3615 -3.0059 0.9755
5.3786 0.6017 -3.0059 0.9755
4.8305 2.4410 -3.0059 0.9755
4.5941 2.8612 -3.0059 0.9755
4.0140 3.6304 -3.0059 0.9755
3.6749 3.9733 -3.0059 0.9755
3.3067 4.2846 -3.0059 0.9755
2.9122 4.5619 -3.0059 0.9755
0.6616 5.3716 -3.0059 0.9755
0.1808 5.4092 -3.0059 0.9755
-0.7811 5.3556 -3.0059 0.9755
-1.7183 5.1322 -3.0059 0.9755
-3.0131 4.4959 -3.0059 0.9755
-3.4013 4.2099 -3.0059 0.9755
-4.6567 2.7582 -3.0059 0.9755
-4.8837 2.3328 -3.0059 0.9755
-5.0719 1.8888 -3.0059 0.9755
-5.2199 1.4299 -3.0059 0.9755
-5.3907 0.4817 -3.0059 0.9755
-5.2064 0.0000 -3.0059 0.9762
-5.1858 -0.4634 -3.0059 0.9762
-5.0214 -1.3755 -3.0059 0.9762
-4.8791 -1.8170 -3.0059 0.9762
-4.4796 -2.6533 -3.0059 0.9762
-4.2257 -3.0414 -3.0059 0.9762
-3.2720 -4.0498 -3.0059 0.9762
-2.8986 -4.3249 -3.0059 0.9762
-2.5021 -4.5657 -3.0059 0.9762
-2.0858 -4.7703 -3.0059 0.9762
-1.6529 -4.9370 -3.0059 0.9762
0.6364 -5.1673 -3.0059 0.9762
1.0938 -5.0902 -3.0059 0.9762
3.1809 -4.1216 -3.0059 0.9762
3.8613 -3.4924 -3.0059 0.9762
4.1568 -3.1348 -3.0059 0.9762
5.1021 -1.0370 -3.0059 0.9762
5.2051 -0.1160 -3.0059 0.9762
5.1948 0.3478 -3.0059 0.9762
5.1432 0.8087 -3.0059 0.9762
4.9183 1.7078 -3.0059 0.9762
4.5376 2.5528 -3.0059 0.9762
3.3614 3.9759 -3.0059 0.9762
2.6032 4.5089 -3.0059 0.9762
2.1915 4.7227 -3.0059 0.9762
1.3195 5.0365 -3.0059 0.9762
-0.0580 5.2061 -3.0059 0.9762
-1.4314 5.0058 -3.0059 0.9762
-1.8712 4.8585 -3.0059 0.9762
-2.7030 4.4498 -3.0059 0.9762
-3.7826 3.5776 -3.0059 0.9762
-4.0860 3.2267 -3.0059 0.9762
-5.0777 1.1505 -3.0059 0.9762
-5.1600 0.6940 -3.0059 0.9762
-5.2013 0.2320 -3.0059 0.9762
-5.1600 -0.6939 -3.0059 0.9762
-4.9552 -1.5978 -3.0059 0.9762
-3.7826 -3.5775 -3.0059 0.9762
-3.0883 -4.1915 -3.0059 0.9762
-2.7030 -4.4497 -3.0059 0.9762
-2.2962 -4.6727 -3.0059 0.9762
-1.4314 -5.0058 -3.0059 0.9762
-0.9802 -5.1133 -3.0059 0.9762
-0.5212 -5.1802 -3.0059 0.9762
-0.0580 -5.2061 -3.0059 0.9762
0.4056 -5.1906 -3.0059 0.9762
0.8660 -5.1339 -3.0059 0.9762
1.7625 -4.8990 -3.0059 0.9762
2.1915 -4.7227 -3.0059 0.9762
2.9942 -4.2593 -3.0059 0.9762
3.3614 -3.9759 -3.0059 0.9762
3.7019 -3.6609 -3.0059 0.9762
4.0131 -3.3169 -3.0059 0.9762
4.2924 -2.9465 -3.0059 0.9762
4.5376 -2.5528 -3.0059 0.9762
4.7468 -2.1388 -3.0059 0.9762
4.9183 -1.7078 -3.0059 0.9762
5.0508 -1.2633 -3.0059 0.9762
5.1432 -0.8087 -3.0059 0.9762
5.1021 1.0370 -3.0059 0.9762
4.9895 1.4871 -3.0059 0.9762
4.8373 1.9252 -3.0059 0.9762
4.6468 2.3481 -3.0059 0.9762
4.1569 3.1349 -3.0059 0.9762
3.5352 3.8222 -3.0059 0.9762
2.8015 4.3885 -3.0059 0.9762
1.5425 4.9727 -3.0059 0.9762
1.0938 5.0902 -3.0059 0.9762
0.6364 5.1674 -3.0059 0.9762
-0.2899 5.1984 -3.0059 0.9762
-0.7514 5.1519 -3.0059 0.9762
-1.6529 4.9371 -3.0059 0.9762
-3.2720 4.0498 -3.0059 0.9762
-3.6195 3.7425 -3.0059 0.9762
-5.1858 0.4634 -3.0059 0.9762
