ply
format ascii 1.0
element vertex 1640
property float32 x
property float32 y
property float32 z
property float32 I
end_header
-3.0699 -5.6018 3.5478 0.9712
-7.4917 -10.1678 7.0145 0.9439
4.1108 8.8586 5.2135 0.9567
5.5240 8.6532 5.4805 0.9545
4.5701 8.7989 5.2930 0.9560
2.3972 9.1500 4.8493 0.9584
6.5650 8.5065 5.5087 0.9528
1.9700 9.1676 4.8072 0.9587
-4.1512 -9.4940 5.0966 0.9549
-3.5181 -7.1592 3.4409 0.9658
-7.8038 -11.6441 4.9703 0.9422
5.9918 8.5235 3.5005 0.9570
6.5087 8.4336 3.5793 0.9560
-3.8781 -8.8693 3.0742 0.9602
5.0552 8.7558 3.2109 0.9585
4.0859 8.8050 3.0827 0.9601
7.6402 8.2605 3.5735 0.9539
-7.8021 -11.6416 4.1956 0.9432
-3.9754 -9.0921 2.9708 0.9594
2.8081 9.0523 2.8375 0.9612
-4.0975 -9.3713 2.8777 0.9584
9.6802 8.0009 3.5335 0.9492
10.4028 7.8451 3.6659 0.9473
2.7985 9.0214 2.6576 0.9615
-4.2502 -9.7205 2.7955 0.9571
11.2337 7.7115 3.5904 0.9452
2.4038 9.1752 2.4993 0.9615
-7.8004 -11.6391 3.4440 0.9439
-7.7999 -11.6383 3.1977 0.9441
-7.7993 -11.6375 2.9534 0.9443
-7.7988 -11.6367 2.7109 0.9445
-7.7983 -11.6359 2.4699 0.9447
-7.7977 -11.6351 2.2303 0.9448
8.2886 2.0731 1.2153 0.9661
7.9600 1.9909 1.0282 0.9675
7.8521 2.3402 1.0268 0.9675
-7.7962 -11.6327 1.5189 0.9452
7.7644 1.9420 0.8681 0.9683
7.6648 2.2844 0.8675 0.9683
-7.7957 -11.6319 1.2837 0.9453
8.2726 1.3008 0.7677 0.9669
7.6347 1.9096 0.7215 0.9689
7.8530 1.5962 0.7347 0.9683
7.7084 3.0679 0.7606 0.9672
-7.7951 -11.6312 1.0493 0.9454
7.5233 1.8817 0.5812 0.9694
7.4208 2.5768 0.5887 0.9690
7.7203 1.5692 0.5904 0.9689
-7.7946 -11.6304 0.8155 0.9454
7.4535 1.8642 0.4475 0.9697
7.3437 2.5500 0.4528 0.9693
8.7337 0.9770 0.5118 0.9654
7.6348 1.5518 0.4538 0.9693
7.3592 2.1933 0.4473 0.9697
7.4288 2.9566 0.4657 0.9685
-7.7941 -11.6296 0.5821 0.9455
7.8521 1.2347 0.3305 0.9687
7.2713 2.5249 0.3200 0.9697
7.3444 2.9230 0.3287 0.9688
7.7802 1.2234 0.1964 0.9690
7.3392 1.8357 0.1887 0.9702
7.2209 2.5074 0.1906 0.9699
7.5052 1.5255 0.1910 0.9698
7.2453 2.1593 0.1885 0.9702
-7.7931 -11.6281 0.1163 0.9455
7.7263 1.2149 0.0650 0.9692
7.3023 1.8264 0.0626 0.9703
7.4336 3.3494 0.0678 0.9679
7.2084 2.1483 0.0625 0.9704
7.3785 3.3246 -0.0673 0.9681
7.1956 2.8638 -0.0644 0.9695
-7.7921 -11.6266 -0.3490 0.9455
7.3598 3.3162 -0.2013 0.9682
7.4158 1.5073 -0.1887 0.9702
7.1811 2.8580 -0.1927 0.9695
7.1196 2.4722 -0.3134 0.9703
7.3411 3.3078 -0.3348 0.9683
-7.7910 -11.6250 -0.8151 0.9455
7.1161 2.4710 -0.4387 0.9703
7.3435 3.3088 -0.4691 0.9682
8.0834 0.9043 -0.4737 0.9679
7.3999 1.5041 -0.4398 0.9702
7.1647 2.8515 -0.4491 0.9696
-7.7905 -11.6242 -1.0487 0.9454
7.6614 1.2047 -0.5812 0.9694
7.2522 1.8139 -0.5602 0.9705
7.1290 2.4754 -0.5655 0.9702
7.3628 3.3175 -0.6052 0.9681
8.1082 0.9070 -0.6114 0.9678
7.4128 1.5067 -0.5669 0.9701
7.1796 2.8574 -0.5791 0.9695
-7.7900 -11.6235 -1.2828 0.9453
7.2643 1.8169 -0.6865 0.9704
8.1395 0.9105 -0.7509 0.9676
7.4258 1.5094 -0.6947 0.9700
7.1946 2.8634 -0.7099 0.9694
-7.7895 -11.6227 -1.5176 0.9453
7.7252 1.2147 -0.8482 0.9690
7.1736 2.4910 -0.8237 0.9699
7.4582 1.5159 -0.8255 0.9698
7.2359 2.8798 -0.8447 0.9692
7.3314 1.8337 -0.9470 0.9700
7.2151 2.5054 -0.9571 0.9697
7.5408 3.3977 -1.0365 0.9672
7.4999 1.5244 -0.9591 0.9696
7.2844 2.8991 -0.9825 0.9689
8.5650 0.9581 -1.2258 0.9658
7.2805 2.1698 -1.0806 0.9698
-7.7727 -11.5976 -2.2232 0.9450
7.9746 1.2540 -1.2855 0.9678
7.4481 1.8629 -1.2226 0.9694
7.4441 2.9627 -1.2758 0.9681
-7.7387 -11.5470 -2.4510 0.9451
8.1300 1.2784 -1.4512 0.9671
7.5238 1.8818 -1.3675 0.9690
7.4313 2.5804 -1.3871 0.9686
7.7346 1.5721 -1.3917 0.9685
7.4288 2.2140 -1.3668 0.9690
-7.7201 -11.5192 -2.6835 0.9451
-7.0272 -12.8230 -2.8297 0.9422
7.6499 1.9134 -1.5260 0.9684
7.5684 2.6280 -1.5504 0.9679
2.4476 14.5106 -2.8477 0.9418
-8.7137 -11.8264 -2.8427 0.9419
-7.6022 -12.5149 -2.8337 0.9421
-6.4407 -13.1065 -2.8260 0.9422
-5.2307 -13.5812 -2.8164 0.9424
-3.9872 -13.9442 -2.8066 0.9426
-1.4440 -14.3532 -2.7916 0.9429
7.5548 2.2516 -1.5255 0.9684
7.7972 3.1032 -1.6240 0.9664
3.0910 14.3846 -2.8472 0.9418
-14.2136 -1.2701 -3.0084 0.9433
-13.7591 -3.7690 -3.0075 0.9433
-12.8678 -6.1464 -3.0064 0.9434
-8.5093 -10.5320 -2.8545 0.9462
-7.5322 -11.2388 -2.8523 0.9462
-6.4843 -11.8324 -2.8445 0.9463
-5.3877 -12.3220 -2.8352 0.9465
-4.2632 -12.7334 -2.8309 0.9466
-3.1270 -13.1214 -2.8437 0.9464
2.9271 -13.6216 -2.9372 0.9446
4.1289 -13.3105 -2.9380 0.9446
5.2991 -12.8947 -2.9391 0.9446
8.5313 -11.0543 -2.9438 0.9445
9.4880 -10.2583 -2.9459 0.9445
10.3714 -9.3804 -2.9481 0.9444
11.8910 -7.4058 -2.9533 0.9443
13.0382 -5.1891 -2.9584 0.9442
13.7689 -2.7987 -2.9621 0.9442
13.9775 -1.5636 -2.9651 0.9441
14.0622 0.9414 -2.9712 0.9440
7.8201 1.9559 -1.6994 0.9676
7.7802 2.7016 -1.7363 0.9669
12.9062 5.8152 -2.9843 0.9438
12.3503 6.9482 -2.9875 0.9437
10.9422 9.0440 -2.9928 0.9436
10.0965 9.9847 -2.9936 0.9436
8.1710 11.6235 -2.9954 0.9436
5.9844 12.8961 -2.9972 0.9435
2.2466 13.3191 -2.8476 0.9463
1.0526 13.4704 -2.8485 0.9463
-1.3550 13.4690 -2.8539 0.9462
-2.5493 13.2993 -2.8548 0.9461
-4.8701 12.6450 -2.8567 0.9461
-5.9782 12.1652 -2.8576 0.9461
-7.0394 11.5885 -2.8585 0.9461
-10.6324 8.3963 -2.8562 0.9461
-13.1413 5.5724 -3.0092 0.9433
-13.5854 4.3807 -3.0093 0.9433
-14.1460 1.9024 -3.0091 0.9433
-14.2569 -0.6357 -3.0086 0.9433
-14.1420 -1.9019 -3.0082 0.9433
-13.9145 -3.1526 -3.0078 0.9433
-10.6166 -8.3838 -2.8519 0.9462
-9.8325 -9.2995 -2.8532 0.9462
-8.0324 -10.9016 -2.8547 0.9461
-2.5270 -13.1833 -2.8299 0.9466
-1.3338 -13.2582 -2.8092 0.9470
-0.1553 -13.9412 -2.9393 0.9446
2.3172 -13.7371 -2.9370 0.9446
3.5314 -13.4792 -2.9376 0.9446
5.8695 -12.6486 -2.9397 0.9446
6.9755 -12.0819 -2.9411 0.9446
8.0278 -11.4197 -2.9429 0.9445
10.7834 -8.9127 -2.9494 0.9444
11.5440 -7.9245 -2.9519 0.9444
12.7906 -5.7632 -2.9576 0.9443
13.6237 -3.4075 -2.9606 0.9442
14.0404 -0.9399 -2.9666 0.9441
14.0138 1.5677 -2.9728 0.9440
7.7171 2.3000 -1.6976 0.9676
12.6410 6.3878 -2.9859 0.9437
8.6794 11.2463 -2.9949 0.9436
7.6463 11.9778 -2.9958 0.9436
6.5519 12.6147 -2.9967 0.9435
2.8373 13.2037 -2.8471 0.9463
0.4522 13.5240 -2.8526 0.9462
-1.9540 13.3975 -2.8543 0.9462
-4.3013 12.8473 -2.8562 0.9461
-5.4295 12.4175 -2.8571 0.9461
-6.5152 11.8887 -2.8581 0.9461
-9.4303 9.7508 -2.8598 0.9461
-10.2523 8.8655 -2.8574 0.9461
-12.2804 7.2737 -3.0090 0.9433
-12.8798 6.1522 -3.0092 0.9433
-13.7670 3.7712 -3.0093 0.9433
-14.2163 1.2704 -3.0090 0.9433
-11.8831 -5.6761 -3.0058 0.9474
-11.3284 -6.7098 -3.0051 0.9474
-6.9571 -10.3808 -2.8522 0.9500
-6.0061 -10.9597 -2.8525 0.9500
-5.0067 -11.4506 -2.8524 0.9500
-2.8934 -12.1413 -2.8488 0.9501
0.4303 -12.8695 -2.9390 0.9485
2.7055 -12.5902 -2.9392 0.9485
5.9430 -11.4423 -2.9429 0.9485
6.9413 -10.8733 -2.9443 0.9484
10.3275 -7.7883 -2.9524 0.9483
10.9875 -6.8431 -2.9544 0.9483
11.5580 -5.8411 -2.9558 0.9483
12.9122 -1.4444 -2.9655 0.9481
12.9890 0.8695 -2.9713 0.9480
12.8734 2.0243 -2.9744 0.9479
8.1184 2.0305 -1.9101 0.9662
11.9175 5.3698 -2.9834 0.9478
11.4033 6.4154 -2.9864 0.9477
10.7972 7.4118 -2.9892 0.9477
10.1037 8.3509 -2.9918 0.9476
8.4712 10.0199 -2.9948 0.9476
4.4469 12.3604 -2.9982 0.9475
3.3301 12.7108 -2.9991 0.9475
0.9721 12.4413 -2.8483 0.9501
-0.1393 12.4995 -2.8531 0.9500
-1.2516 12.4409 -2.8539 0.9500
-2.3546 12.2839 -2.8548 0.9500
-3.4397 12.0293 -2.8556 0.9500
-6.5013 10.7026 -2.8582 0.9499
-7.4302 10.0842 -2.8590 0.9499
-9.0923 8.5994 -2.8564 0.9499
-11.0291 7.2149 -3.0081 0.9474
-12.1349 5.1456 -3.0084 0.9474
-12.5449 4.0452 -3.0085 0.9474
-13.0627 1.7567 -3.0083 0.9474
-13.1652 -0.5871 -3.0078 0.9474
-10.3294 -8.1570 -3.0041 0.9474
-8.2763 -9.3581 -2.8514 0.9500
-7.4121 -10.0598 -2.8520 0.9500
-5.5119 -11.2164 -2.8525 0.9500
-4.4910 -11.6607 -2.8520 0.9500
-3.4332 -12.0067 -2.8503 0.9501
-2.3483 -12.2509 -2.8471 0.9501
2.1418 -12.6973 -2.9390 0.9485
3.2644 -12.4601 -2.9399 0.9485
4.3623 -12.1251 -2.9411 0.9485
5.4262 -11.6931 -2.9422 0.9485
7.4208 -10.5562 -2.9452 0.9484
8.3360 -9.8599 -2.9470 0.9484
9.1868 -9.0850 -2.9490 0.9484
9.9664 -8.2374 -2.9512 0.9483
10.6686 -7.3236 -2.9536 0.9483
11.8091 -5.3209 -2.9563 0.9482
12.2456 -4.2521 -2.9587 0.9482
12.8290 -2.0173 -2.9641 0.9481
12.9441 1.4480 -2.9728 0.9480
7.9962 2.3831 -1.9044 0.9663
11.6721 5.8982 -2.9849 0.9478
11.1115 6.9203 -2.9878 0.9477
10.4610 7.8890 -2.9905 0.9477
8.0176 10.3887 -2.9952 0.9476
4.9923 12.1482 -2.9978 0.9475
0.4176 12.4917 -2.8527 0.9500
-1.8048 12.3747 -2.8543 0.9500
-3.9727 11.8659 -2.8561 0.9500
-5.0146 11.4686 -2.8569 0.9499
-6.0172 10.9800 -2.8578 0.9499
-7.8730 9.7446 -2.8593 0.9499
-8.7034 8.9992 -2.8575 0.9499
-11.3400 6.7167 -3.0082 0.9474
-11.8934 5.6810 -3.0084 0.9474
-12.9717 2.3370 -3.0084 0.9474
-13.1276 1.1731 -3.0082 0.9474
-12.2349 0.0000 -3.0073 0.9509
-11.4597 -4.2677 -3.0058 0.9509
-11.0325 -5.2698 -3.0052 0.9509
-9.9193 -7.1394 -3.0040 0.9509
-8.3229 -8.6058 -2.9427 0.9519
-6.4548 -9.6312 -2.8498 0.9534
-5.5724 -10.1682 -2.8501 0.9534
-4.6452 -10.6237 -2.8500 0.9534
-3.6802 -10.9920 -2.8492 0.9534
-2.6853 -11.2677 -2.8472 0.9534
-1.6706 -11.4546 -2.8453 0.9534
-0.6778 -12.1559 -2.9926 0.9511
1.4627 -11.8766 -2.9413 0.9519
2.5141 -11.6998 -2.9415 0.9519
7.3266 -9.4933 -2.9476 0.9518
8.1469 -8.8083 -2.9492 0.9518
9.5890 -7.2314 -2.9521 0.9517
10.2004 -6.3529 -2.9538 0.9517
11.1824 -4.4505 -2.9583 0.9516
12.0742 -0.2691 -2.9686 0.9515
11.9535 1.8796 -2.9743 0.9514
11.4526 3.9768 -2.9799 0.9513
11.0635 4.9850 -2.9827 0.9512
10.5854 5.9553 -2.9854 0.9512
9.3778 7.7509 -2.9905 0.9511
7.0093 9.9708 -2.9958 0.9510
6.0956 10.5579 -2.9966 0.9510
5.1331 11.0615 -2.9974 0.9510
3.0922 11.8028 -2.9990 0.9510
-0.1294 11.6074 -2.8533 0.9533
-2.1864 11.4064 -2.8547 0.9533
-4.1765 10.8441 -2.8563 0.9533
-5.1266 10.4322 -2.8571 0.9532
-6.8974 9.3612 -2.8581 0.9532
-7.6986 8.7050 -2.8564 0.9533
-9.6014 7.5821 -3.0072 0.9509
-10.2390 6.6980 -3.0074 0.9509
-10.7952 5.7605 -3.0076 0.9508
-11.6461 3.7554 -3.0077 0.9508
-12.1269 1.6309 -3.0076 0.9508
-12.2221 -0.5450 -3.0072 0.9509
-11.9290 -2.7028 -3.0065 0.9509
-9.5903 -7.5734 -3.0037 0.9509
-8.8761 -8.3950 -3.0030 0.9509
-6.8769 -9.3334 -2.8496 0.9534
-6.0196 -9.9096 -2.8500 0.9534
-5.1139 -10.4064 -2.8501 0.9534
-2.1796 -11.3707 -2.8458 0.9534
0.9322 -11.9300 -2.9413 0.9519
5.0405 -10.8620 -2.9434 0.9519
5.9909 -10.3765 -2.9451 0.9518
6.8945 -9.8076 -2.9468 0.9518
7.7443 -9.1600 -2.9484 0.9518
8.5334 -8.4389 -2.9500 0.9518
9.9037 -6.7985 -2.9527 0.9517
10.4771 -5.8943 -2.9549 0.9517
11.6903 -2.9239 -2.9620 0.9516
12.0446 -0.8063 -2.9672 0.9515
12.0196 1.3446 -2.9728 0.9514
11.8636 2.4114 -2.9757 0.9514
10.8353 5.4754 -2.9841 0.9512
10.3141 6.4237 -2.9867 0.9512
9.7098 7.3225 -2.9893 0.9511
9.0268 8.1642 -2.9917 0.9511
7.4455 9.6475 -2.9954 0.9510
6.5590 10.2745 -2.9962 0.9510
5.6200 10.8204 -2.9970 0.9510
4.6358 11.2807 -2.9978 0.9510
3.6144 11.6518 -2.9986 0.9510
-0.6464 11.5913 -2.8536 0.9533
-1.6759 11.4908 -2.8543 0.9533
-2.6928 11.2993 -2.8551 0.9533
-3.6888 11.0179 -2.8559 0.9533
-5.5869 10.1949 -2.8575 0.9532
-6.4739 9.6597 -2.8583 0.9532
-8.9167 7.7105 -2.8975 0.9526
-9.9301 7.1472 -3.0073 0.9509
-11.4672 4.2704 -3.0077 0.9508
-12.0424 2.1695 -3.0077 0.9508
-11.3644 -1.0155 -3.0065 0.9539
-11.2277 -2.0228 -3.0061 0.9539
-11.0017 -3.0137 -3.0057 0.9539
-10.6882 -3.9803 -3.0053 0.9539
-9.8097 -5.8103 -3.0042 0.9539
-9.2518 -6.6590 -3.0037 0.9539
-7.1298 -8.8247 -2.9894 0.9542
-6.0654 -9.0502 -2.8708 0.9559
-5.1942 -9.4782 -2.8479 0.9563
-4.3299 -9.9027 -2.8479 0.9563
-3.4305 -10.2462 -2.8472 0.9563
-1.6416 -11.2553 -2.9972 0.9540
-0.6331 -11.3539 -2.9964 0.9541
3.3101 -10.6708 -2.9439 0.9548
4.2477 -10.3362 -2.9446 0.9548
5.1524 -9.9202 -2.9455 0.9548
6.0172 -9.4258 -2.9466 0.9548
9.5187 -5.9283 -2.9549 0.9547
10.0156 -5.0611 -2.9569 0.9546
10.7705 -3.2100 -2.9614 0.9546
11.0222 -2.2403 -2.9637 0.9545
11.1874 -1.2515 -2.9663 0.9545
9.8716 5.5537 -2.9846 0.9542
9.3457 6.4155 -2.9870 0.9542
8.7443 7.2274 -2.9893 0.9542
8.0807 7.9912 -2.9946 0.9541
6.5388 9.3016 -2.9960 0.9541
5.6864 9.8491 -2.9967 0.9540
3.8519 10.7067 -2.9982 0.9540
2.8844 11.0098 -2.9990 0.9540
1.7973 10.6552 -2.8473 0.9563
0.8420 10.7755 -2.8480 0.9563
-0.1207 10.8280 -2.8534 0.9562
-1.0842 10.7766 -2.8540 0.9562
-4.7819 9.7308 -2.8569 0.9561
-6.4298 8.7265 -2.8562 0.9562
-7.1770 8.1151 -2.8546 0.9562
-9.5493 6.2469 -3.0068 0.9539
-10.0680 5.3724 -3.0070 0.9539
-10.5066 4.4552 -3.0071 0.9539
-11.3099 1.5210 -3.0070 0.9539
-11.3998 0.5083 -3.0068 0.9539
-11.3073 -1.5207 -3.0063 0.9539
-10.8558 -3.5005 -3.0055 0.9539
-10.4994 -4.4522 -3.0051 0.9539
-10.0598 -5.3680 -3.0045 0.9539
-9.5402 -6.2409 -3.0040 0.9539
-8.9451 -7.0638 -3.0033 0.9539
-7.5475 -8.5341 -3.0020 0.9540
-6.5872 -8.9402 -2.9261 0.9551
-3.8842 -10.0850 -2.8477 0.9563
-2.0644 -10.7698 -2.8895 0.9557
3.7825 -10.5137 -2.9442 0.9548
4.7046 -10.1382 -2.9450 0.9548
5.5902 -9.6826 -2.9461 0.9548
6.4325 -9.1504 -2.9473 0.9548
7.2249 -8.5456 -2.9487 0.9548
9.7767 -5.5003 -2.9559 0.9547
10.2349 -4.6116 -2.9580 0.9546
11.1157 -1.7479 -2.9650 0.9545
11.2693 0.2512 -2.9702 0.9544
10.1049 5.1063 -2.9833 0.9542
7.7175 8.3442 -2.9949 0.9541
6.1187 9.5849 -2.9964 0.9541
5.2426 10.0939 -2.9971 0.9540
-0.6029 10.8130 -2.8537 0.9562
-1.5633 10.7189 -2.8543 0.9562
-6.0361 9.0065 -2.8569 0.9561
-7.5291 7.7850 -2.8538 0.9562
-8.6304 7.4630 -3.0064 0.9539
-9.2612 6.6658 -3.0067 0.9539
-9.8184 5.8154 -3.0069 0.9539
-10.2975 4.9187 -3.0070 0.9539
-11.2312 2.0234 -3.0071 0.9539
-10.6847 0.0000 -3.0062 0.9566
-10.3019 -2.8220 -3.0053 0.9566
-9.6356 -4.6025 -3.0044 0.9566
-9.1860 -5.4409 -3.0039 0.9566
-8.6637 -6.2358 -3.0033 0.9566
-8.0727 -6.9807 -3.0027 0.9566
-7.4178 -7.6699 -3.0021 0.9566
-6.7042 -8.2979 -3.0015 0.9566
-4.1203 -9.4233 -2.8937 0.9582
-0.5930 -10.6338 -2.9965 0.9567
0.3531 -10.5612 -2.9731 0.9570
1.2803 -10.3958 -2.9470 0.9574
2.1993 -10.2349 -2.9454 0.9574
3.1019 -9.9997 -2.9457 0.9574
4.8280 -9.2955 -2.9471 0.9574
7.7823 -7.0387 -2.9523 0.9573
8.3827 -6.3216 -2.9540 0.9573
8.9176 -5.5539 -2.9558 0.9573
9.3827 -4.7413 -2.9578 0.9573
10.4789 -1.1722 -2.9667 0.9571
10.5381 0.7055 -2.9716 0.9571
10.2633 2.5670 -2.9766 0.9570
9.2428 5.1999 -2.9838 0.9569
8.1865 6.7664 -2.9883 0.9568
7.5685 7.4846 -2.9948 0.9567
6.1242 8.7118 -2.9962 0.9567
5.3257 9.2244 -2.9968 0.9567
4.4846 9.6641 -2.9976 0.9567
-1.0154 10.0928 -2.8540 0.9587
-2.7901 9.7575 -2.8554 0.9587
-5.2697 8.6750 -2.8558 0.9587
-6.7178 7.5959 -2.8530 0.9587
-7.7616 7.3409 -3.0058 0.9566
-8.3850 6.6215 -3.0061 0.9566
-8.9417 5.8494 -3.0063 0.9566
-9.4273 5.0306 -3.0065 0.9566
-9.8380 4.1717 -3.0065 0.9566
-10.1704 3.2795 -3.0066 0.9566
-10.4218 2.3613 -3.0066 0.9566
-10.5903 1.4243 -3.0065 0.9566
-10.6737 -0.4759 -3.0061 0.9566
-10.4181 -2.3604 -3.0055 0.9566
-9.4201 -5.0267 -3.0041 0.9566
-8.3765 -6.6149 -3.0030 0.9566
-7.0680 -7.9919 -3.0018 0.9566
-3.6829 -9.5624 -2.8831 0.9583
-1.0662 -10.5981 -2.9969 0.9567
-0.1187 -10.6485 -2.9962 0.9567
1.7412 -10.3224 -2.9453 0.9574
3.5446 -9.8525 -2.9460 0.9574
4.4085 -9.5000 -2.9467 0.9574
5.2382 -9.0728 -2.9476 0.9574
6.0272 -8.5739 -2.9487 0.9574
7.4590 -7.3763 -2.9515 0.9573
8.0904 -6.6869 -2.9531 0.9573
8.6586 -5.9438 -2.9549 0.9573
9.1591 -5.1528 -2.9568 0.9573
9.5878 -4.3201 -2.9588 0.9572
9.9413 -3.4520 -2.9609 0.9572
10.2169 -2.5554 -2.9631 0.9572
10.5250 -0.7046 -2.9679 0.9571
9.4616 4.7811 -2.9827 0.9569
7.8936 7.1393 -2.9945 0.9567
7.2283 7.8152 -2.9952 0.9567
4.9101 9.4536 -2.9972 0.9567
4.0501 9.8554 -2.9979 0.9567
3.1576 10.1792 -2.9986 0.9567
2.1262 9.8947 -2.8475 0.9588
0.3389 10.1365 -2.8536 0.9587
-3.2224 9.6248 -2.8557 0.9587
-4.0673 9.3020 -2.8564 0.9587
-6.3744 7.8897 -2.8538 0.9587
-7.1288 7.3712 -2.8852 0.9583
-8.0813 6.9882 -3.0059 0.9566
-9.1937 5.4454 -3.0064 0.9566
-9.6423 4.6057 -3.0065 0.9566
-10.0142 3.7293 -3.0066 0.9566
-10.3064 2.8232 -3.0066 0.9566
-10.6430 0.9510 -3.0064 0.9566
-10.0399 0.0000 -3.0057 0.9589
-9.9993 -0.8935 -3.0055 0.9589
-9.8791 -1.7798 -3.0052 0.9590
-9.6804 -2.6517 -3.0049 0.9590
-8.1413 -5.8598 -3.0030 0.9590
-7.5861 -6.5599 -3.0025 0.9590
-6.9707 -7.2077 -3.0019 0.9590
-5.5800 -8.3259 -3.0006 0.9590
-4.8158 -8.7876 -3.0000 0.9590
-4.0136 -9.1793 -2.9993 0.9590
-1.4449 -9.9069 -2.9973 0.9591
0.3339 -9.9873 -2.9917 0.9591
2.0681 -9.6241 -2.9470 0.9597
2.9168 -9.4029 -2.9474 0.9597
3.7428 -9.1076 -2.9479 0.9597
4.5397 -8.7404 -2.9486 0.9597
6.6951 -7.2387 -2.9519 0.9597
7.8806 -5.9430 -2.9550 0.9596
8.3832 -5.2211 -2.9567 0.9596
8.8201 -4.4570 -2.9586 0.9596
9.1880 -3.6567 -2.9606 0.9596
9.7048 -1.9726 -2.9648 0.9595
9.8493 -1.1018 -2.9671 0.9595
9.9040 0.6630 -2.9717 0.9594
9.8134 1.5431 -2.9740 0.9594
8.6844 4.8858 -2.9832 0.9592
8.2210 5.6434 -2.9853 0.9592
7.7097 6.3723 -2.9945 0.9591
7.1133 7.0346 -2.9951 0.9591
6.4603 7.6413 -2.9957 0.9591
4.2147 9.0825 -2.9976 0.9591
3.3903 9.4236 -2.9983 0.9590
2.5387 9.6902 -2.9990 0.9590
1.5826 9.3826 -2.8486 0.9610
0.7420 9.4953 -2.8514 0.9610
-0.9542 9.4854 -2.8541 0.9610
-3.4286 8.9022 -2.8560 0.9610
-4.2063 8.5595 -2.8552 0.9610
-4.9497 8.1483 -2.8542 0.9610
-6.3941 7.2299 -2.8895 0.9605
-7.2933 6.8979 -3.0054 0.9590
-7.8790 6.2219 -3.0056 0.9589
-9.2442 3.9199 -3.0061 0.9589
-9.5565 3.0816 -3.0061 0.9589
-9.7928 2.2187 -3.0061 0.9589
-9.9511 1.3383 -3.0060 0.9589
-10.0303 0.4473 -3.0058 0.9589
-9.9491 -1.3380 -3.0054 0.9590
-9.2387 -3.9175 -3.0043 0.9590
-7.8715 -6.2161 -3.0028 0.9590
-7.2856 -6.8907 -3.0022 0.9590
-5.9460 -8.0700 -3.0010 0.9590
-1.8850 -9.8338 -2.9977 0.9591
-0.1115 -10.0079 -2.9963 0.9591
0.7715 -9.8737 -2.9650 0.9595
1.6373 -9.7064 -2.9470 0.9597
3.3330 -9.2644 -2.9476 0.9597
4.1453 -8.9328 -2.9482 0.9597
5.6669 -8.0613 -2.9501 0.9597
7.0126 -6.9349 -2.9526 0.9597
7.6059 -6.2865 -2.9542 0.9596
8.1398 -5.5877 -2.9558 0.9596
9.3450 -3.2449 -2.9616 0.9595
9.8924 -0.6622 -2.9682 0.9594
9.9198 0.2211 -2.9705 0.9594
9.8685 1.1040 -2.9729 0.9594
8.8902 4.4924 -2.9821 0.9593
8.4612 5.2697 -2.9842 0.9592
7.9642 6.0061 -2.9863 0.9592
7.4189 6.7100 -2.9948 0.9591
6.7936 7.3452 -2.9954 0.9591
6.1141 7.9223 -2.9960 0.9591
4.6146 8.8847 -2.9973 0.9591
3.8063 9.2622 -2.9979 0.9591
1.9980 9.2982 -2.8472 0.9611
1.1636 9.4484 -2.8500 0.9610
-0.5307 9.5178 -2.8539 0.9610
-1.3760 9.4344 -2.8543 0.9610
-2.2107 9.2765 -2.8550 0.9610
-3.0283 9.0450 -2.8556 0.9610
-5.9876 7.4110 -2.8524 0.9610
-6.9784 7.2156 -3.0052 0.9590
-8.1486 5.8650 -3.0057 0.9589
-9.0603 4.3277 -3.0060 0.9589
-9.6843 2.6528 -3.0061 0.9589
-10.0006 0.8937 -3.0059 0.9589
-9.4631 0.0000 -3.0053 0.9611
-9.4249 -0.8422 -3.0051 0.9611
-9.1244 -2.4994 -3.0045 0.9611
-8.8646 -3.3012 -3.0041 0.9611
-8.5345 -4.0766 -3.0037 0.9611
-7.6740 -5.5234 -3.0028 0.9611
-6.5707 -6.7941 -3.0017 0.9611
-3.7835 -8.6530 -2.9993 0.9611
-2.1884 -9.1829 -2.9980 0.9612
-1.3621 -9.3393 -2.9974 0.9612
-0.5254 -9.4215 -2.9968 0.9612
1.9505 -9.0770 -2.9485 0.9618
3.5300 -8.5897 -2.9493 0.9618
4.2815 -8.2433 -2.9500 0.9618
5.6788 -7.3583 -2.9519 0.9617
6.8995 -6.2403 -2.9545 0.9617
7.4313 -5.6043 -2.9560 0.9617
7.9051 -4.9233 -2.9576 0.9617
8.9419 -2.6650 -2.9632 0.9616
9.1499 -1.8598 -2.9653 0.9616
9.3482 -0.2083 -2.9696 0.9615
9.0912 2.2739 -2.9762 0.9614
8.8592 3.0763 -2.9784 0.9614
8.5564 3.8554 -2.9805 0.9614
7.2683 6.0075 -2.9947 0.9612
6.0903 7.2037 -2.9958 0.9612
5.4261 7.7187 -2.9964 0.9612
2.3932 9.1346 -2.9989 0.9611
1.4916 8.8430 -2.8481 0.9631
-0.1001 8.9817 -2.8526 0.9630
-1.6922 8.8279 -2.8546 0.9630
-2.4716 8.6436 -2.8551 0.9630
-3.2305 8.3877 -2.8545 0.9630
-4.6637 7.6774 -2.8528 0.9630
-6.2677 7.0870 -3.0047 0.9611
-7.4263 5.8645 -3.0052 0.9611
-7.9194 5.1806 -3.0054 0.9611
-8.3494 4.4554 -3.0055 0.9611
-9.0074 2.9045 -3.0057 0.9611
-9.2301 2.0913 -3.0056 0.9611
-9.4540 0.4216 -3.0054 0.9611
-9.4534 -0.4215 -3.0052 0.9611
-9.3776 -1.2612 -3.0050 0.9611
-9.0035 -2.9032 -3.0043 0.9611
-6.8675 -6.4953 -3.0020 0.9611
-4.9046 -8.0741 -3.0002 0.9611
-3.3939 -8.8121 -2.9990 0.9611
-0.1051 -9.4346 -2.9965 0.9612
0.7324 -9.3732 -2.9859 0.9613
2.3530 -8.9815 -2.9487 0.9618
3.1435 -8.7376 -2.9491 0.9618
3.9095 -8.4248 -2.9496 0.9618
4.6451 -8.0455 -2.9504 0.9618
5.3445 -7.6026 -2.9514 0.9617
7.6757 -5.2691 -2.9568 0.9617
8.4985 -3.8292 -2.9603 0.9616
9.2269 -1.4509 -2.9663 0.9616
9.3262 -0.6243 -2.9685 0.9615
9.3516 0.2084 -2.9707 0.9615
8.7165 3.4691 -2.9794 0.9614
8.3791 4.2342 -2.9815 0.9614
7.5106 5.6641 -2.9875 0.9613
6.4046 6.9246 -2.9956 0.9612
4.3502 8.3756 -2.9974 0.9612
2.7974 9.0180 -2.9986 0.9611
1.0967 8.9046 -2.8493 0.9630
0.3000 8.9741 -2.8516 0.9630
-0.5002 8.9711 -2.8535 0.9630
-3.6005 8.2345 -2.8542 0.9630
-4.3178 7.8789 -2.8533 0.9630
-5.0001 7.4606 -2.8523 0.9630
-7.1575 6.1893 -3.0051 0.9611
-7.6805 5.5281 -3.0053 0.9611
-8.5398 4.0791 -3.0056 0.9611
-9.1279 2.5004 -3.0057 0.9611
-9.3140 1.6780 -3.0056 0.9611
-8.9438 -0.0000 -3.0050 0.9630
-8.9077 -0.7960 -3.0047 0.9630
-8.8007 -1.5855 -3.0045 0.9630
-8.3784 -3.1201 -3.0038 0.9630
-6.2106 -6.4217 -3.0015 0.9630
-3.5763 -8.1791 -2.9992 0.9630
-2.8335 -8.4633 -2.9986 0.9630
-2.0686 -8.6802 -2.9981 0.9630
-0.4966 -8.9059 -2.9969 0.9631
1.0836 -8.7983 -2.9784 0.9633
1.8472 -8.5964 -2.9542 0.9636
2.6015 -8.3864 -2.9501 0.9636
4.7278 -7.4060 -2.9521 0.9636
5.9703 -6.4550 -2.9542 0.9636
7.0266 -5.2991 -2.9569 0.9635
8.1908 -3.2599 -2.9619 0.9635
8.6501 -1.7582 -2.9657 0.9634
8.8368 -0.1969 -2.9698 0.9634
8.8254 0.5908 -2.9718 0.9634
8.7439 1.3749 -2.9739 0.9633
8.3733 2.9075 -2.9781 0.9633
8.0867 3.6437 -2.9801 0.9633
7.7354 4.3519 -2.9820 0.9632
6.8708 5.6789 -2.9949 0.9631
6.3392 6.2690 -2.9954 0.9631
5.1291 7.2963 -2.9965 0.9631
1.4096 8.3568 -2.8474 0.9649
-0.0946 8.4863 -2.8514 0.9648
-1.5990 8.3419 -2.8537 0.9648
-2.3351 8.1664 -2.8537 0.9648
-5.1479 6.9867 -2.9158 0.9640
-5.9239 6.6982 -3.0043 0.9630
-7.0189 5.5427 -3.0048 0.9630
-7.4848 4.8963 -3.0050 0.9630
-8.2349 3.4919 -3.0052 0.9630
-8.7236 1.9765 -3.0052 0.9630
-8.8646 1.1922 -3.0052 0.9630
-8.8631 -1.1920 -3.0046 0.9630
-8.5096 -2.7440 -3.0040 0.9630
-8.2305 -3.4900 -3.0036 0.9630
-7.4792 -4.8927 -3.0028 0.9630
-6.4911 -6.1392 -3.0018 0.9630
-5.9178 -6.6914 -3.0013 0.9630
-5.2978 -7.1902 -3.0007 0.9630
-4.6359 -7.6317 -3.0001 0.9630
-3.9375 -8.0125 -2.9995 0.9630
-2.4535 -8.5802 -2.9983 0.9630
-1.6797 -8.7628 -2.9978 0.9630
1.4650 -8.6852 -2.9593 0.9635
2.9727 -8.2628 -2.9504 0.9636
3.6970 -7.9669 -2.9509 0.9636
5.0538 -7.1891 -2.9525 0.9636
6.2532 -6.1840 -2.9548 0.9636
6.7819 -5.6054 -2.9562 0.9636
7.2576 -4.9821 -2.9577 0.9635
8.3305 -2.8927 -2.9628 0.9635
8.5604 -2.1411 -2.9647 0.9634
8.7228 -1.3716 -2.9667 0.9634
8.8399 0.1970 -2.9708 0.9634
8.7934 0.9837 -2.9729 0.9634
8.4916 2.5308 -2.9770 0.9633
8.2383 3.2788 -2.9791 0.9633
7.9191 4.0017 -2.9811 0.9633
6.6116 5.9799 -2.9952 0.9631
3.3917 8.2534 -2.9980 0.9630
2.6442 8.5242 -2.9986 0.9630
1.7951 8.3540 -2.8709 0.9646
0.2835 8.4795 -2.8506 0.9648
-0.4726 8.4761 -2.8522 0.9648
-1.2257 8.4039 -2.8534 0.9648
-1.9691 8.2626 -2.8538 0.9648
-2.6964 8.0536 -2.8535 0.9648
-4.7243 7.0493 -2.8511 0.9648
-6.2167 6.4280 -3.0045 0.9630
-7.2590 5.2247 -3.0049 0.9630
-7.6957 4.5581 -3.0051 0.9630
-8.0711 3.8552 -3.0052 0.9630
-8.3823 3.1216 -3.0053 0.9630
-8.6269 2.3632 -3.0053 0.9630
-8.8029 1.5859 -3.0052 0.9630
-8.9088 0.7961 -3.0051 0.9630
-8.4394 -0.7542 -3.0044 0.9647
-7.9380 -2.9562 -3.0036 0.9647
-6.8722 -4.9463 -3.0023 0.9647
-6.4037 -5.5375 -3.0019 0.9647
-5.8844 -6.0844 -3.0014 0.9647
-5.3186 -6.5829 -3.0009 0.9647
-4.7108 -7.0289 -3.0003 0.9647
-4.0657 -7.4189 -2.9998 0.9647
-3.3886 -7.7499 -2.9992 0.9647
-2.6849 -8.0192 -2.9986 0.9647
-1.9601 -8.2248 -2.9981 0.9648
-0.4706 -8.4389 -2.9970 0.9648
1.0318 -8.3776 -2.9930 0.9648
1.7534 -8.1599 -2.9594 0.9652
3.1642 -7.6997 -2.9518 0.9653
5.0900 -6.5953 -2.9541 0.9653
6.1836 -5.5927 -2.9564 0.9652
7.4525 -3.7659 -2.9608 0.9652
7.7626 -3.0894 -2.9625 0.9652
8.0115 -2.3877 -2.9643 0.9651
8.3737 -0.1866 -2.9699 0.9651
8.2851 1.3028 -2.9739 0.9650
8.1416 2.0363 -2.9758 0.9650
7.6615 3.4521 -2.9797 0.9650
6.5108 5.3813 -2.9951 0.9648
4.8602 6.9137 -2.9967 0.9648
4.2263 7.3202 -2.9972 0.9648
3.5587 7.6688 -2.9978 0.9648
2.1434 8.1813 -2.9989 0.9647
1.3354 7.9173 -2.8470 0.9665
-0.0896 8.0380 -2.8503 0.9665
-2.2116 7.7344 -2.8524 0.9664
-3.5465 7.2168 -2.8513 0.9664
-4.1740 6.8712 -2.8507 0.9665
-6.1556 5.8219 -3.0043 0.9647
-6.6499 5.2513 -3.0045 0.9647
-7.0913 4.6389 -3.0047 0.9647
-8.3986 1.1295 -3.0048 0.9647
-8.4654 0.3775 -3.0047 0.9647
-8.4649 -0.3775 -3.0045 0.9647
-8.3971 -1.1293 -3.0043 0.9647
-7.7980 -3.3066 -3.0034 0.9647
-7.0863 -4.6356 -3.0026 0.9647
-6.1502 -5.8168 -3.0016 0.9647
-4.3926 -7.2311 -3.0000 0.9647
-3.7308 -7.5919 -2.9995 0.9647
-3.0397 -7.8924 -2.9989 0.9647
-2.3248 -8.1301 -2.9984 0.9647
-1.5916 -8.3032 -2.9978 0.9648
1.3944 -8.2667 -2.9727 0.9650
2.8178 -7.8324 -2.9515 0.9653
3.5044 -7.5518 -2.9521 0.9653
4.7904 -6.8144 -2.9536 0.9653
5.3797 -6.3632 -2.9546 0.9653
5.9270 -5.8614 -2.9558 0.9652
6.8787 -4.7219 -2.9585 0.9652
7.8948 -2.7414 -2.9634 0.9652
8.1124 -2.0290 -2.9652 0.9651
8.3543 -0.5592 -2.9690 0.9651
8.3321 0.9321 -2.9729 0.9650
7.8052 3.1064 -2.9788 0.9650
7.5025 3.7912 -2.9806 0.9650
7.1396 4.4466 -2.9825 0.9649
5.1629 6.6898 -2.9964 0.9648
0.9817 7.9709 -2.8477 0.9665
0.2685 8.0317 -2.8495 0.9665
-1.8649 7.8254 -2.8525 0.9664
-2.5538 7.6277 -2.8522 0.9664
-5.8899 6.0901 -3.0042 0.9647
-6.8774 4.9500 -3.0046 0.9647
-7.2910 4.3185 -3.0048 0.9647
-8.0456 -0.0000 -3.0043 0.9662
-7.9170 -1.4263 -3.0039 0.9662
-7.7579 -2.1251 -3.0036 0.9662
-7.2566 -3.4662 -3.0030 0.9662
-6.9184 -4.0978 -3.0026 0.9662
-6.5253 -4.6966 -3.0022 0.9663
-5.5875 -5.7774 -3.0012 0.9663
-5.0503 -6.2508 -3.0007 0.9663
-4.4731 -6.6744 -3.0002 0.9663
-3.8607 -7.0448 -2.9997 0.9663
-3.2177 -7.3591 -2.9992 0.9663
-2.5495 -7.6150 -2.9986 0.9663
-1.8613 -7.8102 -2.9981 0.9663
0.9808 -7.9632 -2.9960 0.9663
3.0058 -7.3142 -2.9528 0.9668
3.6456 -7.0190 -2.9534 0.9668
5.3752 -5.8117 -2.9561 0.9668
5.8735 -5.3123 -2.9572 0.9668
6.3257 -4.7705 -2.9585 0.9667
6.7284 -4.1905 -2.9599 0.9667
7.0783 -3.5768 -2.9614 0.9667
7.8997 -0.8837 -2.9682 0.9666
7.8673 1.2371 -2.9738 0.9666
7.7308 1.9336 -2.9757 0.9665
7.2744 3.2777 -2.9794 0.9665
6.1829 5.1103 -2.9953 0.9663
5.7044 5.6412 -2.9958 0.9663
3.3793 7.2823 -2.9978 0.9663
2.7182 7.5555 -2.9983 0.9663
2.0353 7.7688 -2.9989 0.9663
1.3160 7.8018 -2.9544 0.9668
0.5941 7.6032 -2.8478 0.9680
-0.0850 7.6300 -2.8493 0.9679
-0.7641 7.5953 -2.8505 0.9679
-1.4374 7.4989 -2.8511 0.9679
-2.0992 7.3414 -2.8512 0.9679
-2.7439 7.1245 -2.8508 0.9679
-3.3664 6.8504 -2.8502 0.9679
-5.3291 6.0257 -3.0037 0.9662
-5.8447 5.5279 -3.0040 0.9662
-7.4078 3.1412 -3.0046 0.9662
-7.6581 2.4694 -3.0046 0.9662
-8.0374 -0.3584 -3.0042 0.9662
-7.9730 -1.0723 -3.0040 0.9662
-6.7286 -4.4016 -3.0024 0.9663
-6.3092 -4.9823 -3.0019 0.9663
-5.8398 -5.5232 -3.0015 0.9663
-4.7664 -6.4690 -3.0005 0.9663
-4.1710 -6.8664 -3.0000 0.9663
-3.5427 -7.2091 -2.9994 0.9663
-2.8865 -7.4945 -2.9989 0.9663
-2.2076 -7.7203 -2.9984 0.9663
1.3318 -7.8957 -2.9900 0.9664
3.3289 -7.1737 -2.9531 0.9668
3.9551 -6.8504 -2.9538 0.9668
4.5504 -6.4730 -2.9546 0.9668
5.6299 -5.5675 -2.9566 0.9668
6.1056 -5.0464 -2.9578 0.9667
7.4980 -2.6036 -2.9638 0.9667
7.7045 -1.9270 -2.9656 0.9667
7.8501 -1.2344 -2.9673 0.9666
7.9544 0.1773 -2.9710 0.9666
7.6394 2.2768 -2.9766 0.9665
7.4110 2.9495 -2.9785 0.9665
6.4039 4.8294 -2.9951 0.9663
5.4479 5.8902 -2.9960 0.9663
0.2549 7.6243 -2.8486 0.9680
-0.4249 7.6204 -2.8500 0.9679
-1.1019 7.5548 -2.8509 0.9679
-3.0583 6.9944 -2.8505 0.9679
-4.4777 6.6812 -3.0033 0.9662
-5.5925 5.7825 -3.0039 0.9662
-6.5300 4.7000 -3.0043 0.9662
-7.2605 3.4680 -3.0045 0.9662
-7.5405 2.8081 -3.0046 0.9662
-7.9188 1.4266 -3.0045 0.9662
-8.0140 0.7161 -3.0045 0.9662
-7.6542 0.0000 -3.0040 0.9676
-7.6233 -0.6812 -3.0039 0.9676
-6.9037 -3.2976 -3.0027 0.9677
-6.2081 -4.4683 -3.0020 0.9677
-5.3159 -5.4966 -3.0011 0.9677
-4.8049 -5.9470 -3.0006 0.9677
-3.6731 -6.7025 -2.9997 0.9677
-3.0614 -7.0017 -2.9991 0.9677
-2.4257 -7.2451 -2.9986 0.9677
0.2551 -7.6310 -2.9966 0.9677
0.9331 -7.5768 -2.9962 0.9677
1.5986 -7.4393 -2.9864 0.9678
2.2346 -7.2037 -2.9601 0.9681
3.4696 -6.6803 -2.9544 0.9682
4.6015 -5.9624 -2.9559 0.9682
6.0200 -4.5399 -2.9592 0.9681
6.4030 -3.9879 -2.9605 0.9681
7.0156 -2.7922 -2.9635 0.9681
7.5661 -0.1686 -2.9702 0.9680
7.3550 1.8396 -2.9756 0.9679
7.1663 2.4884 -2.9773 0.9679
5.8829 4.8624 -2.9955 0.9677
4.9291 5.8302 -2.9964 0.9677
4.3913 6.2468 -2.9968 0.9677
3.8185 6.6139 -2.9973 0.9677
3.2152 6.9287 -2.9978 0.9677
1.9365 7.3915 -2.9989 0.9677
1.2711 7.5358 -2.9994 0.9677
-0.7267 7.2237 -2.8494 0.9693
-1.9965 6.9822 -2.8501 0.9693
-2.6098 6.7760 -2.8498 0.9693
-3.2574 6.6286 -2.8987 0.9688
-5.0698 5.7325 -3.0035 0.9677
-6.7533 3.6037 -3.0042 0.9676
-7.2855 2.3492 -3.0043 0.9676
-7.4656 1.6915 -3.0043 0.9676
-7.5863 1.0203 -3.0042 0.9676
-7.6468 0.3410 -3.0041 0.9676
-7.6464 -0.3409 -3.0039 0.9676
-7.4637 -1.6910 -3.0035 0.9677
-6.0025 -4.7401 -3.0018 0.9677
-5.5559 -5.2548 -3.0013 0.9677
-5.0654 -5.7275 -3.0009 0.9677
-2.1004 -7.3453 -2.9984 0.9677
-0.7645 -7.5988 -2.9974 0.9677
-0.0851 -7.6354 -2.9969 0.9677
0.5947 -7.6115 -2.9964 0.9677
1.9159 -7.3130 -2.9670 0.9680
3.1683 -6.8275 -2.9541 0.9682
3.7642 -6.5198 -2.9547 0.9682
4.8633 -5.7524 -2.9564 0.9681
5.3579 -5.2986 -2.9574 0.9681
6.2176 -4.2681 -2.9599 0.9681
6.5759 -3.6995 -2.9612 0.9681
6.8825 -3.1011 -2.9627 0.9681
7.5489 -0.5053 -2.9693 0.9680
7.5684 0.1687 -2.9711 0.9680
7.5278 0.8421 -2.9729 0.9680
7.4275 1.5097 -2.9747 0.9680
6.0933 4.5952 -2.9952 0.9677
5.6609 5.1200 -2.9957 0.9677
3.5204 6.7780 -2.9976 0.9677
2.2636 7.2973 -2.9986 0.9677
0.9203 7.4727 -2.9550 0.9682
0.2424 7.2517 -2.8477 0.9693
-1.0479 7.1851 -2.8498 0.9693
-1.6835 7.0642 -2.8501 0.9693
-2.9089 6.6529 -2.8498 0.9693
-3.6655 6.6887 -2.9935 0.9678
-4.8092 5.9524 -3.0034 0.9677
-6.5859 3.9008 -3.0042 0.9676
-6.9072 3.2993 -3.0043 0.9676
-7.1736 2.6715 -3.0043 0.9676
-7.6241 0.6813 -3.0042 0.9676
-6.8339 -2.5450 -3.0029 0.9689
-6.5796 -3.1428 -3.0025 0.9689
-5.5134 -4.7676 -3.0014 0.9690
-4.5794 -5.6679 -3.0005 0.9690
-4.0561 -6.0521 -3.0001 0.9690
-3.5008 -6.3881 -2.9996 0.9690
-2.9179 -6.6732 -2.9991 0.9690
-1.6879 -7.0826 -2.9981 0.9690
-0.4052 -7.2673 -2.9972 0.9690
0.8894 -7.2218 -2.9963 0.9690
1.5285 -7.1129 -2.9958 0.9690
4.3869 -5.6843 -2.9567 0.9694
5.7389 -4.3279 -2.9598 0.9694
6.1039 -3.8016 -2.9611 0.9694
7.1646 -0.8015 -2.9687 0.9693
7.0098 1.7533 -2.9754 0.9692
6.5953 2.9717 -2.9788 0.9692
6.3386 3.5661 -2.9948 0.9690
5.1733 5.1160 -2.9960 0.9690
4.6981 5.5570 -2.9965 0.9690
3.6395 6.3039 -2.9974 0.9690
3.0645 6.6038 -2.9979 0.9690
2.4650 6.8515 -2.9984 0.9690
1.8456 7.0449 -2.9988 0.9690
1.2115 7.1823 -2.9993 0.9690
0.5639 7.2165 -2.9807 0.9692
-0.0771 6.9154 -2.8478 0.9705
-0.6924 6.8825 -2.8484 0.9705
-1.9022 6.6524 -2.8491 0.9705
-2.5019 6.4960 -2.8665 0.9703
-4.3259 5.8711 -3.0030 0.9689
-4.8317 5.4633 -3.0033 0.9689
-6.1046 3.9934 -3.0038 0.9689
-6.4360 3.4344 -3.0039 0.9689
-6.9432 2.2389 -3.0040 0.9689
-7.1149 1.6120 -3.0040 0.9689
-7.2299 0.9723 -3.0040 0.9689
-7.2289 -0.9722 -3.0035 0.9689
-6.9408 -2.2381 -3.0030 0.9689
-6.7134 -2.8467 -3.0027 0.9689
-4.3220 -5.8659 -3.0003 0.9690
-3.2125 -6.5372 -2.9994 0.9690
-1.3706 -7.1501 -2.9979 0.9690
-0.7286 -7.2426 -2.9974 0.9690
-0.0811 -7.2775 -2.9969 0.9690
0.5669 -7.2548 -2.9965 0.9690
3.0206 -6.5093 -2.9549 0.9694
4.1287 -5.8732 -2.9563 0.9694
4.6365 -5.4841 -2.9571 0.9694
5.1079 -5.0513 -2.9581 0.9694
5.5393 -4.5783 -2.9593 0.9694
6.2687 -3.5267 -2.9618 0.9694
6.5608 -2.9562 -2.9632 0.9694
6.8013 -2.3617 -2.9647 0.9693
7.1199 -1.1195 -2.9679 0.9693
7.2137 0.1608 -2.9712 0.9693
7.0789 1.4389 -2.9746 0.9692
6.4681 3.2685 -2.9842 0.9691
5.8078 4.3799 -2.9954 0.9690
4.9406 5.3418 -2.9962 0.9690
3.9164 6.1350 -2.9972 0.9690
3.3554 6.4603 -2.9976 0.9690
2.1575 6.9551 -2.9986 0.9690
1.5301 7.1206 -2.9991 0.9690
0.2349 7.0268 -2.8951 0.9700
-1.6040 6.7305 -2.8491 0.9705
-2.1968 6.5613 -2.8492 0.9705
-5.0705 5.2428 -3.0034 0.9689
-5.9205 4.2613 -3.0038 0.9689
-6.2765 3.7176 -3.0039 0.9689
-6.8519 -1.2344 -3.0032 0.9701
-6.7143 -1.8392 -3.0029 0.9701
-6.5233 -2.4293 -3.0027 0.9701
-5.9880 -3.5467 -3.0020 0.9701
-5.2630 -4.5510 -3.0013 0.9701
-4.8363 -5.0007 -3.0009 0.9701
-3.8719 -5.7773 -3.0000 0.9702
-2.7854 -6.3703 -2.9991 0.9702
-2.2070 -6.5920 -2.9986 0.9702
-1.6113 -6.7612 -2.9982 0.9702
-1.0030 -6.8767 -2.9977 0.9702
-0.3869 -6.9376 -2.9972 0.9702
0.8491 -6.8943 -2.9964 0.9702
1.4592 -6.7904 -2.9960 0.9702
3.1586 -6.0815 -2.9560 0.9706
4.6567 -5.0348 -2.9583 0.9706
5.8280 -3.6297 -2.9617 0.9705
6.1306 -3.0979 -2.9630 0.9705
6.3850 -2.5412 -2.9643 0.9705
6.5891 -1.9637 -2.9658 0.9705
6.8400 -0.7652 -2.9689 0.9705
6.8747 0.4602 -2.9721 0.9704
6.8101 1.0709 -2.9737 0.9704
6.3038 2.8405 -2.9825 0.9703
6.0513 3.4044 -2.9950 0.9702
5.7249 3.9300 -2.9954 0.9702
5.3531 4.4245 -2.9957 0.9702
4.9387 4.8840 -2.9961 0.9702
4.4850 5.3049 -2.9966 0.9702
2.9254 6.3042 -2.9979 0.9702
2.3531 6.5406 -2.9984 0.9702
-0.6678 6.6376 -2.8776 0.9714
-1.8445 6.4507 -2.8941 0.9712
-2.4924 6.4713 -2.9913 0.9702
-4.1293 5.6043 -3.0028 0.9701
-5.0583 4.7841 -3.0033 0.9701
-6.1434 3.2782 -3.0037 0.9701
-6.4110 2.7185 -3.0038 0.9701
-6.6275 2.1371 -3.0038 0.9701
-6.7914 1.5387 -3.0038 0.9701
-6.9562 0.3102 -3.0036 0.9701
-6.4083 -2.7173 -3.0025 0.9701
-6.1404 -3.2766 -3.0022 0.9701
-5.4608 -4.3124 -3.0015 0.9701
-4.1258 -5.5995 -3.0002 0.9702
-3.6105 -5.9436 -2.9998 0.9702
-0.6956 -6.9140 -2.9975 0.9702
-0.0774 -6.9475 -2.9970 0.9702
0.5412 -6.9257 -2.9966 0.9702
1.1553 -6.8491 -2.9962 0.9702
1.7591 -6.7146 -2.9942 0.9702
2.3276 -6.4697 -2.9659 0.9705
4.8772 -4.8232 -2.9588 0.9706
5.2890 -4.3715 -2.9599 0.9706
5.9852 -3.3672 -2.9623 0.9705
6.2640 -2.8224 -2.9636 0.9705
6.4935 -2.2548 -2.9651 0.9705
6.1966 3.1312 -2.9948 0.9702
4.7166 5.0995 -2.9963 0.9702
4.2446 5.4999 -2.9968 0.9702
3.7388 5.8567 -2.9972 0.9702
0.2324 6.9509 -3.0000 0.9702
-1.5422 6.4714 -2.8697 0.9714
-2.7881 6.3765 -3.0020 0.9701
-3.3450 6.1038 -3.0023 0.9701
-4.3750 5.4150 -3.0029 0.9701
-5.2666 4.5542 -3.0034 0.9701
-5.9912 3.5486 -3.0037 0.9701
-6.2834 3.0014 -3.0037 0.9701
-6.5258 2.4302 -3.0038 0.9701
-6.7162 1.8397 -3.0038 0.9701
-6.9357 0.6198 -3.0037 0.9701
-6.6561 -0.0000 -3.0033 0.9712
-6.6293 -0.5924 -3.0032 0.9712
-6.5498 -1.1800 -3.0030 0.9712
-6.4183 -1.7582 -3.0027 0.9712
-5.0311 -4.3506 -3.0012 0.9712
-4.6233 -4.7805 -3.0008 0.9712
-3.7014 -5.5229 -2.9999 0.9712
-2.6628 -6.0899 -2.9991 0.9713
-2.1099 -6.3018 -2.9986 0.9713
-1.5404 -6.4636 -2.9982 0.9713
0.8117 -6.5911 -2.9965 0.9713
1.9652 -6.3352 -2.9929 0.9713
2.4988 -6.0806 -2.9663 0.9716
3.5267 -5.5245 -2.9574 0.9716
4.0054 -5.1900 -2.9581 0.9716
4.4527 -4.8142 -2.9590 0.9716
4.8651 -4.4002 -2.9599 0.9716
5.5724 -3.4705 -2.9622 0.9716
5.8617 -2.9620 -2.9634 0.9716
6.1048 -2.4296 -2.9647 0.9716
6.2997 -1.8775 -2.9661 0.9716
6.4450 -1.3100 -2.9676 0.9716
6.5393 -0.7315 -2.9691 0.9715
5.1177 4.2299 -2.9959 0.9713
4.7215 4.6692 -2.9962 0.9713
4.2877 5.0716 -2.9966 0.9713
3.3215 5.7531 -2.9975 0.9713
2.7967 6.0268 -2.9979 0.9713
2.2495 6.2527 -2.9984 0.9713
1.6843 6.4291 -2.9988 0.9713
1.1056 6.5545 -2.9993 0.9713
0.5179 6.6278 -2.9997 0.9712
-2.3909 6.2079 -3.0017 0.9712
-2.9343 5.9711 -3.0020 0.9712
-3.4545 5.6868 -3.0023 0.9712
-3.9473 5.3573 -3.0026 0.9712
-4.4088 4.9851 -3.0028 0.9712
-5.2235 4.1250 -3.0032 0.9712
-5.5702 3.6438 -3.0034 0.9712
-6.5961 -0.8871 -3.0031 0.9712
-6.3334 -2.0422 -3.0026 0.9712
-5.8698 -3.1322 -3.0020 0.9712
-5.5671 -3.6418 -3.0017 0.9712
-3.9441 -5.3529 -3.0002 0.9712
-3.4515 -5.6819 -2.9997 0.9712
-2.9317 -5.9657 -2.9993 0.9713
-1.8269 -6.3891 -2.9984 0.9713
-0.6650 -6.6098 -2.9975 0.9713
-0.0740 -6.6418 -2.9971 0.9713
1.1045 -6.5479 -2.9963 0.9713
1.6827 -6.4228 -2.9959 0.9713
3.2767 -5.6755 -2.9571 0.9717
3.7697 -5.3625 -2.9577 0.9716
4.6635 -4.6118 -2.9594 0.9716
5.0572 -4.1799 -2.9604 0.9716
5.7227 -3.2195 -2.9628 0.9716
6.3787 -1.5954 -2.9668 0.9716
6.5671 -0.4396 -2.9698 0.9715
6.5835 0.1467 -2.9713 0.9715
6.4600 1.3130 -2.9745 0.9715
6.3207 1.8838 -2.9760 0.9715
5.9242 2.9936 -2.9950 0.9713
4.5091 4.8752 -2.9964 0.9713
0.8126 6.5977 -2.9995 0.9712
0.2221 6.6448 -2.9999 0.9712
-0.3702 6.6391 -3.0003 0.9712
-0.9541 6.5414 -2.9828 0.9714
-1.5370 6.4493 -2.9915 0.9713
-2.1119 6.3079 -3.0015 0.9712
-2.6653 6.0956 -3.0019 0.9712
-3.7046 5.5276 -3.0025 0.9712
-4.1822 5.1764 -3.0027 0.9712
-4.6267 4.7840 -3.0030 0.9712
-5.0345 4.3534 -3.0032 0.9712
-5.4022 3.8883 -3.0033 0.9712
-5.7271 3.3922 -3.0034 0.9712
-6.0064 2.8690 -3.0035 0.9712
-6.4201 1.7586 -3.0036 0.9712
-6.5510 1.1802 -3.0035 0.9712
-6.6299 0.5924 -3.0034 0.9712
-6.2693 -1.1295 -3.0028 0.9722
-6.1435 -1.6829 -3.0026 0.9722
-4.8158 -4.1643 -3.0010 0.9722
-4.4255 -4.5759 -3.0007 0.9722
-3.5431 -5.2866 -2.9999 0.9722
-3.0580 -5.5803 -2.9995 0.9723
0.7771 -6.3093 -2.9966 0.9723
1.3354 -6.2144 -2.9962 0.9723
2.4026 -5.8463 -2.9795 0.9724
2.8979 -5.5795 -2.9636 0.9726
3.3766 -5.2894 -2.9580 0.9726
3.8349 -4.9691 -2.9587 0.9726
4.2631 -4.6093 -2.9596 0.9726
5.0161 -3.7829 -2.9615 0.9726
5.3349 -3.3226 -2.9626 0.9726
5.8444 -2.3260 -2.9651 0.9726
6.1698 -1.2541 -2.9678 0.9725
6.2600 -0.7003 -2.9692 0.9725
6.2318 0.9799 -2.9736 0.9725
5.9746 2.0748 -2.9812 0.9724
5.5381 3.1157 -2.9953 0.9723
5.2394 3.5966 -2.9956 0.9723
4.8990 4.0492 -2.9960 0.9723
4.5197 4.4697 -2.9963 0.9723
4.1045 4.8549 -2.9967 0.9723
3.6566 5.2016 -2.9971 0.9723
3.1795 5.5071 -2.9975 0.9723
2.6771 5.7691 -2.9980 0.9723
2.1533 5.9853 -2.9984 0.9723
1.6123 6.1541 -2.9988 0.9723
0.4957 6.3443 -2.9996 0.9723
-0.6372 6.3334 -3.0005 0.9722
-1.1985 6.2523 -3.0008 0.9722
-2.2886 5.9422 -3.0015 0.9722
-3.3066 5.4433 -3.0022 0.9722
-3.7783 5.1279 -3.0024 0.9722
-4.2200 4.7716 -3.0027 0.9722
-4.6283 4.3774 -3.0029 0.9722
-4.9998 3.9483 -3.0030 0.9722
-5.3316 3.4878 -3.0032 0.9722
-6.0640 1.9554 -3.0033 0.9722
-6.3645 -0.2838 -3.0030 0.9722
-6.3136 -0.8491 -3.0029 0.9722
-6.2126 -1.4076 -3.0027 0.9722
-6.0622 -1.9548 -3.0024 0.9722
-5.6185 -2.9981 -3.0019 0.9722
-4.9968 -3.9459 -3.0012 0.9722
-3.7753 -5.1239 -3.0001 0.9722
-3.3038 -5.4388 -2.9997 0.9723
-1.1973 -6.2463 -2.9980 0.9723
-0.0709 -6.3579 -2.9972 0.9723
0.4953 -6.3381 -2.9968 0.9723
1.6108 -6.1483 -2.9960 0.9723
2.1489 -5.9730 -2.9922 0.9723
2.6498 -5.7102 -2.9673 0.9725
3.1406 -5.4398 -2.9609 0.9726
4.4649 -4.4154 -2.9600 0.9726
4.8418 -4.0018 -2.9610 0.9726
5.4787 -3.0823 -2.9632 0.9726
5.7337 -2.5835 -2.9644 0.9726
5.9435 -2.0638 -2.9657 0.9726
6.3021 0.1404 -2.9714 0.9725
6.1836 1.2569 -2.9744 0.9725
5.9009 2.3485 -2.9938 0.9723
5.0742 3.8267 -2.9958 0.9723
4.7141 4.2636 -2.9962 0.9723
4.3164 4.6669 -2.9965 0.9723
3.4215 5.3597 -2.9973 0.9723
2.9313 5.6437 -2.9977 0.9723
1.8847 6.0758 -2.9986 0.9723
1.3366 6.2203 -2.9990 0.9723
0.2126 6.3605 -2.9999 0.9722
-0.3544 6.3550 -3.0003 0.9722
-1.4759 6.1931 -3.0010 0.9722
-2.5512 5.8346 -3.0017 0.9722
-3.5459 5.2909 -3.0023 0.9722
-5.4818 3.2468 -3.0032 0.9722
-5.7492 2.7461 -3.0033 0.9722
-6.3459 0.5671 -3.0032 0.9722
-6.1053 0.0000 -3.0029 0.9732
-5.5072 -2.6306 -3.0019 0.9732
-5.2507 -3.1100 -3.0016 0.9732
-4.6151 -3.9908 -3.0009 0.9732
-3.3955 -5.0664 -2.9998 0.9732
-2.4428 -5.5867 -2.9990 0.9732
-1.9356 -5.7812 -2.9986 0.9732
-1.4131 -5.9297 -2.9982 0.9732
-0.8796 -6.0311 -2.9978 0.9732
-0.3393 -6.0846 -2.9974 0.9732
0.7447 -6.0469 -2.9966 0.9732
2.3122 -5.6265 -2.9920 0.9732
3.2409 -5.0768 -2.9625 0.9735
4.0864 -4.4182 -2.9601 0.9735
4.4648 -4.0382 -2.9610 0.9735
5.6017 -2.2294 -2.9654 0.9735
5.7804 -1.7227 -2.9667 0.9735
5.9134 -1.2019 -2.9680 0.9735
6.0384 -0.1346 -2.9708 0.9734
5.9723 0.9391 -2.9736 0.9734
5.8724 1.4688 -2.9773 0.9734
5.7492 1.9963 -2.9934 0.9732
5.5519 2.5016 -2.9952 0.9732
5.0214 3.4470 -2.9957 0.9732
4.6952 3.8807 -2.9961 0.9732
2.0637 5.7362 -2.9984 0.9732
1.5452 5.8979 -2.9988 0.9732
1.0142 6.0128 -2.9992 0.9732
0.4751 6.0800 -2.9996 0.9732
-0.6106 6.0695 -3.0004 0.9732
-3.1688 5.2164 -3.0020 0.9732
-5.6212 2.3836 -3.0031 0.9731
-5.8111 1.8738 -3.0031 0.9731
-6.0512 0.8138 -3.0031 0.9732
-6.0994 0.2720 -3.0030 0.9732
-6.0991 -0.2719 -3.0029 0.9732
-5.6192 -2.3827 -3.0020 0.9732
-5.1067 -3.3406 -3.0014 0.9732
-4.4325 -4.1922 -3.0008 0.9732
-4.0413 -4.5695 -3.0004 0.9732
-3.1662 -5.2123 -2.9996 0.9732
-0.6100 -6.0639 -2.9976 0.9732
0.4746 -6.0744 -2.9968 0.9732
2.5506 -5.4963 -2.9803 0.9734
3.0139 -5.2203 -2.9649 0.9735
3.8850 -4.5952 -2.9597 0.9735
4.6410 -3.8359 -2.9615 0.9735
4.9657 -3.4088 -2.9625 0.9735
5.4956 -2.4762 -2.9648 0.9735
5.8527 -1.4638 -2.9673 0.9735
6.0399 0.1346 -2.9715 0.9734
6.0068 0.6720 -2.9729 0.9734
5.8092 1.7312 -2.9815 0.9733
4.1368 4.4727 -2.9966 0.9732
3.7228 4.8238 -2.9970 0.9732
3.2791 5.1366 -2.9974 0.9732
2.3170 5.6381 -2.9982 0.9732
1.2810 5.9612 -2.9990 0.9732
-1.4144 5.9350 -3.0009 0.9732
-1.9373 5.7862 -3.0013 0.9732
-2.9331 5.3522 -3.0019 0.9732
-3.8362 4.7482 -3.0024 0.9732
-4.2439 4.3882 -3.0026 0.9732
-4.6179 3.9933 -3.0028 0.9732
-4.9552 3.5666 -3.0029 0.9732
-5.6481 -1.5471 -3.0022 0.9740
-5.2834 -2.5236 -3.0018 0.9740
-5.0373 -2.9836 -3.0015 0.9740
-4.7513 -3.4197 -3.0012 0.9740
-4.0688 -4.2071 -3.0005 0.9740
-2.8117 -5.1306 -2.9994 0.9740
-2.3436 -5.3598 -2.9990 0.9740
-1.8570 -5.5464 -2.9986 0.9741
-1.3558 -5.6889 -2.9982 0.9741
-0.8439 -5.7863 -2.9978 0.9741
0.1953 -5.8428 -2.9971 0.9741
0.7145 -5.8015 -2.9967 0.9741
1.2279 -5.7142 -2.9964 0.9741
1.7314 -5.5816 -2.9960 0.9741
2.6810 -5.1618 -2.9820 0.9742
3.1132 -4.8768 -2.9662 0.9743
3.9212 -4.2396 -2.9606 0.9744
4.6135 -3.4793 -2.9624 0.9744
4.9066 -3.0558 -2.9634 0.9744
5.1610 -2.6080 -2.9645 0.9743
5.5461 -1.6529 -2.9669 0.9743
5.6737 -1.1532 -2.9682 0.9743
5.7563 -0.6439 -2.9695 0.9743
5.7846 0.3872 -2.9722 0.9743
5.7314 0.9014 -2.9744 0.9743
4.1559 4.1099 -2.9965 0.9741
3.3622 4.7828 -2.9972 0.9741
2.9235 5.0637 -2.9976 0.9741
2.4615 5.3045 -2.9980 0.9741
0.9730 5.7686 -2.9992 0.9740
-0.0652 5.8512 -2.9999 0.9740
-1.1019 5.7484 -3.0007 0.9740
-2.1041 5.4631 -3.0013 0.9740
-3.4736 4.7144 -3.0021 0.9740
-3.8797 4.3868 -3.0023 0.9740
-5.5748 1.7976 -3.0030 0.9740
-5.7127 1.2943 -3.0029 0.9740
-5.8514 0.2609 -3.0028 0.9740
-5.5733 -1.7972 -3.0021 0.9740
-5.3908 -2.2859 -3.0019 0.9740
-3.8771 -4.3839 -3.0003 0.9740
-3.0376 -5.0006 -2.9996 0.9740
-2.1023 -5.4585 -2.9988 0.9740
-1.6079 -5.6233 -2.9984 0.9741
-0.0652 -5.8460 -2.9973 0.9741
1.4811 -5.6535 -2.9962 0.9741
2.4568 -5.2943 -2.9923 0.9741
2.8975 -5.0187 -2.9710 0.9743
3.7280 -4.4095 -2.9602 0.9744
4.1067 -4.0613 -2.9610 0.9744
5.2731 -2.3760 -2.9651 0.9743
5.4658 -1.8980 -2.9663 0.9743
5.7806 -0.3870 -2.9702 0.9743
5.7948 0.1292 -2.9715 0.9743
5.6914 1.1566 -2.9775 0.9742
5.2148 2.6351 -2.9954 0.9741
4.9600 3.0891 -2.9957 0.9741
4.3346 3.9205 -2.9963 0.9741
3.5717 4.6280 -2.9971 0.9741
3.1460 4.9282 -2.9974 0.9741
2.6952 5.1893 -2.9978 0.9741
1.2290 5.7192 -2.9990 0.9740
0.1955 5.8480 -2.9997 0.9740
-0.3258 5.8429 -3.0001 0.9740
-1.3569 5.6939 -3.0008 0.9740
-1.8585 5.5511 -3.0012 0.9740
-2.8139 5.1346 -3.0017 0.9740
-3.2600 4.8642 -3.0020 0.9740
-5.6494 1.5475 -3.0030 0.9740
-5.7646 1.0385 -3.0029 0.9740
-5.8341 0.5213 -3.0028 0.9740
-5.5348 -0.9971 -3.0023 0.9748
-5.4238 -1.4857 -3.0021 0.9748
-5.2696 -1.9624 -3.0019 0.9748
-4.8374 -2.8652 -3.0014 0.9748
-3.9073 -4.0401 -3.0004 0.9748
-3.1283 -4.6677 -2.9997 0.9748
-1.3020 -5.4633 -2.9982 0.9749
-0.3126 -5.6062 -2.9975 0.9749
0.6862 -5.5715 -2.9968 0.9749
1.1792 -5.4877 -2.9965 0.9749
2.5841 -4.9753 -2.9930 0.9749
2.9971 -4.6949 -2.9735 0.9751
3.3944 -4.3983 -2.9660 0.9751
3.7679 -4.0738 -2.9624 0.9752
4.1149 -3.7217 -2.9619 0.9752
4.4312 -3.3417 -2.9628 0.9751
5.1621 -2.0545 -2.9660 0.9751
5.5638 -0.1240 -2.9709 0.9751
4.3262 3.5757 -2.9963 0.9749
3.9912 3.9470 -2.9966 0.9749
3.2289 4.5932 -2.9973 0.9749
2.8076 4.8629 -2.9977 0.9749
2.3639 5.0942 -2.9980 0.9749
0.9344 5.5398 -2.9992 0.9748
-0.5625 5.5918 -3.0002 0.9748
-2.0206 5.2462 -3.0012 0.9748
-2.4797 5.0460 -3.0015 0.9748
-3.3357 4.5272 -3.0020 0.9748
-3.7256 4.2126 -3.0022 0.9748
-4.0860 3.8645 -3.0024 0.9748
-4.9624 2.6480 -3.0027 0.9748
-5.1785 2.1959 -3.0028 0.9748
-5.4858 1.2429 -3.0028 0.9748
-5.5745 0.7497 -3.0027 0.9748
-5.5739 -0.7496 -3.0024 0.9748
-5.4848 -1.2427 -3.0022 0.9748
-5.1768 -2.1951 -3.0018 0.9748
-4.7047 -3.0776 -3.0012 0.9748
-3.7232 -4.2099 -3.0003 0.9748
-3.3334 -4.5240 -2.9999 0.9748
-2.4778 -5.0422 -2.9992 0.9748
-2.0189 -5.2420 -2.9988 0.9749
-1.5442 -5.4002 -2.9984 0.9749
-0.0626 -5.6142 -2.9973 0.9749
0.4373 -5.5969 -2.9970 0.9749
0.9336 -5.5351 -2.9966 0.9749
1.8998 -5.2807 -2.9960 0.9749
2.3621 -5.0902 -2.9957 0.9749
4.5764 -3.1415 -2.9633 0.9751
4.8395 -2.7227 -2.9643 0.9751
5.0645 -2.2820 -2.9654 0.9751
5.3931 -1.3489 -2.9678 0.9751
5.5516 -0.3716 -2.9703 0.9751
5.5650 0.1240 -2.9716 0.9751
5.5387 0.6196 -2.9753 0.9750
5.4789 1.1137 -2.9847 0.9750
5.0082 2.5308 -2.9955 0.9749
3.8116 4.1211 -2.9968 0.9749
3.4301 4.4445 -2.9971 0.9749
3.0212 4.7328 -2.9975 0.9749
2.1348 5.1947 -2.9982 0.9749
-0.8112 5.5616 -3.0004 0.9748
-1.3031 5.4679 -3.0007 0.9748
-3.5341 4.3743 -3.0021 0.9748
-3.9097 4.0426 -3.0023 0.9748
-4.5650 3.2857 -3.0026 0.9748
-4.8395 2.8664 -3.0027 0.9748
-5.5357 0.9973 -3.0027 0.9748
-5.6023 0.5006 -3.0027 0.9748
-5.4059 0.0000 -3.0024 0.9756
-5.2131 -1.4280 -3.0020 0.9756
-4.3855 -3.1565 -3.0010 0.9756
-4.0867 -3.5339 -3.0007 0.9756
-1.7141 -5.1197 -2.9986 0.9756
-0.3005 -5.3887 -2.9975 0.9756
0.1803 -5.3935 -2.9972 0.9756
2.4861 -4.7866 -2.9957 0.9756
2.8945 -4.5341 -2.9876 0.9757
3.2678 -4.2342 -2.9706 0.9758
3.6266 -3.9211 -2.9664 0.9759
4.2598 -3.2125 -2.9632 0.9759
4.5303 -2.8215 -2.9642 0.9759
4.7650 -2.4079 -2.9652 0.9759
4.9622 -1.9749 -2.9663 0.9759
5.2379 -1.0646 -2.9686 0.9758
5.3140 -0.5945 -2.9698 0.9758
5.2316 1.3085 -2.9951 0.9756
5.0947 1.7691 -2.9953 0.9756
3.8364 3.7939 -2.9967 0.9756
3.4839 4.1208 -2.9970 0.9756
3.1036 4.4150 -2.9973 0.9756
0.8982 5.3248 -2.9991 0.9756
0.4207 5.3842 -2.9995 0.9756
-1.0171 5.3059 -3.0005 0.9756
-1.4854 5.1948 -3.0008 0.9756
-1.9421 5.0425 -3.0011 0.9756
-2.3834 4.8500 -3.0014 0.9756
-4.2425 3.3502 -3.0024 0.9756
-4.7695 2.5451 -3.0025 0.9756
-4.9773 2.1105 -3.0026 0.9756
-5.2726 1.1946 -3.0026 0.9756
-5.3579 0.7206 -3.0026 0.9756
-5.4007 0.2408 -3.0025 0.9756
-5.2717 -1.1944 -3.0021 0.9756
-5.1441 -1.6588 -3.0019 0.9756
-4.9757 -2.1099 -3.0016 0.9756
-4.7677 -2.5441 -3.0014 0.9756
-4.5220 -2.9581 -3.0011 0.9756
-3.9250 -3.7123 -3.0005 0.9756
-3.5787 -4.0464 -3.0002 0.9756
-3.2039 -4.3484 -2.9999 0.9756
-1.0162 -5.3016 -2.9981 0.9756
-0.5403 -5.3703 -2.9977 0.9756
-0.0601 -5.3965 -2.9974 0.9756
0.4204 -5.3798 -2.9970 0.9756
1.8262 -5.0760 -2.9961 0.9756
2.2705 -4.8928 -2.9958 0.9756
2.6954 -4.6686 -2.9940 0.9756
3.0833 -4.3861 -2.9777 0.9758
3.7960 -3.7539 -2.9651 0.9759
4.6522 -2.6173 -2.9647 0.9759
5.1842 -1.2967 -2.9680 0.9758
5.2812 -0.8304 -2.9692 0.9758
5.3532 0.1193 -2.9739 0.9758
5.3308 0.5962 -2.9792 0.9758
5.1683 1.5403 -2.9952 0.9756
5.0110 1.9944 -2.9954 0.9756
4.5788 2.8517 -2.9959 0.9756
3.6638 3.9613 -2.9968 0.9756
3.2970 4.2721 -2.9972 0.9756
2.9040 4.5492 -2.9975 0.9756
2.0519 4.9932 -2.9982 0.9756
1.5996 5.1566 -2.9986 0.9756
1.1344 5.2792 -2.9989 0.9756
0.6601 5.3598 -2.9993 0.9756
-0.3008 5.3932 -3.0000 0.9756
-1.2525 5.2556 -3.0007 0.9756
-3.7578 3.8855 -3.0021 0.9756
-4.3876 3.1580 -3.0024 0.9756
-4.6514 2.7550 -3.0025 0.9756
-4.8783 2.3301 -3.0026 0.9756
-5.0664 1.8867 -3.0026 0.9756
-5.2142 1.4283 -3.0026 0.9756
-5.3206 0.9585 -3.0026 0.9756
-5.1173 -0.9219 -3.0020 0.9763
-5.0146 -1.3736 -3.0018 0.9763
-4.8721 -1.8144 -3.0016 0.9763
-3.9312 -3.3995 -3.0006 0.9763
-3.6127 -3.7355 -3.0003 0.9763
-2.4966 -4.5557 -2.9993 0.9763
-1.6489 -4.9250 -2.9986 0.9763
-0.7494 -5.1382 -2.9979 0.9763
2.7917 -4.3732 -2.9955 0.9763
3.4928 -3.7765 -2.9699 0.9765
4.5843 -2.3166 -2.9655 0.9766
4.7739 -1.9000 -2.9665 0.9765
5.0390 -1.0242 -2.9687 0.9765
5.1151 -0.5718 -2.9716 0.9765
5.1517 -0.1148 -2.9751 0.9765
5.1549 0.3451 -2.9829 0.9764
4.9012 1.7019 -2.9954 0.9763
4.7306 2.1315 -2.9957 0.9763
4.5224 2.5443 -2.9959 0.9763
4.0004 3.3065 -2.9964 0.9763
3.3515 3.9642 -2.9971 0.9763
2.9857 4.2472 -2.9974 0.9763
2.5961 4.4966 -2.9977 0.9763
2.1858 4.7103 -2.9981 0.9763
1.3163 5.0244 -2.9988 0.9763
0.4047 5.1794 -2.9994 0.9763
-0.0579 5.1955 -2.9998 0.9763
-0.9783 5.1040 -3.0004 0.9763
-1.4289 4.9971 -3.0007 0.9763
-1.8682 4.8506 -3.0010 0.9763
-2.2927 4.6655 -3.0013 0.9763
-3.0840 4.1857 -3.0017 0.9763
-3.7778 3.5730 -3.0021 0.9763
-4.0810 3.2227 -3.0022 0.9763
-4.5879 2.4482 -3.0024 0.9763
-5.0719 1.1491 -3.0024 0.9763
-5.1539 0.6931 -3.0024 0.9763
-5.1950 0.2317 -3.0023 0.9763
-5.1534 -0.6931 -3.0021 0.9763
-5.0710 -1.1489 -3.0019 0.9763
-4.9483 -1.5956 -3.0017 0.9763
-4.7863 -2.0296 -3.0015 0.9763
-4.3499 -2.8456 -3.0010 0.9763
-4.0790 -3.2211 -3.0007 0.9763
-3.7757 -3.5710 -3.0004 0.9763
-3.4425 -3.8925 -3.0001 0.9763
-3.0821 -4.1830 -2.9998 0.9763
-2.6972 -4.4402 -2.9995 0.9763
-2.2911 -4.6621 -2.9991 0.9763
-1.4278 -4.9933 -2.9984 0.9763
1.3153 -5.0206 -2.9965 0.9763
1.7568 -4.8831 -2.9962 0.9763
2.1842 -4.7070 -2.9959 0.9763
2.5943 -4.4935 -2.9957 0.9763
2.9790 -4.2377 -2.9907 0.9764
3.9607 -3.2736 -2.9667 0.9765
4.2342 -2.9063 -2.9651 0.9766
4.4758 -2.5180 -2.9650 0.9766
4.6837 -2.1104 -2.9660 0.9766
5.1384 -0.3440 -2.9733 0.9765
5.1495 0.5761 -2.9916 0.9764
5.0838 1.0333 -2.9951 0.9763
4.9719 1.4818 -2.9953 0.9763
4.6311 2.3402 -2.9958 0.9763
4.1435 3.1248 -2.9963 0.9763
3.8494 3.4816 -2.9966 0.9763
3.5246 3.8107 -2.9969 0.9763
2.3933 4.6080 -2.9979 0.9763
1.9739 4.8033 -2.9982 0.9763
1.5387 4.9605 -2.9986 0.9763
0.1736 5.1926 -2.9996 0.9763
-0.7500 5.1422 -3.0003 0.9763
-1.6502 4.9287 -3.0009 0.9763
-2.4983 4.5589 -3.0014 0.9763
-2.8944 4.3187 -3.0016 0.9763
-3.2675 4.0443 -3.0018 0.9763
-3.9333 3.4012 -3.0021 0.9763
-4.2206 3.0378 -3.0023 0.9763
-4.8735 1.8149 -3.0025 0.9763
-5.0156 1.3739 -3.0025 0.9763
