ply
format ascii 1.0
element vertex 1616
property float32 x
property float32 y
property float32 z
property float32 I
end_header
-4.4795 -11.6309 6.6537 0.9451
-0.9327 -6.3952 3.3133 0.9714
-0.9614 -6.5918 3.2765 0.9707
-0.9974 -6.8387 3.2577 0.9699
5.6206 9.7352 5.2988 0.9515
2.5436 9.7087 4.7309 0.9566
1.6291 9.6577 4.6167 0.9576
2.0811 9.6846 4.6693 0.9571
-1.0353 -7.0983 3.2368 0.9690
6.8076 9.6839 5.3412 0.9494
-1.0753 -7.3727 3.2139 0.9681
-1.1138 -7.6366 3.1779 0.9672
-1.1479 -7.8708 3.1217 0.9664
-1.2609 -8.6457 2.9355 0.9638
-1.3057 -8.9527 2.8733 0.9627
-1.3625 -9.3421 2.8264 0.9613
6.8196 9.7010 3.3364 0.9519
4.4871 9.6695 2.9992 0.9567
5.0477 9.7186 3.0812 0.9555
8.2164 9.7184 3.3534 0.9487
3.4758 9.6611 2.7054 0.9584
2.9917 9.6443 2.6607 0.9591
9.8478 9.7387 3.4043 0.9445
2.5285 9.6511 2.4523 0.9597
1.6317 9.6736 2.4114 0.9604
8.6935 3.9171 0.8742 0.9624
8.9272 3.5530 0.8809 0.9621
8.7229 4.4078 0.8960 0.9615
9.1145 3.1649 0.7230 0.9620
8.8444 4.9758 0.7605 0.9601
8.6820 3.4553 0.7003 0.9632
8.4261 4.2579 0.7075 0.9628
8.8754 3.0819 0.5472 0.9631
8.3801 4.7146 0.5600 0.9622
8.2451 4.1665 0.5381 0.9637
8.7152 3.0263 0.3836 0.9637
9.3684 2.7921 0.4065 0.9616
8.3908 3.3395 0.3755 0.9645
8.0736 4.5421 0.2310 0.9636
9.1517 2.7275 0.2381 0.9625
8.0344 4.0600 0.2245 0.9646
8.5231 2.9595 0.0750 0.9646
8.0467 3.6257 0.0734 0.9653
7.9579 4.0213 0.0741 0.9650
8.2887 5.1623 0.0812 0.9617
7.9171 4.4541 -0.0755 0.9643
8.1548 5.0788 -0.0798 0.9623
8.4169 2.9227 -0.2222 0.9650
7.9607 3.5869 -0.2177 0.9657
7.8690 4.4270 -0.2252 0.9645
8.8478 2.6369 -0.2302 0.9637
8.1357 3.2379 -0.2184 0.9656
8.3879 2.9126 -0.3692 0.9651
7.9360 3.5758 -0.3619 0.9658
7.8416 4.4116 -0.3741 0.9646
8.8137 2.6268 -0.3824 0.9639
8.1100 3.2277 -0.3629 0.9657
8.0332 5.0031 -0.3935 0.9628
8.3719 2.9071 -0.5162 0.9651
7.9230 3.5699 -0.5061 0.9658
7.8282 3.9558 -0.5108 0.9655
8.0072 4.9869 -0.5494 0.9629
8.3651 2.9047 -0.6636 0.9651
7.8211 4.4001 -0.6725 0.9646
8.7906 2.6199 -0.6874 0.9639
8.0892 3.2194 -0.6524 0.9657
7.8211 3.9522 -0.6567 0.9655
7.9285 3.5724 -0.7972 0.9657
7.8370 4.4090 -0.8244 0.9645
8.0363 5.0050 -0.8679 0.9627
8.3981 2.9161 -0.9643 0.9649
8.1162 3.2302 -0.9475 0.9655
8.0884 5.0375 -1.0336 0.9624
8.4505 2.9343 -1.1210 0.9646
7.9806 3.5959 -1.0969 0.9653
7.9073 4.4486 -1.1370 0.9641
8.9105 2.6556 -1.1652 0.9632
8.1775 5.0930 -1.2073 0.9619
8.5038 2.9528 -1.2804 0.9643
8.0236 3.6153 -1.2517 0.9651
8.2039 3.2651 -1.2559 0.9650
7.9372 4.0108 -1.2649 0.9647
8.4083 5.2367 -1.4090 0.9608
8.6008 2.9865 -1.4498 0.9638
8.0945 3.6472 -1.4137 0.9647
8.0746 4.5427 -1.4753 0.9632
8.0155 4.0504 -1.4301 0.9643
8.7156 3.0264 -1.6268 0.9632
8.2267 4.6283 -1.6644 0.9624
8.3683 3.3305 -1.5881 0.9641
8.3103 3.7444 -1.7639 0.9635
8.5143 3.3886 -1.7734 0.9634
-11.0115 -9.5220 -3.0690 0.9422
-10.1276 -10.4718 -3.0712 0.9422
-8.1185 -12.1136 -3.0743 0.9421
-5.8065 -13.2799 -3.0556 0.9425
-3.3457 -14.0392 -3.0426 0.9427
-2.0788 -14.2533 -3.0367 0.9428
-0.7998 -14.3440 -3.0287 0.9430
0.4790 -14.3277 -3.0222 0.9431
9.4689 3.2880 -2.1132 0.9599
1.1341 14.5133 -3.0690 0.9422
-0.1624 14.5717 -3.0722 0.9422
-1.4587 14.4998 -3.0723 0.9422
-7.5677 12.4581 -3.0730 0.9422
-8.6472 11.7361 -3.0733 0.9421
-9.6584 10.9209 -3.0736 0.9421
-10.5931 10.0189 -3.0739 0.9421
-11.4441 9.0373 -3.0742 0.9421
-12.8452 6.8544 -3.0694 0.9422
-10.5798 -10.0063 -3.0700 0.9422
-9.6547 -10.9166 -3.0724 0.9422
-6.4010 -13.0257 -3.0597 0.9424
-4.7610 -12.3617 -2.7927 0.9473
-2.7149 -14.1635 -3.0403 0.9428
-0.1599 -14.3491 -3.0253 0.9430
1.1157 -14.2786 -3.0194 0.9431
2.3793 -14.1057 -3.0158 0.9432
8.4997 4.2951 -2.0077 0.9618
1.7795 14.4483 -3.0690 0.9422
0.4864 14.5494 -3.0690 0.9422
-0.8113 14.5506 -3.0723 0.9422
-3.3785 14.1766 -3.0724 0.9422
-7.0049 12.7824 -3.0729 0.9422
-10.1358 10.4803 -3.0737 0.9421
-11.8343 8.5178 -3.0739 0.9421
-12.5333 7.4235 -3.0710 0.9422
-14.1139 0.0000 -3.2214 0.9437
-14.0579 -1.2562 -3.2214 0.9437
-12.7357 -6.0833 -3.2214 0.9437
-11.4553 -8.2450 -3.2214 0.9437
-10.6760 -9.2318 -3.2214 0.9437
-9.3477 -9.6655 -3.0690 0.9463
-4.2596 -12.7227 -3.0623 0.9464
-1.9284 -13.2223 -3.0498 0.9467
-0.7421 -13.3086 -3.0423 0.9468
2.9196 -13.5865 -3.1718 0.9446
4.1057 -13.2354 -3.1629 0.9447
5.2699 -12.8237 -3.1644 0.9447
6.3939 -12.3104 -3.1662 0.9447
7.4685 -11.6992 -3.1680 0.9446
9.4371 -10.2033 -3.1722 0.9446
10.3156 -9.3299 -3.1746 0.9445
11.8261 -7.3654 -3.1799 0.9444
12.4459 -6.2892 -3.1828 0.9444
13.3839 -3.9891 -3.1876 0.9443
13.6925 -2.7831 -3.1891 0.9443
13.8983 -1.5548 -3.1920 0.9442
13.6160 3.4056 -3.2035 0.9440
12.2649 6.9001 -3.2120 0.9439
11.6115 7.9709 -3.2146 0.9439
9.1123 10.7781 -3.2214 0.9437
7.0570 12.2230 -3.2214 0.9437
4.7779 13.2806 -3.2214 0.9437
3.5769 13.6531 -3.2214 0.9437
2.3475 13.9173 -3.2214 0.9437
-2.5344 13.2217 -3.0727 0.9463
-6.9907 11.5083 -3.0733 0.9463
-9.7853 9.2549 -3.0741 0.9462
-11.2593 7.3655 -3.0709 0.9463
-12.1743 6.4964 -3.1496 0.9450
-13.4328 4.3315 -3.2214 0.9437
-13.7650 -3.1187 -3.2214 0.9437
-13.4328 -4.3315 -3.2214 0.9437
-12.4520 -6.6446 -3.2214 0.9437
-11.8112 -7.7265 -3.2214 0.9437
-11.0767 -8.7471 -3.2214 0.9437
-8.9110 -10.0758 -3.0701 0.9463
-7.9839 -10.8359 -3.0721 0.9463
-5.9378 -12.0830 -3.0729 0.9463
-2.5190 -13.1414 -3.0540 0.9466
3.5115 -13.4034 -3.1625 0.9447
6.9379 -12.0167 -3.1670 0.9447
9.8860 -9.7764 -3.1734 0.9446
11.4813 -7.8815 -3.1786 0.9445
12.7195 -5.7311 -3.1842 0.9444
13.1897 -4.5800 -3.1868 0.9443
13.5513 -3.3894 -3.1883 0.9443
13.8091 -2.1714 -3.1906 0.9443
13.9601 -0.9345 -3.1934 0.9442
14.0004 0.3120 -3.1963 0.9442
13.4570 4.0106 -3.2050 0.9440
13.0583 5.1971 -3.2079 0.9440
11.9502 7.4427 -3.2133 0.9439
11.2492 8.4835 -3.2158 0.9438
10.4572 9.4580 -3.2182 0.9438
8.6232 11.1733 -3.2214 0.9437
6.5054 12.5253 -3.2214 0.9437
4.1816 13.4802 -3.2214 0.9437
2.9652 13.7989 -3.2214 0.9437
1.6436 13.3454 -3.0690 0.9463
-1.9429 13.3213 -3.0727 0.9463
-3.1209 13.0959 -3.0728 0.9463
-7.4967 11.1859 -3.0734 0.9463
-9.3629 9.6811 -3.0740 0.9462
-10.1884 8.8102 -3.0743 0.9462
-10.9249 7.8633 -3.0722 0.9463
-12.7356 6.0833 -3.2214 0.9437
-13.8903 2.5025 -3.2214 0.9437
-13.0538 -1.1665 -3.2214 0.9474
-11.8260 -5.6488 -3.2214 0.9474
-9.1111 -9.4208 -3.2214 0.9474
-6.9552 -10.3778 -3.0708 0.9498
-6.0068 -10.9610 -3.0723 0.9498
-3.9709 -11.8604 -3.0743 0.9498
-1.8032 -12.3639 -3.0712 0.9498
0.4177 -12.4937 -3.0727 0.9498
3.8151 -12.2989 -3.1652 0.9483
5.9396 -11.4357 -3.1674 0.9483
6.9379 -10.8680 -3.1693 0.9483
7.8837 -10.2152 -3.1717 0.9482
10.9837 -6.8407 -3.1806 0.9481
12.9938 -0.2895 -3.1947 0.9479
12.9788 0.8688 -3.1973 0.9478
12.8612 2.0223 -3.2001 0.9478
12.6411 3.1618 -3.2029 0.9477
9.3076 9.2045 -3.2176 0.9475
8.4565 10.0024 -3.2195 0.9475
7.5371 10.7217 -3.2214 0.9474
4.4367 12.3320 -3.2214 0.9474
3.3215 12.6780 -3.2214 0.9474
2.0767 12.3119 -3.0690 0.9499
-0.1393 12.5023 -3.0733 0.9498
-8.2853 9.3683 -3.0741 0.9498
-9.0869 8.5943 -3.0743 0.9498
-11.5626 6.1700 -3.2214 0.9474
-12.4734 4.0222 -3.2214 0.9474
-12.9889 1.7469 -3.2214 0.9474
-13.0928 0.5838 -3.2214 0.9474
-13.0928 -0.5838 -3.2214 0.9474
-12.9889 -1.7468 -3.2214 0.9474
-12.7819 -2.8960 -3.2214 0.9474
-12.0659 -5.1164 -3.2214 0.9474
-11.5627 -6.1700 -3.2214 0.9474
-10.9676 -7.1746 -3.2214 0.9474
-10.2855 -8.1223 -3.2214 0.9474
-9.5218 -9.0055 -3.2214 0.9474
-7.4086 -10.0550 -3.0699 0.9499
-6.4876 -10.6801 -3.0715 0.9498
-5.5138 -11.2202 -3.0729 0.9498
-4.4949 -11.6707 -3.0741 0.9498
-3.4358 -12.0154 -3.0718 0.9498
-1.2520 -12.4447 -3.0743 0.9498
0.9734 -12.4572 -3.0713 0.9498
2.0938 -12.4127 -3.0941 0.9495
4.3599 -12.1185 -3.1656 0.9483
5.4230 -11.6864 -3.1667 0.9483
6.4446 -11.1624 -3.1682 0.9483
8.3338 -9.8573 -3.1728 0.9482
9.1843 -9.0825 -3.1750 0.9482
11.2810 -6.3466 -3.1816 0.9481
11.8075 -5.3202 -3.1833 0.9481
12.8232 -2.0163 -3.1907 0.9479
12.9626 -0.8677 -3.1933 0.9479
12.9992 0.2897 -3.1960 0.9479
12.7639 2.5944 -3.2015 0.9478
12.4930 3.7233 -3.2043 0.9477
11.0922 6.9083 -3.2120 0.9476
10.4409 7.8739 -3.2143 0.9476
9.7053 8.7779 -3.2165 0.9475
8.8911 9.6129 -3.2186 0.9475
8.0072 10.3753 -3.2214 0.9474
7.0520 11.0468 -3.2214 0.9474
6.0408 11.6306 -3.2214 0.9474
3.8829 12.5174 -3.2214 0.9474
2.7534 12.8133 -3.2214 0.9474
1.5262 12.3922 -3.0690 0.9499
0.4172 12.4788 -3.0690 0.9499
-2.8983 12.1618 -3.0731 0.9498
-3.9694 11.8560 -3.0732 0.9498
-5.0091 11.4562 -3.0733 0.9498
-6.9619 10.3878 -3.0737 0.9498
-7.8594 9.7277 -3.0739 0.9498
-8.6947 8.9903 -3.0742 0.9498
-9.4573 8.1780 -3.0732 0.9498
-10.9291 6.4733 -3.1222 0.9490
-11.8260 5.6488 -3.2214 0.9474
-13.0538 1.1665 -3.2214 0.9474
-12.2255 0.0000 -3.2214 0.9507
-10.5188 -6.2303 -3.2214 0.9507
-9.9225 -7.1418 -3.2214 0.9507
-4.6698 -10.6800 -3.0714 0.9529
-3.7018 -11.0567 -3.0724 0.9529
-2.7036 -11.3449 -3.0731 0.9529
-1.6834 -11.5422 -3.0736 0.9529
3.5687 -11.5044 -3.1739 0.9514
4.5700 -11.1205 -3.1681 0.9515
5.5436 -10.6733 -3.1692 0.9515
7.3551 -9.5303 -3.1721 0.9514
8.1787 -8.8428 -3.1739 0.9514
8.9387 -8.0846 -3.1758 0.9514
10.7790 -5.4469 -3.1823 0.9513
11.2293 -4.4692 -3.1847 0.9512
11.5913 -3.4546 -3.1871 0.9512
12.0388 -1.3467 -3.1920 0.9511
12.1064 0.8104 -3.1972 0.9510
11.9960 1.8863 -3.1998 0.9510
11.7900 2.9489 -3.2024 0.9510
11.0976 5.0004 -3.2074 0.9509
10.6163 5.9727 -3.2097 0.9509
10.0496 6.8987 -3.2120 0.9508
8.6783 8.5821 -3.2161 0.9508
7.0308 10.0015 -3.2214 0.9507
5.1461 11.0896 -3.2214 0.9507
3.0983 11.8263 -3.2214 0.9507
1.9392 11.4964 -3.0721 0.9529
-1.1675 11.6049 -3.0733 0.9529
-3.2067 11.2143 -3.0734 0.9529
-5.1446 10.4690 -3.0737 0.9529
-6.9202 9.3922 -3.0741 0.9529
-7.7292 8.7396 -3.0743 0.9529
-11.2554 4.7727 -3.2214 0.9507
-11.6355 3.7520 -3.2214 0.9507
-11.9233 2.7015 -3.2214 0.9507
-12.2133 0.5446 -3.2214 0.9507
-12.2133 -0.5446 -3.2214 0.9507
-12.1164 -1.6295 -3.2214 0.9507
-11.6355 -3.7519 -3.2214 0.9507
-11.2554 -4.7727 -3.2214 0.9507
-10.2308 -6.6927 -3.2214 0.9507
-9.5945 -7.5767 -3.2214 0.9507
-8.0991 -9.1578 -3.2214 0.9507
-6.0480 -9.9563 -3.0696 0.9530
-4.1901 -10.8792 -3.0719 0.9529
-0.1299 -11.6594 -3.0725 0.9529
0.9077 -11.6167 -3.0703 0.9529
2.0334 -12.0551 -3.2214 0.9507
4.0695 -11.3114 -3.1676 0.9515
5.0617 -10.9077 -3.1686 0.9515
6.0147 -10.4179 -3.1698 0.9515
6.9215 -9.8459 -3.1713 0.9514
7.7745 -9.1957 -3.1730 0.9514
9.2930 -7.6808 -3.1768 0.9514
9.9463 -6.8278 -3.1790 0.9513
10.5219 -5.9195 -3.1812 0.9513
11.4216 -3.9660 -3.1859 0.9512
11.7382 -2.9359 -3.1883 0.9512
12.0916 -0.8094 -3.1933 0.9511
12.0632 1.3495 -3.1985 0.9510
11.6516 3.4726 -3.2036 0.9510
10.8679 5.4918 -3.2086 0.9509
10.3434 6.4419 -3.2109 0.9508
9.7356 7.3420 -3.2130 0.9508
9.0492 8.1846 -3.2151 0.9508
8.2897 8.9628 -3.2170 0.9508
6.5783 10.3047 -3.2214 0.9507
3.6221 11.6766 -3.2214 0.9507
2.5684 11.9526 -3.2214 0.9507
1.4237 11.5598 -3.0690 0.9530
-2.7039 11.3459 -3.0734 0.9529
-3.7031 11.0606 -3.0735 0.9529
-6.4947 9.6908 -3.0740 0.9529
-8.1096 8.3853 -3.0738 0.9529
-10.5188 6.2303 -3.2214 0.9507
-11.4568 4.2666 -3.2214 0.9507
-12.0318 2.1676 -3.2214 0.9507
-11.0428 -3.0249 -3.2214 0.9535
-10.7297 -3.9958 -3.2214 0.9535
-10.3315 -4.9349 -3.2214 0.9535
-8.6606 -7.4891 -3.2214 0.9535
-7.1956 -8.9060 -3.2214 0.9535
-6.3743 -9.5111 -3.2214 0.9535
-5.2573 -9.5933 -3.0779 0.9556
-4.3708 -9.9962 -3.0696 0.9557
-3.4647 -10.3485 -3.0705 0.9557
-2.5305 -10.6181 -3.0711 0.9557
-1.5756 -10.8028 -3.0716 0.9556
-0.6078 -10.8993 -3.0713 0.9557
4.2823 -10.4204 -3.1698 0.9543
6.0663 -9.5027 -3.1720 0.9542
6.8911 -8.9291 -3.1734 0.9542
9.0205 -6.8027 -3.1788 0.9541
9.5963 -5.9766 -3.1808 0.9541
10.0969 -5.1022 -3.1829 0.9541
10.5182 -4.1862 -3.1851 0.9540
11.2336 1.7664 -3.1995 0.9538
11.0401 2.7613 -3.2019 0.9538
10.7585 3.7358 -3.2043 0.9538
9.9397 5.5920 -3.2088 0.9537
9.4087 6.4587 -3.2109 0.9537
8.8019 7.2750 -3.2129 0.9537
8.1241 8.0341 -3.2147 0.9536
7.3921 8.7435 -3.2214 0.9535
5.7248 9.9156 -3.2214 0.9535
4.8195 10.3858 -3.2214 0.9535
0.8497 10.8748 -3.0690 0.9557
-0.1217 10.9252 -3.0741 0.9556
-1.0935 10.8695 -3.0736 0.9556
-2.0565 10.7288 -3.0736 0.9556
-3.9265 10.1948 -3.0738 0.9556
-4.8185 9.8053 -3.0739 0.9556
-5.6724 9.3380 -3.0741 0.9556
-8.5618 6.7612 -3.0695 0.9557
-9.5816 6.2680 -3.2214 0.9535
-10.8971 3.5139 -3.2214 0.9535
-11.1666 2.5300 -3.2214 0.9535
-11.3474 1.5261 -3.2214 0.9535
-11.4382 0.5101 -3.2214 0.9535
-11.4382 -0.5100 -3.2214 0.9535
-11.1666 -2.5300 -3.2214 0.9535
-10.8971 -3.5138 -3.2214 0.9535
-9.5815 -6.2679 -3.2214 0.9535
-8.9856 -7.0959 -3.2214 0.9535
-7.5852 -8.5766 -3.2214 0.9535
-6.7917 -9.2177 -3.2214 0.9535
-5.8088 -9.5626 -3.1480 0.9546
-4.8109 -9.7899 -3.0691 0.9557
-3.9217 -10.1825 -3.0701 0.9557
-3.0006 -10.4938 -3.0708 0.9557
-2.0551 -10.7212 -3.0714 0.9557
-1.0928 -10.8623 -3.0716 0.9556
-0.1216 -10.9136 -3.0708 0.9557
1.9044 -11.2900 -3.2214 0.9535
3.8200 -10.6179 -3.1749 0.9542
5.6359 -9.7616 -3.1714 0.9542
8.7059 -7.1956 -3.1778 0.9542
10.3177 -4.6489 -3.1840 0.9541
10.9941 -2.7498 -3.1885 0.9540
11.2035 -1.7616 -3.1909 0.9540
10.9102 3.2516 -3.2031 0.9538
10.5853 4.2129 -3.2054 0.9538
10.1754 5.1419 -3.2077 0.9537
9.6839 6.0312 -3.2099 0.9537
9.1145 6.8736 -3.2119 0.9537
8.4716 7.6621 -3.2138 0.9536
2.4054 11.1940 -3.2214 0.9535
-3.4683 10.3594 -3.0737 0.9556
-5.2506 9.5812 -3.0740 0.9556
-6.8667 8.4990 -3.0742 0.9556
-8.9373 6.4327 -3.0982 0.9553
-9.8512 5.8349 -3.2214 0.9535
-10.3315 4.9349 -3.2214 0.9535
-11.0428 3.0250 -3.2214 0.9535
-11.2682 2.0301 -3.2214 0.9535
-11.4041 1.0191 -3.2214 0.9535
-10.7603 0.0000 -3.2214 0.9561
-10.5898 -1.9078 -3.2214 0.9561
-10.0837 -3.7552 -3.2214 0.9561
-9.2582 -5.4836 -3.2214 0.9561
-8.7333 -6.2858 -3.2214 0.9561
-7.4804 -7.7347 -3.2214 0.9561
-5.9905 -8.9385 -3.2214 0.9561
-5.1712 -9.4362 -3.2214 0.9561
-4.1981 -9.6010 -3.1371 0.9572
-3.2546 -9.7208 -3.0690 0.9581
2.2606 -10.5201 -3.2214 0.9561
6.4789 -8.3949 -3.1747 0.9567
7.2037 -7.7886 -3.1762 0.9567
9.0205 -5.6180 -3.1815 0.9566
10.2044 -3.0412 -3.1878 0.9565
10.4419 -2.1224 -3.1900 0.9565
10.6681 -0.2377 -3.1946 0.9564
10.1091 3.5103 -3.2037 0.9563
9.7631 4.3991 -3.2059 0.9563
8.8396 6.0681 -3.2099 0.9562
6.9471 8.2171 -3.2214 0.9561
5.3801 9.3187 -3.2214 0.9561
4.5293 9.7605 -3.2214 0.9561
3.6426 10.1249 -3.2214 0.9561
1.7053 10.1098 -3.0694 0.9581
0.7993 10.2295 -3.0719 0.9581
-0.1144 10.2681 -3.0742 0.9580
-1.0278 10.2159 -3.0739 0.9580
-1.9329 10.0836 -3.0738 0.9580
-2.8228 9.8718 -3.0739 0.9580
-4.5287 9.2156 -3.0741 0.9580
-5.3312 8.7764 -3.0743 0.9580
-6.0899 8.2653 -3.0736 0.9580
-6.7979 7.6865 -3.0720 0.9581
-7.4509 7.0470 -3.0703 0.9581
-9.0047 5.8906 -3.2214 0.9561
-9.4932 5.0658 -3.2214 0.9561
-10.2410 3.3023 -3.2214 0.9561
-10.4943 2.3777 -3.2214 0.9561
-10.6643 1.4342 -3.2214 0.9561
-10.7496 0.4794 -3.2214 0.9561
-10.7496 -0.4793 -3.2214 0.9561
-10.4943 -2.3777 -3.2214 0.9561
-10.2410 -3.3023 -3.2214 0.9561
-7.8176 -7.3938 -3.2214 0.9561
-6.3828 -8.6627 -3.2214 0.9561
-5.5864 -9.1964 -3.2214 0.9561
-2.8184 -9.8566 -3.0691 0.9581
-1.0264 -10.2025 -3.0698 0.9581
1.7897 -10.6104 -3.2214 0.9561
3.5978 -10.0004 -3.1818 0.9566
5.2989 -9.1780 -3.1728 0.9567
6.8479 -8.0998 -3.1754 0.9567
10.0553 -3.4916 -3.1867 0.9565
10.3333 -2.5845 -3.1889 0.9565
10.5298 -1.6557 -3.1912 0.9565
10.6430 -0.7125 -3.1934 0.9564
10.6719 0.2378 -3.1958 0.9564
10.4757 2.1293 -3.2004 0.9563
10.2519 3.0554 -3.2026 0.9563
9.9460 3.9585 -3.2048 0.9563
9.5606 4.8312 -3.2069 0.9563
9.0984 5.6665 -3.2090 0.9562
7.9587 7.1983 -3.2127 0.9562
5.7899 9.0698 -3.2214 0.9561
4.9597 9.5491 -3.2214 0.9561
4.0901 9.9526 -3.2214 0.9561
3.1880 10.2771 -3.2214 0.9561
0.3430 10.2590 -3.0731 0.9580
-0.5717 10.2520 -3.0740 0.9580
-2.3802 9.9876 -3.0738 0.9580
-5.7171 8.5304 -3.0743 0.9580
-6.4505 7.9838 -3.0728 0.9580
-7.1316 7.3740 -3.0712 0.9581
-7.7550 6.7060 -3.0694 0.9581
-9.2581 5.4836 -3.2214 0.9561
-9.7095 4.6378 -3.2214 0.9561
-10.0837 3.7552 -3.2214 0.9561
-10.3779 2.8428 -3.2214 0.9561
-10.5898 1.9079 -3.2214 0.9561
-10.1435 0.0000 -3.2214 0.9583
-9.9828 -1.7985 -3.2214 0.9583
-9.1529 -4.3720 -3.2214 0.9583
-8.7275 -5.1693 -3.2214 0.9583
-8.2326 -5.9255 -3.2214 0.9583
-7.6726 -6.6348 -3.2214 0.9583
-7.0517 -7.2913 -3.2214 0.9583
-6.3747 -7.8900 -3.2214 0.9583
-5.6472 -8.4261 -3.2214 0.9583
-3.2169 -9.6083 -3.2179 0.9584
-2.2978 -9.6421 -3.1479 0.9593
-1.4107 -9.6726 -3.1044 0.9598
0.3389 -10.1378 -3.2214 0.9583
2.1310 -9.9171 -3.2214 0.9583
3.8092 -9.2693 -3.1827 0.9588
4.6059 -8.8679 -3.1735 0.9589
6.1097 -7.9166 -3.1759 0.9589
6.7931 -7.3446 -3.1773 0.9589
7.4234 -6.7141 -3.1788 0.9589
7.9957 -6.0299 -3.1805 0.9588
8.5055 -5.2973 -3.1823 0.9588
9.3213 -3.7098 -3.1861 0.9588
9.6207 -2.8673 -3.1882 0.9587
9.9900 -1.1175 -3.1925 0.9587
10.0435 0.6724 -3.1968 0.9586
9.5281 3.3085 -3.2032 0.9586
7.2123 7.1325 -3.2214 0.9583
6.5489 7.7461 -3.2214 0.9583
5.0717 8.7845 -3.2214 0.9583
4.2697 9.2011 -3.2214 0.9583
0.7534 9.6421 -3.0715 0.9602
-0.1078 9.6776 -3.0736 0.9602
-0.9689 9.6311 -3.0741 0.9602
-4.2694 8.6879 -3.0743 0.9602
-5.7385 7.7884 -3.0724 0.9602
-8.4885 5.5530 -3.2214 0.9583
-8.9491 4.7754 -3.2214 0.9583
-9.3386 3.9599 -3.2214 0.9583
-9.6540 3.1130 -3.2214 0.9583
-9.8927 2.2414 -3.2214 0.9583
-10.1334 0.4519 -3.2214 0.9583
-9.3386 -3.9599 -3.2214 0.9583
-8.9491 -4.7754 -3.2214 0.9583
-6.0169 -8.1662 -3.2214 0.9583
-5.2662 -8.6693 -3.2214 0.9583
-3.6457 -9.4656 -3.2214 0.9583
-2.7525 -9.6259 -3.1796 0.9589
-1.8511 -9.6569 -3.1227 0.9596
-0.9776 -9.7172 -3.1016 0.9598
0.7902 -10.1126 -3.2214 0.9583
2.5707 -9.8123 -3.2214 0.9583
4.2113 -9.0752 -3.1773 0.9589
4.9972 -8.6554 -3.1741 0.9589
5.7498 -8.1793 -3.1752 0.9589
6.4577 -7.6382 -3.1766 0.9589
7.1152 -7.0364 -3.1780 0.9589
9.7421 -2.4367 -3.1892 0.9587
10.0333 -0.6716 -3.1935 0.9587
10.0601 0.2242 -3.1957 0.9586
10.0070 1.1195 -3.1979 0.9586
9.8743 2.0071 -3.2001 0.9586
9.6629 2.8799 -3.2022 0.9586
9.3743 3.7309 -3.2043 0.9585
9.0106 4.5533 -3.2063 0.9585
8.0699 6.0858 -3.2100 0.9585
7.5197 6.8012 -3.2200 0.9583
6.8874 7.4467 -3.2214 0.9583
6.1973 8.0301 -3.2214 0.9583
4.6754 9.0017 -3.2214 0.9583
3.0053 9.6881 -3.2214 0.9583
1.1818 9.5955 -3.0704 0.9602
-1.3969 9.5781 -3.0740 0.9602
-3.0731 9.1789 -3.0741 0.9602
-3.8780 8.8692 -3.0742 0.9602
-5.3871 8.0381 -3.0730 0.9602
-6.7204 6.9488 -3.0701 0.9602
-7.3970 6.3964 -3.1057 0.9598
-8.2327 5.9256 -3.2214 0.9583
-9.1529 4.3720 -3.2214 0.9583
-9.5057 3.5400 -3.2214 0.9583
-9.9828 1.7985 -3.2214 0.9583
-10.1032 0.9029 -3.2214 0.9583
-9.2474 -2.5331 -3.2214 0.9603
-8.9852 -3.3461 -3.2214 0.9603
-8.6517 -4.1326 -3.2214 0.9603
-8.2496 -4.8862 -3.2214 0.9603
-6.6655 -6.8921 -3.2214 0.9603
-5.3379 -7.9647 -3.2214 0.9603
-3.0440 -9.0920 -3.2214 0.9603
0.3204 -9.5827 -3.2214 0.9603
1.1720 -9.5161 -3.2214 0.9603
2.0143 -9.3740 -3.2214 0.9603
2.8407 -9.1575 -3.2214 0.9603
3.6206 -8.8102 -3.2003 0.9606
5.0860 -7.9671 -3.1757 0.9609
5.7771 -7.4856 -3.1769 0.9609
6.4231 -6.9446 -3.1782 0.9609
8.0415 -5.0083 -3.1830 0.9608
8.4601 -4.2751 -3.1848 0.9608
8.8122 -3.5072 -3.1866 0.9608
9.3059 -1.8915 -3.1906 0.9607
9.4933 0.6355 -3.1967 0.9606
9.4051 1.4789 -3.1988 0.9606
9.0051 3.1269 -3.2028 0.9606
8.3178 4.6796 -3.2066 0.9605
7.3788 6.0988 -3.2164 0.9604
6.8174 6.7419 -3.2214 0.9603
6.1903 7.3219 -3.2214 0.9603
4.7940 8.3035 -3.2214 0.9603
4.0359 8.6972 -3.2214 0.9603
3.2458 9.0219 -3.2214 0.9603
2.4299 9.2750 -3.2214 0.9603
1.5193 9.0072 -3.0690 0.9622
-3.2887 8.5389 -3.0743 0.9621
-4.0347 8.2103 -3.0736 0.9621
-4.7477 7.8158 -3.0725 0.9621
-6.0530 6.8443 -3.0698 0.9622
-6.7448 6.3792 -3.1191 0.9616
-7.5247 5.9422 -3.2214 0.9603
-8.0237 5.2489 -3.2214 0.9603
-9.5025 1.2780 -3.2214 0.9603
-9.5785 -0.4271 -3.2214 0.9603
-9.5025 -1.2779 -3.2214 0.9603
-8.4591 -4.5139 -3.2214 0.9603
-6.9659 -6.5883 -3.2214 0.9603
-4.9778 -8.1946 -3.2214 0.9603
-4.2287 -8.6051 -3.2214 0.9603
-1.8050 -9.4166 -3.2214 0.9603
-0.9597 -9.5399 -3.2214 0.9603
3.2446 -9.0185 -3.2202 0.9604
4.7253 -8.1844 -3.1752 0.9609
5.4368 -7.7340 -3.1763 0.9609
6.7276 -6.6530 -3.1790 0.9609
7.2965 -6.0307 -3.1805 0.9608
7.8083 -5.3601 -3.1821 0.9608
8.6447 -3.8951 -3.1857 0.9608
8.9624 -3.1121 -3.1876 0.9608
9.5091 0.2119 -3.1957 0.9607
9.1327 2.7219 -3.2018 0.9606
8.8596 3.5260 -3.2037 0.9606
8.5156 4.3031 -3.2056 0.9605
8.1034 5.0469 -3.2074 0.9605
7.6261 5.7511 -3.2092 0.9605
6.5103 7.0389 -3.2214 0.9603
5.8580 7.5904 -3.2214 0.9603
4.4194 8.5088 -3.2214 0.9603
2.8407 9.1576 -3.2214 0.9603
2.0143 9.3741 -3.2214 0.9603
1.1169 9.0689 -3.0700 0.9622
0.3055 9.1381 -3.0719 0.9622
-0.5093 9.1340 -3.0736 0.9621
-1.3205 9.0542 -3.0742 0.9621
-4.3957 8.0210 -3.0731 0.9621
-5.0902 7.5951 -3.0719 0.9622
-6.3503 6.5662 -3.0691 0.9622
-7.2526 6.2715 -3.2214 0.9603
-9.0850 0.0000 -3.2214 0.9622
-9.0489 -0.8086 -3.2214 0.9622
-8.7622 -2.4002 -3.2214 0.9622
-8.5138 -3.1705 -3.2214 0.9622
-8.1978 -3.9157 -3.2214 0.9622
-7.3736 -5.3072 -3.2214 0.9622
-6.3158 -6.5305 -3.2214 0.9622
-4.3661 -7.9671 -3.2214 0.9622
-2.8843 -8.6150 -3.2214 0.9622
-2.1061 -8.8375 -3.2214 0.9622
-1.3111 -8.9899 -3.2214 0.9622
-0.5058 -9.0709 -3.2214 0.9622
0.3036 -9.0799 -3.2214 0.9622
3.4504 -8.3959 -3.2187 0.9622
5.4756 -7.0949 -3.1779 0.9627
6.0878 -6.5820 -3.1791 0.9627
6.6523 -6.0167 -3.1805 0.9626
7.1648 -5.4032 -3.1820 0.9626
7.6211 -4.7465 -3.1836 0.9626
8.0176 -4.0515 -3.1853 0.9626
8.8183 -1.7924 -3.1908 0.9625
8.9483 -1.0010 -3.1927 0.9625
8.7563 2.1901 -3.2005 0.9624
8.5316 2.9625 -3.2024 0.9624
8.2387 3.7122 -3.2042 0.9624
7.4580 5.1196 -3.2076 0.9623
6.4597 6.3882 -3.2214 0.9622
5.8655 6.9378 -3.2214 0.9622
5.2247 7.4323 -3.2214 0.9622
4.5425 7.8678 -3.2214 0.9622
3.8242 8.2409 -3.2214 0.9622
3.0755 8.5486 -3.2214 0.9622
2.3024 8.7884 -3.2214 0.9622
1.4448 8.5657 -3.0802 0.9638
0.6746 8.6327 -3.0704 0.9639
-0.8676 8.6238 -3.0733 0.9639
-1.6321 8.5145 -3.0741 0.9639
-3.8216 7.7766 -3.0724 0.9639
-4.4970 7.4031 -3.0714 0.9639
-5.1361 6.9708 -3.0702 0.9639
-6.6005 6.2427 -3.2214 0.9622
-7.1299 5.6304 -3.2214 0.9622
-7.6027 4.9735 -3.2214 0.9622
-9.0039 1.2109 -3.2214 0.9622
-9.0760 -0.4047 -3.2214 0.9622
-8.6466 -2.7881 -3.2214 0.9622
-8.3641 -3.5467 -3.2214 0.9622
-8.0152 -4.2770 -3.2214 0.9622
-7.6027 -4.9735 -3.2214 0.9622
-7.1300 -5.6304 -3.2214 0.9622
-6.6005 -6.2426 -3.2214 0.9622
-6.0186 -6.8054 -3.2214 0.9622
-5.3890 -7.3140 -3.2214 0.9622
-1.7103 -8.9225 -3.2214 0.9622
-0.9094 -9.0393 -3.2214 0.9622
2.3024 -8.7884 -3.2214 0.9622
3.7979 -8.1842 -3.1993 0.9624
4.4848 -7.7678 -3.1805 0.9626
5.1532 -7.3305 -3.1773 0.9627
7.4002 -5.0800 -3.1828 0.9626
8.4932 -2.9492 -3.1880 0.9626
8.8921 -1.3982 -3.1918 0.9625
9.0101 0.2008 -3.1957 0.9625
8.8425 1.7973 -3.1995 0.9624
8.6525 2.5787 -3.2014 0.9624
8.3935 3.3406 -3.2033 0.9624
7.6766 4.7811 -3.2068 0.9623
0.2894 8.6566 -3.0712 0.9639
-2.0098 8.4335 -3.0742 0.9639
-3.4719 7.9403 -3.0729 0.9639
-4.1635 7.5974 -3.0719 0.9639
-5.4404 6.7336 -3.0696 0.9639
-6.1530 6.3622 -3.1384 0.9631
-6.8720 5.9425 -3.2214 0.9622
-7.8167 4.6299 -3.2214 0.9622
-8.5138 3.1706 -3.2214 0.9622
-8.7622 2.4002 -3.2214 0.9622
-8.6270 0.0000 -3.2214 0.9638
-8.5928 -0.7678 -3.2214 0.9638
-8.4903 -1.5296 -3.2214 0.9638
-8.3204 -2.2792 -3.2214 0.9638
-8.0846 -3.0107 -3.2214 0.9638
-7.4227 -4.3964 -3.2214 0.9638
-7.0019 -5.0396 -3.2214 0.9638
-5.9974 -6.2013 -3.2214 0.9638
-5.4217 -6.7105 -3.2214 0.9638
-4.8029 -7.1664 -3.2214 0.9638
-3.4562 -7.9044 -3.2214 0.9638
-2.7389 -8.1806 -3.2214 0.9638
-1.2451 -8.5366 -3.2214 0.9638
1.0545 -8.5623 -3.2214 0.9638
1.8124 -8.4344 -3.2214 0.9638
3.2792 -7.9794 -3.2214 0.9638
4.5856 -7.1832 -3.1823 0.9643
5.7823 -6.2518 -3.1799 0.9643
6.3184 -5.7147 -3.1812 0.9643
8.1850 -2.4394 -3.1892 0.9642
8.4975 -0.9506 -3.1928 0.9641
8.5533 -0.1906 -3.1947 0.9641
8.4614 1.3305 -3.1984 0.9641
8.1005 2.8128 -3.2020 0.9640
7.8222 3.5246 -3.2037 0.9640
7.4814 4.2090 -3.2054 0.9640
7.0937 4.8696 -3.2129 0.9639
6.6496 5.4961 -3.2214 0.9638
5.5698 6.5880 -3.2214 0.9638
3.6314 7.8255 -3.2214 0.9638
2.9204 8.1176 -3.2214 0.9638
2.1864 8.3453 -3.2214 0.9638
1.4329 8.4951 -3.2170 0.9639
-0.0916 8.2240 -3.0711 0.9655
-2.2624 7.9121 -3.0729 0.9655
-4.8757 6.6174 -3.0693 0.9655
-7.2195 4.7228 -3.2214 0.9638
-7.6112 4.0614 -3.2214 0.9638
-8.2107 2.6476 -3.2214 0.9638
-8.4137 1.9063 -3.2214 0.9638
-8.5500 1.1499 -3.2214 0.9638
-8.6184 0.3843 -3.2214 0.9638
-8.6184 -0.3843 -3.2214 0.9638
-8.4137 -1.9063 -3.2214 0.9638
-8.2107 -2.6476 -3.2214 0.9638
-7.6112 -4.0614 -3.2214 0.9638
-6.2677 -5.9279 -3.2214 0.9638
-5.7152 -6.4623 -3.2214 0.9638
-5.1174 -6.9453 -3.2214 0.9638
-1.6241 -8.4727 -3.2214 0.9638
2.9205 -8.1176 -3.2214 0.9638
3.6274 -7.8168 -3.2179 0.9639
4.2662 -7.3894 -3.1861 0.9642
5.4970 -6.5019 -3.1793 0.9643
6.0563 -5.9892 -3.1806 0.9643
7.0285 -4.8248 -3.1834 0.9643
7.7805 -3.5057 -3.1866 0.9642
8.2879 -2.0729 -3.1901 0.9642
8.4443 -1.3278 -3.1919 0.9642
8.5338 -0.5712 -3.1938 0.9641
8.5098 0.9520 -3.1975 0.9641
7.9694 3.1717 -3.2029 0.9640
6.8879 5.1944 -3.2214 0.9638
5.8578 6.3334 -3.2214 0.9638
3.2792 7.9795 -3.2214 0.9638
2.5560 8.2397 -3.2214 0.9638
1.8125 8.4344 -3.2214 0.9638
0.2747 8.2181 -3.0704 0.9655
-0.4580 8.2135 -3.0718 0.9655
-1.1876 8.1426 -3.0727 0.9655
-3.2957 7.5374 -3.0718 0.9655
-3.9523 7.2121 -3.0709 0.9655
-4.5770 6.8293 -3.0699 0.9655
-5.1651 6.3930 -3.0690 0.9655
-7.7845 3.7184 -3.2214 0.9638
-8.0846 3.0107 -3.2214 0.9638
-8.3205 2.2792 -3.2214 0.9638
-8.4903 1.5296 -3.2214 0.9638
-8.1754 -0.7305 -3.2214 0.9653
-8.0780 -1.4553 -3.2214 0.9653
-7.6920 -2.8645 -3.2214 0.9653
-7.0622 -4.1829 -3.2214 0.9653
-6.6619 -4.7949 -3.2214 0.9653
-6.2086 -5.3688 -3.2214 0.9653
-3.2883 -7.5205 -3.2214 0.9653
-2.6059 -7.7834 -3.2214 0.9653
-1.9028 -7.9844 -3.2214 0.9653
-1.1846 -8.1221 -3.2214 0.9653
-0.4570 -8.1953 -3.2214 0.9653
0.2743 -8.2034 -3.2214 0.9653
1.0033 -8.1464 -3.2214 0.9653
1.7244 -8.0248 -3.2214 0.9653
3.1199 -7.5919 -3.2214 0.9653
3.7789 -7.2756 -3.2177 0.9654
4.3701 -6.8457 -3.1875 0.9657
4.9502 -6.4141 -3.1799 0.9658
5.5028 -5.9495 -3.1807 0.9658
6.0128 -5.4383 -3.1819 0.9658
7.2458 -3.6615 -3.1862 0.9657
7.7882 -2.3211 -3.1895 0.9657
8.1263 0.5440 -3.1965 0.9656
8.0501 1.2658 -3.1982 0.9656
7.4414 3.3529 -3.2033 0.9655
6.7670 4.6453 -3.2214 0.9653
6.3267 5.2292 -3.2214 0.9653
4.7204 6.7149 -3.2214 0.9653
4.1040 7.1084 -3.2214 0.9653
2.7786 7.7234 -3.2214 0.9653
1.3652 8.0937 -3.2214 0.9653
-0.7833 7.7863 -3.0713 0.9669
-1.4735 7.6871 -3.0719 0.9669
-2.8125 7.3025 -3.0712 0.9669
-5.4377 6.1485 -3.2214 0.9653
-6.4417 5.0869 -3.2214 0.9653
-6.8689 4.4934 -3.2214 0.9653
-7.2415 3.8642 -3.2214 0.9653
-7.5567 3.2043 -3.2214 0.9653
-7.8119 2.5190 -3.2214 0.9653
-8.1348 1.0940 -3.2214 0.9653
-8.1999 0.3657 -3.2214 0.9653
-8.1348 -1.0940 -3.2214 0.9653
-7.2415 -3.8642 -3.2214 0.9653
-4.8688 -6.6080 -3.2214 0.9653
-1.5452 -8.0612 -3.2214 0.9653
-0.8216 -8.1668 -3.2214 0.9653
-0.0914 -8.2075 -3.2214 0.9653
0.6394 -8.1830 -3.2214 0.9653
1.3652 -8.0937 -3.2214 0.9653
4.0777 -7.0628 -3.2007 0.9656
4.6657 -6.6376 -3.1842 0.9657
6.2504 -5.1661 -3.1826 0.9658
6.6884 -4.5913 -3.1840 0.9657
7.0738 -3.9797 -3.1855 0.9657
7.6750 -2.6651 -3.1887 0.9657
8.0346 -1.2634 -3.1921 0.9657
8.0962 0.9057 -3.1974 0.9656
7.9879 1.6236 -3.1991 0.9656
7.2865 3.6821 -3.2041 0.9655
6.0875 5.5058 -3.2214 0.9653
3.7833 7.2841 -3.2214 0.9653
2.4318 7.8395 -3.2214 0.9653
1.7244 8.0249 -3.2214 0.9653
0.9760 7.9250 -3.1338 0.9663
0.2613 7.8171 -3.0697 0.9669
-0.4356 7.8123 -3.0709 0.9669
-1.1295 7.7446 -3.0717 0.9669
-1.8145 7.6139 -3.0719 0.9669
-2.4847 7.4214 -3.0716 0.9669
-4.3535 6.4958 -3.0690 0.9670
-5.7062 5.9001 -3.2214 0.9653
-7.6920 2.8645 -3.2214 0.9653
-7.9164 2.1685 -3.2214 0.9653
-8.1754 0.7306 -3.2214 0.9653
-7.8231 0.0000 -3.2214 0.9667
-7.7921 -0.6963 -3.2214 0.9667
-7.3312 -2.7302 -3.2214 0.9667
-7.0592 -3.3719 -3.2214 0.9667
-6.7310 -3.9868 -3.2214 0.9667
-6.3495 -4.5700 -3.2214 0.9667
-3.7596 -6.8605 -3.2214 0.9667
-2.4837 -7.4183 -3.2214 0.9667
-1.8136 -7.6100 -3.2214 0.9667
-1.1290 -7.7412 -3.2214 0.9667
-0.4355 -7.8109 -3.2214 0.9667
3.6058 -6.9425 -3.2214 0.9667
4.7273 -6.1254 -3.1861 0.9671
5.7320 -5.1843 -3.1825 0.9671
6.1732 -4.6554 -3.1838 0.9671
6.5659 -4.0892 -3.1852 0.9671
7.4236 -2.2125 -3.1898 0.9670
7.7451 0.5185 -3.1964 0.9670
7.0916 3.1953 -3.2029 0.9669
6.8029 3.8273 -3.2142 0.9668
6.4497 4.4275 -3.2214 0.9667
6.0300 4.9840 -3.2214 0.9667
2.6483 7.3612 -3.2214 0.9667
1.9826 7.5677 -3.2214 0.9667
-0.7464 7.4190 -3.0704 0.9683
-1.4039 7.3242 -3.0709 0.9683
-2.0502 7.1701 -3.0708 0.9683
-2.6798 6.9580 -3.0703 0.9683
-3.2877 6.6903 -3.0696 0.9683
-3.8694 6.3699 -3.0690 0.9683
-6.1396 4.8484 -3.2214 0.9667
-6.9020 3.6830 -3.2214 0.9667
-7.2023 3.0541 -3.2214 0.9667
-7.4456 2.4009 -3.2214 0.9667
-7.6297 1.7287 -3.2214 0.9667
-7.6297 -1.7286 -3.2214 0.9667
-7.4456 -2.4009 -3.2214 0.9667
-7.2023 -3.0541 -3.2214 0.9667
-6.9020 -3.6830 -3.2214 0.9667
-6.5467 -4.2827 -3.2214 0.9667
-5.1827 -5.8601 -3.2214 0.9667
-4.6405 -6.2981 -3.2214 0.9667
-4.0615 -6.6862 -3.2214 0.9667
-3.4503 -7.0211 -3.2214 0.9667
-2.1508 -7.5216 -3.2214 0.9667
-1.4728 -7.6832 -3.2214 0.9667
1.3012 -7.7141 -3.2214 0.9667
2.6483 -7.3612 -3.2214 0.9667
3.9074 -6.7678 -3.2180 0.9668
4.4540 -6.3363 -3.1892 0.9671
4.9901 -5.9023 -3.1827 0.9671
5.9584 -4.9247 -3.1832 0.9671
7.6581 -1.2042 -3.1922 0.9670
7.7389 -0.5180 -3.1939 0.9670
7.4487 2.2200 -3.2006 0.9669
6.9480 3.5108 -3.2056 0.9669
6.6405 4.1358 -3.2214 0.9667
5.8020 5.2476 -3.2214 0.9667
4.7797 6.1932 -3.2214 0.9667
1.6436 7.6485 -3.2214 0.9667
0.2494 7.4585 -3.0730 0.9682
-1.0762 7.3791 -3.0707 0.9683
-1.7288 7.2545 -3.0709 0.9683
-2.9868 6.8309 -3.0700 0.9683
-3.5820 6.5362 -3.0692 0.9683
-4.2355 6.3198 -3.1328 0.9676
-4.9165 6.0852 -3.2214 0.9667
-5.4386 5.6234 -3.2214 0.9667
-6.3495 4.5701 -3.2214 0.9667
-6.7310 3.9868 -3.2214 0.9667
-7.3312 2.7302 -3.2214 0.9667
-7.7921 0.6963 -3.2214 0.9667
-7.4681 0.0000 -3.2214 0.9680
-7.3498 -1.3241 -3.2214 0.9680
-7.2027 -1.9730 -3.2214 0.9680
-6.7388 -3.2188 -3.2214 0.9680
-6.4255 -3.8058 -3.2214 0.9680
-6.0613 -4.3626 -3.2214 0.9680
-5.6490 -4.8848 -3.2214 0.9680
-3.5890 -6.5491 -3.2214 0.9680
-2.9919 -6.8426 -3.2214 0.9680
-1.7312 -7.2646 -3.2214 0.9680
-1.0778 -7.3899 -3.2214 0.9680
0.2495 -7.4639 -3.2214 0.9680
1.5690 -7.3014 -3.2214 0.9680
2.2126 -7.1327 -3.2214 0.9680
3.4422 -6.6274 -3.2214 0.9680
4.0152 -6.2897 -3.2188 0.9680
6.8678 -2.7333 -3.1885 0.9683
7.2506 -1.4737 -3.1916 0.9683
7.4044 -0.1650 -3.1948 0.9683
7.3934 0.4950 -3.1964 0.9682
7.1957 1.7998 -3.1995 0.9682
7.0103 2.4343 -3.2011 0.9682
6.5087 3.6618 -3.2214 0.9680
4.2949 6.1095 -3.2214 0.9680
3.7340 6.4675 -3.2214 0.9680
3.1435 6.7742 -3.2214 0.9680
2.5281 7.0271 -3.2214 0.9680
0.5818 7.4454 -3.2214 0.9680
-0.7123 7.0804 -3.0696 0.9695
-1.3398 6.9898 -3.0700 0.9695
-2.5575 6.6404 -3.0695 0.9695
-3.1379 6.3854 -3.0690 0.9695
-4.4300 6.0123 -3.2214 0.9680
-5.4257 5.1316 -3.2214 0.9680
-5.8609 4.6283 -3.2214 0.9680
-6.2496 4.0883 -3.2214 0.9680
-6.5887 3.5159 -3.2214 0.9680
-7.4014 0.9954 -3.2214 0.9680
-7.4607 -0.3327 -3.2214 0.9680
-7.4014 -0.9954 -3.2214 0.9680
-7.2835 -1.6502 -3.2214 0.9680
-6.5887 -3.5158 -3.2214 0.9680
-5.8609 -4.6283 -3.2214 0.9680
-5.4257 -5.1316 -3.2214 0.9680
-2.6841 -6.9690 -3.2214 0.9680
-1.4059 -7.3345 -3.2214 0.9680
0.5818 -7.4454 -3.2214 0.9680
2.5281 -7.0271 -3.2214 0.9680
3.1435 -6.7742 -3.2214 0.9680
3.7340 -6.4675 -3.2214 0.9680
4.2745 -6.0805 -3.2061 0.9681
5.6889 -4.7020 -3.1837 0.9684
6.4378 -3.6219 -3.1863 0.9683
6.7377 -3.0358 -3.1878 0.9683
6.9844 -2.4252 -3.1892 0.9683
7.3109 -1.1496 -3.1924 0.9683
7.3879 -0.4946 -3.1939 0.9683
7.4063 0.1651 -3.1956 0.9682
7.3659 0.8240 -3.1972 0.9682
6.8965 2.7448 -3.2018 0.9682
6.3391 3.9481 -3.2214 0.9680
5.9626 4.4966 -3.2214 0.9680
5.5387 5.0095 -3.2214 0.9680
4.0184 6.2948 -3.2214 0.9680
3.4422 6.6275 -3.2214 0.9680
2.8387 6.9075 -3.2214 0.9680
1.5690 7.3014 -3.2214 0.9680
0.2417 7.2301 -3.1205 0.9690
-1.0271 7.0422 -3.0698 0.9695
-3.4567 6.3078 -3.1027 0.9692
-4.6933 5.8090 -3.2214 0.9680
-5.1917 5.3682 -3.2214 0.9680
-6.7388 3.2189 -3.2214 0.9680
-6.9985 2.6063 -3.2214 0.9680
-7.3497 1.3241 -3.2214 0.9680
-7.1394 0.0000 -3.2214 0.9692
-7.1111 -0.6354 -3.2214 0.9692
-7.0263 -1.2658 -3.2214 0.9692
-6.8857 -1.8862 -3.2214 0.9692
-6.4422 -3.0772 -3.2214 0.9692
-6.1427 -3.6383 -3.2214 0.9692
-5.4003 -4.6698 -3.2214 0.9692
-4.9633 -5.1319 -3.2214 0.9692
-2.8602 -6.5414 -3.2214 0.9692
-1.6551 -6.9449 -3.2214 0.9692
-1.0304 -7.0646 -3.2214 0.9692
-0.3975 -7.1283 -3.2214 0.9692
0.2385 -7.1354 -3.2214 0.9692
2.1152 -6.8188 -3.2214 0.9692
3.2907 -6.3358 -3.2214 0.9692
3.8416 -6.0177 -3.2214 0.9692
4.3467 -5.6321 -3.2101 0.9693
5.2359 -4.7356 -3.1855 0.9695
6.9318 -1.4089 -3.1917 0.9694
7.0330 -0.7867 -3.1932 0.9694
7.0011 1.1009 -3.1978 0.9694
6.8786 1.7204 -3.1993 0.9694
6.7051 2.3278 -3.2027 0.9693
6.5040 2.9306 -3.2189 0.9692
6.2223 3.5006 -3.2214 0.9692
5.5030 4.5484 -3.2214 0.9692
5.0763 5.0201 -3.2214 0.9692
3.5697 6.1829 -3.2214 0.9692
3.0052 6.4761 -3.2214 0.9692
1.1875 7.0399 -3.2214 0.9692
0.5562 7.1177 -3.2214 0.9692
-0.0779 6.9906 -3.1544 0.9698
-0.6808 6.7675 -3.0690 0.9706
-1.2805 6.6803 -3.0691 0.9706
-1.8700 6.5398 -3.0691 0.9706
-3.0903 6.2886 -3.1616 0.9697
-4.2349 5.7477 -3.2214 0.9692
-4.7298 5.3480 -3.2214 0.9692
-5.1869 4.9058 -3.2214 0.9692
-5.6030 4.4246 -3.2214 0.9692
-6.2987 3.3611 -3.2214 0.9692
-6.5729 2.7872 -3.2214 0.9692
-6.7949 2.1911 -3.2214 0.9692
-7.1323 -0.3180 -3.2214 0.9692
-7.0757 -0.9516 -3.2214 0.9692
-6.9629 -1.5776 -3.2214 0.9692
-5.9746 -3.9084 -3.2214 0.9692
-5.1869 -4.9057 -3.2214 0.9692
-3.7066 -6.1018 -3.2214 0.9692
-2.5660 -6.6623 -3.2214 0.9692
-1.9628 -6.8642 -3.2214 0.9692
-1.3441 -7.0117 -3.2214 0.9692
-0.7146 -7.1035 -3.2214 0.9692
0.5562 -7.1177 -3.2214 0.9692
1.1875 -7.0399 -3.2214 0.9692
1.8094 -6.9063 -3.2214 0.9692
3.0052 -6.4760 -3.2214 0.9692
4.1042 -5.8383 -3.2201 0.9692
4.5736 -5.4097 -3.1964 0.9694
5.0237 -4.9680 -3.1880 0.9695
5.4394 -4.4958 -3.1842 0.9695
6.8606 -1.7159 -3.1910 0.9694
6.3720 3.2199 -3.2214 0.9692
6.0601 3.7743 -3.2214 0.9692
5.7002 4.2987 -3.2214 0.9692
4.3619 5.6519 -3.2214 0.9692
3.2907 6.3358 -3.2214 0.9692
2.1152 6.8188 -3.2214 0.9692
1.4999 6.9800 -3.2214 0.9692
0.8727 7.0859 -3.2214 0.9692
-0.3805 6.8239 -3.0838 0.9705
-1.5769 6.6167 -3.0692 0.9706
-2.7513 6.2925 -3.0988 0.9703
-3.4311 6.2609 -3.2214 0.9692
-3.9747 5.9307 -3.2214 0.9692
-4.9633 5.1320 -3.2214 0.9692
-6.1427 3.6384 -3.2214 0.9692
-6.4422 3.0772 -3.2214 0.9692
-7.1111 0.6355 -3.2214 0.9692
-6.8341 0.0000 -3.2214 0.9702
-6.8069 -0.6083 -3.2214 0.9702
-6.7258 -1.2117 -3.2214 0.9702
-6.5912 -1.8055 -3.2214 0.9702
-6.4044 -2.3850 -3.2214 0.9702
-5.8800 -3.4827 -3.2214 0.9702
-4.7510 -4.9125 -3.2214 0.9702
-3.8047 -5.6770 -3.2214 0.9702
-2.7379 -6.2617 -3.2214 0.9702
-2.1697 -6.4805 -3.2214 0.9702
0.8354 -6.7828 -3.2214 0.9702
1.4358 -6.6815 -3.2214 0.9702
2.5977 -6.3211 -3.2214 0.9702
3.1500 -6.0648 -3.2214 0.9702
3.6773 -5.7604 -3.2214 0.9702
5.3974 -4.0704 -3.1866 0.9705
5.7380 -3.5737 -3.1864 0.9705
6.4864 -1.9331 -3.1904 0.9705
6.6357 -1.3487 -3.1919 0.9705
6.7324 -0.7531 -3.1933 0.9705
6.7655 0.4529 -3.1962 0.9705
6.7014 1.0538 -3.1977 0.9704
5.6342 3.8677 -3.2214 0.9702
5.2676 4.3538 -3.2214 0.9702
4.4122 5.2188 -3.2214 0.9702
3.9302 5.5909 -3.2214 0.9702
3.4170 5.9185 -3.2214 0.9702
2.8767 6.1991 -3.2214 0.9702
2.3135 6.4306 -3.2214 0.9702
1.7320 6.6109 -3.2214 0.9702
0.5324 6.8133 -3.2214 0.9702
-0.0762 6.8336 -3.2214 0.9702
-0.6703 6.6630 -3.1566 0.9708
-1.8112 6.3340 -3.1054 0.9713
-2.4168 6.2751 -3.1697 0.9707
-4.0538 5.5019 -3.2214 0.9702
-4.9651 4.6960 -3.2214 0.9702
-5.7190 3.7412 -3.2214 0.9702
-6.2918 2.6680 -3.2214 0.9702
-6.5042 2.0974 -3.2214 0.9702
-6.6651 1.5101 -3.2214 0.9702
-6.7731 0.9109 -3.2214 0.9702
-6.8273 0.3045 -3.2214 0.9702
-6.8273 -0.3044 -3.2214 0.9702
-6.7731 -0.9109 -3.2214 0.9702
-6.2918 -2.6679 -3.2214 0.9702
-6.0294 -3.2173 -3.2214 0.9702
-5.7191 -3.7412 -3.2214 0.9702
-5.3634 -4.2354 -3.2214 0.9702
-4.0538 -5.5019 -3.2214 0.9702
-3.5480 -5.8408 -3.2214 0.9702
-3.0141 -6.1335 -3.2214 0.9702
-1.8789 -6.5707 -3.2214 0.9702
-1.2866 -6.7118 -3.2214 0.9702
-0.6841 -6.7997 -3.2214 0.9702
0.5324 -6.8133 -3.2214 0.9702
1.1367 -6.7388 -3.2214 0.9702
2.8767 -6.1991 -3.2214 0.9702
3.9302 -5.5908 -3.2214 0.9702
4.4033 -5.2082 -3.2149 0.9703
4.8163 -4.7630 -3.1930 0.9705
5.5720 -3.8250 -3.1858 0.9706
5.8927 -3.3151 -3.1871 0.9705
6.1669 -2.7786 -3.1884 0.9705
6.3924 -2.2197 -3.1897 0.9705
6.5675 -1.6426 -3.1911 0.9705
6.6907 -1.0520 -3.1926 0.9705
6.7609 -0.4526 -3.1940 0.9705
6.7402 0.7540 -3.1970 0.9705
6.3483 2.5266 -3.2207 0.9702
5.4564 4.1149 -3.2214 0.9702
5.0685 4.5842 -3.2214 0.9702
4.6403 5.0171 -3.2214 0.9702
4.1754 5.4102 -3.2214 0.9702
3.6773 5.7604 -3.2214 0.9702
3.1500 6.0648 -3.2214 0.9702
2.5977 6.3211 -3.2214 0.9702
0.2283 6.8302 -3.2214 0.9702
-0.3791 6.7978 -3.2093 0.9703
-2.1075 6.2947 -3.1291 0.9711
-2.7379 6.2617 -3.2214 0.9702
-5.1694 4.4701 -3.2214 0.9702
-6.1667 2.9456 -3.2214 0.9702
-6.5912 1.8055 -3.2214 0.9702
-6.7258 1.2117 -3.2214 0.9702
-6.8069 0.6083 -3.2214 0.9702
-6.5235 -0.5829 -3.2214 0.9712
-6.1377 -2.2857 -3.2214 0.9712
-5.9099 -2.8229 -3.2214 0.9712
-5.3158 -3.8261 -3.2214 0.9712
-3.6463 -5.4406 -3.2214 0.9712
-3.1476 -5.7436 -3.2214 0.9712
-2.6239 -6.0009 -3.2214 0.9712
-2.0794 -6.2107 -3.2214 0.9712
-1.5183 -6.3711 -3.2214 0.9712
-0.9452 -6.4809 -3.2214 0.9712
-0.3646 -6.5394 -3.2214 0.9712
0.2188 -6.5458 -3.2214 0.9712
1.3760 -6.4033 -3.2214 0.9712
1.9404 -6.2554 -3.2214 0.9712
2.4895 -6.0579 -3.2214 0.9712
3.0188 -5.8123 -3.2214 0.9712
3.5242 -5.5205 -3.2214 0.9712
4.4422 -4.8028 -3.2178 0.9713
4.8229 -4.3621 -3.1985 0.9714
5.1807 -3.9070 -3.1915 0.9715
5.7850 -2.9233 -3.1880 0.9715
6.0246 -2.3977 -3.1893 0.9715
6.2167 -1.8528 -3.1906 0.9715
6.4523 -0.7218 -3.1934 0.9715
6.4938 -0.1447 -3.1948 0.9715
6.4837 0.4340 -3.1962 0.9714
6.4262 1.0105 -3.1996 0.9714
6.3228 1.5815 -3.2057 0.9714
5.9713 2.6906 -3.2214 0.9712
5.3997 3.7067 -3.2214 0.9712
5.0483 4.1726 -3.2214 0.9712
4.2285 5.0016 -3.2214 0.9712
3.2748 5.6721 -3.2214 0.9712
2.7569 5.9410 -3.2214 0.9712
2.2172 6.1628 -3.2214 0.9712
1.0893 6.4583 -3.2214 0.9712
-0.6556 6.5166 -3.2214 0.9712
-3.4003 5.5977 -3.2214 0.9712
-4.7584 4.5005 -3.2214 0.9712
-5.4809 3.5855 -3.2214 0.9712
-5.7783 3.0834 -3.2214 0.9712
-6.0298 2.5569 -3.2214 0.9712
-6.2335 2.0100 -3.2214 0.9712
-6.3876 1.4473 -3.2214 0.9712
-6.4911 0.8730 -3.2214 0.9712
-6.5430 -0.2917 -3.2214 0.9712
-6.4911 -0.8730 -3.2214 0.9712
-6.3876 -1.4472 -3.2214 0.9712
-6.2335 -2.0100 -3.2214 0.9712
-5.1401 -4.0590 -3.2214 0.9712
-4.7584 -4.5004 -3.2214 0.9712
-4.3389 -4.9061 -3.2214 0.9712
-3.4003 -5.5977 -3.2214 0.9712
-2.8886 -5.8781 -3.2214 0.9712
-2.3540 -6.1119 -3.2214 0.9712
-1.8006 -6.2971 -3.2214 0.9712
1.0894 -6.4583 -3.2214 0.9712
2.7569 -5.9410 -3.2214 0.9712
3.2748 -5.6720 -3.2214 0.9712
3.7666 -5.3580 -3.2214 0.9712
4.6387 -4.5873 -3.2088 0.9713
5.3473 -3.6707 -3.1902 0.9715
5.6479 -3.1775 -3.1874 0.9715
5.9106 -2.6632 -3.1887 0.9715
6.4123 -1.0083 -3.1927 0.9715
6.4795 -0.4337 -3.1941 0.9715
6.4594 0.7226 -3.1969 0.9714
5.8456 2.9539 -3.2214 0.9712
5.5594 3.4625 -3.2214 0.9712
5.2292 3.9436 -3.2214 0.9712
4.0015 5.1850 -3.2214 0.9712
3.5242 5.5205 -3.2214 0.9712
3.0188 5.8123 -3.2214 0.9712
2.4895 6.0579 -3.2214 0.9712
1.9404 6.2555 -3.2214 0.9712
0.8006 6.5004 -3.2214 0.9712
-0.9452 6.4810 -3.2214 0.9712
-1.5174 6.3671 -3.2194 0.9712
-2.0794 6.2107 -3.2214 0.9712
-3.6463 5.4407 -3.2214 0.9712
-4.1161 5.0945 -3.2214 0.9712
-5.9099 2.8229 -3.2214 0.9712
-6.1378 2.2857 -3.2214 0.9712
-6.4458 1.1613 -3.2214 0.9712
-6.2836 0.0000 -3.2214 0.9722
-6.2587 -0.5592 -3.2214 0.9722
-6.1840 -1.1141 -3.2214 0.9722
-6.0604 -1.6601 -3.2214 0.9722
-5.8885 -2.1929 -3.2214 0.9722
-5.6700 -2.7083 -3.2214 0.9722
-5.1000 -3.6707 -3.2214 0.9722
-4.7530 -4.1100 -3.2214 0.9722
-3.9490 -4.8877 -3.2214 0.9722
-1.9949 -5.9585 -3.2214 0.9722
-0.3498 -6.2738 -3.2214 0.9722
0.7681 -6.2365 -3.2214 0.9722
1.3201 -6.1433 -3.2214 0.9722
2.3884 -5.8119 -3.2214 0.9722
3.8391 -4.9744 -3.2214 0.9722
5.2872 -3.2929 -3.1933 0.9724
5.7825 -2.3006 -3.1906 0.9724
6.1017 -1.2402 -3.1921 0.9724
6.1904 -0.6925 -3.1935 0.9724
6.2269 0.4169 -3.1995 0.9723
6.1750 0.9710 -3.2046 0.9723
5.9359 2.0612 -3.2214 0.9722
5.7289 2.5813 -3.2214 0.9722
5.4764 3.0810 -3.2214 0.9722
5.1804 3.5562 -3.2214 0.9722
4.8434 4.0032 -3.2214 0.9722
4.0568 4.7985 -3.2214 0.9722
3.1418 5.4418 -3.2214 0.9722
2.6450 5.6998 -3.2214 0.9722
1.5925 6.0785 -3.2214 0.9722
-2.2584 5.8637 -3.2214 0.9722
-3.2623 5.3704 -3.2214 0.9722
-3.7273 5.0587 -3.2214 0.9722
-4.1628 4.7069 -3.2214 0.9722
-4.5652 4.3177 -3.2214 0.9722
-4.9314 3.8943 -3.2214 0.9722
-5.5437 2.9582 -3.2214 0.9722
-5.7850 2.4531 -3.2214 0.9722
-6.2774 0.2799 -3.2214 0.9722
-6.1283 -1.3885 -3.2214 0.9722
-5.9804 -1.9284 -3.2214 0.9722
-5.5437 -2.9582 -3.2214 0.9722
-4.9314 -3.8942 -3.2214 0.9722
-4.5652 -4.3177 -3.2214 0.9722
-2.7713 -5.6394 -3.2214 0.9722
-2.2584 -5.8637 -3.2214 0.9722
-1.1829 -6.1712 -3.2214 0.9722
-0.0700 -6.2832 -3.2214 0.9722
1.5925 -6.0784 -3.2214 0.9722
2.1272 -5.9126 -3.2214 0.9722
3.6137 -5.1405 -3.2214 0.9722
4.4672 -4.4177 -3.2210 0.9722
5.4272 -3.0533 -3.1925 0.9724
5.6750 -2.5570 -3.1911 0.9724
6.0391 -1.5105 -3.1915 0.9724
6.2357 0.1390 -3.1977 0.9724
6.1406 1.2482 -3.2125 0.9722
6.0218 1.7947 -3.2214 0.9722
5.3337 3.3219 -3.2214 0.9722
5.0169 3.7834 -3.2214 0.9722
4.6602 4.2150 -3.2214 0.9722
4.2666 4.6130 -3.2214 0.9722
2.8963 5.5763 -3.2214 0.9722
2.3884 5.8120 -3.2214 0.9722
1.3201 6.1433 -3.2214 0.9722
-0.3498 6.2739 -3.2214 0.9722
-1.9949 5.9585 -3.2214 0.9722
-3.0198 5.5104 -3.2214 0.9722
-3.9490 4.8877 -3.2214 0.9722
-4.7530 4.1101 -3.2214 0.9722
-5.1000 3.6707 -3.2214 0.9722
-5.4064 3.2022 -3.2214 0.9722
-5.6700 2.7083 -3.2214 0.9722
-6.0604 1.6601 -3.2214 0.9722
-6.2587 0.5593 -3.2214 0.9722
-6.0344 0.0000 -3.2214 0.9730
-5.6550 -2.1059 -3.2214 0.9730
-5.4451 -2.6009 -3.2214 0.9730
-5.1920 -3.0752 -3.2214 0.9730
-4.8977 -3.5251 -3.2214 0.9730
-4.5645 -3.9470 -3.2214 0.9730
-4.1950 -4.3376 -3.2214 0.9730
-2.4175 -5.5289 -3.2214 0.9730
-1.9158 -5.7222 -3.2214 0.9730
-0.8709 -5.9712 -3.2214 0.9730
-0.3360 -6.0250 -3.2214 0.9730
0.7376 -5.9891 -3.2214 0.9730
1.2677 -5.8997 -3.2214 0.9730
1.7878 -5.7634 -3.2214 0.9730
2.7814 -5.3551 -3.2214 0.9730
3.6868 -4.7771 -3.2214 0.9730
4.4754 -4.0477 -3.2214 0.9730
4.8096 -3.6271 -3.2159 0.9731
5.0915 -3.1710 -3.2021 0.9732
5.7360 -1.7095 -3.1952 0.9732
5.8669 -1.1925 -3.1961 0.9732
5.9529 -0.6659 -3.1977 0.9732
5.9921 0.4011 -3.2060 0.9731
5.9571 0.9367 -3.2192 0.9730
5.8540 1.4642 -3.2214 0.9730
5.7005 1.9794 -3.2214 0.9730
5.2592 2.9588 -3.2214 0.9730
4.9750 3.4151 -3.2214 0.9730
4.2906 4.2431 -3.2214 0.9730
3.0172 5.2259 -3.2214 0.9730
2.5400 5.4737 -3.2214 0.9730
2.0428 5.6781 -3.2214 0.9730
1.5293 5.8374 -3.2214 0.9730
1.0037 5.9503 -3.2214 0.9730
-1.1360 5.9265 -3.2214 0.9730
-3.9977 4.5202 -3.2214 0.9730
-4.7358 3.7398 -3.2214 0.9730
-5.3238 2.8409 -3.2214 0.9730
-5.5555 2.3558 -3.2214 0.9730
-5.7432 1.8519 -3.2214 0.9730
-5.9805 0.8043 -3.2214 0.9730
-5.8852 -1.3334 -3.2214 0.9730
-5.7432 -1.8519 -3.2214 0.9730
-5.5555 -2.3557 -3.2214 0.9730
-5.0499 -3.3034 -3.2214 0.9730
-4.7358 -3.7398 -3.2214 0.9730
-3.9977 -4.5202 -3.2214 0.9730
-3.5795 -4.8581 -3.2214 0.9730
-3.1329 -5.1574 -3.2214 0.9730
-2.6614 -5.4157 -3.2214 0.9730
-0.6040 -6.0040 -3.2214 0.9730
0.4701 -6.0160 -3.2214 0.9730
1.0037 -5.9503 -3.2214 0.9730
2.5400 -5.4737 -3.2214 0.9730
3.0172 -5.2259 -3.2214 0.9730
3.4703 -4.9366 -3.2214 0.9730
4.2906 -4.2431 -3.2214 0.9730
5.2212 -2.9374 -3.1982 0.9732
5.4571 -2.4590 -3.1953 0.9732
5.8070 -1.4524 -3.1955 0.9732
5.9156 -0.9302 -3.1968 0.9732
5.9786 -0.4002 -3.1988 0.9732
5.9963 0.1337 -3.2019 0.9732
5.9134 1.2020 -3.2214 0.9730
4.8179 3.6334 -3.2214 0.9730
3.6868 4.7772 -3.2214 0.9730
2.7814 5.3551 -3.2214 0.9730
1.7878 5.7635 -3.2214 0.9730
1.2678 5.8997 -3.2214 0.9730
0.2016 6.0310 -3.2214 0.9730
-0.3360 6.0250 -3.2214 0.9730
-0.8709 5.9712 -3.2214 0.9730
-1.3989 5.8700 -3.2214 0.9730
-1.9158 5.7222 -3.2214 0.9730
-2.4175 5.5290 -3.2214 0.9730
-4.1951 4.3377 -3.2214 0.9730
-5.1920 3.0752 -3.2214 0.9730
-5.4451 2.6009 -3.2214 0.9730
-5.6550 2.1059 -3.2214 0.9730
-5.8200 1.5943 -3.2214 0.9730
-5.8002 0.0000 -3.2214 0.9738
-5.7083 -1.0284 -3.2214 0.9738
-5.5941 -1.5324 -3.2214 0.9738
-5.4355 -2.0242 -3.2214 0.9738
-5.2338 -2.4999 -3.2214 0.9738
-4.9905 -2.9559 -3.2214 0.9738
-4.7076 -3.3883 -3.2214 0.9738
-4.3874 -3.7938 -3.2214 0.9738
-2.3237 -5.3144 -3.2214 0.9738
-1.8415 -5.5001 -3.2214 0.9738
-0.3229 -5.7912 -3.2214 0.9738
1.2186 -5.6707 -3.2214 0.9738
1.7184 -5.5398 -3.2214 0.9738
2.6734 -5.1473 -3.2214 0.9738
3.5437 -4.5917 -3.2214 0.9738
3.9384 -4.2581 -3.2214 0.9738
4.3017 -3.8907 -3.2214 0.9738
4.9176 -3.0627 -3.2176 0.9738
5.1573 -2.6061 -3.2093 0.9739
5.6490 -1.1482 -3.2016 0.9740
5.7298 0.9010 -3.2214 0.9738
5.6269 1.4074 -3.2214 0.9738
5.4792 1.9026 -3.2214 0.9738
5.2882 2.3828 -3.2214 0.9738
5.0551 2.8440 -3.2214 0.9738
4.7819 3.2826 -3.2214 0.9738
4.4708 3.6952 -3.2214 0.9738
3.7447 4.4293 -3.2214 0.9738
3.3357 4.7451 -3.2214 0.9738
1.9635 5.4577 -3.2214 0.9738
1.4700 5.6108 -3.2214 0.9738
0.4518 5.7826 -3.2214 0.9738
-0.0646 5.7998 -3.2214 0.9738
-0.5806 5.7711 -3.2214 0.9738
-1.5946 5.5767 -3.2214 0.9738
-3.0113 4.9573 -3.2214 0.9738
-3.4406 4.6696 -3.2214 0.9738
-3.8425 4.3448 -3.2214 0.9738
-4.2140 3.9856 -3.2214 0.9738
-4.8539 3.1753 -3.2214 0.9738
-5.3400 2.2644 -3.2214 0.9738
-5.5203 1.7801 -3.2214 0.9738
-5.6568 1.2817 -3.2214 0.9738
-5.7485 0.7731 -3.2214 0.9738
-5.7945 0.2584 -3.2214 0.9738
-5.6568 -1.2816 -3.2214 0.9738
-5.1172 -2.7306 -3.2214 0.9738
-4.2140 -3.9855 -3.2214 0.9738
-3.8425 -4.3448 -3.2214 0.9738
-3.0113 -4.9572 -3.2214 0.9738
-1.5946 -5.5767 -3.2214 0.9738
-1.0920 -5.6965 -3.2214 0.9738
-0.5806 -5.7711 -3.2214 0.9738
1.9635 -5.4577 -3.2214 0.9738
2.4415 -5.2613 -3.2214 0.9738
2.9001 -5.0231 -3.2214 0.9738
3.3357 -4.7450 -3.2214 0.9738
4.7808 -3.2818 -3.2207 0.9738
5.5912 -1.3984 -3.2010 0.9740
5.6966 -0.8957 -3.2028 0.9740
5.7628 -0.3858 -3.2078 0.9739
5.7909 0.1291 -3.2170 0.9738
5.3891 2.1448 -3.2214 0.9738
4.9234 3.0663 -3.2214 0.9738
4.3017 3.8907 -3.2214 0.9738
3.9383 4.2581 -3.2214 0.9738
3.5437 4.5918 -3.2214 0.9738
3.1210 4.8890 -3.2214 0.9738
2.6734 5.1473 -3.2214 0.9738
0.1938 5.7970 -3.2214 0.9738
-0.8371 5.7395 -3.2214 0.9738
-1.8415 5.5001 -3.2214 0.9738
-2.3237 5.3144 -3.2214 0.9738
-2.7875 5.0865 -3.2214 0.9738
-3.6452 4.5117 -3.2214 0.9738
-4.7076 3.3883 -3.2214 0.9738
-5.2338 2.5000 -3.2214 0.9738
-5.4355 2.0242 -3.2214 0.9738
-5.7772 0.5163 -3.2214 0.9738
-5.5797 0.0000 -3.2214 0.9746
-5.5575 -0.4966 -3.2214 0.9746
-5.2288 -1.9472 -3.2214 0.9746
-4.8007 -2.8435 -3.2214 0.9746
-4.2205 -3.6496 -3.2214 0.9746
-3.8789 -4.0108 -3.2214 0.9746
-3.1064 -4.6350 -3.2214 0.9746
0.1864 -5.5765 -3.2214 0.9746
0.6820 -5.5378 -3.2214 0.9746
1.1722 -5.4551 -3.2214 0.9746
1.6531 -5.3291 -3.2214 0.9746
2.1209 -5.1608 -3.2214 0.9746
3.0023 -4.7030 -3.2214 0.9746
3.4090 -4.4171 -3.2214 0.9746
3.7886 -4.0962 -3.2214 0.9746
4.9793 -2.5161 -3.2210 0.9746
5.1787 -2.0610 -3.2180 0.9746
5.4604 -1.1098 -3.2170 0.9746
5.5410 -0.6199 -3.2190 0.9746
5.5672 0.3727 -3.2214 0.9746
5.5119 0.8667 -3.2214 0.9746
5.2709 1.8303 -3.2214 0.9746
4.8629 2.7358 -3.2214 0.9746
3.9673 3.9234 -3.2214 0.9746
3.6024 4.2609 -3.2214 0.9746
0.4347 5.5627 -3.2214 0.9746
-0.0622 5.5793 -3.2214 0.9746
-1.0504 5.4799 -3.2214 0.9746
-1.5340 5.3647 -3.2214 0.9746
-2.0054 5.2068 -3.2214 0.9746
-2.4608 5.0077 -3.2214 0.9746
-2.8968 4.7688 -3.2214 0.9746
-3.3097 4.4920 -3.2214 0.9746
-3.6964 4.1796 -3.2214 0.9746
-4.0538 3.8340 -3.2214 0.9746
-4.3789 3.4580 -3.2214 0.9746
-4.9227 2.6268 -3.2214 0.9746
-5.1369 2.1783 -3.2214 0.9746
-5.4417 1.2329 -3.2214 0.9746
-5.5741 0.2486 -3.2214 0.9746
-5.5741 -0.2485 -3.2214 0.9746
-5.3104 -1.7124 -3.2214 0.9746
-5.1369 -2.1782 -3.2214 0.9746
-4.9227 -2.6268 -3.2214 0.9746
-4.3789 -3.4580 -3.2214 0.9746
-4.0538 -3.8340 -3.2214 0.9746
-3.3098 -4.4920 -3.2214 0.9746
-2.0054 -5.2068 -3.2214 0.9746
-1.5340 -5.3646 -3.2214 0.9746
-1.0504 -5.4799 -3.2214 0.9746
-0.5585 -5.5516 -3.2214 0.9746
0.4347 -5.5627 -3.2214 0.9746
1.4141 -5.3975 -3.2214 0.9746
1.8888 -5.2502 -3.2214 0.9746
2.3487 -5.0612 -3.2214 0.9746
3.9673 -3.9233 -3.2214 0.9746
4.6001 -3.1578 -3.2214 0.9746
4.8629 -2.7358 -3.2214 0.9746
5.0837 -2.2906 -3.2193 0.9746
5.2639 -1.8277 -3.2171 0.9746
5.4047 -1.3518 -3.2165 0.9746
5.5058 -0.8657 -3.2178 0.9746
5.5659 -0.3726 -3.2207 0.9746
5.4678 1.1114 -3.2214 0.9746
4.9799 2.5165 -3.2214 0.9746
4.7362 2.9497 -3.2214 0.9746
4.4548 3.3596 -3.2214 0.9746
4.1381 3.7428 -3.2214 0.9746
3.7886 4.0962 -3.2214 0.9746
3.4090 4.4172 -3.2214 0.9746
3.0023 4.7030 -3.2214 0.9746
1.1722 5.4551 -3.2214 0.9746
0.6820 5.5378 -3.2214 0.9746
0.1864 5.5765 -3.2214 0.9746
-0.3106 5.5710 -3.2214 0.9746
-0.8053 5.5212 -3.2214 0.9746
-1.2935 5.4277 -3.2214 0.9746
-1.7714 5.2910 -3.2214 0.9746
-2.2353 5.1123 -3.2214 0.9746
-2.6815 4.8931 -3.2214 0.9746
-4.8007 2.8435 -3.2214 0.9746
-5.0348 2.4049 -3.2214 0.9746
-5.3814 1.4741 -3.2214 0.9746
-5.4913 0.9893 -3.2214 0.9746
-5.5575 0.4966 -3.2214 0.9746
