ply
format ascii 1.0
element vertex 1614
property float32 x
property float32 y
property float32 z
property float32 I
end_header
-4.5268 -11.7535 6.7238 0.9445
-0.9646 -6.6139 3.4266 0.9704
-1.0000 -6.8566 3.4081 0.9696
5.0522 9.7272 5.3912 0.9523
3.9958 9.7231 5.1704 0.9542
3.0087 9.6991 4.9948 0.9557
-1.0372 -7.1116 3.3877 0.9687
6.8953 9.8087 5.4100 0.9487
-1.1140 -7.6380 3.3296 0.9669
-1.1823 -8.1062 3.2151 0.9654
-1.2186 -8.3556 3.1531 0.9646
-1.2582 -8.6267 3.0913 0.9637
5.6219 9.7375 3.3662 0.9541
5.0302 9.6848 3.2672 0.9555
8.2432 9.7501 3.5923 0.9483
3.4729 9.6530 2.8864 0.9583
2.5259 9.6414 2.6262 0.9596
9.0025 9.7334 3.4936 0.9466
2.0701 9.6333 2.5963 0.9601
10.7830 9.7526 3.5737 0.9419
8.7111 3.9250 1.0364 0.9623
8.9514 3.5626 1.0450 0.9620
8.4756 3.8189 0.8523 0.9633
8.6880 3.4577 0.8573 0.9631
8.4351 4.2625 0.8664 0.9627
8.3931 4.7219 0.7217 0.9621
8.2471 4.1674 0.6925 0.9636
8.1982 3.6939 0.5237 0.9646
9.3944 2.7998 0.5709 0.9615
8.3896 3.3390 0.5259 0.9645
8.1200 4.1032 0.5299 0.9642
8.6128 2.9907 0.3791 0.9642
8.1176 3.6576 0.3702 0.9650
9.1585 2.7295 0.3974 0.9625
8.5220 2.9592 0.2250 0.9645
7.9726 4.4853 0.2281 0.9641
9.0078 2.6846 0.2344 0.9631
8.2249 3.2734 0.2208 0.9652
8.3041 5.1718 0.2440 0.9616
7.9168 4.4539 0.0755 0.9643
8.9118 2.6560 0.0773 0.9635
8.1588 5.0813 0.0799 0.9623
8.4157 2.9222 -0.0740 0.9650
8.8484 2.6371 -0.0767 0.9637
8.1339 3.2372 -0.0728 0.9656
7.8414 4.4115 -0.2244 0.9646
8.1094 3.2275 -0.2177 0.9657
7.8413 3.9624 -0.2191 0.9655
8.0341 5.0037 -0.2360 0.9628
9.8833 2.4720 -0.4236 0.9600
8.3715 2.9069 -0.3685 0.9651
8.7935 2.6207 -0.3815 0.9639
8.0962 3.2222 -0.3623 0.9657
7.8277 3.9555 -0.3647 0.9655
7.9159 3.5667 -0.5057 0.9658
8.8110 2.6260 -0.6890 0.9638
8.1032 3.2250 -0.6536 0.9656
7.8355 3.9595 -0.6579 0.9654
8.0351 5.0043 -0.7094 0.9627
8.8417 2.6351 -0.8458 0.9636
8.1167 3.2304 -0.8009 0.9655
8.0840 5.0348 -0.8731 0.9625
7.9070 4.4484 -0.9841 0.9642
8.9085 2.6550 -1.0083 0.9633
8.5036 2.9528 -1.1281 0.9644
8.2046 3.2654 -1.1066 0.9650
7.9376 4.0110 -1.1145 0.9648
8.0950 3.6474 -1.2629 0.9648
8.2809 3.2957 -1.2677 0.9646
8.3671 3.3300 -1.4340 0.9642
8.3061 3.7425 -1.6064 0.9637
8.5090 3.3865 -1.6148 0.9635
9.2829 3.2234 -1.9016 0.9608
-4.7683 -12.3806 -2.5674 0.9474
8.7088 3.4660 -1.8139 0.9625
8.4768 4.2835 -1.8380 0.9620
-14.5599 0.0000 -3.0695 0.9422
-14.3292 -2.5815 -3.0695 0.9422
-14.0426 -3.8466 -3.0695 0.9422
-13.6445 -5.0812 -3.0695 0.9422
-11.8172 -8.5055 -3.0695 0.9422
-9.6220 -9.9490 -2.9179 0.9450
-8.7046 -10.7738 -2.9200 0.9450
-5.5344 -12.6576 -2.9124 0.9451
-4.2775 -12.7762 -2.8404 0.9464
-1.9807 -13.5806 -2.8934 0.9454
-0.7621 -13.6671 -2.8858 0.9456
5.4302 -13.2137 -3.0118 0.9433
8.7444 -11.3305 -3.0173 0.9432
10.6316 -9.6157 -3.0221 0.9431
11.4553 -8.6389 -3.0248 0.9430
13.8031 -4.1138 -3.0365 0.9428
14.3309 -1.6032 -3.0401 0.9428
14.0436 3.5125 -3.0519 0.9425
13.6887 4.7532 -3.0549 0.9425
8.8214 3.9747 -2.0398 0.9612
11.2093 9.2647 -3.0658 0.9423
6.1287 13.2071 -3.0695 0.9422
4.9289 13.7002 -3.0695 0.9422
2.4217 14.3571 -3.0695 0.9422
1.0779 13.7949 -2.9171 0.9450
-1.3867 13.7841 -2.9206 0.9449
-2.6081 13.6062 -2.9207 0.9449
-3.8089 13.3206 -2.9208 0.9449
-7.1941 11.8432 -2.9213 0.9449
-8.2204 11.1568 -2.9216 0.9449
-10.0702 9.5244 -2.9221 0.9449
-12.2217 6.5216 -2.9204 0.9449
-14.2000 3.2173 -3.0695 0.9422
-14.4300 -1.9406 -3.0695 0.9422
-13.8573 -4.4684 -3.0695 0.9422
-13.4045 -5.6840 -3.0695 0.9422
-12.8455 -6.8545 -3.0695 0.9422
-12.1844 -7.9706 -3.0695 0.9422
-9.1727 -10.3717 -2.9190 0.9450
-8.2188 -11.1547 -2.9210 0.9449
-6.1011 -12.4153 -2.9164 0.9450
-4.7512 -12.3363 -2.7870 0.9474
-0.1523 -13.6711 -2.8823 0.9456
2.2647 -13.4260 -2.8704 0.9459
3.6179 -13.8097 -3.0096 0.9433
6.0150 -12.9620 -3.0125 0.9433
8.2281 -11.7046 -3.0163 0.9432
10.1885 -10.0756 -3.0209 0.9431
11.8342 -8.1237 -3.0262 0.9430
13.1124 -5.9082 -3.0320 0.9429
13.9766 -3.4958 -3.0373 0.9428
14.2383 -2.2389 -3.0386 0.9428
14.3951 -0.9636 -3.0416 0.9427
14.4378 0.3217 -3.0445 0.9427
14.3656 1.6070 -3.0474 0.9426
14.1789 2.8820 -3.0503 0.9426
13.8800 4.1367 -3.0534 0.9425
12.9515 6.5447 -3.0592 0.9424
12.3286 7.6784 -3.0620 0.9424
11.6062 8.7526 -3.0646 0.9423
8.8956 11.5264 -3.0695 0.9422
6.7110 12.9210 -3.0695 0.9422
4.3137 13.9062 -3.0695 0.9422
3.0589 14.2349 -3.0695 0.9422
1.6914 13.7332 -2.9171 0.9450
-0.7713 13.8325 -2.9207 0.9449
-5.5508 12.6951 -2.9210 0.9449
-6.6592 12.1514 -2.9212 0.9449
-7.7149 11.5114 -2.9214 0.9449
-11.2453 8.0939 -2.9209 0.9449
-11.9095 7.0541 -2.9181 0.9450
-13.1381 6.2755 -3.0695 0.9422
-13.6445 5.0813 -3.0695 0.9422
-14.0426 3.8467 -3.0695 0.9422
-14.3292 2.5815 -3.0695 0.9422
-14.5021 1.2959 -3.0695 0.9422
-13.4484 0.0000 -3.0695 0.9463
-12.9706 -3.5530 -3.0695 0.9463
-11.5710 -6.8535 -3.0695 0.9463
-7.1213 -10.6257 -2.9195 0.9489
-6.1505 -11.2233 -2.9211 0.9488
-5.1295 -11.7313 -2.9224 0.9488
-4.0600 -12.1265 -2.9188 0.9489
-2.9594 -12.4179 -2.9137 0.9490
-1.8374 -12.5983 -2.9059 0.9491
-0.7128 -12.7831 -2.9222 0.9488
0.4276 -12.7910 -2.9211 0.9488
3.9105 -12.6062 -3.0125 0.9473
8.0821 -10.4723 -3.0193 0.9472
8.9885 -9.7182 -3.0214 0.9471
9.8252 -8.8864 -3.0237 0.9471
10.5857 -7.9831 -3.0262 0.9471
11.2639 -7.0152 -3.0288 0.9470
12.3459 -4.9136 -3.0329 0.9469
13.0409 -2.6507 -3.0374 0.9469
13.2370 -1.4808 -3.0401 0.9468
13.3282 -0.2970 -3.0428 0.9468
13.3136 0.8913 -3.0456 0.9467
12.9687 3.2437 -3.0512 0.9466
12.6400 4.3891 -3.0540 0.9466
12.2100 5.5016 -3.0567 0.9465
11.6818 6.5721 -3.0593 0.9465
11.0594 7.5919 -3.0618 0.9464
10.3477 8.5526 -3.0641 0.9464
9.5522 9.4464 -3.0663 0.9464
7.7341 11.0020 -3.0695 0.9463
5.6609 12.1989 -3.0695 0.9463
4.5527 12.6544 -3.0695 0.9463
-0.1426 12.7978 -2.9212 0.9488
-1.2810 12.7335 -2.9210 0.9488
-3.5186 12.3052 -2.9211 0.9488
-4.6000 11.9437 -2.9213 0.9488
-5.6451 11.4875 -2.9214 0.9488
-9.3023 8.7980 -2.9224 0.9488
-10.0422 7.9303 -2.9206 0.9489
-10.6989 6.9989 -2.9181 0.9489
-12.7994 4.1273 -3.0695 0.9463
-13.1160 2.9717 -3.0695 0.9463
-13.4351 0.5991 -3.0695 0.9463
-13.4351 -0.5991 -3.0695 0.9463
-13.3284 -1.7925 -3.0695 0.9463
-12.3813 -5.2501 -3.0695 0.9463
-11.8648 -6.3313 -3.0695 0.9463
-11.2543 -7.3622 -3.0695 0.9463
-10.5543 -8.3346 -3.0695 0.9463
-9.7706 -9.2409 -3.0695 0.9463
-7.5854 -10.2949 -2.9187 0.9489
-6.6427 -10.9354 -2.9203 0.9489
-5.6458 -11.4888 -2.9218 0.9488
-4.6009 -11.9460 -2.9218 0.9488
-2.4001 -12.5212 -2.9099 0.9490
-1.2767 -12.6903 -2.9111 0.9490
3.3511 -12.7912 -3.0180 0.9472
4.4688 -12.4213 -3.0130 0.9473
5.5589 -11.9791 -3.0142 0.9473
7.6051 -10.8184 -3.0183 0.9472
8.5436 -10.1054 -3.0203 0.9472
9.4160 -9.3116 -3.0225 0.9471
10.9355 -7.5068 -3.0274 0.9470
11.5703 -6.5094 -3.0301 0.9470
12.1115 -5.4571 -3.0320 0.9470
12.5554 -4.3597 -3.0335 0.9469
12.9042 -3.2275 -3.0360 0.9469
13.1520 -2.0680 -3.0387 0.9468
13.2958 -0.8900 -3.0415 0.9468
13.2667 1.4841 -3.0469 0.9467
12.4375 4.9500 -3.0553 0.9466
11.9579 6.0426 -3.0580 0.9465
11.3821 7.0889 -3.0605 0.9465
9.9600 9.0083 -3.0652 0.9464
9.1249 9.8658 -3.0673 0.9464
8.2165 10.6465 -3.0695 0.9463
7.2363 11.3356 -3.0695 0.9463
6.1987 11.9346 -3.0695 0.9463
5.1119 12.4390 -3.0695 0.9463
3.9844 12.8446 -3.0695 0.9463
2.8254 13.1483 -3.0695 0.9463
0.4271 12.7736 -2.9171 0.9489
-0.7125 12.7784 -2.9211 0.9488
-2.9669 12.4495 -2.9211 0.9488
-5.1277 11.7272 -2.9213 0.9488
-8.0455 9.9580 -2.9220 0.9488
-9.6830 8.3732 -2.9218 0.9488
-10.3811 7.4719 -2.9193 0.9489
-12.1351 5.7965 -3.0695 0.9463
-13.2353 2.3845 -3.0695 0.9463
-13.3950 1.1970 -3.0695 0.9463
-12.2900 -2.2141 -3.0695 0.9499
-10.7446 -6.3640 -3.0695 0.9499
-10.1355 -7.2951 -3.0695 0.9499
-9.4460 -8.1682 -3.0695 0.9499
-8.6815 -8.9766 -3.0695 0.9499
-7.6899 -9.5178 -3.0076 0.9508
-6.6080 -9.8597 -2.9175 0.9523
-5.7070 -10.4138 -2.9189 0.9523
-4.7594 -10.8849 -2.9201 0.9522
-3.7729 -11.2691 -2.9211 0.9522
-2.7556 -11.5630 -2.9218 0.9522
-0.6618 -11.8686 -2.9218 0.9522
0.3970 -11.8727 -2.9199 0.9522
2.6141 -12.1652 -3.0585 0.9500
4.6634 -11.3477 -3.0156 0.9507
6.6071 -10.3499 -3.0182 0.9507
8.3471 -9.0247 -3.0216 0.9506
9.8281 -7.4117 -3.0257 0.9506
10.4564 -6.5123 -3.0279 0.9505
11.8334 -3.5267 -3.0351 0.9504
12.2916 -1.3750 -3.0401 0.9503
12.2497 1.9262 -3.0480 0.9502
12.0401 3.0115 -3.0506 0.9502
11.7342 4.0746 -3.0532 0.9501
11.3343 5.1070 -3.0557 0.9501
10.2650 7.0466 -3.0604 0.9500
9.6039 7.9379 -3.0626 0.9500
6.2439 10.8148 -3.0695 0.9499
5.2566 11.3276 -3.0695 0.9499
4.2275 11.7505 -3.0695 0.9499
3.1648 12.0801 -3.0695 0.9499
1.9740 11.7025 -2.9171 0.9523
0.9245 11.8318 -2.9171 0.9523
-2.2374 11.6725 -2.9213 0.9522
-3.2676 11.4274 -2.9214 0.9522
-4.2719 11.0917 -2.9216 0.9522
-7.0518 9.5708 -2.9221 0.9522
-7.8763 8.9059 -2.9223 0.9522
-9.9315 6.4969 -2.9171 0.9523
-11.0174 5.8791 -3.0695 0.9499
-12.1792 2.7594 -3.0695 0.9499
-12.3764 1.6645 -3.0695 0.9499
-12.4754 -0.5563 -3.0695 0.9499
-12.3764 -1.6644 -3.0695 0.9499
-11.8852 -3.8325 -3.0695 0.9499
-11.4970 -4.8751 -3.0695 0.9499
-8.2730 -9.3544 -3.0695 0.9499
-7.0438 -9.5600 -2.9188 0.9523
-6.1638 -10.1469 -2.9182 0.9523
-4.2705 -11.0881 -2.9206 0.9522
-3.2676 -11.4275 -2.9214 0.9522
-2.2380 -11.6753 -2.9220 0.9522
-1.1900 -11.8292 -2.9223 0.9522
-0.1324 -11.8830 -2.9210 0.9522
0.9250 -11.8383 -2.9187 0.9523
2.0745 -12.2986 -3.0657 0.9499
3.1206 -11.9114 -3.0266 0.9505
4.1526 -11.5423 -3.0151 0.9507
6.1379 -10.6312 -3.0174 0.9507
9.4851 -7.8397 -3.0247 0.9506
10.1522 -6.9691 -3.0268 0.9505
10.7402 -6.0423 -3.0290 0.9505
12.3808 0.2759 -3.0440 0.9503
11.8991 3.5463 -3.0519 0.9501
11.1000 5.6091 -3.0569 0.9501
9.9445 7.4995 -3.0615 0.9500
9.2439 8.3606 -3.0636 0.9500
5.7559 11.0822 -3.0695 0.9499
2.6236 12.2092 -3.0695 0.9499
-0.6617 11.8668 -2.9214 0.9522
-2.7552 11.5614 -2.9214 0.9522
-6.6182 9.8750 -2.9220 0.9522
-7.4714 9.2475 -2.9222 0.9522
-8.2652 8.5462 -2.9223 0.9522
-8.9866 7.7710 -2.9202 0.9522
-11.2684 5.3825 -3.0695 0.9499
-11.7027 4.3581 -3.0695 0.9499
-12.0441 3.2992 -3.0695 0.9499
-12.2900 2.2142 -3.0695 0.9499
-11.6490 0.0000 -3.0695 0.9530
-11.2351 -3.0776 -3.0695 0.9530
-10.9166 -4.0654 -3.0695 0.9530
-10.0228 -5.9365 -3.0695 0.9530
-9.4546 -6.8050 -3.0695 0.9530
-8.8114 -7.6195 -3.0695 0.9530
-7.3209 -9.0611 -3.0695 0.9530
-6.3960 -9.5435 -3.0272 0.9536
3.4041 -10.9737 -3.0275 0.9536
4.3528 -10.5918 -3.0174 0.9537
7.7896 -8.4220 -3.0229 0.9537
9.7567 -6.0765 -3.0287 0.9536
10.6950 -4.2565 -3.0331 0.9535
11.4661 -1.2827 -3.0402 0.9534
11.5308 0.7719 -3.0452 0.9533
11.2295 2.8087 -3.0501 0.9532
10.1116 5.6887 -3.0571 0.9531
7.5209 8.8958 -3.0695 0.9530
6.6993 9.5299 -3.0695 0.9530
5.8245 10.0883 -3.0695 0.9530
2.9522 11.2687 -3.0695 0.9530
-1.1099 11.0322 -2.9217 0.9552
-3.9853 10.3476 -2.9218 0.9552
-4.8907 9.9523 -2.9219 0.9552
-6.5786 8.9285 -2.9223 0.9552
-9.7484 6.3771 -3.0695 0.9530
-10.2773 5.4842 -3.0695 0.9530
-11.0868 3.5751 -3.0695 0.9530
-11.6374 -0.5189 -3.0695 0.9530
-11.5450 -1.5526 -3.0695 0.9530
-11.3610 -2.5741 -3.0695 0.9530
-11.0868 -3.5750 -3.0695 0.9530
-10.7246 -4.5476 -3.0695 0.9530
-9.7484 -6.3771 -3.0695 0.9530
-9.1421 -7.2194 -3.0695 0.9530
-6.9100 -9.3782 -3.0695 0.9530
-4.8834 -9.9373 -2.9176 0.9552
-3.9809 -10.3361 -2.9186 0.9552
-2.0861 -10.8831 -2.9199 0.9552
-0.1234 -11.0782 -2.9193 0.9552
0.8625 -11.0386 -2.9175 0.9552
2.9360 -11.2068 -3.0527 0.9532
6.5921 -9.3775 -3.0204 0.9537
8.8508 -7.3154 -3.0257 0.9536
10.0212 -5.6379 -3.0298 0.9536
10.4909 -4.7269 -3.0320 0.9535
10.8781 -3.7773 -3.0343 0.9535
11.5166 -0.7709 -3.0414 0.9534
11.4897 1.2853 -3.0464 0.9533
10.7676 4.2854 -3.0537 0.9532
9.2728 6.9929 -3.0603 0.9531
8.6190 7.7955 -3.0622 0.9531
7.1171 9.2220 -3.0695 0.9530
4.4279 10.7746 -3.0695 0.9530
2.4473 11.3890 -3.0695 0.9530
1.3532 10.9876 -2.9171 0.9552
-2.5704 10.7858 -2.9216 0.9552
-3.5203 10.5146 -2.9217 0.9552
-4.4424 10.1600 -2.9219 0.9552
-5.3293 9.7248 -2.9220 0.9552
-6.9700 8.6269 -2.9224 0.9552
-7.7060 7.9680 -2.9208 0.9552
-8.3790 7.2456 -2.9189 0.9552
-8.9852 6.4672 -2.9171 0.9552
-10.5114 5.0209 -3.0695 0.9530
-10.9166 4.0654 -3.0695 0.9530
-11.2351 3.0776 -3.0695 0.9530
-11.4644 2.0654 -3.0695 0.9530
-11.6028 1.0368 -3.0695 0.9530
-10.9097 0.0000 -3.0695 0.9557
-10.8664 -0.9710 -3.0695 0.9557
-10.2238 -3.8073 -3.0695 0.9557
-8.8546 -6.3731 -3.0695 0.9557
-8.2522 -7.1360 -3.0695 0.9557
-7.5843 -7.8421 -3.0695 0.9557
-6.8562 -8.4860 -3.0695 0.9557
-6.0738 -9.0626 -3.0695 0.9557
-5.2402 -9.5621 -3.0679 0.9557
-4.2008 -9.6075 -2.9502 0.9574
-3.2918 -9.8319 -2.9172 0.9578
-2.4041 -10.0880 -2.9178 0.9578
-1.4969 -10.2634 -2.9182 0.9578
0.3464 -10.3622 -2.9171 0.9578
1.3336 -10.8279 -3.0695 0.9557
4.0832 -9.9358 -3.0224 0.9563
4.9475 -9.5257 -3.0200 0.9564
6.5635 -8.5046 -3.0225 0.9563
7.9757 -7.2136 -3.0257 0.9563
8.5913 -6.4790 -3.0275 0.9563
9.6165 -4.8594 -3.0315 0.9562
10.0177 -3.9870 -3.0336 0.9562
10.7391 -1.2013 -3.0404 0.9561
10.7986 0.7229 -3.0450 0.9560
10.6995 1.6824 -3.0474 0.9560
10.2470 3.5582 -3.0519 0.9559
9.4671 5.3261 -3.0562 0.9559
8.9614 6.1517 -3.0582 0.9558
7.7532 7.6674 -3.0680 0.9557
7.0436 8.3312 -3.0695 0.9557
6.2741 8.9251 -3.0695 0.9557
4.5922 9.8961 -3.0695 0.9557
3.6932 10.2655 -3.0695 0.9557
-0.1157 10.3863 -2.9224 0.9578
-1.0395 10.3330 -2.9219 0.9578
-1.9550 10.1992 -2.9219 0.9578
-2.8551 9.9850 -2.9219 0.9578
-9.6251 5.1361 -3.0695 0.9557
-10.0440 4.2590 -3.0695 0.9557
-10.8989 0.4860 -3.0695 0.9557
-10.8989 -0.4860 -3.0695 0.9557
-10.8123 -1.4541 -3.0695 0.9557
-8.5619 -6.7613 -3.0695 0.9557
-7.9262 -7.4965 -3.0695 0.9557
-7.2275 -8.1722 -3.0695 0.9557
-6.4715 -8.7830 -3.0695 0.9557
-5.6640 -9.3242 -3.0695 0.9557
-1.0382 -10.3200 -2.9183 0.9578
0.8236 -10.5401 -2.9746 0.9570
5.3679 -9.2975 -3.0206 0.9564
6.1767 -8.7865 -3.0219 0.9564
6.9375 -8.2057 -3.0233 0.9563
7.6443 -7.5596 -3.0249 0.9563
8.2916 -6.8532 -3.0266 0.9563
8.8742 -6.0918 -3.0285 0.9563
9.3873 -5.2812 -3.0305 0.9562
10.1890 -3.5381 -3.0347 0.9562
10.8159 0.2411 -3.0439 0.9560
10.7598 1.2037 -3.0462 0.9560
10.3916 3.0970 -3.0508 0.9559
10.0820 4.0126 -3.0530 0.9559
9.6917 4.8974 -3.0552 0.9559
9.2235 5.7445 -3.0573 0.9559
8.0688 7.2978 -3.0610 0.9558
5.8703 9.1957 -3.0695 0.9557
3.2323 10.4199 -3.0695 0.9557
1.2681 10.2961 -2.9188 0.9578
-0.5782 10.3695 -2.9221 0.9578
-1.4987 10.2762 -2.9219 0.9578
-3.2971 9.8480 -2.9220 0.9578
-5.7827 8.6283 -2.9224 0.9578
-6.5249 8.0760 -2.9212 0.9578
-7.2137 7.4589 -2.9195 0.9578
-7.8440 6.7829 -2.9177 0.9578
-9.3867 5.5598 -3.0695 0.9557
-10.2238 3.8074 -3.0695 0.9557
-10.5221 2.8823 -3.0695 0.9557
-10.2529 0.0000 -3.0695 0.9581
-10.0904 -1.8179 -3.0695 0.9581
-9.8886 -2.7088 -3.0695 0.9581
-9.6082 -3.5781 -3.0695 0.9581
-8.8216 -5.2250 -3.0695 0.9581
-8.3215 -5.9894 -3.0695 0.9581
-6.4435 -7.9752 -3.0695 0.9581
-5.7081 -8.5170 -3.0695 0.9581
-4.9273 -8.9913 -3.0695 0.9581
-4.1075 -9.3941 -3.0695 0.9581
-1.4118 -9.6800 -2.9287 0.9600
2.1540 -10.0240 -3.0695 0.9581
3.0365 -9.7887 -3.0683 0.9581
3.8467 -9.3605 -3.0298 0.9586
6.1709 -7.9958 -3.0238 0.9587
6.8612 -7.4183 -3.0252 0.9587
7.4981 -6.7817 -3.0267 0.9587
8.0765 -6.0907 -3.0284 0.9586
9.0395 -4.5678 -3.0321 0.9586
9.4164 -3.7476 -3.0341 0.9586
10.0931 -1.1291 -3.0405 0.9585
10.1481 0.6793 -3.0449 0.9584
10.0545 1.5810 -3.0471 0.9584
9.8809 2.4714 -3.0493 0.9584
9.6284 3.3434 -3.0514 0.9583
8.8949 5.0042 -3.0554 0.9583
7.8761 6.5098 -3.0591 0.9582
7.2901 7.2094 -3.0695 0.9581
6.6195 7.8296 -3.0695 0.9581
2.5984 9.9182 -3.0695 0.9581
1.6208 9.6091 -2.9174 0.9601
0.7597 9.7228 -2.9197 0.9601
-0.9770 9.7118 -2.9222 0.9601
-1.8375 9.5859 -2.9221 0.9601
-2.6834 9.3845 -2.9221 0.9601
-4.3051 8.7607 -2.9224 0.9601
-5.7868 7.8540 -2.9206 0.9601
-6.4596 7.3040 -2.9191 0.9601
-7.0800 6.6962 -2.9175 0.9601
-8.5801 5.6129 -3.0695 0.9581
-10.2427 0.4567 -3.0695 0.9581
-9.7581 -3.1466 -3.0695 0.9581
-9.4393 -4.0026 -3.0695 0.9581
-9.0456 -4.8269 -3.0695 0.9581
-8.0465 -6.3542 -3.0695 0.9581
-7.4490 -7.0452 -3.0695 0.9581
-6.7924 -7.6802 -3.0695 0.9581
-6.0818 -8.2543 -3.0695 0.9581
-5.3230 -8.7628 -3.0695 0.9581
-1.8520 -9.6616 -2.9451 0.9598
-0.9785 -9.7262 -2.9265 0.9600
0.7987 -10.2217 -3.0695 0.9581
2.5984 -9.9181 -3.0695 0.9581
4.2519 -9.1626 -3.0241 0.9587
5.8073 -8.2610 -3.0231 0.9587
7.1867 -7.1071 -3.0260 0.9587
8.8242 -4.9644 -3.0312 0.9586
9.2370 -4.1620 -3.0331 0.9586
9.5772 -3.3256 -3.0352 0.9586
9.8420 -2.4617 -3.0373 0.9585
10.0292 -1.5770 -3.0394 0.9585
10.1114 1.1311 -3.0460 0.9584
9.9777 2.0281 -3.0482 0.9584
9.7645 2.9101 -3.0504 0.9583
8.1559 6.1507 -3.0582 0.9582
6.9617 7.5270 -3.0695 0.9581
5.5169 8.6421 -3.0695 0.9581
4.7258 9.0988 -3.0695 0.9581
3.0377 9.7926 -3.0695 0.9581
1.1916 9.6756 -2.9186 0.9601
0.3260 9.7507 -2.9208 0.9601
-0.5435 9.7462 -2.9223 0.9601
-4.6912 8.5604 -2.9224 0.9601
-5.4325 8.1059 -2.9213 0.9601
-8.3215 5.9895 -3.0695 0.9581
-8.8216 5.2250 -3.0695 0.9581
-9.2516 4.4192 -3.0695 0.9581
-9.8886 2.7088 -3.0695 0.9581
-10.0904 1.8179 -3.0695 0.9581
-10.2122 0.9126 -3.0695 0.9581
-9.6652 0.0000 -3.0695 0.9602
-9.0575 -3.3730 -3.0695 0.9602
-8.7213 -4.1658 -3.0695 0.9602
-7.8445 -5.6461 -3.0695 0.9602
-7.3109 -6.3219 -3.0695 0.9602
-6.7192 -6.9475 -3.0695 0.9602
-6.0741 -7.5180 -3.0695 0.9602
-4.6449 -8.4759 -3.0695 0.9602
-3.8721 -8.8556 -3.0695 0.9602
-3.0685 -9.1651 -3.0695 0.9602
-2.2406 -9.4019 -3.0695 0.9602
-1.3949 -9.5640 -3.0695 0.9602
2.8635 -9.2312 -3.0695 0.9602
4.3917 -8.4555 -3.0259 0.9608
5.8193 -7.5402 -3.0249 0.9608
6.4701 -6.9954 -3.0262 0.9608
8.8781 -3.5334 -3.0347 0.9607
9.5785 -0.2134 -3.0428 0.9606
9.5660 0.6404 -3.0448 0.9606
9.4775 1.4903 -3.0469 0.9605
9.0751 3.1512 -3.0509 0.9605
7.9346 5.4468 -3.0565 0.9604
6.2401 7.3808 -3.0695 0.9602
5.5584 7.9069 -3.0695 0.9602
4.0684 8.7672 -3.0695 0.9602
0.7161 9.1638 -2.9192 0.9622
-0.1025 9.1971 -2.9210 0.9621
-0.9211 9.1558 -2.9224 0.9621
-1.7323 9.0371 -2.9223 0.9621
-2.5298 8.8471 -2.9223 0.9621
-5.4529 7.4008 -2.9194 0.9622
-8.0883 5.2911 -3.0695 0.9602
-8.5271 4.5502 -3.0695 0.9602
-8.8983 3.7732 -3.0695 0.9602
-9.1988 2.9662 -3.0695 0.9602
-9.6556 0.4306 -3.0695 0.9602
-9.6556 -0.4305 -3.0695 0.9602
-9.4263 -2.1357 -3.0695 0.9602
-9.1988 -2.9662 -3.0695 0.9602
-8.8983 -3.7732 -3.0695 0.9602
-8.5271 -4.5502 -3.0695 0.9602
-8.0883 -5.2911 -3.0695 0.9602
-7.0220 -6.6413 -3.0695 0.9602
-5.7332 -7.7811 -3.0695 0.9602
-5.0179 -8.2605 -3.0695 0.9602
-4.2627 -8.6744 -3.0695 0.9602
-3.4737 -9.0193 -3.0695 0.9602
-2.6572 -9.2927 -3.0695 0.9602
-1.8196 -9.4923 -3.0695 0.9602
-0.1077 -9.6646 -3.0695 0.9602
1.6076 -9.5305 -3.0695 0.9602
4.0174 -8.6573 -3.0311 0.9607
4.7596 -8.2439 -3.0232 0.9608
8.7092 -3.9242 -3.0337 0.9607
9.2789 -2.3208 -3.0376 0.9607
9.5313 1.0662 -3.0459 0.9605
8.5822 4.3368 -3.0538 0.9604
7.1682 6.4833 -3.0695 0.9602
6.5627 7.0955 -3.0695 0.9602
5.9051 7.6515 -3.0695 0.9602
4.4549 8.5773 -3.0695 0.9602
2.8635 9.2312 -3.0695 0.9602
0.3072 9.1897 -2.9201 0.9621
-0.5122 9.1859 -2.9218 0.9621
-1.3280 9.1054 -2.9223 0.9621
-2.9214 8.7258 -2.9224 0.9621
-4.4206 8.0666 -2.9213 0.9621
-5.1190 7.6380 -2.9201 0.9621
-9.3218 2.5535 -3.0695 0.9602
-9.6268 0.8603 -3.0695 0.9602
-9.1359 0.0000 -3.0695 0.9622
-9.0997 -0.8131 -3.0695 0.9622
-8.5615 -3.1883 -3.0695 0.9622
-8.2438 -3.9377 -3.0695 0.9622
-7.8606 -4.6558 -3.0695 0.9622
-7.4150 -5.3370 -3.0695 0.9622
-6.9105 -5.9757 -3.0695 0.9622
-6.3512 -6.5671 -3.0695 0.9622
-5.7415 -7.1063 -3.0695 0.9622
-5.0862 -7.5892 -3.0695 0.9622
-4.3906 -8.0117 -3.0695 0.9622
-2.9005 -8.6633 -3.0695 0.9622
0.3053 -9.1308 -3.0695 0.9622
1.9194 -8.9320 -3.0695 0.9622
2.7067 -8.7257 -3.0695 0.9622
4.1601 -8.0097 -3.0325 0.9626
4.8442 -7.5883 -3.0248 0.9627
5.5024 -7.1297 -3.0259 0.9627
6.1177 -6.6144 -3.0271 0.9627
7.2004 -5.4301 -3.0300 0.9627
7.6592 -4.7702 -3.0316 0.9626
8.6626 -2.5817 -3.0370 0.9626
8.8635 -1.8016 -3.0389 0.9626
8.9944 -1.0062 -3.0408 0.9625
8.9579 1.4086 -3.0467 0.9625
8.2829 3.7321 -3.0523 0.9624
7.4983 5.1474 -3.0558 0.9623
6.4959 6.4240 -3.0695 0.9622
5.2540 7.4740 -3.0695 0.9622
3.8456 8.2871 -3.0695 0.9622
1.4472 8.5797 -2.9233 0.9640
-0.0968 8.6908 -2.9201 0.9640
-1.6374 8.5421 -2.9223 0.9640
-5.7518 6.5038 -2.9171 0.9640
-8.0602 4.3010 -3.0695 0.9622
-8.6950 2.8038 -3.0695 0.9622
-8.9101 2.0188 -3.0695 0.9622
-9.1269 0.4070 -3.0695 0.9622
-9.1269 -0.4070 -3.0695 0.9622
-8.4110 -3.5666 -3.0695 0.9622
-6.6375 -6.2777 -3.0695 0.9622
-5.4192 -7.3550 -3.0695 0.9622
-3.2835 -8.5255 -3.0695 0.9622
-2.5117 -8.7839 -3.0695 0.9622
-1.7199 -8.9725 -3.0695 0.9622
0.7117 -9.1081 -3.0695 0.9622
1.5196 -9.0087 -3.0695 0.9622
3.0928 -8.5965 -3.0695 0.9622
3.8150 -8.2212 -3.0451 0.9625
4.5061 -7.8048 -3.0279 0.9627
5.1784 -7.3663 -3.0253 0.9627
5.8157 -6.8789 -3.0265 0.9627
8.5363 -2.9641 -3.0360 0.9626
8.9378 -1.4054 -3.0398 0.9625
9.0332 -0.6047 -3.0418 0.9625
9.0089 1.0078 -3.0457 0.9625
8.6985 2.5925 -3.0496 0.9624
8.1108 4.0986 -3.0532 0.9624
7.7181 4.8069 -3.0550 0.9624
7.2726 5.4843 -3.0604 0.9623
6.2033 6.7070 -3.0695 0.9622
5.5817 7.2325 -3.0695 0.9622
4.2110 8.1076 -3.0695 0.9622
3.4726 8.4502 -3.0695 0.9622
1.9194 8.9320 -3.0695 0.9622
1.0615 8.6187 -2.9176 0.9640
0.2903 8.6842 -2.9193 0.9640
-0.4840 8.6799 -2.9208 0.9640
-1.2551 8.6057 -2.9219 0.9640
-2.0164 8.4610 -2.9223 0.9640
-2.7610 8.2466 -2.9219 0.9640
-4.8368 7.2171 -2.9190 0.9640
-5.4576 6.7550 -2.9177 0.9640
-6.9105 5.9758 -3.0695 0.9622
-7.8606 4.6558 -3.0695 0.9622
-8.2438 3.9377 -3.0695 0.9622
-8.5615 3.1884 -3.0695 0.9622
-8.9912 1.6199 -3.0695 0.9622
-9.0997 0.8132 -3.0695 0.9622
-8.6566 0.0000 -3.0695 0.9639
-8.6223 -0.7705 -3.0695 0.9639
-8.3490 -2.2870 -3.0695 0.9639
-5.4403 -6.7335 -3.0695 0.9639
-3.4680 -7.9315 -3.0695 0.9639
-1.2493 -8.5660 -3.0695 0.9639
0.2893 -8.6517 -3.0695 0.9639
1.0582 -8.5917 -3.0695 0.9639
1.8187 -8.4634 -3.0695 0.9639
2.5647 -8.2679 -3.0695 0.9639
3.9598 -7.6239 -3.0462 0.9642
5.2153 -6.7576 -3.0268 0.9644
6.8242 -5.1464 -3.0307 0.9644
7.6364 -3.8589 -3.0339 0.9643
7.9540 -3.1656 -3.0356 0.9643
8.3991 -1.7072 -3.0391 0.9643
8.5791 -0.1912 -3.0428 0.9642
8.4874 1.3346 -3.0465 0.9642
8.1260 2.8217 -3.0501 0.9642
7.8470 3.5357 -3.0519 0.9641
7.1148 4.8842 -3.0600 0.9640
5.5889 6.6106 -3.0695 0.9639
4.9784 7.0819 -3.0695 0.9639
3.6438 7.8523 -3.0695 0.9639
2.1939 8.3740 -3.0695 0.9639
0.6410 8.2037 -2.9178 0.9657
-0.0917 8.2323 -2.9192 0.9657
-0.8244 8.1947 -2.9204 0.9656
-2.9601 7.6857 -2.9204 0.9657
-4.2732 7.0347 -2.9185 0.9657
-4.8805 6.6238 -2.9174 0.9657
-5.6129 6.3467 -3.0043 0.9647
-6.7937 5.3649 -3.0695 0.9639
-7.2442 4.7390 -3.0695 0.9639
-7.6373 4.0754 -3.0695 0.9639
-8.4426 1.9129 -3.0695 0.9639
-8.5794 -1.1538 -3.0695 0.9639
-8.4426 -1.9128 -3.0695 0.9639
-8.2389 -2.6567 -3.0695 0.9639
-7.9697 -3.3794 -3.0695 0.9639
-6.7937 -5.3649 -3.0695 0.9639
-6.2892 -5.9483 -3.0695 0.9639
-5.7348 -6.4845 -3.0695 0.9639
-4.4943 -7.3985 -3.0695 0.9639
-2.3799 -8.3230 -3.0695 0.9639
1.4398 -8.5360 -3.0695 0.9639
2.1939 -8.3740 -3.0695 0.9639
5.5122 -6.5198 -3.0274 0.9644
7.4550 -4.1941 -3.0330 0.9643
7.8029 -3.5158 -3.0347 0.9643
8.0895 -2.8090 -3.0364 0.9643
8.3122 -2.0790 -3.0382 0.9643
8.4693 -1.3317 -3.0400 0.9643
8.5595 -0.5730 -3.0419 0.9642
8.5817 0.1913 -3.0437 0.9642
8.5359 0.9549 -3.0456 0.9642
7.9945 3.1818 -3.0510 0.9641
7.6839 3.8828 -3.0527 0.9641
5.2889 6.8530 -3.0695 0.9639
4.6579 7.2966 -3.0695 0.9639
3.2904 8.0069 -3.0695 0.9639
2.5647 8.2679 -3.0695 0.9639
1.8187 8.4634 -3.0695 0.9639
0.2750 8.2262 -2.9185 0.9657
-0.4585 8.2218 -2.9199 0.9657
-1.1888 8.1510 -2.9208 0.9656
-2.6151 7.8108 -2.9207 0.9656
-3.2991 7.5451 -2.9200 0.9657
-4.5815 6.8360 -2.9180 0.9657
-6.5480 5.6623 -3.0695 0.9639
-7.0259 5.0570 -3.0695 0.9639
-7.8112 3.7311 -3.0695 0.9639
-8.5195 1.5349 -3.0695 0.9639
-8.1876 -0.7316 -3.0695 0.9655
-7.7034 -2.8687 -3.0695 0.9655
-7.0727 -4.1891 -3.0695 0.9655
-6.2179 -5.3768 -3.0695 0.9655
-5.7146 -5.9089 -3.0695 0.9655
-5.1660 -6.3940 -3.0695 0.9655
-3.2932 -7.5317 -3.0695 0.9655
-1.9056 -7.9962 -3.0695 0.9655
0.2747 -8.2156 -3.0695 0.9655
2.4354 -7.8511 -3.0695 0.9655
3.1246 -7.6032 -3.0695 0.9655
3.7839 -7.2853 -3.0655 0.9656
4.3742 -6.8521 -3.0355 0.9659
4.9541 -6.4192 -3.0278 0.9660
5.5074 -5.9546 -3.0287 0.9660
6.0180 -5.4430 -3.0300 0.9659
6.4815 -4.8879 -3.0313 0.9659
7.2526 -3.6649 -3.0343 0.9659
8.1352 0.5446 -3.0446 0.9658
8.0591 1.2673 -3.0463 0.9658
7.9188 1.9806 -3.0481 0.9657
6.7771 4.6522 -3.0695 0.9655
6.3361 5.2369 -3.0695 0.9655
5.8448 5.7801 -3.0695 0.9655
5.3072 6.2774 -3.0695 0.9655
2.0833 7.9518 -3.0695 0.9655
1.3672 8.1057 -3.0695 0.9655
0.6094 7.7985 -2.9209 0.9672
-0.0871 7.8150 -2.9184 0.9672
-0.7826 7.7790 -2.9194 0.9672
-2.1498 7.5182 -2.9199 0.9672
-2.8099 7.2956 -2.9193 0.9672
-3.4471 7.0147 -2.9185 0.9672
-4.6694 6.3373 -2.9394 0.9669
-6.4512 5.0945 -3.0695 0.9655
-6.8790 4.5001 -3.0695 0.9655
-7.2523 3.8699 -3.0695 0.9655
-7.5679 3.2091 -3.0695 0.9655
-8.0170 1.8164 -3.0695 0.9655
-8.2120 0.3662 -3.0695 0.9655
-8.2120 -0.3662 -3.0695 0.9655
-8.1469 -1.0956 -3.0695 0.9655
-8.0170 -1.8164 -3.0695 0.9655
-7.8235 -2.5227 -3.0695 0.9655
-7.2523 -3.8699 -3.0695 0.9655
-6.8790 -4.5000 -3.0695 0.9655
-6.4512 -5.0944 -3.0695 0.9655
-5.9722 -5.6484 -3.0695 0.9655
-5.4457 -6.1576 -3.0695 0.9655
-4.8761 -6.6178 -3.0695 0.9655
-3.6254 -7.3775 -3.0695 0.9655
-2.9544 -7.6709 -3.0695 0.9655
-2.2599 -7.9034 -3.0695 0.9655
0.6404 -8.1952 -3.0695 0.9655
2.0833 -7.9518 -3.0695 0.9655
4.0817 -7.0698 -3.0483 0.9657
5.7684 -5.7045 -3.0294 0.9660
6.2559 -5.1706 -3.0307 0.9659
6.6944 -4.5954 -3.0321 0.9659
7.4106 -3.3390 -3.0351 0.9659
7.6825 -2.6677 -3.0368 0.9659
7.8938 -1.9744 -3.0385 0.9659
8.0428 -1.2647 -3.0402 0.9658
8.1052 0.9067 -3.0455 0.9658
7.9970 1.6254 -3.0472 0.9658
7.5905 3.0209 -3.0506 0.9657
6.0965 5.5140 -3.0695 0.9655
5.0223 6.5076 -3.0695 0.9655
3.7889 7.2949 -3.0695 0.9655
3.1246 7.6032 -3.0695 0.9655
-1.1285 7.7373 -2.9197 0.9672
-1.8128 7.6068 -2.9200 0.9672
-2.4824 7.4144 -2.9197 0.9672
-3.7556 6.8531 -2.9181 0.9672
-4.3548 6.4962 -2.9201 0.9672
-5.7146 5.9089 -3.0695 0.9655
-7.0727 4.1892 -3.0695 0.9655
-8.0900 1.4575 -3.0695 0.9655
-8.1876 0.7317 -3.0695 0.9655
-7.8210 0.0000 -3.0695 0.9670
-7.7899 -0.6961 -3.0695 0.9670
-7.6971 -1.3867 -3.0695 0.9670
-7.3293 -2.7294 -3.0695 0.9670
-6.7292 -3.9857 -3.0695 0.9670
-4.9151 -6.0835 -3.0695 0.9670
-4.3542 -6.4968 -3.0695 0.9670
-3.1333 -7.1659 -3.0695 0.9670
-0.4354 -7.8088 -3.0695 0.9670
0.2613 -7.8166 -3.0695 0.9670
3.6049 -6.9406 -3.0695 0.9670
5.2412 -5.6667 -3.0294 0.9674
6.1679 -4.6514 -3.0319 0.9673
6.9013 -3.4874 -3.0348 0.9673
7.4179 -2.2108 -3.0379 0.9673
7.5893 -1.5426 -3.0395 0.9673
7.7007 -0.8614 -3.0412 0.9673
7.7511 -0.1727 -3.0428 0.9672
7.5337 1.8843 -3.0478 0.9672
6.4479 4.4263 -3.0695 0.9670
5.5610 5.4994 -3.0695 0.9670
5.0494 5.9725 -3.0695 0.9670
3.9105 6.7732 -3.0695 0.9670
2.6476 7.3592 -3.0695 0.9670
1.9821 7.5657 -3.0695 0.9670
1.3008 7.7121 -3.0695 0.9670
0.5892 7.5408 -2.9686 0.9680
-1.4001 7.3044 -2.9189 0.9685
-2.0447 7.1507 -2.9189 0.9685
-3.8586 6.3525 -2.9171 0.9686
-6.1379 4.8471 -3.0695 0.9670
-6.5450 4.2815 -3.0695 0.9670
-7.2004 3.0533 -3.0695 0.9670
-7.4435 2.4003 -3.0695 0.9670
-7.6277 1.7282 -3.0695 0.9670
-7.7512 1.0424 -3.0695 0.9670
-7.8132 0.3484 -3.0695 0.9670
-7.6277 -1.7282 -3.0695 0.9670
-7.4436 -2.4002 -3.0695 0.9670
-6.9001 -3.6820 -3.0695 0.9670
-6.5450 -4.2815 -3.0695 0.9670
-2.8109 -7.2984 -3.0695 0.9670
-2.1502 -7.5196 -3.0695 0.9670
-1.4724 -7.6811 -3.0695 0.9670
-0.7829 -7.7817 -3.0695 0.9670
0.6093 -7.7972 -3.0695 0.9670
1.3008 -7.7120 -3.0695 0.9670
2.6476 -7.3592 -3.0695 0.9670
3.2921 -7.0943 -3.0695 0.9670
4.9859 -5.8974 -3.0309 0.9674
5.4894 -5.4286 -3.0300 0.9674
5.9533 -4.9205 -3.0313 0.9674
7.3102 -2.5384 -3.0371 0.9673
7.5110 -1.8786 -3.0387 0.9673
7.6526 -1.2033 -3.0403 0.9673
7.7336 -0.5177 -3.0420 0.9672
7.6081 1.5464 -3.0470 0.9672
7.4442 2.2186 -3.0487 0.9672
7.2210 2.8739 -3.0502 0.9672
6.6387 4.1347 -3.0695 0.9670
5.3105 5.7417 -3.0695 0.9670
4.7784 6.1915 -3.0695 0.9670
2.9728 7.2340 -3.0695 0.9670
2.3171 7.4699 -3.0695 0.9670
0.2483 7.4286 -2.9171 0.9686
-1.7242 7.2348 -2.9190 0.9685
-2.9786 6.8123 -2.9180 0.9686
-4.2349 6.3190 -2.9855 0.9678
-7.0572 3.3710 -3.0695 0.9670
-7.3293 2.7295 -3.0695 0.9670
-7.5431 2.0663 -3.0695 0.9670
-7.7899 0.6961 -3.0695 0.9670
-7.4246 -0.6634 -3.0695 0.9683
-7.3361 -1.3217 -3.0695 0.9683
-6.7263 -3.2129 -3.0695 0.9683
-6.4136 -3.7988 -3.0695 0.9683
-6.0501 -4.3546 -3.0695 0.9683
-4.1500 -6.1922 -3.0695 0.9683
-2.3666 -7.0686 -3.0695 0.9683
-1.0758 -7.3762 -3.0695 0.9683
4.0081 -6.2787 -3.0673 0.9683
5.0026 -5.4087 -3.0338 0.9686
5.4595 -4.9378 -3.0312 0.9687
5.8797 -4.4341 -3.0324 0.9686
6.2537 -3.8948 -3.0338 0.9686
7.3398 -0.8211 -3.0413 0.9686
7.3876 -0.1646 -3.0429 0.9685
7.3075 1.1491 -3.0460 0.9685
6.7620 3.0468 -3.0541 0.9684
6.4966 3.6550 -3.0695 0.9683
3.1377 6.7617 -3.0695 0.9683
2.5234 7.0141 -3.0695 0.9683
1.2398 7.3504 -3.0695 0.9683
0.5807 7.4316 -3.0695 0.9683
-0.0789 7.0837 -2.9171 0.9698
-1.3341 6.9596 -2.9180 0.9698
-2.5465 6.6117 -2.9175 0.9698
-3.1244 6.3579 -2.9171 0.9698
-3.8272 6.3004 -3.0356 0.9686
-4.4217 6.0012 -3.0695 0.9683
-5.4157 5.1221 -3.0695 0.9683
-5.8501 4.6198 -3.0695 0.9683
-7.3877 0.9936 -3.0695 0.9683
-7.4468 0.3321 -3.0695 0.9683
-7.3877 -0.9935 -3.0695 0.9683
-7.2700 -1.6471 -3.0695 0.9683
-7.0945 -2.2877 -3.0695 0.9683
-6.8628 -2.9100 -3.0695 0.9683
-6.5765 -3.5093 -3.0695 0.9683
-5.8501 -4.6197 -3.0695 0.9683
-4.9383 -5.5838 -3.0695 0.9683
-4.4217 -6.0012 -3.0695 0.9683
-3.8700 -6.3709 -3.0695 0.9683
-2.0493 -7.1670 -3.0695 0.9683
-0.7461 -7.4168 -3.0695 0.9683
-0.0831 -7.4537 -3.0695 0.9683
0.5807 -7.4316 -3.0695 0.9683
1.8892 -7.2108 -3.0695 0.9683
4.2668 -6.0697 -3.0551 0.9684
5.2331 -5.1751 -3.0306 0.9687
5.6751 -4.6906 -3.0318 0.9687
6.0726 -4.1686 -3.0331 0.9686
6.7217 -3.0287 -3.0359 0.9686
7.3710 -0.4934 -3.0421 0.9685
7.3896 0.1647 -3.0437 0.9685
7.3495 0.8222 -3.0453 0.9685
7.2509 1.4738 -3.0468 0.9685
6.8816 2.7388 -3.0499 0.9685
6.6438 3.3573 -3.0653 0.9683
5.5284 5.0002 -3.0695 0.9683
5.0615 5.4724 -3.0695 0.9683
4.5543 5.9012 -3.0695 0.9683
2.8334 6.8947 -3.0695 0.9683
-1.0226 7.0117 -2.9179 0.9698
-2.2496 6.7192 -2.9178 0.9698
-3.4557 6.3059 -2.9610 0.9694
-4.1500 6.1922 -3.0695 0.9683
-4.6846 5.7983 -3.0695 0.9683
-5.1821 5.3583 -3.0695 0.9683
-6.0501 4.3546 -3.0695 0.9683
-6.4136 3.7988 -3.0695 0.9683
-6.7263 3.2129 -3.0695 0.9683
-7.3361 1.3217 -3.0695 0.9683
-7.4246 0.6635 -3.0695 0.9683
-7.1159 0.0000 -3.0695 0.9695
-7.0877 -0.6333 -3.0695 0.9695
-6.6685 -2.4834 -3.0695 0.9695
-5.7755 -4.1569 -3.0695 0.9695
-5.3826 -4.6545 -3.0695 0.9695
-4.9469 -5.1151 -3.0695 0.9695
-4.4720 -5.5351 -3.0695 0.9695
-2.8508 -6.5199 -3.0695 0.9695
-2.2592 -6.7478 -3.0695 0.9695
-1.0270 -7.0414 -3.0695 0.9695
0.2378 -7.1119 -3.0695 0.9695
1.4950 -6.9571 -3.0695 0.9695
2.7048 -6.5818 -3.0695 0.9695
3.2799 -6.3149 -3.0695 0.9695
3.8289 -5.9979 -3.0695 0.9695
4.3337 -5.6154 -3.0597 0.9696
6.5413 -2.6034 -3.0369 0.9698
6.7503 -2.0118 -3.0384 0.9698
7.0069 -0.7838 -3.0413 0.9698
7.0419 0.4714 -3.0444 0.9697
6.2018 3.4891 -3.0695 0.9695
4.5942 5.4341 -3.0695 0.9695
3.5579 6.1626 -3.0695 0.9695
2.4089 6.6958 -3.0695 0.9695
1.8034 6.8836 -3.0695 0.9695
1.1836 7.0168 -3.0695 0.9695
0.5543 7.0943 -3.0695 0.9695
-1.2731 6.6418 -2.9171 0.9710
-1.8592 6.5021 -2.9171 0.9710
-2.4305 6.3108 -2.9171 0.9710
-3.0892 6.2864 -3.0214 0.9699
-3.6944 6.0818 -3.0695 0.9695
-4.2210 5.7288 -3.0695 0.9695
-4.7142 5.3304 -3.0695 0.9695
-6.5513 2.7780 -3.0695 0.9695
-6.7725 2.1839 -3.0695 0.9695
-7.0524 0.9485 -3.0695 0.9695
-6.7725 -2.1838 -3.0695 0.9695
-6.5513 -2.7780 -3.0695 0.9695
-3.6944 -6.0818 -3.0695 0.9695
-2.5575 -6.6404 -3.0695 0.9695
-1.3396 -6.9887 -3.0695 0.9695
-0.7123 -7.0802 -3.0695 0.9695
0.5543 -7.0943 -3.0695 0.9695
1.1836 -7.0168 -3.0695 0.9695
1.8034 -6.8836 -3.0695 0.9695
2.9953 -6.4548 -3.0695 0.9695
3.5579 -6.1625 -3.0695 0.9695
4.0916 -5.8203 -3.0689 0.9695
4.5584 -5.3917 -3.0456 0.9697
5.0052 -4.9498 -3.0365 0.9698
5.4185 -4.4785 -3.0323 0.9698
6.4174 -2.8915 -3.0362 0.9698
6.8348 -1.7095 -3.0391 0.9698
6.9633 -1.0949 -3.0406 0.9698
7.0366 -0.4710 -3.0421 0.9697
7.0542 0.1572 -3.0436 0.9697
6.5808 2.6191 -3.0553 0.9696
6.0402 3.7619 -3.0695 0.9695
2.7048 6.5818 -3.0695 0.9695
0.2378 7.1120 -3.0695 0.9695
-2.1470 6.4128 -2.9171 0.9710
-3.9617 5.9112 -3.0695 0.9695
-5.3826 4.6545 -3.0695 0.9695
-5.7755 4.1569 -3.0695 0.9695
-6.4210 3.0671 -3.0695 0.9695
-6.6686 2.4834 -3.0695 0.9695
-6.8631 1.8800 -3.0695 0.9695
-7.0032 1.2617 -3.0695 0.9695
-7.0877 0.6334 -3.0695 0.9695
-6.7757 -0.6055 -3.0695 0.9706
-5.5213 -3.9740 -3.0695 0.9706
-5.1457 -4.4496 -3.0695 0.9706
-4.2752 -5.2914 -3.0695 0.9706
-3.7873 -5.6510 -3.0695 0.9706
-0.9818 -6.7315 -3.0695 0.9706
0.2273 -6.7989 -3.0695 0.9706
0.8315 -6.7517 -3.0695 0.9706
1.4292 -6.6509 -3.0695 0.9706
2.0155 -6.4973 -3.0695 0.9706
3.6604 -5.7339 -3.0695 0.9706
4.1562 -5.3854 -3.0695 0.9706
4.5931 -4.9660 -3.0522 0.9708
4.9952 -4.5179 -3.0391 0.9709
5.3710 -4.0505 -3.0354 0.9709
5.7087 -3.5554 -3.0346 0.9709
6.6023 -1.3420 -3.0400 0.9709
6.6987 -0.7494 -3.0414 0.9709
6.5559 1.6398 -3.0493 0.9708
6.4063 2.2245 -3.0599 0.9707
5.9288 3.3355 -3.0695 0.9706
5.6084 3.8500 -3.0695 0.9706
4.8370 4.7834 -3.0695 0.9706
4.3920 5.1949 -3.0695 0.9706
3.9122 5.5652 -3.0695 0.9706
2.8635 6.1707 -3.0695 0.9706
1.1315 6.7080 -3.0695 0.9706
0.5300 6.7821 -3.0695 0.9706
-0.6700 6.6600 -3.0203 0.9711
-1.2378 6.4572 -2.9666 0.9716
-2.4157 6.2723 -3.0328 0.9709
-3.5318 5.8141 -3.0695 0.9706
-4.0352 5.4767 -3.0695 0.9706
-4.5067 5.0958 -3.0695 0.9706
-4.9424 4.6744 -3.0695 0.9706
-5.6929 3.7241 -3.0695 0.9706
-6.0017 3.2026 -3.0695 0.9706
-6.2629 2.6557 -3.0695 0.9706
-6.4745 2.0878 -3.0695 0.9706
-6.7420 0.9067 -3.0695 0.9706
-6.7960 0.3031 -3.0695 0.9706
-6.7960 -0.3030 -3.0695 0.9706
-6.7420 -0.9067 -3.0695 0.9706
-6.4745 -2.0877 -3.0695 0.9706
-6.2629 -2.6557 -3.0695 0.9706
-5.6929 -3.7241 -3.0695 0.9706
-4.5067 -5.0958 -3.0695 0.9706
-3.5318 -5.8141 -3.0695 0.9706
-2.4450 -6.3482 -3.0695 0.9706
-1.8703 -6.5406 -3.0695 0.9706
-1.2807 -6.6811 -3.0695 0.9706
-0.0758 -6.8023 -3.0695 0.9706
2.3029 -6.4011 -3.0695 0.9706
3.4014 -5.8913 -3.0695 0.9706
3.9122 -5.5652 -3.0695 0.9706
4.3843 -5.1858 -3.0641 0.9706
5.8626 -3.2982 -3.0352 0.9709
6.1355 -2.7645 -3.0365 0.9709
6.5344 -1.6344 -3.0393 0.9709
6.7067 0.7503 -3.0451 0.9708
6.6165 1.3449 -3.0465 0.9708
6.3205 2.5155 -3.0695 0.9706
6.0716 3.0681 -3.0695 0.9706
5.7744 3.5963 -3.0695 0.9706
4.6191 4.9941 -3.0695 0.9706
3.6604 5.7340 -3.0695 0.9706
1.4292 6.6509 -3.0695 0.9706
0.8315 6.7517 -3.0695 0.9706
-0.9550 6.5480 -2.9858 0.9714
-2.7253 6.2330 -3.0695 0.9706
-3.2693 5.9657 -3.0695 0.9706
-3.7873 5.6510 -3.0695 0.9706
-4.2752 5.2915 -3.0695 0.9706
-5.1457 4.4496 -3.0695 0.9706
-5.5213 3.9740 -3.0695 0.9706
-5.8531 3.4668 -3.0695 0.9706
-6.3750 2.3741 -3.0695 0.9706
-6.5610 1.7973 -3.0695 0.9706
-6.6950 1.2062 -3.0695 0.9706
-6.7757 0.6055 -3.0695 0.9706
-6.5118 0.0000 -3.0695 0.9716
-6.4860 -0.5796 -3.0695 0.9716
-5.8759 -2.8067 -3.0695 0.9716
-5.6028 -3.3185 -3.0695 0.9716
-4.0924 -5.0652 -3.0695 0.9716
-3.1295 -5.7105 -3.0695 0.9716
-2.6088 -5.9664 -3.0695 0.9716
0.2176 -6.5081 -3.0695 0.9716
2.4752 -6.0230 -3.0695 0.9716
3.0014 -5.7788 -3.0695 0.9716
3.9785 -5.1551 -3.0695 0.9716
5.1495 -3.8834 -3.0402 0.9719
5.7487 -2.9050 -3.0362 0.9719
6.1780 -1.8412 -3.0388 0.9719
6.3202 -1.2846 -3.0401 0.9719
6.4124 -0.7173 -3.0415 0.9719
6.3884 1.0046 -3.0484 0.9718
6.1515 2.1361 -3.0695 0.9716
5.9369 2.6751 -3.0695 0.9716
4.6301 4.5788 -3.0695 0.9716
3.2559 5.6394 -3.0695 0.9716
2.7410 5.9068 -3.0695 0.9716
2.2044 6.1273 -3.0695 0.9716
1.6503 6.2992 -3.0695 0.9716
1.0831 6.4211 -3.0695 0.9716
-0.6518 6.4791 -3.0695 0.9716
-1.2259 6.3954 -3.0695 0.9716
-2.3404 6.0767 -3.0695 0.9716
-2.8720 5.8443 -3.0695 0.9716
-3.8627 5.2425 -3.0695 0.9716
-4.7310 4.4745 -3.0695 0.9716
-6.5053 0.2901 -3.0695 0.9716
-6.5053 -0.2901 -3.0695 0.9716
-6.1976 -1.9984 -3.0695 0.9716
-5.4494 -3.5648 -3.0695 0.9716
-5.1105 -4.0357 -3.0695 0.9716
-4.7310 -4.4745 -3.0695 0.9716
-4.3140 -4.8778 -3.0695 0.9716
-3.3807 -5.5654 -3.0695 0.9716
-2.8720 -5.8442 -3.0695 0.9716
-2.3404 -6.0767 -3.0695 0.9716
-1.7903 -6.2608 -3.0695 0.9716
-1.2259 -6.3954 -3.0695 0.9716
-0.6518 -6.4791 -3.0695 0.9716
-0.0725 -6.5114 -3.0695 0.9716
2.7410 -5.9068 -3.0695 0.9716
3.7449 -5.3272 -3.0695 0.9716
4.2042 -4.9727 -3.0695 0.9716
4.9746 -4.1116 -3.0422 0.9719
5.3152 -3.6486 -3.0390 0.9719
6.0885 -2.1142 -3.0381 0.9719
6.2553 -1.5645 -3.0394 0.9719
6.4394 -0.4311 -3.0422 0.9719
6.3422 1.2891 -3.0507 0.9718
6.2338 1.8579 -3.0662 0.9716
5.5274 3.4425 -3.0695 0.9716
5.1991 3.9208 -3.0695 0.9716
4.4215 4.7805 -3.0695 0.9716
3.5039 5.4887 -3.0695 0.9716
2.4752 6.0230 -3.0695 0.9716
1.9293 6.2194 -3.0695 0.9716
1.3681 6.3665 -3.0695 0.9716
0.7960 6.4630 -3.0695 0.9716
0.2176 6.5082 -3.0695 0.9716
-0.3625 6.5017 -3.0695 0.9716
-0.9398 6.4436 -3.0695 0.9716
-2.0674 6.1749 -3.0695 0.9716
-2.6088 5.9664 -3.0695 0.9716
-3.1295 5.7105 -3.0695 0.9716
-4.5270 4.6809 -3.0695 0.9716
-5.8759 2.8067 -3.0695 0.9716
-6.2804 1.7204 -3.0695 0.9716
-6.4860 0.5796 -3.0695 0.9716
-6.2407 0.0000 -3.0695 0.9726
-6.2159 -0.5554 -3.0695 0.9726
-6.1418 -1.1065 -3.0695 0.9726
-5.8483 -2.1779 -3.0695 0.9726
-5.6313 -2.6898 -3.0695 0.9726
-5.0651 -3.6456 -3.0695 0.9726
-4.3385 -4.4859 -3.0695 0.9726
-2.9992 -5.4728 -3.0695 0.9726
-2.5002 -5.7180 -3.0695 0.9726
-1.9813 -5.9178 -3.0695 0.9726
-1.4467 -6.0707 -3.0695 0.9726
0.7628 -6.1939 -3.0695 0.9726
2.3721 -5.7723 -3.0695 0.9726
3.8129 -4.9404 -3.0695 0.9726
4.2374 -4.5815 -3.0695 0.9726
4.9503 -3.7332 -3.0496 0.9727
6.0573 -1.2312 -3.0402 0.9728
6.1463 -0.6876 -3.0420 0.9728
6.0542 1.5143 -3.0695 0.9726
5.6898 2.5637 -3.0695 0.9726
5.1451 3.5319 -3.0695 0.9726
4.8103 3.9758 -3.0695 0.9726
4.4373 4.3882 -3.0695 0.9726
3.1203 5.4046 -3.0695 0.9726
2.6269 5.6609 -3.0695 0.9726
1.0380 6.1538 -3.0695 0.9726
0.4862 6.2217 -3.0695 0.9726
-1.7157 6.0002 -3.0695 0.9726
-3.2400 5.3337 -3.0695 0.9726
-3.7019 5.0242 -3.0695 0.9726
-4.1344 4.6748 -3.0695 0.9726
-4.5340 4.2882 -3.0695 0.9726
-4.8977 3.8677 -3.0695 0.9726
-5.7455 2.4363 -3.0695 0.9726
-5.9395 1.9153 -3.0695 0.9726
-6.1850 0.8318 -3.0695 0.9726
-6.1850 -0.8318 -3.0695 0.9726
-5.9395 -1.9152 -3.0695 0.9726
-5.5059 -2.9380 -3.0695 0.9726
-4.8977 -3.8676 -3.0695 0.9726
-4.5340 -4.2882 -3.0695 0.9726
-3.2400 -5.3337 -3.0695 0.9726
-1.7157 -6.0002 -3.0695 0.9726
0.4862 -6.2217 -3.0695 0.9726
1.5816 -6.0369 -3.0695 0.9726
3.1203 -5.4046 -3.0695 0.9726
4.0292 -4.7657 -3.0695 0.9726
4.7922 -3.9608 -3.0580 0.9727
5.1028 -3.5029 -3.0443 0.9728
5.3891 -3.0318 -3.0413 0.9728
5.9952 -1.4995 -3.0396 0.9728
6.1924 0.1380 -3.0465 0.9728
6.1628 0.6894 -3.0501 0.9727
6.1037 1.2407 -3.0635 0.9726
5.7983 2.3077 -3.0695 0.9726
5.5699 2.8146 -3.0695 0.9726
4.9826 3.7576 -3.0695 0.9726
4.6284 4.1862 -3.0695 0.9726
3.8129 4.9405 -3.0695 0.9726
3.3580 5.2602 -3.0695 0.9726
2.8765 5.5382 -3.0695 0.9726
1.8490 5.9605 -3.0695 0.9726
-0.3475 6.2310 -3.0695 0.9726
-0.9007 6.1754 -3.0695 0.9726
-1.4467 6.0707 -3.0695 0.9726
-2.9992 5.4728 -3.0695 0.9726
-3.4744 5.1841 -3.0695 0.9726
-4.7205 4.0820 -3.0695 0.9726
-5.0651 3.6457 -3.0695 0.9726
-5.3695 3.1804 -3.0695 0.9726
-6.0190 1.6488 -3.0695 0.9726
-6.1418 1.1065 -3.0695 0.9726
-5.9873 0.0000 -3.0695 0.9734
-5.8925 -1.0615 -3.0695 0.9734
-5.7746 -1.5818 -3.0695 0.9734
-5.4026 -2.5806 -3.0695 0.9734
-5.1515 -3.0512 -3.0695 0.9734
-4.5289 -3.9162 -3.0695 0.9734
-4.1623 -4.3038 -3.0695 0.9734
-3.7628 -4.6572 -3.0695 0.9734
-2.3987 -5.4858 -3.0695 0.9734
-1.9009 -5.6775 -3.0695 0.9734
-0.8641 -5.9246 -3.0695 0.9734
-0.3333 -5.9780 -3.0695 0.9734
0.7319 -5.9424 -3.0695 0.9734
1.7739 -5.7185 -3.0695 0.9734
2.2758 -5.5379 -3.0695 0.9734
3.2217 -5.0466 -3.0695 0.9734
4.0654 -4.3954 -3.0695 0.9734
4.4405 -4.0162 -3.0695 0.9734
4.7743 -3.6004 -3.0656 0.9735
5.0561 -3.1490 -3.0538 0.9736
5.5167 -2.1955 -3.0440 0.9737
5.6904 -1.6959 -3.0441 0.9737
5.9057 -0.6606 -3.0466 0.9736
5.9455 -0.1325 -3.0488 0.9736
5.9507 0.3983 -3.0576 0.9735
5.9135 0.9299 -3.0690 0.9735
5.4587 2.4596 -3.0695 0.9734
5.2182 2.9357 -3.0695 0.9734
4.9362 3.3885 -3.0695 0.9734
4.6150 3.8144 -3.0695 0.9734
4.2571 4.2100 -3.0695 0.9734
3.8655 4.5722 -3.0695 0.9734
2.9936 5.1852 -3.0695 0.9734
2.0269 5.6338 -3.0695 0.9734
1.5174 5.7918 -3.0695 0.9734
0.4664 5.9691 -3.0695 0.9734
-1.1272 5.8803 -3.0695 0.9734
-3.9665 4.4850 -3.0695 0.9734
-4.3499 4.1141 -3.0695 0.9734
-5.0105 3.2777 -3.0695 0.9734
-5.2823 2.8187 -3.0695 0.9734
-5.6984 1.8375 -3.0695 0.9734
-5.8393 1.3230 -3.0695 0.9734
-5.9339 0.7980 -3.0695 0.9734
-5.9814 0.2667 -3.0695 0.9734
-5.6984 -1.8375 -3.0695 0.9734
-5.5122 -2.3374 -3.0695 0.9734
-3.9665 -4.4849 -3.0695 0.9734
-3.5516 -4.8202 -3.0695 0.9734
-2.6407 -5.3735 -3.0695 0.9734
-2.1519 -5.5872 -3.0695 0.9734
-1.6461 -5.7566 -3.0695 0.9734
-1.1272 -5.8802 -3.0695 0.9734
-0.5993 -5.9572 -3.0695 0.9734
-0.0667 -5.9869 -3.0695 0.9734
0.4664 -5.9691 -3.0695 0.9734
0.9958 -5.9039 -3.0695 0.9734
2.0269 -5.6338 -3.0695 0.9734
2.9936 -5.1851 -3.0695 0.9734
3.4433 -4.8981 -3.0695 0.9734
3.8655 -4.5722 -3.0695 0.9734
4.2572 -4.2100 -3.0695 0.9734
5.4137 -2.4393 -3.0442 0.9737
5.7610 -1.4407 -3.0445 0.9737
5.8687 -0.9228 -3.0457 0.9736
5.9314 -0.3968 -3.0476 0.9736
5.8673 1.1926 -3.0695 0.9734
5.7379 1.7101 -3.0695 0.9734
5.5629 2.2140 -3.0695 0.9734
5.0822 3.1653 -3.0695 0.9734
3.6580 4.7399 -3.0695 0.9734
3.2217 5.0467 -3.0695 0.9734
2.2758 5.5379 -3.0695 0.9734
-1.9009 5.6776 -3.0695 0.9734
-4.1623 4.3038 -3.0695 0.9734
-4.5289 3.9163 -3.0695 0.9734
-4.8595 3.4976 -3.0695 0.9734
-5.1515 3.0512 -3.0695 0.9734
-5.4026 2.5806 -3.0695 0.9734
-5.6109 2.0895 -3.0695 0.9734
-5.7746 1.5818 -3.0695 0.9734
-5.8925 1.0616 -3.0695 0.9734
-5.7270 -0.5117 -3.0695 0.9743
-5.6587 -1.0195 -3.0695 0.9743
-5.5455 -1.5191 -3.0695 0.9743
-5.3883 -2.0066 -3.0695 0.9743
-5.1883 -2.4782 -3.0695 0.9743
-4.6667 -3.3589 -3.0695 0.9743
-4.3493 -3.7609 -3.0695 0.9743
-2.3035 -5.2682 -3.0695 0.9743
-1.8255 -5.4523 -3.0695 0.9743
-0.8298 -5.6896 -3.0695 0.9743
-0.3201 -5.7409 -3.0695 0.9743
0.1921 -5.7466 -3.0695 0.9743
1.7035 -5.4917 -3.0695 0.9743
2.1855 -5.3182 -3.0695 0.9743
2.6502 -5.1026 -3.0695 0.9743
3.9042 -4.2211 -3.0695 0.9743
4.2643 -3.8569 -3.0695 0.9743
4.5907 -3.4620 -3.0695 0.9743
4.8775 -3.0378 -3.0676 0.9743
5.3168 -2.1160 -3.0549 0.9744
5.7378 -0.1279 -3.0638 0.9743
5.7370 0.3841 -3.0695 0.9743
5.6800 0.8932 -3.0695 0.9743
5.4317 1.8861 -3.0695 0.9743
5.2422 2.3621 -3.0695 0.9743
5.0112 2.8193 -3.0695 0.9743
4.0883 4.0430 -3.0695 0.9743
3.7122 4.3909 -3.0695 0.9743
3.3067 4.7039 -3.0695 0.9743
2.4203 5.2156 -3.0695 0.9743
1.4572 5.5621 -3.0695 0.9743
0.9563 5.6697 -3.0695 0.9743
-0.0641 5.7495 -3.0695 0.9743
-1.0825 5.6470 -3.0695 0.9743
-2.0665 5.3656 -3.0695 0.9743
-2.9852 4.9142 -3.0695 0.9743
-3.4107 4.6290 -3.0695 0.9743
-4.5125 3.5635 -3.0695 0.9743
-5.4724 1.7646 -3.0695 0.9743
-5.6077 1.2706 -3.0695 0.9743
-5.6985 0.7664 -3.0695 0.9743
-5.7441 0.2562 -3.0695 0.9743
-5.7441 -0.2561 -3.0695 0.9743
-5.6985 -0.7664 -3.0695 0.9743
-5.6077 -1.2705 -3.0695 0.9743
-5.4724 -1.7646 -3.0695 0.9743
-5.2936 -2.2446 -3.0695 0.9743
-4.8117 -3.1477 -3.0695 0.9743
-4.5125 -3.5634 -3.0695 0.9743
-4.1774 -3.9509 -3.0695 0.9743
-3.8092 -4.3071 -3.0695 0.9743
-2.9852 -4.9142 -3.0695 0.9743
-2.0666 -5.3656 -3.0695 0.9743
-0.5755 -5.7209 -3.0695 0.9743
2.4203 -5.2156 -3.0695 0.9743
3.3067 -4.7038 -3.0695 0.9743
3.7122 -4.3909 -3.0695 0.9743
4.0883 -4.0430 -3.0695 0.9743
4.4319 -3.6631 -3.0695 0.9743
5.5458 -1.3871 -3.0518 0.9744
5.6514 -0.8886 -3.0540 0.9744
5.7142 0.6393 -3.0695 0.9743
5.6346 1.1453 -3.0695 0.9743
5.5103 1.6423 -3.0695 0.9743
4.8806 3.0397 -3.0695 0.9743
3.9042 4.2212 -3.0695 0.9743
2.6502 5.1026 -3.0695 0.9743
1.2080 5.6215 -3.0695 0.9743
0.7028 5.7067 -3.0695 0.9743
-0.8298 5.6896 -3.0695 0.9743
-1.3329 5.5932 -3.0695 0.9743
-2.3035 5.2683 -3.0695 0.9743
-3.2011 4.7764 -3.0695 0.9743
-3.6135 4.4725 -3.0695 0.9743
-4.3493 3.7609 -3.0695 0.9743
-4.9472 2.9302 -3.0695 0.9743
-5.1884 2.4783 -3.0695 0.9743
-5.5455 1.5191 -3.0695 0.9743
-5.6587 1.0195 -3.0695 0.9743
-5.7270 0.5118 -3.0695 0.9743
-5.5267 0.0000 -3.0695 0.9750
-5.1792 -1.9288 -3.0695 0.9750
-4.9870 -2.3821 -3.0695 0.9750
-4.7552 -2.8165 -3.0695 0.9750
-4.4856 -3.2285 -3.0695 0.9750
-4.1805 -3.6150 -3.0695 0.9750
-3.8421 -3.9727 -3.0695 0.9750
-1.7546 -5.2408 -3.0695 0.9750
-0.7976 -5.4688 -3.0695 0.9750
2.1007 -5.1119 -3.0695 0.9750
3.3766 -4.3752 -3.0695 0.9750
4.4126 -3.3277 -3.0695 0.9750
4.9327 -2.4926 -3.0695 0.9750
5.1326 -2.0427 -3.0681 0.9750
5.2918 -1.5771 -3.0668 0.9751
5.4117 -1.1000 -3.0671 0.9750
5.5253 -0.1231 -3.0695 0.9750
5.4596 0.8585 -3.0695 0.9750
5.3615 1.3410 -3.0695 0.9750
5.2209 1.8129 -3.0695 0.9750
5.0388 2.2704 -3.0695 0.9750
4.8167 2.7099 -3.0695 0.9750
4.5564 3.1278 -3.0695 0.9750
4.2600 3.5210 -3.0695 0.9750
3.9297 3.8861 -3.0695 0.9750
3.5682 4.2205 -3.0695 0.9750
3.1784 4.5213 -3.0695 0.9750
2.3264 5.0132 -3.0695 0.9750
1.8709 5.2004 -3.0695 0.9750
0.4305 5.5099 -3.0695 0.9750
-0.0616 5.5264 -3.0695 0.9750
-1.5194 5.3137 -3.0695 0.9750
-2.8693 4.7235 -3.0695 0.9750
-4.0153 3.7976 -3.0695 0.9750
-4.3374 3.4252 -3.0695 0.9750
-4.8759 2.6019 -3.0695 0.9750
-5.0882 2.1576 -3.0695 0.9750
-5.3901 1.2212 -3.0695 0.9750
-5.4774 0.7366 -3.0695 0.9750
-5.5212 0.2462 -3.0695 0.9750
-5.3901 -1.2212 -3.0695 0.9750
-4.8759 -2.6019 -3.0695 0.9750
-4.6250 -3.0255 -3.0695 0.9750
-3.6613 -4.1399 -3.0695 0.9750
-3.2783 -4.4494 -3.0695 0.9750
-2.8693 -4.7235 -3.0695 0.9750
-1.9863 -5.1574 -3.0695 0.9750
-1.5194 -5.3137 -3.0695 0.9750
-1.0404 -5.4279 -3.0695 0.9750
-0.5532 -5.4989 -3.0695 0.9750
-0.0616 -5.5263 -3.0695 0.9750
0.9192 -5.4497 -3.0695 0.9750
1.4006 -5.3463 -3.0695 0.9750
1.8709 -5.2004 -3.0695 0.9750
3.1784 -4.5213 -3.0695 0.9750
3.5682 -4.2205 -3.0695 0.9750
3.9297 -3.8861 -3.0695 0.9750
4.2600 -3.5209 -3.0695 0.9750
4.8167 -2.7098 -3.0695 0.9750
5.2170 -1.8115 -3.0672 0.9750
5.3567 -1.3398 -3.0667 0.9751
5.4568 -0.8580 -3.0679 0.9750
5.5144 -0.3691 -3.0695 0.9750
5.5253 0.1232 -3.0695 0.9750
5.4924 0.6145 -3.0695 0.9750
4.6912 2.9218 -3.0695 0.9750
4.4126 3.3277 -3.0695 0.9750
4.0989 3.7072 -3.0695 0.9750
3.7526 4.0573 -3.0695 0.9750
2.9738 4.6584 -3.0695 0.9750
2.5474 4.9046 -3.0695 0.9750
1.6374 5.2786 -3.0695 0.9750
0.1847 5.5236 -3.0695 0.9750
-0.3077 5.5182 -3.0695 0.9750
-0.7976 5.4688 -3.0695 0.9750
-2.2141 5.0638 -3.0695 0.9750
-3.4733 4.2989 -3.0695 0.9750
-3.8421 3.9727 -3.0695 0.9750
-4.9870 2.3821 -3.0695 0.9750
-5.1792 1.9288 -3.0695 0.9750
-5.3303 1.4601 -3.0695 0.9750
-5.4391 0.9799 -3.0695 0.9750
-5.5048 0.4919 -3.0695 0.9750
-5.3166 0.0000 -3.0695 0.9757
-5.2323 -0.9426 -3.0695 0.9757
-4.7974 -2.2915 -3.0695 0.9757
-4.3151 -3.1058 -3.0695 0.9757
-3.6960 -3.8216 -3.0695 0.9757
-3.3412 -4.1354 -3.0695 0.9757
-2.1299 -4.8712 -3.0695 0.9757
-0.7673 -5.2609 -3.0695 0.9757
-0.2960 -5.3083 -3.0695 0.9757
0.1776 -5.3136 -3.0695 0.9757
1.1169 -5.1979 -3.0695 0.9757
2.0208 -4.9175 -3.0695 0.9757
2.8607 -4.4813 -3.0695 0.9757
3.6100 -3.9030 -3.0695 0.9757
4.2448 -3.2011 -3.0695 0.9757
4.5129 -2.8106 -3.0695 0.9757
4.7451 -2.3978 -3.0695 0.9757
5.0951 -1.5185 -3.0695 0.9757
5.2100 -1.0590 -3.0695 0.9757
5.3046 0.3551 -3.0695 0.9757
5.1576 1.2900 -3.0695 0.9757
5.0224 1.7440 -3.0695 0.9757
4.8472 2.1841 -3.0695 0.9757
4.3832 3.0089 -3.0695 0.9757
4.0980 3.3871 -3.0695 0.9757
3.7802 3.7384 -3.0695 0.9757
2.6583 4.6043 -3.0695 0.9757
2.2379 4.8226 -3.0695 0.9757
1.3474 5.1430 -3.0695 0.9757
-0.5322 5.2899 -3.0695 0.9757
-1.0009 5.2215 -3.0695 0.9757
-1.4617 5.1117 -3.0695 0.9757
-1.9108 4.9613 -3.0695 0.9757
-2.3448 4.7716 -3.0695 0.9757
-2.7602 4.5439 -3.0695 0.9757
-3.1537 4.2802 -3.0695 0.9757
-4.4492 2.9105 -3.0695 0.9757
-5.0600 1.6317 -3.0695 0.9757
-5.1851 1.1748 -3.0695 0.9757
-5.2691 0.7086 -3.0695 0.9757
-5.3113 -0.2368 -3.0695 0.9757
-5.2691 -0.7086 -3.0695 0.9757
-5.1851 -1.1748 -3.0695 0.9757
-5.0600 -1.6316 -3.0695 0.9757
-4.8947 -2.0755 -3.0695 0.9757
-4.6905 -2.5029 -3.0695 0.9757
-4.1724 -3.2949 -3.0695 0.9757
-3.5221 -3.9825 -3.0695 0.9757
-2.3448 -4.7715 -3.0695 0.9757
-1.4617 -5.1117 -3.0695 0.9757
-1.0009 -5.2215 -3.0695 0.9757
-0.5322 -5.2898 -3.0695 0.9757
-0.0592 -5.3162 -3.0695 0.9757
0.4142 -5.3004 -3.0695 0.9757
0.8843 -5.2425 -3.0695 0.9757
1.3474 -5.1430 -3.0695 0.9757
2.2379 -4.8226 -3.0695 0.9757
3.0575 -4.3494 -3.0695 0.9757
4.0980 -3.3871 -3.0695 0.9757
4.3832 -3.0088 -3.0695 0.9757
4.6336 -2.6068 -3.0695 0.9757
5.0224 -1.7439 -3.0695 0.9757
5.2520 -0.8258 -3.0695 0.9757
5.3046 -0.3551 -3.0695 0.9757
5.3152 0.1185 -3.0695 0.9757
5.2836 0.5911 -3.0695 0.9757
5.2100 1.0590 -3.0695 0.9757
5.0951 1.5185 -3.0695 0.9757
4.7451 2.3978 -3.0695 0.9757
4.2448 3.2012 -3.0695 0.9757
2.8607 4.4813 -3.0695 0.9757
2.4505 4.7181 -3.0695 0.9757
1.5752 5.0779 -3.0695 0.9757
0.6499 5.2767 -3.0695 0.9757
0.1776 5.3136 -3.0695 0.9757
-1.2325 5.1717 -3.0695 0.9757
-1.6879 5.0415 -3.0695 0.9757
-3.3412 4.1355 -3.0695 0.9757
-4.0215 3.4775 -3.0695 0.9757
-4.7974 2.2915 -3.0695 0.9757
-5.2323 0.9427 -3.0695 0.9757
