ply
format ascii 1.0
element vertex 1638
property float32 x
property float32 y
property float32 z
property float32 I
end_header
-2.5109 -5.7425 3.4809 0.9717
-6.6814 -10.9991 6.8702 0.9433
-3.1869 -9.5189 5.1463 0.9559
1.5670 9.2900 4.8300 0.9585
5.7480 9.0041 5.4765 0.9531
2.8739 9.2644 4.9729 0.9573
2.0111 9.3587 4.9075 0.9579
1.5691 9.3023 4.6400 0.9588
-2.6008 -6.7529 3.5593 0.9683
-3.3867 -10.1157 5.0284 0.9539
1.5690 9.3020 4.4467 0.9591
-2.6632 -6.9149 3.4929 0.9678
1.5690 9.3017 4.2564 0.9594
1.5688 9.3007 3.5221 0.9605
1.5688 9.3002 3.1689 0.9610
5.1941 8.9965 3.2992 0.9573
4.2161 9.0856 3.1810 0.9588
6.8023 8.8139 3.5358 0.9543
4.2427 9.1427 3.0175 0.9588
1.5687 9.2997 2.8235 0.9614
-3.2287 -9.6436 2.8613 0.9586
-3.3380 -9.9700 2.7704 0.9574
1.5686 9.2993 2.4850 0.9617
1.9947 9.2827 2.5018 0.9615
1.5685 9.2988 2.1524 0.9620
1.5685 9.2986 1.9880 0.9622
1.5684 9.2984 1.8248 0.9623
1.5684 9.2981 1.6627 0.9624
1.5684 9.2979 1.5015 0.9625
8.1988 2.8469 1.0876 0.9656
8.3626 2.4923 1.0935 0.9654
8.2980 3.3025 1.1192 0.9646
8.4509 2.1137 0.9449 0.9656
7.9683 2.7669 0.9149 0.9666
8.4161 3.7921 1.0012 0.9635
8.1150 2.4185 0.9185 0.9665
7.9731 3.1732 0.9308 0.9661
8.2177 2.0554 0.7766 0.9665
7.9483 3.5813 0.7992 0.9656
1.5682 9.2970 0.8644 0.9628
8.8564 1.8001 0.8285 0.9643
7.9476 2.3686 0.7603 0.9672
7.7876 3.0994 0.7684 0.9669
8.0772 2.0203 0.6239 0.9672
7.7706 3.5013 0.6387 0.9664
8.5484 1.7375 0.6537 0.9656
7.8262 2.3325 0.6120 0.9678
7.9689 1.9932 0.4784 0.9676
7.6086 2.6420 0.4691 0.9682
1.5681 9.2966 0.5491 0.9629
8.3571 1.6987 0.4967 0.9664
7.7352 2.3053 0.4701 0.9682
7.5693 3.0125 0.4745 0.9679
8.0542 4.0700 0.5256 0.9645
7.8847 1.9721 0.3379 0.9680
7.5385 2.6176 0.3318 0.9686
7.4946 2.9828 0.3354 0.9682
7.8353 3.9594 0.3650 0.9655
8.8656 1.3941 0.2238 0.9647
7.8168 1.9551 0.2009 0.9683
7.6055 2.2667 0.1979 0.9687
8.7397 1.3743 0.0735 0.9652
7.7710 1.9437 0.0666 0.9685
7.4445 2.5850 0.0655 0.9690
1.5680 9.2959 0.0784 0.9630
8.1003 1.6464 0.0687 0.9675
7.5668 2.2551 0.0656 0.9689
7.4065 2.5718 -0.0652 0.9691
7.3846 3.3273 -0.0673 0.9681
1.5680 9.2957 -0.0783 0.9630
8.0436 1.6349 -0.0682 0.9677
8.5776 1.3488 -0.2165 0.9659
7.3682 3.3200 -0.2015 0.9682
7.5147 2.2396 -0.1956 0.9691
7.5303 3.8052 -0.2104 0.9668
7.3532 3.3132 -0.3353 0.9682
7.5110 3.7955 -0.3499 0.9669
8.5474 1.3440 -0.5039 0.9659
7.3758 2.5611 -0.4548 0.9692
8.0038 1.6268 -0.4757 0.9678
7.5123 3.7961 -0.4902 0.9668
7.3879 2.5653 -0.5861 0.9691
7.3652 3.3186 -0.6054 0.9681
7.5099 2.2382 -0.5872 0.9691
7.5314 3.8058 -0.6324 0.9667
7.7196 1.9308 -0.7295 0.9685
1.5678 9.2946 -0.8641 0.9628
7.5221 2.2418 -0.7196 0.9690
7.5565 3.8184 -0.7762 0.9666
7.4316 2.5805 -0.8533 0.9688
7.4250 3.3456 -0.8833 0.9678
1.5678 9.2944 -1.0224 0.9628
7.8077 1.9529 -1.0086 0.9681
7.4711 2.5942 -0.9911 0.9686
7.4739 3.3676 -1.0273 0.9675
7.5941 2.2633 -0.9930 0.9686
7.8753 1.9697 -1.1547 0.9677
1.5677 9.2940 -1.3406 0.9626
7.6465 2.2789 -1.1349 0.9683
7.4827 2.9780 -1.1455 0.9680
7.8947 3.9894 -1.2581 0.9649
-6.6438 -12.1234 -2.2014 0.9455
8.3868 1.7047 -1.3628 0.9659
7.7244 2.3021 -1.2835 0.9679
8.0897 2.0234 -1.4704 0.9667
7.6889 2.6699 -1.4352 0.9675
7.8144 3.5210 -1.5113 0.9658
7.6672 3.0515 -1.4551 0.9670
-8.1044 -12.0925 -2.8171 0.9424
-3.3447 -14.0349 -2.7921 0.9429
7.8183 2.7148 -1.6016 0.9668
8.1117 3.6549 -1.7217 0.9644
-12.2486 8.0126 -2.8324 0.9421
-11.4386 -9.0330 -2.8206 0.9423
-10.6003 -10.0256 -2.8235 0.9423
-5.2051 -13.5148 -2.8026 0.9427
-3.9715 -13.8891 -2.7955 0.9428
-0.1601 -14.3706 -2.7812 0.9431
7.9582 2.3718 -1.6070 0.9667
7.8071 3.1071 -1.6261 0.9663
-9.2385 11.4346 -2.8448 0.9419
-10.2122 10.5594 -2.8427 0.9419
-14.1106 0.0000 -2.9748 0.9439
-14.0502 -1.2555 -2.9739 0.9440
-13.5992 -3.7252 -2.9726 0.9440
-12.1304 -7.1848 -2.9722 0.9440
-11.4439 -8.2368 -2.9725 0.9440
-10.1250 -8.7554 -2.8219 0.9468
-9.3140 -9.6306 -2.8245 0.9467
-8.4277 -10.4311 -2.8271 0.9467
-5.3613 -12.2615 -2.8213 0.9468
-3.0927 -12.9777 -2.8126 0.9469
-1.9345 -13.2640 -2.8259 0.9467
0.4657 -13.9300 -2.9384 0.9446
4.1301 -13.3143 -2.9389 0.9446
6.4432 -12.4054 -2.9470 0.9445
13.1575 -5.2366 -2.9855 0.9438
13.9076 -2.8268 -2.9919 0.9436
14.1243 -1.5800 -2.9963 0.9436
14.2184 0.9518 -3.0042 0.9434
8.0155 2.7833 -1.7888 0.9659
12.4862 7.0246 -3.0203 0.9431
11.8200 8.1140 -3.0225 0.9431
11.0576 9.1394 -3.0244 0.9430
10.2002 10.0872 -3.0243 0.9430
9.2592 10.9518 -3.0235 0.9431
7.1651 12.4104 -3.0211 0.9431
4.8463 13.4705 -3.0180 0.9432
3.6260 13.8403 -3.0163 0.9432
1.5676 9.2931 -1.9868 0.9622
-0.1512 13.5695 -2.8609 0.9460
-4.8631 12.6267 -2.8526 0.9462
-7.0148 11.5479 -2.8485 0.9463
-8.0092 10.8702 -2.8465 0.9463
-9.7935 9.2626 -2.8418 0.9464
-10.5612 8.3401 -2.8370 0.9465
-11.6785 7.6398 -2.9421 0.9445
-12.4836 6.6615 -2.9830 0.9438
-13.4509 4.3374 -2.9795 0.9439
-13.9930 1.8819 -2.9766 0.9439
-14.0943 -0.6285 -2.9743 0.9440
-13.9785 -1.8799 -2.9735 0.9440
-13.7528 -3.1160 -2.9728 0.9440
-12.9796 -5.5038 -2.9722 0.9440
-11.7988 -7.7184 -2.9724 0.9440
-9.7292 -9.2017 -2.8232 0.9467
-6.9676 -11.4702 -2.8293 0.9466
-5.9070 -12.0204 -2.8236 0.9467
-3.6655 -12.8189 -2.8108 0.9470
-2.5249 -13.1721 -2.8275 0.9466
-0.1479 -13.2727 -2.7983 0.9472
1.0828 -13.8563 -2.9301 0.9448
4.7223 -13.1258 -2.9408 0.9446
6.9946 -12.1150 -2.9492 0.9444
8.0574 -11.4619 -2.9537 0.9443
12.3115 -6.9263 -2.9781 0.9439
12.9006 -5.8127 -2.9830 0.9438
13.3859 -4.6481 -2.9873 0.9437
13.7594 -3.4415 -2.9901 0.9437
14.0299 -2.2061 -2.9941 0.9436
14.1905 -0.9499 -2.9983 0.9435
14.2377 0.3173 -3.0023 0.9434
14.1706 1.5852 -3.0061 0.9434
13.9903 2.8436 -3.0097 0.9433
8.0612 3.2083 -1.8291 0.9652
12.1655 7.5768 -3.0215 0.9431
9.7394 10.5301 -3.0239 0.9431
7.7125 12.0815 -3.0218 0.9431
5.4430 13.2449 -3.0189 0.9431
4.2402 13.6691 -3.0172 0.9432
-0.7552 13.5441 -2.8598 0.9461
-4.2973 12.8355 -2.8536 0.9462
-5.4188 12.3931 -2.8515 0.9462
-7.5196 11.2200 -2.8475 0.9463
-8.4826 10.4991 -2.8456 0.9463
-9.3773 9.6960 -2.8437 0.9464
-10.9130 7.8547 -2.8346 0.9465
-13.8984 2.5039 -2.9772 0.9439
-14.0599 1.2564 -2.9759 0.9439
-13.0414 0.0000 -2.9766 0.9479
-12.9859 -1.1604 -2.9758 0.9479
-12.5694 -3.4431 -2.9746 0.9479
-12.2119 -4.5477 -2.9743 0.9479
-5.9614 -10.8782 -2.8313 0.9504
-1.7935 -12.2967 -2.8363 0.9503
1.5716 -12.7609 -2.9346 0.9486
4.9047 -11.9349 -2.9451 0.9484
5.9553 -11.4660 -2.9490 0.9484
6.9619 -10.9056 -2.9531 0.9483
8.8109 -9.5262 -2.9617 0.9482
9.6384 -8.7174 -2.9662 0.9481
11.0654 -6.8916 -2.9754 0.9479
12.8387 -2.6096 -2.9903 0.9477
13.0373 -1.4584 -2.9942 0.9476
12.0405 5.4252 -3.0143 0.9473
11.5190 6.4805 -3.0166 0.9472
10.9038 7.4851 -3.0187 0.9472
10.2000 8.4305 -3.0204 0.9472
8.5470 10.1094 -3.0215 0.9471
7.6108 10.8265 -3.0206 0.9472
5.5660 11.9944 -3.0180 0.9472
4.4741 12.4361 -3.0166 0.9472
3.3477 12.7780 -3.0149 0.9472
1.5675 9.2929 -2.1510 0.9621
-0.1396 12.5319 -2.8605 0.9499
-4.4921 11.6634 -2.8527 0.9500
-5.5087 11.2098 -2.8508 0.9500
-8.2584 9.3379 -2.8452 0.9501
-9.0429 8.5527 -2.8409 0.9502
-9.7531 7.7020 -2.8365 0.9503
-10.9483 7.1621 -2.9861 0.9477
-12.0304 5.1014 -2.9825 0.9478
-12.4301 4.0082 -2.9810 0.9478
-12.9321 1.7392 -2.9782 0.9479
-13.0265 -0.5809 -2.9762 0.9479
-12.4028 -3.9994 -2.9744 0.9479
-11.4964 -6.1346 -2.9742 0.9479
-10.9054 -7.1339 -2.9744 0.9479
-10.2284 -8.0773 -2.9747 0.9479
-6.4375 -10.5975 -2.8301 0.9504
-5.4731 -11.1374 -2.8324 0.9504
-1.2437 -12.3627 -2.8359 0.9503
-0.1427 -12.8111 -2.9242 0.9488
2.1395 -12.6842 -2.9360 0.9486
3.2634 -12.4563 -2.9390 0.9485
5.4350 -11.7121 -2.9470 0.9484
8.3715 -9.9019 -2.9595 0.9482
9.2335 -9.1312 -2.9640 0.9481
10.7391 -7.3720 -2.9731 0.9480
11.3686 -6.3959 -2.9773 0.9479
12.7010 -3.1768 -2.9882 0.9477
12.9509 -2.0364 -2.9923 0.9476
12.9101 2.6241 -3.0069 0.9474
12.6386 3.7667 -3.0101 0.9473
12.2649 4.8813 -3.0129 0.9473
11.7917 5.9586 -3.0155 0.9472
10.5627 7.9657 -3.0196 0.9472
9.8166 8.8786 -3.0211 0.9471
8.0869 10.4785 -3.0211 0.9471
7.1196 11.1527 -3.0200 0.9472
6.0962 11.7372 -3.0187 0.9472
5.0250 12.2275 -3.0173 0.9472
3.9147 12.6197 -3.0158 0.9472
2.7744 12.9108 -3.0141 0.9473
0.4189 12.5286 -2.8612 0.9499
-6.9469 10.3655 -2.8480 0.9501
-7.8369 9.6999 -2.8462 0.9501
-9.4077 8.1351 -2.8387 0.9503
-10.3765 7.4686 -2.9180 0.9489
-11.2531 6.6652 -2.9851 0.9478
-11.7946 5.6338 -2.9834 0.9478
-12.5932 3.4497 -2.9802 0.9478
-12.9942 1.1612 -2.9777 0.9479
-12.0650 -1.0781 -2.9774 0.9513
-11.6784 -3.1990 -2.9763 0.9513
-11.3462 -4.2254 -2.9760 0.9514
-10.9247 -5.2183 -2.9759 0.9514
-10.4172 -6.1701 -2.9760 0.9514
-9.1603 -7.9212 -2.9767 0.9513
-8.4206 -8.7068 -2.9773 0.9513
-7.2839 -9.0153 -2.8489 0.9534
-3.6610 -10.9349 -2.8344 0.9536
-1.6650 -11.4162 -2.8358 0.9536
-0.6442 -11.5521 -2.8439 0.9535
2.5128 -11.6937 -2.9399 0.9519
3.5471 -11.4349 -2.9428 0.9519
6.4656 -10.1281 -2.9535 0.9517
7.3519 -9.5261 -2.9578 0.9516
9.6451 -7.2741 -2.9694 0.9515
11.2684 -4.4847 -2.9811 0.9513
12.1761 0.8151 -2.9996 0.9510
12.0684 1.8977 -3.0029 0.9509
11.8637 2.9673 -3.0059 0.9509
11.5633 4.0152 -3.0087 0.9508
11.1694 5.0327 -3.0113 0.9508
9.4607 7.8195 -3.0169 0.9507
7.0635 10.0480 -3.0190 0.9507
5.1660 11.1326 -3.0167 0.9507
4.1528 11.5429 -3.0153 0.9507
3.1074 11.8608 -3.0138 0.9508
0.9056 11.5896 -2.8574 0.9532
-0.1296 11.6351 -2.8601 0.9532
-1.1639 11.5697 -2.8582 0.9532
-4.1714 10.8308 -2.8528 0.9533
-5.1157 10.4101 -2.8511 0.9533
-8.3947 7.9396 -2.8401 0.9535
-10.1694 6.6525 -2.9870 0.9512
-12.0143 1.6158 -2.9797 0.9513
-12.1026 -0.5397 -2.9778 0.9513
-11.8101 -2.6758 -2.9765 0.9513
-11.5236 -3.7159 -2.9761 0.9513
-11.1464 -4.7265 -2.9759 0.9514
-10.1323 -6.6283 -2.9761 0.9514
-9.5033 -7.5046 -2.9764 0.9513
-7.8879 -8.9190 -2.9267 0.9521
-5.9761 -9.8379 -2.8293 0.9537
-5.0805 -10.3385 -2.8315 0.9537
1.9885 -11.7886 -2.9386 0.9519
3.0327 -11.5757 -2.9413 0.9519
4.0552 -11.2716 -2.9444 0.9519
6.0036 -10.3985 -2.9514 0.9517
6.9153 -9.8372 -2.9557 0.9517
7.7744 -9.1956 -2.9598 0.9516
8.5735 -8.4786 -2.9638 0.9515
9.3061 -7.6917 -2.9676 0.9515
9.9655 -6.8409 -2.9711 0.9514
11.0500 -4.9789 -2.9791 0.9513
11.4646 -3.9809 -2.9830 0.9512
11.7887 -2.9485 -2.9869 0.9512
12.1546 -0.8136 -2.9943 0.9511
12.1344 1.3575 -3.0013 0.9509
11.7254 3.4945 -3.0074 0.9509
11.3779 4.5283 -3.0100 0.9508
10.9383 5.5274 -3.0124 0.9508
10.4100 6.4834 -3.0145 0.9507
9.1049 8.2349 -3.0176 0.9507
6.6077 10.3509 -3.0185 0.9507
5.6580 10.8937 -3.0173 0.9507
4.6640 11.3491 -3.0160 0.9507
3.6336 11.7136 -3.0145 0.9507
1.4214 11.5412 -2.8582 0.9532
-2.6931 11.3007 -2.8555 0.9533
-4.6483 10.6310 -2.8520 0.9533
-6.4517 9.6267 -2.8485 0.9534
-8.0384 8.3116 -2.8421 0.9535
-9.8659 7.1010 -2.9879 0.9512
-10.4526 6.1911 -2.9861 0.9512
-12.0721 1.0788 -2.9791 0.9513
-11.1235 -2.0040 -2.9782 0.9543
-10.8994 -2.9856 -2.9778 0.9543
-10.5894 -3.9435 -2.9775 0.9543
-10.1961 -4.8702 -2.9774 0.9543
-9.7224 -5.7586 -2.9775 0.9543
-7.8587 -8.1258 -2.9787 0.9543
-6.1389 -9.1600 -2.9056 0.9554
-4.3051 -9.8460 -2.8316 0.9565
-2.4938 -10.4645 -2.8346 0.9565
-0.6314 -11.3233 -2.9883 0.9542
2.3458 -10.9163 -2.9421 0.9549
3.3111 -10.6740 -2.9448 0.9548
6.0329 -9.4504 -2.9543 0.9547
6.8583 -8.8866 -2.9579 0.9546
7.6314 -8.2510 -2.9615 0.9546
8.3460 -7.5485 -2.9652 0.9545
10.0822 -5.0948 -2.9766 0.9543
10.5088 -4.1824 -2.9803 0.9543
10.8527 -3.2345 -2.9840 0.9542
11.1108 -2.2583 -2.9876 0.9542
11.2809 -1.2620 -2.9911 0.9541
11.3615 -0.2532 -2.9945 0.9541
11.3513 0.7599 -2.9978 0.9540
11.2501 1.7690 -3.0008 0.9540
11.0585 2.7659 -3.0037 0.9539
10.7778 3.7425 -3.0063 0.9539
8.8164 7.2869 -3.0139 0.9538
7.3958 8.7479 -3.0185 0.9537
5.7241 9.9144 -3.0166 0.9537
3.8724 10.7635 -3.0142 0.9538
0.8446 10.8083 -2.8567 0.9561
-0.1209 10.8525 -2.8598 0.9561
-2.0407 10.6459 -2.8563 0.9562
-2.9784 10.4160 -2.8546 0.9562
-4.7724 9.7116 -2.8513 0.9562
-5.6147 9.2430 -2.8497 0.9563
-6.4086 8.6979 -2.8468 0.9563
-8.9036 7.0311 -2.9894 0.9542
-9.4888 6.2073 -2.9878 0.9542
-9.9983 5.3353 -2.9862 0.9542
-11.0374 2.5007 -2.9821 0.9543
-11.2980 0.5038 -2.9800 0.9543
-10.7550 -3.4680 -2.9776 0.9543
-10.4030 -4.4113 -2.9775 0.9543
-8.2121 -7.7669 -2.9784 0.9543
-3.8635 -10.0313 -2.8325 0.9565
-2.9570 -10.3413 -2.8341 0.9565
-2.0254 -10.5663 -2.8349 0.9565
-0.1264 -11.3434 -2.9892 0.9542
3.7851 -10.5210 -2.9462 0.9548
6.4517 -9.1777 -2.9561 0.9547
7.9964 -7.9078 -2.9634 0.9545
8.6795 -7.1738 -2.9671 0.9545
9.8390 -5.5353 -2.9747 0.9544
10.9927 -2.7494 -2.9858 0.9542
11.3121 1.2654 -2.9993 0.9540
11.1656 2.2695 -3.0023 0.9540
10.9292 3.2573 -3.0050 0.9539
10.6047 4.2206 -3.0075 0.9539
10.1944 5.1515 -3.0097 0.9539
9.7016 6.0422 -3.0116 0.9538
9.1302 6.8854 -3.0132 0.9538
6.9979 9.0674 -3.0181 0.9537
6.1611 9.6513 -3.0171 0.9537
4.3490 10.5827 -3.0148 0.9538
3.3883 10.9229 -3.0135 0.9538
1.3256 10.7629 -2.8574 0.9561
0.3621 10.8322 -2.8559 0.9562
-1.5648 10.7293 -2.8571 0.9561
-2.5121 10.5414 -2.8554 0.9562
-3.4384 10.2700 -2.8538 0.9562
-4.3363 9.9174 -2.8521 0.9562
-5.1988 9.4867 -2.8505 0.9562
-6.0186 8.9803 -2.8486 0.9563
-6.7854 8.3984 -2.8450 0.9563
-8.3202 7.1948 -2.8984 0.9555
-9.2054 6.6256 -2.9886 0.9542
-10.2234 4.8833 -2.9854 0.9542
-10.6125 3.9521 -2.9840 0.9542
-10.9173 2.9906 -2.9827 0.9543
-11.1357 2.0062 -2.9815 0.9543
-11.2661 1.0067 -2.9805 0.9543
-10.4220 -1.8776 -2.9795 0.9570
-10.2122 -2.7974 -2.9791 0.9570
-9.9218 -3.6949 -2.9789 0.9570
-8.0101 -6.9266 -2.9794 0.9570
-7.3631 -7.6134 -2.9800 0.9569
-4.1252 -9.4344 -2.8971 0.9581
-2.3506 -9.8636 -2.8529 0.9587
1.2893 -10.4681 -2.9675 0.9571
6.4247 -8.3248 -2.9586 0.9572
7.1484 -7.7288 -2.9621 0.9572
7.8172 -7.0702 -2.9656 0.9571
9.8397 -3.9161 -2.9797 0.9569
10.1610 -3.0283 -2.9831 0.9569
10.4022 -2.1143 -2.9866 0.9569
10.5609 -1.1814 -2.9899 0.9568
10.3499 2.5887 -3.0017 0.9566
10.0866 3.5025 -3.0042 0.9566
9.7420 4.3895 -3.0064 0.9566
9.3186 5.2426 -3.0083 0.9565
8.8198 6.0545 -3.0099 0.9565
8.2496 6.8185 -3.0113 0.9565
7.6267 7.5422 -3.0179 0.9564
6.1656 8.7707 -3.0164 0.9564
5.3588 9.2817 -3.0155 0.9564
4.5098 9.7183 -3.0144 0.9565
1.5674 9.2922 -2.6513 0.9616
0.7918 10.1328 -2.8596 0.9586
-1.9111 9.9699 -2.8562 0.9587
-2.7893 9.7549 -2.8546 0.9587
-4.4699 9.0959 -2.8515 0.9588
-5.2571 8.6544 -2.8490 0.9588
-5.9996 8.1427 -2.8457 0.9588
-6.6925 7.5673 -2.8423 0.9589
-7.4881 7.0822 -2.8999 0.9581
-8.3402 6.5862 -2.9900 0.9568
-8.8886 5.8147 -2.9884 0.9568
-9.3662 4.9980 -2.9870 0.9568
-9.7694 4.1426 -2.9856 0.9569
-10.5044 1.4127 -2.9821 0.9569
-10.5852 0.4720 -2.9812 0.9569
-10.4962 -1.4116 -2.9798 0.9569
-10.3273 -2.3399 -2.9793 0.9570
-9.7472 -4.1332 -2.9788 0.9570
-9.3406 -4.9843 -2.9788 0.9570
-7.6942 -7.2771 -2.9797 0.9569
-2.7745 -9.7030 -2.8394 0.9589
-0.1184 -10.6256 -2.9898 0.9568
0.8282 -10.5990 -2.9912 0.9568
3.5469 -9.8589 -2.9479 0.9574
5.2492 -9.0918 -2.9538 0.9573
7.4900 -7.4070 -2.9638 0.9572
8.1292 -6.7189 -2.9673 0.9571
8.7053 -5.9759 -2.9709 0.9571
10.4920 -1.6498 -2.9883 0.9568
10.6410 0.2371 -2.9947 0.9567
10.2286 3.0484 -3.0030 0.9566
9.9243 3.9498 -3.0053 0.9566
9.0784 5.6541 -3.0091 0.9565
8.5434 6.4429 -3.0106 0.9565
6.5511 8.4885 -3.0168 0.9564
5.7679 9.0352 -3.0160 0.9564
3.1723 10.2265 -3.0125 0.9565
1.2422 10.0858 -2.8591 0.9587
0.3397 10.1595 -2.8600 0.9586
-0.5657 10.1446 -2.8587 0.9587
-1.4655 10.0479 -2.8570 0.9587
-2.3526 9.8721 -2.8554 0.9587
-3.2202 9.6183 -2.8538 0.9587
-4.0613 9.2885 -2.8523 0.9588
-4.8691 8.8850 -2.8506 0.9588
-7.0186 7.2572 -2.8406 0.9589
-8.0407 6.9531 -2.9908 0.9568
-9.9420 3.7025 -2.9849 0.9569
-10.2279 2.8017 -2.9837 0.9569
-10.4328 1.8796 -2.9826 0.9569
-9.9601 0.0000 -2.9818 0.9593
-9.9183 -0.8863 -2.9812 0.9593
-9.3282 -3.4738 -2.9800 0.9593
-8.9818 -4.2902 -2.9800 0.9593
-8.5644 -5.0727 -2.9800 0.9593
-6.9224 -7.1577 -2.9811 0.9593
-6.2592 -7.7471 -2.9817 0.9593
-5.5463 -8.2756 -2.9825 0.9593
-4.7891 -8.7390 -2.9834 0.9592
0.3338 -9.9853 -2.9911 0.9591
1.2200 -9.9055 -2.9879 0.9592
5.3136 -8.3236 -2.9564 0.9596
6.0395 -7.8257 -2.9594 0.9596
7.3473 -6.6452 -2.9658 0.9595
9.5473 -2.8454 -2.9825 0.9593
9.9217 -1.1099 -2.9889 0.9592
9.8907 1.5553 -2.9975 0.9591
9.7211 2.4314 -3.0000 0.9590
9.4734 3.2895 -3.0023 0.9590
8.7513 4.9234 -3.0061 0.9589
8.2826 5.6857 -3.0077 0.9589
7.7469 6.4030 -3.0089 0.9589
7.1647 7.0854 -3.0167 0.9588
5.0345 8.7200 -3.0144 0.9588
4.2369 9.1304 -3.0134 0.9588
3.4062 9.4677 -3.0123 0.9589
-0.1064 9.5493 -2.8591 0.9609
-1.7960 9.3693 -2.8561 0.9609
-2.6214 9.1676 -2.8546 0.9610
-3.4252 8.8933 -2.8531 0.9610
-4.9386 8.1301 -2.8479 0.9611
-7.2611 6.8674 -2.9921 0.9591
-8.3552 5.4657 -2.9891 0.9592
-9.1836 3.8942 -2.9864 0.9592
-9.4899 3.0601 -2.9852 0.9592
-9.9514 0.4437 -2.9822 0.9593
-9.8681 -1.3271 -2.9809 0.9593
-9.7093 -2.1998 -2.9805 0.9593
-9.1640 -3.8859 -2.9800 0.9593
-8.3302 -5.4493 -2.9801 0.9593
-7.2338 -6.8416 -2.9808 0.9593
-5.9086 -8.0192 -2.9821 0.9593
-2.7422 -9.5902 -2.9862 0.9592
-1.8786 -9.8004 -2.9875 0.9592
-0.1113 -9.9877 -2.9903 0.9592
1.6460 -9.7583 -2.9627 0.9595
3.3351 -9.2700 -2.9494 0.9597
6.3855 -7.5529 -2.9610 0.9595
7.0401 -6.9621 -2.9642 0.9595
8.6583 -4.8710 -2.9742 0.9594
9.0677 -4.0857 -2.9775 0.9593
9.4059 -3.2661 -2.9809 0.9593
9.9457 1.1126 -2.9961 0.9591
9.6069 2.8632 -3.0011 0.9590
9.3207 3.7096 -3.0033 0.9590
8.5256 5.3098 -3.0069 0.9589
7.4739 6.7597 -3.0170 0.9588
6.1544 7.9745 -3.0157 0.9588
4.6403 8.9341 -3.0140 0.9588
3.8253 9.3084 -3.0129 0.9589
2.9805 9.6081 -3.0117 0.9589
0.3191 9.5438 -2.8588 0.9609
-0.5316 9.5333 -2.8585 0.9609
-2.2110 9.2776 -2.8553 0.9610
-3.0264 9.0394 -2.8539 0.9610
-3.8168 8.7292 -2.8522 0.9610
-4.5740 8.3464 -2.8494 0.9610
-6.7519 6.9814 -2.9077 0.9603
-8.1054 5.8339 -2.9898 0.9592
-9.0030 4.3004 -2.9870 0.9592
-9.3460 3.4805 -2.9857 0.9592
-9.6150 2.6338 -2.9846 0.9592
-9.8079 1.7670 -2.9836 0.9592
-9.9231 0.8867 -2.9826 0.9593
-9.3922 0.0000 -2.9828 0.9613
-9.2399 -1.6646 -2.9817 0.9614
-8.4699 -4.0458 -2.9810 0.9614
-7.6191 -5.4839 -2.9813 0.9614
-7.1016 -6.1409 -2.9816 0.9614
-5.9023 -7.3054 -2.9827 0.9614
-5.2300 -7.8037 -2.9834 0.9613
-4.5159 -8.2405 -2.9843 0.9613
-3.7658 -8.6125 -2.9852 0.9613
-2.9854 -8.9167 -2.9863 0.9613
-2.1807 -9.1506 -2.9875 0.9613
1.1520 -9.3535 -2.9930 0.9612
1.9587 -9.1152 -2.9609 0.9616
3.5331 -8.5974 -2.9520 0.9617
7.9449 -4.9481 -2.9725 0.9615
8.7149 -3.4684 -2.9788 0.9614
8.9984 -2.6818 -2.9820 0.9614
9.2107 -1.8721 -2.9850 0.9613
9.1591 2.2908 -2.9984 0.9612
8.6196 3.8838 -3.0025 0.9611
7.3203 6.0504 -3.0161 0.9609
4.7445 8.2177 -3.0135 0.9610
2.4023 9.1695 -3.0104 0.9610
-0.9006 8.9522 -2.8574 0.9629
-1.6930 8.8321 -2.8560 0.9630
-2.4711 8.6421 -2.8546 0.9630
-3.2279 8.3810 -2.8522 0.9630
-3.9574 8.0529 -2.8496 0.9630
-4.6538 7.6613 -2.8468 0.9631
-6.0935 6.8901 -2.9212 0.9621
-6.8457 6.4746 -2.9925 0.9612
-7.3912 5.8368 -2.9910 0.9612
-8.6593 3.6719 -2.9871 0.9613
-8.9483 2.8855 -2.9859 0.9613
-9.1664 2.0768 -2.9849 0.9613
-9.3120 1.2524 -2.9840 0.9613
-9.3818 -0.4183 -2.9825 0.9614
-8.6418 -3.6644 -2.9811 0.9614
-8.2813 -4.4191 -2.9810 0.9614
-6.8214 -6.4517 -2.9818 0.9614
-6.2213 -7.0345 -2.9824 0.9614
-5.5717 -7.5619 -2.9830 0.9613
-4.8778 -8.0300 -2.9838 0.9613
-0.9422 -9.3657 -2.9894 0.9613
-0.1049 -9.4167 -2.9908 0.9612
0.7340 -9.3932 -2.9922 0.9612
1.5633 -9.2676 -2.9848 0.9613
2.3577 -8.9993 -2.9545 0.9617
3.1453 -8.7426 -2.9507 0.9618
5.3578 -7.6216 -2.9588 0.9617
6.6376 -6.5641 -2.9647 0.9616
7.7125 -5.2943 -2.9709 0.9615
8.8653 -3.0784 -2.9804 0.9614
9.2896 -1.4607 -2.9865 0.9613
9.3919 -0.6287 -2.9894 0.9613
9.4193 0.2099 -2.9922 0.9612
9.3714 1.0484 -2.9948 0.9612
9.2485 1.8798 -2.9972 0.9612
8.4405 4.2652 -3.0034 0.9611
7.5578 5.6997 -3.0063 0.9611
7.0430 6.3701 -3.0159 0.9609
6.4470 6.9705 -3.0154 0.9609
5.1066 7.9993 -3.0140 0.9610
4.3730 8.4196 -3.0131 0.9610
1.0997 8.9286 -2.8570 0.9629
-0.5009 8.9839 -2.8576 0.9629
-1.2982 8.9010 -2.8567 0.9630
-3.5964 8.2251 -2.8509 0.9630
-5.6249 6.9621 -2.8425 0.9631
-9.3572 0.8362 -2.9836 0.9613
-8.8805 0.0000 -2.9837 0.9632
-8.7366 -1.5740 -2.9826 0.9632
-8.5609 -2.3451 -2.9823 0.9632
-8.3177 -3.0975 -2.9821 0.9632
-8.0087 -3.8254 -2.9820 0.9632
-7.6366 -4.5232 -2.9821 0.9632
-7.2042 -5.1852 -2.9822 0.9632
-3.5604 -8.1429 -2.9860 0.9632
-2.8225 -8.4304 -2.9870 0.9632
1.0890 -8.8422 -2.9933 0.9631
1.8635 -8.6721 -2.9802 0.9633
4.0547 -7.8066 -2.9556 0.9636
5.3842 -6.9766 -2.9609 0.9635
5.9895 -6.4758 -2.9637 0.9635
6.5485 -5.9228 -2.9666 0.9634
7.0567 -5.3217 -2.9696 0.9634
7.9044 -3.9942 -2.9755 0.9633
8.2367 -3.2781 -2.9785 0.9633
8.5042 -2.5345 -2.9815 0.9632
8.7044 -1.7692 -2.9843 0.9632
8.8356 -0.9884 -2.9871 0.9632
8.8864 0.5949 -2.9924 0.9631
8.8053 1.3846 -2.9948 0.9631
8.1431 3.6691 -3.0009 0.9630
7.3709 5.0599 -3.0038 0.9630
6.3801 6.3094 -3.0147 0.9628
5.1582 7.3376 -3.0135 0.9629
2.2703 8.6655 -3.0097 0.9629
-0.0947 8.5005 -2.8562 0.9648
-0.8509 8.4576 -2.8559 0.9648
-1.5997 8.3457 -2.8550 0.9648
-3.0498 7.9186 -2.8510 0.9648
-3.7392 7.6091 -2.8485 0.9649
-4.3976 7.2394 -2.8459 0.9649
-5.0200 6.8133 -2.8434 0.9649
-6.4716 6.1208 -2.9928 0.9631
-6.9875 5.5180 -2.9914 0.9631
-8.1867 3.4715 -2.9877 0.9632
-8.4603 2.7281 -2.9866 0.9632
-8.6667 1.9636 -2.9857 0.9632
-8.8727 0.3957 -2.9840 0.9632
-8.7987 -1.1833 -2.9828 0.9632
-8.6573 -1.9615 -2.9824 0.9632
-8.4476 -2.7240 -2.9822 0.9632
-7.8304 -4.1784 -2.9820 0.9632
-6.9664 -5.5013 -2.9824 0.9632
-6.4499 -6.1003 -2.9828 0.9632
-5.8823 -6.6512 -2.9833 0.9632
-3.9191 -7.9750 -2.9855 0.9632
-3.1947 -8.2949 -2.9865 0.9632
-0.0992 -8.9024 -2.9912 0.9631
1.4822 -8.7870 -2.9940 0.9631
2.2328 -8.5222 -2.9600 0.9635
2.9743 -8.2672 -2.9519 0.9636
3.7013 -7.9762 -2.9543 0.9636
5.0658 -7.2062 -2.9595 0.9635
8.0785 -3.6400 -2.9770 0.9633
8.3787 -2.9094 -2.9800 0.9633
8.7787 -1.3804 -2.9857 0.9632
8.9004 0.1983 -2.9911 0.9631
8.5515 2.5486 -2.9980 0.9630
7.9738 4.0294 -3.0017 0.9630
5.4806 7.1014 -3.0139 0.9629
3.4068 8.2901 -3.0113 0.9629
2.6545 8.5574 -3.0103 0.9629
1.8816 8.7563 -3.0091 0.9629
0.2840 8.4962 -2.8562 0.9648
-2.6951 8.0499 -2.8522 0.9648
-3.3981 7.7716 -2.8498 0.9648
-4.0726 7.4316 -2.8472 0.9649
-4.7134 7.0329 -2.8445 0.9649
-6.7363 5.8251 -2.9921 0.9631
-7.6556 4.5344 -2.9895 0.9632
-8.0256 3.8335 -2.9883 0.9632
-8.3818 -0.7490 -2.9839 0.9649
-8.2806 -1.4918 -2.9835 0.9649
-8.1141 -2.2227 -2.9831 0.9649
-7.8835 -2.9358 -2.9829 0.9649
-7.5908 -3.6258 -2.9829 0.9649
-6.8282 -4.9146 -2.9831 0.9649
-5.8500 -6.0489 -2.9838 0.9649
-5.2894 -6.5467 -2.9844 0.9649
-3.3744 -7.7174 -2.9866 0.9649
-2.6750 -7.9897 -2.9876 0.9649
-1.9539 -8.1990 -2.9887 0.9649
-1.2169 -8.3435 -2.9898 0.9648
-0.4696 -8.4221 -2.9910 0.9648
0.2820 -8.4340 -2.9923 0.9648
1.7739 -8.2549 -2.9939 0.9648
3.8431 -7.3993 -2.9565 0.9652
5.6762 -6.1370 -2.9642 0.9651
7.1159 -4.4319 -2.9726 0.9650
8.0568 -2.4012 -2.9810 0.9649
8.4272 -0.1878 -2.9889 0.9649
8.4173 0.5635 -2.9913 0.9648
8.1960 2.0500 -2.9957 0.9648
7.7121 3.4749 -2.9994 0.9647
6.9949 4.8018 -3.0085 0.9646
4.8863 6.9509 -3.0127 0.9646
3.5746 7.7030 -3.0111 0.9646
2.1507 8.2093 -3.0091 0.9646
0.6272 8.0267 -2.8548 0.9664
-0.0897 8.0507 -2.8549 0.9664
-0.8058 8.0099 -2.8545 0.9664
-2.8887 7.5002 -2.8499 0.9665
-3.5418 7.2074 -2.8475 0.9665
-4.1656 6.8575 -2.8450 0.9665
-4.9578 6.7288 -2.9637 0.9651
-5.5946 6.3259 -2.9945 0.9648
-6.6217 5.2291 -2.9918 0.9648
-7.0579 4.6171 -2.9906 0.9648
-7.4379 3.9690 -2.9894 0.9649
-7.7588 3.2900 -2.9883 0.9649
-8.0181 2.5855 -2.9873 0.9649
-8.3446 1.1222 -2.9855 0.9649
-8.4093 0.3750 -2.9848 0.9649
-8.3394 -1.1215 -2.9837 0.9649
-8.0067 -2.5818 -2.9830 0.9649
-7.7448 -3.2841 -2.9829 0.9649
-7.4218 -3.9603 -2.9829 0.9649
-7.0401 -4.6054 -2.9830 0.9649
-6.1132 -5.7818 -2.9836 0.9649
-5.5752 -6.3040 -2.9841 0.9649
-4.3711 -7.1958 -2.9854 0.9649
-3.7143 -7.5583 -2.9862 0.9649
-3.0278 -7.8613 -2.9871 0.9649
-0.0940 -8.4364 -2.9916 0.9648
0.6575 -8.4149 -2.9929 0.9648
1.4045 -8.3267 -2.9942 0.9648
4.1706 -7.2237 -2.9577 0.9652
4.8011 -6.8297 -2.9602 0.9652
5.3947 -6.3809 -2.9628 0.9652
6.4525 -5.3332 -2.9683 0.9651
6.9081 -4.7422 -2.9711 0.9651
7.3098 -4.1124 -2.9740 0.9650
7.6541 -3.4488 -2.9768 0.9650
8.1595 -2.0408 -2.9824 0.9649
8.4069 -0.5628 -2.9877 0.9649
8.4307 0.1879 -2.9901 0.9648
8.3870 0.9382 -2.9925 0.9648
7.8570 3.1270 -2.9985 0.9647
7.5516 3.8160 -3.0002 0.9647
7.1854 4.4751 -3.0016 0.9647
4.5712 7.1608 -3.0124 0.9646
3.9147 7.5372 -3.0116 0.9646
2.5147 8.1068 -3.0097 0.9646
0.9841 7.9903 -2.8547 0.9664
0.2690 8.0468 -2.8549 0.9664
-0.4482 8.0385 -2.8548 0.9664
-1.1617 7.9650 -2.8542 0.9664
-1.8652 7.8266 -2.8529 0.9664
-4.4821 6.6886 -2.8551 0.9664
-5.8695 6.0690 -2.9938 0.9648
-6.3836 5.5201 -2.9925 0.9648
-6.8467 4.9279 -2.9912 0.9648
-7.2552 4.2972 -2.9900 0.9648
-7.6059 3.6330 -2.9888 0.9649
-8.1240 2.2254 -2.9868 0.9649
-8.2874 1.4930 -2.9859 0.9649
-8.3852 0.7493 -2.9851 0.9649
-7.9943 0.0000 -2.9852 0.9664
-7.9612 -0.7114 -2.9846 0.9664
-6.4857 -4.6681 -2.9839 0.9665
-6.0450 -5.2273 -2.9842 0.9665
-5.5565 -5.7454 -2.9846 0.9664
-3.8435 -7.0136 -2.9864 0.9664
-2.5406 -7.5883 -2.9882 0.9664
-1.1557 -7.9241 -2.9902 0.9664
0.2678 -8.0097 -2.9926 0.9664
0.9800 -7.9574 -2.9938 0.9663
1.6851 -7.8420 -2.9951 0.9663
2.3604 -7.6093 -2.9750 0.9666
3.6504 -7.0282 -2.9573 0.9668
4.8465 -6.2798 -2.9621 0.9667
5.8934 -5.3303 -2.9672 0.9666
6.7572 -4.2084 -2.9726 0.9666
7.8289 -1.5913 -2.9832 0.9665
7.9461 -0.8889 -2.9857 0.9664
8.0002 -0.1783 -2.9881 0.9664
7.9904 0.5349 -2.9904 0.9664
7.7798 1.9459 -2.9946 0.9663
7.5804 2.6322 -2.9964 0.9663
7.3200 3.2983 -2.9980 0.9663
7.0008 3.9386 -2.9995 0.9663
5.7375 5.6739 -3.0131 0.9661
5.2088 6.1611 -3.0126 0.9661
4.6389 6.5989 -3.0120 0.9661
2.7284 7.5839 -3.0096 0.9662
2.0419 7.7941 -3.0086 0.9662
-0.0851 7.6416 -2.8536 0.9679
-0.7649 7.6027 -2.8532 0.9679
-2.0989 7.3404 -2.8509 0.9679
-2.7420 7.1195 -2.8489 0.9679
-4.7593 6.4593 -2.9960 0.9663
-5.8241 5.5084 -2.9934 0.9664
-7.0641 3.7695 -2.9899 0.9664
-7.9872 0.3562 -2.9855 0.9664
-7.3563 -3.1193 -2.9837 0.9665
-7.0495 -3.7617 -2.9837 0.9665
-6.6869 -4.3744 -2.9838 0.9665
-6.2717 -4.9526 -2.9840 0.9665
-5.8065 -5.4917 -2.9844 0.9665
-5.2955 -5.9877 -2.9848 0.9664
-4.7424 -6.4364 -2.9854 0.9664
-4.1517 -6.8345 -2.9861 0.9664
-0.0893 -8.0120 -2.9920 0.9664
0.6245 -7.9915 -2.9932 0.9664
1.3338 -7.9075 -2.9945 0.9663
2.0310 -7.7523 -2.9925 0.9664
3.3324 -7.1811 -2.9562 0.9668
6.1277 -5.0647 -2.9686 0.9666
6.9411 -3.9050 -2.9739 0.9666
7.2677 -3.2747 -2.9766 0.9665
7.5371 -2.6172 -2.9793 0.9665
7.8954 -1.2415 -2.9844 0.9665
7.9811 -0.5343 -2.9869 0.9664
7.9616 0.8907 -2.9915 0.9664
7.8562 1.5968 -2.9936 0.9663
7.1676 3.6220 -2.9988 0.9663
6.8298 4.2539 -3.0045 0.9662
2.3875 7.6966 -3.0091 0.9662
0.2553 7.6379 -2.8537 0.9679
-0.4254 7.6299 -2.8535 0.9679
-1.1026 7.5600 -2.8529 0.9679
-3.6624 6.6829 -2.8456 0.9680
-4.4611 6.6565 -2.9922 0.9664
-5.5741 5.7636 -2.9940 0.9663
-6.0624 5.2424 -2.9928 0.9664
-6.8904 4.0812 -2.9904 0.9664
-7.7160 2.1136 -2.9874 0.9664
-7.9643 0.7117 -2.9858 0.9664
-7.5763 -0.6770 -2.9853 0.9678
-7.4850 -1.3485 -2.9849 0.9678
-7.1262 -2.6538 -2.9845 0.9679
-6.8615 -3.2775 -2.9844 0.9679
-6.5427 -3.8752 -2.9844 0.9679
-6.1722 -4.4424 -2.9846 0.9679
-5.7528 -4.9746 -2.9849 0.9678
-4.7810 -5.9175 -2.9857 0.9678
-3.0499 -6.9752 -2.9878 0.9678
-0.4244 -7.6110 -2.9917 0.9678
1.6034 -7.4616 -2.9953 0.9677
2.2584 -7.2805 -2.9917 0.9678
2.8708 -6.9856 -2.9641 0.9681
4.6120 -5.9759 -2.9626 0.9681
5.1297 -5.5462 -2.9650 0.9681
5.6077 -5.0719 -2.9675 0.9680
6.4291 -4.0041 -2.9726 0.9680
7.0493 -2.8056 -2.9777 0.9679
7.2771 -2.1688 -2.9802 0.9679
7.4475 -1.5138 -2.9827 0.9679
7.6098 -0.1696 -2.9874 0.9678
7.5299 1.1840 -2.9916 0.9678
7.2095 2.5034 -2.9952 0.9677
6.6660 3.7503 -3.0018 0.9677
6.3293 4.3448 -3.0130 0.9675
5.9170 4.8905 -3.0128 0.9676
4.9548 5.8605 -3.0120 0.9676
4.4126 6.2771 -3.0114 0.9676
0.5763 7.3747 -2.9032 0.9687
-0.7274 7.2304 -2.8520 0.9693
-1.9962 6.9813 -2.8498 0.9693
-2.6080 6.7716 -2.8479 0.9693
-3.9650 6.5273 -2.9974 0.9677
-4.5283 6.1459 -2.9961 0.9677
-5.5417 5.2413 -2.9936 0.9678
-6.3783 4.1725 -2.9914 0.9678
-6.7220 3.5870 -2.9903 0.9678
-7.0122 2.9734 -2.9893 0.9678
-7.5423 1.0143 -2.9868 0.9678
-7.5996 -0.3389 -2.9856 0.9678
-7.5381 -1.0138 -2.9851 0.9678
-7.4171 -1.6805 -2.9848 0.9678
-7.2375 -2.3338 -2.9845 0.9679
-7.0008 -2.9686 -2.9844 0.9679
-6.3637 -4.1629 -2.9845 0.9679
-5.0394 -5.6982 -2.9855 0.9678
-4.5131 -6.1252 -2.9860 0.9678
-3.3571 -6.8315 -2.9874 0.9678
-2.7365 -7.1051 -2.9882 0.9678
0.5942 -7.6040 -2.9935 0.9678
1.2691 -7.5240 -2.9947 0.9677
2.5654 -7.1305 -2.9741 0.9680
3.7699 -6.5296 -2.9592 0.9681
4.3395 -6.1729 -2.9614 0.9681
4.8756 -5.7668 -2.9638 0.9681
5.3739 -5.3144 -2.9663 0.9680
6.9143 -3.1154 -2.9764 0.9679
7.5105 -1.1810 -2.9839 0.9679
7.5918 -0.5082 -2.9862 0.9678
7.6126 0.1696 -2.9885 0.9678
7.3117 2.1791 -2.9944 0.9677
6.5168 4.0587 -3.0131 0.9675
4.6884 6.0749 -3.0117 0.9676
2.9147 7.0925 -3.0095 0.9676
2.2712 7.3216 -3.0086 0.9676
0.2429 7.2646 -2.8527 0.9692
-2.9060 6.6462 -2.8469 0.9693
-4.2510 6.3429 -2.9967 0.9677
-5.3038 5.4841 -2.9943 0.9677
-5.7685 4.9883 -2.9931 0.9678
-6.1873 4.4533 -2.9919 0.9678
-6.5567 3.8835 -2.9908 0.9678
-6.8740 3.2834 -2.9898 0.9678
-7.1366 2.6577 -2.9888 0.9678
-7.3426 2.0114 -2.9879 0.9678
-7.4905 1.3495 -2.9871 0.9678
-7.5791 0.6773 -2.9864 0.9678
-7.2525 -0.0000 -2.9864 0.9691
-6.9921 -1.9153 -2.9853 0.9691
-6.2373 -3.6943 -2.9851 0.9691
-5.4842 -4.7424 -2.9855 0.9691
-5.0409 -5.2123 -2.9859 0.9691
-4.0383 -6.0256 -2.9869 0.9691
-2.9073 -6.6492 -2.9883 0.9691
-1.6833 -7.0634 -2.9901 0.9691
-0.4045 -7.2549 -2.9921 0.9691
0.2429 -7.2647 -2.9932 0.9690
2.1561 -6.9506 -2.9967 0.9690
3.3167 -6.3858 -2.9631 0.9694
4.3964 -5.6966 -2.9631 0.9694
4.8898 -5.2868 -2.9654 0.9693
6.1276 -3.8163 -2.9726 0.9693
6.7182 -2.6738 -2.9775 0.9692
6.9351 -2.0669 -2.9799 0.9692
7.0971 -1.4425 -2.9822 0.9692
7.2028 -0.8058 -2.9845 0.9691
7.2513 -0.1616 -2.9867 0.9691
7.1747 1.1282 -2.9907 0.9691
7.0501 1.7633 -2.9925 0.9691
6.6327 2.9886 -2.9957 0.9690
6.3760 3.5871 -3.0125 0.9688
6.0311 4.1402 -3.0124 0.9688
5.6383 4.6602 -3.0121 0.9689
5.2005 5.1429 -3.0118 0.9689
3.0763 6.6293 -3.0094 0.9689
0.5686 7.2771 -3.0057 0.9689
-0.0774 6.9491 -2.8617 0.9704
-1.3030 6.7976 -2.8501 0.9705
-2.4853 6.4529 -2.8474 0.9705
-4.3161 5.8579 -2.9962 0.9690
-5.2823 4.9959 -2.9939 0.9690
-6.0799 3.9773 -2.9917 0.9691
-6.4076 3.4192 -2.9907 0.9691
-7.1899 0.9670 -2.9873 0.9691
-7.2447 -0.3230 -2.9862 0.9691
-7.0708 -1.6020 -2.9854 0.9691
-6.8996 -2.2248 -2.9852 0.9691
-6.3956 -3.4128 -2.9851 0.9691
-5.2678 -4.9822 -2.9857 0.9691
-4.8041 -5.4321 -2.9861 0.9691
-3.7663 -6.2001 -2.9872 0.9691
-2.6086 -6.7730 -2.9887 0.9691
-1.3672 -7.1326 -2.9905 0.9691
-0.7272 -7.2284 -2.9915 0.9691
-0.0810 -7.2670 -2.9926 0.9691
2.4593 -6.8357 -2.9914 0.9691
4.1367 -5.8845 -2.9620 0.9694
5.1225 -5.0657 -2.9666 0.9693
5.5575 -4.5934 -2.9690 0.9693
5.9491 -4.0838 -2.9714 0.9693
6.2942 -3.5410 -2.9738 0.9692
6.5897 -2.9692 -2.9763 0.9692
7.1571 -1.1254 -2.9834 0.9691
7.2342 -0.4843 -2.9856 0.9691
7.2538 0.1617 -2.9877 0.9691
7.2155 0.8072 -2.9897 0.9691
5.8405 4.4046 -3.0123 0.9689
5.4248 4.9064 -3.0120 0.9689
3.9338 6.1623 -3.0105 0.9689
3.3690 6.4864 -3.0098 0.9689
0.8924 7.2458 -3.0062 0.9689
-0.3855 6.9137 -2.8514 0.9705
-1.6042 6.7314 -2.8495 0.9705
-4.0517 6.0456 -2.9968 0.9690
-5.0554 5.2273 -2.9945 0.9690
-5.4985 4.7547 -2.9933 0.9690
-5.8977 4.2450 -2.9922 0.9691
-6.2500 3.7019 -2.9912 0.9691
-6.8961 -0.6162 -2.9865 0.9703
-6.8130 -1.2274 -2.9862 0.9703
-6.6762 -1.8288 -2.9859 0.9703
-6.2457 -2.9833 -2.9857 0.9703
-4.8131 -4.9767 -2.9865 0.9703
-2.2004 -6.5721 -2.9896 0.9703
-1.6071 -6.7438 -2.9904 0.9703
2.0583 -6.6353 -2.9968 0.9702
2.6362 -6.4149 -2.9917 0.9702
3.1707 -6.1047 -2.9673 0.9705
3.6950 -5.7882 -2.9622 0.9705
4.1975 -5.4389 -2.9635 0.9705
4.6684 -5.0474 -2.9657 0.9705
5.4978 -4.1461 -2.9703 0.9704
5.8496 -3.6431 -2.9726 0.9704
6.4128 -2.5523 -2.9773 0.9704
6.7740 -1.3769 -2.9818 0.9703
6.8747 -0.7690 -2.9840 0.9703
6.9116 0.4627 -2.9880 0.9703
6.8472 1.0767 -2.9899 0.9703
6.5551 2.2762 -2.9932 0.9702
2.9362 6.3274 -3.0089 0.9701
2.3608 6.5619 -3.0081 0.9701
1.7669 6.7441 -3.0073 0.9701
1.1592 6.8725 -3.0064 0.9701
-0.6706 6.6655 -2.8897 0.9712
-1.8347 6.4162 -2.8786 0.9713
-2.4657 6.4020 -2.9593 0.9706
-3.0660 6.2391 -2.9987 0.9702
-4.1204 5.5923 -2.9963 0.9702
-4.6001 5.2014 -2.9952 0.9702
-5.0429 4.7695 -2.9941 0.9702
-5.4455 4.3002 -2.9930 0.9702
-5.8046 3.7972 -2.9920 0.9702
-6.9184 0.3085 -2.9873 0.9703
-6.9172 -0.3084 -2.9867 0.9703
-6.8613 -0.9228 -2.9863 0.9703
-6.7513 -1.5296 -2.9860 0.9703
-6.5879 -2.1243 -2.9858 0.9703
-6.1066 -3.2586 -2.9857 0.9703
-5.7925 -3.7893 -2.9858 0.9703
-5.0297 -4.7570 -2.9863 0.9703
-3.5960 -5.9198 -2.9878 0.9703
-2.4906 -6.4666 -2.9892 0.9703
-1.9057 -6.6645 -2.9900 0.9703
-1.3053 -6.8097 -2.9909 0.9702
-0.6943 -6.9011 -2.9919 0.9702
0.5407 -6.9196 -2.9939 0.9702
2.3523 -6.5383 -2.9973 0.9702
4.8905 -4.8363 -2.9669 0.9705
5.3056 -4.3852 -2.9691 0.9705
5.6792 -3.8986 -2.9715 0.9704
6.2903 -2.8343 -2.9761 0.9704
6.7035 -1.6767 -2.9807 0.9703
6.9230 0.1543 -2.9871 0.9703
6.8863 0.7704 -2.9890 0.9703
6.7945 1.3810 -2.9908 0.9702
6.6483 1.9814 -2.9924 0.9702
6.4502 2.5675 -2.9945 0.9702
6.2319 3.1491 -3.0119 0.9700
5.9267 3.6912 -3.0118 0.9700
5.5743 4.2038 -3.0116 0.9700
5.1776 4.6828 -3.0114 0.9700
3.7546 5.8816 -3.0099 0.9701
3.2155 6.1910 -3.0093 0.9701
2.6511 6.4511 -3.0085 0.9701
0.2328 6.9622 -3.0049 0.9701
-0.9590 6.5755 -2.8664 0.9715
-1.5382 6.4544 -2.8621 0.9715
-2.1427 6.3999 -2.9113 0.9710
-2.7856 6.3707 -2.9993 0.9702
-3.8680 5.7714 -2.9969 0.9702
-4.3646 5.4021 -2.9958 0.9702
-4.8263 4.9904 -2.9947 0.9702
-5.9670 3.5343 -2.9915 0.9702
-6.2559 2.9882 -2.9906 0.9702
-6.4952 2.4188 -2.9897 0.9703
-6.6829 1.8306 -2.9889 0.9703
-6.6210 0.0000 -2.9875 0.9714
-6.5144 -1.1736 -2.9867 0.9714
-6.3835 -1.7486 -2.9865 0.9714
-5.9719 -2.8525 -2.9863 0.9714
-5.6944 -3.3728 -2.9863 0.9714
-5.3719 -3.8664 -2.9864 0.9714
-4.6021 -4.7585 -2.9870 0.9714
-4.1609 -5.1500 -2.9874 0.9714
-3.6866 -5.5008 -2.9879 0.9714
-3.1830 -5.8083 -2.9885 0.9714
-2.1038 -6.2837 -2.9900 0.9713
-1.5366 -6.4477 -2.9908 0.9713
-0.9569 -6.5609 -2.9917 0.9713
-0.3693 -6.6221 -2.9926 0.9713
0.8113 -6.5871 -2.9947 0.9713
1.3948 -6.4911 -2.9957 0.9713
1.9678 -6.3435 -2.9968 0.9713
2.5255 -6.1454 -2.9979 0.9713
4.8787 -4.4126 -2.9682 0.9715
5.2560 -3.9637 -2.9704 0.9715
5.5921 -3.4828 -2.9726 0.9715
6.1302 -2.4398 -2.9771 0.9715
6.5711 -0.7351 -2.9835 0.9714
6.6148 -0.1474 -2.9855 0.9714
6.6059 0.4422 -2.9874 0.9714
6.5442 1.0291 -2.9891 0.9713
6.4302 1.6083 -2.9908 0.9713
6.2682 2.1766 -2.9940 0.9713
6.0844 2.7415 -3.0112 0.9711
5.8164 3.2723 -3.0113 0.9711
5.1435 4.2512 -3.0110 0.9711
2.2566 6.2722 -3.0077 0.9712
1.6889 6.4464 -3.0069 0.9712
0.5188 6.6397 -3.0051 0.9712
-0.0742 6.6573 -3.0041 0.9712
-0.6662 6.6220 -3.0031 0.9712
-1.8283 6.3939 -3.0007 0.9712
-2.9311 5.9645 -2.9987 0.9713
-3.4490 5.6778 -2.9976 0.9713
-5.2062 4.1113 -2.9933 0.9713
-5.5497 3.6304 -2.9923 0.9713
-6.1017 2.5874 -2.9905 0.9713
-6.4605 1.4638 -2.9890 0.9713
-6.6150 0.2950 -2.9878 0.9714
-6.5605 -0.8823 -2.9869 0.9714
-6.4553 -1.4626 -2.9866 0.9714
-5.8389 -3.1158 -2.9863 0.9714
-5.5386 -3.6232 -2.9864 0.9714
-4.8092 -4.5485 -2.9868 0.9714
-4.3859 -4.9592 -2.9872 0.9714
-3.4383 -5.6601 -2.9882 0.9714
-1.8220 -6.3720 -2.9904 0.9713
0.5169 -6.6156 -2.9942 0.9713
1.1041 -6.5456 -2.9952 0.9713
1.6829 -6.4237 -2.9963 0.9713
2.2488 -6.2507 -2.9974 0.9713
2.7915 -6.0155 -2.9923 0.9713
3.2900 -5.6985 -2.9691 0.9715
3.7788 -5.3754 -2.9648 0.9716
5.0723 -4.1924 -2.9693 0.9715
6.0132 -2.7094 -2.9760 0.9715
6.4077 -1.6027 -2.9803 0.9714
6.5295 -1.0267 -2.9824 0.9714
6.5995 -0.4418 -2.9845 0.9714
6.5816 0.7363 -2.9883 0.9714
6.4937 1.3199 -2.9900 0.9713
6.3538 1.8936 -2.9916 0.9713
5.9564 3.0099 -3.0113 0.9711
5.3280 4.0180 -3.0111 0.9711
4.0757 5.2810 -3.0100 0.9712
3.0735 5.9177 -3.0088 0.9712
2.5340 6.1662 -3.0081 0.9712
-0.3706 6.6463 -3.0036 0.9712
-3.6978 5.5175 -2.9970 0.9713
-5.7050 3.3791 -2.9918 0.9713
-6.2101 2.3127 -2.9901 0.9713
-6.3896 1.7503 -2.9893 0.9713
-6.5186 1.1744 -2.9886 0.9714
-6.5959 0.5894 -2.9880 0.9714
-6.2368 -1.1236 -2.9872 0.9724
-6.1116 -1.6741 -2.9870 0.9724
-5.9380 -2.2113 -2.9868 0.9724
-5.7175 -2.7310 -2.9868 0.9724
-5.1430 -3.7017 -2.9870 0.9724
-3.9836 -4.9305 -2.9879 0.9724
-2.0141 -6.0157 -2.9904 0.9723
-0.9160 -6.2809 -2.9920 0.9723
0.7766 -6.3058 -2.9948 0.9723
1.3352 -6.2137 -2.9959 0.9723
2.4175 -5.8827 -2.9980 0.9723
2.9270 -5.6356 -2.9934 0.9723
3.8462 -4.9836 -2.9674 0.9725
4.2729 -4.6198 -2.9663 0.9726
4.6704 -4.2241 -2.9684 0.9725
5.3530 -3.3339 -2.9726 0.9725
5.6325 -2.8462 -2.9748 0.9725
5.8677 -2.3353 -2.9769 0.9725
6.1974 -1.2597 -2.9810 0.9724
6.3220 0.4232 -2.9867 0.9724
6.2629 0.9848 -2.9884 0.9724
6.1536 1.5391 -2.9900 0.9723
5.8233 2.6239 -3.0108 0.9722
4.1223 4.8759 -3.0097 0.9722
1.6164 6.1700 -3.0066 0.9722
1.0606 6.2876 -3.0057 0.9722
0.4966 6.3552 -3.0048 0.9722
-1.1989 6.2544 -3.0018 0.9722
-1.7502 6.1207 -3.0008 0.9722
-2.8057 5.7094 -2.9987 0.9723
-3.3015 5.4351 -2.9976 0.9723
-4.9839 3.9358 -2.9935 0.9723
-5.5994 2.9879 -2.9917 0.9723
-5.8415 2.4770 -2.9909 0.9723
-6.0372 1.9467 -2.9901 0.9723
-6.1851 1.4014 -2.9894 0.9723
-6.3321 -0.2823 -2.9878 0.9724
-6.0308 -1.9447 -2.9869 0.9724
-5.8336 -2.4736 -2.9868 0.9724
-5.5902 -2.9830 -2.9868 0.9724
-5.3027 -3.4688 -2.9869 0.9724
-4.9732 -3.9273 -2.9871 0.9724
-4.6043 -4.3547 -2.9873 0.9724
-4.1990 -4.7478 -2.9877 0.9724
-3.2917 -5.4189 -2.9887 0.9724
-2.7969 -5.6915 -2.9893 0.9723
-2.2798 -5.9192 -2.9900 0.9723
-1.1948 -6.2330 -2.9916 0.9723
1.0569 -6.2660 -2.9954 0.9723
2.1527 -5.9835 -2.9974 0.9723
3.1614 -5.4756 -2.9804 0.9724
5.1973 -3.5677 -2.9716 0.9725
5.7558 -2.5934 -2.9758 0.9725
5.9680 -2.0723 -2.9779 0.9724
6.1330 -1.5340 -2.9800 0.9724
6.2494 -0.9827 -2.9820 0.9724
6.3162 -0.4228 -2.9840 0.9724
6.2144 1.2631 -2.9892 0.9723
5.7007 2.8807 -3.0108 0.9722
4.7363 4.2837 -3.0103 0.9722
4.3357 4.6878 -3.0099 0.9722
3.9007 5.0543 -3.0095 0.9722
3.4348 5.3805 -3.0090 0.9722
2.4253 5.9018 -3.0077 0.9722
1.3398 6.2350 -3.0061 0.9722
0.2130 6.3700 -3.0043 0.9722
-0.9192 6.3027 -3.0024 0.9722
-4.4171 4.5672 -2.9950 0.9723
-4.8045 4.1546 -2.9940 0.9723
-5.1535 3.7093 -2.9930 0.9723
-6.1172 1.6757 -2.9897 0.9723
-6.0758 0.0000 -2.9884 0.9733
-5.4804 -2.6178 -2.9873 0.9733
-5.2257 -3.0952 -2.9873 0.9733
-4.9297 -3.5482 -2.9874 0.9733
-3.3831 -5.0478 -2.9888 0.9733
-2.9209 -5.3299 -2.9894 0.9733
-1.9304 -5.7659 -2.9907 0.9733
-1.4099 -5.9163 -2.9915 0.9733
-0.8780 -6.0200 -2.9923 0.9732
1.8053 -5.8197 -2.9970 0.9732
2.8104 -5.4111 -2.9990 0.9732
4.0978 -4.4305 -2.9683 0.9735
4.4762 -4.0485 -2.9686 0.9735
5.1301 -3.1951 -2.9727 0.9734
5.3979 -2.7277 -2.9747 0.9734
5.6231 -2.2379 -2.9767 0.9734
5.8038 -1.7297 -2.9787 0.9734
5.9387 -1.2071 -2.9807 0.9733
6.0577 0.4055 -2.9862 0.9733
6.0008 0.9436 -2.9878 0.9733
5.9036 1.4766 -2.9932 0.9732
5.7814 2.0075 -3.0102 0.9731
5.3340 3.0009 -3.0102 0.9731
5.0456 3.4636 -3.0101 0.9731
4.3508 4.3026 -3.0096 0.9731
3.9501 4.6722 -3.0093 0.9731
3.5180 5.0045 -3.0088 0.9731
0.4759 6.0901 -3.0046 0.9731
-1.1489 5.9938 -3.0017 0.9732
-1.6773 5.8658 -3.0007 0.9732
-3.1641 5.2089 -2.9977 0.9732
-3.6140 4.9049 -2.9966 0.9732
-4.0349 4.5623 -2.9956 0.9732
-4.4235 4.1837 -2.9947 0.9732
-5.3668 2.8638 -2.9920 0.9732
-6.0703 0.2707 -2.9887 0.9733
-6.0694 -0.2706 -2.9882 0.9733
-5.9240 -1.3422 -2.9876 0.9733
-5.7806 -1.8640 -2.9874 0.9733
-5.5916 -2.3710 -2.9873 0.9733
-5.0827 -3.3250 -2.9874 0.9733
-4.4133 -4.1741 -2.9878 0.9733
-3.6043 -4.8917 -2.9886 0.9733
-3.1551 -5.1940 -2.9891 0.9733
-2.6808 -5.4553 -2.9897 0.9733
-2.1851 -5.6735 -2.9903 0.9733
-1.6719 -5.8469 -2.9911 0.9733
-1.1451 -5.9740 -2.9919 0.9732
-0.0678 -6.0860 -2.9936 0.9732
0.4743 -6.0697 -2.9945 0.9732
1.0130 -6.0054 -2.9955 0.9732
1.5440 -5.8933 -2.9965 0.9732
2.5662 -5.5300 -2.9985 0.9732
3.0445 -5.2732 -2.9949 0.9732
3.4779 -4.9474 -2.9745 0.9734
4.2900 -4.2425 -2.9676 0.9735
5.2692 -2.9644 -2.9737 0.9734
5.8771 -1.4700 -2.9797 0.9734
6.0523 -0.4051 -2.9835 0.9733
6.0352 0.6752 -2.9870 0.9733
5.8466 1.7425 -3.0007 0.9732
5.1949 3.2354 -3.0102 0.9731
4.5384 4.1047 -3.0098 0.9731
4.1546 4.4919 -3.0095 0.9731
3.2913 5.1558 -3.0086 0.9731
2.8188 5.4272 -3.0080 0.9731
0.7468 6.0637 -3.0050 0.9731
-1.4145 5.9356 -3.0012 0.9732
-1.9366 5.7842 -3.0002 0.9732
-2.9295 5.3456 -2.9982 0.9732
-4.9393 3.5551 -2.9933 0.9732
-5.2346 3.1005 -2.9924 0.9732
-5.4884 2.6216 -2.9916 0.9733
-5.6984 2.1221 -2.9908 0.9733
-5.9817 1.0776 -2.9895 0.9733
-6.0527 0.5409 -2.9889 0.9733
-5.8300 0.0000 -2.9888 0.9741
-5.8061 -0.5188 -2.9885 0.9741
-5.4615 -2.0339 -2.9878 0.9741
-4.0524 -4.1901 -2.9884 0.9741
-1.8523 -5.5324 -2.9910 0.9741
-1.3528 -5.6767 -2.9918 0.9741
-0.8424 -5.7761 -2.9925 0.9741
-0.3251 -5.8297 -2.9934 0.9741
0.1952 -5.8372 -2.9942 0.9741
2.2228 -5.4089 -2.9980 0.9741
3.9368 -4.2565 -2.9724 0.9743
4.2966 -3.8861 -2.9701 0.9743
4.9219 -3.0654 -2.9727 0.9743
5.1786 -2.6168 -2.9746 0.9743
5.3945 -2.1470 -2.9766 0.9742
5.5677 -1.6594 -2.9785 0.9742
5.7809 -0.6467 -2.9822 0.9742
5.8190 -0.1297 -2.9840 0.9742
5.7622 0.9061 -2.9904 0.9741
5.6831 1.4215 -3.0033 0.9740
5.3526 2.4118 -3.0098 0.9740
4.8399 3.3224 -3.0097 0.9740
4.1735 4.1273 -3.0092 0.9740
3.7892 4.4819 -3.0088 0.9740
3.3747 4.8006 -3.0084 0.9740
2.4692 5.3210 -3.0073 0.9740
1.9854 5.5184 -3.0066 0.9740
1.4859 5.6719 -3.0059 0.9740
0.9750 5.7801 -3.0051 0.9740
0.4565 5.8423 -3.0043 0.9740
-0.0653 5.8581 -3.0034 0.9740
-0.5862 5.8272 -3.0025 0.9740
-1.1022 5.7501 -3.0016 0.9740
-1.6091 5.6274 -3.0006 0.9740
-2.5797 5.2495 -2.9987 0.9741
-3.0357 4.9975 -2.9977 0.9741
-4.2441 4.0140 -2.9948 0.9741
-4.5831 3.6193 -2.9939 0.9741
-4.8857 3.1961 -2.9931 0.9741
-5.1494 2.7478 -2.9923 0.9741
-5.7793 0.7773 -2.9896 0.9741
-5.8238 -0.2597 -2.9886 0.9741
-5.7769 -0.7769 -2.9883 0.9741
-4.8771 -3.1905 -2.9878 0.9741
-3.4584 -4.6937 -2.9890 0.9741
-2.5723 -5.2344 -2.9901 0.9741
-0.0651 -5.8393 -2.9938 0.9741
0.4550 -5.8236 -2.9947 0.9741
0.9719 -5.7618 -2.9956 0.9741
2.4620 -5.3054 -2.9985 0.9741
4.1210 -4.0753 -2.9713 0.9743
4.4650 -3.6904 -2.9697 0.9743
5.0552 -2.8440 -2.9736 0.9743
5.4865 -1.9051 -2.9775 0.9742
5.8057 -0.3886 -2.9831 0.9742
5.8206 0.1297 -2.9848 0.9742
5.7220 1.1631 -2.9935 0.9741
5.4546 2.1709 -3.0098 0.9740
5.2398 2.6478 -3.0098 0.9740
3.1573 4.9458 -3.0082 0.9740
2.7040 5.2062 -3.0076 0.9740
2.2295 5.4251 -3.0070 0.9740
1.2317 5.7317 -3.0055 0.9740
-0.3261 5.8485 -3.0030 0.9740
-0.8451 5.7945 -3.0021 0.9740
-1.8579 5.5493 -3.0001 0.9740
-2.8105 5.1286 -2.9982 0.9741
-3.2548 4.8565 -2.9972 0.9741
-4.7392 3.4110 -2.9935 0.9741
-5.0225 2.9748 -2.9927 0.9741
-5.6259 1.5411 -2.9905 0.9741
-5.7395 1.0340 -2.9898 0.9741
-5.5995 0.0000 -2.9892 0.9749
-5.5765 -0.4983 -2.9889 0.9749
-5.2456 -1.9535 -2.9882 0.9749
-5.0509 -2.4126 -2.9882 0.9749
-4.5433 -3.2701 -2.9883 0.9749
-4.2345 -3.6617 -2.9885 0.9749
-3.8922 -4.0244 -2.9888 0.9749
-3.5189 -4.3554 -2.9892 0.9749
-2.6918 -4.9119 -2.9901 0.9749
-2.2444 -5.1330 -2.9907 0.9749
-1.2993 -5.4520 -2.9920 0.9749
-0.8091 -5.5474 -2.9928 0.9749
-0.3122 -5.5989 -2.9936 0.9749
0.1874 -5.6060 -2.9944 0.9749
1.1791 -5.4873 -2.9962 0.9749
2.5894 -4.9854 -2.9990 0.9748
3.4255 -4.4386 -2.9931 0.9749
4.1317 -3.7370 -2.9741 0.9751
4.4458 -3.3528 -2.9726 0.9751
4.7267 -2.9438 -2.9727 0.9751
4.9731 -2.5130 -2.9746 0.9751
5.1803 -2.0617 -2.9764 0.9750
5.4704 -1.1119 -2.9801 0.9750
5.5509 -0.6210 -2.9818 0.9750
5.5873 -0.1245 -2.9835 0.9750
5.5854 0.3739 -2.9884 0.9749
5.5449 0.8719 -2.9965 0.9749
5.4683 1.3677 -3.0091 0.9748
5.3251 1.8491 -3.0093 0.9748
5.1395 2.3158 -3.0093 0.9748
4.9130 2.7640 -3.0093 0.9748
4.6473 3.1902 -3.0092 0.9748
3.2404 4.6096 -3.0080 0.9748
2.3710 5.1093 -3.0070 0.9748
1.9064 5.2990 -3.0063 0.9748
1.4269 5.4464 -3.0056 0.9748
0.9362 5.5504 -3.0049 0.9748
0.4384 5.6102 -3.0041 0.9748
-0.0627 5.6254 -3.0033 0.9748
-0.5630 5.5959 -3.0024 0.9748
-1.0585 5.5219 -3.0015 0.9748
-1.5453 5.4041 -3.0006 0.9748
-2.0195 5.2435 -2.9996 0.9748
-2.4774 5.0413 -2.9987 0.9749
-3.3299 4.5194 -2.9968 0.9749
-3.7178 4.2038 -2.9959 0.9749
-4.0760 3.8550 -2.9950 0.9749
-4.4016 3.4759 -2.9941 0.9749
-4.6923 3.0695 -2.9933 0.9749
-5.4633 1.2378 -2.9905 0.9749
-5.5508 0.7465 -2.9899 0.9749
-5.5485 -0.7462 -2.9887 0.9749
-5.3276 -1.7179 -2.9883 0.9749
-5.1534 -2.1852 -2.9882 0.9749
-4.9384 -2.6352 -2.9882 0.9749
-4.6844 -3.0644 -2.9883 0.9749
-2.4705 -5.0274 -2.9904 0.9749
-2.0137 -5.2284 -2.9910 0.9749
-1.5407 -5.3881 -2.9917 0.9749
-0.0625 -5.6080 -2.9940 0.9749
0.4370 -5.5929 -2.9949 0.9749
0.9334 -5.5335 -2.9957 0.9749
1.4226 -5.4301 -2.9967 0.9749
2.8093 -4.8659 -2.9995 0.9748
3.2306 -4.5956 -2.9988 0.9749
3.6087 -4.2684 -2.9839 0.9750
5.4139 -1.3541 -2.9792 0.9750
5.5162 -0.8674 -2.9810 0.9750
5.5921 0.1246 -2.9861 0.9750
5.4021 1.6100 -3.0092 0.9748
5.2375 2.0845 -3.0093 0.9748
4.1802 3.7808 -3.0089 0.9748
3.4428 4.4610 -3.0082 0.9748
2.5965 4.9991 -3.0072 0.9748
2.1408 5.2093 -3.0066 0.9748
1.1827 5.5039 -3.0053 0.9748
0.1880 5.6234 -3.0037 0.9748
-0.3132 5.6162 -3.0028 0.9748
-2.2507 5.1475 -2.9992 0.9748
-2.6991 4.9252 -2.9982 0.9749
-3.1258 4.6640 -2.9973 0.9749
-3.5274 4.3659 -2.9963 0.9749
-4.2431 3.6691 -2.9946 0.9749
-4.5515 3.2760 -2.9937 0.9749
-4.8237 2.8571 -2.9929 0.9749
-5.0575 2.4158 -2.9921 0.9749
-5.2513 1.9556 -2.9914 0.9749
-5.4033 1.4801 -2.9908 0.9749
-5.5125 0.9931 -2.9902 0.9749
-5.5781 0.4985 -2.9897 0.9749
-5.1901 -1.4217 -2.9888 0.9757
-5.0428 -1.8779 -2.9886 0.9757
-4.6299 -2.7423 -2.9886 0.9757
-4.0707 -3.5201 -2.9889 0.9757
-3.7416 -3.8688 -2.9892 0.9757
-3.3828 -4.1869 -2.9895 0.9757
-2.9972 -4.4720 -2.9900 0.9757
-2.5876 -4.7218 -2.9904 0.9757
-2.1575 -4.9343 -2.9910 0.9757
-0.7777 -5.3326 -2.9930 0.9756
-0.3001 -5.3820 -2.9938 0.9756
0.1802 -5.3888 -2.9946 0.9756
1.5988 -5.1542 -2.9972 0.9756
2.4889 -4.7919 -2.9990 0.9756
2.9064 -4.5528 -2.9999 0.9756
3.3010 -4.2773 -3.0008 0.9756
3.6560 -3.9528 -2.9905 0.9757
3.9773 -3.5973 -2.9785 0.9758
4.7820 -2.4164 -2.9757 0.9758
5.1387 -1.5315 -2.9781 0.9758
5.3769 -0.1201 -2.9871 0.9757
5.3777 0.3600 -2.9934 0.9756
5.3499 0.8413 -3.0078 0.9755
5.1178 1.7771 -3.0089 0.9755
3.8514 3.8088 -3.0084 0.9755
2.2787 4.9105 -3.0066 0.9755
1.3714 5.2346 -3.0054 0.9755
0.8998 5.3346 -3.0046 0.9756
0.4213 5.3921 -3.0039 0.9756
-0.5411 5.3784 -3.0022 0.9756
-2.3813 4.8457 -2.9987 0.9756
-3.2008 4.3441 -2.9969 0.9756
-4.5105 2.9506 -2.9935 0.9756
-4.7540 2.5368 -2.9928 0.9756
-5.3360 0.7176 -2.9903 0.9757
-5.3339 -0.7173 -2.9891 0.9757
-5.1215 -1.6514 -2.9887 0.9757
-4.9540 -2.1007 -2.9886 0.9757
-4.5032 -2.9458 -2.9887 0.9757
-4.2234 -3.3351 -2.9888 0.9757
-3.9101 -3.6981 -2.9891 0.9757
-2.7952 -4.6014 -2.9902 0.9757
-2.3749 -4.8328 -2.9907 0.9757
-1.9358 -5.0260 -2.9913 0.9757
-1.4810 -5.1795 -2.9919 0.9757
-1.0144 -5.2920 -2.9926 0.9756
0.8972 -5.3190 -2.9959 0.9756
1.3674 -5.2195 -2.9967 0.9756
2.2726 -4.8973 -2.9985 0.9756
3.4841 -4.1209 -2.9971 0.9756
4.1310 -3.4144 -2.9766 0.9758
4.4176 -3.0325 -2.9760 0.9758
4.8852 -2.2012 -2.9759 0.9758
5.3803 0.1199 -2.9890 0.9757
5.3709 0.6008 -3.0016 0.9756
5.3085 1.0790 -3.0086 0.9755
4.8353 2.4434 -3.0089 0.9755
4.5986 2.8640 -3.0089 0.9755
4.0175 3.6336 -3.0085 0.9755
3.6777 3.9763 -3.0082 0.9755
2.4954 4.8046 -3.0069 0.9755
2.0575 5.0067 -3.0063 0.9755
1.1367 5.2898 -3.0050 0.9755
0.6612 5.3687 -3.0043 0.9756
0.1807 5.4048 -3.0035 0.9756
-0.3010 5.3980 -3.0027 0.9756
-1.2526 5.2561 -3.0009 0.9756
-1.7149 5.1222 -3.0000 0.9756
-2.1634 4.9477 -2.9991 0.9756
-3.0045 4.4831 -2.9973 0.9756
-4.8617 2.3222 -2.9924 0.9756
-5.2992 0.9547 -2.9905 0.9757
-5.1787 0.0000 -2.9899 0.9764
-4.9934 -1.3678 -2.9891 0.9764
-4.8516 -1.8067 -2.9890 0.9764
-4.4544 -2.6383 -2.9890 0.9764
-4.2020 -3.0244 -2.9891 0.9764
-3.5998 -3.7221 -2.9896 0.9764
-2.4895 -4.5427 -2.9908 0.9764
-1.2016 -5.0420 -2.9925 0.9763
-0.7482 -5.1301 -2.9932 0.9763
1.0904 -5.0741 -2.9964 0.9763
1.5381 -4.9583 -2.9972 0.9763
2.7958 -4.3796 -2.9999 0.9763
3.1754 -4.1146 -3.0007 0.9763
3.5286 -3.8151 -3.0004 0.9763
3.8423 -3.4752 -2.9911 0.9764
4.3797 -2.7277 -2.9790 0.9765
4.6057 -2.3272 -2.9793 0.9764
4.7959 -1.9087 -2.9802 0.9764
5.0647 -1.0290 -2.9838 0.9764
5.1406 -0.5751 -2.9865 0.9764
5.1831 -0.1155 -2.9932 0.9763
5.1943 0.3477 -3.0057 0.9762
5.1470 0.8093 -3.0081 0.9762
4.9225 1.7093 -3.0085 0.9762
4.2960 2.9490 -3.0084 0.9762
4.0162 3.3195 -3.0083 0.9762
2.1919 4.7233 -3.0063 0.9762
1.7624 4.8987 -3.0058 0.9762
1.3191 5.0351 -3.0051 0.9762
0.8655 5.1313 -3.0044 0.9763
0.4053 5.1867 -3.0037 0.9763
-2.6957 4.4378 -2.9978 0.9763
-3.0791 4.1790 -2.9969 0.9763
-3.4379 3.8873 -2.9961 0.9763
-4.5736 2.4405 -2.9930 0.9763
-4.7716 2.0233 -2.9923 0.9763
-5.0527 1.1448 -2.9911 0.9764
-5.1740 0.2307 -2.9901 0.9764
-5.1733 -0.2307 -2.9898 0.9764
-4.7663 -2.0211 -2.9890 0.9764
-4.5675 -2.4373 -2.9890 0.9764
-3.0721 -4.1694 -2.9901 0.9764
-1.8623 -4.8353 -2.9916 0.9764
-1.4248 -4.9830 -2.9922 0.9763
-0.5190 -5.1590 -2.9936 0.9763
0.8631 -5.1169 -2.9960 0.9763
1.7577 -4.8856 -2.9977 0.9763
2.5976 -4.4991 -2.9994 0.9763
2.9886 -4.2513 -3.0003 0.9763
3.3560 -3.9696 -3.0011 0.9763
3.6910 -3.6501 -2.9971 0.9763
3.9858 -3.2944 -2.9855 0.9764
4.4971 -2.5300 -2.9791 0.9764
5.0118 -1.2535 -2.9827 0.9764
5.1076 -0.8031 -2.9851 0.9764
5.1654 -0.3457 -2.9889 0.9764
5.1947 0.1158 -2.9999 0.9763
5.1777 0.5792 -3.0080 0.9762
4.1602 3.1374 -3.0084 0.9762
3.8642 3.4950 -3.0082 0.9762
3.5375 3.8247 -3.0079 0.9762
3.1827 4.1239 -3.0075 0.9762
0.6360 5.1642 -3.0041 0.9763
0.1738 5.1990 -3.0033 0.9763
-0.2895 5.1924 -3.0025 0.9763
-1.2049 5.0560 -3.0009 0.9763
-1.6497 4.9273 -3.0000 0.9763
-2.4957 4.5541 -2.9982 0.9763
-2.8903 4.3127 -2.9974 0.9763
-3.2618 4.0371 -2.9965 0.9763
-4.4609 2.6422 -2.9933 0.9763
-4.6772 2.2341 -2.9926 0.9763
