ply
format ascii 1.0
element vertex 1528
property float32 x
property float32 y
property float32 z
property float32 I
end_header
-0.9257 -6.3472 3.2884 0.9716
4.5254 9.7520 5.0677 0.9536
3.4994 9.7266 4.8726 0.9553
2.5387 9.6901 4.7218 0.9567
2.0810 9.6840 4.6690 0.9571
-1.0244 -7.0239 3.2028 0.9693
6.2494 9.7895 5.2405 0.9503
-1.0650 -7.3020 3.1831 0.9684
-1.1391 -7.8100 3.0976 0.9667
-1.2109 -8.3027 2.9752 0.9650
5.6347 9.7596 3.1707 0.9543
4.4870 9.6693 2.9992 0.9567
6.2044 9.7190 3.2442 0.9532
5.0309 9.6862 3.0710 0.9557
3.4722 9.6510 2.7026 0.9585
7.5242 9.7494 3.2451 0.9503
3.9876 9.7033 2.7643 0.9575
2.9966 9.6600 2.6651 0.9590
9.8798 9.7703 3.4154 0.9444
2.5249 9.6376 2.4489 0.9598
9.0300 9.7632 3.2689 0.9467
2.0711 9.6381 2.4231 0.9602
2.0802 9.6805 2.2599 0.9602
8.7746 3.9536 0.8823 0.9621
8.8408 4.4674 0.9081 0.9610
9.2020 3.1953 0.7300 0.9617
8.5191 3.8385 0.7002 0.9632
8.7332 3.4757 0.7044 0.9630
8.4824 4.2864 0.7122 0.9626
8.5498 3.4027 0.5360 0.9638
8.2376 4.6344 0.3930 0.9629
9.4575 2.8186 0.4103 0.9613
8.1520 4.1194 0.3798 0.9641
8.6363 2.9989 0.2280 0.9641
8.1389 3.6672 0.2226 0.9649
9.1888 2.7386 0.2391 0.9624
8.3254 3.3134 0.2235 0.9648
8.5463 2.9676 0.0752 0.9645
8.0660 3.6344 0.0735 0.9652
9.0403 2.6943 0.0784 0.9630
8.3446 5.1971 0.0817 0.9614
7.9296 4.4611 -0.0756 0.9643
7.9715 3.5918 -0.2180 0.9656
7.8785 3.9812 -0.2201 0.9653
7.9395 3.5774 -0.3621 0.9657
7.8457 4.4139 -0.3743 0.9646
7.8455 3.9645 -0.3655 0.9654
8.3762 2.9085 -0.5164 0.9651
7.9265 3.5715 -0.5064 0.9658
7.8301 4.4052 -0.5233 0.9646
8.1003 3.2239 -0.5078 0.9657
8.3608 2.9032 -0.6633 0.9651
7.8170 4.3978 -0.6721 0.9647
8.0871 3.2186 -0.6523 0.9657
7.8182 3.9507 -0.6565 0.9655
7.8328 4.4067 -0.8239 0.9645
7.8313 3.9573 -0.8044 0.9654
8.0296 5.0009 -0.8672 0.9627
7.9382 3.5768 -0.9444 0.9656
7.8488 4.4157 -0.9768 0.9644
8.1126 3.2287 -0.9471 0.9655
7.8453 3.9644 -0.9534 0.9653
8.4368 2.9296 -1.1192 0.9646
7.9693 3.5908 -1.0954 0.9654
7.8941 4.4412 -1.1351 0.9641
7.8800 3.9820 -1.1064 0.9650
7.9461 4.4704 -1.2968 0.9638
8.1918 3.2603 -1.2541 0.9650
8.3361 5.1918 -1.3969 0.9611
8.5752 2.9776 -1.4455 0.9639
8.0735 3.6378 -1.4101 0.9648
8.0446 4.5258 -1.4698 0.9633
9.1522 2.7277 -1.5207 0.9621
7.9935 4.0393 -1.4261 0.9644
8.1758 4.5996 -1.6541 0.9626
8.2147 4.1511 -1.7811 0.9632
-5.8768 -13.4405 -3.0925 0.9418
-4.6462 -13.8773 -3.0852 0.9419
-2.1041 -14.4268 -3.0736 0.9421
0.4849 -14.5029 -3.0592 0.9424
1.7713 -14.3818 -3.0549 0.9425
-4.7635 -12.3683 -2.7942 0.9473
-4.0193 -14.0564 -3.0821 0.9420
1.1296 -14.4554 -3.0568 0.9424
8.4276 4.2586 -1.9907 0.9621
-14.2857 0.0000 -3.2606 0.9431
-14.2290 -1.2715 -3.2606 0.9431
-14.0593 -2.5329 -3.2606 0.9431
-13.3875 -4.9856 -3.2606 0.9431
-11.5947 -8.3453 -3.2606 0.9431
-7.5921 -11.3281 -3.1125 0.9456
-6.5558 -11.9628 -3.1135 0.9456
-3.1424 -13.1860 -3.0939 0.9459
-1.9519 -13.3833 -3.0870 0.9460
0.4511 -13.4934 -3.0815 0.9461
4.1560 -13.3978 -3.2017 0.9441
5.3348 -12.9816 -3.2034 0.9440
7.5601 -11.8427 -3.2068 0.9440
8.5896 -11.1299 -3.2089 0.9439
9.5529 -10.3285 -3.2112 0.9439
11.9712 -7.4558 -3.2190 0.9438
12.5986 -6.3663 -3.2218 0.9437
13.1274 -5.2246 -3.2248 0.9437
13.8611 -2.8174 -3.2284 0.9436
14.0690 -1.5739 -3.2312 0.9436
14.1505 0.9473 -3.2370 0.9435
14.0223 2.2049 -3.2398 0.9434
13.4338 4.6647 -3.2458 0.9433
8.2156 11.6869 -3.2606 0.9431
7.1428 12.3717 -3.2606 0.9431
4.8361 13.4422 -3.2606 0.9431
3.6205 13.8193 -3.2606 0.9431
2.3761 14.0867 -3.2606 0.9431
-0.1519 13.6332 -3.1119 0.9456
-1.3647 13.5652 -3.1118 0.9456
-2.5667 13.3902 -3.1119 0.9456
-3.7484 13.1090 -3.1120 0.9456
-7.0798 11.6549 -3.1125 0.9456
-9.9099 9.3728 -3.1133 0.9456
-10.7040 8.4528 -3.1130 0.9456
-11.4040 7.4601 -3.1103 0.9456
-12.1873 6.5033 -3.1529 0.9449
-13.1521 5.5770 -3.2606 0.9431
-13.5963 4.3843 -3.2606 0.9431
-13.9325 3.1567 -3.2606 0.9431
-13.9326 -3.1567 -3.2606 0.9431
-12.6035 -6.7254 -3.2606 0.9431
-11.2115 -8.8535 -3.2606 0.9431
-10.0178 -9.4747 -3.1472 0.9450
-8.0868 -10.9755 -3.1116 0.9456
-6.0096 -12.2291 -3.1100 0.9456
-3.7297 -13.0436 -3.0964 0.9459
-2.5497 -13.3014 -3.0912 0.9459
1.0490 -13.4245 -3.0734 0.9463
2.2331 -13.2387 -3.0643 0.9464
3.5546 -13.5679 -3.2013 0.9441
4.7496 -13.2018 -3.2023 0.9441
5.9093 -12.7341 -3.2042 0.9440
7.0230 -12.1642 -3.2059 0.9440
8.0827 -11.4978 -3.2078 0.9440
9.0801 -10.7399 -3.2100 0.9439
10.8569 -8.9734 -3.2149 0.9438
12.8756 -5.8014 -3.2233 0.9437
13.7196 -3.4315 -3.2279 0.9436
14.1315 -0.9460 -3.2326 0.9435
14.1723 0.3158 -3.2355 0.9435
14.1005 1.5774 -3.2384 0.9434
13.9165 2.8286 -3.2413 0.9434
13.6221 4.0598 -3.2443 0.9433
9.0431 3.5991 -2.2215 0.9609
12.0969 7.5340 -3.2527 0.9432
11.3872 8.5875 -3.2553 0.9432
10.5855 9.5740 -3.2577 0.9431
9.6979 10.4853 -3.2599 0.9431
8.7281 11.3093 -3.2606 0.9431
6.5846 12.6777 -3.2606 0.9431
5.4301 13.2134 -3.2606 0.9431
4.2325 13.6443 -3.2606 0.9431
0.4550 13.6104 -3.1082 0.9457
-0.7591 13.6129 -3.1119 0.9456
-3.1607 13.2627 -3.1119 0.9456
-5.4626 12.4933 -3.1122 0.9456
-6.5533 11.9583 -3.1124 0.9456
-7.5922 11.3284 -3.1126 0.9456
-9.4821 9.8045 -3.1131 0.9456
-11.7197 6.9416 -3.1089 0.9456
-12.8906 6.1573 -3.2606 0.9431
-13.3875 4.9856 -3.2606 0.9431
-13.7781 3.7742 -3.2606 0.9431
-13.2127 -1.1807 -3.2606 0.9468
-13.0551 -2.3520 -3.2606 0.9468
-11.4135 -6.7602 -3.2606 0.9468
-6.0842 -11.1023 -3.1119 0.9492
-2.9299 -12.2942 -3.1065 0.9493
-0.7052 -12.6473 -3.1135 0.9492
2.7555 -12.8229 -3.2238 0.9474
4.9562 -12.0603 -3.2050 0.9477
6.0125 -11.5762 -3.2063 0.9477
10.4511 -7.8815 -3.2175 0.9475
11.1197 -6.9254 -3.2200 0.9475
11.6991 -5.9118 -3.2219 0.9474
12.8715 -2.6162 -3.2285 0.9473
13.1534 -0.2931 -3.2339 0.9472
13.1381 0.8795 -3.2366 0.9472
12.4711 4.3304 -3.2449 0.9471
12.0461 5.4277 -3.2476 0.9470
10.2070 8.4363 -3.2549 0.9469
9.4218 9.3174 -3.2571 0.9469
8.5602 10.1251 -3.2590 0.9469
5.5838 12.0328 -3.2606 0.9468
4.4907 12.4821 -3.2606 0.9468
2.2064 13.0805 -3.2606 0.9468
0.9851 12.6069 -3.1082 0.9492
-1.2673 12.5978 -3.1122 0.9492
-2.3836 12.4351 -3.1122 0.9492
-4.5510 11.8163 -3.1124 0.9492
-6.5747 10.8234 -3.1128 0.9492
-7.5125 10.1960 -3.1130 0.9492
-8.3908 9.4876 -3.1132 0.9492
-12.2127 5.1786 -3.2606 0.9468
-12.6252 4.0711 -3.2606 0.9468
-12.9374 2.9312 -3.2606 0.9468
-13.1469 1.7681 -3.2606 0.9468
-13.2521 0.5910 -3.2606 0.9468
-13.2521 -0.5909 -3.2606 0.9468
-12.9374 -2.9312 -3.2606 0.9468
-12.6252 -4.0711 -3.2606 0.9468
-11.1010 -7.2619 -3.2606 0.9468
-9.6376 -9.1151 -3.2606 0.9468
-8.4161 -9.5162 -3.1226 0.9490
-7.5040 -10.1845 -3.1095 0.9492
-6.5712 -10.8177 -3.1111 0.9492
-3.4773 -12.1607 -3.1089 0.9492
-2.3763 -12.3967 -3.1026 0.9493
-1.2668 -12.5918 -3.1107 0.9492
3.3105 -12.6361 -3.2108 0.9476
4.4133 -12.2671 -3.2045 0.9477
5.4896 -11.8299 -3.2056 0.9477
6.5242 -11.3003 -3.2073 0.9477
11.4208 -6.4252 -3.2210 0.9475
12.7369 -3.1857 -3.2272 0.9474
13.0915 1.4645 -3.2380 0.9472
12.9205 2.6262 -3.2408 0.9471
11.7970 5.9613 -3.2489 0.9470
11.2283 6.9931 -3.2514 0.9470
9.8243 8.8856 -3.2560 0.9469
9.0002 9.7309 -3.2581 0.9469
8.1047 10.5016 -3.2606 0.9468
5.0422 12.2697 -3.2606 0.9468
3.9302 12.6697 -3.2606 0.9468
2.7869 12.9692 -3.2606 0.9468
1.5457 12.5505 -3.1082 0.9492
0.4225 12.6382 -3.1082 0.9492
-1.8273 12.5288 -3.1121 0.9492
-2.9352 12.3167 -3.1122 0.9492
-4.0200 12.0070 -3.1123 0.9492
-5.0730 11.6021 -3.1125 0.9492
-7.0506 10.5201 -3.1129 0.9492
-8.8055 9.1048 -3.1134 0.9492
-9.5787 8.2830 -3.1126 0.9492
-10.2700 7.3919 -3.1102 0.9492
-10.9407 6.4802 -3.1255 0.9490
-11.9699 5.7175 -3.2606 0.9468
-12.4313 4.6295 -3.2606 0.9468
-12.7940 3.5047 -3.2606 0.9468
-13.2127 1.1807 -3.2606 0.9468
-12.3742 0.0000 -3.2606 0.9501
-12.3251 -1.1013 -3.2606 0.9501
-12.1782 -2.1940 -3.2606 0.9501
-11.5962 -4.3185 -3.2606 0.9501
-10.0433 -7.2287 -3.2606 0.9501
-6.5675 -9.7994 -3.1084 0.9524
-3.7495 -11.1991 -3.1120 0.9523
-1.7051 -11.6909 -3.1132 0.9523
-0.6577 -11.7948 -3.1128 0.9523
1.4420 -11.7083 -3.1085 0.9524
3.6110 -11.6408 -3.2115 0.9508
4.6261 -11.2570 -3.2069 0.9509
5.6116 -10.8043 -3.2080 0.9509
6.5539 -10.2665 -3.2095 0.9509
9.0485 -8.1839 -3.2148 0.9508
10.3699 -6.4585 -3.2191 0.9507
10.9114 -5.5138 -3.2214 0.9507
11.7337 -3.4970 -3.2262 0.9506
12.0076 -2.4406 -3.2287 0.9506
12.1866 -1.3633 -3.2312 0.9505
12.2549 0.8204 -3.2364 0.9505
12.1432 1.9095 -3.2390 0.9504
11.2338 5.0617 -3.2467 0.9503
10.7466 6.0459 -3.2491 0.9503
9.5173 7.8663 -3.2535 0.9502
7.9891 9.4496 -3.2606 0.9501
6.1871 10.7164 -3.2606 0.9501
5.2087 11.2246 -3.2606 0.9501
3.1360 11.9703 -3.2606 0.9501
1.9620 11.6316 -3.1082 0.9524
-0.1316 11.8126 -3.1128 0.9523
-4.2456 11.0235 -3.1127 0.9523
-5.2102 10.6024 -3.1128 0.9523
-6.1335 10.0972 -3.1130 0.9523
-7.0083 9.5118 -3.1132 0.9523
-7.8277 8.8509 -3.1134 0.9523
-9.2630 7.3149 -3.1101 0.9523
-9.8860 6.4673 -3.1129 0.9523
-10.9171 5.8256 -3.2606 0.9501
-11.3923 4.8308 -3.2606 0.9501
-12.0683 2.7343 -3.2606 0.9501
-12.3620 0.5512 -3.2606 0.9501
-12.3619 -0.5512 -3.2606 0.9501
-12.2638 -1.6493 -3.2606 0.9501
-12.0683 -2.7343 -3.2606 0.9501
-11.7771 -3.7976 -3.2606 0.9501
-8.9902 -8.5028 -3.2606 0.9501
-8.1977 -9.2692 -3.2606 0.9501
-5.2062 -10.5942 -3.1104 0.9523
-4.2440 -11.0194 -3.1115 0.9523
0.9194 -11.7657 -3.1097 0.9524
2.0575 -12.1978 -3.2595 0.9501
4.1194 -11.4502 -3.2065 0.9509
5.1238 -11.0416 -3.2075 0.9509
7.0065 -9.9668 -3.2103 0.9509
8.6723 -8.5762 -3.2138 0.9508
9.4071 -7.7752 -3.2159 0.9508
10.0685 -6.9116 -3.2180 0.9507
10.6511 -5.9922 -3.2202 0.9507
11.1503 -5.0241 -3.2226 0.9507
11.8824 -2.9720 -3.2275 0.9506
12.2742 0.2736 -3.2351 0.9505
12.0509 2.4495 -3.2404 0.9504
10.4703 6.5210 -3.2503 0.9503
8.3914 9.0727 -3.2564 0.9502
5.7036 10.9814 -3.2606 0.9501
4.7035 11.4454 -3.2606 0.9501
3.6662 11.8187 -3.2606 0.9501
-2.7383 11.4904 -3.1125 0.9523
-6.5774 9.8142 -3.1131 0.9523
-7.4254 9.1905 -3.1133 0.9523
-8.9311 7.7230 -3.1112 0.9523
-9.5761 6.8925 -3.1089 0.9524
-10.6468 6.3061 -3.2606 0.9501
-11.5962 4.3185 -3.2606 0.9501
-12.1782 2.1940 -3.2606 0.9501
-11.5889 0.0000 -3.2606 0.9530
-10.8603 -4.0444 -3.2606 0.9530
-9.4059 -6.7699 -3.2606 0.9530
-8.7660 -7.5802 -3.2606 0.9530
-8.0565 -8.3304 -3.2606 0.9530
-5.3091 -9.6879 -3.1082 0.9551
-3.5094 -10.4819 -3.1100 0.9551
-0.6156 -11.0397 -3.1109 0.9551
1.3692 -11.1172 -3.1515 0.9545
2.4347 -11.3302 -3.2606 0.9530
4.3348 -10.5482 -3.2086 0.9537
6.1408 -9.6193 -3.2109 0.9537
7.7566 -8.3863 -3.2141 0.9536
8.4770 -7.6670 -3.2159 0.9536
9.1313 -6.8862 -3.2178 0.9536
10.2209 -5.1648 -3.2220 0.9535
11.2461 -2.2859 -3.2289 0.9534
11.4135 -1.2768 -3.2313 0.9534
11.3714 1.7881 -3.2387 0.9533
10.5183 4.7393 -3.2459 0.9532
10.0616 5.6606 -3.2482 0.9532
9.5241 6.5379 -3.2503 0.9531
8.2238 8.1327 -3.2542 0.9531
7.4821 8.8499 -3.2606 0.9530
6.6647 9.4807 -3.2606 0.9530
5.7944 10.0363 -3.2606 0.9530
4.8782 10.5122 -3.2606 0.9530
3.9231 10.9046 -3.2606 0.9530
2.9370 11.2106 -3.2606 0.9530
0.8606 11.0137 -3.1082 0.9551
-0.1233 11.0643 -3.1132 0.9551
-2.0827 10.8655 -3.1127 0.9551
-3.9765 10.3247 -3.1129 0.9551
-4.8799 9.9302 -3.1131 0.9551
-7.3294 8.2875 -3.1128 0.9551
-8.6718 6.8480 -3.1089 0.9551
-9.6981 6.3442 -3.2606 0.9530
-10.2243 5.4559 -3.2606 0.9530
-11.3024 2.5608 -3.2606 0.9530
-11.4855 1.5447 -3.2606 0.9530
-11.5774 0.5163 -3.2606 0.9530
-11.4855 -1.5446 -3.2606 0.9530
-11.3025 -2.5608 -3.2606 0.9530
-10.6693 -4.5242 -3.2606 0.9530
-9.6981 -6.3442 -3.2606 0.9530
-9.0950 -7.1822 -3.2606 0.9530
-8.4196 -7.9632 -3.2606 0.9530
-4.8729 -9.9160 -3.1086 0.9551
-3.9723 -10.3137 -3.1096 0.9551
-3.0393 -10.6290 -3.1104 0.9551
0.8607 -11.0150 -3.1086 0.9551
1.9276 -11.4275 -3.2606 0.9530
2.9237 -11.1598 -3.2459 0.9532
3.8652 -10.7436 -3.2125 0.9537
5.7050 -9.8814 -3.2103 0.9537
6.5646 -9.3382 -3.2116 0.9537
7.3733 -8.7212 -3.2132 0.9537
9.4320 -6.4747 -3.2188 0.9536
9.9773 -5.6131 -3.2209 0.9535
10.4445 -4.7058 -3.2231 0.9535
11.1291 -2.7836 -3.2277 0.9534
11.3409 -1.7833 -3.2300 0.9534
11.4634 -0.7674 -3.2325 0.9534
11.4951 0.2562 -3.2350 0.9533
10.3003 5.2050 -3.2470 0.9532
9.8027 6.1052 -3.2492 0.9531
9.2263 6.9579 -3.2513 0.9531
7.8689 8.5078 -3.2606 0.9530
7.0804 9.1744 -3.2606 0.9530
6.2358 9.7682 -3.2606 0.9530
0.3691 11.0411 -3.1082 0.9551
-0.6160 11.0466 -3.1128 0.9551
-1.5967 10.9474 -3.1127 0.9551
-3.5125 10.4914 -3.1129 0.9551
-6.1604 9.1920 -3.1133 0.9551
-6.9546 8.6078 -3.1135 0.9551
-7.6890 7.9504 -3.1119 0.9551
-8.3609 7.2299 -3.1099 0.9551
-8.9662 6.4535 -3.1082 0.9551
-11.1771 3.0618 -3.2606 0.9530
-11.4053 2.0548 -3.2606 0.9530
-11.5429 1.0315 -3.2606 0.9530
-10.8480 -0.9694 -3.2606 0.9555
-10.2064 -3.8009 -3.2606 0.9555
-9.8276 -4.6942 -3.2606 0.9555
-9.3708 -5.5503 -3.2606 0.9555
-8.8396 -6.3623 -3.2606 0.9555
-8.2382 -7.1238 -3.2606 0.9555
-7.5715 -7.8288 -3.2606 0.9555
-6.8446 -8.4717 -3.2606 0.9555
-3.2963 -9.8454 -3.1083 0.9576
2.2881 -10.6481 -3.2606 0.9555
4.0801 -9.9284 -3.2136 0.9562
6.5583 -8.4979 -3.2137 0.9562
7.2921 -7.8841 -3.2152 0.9561
8.5837 -6.4733 -3.2186 0.9561
9.1313 -5.6870 -3.2206 0.9561
9.6073 -4.8548 -3.2226 0.9561
10.0077 -3.9830 -3.2247 0.9560
10.5700 -2.1484 -3.2292 0.9560
10.7990 -0.2406 -3.2338 0.9559
10.7853 0.7220 -3.2361 0.9559
10.6859 1.6803 -3.2385 0.9558
9.4534 5.3184 -3.2473 0.9557
7.0316 8.3171 -3.2606 0.9555
6.2635 8.9100 -3.2606 0.9555
5.4456 9.4321 -3.2606 0.9555
4.5845 9.8793 -3.2606 0.9555
3.6870 10.2481 -3.2606 0.9555
2.7602 10.5356 -3.2606 0.9555
0.8095 10.3602 -3.1111 0.9575
-0.1159 10.3993 -3.1135 0.9575
-3.7373 9.7038 -3.1131 0.9575
-6.1682 8.3715 -3.1131 0.9575
-6.8852 7.7852 -3.1115 0.9575
-7.5466 7.1375 -3.1097 0.9576
-8.1479 6.4343 -3.1082 0.9576
-9.1142 5.9623 -3.2606 0.9555
-10.0270 4.2518 -3.2606 0.9555
-10.7940 1.4517 -3.2606 0.9555
-10.8804 0.4852 -3.2606 0.9555
-10.8804 -0.4851 -3.2606 0.9555
-10.6220 -2.4066 -3.2606 0.9555
-9.6088 -5.1274 -3.2606 0.9555
-9.1143 -5.9622 -3.2606 0.9555
-7.2152 -8.1583 -3.2606 0.9555
-4.7105 -9.5855 -3.1975 0.9564
-1.9552 -10.1997 -3.1092 0.9576
0.8236 -10.5403 -3.1652 0.9568
3.6408 -10.1197 -3.2198 0.9561
6.1720 -8.7797 -3.2130 0.9562
6.9320 -8.1992 -3.2144 0.9562
7.6380 -7.5534 -3.2160 0.9561
9.3785 -5.2762 -3.2216 0.9561
10.1786 -3.5344 -3.2258 0.9560
10.8029 0.2408 -3.2350 0.9559
10.7463 1.2022 -3.2373 0.9559
10.6043 2.1554 -3.2396 0.9558
10.3776 3.0929 -3.2419 0.9558
10.0681 4.0070 -3.2441 0.9558
8.6681 6.5369 -3.2503 0.9557
8.0564 7.2866 -3.2521 0.9557
7.3952 7.9956 -3.2606 0.9555
6.6542 8.6221 -3.2606 0.9555
5.8603 9.1801 -3.2606 0.9555
5.0200 9.6653 -3.2606 0.9555
3.2268 10.4022 -3.2606 0.9555
1.2698 10.3097 -3.1099 0.9576
0.3474 10.3900 -3.1123 0.9575
-0.5789 10.3825 -3.1131 0.9575
-3.3013 9.8604 -3.1131 0.9575
-5.7899 8.6391 -3.1135 0.9575
-10.2064 3.8009 -3.2606 0.9555
-10.5042 2.8774 -3.2606 0.9555
-10.8480 0.9694 -3.2606 0.9555
-10.2669 0.0000 -3.2606 0.9578
-9.6214 -3.5830 -3.2606 0.9578
-8.8337 -5.2322 -3.2606 0.9578
-8.3329 -5.9976 -3.2606 0.9578
-7.7660 -6.7155 -3.2606 0.9578
-5.7159 -8.5286 -3.2606 0.9578
-4.9341 -9.0035 -3.2606 0.9578
-3.2192 -9.6151 -3.2202 0.9583
-2.2995 -9.6489 -3.1502 0.9592
-0.5474 -9.8174 -3.1227 0.9596
0.3404 -10.1806 -3.2350 0.9582
2.1570 -10.0378 -3.2606 0.9578
4.6624 -8.9767 -3.2125 0.9584
6.1847 -8.0137 -3.2148 0.9584
6.8764 -7.4347 -3.2163 0.9584
9.7387 -2.9025 -3.2273 0.9582
9.9650 -2.0255 -3.2294 0.9582
10.1125 -1.1312 -3.2316 0.9582
9.8983 2.4758 -3.2404 0.9581
9.6450 3.3491 -3.2425 0.9581
7.3001 7.2193 -3.2606 0.9578
5.1334 8.8914 -3.2606 0.9578
4.3217 9.3130 -3.2606 0.9578
3.4756 9.6607 -3.2606 0.9578
1.6280 9.6517 -3.1085 0.9598
0.7631 9.7655 -3.1108 0.9597
-0.1092 9.8015 -3.1130 0.9597
-0.9812 9.7538 -3.1133 0.9597
-1.8454 9.6274 -3.1132 0.9597
-2.6950 9.4251 -3.1132 0.9597
-6.4881 7.3362 -3.1103 0.9597
-7.1115 6.7260 -3.1086 0.9598
-8.5918 5.6205 -3.2606 0.9578
-9.0580 4.8335 -3.2606 0.9578
-10.1753 1.3685 -3.2606 0.9578
-10.2567 0.4574 -3.2606 0.9578
-10.2567 -0.4573 -3.2606 0.9578
-10.1753 -1.3684 -3.2606 0.9578
-9.4522 -4.0081 -3.2606 0.9578
-8.0575 -6.3629 -3.2606 0.9578
-6.8016 -7.6907 -3.2606 0.9578
-5.3303 -8.7748 -3.2606 0.9578
-4.5281 -9.2144 -3.2606 0.9578
-2.7544 -9.6327 -3.1818 0.9588
-1.8524 -9.6637 -3.1249 0.9595
-0.1110 -9.9641 -3.1647 0.9590
1.7077 -10.1239 -3.2606 0.9578
3.4499 -9.5891 -3.2364 0.9581
5.8204 -8.2796 -3.2142 0.9584
7.8118 -6.4566 -3.2186 0.9584
8.3600 -5.7388 -3.2204 0.9583
8.8428 -4.9749 -3.2223 0.9583
9.2561 -4.1706 -3.2242 0.9583
9.5966 -3.3323 -3.2263 0.9583
9.8616 -2.4665 -3.2284 0.9582
10.0487 -1.5801 -3.2305 0.9582
10.1298 1.1332 -3.2371 0.9581
9.7815 2.9152 -3.2415 0.9581
9.4893 3.7767 -3.2436 0.9580
9.1212 4.6092 -3.2456 0.9580
8.6799 5.4059 -3.2475 0.9580
7.6000 6.8739 -3.2544 0.9579
6.2727 8.1279 -3.2606 0.9578
5.5244 8.6539 -3.2606 0.9578
2.1570 10.0378 -3.2606 0.9578
0.3274 9.7933 -3.1119 0.9597
-0.5458 9.7883 -3.1134 0.9597
-1.4147 9.7001 -3.1132 0.9597
-2.2725 9.5356 -3.1132 0.9597
-3.1123 9.2958 -3.1133 0.9597
-3.9274 8.9822 -3.1134 0.9597
-5.4563 8.1413 -3.1125 0.9597
-8.3329 5.9977 -3.2606 0.9578
-8.8337 5.2322 -3.2606 0.9578
-9.2643 4.4252 -3.2606 0.9578
-9.9021 2.7125 -3.2606 0.9578
-10.1042 1.8204 -3.2606 0.9578
-10.2262 0.9138 -3.2606 0.9578
-9.7047 0.0000 -3.2606 0.9599
-9.6662 -0.8638 -3.2606 0.9599
-9.3599 -2.5639 -3.2606 0.9599
-9.0946 -3.3868 -3.2606 0.9599
-6.0990 -7.5488 -3.2606 0.9599
-3.8879 -8.8919 -3.2606 0.9599
-3.0811 -9.2026 -3.2606 0.9599
-0.5403 -9.6896 -3.2606 0.9599
0.3243 -9.6993 -3.2606 0.9599
2.0389 -9.4881 -3.2606 0.9599
4.4124 -8.4955 -3.2164 0.9604
5.1484 -8.0648 -3.2147 0.9604
5.8479 -7.5774 -3.2159 0.9604
6.5019 -7.0298 -3.2172 0.9604
7.6526 -5.7711 -3.2203 0.9604
8.5639 -4.3275 -3.2238 0.9603
8.9204 -3.5502 -3.2257 0.9603
9.5592 -1.0693 -3.2318 0.9602
9.5205 1.4970 -3.2380 0.9601
9.1156 3.1653 -3.2421 0.9601
8.8030 3.9665 -3.2440 0.9601
7.9692 5.4706 -3.2477 0.9600
7.4601 6.1659 -3.2518 0.9600
4.0850 8.8031 -3.2606 0.9599
1.5387 9.1224 -3.1083 0.9617
-0.1032 9.2625 -3.1122 0.9617
-0.9276 9.2203 -3.1135 0.9617
-3.3306 8.6476 -3.1135 0.9617
-4.0865 8.3158 -3.1131 0.9617
-4.8087 7.9162 -3.1120 0.9617
-6.7525 6.3865 -3.1227 0.9615
-7.6163 6.0145 -3.2606 0.9599
-8.5620 4.5688 -3.2606 0.9599
-9.2364 2.9784 -3.2606 0.9599
-9.4648 2.1445 -3.2606 0.9599
-9.6181 1.2935 -3.2606 0.9599
-9.6951 0.4323 -3.2606 0.9599
-9.6951 -0.4323 -3.2606 0.9599
-9.6181 -1.2935 -3.2606 0.9599
-7.6163 -6.0145 -3.2606 0.9599
-6.4292 -7.2696 -3.2606 0.9599
-5.7567 -7.8129 -3.2606 0.9599
-2.6681 -9.3307 -3.2606 0.9599
-0.9714 -9.6560 -3.2606 0.9599
-0.1081 -9.7041 -3.2606 0.9599
2.4595 -9.3879 -3.2606 0.9599
4.0362 -8.6978 -3.2216 0.9603
6.8101 -6.7347 -3.2180 0.9604
7.9041 -5.4259 -3.2212 0.9604
8.3603 -4.7034 -3.2229 0.9603
9.0724 -3.1503 -3.2267 0.9603
9.3225 -2.3317 -3.2287 0.9603
9.6005 -0.6427 -3.2328 0.9602
9.6258 0.2145 -3.2349 0.9602
9.5746 1.0711 -3.2370 0.9602
9.4473 1.9203 -3.2390 0.9601
8.9683 3.5693 -3.2431 0.9601
8.6201 4.3559 -3.2450 0.9601
8.2028 5.1087 -3.2468 0.9600
6.5895 7.1246 -3.2606 0.9599
5.9293 7.6828 -3.2606 0.9599
5.2219 8.1800 -3.2606 0.9599
4.4731 8.6124 -3.2606 0.9599
3.6888 8.9763 -3.2606 0.9599
0.3094 9.2552 -3.1113 0.9617
-0.5158 9.2512 -3.1131 0.9617
-2.9420 8.7873 -3.1134 0.9617
-4.4521 8.1241 -3.1125 0.9617
-5.1555 7.6926 -3.1113 0.9617
-6.4319 6.6505 -3.1085 0.9617
-7.8766 5.6693 -3.2606 0.9599
-8.3500 4.9457 -3.2606 0.9599
-9.0946 3.3869 -3.2606 0.9599
-9.3599 2.5640 -3.2606 0.9599
-9.5510 1.7207 -3.2606 0.9599
-9.0499 -1.6304 -3.2606 0.9617
-8.8688 -2.4294 -3.2606 0.9617
-8.6174 -3.2091 -3.2606 0.9617
-8.2976 -3.9634 -3.2606 0.9617
-6.3927 -6.6099 -3.2606 0.9617
-5.7790 -7.1527 -3.2606 0.9617
-4.4192 -8.0640 -3.2606 0.9617
-2.1317 -8.9450 -3.2606 0.9617
-1.3271 -9.0992 -3.2606 0.9617
-0.5120 -9.1812 -3.2606 0.9617
1.1240 -9.1266 -3.2606 0.9617
1.9319 -8.9903 -3.2606 0.9617
3.4896 -8.4915 -3.2553 0.9618
5.5428 -7.1820 -3.2169 0.9622
6.7339 -6.0905 -3.2195 0.9622
7.7146 -4.8047 -3.2227 0.9622
8.4535 -3.3644 -3.2262 0.9621
8.7244 -2.6002 -3.2280 0.9621
8.9265 -1.8144 -3.2300 0.9621
9.1053 0.6096 -3.2359 0.9620
8.8637 2.2170 -3.2398 0.9620
8.3398 3.7578 -3.2435 0.9619
7.9766 4.4876 -3.2453 0.9619
6.5383 6.4659 -3.2606 0.9617
5.2883 7.5227 -3.2606 0.9617
3.1129 8.6526 -3.2606 0.9617
-1.6530 8.6238 -3.1135 0.9634
-2.4140 8.4423 -3.1135 0.9634
-3.1551 8.1921 -3.1128 0.9634
-5.2021 7.0603 -3.1097 0.9635
-5.8073 6.5664 -3.1083 0.9635
-6.6808 6.3187 -3.2606 0.9617
-8.7518 2.8221 -3.2606 0.9617
-8.9682 2.0319 -3.2606 0.9617
-9.1135 1.2257 -3.2606 0.9617
-9.1864 -0.4096 -3.2606 0.9617
-9.1135 -1.2256 -3.2606 0.9617
-8.9682 -2.0319 -3.2606 0.9617
-8.7518 -2.8221 -3.2606 0.9617
-8.1128 -4.3291 -3.2606 0.9617
-7.2167 -5.6989 -3.2606 0.9617
-6.6808 -6.3186 -3.2606 0.9617
-6.0919 -6.8882 -3.2606 0.9617
-5.4546 -7.4030 -3.2606 0.9617
-4.7741 -7.8591 -3.2606 0.9617
-4.0556 -8.2529 -3.2606 0.9617
-1.7311 -9.0311 -3.2606 0.9617
-0.9204 -9.1493 -3.2606 0.9617
0.7163 -9.1676 -3.2606 0.9617
1.5295 -9.0674 -3.2606 0.9617
2.3304 -8.8953 -3.2606 0.9617
4.5378 -7.8596 -3.2181 0.9622
5.2164 -7.4204 -3.2163 0.9622
5.8583 -6.9293 -3.2175 0.9622
7.0002 -5.7858 -3.2203 0.9622
7.4910 -5.1423 -3.2218 0.9622
7.9231 -4.4575 -3.2235 0.9622
8.2929 -3.7366 -3.2253 0.9621
8.5974 -2.9853 -3.2271 0.9621
9.1207 0.2033 -3.2349 0.9620
8.7587 2.6104 -3.2407 0.9620
8.1664 4.1267 -3.2444 0.9619
7.7708 4.8397 -3.2461 0.9619
6.8199 6.1682 -3.2606 0.9617
6.2438 6.7507 -3.2606 0.9617
5.6182 7.2797 -3.2606 0.9617
4.9479 7.7509 -3.2606 0.9617
3.4953 8.5054 -3.2606 0.9617
2.7244 8.7827 -3.2606 0.9617
-1.2671 8.6881 -3.1133 0.9634
-2.0356 8.5415 -3.1135 0.9634
-3.5164 8.0423 -3.1124 0.9634
-4.2170 7.6950 -3.1114 0.9634
-6.1596 6.3690 -3.1417 0.9631
-6.9556 6.0148 -3.2606 0.9617
-7.4634 5.3718 -3.2606 0.9617
-8.2976 3.9634 -3.2606 0.9617
-9.1591 0.8185 -3.2606 0.9617
-8.7320 0.0000 -3.2606 0.9634
-8.6973 -0.7772 -3.2606 0.9634
-8.5936 -1.5482 -3.2606 0.9634
-8.4217 -2.3069 -3.2606 0.9634
-7.5130 -4.4500 -3.2606 0.9634
-6.6050 -5.7115 -3.2606 0.9634
-5.4876 -6.7921 -3.2606 0.9634
-2.7722 -8.2802 -3.2606 0.9634
-2.0243 -8.4941 -3.2606 0.9634
-1.2602 -8.6405 -3.2606 0.9634
0.2918 -8.7271 -3.2606 0.9634
2.5871 -8.3399 -3.2606 0.9634
3.9910 -7.6842 -3.2333 0.9637
5.8532 -6.3285 -3.2189 0.9639
6.8885 -5.1949 -3.2217 0.9638
8.0283 -3.1952 -3.2266 0.9638
8.4771 -1.7230 -3.2302 0.9637
8.6017 -0.9622 -3.2320 0.9637
8.6583 -0.1929 -3.2339 0.9637
8.6461 0.5788 -3.2358 0.9637
8.5652 1.3468 -3.2376 0.9637
7.5732 4.2606 -3.2447 0.9636
7.1739 4.9246 -3.2493 0.9635
6.2087 6.1400 -3.2606 0.9634
5.0217 7.1435 -3.2606 0.9634
4.3660 7.5621 -3.2606 0.9634
3.6756 7.9207 -3.2606 0.9634
2.2130 8.4469 -3.2606 0.9634
1.4354 8.5099 -3.2226 0.9638
0.6486 8.3008 -3.1091 0.9651
-0.0928 8.3295 -3.1105 0.9651
-0.8341 8.2914 -3.1117 0.9650
-2.2915 8.0137 -3.1123 0.9650
-2.9950 7.7764 -3.1117 0.9650
-3.6743 7.4769 -3.1109 0.9651
-4.9383 6.7024 -3.1087 0.9651
-5.6178 6.3521 -3.1665 0.9644
-7.3073 4.7802 -3.2606 0.9634
-8.5161 1.9295 -3.2606 0.9634
-8.6541 1.1639 -3.2606 0.9634
-8.7233 -0.3890 -3.2606 0.9634
-8.5161 -1.9295 -3.2606 0.9634
-8.3106 -2.6798 -3.2606 0.9634
-7.7038 -4.1108 -3.2606 0.9634
-6.8528 -5.4116 -3.2606 0.9634
-6.3440 -6.0001 -3.2606 0.9634
-5.7848 -6.5409 -3.2606 0.9634
-3.1384 -8.1485 -3.2606 0.9634
-2.4006 -8.3955 -3.2606 0.9634
-1.6439 -8.5758 -3.2606 0.9634
2.2130 -8.4469 -3.2606 0.9634
3.6687 -7.9057 -3.2545 0.9635
4.9548 -7.0483 -3.2172 0.9639
5.5645 -6.5817 -3.2183 0.9639
6.1306 -6.0627 -3.2196 0.9639
7.5249 -4.2334 -3.2240 0.9638
7.8759 -3.5487 -3.2257 0.9638
8.3895 -2.0983 -3.2293 0.9637
8.6386 -0.5783 -3.2330 0.9637
8.6608 0.1930 -3.2348 0.9637
8.3163 2.4785 -3.2404 0.9636
8.0671 3.2107 -3.2422 0.9636
7.7535 3.9180 -3.2439 0.9636
7.3777 4.5949 -3.2455 0.9636
6.4761 5.8573 -3.2606 0.9634
5.9290 6.4104 -3.2606 0.9634
5.3349 6.9127 -3.2606 0.9634
3.3191 8.0766 -3.2606 0.9634
1.8345 8.5371 -3.2606 0.9634
1.0175 8.2615 -3.1082 0.9651
0.2783 8.3235 -3.1098 0.9651
-0.4639 8.3188 -3.1112 0.9651
-1.2028 8.2471 -3.1121 0.9650
-1.9323 8.1082 -3.1125 0.9650
-3.3380 7.6342 -3.1113 0.9650
-4.0031 7.3047 -3.1104 0.9651
-4.6358 6.9170 -3.1093 0.9651
-5.2310 6.4747 -3.1082 0.9651
-6.6050 5.7115 -3.2606 0.9634
-7.5130 4.4500 -3.2606 0.9634
-7.8792 3.7636 -3.2606 0.9634
-8.4217 2.3070 -3.2606 0.9634
-8.6973 0.7772 -3.2606 0.9634
-8.1763 -1.4730 -3.2606 0.9649
-8.0127 -2.1949 -3.2606 0.9649
-7.1481 -4.2338 -3.2606 0.9649
-6.7429 -4.8533 -3.2606 0.9649
-5.7756 -5.9719 -3.2606 0.9649
-5.2212 -6.4622 -3.2606 0.9649
-4.6252 -6.9013 -3.2606 0.9649
-3.9926 -7.2856 -3.2606 0.9649
-3.3283 -7.6120 -3.2606 0.9649
3.1579 -7.6843 -3.2606 0.9649
3.8219 -7.3584 -3.2543 0.9650
5.0103 -6.4921 -3.2185 0.9654
5.5703 -6.0225 -3.2197 0.9654
6.0866 -5.5050 -3.2209 0.9653
6.9724 -4.3424 -3.2238 0.9653
7.3347 -3.7064 -3.2253 0.9653
7.6393 -3.0404 -3.2270 0.9653
7.8837 -2.3496 -3.2286 0.9653
8.1843 -0.9155 -3.2321 0.9652
7.5327 3.3941 -3.2426 0.9651
7.2043 4.0531 -3.2442 0.9651
6.8494 4.7018 -3.2606 0.9649
6.4037 5.2928 -3.2606 0.9649
5.3638 6.3444 -3.2606 0.9649
4.7778 6.7966 -3.2606 0.9649
2.8124 7.8174 -3.2606 0.9649
2.1055 8.0367 -3.2606 0.9649
0.6170 7.8960 -3.1084 0.9665
-0.0883 7.9230 -3.1097 0.9665
-0.7934 7.8863 -3.1108 0.9665
-3.4948 7.1116 -3.1099 0.9665
-4.1126 6.7703 -3.1089 0.9665
-5.5039 6.2233 -3.2606 0.9649
-6.0359 5.7087 -3.2606 0.9649
-7.3296 3.9112 -3.2606 0.9649
-7.6487 3.2433 -3.2606 0.9649
-8.1025 1.8358 -3.2606 0.9649
-8.2997 -0.3701 -3.2606 0.9649
-7.9070 -2.5497 -3.2606 0.9649
-6.5200 -5.1488 -3.2606 0.9649
-6.0359 -5.7087 -3.2606 0.9649
-4.3132 -7.1005 -3.2606 0.9649
-3.6641 -7.4562 -3.2606 0.9649
-2.9859 -7.7527 -3.2606 0.9649
-2.2840 -7.9878 -3.2606 0.9649
-1.5640 -8.1593 -3.2606 0.9649
-0.0926 -8.3074 -3.2606 0.9649
2.1055 -8.0366 -3.2606 0.9649
2.8124 -7.8174 -3.2606 0.9649
5.2955 -6.2635 -3.2191 0.9654
6.7704 -4.6476 -3.2230 0.9653
7.1606 -4.0285 -3.2245 0.9653
7.4944 -3.3768 -3.2261 0.9653
7.7692 -2.6977 -3.2278 0.9653
8.1331 -1.2789 -3.2312 0.9652
8.1956 0.9168 -3.2366 0.9652
8.0858 1.6435 -3.2384 0.9652
7.9117 2.3580 -3.2401 0.9651
7.6745 3.0544 -3.2418 0.9651
7.3759 3.7272 -3.2434 0.9651
7.0257 4.3757 -3.2485 0.9651
6.1616 5.5728 -3.2606 0.9649
5.0758 6.5770 -3.2606 0.9649
4.4703 7.0027 -3.2606 0.9649
2.4614 7.9349 -3.2606 0.9649
0.2647 7.9174 -3.1091 0.9665
-0.4412 7.9126 -3.1103 0.9665
-1.8378 7.7117 -3.1114 0.9665
-2.5166 7.5167 -3.1110 0.9665
-3.1749 7.2612 -3.1103 0.9665
-3.8075 6.9479 -3.1094 0.9665
-5.1185 6.3353 -3.1965 0.9656
-6.2843 5.4342 -3.2606 0.9649
-8.1763 1.4730 -3.2606 0.9649
-7.1451 -3.4129 -3.2606 0.9663
-6.8129 -4.0353 -3.2606 0.9663
-5.9895 -5.1793 -3.2606 0.9663
-5.5048 -5.6918 -3.2606 0.9663
-4.9763 -6.1592 -3.2606 0.9663
-2.5139 -7.5086 -3.2606 0.9663
-1.8356 -7.7026 -3.2606 0.9663
-1.1428 -7.8354 -3.2606 0.9663
0.2646 -7.9139 -3.2606 0.9663
2.3460 -7.5628 -3.2606 0.9663
4.2296 -6.6256 -3.2368 0.9666
4.7834 -6.1981 -3.2240 0.9667
5.3102 -5.7413 -3.2204 0.9667
6.9917 -3.5330 -3.2257 0.9667
7.8401 0.5249 -3.2356 0.9666
7.7663 1.2212 -3.2373 0.9666
7.1786 3.2345 -3.2422 0.9665
6.1034 5.0446 -3.2606 0.9663
5.1123 6.0469 -3.2606 0.9663
2.0068 7.6598 -3.2606 0.9663
1.3170 7.8080 -3.2606 0.9663
-0.7559 7.5143 -3.1099 0.9679
-1.4220 7.4183 -3.1103 0.9679
-2.0766 7.2622 -3.1103 0.9679
-2.7142 7.0474 -3.1098 0.9679
-3.9188 6.4513 -3.1082 0.9679
-5.2457 5.9314 -3.2606 0.9663
-5.7528 5.4410 -3.2606 0.9663
-6.6264 4.3348 -3.2606 0.9663
-6.9859 3.7278 -3.2606 0.9663
-7.2900 3.0912 -3.2606 0.9663
-7.5362 2.4301 -3.2606 0.9663
-7.7226 1.7497 -3.2606 0.9663
-7.8477 1.0554 -3.2606 0.9663
-7.5362 -2.4301 -3.2606 0.9663
-6.2143 -4.9073 -3.2606 0.9663
-5.7529 -5.4410 -3.2606 0.9663
-5.2457 -5.9314 -3.2606 0.9663
-4.6970 -6.3748 -3.2606 0.9663
-2.1769 -7.6132 -3.2606 0.9663
-1.4907 -7.7767 -3.2606 0.9663
-0.7926 -7.8785 -3.2606 0.9663
0.6169 -7.8942 -3.2606 0.9663
1.3170 -7.8080 -3.2606 0.9663
2.0068 -7.6598 -3.2606 0.9663
3.3331 -7.1826 -3.2606 0.9663
3.9519 -6.8449 -3.2546 0.9664
4.5070 -6.4112 -3.2271 0.9667
5.0486 -5.9715 -3.2200 0.9667
5.5617 -5.5001 -3.2209 0.9667
6.0315 -4.9852 -3.2222 0.9667
6.8257 -3.8401 -3.2250 0.9667
7.1438 -3.2188 -3.2265 0.9667
7.7521 -1.2189 -3.2314 0.9666
7.8339 -0.5244 -3.2331 0.9666
7.8536 0.1750 -3.2348 0.9666
7.7062 1.5664 -3.2382 0.9666
7.0300 3.5525 -3.2434 0.9665
6.7213 4.1861 -3.2606 0.9663
6.3221 4.7677 -3.2606 0.9663
5.8726 5.3115 -3.2606 0.9663
4.8378 6.2686 -3.2606 0.9663
4.2607 6.6743 -3.2606 0.9663
3.6497 7.0270 -3.2606 0.9663
3.0098 7.3240 -3.2606 0.9663
2.3460 7.5628 -3.2606 0.9663
-2.3979 7.1620 -3.1101 0.9679
-3.0251 6.9187 -3.1094 0.9679
-5.9895 5.1793 -3.2606 0.9663
-6.4267 4.6257 -3.2606 0.9663
-7.1451 3.4129 -3.2606 0.9663
-7.4205 2.7634 -3.2606 0.9663
-7.6370 2.0920 -3.2606 0.9663
-7.8869 0.7048 -3.2606 0.9663
-7.5590 0.0000 -3.2606 0.9676
-7.5289 -0.6728 -3.2606 0.9676
-7.2904 -1.9970 -3.2606 0.9676
-6.1351 -4.4157 -3.2606 0.9676
-3.6327 -6.6288 -3.2606 0.9676
-3.0283 -6.9258 -3.2606 0.9676
-1.7523 -7.3530 -3.2606 0.9676
-0.4208 -7.5472 -3.2606 0.9676
2.2395 -7.2195 -3.2606 0.9676
5.5399 -5.0106 -3.2221 0.9680
5.9662 -4.4994 -3.2234 0.9680
6.3457 -3.9521 -3.2247 0.9680
6.6752 -3.3731 -3.2261 0.9679
6.9521 -2.7669 -3.2276 0.9679
7.1742 -2.1381 -3.2291 0.9679
7.3396 -1.4918 -3.2307 0.9679
7.4469 -0.8330 -3.2323 0.9679
7.0963 2.4641 -3.2403 0.9678
6.8563 3.0895 -3.2439 0.9678
6.5879 3.7063 -3.2606 0.9676
5.3746 5.3151 -3.2606 0.9676
4.8803 5.7724 -3.2606 0.9676
4.3471 6.1839 -3.2606 0.9676
3.1818 6.8567 -3.2606 0.9676
0.5872 7.5151 -3.2516 0.9677
-3.1780 6.4670 -3.1082 0.9691
-3.8321 6.3085 -3.1839 0.9684
-5.0077 5.6623 -3.2606 0.9676
-5.9323 4.6847 -3.2606 0.9676
-6.3257 4.1381 -3.2606 0.9676
-6.6689 3.5586 -3.2606 0.9676
-7.1942 2.3198 -3.2606 0.9676
-7.3721 1.6703 -3.2606 0.9676
-7.4915 -1.0075 -3.2606 0.9676
-7.3721 -1.6703 -3.2606 0.9676
-6.3257 -4.1380 -3.2606 0.9676
-5.9323 -4.6846 -3.2606 0.9676
-5.4917 -5.1940 -3.2606 0.9676
-5.0077 -5.6622 -3.2606 0.9676
-3.3338 -6.7840 -3.2606 0.9676
-2.7168 -7.0538 -3.2606 0.9676
-1.4230 -7.4238 -3.2606 0.9676
-0.7566 -7.5210 -3.2606 0.9676
1.2573 -7.4536 -3.2606 0.9676
1.9157 -7.3121 -3.2606 0.9676
2.5589 -7.1126 -3.2606 0.9676
5.7587 -4.7597 -3.2228 0.9680
6.5168 -3.6663 -3.2254 0.9680
6.8203 -3.0731 -3.2269 0.9679
7.2640 -1.8168 -3.2299 0.9679
7.4006 -1.1637 -3.2315 0.9679
7.4785 -0.5006 -3.2331 0.9679
7.1973 2.1450 -3.2396 0.9678
6.7252 3.3984 -3.2503 0.9677
6.4163 3.9961 -3.2606 0.9676
6.0351 4.5513 -3.2606 0.9676
5.6061 5.0704 -3.2606 0.9676
5.1325 5.5493 -3.2606 0.9676
4.0673 6.3714 -3.2606 0.9676
3.4841 6.7081 -3.2606 0.9676
2.8732 6.9916 -3.2606 0.9676
1.5881 7.3903 -3.2606 0.9676
0.9240 7.5023 -3.2606 0.9676
-0.4012 7.1955 -3.1087 0.9691
-1.0403 7.1326 -3.1093 0.9691
-1.6711 7.0122 -3.1095 0.9691
-2.2884 6.8351 -3.1092 0.9691
-4.2083 6.2792 -3.2606 0.9676
-4.7505 5.8797 -3.2606 0.9676
-5.2549 5.4336 -3.2606 0.9676
-6.1351 4.4158 -3.2606 0.9676
-6.5037 3.8522 -3.2606 0.9676
-7.2904 1.9971 -3.2606 0.9676
-7.4392 1.3402 -3.2606 0.9676
-7.2263 0.0000 -3.2606 0.9688
-7.1118 -1.2812 -3.2606 0.9688
-6.9695 -1.9091 -3.2606 0.9688
-6.7719 -2.5219 -3.2606 0.9688
-6.2175 -3.6826 -3.2606 0.9688
-5.8650 -4.2214 -3.2606 0.9688
-5.4660 -4.7267 -3.2606 0.9688
-4.0231 -6.0028 -3.2606 0.9688
-2.2942 -6.8524 -3.2606 0.9688
-1.6752 -7.0294 -3.2606 0.9688
-0.4023 -7.2150 -3.2606 0.9688
0.2415 -7.2222 -3.2606 0.9688
1.5182 -7.0650 -3.2606 0.9688
2.7467 -6.6838 -3.2606 0.9688
4.8579 -5.2523 -3.2282 0.9691
5.2973 -4.7911 -3.2228 0.9691
6.3821 -3.2250 -3.2265 0.9691
7.1654 -0.1597 -3.2340 0.9690
7.1546 0.4790 -3.2355 0.9690
7.0870 1.1144 -3.2371 0.9690
6.7842 2.3557 -3.2404 0.9690
6.5738 2.9620 -3.2534 0.9689
5.9576 4.0897 -3.2606 0.9688
5.5700 4.6037 -3.2606 0.9688
4.6654 5.5184 -3.2606 0.9688
3.0418 6.5549 -3.2606 0.9688
1.8314 6.9903 -3.2606 0.9688
1.2019 7.1256 -3.2606 0.9688
-0.0780 6.9983 -3.1580 0.9698
-2.4758 6.4282 -3.1082 0.9702
-3.0936 6.2953 -3.1650 0.9697
-3.7517 6.1761 -3.2606 0.9688
-4.7873 5.4130 -3.2606 0.9688
-5.2501 4.9655 -3.2606 0.9688
-6.0473 3.9560 -3.2606 0.9688
-6.3754 3.4020 -3.2606 0.9688
-7.0476 1.5968 -3.2606 0.9688
-7.1618 0.9632 -3.2606 0.9688
-7.2191 0.3219 -3.2606 0.9688
-7.1618 -0.9632 -3.2606 0.9688
-7.0476 -1.5968 -3.2606 0.9688
-6.6529 -2.8210 -3.2606 0.9688
-6.0473 -3.9559 -3.2606 0.9688
-5.6712 -4.4784 -3.2606 0.9688
-5.2501 -4.9654 -3.2606 0.9688
-3.7517 -6.1761 -3.2606 0.9688
-3.1871 -6.4854 -3.2606 0.9688
-2.5972 -6.7434 -3.2606 0.9688
-1.3604 -7.0970 -3.2606 0.9688
-0.7233 -7.1900 -3.2606 0.9688
3.0418 -6.5549 -3.2606 0.9688
5.0832 -5.0269 -3.2258 0.9691
5.5062 -4.5509 -3.2233 0.9691
5.8916 -4.0444 -3.2245 0.9691
6.2308 -3.5054 -3.2258 0.9691
6.7595 -2.3471 -3.2286 0.9691
6.9447 -1.7370 -3.2301 0.9691
7.0751 -1.1125 -3.2316 0.9691
7.1671 0.1597 -3.2347 0.9690
7.0320 1.4293 -3.2378 0.9690
6.8800 2.0505 -3.2393 0.9690
6.6804 2.6588 -3.2443 0.9689
5.7695 4.3510 -3.2606 0.9688
4.9067 5.3050 -3.2606 0.9688
4.4150 5.7207 -3.2606 0.9688
3.3307 6.4129 -3.2606 0.9688
2.1409 6.9018 -3.2606 0.9688
0.8833 7.1721 -3.2606 0.9688
0.2409 7.2068 -3.2536 0.9689
-0.9942 6.8169 -3.1084 0.9702
-4.0231 6.0028 -3.2606 0.9688
-4.5414 5.6209 -3.2606 0.9688
-5.8650 4.2214 -3.2606 0.9688
-6.5206 3.1146 -3.2606 0.9688
-7.1118 1.2813 -3.2606 0.9688
-7.1976 0.6432 -3.2606 0.9688
-6.8076 -1.2264 -3.2606 0.9699
-5.9516 -3.5251 -3.2606 0.9699
-3.8510 -5.7461 -3.2606 0.9699
-3.3243 -6.0660 -3.2606 0.9699
-0.9983 -6.8448 -3.2606 0.9699
-0.3851 -6.9065 -3.2606 0.9699
0.8455 -6.8653 -3.2606 0.9699
1.4532 -6.7628 -3.2606 0.9699
2.0494 -6.6066 -3.2606 0.9699
3.1883 -6.1386 -3.2606 0.9699
3.7220 -5.8304 -3.2606 0.9699
4.2235 -5.4725 -3.2585 0.9699
4.6618 -5.0403 -3.2363 0.9701
5.0795 -4.5942 -3.2284 0.9702
6.3630 -2.5324 -3.2282 0.9702
6.8590 -0.1528 -3.2340 0.9701
6.8485 0.4585 -3.2355 0.9701
6.7836 1.0667 -3.2369 0.9701
4.4659 5.2823 -3.2606 0.9699
3.4586 5.9905 -3.2606 0.9699
2.9117 6.2746 -3.2606 0.9699
1.7530 6.6914 -3.2606 0.9699
1.1505 6.8208 -3.2606 0.9699
0.5389 6.8962 -3.2606 0.9699
-0.6710 6.6700 -3.1600 0.9708
-3.0508 6.2081 -3.2606 0.9699
-3.5912 5.9119 -3.2606 0.9699
-4.5825 5.1815 -3.2606 0.9699
-5.4286 4.2869 -3.2606 0.9699
-5.7886 3.7867 -3.2606 0.9699
-6.1027 3.2565 -3.2606 0.9699
-6.5834 2.1229 -3.2606 0.9699
-6.7462 1.5285 -3.2606 0.9699
-6.8555 0.9220 -3.2606 0.9699
-6.9103 0.3081 -3.2606 0.9699
-6.9104 -0.3081 -3.2606 0.9699
-6.3683 -2.7004 -3.2606 0.9699
-6.1027 -3.2565 -3.2606 0.9699
-5.0255 -4.7531 -3.2606 0.9699
-3.5912 -5.9119 -3.2606 0.9699
-3.0508 -6.2081 -3.2606 0.9699
-1.9017 -6.6506 -3.2606 0.9699
-0.6924 -6.8824 -3.2606 0.9699
-0.0771 -6.9167 -3.2606 0.9699
0.5389 -6.8962 -3.2606 0.9699
3.9781 -5.6588 -3.2606 0.9699
4.4498 -5.2633 -3.2488 0.9700
5.6404 -3.8719 -3.2249 0.9702
5.9650 -3.3558 -3.2262 0.9702
6.2425 -2.8127 -3.2275 0.9702
6.6481 -1.6628 -3.2303 0.9702
6.7728 -1.0650 -3.2318 0.9701
6.8606 0.1529 -3.2347 0.9701
6.7309 1.3681 -3.2377 0.9701
6.1737 3.1197 -3.2606 0.9699
5.8715 3.6568 -3.2606 0.9699
5.5228 4.1649 -3.2606 0.9699
4.6968 5.0782 -3.2606 0.9699
2.6293 6.3980 -3.2606 0.9699
2.0494 6.6066 -3.2606 0.9699
1.4532 6.7628 -3.2606 0.9699
-0.3795 6.8051 -3.2127 0.9703
-0.9565 6.5580 -3.1240 0.9711
-1.5286 6.4143 -3.1082 0.9713
-2.7439 6.2756 -3.2286 0.9702
-4.3472 5.3805 -3.2606 0.9699
-4.8088 4.9723 -3.2606 0.9699
-5.6142 4.0409 -3.2606 0.9699
-5.9516 3.5251 -3.2606 0.9699
-6.2417 2.9814 -3.2606 0.9699
-6.4824 2.4141 -3.2606 0.9699
-6.6714 1.8275 -3.2606 0.9699
-6.8076 1.2265 -3.2606 0.9699
-6.6292 0.0000 -3.2606 0.9709
-6.5242 -1.1754 -3.2606 0.9709
-6.3937 -1.7514 -3.2606 0.9709
-5.7038 -3.3783 -3.2606 0.9709
-4.6086 -4.7652 -3.2606 0.9709
-4.1662 -5.1565 -3.2606 0.9709
-3.1859 -5.8135 -3.2606 0.9709
-2.6558 -6.0740 -3.2606 0.9709
-2.1047 -6.2862 -3.2606 0.9709
-1.5368 -6.4486 -3.2606 0.9709
0.2215 -6.6255 -3.2606 0.9709
3.0556 -5.8830 -3.2606 0.9709
4.4926 -4.8574 -3.2544 0.9709
4.8766 -4.4106 -3.2341 0.9711
5.2423 -3.9534 -3.2295 0.9712
6.0985 -2.4272 -3.2284 0.9712
6.2930 -1.8755 -3.2298 0.9712
6.5633 0.4394 -3.2354 0.9711
6.5019 1.0224 -3.2373 0.9711
6.0440 2.7233 -3.2606 0.9709
5.4654 3.7518 -3.2606 0.9709
2.7904 6.0133 -3.2606 0.9709
1.1026 6.5369 -3.2606 0.9709
-0.0739 6.6288 -3.2606 0.9709
-3.4417 5.6658 -3.2606 0.9709
-3.9323 5.3370 -3.2606 0.9709
-4.8163 4.5552 -3.2606 0.9709
-6.1032 2.5880 -3.2606 0.9709
-6.5701 -0.8836 -3.2606 0.9709
-6.4654 -1.4648 -3.2606 0.9709
-6.1032 -2.5879 -3.2606 0.9709
-2.9238 -5.9496 -3.2606 0.9709
-2.3826 -6.1862 -3.2606 0.9709
-1.2480 -6.5107 -3.2606 0.9709
-0.6636 -6.5959 -3.2606 0.9709
-0.0739 -6.6288 -3.2606 0.9709
1.1026 -6.5369 -3.2606 0.9709
1.6801 -6.4128 -3.2606 0.9709
2.2442 -6.2378 -3.2606 0.9709
2.7904 -6.0133 -3.2606 0.9709
4.6877 -4.6358 -3.2427 0.9710
5.0633 -4.1850 -3.2310 0.9711
5.4106 -3.7142 -3.2279 0.9712
5.7172 -3.2164 -3.2265 0.9712
6.2019 -2.1535 -3.2291 0.9712
6.4910 -1.0206 -3.2319 0.9711
6.5590 -0.4390 -3.2333 0.9711
6.5749 0.1465 -3.2347 0.9711
6.4556 1.3122 -3.2401 0.9711
5.6271 3.5046 -3.2606 0.9709
5.2928 3.9915 -3.2606 0.9709
4.5013 4.8667 -3.2606 0.9709
3.5671 5.5877 -3.2606 0.9709
3.0556 5.8830 -3.2606 0.9709
2.5198 6.1317 -3.2606 0.9709
1.9641 6.3316 -3.2606 0.9709
1.3927 6.4813 -3.2606 0.9709
-0.3691 6.6189 -3.2606 0.9709
-0.9531 6.5346 -3.2481 0.9710
-1.5189 6.3736 -3.2227 0.9712
-2.1021 6.2786 -3.2567 0.9709
-4.1662 5.1565 -3.2606 0.9709
-4.6086 4.7653 -3.2606 0.9709
-5.3805 3.8726 -3.2606 0.9709
-5.9818 2.8573 -3.2606 0.9709
-6.2125 2.3136 -3.2606 0.9709
-6.3348 -0.5661 -3.2606 0.9718
-6.1341 -1.6803 -3.2606 0.9718
-5.9602 -2.2196 -3.2606 0.9718
-5.4722 -3.2412 -3.2606 0.9718
-4.8108 -4.1601 -3.2606 0.9718
-4.4215 -4.5717 -3.2606 0.9718
-3.9970 -4.9471 -3.2606 0.9718
-3.5408 -5.2832 -3.2606 0.9718
-3.0565 -5.5774 -3.2606 0.9718
-2.5480 -5.8273 -3.2606 0.9718
-2.0192 -6.0310 -3.2606 0.9718
-0.3541 -6.3502 -3.2606 0.9718
0.2125 -6.3565 -3.2606 0.9718
1.3362 -6.2181 -3.2606 0.9718
1.8843 -6.0745 -3.2606 0.9718
3.4222 -5.3608 -3.2606 0.9718
5.3501 -3.3321 -3.2313 0.9721
6.1765 -1.2554 -3.2313 0.9721
6.3066 -0.1405 -3.2340 0.9720
6.1621 1.5413 -3.2564 0.9719
5.7986 2.6127 -3.2606 0.9718
5.2435 3.5995 -3.2606 0.9718
4.5222 4.4721 -3.2606 0.9718
3.1800 5.5080 -3.2606 0.9718
2.1530 5.9845 -3.2606 0.9718
1.6118 6.1524 -3.2606 0.9718
1.0579 6.2715 -3.2606 0.9718
0.4955 6.3407 -3.2606 0.9718
-2.2859 5.9351 -3.2606 0.9718
-2.8050 5.7081 -3.2606 0.9718
-4.6207 4.3703 -3.2606 0.9718
-5.8554 2.4829 -3.2606 0.9718
-6.0531 1.9519 -3.2606 0.9718
-6.3537 0.2833 -3.2606 0.9718
-6.3538 -0.2833 -3.2606 0.9718
-6.0531 -1.9519 -3.2606 0.9718
-5.3224 -3.4817 -3.2606 0.9718
-4.9914 -3.9416 -3.2606 0.9718
-4.2134 -4.7642 -3.2606 0.9718
-3.7727 -5.1203 -3.2606 0.9718
-3.3020 -5.4357 -3.2606 0.9718
-2.8050 -5.7080 -3.2606 0.9718
-2.2859 -5.9351 -3.2606 0.9718
-1.7486 -6.1150 -3.2606 0.9718
-1.1973 -6.2463 -3.2606 0.9718
-0.6366 -6.3281 -3.2606 0.9718
-0.0709 -6.3596 -3.2606 0.9718
3.1800 -5.5079 -3.2606 0.9718
4.1062 -4.8568 -3.2606 0.9718
4.5180 -4.4680 -3.2576 0.9718
5.1980 -3.5685 -3.2323 0.9721
5.7417 -2.5871 -3.2286 0.9721
5.9504 -2.0662 -3.2293 0.9721
6.1132 -1.5290 -3.2306 0.9721
6.2276 -0.9792 -3.2320 0.9721
6.2927 -0.4212 -3.2333 0.9720
6.3092 0.1406 -3.2353 0.9720
6.2056 1.2614 -3.2465 0.9719
5.9092 2.3518 -3.2606 0.9718
5.6764 2.8685 -3.2606 0.9718
5.3986 3.3623 -3.2606 0.9718
4.3185 4.6691 -3.2606 0.9718
3.8858 5.0350 -3.2606 0.9718
3.4222 5.3608 -3.2606 0.9718
2.9315 5.6442 -3.2606 0.9718
2.4175 5.8827 -3.2606 0.9718
1.8843 6.0745 -3.2606 0.9718
1.3362 6.2181 -3.2606 0.9718
-0.3541 6.3502 -3.2606 0.9718
-1.4744 6.1868 -3.2606 0.9718
-3.0565 5.5775 -3.2606 0.9718
-3.5408 5.2833 -3.2606 0.9718
-3.9970 4.9471 -3.2606 0.9718
-4.8108 4.1601 -3.2606 0.9718
-5.1620 3.7154 -3.2606 0.9718
-5.4722 3.2412 -3.2606 0.9718
-5.7390 2.7413 -3.2606 0.9718
-5.9602 2.2196 -3.2606 0.9718
-6.2593 1.1277 -3.2606 0.9718
-6.3348 0.5661 -3.2606 0.9718
-6.0836 -0.5436 -3.2606 0.9727
-5.7238 -2.1316 -3.2606 0.9727
-5.5114 -2.6325 -3.2606 0.9727
-5.2552 -3.1126 -3.2606 0.9727
-4.9573 -3.5680 -3.2606 0.9727
-4.6200 -3.9951 -3.2606 0.9727
-3.8385 -4.7509 -3.2606 0.9727
-3.4004 -5.0737 -3.2606 0.9727
-1.4159 -5.9414 -3.2606 0.9727
-0.3401 -6.0983 -3.2606 0.9727
0.2041 -6.1044 -3.2606 0.9727
0.7466 -6.0620 -3.2606 0.9727
1.2832 -5.9715 -3.2606 0.9727
3.2865 -5.1482 -3.2606 0.9727
4.8605 -3.6655 -3.2499 0.9728
5.6270 -2.2395 -3.2331 0.9729
5.9365 -1.2066 -3.2340 0.9729
6.0235 -0.6738 -3.2357 0.9729
6.0589 0.4059 -3.2417 0.9728
5.9253 1.4820 -3.2606 0.9727
5.7698 2.0035 -3.2606 0.9727
5.3232 2.9948 -3.2606 0.9727
4.3428 4.2947 -3.2606 0.9727
3.5126 4.9967 -3.2606 0.9727
2.5710 5.5404 -3.2606 0.9727
2.0676 5.7472 -3.2606 0.9727
1.0159 6.0227 -3.2606 0.9727
-0.0681 6.1074 -3.2606 0.9727
-1.1498 5.9986 -3.2606 0.9727
-1.6792 5.8725 -3.2606 0.9727
-2.1952 5.6997 -3.2606 0.9727
-3.1710 5.2202 -3.2606 0.9727
-4.0463 4.5752 -3.2606 0.9727
-4.7934 3.7853 -3.2606 0.9727
-6.1018 0.2721 -3.2606 0.9727
-6.1018 -0.2721 -3.2606 0.9727
-6.0533 -0.8141 -3.2606 0.9727
-5.6232 -2.3844 -3.2606 0.9727
-5.1113 -3.3436 -3.2606 0.9727
-4.7934 -3.7853 -3.2606 0.9727
-4.4375 -4.1969 -3.2606 0.9727
-1.1499 -5.9986 -3.2606 0.9727
0.4758 -6.0892 -3.2606 0.9727
1.5479 -5.9084 -3.2606 0.9727
2.0676 -5.7471 -3.2606 0.9727
3.0539 -5.2895 -3.2606 0.9727
3.9433 -4.6642 -3.2606 0.9727
4.7020 -3.8863 -3.2565 0.9727
5.2803 -2.9706 -3.2343 0.9729
5.9857 -0.9415 -3.2347 0.9729
6.0496 -0.4056 -3.2368 0.9729
6.0445 0.6762 -3.2469 0.9728
5.1845 3.2289 -3.2606 0.9727
4.8765 3.6776 -3.2606 0.9727
4.5299 4.0970 -3.2606 0.9727
3.2865 5.1482 -3.2606 0.9727
0.7466 6.0620 -3.2606 0.9727
-0.3401 6.0983 -3.2606 0.9727
-0.8815 6.0439 -3.2606 0.9727
-1.4159 5.9414 -3.2606 0.9727
-3.4004 5.0737 -3.2606 0.9727
-4.6200 3.9951 -3.2606 0.9727
-4.9573 3.5680 -3.2606 0.9727
-5.2552 3.1127 -3.2606 0.9727
-5.7238 2.1316 -3.2606 0.9727
-5.8908 1.6137 -3.2606 0.9727
-5.8708 0.0000 -3.2606 0.9735
-5.7778 -1.0409 -3.2606 0.9735
-5.6622 -1.5510 -3.2606 0.9735
-5.0512 -2.9918 -3.2606 0.9735
-4.7649 -3.4295 -3.2606 0.9735
-4.4408 -3.8400 -3.2606 0.9735
-3.6895 -4.5665 -3.2606 0.9735
-3.2684 -4.8768 -3.2606 0.9735
-2.8214 -5.1484 -3.2606 0.9735
-2.3520 -5.3791 -3.2606 0.9735
-0.8473 -5.8094 -3.2606 0.9735
-0.3269 -5.8617 -3.2606 0.9735
0.1962 -5.8675 -3.2606 0.9735
1.2334 -5.7397 -3.2606 0.9735
2.2315 -5.4301 -3.2606 0.9735
3.9863 -4.3099 -3.2606 0.9735
5.2118 -2.6336 -3.2432 0.9736
5.5853 -1.6646 -3.2369 0.9737
5.7129 -1.1612 -3.2378 0.9737
5.8429 -0.1302 -3.2459 0.9736
5.8508 0.3917 -3.2568 0.9735
5.6953 1.4245 -3.2606 0.9735
5.5459 1.9258 -3.2606 0.9735
5.3525 2.4118 -3.2606 0.9735
4.8401 3.3226 -3.2606 0.9735
4.5252 3.7402 -3.2606 0.9735
2.9354 5.0842 -3.2606 0.9735
0.4573 5.8529 -3.2606 0.9735
-2.5893 5.2690 -3.2606 0.9735
-4.2653 4.0341 -3.2606 0.9735
-4.6074 3.6384 -3.2606 0.9735
-5.7257 1.2973 -3.2606 0.9735
-5.8650 -0.2615 -3.2606 0.9735
-5.5875 -1.8017 -3.2606 0.9735
-5.4050 -2.2919 -3.2606 0.9735
-4.9129 -3.2139 -3.2606 0.9735
-4.6074 -3.6384 -3.2606 0.9735
-4.2653 -4.0340 -3.2606 0.9735
-3.0480 -5.0176 -3.2606 0.9735
-2.5893 -5.2690 -3.2606 0.9735
-2.1100 -5.4785 -3.2606 0.9735
-1.6140 -5.6445 -3.2606 0.9735
-0.0654 -5.8704 -3.2606 0.9735
1.4878 -5.6791 -3.2606 0.9735
1.9874 -5.5241 -3.2606 0.9735
3.3763 -4.8028 -3.2606 0.9735
3.7903 -4.4832 -3.2606 0.9735
4.8352 -3.3192 -3.2573 0.9735
5.0965 -2.8672 -3.2478 0.9736
5.3188 -2.3965 -3.2401 0.9737
5.5061 -1.9120 -3.2372 0.9737
5.8252 -0.3899 -3.2425 0.9736
5.8521 0.1304 -3.2510 0.9736
5.7531 1.1694 -3.2606 0.9735
5.6262 1.6768 -3.2606 0.9735
5.2398 2.6478 -3.2606 0.9735
4.9833 3.1037 -3.2606 0.9735
4.6873 3.5349 -3.2606 0.9735
3.5869 4.6476 -3.2606 0.9735
2.7060 5.2100 -3.2606 0.9735
2.2315 5.4302 -3.2606 0.9735
1.7394 5.6072 -3.2606 0.9735
-0.3269 5.8617 -3.2606 0.9735
-0.8473 5.8093 -3.2606 0.9735
-1.3610 5.7109 -3.2606 0.9735
-1.8639 5.5671 -3.2606 0.9735
-2.3520 5.3791 -3.2606 0.9735
-3.6895 4.5666 -3.2606 0.9735
-4.4407 3.8401 -3.2606 0.9735
-4.7649 3.4296 -3.2606 0.9735
-5.8475 0.5225 -3.2606 0.9735
-5.6251 -0.5026 -3.2606 0.9743
-5.5581 -1.0013 -3.2606 0.9743
-5.4469 -1.4920 -3.2606 0.9743
-5.2925 -1.9709 -3.2606 0.9743
-5.0960 -2.4341 -3.2606 0.9743
-4.5837 -3.2991 -3.2606 0.9743
-3.9262 -4.0596 -3.2606 0.9743
-2.7141 -4.9526 -3.2606 0.9743
-2.2625 -5.1745 -3.2606 0.9743
-1.7930 -5.3554 -3.2606 0.9743
-0.8151 -5.5884 -3.2606 0.9743
-0.3144 -5.6388 -3.2606 0.9743
1.1865 -5.5215 -3.2606 0.9743
2.6031 -5.0118 -3.2606 0.9743
3.0388 -4.7603 -3.2606 0.9743
3.4505 -4.4709 -3.2606 0.9743
3.8347 -4.1460 -3.2606 0.9743
4.1885 -3.7883 -3.2606 0.9743
4.7938 -2.9856 -3.2606 0.9743
5.2359 -2.0838 -3.2536 0.9743
5.3958 -1.6081 -3.2507 0.9743
5.5184 -1.1217 -3.2512 0.9743
5.6031 -0.6268 -3.2552 0.9743
5.6441 -0.1257 -3.2594 0.9743
5.3350 1.8525 -3.2606 0.9743
5.1490 2.3200 -3.2606 0.9743
4.9221 2.7691 -3.2606 0.9743
4.3531 3.5979 -3.2606 0.9743
4.0156 3.9711 -3.2606 0.9743
3.6462 4.3128 -3.2606 0.9743
2.8238 4.8909 -3.2606 0.9743
2.3772 5.1228 -3.2606 0.9743
1.9118 5.3141 -3.2606 0.9743
1.4313 5.4632 -3.2606 0.9743
0.9393 5.5689 -3.2606 0.9743
0.4400 5.6304 -3.2606 0.9743
-0.0629 5.6472 -3.2606 0.9743
-0.5653 5.6192 -3.2606 0.9743
-1.0632 5.5466 -3.2606 0.9743
-2.0298 5.2702 -3.2606 0.9743
-2.9320 4.8268 -3.2606 0.9743
-3.3500 4.5467 -3.2606 0.9743
-4.1031 3.8807 -3.2606 0.9743
-4.9825 2.6588 -3.2606 0.9743
-5.5972 0.7528 -3.2606 0.9743
-5.6419 -0.2516 -3.2606 0.9743
-5.5972 -0.7527 -3.2606 0.9743
-5.1994 -2.2047 -3.2606 0.9743
-4.7261 -3.0917 -3.2606 0.9743
-4.4322 -3.5000 -3.2606 0.9743
-4.1031 -3.8806 -3.2606 0.9743
-3.7414 -4.2305 -3.2606 0.9743
-2.0298 -5.2702 -3.2606 0.9743
0.4399 -5.6304 -3.2606 0.9743
2.8238 -4.8909 -3.2606 0.9743
4.3531 -3.5979 -3.2606 0.9743
4.9209 -2.7684 -3.2598 0.9743
5.1416 -2.3166 -3.2559 0.9743
5.3205 -1.8475 -3.2517 0.9743
5.4618 -1.3661 -3.2505 0.9743
5.5655 -0.8751 -3.2528 0.9743
5.6461 0.1258 -3.2606 0.9743
5.6125 0.6279 -3.2606 0.9743
5.2472 2.0884 -3.2606 0.9743
5.0405 2.5471 -3.2606 0.9743
4.7938 2.9856 -3.2606 0.9743
4.5090 3.4005 -3.2606 0.9743
4.1885 3.7883 -3.2606 0.9743
3.4505 4.4709 -3.2606 0.9743
3.0388 4.7603 -3.2606 0.9743
2.6031 5.0119 -3.2606 0.9743
2.1467 5.2237 -3.2606 0.9743
1.1865 5.5215 -3.2606 0.9743
-0.3144 5.6388 -3.2606 0.9743
-1.7930 5.3554 -3.2606 0.9743
-3.1442 4.6914 -3.2606 0.9743
-3.5492 4.3929 -3.2606 0.9743
-3.9261 4.0596 -3.2606 0.9743
-4.5837 3.2992 -3.2606 0.9743
-4.8592 2.8781 -3.2606 0.9743
-5.0960 2.4342 -3.2606 0.9743
-5.4469 1.4921 -3.2606 0.9743
-5.6251 0.5027 -3.2606 0.9743
