ply
format ascii 1.0
element vertex 1640
property float32 x
property float32 y
property float32 z
property float32 I
end_header
-5.9781 -10.9087 6.9088 0.9447
-1.9928 -5.9521 3.4861 0.9717
-2.0586 -6.1488 3.4616 0.9710
5.8635 9.1850 5.5866 0.9522
3.8458 9.3581 5.1869 0.9555
2.9079 9.3743 5.0318 0.9568
-2.2456 -6.7074 3.4790 0.9690
1.5794 9.3631 4.6704 0.9586
1.5795 9.3641 4.0964 0.9595
-6.0234 -12.2572 5.8911 0.9422
1.5796 9.3644 3.9106 0.9598
-2.7873 -11.6962 4.7190 0.9496
-2.3144 -8.0940 3.3040 0.9645
-6.0195 -12.2494 5.0965 0.9434
1.5797 9.3654 3.3677 0.9605
-2.4407 -8.5355 3.1479 0.9630
1.5798 9.3657 3.1911 0.9607
-2.5153 -8.7966 3.0740 0.9621
6.4118 9.1208 3.5408 0.9543
1.5798 9.3660 3.0165 0.9609
6.9961 9.0651 3.6366 0.9531
7.6508 9.0494 3.5477 0.9517
3.3433 9.2929 2.9567 0.9596
-6.0152 -12.2405 4.0831 0.9446
-2.7043 -9.4574 2.9448 0.9598
3.8108 9.2730 3.0014 0.9590
9.0478 8.9475 3.5802 0.9485
2.4483 9.3451 2.7180 0.9607
1.5799 9.3666 2.6726 0.9613
2.8964 9.3371 2.7506 0.9602
10.6734 8.8217 3.6487 0.9443
1.5800 9.3668 2.5030 0.9615
2.0163 9.3833 2.5289 0.9611
1.5801 9.3677 2.0028 0.9619
-6.0099 -12.2298 2.8728 0.9458
1.5802 9.3680 1.8385 0.9620
-6.0089 -12.2277 2.6366 0.9460
1.5803 9.3685 1.5129 0.9622
-6.0059 -12.2216 1.9369 0.9465
8.4409 2.9310 1.1197 0.9646
-6.0049 -12.2195 1.7062 0.9466
8.8174 2.6279 1.1530 0.9636
8.1858 3.6883 0.9739 0.9645
1.5804 9.3694 1.0306 0.9625
8.1075 3.2267 0.9465 0.9655
8.0650 2.8005 0.7827 0.9663
7.9778 3.5946 0.8022 0.9655
1.5805 9.3696 0.8711 0.9626
-6.0029 -12.2155 1.2478 0.9468
8.2973 2.4729 0.7937 0.9658
7.9531 3.1652 0.7847 0.9662
8.5485 2.1381 0.6604 0.9653
7.8362 3.5308 0.6441 0.9661
7.8364 3.1188 0.6321 0.9667
8.0458 4.0657 0.6756 0.9645
-2.7876 -11.6972 0.7004 0.9530
7.7349 3.4852 0.4941 0.9666
1.5805 9.3702 0.5535 0.9626
-6.0009 -12.2115 0.7925 0.9469
9.2565 1.8815 0.5502 0.9629
7.7552 3.0865 0.4861 0.9671
8.3113 2.0788 0.3562 0.9663
7.7958 2.7070 0.3431 0.9675
7.6570 3.4501 0.3492 0.9669
1.5806 9.3704 0.3951 0.9627
-5.9999 -12.2095 0.5656 0.9470
8.9481 1.8188 0.3797 0.9641
7.6845 3.0584 0.3439 0.9674
7.7724 3.9276 0.3621 0.9657
8.2356 2.0599 0.2117 0.9666
7.6032 3.4259 0.2080 0.9672
1.5806 9.3707 0.2370 0.9627
7.6938 3.8878 0.2150 0.9661
-2.7863 -11.6918 0.0999 0.9531
7.5621 3.4073 0.0689 0.9674
8.0323 4.5189 0.0766 0.9638
1.5807 9.3710 0.0790 0.9627
8.7012 1.7686 0.0738 0.9651
7.5967 3.0234 0.0680 0.9678
7.6763 2.6655 -0.0675 0.9680
1.5807 9.3713 -0.0790 0.9627
-5.9970 -12.2035 -0.1130 0.9471
8.6375 1.7557 -0.0733 0.9654
7.8625 2.3433 -0.0682 0.9677
7.5902 3.8355 -0.0707 0.9666
7.5159 3.3865 -0.2056 0.9676
7.8796 4.4330 -0.2255 0.9645
1.5808 9.3715 -0.2370 0.9627
7.5533 3.0062 -0.2027 0.9680
8.1151 2.0297 -0.3478 0.9671
7.6521 2.6571 -0.3368 0.9681
7.5030 3.3807 -0.3422 0.9676
7.8534 4.4182 -0.3747 0.9646
-5.9950 -12.1995 -0.5652 0.9470
7.8364 2.3355 -0.3400 0.9678
8.1256 2.0324 -0.4878 0.9670
7.6583 2.6592 -0.4722 0.9680
8.6110 1.7503 -0.5118 0.9654
7.5689 3.8247 -0.4939 0.9666
7.6713 2.6638 -0.6086 0.9680
7.5246 3.3904 -0.6185 0.9674
7.9304 4.4616 -0.6819 0.9642
1.5809 9.3723 -0.7123 0.9626
7.5606 3.0090 -0.6098 0.9679
-2.7838 -11.6813 -1.1009 0.9529
7.6906 2.6705 -0.7464 0.9678
8.0639 4.5367 -0.8482 0.9635
1.5810 9.3726 -0.8714 0.9625
-5.9921 -12.1935 -1.2456 0.9469
7.5913 3.4205 -0.9031 0.9671
1.5810 9.3729 -1.0310 0.9625
-5.9911 -12.1915 -1.4734 0.9468
8.7905 1.7868 -0.9730 0.9646
7.6208 3.0330 -0.8897 0.9675
7.6372 3.4412 -1.0497 0.9668
1.5811 9.3732 -1.1912 0.9624
8.9962 1.8286 -1.1504 0.9637
7.7658 3.9242 -1.0904 0.9655
8.4107 2.1037 -1.2332 0.9656
7.8468 2.7247 -1.1815 0.9670
7.7195 3.4782 -1.2043 0.9664
1.5811 9.3734 -1.3521 0.9623
-5.9891 -12.1875 -1.9315 0.9466
7.8848 3.9844 -1.2566 0.9649
-2.7821 -11.6741 -1.9110 0.9526
8.5564 2.1401 -1.4045 0.9649
1.5811 9.3737 -1.5137 0.9622
-5.9881 -12.1854 -2.1620 0.9465
8.0899 4.0880 -1.4433 0.9640
8.8062 2.2026 -1.6006 0.9638
7.9833 3.5971 -1.5440 0.9651
-5.9357 -12.0788 -2.3731 0.9468
8.2938 2.4718 -1.5260 0.9655
7.9429 3.1612 -1.5074 0.9659
-2.7812 -11.6705 -2.3217 0.9523
-2.1032 -14.4203 -2.8201 0.9424
8.2225 2.8551 -1.6844 0.9652
1.5812 9.3743 -1.8397 0.9620
-0.1634 14.6644 -2.8380 0.9420
-1.4700 14.6116 -2.8419 0.9419
-2.7686 14.4434 -2.8459 0.9418
-5.9215 -12.0499 -2.5982 0.9468
-4.0320 -14.1007 -2.8381 0.9420
-1.4559 -14.4723 -2.8148 0.9425
-0.1615 -14.4979 -2.8058 0.9426
8.5185 2.5388 -1.7201 0.9644
0.4891 14.6304 -2.8328 0.9421
-2.1209 14.5419 -2.8439 0.9419
-14.4245 0.0000 -3.0410 0.9427
-14.2024 -2.5587 -3.0423 0.9427
-13.9190 -3.8128 -3.0425 0.9427
-13.5235 -5.0362 -3.0423 0.9427
-12.4104 -7.3507 -3.0408 0.9427
-10.3463 -8.9467 -2.8836 0.9456
-9.5095 -9.8327 -2.8838 0.9456
-8.5961 -10.6395 -2.8836 0.9456
-7.6128 -11.3590 -2.8828 0.9456
-4.3017 -12.8483 -2.8565 0.9461
-1.9431 -13.3225 -2.8384 0.9464
-0.7480 -13.4149 -2.8325 0.9466
0.4463 -13.3490 -2.8158 0.9469
1.7090 -13.8759 -2.9474 0.9445
5.2967 -12.8888 -2.9377 0.9446
7.4890 -11.7313 -2.9342 0.9447
10.3115 -9.3262 -2.9311 0.9447
11.0993 -8.3704 -2.9307 0.9448
11.8000 -7.3491 -2.9307 0.9448
12.4085 -6.2703 -2.9310 0.9448
12.9188 -5.1416 -2.9313 0.9447
13.3221 -3.9704 -2.9306 0.9448
13.6234 -2.7691 -2.9308 0.9448
13.8218 -1.5462 -2.9321 0.9447
13.9121 -0.3100 -2.9337 0.9447
13.8934 0.9300 -2.9356 0.9447
13.5307 3.3843 -2.9404 0.9446
12.1945 6.8606 -2.9498 0.9444
11.5493 7.9282 -2.9533 0.9443
9.9859 9.8753 -2.9608 0.9442
9.0738 10.7326 -2.9629 0.9442
8.0888 11.5065 -2.9652 0.9441
7.0386 12.1913 -2.9678 0.9441
5.9312 12.7815 -2.9706 0.9440
1.5813 9.3746 -2.0043 0.9619
-4.8660 12.6343 -2.8543 0.9462
-5.9793 12.1675 -2.8581 0.9461
-9.0171 10.1957 -2.8695 0.9459
-12.6819 6.7673 -3.0304 0.9429
-13.2452 5.6165 -3.0330 0.9429
-14.0511 3.1835 -3.0373 0.9428
-14.2867 1.9214 -3.0390 0.9428
-14.4075 0.6425 -3.0404 0.9427
-14.3013 -1.9233 -3.0421 0.9427
-14.0749 -3.1889 -3.0425 0.9427
-13.7351 -4.4290 -3.0424 0.9427
-13.2847 -5.6332 -3.0421 0.9427
-12.7276 -6.7916 -3.0413 0.9427
-12.0683 -7.8947 -3.0403 0.9428
-9.9377 -9.3990 -2.8837 0.9456
-9.0620 -10.2465 -2.8838 0.9456
-2.5351 -13.2251 -2.8389 0.9464
1.0922 -13.9771 -2.9556 0.9443
2.3222 -13.7671 -2.9434 0.9445
3.5356 -13.4953 -2.9411 0.9446
4.7190 -13.1167 -2.9388 0.9446
5.8636 -12.6358 -2.9367 0.9446
6.9608 -12.0564 -2.9349 0.9447
8.0022 -11.3833 -2.9335 0.9447
11.4608 -7.8674 -2.9307 0.9448
12.6766 -5.7118 -2.9312 0.9447
13.7360 -2.1599 -2.9314 0.9447
13.8806 -0.9292 -2.9329 0.9447
13.9164 0.3101 -2.9346 0.9447
13.8431 1.5486 -2.9366 0.9446
13.6618 2.7769 -2.9391 0.9446
13.3730 3.9856 -2.9418 0.9446
8.4498 3.3629 -1.9173 0.9635
11.1916 8.4400 -2.9551 0.9443
10.4091 9.4145 -2.9589 0.9442
2.9682 13.8130 -2.9785 0.9439
1.6411 13.3252 -2.8304 0.9466
0.4492 13.4347 -2.8339 0.9465
-0.7503 13.4553 -2.8411 0.9464
-1.9474 13.3524 -2.8447 0.9463
-3.1323 13.1435 -2.8485 0.9463
-4.2954 12.8298 -2.8523 0.9462
-9.4682 9.7901 -2.8713 0.9458
-10.3100 8.9154 -2.8735 0.9458
-12.9765 6.1983 -3.0318 0.9429
-13.4875 5.0228 -3.0342 0.9429
-12.8420 -3.5178 -3.0391 0.9468
-12.0121 -5.7377 -3.0384 0.9468
-11.4506 -6.7822 -3.0376 0.9469
-10.7974 -7.7715 -3.0364 0.9469
-7.9261 -9.8102 -2.8786 0.9496
-7.0199 -10.4744 -2.8780 0.9496
-6.0574 -11.0534 -2.8769 0.9496
-5.0468 -11.5423 -2.8753 0.9496
-3.9893 -11.9152 -2.8679 0.9498
-2.7803 -11.6668 -2.7374 0.9520
-0.6977 -12.5129 -2.8604 0.9499
1.5835 -12.8573 -2.9568 0.9482
2.7100 -12.6115 -2.9442 0.9485
3.8185 -12.3097 -2.9417 0.9485
6.9241 -10.8464 -2.9371 0.9486
7.8587 -10.1828 -2.9358 0.9486
9.5345 -8.6234 -2.9342 0.9486
10.2629 -7.7397 -2.9339 0.9486
10.9093 -6.7944 -2.9334 0.9486
11.4678 -5.7949 -2.9327 0.9486
12.3142 -3.6700 -2.9328 0.9486
12.5959 -2.5602 -2.9337 0.9486
12.7263 2.0011 -2.9404 0.9485
12.5080 3.1285 -2.9428 0.9485
12.1910 4.2332 -2.9455 0.9484
10.6729 7.3265 -2.9547 0.9483
9.9899 8.2569 -2.9581 0.9482
8.3887 9.9222 -2.9656 0.9481
7.4776 10.6371 -2.9677 0.9481
6.5064 11.2694 -2.9701 0.9480
1.5813 9.3748 -2.1700 0.9617
0.9670 12.3753 -2.8332 0.9503
-0.1387 12.4442 -2.8405 0.9502
-2.3484 12.2513 -2.8472 0.9501
-4.4945 11.6697 -2.8543 0.9500
-5.5223 11.2374 -2.8578 0.9499
-7.4455 10.1051 -2.8649 0.9498
-8.3253 9.4135 -2.8683 0.9497
-9.1350 8.6398 -2.8698 0.9497
-9.8691 7.7936 -2.8702 0.9497
-11.7043 6.2456 -3.0280 0.9470
-12.2233 5.1831 -3.0303 0.9470
-12.9656 2.9376 -3.0343 0.9469
-13.1824 1.7729 -3.0359 0.9469
-13.2934 0.5928 -3.0372 0.9469
-13.2976 -0.5930 -3.0381 0.9469
-13.1948 -1.7745 -3.0387 0.9468
-12.9858 -2.9422 -3.0390 0.9468
-12.2570 -5.1974 -3.0387 0.9468
-11.1351 -7.2842 -3.0370 0.9469
-9.4353 -8.9238 -2.9642 0.9481
-7.4805 -10.1526 -2.8783 0.9496
-6.5452 -10.7749 -2.8775 0.9496
-4.5226 -11.7427 -2.8721 0.9497
-0.1395 -12.5183 -2.8574 0.9499
4.3614 -12.1228 -2.9406 0.9485
5.4205 -11.6809 -2.9392 0.9485
6.4356 -11.1468 -2.9378 0.9486
7.3987 -10.5249 -2.9364 0.9486
9.1417 -9.0405 -2.9345 0.9486
11.1998 -6.3009 -2.9330 0.9486
11.7127 -5.2775 -2.9322 0.9487
12.4673 -3.1183 -2.9332 0.9486
12.6999 -1.9970 -2.9343 0.9486
12.8656 0.2867 -2.9372 0.9486
12.7979 1.4317 -2.9393 0.9485
12.6296 2.5671 -2.9416 0.9485
12.3618 3.6842 -2.9441 0.9485
11.5353 5.8291 -2.9499 0.9484
10.9825 6.8400 -2.9531 0.9483
10.3418 7.7991 -2.9564 0.9482
8.8161 9.5319 -2.9635 0.9481
0.4150 12.4131 -2.8348 0.9503
-0.6933 12.4327 -2.8421 0.9502
-1.7992 12.3362 -2.8454 0.9501
-6.0211 10.9871 -2.8596 0.9499
-6.9837 10.4204 -2.8631 0.9498
-7.8930 9.7692 -2.8666 0.9498
-9.5116 8.2250 -2.8701 0.9497
-11.4096 6.7579 -3.0267 0.9470
-12.4465 4.6351 -3.0314 0.9470
-13.0871 2.3578 -3.0351 0.9469
-13.2512 1.1841 -3.0366 0.9469
-12.3467 0.0000 -3.0348 0.9504
-11.9132 -3.2633 -3.0361 0.9504
-11.5748 -4.3105 -3.0360 0.9504
-10.0171 -7.2099 -3.0337 0.9504
-9.3315 -8.0692 -3.0323 0.9505
-8.5717 -8.8630 -3.0307 0.9505
-6.5088 -9.7118 -2.8737 0.9530
-5.6166 -10.2489 -2.8727 0.9530
-4.6797 -10.7027 -2.8712 0.9530
-3.7061 -11.0695 -2.8693 0.9531
-2.7040 -11.3462 -2.8670 0.9531
-1.6812 -11.5268 -2.8633 0.9532
3.5483 -11.4387 -2.9438 0.9519
4.5490 -11.0694 -2.9416 0.9519
6.4323 -10.0761 -2.9383 0.9520
7.3004 -9.4594 -2.9370 0.9520
8.8564 -8.0101 -2.9352 0.9520
9.5325 -7.1888 -2.9347 0.9520
10.1337 -6.3113 -2.9345 0.9520
11.0935 -4.4151 -2.9348 0.9520
11.4447 -3.4109 -2.9354 0.9520
11.7063 -2.3794 -2.9362 0.9520
11.8761 -1.3285 -2.9374 0.9520
11.8264 1.8596 -2.9426 0.9519
10.9425 4.9305 -2.9501 0.9518
9.9147 6.8061 -2.9560 0.9517
9.2795 7.6697 -2.9592 0.9516
8.5695 8.4746 -2.9624 0.9516
6.9486 9.8845 -2.9699 0.9514
4.1002 11.3968 -2.9771 0.9513
1.5814 9.3751 -2.3370 0.9616
0.8982 11.4951 -2.8341 0.9536
-0.1288 11.5598 -2.8416 0.9535
-2.1810 11.3782 -2.8477 0.9534
-3.1887 11.1517 -2.8509 0.9533
-5.1273 10.4338 -2.8576 0.9532
-6.0426 9.9475 -2.8608 0.9532
-6.9118 9.3808 -2.8641 0.9531
-8.4738 8.0145 -2.8669 0.9531
-9.1547 7.2294 -2.8673 0.9531
-10.2934 6.7336 -3.0234 0.9506
-10.8606 5.7954 -3.0258 0.9506
-11.3416 4.8093 -3.0280 0.9505
-11.7322 3.7832 -3.0300 0.9505
-12.2299 1.6448 -3.0332 0.9504
-12.3325 0.5499 -3.0343 0.9504
-12.2406 -1.6462 -3.0358 0.9504
-12.0466 -2.7294 -3.0361 0.9504
-11.3706 -4.8215 -3.0358 0.9504
-8.0159 -9.0637 -2.9741 0.9514
-6.9358 -9.4134 -2.8740 0.9530
-6.0688 -9.9905 -2.8732 0.9530
-5.1532 -10.4865 -2.8720 0.9530
-3.2081 -11.2194 -2.8682 0.9531
5.0360 -10.8524 -2.9407 0.9519
6.8732 -9.7772 -2.9376 0.9520
8.4921 -8.3980 -2.9357 0.9520
9.8428 -6.7567 -2.9345 0.9520
10.8851 -4.9046 -2.9346 0.9520
11.5869 -2.8981 -2.9358 0.9520
11.9262 -0.7984 -2.9380 0.9520
11.7362 2.3855 -2.9437 0.9519
11.1461 4.4361 -2.9487 0.9518
8.9335 8.0799 -2.9608 0.9516
6.5037 10.1879 -2.9710 0.9514
4.6018 11.1978 -2.9758 0.9514
3.5901 11.5734 -2.9785 0.9513
-0.6439 11.5484 -2.8430 0.9535
-3.6845 11.0049 -2.8526 0.9533
-5.5903 10.2009 -2.8592 0.9532
-7.3269 9.0686 -2.8657 0.9531
-8.1075 8.3831 -2.8666 0.9531
-8.8231 7.6297 -2.8671 0.9531
-10.5874 6.2710 -3.0246 0.9506
-11.1121 5.3078 -3.0270 0.9505
-11.5484 4.3007 -3.0290 0.9505
-12.2936 1.0986 -3.0338 0.9504
-11.5079 0.0000 -3.0323 0.9535
-11.3297 -2.0411 -3.0334 0.9535
-11.1035 -3.0416 -3.0336 0.9535
-10.7882 -4.0175 -3.0334 0.9535
-10.3863 -4.9611 -3.0330 0.9535
-9.9011 -5.8644 -3.0322 0.9535
-9.3368 -6.7202 -3.0313 0.9535
-7.9900 -8.2617 -3.0285 0.9536
-6.2009 -9.2524 -2.9349 0.9550
-5.2326 -9.5483 -2.8690 0.9560
-4.3600 -9.9714 -2.8677 0.9560
-3.4530 -10.3136 -2.8659 0.9560
-2.5194 -10.5719 -2.8637 0.9560
1.3900 -11.2863 -2.9964 0.9541
2.3554 -10.9610 -2.9542 0.9547
4.2463 -10.3329 -2.9437 0.9548
5.1461 -9.9079 -2.9419 0.9549
6.0044 -9.4058 -2.9404 0.9549
8.2679 -7.4778 -2.9375 0.9549
8.8992 -6.7112 -2.9370 0.9549
9.9475 -5.0267 -2.9368 0.9549
10.3564 -4.1218 -2.9371 0.9549
10.6842 -3.1842 -2.9377 0.9549
11.0869 -1.2403 -2.9396 0.9549
11.1586 -0.2487 -2.9410 0.9549
11.1428 0.7459 -2.9427 0.9549
10.8488 2.7135 -2.9467 0.9548
10.5726 3.6712 -2.9491 0.9548
10.2126 4.6016 -2.9516 0.9547
9.7713 5.4973 -2.9542 0.9547
8.0097 7.9210 -2.9683 0.9545
7.2769 8.6072 -2.9699 0.9544
6.4859 9.2264 -2.9718 0.9544
2.8672 10.9441 -2.9811 0.9543
0.8381 10.7259 -2.8349 0.9565
-0.1202 10.7869 -2.8425 0.9564
-3.8931 10.1082 -2.8542 0.9562
-4.7825 9.7321 -2.8573 0.9561
-5.6358 9.2778 -2.8604 0.9561
-7.1998 8.1409 -2.8637 0.9560
-9.5966 6.2778 -3.0217 0.9537
-11.4948 0.5126 -3.0319 0.9535
-11.4087 -1.5343 -3.0333 0.9535
-11.2279 -2.5439 -3.0335 0.9535
-10.1540 -5.4183 -3.0326 0.9535
-9.6286 -6.2987 -3.0318 0.9535
-8.3524 -7.8996 -3.0293 0.9536
-7.6120 -8.6070 -3.0276 0.9536
-4.8010 -9.7698 -2.8684 0.9560
-2.9891 -10.4535 -2.8649 0.9560
-1.0858 -10.7933 -2.8584 0.9561
2.8342 -10.8181 -2.9468 0.9548
3.7831 -10.5153 -2.9447 0.9548
5.5808 -9.6663 -2.9411 0.9549
9.1889 -6.3078 -2.9369 0.9549
9.7135 -5.4647 -2.9368 0.9549
10.1619 -4.5787 -2.9369 0.9549
10.5306 -3.6566 -2.9374 0.9549
10.8168 -2.7055 -2.9380 0.9549
11.1337 -0.7453 -2.9403 0.9549
11.1617 0.2488 -2.9418 0.9549
10.7213 3.1953 -2.9479 0.9548
9.5212 5.9299 -2.9556 0.9547
8.9644 6.7604 -2.9585 0.9546
7.6509 8.2721 -2.9691 0.9545
6.8883 8.9255 -2.9708 0.9544
3.3504 10.8008 -2.9798 0.9543
2.2571 10.5036 -2.8309 0.9565
1.3145 10.6728 -2.8335 0.9565
0.3597 10.7579 -2.8363 0.9565
-1.5591 10.6899 -2.8466 0.9563
-2.5070 10.5199 -2.8496 0.9563
-6.8290 8.4523 -2.8633 0.9560
-7.5562 7.8131 -2.8640 0.9560
-8.2353 7.1218 -2.8690 0.9560
-10.7653 4.0090 -3.0270 0.9536
-11.0856 3.0367 -3.0287 0.9536
-11.4586 1.0239 -3.0314 0.9535
-10.3911 -2.8464 -3.0313 0.9562
-10.0960 -3.7598 -3.0311 0.9562
-8.7382 -6.2893 -3.0291 0.9562
-8.1405 -7.0394 -3.0280 0.9563
-7.4782 -7.7324 -3.0266 0.9563
-6.7566 -8.3628 -3.0249 0.9563
-4.1380 -9.4639 -2.9061 0.9580
-0.5921 -10.6177 -2.9920 0.9568
1.3046 -10.5927 -3.0028 0.9566
3.1036 -10.0052 -2.9474 0.9574
3.9793 -9.6831 -2.9455 0.9574
6.3867 -8.2755 -2.9411 0.9575
7.0956 -7.6717 -2.9402 0.9575
10.2420 -2.0818 -2.9406 0.9575
10.4574 -0.2330 -2.9430 0.9575
10.4422 0.6990 -2.9446 0.9574
9.9065 3.4399 -2.9505 0.9574
9.1547 5.1504 -2.9554 0.9573
8.6677 5.9501 -2.9580 0.9573
8.1113 6.7042 -2.9608 0.9572
7.5061 7.4230 -2.9702 0.9571
6.8191 8.0658 -2.9717 0.9571
6.0777 8.6457 -2.9734 0.9570
5.2875 9.1583 -2.9754 0.9570
4.4546 9.5994 -2.9775 0.9570
2.6862 10.2533 -2.9822 0.9569
1.5815 9.3757 -2.6752 0.9613
0.7860 10.0596 -2.8390 0.9589
-6.7376 7.6183 -2.8615 0.9586
-7.3908 6.9902 -2.8622 0.9586
-10.2359 3.3006 -3.0260 0.9563
-10.6687 1.4348 -3.0287 0.9563
-10.7577 0.4797 -3.0297 0.9562
-10.6768 -1.4359 -3.0310 0.9562
-10.5075 -2.3807 -3.0313 0.9562
-10.2538 -3.3064 -3.0313 0.9562
-9.5025 -5.0707 -3.0304 0.9562
-7.8171 -7.3934 -3.0273 0.9563
-5.5765 -9.1801 -3.0221 0.9563
-4.6229 -9.4074 -2.9491 0.9574
-1.9146 -9.9883 -2.8614 0.9586
-1.0333 -10.2711 -2.9044 0.9580
0.8318 -10.6454 -3.0043 0.9566
2.6603 -10.1543 -2.9534 0.9573
6.0129 -8.5534 -2.9417 0.9575
7.4294 -7.3471 -2.9398 0.9575
8.0523 -6.6554 -2.9392 0.9575
8.6117 -5.9116 -2.9389 0.9575
9.1034 -5.1215 -2.9388 0.9575
9.5236 -4.2911 -2.9390 0.9575
10.3264 -1.6237 -2.9411 0.9575
10.4038 1.1639 -2.9454 0.9574
9.3710 4.7354 -2.9541 0.9573
8.9201 5.5555 -2.9567 0.9573
8.3979 6.3332 -2.9594 0.9572
7.8143 7.0676 -2.9645 0.9572
7.1698 7.7519 -2.9709 0.9571
6.4549 8.3639 -2.9725 0.9570
4.8760 9.3880 -2.9764 0.9570
4.0241 9.7920 -2.9786 0.9570
2.1145 9.8402 -2.8318 0.9590
1.2323 10.0059 -2.8365 0.9590
0.3375 10.0934 -2.8414 0.9589
-1.4604 10.0132 -2.8471 0.9588
-4.8827 8.9097 -2.8586 0.9587
-5.6594 8.4444 -2.8601 0.9586
-6.3907 7.9099 -2.8611 0.9586
-7.9982 6.9163 -2.9750 0.9570
-9.2392 5.4724 -3.0213 0.9564
-10.0759 3.7523 -3.0251 0.9563
-10.3754 2.8421 -3.0267 0.9563
-10.5921 1.9083 -3.0281 0.9563
-10.7239 0.9583 -3.0293 0.9562
-10.1150 0.0000 -3.0282 0.9586
-9.9579 -1.7940 -3.0292 0.9586
-9.7590 -2.6733 -3.0293 0.9586
-7.6459 -6.6117 -3.0262 0.9587
-6.3465 -7.8551 -3.0233 0.9587
-5.6189 -8.3840 -3.0216 0.9587
-4.8473 -8.8452 -3.0197 0.9588
-2.3050 -9.6721 -2.9767 0.9593
-0.5594 -10.0315 -3.0079 0.9589
0.3354 -10.0327 -3.0053 0.9590
1.2259 -9.9541 -3.0026 0.9590
2.0924 -9.7373 -2.9817 0.9593
2.9223 -9.4208 -2.9530 0.9597
3.7417 -9.1050 -2.9471 0.9597
4.5349 -8.7312 -2.9455 0.9598
5.2915 -8.2891 -2.9441 0.9598
6.0060 -7.7821 -2.9430 0.9598
7.8431 -5.9148 -2.9410 0.9598
8.3379 -5.1929 -2.9408 0.9598
8.7672 -4.4303 -2.9408 0.9598
9.4166 -2.8064 -2.9417 0.9598
8.6065 4.8420 -2.9564 0.9596
8.1483 5.5935 -2.9589 0.9596
7.6282 6.3049 -2.9628 0.9595
7.0582 6.9800 -2.9719 0.9594
6.4120 7.5842 -2.9733 0.9594
5.7147 8.1293 -2.9749 0.9594
4.9715 8.6109 -2.9767 0.9593
4.1881 9.0252 -2.9787 0.9593
3.3706 9.3689 -2.9809 0.9593
2.5253 9.6392 -2.9832 0.9592
-0.1058 9.4974 -2.8435 0.9611
-0.9517 9.4596 -2.8463 0.9611
-3.4265 8.8967 -2.8542 0.9610
-4.2080 8.5630 -2.8564 0.9609
-5.6642 7.6874 -2.8587 0.9609
-6.3277 7.1548 -2.8595 0.9609
-8.9022 4.7504 -3.0209 0.9587
-9.2953 3.9415 -3.0227 0.9587
-9.8567 2.2332 -3.0257 0.9587
-10.0202 1.3476 -3.0269 0.9587
-10.0274 -1.3486 -3.0290 0.9586
-9.8683 -2.2358 -3.0293 0.9586
-9.3147 -3.9498 -3.0290 0.9586
-8.4633 -5.5364 -3.0277 0.9587
-7.9344 -6.2657 -3.0267 0.9587
-5.9886 -8.1278 -3.0225 0.9587
-5.2383 -8.6233 -3.0206 0.9587
-4.4470 -9.0493 -3.0186 0.9588
-2.7424 -9.5907 -2.9863 0.9592
-1.8788 -9.8015 -2.9878 0.9592
-0.1119 -10.0421 -3.0066 0.9589
1.6674 -9.8851 -3.0012 0.9590
4.1425 -8.9268 -2.9463 0.9597
5.6544 -8.0434 -2.9435 0.9598
6.9866 -6.9092 -2.9417 0.9598
8.0985 -5.5593 -2.9408 0.9598
8.5610 -4.8163 -2.9408 0.9598
9.2812 -3.2228 -2.9414 0.9598
9.5334 -2.3845 -2.9420 0.9598
9.7108 -1.5269 -2.9430 0.9598
9.8120 -0.6568 -2.9441 0.9598
9.7827 1.0944 -2.9470 0.9597
9.6523 1.9619 -2.9488 0.9597
7.8944 5.9535 -2.9602 0.9596
2.9511 9.5134 -2.9820 0.9593
1.9878 9.2506 -2.8327 0.9613
0.3171 9.4854 -2.8413 0.9611
-0.5291 9.4888 -2.8452 0.9611
-6.6415 6.8672 -2.8601 0.9609
-7.6192 6.5886 -3.0156 0.9588
-8.1814 5.8886 -3.0178 0.9588
-8.6790 5.1406 -3.0199 0.9588
-9.9484 1.7923 -3.0263 0.9587
-10.0720 0.9000 -3.0274 0.9587
-8.9331 -3.3267 -3.0274 0.9608
-7.7323 -5.5653 -3.0256 0.9608
-6.6180 -6.8430 -3.0233 0.9608
-5.9799 -7.4013 -3.0219 0.9609
-5.2945 -7.8999 -3.0202 0.9609
-4.5676 -8.3348 -3.0184 0.9609
-3.8052 -8.7026 -3.0165 0.9609
-3.0134 -9.0005 -3.0144 0.9609
-1.3678 -9.3779 -3.0098 0.9610
-0.5272 -9.4548 -3.0074 0.9610
1.1556 -9.3827 -3.0023 0.9611
2.7607 -8.8997 -2.9593 0.9616
4.2771 -8.2350 -2.9470 0.9618
6.2939 -6.8049 -2.9438 0.9618
8.2697 -4.1789 -2.9426 0.9619
8.8820 -2.6471 -2.9434 0.9618
9.0847 -1.8466 -2.9442 0.9618
9.2160 -1.0310 -2.9451 0.9618
9.2609 0.6200 -2.9477 0.9618
8.7837 3.0501 -2.9530 0.9617
8.1157 4.5658 -2.9573 0.9617
7.6832 5.2742 -2.9597 0.9616
5.3895 7.6667 -2.9763 0.9614
4.6884 8.1207 -2.9780 0.9614
3.9495 8.5111 -2.9798 0.9614
3.1785 8.8349 -2.9819 0.9614
2.3812 9.0892 -2.9840 0.9613
1.4846 8.8018 -2.8348 0.9632
0.6964 8.9120 -2.8389 0.9632
-1.6889 8.8109 -2.8491 0.9630
-3.9646 8.0677 -2.8548 0.9630
-5.3363 7.2425 -2.8570 0.9629
-5.9641 6.7440 -2.8592 0.9629
-7.4522 5.8849 -3.0157 0.9609
-8.7584 3.7139 -3.0213 0.9609
-9.2868 2.1041 -3.0241 0.9608
-9.5191 0.4245 -3.0261 0.9608
-9.5212 -0.4246 -3.0268 0.9608
-9.4471 -1.2705 -3.0273 0.9608
-8.7756 -3.7212 -3.0272 0.9608
-6.9178 -6.5428 -3.0240 0.9608
-6.3052 -7.1294 -3.0226 0.9608
-4.9359 -8.1256 -3.0193 0.9609
-1.7848 -9.3113 -3.0110 0.9610
-0.9482 -9.4257 -3.0086 0.9610
-0.1055 -9.4650 -3.0061 0.9611
0.7368 -9.4289 -3.0036 0.9611
3.1476 -8.7489 -2.9529 0.9617
3.9070 -8.4194 -2.9477 0.9618
4.6387 -8.0344 -2.9463 0.9618
5.3332 -7.5866 -2.9452 0.9618
6.5900 -6.5170 -2.9434 0.9618
7.6389 -5.2438 -2.9426 0.9619
8.4480 -3.8065 -2.9427 0.9619
8.9922 -2.2491 -2.9438 0.9618
9.1594 -1.4402 -2.9446 0.9618
9.1032 1.8503 -2.9501 0.9618
8.9079 2.6549 -2.9520 0.9617
7.9073 4.9247 -2.9585 0.9617
7.4463 5.6155 -2.9619 0.9616
6.3585 6.8748 -2.9740 0.9615
5.0441 7.9014 -2.9771 0.9614
2.7828 8.9708 -2.9829 0.9613
0.2989 8.9406 -2.8410 0.9632
-0.4987 8.9437 -2.8448 0.9631
-1.2942 8.8737 -2.8480 0.9631
-2.0806 8.7307 -2.8504 0.9630
-2.8518 8.5177 -2.8527 0.9630
-7.1801 6.2089 -3.0146 0.9609
-7.7096 5.5490 -3.0167 0.9609
-8.5819 4.0992 -3.0204 0.9609
-9.4894 0.8480 -3.0257 0.9608
-8.9691 -0.8015 -3.0255 0.9627
-8.8631 -1.5967 -3.0258 0.9627
-8.1254 -3.8811 -3.0254 0.9627
-6.8061 -5.8854 -3.0231 0.9627
-5.6500 -6.9930 -3.0206 0.9628
-2.8475 -8.5051 -3.0135 0.9629
-2.0778 -8.7187 -3.0114 0.9629
1.0922 -8.8683 -3.0021 0.9630
2.6212 -8.4500 -2.9725 0.9634
3.3409 -8.1297 -2.9531 0.9636
5.3574 -6.9418 -2.9461 0.9637
5.9524 -6.4356 -2.9453 0.9637
6.5002 -5.8791 -2.9447 0.9637
8.4002 -2.5035 -2.9450 0.9637
8.7577 0.5863 -2.9490 0.9636
8.5242 2.1320 -2.9522 0.9636
8.3057 2.8841 -2.9540 0.9636
8.0214 3.6143 -2.9560 0.9636
6.8220 5.6385 -2.9736 0.9633
6.2953 6.2256 -2.9747 0.9633
4.4334 7.6788 -2.9791 0.9633
3.7345 8.0477 -2.9808 0.9633
1.4035 8.3208 -2.8351 0.9650
-0.8478 8.4273 -2.8457 0.9649
-1.5961 8.3267 -2.8485 0.9649
-3.7457 7.6222 -2.8534 0.9648
-5.0414 6.8422 -2.8555 0.9648
-6.5146 6.1614 -3.0127 0.9629
-7.0419 5.5609 -3.0147 0.9628
-7.9259 4.2294 -3.0184 0.9628
-8.2753 3.5090 -3.0200 0.9628
-8.7742 1.9880 -3.0227 0.9627
-8.9194 1.1996 -3.0237 0.9627
-8.9933 0.4010 -3.0246 0.9627
-8.7834 -1.9900 -3.0259 0.9627
-8.2907 -3.5155 -3.0256 0.9627
-7.5333 -4.9280 -3.0245 0.9627
-5.9573 -6.7360 -3.0213 0.9628
-5.3315 -7.2360 -3.0198 0.9628
-4.6638 -7.6777 -3.0182 0.9628
-3.2247 -8.3726 -3.0145 0.9628
-2.4650 -8.6205 -3.0124 0.9629
-1.6867 -8.7994 -3.0103 0.9629
-0.8962 -8.9079 -3.0080 0.9629
-0.0997 -8.9454 -3.0057 0.9630
0.6964 -8.9117 -3.0033 0.9630
2.2589 -8.6223 -2.9947 0.9631
2.9814 -8.2870 -2.9590 0.9635
5.0437 -7.1748 -2.9466 0.9637
6.2324 -6.1634 -2.9450 0.9637
7.2246 -4.9594 -2.9442 0.9637
7.6372 -4.2966 -2.9442 0.9637
8.2795 -2.8750 -2.9447 0.9637
8.5043 -2.1271 -2.9453 0.9637
8.6622 -1.3621 -2.9461 0.9637
8.7731 0.1955 -2.9484 0.9636
8.6082 1.7497 -2.9513 0.9636
8.1717 3.2523 -2.9550 0.9636
7.4762 4.6562 -2.9592 0.9635
7.0652 5.3282 -2.9732 0.9633
6.5652 5.9378 -2.9741 0.9633
6.0130 6.5012 -2.9753 0.9633
5.4130 7.0138 -2.9767 0.9633
4.7697 7.4717 -2.9782 0.9633
2.6312 8.4820 -2.9838 0.9632
1.8670 8.6886 -2.9859 0.9632
1.0321 8.3800 -2.8368 0.9650
-0.4713 8.4518 -2.8440 0.9649
-1.9662 8.2506 -2.8497 0.9648
-3.4017 7.7798 -2.8528 0.9648
-4.7308 7.0589 -2.8550 0.9648
-6.2314 6.4432 -3.0116 0.9629
-6.7849 5.8671 -3.0137 0.9629
-7.7274 4.5770 -3.0175 0.9628
-8.4255 3.1377 -3.0207 0.9628
-8.6752 2.3764 -3.0221 0.9628
-8.9653 0.8011 -3.0242 0.9627
-8.4945 -0.7591 -3.0240 0.9645
-8.3941 -1.5123 -3.0243 0.9644
-8.2264 -2.2534 -3.0244 0.9644
-7.9929 -2.9766 -3.0243 0.9644
-7.6954 -3.6758 -3.0240 0.9645
-7.3364 -4.3454 -3.0234 0.9645
-6.9188 -4.9799 -3.0227 0.9645
-5.9223 -6.1236 -3.0207 0.9645
-5.3515 -6.6236 -3.0194 0.9645
-2.6974 -8.0567 -3.0127 0.9646
-1.9683 -8.2594 -3.0107 0.9646
-1.2245 -8.3960 -3.0086 0.9646
0.2831 -8.4676 -3.0042 0.9647
3.1719 -7.7185 -2.9590 0.9652
3.8342 -7.3822 -2.9496 0.9653
4.4743 -7.0089 -2.9485 0.9653
5.0787 -6.5806 -2.9475 0.9653
5.6427 -6.1009 -2.9467 0.9653
6.1622 -5.5733 -2.9462 0.9654
6.6329 -5.0021 -2.9458 0.9654
7.0514 -4.3917 -2.9456 0.9654
7.4144 -3.7467 -2.9457 0.9654
7.9632 -2.3733 -2.9464 0.9653
8.2622 -0.9243 -2.9479 0.9653
8.3147 -0.1853 -2.9490 0.9653
8.3016 0.5557 -2.9502 0.9653
7.8725 2.7336 -2.9550 0.9653
7.6028 3.4256 -2.9569 0.9652
7.2726 4.0915 -2.9589 0.9652
6.9144 4.7464 -2.9738 0.9650
6.4668 5.3450 -2.9749 0.9650
5.9675 5.9014 -2.9759 0.9650
5.4208 6.4117 -2.9772 0.9650
4.8308 6.8720 -2.9785 0.9650
3.5397 7.6278 -2.9818 0.9649
1.3745 8.1487 -2.9302 0.9655
-0.0893 8.0137 -2.8417 0.9666
-2.8897 7.5029 -2.8509 0.9665
-4.8719 6.6122 -2.9123 0.9657
-6.6705 5.2676 -3.0138 0.9646
-7.8382 3.3237 -3.0188 0.9645
-8.5192 -0.3799 -3.0238 0.9645
-8.3186 -1.8847 -3.0244 0.9644
-7.8520 -3.3295 -3.0242 0.9645
-7.5234 -4.0146 -3.0237 0.9645
-6.6892 -5.2824 -3.0223 0.9645
-6.1904 -5.8548 -3.0213 0.9645
-3.0546 -7.9311 -3.0136 0.9646
-2.3351 -8.1662 -3.0117 0.9646
-1.5979 -8.3360 -3.0096 0.9646
1.4076 -8.3448 -3.0008 0.9647
2.8356 -7.8817 -2.9701 0.9651
3.5062 -7.5558 -2.9536 0.9653
4.1584 -7.2026 -2.9490 0.9653
4.7812 -6.8014 -2.9480 0.9653
5.3660 -6.3470 -2.9471 0.9653
5.9083 -5.8428 -2.9464 0.9653
6.4039 -5.2929 -2.9459 0.9654
6.8489 -4.7015 -2.9457 0.9654
7.2401 -4.0732 -2.9456 0.9654
7.5743 -3.4128 -2.9458 0.9654
8.0619 -2.0164 -2.9467 0.9653
8.2115 -1.2912 -2.9475 0.9653
8.3163 0.1853 -2.9496 0.9653
7.4451 3.7622 -2.9578 0.9652
7.0886 4.4148 -2.9611 0.9652
5.1309 6.6483 -2.9778 0.9650
4.5210 7.0821 -2.9793 0.9650
3.8748 7.4604 -2.9809 0.9650
2.4937 8.0390 -2.9845 0.9649
0.9779 7.9400 -2.8367 0.9666
0.2676 8.0050 -2.8400 0.9666
-1.1584 7.9428 -2.8462 0.9665
-1.8623 7.8145 -2.8485 0.9665
-2.5520 7.6223 -2.8502 0.9665
-3.8664 7.0552 -2.8527 0.9664
-5.3327 6.6004 -3.0088 0.9646
-6.4272 5.5578 -3.0129 0.9646
-6.9006 4.9668 -3.0148 0.9646
-7.3195 4.3354 -3.0165 0.9645
-7.6804 3.6686 -3.0181 0.9645
-7.9803 2.9719 -3.0195 0.9645
-8.2166 2.2508 -3.0208 0.9645
-8.0936 0.0000 -3.0222 0.9660
-7.8082 -2.1389 -3.0231 0.9660
-7.5866 -2.8253 -3.0230 0.9660
-6.1188 -5.2911 -3.0206 0.9661
-5.6216 -5.8127 -3.0195 0.9661
-5.0799 -6.2874 -3.0183 0.9661
-4.4980 -6.7115 -3.0169 0.9661
-3.8808 -7.0816 -3.0154 0.9661
-2.5608 -7.6487 -3.0119 0.9661
-1.8687 -7.8413 -3.0100 0.9662
0.2688 -8.0399 -3.0039 0.9662
0.9826 -7.9783 -3.0017 0.9663
1.6876 -7.8535 -2.9995 0.9663
2.3782 -7.6665 -2.9973 0.9663
3.6467 -7.0212 -2.9543 0.9668
4.2504 -6.6582 -2.9497 0.9668
4.8247 -6.2515 -2.9487 0.9668
5.3606 -5.7958 -2.9480 0.9669
5.8541 -5.2947 -2.9475 0.9669
6.6990 -4.1721 -2.9470 0.9669
7.0438 -3.5594 -2.9470 0.9669
7.3333 -2.9186 -2.9472 0.9669
7.5651 -2.2546 -2.9477 0.9669
7.8489 -0.8780 -2.9492 0.9668
7.8986 -0.1760 -2.9502 0.9668
7.6749 1.9196 -2.9542 0.9668
7.2214 3.2538 -2.9576 0.9667
6.5690 4.5094 -2.9753 0.9666
5.1493 6.0907 -2.9782 0.9665
2.7055 7.5202 -2.9843 0.9665
1.3310 7.8907 -2.9881 0.9664
-0.0848 7.6082 -2.8412 0.9680
-0.7624 7.5781 -2.8440 0.9680
-1.4351 7.4866 -2.8465 0.9680
-3.9729 6.5400 -2.8574 0.9679
-4.7772 6.4836 -3.0073 0.9662
-5.3389 6.0368 -3.0093 0.9662
-5.8588 5.5412 -3.0112 0.9662
-6.7564 4.4198 -3.0148 0.9661
-7.6950 2.4813 -3.0191 0.9661
-8.0847 0.3605 -3.0219 0.9660
-8.0863 -0.3606 -3.0225 0.9660
-7.7051 -2.4846 -3.0231 0.9660
-7.4529 -3.1603 -3.0229 0.9660
-7.1411 -3.8106 -3.0224 0.9660
-6.3493 -5.0140 -3.0211 0.9660
-5.3560 -6.0561 -3.0189 0.9661
-4.1936 -6.9035 -3.0162 0.9661
-3.5606 -7.2455 -3.0146 0.9661
-1.5171 -7.9142 -3.0091 0.9662
-0.8061 -8.0125 -3.0070 0.9662
1.3366 -7.9238 -3.0006 0.9663
2.7106 -7.5344 -2.9900 0.9664
3.3358 -7.1885 -2.9592 0.9667
3.9503 -6.8422 -2.9502 0.9668
4.5421 -6.4612 -2.9492 0.9668
5.6129 -5.5507 -2.9477 0.9669
6.8782 -3.8696 -2.9470 0.9669
7.6588 -1.9156 -2.9480 0.9669
7.8008 -1.2266 -2.9487 0.9668
7.8815 -0.5276 -2.9496 0.9668
7.0715 3.5734 -2.9586 0.9667
6.7590 4.2095 -2.9733 0.9666
6.3624 4.7981 -2.9757 0.9665
5.9119 5.3470 -2.9765 0.9665
5.4144 5.8541 -2.9776 0.9665
4.2945 6.7272 -2.9802 0.9665
3.6806 7.0864 -2.9818 0.9665
3.0369 7.3900 -2.9834 0.9665
1.6806 7.8210 -2.9871 0.9664
0.2541 7.6002 -2.8396 0.9681
-0.4238 7.6008 -2.8426 0.9680
-3.0581 6.9941 -2.8504 0.9679
-4.3948 6.5575 -2.9477 0.9669
-5.0629 6.2665 -3.0083 0.9662
-5.6043 5.7948 -3.0103 0.9662
-6.1017 5.2763 -3.0122 0.9661
-7.5753 2.8211 -3.0185 0.9661
-7.9613 1.4343 -3.0207 0.9660
-8.0597 0.7202 -3.0216 0.9660
-7.6976 0.0000 -3.0211 0.9675
-7.5774 -1.3651 -3.0218 0.9675
-7.4261 -2.0342 -3.0219 0.9675
-7.2153 -2.6870 -3.0218 0.9675
-6.9468 -3.3182 -3.0215 0.9675
-5.8195 -5.0323 -3.0195 0.9675
-5.3467 -5.5285 -3.0185 0.9675
-4.2783 -6.3836 -3.0160 0.9675
-3.6914 -6.7358 -3.0146 0.9675
-2.4359 -7.2757 -3.0113 0.9676
-1.7776 -7.4591 -3.0095 0.9676
0.2557 -7.6488 -3.0036 0.9676
3.4758 -6.6924 -2.9596 0.9681
4.0455 -6.3372 -2.9507 0.9682
4.5921 -5.9502 -2.9499 0.9682
5.5720 -5.0396 -2.9487 0.9682
6.7045 -3.3879 -2.9482 0.9682
6.9800 -2.7780 -2.9485 0.9682
7.2006 -2.1460 -2.9489 0.9682
7.4705 -0.8357 -2.9503 0.9682
7.4344 1.1690 -2.9536 0.9682
6.8723 3.0965 -2.9583 0.9681
4.9008 5.7968 -2.9792 0.9679
3.7988 6.5797 -2.9818 0.9679
2.5747 7.1566 -2.9850 0.9678
1.9286 7.3616 -2.9867 0.9678
-0.0807 7.2373 -2.8406 0.9694
-0.7252 7.2081 -2.8433 0.9693
-1.3649 7.1207 -2.8455 0.9693
-2.6088 6.7736 -2.8488 0.9693
-3.2029 6.5177 -2.8502 0.9693
-3.9517 6.5054 -2.9873 0.9678
-5.0787 5.7426 -3.0088 0.9676
-6.0236 4.7568 -3.0123 0.9676
-7.0769 3.0009 -3.0168 0.9675
-7.3188 2.3600 -3.0181 0.9675
-7.5025 1.6999 -3.0191 0.9675
-7.6263 1.0257 -3.0200 0.9675
-6.4409 -4.2134 -3.0207 0.9675
-5.5887 -5.2857 -3.0190 0.9675
-5.0942 -5.7601 -3.0179 0.9675
-4.5594 -6.1881 -3.0167 0.9675
-3.9887 -6.5663 -3.0153 0.9675
-3.3868 -6.8918 -3.0138 0.9675
-2.7584 -7.1620 -3.0121 0.9676
-2.1088 -7.3748 -3.0104 0.9676
-0.0853 -7.6552 -3.0046 0.9676
1.9362 -7.3904 -2.9984 0.9677
2.5845 -7.1838 -2.9964 0.9677
3.1842 -6.8618 -2.9689 0.9680
3.7650 -6.5212 -2.9553 0.9682
6.1931 -4.2514 -2.9482 0.9682
6.5468 -3.6832 -2.9482 0.9682
6.8490 -3.0860 -2.9483 0.9682
7.0973 -2.4644 -2.9486 0.9682
7.5191 0.1676 -2.9518 0.9682
7.3767 1.4994 -2.9543 0.9682
7.2176 2.1511 -2.9558 0.9682
6.0556 4.5668 -2.9767 0.9679
5.6268 5.0891 -2.9776 0.9679
5.1532 5.5716 -2.9786 0.9679
2.8902 7.0328 -2.9842 0.9679
0.9311 7.5601 -2.9895 0.9678
-3.5518 6.4811 -2.9006 0.9687
-5.3311 5.5123 -3.0097 0.9676
-6.6091 3.9146 -3.0147 0.9675
-7.2050 2.6832 -3.0175 0.9675
-7.5720 1.3642 -3.0196 0.9675
-7.3340 0.0000 -3.0200 0.9688
-7.0752 -1.9381 -3.0208 0.9688
-6.3100 -3.7374 -3.0199 0.9688
-5.9511 -4.2833 -3.0193 0.9688
-5.5448 -4.7948 -3.0185 0.9688
-4.6036 -5.6980 -3.0164 0.9688
-1.0540 -7.2263 -3.0071 0.9689
-0.4063 -7.2869 -3.0053 0.9689
0.2437 -7.2895 -3.0034 0.9689
1.5303 -7.1214 -2.9994 0.9690
3.3243 -6.4005 -2.9699 0.9693
4.8648 -5.2598 -2.9502 0.9695
5.7187 -4.3127 -2.9494 0.9695
6.0796 -3.7864 -2.9493 0.9695
6.6552 -2.6487 -2.9496 0.9695
7.0217 -1.4272 -2.9505 0.9695
7.1676 -0.1597 -2.9522 0.9695
5.9611 4.0921 -2.9774 0.9692
4.6724 5.5266 -2.9801 0.9692
3.6215 6.2728 -2.9826 0.9692
2.4545 6.8224 -2.9856 0.9691
1.8385 7.0177 -2.9873 0.9691
-0.0774 6.9433 -2.8593 0.9704
-0.6910 6.8684 -2.8426 0.9706
-1.3005 6.7848 -2.8447 0.9706
-1.9004 6.6462 -2.8465 0.9705
-2.4859 6.4544 -2.8481 0.9705
-3.1609 6.4323 -2.9512 0.9695
-3.7881 6.2361 -3.0045 0.9689
-5.7398 4.5327 -3.0117 0.9689
-6.4590 3.4466 -3.0147 0.9688
-7.1483 1.6196 -3.0182 0.9688
-7.2662 0.9772 -3.0190 0.9688
-7.3273 -0.3267 -3.0202 0.9688
-7.2699 -0.9777 -3.0206 0.9688
-7.1545 -1.6210 -3.0207 0.9688
-6.4708 -3.4529 -3.0202 0.9688
-5.7537 -4.5436 -3.0189 0.9688
-5.3248 -5.0362 -3.0180 0.9688
-4.3444 -5.8962 -3.0158 0.9688
-3.8007 -6.2567 -3.0145 0.9688
-3.2272 -6.5670 -3.0131 0.9688
-2.6285 -6.8246 -3.0115 0.9689
-2.0095 -7.0276 -3.0098 0.9689
-0.7308 -7.2639 -3.0062 0.9689
1.2119 -7.1849 -3.0004 0.9690
1.8454 -7.0439 -2.9984 0.9690
3.0544 -6.5821 -2.9880 0.9691
3.5944 -6.2258 -2.9603 0.9694
4.1227 -5.8647 -2.9520 0.9695
5.0938 -5.0374 -2.9500 0.9695
5.5212 -4.5634 -2.9496 0.9695
5.9050 -4.0535 -2.9493 0.9695
6.2422 -3.5118 -2.9493 0.9695
6.5303 -2.9424 -2.9494 0.9695
6.9504 -1.7384 -2.9502 0.9695
7.1688 0.1598 -2.9527 0.9695
7.0327 1.4295 -2.9552 0.9694
6.1369 3.8221 -2.9771 0.9692
5.7736 4.3541 -2.9777 0.9692
4.9131 5.3120 -2.9795 0.9692
3.8965 6.1038 -2.9819 0.9692
2.7552 6.7045 -2.9848 0.9691
1.5245 7.0947 -2.9881 0.9691
0.8875 7.2065 -2.9899 0.9691
-0.3842 6.8899 -2.8416 0.9706
-1.6020 6.7223 -2.8456 0.9705
-4.0634 6.0631 -3.0055 0.9689
-5.5307 4.7826 -3.0109 0.9689
-5.9376 4.2737 -3.0125 0.9688
-6.6076 3.1562 -3.0153 0.9688
-7.0680 1.9361 -3.0177 0.9688
-7.2145 1.2998 -3.0186 0.9688
-6.8895 -1.2412 -3.0197 0.9700
-6.7518 -1.8495 -3.0197 0.9700
-4.8618 -5.0270 -3.0167 0.9700
-3.3569 -6.1256 -3.0131 0.9700
-2.2155 -6.6172 -3.0101 0.9701
-0.3879 -6.9555 -3.0050 0.9701
0.2326 -6.9581 -3.0031 0.9701
0.8505 -6.9055 -3.0013 0.9701
1.4608 -6.7981 -2.9994 0.9702
2.0588 -6.6369 -2.9975 0.9702
4.1841 -5.4215 -2.9541 0.9706
6.3554 -2.5294 -2.9506 0.9706
6.5561 -1.9539 -2.9510 0.9706
6.7053 -1.3629 -2.9515 0.9706
6.8016 -0.7609 -2.9522 0.9706
6.8444 -0.1525 -2.9531 0.9706
6.8331 0.4575 -2.9541 0.9706
6.7680 1.0642 -2.9553 0.9706
6.6493 1.6631 -2.9566 0.9706
5.6924 3.9076 -2.9783 0.9704
4.9119 4.8575 -2.9799 0.9704
4.4616 5.2772 -2.9809 0.9703
2.9125 6.2764 -2.9847 0.9703
2.3435 6.5140 -2.9862 0.9703
1.1527 6.8338 -2.9894 0.9703
0.5402 6.9133 -2.9912 0.9702
-0.6698 6.6576 -2.8863 0.9713
-1.2447 6.4937 -2.8521 0.9716
-3.0698 6.2469 -3.0024 0.9701
-5.8444 3.8232 -3.0125 0.9700
-6.1643 3.2894 -3.0139 0.9700
-6.6551 2.1460 -3.0163 0.9700
-6.8219 1.5456 -3.0172 0.9700
-6.9342 0.9326 -3.0181 0.9700
-6.9913 0.3117 -3.0187 0.9700
-6.8275 -1.5469 -3.0197 0.9700
-6.6627 -2.1484 -3.0197 0.9700
-6.4446 -2.7327 -3.0195 0.9700
-6.1751 -3.2951 -3.0192 0.9700
-5.4908 -4.3361 -3.0180 0.9700
-4.1461 -5.6271 -3.0150 0.9700
-3.6273 -5.9713 -3.0138 0.9700
-3.0800 -6.2676 -3.0124 0.9700
-1.3126 -6.8478 -3.0076 0.9701
0.5422 -6.9387 -3.0022 0.9701
1.1569 -6.8586 -3.0003 0.9702
1.7616 -6.7242 -2.9984 0.9702
3.4447 -5.9664 -2.9718 0.9704
4.4177 -5.2252 -2.9515 0.9706
4.8643 -4.8104 -2.9510 0.9706
5.6390 -3.8709 -2.9504 0.9706
5.9610 -3.3536 -2.9503 0.9706
6.6372 -1.6601 -2.9512 0.9706
6.7601 -1.0630 -2.9519 0.9706
6.5702 1.9582 -2.9573 0.9706
6.1609 3.1133 -2.9776 0.9704
5.5133 4.1578 -2.9787 0.9704
4.6914 5.0724 -2.9804 0.9703
4.2229 5.4717 -2.9814 0.9703
3.7206 5.8282 -2.9827 0.9703
3.1885 6.1390 -2.9840 0.9703
2.6307 6.4015 -2.9854 0.9703
2.0516 6.6137 -2.9870 0.9703
1.4556 6.7737 -2.9886 0.9703
0.8474 6.8803 -2.9903 0.9703
-0.3777 6.7740 -2.9265 0.9709
-0.9572 6.5629 -2.8609 0.9715
-2.1326 6.3697 -2.8975 0.9712
-2.7876 6.3754 -3.0015 0.9701
-3.3460 6.1058 -3.0033 0.9701
-3.8786 5.7873 -3.0052 0.9701
-4.3809 5.4223 -3.0069 0.9701
-5.2787 4.5647 -3.0103 0.9701
-6.0103 3.5599 -3.0132 0.9700
-6.3061 3.0122 -3.0146 0.9700
-6.7452 1.8477 -3.0168 0.9700
-6.9697 0.6228 -3.0184 0.9700
-6.6888 0.0000 -3.0181 0.9711
-6.2695 -2.3348 -3.0187 0.9711
-6.0363 -2.8833 -3.0184 0.9711
-5.0572 -4.3731 -3.0167 0.9711
-3.7184 -5.5482 -3.0137 0.9711
-2.6734 -6.1143 -3.0111 0.9711
-1.5454 -6.4848 -3.0080 0.9712
-0.9616 -6.5931 -3.0064 0.9712
1.3965 -6.4988 -2.9993 0.9713
1.9682 -6.3449 -2.9975 0.9713
2.5236 -6.1408 -2.9957 0.9713
3.0583 -5.8883 -2.9939 0.9713
4.4431 -4.8039 -2.9526 0.9717
5.2224 -3.9384 -2.9514 0.9717
5.5520 -3.4578 -2.9513 0.9717
6.4121 -1.3033 -2.9524 0.9717
6.5450 -0.1458 -2.9539 0.9717
6.5342 0.4374 -2.9549 0.9717
6.4717 1.0177 -2.9561 0.9717
5.7534 3.2368 -2.9787 0.9714
4.6970 4.6450 -2.9807 0.9714
3.3065 5.7271 -2.9840 0.9714
2.7849 6.0014 -2.9853 0.9714
2.2408 6.2284 -2.9867 0.9714
1.6784 6.4064 -2.9882 0.9714
1.1021 6.5339 -2.9898 0.9713
-0.0739 6.6333 -2.9932 0.9713
-0.6644 6.6043 -2.9950 0.9713
-1.2395 6.4661 -2.9707 0.9715
-2.3900 6.2053 -3.0004 0.9712
-2.9345 5.9715 -3.0022 0.9712
-3.4564 5.6900 -3.0040 0.9712
-3.9514 5.3629 -3.0057 0.9712
-4.4155 4.9927 -3.0074 0.9712
-4.8449 4.5823 -3.0090 0.9712
-6.3605 2.0510 -3.0155 0.9711
-6.5198 1.4772 -3.0164 0.9711
-6.6271 0.8913 -3.0172 0.9711
-6.6816 0.2979 -3.0178 0.9711
-6.6303 -0.8917 -3.0186 0.9711
-6.3674 -2.0532 -3.0188 0.9711
-5.9015 -3.1491 -3.0183 0.9711
-5.5969 -3.6613 -3.0178 0.9711
-4.8567 -4.5934 -3.0163 0.9711
-4.4272 -5.0059 -3.0154 0.9711
-3.9627 -5.3781 -3.0143 0.9711
-1.8333 -6.4112 -3.0088 0.9712
-1.2547 -6.5455 -3.0072 0.9712
0.5183 -6.6329 -3.0020 0.9712
1.1059 -6.5566 -3.0002 0.9712
2.2482 -6.2490 -2.9966 0.9713
3.3113 -5.7354 -2.9882 0.9714
4.6516 -4.6001 -2.9519 0.9717
5.7005 -3.2071 -2.9513 0.9717
6.1797 -2.1458 -2.9517 0.9717
6.5310 -0.4372 -2.9535 0.9717
6.5460 0.1459 -2.9544 0.9717
6.5094 0.7282 -2.9555 0.9717
6.4213 1.3052 -2.9567 0.9717
6.1293 2.4394 -2.9767 0.9715
5.6040 3.4902 -2.9789 0.9714
4.8986 4.4305 -2.9803 0.9714
4.0380 5.2322 -2.9822 0.9714
3.5576 5.5730 -2.9833 0.9714
3.0488 5.8700 -2.9846 0.9714
1.9616 6.3236 -2.9875 0.9714
1.3917 6.4765 -2.9890 0.9713
-0.3695 6.6254 -2.9941 0.9713
-3.7075 5.5320 -3.0049 0.9712
-6.0271 2.8789 -3.0138 0.9711
-6.4466 1.7659 -3.0160 0.9711
-6.5800 1.1854 -3.0168 0.9711
-6.6610 0.5952 -3.0175 0.9711
-6.1749 -1.6915 -3.0179 0.9721
-5.9996 -2.2343 -3.0178 0.9721
-4.4467 -4.5979 -3.0151 0.9721
-3.5586 -5.3098 -3.0130 0.9721
-3.0706 -5.6032 -3.0118 0.9721
-2.0267 -6.0534 -3.0091 0.9722
-0.3549 -6.3638 -3.0044 0.9722
1.3367 -6.2208 -2.9993 0.9723
1.8840 -6.0736 -2.9975 0.9723
2.9277 -5.6369 -2.9941 0.9723
3.4121 -5.3450 -2.9891 0.9723
3.8448 -4.9818 -2.9663 0.9726
4.2609 -4.6069 -2.9580 0.9726
5.0005 -3.7711 -2.9523 0.9727
5.5898 -2.8246 -2.9522 0.9727
6.1396 -1.2479 -2.9533 0.9727
6.2667 -0.1396 -2.9547 0.9727
6.2563 0.4188 -2.9557 0.9727
6.1964 0.9744 -2.9567 0.9726
6.0954 1.5246 -2.9618 0.9726
5.9692 2.0728 -2.9786 0.9724
5.7622 2.5963 -2.9792 0.9724
5.5089 3.0993 -2.9795 0.9724
5.2121 3.5779 -2.9800 0.9724
4.8740 4.0285 -2.9807 0.9724
4.0848 4.8316 -2.9824 0.9724
3.1658 5.4833 -2.9846 0.9724
2.6663 5.7458 -2.9858 0.9724
2.1453 5.9630 -2.9872 0.9724
0.4944 6.3276 -2.9918 0.9723
-2.2877 5.9397 -3.0003 0.9722
-4.2261 4.7785 -3.0070 0.9722
-5.8862 2.4960 -3.0137 0.9721
-6.2394 1.4137 -3.0156 0.9721
-6.3420 0.8529 -3.0164 0.9721
-6.3449 -0.8533 -3.0177 0.9721
-6.2440 -1.4147 -3.0179 0.9721
-6.0933 -1.9648 -3.0179 0.9721
-3.3179 -5.4620 -3.0124 0.9721
-2.2949 -5.9585 -3.0098 0.9722
0.4961 -6.3489 -3.0019 0.9722
1.0586 -6.2760 -3.0001 0.9722
1.6121 -6.1533 -2.9984 0.9723
2.6745 -5.7633 -2.9950 0.9723
3.1750 -5.4993 -2.9933 0.9723
4.0550 -4.7963 -2.9606 0.9726
4.4579 -4.4085 -2.9554 0.9727
5.1634 -3.5445 -2.9522 0.9727
5.4583 -3.0708 -2.9522 0.9727
5.7102 -2.5729 -2.9523 0.9727
5.9171 -2.0547 -2.9526 0.9727
6.0774 -1.5201 -2.9530 0.9727
6.2534 -0.4186 -2.9543 0.9727
6.2677 0.1397 -2.9552 0.9727
6.2325 0.6972 -2.9562 0.9726
6.1514 1.2503 -2.9589 0.9726
6.0348 1.7986 -2.9683 0.9725
5.8719 2.3370 -2.9791 0.9724
5.3658 3.3419 -2.9798 0.9724
5.0480 3.8069 -2.9803 0.9724
2.9190 5.6201 -2.9852 0.9724
-0.3537 6.3424 -2.9943 0.9723
-0.9173 6.2893 -2.9960 0.9723
-2.0202 6.0340 -2.9995 0.9723
-2.5507 5.8336 -3.0012 0.9722
-3.5486 5.2949 -3.0046 0.9722
-4.4359 4.5867 -3.0078 0.9722
-4.8289 4.1757 -3.0093 0.9722
-5.4978 3.2563 -3.0120 0.9721
-6.1693 1.6899 -3.0152 0.9721
-6.1092 -0.5459 -3.0168 0.9730
-6.0368 -1.0876 -3.0170 0.9730
-5.9162 -1.6206 -3.0171 0.9730
-5.2766 -3.1253 -3.0164 0.9730
-4.6370 -4.0098 -3.0152 0.9730
-4.2606 -4.4054 -3.0144 0.9731
-3.8504 -4.7657 -3.0135 0.9731
-3.4098 -5.0877 -3.0124 0.9731
-2.4517 -5.6071 -3.0100 0.9731
-0.8820 -6.0470 -3.0057 0.9731
-0.3400 -6.0983 -3.0041 0.9731
0.7458 -6.0554 -3.0009 0.9732
1.2811 -5.9617 -2.9992 0.9732
1.8056 -5.8208 -2.9976 0.9732
3.2739 -5.1286 -2.9927 0.9732
3.7047 -4.8003 -2.9824 0.9733
4.4600 -4.0339 -2.9579 0.9735
4.7942 -3.6155 -2.9534 0.9736
5.0962 -3.1740 -2.9530 0.9736
5.3586 -2.7078 -2.9530 0.9736
5.9700 -0.6678 -2.9547 0.9736
6.0073 -0.1339 -2.9555 0.9736
5.9468 0.9350 -2.9609 0.9735
5.7230 1.9873 -2.9798 0.9734
5.5238 2.4889 -2.9800 0.9734
4.9963 3.4298 -2.9808 0.9733
2.5557 5.5075 -2.9864 0.9733
2.0563 5.7156 -2.9877 0.9733
1.5401 5.8787 -2.9891 0.9733
-0.0678 6.0861 -2.9937 0.9732
-0.6096 6.0592 -2.9953 0.9732
-1.6761 5.8616 -2.9986 0.9732
-2.1924 5.6923 -3.0003 0.9732
-3.1704 5.2191 -3.0035 0.9731
-3.6242 4.9188 -3.0051 0.9731
-4.4433 4.2024 -3.0081 0.9731
-4.8019 3.7920 -3.0095 0.9731
-6.0764 0.8172 -3.0156 0.9730
-6.1262 0.2732 -3.0162 0.9730
-6.1271 -0.2732 -3.0166 0.9730
-5.1317 -3.3570 -3.0161 0.9730
-2.6996 -5.4935 -3.0106 0.9731
-2.1990 -5.7095 -3.0093 0.9731
-1.1507 -6.0032 -3.0065 0.9731
-0.6115 -6.0787 -3.0049 0.9731
0.4754 -6.0843 -3.0017 0.9732
1.5450 -5.8971 -2.9984 0.9732
2.0625 -5.7330 -2.9967 0.9732
3.0430 -5.2707 -2.9935 0.9732
3.4965 -4.9737 -2.9904 0.9733
4.2790 -4.2316 -2.9600 0.9735
4.9498 -3.3979 -2.9530 0.9736
5.6723 -1.9696 -2.9534 0.9736
5.8259 -1.4572 -2.9538 0.9736
5.9945 -0.4013 -2.9551 0.9736
6.0082 0.1339 -2.9559 0.9736
5.9055 1.2003 -2.9640 0.9735
5.4077 2.7326 -2.9801 0.9734
5.1437 3.2035 -2.9805 0.9733
4.4961 4.0665 -2.9818 0.9733
3.7060 4.8020 -2.9835 0.9733
3.2651 5.1146 -2.9846 0.9733
1.8001 5.8029 -2.9884 0.9733
0.7434 6.0361 -2.9913 0.9733
-0.3390 6.0787 -2.9945 0.9732
-1.4129 5.9288 -2.9978 0.9732
-1.9361 5.7827 -2.9994 0.9732
-2.4444 5.5905 -3.0011 0.9732
-2.9339 5.3537 -3.0027 0.9732
-3.8407 4.7537 -3.0059 0.9731
-5.9111 1.6192 -3.0145 0.9730
-6.1074 0.5458 -3.0159 0.9730
-5.8824 0.0000 -3.0157 0.9739
-5.8597 -0.5236 -3.0160 0.9739
-4.7734 -3.4357 -3.0151 0.9739
-3.2707 -4.8802 -3.0118 0.9739
-2.8223 -5.1500 -3.0107 0.9739
-1.8629 -5.5642 -3.0082 0.9740
0.1957 -5.8531 -3.0024 0.9740
1.2290 -5.7196 -2.9992 0.9740
1.7323 -5.5845 -2.9976 0.9741
2.2213 -5.4053 -2.9960 0.9741
2.6922 -5.1834 -2.9944 0.9741
3.1412 -4.9207 -2.9929 0.9741
3.9430 -4.2631 -2.9771 0.9742
4.8936 -3.0477 -2.9556 0.9744
5.3535 -2.1307 -2.9540 0.9744
5.5226 -1.6459 -2.9543 0.9744
5.7290 -0.6409 -2.9554 0.9744
5.7672 -0.1285 -2.9574 0.9744
5.7625 0.3856 -2.9609 0.9744
5.6399 1.4107 -2.9805 0.9742
5.0678 2.8511 -2.9810 0.9742
4.7946 3.2913 -2.9815 0.9742
3.7574 4.4443 -2.9836 0.9742
2.9118 5.0435 -2.9857 0.9742
1.9731 5.4844 -2.9881 0.9741
0.9703 5.7526 -2.9908 0.9741
0.4547 5.8190 -2.9923 0.9741
-0.0651 5.8393 -2.9938 0.9741
-0.5849 5.8134 -2.9954 0.9741
-1.1005 5.7413 -2.9970 0.9741
-2.1033 5.4610 -3.0002 0.9740
-3.0414 5.0068 -3.0033 0.9740
-3.4767 4.7186 -3.0048 0.9740
-4.2624 4.0313 -3.0077 0.9740
-5.1824 2.7654 -3.0114 0.9739
-5.8761 0.2620 -3.0155 0.9739
-5.8769 -0.2620 -3.0159 0.9739
-5.8308 -0.7842 -3.0162 0.9739
-5.7381 -1.3001 -3.0163 0.9739
-5.5996 -1.8056 -3.0163 0.9739
-3.4854 -4.7304 -3.0124 0.9739
-2.5896 -5.2696 -3.0101 0.9740
-1.6128 -5.6404 -3.0075 0.9740
-0.5867 -5.8314 -3.0047 0.9740
0.4561 -5.8370 -3.0016 0.9740
0.9733 -5.7702 -3.0000 0.9740
2.4593 -5.2996 -2.9952 0.9741
2.9197 -5.0570 -2.9937 0.9741
4.1161 -4.0705 -2.9678 0.9743
4.4506 -3.6785 -2.9602 0.9744
4.7553 -3.2643 -2.9570 0.9744
5.2531 -2.3669 -2.9539 0.9744
5.4434 -1.8902 -2.9541 0.9744
5.5908 -1.3984 -2.9545 0.9744
5.6941 -0.8953 -2.9551 0.9744
5.7525 -0.3851 -2.9557 0.9744
5.4018 2.1499 -2.9806 0.9742
4.6437 3.5020 -2.9818 0.9742
4.3145 3.9022 -2.9824 0.9742
3.9511 4.2719 -2.9832 0.9742
3.1331 4.9079 -2.9851 0.9742
2.6848 5.1692 -2.9862 0.9742
1.7272 5.5681 -2.9888 0.9741
0.1951 5.8350 -2.9931 0.9741
-0.3252 5.8322 -2.9946 0.9741
-0.8434 5.7831 -2.9962 0.9741
-1.3556 5.6881 -2.9978 0.9741
-1.8574 5.5478 -2.9994 0.9740
-2.3451 5.3633 -3.0010 0.9740
-3.6844 4.5602 -3.0056 0.9740
-4.7647 3.4294 -3.0097 0.9740
-5.6698 1.5531 -3.0138 0.9739
-5.8580 0.5235 -3.0152 0.9739
-5.6477 0.0000 -3.0150 0.9747
-5.5592 -1.0015 -3.0155 0.9747
-5.4482 -1.4924 -3.0156 0.9747
-5.2936 -1.9713 -3.0155 0.9747
-5.0967 -2.4345 -3.0153 0.9747
-4.8593 -2.8781 -3.0150 0.9747
-4.5830 -3.2987 -3.0145 0.9747
-4.2704 -3.6927 -3.0139 0.9747
-3.9238 -4.0572 -3.0131 0.9747
-2.2582 -5.1645 -3.0091 0.9748
-1.3056 -5.4784 -3.0065 0.9748
-0.3133 -5.6178 -3.0037 0.9748
0.6871 -5.5787 -3.0007 0.9748
1.1803 -5.4927 -2.9992 0.9748
2.1333 -5.1911 -2.9961 0.9749
2.5855 -4.9781 -2.9946 0.9749
3.0169 -4.7259 -2.9931 0.9749
3.4239 -4.4365 -2.9917 0.9749
3.8015 -4.1103 -2.9888 0.9749
4.4321 -3.3424 -2.9635 0.9751
4.7066 -2.9313 -2.9601 0.9752
5.1468 -2.0484 -2.9572 0.9752
5.4296 -1.1036 -2.9578 0.9752
5.5093 -0.6163 -2.9595 0.9752
5.5465 -0.1238 -2.9617 0.9752
5.4175 1.3550 -2.9812 0.9750
5.0918 2.2942 -2.9814 0.9750
2.3555 5.0759 -2.9873 0.9749
0.9319 5.5250 -2.9911 0.9749
0.4367 5.5887 -2.9926 0.9749
-0.0625 5.6081 -2.9940 0.9749
-2.0198 5.2443 -3.0001 0.9748
-2.9206 4.8079 -3.0031 0.9748
-3.3385 4.5311 -3.0046 0.9748
-4.7181 3.0864 -3.0098 0.9748
-4.9759 2.6552 -3.0109 0.9748
-5.1943 2.2026 -3.0119 0.9747
-5.3713 1.7320 -3.0128 0.9747
-5.5056 1.2474 -3.0136 0.9747
-5.5960 0.7526 -3.0142 0.9747
-5.6425 -0.2516 -3.0152 0.9747
-5.5982 -0.7529 -3.0155 0.9747
-5.5092 -1.2482 -3.0156 0.9747
-4.9830 -2.6590 -3.0151 0.9747
-4.7259 -3.0915 -3.0147 0.9747
-4.4311 -3.4992 -3.0142 0.9747
-2.9280 -4.8202 -3.0108 0.9748
-2.4865 -5.0598 -3.0097 0.9748
-1.5487 -5.4160 -3.0072 0.9748
0.4380 -5.6053 -3.0014 0.9748
1.9004 -5.2823 -2.9969 0.9749
2.3618 -5.0896 -2.9953 0.9749
2.8040 -4.8567 -2.9939 0.9749
3.2236 -4.5857 -2.9924 0.9749
3.6173 -4.2785 -2.9910 0.9749
4.2853 -3.5419 -2.9680 0.9751
4.8309 -2.7179 -2.9591 0.9752
5.2326 -1.8170 -2.9570 0.9752
5.5512 0.1237 -2.9642 0.9751
5.3517 1.5950 -2.9812 0.9750
5.1887 2.0651 -2.9813 0.9750
4.9847 2.5189 -2.9815 0.9750
4.7414 2.9530 -2.9819 0.9750
4.1442 3.7483 -2.9830 0.9750
3.7951 4.1033 -2.9838 0.9750
3.4158 4.4261 -2.9847 0.9750
2.1274 5.1768 -2.9879 0.9749
0.1874 5.6039 -2.9933 0.9749
-0.3123 5.6011 -2.9948 0.9749
-1.3018 5.4625 -2.9978 0.9749
-2.2520 5.1504 -3.0009 0.9748
-2.7029 4.9320 -3.0024 0.9748
-3.5379 4.3789 -3.0053 0.9748
-4.5751 3.2929 -3.0092 0.9748
-5.5563 1.0010 -3.0139 0.9747
-5.4064 -0.4831 -3.0147 0.9755
-4.6697 -2.7658 -3.0143 0.9755
-4.4043 -3.1700 -3.0138 0.9755
-4.1039 -3.5487 -3.0133 0.9755
-3.7708 -3.8990 -3.0125 0.9755
-2.6044 -4.7523 -3.0098 0.9755
-2.1702 -4.9634 -3.0087 0.9755
-1.7192 -5.1348 -3.0075 0.9755
-1.2548 -5.2652 -3.0062 0.9755
-0.3011 -5.3994 -3.0035 0.9756
0.1806 -5.4022 -3.0020 0.9756
2.4853 -4.7851 -2.9947 0.9756
3.2913 -4.2647 -2.9919 0.9757
3.9894 -3.6082 -2.9875 0.9757
4.5348 -2.8243 -2.9671 0.9759
4.9540 -1.9716 -2.9613 0.9759
5.3515 -0.1193 -2.9730 0.9758
5.2084 1.3027 -2.9818 0.9757
4.6800 2.6329 -2.9824 0.9757
3.8202 3.7779 -2.9840 0.9757
2.6887 4.6571 -2.9866 0.9757
1.8218 5.0638 -2.9889 0.9757
0.8959 5.3111 -2.9914 0.9757
0.4198 5.3722 -2.9928 0.9756
-1.0159 5.2998 -2.9971 0.9756
-2.3835 4.8502 -3.0015 0.9756
-4.2507 3.3568 -3.0082 0.9755
-4.7821 2.5518 -3.0104 0.9755
-5.1619 1.6645 -3.0122 0.9755
-5.3798 -0.7235 -3.0148 0.9755
-5.2942 -1.1995 -3.0149 0.9755
-5.1664 -1.6659 -3.0149 0.9755
-4.9974 -2.1191 -3.0148 0.9755
-4.5415 -2.9709 -3.0141 0.9755
-3.5929 -4.0626 -3.0121 0.9755
-2.3896 -4.8627 -3.0092 0.9755
-1.4884 -5.2052 -3.0068 0.9755
-0.5414 -5.3819 -3.0042 0.9756
1.8267 -5.0774 -2.9969 0.9756
2.2703 -4.8922 -2.9955 0.9756
3.8278 -3.7854 -2.9900 0.9757
4.1407 -3.4225 -2.9836 0.9757
4.4112 -3.0281 -2.9717 0.9758
4.9885 1.9854 -2.9820 0.9757
4.2883 3.2339 -2.9830 0.9757
3.9842 3.6035 -2.9836 0.9757
3.2839 4.2551 -2.9852 0.9757
2.8930 4.5319 -2.9861 0.9757
2.0451 4.9766 -2.9883 0.9757
1.1313 5.2647 -2.9908 0.9757
-0.3002 5.3840 -2.9949 0.9756
-1.7145 5.1209 -2.9993 0.9756
-3.0108 4.4925 -3.0036 0.9756
-3.7631 3.8910 -3.0063 0.9755
-4.3969 3.1647 -3.0088 0.9755
-4.6629 2.7618 -3.0099 0.9755
-4.8918 2.3366 -3.0109 0.9755
-5.2316 1.4331 -3.0126 0.9755
-5.3396 0.9620 -3.0133 0.9755
-5.4050 0.4830 -3.0139 0.9755
-4.8925 -1.8220 -3.0142 0.9762
-4.7107 -2.2501 -3.0140 0.9762
-2.9028 -4.3312 -3.0103 0.9762
-1.2070 -5.0645 -3.0059 0.9762
-0.7511 -5.1496 -3.0046 0.9762
-0.2896 -5.1937 -3.0033 0.9763
1.0913 -5.0787 -2.9991 0.9763
1.5383 -4.9590 -2.9977 0.9763
1.9726 -4.8001 -2.9963 0.9763
3.5175 -3.8031 -2.9909 0.9764
4.5996 -2.3243 -2.9754 0.9765
4.7821 -1.9032 -2.9715 0.9765
5.0471 -1.0258 -2.9735 0.9765
5.1547 0.3451 -2.9828 0.9764
4.8800 1.6945 -2.9825 0.9764
4.7101 2.1223 -2.9827 0.9764
4.5029 2.5333 -2.9830 0.9764
3.9836 3.2926 -2.9839 0.9764
3.6756 3.6349 -2.9845 0.9764
2.5869 4.4806 -2.9871 0.9764
1.7527 4.8718 -2.9892 0.9764
1.3127 5.0105 -2.9904 0.9764
0.8619 5.1096 -2.9917 0.9764
-0.0578 5.1860 -2.9943 0.9763
-1.8675 4.8489 -3.0000 0.9763
-2.2928 4.6656 -3.0014 0.9763
-3.4486 3.8993 -3.0054 0.9762
-3.7835 3.5784 -3.0066 0.9762
-4.3613 2.8530 -3.0089 0.9762
-4.8012 2.0359 -3.0109 0.9762
-4.9647 1.6009 -3.0117 0.9762
-5.0887 1.1529 -3.0124 0.9762
-5.2151 -0.2325 -3.0139 0.9762
-5.1741 -0.6958 -3.0142 0.9762
-4.9689 -1.6023 -3.0143 0.9762
-4.8064 -2.0381 -3.0141 0.9762
-4.6055 -2.4575 -3.0139 0.9762
-4.3679 -2.8574 -3.0135 0.9762
-3.7907 -3.5852 -3.0124 0.9762
-2.7065 -4.4555 -3.0098 0.9762
-2.2984 -4.6772 -3.0088 0.9762
-1.4317 -5.0068 -3.0065 0.9762
0.8642 -5.1234 -2.9998 0.9763
1.3162 -5.0238 -2.9984 0.9763
1.7572 -4.8844 -2.9970 0.9763
2.5930 -4.4913 -2.9942 0.9763
2.9811 -4.2408 -2.9928 0.9763
3.3453 -3.9569 -2.9915 0.9764
3.9906 -3.2983 -2.9891 0.9764
4.4962 -2.5294 -2.9785 0.9765
4.6949 -2.1154 -2.9731 0.9765
4.8609 -1.6879 -2.9708 0.9765
5.1522 -0.3449 -2.9813 0.9764
5.1340 0.5743 -2.9826 0.9764
5.0623 1.0290 -2.9825 0.9764
4.7998 1.9103 -2.9826 0.9764
4.6110 2.3301 -2.9828 0.9764
4.3859 2.7316 -2.9831 0.9764
3.8334 3.4671 -2.9842 0.9764
3.5104 3.7955 -2.9849 0.9764
2.3851 4.5922 -2.9876 0.9764
1.0884 5.0650 -2.9910 0.9764
0.1733 5.1823 -2.9937 0.9763
-0.7490 5.1356 -2.9964 0.9763
-1.2037 5.0510 -2.9978 0.9763
-3.2707 4.0482 -3.0048 0.9762
-3.9399 3.4070 -3.0072 0.9762
-4.7050 2.2474 -3.0104 0.9762
-4.8878 1.8203 -3.0113 0.9762
-5.0317 1.3783 -3.0121 0.9762
-5.1356 0.9252 -3.0127 0.9762
-5.1985 0.4645 -3.0133 0.9762
