ply
format ascii 1.0
element vertex 1623
property float32 x
property float32 y
property float32 z
property float32 I
end_header
-4.5651 -11.8529 6.7807 0.9440
-1.0225 -7.0104 3.4846 0.9689
2.5539 9.7480 4.9564 0.9561
-1.1335 -7.7719 3.3879 0.9664
-1.1672 -8.0032 3.3304 0.9656
-1.2025 -8.2452 3.2702 0.9648
-1.2395 -8.4989 3.2072 0.9640
5.0412 9.7059 3.4734 0.9551
6.8241 9.7074 3.5524 0.9517
4.4970 9.6908 3.1984 0.9564
3.9682 9.6561 3.1254 0.9573
8.2192 9.7217 3.5818 0.9485
2.9927 9.6477 2.8420 0.9589
2.0703 9.6342 2.5966 0.9601
8.8707 3.9969 1.2193 0.9615
9.1471 3.6405 1.2337 0.9611
9.3169 3.2352 1.0698 0.9611
8.5609 3.8574 1.0185 0.9629
8.9673 3.1138 0.8703 0.9626
8.3695 3.7711 0.8416 0.9638
8.7797 3.0487 0.6965 0.9634
8.2766 4.6563 0.7117 0.9626
9.6239 2.8683 0.7526 0.9605
8.4416 3.3597 0.6809 0.9642
8.6508 3.0039 0.5334 0.9640
8.1472 3.6710 0.5205 0.9648
8.1206 4.5686 0.5427 0.9634
9.2266 2.7498 0.5607 0.9622
8.3349 3.3172 0.5225 0.9647
8.0651 4.0755 0.5263 0.9644
8.0728 3.6374 0.3682 0.9652
8.0130 4.5081 0.3823 0.9639
7.9866 4.0358 0.3721 0.9648
8.4853 2.9464 0.2240 0.9647
7.9367 4.4651 0.2271 0.9642
8.9463 2.6663 0.2328 0.9633
8.2034 5.1091 0.2410 0.9621
8.4352 2.9290 0.0742 0.9649
7.9742 3.5930 0.0727 0.9656
7.8879 4.4377 0.0752 0.9644
8.3937 2.9146 -0.0738 0.9651
7.9403 3.5777 -0.0724 0.9658
8.1145 3.2295 -0.0726 0.9657
7.8466 3.9651 -0.0731 0.9654
8.0453 5.0107 -0.0788 0.9628
8.3777 2.9091 -0.2212 0.9651
7.8320 4.4062 -0.2241 0.9647
8.8019 2.6232 -0.2290 0.9639
8.1012 3.2242 -0.2174 0.9657
7.8329 3.9582 -0.2189 0.9655
8.3618 2.9035 -0.3680 0.9652
7.9143 3.5660 -0.3609 0.9658
7.8165 4.3975 -0.3729 0.9647
8.7819 2.6173 -0.3810 0.9640
8.0880 3.2189 -0.3619 0.9658
7.8193 3.9513 -0.3643 0.9655
7.9972 4.9807 -0.3917 0.9630
8.3753 2.9082 -0.5164 0.9651
7.9240 3.5704 -0.5062 0.9658
8.0236 4.9972 -0.5505 0.9628
8.3915 2.9139 -0.6657 0.9650
8.1115 3.2283 -0.6542 0.9656
7.8440 3.9637 -0.6586 0.9654
8.0503 5.0138 -0.7107 0.9627
7.9655 3.5891 -0.8010 0.9655
7.8862 4.4367 -0.8295 0.9643
8.8801 2.6465 -0.8495 0.9635
7.8752 3.9795 -0.8089 0.9652
8.1327 5.0651 -0.8784 0.9622
7.9370 4.4653 -0.9878 0.9640
8.9575 2.6696 -1.0138 0.9631
8.1866 3.2582 -0.9557 0.9652
7.9196 4.0019 -0.9625 0.9649
8.2489 5.1374 -1.0541 0.9617
9.1069 2.7141 -1.1908 0.9624
8.2468 3.2821 -1.1123 0.9649
7.9809 4.0329 -1.1206 0.9646
8.6570 3.0060 -1.3035 0.9637
8.1425 3.6688 -1.2703 0.9646
8.1379 4.5783 -1.3281 0.9630
8.3314 3.3158 -1.2754 0.9644
8.8085 3.0587 -1.4848 0.9629
8.3285 4.6855 -1.5217 0.9620
8.5999 3.4227 -1.6321 0.9631
8.3505 4.2197 -1.6497 0.9627
-10.1655 -10.5110 -2.8297 0.9422
-9.1969 -11.3832 -2.8320 0.9421
-8.1475 -12.1569 -2.8321 0.9421
-5.8243 -13.3206 -2.8134 0.9425
0.4801 -14.3588 -2.7802 0.9431
8.6178 3.8830 -1.8292 0.9622
-1.4641 14.5539 -2.8306 0.9421
-4.0217 14.0646 -2.8308 0.9421
-7.5961 12.5048 -2.8314 0.9421
-8.6797 11.7802 -2.8316 0.9421
-9.6947 10.9620 -2.8319 0.9421
-11.4874 9.0715 -2.8326 0.9421
-12.2421 8.0084 -2.8310 0.9421
-8.6831 -11.7847 -2.8327 0.9421
1.1181 -14.3085 -2.7774 0.9432
2.3842 -14.1343 -2.7739 0.9433
8.8580 3.5254 -1.8450 0.9619
0.4882 14.6024 -2.8274 0.9422
-4.6443 13.8718 -2.8309 0.9421
-7.0312 12.8303 -2.8313 0.9421
-8.1459 12.1546 -2.8315 0.9421
-14.0783 -1.2580 -2.9798 0.9439
-13.6322 -3.7342 -2.9798 0.9439
-12.7541 -6.0921 -2.9798 0.9439
-12.1613 -7.2031 -2.9798 0.9439
-9.3236 -9.6405 -2.8274 0.9467
-7.4768 -11.1561 -2.8313 0.9466
-6.4575 -11.7834 -2.8327 0.9466
-4.2485 -12.6895 -2.8212 0.9468
-3.0963 -12.9928 -2.8158 0.9469
-1.9228 -13.1834 -2.8087 0.9470
-0.7398 -13.2666 -2.8012 0.9471
0.4457 -13.3320 -2.8122 0.9469
8.4867 -10.9965 -2.9284 0.9448
9.4389 -10.2052 -2.9306 0.9448
11.1177 -8.3842 -2.9356 0.9447
12.4516 -6.2921 -2.9412 0.9446
13.3918 -3.9916 -2.9460 0.9445
14.0050 -0.3121 -2.9533 0.9443
13.8650 2.1802 -2.9589 0.9442
13.6296 3.4090 -2.9619 0.9442
13.2852 4.6131 -2.9648 0.9441
12.8342 5.7828 -2.9677 0.9441
11.6264 7.9811 -2.9730 0.9440
10.0431 9.9318 -2.9777 0.9439
8.1286 11.5632 -2.9798 0.9439
4.7849 13.2999 -2.9798 0.9439
3.5821 13.6729 -2.9798 0.9439
1.0448 13.3708 -2.8274 0.9467
-3.6921 12.9121 -2.8312 0.9466
-5.9236 12.0542 -2.8315 0.9466
-9.7614 9.2323 -2.8325 0.9466
-10.5421 8.3250 -2.8319 0.9466
-12.1739 6.4962 -2.9090 0.9452
-12.4701 -6.6542 -2.9798 0.9439
-11.8283 -7.7377 -2.9798 0.9439
-7.9638 -10.8085 -2.8304 0.9466
-6.9745 -11.4815 -2.8321 0.9466
-5.9239 -12.0548 -2.8317 0.9466
-4.7462 -12.3231 -2.7840 0.9474
-3.6753 -12.8533 -2.8183 0.9468
-2.5119 -13.1041 -2.8129 0.9469
-0.1485 -13.3272 -2.8098 0.9470
2.2010 -13.0487 -2.7898 0.9473
3.5113 -13.4026 -2.9209 0.9449
4.6918 -13.0411 -2.9218 0.9449
6.9383 -12.0174 -2.9254 0.9449
7.9856 -11.3596 -2.9274 0.9448
10.7284 -8.8672 -2.9343 0.9447
13.1972 -4.5826 -2.9452 0.9445
13.8182 -2.1728 -2.9490 0.9444
13.4709 4.0148 -2.9634 0.9442
12.5697 6.3518 -2.9691 0.9441
11.9652 7.4520 -2.9717 0.9440
9.5941 10.3731 -2.9788 0.9439
5.3726 13.0735 -2.9798 0.9439
4.1877 13.4998 -2.9798 0.9439
2.9695 13.8189 -2.9798 0.9439
1.6394 13.3109 -2.8274 0.9467
-0.7477 13.4085 -2.8312 0.9466
-4.2638 12.7351 -2.8313 0.9466
-6.4550 11.7788 -2.8316 0.9466
-10.8974 7.8435 -2.8306 0.9466
-11.5412 6.8359 -2.8279 0.9466
-13.0554 0.0000 -2.9798 0.9478
-12.8485 -2.3147 -2.9798 0.9478
-12.5915 -3.4492 -2.9798 0.9478
-12.2345 -4.5562 -2.9798 0.9478
-11.7805 -5.6270 -2.9798 0.9478
-10.5961 -7.6266 -2.9798 0.9478
-9.0760 -9.3845 -2.9798 0.9478
-7.7851 -9.6357 -2.8274 0.9504
-4.9703 -11.3673 -2.8317 0.9504
-3.9402 -11.7688 -2.8327 0.9504
-2.8733 -12.0570 -2.8290 0.9504
-1.7912 -12.2811 -2.8327 0.9504
0.4144 -12.3962 -2.8309 0.9504
1.5147 -12.2983 -2.8282 0.9504
2.7150 -12.6344 -2.9496 0.9484
5.9088 -11.3765 -2.9260 0.9488
7.8433 -10.1629 -2.9301 0.9487
8.7235 -9.4318 -2.9324 0.9487
10.9297 -6.8071 -2.9389 0.9485
11.4994 -5.8109 -2.9407 0.9485
11.9784 -4.7673 -2.9426 0.9485
12.6562 -2.5725 -2.9478 0.9484
12.8464 -1.4371 -2.9504 0.9483
12.9350 -0.2882 -2.9531 0.9483
12.5864 3.1481 -2.9613 0.9482
11.8501 5.3394 -2.9666 0.9481
11.3375 6.3784 -2.9691 0.9480
10.0427 8.3005 -2.9738 0.9479
8.4233 9.9631 -2.9778 0.9479
6.5277 11.3063 -2.9798 0.9478
5.4954 11.8424 -2.9798 0.9478
4.4196 12.2846 -2.9798 0.9478
3.3087 12.6292 -2.9798 0.9478
2.0604 12.2151 -2.8274 0.9504
0.9650 12.3500 -2.8274 0.9504
-1.2417 12.3431 -2.8314 0.9504
-5.4720 11.1353 -2.8318 0.9504
-11.5181 6.1462 -2.9798 0.9478
-12.0195 5.0967 -2.9798 0.9478
-12.9389 1.7401 -2.9798 0.9478
-13.0424 -0.5816 -2.9798 0.9478
-12.7327 -2.8848 -2.9798 0.9478
-12.4254 -4.0067 -2.9798 0.9478
-12.0195 -5.0967 -2.9798 0.9478
-11.5181 -6.1462 -2.9798 0.9478
-9.4851 -8.9709 -2.9798 0.9478
-8.4068 -9.5056 -2.8964 0.9493
-7.3500 -9.9754 -2.8281 0.9504
-4.4598 -11.5796 -2.8322 0.9504
-2.3308 -12.1597 -2.8259 0.9505
-0.1383 -12.4080 -2.8322 0.9504
6.4113 -11.1048 -2.9267 0.9488
8.2916 -9.8073 -2.9312 0.9487
9.1384 -9.0372 -2.9335 0.9486
10.6120 -7.2847 -2.9379 0.9486
11.2258 -6.3155 -2.9399 0.9485
12.1842 -4.2308 -2.9438 0.9485
12.5234 -3.1323 -2.9464 0.9484
12.9035 -0.8638 -2.9517 0.9483
12.9408 0.2884 -2.9544 0.9483
12.8756 1.4404 -2.9571 0.9482
12.7082 2.5831 -2.9599 0.9482
12.4394 3.7074 -2.9626 0.9481
12.0709 4.8041 -2.9653 0.9481
9.6664 8.7428 -2.9749 0.9479
8.8559 9.5750 -2.9769 0.9479
7.0249 11.0043 -2.9798 0.9478
6.0175 11.5859 -2.9798 0.9478
3.8680 12.4692 -2.9798 0.9478
0.4139 12.3808 -2.8274 0.9504
-3.9387 11.7643 -2.8316 0.9504
-4.9704 11.3676 -2.8318 0.9504
-8.6277 8.9210 -2.8326 0.9504
-9.3835 8.1142 -2.8314 0.9504
-10.0600 7.2408 -2.8290 0.9504
-10.9235 6.4700 -2.8977 0.9492
-11.7805 5.6271 -2.9798 0.9478
-12.8485 2.3148 -2.9798 0.9478
-12.1229 0.0000 -2.9798 0.9513
-11.9308 -2.1494 -2.9798 0.9513
-11.6922 -3.2028 -2.9798 0.9513
-10.4306 -6.1780 -2.9798 0.9513
-8.4277 -8.7142 -2.9798 0.9513
-6.4146 -9.5712 -2.8321 0.9536
-5.5299 -10.0907 -2.8283 0.9537
-4.6117 -10.5472 -2.8295 0.9537
-3.6558 -10.9194 -2.8304 0.9537
-2.6701 -11.2042 -2.8311 0.9537
-1.6625 -11.3992 -2.8316 0.9537
0.3846 -11.5054 -2.8296 0.9537
2.5438 -11.8379 -2.9762 0.9513
3.5358 -11.3985 -2.9335 0.9520
4.5259 -11.0132 -2.9267 0.9521
5.4902 -10.5706 -2.9278 0.9521
7.2847 -9.4391 -2.9307 0.9521
8.8539 -8.0079 -2.9344 0.9520
9.5381 -7.1930 -2.9364 0.9520
10.1479 -6.3202 -2.9386 0.9519
10.6783 -5.3960 -2.9408 0.9519
11.1250 -4.4276 -2.9431 0.9519
12.0106 -0.2676 -2.9529 0.9517
11.8887 1.8694 -2.9581 0.9516
11.6852 2.9227 -2.9607 0.9516
11.3883 3.9545 -2.9632 0.9516
11.0002 4.9565 -2.9656 0.9515
10.5237 5.9206 -2.9680 0.9515
9.3208 7.7039 -2.9723 0.9514
6.9718 9.9176 -2.9798 0.9513
6.0614 10.4987 -2.9798 0.9513
5.1029 10.9966 -2.9798 0.9513
4.1039 11.4071 -2.9798 0.9513
3.0723 11.7271 -2.9798 0.9513
1.9133 11.3427 -2.8274 0.9537
-1.1532 11.4629 -2.8318 0.9537
-3.1674 11.0770 -2.8318 0.9537
-5.0817 10.3409 -2.8321 0.9536
-6.8356 9.2773 -2.8325 0.9536
-7.6348 8.6328 -2.8327 0.9536
-9.0320 7.1325 -2.8288 0.9537
-9.8543 6.4464 -2.8944 0.9527
-10.6954 5.7073 -2.9798 0.9513
-11.1609 4.7327 -2.9798 0.9513
-11.5379 3.7205 -2.9798 0.9513
-12.0147 1.6158 -2.9798 0.9513
-12.1109 -0.5400 -2.9798 0.9513
-12.0147 -1.6158 -2.9798 0.9513
-11.8233 -2.6788 -2.9798 0.9513
-11.1610 -4.7326 -2.9798 0.9513
-10.6954 -5.7072 -2.9798 0.9513
-7.0249 -9.5342 -2.9109 0.9524
-5.0760 -10.3292 -2.8289 0.9537
-4.1380 -10.7440 -2.8300 0.9537
-2.1685 -11.3130 -2.8314 0.9537
-1.1531 -11.4621 -2.8316 0.9537
3.0375 -11.5941 -2.9460 0.9518
4.0302 -11.2021 -2.9263 0.9521
6.8551 -9.7515 -2.9299 0.9521
7.7002 -9.1079 -2.9316 0.9521
8.4856 -8.3916 -2.9334 0.9520
9.2050 -7.6081 -2.9354 0.9520
10.4233 -5.8641 -2.9397 0.9519
10.9124 -4.9169 -2.9420 0.9519
11.3158 -3.9292 -2.9443 0.9519
11.6301 -2.9089 -2.9467 0.9518
11.8527 -1.8637 -2.9492 0.9518
11.9815 -0.8021 -2.9516 0.9517
12.0159 0.2678 -2.9542 0.9517
11.9549 1.3374 -2.9568 0.9517
11.7987 2.3982 -2.9594 0.9516
11.2055 4.4597 -2.9644 0.9515
10.2534 6.3859 -2.9691 0.9515
9.6514 7.2785 -2.9713 0.9514
8.9714 8.1142 -2.9733 0.9514
8.2188 8.8861 -2.9752 0.9514
7.4067 9.5972 -2.9798 0.9513
6.5231 10.2183 -2.9798 0.9513
5.5877 10.7583 -2.9798 0.9513
3.5917 11.5786 -2.9798 0.9513
2.5469 11.8523 -2.9798 0.9513
1.4061 11.4166 -2.8274 0.9537
-0.6414 11.5031 -2.8318 0.9537
-2.6708 11.2069 -2.8318 0.9537
-3.6578 10.9251 -2.8319 0.9537
-5.5375 10.1046 -2.8322 0.9536
-12.0748 1.0790 -2.9798 0.9513
-11.1294 -2.0050 -2.9798 0.9543
-10.9067 -2.9877 -2.9798 0.9543
-10.5975 -3.9466 -2.9798 0.9543
-9.1783 -6.6061 -2.9798 0.9543
-8.5539 -7.3968 -2.9798 0.9543
-6.2958 -9.3939 -2.9798 0.9543
-5.2502 -9.5803 -2.8786 0.9558
-4.2990 -9.8320 -2.8276 0.9566
0.3586 -10.7268 -2.8281 0.9566
5.1244 -9.8663 -2.9295 0.9551
5.9847 -9.3748 -2.9307 0.9550
7.5597 -8.1735 -2.9337 0.9550
9.4688 -5.8972 -2.9394 0.9549
10.3794 -4.1309 -2.9436 0.9548
11.1281 -1.2449 -2.9506 0.9547
11.1909 0.7492 -2.9554 0.9547
10.8985 2.7259 -2.9602 0.9546
10.2584 4.6223 -2.9648 0.9545
8.0220 7.9332 -2.9729 0.9544
6.5035 9.2514 -2.9798 0.9543
5.6543 9.7935 -2.9798 0.9543
4.7602 10.2579 -2.9798 0.9543
1.7850 10.5820 -2.8278 0.9566
0.8368 10.7085 -2.8303 0.9565
-0.1198 10.7490 -2.8325 0.9565
-2.0233 10.5555 -2.8320 0.9565
-3.8631 10.0302 -2.8322 0.9565
-6.3768 8.6547 -2.8327 0.9565
-7.1185 8.0490 -2.8314 0.9565
-7.8016 7.3787 -2.8295 0.9566
-8.4215 6.6504 -2.8276 0.9566
-9.4635 6.1908 -2.9798 0.9543
-9.9770 5.3239 -2.9798 0.9543
-10.4112 4.4148 -2.9798 0.9543
-10.7628 3.4706 -2.9798 0.9543
-11.2973 0.5038 -2.9798 0.9543
-11.0290 -2.4988 -2.9798 0.9543
-10.4112 -4.4147 -2.9798 0.9543
-3.8574 -10.0153 -2.8280 0.9566
-2.0214 -10.5454 -2.8293 0.9566
-0.1196 -10.7348 -2.8288 0.9566
4.6790 -10.0829 -2.9290 0.9551
5.5599 -9.6301 -2.9301 0.9550
6.3978 -9.1010 -2.9314 0.9550
7.9187 -7.8309 -2.9346 0.9550
9.1935 -6.3110 -2.9384 0.9549
9.7255 -5.4715 -2.9404 0.9549
10.5571 -3.6658 -2.9447 0.9548
10.8498 -2.7137 -2.9470 0.9548
11.0571 -1.7386 -2.9494 0.9548
11.1771 -0.7482 -2.9518 0.9547
10.0461 5.0765 -2.9659 0.9545
8.9994 6.7868 -2.9701 0.9544
8.3650 7.5657 -2.9720 0.9544
7.6785 8.3020 -2.9798 0.9543
6.0849 9.5319 -2.9798 0.9543
3.3504 10.8008 -2.9798 0.9543
2.3758 11.0562 -2.9798 0.9543
-1.5511 10.6352 -2.8320 0.9565
-2.4916 10.4551 -2.8321 0.9565
-4.3061 9.8484 -2.8323 0.9565
-5.1659 9.4266 -2.8324 0.9565
-6.7549 8.3607 -2.8322 0.9565
-7.4677 7.7215 -2.8305 0.9565
-8.1198 7.0215 -2.8286 0.9566
-9.7299 5.7631 -2.9798 0.9543
-10.2042 4.8742 -2.9798 0.9543
-10.5975 3.9466 -2.9798 0.9543
-11.2637 1.0065 -2.9798 0.9543
-10.5909 0.0000 -2.9798 0.9569
-10.5488 -0.9426 -2.9798 0.9569
-10.4231 -1.8778 -2.9798 0.9569
-10.2146 -2.7981 -2.9798 0.9569
-9.9250 -3.6961 -2.9798 0.9569
-8.0111 -6.9274 -2.9798 0.9569
-7.3627 -7.6129 -2.9798 0.9569
-5.8963 -8.7978 -2.9798 0.9569
-4.1941 -9.5919 -2.9454 0.9574
-3.2242 -9.6302 -2.8573 0.9587
-1.4505 -9.9449 -2.8277 0.9591
-0.5595 -10.0340 -2.8275 0.9591
1.2946 -10.5114 -2.9798 0.9569
3.1293 -10.0879 -2.9717 0.9571
7.0829 -7.6579 -2.9349 0.9576
8.8701 -5.5244 -2.9401 0.9575
9.3329 -4.7161 -2.9421 0.9575
10.0355 -2.9909 -2.9463 0.9574
10.4802 0.7016 -2.9553 0.9573
10.3842 1.6329 -2.9576 0.9573
10.2053 2.5525 -2.9598 0.9572
9.6051 4.3279 -2.9641 0.9572
7.5305 7.4471 -2.9798 0.9569
4.4580 9.6069 -2.9798 0.9569
3.5853 9.9656 -2.9798 0.9569
2.6841 10.2451 -2.9798 0.9569
1.6717 9.9106 -2.8278 0.9591
0.7836 10.0285 -2.8302 0.9591
-0.1122 10.0666 -2.8325 0.9590
-1.0076 10.0163 -2.8324 0.9590
-1.8951 9.8865 -2.8323 0.9590
-2.7676 9.6788 -2.8323 0.9590
-3.6182 9.3944 -2.8324 0.9590
-4.4402 9.0355 -2.8326 0.9590
-5.2271 8.6049 -2.8327 0.9590
-7.3033 6.9075 -2.8283 0.9591
-8.1101 6.4045 -2.9075 0.9580
-9.3438 4.9860 -2.9798 0.9569
-9.7505 4.1346 -2.9798 0.9569
-10.0798 3.2503 -2.9798 0.9569
-10.3291 2.3403 -2.9798 0.9569
-10.5804 0.4718 -2.9798 0.9569
-10.4964 -1.4116 -2.9798 0.9569
-10.3291 -2.3402 -2.9798 0.9569
-8.8629 -5.7978 -2.9798 0.9569
-7.0163 -7.9334 -2.9798 0.9569
-6.2823 -8.5264 -2.9798 0.9569
-5.4985 -9.0517 -2.9798 0.9569
-4.6710 -9.5052 -2.9798 0.9569
-2.7628 -9.6620 -2.8274 0.9591
1.7616 -10.4433 -2.9798 0.9569
3.5430 -9.8480 -2.9447 0.9574
5.9946 -8.5275 -2.9328 0.9576
6.7330 -7.9638 -2.9342 0.9576
10.3563 -1.6284 -2.9496 0.9574
10.4681 -0.7008 -2.9519 0.9573
10.4426 1.1682 -2.9564 0.9573
10.0852 3.0057 -2.9609 0.9572
9.7848 3.8943 -2.9631 0.9572
8.9516 5.5752 -2.9671 0.9571
7.8310 7.0827 -2.9708 0.9571
7.1912 7.7751 -2.9798 0.9569
6.4707 8.3843 -2.9798 0.9569
5.6988 8.9270 -2.9798 0.9569
4.0257 9.7960 -2.9798 0.9569
3.1378 10.1154 -2.9798 0.9569
2.2250 10.3545 -2.9798 0.9569
-0.5605 10.0517 -2.8325 0.9590
-2.3336 9.7923 -2.8323 0.9590
-3.1960 9.5461 -2.8324 0.9590
-4.0332 9.2241 -2.8325 0.9590
-4.8384 8.8289 -2.8326 0.9590
-5.6044 8.3623 -2.8323 0.9590
-6.3231 7.8262 -2.8308 0.9591
-7.6014 6.5732 -2.8274 0.9591
-8.5959 6.1869 -2.9798 0.9569
-9.1124 5.3973 -2.9798 0.9569
-10.2146 2.7981 -2.9798 0.9569
-10.5488 0.9426 -2.9798 0.9569
-9.9533 0.0000 -2.9798 0.9593
-9.9137 -0.8859 -2.9798 0.9593
-9.7955 -1.7647 -2.9798 0.9593
-9.5996 -2.6296 -2.9798 0.9593
-8.5638 -5.0723 -2.9798 0.9593
-5.5412 -8.2681 -2.9798 0.9593
-4.7833 -8.7285 -2.9798 0.9593
-3.9875 -9.1196 -2.9798 0.9593
-2.2953 -9.6314 -2.9642 0.9595
-1.4091 -9.6615 -2.9231 0.9601
-0.5464 -9.7985 -2.9380 0.9599
1.2167 -9.8786 -2.9798 0.9593
2.9489 -9.5063 -2.9798 0.9593
3.7393 -9.0992 -2.9452 0.9598
6.6590 -7.1996 -2.9360 0.9599
7.8384 -5.9112 -2.9392 0.9598
8.3384 -5.1932 -2.9409 0.9598
8.7730 -4.4332 -2.9428 0.9598
9.1388 -3.6372 -2.9447 0.9598
9.6523 -1.9619 -2.9488 0.9597
9.7956 -1.0958 -2.9509 0.9597
9.8614 -0.2198 -2.9530 0.9597
9.8489 0.6593 -2.9552 0.9596
9.7582 1.5344 -2.9573 0.9596
9.5897 2.3986 -2.9594 0.9596
8.6327 4.8567 -2.9654 0.9595
8.1712 5.6092 -2.9672 0.9595
6.4261 7.6008 -2.9798 0.9593
5.7241 8.1426 -2.9798 0.9593
4.9766 8.6198 -2.9798 0.9593
2.5225 9.6283 -2.9798 0.9593
-0.1054 9.4581 -2.8317 0.9613
-1.7811 9.2920 -2.8325 0.9613
-2.6011 9.0967 -2.8325 0.9613
-3.4006 8.8294 -2.8326 0.9613
-4.9104 8.0837 -2.8316 0.9613
-7.8113 6.1685 -2.9798 0.9593
-8.3293 5.4488 -2.9798 0.9593
-8.7812 4.6858 -2.9798 0.9593
-9.1635 3.8857 -2.9798 0.9593
-9.4730 3.0546 -2.9798 0.9593
-9.9434 0.4434 -2.9798 0.9593
-9.8644 -1.3266 -2.9798 0.9593
-9.4729 -3.0546 -2.9798 0.9593
-9.1635 -3.8856 -2.9798 0.9593
-8.3293 -5.4488 -2.9798 0.9593
-5.1675 -8.5067 -2.9798 0.9593
-4.3898 -8.9329 -2.9798 0.9593
-3.5773 -9.2882 -2.9798 0.9593
0.7754 -9.9230 -2.9798 0.9593
1.6555 -9.8146 -2.9798 0.9593
5.6361 -8.0175 -2.9340 0.9599
6.3301 -7.4873 -2.9353 0.9599
6.9748 -6.8976 -2.9368 0.9599
9.2949 -3.2275 -2.9457 0.9597
9.8382 -0.6586 -2.9520 0.9597
9.8649 0.2199 -2.9541 0.9596
9.8133 1.0978 -2.9562 0.9596
9.4766 2.8244 -2.9604 0.9596
9.1940 3.6591 -2.9625 0.9595
8.8376 4.4658 -2.9644 0.9595
6.7583 7.3070 -2.9798 0.9593
5.3557 8.3895 -2.9798 0.9593
2.9489 9.5064 -2.9798 0.9593
2.0911 9.7311 -2.9798 0.9593
1.1550 9.3775 -2.8287 0.9613
-0.5268 9.4470 -2.8326 0.9613
-1.3654 9.3622 -2.8325 0.9613
-3.0038 8.9719 -2.8326 0.9613
-5.2645 7.8551 -2.8310 0.9613
-5.9398 7.3518 -2.8296 0.9613
-6.5670 6.7903 -2.8280 0.9613
-8.0783 5.8145 -2.9798 0.9593
-8.9813 4.2900 -2.9798 0.9593
-9.3275 3.4736 -2.9798 0.9593
-9.5996 2.6296 -2.9798 0.9593
-9.9138 0.8859 -2.9798 0.9593
-9.3455 -0.8351 -2.9798 0.9614
-9.2341 -1.6636 -2.9798 0.9614
-9.0494 -2.4789 -2.9798 0.9614
-8.7928 -3.2745 -2.9798 0.9614
-8.0729 -4.7816 -2.9798 0.9614
-7.6153 -5.4811 -2.9798 0.9614
-7.0972 -6.1372 -2.9798 0.9614
-6.5228 -6.7445 -2.9798 0.9614
-5.8966 -7.2983 -2.9798 0.9614
-2.1751 -9.1271 -2.9798 0.9614
-0.5224 -9.3682 -2.9798 0.9614
1.1469 -9.3123 -2.9798 0.9614
1.9712 -9.1733 -2.9798 0.9614
6.2794 -6.7892 -2.9370 0.9619
6.8621 -6.2064 -2.9384 0.9619
7.3911 -5.5739 -2.9400 0.9619
8.6164 -3.4293 -2.9452 0.9618
8.8932 -2.6504 -2.9471 0.9618
9.0998 -1.8496 -2.9491 0.9618
9.2346 -1.0330 -2.9511 0.9618
9.2962 -0.2071 -2.9531 0.9617
9.2841 0.6215 -2.9551 0.9617
9.1982 1.4464 -2.9571 0.9617
9.0389 2.2608 -2.9591 0.9617
8.8076 3.0584 -2.9610 0.9616
8.5059 3.8326 -2.9629 0.9616
8.1359 4.5772 -2.9647 0.9616
7.7007 5.2863 -2.9664 0.9616
7.2321 5.9776 -2.9798 0.9614
6.0577 7.1651 -2.9798 0.9614
3.1763 8.8287 -2.9798 0.9614
-0.0993 8.9131 -2.8308 0.9633
-0.8927 8.8733 -2.8322 0.9633
-3.2053 8.3225 -2.8323 0.9633
-3.9321 8.0016 -2.8314 0.9633
-5.2842 7.1718 -2.8291 0.9633
-7.8519 5.1365 -2.9798 0.9614
-8.2779 4.4172 -2.9798 0.9614
-8.6382 3.6629 -2.9798 0.9614
-8.9300 2.8795 -2.9798 0.9614
-9.2990 -1.2506 -2.9798 0.9614
-8.9300 -2.8795 -2.9798 0.9614
-7.8519 -5.1365 -2.9798 0.9614
-6.8168 -6.4472 -2.9798 0.9614
-6.2159 -7.0284 -2.9798 0.9614
-4.1382 -8.4208 -2.9798 0.9614
-2.5796 -9.0211 -2.9798 0.9614
-1.7664 -9.2149 -2.9798 0.9614
-0.1045 -9.3821 -2.9798 0.9614
1.5606 -9.2520 -2.9798 0.9614
3.1763 -8.8287 -2.9798 0.9614
3.9052 -8.4155 -2.9464 0.9618
5.3150 -7.5608 -2.9351 0.9620
5.9694 -7.0606 -2.9364 0.9619
9.2746 -0.6208 -2.9521 0.9617
9.2994 0.2072 -2.9541 0.9617
9.2503 1.0348 -2.9561 0.9617
8.9322 2.6621 -2.9600 0.9616
7.4610 5.6268 -2.9677 0.9615
5.7325 7.4279 -2.9798 0.9614
4.3247 8.3266 -2.9798 0.9614
3.5664 8.6785 -2.9798 0.9614
1.9712 9.1733 -2.9798 0.9614
1.0885 8.8384 -2.8282 0.9633
0.2978 8.9061 -2.8300 0.9633
-2.0677 8.6765 -2.8327 0.9633
-3.5724 8.1702 -2.8319 0.9633
-4.2839 7.8171 -2.8309 0.9633
-4.9606 7.4017 -2.8298 0.9633
-6.1892 6.3996 -2.8274 0.9633
-7.0972 6.1372 -2.9798 0.9614
-7.6154 5.4812 -2.9798 0.9614
-8.4665 4.0441 -2.9798 0.9614
-9.3455 0.8351 -2.9798 0.9614
-8.8690 0.0000 -2.9798 0.9633
-8.0029 -3.8226 -2.9798 0.9633
-7.6308 -4.5197 -2.9798 0.9633
-6.7086 -5.8011 -2.9798 0.9633
-5.5737 -6.8987 -2.9798 0.9633
-4.9376 -7.3674 -2.9798 0.9633
-4.2623 -7.7776 -2.9798 0.9633
-2.8157 -8.4101 -2.9798 0.9633
-2.0560 -8.6273 -2.9798 0.9633
-1.2800 -8.7761 -2.9798 0.9633
0.2963 -8.8640 -2.9798 0.9633
1.0841 -8.8024 -2.9798 0.9633
1.8633 -8.6710 -2.9798 0.9633
2.6276 -8.4707 -2.9798 0.9633
4.0445 -7.7870 -2.9482 0.9637
4.7038 -7.3684 -2.9371 0.9638
5.3402 -6.9195 -2.9367 0.9638
7.4334 -4.6296 -2.9423 0.9637
7.8204 -3.9518 -2.9439 0.9637
8.1459 -3.2420 -2.9457 0.9637
8.6022 -1.7485 -2.9493 0.9636
8.7293 -0.9765 -2.9512 0.9636
8.7754 0.5875 -2.9550 0.9636
8.6939 1.3671 -2.9569 0.9635
8.5431 2.1368 -2.9588 0.9635
7.6888 4.3257 -2.9641 0.9635
6.3061 6.2363 -2.9798 0.9633
5.1005 7.2556 -2.9798 0.9633
4.4344 7.6807 -2.9798 0.9633
2.2477 8.5794 -2.9798 0.9633
-0.0938 8.4223 -2.8299 0.9651
-0.8435 8.3842 -2.8311 0.9651
-2.3172 8.1036 -2.8318 0.9651
-3.0285 7.8634 -2.8311 0.9651
-5.6234 6.3585 -2.8520 0.9648
-6.4435 6.0942 -2.9798 0.9633
-8.4410 2.7219 -2.9798 0.9633
-8.6497 1.9598 -2.9798 0.9633
-8.7898 1.1821 -2.9798 0.9633
-8.7898 -1.1821 -2.9798 0.9633
-8.6497 -1.9597 -2.9798 0.9633
-7.8246 -4.1753 -2.9798 0.9633
-6.9604 -5.4965 -2.9798 0.9633
-5.8755 -6.6435 -2.9798 0.9633
-4.6045 -7.5800 -2.9798 0.9633
-3.9116 -7.9598 -2.9798 0.9633
-2.4383 -8.5272 -2.9798 0.9633
-1.6696 -8.7103 -2.9798 0.9633
-0.8878 -8.8244 -2.9798 0.9633
-0.0988 -8.8684 -2.9798 0.9633
0.6909 -8.8420 -2.9798 0.9633
1.4751 -8.7454 -2.9798 0.9633
3.7188 -8.0138 -2.9683 0.9634
5.6443 -6.6761 -2.9373 0.9638
6.2188 -6.1500 -2.9386 0.9638
7.6344 -4.2950 -2.9431 0.9637
8.2847 -2.8767 -2.9466 0.9637
8.6744 -1.3640 -2.9502 0.9636
8.7669 -0.5869 -2.9521 0.9636
8.7901 0.1959 -2.9540 0.9636
8.7434 0.9781 -2.9559 0.9636
8.4421 2.5160 -2.9597 0.9635
8.1896 3.2594 -2.9615 0.9635
7.8717 3.9778 -2.9632 0.9635
7.4906 4.6652 -2.9649 0.9634
5.4186 7.0211 -2.9798 0.9633
4.0879 7.8707 -2.9798 0.9633
3.3711 8.2033 -2.9798 0.9633
2.6276 8.4708 -2.9798 0.9633
1.8633 8.6710 -2.9798 0.9633
1.0287 8.3527 -2.8276 0.9651
-0.4691 8.4117 -2.8306 0.9651
-2.6756 7.9915 -2.8315 0.9651
-4.6872 6.9938 -2.8287 0.9651
-5.2888 6.5460 -2.8275 0.9651
-6.1401 6.3488 -2.9675 0.9634
-8.3113 3.0952 -2.9798 0.9633
-8.5538 2.3432 -2.9798 0.9633
-8.7284 1.5725 -2.9798 0.9633
-8.8338 0.7894 -2.9798 0.9633
-8.4036 0.0000 -2.9798 0.9650
-8.2705 -1.4900 -2.9798 0.9650
-6.3566 -5.4967 -2.9798 0.9650
-5.2813 -6.5367 -2.9798 0.9650
-4.0386 -7.3695 -2.9798 0.9650
-3.3667 -7.6998 -2.9798 0.9650
-2.6680 -7.9688 -2.9798 0.9650
-1.2128 -8.3156 -2.9798 0.9650
-0.4679 -8.3906 -2.9798 0.9650
0.2808 -8.3989 -2.9798 0.9650
1.0272 -8.3406 -2.9798 0.9650
3.1943 -7.7728 -2.9798 0.9650
3.8599 -7.4316 -2.9694 0.9651
5.0616 -6.5584 -2.9376 0.9655
5.6274 -6.0843 -2.9387 0.9654
6.1493 -5.5617 -2.9400 0.9654
6.6230 -4.9946 -2.9414 0.9654
7.0448 -4.3876 -2.9429 0.9654
7.7196 -3.0723 -2.9461 0.9654
8.1515 -1.6569 -2.9495 0.9653
8.2716 -0.9253 -2.9513 0.9653
8.3148 0.5566 -2.9549 0.9653
8.0941 2.0245 -2.9585 0.9652
7.2841 4.0980 -2.9635 0.9652
6.9283 4.7560 -2.9798 0.9650
6.4775 5.3538 -2.9798 0.9650
5.4256 6.4174 -2.9798 0.9650
4.2018 7.2778 -2.9798 0.9650
3.5373 7.6229 -2.9798 0.9650
2.1298 8.1293 -2.9798 0.9650
1.3978 8.2866 -2.9798 0.9650
-1.5029 7.8403 -2.8307 0.9667
-2.1947 7.6753 -2.8306 0.9667
-6.1054 5.7745 -2.9798 0.9650
-6.5952 5.2081 -2.9798 0.9650
-7.0325 4.6005 -2.9798 0.9650
-8.3287 1.1201 -2.9798 0.9650
-8.3953 0.3744 -2.9798 0.9650
-8.3953 -0.3743 -2.9798 0.9650
-8.3287 -1.1201 -2.9798 0.9650
-7.9981 -2.5790 -2.9798 0.9650
-7.7368 -3.2807 -2.9798 0.9650
-6.5952 -5.2081 -2.9798 0.9650
-6.1054 -5.7745 -2.9798 0.9650
-5.5672 -6.2950 -2.9798 0.9650
-4.9849 -6.7655 -2.9798 0.9650
-4.3629 -7.1823 -2.9798 0.9650
-3.7063 -7.5421 -2.9798 0.9650
-0.8412 -8.3614 -2.9798 0.9650
2.1298 -8.1292 -2.9798 0.9650
2.8449 -7.9074 -2.9798 0.9650
3.5373 -7.6228 -2.9798 0.9650
4.1605 -7.2061 -2.9505 0.9653
5.3497 -6.3277 -2.9381 0.9654
6.3924 -5.2835 -2.9407 0.9654
7.2352 -4.0704 -2.9436 0.9654
8.2843 0.9267 -2.9558 0.9652
7.9983 2.3837 -2.9594 0.9652
7.4574 3.7684 -2.9627 0.9652
6.2325 5.6370 -2.9798 0.9650
5.1343 6.6528 -2.9798 0.9650
0.9788 7.9471 -2.8392 0.9666
-1.8507 7.7657 -2.8307 0.9667
-2.5342 7.5692 -2.8304 0.9667
-3.8339 6.9960 -2.8288 0.9667
-5.1224 6.3401 -2.8902 0.9660
-5.8422 6.0407 -2.9798 0.9650
-8.1050 2.2202 -2.9798 0.9650
-8.3703 0.7480 -2.9798 0.9650
-7.9483 -0.7102 -2.9798 0.9665
-7.8535 -1.4149 -2.9798 0.9665
-7.6964 -2.1083 -2.9798 0.9665
-7.4782 -2.7849 -2.9798 0.9665
-6.8660 -4.0667 -2.9798 0.9665
-6.0362 -5.2196 -2.9798 0.9665
-4.4427 -6.6289 -2.9798 0.9665
-3.8350 -6.9980 -2.9798 0.9665
-2.5335 -7.5671 -2.9798 0.9665
-1.1517 -7.8964 -2.9798 0.9665
-0.4443 -7.9676 -2.9798 0.9665
2.3643 -7.6217 -2.9798 0.9665
3.0332 -7.3810 -2.9798 0.9665
3.6781 -7.0817 -2.9798 0.9665
5.8406 -5.2825 -2.9407 0.9669
6.6909 -4.1671 -2.9434 0.9669
7.7411 -1.5734 -2.9497 0.9668
7.8954 0.5286 -2.9548 0.9668
7.4880 2.6001 -2.9599 0.9667
6.9240 3.8955 -2.9666 0.9666
6.5790 4.5163 -2.9798 0.9665
5.1521 6.0939 -2.9798 0.9665
4.5892 6.5283 -2.9798 0.9665
3.3590 7.2386 -2.9798 0.9665
2.0224 7.7194 -2.9798 0.9665
0.5911 7.5649 -2.8334 0.9681
-0.7584 7.5384 -2.8291 0.9682
-2.7229 7.0700 -2.8290 0.9682
-3.3405 6.7977 -2.8283 0.9682
-3.9311 6.4714 -2.8274 0.9682
-4.6579 6.3218 -2.9322 0.9670
-5.2866 5.9776 -2.9798 0.9665
-7.0403 3.7569 -2.9798 0.9665
-7.9088 -1.0636 -2.9798 0.9665
-7.3468 -3.1153 -2.9798 0.9665
-5.2866 -5.9776 -2.9798 0.9665
-4.1430 -6.8202 -2.9798 0.9665
-3.5195 -7.1619 -2.9798 0.9665
-1.5023 -7.8373 -2.9798 0.9665
1.3273 -7.8688 -2.9798 0.9665
2.0224 -7.7194 -2.9798 0.9665
4.5366 -6.4534 -2.9456 0.9669
5.0813 -6.0102 -2.9389 0.9670
6.0715 -5.0182 -2.9413 0.9669
6.8716 -3.8659 -2.9441 0.9669
7.1921 -3.2406 -2.9457 0.9669
7.4560 -2.5890 -2.9472 0.9669
7.8057 -1.2274 -2.9506 0.9668
7.8663 0.8800 -2.9557 0.9668
7.3667 2.9319 -2.9607 0.9667
6.7736 4.2187 -2.9798 0.9665
5.9183 5.3529 -2.9798 0.9665
5.4184 5.8584 -2.9798 0.9665
4.8755 6.3174 -2.9798 0.9665
3.6781 7.0817 -2.9798 0.9665
1.6765 7.8019 -2.9798 0.9665
-1.0936 7.4979 -2.8294 0.9682
-1.7567 7.3714 -2.8296 0.9682
-3.0348 6.9408 -2.8287 0.9682
-3.6394 6.6411 -2.8278 0.9682
-5.0151 6.2072 -2.9798 0.9665
-5.5476 5.7362 -2.9798 0.9665
-6.4768 4.6617 -2.9798 0.9665
-7.6964 2.1083 -2.9798 0.9665
-7.9483 0.7103 -2.9798 0.9665
-7.5924 0.0000 -2.9798 0.9679
-7.5623 -0.6757 -2.9798 0.9679
-7.3227 -2.0059 -2.9798 0.9679
-6.8510 -3.2724 -2.9798 0.9679
-6.5325 -3.8692 -2.9798 0.9679
-6.1622 -4.4353 -2.9798 0.9679
-4.7715 -5.9057 -2.9798 0.9679
-4.2269 -6.3070 -2.9798 0.9679
-3.0417 -6.9565 -2.9798 0.9679
0.2537 -7.5882 -2.9798 0.9679
0.9281 -7.5355 -2.9798 0.9679
1.5951 -7.4229 -2.9798 0.9679
2.2494 -7.2515 -2.9798 0.9679
2.8859 -7.0225 -2.9798 0.9679
3.4995 -6.7378 -2.9798 0.9679
5.0894 -5.5026 -2.9417 0.9683
5.5581 -5.0271 -2.9413 0.9683
6.3670 -3.9654 -2.9439 0.9683
7.3656 -1.4971 -2.9499 0.9682
7.4737 -0.8360 -2.9515 0.9682
7.5226 -0.1676 -2.9531 0.9682
7.5118 0.5029 -2.9548 0.9682
7.4413 1.1701 -2.9564 0.9681
6.6171 3.7227 -2.9798 0.9679
5.8522 4.8370 -2.9798 0.9679
5.3985 5.3387 -2.9798 0.9679
3.7962 6.5752 -2.9798 0.9679
2.5702 7.1441 -2.9798 0.9679
1.9242 7.3446 -2.9798 0.9679
0.5875 7.5182 -2.9597 0.9681
-0.0803 7.2037 -2.8274 0.9695
-0.7213 7.1700 -2.8282 0.9695
-1.3568 7.0784 -2.8286 0.9695
-3.1773 6.4656 -2.8274 0.9695
-3.8327 6.3096 -2.8974 0.9688
-5.5161 5.2171 -2.9798 0.9679
-6.3537 4.1564 -2.9798 0.9679
-6.9900 2.9640 -2.9798 0.9679
-7.2260 2.3301 -2.9798 0.9679
-7.4047 1.6777 -2.9798 0.9679
-7.2260 -2.3301 -2.9798 0.9679
-6.9900 -2.9640 -2.9798 0.9679
-5.9586 -4.7054 -2.9798 0.9679
-5.0299 -5.6873 -2.9798 0.9679
-4.5037 -6.1124 -2.9798 0.9679
-3.9418 -6.4890 -2.9798 0.9679
-2.0874 -7.2999 -2.9798 0.9679
-0.7600 -7.5543 -2.9798 0.9679
1.2628 -7.4866 -2.9798 0.9679
1.9242 -7.3445 -2.9798 0.9679
3.1959 -6.8870 -2.9798 0.9679
3.7962 -6.5752 -2.9798 0.9679
4.3338 -6.1649 -2.9576 0.9681
4.8444 -5.7300 -2.9449 0.9683
5.3276 -5.2686 -2.9407 0.9683
5.7778 -4.7755 -2.9419 0.9683
6.5389 -3.6787 -2.9446 0.9683
7.2896 -1.8232 -2.9491 0.9682
7.4270 -1.1678 -2.9507 0.9682
7.5056 -0.5024 -2.9523 0.9682
7.0082 2.7892 -2.9603 0.9681
6.4447 4.0138 -2.9798 0.9679
6.0619 4.5715 -2.9798 0.9679
4.6387 6.0106 -2.9798 0.9679
4.0853 6.3996 -2.9798 0.9679
2.2494 7.2515 -2.9798 0.9679
0.9281 7.5355 -2.9798 0.9679
0.2420 7.2390 -2.8427 0.9694
-0.4012 7.1941 -2.8278 0.9695
-1.6708 7.0110 -2.8287 0.9695
-2.2880 6.8338 -2.8284 0.9695
-2.8865 6.6016 -2.8278 0.9695
-5.2782 5.4576 -2.9798 0.9679
-6.1622 4.4353 -2.9798 0.9679
-6.5325 3.8692 -2.9798 0.9679
-6.8510 3.2725 -2.9798 0.9679
-7.1151 2.6497 -2.9798 0.9679
-7.3227 2.0059 -2.9798 0.9679
-6.7814 -2.5254 -2.9798 0.9692
-5.4737 -4.7333 -2.9798 0.9692
-5.0307 -5.2017 -2.9798 0.9692
-4.5477 -5.6288 -2.9798 0.9692
-3.4777 -6.3459 -2.9798 0.9692
-2.2974 -6.8620 -2.9798 0.9692
-1.6775 -7.0392 -2.9798 0.9692
0.2418 -7.2323 -2.9798 0.9692
0.8845 -7.1821 -2.9798 0.9692
1.5203 -7.0749 -2.9798 0.9692
3.3354 -6.4218 -2.9798 0.9692
3.8937 -6.0995 -2.9798 0.9692
4.8600 -5.2546 -2.9474 0.9695
5.2987 -4.7924 -2.9420 0.9696
6.0694 -3.7800 -2.9443 0.9695
6.6496 -2.6465 -2.9471 0.9695
6.8622 -2.0452 -2.9486 0.9695
7.1699 -0.1598 -2.9532 0.9695
7.1594 0.4793 -2.9547 0.9694
7.0921 1.1152 -2.9563 0.9694
6.9682 1.7429 -2.9578 0.9694
6.7896 2.3582 -2.9595 0.9694
6.5805 2.9651 -2.9721 0.9693
5.5778 4.6102 -2.9798 0.9692
5.1453 5.0883 -2.9798 0.9692
4.6720 5.5261 -2.9798 0.9692
4.1616 5.9200 -2.9798 0.9692
3.6182 6.2669 -2.9798 0.9692
0.5637 7.2144 -2.9798 0.9692
-0.0780 6.9974 -2.8816 0.9702
-0.6873 6.8318 -2.8274 0.9707
-1.2928 6.7443 -2.8277 0.9707
-3.0932 6.2946 -2.8880 0.9701
-3.7569 6.1847 -2.9798 0.9692
-4.2925 5.8258 -2.9798 0.9692
-4.7940 5.4206 -2.9798 0.9692
-5.2574 4.9724 -2.9798 0.9692
-5.6791 4.4848 -2.9798 0.9692
-6.0557 3.9615 -2.9798 0.9692
-6.3843 3.4068 -2.9798 0.9692
-6.6622 2.8250 -2.9798 0.9692
-6.8872 2.2208 -2.9798 0.9692
-7.0575 1.5990 -2.9798 0.9692
-7.1718 0.9645 -2.9798 0.9692
-6.6622 -2.8250 -2.9798 0.9692
-6.0557 -3.9615 -2.9798 0.9692
-5.2574 -4.9724 -2.9798 0.9692
-4.7940 -5.4206 -2.9798 0.9692
-3.7569 -6.1847 -2.9798 0.9692
-3.1915 -6.4945 -2.9798 0.9692
-2.6008 -6.7528 -2.9798 0.9692
-1.9895 -6.9575 -2.9798 0.9692
-1.3623 -7.1070 -2.9798 0.9692
-0.7244 -7.2000 -2.9798 0.9692
-0.0806 -7.2359 -2.9798 0.9692
1.2036 -7.1356 -2.9798 0.9692
1.8339 -7.0001 -2.9798 0.9692
2.4497 -6.8091 -2.9798 0.9692
3.0460 -6.5640 -2.9798 0.9692
3.6182 -6.2669 -2.9798 0.9692
4.1559 -5.9118 -2.9757 0.9692
4.6269 -5.4727 -2.9511 0.9695
5.5079 -4.5523 -2.9425 0.9696
6.2331 -3.5067 -2.9450 0.9695
6.7626 -2.3482 -2.9478 0.9695
7.0790 -1.1131 -2.9508 0.9695
7.1538 -0.4789 -2.9524 0.9695
7.1718 0.1598 -2.9539 0.9694
7.0372 1.4304 -2.9570 0.9694
6.6863 2.6608 -2.9634 0.9693
2.1440 6.9115 -2.9798 0.9692
1.5203 7.0749 -2.9798 0.9692
0.8846 7.1821 -2.9798 0.9692
-0.3823 6.8556 -2.8274 0.9707
-0.9910 6.7948 -2.8276 0.9707
-1.5919 6.6801 -2.8277 0.9707
-2.1800 6.5113 -2.8275 0.9707
-2.7564 6.3046 -2.8334 0.9707
-3.4472 6.2904 -2.9537 0.9694
-4.0287 6.0112 -2.9798 0.9692
-5.4737 4.7333 -2.9798 0.9692
-6.2262 3.6878 -2.9798 0.9692
-6.5297 3.1190 -2.9798 0.9692
-6.7814 2.5254 -2.9798 0.9692
-6.7985 -1.2248 -2.9798 0.9704
-6.4737 -2.4108 -2.9798 0.9704
-5.9436 -3.5204 -2.9798 0.9704
-4.8024 -4.9656 -2.9798 0.9704
-2.7675 -6.3294 -2.9798 0.9704
-1.6014 -6.7198 -2.9798 0.9704
-0.9970 -6.8356 -2.9798 0.9704
0.2308 -6.9041 -2.9798 0.9704
0.8444 -6.8561 -2.9798 0.9704
1.4513 -6.7538 -2.9798 0.9704
2.0466 -6.5978 -2.9798 0.9704
2.6258 -6.3894 -2.9798 0.9704
3.1840 -6.1304 -2.9798 0.9704
4.6533 -5.0310 -2.9561 0.9706
5.7947 -3.6090 -2.9448 0.9707
6.3485 -2.5266 -2.9474 0.9707
6.7023 -1.3623 -2.9502 0.9706
6.8004 -0.7607 -2.9517 0.9706
6.8445 -0.1525 -2.9532 0.9706
6.8344 0.4575 -2.9547 0.9706
5.3246 4.4009 -2.9798 0.9704
3.9727 5.6513 -2.9798 0.9704
1.1490 6.8117 -2.9798 0.9704
-0.0770 6.9075 -2.9798 0.9704
-2.4186 6.2798 -2.9028 0.9711
-3.0467 6.1998 -2.9798 0.9704
-3.5864 5.9041 -2.9798 0.9704
-5.0188 4.7468 -2.9798 0.9704
-6.0946 3.2522 -2.9798 0.9704
-6.7372 1.5265 -2.9798 0.9704
-6.7372 -1.5264 -2.9798 0.9704
-6.5746 -2.1200 -2.9798 0.9704
-6.0946 -3.2521 -2.9798 0.9704
-5.7809 -3.7817 -2.9798 0.9704
-5.0188 -4.7467 -2.9798 0.9704
-4.5764 -5.1746 -2.9798 0.9704
-4.0977 -5.5614 -2.9798 0.9704
-3.5864 -5.9040 -2.9798 0.9704
-2.4828 -6.4464 -2.9798 0.9704
-1.8992 -6.6418 -2.9798 0.9704
-0.6915 -6.8733 -2.9798 0.9704
-0.0770 -6.9075 -2.9798 0.9704
1.1490 -6.8117 -2.9798 0.9704
1.7507 -6.6824 -2.9798 0.9704
3.9727 -5.6513 -2.9798 0.9704
4.8622 -4.8084 -2.9497 0.9707
6.2282 -2.8063 -2.9467 0.9707
6.4563 -2.2418 -2.9481 0.9707
6.8292 -0.4571 -2.9524 0.9706
6.8462 0.1526 -2.9539 0.9706
6.8089 0.7617 -2.9554 0.9706
6.7174 1.3654 -2.9569 0.9706
5.5154 4.1594 -2.9798 0.9704
4.2205 5.4688 -2.9798 0.9704
3.1840 6.1304 -2.9798 0.9704
2.0466 6.5978 -2.9798 0.9704
0.2308 6.9041 -2.9798 0.9704
-0.3794 6.8036 -2.9393 0.9708
-1.5245 6.3972 -2.8367 0.9718
-3.3199 6.0580 -2.9798 0.9704
-4.3415 5.3734 -2.9798 0.9704
-4.8024 4.9656 -2.9798 0.9704
-6.4737 2.4108 -2.9798 0.9704
-6.7985 1.2248 -2.9798 0.9704
-6.8806 0.6149 -2.9798 0.9704
-6.6039 0.0000 -2.9798 0.9714
-6.4993 -1.1709 -2.9798 0.9714
-6.3693 -1.7447 -2.9798 0.9714
-5.9590 -2.8464 -2.9798 0.9714
-5.6821 -3.3654 -2.9798 0.9714
-4.9953 -4.3196 -2.9798 0.9714
-4.5910 -4.7471 -2.9798 0.9714
-4.1503 -5.1368 -2.9798 0.9714
-3.1737 -5.7913 -2.9798 0.9714
-1.5309 -6.4240 -2.9798 0.9714
-0.9531 -6.5348 -2.9798 0.9714
-0.3677 -6.5937 -2.9798 0.9714
1.3874 -6.4565 -2.9798 0.9714
2.5102 -6.1082 -2.9798 0.9714
3.0439 -5.8606 -2.9798 0.9714
3.5534 -5.5664 -2.9798 0.9714
4.0348 -5.2280 -2.9798 0.9714
4.4761 -4.8395 -2.9745 0.9715
4.8565 -4.3924 -2.9547 0.9717
5.2185 -3.9354 -2.9492 0.9717
5.5424 -3.4517 -2.9462 0.9718
6.0696 -2.4157 -2.9477 0.9717
6.4077 -1.3024 -2.9504 0.9717
6.5012 -0.7273 -2.9518 0.9717
6.0209 2.7129 -2.9798 0.9714
5.4445 3.7375 -2.9798 0.9714
5.0903 4.2072 -2.9798 0.9714
3.3020 5.7192 -2.9798 0.9714
2.2356 6.2140 -2.9798 0.9714
1.0984 6.5120 -2.9798 0.9714
0.5145 6.5839 -2.9798 0.9714
-2.3735 6.1627 -2.9798 0.9714
-2.9126 5.9270 -2.9798 0.9714
-4.7979 4.5378 -2.9798 0.9714
-5.5265 3.6153 -2.9798 0.9714
-6.0799 2.5781 -2.9798 0.9714
-6.4407 1.4593 -2.9798 0.9714
-6.5450 0.8802 -2.9798 0.9714
-6.5974 0.2942 -2.9798 0.9714
-6.5974 -0.2942 -2.9798 0.9714
-6.4407 -1.4592 -2.9798 0.9714
-6.2853 -2.0267 -2.9798 0.9714
-6.0799 -2.5781 -2.9798 0.9714
-5.8263 -3.1090 -2.9798 0.9714
-5.1828 -4.0928 -2.9798 0.9714
-4.3750 -4.9468 -2.9798 0.9714
-3.9173 -5.3166 -2.9798 0.9714
-3.4286 -5.6442 -2.9798 0.9714
-2.3735 -6.1626 -2.9798 0.9714
-1.8156 -6.3494 -2.9798 0.9714
-0.6611 -6.5707 -2.9798 0.9714
1.0984 -6.5119 -2.9798 0.9714
1.6737 -6.3883 -2.9798 0.9714
2.2356 -6.2140 -2.9798 0.9714
2.7798 -5.9903 -2.9798 0.9714
3.3020 -5.7191 -2.9798 0.9714
3.7979 -5.4026 -2.9798 0.9714
4.6704 -4.6186 -2.9638 0.9716
5.3859 -3.6972 -2.9477 0.9717
5.6898 -3.2010 -2.9457 0.9718
5.9547 -2.6830 -2.9470 0.9717
6.1726 -2.1433 -2.9483 0.9717
6.5287 -0.4370 -2.9525 0.9717
6.5449 0.1459 -2.9539 0.9717
6.4281 1.3066 -2.9598 0.9716
6.1358 2.4420 -2.9798 0.9714
5.8941 2.9785 -2.9798 0.9714
5.6056 3.4912 -2.9798 0.9714
5.2726 3.9763 -2.9798 0.9714
4.8978 4.4298 -2.9798 0.9714
4.4841 4.8482 -2.9798 0.9714
3.5534 5.5664 -2.9798 0.9714
2.5102 6.1083 -2.9798 0.9714
1.3874 6.4566 -2.9798 0.9714
0.8072 6.5544 -2.9798 0.9714
0.2207 6.6003 -2.9798 0.9714
-0.3677 6.5937 -2.9798 0.9714
-1.5183 6.3712 -2.9553 0.9717
-2.0966 6.2623 -2.9798 0.9714
-3.6766 5.4859 -2.9798 0.9714
-4.1503 5.1369 -2.9798 0.9714
-5.6820 3.3655 -2.9798 0.9714
-5.9590 2.8464 -2.9798 0.9714
-6.4993 1.1709 -2.9798 0.9714
-6.3215 0.0000 -2.9798 0.9724
-6.2214 -1.1208 -2.9798 0.9724
-5.9241 -2.2061 -2.9798 0.9724
-5.1307 -3.6929 -2.9798 0.9724
-4.7817 -4.1348 -2.9798 0.9724
-4.3947 -4.5440 -2.9798 0.9724
-3.5193 -5.2512 -2.9798 0.9724
-1.4655 -6.1493 -2.9798 0.9724
-0.9123 -6.2553 -2.9798 0.9724
-0.3519 -6.3117 -2.9798 0.9724
1.8729 -6.0377 -2.9798 0.9724
2.4028 -5.8470 -2.9798 0.9724
2.9137 -5.6099 -2.9798 0.9724
3.4015 -5.3283 -2.9798 0.9724
3.8622 -5.0044 -2.9798 0.9724
4.2923 -4.6408 -2.9798 0.9724
6.1339 -1.2468 -2.9505 0.9727
6.2233 -0.6962 -2.9518 0.9727
6.2641 -0.1396 -2.9535 0.9727
6.2062 0.9759 -2.9614 0.9726
5.7634 2.5969 -2.9798 0.9724
5.2117 3.5776 -2.9798 0.9724
4.4948 4.4450 -2.9798 0.9724
4.0813 4.8274 -2.9798 0.9724
3.1607 5.4746 -2.9798 0.9724
2.6609 5.7342 -2.9798 0.9724
2.1400 5.9483 -2.9798 0.9724
1.6021 6.1151 -2.9798 0.9724
-0.0704 6.3211 -2.9798 0.9724
-1.1901 6.2085 -2.9798 0.9724
-1.7379 6.0779 -2.9798 0.9724
-2.7880 5.6735 -2.9798 0.9724
-3.2819 5.4028 -2.9798 0.9724
-5.2901 3.4607 -2.9798 0.9724
-5.5771 2.9761 -2.9798 0.9724
-5.8199 2.4679 -2.9798 0.9724
-6.0164 1.9401 -2.9798 0.9724
-6.2651 0.8426 -2.9798 0.9724
-6.3152 0.2816 -2.9798 0.9724
-6.1652 -1.3968 -2.9798 0.9724
-6.0165 -1.9400 -2.9798 0.9724
-5.8199 -2.4678 -2.9798 0.9724
-5.5771 -2.9760 -2.9798 0.9724
-5.2901 -3.4606 -2.9798 0.9724
-4.9611 -3.9177 -2.9798 0.9724
-4.5927 -4.3438 -2.9798 0.9724
-4.1879 -4.7353 -2.9798 0.9724
-3.7498 -5.0892 -2.9798 0.9724
-2.7880 -5.6735 -2.9798 0.9724
-2.2720 -5.8991 -2.9798 0.9724
-1.1901 -6.2084 -2.9798 0.9724
-0.0704 -6.3211 -2.9798 0.9724
0.4925 -6.3023 -2.9798 0.9724
1.0514 -6.2334 -2.9798 0.9724
1.6021 -6.1151 -2.9798 0.9724
2.6609 -5.7342 -2.9798 0.9724
3.1607 -5.4746 -2.9798 0.9724
4.4922 -4.4424 -2.9781 0.9724
5.9091 -2.0518 -2.9485 0.9727
6.0709 -1.5184 -2.9498 0.9727
6.1847 -0.9725 -2.9512 0.9727
6.2496 -0.4183 -2.9525 0.9727
6.2391 0.6978 -2.9593 0.9726
6.0581 1.8055 -2.9798 0.9724
5.6420 2.8511 -2.9798 0.9724
5.0471 3.8062 -2.9798 0.9724
4.2923 4.6408 -2.9798 0.9724
2.9137 5.6100 -2.9798 0.9724
0.7727 6.2741 -2.9798 0.9724
-0.9123 6.2553 -2.9798 0.9724
-1.4655 6.1493 -2.9798 0.9724
-2.0070 5.9945 -2.9798 0.9724
-3.0380 5.5437 -2.9798 0.9724
-3.5194 5.2512 -2.9798 0.9724
-5.1307 3.6929 -2.9798 0.9724
-6.0583 0.0000 -2.9798 0.9734
-6.0343 -0.5392 -2.9798 0.9734
-5.9623 -1.0741 -2.9798 0.9734
-5.8431 -1.6006 -2.9798 0.9734
-5.4667 -2.6112 -2.9798 0.9734
-4.5826 -3.9627 -2.9798 0.9734
-3.8074 -4.7124 -2.9798 0.9734
-2.9115 -5.3128 -2.9798 0.9734
-2.4271 -5.5509 -2.9798 0.9734
-1.9234 -5.7449 -2.9798 0.9734
-1.4044 -5.8933 -2.9798 0.9734
-0.8743 -5.9949 -2.9798 0.9734
0.7405 -6.0129 -2.9798 0.9734
2.3028 -5.6036 -2.9798 0.9734
2.7924 -5.3764 -2.9798 0.9734
3.2599 -5.1065 -2.9798 0.9734
3.7014 -4.7961 -2.9798 0.9734
4.1136 -4.4476 -2.9798 0.9734
4.4931 -4.0638 -2.9798 0.9734
4.8254 -3.6390 -2.9727 0.9734
5.7542 -1.7154 -2.9533 0.9736
5.9722 -0.6681 -2.9558 0.9736
6.0128 -0.1340 -2.9582 0.9735
6.0115 0.4024 -2.9634 0.9735
5.9787 0.9402 -2.9768 0.9734
5.5235 2.4888 -2.9798 0.9734
5.2801 2.9705 -2.9798 0.9734
4.9947 3.4287 -2.9798 0.9734
4.6697 3.8596 -2.9798 0.9734
4.3077 4.2600 -2.9798 0.9734
3.9114 4.6265 -2.9798 0.9734
3.0291 5.2467 -2.9798 0.9734
2.5501 5.4954 -2.9798 0.9734
1.5354 5.8605 -2.9798 0.9734
0.4720 6.0399 -2.9798 0.9734
-0.6064 6.0279 -2.9798 0.9734
-1.1405 5.9500 -2.9798 0.9734
-2.1774 5.6535 -2.9798 0.9734
-2.6720 5.4373 -2.9798 0.9734
-3.1453 5.1779 -2.9798 0.9734
-4.0135 4.5382 -2.9798 0.9734
-5.3450 2.8522 -2.9798 0.9734
-5.9086 1.3387 -2.9798 0.9734
-5.7660 -1.8593 -2.9798 0.9734
-5.5776 -2.3651 -2.9798 0.9734
-5.3450 -2.8521 -2.9798 0.9734
-5.0699 -3.3165 -2.9798 0.9734
-4.7546 -3.7546 -2.9798 0.9734
-4.4015 -4.1629 -2.9798 0.9734
-4.0135 -4.5381 -2.9798 0.9734
-3.5936 -4.8774 -2.9798 0.9734
-2.6720 -5.4372 -2.9798 0.9734
-2.1774 -5.6535 -2.9798 0.9734
0.4720 -6.0399 -2.9798 0.9734
1.0077 -5.9739 -2.9798 0.9734
1.5354 -5.8605 -2.9798 0.9734
2.0509 -5.7006 -2.9798 0.9734
3.0292 -5.2466 -2.9798 0.9734
3.9114 -4.6264 -2.9798 0.9734
4.3077 -4.2599 -2.9798 0.9734
5.4746 -2.4667 -2.9534 0.9736
5.6719 -1.9695 -2.9532 0.9736
5.8256 -1.4571 -2.9536 0.9736
5.9346 -0.9333 -2.9549 0.9736
6.0005 0.6713 -2.9698 0.9734
5.8059 1.7304 -2.9798 0.9734
5.4071 2.7324 -2.9798 0.9734
5.1425 3.2028 -2.9798 0.9734
4.8370 3.6478 -2.9798 0.9734
4.1136 4.4476 -2.9798 0.9734
2.7924 5.3764 -2.9798 0.9734
2.3028 5.6036 -2.9798 0.9734
1.2728 5.9231 -2.9798 0.9734
0.7405 6.0129 -2.9798 0.9734
0.2024 6.0549 -2.9798 0.9734
-0.3373 6.0489 -2.9798 0.9734
-0.8743 5.9949 -2.9798 0.9734
-1.4045 5.8933 -2.9798 0.9734
-2.4271 5.5509 -2.9798 0.9734
-3.8074 4.7125 -2.9798 0.9734
-4.9171 3.5391 -2.9798 0.9734
-5.4667 2.6112 -2.9798 0.9734
-5.6775 2.1143 -2.9798 0.9734
-5.8431 1.6006 -2.9798 0.9734
-6.0343 0.5392 -2.9798 0.9734
-5.2447 -2.5052 -2.9798 0.9742
-5.0009 -2.9620 -2.9798 0.9742
-4.7175 -3.3954 -2.9798 0.9742
-4.3965 -3.8018 -2.9798 0.9742
-4.0407 -4.1780 -2.9798 0.9742
-3.6528 -4.5211 -2.9798 0.9742
-2.3286 -5.3255 -2.9798 0.9742
-1.3474 -5.6540 -2.9798 0.9742
-0.3236 -5.8033 -2.9798 0.9742
0.1942 -5.8091 -2.9798 0.9742
0.7105 -5.7687 -2.9798 0.9742
1.2211 -5.6826 -2.9798 0.9742
2.2093 -5.3761 -2.9798 0.9742
3.5511 -4.6013 -2.9798 0.9742
4.3107 -3.8988 -2.9798 0.9742
4.6406 -3.4997 -2.9798 0.9742
4.9267 -3.0683 -2.9756 0.9742
5.1652 -2.6101 -2.9669 0.9743
5.3656 -2.1354 -2.9606 0.9744
5.6571 -1.1498 -2.9595 0.9744
5.7426 -0.6424 -2.9624 0.9744
5.6386 1.4104 -2.9798 0.9742
3.7526 4.4386 -2.9798 0.9742
2.4466 5.2723 -2.9798 0.9742
1.9676 5.4692 -2.9798 0.9742
1.4730 5.6226 -2.9798 0.9742
0.9667 5.7314 -2.9798 0.9742
0.4528 5.7947 -2.9798 0.9742
-0.5818 5.7832 -2.9798 0.9742
-1.5980 5.5884 -2.9798 0.9742
-2.5635 5.2165 -2.9798 0.9742
-3.0176 4.9676 -2.9798 0.9742
-4.2228 3.9939 -2.9798 0.9742
-4.5615 3.6022 -2.9798 0.9742
-4.8640 3.1819 -2.9798 0.9742
-5.1279 2.7364 -2.9798 0.9742
-5.3512 2.2691 -2.9798 0.9742
-5.5318 1.7838 -2.9798 0.9742
-5.7605 0.7747 -2.9798 0.9742
-5.8066 0.2589 -2.9798 0.9742
-5.6687 -1.2843 -2.9798 0.9742
-5.5318 -1.7838 -2.9798 0.9742
-5.3511 -2.2691 -2.9798 0.9742
-5.1279 -2.7363 -2.9798 0.9742
-4.8640 -3.1819 -2.9798 0.9742
-4.5615 -3.6022 -2.9798 0.9742
-4.2228 -3.9939 -2.9798 0.9742
-3.8506 -4.3539 -2.9798 0.9742
-2.5635 -5.2165 -2.9798 0.9742
-1.0942 -5.7084 -2.9798 0.9742
0.9667 -5.7313 -2.9798 0.9742
1.4730 -5.6225 -2.9798 0.9742
1.9676 -5.4691 -2.9798 0.9742
4.1328 -4.0870 -2.9798 0.9742
4.7900 -3.2882 -2.9786 0.9742
5.0514 -2.8419 -2.9714 0.9743
5.2699 -2.3745 -2.9633 0.9744
5.5992 -1.4004 -2.9590 0.9744
5.7714 -0.3863 -2.9654 0.9743
5.6958 1.1577 -2.9798 0.9742
5.5702 1.6601 -2.9798 0.9742
4.9337 3.0728 -2.9798 0.9742
4.3107 3.8988 -2.9798 0.9742
3.9466 4.2670 -2.9798 0.9742
3.5511 4.6014 -2.9798 0.9742
2.6790 5.1581 -2.9798 0.9742
1.7220 5.5514 -2.9798 0.9742
0.1942 5.8091 -2.9798 0.9742
-0.8388 5.7515 -2.9798 0.9742
-1.3474 5.6540 -2.9798 0.9742
-1.8453 5.5116 -2.9798 0.9742
-3.2359 4.8283 -2.9798 0.9742
-3.6528 4.5211 -2.9798 0.9742
-4.3965 3.8018 -2.9798 0.9742
-4.7175 3.3954 -2.9798 0.9742
-5.2447 2.5052 -2.9798 0.9742
-5.4469 2.0285 -2.9798 0.9742
-5.5818 0.0000 -2.9798 0.9750
-5.5596 -0.4968 -2.9798 0.9750
-5.4934 -0.9897 -2.9798 0.9750
-5.0367 -2.4058 -2.9798 0.9750
-3.8804 -4.0123 -2.9798 0.9750
-3.5079 -4.3418 -2.9798 0.9750
-2.2362 -5.1143 -2.9798 0.9750
-0.8056 -5.5233 -2.9798 0.9750
-0.3108 -5.5731 -2.9798 0.9750
0.1865 -5.5787 -2.9798 0.9750
0.6823 -5.5399 -2.9798 0.9750
1.1727 -5.4572 -2.9798 0.9750
1.6537 -5.3312 -2.9798 0.9750
3.0035 -4.7048 -2.9798 0.9750
3.4103 -4.4188 -2.9798 0.9750
3.7901 -4.0978 -2.9798 0.9750
4.1397 -3.7442 -2.9798 0.9750
4.4566 -3.3609 -2.9798 0.9750
4.7380 -2.9508 -2.9798 0.9750
5.1801 -2.0616 -2.9763 0.9750
5.3406 -1.5917 -2.9750 0.9750
5.4617 -1.1102 -2.9753 0.9750
5.5804 -0.1243 -2.9798 0.9750
5.4150 1.3544 -2.9798 0.9750
5.2729 1.8310 -2.9798 0.9750
5.0890 2.2930 -2.9798 0.9750
4.8648 2.7369 -2.9798 0.9750
3.9688 3.9249 -2.9798 0.9750
2.7909 4.8340 -2.9798 0.9750
2.3496 5.0632 -2.9798 0.9750
1.8896 5.2522 -2.9798 0.9750
1.4146 5.3996 -2.9798 0.9750
-1.5346 5.3667 -2.9798 0.9750
-2.0062 5.2088 -2.9798 0.9750
-2.4618 5.0096 -2.9798 0.9750
-3.6978 4.1812 -2.9798 0.9750
-4.0553 3.8355 -2.9798 0.9750
-4.6711 3.0557 -2.9798 0.9750
-5.5763 0.2487 -2.9798 0.9750
-5.5763 -0.2486 -2.9798 0.9750
-5.4438 -1.2334 -2.9798 0.9750
-5.1389 -2.1791 -2.9798 0.9750
-4.9245 -2.6278 -2.9798 0.9750
-4.3806 -3.4593 -2.9798 0.9750
-4.0553 -3.8355 -2.9798 0.9750
-3.6978 -4.1812 -2.9798 0.9750
-2.8979 -4.7706 -2.9798 0.9750
-2.4618 -5.0096 -2.9798 0.9750
-1.5346 -5.3667 -2.9798 0.9750
-1.0508 -5.4820 -2.9798 0.9750
-0.5587 -5.5538 -2.9798 0.9750
-0.0622 -5.5814 -2.9798 0.9750
1.4146 -5.3996 -2.9798 0.9750
2.3496 -5.0632 -2.9798 0.9750
3.2101 -4.5664 -2.9798 0.9750
3.6037 -4.2625 -2.9798 0.9750
3.9688 -3.9248 -2.9798 0.9750
4.6018 -3.1590 -2.9798 0.9750
5.5678 -0.3727 -2.9790 0.9750
5.5472 0.6206 -2.9798 0.9750
5.3493 1.5943 -2.9798 0.9750
4.9818 2.5175 -2.9798 0.9750
4.4566 3.3609 -2.9798 0.9750
3.7901 4.0978 -2.9798 0.9750
2.1217 5.1629 -2.9798 0.9750
1.6537 5.3312 -2.9798 0.9750
1.1727 5.4572 -2.9798 0.9750
0.1865 5.5787 -2.9798 0.9750
-0.3108 5.5732 -2.9798 0.9750
-2.2362 5.1143 -2.9798 0.9750
-2.6825 4.8950 -2.9798 0.9750
-3.8804 4.0124 -2.9798 0.9750
-4.2221 3.6510 -2.9798 0.9750
-4.5304 3.2608 -2.9798 0.9750
-4.8026 2.8446 -2.9798 0.9750
-5.3835 1.4747 -2.9798 0.9750
-5.3652 0.0000 -2.9798 0.9758
-5.2802 -0.9513 -2.9798 0.9758
-4.6162 -2.7342 -2.9798 0.9758
-4.3546 -3.1342 -2.9798 0.9758
-4.0583 -3.5093 -2.9798 0.9758
-2.5784 -4.7050 -2.9798 0.9758
-2.1494 -4.9158 -2.9798 0.9758
-1.2438 -5.2190 -2.9798 0.9758
0.1793 -5.3622 -2.9798 0.9758
1.5896 -5.1243 -2.9798 0.9758
2.0393 -4.9625 -2.9798 0.9758
2.4729 -4.7613 -2.9798 0.9758
2.8869 -4.5223 -2.9798 0.9758
3.9791 -3.5989 -2.9798 0.9758
4.5541 -2.8363 -2.9798 0.9758
4.9849 -1.9839 -2.9798 0.9758
5.3319 -0.5965 -2.9798 0.9758
5.3532 0.3584 -2.9798 0.9758
5.2048 1.3018 -2.9798 0.9758
5.0683 1.7599 -2.9798 0.9758
2.6826 4.6464 -2.9798 0.9758
2.2584 4.8667 -2.9798 0.9758
0.4180 5.3489 -2.9798 0.9758
-0.0598 5.3649 -2.9798 0.9758
-0.5370 5.3383 -2.9798 0.9758
-1.4750 5.1585 -2.9798 0.9758
-1.9283 5.0067 -2.9798 0.9758
-2.3663 4.8152 -2.9798 0.9758
-3.5544 4.0190 -2.9798 0.9758
-4.2106 3.3251 -2.9798 0.9758
-4.4898 2.9371 -2.9798 0.9758
-4.9395 2.0945 -2.9798 0.9758
-5.3173 0.7151 -2.9798 0.9758
-5.3599 0.2390 -2.9798 0.9758
-5.1063 -1.6466 -2.9798 0.9758
-4.9395 -2.0945 -2.9798 0.9758
-4.4898 -2.9371 -2.9798 0.9758
-4.2106 -3.3251 -2.9798 0.9758
-3.5544 -4.0189 -2.9798 0.9758
-2.3663 -4.8152 -2.9798 0.9758
-1.9283 -5.0067 -2.9798 0.9758
-1.0100 -5.2692 -2.9798 0.9758
-0.5370 -5.3382 -2.9798 0.9758
0.4180 -5.3489 -2.9798 0.9758
1.3597 -5.1900 -2.9798 0.9758
1.8162 -5.0484 -2.9798 0.9758
2.2584 -4.8667 -2.9798 0.9758
3.4639 -4.0971 -2.9798 0.9758
3.8148 -3.7726 -2.9798 0.9758
4.1354 -3.4180 -2.9798 0.9758
4.4233 -3.0364 -2.9798 0.9758
4.6760 -2.6306 -2.9798 0.9758
5.0683 -1.7599 -2.9798 0.9758
5.2049 -1.3018 -2.9798 0.9758
5.3638 0.1196 -2.9798 0.9758
5.1417 1.5324 -2.9798 0.9758
4.9849 1.9840 -2.9798 0.9758
3.9791 3.5989 -2.9798 0.9758
3.6430 3.9388 -2.9798 0.9758
3.2779 4.2474 -2.9798 0.9758
2.4729 4.7613 -2.9798 0.9758
2.0393 4.9625 -2.9798 0.9758
1.5896 5.1243 -2.9798 0.9758
0.1793 5.3622 -2.9798 0.9758
-0.2987 5.3569 -2.9798 0.9758
-1.2438 5.2190 -2.9798 0.9758
-3.3718 4.1733 -2.9798 0.9758
-3.7299 3.8567 -2.9798 0.9758
-4.8413 2.3125 -2.9798 0.9758
-5.1746 1.4175 -2.9798 0.9758
-5.1612 0.0000 -2.9798 0.9764
-4.8367 -1.8012 -2.9798 0.9764
-4.6572 -2.2245 -2.9798 0.9764
-4.4407 -2.6302 -2.9798 0.9764
-3.9040 -3.3759 -2.9798 0.9764
-3.5880 -3.7100 -2.9798 0.9764
-2.8734 -4.2873 -2.9798 0.9764
-2.0677 -4.7289 -2.9798 0.9764
-1.6386 -4.8941 -2.9798 0.9764
-0.7449 -5.1071 -2.9798 0.9764
-0.2873 -5.1531 -2.9798 0.9764
1.0843 -5.0460 -2.9798 0.9764
1.5291 -4.9294 -2.9798 0.9764
1.9618 -4.7738 -2.9798 0.9764
2.3789 -4.5802 -2.9798 0.9764
3.8278 -3.4620 -2.9798 0.9764
4.3810 -2.7285 -2.9798 0.9764
4.6064 -2.3277 -2.9798 0.9764
4.7953 -1.9085 -2.9798 0.9764
4.9462 -1.4741 -2.9798 0.9764
5.0577 -1.0280 -2.9798 0.9764
5.1599 -0.1150 -2.9798 0.9764
5.1496 0.3447 -2.9798 0.9764
5.0985 0.8017 -2.9798 0.9764
4.7055 2.1202 -2.9798 0.9764
3.6698 3.6291 -2.9798 0.9764
2.9682 4.2223 -2.9798 0.9764
1.7472 4.8565 -2.9798 0.9764
1.3080 4.9927 -2.9798 0.9764
0.8584 5.0893 -2.9798 0.9764
0.4021 5.1455 -2.9798 0.9764
-0.5166 5.1353 -2.9798 0.9764
-0.9716 5.0689 -2.9798 0.9764
-1.4189 4.9623 -2.9798 0.9764
-1.8550 4.8163 -2.9798 0.9764
-2.2763 4.6321 -2.9798 0.9764
-3.4192 3.8662 -2.9798 0.9764
-3.7497 3.5465 -2.9798 0.9764
-4.0505 3.1987 -2.9798 0.9764
-4.7517 2.0149 -2.9798 0.9764
-5.1561 0.2299 -2.9798 0.9764
-5.1151 -0.6879 -2.9798 0.9764
-5.0336 -1.1405 -2.9798 0.9764
-4.9121 -1.5839 -2.9798 0.9764
-4.7517 -2.0149 -2.9798 0.9764
-4.5535 -2.4298 -2.9798 0.9764
-3.7497 -3.5464 -2.9798 0.9764
-2.2763 -4.6321 -2.9798 0.9764
-0.9716 -5.0689 -2.9798 0.9764
-0.5166 -5.1352 -2.9798 0.9764
0.4021 -5.1455 -2.9798 0.9764
0.8585 -5.0893 -2.9798 0.9764
1.7472 -4.8564 -2.9798 0.9764
3.3322 -3.9413 -2.9798 0.9764
3.6698 -3.6291 -2.9798 0.9764
3.9782 -3.2881 -2.9798 0.9764
5.0069 -1.2523 -2.9798 0.9764
5.1599 0.1150 -2.9798 0.9764
5.1292 0.5738 -2.9798 0.9764
4.9462 1.4741 -2.9798 0.9764
4.6064 2.3278 -2.9798 0.9764
4.3810 2.7285 -2.9798 0.9764
4.1207 3.1076 -2.9798 0.9764
3.8278 3.4621 -2.9798 0.9764
3.5045 3.7890 -2.9798 0.9764
3.1533 4.0859 -2.9798 0.9764
2.7771 4.3503 -2.9798 0.9764
1.9618 4.7738 -2.9798 0.9764
1.5291 4.9295 -2.9798 0.9764
1.0843 5.0460 -2.9798 0.9764
0.6309 5.1225 -2.9798 0.9764
0.1724 5.1583 -2.9798 0.9764
-0.7449 5.1071 -2.9798 0.9764
-1.1965 5.0206 -2.9798 0.9764
-2.8734 4.2874 -2.9798 0.9764
-3.2436 4.0146 -2.9798 0.9764
-3.5880 3.7100 -2.9798 0.9764
-3.9040 3.3759 -2.9798 0.9764
-4.1890 3.0150 -2.9798 0.9764
-4.6572 2.2246 -2.9798 0.9764
-4.8367 1.8012 -2.9798 0.9764
-4.9778 1.3636 -2.9798 0.9764
