ply
format ascii 1.0
element vertex 1626
property float32 x
property float32 y
property float32 z
property float32 I
end_header
-1.0244 -7.0240 3.4913 0.9689
5.6264 9.7452 5.5347 0.9511
2.5610 9.7754 4.9703 0.9560
-1.0632 -7.2896 3.4725 0.9679
6.8049 9.6801 5.5776 0.9490
-1.2043 -8.2571 3.2750 0.9648
-1.2414 -8.5117 3.2120 0.9639
5.5916 9.6849 3.5516 0.9542
6.2016 9.7146 3.6603 0.9528
5.0359 9.6959 3.4698 0.9552
6.8270 9.7116 3.5540 0.9516
7.5183 9.7418 3.6841 0.9499
3.9689 9.6579 3.1260 0.9573
2.5255 9.6396 2.8037 0.9594
9.8467 9.7376 3.6491 0.9443
2.5528 9.7439 2.6542 0.9592
1.6222 9.6172 2.5699 0.9605
9.1264 3.6322 1.2309 0.9612
8.5510 3.8529 1.0173 0.9630
8.5282 4.3095 1.0364 0.9623
8.9532 3.1089 0.8689 0.9626
8.3633 3.7683 0.8410 0.9638
8.5137 4.7898 0.8956 0.9615
8.2976 4.1929 0.8523 0.9633
8.7722 3.0461 0.6959 0.9634
8.2404 3.7129 0.6773 0.9644
8.2679 4.6515 0.7109 0.9627
8.4350 3.3571 0.6803 0.9642
8.1656 4.1263 0.6856 0.9640
8.1434 3.6692 0.5202 0.9648
8.1151 4.5655 0.5423 0.9634
8.3307 3.3156 0.5222 0.9647
8.0610 4.0734 0.5260 0.9645
8.0689 3.6357 0.3680 0.9652
8.0077 4.5051 0.3820 0.9639
9.0647 2.7016 0.3933 0.9628
8.4029 5.2334 0.4116 0.9611
8.4827 2.9455 0.2239 0.9647
7.9342 4.4637 0.2270 0.9642
8.9422 2.6651 0.2327 0.9634
8.1913 3.2601 0.2199 0.9653
7.9227 4.0035 0.2214 0.9651
8.4326 2.9281 0.0742 0.9649
7.8854 4.4363 0.0752 0.9645
7.8799 3.9819 0.0734 0.9653
8.3929 2.9143 -0.0738 0.9651
8.3769 2.9088 -0.2211 0.9651
7.9266 3.5716 -0.2168 0.9658
8.8008 2.6229 -0.2290 0.9639
8.0179 4.9936 -0.2356 0.9629
8.3610 2.9032 -0.3680 0.9652
7.9985 4.9815 -0.3918 0.9630
8.3762 2.9085 -0.5164 0.9651
7.8316 4.4060 -0.5234 0.9646
7.8309 3.9571 -0.5110 0.9655
8.0249 4.9980 -0.5506 0.9628
7.8474 4.4149 -0.6748 0.9645
8.1122 3.2286 -0.6543 0.9656
7.8447 3.9641 -0.6587 0.9654
8.4326 2.9281 -0.8184 0.9648
7.9677 3.5901 -0.8012 0.9655
8.8834 2.6475 -0.8498 0.9635
8.1369 5.0677 -0.8788 0.9622
8.9618 2.6709 -1.0143 0.9631
7.9219 4.0031 -0.9627 0.9649
8.2621 5.1457 -1.0558 0.9616
8.0673 3.6349 -1.1088 0.9650
9.1150 2.7166 -1.1919 0.9624
8.1465 3.6707 -1.2709 0.9645
9.3399 2.7836 -1.3862 0.9614
8.8184 3.0621 -1.4865 0.9629
8.2557 3.7198 -1.4419 0.9640
8.1901 4.1387 -1.4612 0.9635
8.3978 3.7839 -1.6241 0.9633
8.6116 3.4274 -1.6343 0.9631
8.3637 4.2264 -1.6523 0.9627
-11.0215 -9.5306 -2.8197 0.9424
-10.1375 -10.4821 -2.8219 0.9423
-9.1717 -11.3519 -2.8242 0.9423
-8.1266 -12.1257 -2.8248 0.9423
-6.9903 -12.7556 -2.8148 0.9425
-3.3462 -14.0411 -2.7933 0.9429
-2.0787 -14.2528 -2.7874 0.9430
-0.7996 -14.3405 -2.7794 0.9432
8.6332 3.8899 -1.8324 0.9622
-0.1625 14.5862 -2.8229 0.9423
-1.4602 14.5143 -2.8230 0.9423
-2.7463 14.3271 -2.8230 0.9423
-4.0108 14.0264 -2.8231 0.9423
-6.4349 13.0946 -2.8235 0.9423
-7.5754 12.4709 -2.8237 0.9423
-8.6561 11.7482 -2.8240 0.9423
-10.6043 10.0294 -2.8246 0.9423
-11.4562 9.0469 -2.8249 0.9423
-10.5898 -10.0158 -2.8207 0.9423
-9.6645 -10.9278 -2.8231 0.9423
-7.5645 -12.4529 -2.8196 0.9424
-0.1598 -14.3442 -2.7760 0.9432
1.1152 -14.2713 -2.7702 0.9433
8.8805 3.5344 -1.8496 0.9618
8.7311 4.4120 -1.8931 0.9609
-2.1053 14.4350 -2.8230 0.9423
-5.8450 13.3678 -2.8234 0.9423
-7.0121 12.7954 -2.8236 0.9423
-8.1238 12.1216 -2.8238 0.9423
-9.1713 11.3515 -2.8241 0.9423
-10.1463 10.4913 -2.8244 0.9423
-14.0979 0.0000 -2.9721 0.9440
-13.8745 -2.4996 -2.9721 0.9440
-12.7211 -6.0763 -2.9721 0.9440
-12.1298 -7.1845 -2.9721 0.9440
-10.6638 -9.2213 -2.9721 0.9440
-3.0884 -12.9594 -2.8086 0.9470
0.4448 -13.3047 -2.8065 0.9470
2.9127 -13.5546 -2.9228 0.9449
4.0947 -13.2002 -2.9137 0.9451
5.2561 -12.7896 -2.9151 0.9450
6.3774 -12.2788 -2.9169 0.9450
7.4496 -11.6696 -2.9187 0.9450
8.4645 -10.9678 -2.9208 0.9449
11.7999 -7.3490 -2.9307 0.9448
12.4192 -6.2757 -2.9335 0.9447
13.6653 -2.7776 -2.9398 0.9446
13.9684 -0.3113 -2.9456 0.9445
13.5941 3.4001 -2.9542 0.9443
13.2505 4.6011 -2.9571 0.9443
12.2478 6.8905 -2.9627 0.9442
4.7725 13.2655 -2.9721 0.9440
3.5729 13.6376 -2.9721 0.9440
-0.1492 13.3921 -2.8235 0.9467
-4.8138 12.4988 -2.8237 0.9467
-6.9546 11.4488 -2.8240 0.9467
-7.9466 10.7853 -2.8243 0.9467
-9.7349 9.2072 -2.8248 0.9467
-10.5132 8.3022 -2.8241 0.9467
-12.1713 6.4948 -2.9084 0.9452
-13.4175 4.3266 -2.9721 0.9440
-13.7494 3.1152 -2.9721 0.9440
-13.9721 1.8791 -2.9721 0.9440
-14.0838 0.6280 -2.9721 0.9440
-13.7494 -3.1152 -2.9721 0.9440
-13.4175 -4.3266 -2.9721 0.9440
-12.9792 -5.5036 -2.9721 0.9440
-10.0090 -9.4664 -2.9044 0.9452
-6.9553 -11.4499 -2.8243 0.9467
-5.9087 -12.0239 -2.8244 0.9467
-2.5054 -13.0702 -2.8056 0.9471
-1.3283 -13.2036 -2.7976 0.9472
-0.1482 -13.3025 -2.8046 0.9471
1.0329 -13.2184 -2.7952 0.9472
4.6796 -13.0071 -2.9142 0.9451
5.8225 -12.5471 -2.9161 0.9450
9.8623 -9.7531 -2.9242 0.9449
10.7004 -8.8441 -2.9267 0.9448
11.4554 -7.8637 -2.9293 0.9448
12.1213 -6.8194 -2.9321 0.9447
12.6927 -5.7190 -2.9350 0.9447
13.1624 -4.5705 -2.9374 0.9446
13.5240 -3.3823 -2.9389 0.9446
13.7822 -2.1671 -2.9413 0.9446
13.9752 0.3114 -2.9470 0.9445
13.9054 1.5555 -2.9498 0.9444
13.7251 2.7898 -2.9527 0.9444
13.4358 4.0043 -2.9556 0.9443
13.0387 5.1893 -2.9585 0.9442
11.9340 7.4326 -2.9640 0.9441
11.2347 8.4725 -2.9665 0.9441
8.6133 11.1606 -2.9721 0.9440
7.5858 11.8830 -2.9721 0.9440
6.4980 12.5110 -2.9721 0.9440
5.3587 13.0397 -2.9721 0.9440
2.9618 13.7832 -2.9721 0.9440
-1.9328 13.2523 -2.8234 0.9467
-4.2522 12.7005 -2.8236 0.9467
-6.4374 11.7468 -2.8239 0.9467
-7.4580 11.1281 -2.8242 0.9467
-8.4196 10.4211 -2.8244 0.9467
-9.3146 9.6312 -2.8247 0.9467
-10.1360 8.7649 -2.8250 0.9467
-11.5095 6.8171 -2.8201 0.9468
-12.7211 6.0764 -2.9721 0.9440
-13.8745 2.4996 -2.9721 0.9440
-11.7500 -5.6125 -2.9721 0.9480
-10.5687 -7.6069 -2.9721 0.9480
-9.8498 -8.5174 -2.9721 0.9480
-9.0525 -9.3602 -2.9721 0.9480
-6.8814 -10.2677 -2.8212 0.9506
-4.9566 -11.3360 -2.8239 0.9505
-2.8659 -12.0258 -2.8217 0.9505
-1.7863 -12.2477 -2.8250 0.9505
1.5105 -12.2647 -2.8205 0.9506
4.8579 -11.8211 -2.9171 0.9489
6.8835 -10.7829 -2.9199 0.9489
9.5107 -8.6019 -2.9269 0.9487
10.2462 -7.7270 -2.9291 0.9487
11.4690 -5.7956 -2.9330 0.9486
12.8129 -1.4333 -2.9427 0.9485
12.2354 4.2486 -2.9562 0.9482
11.3079 6.3617 -2.9614 0.9482
10.7055 7.3489 -2.9638 0.9481
9.2464 9.1440 -2.9681 0.9480
7.4887 10.6528 -2.9721 0.9480
6.5108 11.2771 -2.9721 0.9480
5.4812 11.8118 -2.9721 0.9480
4.4082 12.2528 -2.9721 0.9480
3.3001 12.5965 -2.9721 0.9480
0.9624 12.3164 -2.8197 0.9506
-2.3291 12.1506 -2.8238 0.9505
-4.4469 11.5460 -2.8240 0.9505
-5.4572 11.1050 -2.8242 0.9505
-6.4244 10.5759 -2.8243 0.9505
-7.3407 9.9629 -2.8246 0.9505
-8.1991 9.2708 -2.8248 0.9505
-8.9916 8.5042 -2.8248 0.9505
-9.7049 7.6639 -2.8225 0.9505
-10.3396 6.7639 -2.8200 0.9506
-12.9055 1.7356 -2.9721 0.9480
-13.0087 0.5801 -2.9721 0.9480
-12.9055 -1.7356 -2.9721 0.9480
-12.3933 -3.9963 -2.9721 0.9480
-11.9884 -5.0835 -2.9721 0.9480
-11.4883 -6.1304 -2.9721 0.9480
-10.8971 -7.1285 -2.9721 0.9480
-7.3298 -9.9480 -2.8203 0.9506
-6.4189 -10.5669 -2.8219 0.9505
-4.4475 -11.5478 -2.8244 0.9505
-3.4017 -11.8965 -2.8241 0.9505
-1.2389 -12.3151 -2.8250 0.9505
-0.1379 -12.3740 -2.8245 0.9505
3.2475 -12.3955 -2.9247 0.9488
8.2697 -9.7815 -2.9235 0.9488
9.1146 -9.0136 -2.9258 0.9488
9.8887 -8.1722 -2.9280 0.9487
10.5840 -7.2655 -2.9301 0.9487
11.1961 -6.2988 -2.9321 0.9487
12.1524 -4.2198 -2.9362 0.9486
12.4907 -3.1241 -2.9388 0.9485
12.7306 -2.0018 -2.9414 0.9485
12.8698 -0.8615 -2.9440 0.9485
12.6751 2.5763 -2.9522 0.9483
11.0178 6.8620 -2.9626 0.9481
8.8328 9.5500 -2.9691 0.9480
7.9558 10.3087 -2.9721 0.9480
6.0020 11.5559 -2.9721 0.9480
3.8580 12.4370 -2.9721 0.9480
2.7357 12.7310 -2.9721 0.9480
-0.6888 12.3531 -2.8239 0.9505
-2.8681 12.0349 -2.8238 0.9505
-3.9280 11.7324 -2.8239 0.9505
-4.9569 11.3368 -2.8241 0.9505
-6.8894 10.2796 -2.8244 0.9505
-7.7776 9.6264 -2.8247 0.9505
-8.6043 8.8968 -2.8249 0.9505
-12.8153 2.3088 -2.9721 0.9480
-12.9700 1.1590 -2.9721 0.9480
-12.0916 0.0000 -2.9721 0.9514
-11.9000 -2.1439 -2.9721 0.9514
-11.3313 -4.2198 -2.9721 0.9514
-10.9108 -5.2116 -2.9721 0.9514
-10.4036 -6.1621 -2.9721 0.9514
-9.1462 -7.9090 -2.9721 0.9514
-8.4060 -8.6917 -2.9721 0.9514
-7.5990 -9.4054 -2.9721 0.9514
-6.4107 -9.5653 -2.8304 0.9537
-4.5990 -10.5181 -2.8217 0.9538
-3.6458 -10.8893 -2.8226 0.9538
-2.6628 -11.1734 -2.8233 0.9538
3.5269 -11.3698 -2.9261 0.9521
5.4759 -10.5430 -2.9202 0.9522
8.0796 -8.7356 -2.9248 0.9522
8.8308 -7.9870 -2.9267 0.9521
9.5132 -7.1743 -2.9288 0.9521
10.1214 -6.3037 -2.9309 0.9521
11.0960 -4.4161 -2.9355 0.9520
11.4543 -3.4137 -2.9378 0.9520
11.9793 -0.2669 -2.9452 0.9518
11.6547 2.9151 -2.9530 0.9517
11.3586 3.9442 -2.9555 0.9517
10.4963 5.9051 -2.9602 0.9516
8.5813 8.4863 -2.9665 0.9515
6.9538 9.8920 -2.9721 0.9514
6.0458 10.4716 -2.9721 0.9514
5.0897 10.9682 -2.9721 0.9514
4.0933 11.3776 -2.9721 0.9514
-2.1630 11.2839 -2.8241 0.9538
-3.1588 11.0469 -2.8242 0.9538
-4.1296 10.7224 -2.8243 0.9538
-5.0679 10.3128 -2.8244 0.9538
-5.9660 9.8214 -2.8246 0.9538
-6.8170 9.2521 -2.8248 0.9538
-9.0072 7.1129 -2.8211 0.9538
-9.8522 6.4451 -2.8938 0.9527
-10.6678 5.6925 -2.9721 0.9514
-11.9837 1.6117 -2.9721 0.9514
-12.0796 -0.5386 -2.9721 0.9514
-11.7927 -2.6718 -2.9721 0.9514
-11.1321 -4.7204 -2.9721 0.9514
-10.6678 -5.6925 -2.9721 0.9514
-9.4895 -7.4937 -2.9721 0.9514
-8.0104 -9.0575 -2.9721 0.9514
-3.1575 -11.0424 -2.8230 0.9538
2.0112 -11.9231 -2.9721 0.9514
3.0304 -11.5668 -2.9391 0.9519
8.4634 -8.3697 -2.9258 0.9522
9.1810 -7.5883 -2.9277 0.9521
9.8269 -6.7458 -2.9298 0.9521
10.8839 -4.9040 -2.9343 0.9520
11.2862 -3.9190 -2.9366 0.9520
11.5997 -2.9013 -2.9390 0.9519
11.8217 -1.8588 -2.9415 0.9519
11.9502 -0.8000 -2.9439 0.9519
11.9846 0.2671 -2.9465 0.9518
11.9237 1.3339 -2.9491 0.9518
8.1973 8.8629 -2.9674 0.9515
6.5063 10.1919 -2.9721 0.9514
2.5403 11.8217 -2.9721 0.9514
0.3833 11.4652 -2.8197 0.9538
-4.6033 10.5280 -2.8243 0.9538
-8.6847 7.5100 -2.8221 0.9538
-9.3114 6.7020 -2.8199 0.9538
-11.9000 2.1439 -2.9721 0.9514
-12.0436 1.0762 -2.9721 0.9514
-11.2793 0.0000 -2.9721 0.9544
-11.2346 -1.0039 -2.9721 0.9544
-11.1006 -1.9999 -2.9721 0.9544
-9.7048 -5.7481 -2.9721 0.9544
-9.1546 -6.5891 -2.9721 0.9544
-8.5318 -7.3777 -2.9721 0.9544
-7.8413 -8.1078 -2.9721 0.9544
-5.2495 -9.5790 -2.8782 0.9558
-4.2872 -9.8049 -2.8198 0.9567
-3.3985 -10.1507 -2.8206 0.9567
-1.5455 -10.5965 -2.8217 0.9567
0.3576 -10.6973 -2.8203 0.9567
5.9691 -9.3504 -2.9231 0.9551
7.5400 -8.1521 -2.9260 0.9551
8.8770 -6.6945 -2.9297 0.9551
9.4441 -5.8818 -2.9317 0.9550
9.9372 -5.0215 -2.9338 0.9550
10.3523 -4.1201 -2.9360 0.9550
11.0991 -1.2416 -2.9429 0.9549
11.1617 0.7472 -2.9477 0.9548
10.8700 2.7188 -2.9525 0.9547
10.5933 3.6784 -2.9548 0.9547
10.2317 4.6102 -2.9571 0.9546
9.2655 6.3604 -2.9613 0.9546
8.0011 7.9125 -2.9651 0.9545
7.2822 8.6135 -2.9721 0.9544
6.4867 9.2275 -2.9721 0.9544
5.6396 9.7682 -2.9721 0.9544
4.7478 10.2314 -2.9721 0.9544
2.8586 10.9111 -2.9721 0.9544
-2.0178 10.5269 -2.8243 0.9566
-3.8526 10.0030 -2.8245 0.9566
-6.3595 8.6312 -2.8250 0.9566
-7.0990 8.0270 -2.8236 0.9566
-9.4391 6.1748 -2.9721 0.9544
-10.3843 4.4033 -2.9721 0.9544
-11.2681 -0.5024 -2.9721 0.9544
-11.1787 -1.5034 -2.9721 0.9544
-11.0005 -2.4924 -2.9721 0.9544
-10.3843 -4.4033 -2.9721 0.9544
-9.4391 -6.1747 -2.9721 0.9544
-8.8520 -6.9903 -2.9721 0.9544
-8.1947 -7.7505 -2.9721 0.9544
-7.4723 -8.4491 -2.9721 0.9544
-5.8036 -9.5540 -2.9456 0.9548
-3.8468 -9.9878 -2.8202 0.9567
-2.9433 -10.2933 -2.8210 0.9567
-2.0159 -10.5164 -2.8215 0.9567
0.8336 -10.6684 -2.8197 0.9567
1.8761 -11.1222 -2.9721 0.9544
3.7611 -10.4542 -2.9276 0.9551
5.5454 -9.6050 -2.9225 0.9552
6.3811 -9.0773 -2.9237 0.9551
7.8980 -7.8105 -2.9269 0.9551
8.5672 -7.0810 -2.9287 0.9551
9.1695 -6.2945 -2.9307 0.9550
9.7002 -5.4572 -2.9327 0.9550
10.1548 -4.5755 -2.9349 0.9550
10.5296 -3.6562 -2.9371 0.9549
10.8215 -2.7066 -2.9393 0.9549
11.1479 -0.7463 -2.9441 0.9548
11.1219 1.2442 -2.9489 0.9548
10.4229 4.1482 -2.9560 0.9547
9.5363 5.9393 -2.9603 0.9546
7.6587 8.2805 -2.9721 0.9544
6.8913 8.9293 -2.9721 0.9544
6.0692 9.5073 -2.9721 0.9544
4.2874 10.4327 -2.9721 0.9544
1.3088 10.6268 -2.8213 0.9567
0.3581 10.7108 -2.8239 0.9566
-0.5968 10.7025 -2.8245 0.9566
-4.2944 9.8217 -2.8246 0.9566
-5.1519 9.4010 -2.8247 0.9566
-11.1006 1.9999 -2.9721 0.9544
-10.1882 -2.7908 -2.9721 0.9571
-9.0889 -5.3833 -2.9721 0.9571
-7.9904 -6.9095 -2.9721 0.9571
-7.3437 -7.5933 -2.9721 0.9571
-6.6387 -8.2167 -2.9721 0.9571
-5.8811 -8.7750 -2.9721 0.9571
-5.0766 -9.2636 -2.9721 0.9571
-0.5580 -10.0064 -2.8197 0.9592
0.3409 -10.1974 -2.8707 0.9585
1.2912 -10.4842 -2.9721 0.9571
3.9572 -9.6293 -2.9291 0.9577
5.5930 -8.7613 -2.9245 0.9577
7.7204 -6.9827 -2.9289 0.9577
8.3162 -6.2716 -2.9306 0.9576
9.3085 -4.7038 -2.9344 0.9576
9.6971 -3.8593 -2.9365 0.9576
10.0093 -2.9831 -2.9386 0.9575
10.2428 -2.0819 -2.9408 0.9575
10.3954 -1.1629 -2.9430 0.9575
8.1151 6.7073 -2.9622 0.9572
6.8201 8.0668 -2.9721 0.9571
4.4465 9.5821 -2.9721 0.9571
3.5760 9.9398 -2.9721 0.9571
2.6771 10.2186 -2.9721 0.9571
1.6671 9.8836 -2.8201 0.9592
0.7815 10.0011 -2.8225 0.9592
-2.7601 9.6525 -2.8246 0.9591
-5.2128 8.5815 -2.8250 0.9591
-8.1084 6.4032 -2.9069 0.9580
-8.8400 5.7829 -2.9721 0.9571
-9.3196 4.9731 -2.9721 0.9571
-9.7253 4.1239 -2.9721 0.9571
-10.0537 3.2419 -2.9721 0.9571
-10.4692 1.4080 -2.9721 0.9571
-10.5530 -0.4706 -2.9721 0.9571
-10.0537 -3.2419 -2.9721 0.9571
-8.8400 -5.7829 -2.9721 0.9571
-7.6746 -7.2586 -2.9721 0.9571
-6.9981 -7.9129 -2.9721 0.9571
-5.4843 -9.0283 -2.9721 0.9571
-3.7014 -9.6105 -2.8976 0.9581
-2.7603 -9.6534 -2.8249 0.9591
-1.0032 -9.9723 -2.8199 0.9592
-0.1117 -10.0212 -2.8197 0.9592
0.8218 -10.5172 -2.9681 0.9571
2.6771 -10.2186 -2.9721 0.9571
3.5347 -9.8248 -2.9377 0.9575
5.1961 -8.9999 -2.9239 0.9577
5.9790 -8.5052 -2.9251 0.9577
6.7154 -7.9430 -2.9265 0.9577
7.3996 -7.3176 -2.9280 0.9577
9.0867 -5.1121 -2.9334 0.9576
9.8629 -3.4248 -2.9375 0.9575
10.3293 -1.6242 -2.9419 0.9575
10.4408 -0.6989 -2.9442 0.9574
10.4697 0.2333 -2.9464 0.9574
10.4154 1.1651 -2.9487 0.9574
10.2782 2.0891 -2.9510 0.9574
9.7593 3.8841 -2.9553 0.9573
8.9283 5.5606 -2.9594 0.9572
7.1726 7.7550 -2.9721 0.9571
5.6840 8.9039 -2.9721 0.9571
2.2193 10.3277 -2.9721 0.9571
0.3353 10.0301 -2.8236 0.9592
-1.4489 9.9341 -2.8246 0.9591
-4.0222 9.1990 -2.8248 0.9591
-6.3058 7.8048 -2.8231 0.9592
-7.5805 6.5552 -2.8197 0.9592
-10.1881 2.7908 -2.9721 0.9571
-10.5216 0.9402 -2.9721 0.9571
-9.8881 -0.8836 -2.9721 0.9594
-8.5416 -5.0592 -2.9721 0.9594
-6.2390 -7.7221 -2.9721 0.9594
-5.5269 -8.2467 -2.9721 0.9594
-4.7710 -8.7059 -2.9721 0.9594
-3.1518 -9.4139 -2.9721 0.9594
-2.2950 -9.6300 -2.9638 0.9595
-1.4089 -9.6602 -2.9227 0.9601
1.2135 -9.8530 -2.9721 0.9594
2.0857 -9.7059 -2.9721 0.9594
3.7306 -9.0778 -2.9383 0.9598
5.2586 -8.2374 -2.9258 0.9600
5.9733 -7.7399 -2.9270 0.9600
6.6416 -7.1808 -2.9284 0.9600
7.2581 -6.5646 -2.9299 0.9600
7.8179 -5.8958 -2.9315 0.9599
8.3166 -5.1796 -2.9332 0.9599
9.1150 -3.6277 -2.9370 0.9599
9.4081 -2.8039 -2.9390 0.9598
9.7700 -1.0929 -2.9432 0.9598
9.8232 0.6576 -2.9475 0.9597
9.7327 1.5304 -2.9496 0.9597
9.3203 3.2364 -2.9537 0.9596
9.0013 4.0558 -2.9557 0.9596
8.6102 4.8440 -2.9576 0.9596
4.9637 8.5975 -2.9721 0.9594
4.1788 9.0052 -2.9721 0.9594
3.3607 9.3414 -2.9721 0.9594
1.5666 9.2878 -2.8199 0.9614
0.7343 9.3975 -2.8220 0.9614
-0.9445 9.3885 -2.8249 0.9614
-4.8970 8.0615 -2.8238 0.9614
-5.5925 7.5902 -2.8225 0.9614
-6.2426 7.0586 -2.8211 0.9614
-6.8429 6.4718 -2.8197 0.9614
-8.3078 5.4347 -2.9721 0.9594
-8.7586 4.6737 -2.9721 0.9594
-9.1398 3.8756 -2.9721 0.9594
-9.6821 2.1937 -2.9721 0.9594
-9.8390 1.3232 -2.9721 0.9594
-9.9177 -0.4422 -2.9721 0.9594
-9.8390 -1.3232 -2.9721 0.9594
-9.1398 -3.8756 -2.9721 0.9594
-8.7585 -4.6737 -2.9721 0.9594
-7.2126 -6.8216 -2.9721 0.9594
-5.8888 -7.9923 -2.9721 0.9594
-4.3784 -8.9098 -2.9721 0.9594
-1.8487 -9.6446 -2.9400 0.9598
-0.9763 -9.7047 -2.9201 0.9601
-0.1106 -9.9269 -2.9721 0.9594
2.5160 -9.6034 -2.9721 0.9594
3.3501 -9.3119 -2.9627 0.9595
4.1207 -8.8800 -2.9308 0.9599
4.8855 -8.4619 -2.9252 0.9600
5.6214 -7.9966 -2.9264 0.9600
6.3136 -7.4678 -2.9277 0.9600
8.9414 -4.0288 -2.9361 0.9599
9.2707 -3.2191 -2.9380 0.9599
9.5270 -2.3829 -2.9401 0.9598
9.7082 -1.5265 -2.9422 0.9598
9.8126 -0.6568 -2.9443 0.9598
9.7877 1.0949 -2.9485 0.9597
9.4519 2.8170 -2.9527 0.9597
9.1700 3.6496 -2.9547 0.9596
8.8146 4.4542 -2.9567 0.9596
8.3884 5.2244 -2.9586 0.9596
7.8949 5.9538 -2.9603 0.9596
6.0654 7.8592 -2.9721 0.9594
5.3418 8.3678 -2.9721 0.9594
4.5758 8.8101 -2.9721 0.9594
2.9413 9.4818 -2.9721 0.9594
2.0857 9.7060 -2.9721 0.9594
0.3151 9.4243 -2.8230 0.9614
-3.7803 8.6458 -2.8250 0.9614
-5.9235 7.3317 -2.8218 0.9614
-6.5490 6.7717 -2.8203 0.9614
-8.5416 5.0593 -2.9721 0.9594
-9.3033 3.4646 -2.9721 0.9594
-9.5748 2.6228 -2.9721 0.9594
-9.3585 0.0000 -2.9721 0.9615
-9.3213 -0.8329 -2.9721 0.9615
-9.0260 -2.4725 -2.9721 0.9615
-8.0520 -4.7692 -2.9721 0.9615
-7.5956 -5.4670 -2.9721 0.9615
-5.8814 -7.2794 -2.9721 0.9615
-5.2101 -7.7740 -2.9721 0.9615
-4.4975 -8.2069 -2.9721 0.9615
-3.7492 -8.5746 -2.9721 0.9615
-2.9712 -8.8743 -2.9721 0.9615
-2.1695 -9.1035 -2.9721 0.9615
1.1439 -9.2883 -2.9721 0.9615
1.9661 -9.1496 -2.9721 0.9615
2.7727 -8.9383 -2.9721 0.9615
3.5447 -8.6255 -2.9616 0.9616
4.9590 -7.7682 -2.9269 0.9621
5.6330 -7.2989 -2.9281 0.9620
6.2630 -6.7715 -2.9294 0.9620
6.8442 -6.1902 -2.9308 0.9620
8.2503 -4.1691 -2.9357 0.9619
8.8700 -2.6435 -2.9394 0.9619
9.0761 -1.8448 -2.9414 0.9619
9.2720 -0.2066 -2.9454 0.9618
9.1742 1.4426 -2.9494 0.9618
9.0154 2.2549 -2.9514 0.9617
8.1147 4.5653 -2.9570 0.9617
7.6807 5.2725 -2.9587 0.9617
7.2135 5.9621 -2.9721 0.9615
6.6542 6.5805 -2.9721 0.9615
5.3820 7.6560 -2.9721 0.9615
3.9393 8.4890 -2.9721 0.9615
3.1681 8.8059 -2.9721 0.9615
0.6921 8.8569 -2.8214 0.9634
-0.0990 8.8887 -2.8231 0.9634
-1.6746 8.7362 -2.8250 0.9634
-2.4455 8.5525 -2.8250 0.9634
-3.9213 7.9797 -2.8237 0.9634
-5.2698 7.1522 -2.8214 0.9634
-5.8826 6.6515 -2.8200 0.9634
-7.3445 5.7999 -2.9721 0.9615
-9.1271 2.0679 -2.9721 0.9615
-9.2750 1.2474 -2.9721 0.9615
-9.3492 0.4169 -2.9721 0.9615
-9.3492 -0.4169 -2.9721 0.9615
-9.1271 -2.0679 -2.9721 0.9615
-8.9068 -2.8721 -2.9721 0.9615
-7.3443 -5.7998 -2.9721 0.9615
-6.7992 -6.4306 -2.9721 0.9615
-6.1998 -7.0102 -2.9721 0.9615
-4.8586 -7.9984 -2.9721 0.9615
-2.5729 -8.9978 -2.9721 0.9615
-1.7618 -9.1911 -2.9721 0.9615
1.5566 -9.2281 -2.9721 0.9615
2.3717 -9.0529 -2.9721 0.9615
3.1681 -8.8059 -2.9721 0.9615
4.6084 -7.9819 -2.9271 0.9621
5.3012 -7.5410 -2.9275 0.9621
6.5600 -6.4873 -2.9300 0.9620
7.6143 -5.2269 -2.9331 0.9620
8.4304 -3.7986 -2.9366 0.9619
9.2751 0.2067 -2.9464 0.9618
9.2262 1.0321 -2.9484 0.9618
8.6428 3.4398 -2.9542 0.9617
8.3075 4.1980 -2.9561 0.9617
7.9056 4.9237 -2.9578 0.9617
5.7177 7.4087 -2.9721 0.9615
5.0356 7.8882 -2.9721 0.9615
4.3135 8.3051 -2.9721 0.9615
2.7727 8.9383 -2.9721 0.9615
-0.4950 8.8777 -2.8238 0.9634
-2.8240 8.4349 -2.8250 0.9634
-3.5626 8.1478 -2.8241 0.9634
-6.1761 6.3862 -2.8215 0.9634
-8.0520 4.7692 -2.9721 0.9615
-8.7701 3.2660 -2.9721 0.9615
-9.0260 2.4725 -2.9721 0.9615
-9.2102 1.6593 -2.9721 0.9615
-9.3213 0.8330 -2.9721 0.9615
-8.8460 0.0000 -2.9721 0.9634
-8.8109 -0.7873 -2.9721 0.9634
-8.7059 -1.5684 -2.9721 0.9634
-7.1797 -5.1676 -2.9721 0.9634
-6.1497 -6.3587 -2.9721 0.9634
-5.5593 -6.8808 -2.9721 0.9634
-1.2767 -8.7534 -2.9721 0.9634
0.2956 -8.8411 -2.9721 0.9634
2.6208 -8.4488 -2.9721 0.9634
4.0350 -7.7687 -2.9412 0.9637
4.6921 -7.3500 -2.9298 0.9639
5.3263 -6.9015 -2.9290 0.9639
5.9219 -6.4027 -2.9302 0.9639
6.4712 -5.8529 -2.9316 0.9639
6.9700 -5.2563 -2.9330 0.9638
8.1246 -3.2335 -2.9380 0.9638
8.5798 -1.7439 -2.9416 0.9637
8.7643 -0.1953 -2.9454 0.9637
8.7526 0.5859 -2.9473 0.9637
8.5208 2.1312 -2.9510 0.9636
8.3025 2.8829 -2.9529 0.9636
8.0177 3.6126 -2.9546 0.9636
7.6688 4.3144 -2.9564 0.9636
6.8185 5.6356 -2.9721 0.9634
6.2898 6.2202 -2.9721 0.9634
4.4230 7.6609 -2.9721 0.9634
2.9946 8.3237 -2.9721 0.9634
2.2419 8.5572 -2.9721 0.9634
1.4377 8.5232 -2.9041 0.9642
-0.0936 8.3992 -2.8221 0.9652
-0.8412 8.3612 -2.8234 0.9652
-1.5824 8.2552 -2.8241 0.9652
-2.3108 8.0814 -2.8240 0.9652
-3.0202 7.8418 -2.8234 0.9652
-3.7051 7.5396 -2.8225 0.9652
-4.3599 7.1774 -2.8215 0.9652
-4.9794 6.7581 -2.8204 0.9652
-6.4269 6.0785 -2.9721 0.9634
-7.4028 4.8427 -2.9721 0.9634
-7.8044 4.1646 -2.9721 0.9634
-8.1441 3.4534 -2.9721 0.9634
-8.4191 2.7148 -2.9721 0.9634
-8.7671 1.1791 -2.9721 0.9634
-8.8372 0.3941 -2.9721 0.9634
-8.8372 -0.3940 -2.9721 0.9634
-8.6274 -1.9547 -2.9721 0.9634
-8.1441 -3.4534 -2.9721 0.9634
-7.8044 -4.1645 -2.9721 0.9634
-6.9424 -5.4823 -2.9721 0.9634
-4.5926 -7.5604 -2.9721 0.9634
-3.9015 -7.9392 -2.9721 0.9634
-2.4320 -8.5051 -2.9721 0.9634
-1.6654 -8.6878 -2.9721 0.9634
-0.0986 -8.8454 -2.9721 0.9634
0.6891 -8.8191 -2.9721 0.9634
3.7105 -7.9960 -2.9617 0.9635
4.3669 -7.5637 -2.9344 0.9638
5.6296 -6.6587 -2.9296 0.9639
8.2631 -2.8693 -2.9389 0.9638
8.7441 -0.5853 -2.9444 0.9637
8.7671 0.1954 -2.9463 0.9637
8.7206 0.9756 -2.9482 0.9636
8.4201 2.5095 -2.9520 0.9636
8.1683 3.2509 -2.9538 0.9636
4.7599 7.4562 -2.9721 0.9634
1.0259 8.3299 -2.8198 0.9652
-0.4678 8.3887 -2.8228 0.9652
-1.9486 8.1767 -2.8241 0.9652
-4.6744 6.9746 -2.8210 0.9652
-6.1388 6.3475 -2.9668 0.9634
-6.6912 5.7862 -2.9721 0.9634
-7.1797 5.1676 -2.9721 0.9634
-7.6111 4.5081 -2.9721 0.9634
-7.9822 3.8128 -2.9721 0.9634
-8.2899 3.0872 -2.9721 0.9634
-8.5317 2.3371 -2.9721 0.9634
-8.7059 1.5685 -2.9721 0.9634
-8.8109 0.7874 -2.9721 0.9634
-8.3486 -0.7460 -2.9721 0.9651
-8.2491 -1.4861 -2.9721 0.9651
-7.5634 -3.6127 -2.9721 0.9651
-7.2118 -4.2715 -2.9721 0.9651
-6.3402 -5.4825 -2.9721 0.9651
-4.6665 -6.9628 -2.9721 0.9651
-4.0282 -7.3505 -2.9721 0.9651
-2.6611 -7.9482 -2.9721 0.9651
0.2801 -8.3772 -2.9721 0.9651
1.7609 -8.1948 -2.9721 0.9651
3.8513 -7.4151 -2.9628 0.9652
5.0483 -6.5413 -2.9299 0.9655
6.1333 -5.5472 -2.9323 0.9655
6.6058 -4.9816 -2.9337 0.9655
7.0265 -4.3761 -2.9352 0.9655
7.3920 -3.7353 -2.9368 0.9655
7.9462 -2.3682 -2.9401 0.9654
8.1303 -1.6525 -2.9418 0.9654
8.2158 1.2919 -2.9490 0.9653
8.0730 2.0192 -2.9508 0.9653
6.9104 4.7437 -2.9721 0.9651
5.9598 5.8938 -2.9721 0.9651
4.1909 7.2589 -2.9721 0.9651
3.5282 7.6032 -2.9721 0.9651
2.8375 7.8870 -2.9721 0.9651
2.1242 8.1083 -2.9721 0.9651
1.3941 8.2651 -2.9721 0.9651
-0.0886 7.9561 -2.8213 0.9668
-2.1887 7.6543 -2.8229 0.9668
-2.8607 7.4275 -2.8223 0.9668
-3.5094 7.1414 -2.8215 0.9668
-5.5529 6.2787 -2.9721 0.9651
-6.0897 5.7596 -2.9721 0.9651
-6.5781 5.1947 -2.9721 0.9651
-7.9774 2.5724 -2.9721 0.9651
-8.3736 0.3734 -2.9721 0.9651
-8.1747 -1.8521 -2.9721 0.9651
-7.7168 -3.2722 -2.9721 0.9651
-7.3949 -3.9460 -2.9721 0.9651
-6.5781 -5.1947 -2.9721 0.9651
-6.0897 -5.7595 -2.9721 0.9651
-5.5529 -6.2787 -2.9721 0.9651
-3.0125 -7.8218 -2.9721 0.9651
-2.3044 -8.0589 -2.9721 0.9651
-1.5780 -8.2320 -2.9721 0.9651
-0.8390 -8.3398 -2.9721 0.9651
-0.0934 -8.3814 -2.9721 0.9651
1.3941 -8.2651 -2.9721 0.9651
2.1242 -8.1082 -2.9721 0.9651
6.3758 -5.2697 -2.9330 0.9655
6.8228 -4.6836 -2.9344 0.9655
7.2163 -4.0598 -2.9360 0.9655
7.5531 -3.4033 -2.9376 0.9655
8.0462 -2.0125 -2.9410 0.9654
8.2627 0.9243 -2.9481 0.9653
8.1525 1.6571 -2.9499 0.9653
7.7386 3.0799 -2.9533 0.9653
7.4379 3.7586 -2.9550 0.9652
6.2164 5.6225 -2.9721 0.9651
5.6913 6.1534 -2.9721 0.9651
4.5101 7.0650 -2.9721 0.9651
3.8634 7.4384 -2.9721 0.9651
3.1860 7.7528 -2.9721 0.9651
0.9780 7.9405 -2.8369 0.9666
0.2658 7.9503 -2.8206 0.9668
-1.1489 7.8772 -2.8227 0.9668
-1.8456 7.7444 -2.8230 0.9668
-2.5272 7.5485 -2.8226 0.9668
-3.1883 7.2917 -2.8219 0.9668
-3.8234 6.9768 -2.8210 0.9668
-5.1213 6.3387 -2.8895 0.9660
-6.3402 5.4826 -2.9721 0.9651
-6.8030 4.8965 -2.9721 0.9651
-7.2118 4.2716 -2.9721 0.9651
-7.5634 3.6127 -2.9721 0.9651
-7.8549 2.9252 -2.9721 0.9651
-8.0841 2.2145 -2.9721 0.9651
-8.2491 1.4862 -2.9721 0.9651
-7.9593 0.0000 -2.9721 0.9666
-7.6765 -2.1028 -2.9721 0.9666
-7.4589 -2.7777 -2.9721 0.9666
-6.4600 -4.6496 -2.9721 0.9666
-5.5333 -5.7213 -2.9721 0.9666
-1.8451 -7.7425 -2.9721 0.9666
-1.1487 -7.8760 -2.9721 0.9666
0.9729 -7.8996 -2.9721 0.9666
4.2457 -6.6508 -2.9464 0.9669
4.8021 -6.2223 -2.9350 0.9670
5.3311 -5.7640 -2.9318 0.9670
5.8254 -5.2688 -2.9330 0.9670
6.2740 -4.7315 -2.9343 0.9670
6.6734 -4.1562 -2.9357 0.9670
7.0204 -3.5476 -2.9372 0.9670
7.3122 -2.9102 -2.9388 0.9670
7.7209 -1.5693 -2.9420 0.9669
7.8344 -0.8764 -2.9437 0.9669
7.8859 -0.1757 -2.9454 0.9669
7.8748 0.5272 -2.9471 0.9669
7.8012 1.2267 -2.9488 0.9668
7.6654 1.9173 -2.9505 0.9668
7.2119 3.2495 -2.9538 0.9668
3.9797 6.8930 -2.9721 0.9666
2.6944 7.4894 -2.9721 0.9666
0.5905 7.5575 -2.8306 0.9682
-0.0842 7.5527 -2.8205 0.9683
-0.7563 7.5177 -2.8214 0.9683
-2.0776 7.2656 -2.8218 0.9682
-2.7155 7.0506 -2.8213 0.9683
-3.9204 6.4538 -2.8197 0.9683
-5.2729 5.9622 -2.9721 0.9666
-5.7827 5.4692 -2.9721 0.9666
-6.2465 4.9328 -2.9721 0.9666
-6.6608 4.3573 -2.9721 0.9666
-7.0221 3.7471 -2.9721 0.9666
-7.3278 3.1072 -2.9721 0.9666
-7.5753 2.4427 -2.9721 0.9666
-7.8883 1.0609 -2.9721 0.9666
-7.9514 0.3546 -2.9721 0.9666
-7.8883 -1.0609 -2.9721 0.9666
-7.7626 -1.7587 -2.9721 0.9666
-7.5753 -2.4427 -2.9721 0.9666
-7.3278 -3.1072 -2.9721 0.9666
-7.0221 -3.7471 -2.9721 0.9666
-5.7827 -5.4692 -2.9721 0.9666
-4.1323 -6.8026 -2.9721 0.9666
-2.8607 -7.4275 -2.9721 0.9666
-2.1882 -7.6526 -2.9721 0.9666
-0.7967 -7.9193 -2.9721 0.9666
-0.0887 -7.9588 -2.9721 0.9666
0.6200 -7.9351 -2.9721 0.9666
1.3239 -7.8484 -2.9721 0.9666
2.6944 -7.4894 -2.9721 0.9666
5.0681 -5.9946 -2.9312 0.9670
6.0556 -5.0051 -2.9337 0.9670
6.8537 -3.8558 -2.9365 0.9670
7.1734 -3.2321 -2.9380 0.9670
7.6412 -1.9112 -2.9412 0.9669
7.8680 -0.5267 -2.9446 0.9669
7.5745 2.2575 -2.9513 0.9668
7.3475 2.9243 -2.9530 0.9668
6.7561 4.2078 -2.9721 0.9666
5.9030 5.3390 -2.9721 0.9666
5.4044 5.8432 -2.9721 0.9666
3.0254 7.3619 -2.9721 0.9666
0.2523 7.5474 -2.8199 0.9683
-1.0905 7.4774 -2.8217 0.9683
-3.0265 6.9217 -2.8209 0.9683
-4.2405 6.3272 -2.8442 0.9680
-5.5333 5.7214 -2.9721 0.9666
-6.0206 5.2062 -2.9721 0.9666
-6.4600 4.6497 -2.9721 0.9666
-7.1821 3.4306 -2.9721 0.9666
-7.4589 2.7777 -2.9721 0.9666
-7.6766 2.1028 -2.9721 0.9666
-7.8332 1.4112 -2.9721 0.9666
-7.5728 0.0000 -2.9721 0.9680
-7.5427 -0.6740 -2.9721 0.9680
-7.0967 -2.6428 -2.9721 0.9680
-6.8333 -3.2640 -2.9721 0.9680
-5.7282 -4.9533 -2.9721 0.9680
-5.2646 -5.4435 -2.9721 0.9680
-3.6394 -6.6409 -2.9721 0.9680
-2.4042 -7.1810 -2.9721 0.9680
-1.7555 -7.3665 -2.9721 0.9680
-0.4216 -7.5610 -2.9721 0.9680
0.2530 -7.5686 -2.9721 0.9680
2.8785 -7.0044 -2.9721 0.9680
3.4905 -6.7204 -2.9721 0.9680
4.0673 -6.3712 -2.9666 0.9680
4.5770 -5.9306 -2.9401 0.9683
5.0767 -5.4889 -2.9344 0.9684
5.5437 -5.0139 -2.9336 0.9684
6.6804 -3.3758 -2.9376 0.9683
6.9579 -2.7692 -2.9391 0.9683
7.1805 -2.1400 -2.9406 0.9683
7.3464 -1.4932 -2.9422 0.9683
7.4542 -0.8339 -2.9438 0.9683
7.2926 1.8240 -2.9503 0.9682
7.1050 2.4672 -2.9519 0.9682
6.8650 3.0930 -2.9552 0.9682
6.6000 3.7131 -2.9721 0.9680
5.8371 4.8245 -2.9721 0.9680
4.3551 6.1952 -2.9721 0.9680
3.7864 6.5582 -2.9721 0.9680
3.1876 6.8692 -2.9721 0.9680
2.5636 7.1257 -2.9721 0.9680
1.2596 7.4673 -2.9721 0.9680
-0.7193 7.1503 -2.8205 0.9696
-1.3531 7.0589 -2.8209 0.9696
-1.9760 6.9104 -2.8208 0.9696
-3.8319 6.3082 -2.8968 0.9688
-4.4921 6.0966 -2.9721 0.9680
-5.0168 5.6726 -2.9721 0.9680
-5.5018 5.2036 -2.9721 0.9680
-6.3373 4.1457 -2.9721 0.9680
-6.6811 3.5652 -2.9721 0.9680
-6.9719 2.9564 -2.9721 0.9680
-7.2074 2.3241 -2.9721 0.9680
-7.5052 -1.0093 -2.9721 0.9680
-7.3856 -1.6733 -2.9721 0.9680
-7.2074 -2.3241 -2.9721 0.9680
-6.6811 -3.5651 -2.9721 0.9680
-6.3373 -4.1456 -2.9721 0.9680
-5.0168 -5.6726 -2.9721 0.9680
-4.4920 -6.0966 -2.9721 0.9680
-3.9316 -6.4722 -2.9721 0.9680
-2.7217 -7.0668 -2.9721 0.9680
-1.4256 -7.4374 -2.9721 0.9680
-0.7580 -7.5347 -2.9721 0.9680
0.5899 -7.5498 -2.9721 0.9680
3.7864 -6.5582 -2.9721 0.9680
4.3242 -6.1512 -2.9510 0.9682
4.8322 -5.7156 -2.9375 0.9684
5.3137 -5.2549 -2.9330 0.9684
5.7627 -4.7630 -2.9342 0.9684
6.5218 -3.6691 -2.9369 0.9684
7.4645 0.8350 -2.9479 0.9682
7.3646 1.4969 -2.9495 0.9682
7.2060 2.1476 -2.9511 0.9682
6.9899 2.7819 -2.9526 0.9682
6.4280 4.0034 -2.9721 0.9680
6.0462 4.5597 -2.9721 0.9680
5.1420 5.5594 -2.9721 0.9680
2.2436 7.2328 -2.9721 0.9680
1.5910 7.4038 -2.9721 0.9680
0.2420 7.2373 -2.8420 0.9694
-0.4001 7.1744 -2.8201 0.9696
-1.0372 7.1118 -2.8207 0.9696
-1.6662 6.9918 -2.8209 0.9696
-2.2817 6.8151 -2.8206 0.9696
-2.8786 6.5835 -2.8200 0.9696
-3.4627 6.3185 -2.8278 0.9695
-4.2160 6.2907 -2.9721 0.9680
-4.7592 5.8905 -2.9721 0.9680
-5.2646 5.4435 -2.9721 0.9680
-5.7282 4.9533 -2.9721 0.9680
-6.5157 3.8592 -2.9721 0.9680
-7.5427 0.6740 -2.9721 0.9680
-7.2177 0.0000 -2.9721 0.9693
-7.1890 -0.6424 -2.9721 0.9693
-6.9612 -1.9069 -2.9721 0.9693
-6.5129 -3.1109 -2.9721 0.9693
-5.4596 -4.7210 -2.9721 0.9693
-5.0177 -5.1882 -2.9721 0.9693
-4.5360 -5.6142 -2.9721 0.9693
-2.8916 -6.6131 -2.9721 0.9693
-2.2915 -6.8443 -2.9721 0.9693
-1.0417 -7.1421 -2.9721 0.9693
-0.4018 -7.2065 -2.9721 0.9693
2.1384 -6.8936 -2.9721 0.9693
2.7435 -6.6759 -2.9721 0.9693
3.3268 -6.4052 -2.9721 0.9693
3.8837 -6.0837 -2.9721 0.9693
4.8478 -5.2413 -2.9399 0.9696
5.2856 -4.7805 -2.9347 0.9696
5.6915 -4.2921 -2.9354 0.9696
6.3680 -3.2179 -2.9380 0.9696
6.6323 -2.6396 -2.9394 0.9696
6.8443 -2.0398 -2.9409 0.9696
7.1049 -0.7948 -2.9439 0.9695
7.0736 1.1123 -2.9486 0.9695
5.5633 4.5983 -2.9721 0.9693
5.1320 5.0752 -2.9721 0.9693
3.0381 6.5471 -2.9721 0.9693
1.8292 6.9820 -2.9721 0.9693
1.2005 7.1172 -2.9721 0.9693
-0.0780 6.9958 -2.8809 0.9702
-0.6854 6.8132 -2.8197 0.9708
-3.0926 6.2932 -2.8874 0.9701
-4.2814 5.8108 -2.9721 0.9693
-5.6644 4.4732 -2.9721 0.9693
-6.6450 2.8177 -2.9721 0.9693
-6.8694 2.2151 -2.9721 0.9693
-7.1533 0.9620 -2.9721 0.9693
-7.1533 -0.9620 -2.9721 0.9693
-6.6450 -2.8177 -2.9721 0.9693
-6.3678 -3.3979 -2.9721 0.9693
-5.2438 -4.9595 -2.9721 0.9693
-4.2814 -5.8107 -2.9721 0.9693
-3.7472 -6.1687 -2.9721 0.9693
-3.1833 -6.4778 -2.9721 0.9693
-2.5941 -6.7354 -2.9721 0.9693
-1.3588 -7.0886 -2.9721 0.9693
1.2005 -7.1171 -2.9721 0.9693
2.4434 -6.7915 -2.9721 0.9693
3.0382 -6.5471 -2.9721 0.9693
3.6088 -6.2507 -2.9721 0.9693
4.6161 -5.4599 -2.9441 0.9695
5.0723 -5.0161 -2.9375 0.9696
6.2169 -3.4975 -2.9373 0.9696
6.5066 -2.9317 -2.9387 0.9696
6.9302 -1.7333 -2.9416 0.9696
7.0606 -1.1102 -2.9431 0.9696
7.1351 -0.4776 -2.9447 0.9695
7.1531 0.1594 -2.9462 0.9695
7.1142 0.7959 -2.9478 0.9695
7.0188 1.4267 -2.9493 0.9695
6.8675 2.0467 -2.9508 0.9695
6.6695 2.6544 -2.9559 0.9694
6.1266 3.8157 -2.9721 0.9693
5.3530 4.8415 -2.9721 0.9693
3.8837 6.0837 -2.9721 0.9693
3.3268 6.4053 -2.9721 0.9693
2.1384 6.8936 -2.9721 0.9693
0.2409 7.2058 -2.9689 0.9693
-0.9883 6.7762 -2.8198 0.9708
-1.5876 6.6617 -2.8200 0.9708
-2.1740 6.4935 -2.8198 0.9708
-2.7542 6.2992 -2.8310 0.9707
-3.4465 6.2891 -2.9531 0.9695
-4.0183 5.9957 -2.9721 0.9693
-4.5360 5.6142 -2.9721 0.9693
-5.4596 4.7211 -2.9721 0.9693
-7.1890 0.6424 -2.9721 0.9693
-6.8628 -0.6133 -2.9721 0.9704
-6.2173 -2.9697 -2.9721 0.9704
-5.9283 -3.5113 -2.9721 0.9704
-4.7900 -4.9528 -2.9721 0.9704
-4.3301 -5.3594 -2.9721 0.9704
-3.8359 -5.7236 -2.9721 0.9704
-3.3113 -6.0423 -2.9721 0.9704
-2.7603 -6.3130 -2.9721 0.9704
-2.1875 -6.5336 -2.9721 0.9704
-1.5973 -6.7024 -2.9721 0.9704
-0.9944 -6.8180 -2.9721 0.9704
-0.3836 -6.8794 -2.9721 0.9704
0.8422 -6.8384 -2.9721 0.9704
2.0414 -6.5807 -2.9721 0.9704
3.1758 -6.1145 -2.9721 0.9704
5.0556 -4.5725 -2.9405 0.9707
5.4347 -4.0985 -2.9362 0.9708
5.7796 -3.5996 -2.9371 0.9708
6.5342 -1.9474 -2.9411 0.9707
6.6849 -1.3587 -2.9425 0.9707
6.7826 -0.7587 -2.9440 0.9707
6.8165 0.4563 -2.9470 0.9707
6.7522 1.0618 -2.9484 0.9707
6.6352 1.6596 -2.9503 0.9706
6.4778 2.2494 -2.9579 0.9706
6.2819 2.8305 -2.9721 0.9704
6.0050 3.3784 -2.9721 0.9704
5.6805 3.8994 -2.9721 0.9704
5.3109 4.3896 -2.9721 0.9704
4.4484 5.2617 -2.9721 0.9704
2.3325 6.4833 -2.9721 0.9704
-0.6707 6.6664 -2.8901 0.9712
-1.2388 6.4628 -2.8385 0.9717
-1.8118 6.3364 -2.8428 0.9717
-2.4181 6.2785 -2.9022 0.9711
-4.0871 5.5470 -2.9721 0.9704
-4.5646 5.1613 -2.9721 0.9704
-5.0058 4.7345 -2.9721 0.9704
-6.0788 3.2438 -2.9721 0.9704
-6.3434 2.6898 -2.9721 0.9704
-6.8286 0.9184 -2.9721 0.9704
-6.8833 0.3069 -2.9721 0.9704
-6.8833 -0.3069 -2.9721 0.9704
-6.8286 -0.9183 -2.9721 0.9704
-6.5576 -2.1145 -2.9721 0.9704
-5.4074 -4.2701 -2.9721 0.9704
-5.0058 -4.7345 -2.9721 0.9704
-4.0871 -5.5470 -2.9721 0.9704
-3.0388 -6.1838 -2.9721 0.9704
-1.8943 -6.6246 -2.9721 0.9704
-0.0768 -6.8897 -2.9721 0.9704
1.7462 -6.6652 -2.9721 0.9704
2.3325 -6.4833 -2.9721 0.9704
2.9003 -6.2499 -2.9721 0.9704
3.9625 -5.6367 -2.9721 0.9704
5.2508 -4.3399 -2.9385 0.9708
6.2120 -2.7990 -2.9390 0.9708
6.4394 -2.2360 -2.9404 0.9707
6.8114 -0.4560 -2.9447 0.9707
6.8284 0.1522 -2.9462 0.9707
6.7912 0.7597 -2.9477 0.9707
6.6999 1.3618 -2.9492 0.9707
5.5011 4.1486 -2.9721 0.9704
4.6784 5.0583 -2.9721 0.9704
3.1758 6.1146 -2.9721 0.9704
2.6190 6.3730 -2.9721 0.9704
1.4475 6.7363 -2.9721 0.9704
0.8422 6.8385 -2.9721 0.9704
-0.3793 6.8022 -2.9387 0.9708
-0.9559 6.5539 -2.8570 0.9716
-2.7429 6.2731 -2.9533 0.9706
-4.7900 4.9528 -2.9721 0.9704
-5.5922 4.0250 -2.9721 0.9704
-6.2173 2.9698 -2.9721 0.9704
-6.6453 1.8203 -2.9721 0.9704
-6.8628 0.6133 -2.9721 0.9704
-6.5607 -0.5863 -2.9721 0.9715
-6.4825 -1.1679 -2.9721 0.9715
-6.1727 -2.2987 -2.9721 0.9715
-5.6674 -3.3568 -2.9721 0.9715
-5.3461 -3.8479 -2.9721 0.9715
-3.6671 -5.4717 -2.9721 0.9715
-3.1655 -5.7763 -2.9721 0.9715
-2.0912 -6.2461 -2.9721 0.9715
-1.5270 -6.4074 -2.9721 0.9715
-0.9506 -6.5179 -2.9721 0.9715
-0.3667 -6.5766 -2.9721 0.9715
0.2201 -6.5832 -2.9721 0.9715
2.5037 -6.0924 -2.9721 0.9715
3.0360 -5.8454 -2.9721 0.9715
4.0243 -5.2145 -2.9721 0.9715
4.8450 -4.3821 -2.9477 0.9717
5.5285 -3.4432 -2.9388 0.9718
5.8128 -2.9373 -2.9387 0.9718
6.0538 -2.4093 -2.9400 0.9718
6.5262 -0.1454 -2.9455 0.9718
6.5164 0.4363 -2.9469 0.9717
6.3530 1.5890 -2.9549 0.9717
5.7407 3.2297 -2.9721 0.9715
5.0771 4.1964 -2.9721 0.9715
4.6835 4.6316 -2.9721 0.9715
4.2526 5.0301 -2.9721 0.9715
3.7881 5.3886 -2.9721 0.9715
3.2934 5.7044 -2.9721 0.9715
2.2298 6.1979 -2.9721 0.9715
1.6693 6.3718 -2.9721 0.9715
-0.6593 6.5538 -2.9721 0.9715
-1.2346 6.4408 -2.9591 0.9716
-1.8057 6.3147 -2.9635 0.9716
-2.9051 5.9117 -2.9721 0.9715
-3.4197 5.6296 -2.9721 0.9715
-3.9072 5.3029 -2.9721 0.9715
-4.3637 4.9341 -2.9721 0.9715
-6.4240 1.4555 -2.9721 0.9715
-6.5803 0.2934 -2.9721 0.9715
-6.5803 -0.2934 -2.9721 0.9715
-4.7855 -4.5261 -2.9721 0.9715
-2.9051 -5.9116 -2.9721 0.9715
-2.3674 -6.1467 -2.9721 0.9715
-1.2400 -6.4691 -2.9721 0.9715
-0.6593 -6.5538 -2.9721 0.9715
-0.0734 -6.5864 -2.9721 0.9715
0.5131 -6.5668 -2.9721 0.9715
1.0956 -6.4951 -2.9721 0.9715
2.7726 -5.9749 -2.9721 0.9715
3.2934 -5.7044 -2.9721 0.9715
3.7881 -5.3886 -2.9721 0.9715
5.3724 -3.6879 -2.9403 0.9718
5.6750 -3.1927 -2.9381 0.9718
6.4440 -1.0133 -2.9434 0.9718
6.5117 -0.4359 -2.9448 0.9718
6.5278 0.1455 -2.9462 0.9718
6.4921 0.7262 -2.9476 0.9717
6.2955 1.8763 -2.9641 0.9716
5.8789 2.9707 -2.9721 0.9715
5.2590 3.9660 -2.9721 0.9715
4.8851 4.4184 -2.9721 0.9715
4.4725 4.8356 -2.9721 0.9715
3.5443 5.5520 -2.9721 0.9715
2.5037 6.0925 -2.9721 0.9715
0.8052 6.5375 -2.9721 0.9715
-2.0912 6.2461 -2.9721 0.9715
-2.6389 6.0352 -2.9721 0.9715
-3.1655 5.7764 -2.9721 0.9715
-4.1396 5.1236 -2.9721 0.9715
-4.5792 4.7348 -2.9721 0.9715
-5.3461 3.8479 -2.9721 0.9715
-5.9436 2.8390 -2.9721 0.9715
-6.5607 0.5863 -2.9721 0.9715
-6.3052 0.0000 -2.9721 0.9725
-5.9087 -2.2004 -2.9721 0.9725
-5.6895 -2.7176 -2.9721 0.9725
-4.3833 -4.5323 -2.9721 0.9725
-3.9625 -4.9044 -2.9721 0.9725
-3.0301 -5.5293 -2.9721 0.9725
-2.5260 -5.7770 -2.9721 0.9725
-1.4617 -6.1334 -2.9721 0.9725
-0.3510 -6.2954 -2.9721 0.9725
0.2107 -6.3016 -2.9721 0.9725
1.3246 -6.1644 -2.9721 0.9725
1.8680 -6.0221 -2.9721 0.9725
3.3927 -5.3146 -2.9721 0.9725
4.2812 -4.6288 -2.9721 0.9725
5.3010 -3.3015 -2.9438 0.9728
5.5707 -2.8149 -2.9421 0.9728
5.7967 -2.3070 -2.9409 0.9728
5.9803 -1.7823 -2.9415 0.9728
6.1179 -1.2435 -2.9428 0.9728
6.1916 0.9734 -2.9545 0.9727
6.1126 1.5289 -2.9701 0.9725
4.8600 4.0169 -2.9721 0.9725
4.0708 4.8150 -2.9721 0.9725
2.6540 5.7194 -2.9721 0.9725
-0.0703 6.3048 -2.9721 0.9725
-2.2661 5.8839 -2.9721 0.9725
-2.7808 5.6588 -2.9721 0.9725
-3.2735 5.3888 -2.9721 0.9725
-5.2764 3.4517 -2.9721 0.9725
-5.8049 2.4615 -2.9721 0.9725
-6.0009 1.9351 -2.9721 0.9725
-6.2989 0.2809 -2.9721 0.9725
-6.2989 -0.2808 -2.9721 0.9725
-6.2489 -0.8404 -2.9721 0.9725
-6.0009 -1.9350 -2.9721 0.9725
-5.8049 -2.4614 -2.9721 0.9725
-5.2764 -3.4517 -2.9721 0.9725
-3.7401 -5.0761 -2.9721 0.9725
-3.2735 -5.3888 -2.9721 0.9725
-2.7808 -5.6588 -2.9721 0.9725
-2.2661 -5.8838 -2.9721 0.9725
0.4912 -6.2860 -2.9721 0.9725
1.0487 -6.2173 -2.9721 0.9725
2.1345 -5.9329 -2.9721 0.9725
2.6541 -5.7193 -2.9721 0.9725
4.0708 -4.8149 -2.9721 0.9725
5.4412 -3.0612 -2.9429 0.9728
6.1686 -0.9700 -2.9435 0.9728
6.2525 0.1394 -2.9480 0.9727
6.1574 1.2515 -2.9618 0.9726
5.6275 2.8437 -2.9721 0.9725
5.3520 3.3333 -2.9721 0.9725
5.0341 3.7964 -2.9721 0.9725
4.6762 4.2294 -2.9721 0.9725
4.2812 4.6288 -2.9721 0.9725
2.9062 5.5954 -2.9721 0.9725
1.3246 6.1645 -2.9721 0.9725
0.7707 6.2579 -2.9721 0.9725
-2.5260 5.7771 -2.9721 0.9725
-3.0301 5.5293 -2.9721 0.9725
-3.5103 5.2377 -2.9721 0.9725
-3.9625 4.9045 -2.9721 0.9725
-4.3833 4.5323 -2.9721 0.9725
-5.4250 3.2132 -2.9721 0.9725
-5.9088 2.2005 -2.9721 0.9725
-5.9469 -1.0714 -2.9721 0.9734
-5.8280 -1.5964 -2.9721 0.9734
-5.6627 -2.1088 -2.9721 0.9734
-5.4526 -2.6044 -2.9721 0.9734
-3.7975 -4.7002 -2.9721 0.9734
-2.4208 -5.5365 -2.9721 0.9734
-1.9184 -5.7300 -2.9721 0.9734
-0.8721 -5.9794 -2.9721 0.9734
-0.3364 -6.0333 -2.9721 0.9734
0.2019 -6.0393 -2.9721 0.9734
3.6919 -4.7837 -2.9721 0.9734
4.1030 -4.4361 -2.9721 0.9734
4.4815 -4.0533 -2.9721 0.9734
5.5646 -2.2146 -2.9458 0.9737
5.9572 -0.6664 -2.9483 0.9736
5.8620 1.4662 -2.9721 0.9734
4.6576 3.8497 -2.9721 0.9734
3.9013 4.6145 -2.9721 0.9734
2.5435 5.4812 -2.9721 0.9734
1.5314 5.8454 -2.9721 0.9734
1.0051 5.9585 -2.9721 0.9734
-0.0673 6.0423 -2.9721 0.9734
-0.6048 6.0123 -2.9721 0.9734
-3.1372 5.1645 -2.9721 0.9734
-3.5844 4.8648 -2.9721 0.9734
-4.0032 4.5264 -2.9721 0.9734
-4.3901 4.1522 -2.9721 0.9734
-4.7423 3.7449 -2.9721 0.9734
-5.5632 2.3590 -2.9721 0.9734
-5.7511 1.8545 -2.9721 0.9734
-5.8933 1.3353 -2.9721 0.9734
-5.9887 0.8054 -2.9721 0.9734
-6.0367 0.2692 -2.9721 0.9734
-6.0367 -0.2692 -2.9721 0.9734
-5.3311 -2.8448 -2.9721 0.9734
-4.7423 -3.7449 -2.9721 0.9734
-4.3901 -4.1521 -2.9721 0.9734
-2.6651 -5.4232 -2.9721 0.9734
-1.6613 -5.8098 -2.9721 0.9734
-0.0673 -6.0423 -2.9721 0.9734
1.0051 -5.9585 -2.9721 0.9734
2.0456 -5.6858 -2.9721 0.9734
3.0213 -5.2331 -2.9721 0.9734
3.4751 -4.9434 -2.9721 0.9734
3.9013 -4.6145 -2.9721 0.9734
4.2965 -4.2489 -2.9721 0.9734
4.6549 -3.8473 -2.9703 0.9734
5.2248 -2.9394 -2.9486 0.9736
5.4608 -2.4604 -2.9460 0.9737
5.6576 -1.9645 -2.9457 0.9737
5.9197 -0.9308 -2.9474 0.9736
5.9871 0.6698 -2.9632 0.9735
5.9215 1.2036 -2.9721 0.9734
5.6143 2.2345 -2.9721 0.9734
5.3932 2.7253 -2.9721 0.9734
5.1292 3.1945 -2.9721 0.9734
4.4815 4.0533 -2.9721 0.9734
3.2514 5.0933 -2.9721 0.9734
2.7852 5.3625 -2.9721 0.9734
1.7903 5.7714 -2.9721 0.9734
1.2695 5.9078 -2.9721 0.9734
-0.3364 6.0333 -2.9721 0.9734
-0.8721 5.9794 -2.9721 0.9734
-2.4208 5.5366 -2.9721 0.9734
-2.9040 5.2991 -2.9721 0.9734
-3.7975 4.7003 -2.9721 0.9734
-4.2008 4.3436 -2.9721 0.9734
-4.5708 3.9525 -2.9721 0.9734
-5.1991 3.0795 -2.9721 0.9734
-5.9469 1.0714 -2.9721 0.9734
-5.7973 0.0000 -2.9721 0.9743
-5.5913 -1.5316 -2.9721 0.9743
-5.4328 -2.0232 -2.9721 0.9743
-5.2312 -2.4987 -2.9721 0.9743
-4.9880 -2.9544 -2.9721 0.9743
-4.7053 -3.3866 -2.9721 0.9743
-4.3852 -3.7920 -2.9721 0.9743
-4.0303 -4.1672 -2.9721 0.9743
-2.7861 -5.0839 -2.9721 0.9743
-2.3225 -5.3117 -2.9721 0.9743
-0.3228 -5.7883 -2.9721 0.9743
0.7086 -5.7538 -2.9721 0.9743
2.2036 -5.3621 -2.9721 0.9743
2.6721 -5.1447 -2.9721 0.9743
3.9364 -4.2560 -2.9721 0.9743
4.2996 -3.8887 -2.9721 0.9743
5.3535 -2.1306 -2.9540 0.9744
5.6438 -1.1471 -2.9526 0.9744
5.7293 -0.6409 -2.9556 0.9744
5.7821 0.3871 -2.9710 0.9743
5.4765 1.9017 -2.9721 0.9743
5.2855 2.3816 -2.9721 0.9743
5.0526 2.8426 -2.9721 0.9743
4.7795 3.2810 -2.9721 0.9743
4.4685 3.6934 -2.9721 0.9743
4.1221 4.0764 -2.9721 0.9743
3.3340 4.7427 -2.9721 0.9743
1.9625 5.4550 -2.9721 0.9743
1.4692 5.6080 -2.9721 0.9743
0.9642 5.7165 -2.9721 0.9743
-0.5803 5.7682 -2.9721 0.9743
-1.0914 5.6937 -2.9721 0.9743
-2.0836 5.4100 -2.9721 0.9743
-4.2119 3.9836 -2.9721 0.9743
-4.5497 3.5929 -2.9721 0.9743
-5.1147 2.7293 -2.9721 0.9743
-5.3373 2.2632 -2.9721 0.9743
-5.6540 1.2810 -2.9721 0.9743
-5.7916 0.2583 -2.9721 0.9743
-5.7456 -0.7727 -2.9721 0.9743
-5.1147 -2.7292 -2.9721 0.9743
-3.8406 -4.3426 -2.9721 0.9743
-2.5568 -5.2030 -2.9721 0.9743
-0.0646 -5.7969 -2.9721 0.9743
0.9642 -5.7165 -2.9721 0.9743
1.4692 -5.6080 -2.9721 0.9743
2.4403 -5.2587 -2.9721 0.9743
4.1221 -4.0764 -2.9721 0.9743
4.4685 -3.6933 -2.9721 0.9743
5.2582 -2.3692 -2.9567 0.9744
5.4405 -1.8891 -2.9525 0.9744
5.5860 -1.3971 -2.9520 0.9744
5.7585 -0.3855 -2.9588 0.9744
5.6811 1.1548 -2.9721 0.9743
5.5558 1.6558 -2.9721 0.9743
4.6286 3.4906 -2.9721 0.9743
4.2996 3.8888 -2.9721 0.9743
3.9364 4.2560 -2.9721 0.9743
3.1194 4.8865 -2.9721 0.9743
2.2036 5.3622 -2.9721 0.9743
1.2180 5.6679 -2.9721 0.9743
0.1937 5.7941 -2.9721 0.9743
-0.3228 5.7883 -2.9721 0.9743
-0.8367 5.7366 -2.9721 0.9743
-1.3439 5.6394 -2.9721 0.9743
-2.3225 5.3118 -2.9721 0.9743
-2.7861 5.0840 -2.9721 0.9743
-3.2275 4.8158 -2.9721 0.9743
-4.0302 4.1673 -2.9721 0.9743
-4.7053 3.3866 -2.9721 0.9743
-4.9880 2.9544 -2.9721 0.9743
-5.4328 2.0232 -2.9721 0.9743
-5.5913 1.5316 -2.9721 0.9743
-5.5453 -0.4955 -2.9721 0.9751
-5.2173 -1.9429 -2.9721 0.9751
-4.7902 -2.8372 -2.9721 0.9751
-4.5186 -3.2523 -2.9721 0.9751
-3.4989 -4.3305 -2.9721 0.9751
-2.6756 -4.8823 -2.9721 0.9751
-1.7676 -5.2793 -2.9721 0.9751
-1.2907 -5.4157 -2.9721 0.9751
-0.8035 -5.5091 -2.9721 0.9751
-0.3100 -5.5587 -2.9721 0.9751
0.6805 -5.5256 -2.9721 0.9751
1.6495 -5.3174 -2.9721 0.9751
2.1162 -5.1495 -2.9721 0.9751
3.7803 -4.0872 -2.9721 0.9751
4.7258 -2.9432 -2.9721 0.9751
4.9690 -2.5109 -2.9721 0.9751
5.1676 -2.0566 -2.9692 0.9751
5.5293 -0.6185 -2.9702 0.9751
5.5549 0.3719 -2.9721 0.9751
5.4010 1.3509 -2.9721 0.9751
5.2593 1.8262 -2.9721 0.9751
5.0759 2.2871 -2.9721 0.9751
4.8522 2.7298 -2.9721 0.9751
4.5900 3.1508 -2.9721 0.9751
3.9586 3.9147 -2.9721 0.9751
3.2018 4.5546 -2.9721 0.9751
2.7837 4.8215 -2.9721 0.9751
1.8847 5.2387 -2.9721 0.9751
0.9260 5.4898 -2.9721 0.9751
-1.0481 5.4678 -2.9721 0.9751
-1.5306 5.3529 -2.9721 0.9751
-2.8904 4.7583 -2.9721 0.9751
-3.3025 4.4821 -2.9721 0.9751
-4.0448 3.8256 -2.9721 0.9751
-4.3693 3.4504 -2.9721 0.9751
-5.4298 1.2302 -2.9721 0.9751
-5.5177 0.7421 -2.9721 0.9751
-5.5619 0.2480 -2.9721 0.9751
-5.5619 -0.2480 -2.9721 0.9751
-5.5177 -0.7420 -2.9721 0.9751
-5.4298 -1.2302 -2.9721 0.9751
-5.2987 -1.7086 -2.9721 0.9751
-4.9118 -2.6210 -2.9721 0.9751
-4.0448 -3.8256 -2.9721 0.9751
-2.4554 -4.9966 -2.9721 0.9751
-1.5306 -5.3528 -2.9721 0.9751
-0.5573 -5.5394 -2.9721 0.9751
0.9260 -5.4898 -2.9721 0.9751
1.4109 -5.3856 -2.9721 0.9751
1.8847 -5.2386 -2.9721 0.9751
2.3435 -5.0501 -2.9721 0.9751
2.7837 -4.8214 -2.9721 0.9751
3.9586 -3.9147 -2.9721 0.9751
4.2913 -3.5468 -2.9721 0.9751
5.2526 -1.8238 -2.9683 0.9751
5.3932 -1.3489 -2.9678 0.9751
5.5545 -0.3718 -2.9719 0.9751
5.5660 0.1241 -2.9721 0.9751
5.5328 0.6190 -2.9721 0.9751
5.4558 1.1089 -2.9721 0.9751
4.7258 2.9433 -2.9721 0.9751
4.4450 3.3522 -2.9721 0.9751
4.1290 3.7345 -2.9721 0.9751
2.9957 4.6927 -2.9721 0.9751
2.5661 4.9407 -2.9721 0.9751
2.1162 5.1495 -2.9721 0.9751
1.6495 5.3174 -2.9721 0.9751
0.1860 5.5643 -2.9721 0.9751
-0.3100 5.5587 -2.9721 0.9751
-0.8035 5.5091 -2.9721 0.9751
-1.2906 5.4157 -2.9721 0.9751
-3.0995 4.6248 -2.9721 0.9751
-3.4989 4.3306 -2.9721 0.9751
-4.2112 3.6416 -2.9721 0.9751
-4.7902 2.8372 -2.9721 0.9751
-5.4792 0.9871 -2.9721 0.9751
-5.5453 0.4955 -2.9721 0.9751
-5.3513 0.0000 -2.9721 0.9758
-5.3301 -0.4763 -2.9721 0.9758
-5.2665 -0.9488 -2.9721 0.9758
-5.0149 -1.8675 -2.9721 0.9758
-4.8287 -2.3065 -2.9721 0.9758
-4.6043 -2.7271 -2.9721 0.9758
-4.3433 -3.1261 -2.9721 0.9758
-4.0478 -3.5002 -2.9721 0.9758
-2.1439 -4.9031 -2.9721 0.9758
-1.6990 -5.0744 -2.9721 0.9758
-1.2406 -5.2055 -2.9721 0.9758
-0.7723 -5.2953 -2.9721 0.9758
-0.2979 -5.3430 -2.9721 0.9758
0.1788 -5.3483 -2.9721 0.9758
2.0341 -4.9496 -2.9721 0.9758
2.8794 -4.5106 -2.9721 0.9758
3.9688 -3.5896 -2.9721 0.9758
4.5424 -2.8290 -2.9721 0.9758
4.9720 -1.9788 -2.9721 0.9758
5.1284 -1.5284 -2.9721 0.9758
5.3500 -0.1192 -2.9721 0.9758
5.2863 0.8313 -2.9721 0.9758
4.8789 2.1984 -2.9721 0.9758
4.6639 2.6239 -2.9721 0.9758
4.1248 3.4092 -2.9721 0.9758
3.8050 3.7628 -2.9721 0.9758
3.4549 4.0866 -2.9721 0.9758
3.0775 4.3779 -2.9721 0.9758
2.6757 4.6344 -2.9721 0.9758
2.2525 4.8542 -2.9721 0.9758
1.8116 5.0354 -2.9721 0.9758
1.3562 5.1766 -2.9721 0.9758
0.4169 5.3351 -2.9721 0.9758
-0.5357 5.3245 -2.9721 0.9758
-1.0074 5.2557 -2.9721 0.9758
-1.9233 4.9938 -2.9721 0.9758
-2.3602 4.8028 -2.9721 0.9758
-2.7783 4.5736 -2.9721 0.9758
-3.8879 3.6771 -2.9721 0.9758
-4.9267 2.0891 -2.9721 0.9758
-5.2191 -1.1825 -2.9721 0.9758
-5.0931 -1.6423 -2.9721 0.9758
-4.7212 -2.5193 -2.9721 0.9758
-4.1997 -3.3165 -2.9721 0.9758
-2.7783 -4.5736 -2.9721 0.9758
-2.3601 -4.8027 -2.9721 0.9758
-1.9233 -4.9937 -2.9721 0.9758
-1.0074 -5.2556 -2.9721 0.9758
-0.5357 -5.3244 -2.9721 0.9758
-0.0596 -5.3510 -2.9721 0.9758
0.4169 -5.3350 -2.9721 0.9758
0.8901 -5.2768 -2.9721 0.9758
1.3562 -5.1766 -2.9721 0.9758
1.8116 -5.0353 -2.9721 0.9758
3.0775 -4.3778 -2.9721 0.9758
4.1248 -3.4092 -2.9721 0.9758
4.4118 -3.0285 -2.9721 0.9758
4.6639 -2.6238 -2.9721 0.9758
4.8789 -2.1983 -2.9721 0.9758
5.0552 -1.7554 -2.9721 0.9758
5.1914 -1.2984 -2.9721 0.9758
5.2863 -0.8312 -2.9721 0.9758
5.3181 0.5949 -2.9721 0.9758
4.7761 2.4135 -2.9721 0.9758
4.2725 3.2221 -2.9721 0.9758
3.2695 4.2364 -2.9721 0.9758
2.8794 4.5106 -2.9721 0.9758
2.4666 4.7490 -2.9721 0.9758
2.0341 4.9497 -2.9721 0.9758
1.5855 5.1111 -2.9721 0.9758
1.1242 5.2319 -2.9721 0.9758
0.6541 5.3112 -2.9721 0.9758
0.1788 5.3483 -2.9721 0.9758
-0.7723 5.2953 -2.9721 0.9758
-1.2406 5.2056 -2.9721 0.9758
-2.5718 4.6929 -2.9721 0.9758
-2.9792 4.4453 -2.9721 0.9758
-3.3631 4.1625 -2.9721 0.9758
-3.7202 3.8467 -2.9721 0.9758
-4.0478 3.5003 -2.9721 0.9758
-4.3433 3.1261 -2.9721 0.9758
-4.6043 2.7271 -2.9721 0.9758
-4.8288 2.3065 -2.9721 0.9758
-5.1612 1.4138 -2.9721 0.9758
-5.2665 0.9488 -2.9721 0.9758
-5.1478 0.0000 -2.9721 0.9765
-4.8242 -1.7965 -2.9721 0.9765
-4.6451 -2.2188 -2.9721 0.9765
-4.4292 -2.6234 -2.9721 0.9765
-4.1781 -3.0072 -2.9721 0.9765
-3.5787 -3.7004 -2.9721 0.9765
-2.4740 -4.5144 -2.9721 0.9765
-2.0623 -4.7167 -2.9721 0.9765
-0.2866 -5.1398 -2.9721 0.9765
0.1720 -5.1449 -2.9721 0.9765
1.5252 -4.9167 -2.9721 0.9765
1.9567 -4.7614 -2.9721 0.9765
2.3727 -4.5684 -2.9721 0.9765
3.4954 -3.7792 -2.9721 0.9765
3.8179 -3.4531 -2.9721 0.9765
4.1101 -3.0995 -2.9721 0.9765
4.5945 -2.3217 -2.9721 0.9765
4.7829 -1.9036 -2.9721 0.9765
4.9334 -1.4703 -2.9721 0.9765
5.1159 -0.5723 -2.9721 0.9765
5.1363 0.3438 -2.9721 0.9765
5.0853 0.7997 -2.9721 0.9765
4.9940 1.2491 -2.9721 0.9765
4.6934 2.1148 -2.9721 0.9765
4.4865 2.5241 -2.9721 0.9765
4.2441 2.9134 -2.9721 0.9765
3.9679 3.2796 -2.9721 0.9765
3.3236 3.9312 -2.9721 0.9765
2.9605 4.2114 -2.9721 0.9765
2.5739 4.4582 -2.9721 0.9765
1.7427 4.8439 -2.9721 0.9765
1.3046 4.9798 -2.9721 0.9765
0.4010 5.1322 -2.9721 0.9765
-0.5153 5.1220 -2.9721 0.9765
-1.4153 4.9495 -2.9721 0.9765
-2.2704 4.6201 -2.9721 0.9765
-3.4104 3.8562 -2.9721 0.9765
-3.7400 3.5373 -2.9721 0.9765
-4.0400 3.1904 -2.9721 0.9765
-4.3079 2.8181 -2.9721 0.9765
-4.7394 2.0097 -2.9721 0.9765
-4.8994 1.5799 -2.9721 0.9765
-5.0206 1.1375 -2.9721 0.9765
-5.1019 0.6861 -2.9721 0.9765
-5.1019 -0.6861 -2.9721 0.9765
-4.8994 -1.5798 -2.9721 0.9765
-4.5417 -2.4235 -2.9721 0.9765
-4.3079 -2.8181 -2.9721 0.9765
-3.7400 -3.5373 -2.9721 0.9765
-3.0536 -4.1443 -2.9721 0.9765
-2.2704 -4.6201 -2.9721 0.9765
-1.8502 -4.8038 -2.9721 0.9765
-1.4153 -4.9495 -2.9721 0.9765
-0.9691 -5.0558 -2.9721 0.9765
-0.5153 -5.1220 -2.9721 0.9765
-0.0574 -5.1475 -2.9721 0.9765
0.4010 -5.1322 -2.9721 0.9765
1.3046 -4.9798 -2.9721 0.9765
2.9605 -4.2114 -2.9721 0.9765
3.3236 -3.9311 -2.9721 0.9765
3.6603 -3.6197 -2.9721 0.9765
4.4865 -2.5241 -2.9721 0.9765
4.6934 -2.1147 -2.9721 0.9765
4.8630 -1.6886 -2.9721 0.9765
4.9940 -1.2491 -2.9721 0.9765
5.0853 -0.7996 -2.9721 0.9765
5.1363 -0.3438 -2.9721 0.9765
5.1465 0.1147 -2.9721 0.9765
5.1159 0.5723 -2.9721 0.9765
5.0447 1.0254 -2.9721 0.9765
4.9334 1.4703 -2.9721 0.9765
4.7829 1.9036 -2.9721 0.9765
3.4954 3.7792 -2.9721 0.9765
3.1452 4.0753 -2.9721 0.9765
2.7699 4.3391 -2.9721 0.9765
1.5252 4.9167 -2.9721 0.9765
1.0815 5.0330 -2.9721 0.9765
0.1720 5.1450 -2.9721 0.9765
-0.2866 5.1399 -2.9721 0.9765
-1.6344 4.8815 -2.9721 0.9765
-2.0623 4.7167 -2.9721 0.9765
-2.4740 4.5144 -2.9721 0.9765
-3.2352 4.0042 -2.9721 0.9765
-3.5787 3.7004 -2.9721 0.9765
-3.8939 3.3672 -2.9721 0.9765
-4.1781 3.0072 -2.9721 0.9765
-4.4292 2.6234 -2.9721 0.9765
-4.6451 2.2188 -2.9721 0.9765
-4.8242 1.7966 -2.9721 0.9765
-4.9649 1.3600 -2.9721 0.9765
-5.0663 0.9128 -2.9721 0.9765
-5.1274 0.4582 -2.9721 0.9765
