ply
format ascii 1.0
element vertex 1649
property float32 x
property float32 y
property float32 z
property float32 I
end_header
-3.8613 -4.7792 3.5474 0.9720
4.8065 8.3251 5.3390 0.9570
6.1578 7.9789 5.5977 0.9549
5.2608 8.2409 5.4301 0.9563
1.9066 8.8725 5.0403 0.9593
2.3214 8.8607 4.8899 0.9593
-5.1201 -8.4289 5.2648 0.9563
2.7295 8.7991 4.9181 0.9591
7.3087 7.9021 5.5183 0.9528
1.9067 8.8732 4.6529 0.9600
-4.1899 -5.6865 3.4742 0.9690
1.9068 8.8736 4.2783 0.9607
1.9069 8.8738 4.0954 0.9610
1.9069 8.8740 3.9153 0.9612
1.9069 8.8742 3.7377 0.9615
-5.8662 -10.7044 4.7906 0.9489
1.9070 8.8746 3.3895 0.9620
-6.0167 -10.9791 4.4393 0.9483
6.6129 7.8218 3.6319 0.9575
5.6530 8.0415 3.4855 0.9591
5.2161 8.1709 3.4373 0.9597
-6.0165 -10.9788 4.2063 0.9485
7.6559 7.5711 3.6176 0.9556
4.7669 8.2565 3.2032 0.9606
7.1487 7.7291 3.5373 0.9565
4.3364 8.3490 3.1609 0.9611
-6.0164 -10.9785 3.9758 0.9488
3.9258 8.4600 2.9619 0.9616
8.2780 7.4870 3.5447 0.9542
3.5079 8.5360 2.9309 0.9620
1.9072 8.8751 2.8830 0.9626
-6.0162 -10.9782 3.7478 0.9491
3.1086 8.6406 2.7491 0.9624
-5.2071 -8.5720 3.0027 0.9590
9.5211 7.1802 3.5701 0.9514
2.7063 8.7243 2.7347 0.9626
1.9072 8.8753 2.7178 0.9628
-6.0160 -10.9779 3.5221 0.9493
-5.4256 -8.9317 2.9403 0.9575
10.9401 6.8136 3.6262 0.9479
2.7288 8.7967 2.5914 0.9625
1.9072 8.8755 2.5542 0.9630
-6.0159 -10.9776 3.2985 0.9495
-6.0157 -10.9773 3.0768 0.9497
1.9073 8.8758 2.2315 0.9633
-6.0156 -10.9770 2.8570 0.9499
1.9073 8.8760 2.0721 0.9634
-5.7462 -10.4854 2.5207 0.9523
1.9074 8.8762 1.9140 0.9636
-6.0151 -10.9762 2.2070 0.9504
1.9074 8.8765 1.6009 0.9638
-6.0149 -10.9759 1.9930 0.9506
7.8892 1.6036 1.2819 0.9679
1.9075 8.8767 1.4458 0.9639
-6.0148 -10.9756 1.7802 0.9507
7.6340 1.2004 1.0992 0.9693
7.5153 1.8797 1.1019 0.9692
1.9075 8.8768 1.2914 0.9640
-6.0146 -10.9753 1.5684 0.9508
7.4254 1.1676 0.9420 0.9702
7.7151 0.8631 0.9729 0.9692
7.3031 1.4844 0.9339 0.9704
1.9076 8.8770 1.1378 0.9641
-6.0145 -10.9750 1.3575 0.9509
7.2742 1.1438 0.7987 0.9708
7.7452 2.6894 0.8893 0.9676
-6.0143 -10.9747 1.1473 0.9510
7.1622 1.1262 0.6647 0.9713
7.0342 1.7594 0.6647 0.9713
7.3953 2.5679 0.7177 0.9690
7.0587 1.4347 0.6604 0.9715
7.1171 2.1211 0.6808 0.9706
1.9076 8.8774 0.8324 0.9642
-6.0142 -10.9745 0.9378 0.9510
7.0732 1.1122 0.5366 0.9717
6.9489 1.7381 0.5368 0.9717
7.0065 2.0882 0.5479 0.9711
1.9077 8.8775 0.6805 0.9642
-6.0140 -10.9742 0.7289 0.9511
7.4726 0.5002 0.4362 0.9704
6.8846 1.7219 0.4133 0.9720
7.1061 2.4675 0.4381 0.9703
8.3531 0.1861 0.4866 0.9671
6.9123 1.4050 0.4108 0.9721
-6.0139 -10.9739 0.5203 0.9511
7.3781 0.4939 0.3075 0.9708
6.8222 1.7064 0.2924 0.9722
6.8512 1.3926 0.2907 0.9724
1.9077 8.8778 0.3776 0.9643
6.9049 1.0858 0.1743 0.9724
6.9470 2.4123 0.1834 0.9710
7.8298 0.1745 0.1953 0.9691
7.0619 0.7900 0.1772 0.9720
6.8169 1.3856 0.1735 0.9725
-6.0136 -10.9734 0.1040 0.9512
6.8691 1.0801 0.0578 0.9726
7.7194 0.1720 0.0642 0.9696
7.0211 0.7854 0.0587 0.9721
6.7841 2.0219 0.0588 0.9721
7.2391 2.8811 0.0648 0.9693
1.9078 8.8782 0.0755 0.9643
-6.0134 -10.9731 -0.1040 0.9512
6.8388 1.0754 -0.0575 0.9727
6.7240 1.6818 -0.0576 0.9727
7.1727 2.8546 -0.0642 0.9696
6.7410 2.0090 -0.1754 0.9722
7.1469 2.8444 -0.1918 0.9697
1.9079 8.8785 -0.2265 0.9643
-6.0131 -10.9726 -0.5202 0.9511
6.7025 1.6764 -0.2873 0.9727
6.8351 2.3734 -0.3008 0.9714
6.7331 1.3685 -0.2857 0.9729
6.7293 2.0055 -0.2920 0.9723
7.1212 2.8342 -0.3187 0.9698
1.9079 8.8787 -0.3776 0.9643
7.6173 0.1698 -0.4438 0.9699
6.7273 1.3674 -0.3998 0.9729
6.7248 2.0042 -0.4087 0.9723
-6.0128 -10.9720 -0.9376 0.9511
6.8228 1.0728 -0.5176 0.9727
6.8475 2.3777 -0.5432 0.9713
6.9700 0.7797 -0.5256 0.9723
6.7388 1.3697 -0.5153 0.9728
-6.0127 -10.9717 -1.1470 0.9510
7.2290 0.4839 -0.6642 0.9713
6.8350 1.0748 -0.6343 0.9726
6.7205 1.6809 -0.6351 0.9726
7.6665 0.1709 -0.7030 0.9697
6.9838 0.7813 -0.6443 0.9722
7.1810 2.8580 -0.7086 0.9694
-6.0125 -10.9714 -1.3570 0.9509
6.7400 1.6858 -0.7536 0.9724
6.8969 2.3949 -0.7919 0.9711
7.7514 0.1727 -0.8410 0.9693
7.0095 0.7841 -0.7650 0.9720
6.7687 1.3758 -0.7492 0.9726
6.7741 2.0189 -0.7667 0.9720
7.2684 2.8928 -0.8485 0.9690
-6.0124 -10.9712 -1.5678 0.9508
6.8934 1.0839 -0.8745 0.9723
6.9473 2.4124 -0.9216 0.9708
7.8772 0.1756 -0.9874 0.9687
7.0532 0.7890 -0.8894 0.9718
6.8050 1.3832 -0.8702 0.9724
6.8142 2.0308 -0.8910 0.9717
1.9081 8.8795 -1.1381 0.9640
7.3822 0.4942 -1.0524 0.9705
6.8141 1.7043 -0.9991 0.9720
1.9081 8.8797 -1.2918 0.9640
-9.0677 -11.2232 -2.2976 0.9432
-6.0121 -10.9706 -1.9920 0.9506
6.8723 1.7189 -1.1280 0.9717
7.1260 2.4744 -1.2012 0.9699
7.1727 0.8024 -1.1493 0.9712
6.8976 1.4020 -1.1208 0.9719
-9.0086 -11.1501 -2.5276 0.9434
7.2492 2.5172 -1.3531 0.9693
7.2583 0.8120 -1.2878 0.9708
7.0097 2.0891 -1.2897 0.9707
-6.0117 -10.9700 -2.4208 0.9503
-5.8901 -13.4710 -2.8452 0.9419
-4.6477 -13.8818 -2.8329 0.9421
2.4248 14.3755 -2.8212 0.9423
1.1386 14.5714 -2.8284 0.9422
-1.4674 14.5867 -2.8370 0.9420
-2.7644 14.4216 -2.8416 0.9419
-4.0171 -14.0485 -2.8276 0.9422
-2.7421 -14.3052 -2.8187 0.9424
7.0540 1.4338 -1.3930 0.9711
1.9082 8.8802 -1.7577 0.9637
-2.1175 14.5186 -2.8393 0.9420
-4.6736 13.9593 -2.8487 0.9418
-14.4465 0.0000 -3.0456 0.9427
-13.9462 -3.8202 -3.0484 0.9426
-11.1353 -8.0147 -2.8924 0.9455
-10.3799 -8.9758 -2.8930 0.9454
-9.5398 -9.8641 -2.8930 0.9454
-7.6100 -11.3549 -2.8817 0.9457
-5.4698 -12.5097 -2.8784 0.9457
-3.1255 -13.1150 -2.8423 0.9464
1.7123 -13.9032 -2.9532 0.9443
2.9403 -13.6831 -2.9505 0.9444
7.5084 -11.7617 -2.9418 0.9446
12.9333 -5.1473 -2.9346 0.9447
13.3356 -3.9745 -2.9336 0.9447
13.9222 -0.3102 -2.9358 0.9447
13.9010 0.9305 -2.9372 0.9446
7.2920 1.1466 -1.5562 0.9703
12.7405 5.7406 -2.9460 0.9445
9.0533 10.7084 -2.9562 0.9443
7.0230 12.1642 -2.9612 0.9442
5.9183 12.7536 -2.9641 0.9441
3.3897 12.9385 -2.8197 0.9468
2.2274 13.2051 -2.8232 0.9467
-1.3477 13.3961 -2.8384 0.9464
-2.5384 13.2427 -2.8426 0.9464
-3.7127 12.9840 -2.8470 0.9463
-4.8611 12.6215 -2.8514 0.9462
-5.9744 12.1576 -2.8558 0.9461
-7.0437 11.5956 -2.8603 0.9460
-9.8868 9.3508 -2.8689 0.9459
-11.2601 8.8920 -3.0248 0.9430
-12.6882 6.7707 -3.0319 0.9429
-13.2544 5.6204 -3.0351 0.9428
-14.0664 3.1870 -3.0406 0.9427
-14.3264 -1.9267 -3.0475 0.9426
-14.1015 -3.1950 -3.0482 0.9426
-13.3129 -5.6451 -3.0485 0.9426
-9.0902 -10.2784 -2.8927 0.9455
-8.1213 -11.0224 -2.8864 0.9456
-7.0808 -11.6566 -2.8753 0.9458
-6.0033 -12.2163 -2.8696 0.9459
-4.9136 -12.7578 -2.8822 0.9456
-0.1563 -14.0275 -2.9575 0.9443
1.0918 -13.9724 -2.9546 0.9443
2.3289 -13.8067 -2.9518 0.9444
5.8794 -12.6698 -2.9446 0.9445
9.0020 -10.6476 -2.9395 0.9446
10.7396 -8.8765 -2.9374 0.9446
12.1393 -6.8295 -2.9364 0.9447
13.5003 -3.3766 -2.9338 0.9447
13.7500 -2.1621 -2.9344 0.9447
13.9251 0.3103 -2.9364 0.9447
7.1756 1.4585 -1.5437 0.9705
12.9777 5.1650 -2.9447 0.9445
11.8789 7.3983 -2.9503 0.9444
10.3899 9.3971 -2.9534 0.9443
9.5181 10.2908 -2.9552 0.9443
8.5705 11.1052 -2.9573 0.9443
7.5544 11.8338 -2.9598 0.9442
6.4772 12.4710 -2.9626 0.9442
1.9083 8.8803 -1.9149 0.9636
0.4489 13.4276 -2.8324 0.9466
-0.7490 13.4331 -2.8363 0.9465
-3.1282 13.1264 -2.8448 0.9463
-4.2907 12.8156 -2.8492 0.9463
-5.4227 12.4020 -2.8536 0.9462
-7.5591 11.2790 -2.8625 0.9460
-8.5460 10.5776 -2.8668 0.9459
-13.4983 5.0268 -3.0366 0.9428
-13.9047 3.8089 -3.0394 0.9428
-13.2801 -1.1867 -3.0432 0.9468
-11.4743 -6.7962 -3.0438 0.9468
-7.9480 -9.8373 -2.8866 0.9494
-6.0114 -10.9695 -2.8550 0.9500
-5.0559 -11.5631 -2.8805 0.9495
-3.9996 -11.9460 -2.8754 0.9496
-2.9148 -12.2309 -2.8698 0.9497
-1.8812 -12.8983 -2.9751 0.9479
-0.7220 -12.9476 -2.9598 0.9482
1.5823 -12.8471 -2.9544 0.9483
5.9491 -11.4540 -2.9459 0.9484
7.8771 -10.2067 -2.9427 0.9485
11.9528 -4.7571 -2.9363 0.9486
12.3294 -3.6746 -2.9364 0.9486
12.7903 -1.4308 -2.9375 0.9486
12.8518 0.8603 -2.9399 0.9485
7.4888 1.1776 -1.7303 0.9694
12.1918 4.2335 -2.9457 0.9484
11.2670 6.3387 -2.9507 0.9483
10.6682 7.3233 -2.9534 0.9483
9.9829 8.2511 -2.9561 0.9482
9.2136 9.1115 -2.9576 0.9482
8.3712 9.9015 -2.9594 0.9482
6.4930 11.2462 -2.9640 0.9481
4.4045 12.2426 -2.9696 0.9480
3.1331 11.9592 -2.8217 0.9505
-0.1384 12.4239 -2.8358 0.9503
-5.5181 11.2290 -2.8557 0.9500
-6.5050 10.7086 -2.8598 0.9499
-7.4424 10.1009 -2.8637 0.9498
-8.3156 9.4025 -2.8649 0.9498
-10.3935 8.2077 -3.0228 0.9471
-11.0953 7.2582 -3.0262 0.9471
-12.2311 5.1865 -3.0323 0.9470
-13.3112 0.5936 -3.0412 0.9468
-12.6959 -4.0939 -3.0447 0.9467
-11.7670 -6.2790 -3.0442 0.9467
-10.0068 -7.9022 -2.9103 0.9490
-7.5006 -10.1798 -2.8861 0.9494
-5.5698 -11.3341 -2.8824 0.9495
-3.4600 -12.1003 -2.8725 0.9497
-2.4741 -12.9074 -2.9997 0.9475
-1.3000 -12.9228 -2.9644 0.9481
-0.1444 -12.9601 -2.9582 0.9482
4.3737 -12.1569 -2.9489 0.9484
9.9291 -8.2066 -2.9401 0.9485
10.6166 -7.2881 -2.9392 0.9485
11.2171 -6.3107 -2.9376 0.9486
11.7292 -5.2849 -2.9363 0.9486
12.1530 -4.2200 -2.9363 0.9486
12.4816 -3.1218 -2.9366 0.9486
12.8432 -0.8597 -2.9379 0.9486
7.3514 1.4942 -1.7122 0.9697
11.9958 4.7743 -2.9469 0.9484
11.5331 5.8279 -2.9493 0.9484
8.8011 9.5158 -2.9584 0.9482
7.9246 10.2682 -2.9604 0.9482
6.9846 10.9412 -2.9627 0.9481
5.9882 11.5294 -2.9653 0.9481
4.9430 12.0282 -2.9681 0.9480
0.4149 12.4101 -2.8341 0.9503
-1.7967 12.3193 -2.8415 0.9502
-2.8901 12.1274 -2.8455 0.9501
-3.9636 11.8388 -2.8495 0.9501
-5.0088 11.4554 -2.8536 0.9500
-6.0172 10.9799 -2.8577 0.9499
-6.9805 10.4156 -2.8618 0.9499
-8.7278 9.0245 -2.8655 0.9498
-9.8961 8.5575 -2.9861 0.9477
-10.7550 7.7410 -3.0245 0.9471
-11.4137 6.7604 -3.0278 0.9470
-11.9823 5.7235 -3.0309 0.9470
-12.4557 4.6386 -3.0337 0.9469
-13.1014 2.3603 -3.0384 0.9468
-13.2679 1.1856 -3.0404 0.9468
-12.3629 0.0000 -3.0388 0.9504
-12.3185 -1.1008 -3.0399 0.9503
-11.9331 -3.2688 -3.0412 0.9503
-11.5953 -4.3181 -3.0413 0.9503
-11.1641 -5.3326 -3.0411 0.9503
-10.6432 -6.3040 -3.0405 0.9503
-10.0369 -7.2241 -3.0396 0.9503
-9.3249 -8.0635 -3.0302 0.9505
-8.1525 -8.4296 -2.8825 0.9528
-7.3675 -9.1189 -2.8816 0.9529
-6.5243 -9.7349 -2.8805 0.9529
-1.7567 -12.0451 -2.9920 0.9511
-0.6706 -12.0267 -2.9608 0.9516
1.4696 -11.9326 -2.9552 0.9517
3.5569 -11.4664 -2.9509 0.9518
4.5611 -11.0989 -2.9495 0.9518
5.5279 -10.6430 -2.9479 0.9518
7.3199 -9.4847 -2.9449 0.9518
9.5503 -7.2022 -2.9402 0.9519
11.1083 -4.4210 -2.9387 0.9519
11.7182 -2.3818 -2.9392 0.9519
11.9618 -0.2665 -2.9409 0.9519
11.9434 0.7995 -2.9423 0.9519
7.8035 1.9518 -1.9772 0.9674
11.3285 3.9337 -2.9476 0.9518
10.9417 4.9301 -2.9499 0.9518
9.9109 6.8035 -2.9549 0.9517
9.2746 7.6657 -2.9576 0.9516
8.5638 8.4689 -2.9604 0.9516
6.0342 10.4515 -2.9664 0.9515
5.0843 10.9564 -2.9689 0.9515
4.0927 11.3760 -2.9717 0.9514
2.9111 11.1118 -2.8234 0.9538
0.8982 11.4953 -2.8341 0.9536
-0.1286 11.5419 -2.8372 0.9536
-2.1784 11.3645 -2.8443 0.9535
-3.1854 11.1401 -2.8480 0.9534
-4.1698 10.8267 -2.8518 0.9533
-5.1237 10.4265 -2.8556 0.9533
-6.9050 9.3716 -2.8613 0.9532
-7.7149 8.7233 -2.8624 0.9532
-8.7163 8.2438 -2.9489 0.9518
-9.6456 7.6170 -3.0210 0.9506
-10.2960 6.7353 -3.0242 0.9506
-11.3484 4.8121 -3.0298 0.9505
-12.2590 -1.6487 -3.0404 0.9503
-11.7759 -3.7973 -3.0413 0.9503
-10.3504 -6.7709 -3.0401 0.9503
-7.7673 -8.7826 -2.8819 0.9529
-5.1635 -10.5073 -2.8777 0.9529
-4.2024 -10.9113 -2.8740 0.9530
-3.2096 -11.2246 -2.8696 0.9530
-2.3130 -12.0669 -3.0200 0.9507
-0.1341 -12.0387 -2.9593 0.9516
0.9370 -11.9915 -2.9565 0.9517
3.0433 -11.6161 -2.9516 0.9517
4.0632 -11.2939 -2.9502 0.9518
5.0497 -10.8819 -2.9487 0.9518
8.5122 -8.4179 -2.9426 0.9519
9.2227 -7.6227 -2.9410 0.9519
11.8138 -1.8576 -2.9395 0.9519
11.9358 -0.7990 -2.9404 0.9519
11.9644 0.2667 -2.9416 0.9519
11.8990 1.3311 -2.9430 0.9519
11.4884 3.4239 -2.9466 0.9518
10.1996 6.3524 -2.9535 0.9517
9.6024 7.2415 -2.9562 0.9517
8.9282 8.0751 -2.9590 0.9516
8.1803 8.8445 -2.9613 0.9516
4.5933 11.1771 -2.9703 0.9514
1.4064 11.4191 -2.8280 0.9537
0.3855 11.5295 -2.8355 0.9536
-0.6430 11.5316 -2.8389 0.9535
-1.6689 11.4430 -2.8424 0.9535
-3.6810 10.9944 -2.8499 0.9534
-5.5869 10.1947 -2.8575 0.9532
-6.4791 9.6675 -2.8606 0.9532
-8.0972 8.3725 -2.8629 0.9532
-11.1179 5.3106 -3.0285 0.9505
-12.1540 2.1897 -3.0356 0.9504
-11.5220 0.0000 -3.0360 0.9535
-11.4803 -1.0259 -3.0371 0.9534
-11.3462 -2.0441 -3.0379 0.9534
-11.1209 -3.0463 -3.0383 0.9534
-10.8060 -4.0242 -3.0384 0.9534
-10.4042 -4.9697 -3.0382 0.9534
-9.9189 -5.8749 -3.0377 0.9534
-9.3540 -6.7326 -3.0368 0.9534
-8.0052 -8.2773 -3.0342 0.9535
-7.0298 -8.7008 -2.9475 0.9548
-5.2430 -9.5673 -2.8747 0.9559
-4.3667 -9.9869 -2.8721 0.9559
-1.6491 -11.3073 -3.0110 0.9538
-0.6269 -11.2424 -2.9670 0.9545
1.3715 -11.1354 -2.9564 0.9547
2.3552 -10.9602 -2.9540 0.9547
4.2553 -10.3546 -2.9498 0.9547
5.1568 -9.9286 -2.9480 0.9548
6.0167 -9.4250 -2.9464 0.9548
6.8283 -8.8477 -2.9449 0.9548
7.5855 -8.2014 -2.9437 0.9548
8.2825 -7.4911 -2.9427 0.9549
9.9615 -5.0338 -2.9410 0.9549
10.3696 -4.1270 -2.9408 0.9549
10.9389 -2.2235 -2.9413 0.9549
11.0962 -1.2413 -2.9421 0.9549
11.1489 0.7464 -2.9443 0.9548
11.0437 1.7366 -2.9458 0.9548
10.8515 2.7142 -2.9475 0.9548
10.5736 3.6716 -2.9493 0.9548
10.2121 4.6014 -2.9514 0.9547
7.2637 8.5916 -2.9646 0.9545
6.4743 9.2098 -2.9664 0.9545
4.7459 10.2272 -2.9709 0.9544
2.7170 10.3708 -2.8249 0.9566
0.8369 10.7100 -2.8307 0.9565
-0.1200 10.7712 -2.8384 0.9564
-2.9719 10.3933 -2.8484 0.9563
-4.7794 9.7258 -2.8555 0.9562
-5.6308 9.2695 -2.8578 0.9561
-6.4364 8.7356 -2.8592 0.9561
-7.1912 8.1312 -2.8603 0.9561
-9.5988 6.2792 -3.0224 0.9537
-10.1288 5.4049 -3.0252 0.9536
-10.5786 4.4857 -3.0277 0.9536
-11.4111 1.5347 -3.0339 0.9535
-11.5127 -0.5133 -3.0366 0.9534
-11.2449 -2.5477 -3.0381 0.9534
-10.9745 -3.5388 -3.0384 0.9534
-9.0432 -7.1413 -3.0363 0.9535
-8.3681 -7.9145 -3.0350 0.9535
-7.5584 -8.5463 -3.0063 0.9539
-6.5199 -8.8488 -2.8962 0.9556
-5.6657 -9.3271 -2.8756 0.9559
-3.9155 -10.1664 -2.8707 0.9559
-3.1526 -11.0252 -3.0216 0.9537
-2.1566 -11.2509 -3.0186 0.9537
-1.1312 -11.2446 -2.9779 0.9543
-0.1252 -11.2336 -2.9602 0.9546
0.8744 -11.1902 -2.9576 0.9546
6.4289 -9.1453 -2.9456 0.9548
8.6067 -7.1137 -2.9423 0.9549
9.2036 -6.3179 -2.9416 0.9549
9.7278 -5.4728 -2.9411 0.9549
10.1755 -4.5849 -2.9409 0.9549
10.5433 -3.6610 -2.9409 0.9549
10.8281 -2.7083 -2.9411 0.9549
11.1423 -0.7459 -2.9426 0.9549
11.1073 1.2425 -2.9450 0.9548
10.7232 3.1959 -2.9484 0.9548
10.0007 5.0536 -2.9525 0.9547
8.9608 6.7577 -2.9573 0.9546
8.3377 7.5410 -2.9623 0.9546
7.6371 8.2572 -2.9637 0.9545
3.3448 10.7828 -2.9748 0.9544
1.3125 10.6565 -2.8292 0.9566
0.3598 10.7603 -2.8369 0.9564
-0.6000 10.7609 -2.8399 0.9564
-2.5044 10.5089 -2.8466 0.9563
-5.2109 9.5087 -2.8571 0.9561
-9.3051 6.6974 -3.0210 0.9537
-10.7722 4.0116 -3.0289 0.9536
-11.3282 2.0409 -3.0330 0.9535
-11.4711 1.0251 -3.0347 0.9535
-10.7822 0.0000 -3.0336 0.9562
-10.6173 -1.9128 -3.0353 0.9562
-10.4063 -2.8506 -3.0357 0.9562
-9.2817 -5.4975 -3.0352 0.9562
-8.1548 -7.0517 -3.0333 0.9562
-6.7687 -8.3776 -3.0303 0.9562
-4.2621 -9.7476 -2.9933 0.9568
-1.5470 -10.6067 -3.0158 0.9564
-0.5881 -10.5469 -2.9720 0.9571
0.3515 -10.5140 -2.9598 0.9572
1.2849 -10.4325 -2.9574 0.9573
2.2066 -10.2688 -2.9552 0.9573
4.8319 -9.3030 -2.9495 0.9574
5.6378 -8.8314 -2.9479 0.9574
7.1082 -7.6853 -2.9454 0.9574
7.7615 -7.0199 -2.9444 0.9574
8.8793 -5.5301 -2.9431 0.9575
9.3351 -4.7174 -2.9428 0.9575
9.7177 -3.8675 -2.9427 0.9575
10.4645 -0.2332 -2.9450 0.9574
9.9077 3.4403 -2.9509 0.9574
9.5684 4.3114 -2.9528 0.9573
8.6652 5.9484 -2.9572 0.9573
8.1200 6.7114 -2.9640 0.9572
4.4473 9.5837 -2.9726 0.9570
2.5458 9.7174 -2.8263 0.9591
0.7854 10.0505 -2.8364 0.9590
-0.1124 10.0914 -2.8394 0.9589
-1.9039 9.9326 -2.8455 0.9588
-3.6432 9.4594 -2.8520 0.9588
-5.2702 8.6759 -2.8561 0.9587
-6.0241 8.1759 -2.8573 0.9587
-6.8485 7.7438 -2.9086 0.9580
-9.4806 5.0590 -3.0235 0.9563
-9.9011 4.1984 -3.0258 0.9563
-10.2428 3.3029 -3.0280 0.9563
-10.6788 1.4362 -3.0316 0.9562
-10.7693 0.4802 -3.0330 0.9562
-10.6908 -1.4378 -3.0350 0.9562
-9.9336 -4.2122 -3.0358 0.9562
-9.5182 -5.0791 -3.0354 0.9562
-9.0265 -5.9048 -3.0348 0.9562
-5.5278 -9.1000 -2.9957 0.9567
-4.6590 -9.4807 -2.9721 0.9571
-2.9510 -10.3204 -3.0201 0.9564
-2.0189 -10.5323 -3.0173 0.9564
-1.0659 -10.5951 -2.9960 0.9567
1.7476 -10.3608 -2.9563 0.9573
3.5519 -9.8728 -2.9521 0.9573
5.2401 -9.0761 -2.9487 0.9574
6.0242 -8.5695 -2.9472 0.9574
6.7601 -7.9958 -2.9460 0.9574
7.4422 -7.3598 -2.9449 0.9574
8.0654 -6.6662 -2.9440 0.9575
8.6248 -5.9206 -2.9434 0.9575
9.5358 -4.2966 -2.9427 0.9575
9.8804 -3.4308 -2.9427 0.9575
10.4665 0.2333 -2.9455 0.9574
10.2688 2.0872 -2.9483 0.9574
10.0480 2.9946 -2.9499 0.9574
9.7477 3.8795 -2.9518 0.9573
7.1577 7.7388 -2.9659 0.9571
6.4440 8.3498 -2.9675 0.9571
5.6788 8.8958 -2.9694 0.9571
4.8679 9.3725 -2.9715 0.9571
3.1341 10.1034 -2.9763 0.9570
1.2312 9.9966 -2.8339 0.9590
-1.4588 10.0020 -2.8439 0.9589
-2.3458 9.8435 -2.8471 0.9588
-3.2164 9.6068 -2.8504 0.9588
-4.0634 9.2932 -2.8537 0.9587
-5.6527 8.4344 -2.8567 0.9587
-6.3835 7.9009 -2.8579 0.9587
-7.4465 7.6996 -3.0137 0.9565
-8.1102 7.0132 -3.0167 0.9564
-8.7104 6.2694 -3.0195 0.9564
-10.7348 0.9593 -3.0323 0.9562
-9.9707 -1.7963 -3.0331 0.9586
-9.4957 -3.5362 -3.0336 0.9586
-8.7164 -5.1627 -3.0329 0.9586
-7.6585 -6.6225 -3.0312 0.9586
-5.6283 -8.3979 -3.0266 0.9587
-4.8553 -8.8597 -3.0246 0.9587
-3.2026 -9.5657 -3.0200 0.9588
-0.5545 -9.9445 -2.9818 0.9593
2.0745 -9.6541 -2.9562 0.9596
2.9236 -9.4248 -2.9542 0.9596
4.5429 -8.7467 -2.9507 0.9597
6.6837 -7.2263 -2.9469 0.9597
8.3494 -5.2000 -2.9448 0.9598
9.1381 -3.6369 -2.9445 0.9598
9.7787 -1.0939 -2.9458 0.9597
8.9961 4.0535 -2.9540 0.9596
7.6364 6.3117 -2.9660 0.9595
6.4019 7.5722 -2.9686 0.9594
2.3935 9.1360 -2.8274 0.9613
-0.1057 9.4871 -2.8404 0.9612
-2.6163 9.1498 -2.8490 0.9610
-3.4234 8.8887 -2.8516 0.9610
-4.9502 8.1491 -2.8545 0.9610
-5.6581 7.6793 -2.8557 0.9610
-6.6636 7.5347 -3.0113 0.9589
-7.3147 6.9182 -3.0142 0.9588
-7.9086 6.2454 -3.0169 0.9588
-9.8643 2.2349 -3.0280 0.9586
-10.0292 1.3488 -3.0296 0.9586
-10.1175 -0.4511 -3.0320 0.9586
-10.0398 -1.3502 -3.0328 0.9586
-9.8815 -2.2388 -3.0333 0.9586
-9.6438 -3.1097 -3.0335 0.9586
-8.9385 -4.7697 -3.0332 0.9586
-8.4768 -5.5453 -3.0326 0.9586
-7.3544 -6.9558 -3.0306 0.9586
-5.9986 -8.1413 -3.0275 0.9587
-3.6270 -9.4173 -3.0212 0.9587
-1.0064 -10.0042 -3.0102 0.9589
1.6430 -9.7404 -2.9573 0.9596
2.5017 -9.5488 -2.9552 0.9596
4.1499 -8.9428 -2.9515 0.9597
6.3563 -7.5182 -2.9474 0.9597
6.9979 -6.9203 -2.9464 0.9597
7.5839 -6.2683 -2.9456 0.9598
8.9670 -4.0403 -2.9445 0.9598
9.2913 -3.2263 -2.9446 0.9598
9.7872 1.0949 -2.9484 0.9597
9.4475 2.8157 -2.9513 0.9597
9.1648 3.6475 -2.9531 0.9597
8.8095 4.4517 -2.9550 0.9596
8.3842 5.2217 -2.9571 0.9596
3.7775 9.1921 -2.9753 0.9594
1.1572 9.3961 -2.8343 0.9612
-1.3712 9.4019 -2.8445 0.9611
-2.2049 9.2523 -2.8475 0.9611
-3.8170 8.7298 -2.8524 0.9610
-6.9960 7.2338 -3.0128 0.9589
-8.6814 5.1421 -3.0207 0.9587
-9.1117 4.3523 -3.0231 0.9587
-9.4696 3.5265 -3.0252 0.9587
-9.7521 2.6714 -3.0271 0.9587
-9.9567 1.7938 -3.0288 0.9586
-9.3929 -1.6922 -3.0311 0.9607
-8.6128 -4.1140 -3.0313 0.9607
-8.2114 -4.8636 -3.0309 0.9607
-7.7441 -5.5738 -3.0302 0.9607
-7.2150 -6.2390 -3.0293 0.9608
-6.6284 -6.8537 -3.0281 0.9608
-5.9893 -7.4130 -3.0266 0.9608
-5.3028 -7.9123 -3.0250 0.9608
-4.5747 -8.3477 -3.0231 0.9608
-3.8109 -8.7158 -3.0210 0.9609
-3.0178 -9.0136 -3.0188 0.9609
-0.5260 -9.4329 -3.0004 0.9611
1.9563 -9.1037 -2.9572 0.9617
4.9991 -7.8310 -2.9506 0.9618
6.3035 -6.8153 -2.9483 0.9618
7.4083 -5.5868 -2.9468 0.9618
7.8750 -4.9046 -2.9464 0.9618
8.6191 -3.4303 -2.9461 0.9618
8.8908 -2.6497 -2.9463 0.9618
9.2230 -1.0317 -2.9474 0.9618
9.2657 0.6203 -2.9492 0.9618
9.0169 2.2553 -2.9518 0.9617
8.7850 3.0505 -2.9534 0.9617
7.6815 5.2731 -2.9590 0.9617
6.0383 7.1422 -2.9703 0.9615
4.6815 8.1087 -2.9736 0.9615
3.1740 8.8224 -2.9777 0.9614
-0.0997 8.9434 -2.8405 0.9632
-2.4661 8.6246 -2.8488 0.9631
-3.2258 8.3755 -2.8504 0.9630
-3.9604 8.0593 -2.8519 0.9630
-4.6641 7.6782 -2.8531 0.9630
-6.2801 7.1010 -3.0106 0.9610
-6.8933 6.5197 -3.0133 0.9610
-8.3911 4.4777 -3.0206 0.9609
-9.2936 2.1056 -3.0263 0.9608
-9.5283 0.4249 -3.0290 0.9608
-9.3089 -2.1091 -3.0313 0.9607
-8.7880 -3.7264 -3.0315 0.9607
-7.4870 -5.9124 -3.0298 0.9608
-6.9286 -6.5530 -3.0287 0.9608
-5.6516 -7.6704 -3.0258 0.9608
-4.9436 -8.1382 -3.0241 0.9608
0.7262 -9.2929 -2.9603 0.9616
1.5493 -9.1849 -2.9582 0.9617
2.3591 -9.0046 -2.9562 0.9617
3.9137 -8.4337 -2.9528 0.9617
4.6464 -8.0478 -2.9513 0.9617
5.3419 -7.5989 -2.9499 0.9618
6.5998 -6.5268 -2.9478 0.9618
7.1528 -5.9119 -2.9471 0.9618
8.0853 -4.5487 -2.9462 0.9618
8.4577 -3.8108 -2.9461 0.9618
8.7636 -3.0430 -2.9462 0.9618
9.1669 -1.4414 -2.9470 0.9618
9.2611 -0.6199 -2.9478 0.9618
9.2306 1.0326 -2.9498 0.9618
9.1061 1.8509 -2.9511 0.9618
8.9097 2.6554 -2.9526 0.9617
7.4600 5.6259 -2.9674 0.9615
6.3490 6.8645 -2.9696 0.9615
5.0366 7.8897 -2.9727 0.9615
4.3171 8.3118 -2.9745 0.9615
1.0909 8.8580 -2.8344 0.9632
-0.4983 8.9358 -2.8423 0.9631
-2.0788 8.7231 -2.8479 0.9631
-5.0025 7.4643 -2.8537 0.9630
-6.5932 6.8173 -3.0120 0.9610
-8.1803 4.8452 -3.0194 0.9609
-8.9222 3.3227 -3.0237 0.9608
-9.1880 2.5169 -3.0255 0.9608
-9.4980 0.8487 -3.0284 0.9608
-9.0119 0.0000 -3.0278 0.9627
-8.8733 -1.5986 -3.0293 0.9627
-8.4504 -3.1470 -3.0297 0.9627
-8.1364 -3.8864 -3.0295 0.9627
-7.7571 -4.5945 -3.0291 0.9627
-6.2621 -6.4749 -3.0264 0.9627
-5.6584 -7.0035 -3.0251 0.9627
-2.8515 -8.5169 -3.0177 0.9628
-2.0806 -8.7303 -3.0154 0.9628
-1.2942 -8.8738 -3.0130 0.9629
0.2954 -8.8369 -2.9707 0.9634
3.3427 -8.1340 -2.9547 0.9636
4.0513 -7.8002 -2.9532 0.9636
5.3656 -6.9524 -2.9506 0.9636
5.9611 -6.4451 -2.9497 0.9636
8.1512 -3.2441 -2.9476 0.9637
8.4082 -2.5059 -2.9478 0.9637
8.7767 -0.1956 -2.9496 0.9636
8.6786 1.3647 -2.9517 0.9636
8.3070 2.8845 -2.9545 0.9636
7.6728 4.3167 -2.9579 0.9635
7.2772 4.9955 -2.9656 0.9634
6.8125 5.6307 -2.9695 0.9634
6.2865 6.2169 -2.9705 0.9634
5.7106 6.7546 -2.9718 0.9634
4.4272 7.6681 -2.9749 0.9633
3.0014 8.3424 -2.9788 0.9633
0.6576 8.4161 -2.8363 0.9650
-0.8470 8.4198 -2.8432 0.9649
-4.4068 7.2546 -2.8519 0.9648
-5.3094 7.2060 -3.0073 0.9629
-6.5141 6.1610 -3.0125 0.9629
-7.9285 4.2308 -3.0193 0.9628
-8.5637 2.7614 -3.0231 0.9627
-9.0015 0.4014 -3.0273 0.9627
-8.5822 -2.7674 -3.0297 0.9627
-8.3017 -3.5202 -3.0296 0.9627
-7.5440 -4.9350 -3.0288 0.9627
-5.9661 -6.7460 -3.0258 0.9627
-4.6707 -7.6890 -3.0226 0.9627
-3.9653 -8.0692 -3.0208 0.9628
-2.4683 -8.6323 -3.0165 0.9628
-0.0991 -8.8933 -2.9882 0.9632
0.6872 -8.7948 -2.9639 0.9635
1.4649 -8.6844 -2.9590 0.9635
2.2306 -8.5142 -2.9572 0.9635
2.9779 -8.2771 -2.9555 0.9636
3.7008 -7.9749 -2.9539 0.9636
4.3938 -7.6102 -2.9525 0.9636
6.2414 -6.1722 -2.9492 0.9636
7.2339 -4.9658 -2.9480 0.9637
7.6463 -4.3017 -2.9477 0.9637
7.9986 -3.6040 -2.9476 0.9637
8.2878 -2.8778 -2.9477 0.9637
8.5119 -2.1290 -2.9480 0.9637
8.6691 -1.3631 -2.9485 0.9636
8.7781 0.1956 -2.9500 0.9636
8.6110 1.7503 -2.9523 0.9636
7.8551 3.9694 -2.9570 0.9635
7.4752 4.6557 -2.9588 0.9635
6.5560 5.9296 -2.9700 0.9634
6.0045 6.4921 -2.9711 0.9634
4.0824 7.8601 -2.9758 0.9633
3.3688 8.1976 -2.9778 0.9633
2.6277 8.4709 -2.9799 0.9633
1.7699 8.2367 -2.8305 0.9651
0.2822 8.4425 -2.8381 0.9650
-0.4709 8.4445 -2.8416 0.9649
-1.2219 8.3779 -2.8446 0.9649
-1.9643 8.2425 -2.8469 0.9649
-2.6917 8.0397 -2.8486 0.9649
-6.2306 6.4424 -3.0112 0.9629
-6.7849 5.8671 -3.0137 0.9629
-7.2859 5.2440 -3.0161 0.9628
-7.7294 4.5781 -3.0183 0.9628
-8.1118 3.8747 -3.0204 0.9628
-8.8622 1.5966 -3.0255 0.9627
-8.4032 -1.5139 -3.0276 0.9644
-7.7053 -3.6805 -3.0279 0.9644
-7.3462 -4.3511 -3.0275 0.9644
-6.4552 -5.5820 -3.0260 0.9644
-5.3590 -6.6329 -3.0237 0.9645
-4.7450 -7.0801 -3.0222 0.9645
-2.7010 -8.0673 -3.0166 0.9645
-1.2260 -8.4060 -3.0122 0.9646
-0.4726 -8.4751 -3.0098 0.9646
1.0210 -8.2902 -2.9618 0.9652
4.4810 -7.0194 -2.9529 0.9653
5.0861 -6.5903 -2.9518 0.9653
6.1705 -5.5808 -2.9501 0.9653
7.4227 -3.7509 -2.9489 0.9653
7.7271 -3.0753 -2.9489 0.9653
7.9706 -2.3755 -2.9491 0.9653
8.1514 -1.6568 -2.9495 0.9653
8.2681 -0.9249 -2.9500 0.9653
8.3197 -0.1854 -2.9508 0.9653
8.2264 1.2936 -2.9528 0.9653
8.0820 2.0215 -2.9541 0.9653
7.8738 2.7341 -2.9555 0.9652
7.2722 4.0913 -2.9587 0.9652
6.4583 5.3380 -2.9710 0.9651
4.8244 6.8628 -2.9746 0.9650
3.5351 7.6180 -2.9779 0.9650
2.8448 7.9075 -2.9798 0.9650
2.1312 8.1349 -2.9819 0.9649
-0.0892 8.0070 -2.8394 0.9666
-2.2073 7.7192 -2.8468 0.9665
-3.5444 7.2126 -2.8496 0.9665
-5.0301 6.8269 -3.0068 0.9647
-5.6224 6.3573 -3.0093 0.9646
-6.1708 5.8363 -3.0117 0.9646
-7.1184 4.6567 -3.0162 0.9645
-7.5097 4.0073 -3.0182 0.9645
-8.1109 2.6154 -3.0218 0.9645
-8.4541 1.1370 -3.0247 0.9644
-8.5249 0.3801 -3.0258 0.9644
-8.3279 -1.8868 -3.0278 0.9644
-8.1275 -2.6207 -3.0280 0.9644
-7.5333 -4.0199 -3.0277 0.9644
-6.6984 -5.2897 -3.0265 0.9644
-5.6504 -6.3890 -3.0243 0.9644
-5.0570 -6.8634 -3.0229 0.9645
-4.4237 -7.2824 -3.0214 0.9645
-3.0587 -7.9417 -3.0177 0.9645
-1.5999 -8.3463 -3.0134 0.9646
-0.8500 -8.4490 -3.0110 0.9646
0.6522 -8.3466 -2.9686 0.9651
1.3884 -8.2308 -2.9598 0.9652
3.5078 -7.5591 -2.9549 0.9653
4.7884 -6.8115 -2.9524 0.9653
5.3737 -6.3561 -2.9513 0.9653
5.9164 -5.8509 -2.9505 0.9653
6.8574 -4.7073 -2.9493 0.9653
7.2484 -4.0779 -2.9490 0.9653
7.5823 -3.4164 -2.9489 0.9653
7.8566 -2.7281 -2.9490 0.9653
8.0690 -2.0182 -2.9493 0.9653
8.2179 -1.2922 -2.9497 0.9653
8.1623 1.6591 -2.9534 0.9653
7.9858 2.3800 -2.9547 0.9653
7.4451 3.7622 -2.9578 0.9652
7.0888 4.4150 -2.9612 0.9652
6.6888 5.0443 -2.9706 0.9651
6.2151 5.6212 -2.9715 0.9651
4.5150 7.0727 -2.9753 0.9650
3.8698 7.4507 -2.9770 0.9650
2.4906 8.0291 -2.9808 0.9650
0.2674 7.9984 -2.8377 0.9666
-1.1574 7.9359 -2.8437 0.9665
-2.5496 7.6153 -2.8476 0.9665
-5.3314 6.5988 -3.0081 0.9646
-5.9024 6.1030 -3.0105 0.9646
-6.4272 5.5578 -3.0129 0.9646
-6.9015 4.9674 -3.0151 0.9646
-7.6832 3.6700 -3.0192 0.9645
-7.9841 2.9733 -3.0210 0.9645
-8.0705 -0.7212 -3.0256 0.9660
-7.9756 -1.4369 -3.0261 0.9660
-7.5955 -2.8286 -3.0265 0.9660
-7.3132 -3.4932 -3.0264 0.9660
-6.9724 -4.1297 -3.0260 0.9660
-6.5759 -4.7330 -3.0254 0.9660
-6.1269 -5.2981 -3.0246 0.9660
-5.0867 -6.2958 -3.0224 0.9660
-2.5640 -7.6583 -3.0157 0.9661
-1.8709 -7.8508 -3.0137 0.9661
-1.1639 -7.9804 -3.0115 0.9662
-0.4487 -8.0463 -3.0092 0.9662
2.3470 -7.5659 -2.9580 0.9667
4.2566 -6.6679 -2.9539 0.9668
4.8315 -6.2603 -2.9529 0.9668
5.3679 -5.8037 -2.9520 0.9668
5.8617 -5.3016 -2.9513 0.9668
6.7067 -4.1770 -2.9504 0.9668
7.8544 -0.8786 -2.9512 0.9668
7.8900 0.5282 -2.9528 0.9668
7.6771 1.9202 -2.9550 0.9668
7.4791 2.5970 -2.9564 0.9668
7.2218 3.2540 -2.9578 0.9667
6.9073 3.8860 -2.9594 0.9667
6.1356 5.0712 -2.9724 0.9666
5.6616 5.5989 -2.9733 0.9666
4.5830 6.5194 -2.9757 0.9665
3.3580 7.2364 -2.9789 0.9665
2.0244 7.7270 -2.9827 0.9665
-0.0847 7.6020 -2.8389 0.9681
-0.7617 7.5718 -2.8417 0.9680
-1.4338 7.4802 -2.8440 0.9680
-2.0953 7.3278 -2.8459 0.9680
-2.7406 7.1158 -2.8474 0.9680
-3.3651 6.8475 -2.8490 0.9679
-4.7758 6.4818 -3.0064 0.9662
-6.3329 5.0011 -3.0132 0.9661
-6.7575 4.4206 -3.0153 0.9661
-8.0243 1.0792 -3.0233 0.9660
-8.0914 0.3608 -3.0244 0.9660
-7.4618 -3.1641 -3.0265 0.9660
-7.1500 -3.8153 -3.0262 0.9660
-6.7809 -4.4358 -3.0257 0.9660
-3.5652 -7.2549 -3.0185 0.9661
-0.0898 -8.0552 -3.0081 0.9662
0.6203 -7.9381 -2.9732 0.9666
3.9561 -6.8522 -2.9545 0.9668
5.1047 -6.0379 -2.9524 0.9668
6.0914 -5.0347 -2.9510 0.9668
6.5144 -4.4718 -2.9505 0.9668
7.4636 -2.5916 -2.9502 0.9668
7.9044 0.1762 -2.9523 0.9668
7.7534 1.5759 -2.9544 0.9668
7.3578 2.9283 -2.9571 0.9668
6.7545 4.2067 -2.9714 0.9666
6.3545 4.7922 -2.9720 0.9666
5.4076 5.8467 -2.9738 0.9666
2.3658 7.6266 -2.9817 0.9665
0.2539 7.5941 -2.8373 0.9681
-3.7839 6.9048 -2.9401 0.9669
-4.4806 6.6854 -3.0052 0.9662
-5.0617 6.2651 -3.0076 0.9662
-6.1017 5.2763 -3.0121 0.9661
-7.5787 2.8224 -3.0198 0.9661
-7.8038 2.1377 -3.0214 0.9660
-7.9667 1.4353 -3.0227 0.9660
-8.0659 0.7208 -3.0239 0.9660
-7.7039 0.0000 -3.0236 0.9674
-7.6751 -0.6858 -3.0243 0.9674
-7.5849 -1.3665 -3.0248 0.9674
-7.4339 -2.0363 -3.0251 0.9674
-5.8269 -5.0387 -3.0233 0.9674
-3.6960 -6.7443 -3.0183 0.9675
-3.0793 -7.0426 -3.0167 0.9675
-1.1072 -7.5912 -3.0109 0.9676
-0.4268 -7.6542 -3.0087 0.9676
1.5846 -7.3743 -2.9603 0.9681
2.8642 -6.9695 -2.9573 0.9681
3.4716 -6.6840 -2.9560 0.9682
4.5984 -5.9583 -2.9539 0.9682
5.5790 -5.0459 -2.9523 0.9682
6.3834 -3.9756 -2.9515 0.9682
6.7115 -3.3915 -2.9513 0.9682
7.2069 -2.1478 -2.9514 0.9682
7.4756 -0.8362 -2.9523 0.9682
7.5093 0.5027 -2.9538 0.9682
7.3064 1.8275 -2.9559 0.9682
6.2450 4.2870 -2.9729 0.9680
5.8401 4.8270 -2.9736 0.9680
5.3889 5.3292 -2.9745 0.9680
3.1959 6.8871 -2.9799 0.9679
2.5718 7.1484 -2.9816 0.9679
1.2652 7.5008 -2.9855 0.9678
0.5629 7.2033 -2.8357 0.9694
-0.0806 7.2316 -2.8384 0.9694
-0.7246 7.2024 -2.8410 0.9694
-1.9930 6.9699 -2.8451 0.9693
-2.6093 6.7748 -2.8493 0.9693
-6.0239 4.7571 -3.0125 0.9676
-6.4276 4.2047 -3.0145 0.9675
-7.0796 3.0020 -3.0180 0.9675
-7.3224 2.3612 -3.0195 0.9675
-7.6952 0.3431 -3.0231 0.9674
-7.5169 -1.7031 -3.0249 0.9674
-7.3359 -2.3655 -3.0251 0.9674
-7.0962 -3.0090 -3.0251 0.9674
-6.7997 -3.6284 -3.0248 0.9674
-5.5958 -5.2924 -3.0229 0.9674
-5.1007 -5.7675 -3.0218 0.9675
-4.5652 -6.1960 -3.0205 0.9675
-0.0854 -7.6628 -3.0076 0.9676
1.2567 -7.4502 -2.9653 0.9681
3.1711 -6.8335 -2.9567 0.9681
3.7652 -6.5214 -2.9554 0.9682
4.3291 -6.1582 -2.9544 0.9682
4.8585 -5.7466 -2.9534 0.9682
5.3493 -5.2900 -2.9527 0.9682
5.7977 -4.7919 -2.9521 0.9682
6.5539 -3.6872 -2.9513 0.9682
7.1038 -2.4667 -2.9513 0.9682
7.2958 -1.8248 -2.9516 0.9682
7.5063 -0.5025 -2.9526 0.9682
7.3791 1.4999 -2.9553 0.9682
7.2193 2.1516 -2.9565 0.9681
7.0023 2.7869 -2.9579 0.9681
6.7298 3.4007 -2.9593 0.9681
6.4292 4.0042 -2.9727 0.9680
6.0485 4.5614 -2.9732 0.9680
5.6200 5.0830 -2.9740 0.9680
5.1470 5.5649 -2.9750 0.9680
4.6331 6.0033 -2.9762 0.9679
4.0822 6.3947 -2.9775 0.9679
2.8868 7.0247 -2.9807 0.9679
0.9008 7.3138 -2.8921 0.9688
-1.0452 7.1660 -2.8422 0.9694
-2.9231 6.6853 -2.8636 0.9691
-4.2625 6.3600 -3.0049 0.9676
-4.8153 5.9599 -3.0071 0.9676
-5.3305 5.5117 -3.0093 0.9676
-6.9369 3.3135 -3.0172 0.9675
-7.2082 2.6844 -3.0188 0.9675
-7.4221 2.0331 -3.0203 0.9675
-7.5768 1.3650 -3.0215 0.9675
-7.3398 0.0000 -3.0224 0.9687
-7.3122 -0.6534 -3.0230 0.9687
-7.0823 -1.9400 -3.0238 0.9687
-6.8817 -2.5628 -3.0239 0.9687
-6.6260 -3.1649 -3.0237 0.9687
-6.3173 -3.7417 -3.0234 0.9687
-5.9581 -4.2884 -3.0229 0.9687
-5.5515 -4.8005 -3.0221 0.9688
-4.0815 -6.0900 -3.0188 0.9688
-2.9341 -6.7104 -3.0158 0.9688
-1.0550 -7.2338 -3.0103 0.9689
-0.4067 -7.2941 -3.0082 0.9689
0.8844 -7.1812 -2.9794 0.9692
3.3097 -6.3723 -2.9568 0.9694
4.8709 -5.2664 -2.9540 0.9694
6.6614 -2.6512 -2.9523 0.9695
6.9657 1.7423 -2.9567 0.9694
6.5521 2.9523 -2.9593 0.9694
6.2937 3.5408 -2.9736 0.9692
3.0470 6.5661 -2.9807 0.9692
2.4518 6.8150 -2.9824 0.9692
1.2061 7.1506 -2.9861 0.9691
0.5548 7.0997 -2.9324 0.9697
-0.0768 6.8920 -2.8382 0.9706
-0.6905 6.8632 -2.8404 0.9706
-1.2995 6.7796 -2.8425 0.9706
-1.8991 6.6414 -2.8444 0.9706
-2.5346 6.5809 -2.9039 0.9700
-3.7867 6.2338 -3.0035 0.9689
-4.3297 5.8763 -3.0056 0.9689
-5.3104 5.0226 -3.0099 0.9689
-5.7402 4.5330 -3.0118 0.9689
-6.4606 3.4475 -3.0155 0.9688
-6.7455 2.8604 -3.0171 0.9688
-6.9767 2.2497 -3.0185 0.9688
-7.3315 0.3269 -3.0220 0.9688
-5.7605 -4.5490 -3.0225 0.9687
-5.3313 -5.0423 -3.0217 0.9688
-4.8598 -5.4950 -3.0207 0.9688
-4.3497 -5.9034 -3.0195 0.9688
-1.3767 -7.1820 -3.0113 0.9689
-0.7315 -7.2712 -3.0093 0.9689
1.1993 -7.1101 -2.9692 0.9693
1.8218 -6.9539 -2.9601 0.9694
2.4324 -6.7609 -2.9587 0.9694
4.1273 -5.8712 -2.9552 0.9694
4.6321 -5.4789 -2.9544 0.9694
5.9116 -4.0580 -2.9526 0.9695
6.2487 -3.5155 -2.9524 0.9695
6.7730 -2.3518 -2.9524 0.9695
7.1726 0.1599 -2.9543 0.9694
7.1320 0.7979 -2.9551 0.9694
7.0351 1.4300 -2.9562 0.9694
6.8826 2.0512 -2.9573 0.9694
6.6755 2.6568 -2.9586 0.9694
6.4231 3.2456 -2.9635 0.9693
5.7672 4.3492 -2.9744 0.9692
5.3585 4.8465 -2.9752 0.9692
4.9074 5.3059 -2.9761 0.9692
4.4174 5.7238 -2.9772 0.9692
3.8921 6.0969 -2.9785 0.9692
3.3356 6.4222 -2.9799 0.9692
1.5230 7.0874 -2.9851 0.9691
-0.3839 6.8842 -2.8392 0.9706
-0.9959 6.8283 -2.8415 0.9706
-4.0622 6.0612 -3.0046 0.9689
-4.5888 5.6797 -3.0067 0.9689
-5.0797 5.2524 -3.0088 0.9689
-6.2989 3.7308 -3.0146 0.9688
-6.8680 2.5577 -3.0178 0.9688
-7.0716 1.9371 -3.0192 0.9688
-7.2189 1.3005 -3.0205 0.9688
-7.3085 0.6531 -3.0215 0.9688
-7.0041 0.0000 -3.0213 0.9699
-6.9778 -0.6235 -3.0219 0.9699
-6.7583 -1.8513 -3.0226 0.9699
-6.5668 -2.4455 -3.0227 0.9699
-6.3229 -3.0201 -3.0226 0.9699
-4.8674 -5.0329 -3.0202 0.9700
-4.3986 -5.4442 -3.0191 0.9700
-2.8002 -6.4042 -3.0150 0.9700
-2.2178 -6.6244 -3.0134 0.9700
-0.3882 -6.9620 -3.0078 0.9701
0.2328 -6.9642 -3.0058 0.9701
0.8485 -6.8896 -2.9944 0.9702
2.0331 -6.5540 -2.9600 0.9705
2.6072 -6.3443 -2.9588 0.9706
3.1603 -6.0847 -2.9576 0.9706
3.6880 -5.7772 -2.9565 0.9706
4.1863 -5.4243 -2.9556 0.9706
5.4671 -4.1229 -2.9537 0.9706
6.3611 -2.5316 -2.9532 0.9706
6.8060 -0.7614 -2.9542 0.9706
6.8482 -0.1526 -2.9548 0.9706
6.7706 1.0646 -2.9564 0.9706
6.6513 1.6636 -2.9575 0.9706
6.2617 2.8215 -2.9625 0.9705
6.0104 3.3814 -2.9748 0.9704
5.3175 4.3951 -2.9758 0.9704
4.9066 4.8523 -2.9766 0.9704
4.4567 5.2715 -2.9776 0.9704
2.9095 6.2698 -2.9815 0.9703
1.7536 6.6937 -2.9848 0.9703
1.1516 6.8273 -2.9866 0.9703
-0.6656 6.6157 -2.8681 0.9715
-1.2494 6.5179 -2.8627 0.9715
-1.8569 6.4940 -2.9135 0.9710
-2.4987 6.4878 -2.9989 0.9702
-3.0685 6.2441 -3.0011 0.9701
-4.1328 5.6090 -3.0053 0.9701
-4.6187 5.2225 -3.0074 0.9701
-5.0685 4.7938 -3.0093 0.9701
-5.8453 3.8238 -3.0130 0.9700
-6.6581 2.1470 -3.0176 0.9700
-6.8256 1.5465 -3.0189 0.9700
-6.9963 0.3120 -3.0209 0.9700
-6.9979 -0.3120 -3.0216 0.9699
-6.6692 -2.1505 -3.0227 0.9699
-6.4513 -2.7356 -3.0227 0.9699
-5.8628 -3.8353 -3.0220 0.9699
-5.4971 -4.3410 -3.0214 0.9699
-4.1509 -5.6337 -3.0185 0.9700
-3.0835 -6.2747 -3.0158 0.9700
-0.0777 -6.9700 -3.0068 0.9701
0.5427 -6.9445 -3.0047 0.9701
2.3225 -6.4555 -2.9594 0.9706
2.8867 -6.2206 -2.9582 0.9706
3.4276 -5.9367 -2.9570 0.9706
3.9411 -5.6062 -2.9561 0.9706
4.4232 -5.2317 -2.9552 0.9706
5.6450 -3.8751 -2.9536 0.9706
5.9671 -3.3570 -2.9533 0.9706
6.2420 -2.8125 -2.9532 0.9706
6.4677 -2.2458 -2.9533 0.9706
6.8102 0.7618 -2.9560 0.9706
6.3740 2.5368 -2.9592 0.9706
6.1547 3.1101 -2.9746 0.9704
5.8542 3.6460 -2.9750 0.9704
5.5074 4.1534 -2.9755 0.9704
4.6863 5.0668 -2.9771 0.9704
4.2182 5.4658 -2.9782 0.9704
3.7165 5.8219 -2.9794 0.9704
2.6280 6.3948 -2.9823 0.9703
0.2312 6.9146 -2.9843 0.9703
-0.3732 6.6922 -2.8912 0.9712
-0.9565 6.5585 -2.8590 0.9715
-2.1802 6.5120 -2.9623 0.9705
-2.7863 6.3723 -3.0000 0.9702
-3.3448 6.1034 -3.0022 0.9701
-3.8775 5.7856 -3.0043 0.9701
-6.0116 3.5607 -3.0139 0.9700
-6.3080 3.0131 -3.0155 0.9700
-6.5543 2.4409 -3.0169 0.9700
-6.6936 0.0000 -3.0203 0.9711
-6.4585 -1.7692 -3.0216 0.9710
-6.2756 -2.3370 -3.0216 0.9710
-6.0424 -2.8862 -3.0215 0.9710
-5.7610 -3.4122 -3.0212 0.9710
-5.4335 -3.9108 -3.0207 0.9710
-4.6517 -4.8098 -3.0192 0.9711
-4.2038 -5.2030 -3.0182 0.9711
-3.2120 -5.8611 -3.0157 0.9711
-1.5470 -6.4913 -3.0110 0.9711
-0.3711 -6.6546 -3.0074 0.9712
1.3840 -6.4409 -2.9726 0.9715
3.5266 -5.5243 -2.9573 0.9716
4.4478 -4.8089 -2.9557 0.9717
5.2280 -3.9426 -2.9546 0.9717
5.8433 -2.9528 -2.9541 0.9717
6.0829 -2.4209 -2.9541 0.9717
6.2746 -1.8700 -2.9543 0.9717
6.4167 -1.3042 -2.9546 0.9717
6.5083 -0.7280 -2.9550 0.9717
6.5486 -0.1459 -2.9556 0.9717
6.4742 1.0180 -2.9572 0.9716
6.3600 1.5908 -2.9582 0.9716
6.1955 2.1513 -2.9593 0.9716
6.0080 2.7071 -2.9734 0.9715
5.0852 4.2030 -2.9768 0.9715
4.6921 4.6402 -2.9776 0.9715
3.7977 5.4023 -2.9796 0.9714
2.2386 6.2223 -2.9838 0.9714
1.1011 6.5279 -2.9871 0.9714
0.5160 6.6041 -2.9890 0.9713
-0.6633 6.5931 -2.9899 0.9713
-1.2451 6.4957 -2.9843 0.9714
-3.9505 5.3616 -3.0050 0.9712
-4.4149 4.9920 -3.0070 0.9712
-4.8447 4.5821 -3.0088 0.9712
-6.1526 2.6089 -3.0154 0.9711
-6.6861 0.2982 -3.0199 0.9711
-6.6877 -0.2982 -3.0206 0.9711
-6.5307 -1.4796 -3.0215 0.9710
-6.3734 -2.0551 -3.0216 0.9710
-6.1652 -2.6142 -3.0216 0.9710
-5.9076 -3.1524 -3.0214 0.9710
-4.8621 -4.5985 -3.0196 0.9711
-3.9671 -5.3841 -3.0176 0.9711
-3.4707 -5.7135 -3.0164 0.9711
-2.9470 -5.9970 -3.0150 0.9711
-2.4004 -6.2323 -3.0135 0.9711
-1.2559 -6.5519 -3.0101 0.9711
-0.6673 -6.6336 -3.0083 0.9712
1.6666 -6.3613 -2.9672 0.9716
2.7602 -5.9481 -2.9588 0.9716
3.2775 -5.6768 -2.9578 0.9716
3.7686 -5.3609 -2.9568 0.9717
4.6570 -4.6054 -2.9553 0.9717
5.0476 -4.1719 -2.9548 0.9717
5.3982 -3.7056 -2.9544 0.9717
6.3519 -1.5887 -2.9544 0.9717
6.5349 -0.4375 -2.9553 0.9717
6.5121 0.7285 -2.9567 0.9717
6.4234 1.3057 -2.9576 0.9716
6.2840 1.8728 -2.9587 0.9716
6.0995 2.4275 -2.9621 0.9716
4.4814 4.8453 -2.9780 0.9715
3.5540 5.5672 -2.9802 0.9714
3.0457 5.8640 -2.9815 0.9714
2.5129 6.1148 -2.9830 0.9714
0.2214 6.6226 -2.9899 0.9713
-1.5392 6.4586 -2.9958 0.9713
-2.1094 6.3003 -2.9979 0.9713
-2.6636 6.0917 -2.9999 0.9712
-3.1974 5.8345 -3.0020 0.9712
-4.6343 4.7919 -3.0079 0.9712
-5.0455 4.3630 -3.0098 0.9712
-5.4170 3.8989 -3.0115 0.9711
-6.0288 2.8797 -3.0147 0.9711
-6.5837 1.1861 -3.0185 0.9711
-6.6653 0.5956 -3.0195 0.9711
-6.4053 0.0000 -3.0193 0.9721
-6.3811 -0.5702 -3.0199 0.9721
-6.3059 -1.1361 -3.0203 0.9721
-5.5128 -3.2652 -3.0202 0.9721
-4.8447 -4.1894 -3.0191 0.9721
-4.4514 -4.6027 -3.0183 0.9721
-4.0228 -4.9791 -3.0173 0.9721
-3.5624 -5.3154 -3.0162 0.9721
-3.0739 -5.6091 -3.0150 0.9721
-2.0287 -6.0594 -3.0121 0.9721
-0.3552 -6.3692 -3.0070 0.9722
1.3301 -6.1898 -2.9843 0.9724
3.3765 -5.2892 -2.9579 0.9726
3.8328 -4.9663 -2.9571 0.9726
4.2586 -4.6044 -2.9564 0.9726
5.0058 -3.7750 -2.9554 0.9727
5.3214 -3.3142 -2.9551 0.9727
5.8244 -2.3180 -2.9549 0.9727
6.0079 -1.7905 -2.9551 0.9727
6.2701 -0.1397 -2.9563 0.9726
6.2591 0.4190 -2.9570 0.9726
6.0893 1.5231 -2.9588 0.9726
5.5038 3.0964 -2.9767 0.9725
4.8692 4.0245 -2.9777 0.9725
4.4928 4.4430 -2.9785 0.9724
4.0807 4.8267 -2.9794 0.9724
3.6362 5.1726 -2.9804 0.9724
2.6637 5.7402 -2.9829 0.9724
2.1433 5.9574 -2.9844 0.9724
1.6054 6.1277 -2.9859 0.9724
0.4940 6.3225 -2.9894 0.9723
-0.0707 6.3452 -2.9912 0.9723
-1.7479 6.1129 -2.9969 0.9723
-4.2255 4.7779 -3.0066 0.9722
-4.6368 4.3855 -3.0084 0.9722
-5.0116 3.9576 -3.0101 0.9722
-5.3469 3.4978 -3.0118 0.9721
-5.8881 2.4968 -3.0147 0.9721
-6.0895 1.9636 -3.0160 0.9721
-6.3499 -0.8540 -3.0201 0.9721
-6.0988 -1.9666 -3.0206 0.9721
-5.6531 -3.0166 -3.0204 0.9721
-5.3615 -3.5073 -3.0200 0.9721
-5.0271 -3.9699 -3.0194 0.9721
-4.2413 -4.7958 -3.0178 0.9721
-3.7964 -5.1524 -3.0168 0.9721
-2.2972 -5.9645 -3.0129 0.9721
-1.2020 -6.2706 -3.0096 0.9722
-0.0710 -6.3768 -3.0061 0.9722
0.4965 -6.3538 -3.0042 0.9722
1.5971 -6.0961 -2.9705 0.9725
2.1275 -5.9135 -2.9624 0.9726
3.1380 -5.4353 -2.9584 0.9726
3.6083 -5.1328 -2.9575 0.9726
4.0497 -4.7900 -2.9567 0.9726
4.8330 -3.9946 -2.9556 0.9727
5.7153 -2.5752 -2.9549 0.9727
6.1939 -0.9739 -2.9555 0.9727
6.0165 1.7931 -2.9593 0.9726
5.8551 2.3303 -2.9705 0.9725
5.6360 2.8480 -2.9766 0.9725
5.3607 3.3387 -2.9769 0.9725
3.4028 5.3305 -2.9810 0.9724
1.3312 6.1949 -2.9868 0.9724
0.2120 6.3401 -2.9903 0.9723
-2.5496 5.8311 -2.9999 0.9722
-3.5477 5.2935 -3.0038 0.9722
-4.0073 4.9599 -3.0057 0.9722
-4.4355 4.5863 -3.0075 0.9722
-5.9947 2.2325 -3.0154 0.9721
-6.1721 1.6907 -3.0166 0.9721
-6.1369 0.0000 -3.0184 0.9730
-5.9212 -1.6220 -3.0196 0.9730
-5.5397 -2.6460 -3.0196 0.9730
-4.6417 -4.0138 -3.0182 0.9730
-4.2649 -4.4099 -3.0175 0.9730
-3.8543 -4.7705 -3.0166 0.9730
-2.9452 -5.3743 -3.0143 0.9731
-0.3403 -6.1033 -3.0066 0.9731
0.2041 -6.1058 -3.0048 0.9731
0.7463 -6.0597 -3.0030 0.9732
1.2799 -5.9562 -2.9964 0.9732
1.7889 -5.7668 -2.9698 0.9734
2.7734 -5.3397 -2.9595 0.9735
3.2367 -5.0701 -2.9586 0.9735
4.0823 -4.4137 -2.9571 0.9736
4.7986 -3.6188 -2.9561 0.9736
5.3634 -2.7102 -2.9557 0.9736
5.5833 -2.2221 -2.9557 0.9736
5.7592 -1.7164 -2.9558 0.9736
5.8897 -1.1971 -2.9561 0.9736
5.9736 -0.6683 -2.9565 0.9736
6.0105 -0.1339 -2.9570 0.9736
5.9999 0.4017 -2.9577 0.9736
5.8370 1.4599 -2.9594 0.9735
5.7013 1.9797 -2.9685 0.9735
4.3069 4.2592 -2.9793 0.9734
3.9119 4.6270 -2.9802 0.9734
3.4857 4.9585 -2.9812 0.9733
3.0317 5.2511 -2.9823 0.9733
2.5534 5.5024 -2.9836 0.9733
1.0105 5.9905 -2.9881 0.9733
0.4735 6.0600 -2.9897 0.9733
-0.6092 6.0551 -2.9933 0.9732
-2.1913 5.6897 -2.9989 0.9732
-3.1694 5.2175 -3.0026 0.9732
-3.6234 4.9177 -3.0045 0.9731
-4.0492 4.5784 -3.0063 0.9731
-5.4039 2.8836 -3.0127 0.9731
-6.1301 0.2734 -3.0181 0.9730
-5.9873 -1.3565 -3.0195 0.9730
-5.6522 -2.3967 -3.0197 0.9730
-5.4161 -2.8901 -3.0195 0.9730
-5.1367 -3.3603 -3.0191 0.9730
-4.4578 -4.2161 -3.0179 0.9730
-4.0637 -4.5948 -3.0170 0.9730
-3.1823 -5.2388 -3.0149 0.9730
-0.0681 -6.1106 -3.0057 0.9731
2.5332 -5.4589 -2.9600 0.9735
3.0080 -5.2100 -2.9590 0.9735
3.8820 -4.5917 -2.9574 0.9736
4.9548 -3.4012 -2.9560 0.9736
5.2375 -2.9465 -2.9558 0.9736
5.4788 -2.4686 -2.9557 0.9736
5.9980 -0.4015 -2.9567 0.9736
5.7713 1.7201 -2.9620 0.9735
5.4030 2.7303 -2.9775 0.9734
4.1135 4.4475 -2.9797 0.9734
3.2620 5.1098 -2.9817 0.9733
2.3062 5.6120 -2.9843 0.9733
0.7428 6.0312 -2.9889 0.9733
-0.3387 6.0744 -2.9924 0.9732
-1.4121 5.9254 -2.9961 0.9732
-2.9329 5.3519 -3.0017 0.9732
-3.8400 4.7529 -3.0054 0.9731
-4.9676 3.5755 -3.0104 0.9731
-5.2688 3.1207 -3.0119 0.9731
-5.7438 2.1390 -3.0146 0.9730
-5.8861 0.0000 -3.0176 0.9739
-5.8638 -0.5240 -3.0182 0.9739
-5.5182 -2.0550 -3.0188 0.9739
-5.3132 -2.5379 -3.0187 0.9739
-5.0658 -3.0005 -3.0184 0.9739
-4.7779 -3.4389 -3.0180 0.9739
-4.4520 -3.8498 -3.0174 0.9739
-3.6969 -4.5757 -3.0158 0.9739
-3.2739 -4.8849 -3.0148 0.9739
-2.8250 -5.1550 -3.0136 0.9739
-2.3540 -5.3837 -3.0124 0.9739
0.7160 -5.8133 -3.0028 0.9740
2.1992 -5.3516 -2.9662 0.9743
3.1059 -4.8652 -2.9592 0.9744
3.5256 -4.5683 -2.9584 0.9744
3.9174 -4.2354 -2.9578 0.9744
4.6048 -3.4727 -2.9568 0.9744
5.1469 -2.6008 -2.9564 0.9744
5.6519 -1.1488 -2.9568 0.9744
5.7324 -0.6413 -2.9572 0.9744
5.7677 -0.1285 -2.9577 0.9744
5.7018 0.8966 -2.9591 0.9744
5.4878 1.9056 -2.9782 0.9742
5.0634 2.8487 -2.9785 0.9742
4.1331 4.0874 -2.9801 0.9742
3.7540 4.4402 -2.9809 0.9742
3.3449 4.7583 -2.9819 0.9742
2.9092 5.0390 -2.9830 0.9742
2.4502 5.2801 -2.9842 0.9742
1.9714 5.4796 -2.9855 0.9742
0.9696 5.7480 -2.9885 0.9741
0.4543 5.8146 -2.9901 0.9741
-0.5845 5.8097 -2.9935 0.9741
-2.1024 5.4587 -2.9989 0.9740
-2.5814 5.2530 -3.0007 0.9740
-3.0405 5.0054 -3.0025 0.9740
-4.2622 4.0311 -3.0076 0.9740
-4.9144 3.2149 -3.0107 0.9739
-5.1835 2.7660 -3.0121 0.9739
-5.7368 1.2998 -3.0156 0.9739
-5.8796 0.2622 -3.0173 0.9739
-5.7426 -1.3011 -3.0187 0.9739
-5.4211 -2.2987 -3.0188 0.9739
-5.1947 -2.7719 -3.0186 0.9739
-4.9268 -3.2229 -3.0182 0.9739
-4.6196 -3.6480 -3.0177 0.9739
-4.2756 -4.0438 -3.0171 0.9739
-3.8977 -4.4072 -3.0163 0.9739
-3.4888 -4.7351 -3.0153 0.9739
-3.0525 -5.0250 -3.0142 0.9739
-2.5920 -5.2746 -3.0130 0.9739
-2.1114 -5.4820 -3.0117 0.9739
-1.6143 -5.6454 -3.0102 0.9740
-1.1048 -5.7638 -3.0087 0.9740
-0.5871 -5.8361 -3.0071 0.9740
0.4564 -5.8411 -3.0037 0.9740
0.9739 -5.7739 -3.0019 0.9740
1.9608 -5.4500 -2.9694 0.9743
2.4326 -5.2421 -2.9627 0.9744
2.8865 -4.9995 -2.9596 0.9744
3.3191 -4.7214 -2.9588 0.9744
4.1018 -4.0563 -2.9575 0.9744
4.4458 -3.6746 -2.9570 0.9744
5.2576 -2.3689 -2.9564 0.9744
5.7558 -0.3853 -2.9574 0.9744
5.6571 1.1499 -2.9595 0.9744
5.5471 1.6532 -2.9674 0.9743
4.9318 3.0716 -2.9786 0.9742
4.6395 3.4988 -2.9791 0.9742
4.3106 3.8987 -2.9797 0.9742
3.5530 4.6038 -2.9814 0.9742
3.1302 4.9034 -2.9824 0.9742
2.6824 5.1646 -2.9835 0.9742
2.2130 5.3851 -2.9848 0.9742
1.7257 5.5633 -2.9862 0.9742
0.7127 5.7871 -2.9893 0.9741
-0.3250 5.8283 -2.9926 0.9741
-1.3548 5.6850 -2.9961 0.9741
-1.8565 5.5452 -2.9979 0.9741
-3.2614 4.8664 -3.0033 0.9740
-3.6838 4.5595 -3.0051 0.9740
-4.4387 3.8383 -3.0084 0.9740
-4.7652 3.4298 -3.0099 0.9740
-5.5094 2.0517 -3.0140 0.9739
-5.6722 1.5538 -3.0151 0.9739
-5.6512 0.0000 -3.0168 0.9747
-5.6297 -0.5031 -3.0174 0.9747
-5.1011 -2.4366 -3.0179 0.9747
-4.8636 -2.8807 -3.0176 0.9747
-4.5873 -3.3017 -3.0172 0.9747
-4.2744 -3.6962 -3.0167 0.9747
-3.9275 -4.0610 -3.0160 0.9747
-3.5495 -4.3932 -3.0151 0.9747
-1.7904 -5.3475 -3.0105 0.9748
-0.3135 -5.6221 -3.0060 0.9748
0.1880 -5.6246 -3.0043 0.9748
2.1142 -5.1445 -2.9692 0.9751
2.9832 -4.6731 -2.9597 0.9752
3.3865 -4.3880 -2.9590 0.9752
3.7628 -4.0683 -2.9584 0.9752
4.4232 -3.3357 -2.9575 0.9752
5.3087 -1.5821 -2.9572 0.9752
5.4289 -1.1035 -2.9574 0.9752
5.5063 -0.6160 -2.9578 0.9752
5.5303 0.3702 -2.9589 0.9752
5.2715 1.8305 -2.9790 0.9750
5.0878 2.2925 -2.9790 0.9750
4.6016 3.1588 -2.9796 0.9750
4.3029 3.5565 -2.9801 0.9750
3.2130 4.5705 -2.9825 0.9750
2.7944 4.8401 -2.9836 0.9750
2.3534 5.0716 -2.9847 0.9750
1.8935 5.2632 -2.9860 0.9750
1.4182 5.4133 -2.9874 0.9749
-0.0624 5.6043 -2.9920 0.9749
-0.5613 5.5796 -2.9937 0.9749
-2.0190 5.2421 -2.9988 0.9749
-2.4790 5.0445 -3.0006 0.9748
-4.0926 3.8708 -3.0072 0.9748
-4.4232 3.4929 -3.0087 0.9748
-4.7187 3.0869 -3.0102 0.9748
-4.9770 2.6558 -3.0115 0.9747
-5.3733 1.7327 -3.0139 0.9747
-5.5080 1.2479 -3.0149 0.9747
-5.6461 -0.2518 -3.0171 0.9747
-5.3805 -1.7350 -3.0180 0.9747
-5.2047 -2.2070 -3.0180 0.9747
-4.9873 -2.6613 -3.0178 0.9747
-4.7301 -3.0943 -3.0175 0.9747
-4.4352 -3.5024 -3.0170 0.9747
-4.1050 -3.8825 -3.0163 0.9747
-3.3497 -4.5462 -3.0146 0.9747
-2.0273 -5.2636 -3.0112 0.9747
-0.5638 -5.6040 -3.0068 0.9748
-0.0627 -5.6289 -3.0052 0.9748
0.9353 -5.5446 -3.0018 0.9748
1.4242 -5.4363 -3.0001 0.9748
1.8885 -5.2492 -2.9781 0.9750
2.3389 -5.0403 -2.9664 0.9751
3.5782 -4.2323 -2.9587 0.9752
4.2704 -3.5296 -2.9576 0.9752
4.5672 -3.1351 -2.9573 0.9752
4.8277 -2.7160 -2.9571 0.9752
5.2328 -1.8170 -2.9571 0.9752
5.4730 -0.8606 -2.9576 0.9752
5.5090 0.6163 -2.9593 0.9752
5.1847 2.0635 -2.9790 0.9750
4.9807 2.5169 -2.9791 0.9750
4.7374 2.9505 -2.9794 0.9750
4.4566 3.3609 -2.9799 0.9750
3.7918 4.0997 -2.9812 0.9750
3.4128 4.4222 -2.9820 0.9750
3.0067 4.7100 -2.9830 0.9750
2.5765 4.9607 -2.9841 0.9750
2.1256 5.1725 -2.9854 0.9750
1.6576 5.3435 -2.9867 0.9750
0.1872 5.6000 -2.9912 0.9749
-0.3121 5.5975 -2.9928 0.9749
-1.3011 5.4597 -2.9962 0.9749
-3.1319 4.6731 -3.0031 0.9748
-3.9151 4.0482 -3.0064 0.9748
-4.2621 3.6856 -3.0080 0.9748
-5.2898 1.9700 -3.0134 0.9747
-5.4460 1.4918 -3.0144 0.9747
-5.5589 1.0015 -3.0154 0.9747
-5.6275 0.5029 -3.0162 0.9747
-5.4099 -0.4834 -3.0166 0.9755
-5.3460 -0.9631 -3.0170 0.9755
-5.0910 -1.8959 -3.0172 0.9754
-4.9019 -2.3414 -3.0171 0.9755
-4.6737 -2.7682 -3.0169 0.9755
-4.4082 -3.1728 -3.0165 0.9755
-4.1075 -3.5519 -3.0160 0.9755
-3.7743 -3.9025 -3.0153 0.9755
-2.1721 -4.9677 -3.0113 0.9755
-1.7206 -5.1392 -3.0100 0.9755
-1.2558 -5.2695 -3.0086 0.9755
0.6608 -5.3655 -3.0025 0.9756
2.4620 -4.7403 -2.9667 0.9759
4.9479 -1.9692 -2.9577 0.9759
5.2936 -0.5922 -2.9584 0.9759
5.3262 -0.1187 -2.9589 0.9759
5.2707 0.8283 -2.9634 0.9759
5.2028 1.3013 -2.9786 0.9758
4.8915 2.2040 -2.9798 0.9758
4.6763 2.6309 -2.9800 0.9757
4.1369 3.4192 -2.9808 0.9757
3.0889 4.3941 -2.9831 0.9757
2.6865 4.6532 -2.9841 0.9757
1.3634 5.2040 -2.9878 0.9757
0.8952 5.3072 -2.9892 0.9757
0.4195 5.3685 -2.9907 0.9757
-0.5396 5.3634 -2.9939 0.9756
-1.0154 5.2970 -2.9955 0.9756
-2.3827 4.8486 -3.0005 0.9756
-3.2081 4.3541 -3.0038 0.9756
-3.5848 4.0534 -3.0053 0.9755
-3.9334 3.7202 -3.0069 0.9755
-4.2509 3.3569 -3.0083 0.9755
-5.1637 1.6651 -3.0133 0.9755
-5.2931 1.1993 -3.0143 0.9755
-5.2981 -1.2004 -3.0171 0.9755
-5.0015 -2.1208 -3.0172 0.9754
-4.5455 -2.9735 -3.0167 0.9755
-3.9448 -3.7309 -3.0156 0.9755
-3.2191 -4.3689 -3.0140 0.9755
-2.3917 -4.8670 -3.0119 0.9755
-1.9483 -5.0585 -3.0107 0.9755
-1.4896 -5.2096 -3.0093 0.9755
-0.5418 -5.3860 -3.0064 0.9755
-0.0603 -5.4100 -3.0049 0.9755
2.6683 -4.6216 -2.9639 0.9759
4.6414 -2.6112 -2.9578 0.9759
4.8552 -2.1877 -2.9577 0.9759
5.2617 -0.8273 -2.9582 0.9759
5.3152 -0.3558 -2.9586 0.9759
5.3267 0.1187 -2.9592 0.9759
5.1416 1.5324 -2.9798 0.9758
4.9848 1.9839 -2.9797 0.9758
4.7886 2.4198 -2.9799 0.9757
4.2847 3.2313 -2.9806 0.9757
2.0435 4.9726 -2.9859 0.9757
1.5935 5.1370 -2.9871 0.9757
1.1305 5.2608 -2.9885 0.9757
0.1800 5.3832 -2.9915 0.9757
-0.7782 5.3355 -2.9947 0.9756
-2.1637 4.9486 -2.9997 0.9756
-3.7628 3.8907 -3.0061 0.9755
-4.0962 3.5421 -3.0076 0.9755
-4.8930 2.3372 -3.0116 0.9755
-5.2229 0.0000 -3.0154 0.9762
-5.1416 -0.9263 -3.0163 0.9762
-5.0390 -1.3803 -3.0165 0.9762
-4.2396 -3.0514 -3.0158 0.9762
-3.6299 -3.7533 -3.0146 0.9762
-2.0892 -4.7781 -3.0108 0.9762
-1.2079 -5.0685 -3.0082 0.9762
1.0919 -5.0814 -3.0007 0.9763
2.3712 -4.5655 -2.9702 0.9765
3.1324 -4.0588 -2.9601 0.9766
3.4806 -3.7631 -2.9595 0.9766
4.9106 -1.4635 -2.9584 0.9766
5.0218 -1.0207 -2.9586 0.9766
5.0933 -0.5697 -2.9590 0.9766
5.1246 -0.1142 -2.9594 0.9766
5.0081 1.2526 -2.9805 0.9764
4.2568 2.9222 -2.9810 0.9764
3.9805 3.2900 -2.9815 0.9764
2.9720 4.2278 -2.9837 0.9764
2.5848 4.4770 -2.9847 0.9764
2.1768 4.6910 -2.9858 0.9764
1.3117 5.0068 -2.9882 0.9764
0.4036 5.1648 -2.9910 0.9764
-0.0578 5.1828 -2.9925 0.9763
-0.5191 5.1598 -2.9940 0.9763
-1.4272 4.9913 -2.9972 0.9763
-1.8668 4.8470 -2.9988 0.9763
-2.6995 4.4440 -3.0020 0.9763
-3.0859 4.1882 -3.0036 0.9763
-3.7834 3.5783 -3.0066 0.9762
-4.6004 2.4549 -3.0105 0.9762
-5.2182 -0.2327 -3.0157 0.9762
-5.1775 -0.6963 -3.0161 0.9762
-4.9726 -1.6035 -3.0165 0.9762
-4.8101 -2.0396 -3.0165 0.9762
-3.7940 -3.5883 -3.0150 0.9762
-3.0960 -4.2019 -3.0134 0.9762
-2.3004 -4.6811 -3.0114 0.9762
-0.9807 -5.1161 -3.0076 0.9762
-0.5212 -5.1806 -3.0061 0.9762
0.8647 -5.1264 -3.0015 0.9763
2.1717 -4.6799 -2.9787 0.9765
2.5696 -4.4507 -2.9671 0.9765
2.9507 -4.1974 -2.9623 0.9766
3.3098 -3.9148 -2.9598 0.9766
4.4658 -2.5124 -2.9583 0.9766
4.6716 -2.1049 -2.9583 0.9766
4.9711 -1.2433 -2.9585 0.9766
5.1140 -0.3423 -2.9592 0.9766
5.0568 1.0278 -2.9792 0.9764
4.1227 3.1091 -2.9812 0.9764
3.5076 3.7924 -2.9825 0.9764
1.0876 5.0614 -2.9889 0.9764
0.6331 5.1405 -2.9903 0.9764
-1.6486 4.9240 -2.9980 0.9763
-2.0814 4.7603 -2.9996 0.9763
-2.4982 4.5586 -3.0012 0.9763
-3.2702 4.0477 -3.0043 0.9763
-3.6193 3.7424 -3.0058 0.9762
