ply
format ascii 1.0
element vertex 590
property float32 x
property float32 y
property float32 z
property float32 I
end_header
-1.5739 -6.3221 3.6184 0.9706
-6.9256 -3.2796 1.2202 0.9694
-6.6353 -3.1422 1.0443 0.9708
-7.0257 -2.5950 0.9386 0.9703
-6.4735 -3.0655 0.8976 0.9715
-6.3971 -3.7544 0.9295 0.9705
-6.8272 -2.5217 0.7894 0.9711
-6.3524 -3.0082 0.7624 0.9721
-6.2371 -3.6605 0.7844 0.9713
-6.7023 -2.4755 0.6550 0.9717
-6.2575 -2.9633 0.6347 0.9726
-6.1830 -2.9280 0.5127 0.9729
-6.0364 -3.5426 0.5245 0.9723
-5.9709 -3.5042 0.4032 0.9726
-6.2787 -4.4746 0.4491 0.9696
-6.4550 -2.3842 0.2861 0.9728
-6.0706 -2.8747 0.2793 0.9735
-5.9092 -3.4680 0.2849 0.9729
-6.1136 -4.3570 0.3121 0.9704
-7.2688 -1.9754 0.1878 0.9703
-7.1904 -1.9541 0.0619 0.9706
-6.0079 -2.8451 0.0552 0.9738
-5.8430 -3.4292 0.0563 0.9733
-7.1162 -1.9340 -0.0613 0.9709
-5.8119 -3.4109 -0.0560 0.9734
-5.9207 -4.2195 -0.0604 0.9713
-7.0916 -1.9273 -0.1833 0.9710
-6.3354 -2.3400 -0.1684 0.9733
-5.9680 -2.8261 -0.1647 0.9739
-6.3242 -2.3359 -0.2803 0.9734
-5.9583 -2.8216 -0.2741 0.9740
-5.7918 -3.3991 -0.2792 0.9735
-5.8831 -4.1927 -0.3004 0.9715
-7.0543 -1.9171 -0.4258 0.9711
-6.3130 -2.3317 -0.3920 0.9734
-6.3234 -2.3356 -0.5052 0.9733
-5.9560 -2.8205 -0.4939 0.9739
-5.8908 -4.1981 -0.5421 0.9714
-6.3348 -2.3398 -0.6191 0.9732
-5.9659 -2.8251 -0.6052 0.9738
-5.8114 -3.4106 -0.7309 0.9733
-5.9477 -4.2387 -0.7922 0.9710
-7.2436 -1.9686 -0.9407 0.9702
-6.0035 -2.8429 -0.8324 0.9736
-5.8428 -3.4290 -0.8490 0.9731
-6.0120 -4.2845 -0.9251 0.9707
-7.3599 -2.0002 -1.0848 0.9697
-6.4192 -2.3710 -0.9733 0.9727
-6.0780 -4.3316 -1.0616 0.9703
-6.0689 -2.8739 -1.0693 0.9732
-5.9160 -3.4720 -1.0923 0.9726
-6.2529 -4.4562 -1.2227 0.9694
-6.1300 -2.9028 -1.1959 0.9728
-5.9855 -3.5128 -1.2237 0.9722
-6.6274 -2.4479 -1.3672 0.9716
-6.1927 -2.9326 -1.3260 0.9725
-6.0589 -3.5559 -1.3595 0.9718
13.5833 5.6876 -2.8497 0.9418
13.0276 6.8652 -2.8497 0.9418
11.6162 9.0508 -2.8497 0.9418
10.7716 10.0419 -2.8498 0.9418
-14.0044 -1.2420 -2.9640 0.9441
-13.8406 -2.4743 -2.9641 0.9441
-6.7704 -2.5006 -1.5216 0.9709
-6.2858 -2.9767 -1.4663 0.9720
-6.1819 -3.6280 -1.5111 0.9711
-11.4701 -8.1743 -2.9694 0.9440
-9.8660 -10.0790 -2.9734 0.9440
-6.8947 -12.3447 -2.9809 0.9438
-2.1992 -14.0245 -2.9928 0.9436
-0.9527 -14.1789 -2.9959 0.9436
0.3037 -14.2157 -2.9976 0.9435
1.5585 -14.1346 -2.9979 0.9435
5.2124 -13.2351 -2.9988 0.9435
6.3618 -12.7241 -2.9991 0.9435
7.4617 -12.1136 -2.9994 0.9435
10.3803 -9.7354 -3.0002 0.9435
11.2006 -8.7812 -3.0005 0.9435
13.5533 -4.3577 -3.0014 0.9435
13.8860 -3.1436 -3.0015 0.9435
14.1101 -1.9047 -3.0017 0.9435
14.2238 -0.6509 -3.0018 0.9435
13.5693 4.3180 -3.0020 0.9435
12.4673 5.2203 -2.8495 0.9462
11.9573 6.3011 -2.8494 0.9462
11.3539 7.3328 -2.8494 0.9462
10.6623 8.3075 -2.8496 0.9462
9.8872 9.2174 -2.8497 0.9462
9.0348 10.0553 -2.8499 0.9462
8.1117 10.8147 -2.8500 0.9462
7.1250 11.4896 -2.8502 0.9462
-12.7962 -2.2876 -2.9670 0.9481
-12.5457 -3.4095 -2.9673 0.9481
-6.3968 -3.0292 -1.6155 0.9714
-6.3366 -3.7189 -1.6770 0.9703
-10.6023 -7.5558 -2.9716 0.9480
-8.2660 -10.0919 -2.9775 0.9479
-3.1651 -12.7135 -2.9903 0.9477
-2.0316 -12.9557 -2.9932 0.9476
1.4395 -13.0558 -2.9980 0.9475
4.8144 -12.2247 -2.9988 0.9475
6.8919 -11.1887 -2.9993 0.9475
7.8541 -10.5371 -2.9996 0.9475
9.5875 -8.9919 -3.0001 0.9475
12.1126 -5.1146 -3.0010 0.9475
12.5178 -4.0248 -3.0012 0.9475
12.8251 -2.9034 -3.0013 0.9475
13.0320 -1.7592 -3.0014 0.9475
13.1369 -0.6011 -3.0016 0.9475
13.0384 1.7203 -3.0017 0.9475
12.1311 5.0795 -3.0018 0.9475
10.4861 6.7723 -2.8491 0.9501
9.8486 7.6735 -2.8496 0.9501
7.4925 9.9892 -2.8500 0.9501
6.5811 10.6126 -2.8502 0.9501
-12.1841 0.0000 -2.9948 0.9511
-12.0328 -1.0671 -2.9693 0.9515
-11.8920 -2.1259 -2.9694 0.9515
-6.5833 -3.1175 -1.7904 0.9704
-10.4290 -6.1205 -2.9723 0.9514
-9.1978 -7.8679 -2.9751 0.9514
-8.4720 -8.6549 -2.9769 0.9513
-7.6794 -9.3758 -2.9789 0.9513
-6.8261 -10.0247 -2.9811 0.9513
-5.9184 -10.5967 -2.9834 0.9512
-4.9632 -11.0871 -2.9858 0.9512
-2.9396 -11.8076 -2.9909 0.9511
-1.8867 -12.0318 -2.9936 0.9511
-0.8172 -12.1626 -2.9963 0.9510
1.3367 -12.1235 -2.9980 0.9510
2.4027 -11.9590 -2.9983 0.9510
5.4563 -10.9131 -2.9990 0.9510
6.3996 -10.3893 -2.9993 0.9510
8.1294 -9.1024 -2.9998 0.9510
9.6058 -7.5309 -3.0002 0.9510
10.7827 -5.7236 -3.0006 0.9510
11.6230 -3.7371 -3.0010 0.9510
12.1997 0.5216 -3.0014 0.9509
11.9180 2.6605 -3.0015 0.9509
10.2540 5.4036 -2.8490 0.9534
9.1426 7.1235 -2.8489 0.9534
6.9574 9.2758 -2.8501 0.9534
6.1111 9.8546 -2.8502 0.9534
-11.3704 0.0000 -2.9961 0.9541
-11.2326 -0.9961 -2.9714 0.9544
-11.1011 -1.9846 -2.9715 0.9544
-10.8836 -2.9578 -2.9719 0.9544
-7.0534 -3.3401 -2.0564 0.9682
-9.7347 -5.7131 -2.9742 0.9544
-9.1958 -6.5535 -2.9755 0.9544
-7.9070 -8.0778 -2.9785 0.9543
-6.3701 -9.3550 -2.9823 0.9543
-5.5227 -9.8882 -2.9844 0.9542
-3.7021 -10.7224 -2.9890 0.9542
-2.7427 -11.0166 -2.9915 0.9541
-1.7603 -11.2254 -2.9940 0.9541
0.2430 -11.3744 -2.9978 0.9540
1.2469 -11.3093 -2.9981 0.9540
4.1703 -10.5889 -2.9988 0.9540
5.9696 -9.6913 -2.9992 0.9540
8.3041 -7.7882 -2.9999 0.9540
8.9603 -7.0247 -3.0001 0.9540
9.5464 -6.2061 -3.0003 0.9540
10.4908 -4.4297 -3.0007 0.9540
11.1077 -2.5146 -3.0010 0.9540
11.3777 -0.5206 -3.0012 0.9540
11.3795 0.4865 -3.0012 0.9540
11.2923 1.4899 -3.0013 0.9540
11.1167 2.4816 -3.0013 0.9540
10.8540 3.4540 -3.0014 0.9540
9.6338 5.0767 -2.8694 0.9560
8.5279 6.6446 -2.8487 0.9563
7.9110 7.3750 -2.8499 0.9562
7.2288 8.0453 -2.8500 0.9562
-10.6493 0.0000 -2.9963 0.9567
-10.4032 -1.8598 -2.9734 0.9570
-9.5564 -4.5254 -2.9750 0.9570
-9.1222 -5.3537 -2.9759 0.9570
-8.6169 -6.1409 -2.9771 0.9570
-7.4088 -7.5688 -2.9800 0.9569
-5.1741 -9.2640 -2.9855 0.9569
-0.7141 -10.6278 -2.9970 0.9567
0.2276 -10.6527 -2.9979 0.9567
1.1678 -10.5917 -2.9981 0.9567
2.0991 -10.4479 -2.9983 0.9567
3.0141 -10.2224 -2.9985 0.9567
5.5907 -9.0761 -2.9992 0.9567
7.1017 -7.9517 -2.9996 0.9567
8.3913 -6.5787 -3.0000 0.9567
9.4193 -4.9999 -3.0004 0.9567
10.1532 -3.2645 -3.0007 0.9567
10.4023 -2.3549 -3.0008 0.9566
10.6551 -0.4876 -3.0010 0.9566
10.6568 0.4556 -3.0011 0.9566
10.5750 1.3953 -3.0011 0.9566
9.4367 4.9729 -3.0012 0.9566
7.9863 6.2225 -2.8485 0.9588
5.3388 8.6093 -2.8502 0.9588
-9.7824 -1.7488 -2.9751 0.9594
-9.5906 -2.6064 -2.9754 0.9594
-9.3244 -3.4440 -2.9759 0.9593
-8.9858 -4.2552 -2.9766 0.9593
-8.5774 -5.0339 -2.9775 0.9593
-6.3133 -7.7078 -2.9828 0.9593
-5.6109 -8.2402 -2.9846 0.9592
-3.2600 -9.4420 -2.9905 0.9591
0.2139 -10.0115 -2.9979 0.9591
1.9727 -9.8189 -2.9983 0.9590
3.6704 -9.3198 -2.9988 0.9590
4.4797 -8.9598 -2.9990 0.9590
5.2541 -8.5296 -2.9992 0.9590
5.9874 -8.0327 -2.9994 0.9590
6.6740 -7.4729 -2.9996 0.9590
8.4017 -5.4620 -3.0001 0.9590
8.8519 -4.6987 -3.0003 0.9590
9.2328 -3.8985 -3.0004 0.9590
9.5415 -3.0678 -3.0006 0.9590
9.7756 -2.2130 -3.0007 0.9590
9.9332 -1.3409 -3.0008 0.9590
10.0131 -0.4582 -3.0009 0.9590
9.2463 3.8716 -3.0010 0.9590
6.9590 6.4876 -2.8483 0.9611
6.3611 7.0797 -2.8494 0.9610
5.7124 7.6159 -2.8501 0.9610
5.0174 8.0910 -2.8502 0.9610
-9.3467 -0.8289 -2.9800 0.9614
-9.2263 -1.6494 -2.9766 0.9614
-9.0454 -2.4582 -2.9769 0.9614
-8.4748 -4.0132 -2.9780 0.9614
-8.0894 -4.7475 -2.9788 0.9614
-7.6410 -5.4454 -2.9799 0.9614
-7.1329 -6.1016 -2.9810 0.9614
-5.9535 -7.2686 -2.9839 0.9613
-3.0738 -8.9026 -2.9911 0.9612
-1.4611 -9.3176 -2.9953 0.9612
-0.6328 -9.4171 -2.9975 0.9612
1.0347 -9.3836 -2.9982 0.9612
2.6702 -9.0563 -2.9986 0.9611
3.4601 -8.7856 -2.9988 0.9611
4.9528 -8.0406 -2.9991 0.9611
5.6441 -7.5721 -2.9993 0.9611
6.2913 -7.0444 -2.9995 0.9611
7.4337 -5.8279 -2.9999 0.9611
7.9199 -5.1487 -3.0000 0.9611
8.9943 -2.8919 -3.0004 0.9611
9.2149 -2.0861 -3.0006 0.9611
9.3635 -1.2640 -3.0007 0.9611
9.3678 1.2360 -3.0008 0.9611
9.2221 2.0587 -3.0009 0.9611
8.7159 3.6495 -3.0009 0.9611
7.6523 4.9422 -2.8930 0.9625
7.0746 5.5122 -2.8483 0.9631
6.5599 6.1155 -2.8482 0.9631
5.9938 6.6708 -2.8481 0.9631
4.7299 7.6273 -2.8502 0.9630
-8.9191 0.0000 -2.9967 0.9631
-8.8512 -0.7849 -2.9855 0.9632
-8.3163 -3.0716 -2.9786 0.9633
-7.6496 -4.4894 -2.9801 0.9633
-5.6293 -6.8728 -2.9848 0.9632
-5.0028 -7.3470 -2.9864 0.9632
-4.3366 -7.7645 -2.9881 0.9632
-3.6359 -8.1221 -2.9898 0.9631
-2.1525 -8.6461 -2.9936 0.9631
0.1907 -8.9211 -2.9980 0.9630
0.9780 -8.8699 -2.9982 0.9630
1.7578 -8.7494 -2.9984 0.9630
3.2706 -8.3045 -2.9988 0.9630
5.9468 -6.6585 -2.9995 0.9630
7.0265 -5.5087 -2.9998 0.9630
7.4861 -4.8667 -3.0000 0.9630
7.8871 -4.1865 -3.0001 0.9630
8.5015 -2.7334 -3.0004 0.9630
8.7100 -1.9718 -3.0005 0.9630
8.9216 -0.4082 -3.0006 0.9630
8.8545 1.1683 -3.0007 0.9630
8.7168 1.9459 -3.0008 0.9630
7.9013 4.1638 -3.0007 0.9630
7.5025 4.8454 -3.0007 0.9630
6.6870 5.2102 -2.8482 0.9649
6.2004 5.7804 -2.8481 0.9649
5.6654 6.3053 -2.8480 0.9649
-8.4514 0.0000 -2.9968 0.9648
-8.2706 -1.4786 -2.9792 0.9650
-8.1084 -2.2036 -2.9794 0.9650
-7.5966 -3.5974 -2.9804 0.9650
-6.8488 -4.8809 -2.9821 0.9649
-5.3355 -6.5141 -2.9857 0.9649
-3.4458 -7.6975 -2.9904 0.9648
-2.7540 -7.9765 -2.9922 0.9648
-2.0399 -8.1936 -2.9940 0.9648
-0.5668 -8.4355 -2.9979 0.9648
0.1806 -8.4531 -2.9980 0.9648
4.4359 -7.2014 -2.9991 0.9647
5.6347 -6.3091 -2.9994 0.9647
7.0931 -4.6112 -2.9999 0.9647
7.4731 -3.9668 -3.0000 0.9647
7.7946 -3.2912 -3.0001 0.9647
8.4545 0.3615 -3.0006 0.9647
5.8749 5.4769 -2.8480 0.9665
5.3680 5.9743 -2.8479 0.9665
-8.0256 0.0000 -2.9969 0.9663
-7.8566 -1.4046 -2.9803 0.9665
-7.4884 -2.7659 -2.9809 0.9665
-6.5057 -4.6363 -2.9831 0.9665
-5.5922 -5.7130 -2.9852 0.9664
-4.5036 -6.6139 -2.9879 0.9664
-2.6156 -7.5756 -2.9927 0.9664
0.8800 -7.9809 -2.9982 0.9663
1.5817 -7.8724 -2.9984 0.9663
2.9427 -7.4721 -2.9987 0.9663
3.5915 -7.1833 -2.9989 0.9663
4.2122 -6.8383 -2.9991 0.9663
4.8001 -6.4399 -2.9992 0.9663
6.3220 -4.9563 -2.9997 0.9663
6.7354 -4.3787 -2.9998 0.9663
7.0962 -3.7667 -3.0000 0.9663
7.4015 -3.1253 -3.0001 0.9663
7.8365 -1.7741 -3.0003 0.9663
7.9664 1.0511 -3.0005 0.9663
7.8425 1.7507 -3.0005 0.9663
7.1089 3.7462 -3.0005 0.9663
5.0972 5.6730 -2.8478 0.9680
4.5761 6.1009 -2.8477 0.9680
-7.6361 0.0000 -2.9969 0.9677
-7.6061 -0.6745 -2.9969 0.9677
-7.4776 -1.3368 -2.9813 0.9679
-7.3309 -1.9923 -2.9815 0.9679
-7.1271 -2.6324 -2.9819 0.9679
-6.8680 -3.2523 -2.9824 0.9679
-6.5553 -3.8472 -2.9831 0.9679
-6.1916 -4.4125 -2.9840 0.9679
-5.7794 -4.9438 -2.9849 0.9678
-5.3220 -5.4370 -2.9860 0.9678
-4.8229 -5.8882 -2.9872 0.9678
-4.2858 -6.2941 -2.9885 0.9678
-2.4889 -7.2087 -2.9931 0.9678
-1.8434 -7.4045 -2.9948 0.9677
0.1632 -7.6373 -2.9981 0.9677
1.5048 -7.4901 -2.9984 0.9677
3.4171 -6.8344 -2.9989 0.9677
5.0906 -5.6999 -2.9994 0.9677
5.5745 -5.2282 -2.9995 0.9677
6.0149 -4.7156 -2.9996 0.9677
7.2773 -2.3398 -3.0001 0.9677
7.6368 -0.3494 -3.0003 0.9677
7.5793 1.0000 -3.0004 0.9677
7.4614 1.6657 -3.0005 0.9677
7.2851 2.3183 -3.0005 0.9677
5.3075 4.9479 -2.8478 0.9693
4.3537 5.8045 -2.8477 0.9693
3.8238 6.1662 -2.8476 0.9693
-7.2496 -0.6429 -2.9970 0.9690
-6.9893 -1.8994 -2.9825 0.9692
-6.7950 -2.5097 -2.9828 0.9692
-5.9028 -4.2067 -2.9848 0.9691
-5.5098 -4.7131 -2.9857 0.9691
-5.0737 -5.1832 -2.9867 0.9691
-4.5978 -5.6133 -2.9879 0.9691
-2.9687 -6.6317 -2.9920 0.9691
0.1555 -7.2792 -2.9981 0.9690
0.7980 -7.2374 -2.9983 0.9690
1.4343 -7.1389 -2.9984 0.9690
2.6685 -6.7758 -2.9987 0.9690
5.3130 -4.9830 -2.9995 0.9690
5.7327 -4.4943 -2.9996 0.9690
6.1076 -3.9705 -2.9997 0.9690
6.4347 -3.4156 -2.9998 0.9690
6.7115 -2.8339 -2.9999 0.9690
7.1059 -1.6087 -3.0001 0.9690
7.2784 -0.3330 -3.0003 0.9690
7.2795 0.3112 -3.0003 0.9690
7.2237 0.9531 -3.0003 0.9690
7.1113 1.5875 -3.0004 0.9690
6.7209 2.8142 -3.0004 0.9690
6.4461 3.3969 -3.0004 0.9690
6.1207 3.9530 -3.0003 0.9690
5.1156 4.7691 -2.8799 0.9702
4.6220 5.1441 -2.8477 0.9705
-6.9480 0.0000 -2.9971 0.9702
-6.9208 -0.6137 -2.9971 0.9702
-6.2524 -2.9608 -2.9841 0.9703
-4.3900 -5.3597 -2.9885 0.9703
-3.9009 -5.7289 -2.9897 0.9703
-2.2651 -6.5604 -2.9938 0.9702
-0.4659 -6.9345 -2.9980 0.9702
0.1485 -6.9489 -2.9982 0.9702
1.3692 -6.8150 -2.9984 0.9702
1.9660 -6.6677 -2.9986 0.9702
2.5474 -6.4683 -2.9987 0.9702
3.6463 -5.9196 -2.9990 0.9702
4.1552 -5.5746 -2.9992 0.9702
4.6316 -5.1860 -2.9993 0.9702
6.4068 -2.7053 -2.9999 0.9702
6.6209 -2.1288 -3.0000 0.9702
6.7833 -1.5356 -3.0001 0.9702
6.8926 -0.9304 -3.0001 0.9702
6.9480 -0.3179 -3.0002 0.9702
6.9490 0.2971 -3.0002 0.9702
6.7884 1.5154 -3.0003 0.9702
6.6280 2.1092 -3.0003 0.9702
6.1533 3.2427 -3.0003 0.9702
5.4865 4.2749 -3.0002 0.9702
3.9610 5.2809 -2.8475 0.9717
3.4789 5.6100 -2.8475 0.9717
-6.5251 -1.1665 -2.9909 0.9713
-6.3820 -1.7344 -2.9841 0.9714
-5.7064 -3.3490 -2.9855 0.9714
-5.3895 -3.8409 -2.9862 0.9714
-4.6322 -4.7322 -2.9880 0.9714
-4.1976 -5.1248 -2.9891 0.9713
-3.2328 -5.7881 -2.9915 0.9713
-2.7100 -6.0538 -2.9928 0.9713
-2.1656 -6.2724 -2.9942 0.9713
0.7283 -6.6049 -2.9983 0.9713
1.3089 -6.5150 -2.9984 0.9713
2.4353 -6.1836 -2.9987 0.9713
4.8486 -4.5473 -2.9994 0.9713
5.2315 -4.1014 -2.9995 0.9712
5.5736 -3.6234 -2.9996 0.9712
6.1247 -2.5861 -2.9998 0.9712
6.5891 -0.8894 -3.0001 0.9712
6.6420 -0.3039 -3.0001 0.9712
6.6430 0.2840 -3.0002 0.9712
6.4895 1.4487 -3.0002 0.9712
6.3361 2.0163 -3.0002 0.9712
6.1332 2.5681 -3.0002 0.9712
4.8633 4.5338 -3.0001 0.9712
4.2360 4.7144 -2.8598 0.9726
-6.3584 0.0000 -2.9972 0.9723
-6.2590 -1.1190 -2.9971 0.9723
-6.1105 -1.6606 -2.9848 0.9724
-5.7244 -2.7108 -2.9856 0.9724
-5.1601 -3.6774 -2.9869 0.9724
-4.8164 -4.1200 -2.9877 0.9724
-3.5709 -5.2442 -2.9907 0.9723
-3.0949 -5.5414 -2.9919 0.9723
-2.5944 -5.7956 -2.9932 0.9723
-0.4264 -6.3459 -2.9981 0.9723
0.1359 -6.3590 -2.9982 0.9723
1.2530 -6.2364 -2.9985 0.9723
2.3311 -5.9191 -2.9987 0.9723
2.8450 -5.6903 -2.9989 0.9723
3.3367 -5.4170 -2.9990 0.9723
5.0077 -3.9260 -2.9995 0.9723
5.3352 -3.4684 -2.9996 0.9723
5.6209 -2.9836 -2.9997 0.9723
6.0586 -1.9480 -2.9999 0.9722
6.3072 -0.8514 -3.0000 0.9722
6.3588 0.2719 -3.0001 0.9722
6.3100 0.8325 -3.0001 0.9722
5.6307 2.9672 -3.0001 0.9722
5.3465 3.4530 -3.0001 0.9722
5.0205 3.9117 -3.0001 0.9722
3.1835 5.1336 -2.8474 0.9736
-6.0699 -0.5383 -2.9973 0.9732
-5.9986 -1.0724 -2.9972 0.9732
-5.8575 -1.5919 -2.9855 0.9733
-5.6945 -2.1033 -2.9858 0.9733
-5.4872 -2.5985 -2.9863 0.9733
-4.6168 -3.9492 -2.9882 0.9733
-3.8521 -4.7030 -2.9901 0.9733
-2.9665 -5.3114 -2.9923 0.9732
-1.4716 -5.9110 -2.9961 0.9732
-0.9441 -6.0206 -2.9975 0.9732
0.6681 -6.0593 -2.9983 0.9732
1.2008 -5.9768 -2.9985 0.9732
1.7242 -5.8476 -2.9986 0.9732
2.2341 -5.6727 -2.9987 0.9732
2.7266 -5.4534 -2.9988 0.9732
3.1978 -5.1914 -2.9990 0.9732
3.6441 -4.8888 -2.9991 0.9732
4.7992 -3.7625 -2.9994 0.9732
5.3868 -2.8593 -2.9996 0.9732
5.6185 -2.3724 -2.9997 0.9732
5.8063 -1.8668 -2.9998 0.9732
6.0444 -0.8159 -2.9999 0.9732
6.0930 -0.2788 -3.0000 0.9732
6.0471 0.7979 -3.0001 0.9732
5.8124 1.8496 -3.0001 0.9732
5.6263 2.3558 -3.0001 0.9732
4.8114 3.7488 -3.0000 0.9732
3.0509 4.9198 -2.8473 0.9745
-5.8236 -0.5165 -2.9973 0.9741
-5.7552 -1.0289 -2.9973 0.9741
-5.6209 -1.5275 -2.9862 0.9742
-5.2655 -2.4935 -2.9869 0.9742
-5.0256 -2.9494 -2.9874 0.9741
-4.7464 -3.3825 -2.9880 0.9741
-4.0792 -4.1672 -2.9896 0.9741
-3.6962 -4.5127 -2.9905 0.9741
-2.3860 -5.3300 -2.9938 0.9741
-1.4119 -5.6714 -2.9963 0.9741
0.6410 -5.8133 -2.9984 0.9741
1.6542 -5.6102 -2.9986 0.9741
2.1434 -5.4423 -2.9987 0.9741
2.6159 -5.2319 -2.9988 0.9740
4.2673 -4.0021 -2.9993 0.9740
4.6043 -3.6097 -2.9994 0.9740
5.3903 -2.2760 -2.9997 0.9740
5.5704 -1.7910 -2.9998 0.9740
5.8455 -0.2675 -2.9999 0.9740
5.3977 2.2601 -3.0000 0.9740
4.9157 3.1748 -3.0000 0.9740
2.9270 4.7199 -2.8473 0.9753
-4.8271 -2.8330 -2.9880 0.9749
-4.2551 -3.6399 -2.9893 0.9749
-3.5501 -4.3343 -2.9910 0.9749
-3.1544 -4.6325 -2.9920 0.9749
-2.2916 -5.1191 -2.9941 0.9749
-1.8311 -5.3036 -2.9953 0.9749
-0.3765 -5.6035 -2.9981 0.9749
0.1200 -5.6151 -2.9983 0.9749
1.1064 -5.5067 -2.9985 0.9749
1.5886 -5.3877 -2.9986 0.9749
2.0584 -5.2265 -2.9987 0.9749
2.9463 -4.7830 -2.9989 0.9748
3.3574 -4.5042 -2.9991 0.9748
4.0980 -3.8434 -2.9993 0.9748
4.4216 -3.4664 -2.9994 0.9748
4.7107 -3.0624 -2.9995 0.9748
4.9630 -2.6344 -2.9996 0.9748
5.1764 -2.1857 -2.9996 0.9748
5.4806 -1.2407 -2.9998 0.9748
5.5688 -0.7517 -2.9998 0.9748
5.4846 1.2244 -3.0000 0.9748
4.9715 2.6199 -3.0000 0.9748
4.4328 3.4539 -2.9999 0.9748
4.1103 3.8319 -2.9999 0.9748
3.7557 4.1799 -2.9998 0.9748
3.3717 4.4953 -2.9998 0.9748
2.8587 4.6100 -2.8958 0.9757
-5.3969 0.0000 -2.9974 0.9756
-5.3126 -0.9497 -2.9974 0.9756
-5.0460 -1.8638 -2.9876 0.9757
-4.8623 -2.3025 -2.9880 0.9757
-4.6406 -2.7235 -2.9885 0.9757
-4.3827 -3.1234 -2.9891 0.9757
-4.0906 -3.4992 -2.9897 0.9757
-3.7665 -3.8478 -2.9905 0.9757
-2.6280 -4.7053 -2.9933 0.9756
-2.2029 -4.9209 -2.9944 0.9756
-1.7602 -5.0982 -2.9955 0.9756
-0.8362 -5.3326 -2.9979 0.9756
-0.3619 -5.3861 -2.9982 0.9756
0.1153 -5.3972 -2.9983 0.9756
1.0634 -5.2930 -2.9985 0.9756
1.9785 -5.0237 -2.9987 0.9756
3.2271 -4.3294 -2.9990 0.9756
3.5971 -4.0276 -2.9992 0.9756
4.2500 -3.3319 -2.9994 0.9756
4.5279 -2.9435 -2.9994 0.9756
4.7703 -2.5321 -2.9995 0.9756
4.9755 -2.1009 -2.9996 0.9756
5.1417 -1.6532 -2.9997 0.9756
5.2678 -1.1925 -2.9997 0.9756
5.3964 0.2307 -2.9999 0.9756
5.3550 0.7065 -2.9999 0.9756
5.2717 1.1768 -2.9999 0.9756
4.5374 2.9304 -2.9999 0.9756
4.2607 3.3197 -2.9999 0.9756
3.6099 4.0176 -2.9998 0.9756
2.8463 4.5898 -2.9995 0.9756
-5.1715 -0.4586 -2.9975 0.9763
-4.8550 -1.7932 -2.9881 0.9764
-4.6782 -2.2154 -2.9885 0.9764
-4.4649 -2.6204 -2.9890 0.9764
-3.9357 -3.3666 -2.9902 0.9764
-3.6238 -3.7020 -2.9909 0.9764
-2.9174 -4.2845 -2.9927 0.9763
-2.5283 -4.5269 -2.9936 0.9763
-2.1193 -4.7342 -2.9947 0.9763
-1.6934 -4.9047 -2.9958 0.9763
-0.3481 -5.1813 -2.9982 0.9763
0.5692 -5.1620 -2.9984 0.9763
1.0230 -5.0918 -2.9985 0.9763
2.3228 -4.6458 -2.9988 0.9763
4.0883 -3.2052 -2.9993 0.9763
4.5889 -2.4358 -2.9995 0.9763
4.7862 -2.0210 -2.9996 0.9763
5.1513 0.6797 -2.9999 0.9763
5.0711 1.1321 -2.9999 0.9763
4.9513 1.5756 -2.9999 0.9763
4.7928 2.0068 -2.9999 0.9763
4.5967 2.4224 -2.9999 0.9763
4.3648 2.8190 -2.9998 0.9763
4.0986 3.1935 -2.9998 0.9763
3.8005 3.5430 -2.9998 0.9763
3.4725 3.8648 -2.9997 0.9763
2.7381 4.4154 -2.9996 0.9763
