ply
format ascii 1.0
element vertex 1649
property float32 x
property float32 y
property float32 z
property float32 I
end_header
-2.0599 4.7112 2.9687 0.9765
-2.0193 4.1091 2.5429 0.9793
-2.0600 4.7113 2.8558 0.9767
-0.9845 -6.7502 3.6417 0.9695
-1.9331 4.4211 2.5759 0.9784
-1.9569 4.4755 2.5042 0.9783
-1.9963 4.5658 2.4510 0.9780
-2.0600 4.7115 2.2181 0.9778
-2.0601 4.7116 2.0182 0.9781
-2.0601 4.7116 1.8234 0.9784
-2.0601 4.7117 1.7277 0.9785
-2.0601 4.7117 1.6331 0.9786
-12.5355 5.9877 3.6606 0.9442
-2.0602 4.7118 1.2640 0.9790
-2.0602 4.7118 1.1738 0.9791
-2.0602 4.7119 0.9068 0.9793
-6.3702 -3.0428 1.1242 0.9718
-6.1584 -3.6476 1.1397 0.9714
-6.1585 -2.9417 0.9708 0.9728
-5.9235 -3.5085 0.9792 0.9726
-6.4484 -2.7344 0.9963 0.9721
-5.9941 -3.1985 0.9664 0.9729
-2.0603 4.7120 0.7315 0.9794
-6.0080 -2.8698 0.8344 0.9735
-5.8554 -3.1245 0.8317 0.9736
-5.7827 -3.7829 0.8660 0.9725
-2.0603 4.7120 0.6445 0.9795
-6.5056 -2.4227 0.7530 0.9725
-5.9168 -2.8262 0.7112 0.9740
-5.6794 -3.3639 0.7160 0.9738
-5.8252 -4.1928 0.7785 0.9715
-6.1436 -2.6051 0.7238 0.9735
-2.0603 4.7120 0.5578 0.9795
-6.3619 -2.3692 0.6224 0.9731
-5.5894 -3.3106 0.5956 0.9742
-7.0302 -2.2670 0.6772 0.9708
-5.6808 -3.0314 0.5903 0.9745
-5.5642 -3.6399 0.6096 0.9736
-6.2602 -2.3313 0.5006 0.9736
-5.5469 -3.9925 0.5122 0.9730
-6.7614 -2.1803 0.5324 0.9719
-5.6260 -3.0021 0.4779 0.9747
-5.4935 -3.5937 0.4919 0.9740
-6.1900 -2.3052 0.3847 0.9739
-5.4767 -3.2439 0.3707 0.9748
-5.4700 -3.9371 0.3925 0.9734
-5.9165 -2.5088 0.3743 0.9746
-5.5743 -2.9746 0.3680 0.9750
-5.7540 -4.5439 0.4270 0.9711
-2.0603 4.7121 0.2995 0.9796
-6.5120 -2.0999 0.2845 0.9730
-5.3759 -3.5168 0.2671 0.9746
-5.5775 -4.4045 0.2955 0.9719
-2.0603 4.7121 0.2138 0.9796
-6.0863 -2.2666 0.1620 0.9743
-5.6420 -2.6950 0.1559 0.9753
-5.4997 -2.9347 0.1555 0.9754
-5.3453 -3.4968 0.1593 0.9748
-5.5118 -4.3526 0.1751 0.9723
-7.2368 -1.9824 0.0624 0.9704
-6.0492 -2.2528 0.0536 0.9745
-5.3697 -3.1805 0.0519 0.9753
-5.3175 -3.8273 0.0545 0.9741
-5.4720 -2.9200 0.0515 0.9755
-6.0138 -2.2396 -0.0533 0.9747
-5.5860 -2.6682 -0.0515 0.9755
-5.2857 -3.8044 -0.0541 0.9743
-6.3614 -2.0513 -0.0556 0.9736
-5.7698 -2.4466 -0.0521 0.9752
-5.5769 -2.6639 -0.1541 0.9756
-5.3344 -3.1596 -0.1546 0.9755
-6.3459 -2.0463 -0.1663 0.9737
-5.7599 -2.4424 -0.1560 0.9753
-5.4364 -2.9010 -0.1537 0.9756
-5.3807 -4.2491 -0.1710 0.9729
-2.0604 4.7122 -0.1283 0.9796
-5.9903 -2.2308 -0.2658 0.9747
-5.5679 -2.6596 -0.2566 0.9756
-5.2646 -3.7893 -0.2697 0.9744
-5.4276 -2.8963 -0.2558 0.9757
-5.3626 -4.2348 -0.2841 0.9730
-6.9467 -1.9029 -0.4195 0.9716
-5.9786 -2.2265 -0.3716 0.9748
-5.5590 -2.6553 -0.3588 0.9756
-5.3171 -3.1494 -0.3599 0.9755
-5.2541 -3.7817 -0.3770 0.9744
-5.7401 -2.4340 -0.3631 0.9753
-5.4189 -2.8916 -0.3577 0.9757
-5.3469 -4.2224 -0.3968 0.9731
-2.0604 4.7123 -0.2995 0.9796
-5.9868 -2.2295 -0.4788 0.9747
-5.4224 -2.8935 -0.4606 0.9756
-5.9991 -2.2341 -0.5869 0.9746
-5.3301 -3.1570 -0.5679 0.9754
-5.2758 -3.4513 -0.5780 0.9750
-7.1266 -1.9522 -0.8015 0.9707
-5.3392 -3.1624 -0.6731 0.9753
-6.3628 -2.0517 -0.7251 0.9735
-5.2855 -3.4576 -0.6851 0.9749
-5.6001 -2.6749 -0.7777 0.9753
-5.3572 -3.1731 -0.7803 0.9752
-5.3149 -3.8254 -0.8206 0.9739
-6.4134 -2.0681 -0.8445 0.9732
-5.7882 -2.4544 -0.7879 0.9750
-5.4582 -2.9126 -0.7753 0.9754
-2.0604 4.7124 -0.6445 0.9795
-6.0820 -2.2650 -0.9231 0.9741
-5.6304 -2.6894 -0.8875 0.9751
-6.4666 -2.0852 -0.9664 0.9729
-5.4878 -2.9284 -0.8847 0.9752
-5.5397 -4.3747 -1.0040 0.9719
-6.1225 -2.2801 -1.0403 0.9739
-5.4004 -3.8870 -1.0595 0.9734
-6.5486 -2.1116 -1.0956 0.9725
-5.8554 -2.4829 -1.0128 0.9746
-5.6856 -4.4899 -1.1536 0.9711
-6.1940 -2.3067 -1.1654 0.9735
-5.7048 -2.7249 -1.1148 0.9746
-5.4642 -3.2364 -1.1198 0.9745
-5.4861 -3.9487 -1.1919 0.9729
-5.9074 -2.5050 -1.1314 0.9743
-6.2749 -2.3368 -1.2958 0.9731
-5.5243 -3.2721 -1.2425 0.9742
-5.5752 -4.0127 -1.3293 0.9724
-4.0463 14.1510 -2.8482 0.9418
-5.2798 13.7088 -2.8429 0.9419
-6.9272 -2.2337 -1.4085 0.9708
-5.9727 -2.5327 -1.2554 0.9739
-3.4130 14.3215 -2.8491 0.9418
-4.6683 13.9435 -2.8455 0.9419
-2.0605 4.7125 -0.9953 0.9793
-14.0075 0.0000 -2.9531 0.9443
-13.9112 -1.2431 -2.9444 0.9445
-13.7461 -2.4765 -2.9446 0.9445
-13.4739 -3.6909 -2.9452 0.9445
-6.4123 -2.3880 -1.4425 0.9724
-10.6025 -9.1683 -2.9550 0.9443
-8.8285 -10.9272 -2.9616 0.9442
-6.7689 -12.3516 -2.9693 0.9440
-5.6507 -12.9234 -2.9736 0.9440
-4.4846 -13.3950 -2.9780 0.9439
-2.0450 -14.0217 -2.9873 0.9437
-0.7902 -14.1709 -2.9921 0.9436
1.7386 -14.1165 -2.9985 0.9435
5.4170 -13.1816 -3.0044 0.9434
7.6779 -12.0273 -3.0082 0.9433
9.6999 -10.4874 -3.0117 0.9433
10.6004 -9.5875 -3.0132 0.9432
13.3023 -5.2942 -3.0183 0.9432
14.3260 -0.3193 -3.0209 0.9431
14.2986 0.9572 -3.0212 0.9431
13.5358 4.7001 -3.0208 0.9431
12.3978 5.5862 -2.8668 0.9459
11.8488 6.6660 -2.8661 0.9459
11.2064 7.6927 -2.8656 0.9459
9.6597 9.5527 -2.8641 0.9460
6.7854 11.7527 -2.8610 0.9460
3.4347 13.1102 -2.8572 0.9461
2.2531 13.3574 -2.8558 0.9461
1.0548 13.4982 -2.8544 0.9462
-1.3538 13.4575 -2.8514 0.9462
-3.7146 12.9908 -2.8485 0.9463
-4.8489 12.5900 -2.8443 0.9463
-5.9404 12.0885 -2.8396 0.9464
-10.2859 9.7284 -2.9847 0.9438
-11.1054 8.7699 -2.9833 0.9438
-12.4737 6.6562 -2.9807 0.9438
-13.4473 4.3362 -2.9787 0.9439
-13.7763 3.1213 -2.9779 0.9439
-14.1066 0.6290 -2.9769 0.9439
-13.9531 -0.6222 -2.9445 0.9445
-6.0475 -2.5644 -1.3848 0.9735
-5.6756 -3.0286 -1.3562 0.9740
-10.1888 -9.6365 -2.9566 0.9443
-7.3074 -12.0296 -2.9673 0.9441
-5.0731 -13.1720 -2.9758 0.9439
-1.4195 -14.1102 -2.9897 0.9437
1.1077 -14.1752 -2.9975 0.9435
2.3665 -14.0297 -2.9995 0.9435
3.6082 -13.7725 -3.0015 0.9435
6.0008 -12.9313 -3.0054 0.9434
7.1323 -12.3536 -3.0073 0.9434
9.2205 -10.9061 -3.0108 0.9433
10.1602 -10.0476 -3.0125 0.9433
11.0197 -9.1080 -3.0140 0.9432
13.8952 -3.4754 -3.0196 0.9431
14.1525 -2.2254 -3.0203 0.9431
14.2967 -0.9571 -3.0208 0.9431
14.3266 0.3193 -3.0211 0.9431
14.0434 2.8544 -3.0212 0.9431
13.7326 4.0927 -3.0209 0.9431
11.5386 7.1862 -2.8658 0.9459
10.8513 8.1833 -2.8653 0.9460
10.0772 9.1142 -2.8645 0.9460
7.3037 11.4410 -2.8616 0.9460
5.1551 12.5442 -2.8592 0.9461
1.6555 13.4412 -2.8551 0.9461
-1.9514 13.3803 -2.8507 0.9462
-3.1330 13.1467 -2.8492 0.9463
-4.2870 12.8045 -2.8467 0.9463
-2.0605 4.7125 -1.0843 0.9792
-8.9046 11.0215 -2.9871 0.9437
-12.1672 7.2067 -2.9813 0.9438
-12.7555 6.0928 -2.9801 0.9439
-13.6252 3.7323 -2.9783 0.9439
-14.0655 1.2569 -2.9771 0.9439
-12.8675 -1.1498 -2.9486 0.9484
-12.7148 -2.2907 -2.9488 0.9484
-6.5928 -2.4552 -1.6057 0.9715
-5.9272 -2.8312 -1.4993 0.9734
-10.5101 -7.5647 -2.9556 0.9483
-9.8037 -8.4776 -2.9582 0.9482
-8.1620 -10.1022 -2.9643 0.9481
-7.2389 -10.8012 -2.9678 0.9481
-6.2566 -11.4169 -2.9715 0.9480
-5.2225 -11.9441 -2.9754 0.9479
-3.0305 -12.7164 -2.9837 0.9478
-0.7299 -13.0908 -2.9925 0.9476
0.4387 -13.1221 -2.9967 0.9476
3.8971 -12.5629 -3.0022 0.9475
5.0028 -12.1735 -3.0040 0.9474
7.0901 -11.1064 -3.0075 0.9474
8.0549 -10.4370 -3.0091 0.9473
8.9565 -9.6837 -3.0107 0.9473
9.7876 -8.8523 -3.0121 0.9473
10.5414 -7.9496 -3.0135 0.9473
11.2118 -6.9827 -3.0147 0.9472
12.2807 -4.8876 -3.0168 0.9472
12.9593 -2.6341 -3.0183 0.9472
13.1446 -1.4704 -3.0189 0.9472
13.2249 -0.2947 -3.0192 0.9472
13.1995 0.8836 -3.0194 0.9472
13.0687 2.0549 -3.0195 0.9472
12.4955 4.3389 -3.0191 0.9472
10.3447 7.1012 -2.8639 0.9498
9.6713 7.9935 -2.8638 0.9498
8.9191 8.8203 -2.8630 0.9498
7.2094 10.2554 -2.8612 0.9499
6.2657 10.8525 -2.8602 0.9499
5.2729 11.3627 -2.8591 0.9499
4.2389 11.7820 -2.8579 0.9499
3.1720 12.1073 -2.8567 0.9499
2.0809 12.3360 -2.8554 0.9500
0.9742 12.4665 -2.8541 0.9500
-0.1392 12.4978 -2.8527 0.9500
-4.4807 11.6338 -2.8455 0.9501
-8.6706 9.8040 -2.9873 0.9477
-10.2617 8.1036 -2.9844 0.9478
-10.9377 7.1551 -2.9832 0.9478
-11.5268 6.1509 -2.9821 0.9478
-12.7314 2.8846 -2.9795 0.9478
-12.9352 1.7396 -2.9790 0.9479
-13.0370 0.5813 -2.9786 0.9479
-12.9063 -0.5755 -2.9487 0.9484
-12.8037 -1.7219 -2.9487 0.9484
-12.3002 -3.9663 -2.9498 0.9484
-5.7069 -3.7333 -1.5565 0.9724
-10.1670 -8.0288 -2.9569 0.9482
-9.4208 -8.9101 -2.9596 0.9482
-6.7547 -11.1198 -2.9696 0.9480
-5.7455 -11.6918 -2.9734 0.9480
-4.6884 -12.1732 -2.9774 0.9479
-3.5913 -12.5597 -2.9816 0.9478
1.0232 -13.0935 -2.9976 0.9475
4.4542 -12.3806 -3.0031 0.9474
7.5799 -10.7825 -3.0083 0.9474
12.0489 -5.4290 -3.0164 0.9472
12.8277 -3.2084 -3.0180 0.9472
13.1979 -0.8835 -3.0191 0.9472
13.1472 1.4707 -3.0195 0.9472
12.2890 4.8909 -3.0189 0.9472
11.2030 5.6611 -2.8649 0.9498
10.0190 7.5556 -2.8641 0.9498
9.3044 8.4153 -2.8634 0.9498
6.7442 10.5645 -2.8607 0.9499
5.7749 11.1187 -2.8596 0.9499
3.7090 11.9566 -2.8573 0.9499
1.5289 12.4136 -2.8547 0.9500
-2.8939 12.1436 -2.8493 0.9501
-3.9611 11.8313 -2.8477 0.9501
-2.0605 4.7125 -1.1739 0.9791
-8.2273 10.1831 -2.9880 0.9477
-9.8928 8.5546 -2.9851 0.9478
-10.6103 7.6368 -2.9838 0.9478
-11.2434 6.6595 -2.9826 0.9478
-11.7873 5.6303 -2.9815 0.9478
-12.8460 2.3143 -2.9792 0.9479
-11.9632 -1.0690 -2.9523 0.9517
-11.8212 -2.1297 -2.9524 0.9517
-11.2617 -4.1939 -2.9538 0.9517
-8.3821 -8.6670 -2.9637 0.9515
-7.5850 -9.3881 -2.9666 0.9515
-6.7266 -10.0368 -2.9698 0.9514
-4.8520 -11.0968 -2.9769 0.9513
-1.7548 -12.0319 -2.9887 0.9511
-0.6779 -12.1572 -2.9929 0.9511
3.6184 -11.6647 -3.0019 0.9509
6.5823 -10.3110 -3.0068 0.9509
7.4777 -9.6891 -3.0084 0.9508
9.0856 -8.2174 -3.0112 0.9508
9.7850 -7.3793 -3.0124 0.9508
10.4070 -6.4815 -3.0136 0.9508
10.9463 -5.5314 -3.0146 0.9507
11.7602 -3.5049 -3.0163 0.9507
12.2507 0.8201 -3.0180 0.9507
11.9109 2.9791 -3.0179 0.9507
11.5974 4.0271 -3.0176 0.9507
10.1525 5.7117 -2.8633 0.9532
9.6016 6.5911 -2.8626 0.9532
8.9777 7.4202 -2.8629 0.9532
5.8168 10.0749 -2.8595 0.9532
4.8952 10.5488 -2.8585 0.9532
2.9450 11.2408 -2.8562 0.9533
1.9320 11.4535 -2.8550 0.9533
-0.1293 11.6045 -2.8526 0.9533
-1.1611 11.5418 -2.8513 0.9533
-4.1622 10.8068 -2.8465 0.9534
-5.1001 10.3785 -2.8424 0.9535
-6.3176 10.4001 -2.9910 0.9511
-8.0534 9.1062 -2.9881 0.9512
-9.5320 7.5274 -2.9854 0.9512
-10.1602 6.6465 -2.9843 0.9512
-10.7077 5.7138 -2.9832 0.9512
-11.1704 4.7367 -2.9823 0.9513
-12.0170 1.6161 -2.9804 0.9513
-11.9038 -1.6009 -2.9523 0.9517
-11.7154 -2.6544 -2.9526 0.9517
-6.3492 -2.6923 -1.6951 0.9720
-5.8852 -3.1404 -1.6396 0.9729
-5.9288 -3.8785 -1.7414 0.9712
-4.3556 -11.3091 -2.9788 0.9513
-1.2179 -12.1065 -2.9908 0.9511
-0.1357 -12.1840 -2.9950 0.9510
0.9501 -12.1586 -2.9977 0.9510
3.0943 -11.8109 -3.0011 0.9510
4.1356 -11.4951 -3.0028 0.9509
6.1149 -10.5912 -3.0061 0.9509
7.0369 -10.0101 -3.0076 0.9508
10.6873 -6.0125 -3.0141 0.9507
11.5910 -4.0248 -3.0159 0.9507
11.9060 -2.9779 -3.0166 0.9507
12.1260 -1.9067 -3.0172 0.9507
12.2493 -0.8200 -3.0176 0.9507
12.2748 0.2735 -3.0179 0.9507
12.2022 1.3650 -3.0180 0.9507
11.4058 4.5394 -3.0174 0.9507
8.6371 7.8117 -2.8625 0.9532
6.2609 9.8075 -2.8600 0.9532
5.3612 10.3221 -2.8590 0.9532
3.4435 11.1007 -2.8568 0.9533
2.4408 11.3585 -2.8556 0.9533
1.4196 11.5258 -2.8544 0.9533
0.3879 11.6013 -2.8532 0.9533
-0.6459 11.5847 -2.8519 0.9533
-1.6737 11.4761 -2.8507 0.9534
-2.6873 11.2766 -2.8494 0.9534
-3.6787 10.9878 -2.8481 0.9534
-2.0605 4.7126 -1.2642 0.9790
-5.5535 10.1339 -2.8404 0.9535
-9.8559 7.0939 -2.9849 0.9512
-10.9499 5.2303 -2.9828 0.9512
-11.3687 4.2338 -2.9819 0.9513
-11.6975 3.2043 -2.9812 0.9513
-11.9340 2.1500 -2.9806 0.9513
-11.0389 -1.9888 -2.9556 0.9547
-10.8199 -2.9639 -2.9561 0.9547
-10.5161 -3.9162 -2.9569 0.9546
-6.2518 -2.9862 -1.8256 0.9717
-8.5073 -7.3565 -2.9636 0.9545
-7.8252 -8.0912 -2.9660 0.9545
-7.0804 -8.7635 -2.9687 0.9545
-6.2786 -9.3683 -2.9717 0.9544
-5.4257 -9.9007 -2.9749 0.9544
-4.5281 -10.3561 -2.9783 0.9543
-3.5927 -10.7308 -2.9818 0.9543
-0.6325 -11.3424 -2.9934 0.9541
2.3921 -11.1317 -3.0002 0.9540
3.3751 -10.8803 -3.0017 0.9540
4.3324 -10.5422 -3.0033 0.9539
5.2561 -10.1199 -3.0048 0.9539
7.7540 -8.3835 -3.0091 0.9539
9.7047 -6.0441 -3.0126 0.9538
10.2074 -5.1580 -3.0135 0.9538
10.9659 -3.2682 -3.0151 0.9538
11.2155 -2.2796 -3.0157 0.9538
11.3756 -1.2726 -3.0162 0.9538
11.4449 -0.2550 -3.0165 0.9537
11.1060 2.7778 -3.0166 0.9537
10.8138 3.7549 -3.0163 0.9538
10.4353 4.7019 -3.0159 0.9538
9.4667 5.3259 -2.8621 0.9561
8.3684 6.9167 -2.8608 0.9561
7.7212 7.6356 -2.8614 0.9561
6.2416 8.8788 -2.8598 0.9561
5.4249 9.3961 -2.8589 0.9561
2.7468 10.4843 -2.8559 0.9562
0.8437 10.7966 -2.8536 0.9562
-0.1206 10.8245 -2.8524 0.9562
-2.0362 10.6228 -2.8501 0.9562
-2.9724 10.3951 -2.8489 0.9563
-4.7595 9.6854 -2.8436 0.9563
-5.5954 9.2113 -2.8399 0.9564
-7.5143 8.4965 -2.9888 0.9542
-8.8944 7.0238 -2.9863 0.9542
-9.4808 6.2021 -2.9853 0.9542
-11.0374 2.5008 -2.9821 0.9543
-11.1161 -1.4950 -2.9555 0.9547
-10.9401 -2.4787 -2.9558 0.9547
-5.8582 -9.6439 -2.9733 0.9544
-4.9821 -10.1383 -2.9766 0.9543
-4.0647 -10.5538 -2.9800 0.9543
-1.1363 -11.2954 -2.9914 0.9541
0.8863 -11.3421 -2.9978 0.9540
1.8933 -11.2242 -2.9994 0.9540
2.8863 -11.0170 -3.0009 0.9540
3.8575 -10.7220 -3.0025 0.9540
8.1215 -8.0315 -3.0097 0.9539
9.4242 -6.4693 -3.0121 0.9538
10.4285 -4.6989 -3.0140 0.9538
11.3068 -1.7779 -3.0159 0.9538
11.4453 0.2551 -3.0166 0.9537
11.3776 1.2728 -3.0167 0.9537
11.2190 2.2803 -3.0166 0.9537
10.1948 5.1517 -3.0098 0.9538
9.2192 5.7417 -2.8619 0.9561
8.0537 7.2842 -2.8614 0.9561
7.3725 7.9710 -2.8610 0.9561
5.0001 9.6269 -2.8584 0.9561
3.2117 10.3535 -2.8564 0.9561
2.2766 10.5942 -2.8553 0.9562
1.3241 10.7505 -2.8542 0.9562
-0.6025 10.8062 -2.8518 0.9562
-2.5069 10.5194 -2.8495 0.9563
-3.4318 10.2503 -2.8483 0.9563
-5.1828 9.4575 -2.8417 0.9564
-7.8836 8.1516 -2.9881 0.9542
-9.7460 5.7726 -2.9848 0.9542
-10.2180 4.8808 -2.9838 0.9542
-10.6090 3.9509 -2.9830 0.9543
-10.9161 2.9902 -2.9824 0.9543
-11.2697 1.0070 -2.9814 0.9543
-10.5995 -0.0000 -2.9822 0.9569
-10.3481 -1.8643 -2.9584 0.9572
-9.8577 -3.6711 -2.9596 0.9572
-9.0584 -5.3653 -2.9621 0.9572
-8.5498 -6.1538 -2.9639 0.9572
-7.3338 -7.5832 -2.9681 0.9571
-5.8836 -8.7790 -2.9734 0.9570
-5.0840 -9.2772 -2.9764 0.9570
-2.4607 -10.3254 -2.9865 0.9569
-0.5924 -10.6241 -2.9938 0.9567
2.2402 -10.4249 -3.0001 0.9567
4.9219 -9.4764 -3.0044 0.9566
6.5301 -8.4612 -3.0071 0.9566
7.9332 -7.1752 -3.0096 0.9565
8.5435 -6.4430 -3.0107 0.9565
9.0861 -5.6589 -3.0117 0.9565
9.5566 -4.8292 -3.0126 0.9565
9.9511 -3.9604 -3.0134 0.9565
10.2664 -3.0597 -3.0141 0.9565
10.4999 -2.1342 -3.0146 0.9565
10.5878 1.6649 -3.0155 0.9564
10.1237 3.5153 -3.0152 0.9564
9.7695 4.4019 -3.0148 0.9565
7.8348 6.4756 -2.8598 0.9586
7.2278 7.1477 -2.8600 0.9586
5.0797 8.7982 -2.8584 0.9587
2.5722 9.8178 -2.8555 0.9587
1.6875 10.0041 -2.8545 0.9587
0.7901 10.1108 -2.8534 0.9587
-0.1129 10.1371 -2.8523 0.9587
-1.0143 10.0829 -2.8512 0.9588
-1.9070 9.9487 -2.8501 0.9588
-2.7838 9.7357 -2.8490 0.9588
-4.4591 9.0740 -2.8446 0.9589
-5.2426 8.6306 -2.8412 0.9589
-7.0389 7.9590 -2.9894 0.9568
-7.7162 7.2980 -2.9882 0.9568
-8.3321 6.5798 -2.9871 0.9568
-8.8816 5.8101 -2.9861 0.9569
-9.3607 4.9950 -2.9852 0.9569
-9.7654 4.1409 -2.9844 0.9569
-10.3405 2.3429 -2.9831 0.9569
-10.2554 -2.3236 -2.9586 0.9572
-10.0100 -3.2278 -2.9592 0.9572
-9.6861 -4.1073 -2.9601 0.9572
-8.8128 -5.7651 -2.9630 0.9572
-7.6614 -7.2461 -2.9670 0.9571
-5.4894 -9.0369 -2.9749 0.9570
-4.6681 -9.4994 -2.9780 0.9570
-1.9995 -10.4310 -2.9883 0.9568
3.6123 -10.0407 -3.0023 0.9566
4.4939 -9.6840 -3.0037 0.9566
8.2465 -6.8159 -3.0101 0.9565
8.8236 -6.0570 -3.0112 0.9565
9.7636 -4.3993 -3.0130 0.9565
10.1188 -3.5136 -3.0137 0.9565
10.6515 1.1915 -3.0155 0.9564
10.2707 3.0610 -3.0153 0.9564
9.9565 3.9626 -3.0150 0.9564
8.6311 5.3754 -2.8609 0.9586
7.5375 6.8172 -2.8595 0.9586
6.9031 7.4635 -2.8604 0.9586
6.2097 8.0461 -2.8596 0.9586
5.4674 8.5645 -2.8588 0.9587
4.6820 9.0143 -2.8579 0.9587
1.2400 10.0674 -2.8539 0.9587
-2.3478 9.8520 -2.8495 0.9588
-2.0606 4.7126 -1.4471 0.9789
-4.8559 8.8609 -2.8429 0.9589
-9.1302 5.4079 -2.9856 0.9569
-9.5725 4.5724 -2.9848 0.9569
-10.4338 1.8798 -2.9829 0.9569
-9.8554 -0.8807 -2.9623 0.9595
-9.7333 -1.7535 -2.9609 0.9595
-9.5400 -2.6133 -2.9613 0.9595
-8.5196 -5.0461 -2.9644 0.9595
-6.8968 -7.1312 -2.9701 0.9594
-2.3132 -9.7065 -2.9873 0.9592
-1.4417 -9.8851 -2.9907 0.9591
-0.5568 -9.9858 -2.9942 0.9591
1.2244 -9.9408 -2.9986 0.9590
2.1053 -9.7970 -3.0000 0.9590
3.8125 -9.2770 -3.0027 0.9590
6.1359 -7.9504 -3.0066 0.9589
7.4540 -6.7417 -3.0089 0.9589
8.9787 -4.5371 -3.0118 0.9589
9.6454 -2.8746 -3.0131 0.9588
10.0053 -1.1192 -3.0141 0.9588
10.0661 -0.2243 -3.0143 0.9588
10.0466 0.6725 -3.0145 0.9588
9.9470 1.5641 -3.0145 0.9588
9.5111 3.3026 -3.0142 0.9588
7.8751 5.4059 -2.8597 0.9609
7.3610 6.0840 -2.8590 0.9609
6.7885 6.7132 -2.8583 0.9609
5.4914 7.8117 -2.8587 0.9609
4.0171 8.6566 -2.8571 0.9609
2.4171 9.2257 -2.8552 0.9610
1.5858 9.4010 -2.8542 0.9610
0.7425 9.5015 -2.8532 0.9610
-0.9532 9.4757 -2.8512 0.9610
-1.7922 9.3499 -2.8501 0.9610
-2.6163 9.1499 -2.8491 0.9610
-3.4191 8.8775 -2.8481 0.9611
-4.9288 8.1140 -2.8422 0.9611
-6.6163 7.4812 -2.9900 0.9592
-8.7995 4.6955 -2.9860 0.9592
-9.1802 3.8927 -2.9852 0.9592
-9.7210 2.2025 -2.9841 0.9592
-9.9551 0.4439 -2.9833 0.9592
-9.4152 -3.0360 -2.9616 0.9595
-6.5748 -7.4343 -2.9712 0.9594
-5.1616 -8.4971 -2.9764 0.9593
-3.5804 -9.2963 -2.9824 0.9593
-1.8795 -9.8054 -2.9890 0.9592
-1.0005 -9.9452 -2.9924 0.9591
0.7801 -9.9832 -2.9979 0.9591
3.3946 -9.4355 -3.0021 0.9590
6.4853 -7.6708 -3.0072 0.9589
7.1450 -7.0658 -3.0084 0.9589
7.7483 -6.4041 -3.0095 0.9589
8.2903 -5.6909 -3.0104 0.9589
8.7665 -4.9319 -3.0113 0.9589
9.1731 -4.1332 -3.0121 0.9589
9.7647 -2.4423 -3.0134 0.9588
9.9449 -1.5637 -3.0139 0.9588
10.0664 0.2243 -3.0144 0.9588
8.9843 4.5400 -3.0136 0.9588
7.6256 5.7507 -2.8594 0.9609
5.8348 7.5603 -2.8591 0.9609
2.8261 9.1104 -2.8557 0.9610
1.1652 9.4607 -2.8537 0.9610
0.3184 9.5234 -2.8527 0.9610
-0.5303 9.5105 -2.8517 0.9610
-1.3742 9.4222 -2.8507 0.9610
-2.2065 9.2591 -2.8496 0.9610
-3.0208 9.0226 -2.8486 0.9611
-4.5651 8.3303 -2.8439 0.9611
-5.2823 7.8817 -2.8406 0.9612
-6.2777 7.7700 -2.9906 0.9591
-6.9417 7.1777 -2.9894 0.9592
-8.9987 4.2983 -2.9856 0.9592
-9.3434 3.4795 -2.9849 0.9592
-9.8088 1.7671 -2.9838 0.9592
-9.9259 0.8870 -2.9835 0.9592
-9.3039 -0.8314 -2.9666 0.9616
-9.1823 -1.6543 -2.9631 0.9616
-8.9999 -2.4653 -2.9635 0.9616
-8.4249 -4.0243 -2.9652 0.9616
-8.0367 -4.7602 -2.9665 0.9616
-7.5850 -5.4594 -2.9680 0.9615
-5.8851 -7.2842 -2.9740 0.9615
-4.5081 -8.2264 -2.9791 0.9614
-3.7616 -8.6031 -2.9820 0.9614
-0.5249 -9.4145 -2.9945 0.9612
1.1542 -9.3710 -2.9986 0.9611
1.9845 -9.2352 -2.9999 0.9611
2.7999 -9.0258 -3.0012 0.9611
3.5936 -8.7446 -3.0025 0.9611
4.3595 -8.3936 -3.0038 0.9611
5.0914 -7.9755 -3.0050 0.9611
8.0457 -5.0108 -3.0102 0.9610
9.4679 0.6338 -3.0136 0.9610
9.3740 1.4740 -3.0136 0.9610
9.2053 2.3024 -3.0135 0.9610
8.9632 3.1124 -3.0133 0.9610
8.2673 4.6511 -3.0125 0.9610
7.4217 5.0947 -2.8589 0.9629
5.8076 6.8693 -2.8568 0.9630
5.1760 7.3629 -2.8583 0.9629
4.4988 7.7921 -2.8575 0.9629
3.0442 8.4614 -2.8558 0.9630
-0.1000 8.9801 -2.8521 0.9630
-4.6474 7.6507 -2.8429 0.9631
-5.3040 7.1986 -2.8397 0.9632
-8.6562 3.6705 -2.9860 0.9613
-9.3136 1.2525 -2.9845 0.9613
-9.3872 0.4186 -2.9842 0.9613
-9.2466 -1.2436 -2.9630 0.9616
-9.1000 -2.0618 -2.9633 0.9616
-7.8186 -5.1147 -2.9672 0.9615
-6.7960 -6.4276 -2.9707 0.9615
-6.2014 -7.0121 -2.9729 0.9615
-5.5571 -7.5421 -2.9752 0.9614
-4.8679 -8.0137 -2.9778 0.9614
-4.1392 -8.4229 -2.9805 0.9614
-3.3763 -8.7664 -2.9834 0.9613
-1.7722 -9.2454 -2.9896 0.9613
-0.9433 -9.3766 -2.9929 0.9612
-0.1051 -9.4338 -2.9962 0.9612
0.7354 -9.4111 -2.9979 0.9612
1.5708 -9.3124 -2.9992 0.9611
3.9804 -8.5777 -3.0031 0.9611
6.1125 -7.2299 -3.0067 0.9610
6.7342 -6.6596 -3.0078 0.9610
7.8133 -5.3635 -3.0098 0.9610
8.2620 -4.6481 -3.0106 0.9610
9.2024 -2.3017 -3.0126 0.9610
9.4671 -0.6337 -3.0133 0.9610
9.4304 1.0550 -3.0136 0.9610
9.0933 2.7101 -3.0134 0.9610
8.8153 3.5084 -3.0132 0.9610
8.4669 4.2785 -3.0128 0.9610
8.0171 4.9931 -2.9995 0.9611
7.1866 5.4197 -2.8586 0.9629
6.1088 6.6047 -2.8572 0.9629
5.4991 7.1254 -2.8585 0.9629
4.1466 7.9837 -2.8571 0.9629
2.6638 8.5873 -2.8554 0.9630
0.3002 8.9771 -2.8526 0.9630
-4.3045 7.8547 -2.8445 0.9631
-4.9808 7.4319 -2.8413 0.9631
-6.5449 6.7674 -2.9899 0.9613
-7.1189 6.1560 -2.9889 0.9613
-8.8101 3.2809 -2.9857 0.9613
-9.0655 2.4833 -2.9851 0.9613
-9.2491 1.6663 -2.9847 0.9613
-9.3597 0.8364 -2.9843 0.9613
-8.6854 -1.5648 -2.9651 0.9634
-8.2733 -3.0810 -2.9662 0.9634
-7.6013 -4.5023 -2.9683 0.9634
-7.1739 -5.1635 -2.9697 0.9634
-6.6897 -5.7848 -2.9714 0.9634
-6.1522 -6.3613 -2.9733 0.9633
-4.2629 -7.7789 -2.9803 0.9633
-2.8214 -8.4270 -2.9858 0.9632
-2.0621 -8.6531 -2.9887 0.9632
-1.2851 -8.8113 -2.9918 0.9631
-0.4963 -8.9000 -2.9949 0.9631
0.2981 -8.9162 -2.9973 0.9631
1.8758 -8.7293 -2.9998 0.9630
3.3967 -8.2652 -3.0023 0.9630
4.8120 -7.5379 -3.0047 0.9630
7.6035 -4.7355 -3.0096 0.9629
8.3266 -3.3139 -3.0110 0.9629
8.5901 -2.5601 -3.0116 0.9629
8.9644 -0.1997 -3.0126 0.9629
8.1739 3.6830 -3.0122 0.9629
7.8126 4.3953 -3.0118 0.9629
6.5559 5.4186 -2.8576 0.9647
4.8875 6.9525 -2.8554 0.9648
-0.0945 8.4881 -2.8520 0.9648
-1.5970 8.3315 -2.8502 0.9648
-3.0470 7.9113 -2.8484 0.9649
-3.7365 7.6036 -2.8465 0.9649
-5.8974 6.6683 -2.9909 0.9631
-6.4654 6.1149 -2.9899 0.9631
-8.1841 3.4704 -2.9867 0.9632
-8.6666 1.9636 -2.9856 0.9632
-8.7462 -1.1763 -2.9650 0.9634
-8.6075 -1.9502 -2.9653 0.9634
-8.4013 -2.7091 -2.9658 0.9634
-7.7927 -4.1583 -2.9677 0.9634
-7.3949 -4.8376 -2.9690 0.9634
-4.6033 -7.5780 -2.9790 0.9633
-1.6755 -8.7408 -2.9902 0.9631
-0.8918 -8.8644 -2.9933 0.9631
0.6951 -8.8959 -2.9980 0.9630
1.4848 -8.8024 -2.9992 0.9630
2.2633 -8.6389 -3.0005 0.9630
3.7622 -8.1073 -3.0029 0.9630
4.4706 -7.7433 -3.0041 0.9630
5.1440 -7.3174 -3.0052 0.9630
5.7770 -6.8330 -3.0063 0.9629
6.9015 -5.7042 -3.0083 0.9629
8.4667 -2.9400 -3.0113 0.9629
8.8566 -1.3926 -3.0122 0.9629
8.9647 0.1998 -3.0127 0.9629
8.5931 2.5610 -3.0126 0.9629
8.3304 3.3154 -3.0124 0.9629
7.6084 4.7386 -3.0115 0.9629
6.3073 5.7046 -2.8573 0.9648
5.1932 6.7289 -2.8558 0.9648
4.5761 7.1684 -2.8574 0.9647
3.2311 7.8623 -2.8560 0.9648
-1.2245 8.3957 -2.8506 0.9648
-2.0606 4.7127 -1.7281 0.9785
-4.0693 7.4255 -2.8449 0.9649
-4.7089 7.0262 -2.8418 0.9649
-5.5955 6.9256 -2.9914 0.9631
-6.1875 6.3979 -2.9904 0.9631
-7.2194 5.1962 -2.9886 0.9632
-8.0223 3.8319 -2.9870 0.9632
-8.3297 3.1020 -2.9864 0.9632
-8.8495 0.7908 -2.9851 0.9632
-8.4200 0.0000 -2.9856 0.9649
-8.0711 -2.2109 -2.9673 0.9651
-6.8012 -4.8952 -2.9713 0.9651
-6.3419 -5.4841 -2.9729 0.9650
-5.8321 -6.0304 -2.9747 0.9650
-5.2758 -6.5300 -2.9768 0.9650
-4.6772 -6.9789 -2.9790 0.9650
-4.0407 -7.3733 -2.9813 0.9649
-1.2179 -8.3502 -2.9922 0.9648
-0.4703 -8.4338 -2.9951 0.9648
2.5075 -8.0833 -3.0010 0.9647
3.2182 -7.8311 -3.0021 0.9647
3.9039 -7.5164 -3.0032 0.9647
4.5591 -7.1417 -3.0043 0.9647
6.7735 -5.1082 -3.0082 0.9646
7.2032 -4.4862 -3.0090 0.9646
7.8880 -3.1393 -3.0103 0.9646
8.1376 -2.4253 -3.0109 0.9646
8.3223 -1.6916 -3.0113 0.9646
8.4920 -0.1892 -3.0119 0.9646
8.4755 0.5674 -3.0120 0.9646
8.2405 2.0611 -3.0120 0.9646
7.4010 4.1637 -3.0111 0.9646
6.9999 4.8052 -3.0106 0.9646
6.2107 5.1332 -2.8570 0.9664
5.1996 6.1501 -2.8557 0.9664
4.6303 6.5867 -2.8549 0.9664
3.3906 7.3066 -2.8562 0.9664
-0.0896 8.0426 -2.8520 0.9664
-0.8048 8.0003 -2.8511 0.9665
-1.5132 7.8945 -2.8502 0.9665
-2.2092 7.7262 -2.8494 0.9665
-2.8873 7.4968 -2.8486 0.9665
-3.5405 7.2048 -2.8465 0.9665
-5.5887 6.3193 -2.9913 0.9648
-6.1271 5.7950 -2.9904 0.9648
-6.6166 5.2251 -2.9895 0.9649
-7.0535 4.6142 -2.9887 0.9649
-7.4344 3.9671 -2.9880 0.9649
-8.2138 1.8610 -2.9863 0.9649
-8.3458 1.1224 -2.9860 0.9649
-8.4119 0.3751 -2.9857 0.9649
-8.4115 -0.3751 -2.9856 0.9649
-8.1609 -1.8490 -2.9671 0.9651
-7.7071 -3.2681 -2.9684 0.9651
-7.3881 -3.9424 -2.9694 0.9651
-7.0108 -4.5863 -2.9706 0.9651
-6.5781 -5.1946 -2.9721 0.9651
-6.0931 -5.7628 -2.9738 0.9650
-5.5596 -6.2863 -2.9757 0.9650
-4.3634 -7.1831 -2.9801 0.9650
-3.7098 -7.5492 -2.9826 0.9649
-3.0258 -7.8563 -2.9852 0.9649
-0.8451 -8.4003 -2.9937 0.9648
-0.0941 -8.4505 -2.9966 0.9648
0.6587 -8.4292 -2.9980 0.9648
3.5646 -7.6814 -3.0027 0.9647
5.4732 -6.4736 -3.0059 0.9647
6.0296 -5.9627 -3.0069 0.9647
6.9953 -4.8020 -3.0086 0.9646
7.3968 -4.1614 -3.0094 0.9646
7.7395 -3.4873 -3.0100 0.9646
8.0208 -2.7851 -3.0106 0.9646
8.3900 -1.3192 -3.0115 0.9646
8.4749 -0.5673 -3.0118 0.9646
8.4923 0.1892 -3.0120 0.9646
7.8914 3.1407 -3.0116 0.9646
7.5797 3.8302 -3.0113 0.9646
7.2076 4.4890 -3.0109 0.9646
6.4930 4.8966 -2.8836 0.9661
5.9752 5.4042 -2.8567 0.9664
5.4691 5.9132 -2.8561 0.9664
4.9198 6.3747 -2.8553 0.9664
4.3316 6.7854 -2.8545 0.9664
3.7129 7.1487 -2.8564 0.9664
2.3855 7.6900 -2.8549 0.9664
1.6911 7.8695 -2.8541 0.9664
0.2688 8.0398 -2.8524 0.9664
-1.1602 7.9553 -2.8507 0.9665
-2.0606 4.7128 -1.8238 0.9784
-5.3026 6.5631 -2.9918 0.9648
-5.8638 6.0631 -2.9909 0.9648
-6.3782 5.5155 -2.9899 0.9648
-7.2511 4.2949 -2.9883 0.9649
-7.6029 3.6316 -2.9876 0.9649
-7.8944 2.9399 -2.9870 0.9649
-7.9973 0.0000 -2.9863 0.9664
-7.8240 -1.4096 -2.9686 0.9666
-7.6684 -2.1006 -2.9690 0.9666
-7.1779 -3.4286 -2.9704 0.9666
-6.8467 -4.0554 -2.9715 0.9666
-6.0249 -5.2100 -2.9743 0.9666
-4.4430 -6.6294 -2.9800 0.9665
-2.5398 -7.5860 -2.9872 0.9664
-1.8562 -7.7888 -2.9899 0.9664
-0.4466 -8.0093 -2.9954 0.9663
0.2682 -8.0228 -2.9975 0.9663
0.9816 -7.9701 -2.9986 0.9663
1.6878 -7.8540 -2.9997 0.9663
3.0558 -7.4358 -3.0019 0.9663
3.7068 -7.1369 -3.0030 0.9662
4.9168 -6.3709 -3.0051 0.9662
5.9722 -5.4015 -3.0069 0.9662
7.4889 -2.9805 -3.0098 0.9662
8.0136 -0.8964 -3.0110 0.9662
8.0621 -0.1796 -3.0112 0.9662
8.0465 0.5386 -3.0114 0.9662
4.9367 5.8391 -2.8552 0.9679
3.8211 6.6182 -2.8536 0.9679
3.2192 6.9369 -2.8556 0.9679
1.9373 7.3946 -2.8544 0.9679
1.2711 7.5355 -2.8536 0.9679
0.5952 7.6165 -2.8528 0.9679
-1.4370 7.4967 -2.8503 0.9679
-2.0980 7.3371 -2.8496 0.9679
-2.7420 7.1194 -2.8488 0.9680
-3.3619 6.8412 -2.8464 0.9680
-4.5129 6.1250 -2.8409 0.9680
-5.8190 5.5036 -2.9908 0.9664
-6.2841 4.9625 -2.9900 0.9664
-7.3667 3.1237 -2.9879 0.9664
-7.6142 2.4553 -2.9874 0.9664
-7.5679 -2.4404 -2.9692 0.9666
-7.3224 -3.1050 -2.9700 0.9666
-6.6607 -4.3572 -2.9721 0.9666
-6.2494 -4.9351 -2.9735 0.9666
-5.2815 -5.9719 -2.9770 0.9665
-4.7322 -6.4226 -2.9790 0.9665
-2.2003 -7.6950 -2.9885 0.9664
-0.8026 -7.9777 -2.9940 0.9663
-0.0894 -8.0250 -2.9968 0.9663
0.6255 -8.0044 -2.9980 0.9663
1.3359 -7.9199 -2.9992 0.9663
2.0363 -7.7725 -3.0003 0.9663
2.7210 -7.5632 -3.0014 0.9663
4.0218 -6.9659 -3.0035 0.9662
5.7248 -5.6614 -3.0065 0.9662
6.2077 -5.1308 -3.0073 0.9662
7.0227 -3.9509 -3.0088 0.9662
7.3480 -3.3108 -3.0095 0.9662
7.6149 -2.6441 -3.0100 0.9662
7.8212 -1.9562 -3.0105 0.9662
7.9653 -1.2525 -3.0109 0.9662
8.0623 0.1797 -3.0113 0.9662
8.0145 0.8966 -3.0114 0.9662
7.7282 2.3032 -3.0112 0.9662
7.4920 2.9817 -3.0110 0.9662
6.8429 4.2618 -3.0102 0.9662
6.4353 4.8531 -3.0097 0.9662
5.6729 5.1308 -2.8562 0.9679
5.1925 5.6141 -2.8556 0.9679
4.1127 6.4424 -2.8540 0.9679
3.5219 6.7808 -2.8532 0.9679
2.9067 7.0729 -2.8554 0.9679
2.2651 7.3020 -2.8548 0.9679
-0.4251 7.6246 -2.8515 0.9679
-1.7693 7.4243 -2.8499 0.9679
-4.2376 6.3230 -2.8423 0.9680
-6.4981 4.6770 -2.9896 0.9664
-6.8868 4.0791 -2.9889 0.9664
-7.2209 3.4492 -2.9882 0.9664
-7.7154 2.1134 -2.9872 0.9664
-7.8719 1.4182 -2.9868 0.9664
-7.9661 0.7118 -2.9865 0.9664
-7.6104 0.0000 -2.9869 0.9678
-7.4479 -1.3418 -2.9701 0.9680
-7.2997 -1.9996 -2.9705 0.9680
-7.0941 -2.6419 -2.9710 0.9680
-6.5173 -3.8602 -2.9729 0.9680
-6.1504 -4.4268 -2.9741 0.9680
-5.7348 -4.9591 -2.9755 0.9679
-5.2735 -5.4528 -2.9772 0.9679
-4.7702 -5.9042 -2.9790 0.9679
-4.2286 -6.3096 -2.9810 0.9679
-3.6529 -6.6657 -2.9832 0.9679
-3.0474 -6.9697 -2.9855 0.9678
-2.4170 -7.2191 -2.9879 0.9678
-1.7663 -7.4118 -2.9904 0.9678
1.6057 -7.4725 -2.9997 0.9677
3.5266 -6.7898 -3.0028 0.9677
4.6776 -6.0609 -3.0048 0.9676
5.2000 -5.6222 -3.0057 0.9676
6.5057 -4.0518 -3.0080 0.9676
6.8420 -3.4574 -3.0087 0.9676
7.3492 -2.1903 -3.0097 0.9676
7.5160 -1.5277 -3.0101 0.9676
7.6541 0.5124 -3.0107 0.9676
7.4419 1.8613 -3.0107 0.9676
6.9929 3.1509 -3.0103 0.9676
5.1732 5.1158 -2.8554 0.9692
2.4624 6.8445 -2.8548 0.9692
1.8431 7.0350 -2.8542 0.9692
0.5663 7.2467 -2.8528 0.9692
-1.9963 6.9812 -2.8497 0.9693
-4.2940 5.8278 -2.8411 0.9694
-5.0505 5.7107 -2.9920 0.9678
-5.9798 4.7221 -2.9904 0.9678
-6.7191 3.5854 -2.9890 0.9678
-7.2457 2.3364 -2.9879 0.9678
-7.4239 1.6820 -2.9875 0.9678
-7.6031 0.3390 -2.9870 0.9678
-7.6027 -0.3390 -2.9868 0.9678
-7.2040 -2.3230 -2.9707 0.9680
-6.3401 -4.1475 -2.9735 0.9680
-5.9485 -4.6975 -2.9748 0.9680
-5.5096 -5.2110 -2.9763 0.9679
-5.0269 -5.6840 -2.9781 0.9679
-3.9447 -6.4939 -2.9821 0.9679
-3.3536 -6.8244 -2.9843 0.9679
-2.7350 -7.1014 -2.9866 0.9678
-1.4350 -7.4864 -2.9917 0.9678
-0.7637 -7.5911 -2.9943 0.9677
-0.0851 -7.6357 -2.9970 0.9677
1.2711 -7.5353 -2.9991 0.9677
2.5888 -7.1956 -3.0013 0.9677
4.4023 -6.2623 -3.0043 0.9676
4.9437 -5.8474 -3.0052 0.9676
5.4461 -5.3857 -3.0061 0.9676
6.3180 -4.3371 -3.0077 0.9676
6.9899 -3.1495 -3.0089 0.9676
7.2438 -2.5153 -3.0095 0.9676
7.6692 0.1709 -3.0107 0.9676
7.3514 2.1909 -3.0106 0.9676
7.1267 2.8363 -3.0104 0.9676
6.8453 3.4591 -3.0101 0.9676
5.3965 4.8808 -2.8557 0.9692
3.9125 6.1287 -2.8537 0.9692
3.3505 6.4508 -2.8529 0.9692
2.7622 6.7214 -2.8520 0.9693
2.1550 6.9468 -2.8546 0.9692
1.5276 7.1091 -2.8538 0.9692
-0.4045 7.2545 -2.8516 0.9693
-1.0483 7.1878 -2.8508 0.9693
-1.6834 7.0640 -2.8501 0.9693
-2.0606 4.7128 -2.0187 0.9781
-4.7918 5.9309 -2.9925 0.9678
-5.2991 5.4792 -2.9916 0.9678
-5.7641 4.9845 -2.9908 0.9678
-6.1833 4.4505 -2.9900 0.9678
-6.5534 3.8816 -2.9893 0.9678
-7.1350 2.6571 -2.9882 0.9678
-7.3421 2.0112 -2.9877 0.9678
-7.2259 -0.6457 -2.9873 0.9691
-6.5151 -3.1120 -2.9732 0.9692
-6.2143 -3.6808 -2.9741 0.9692
-5.4679 -4.7284 -2.9767 0.9692
-4.5480 -5.6292 -2.9800 0.9692
-4.0315 -6.0154 -2.9819 0.9692
-2.9052 -6.6444 -2.9862 0.9691
-2.3041 -6.8819 -2.9885 0.9691
-1.6837 -7.0654 -2.9909 0.9691
0.8901 -7.2274 -2.9986 0.9690
2.1590 -6.9598 -3.0006 0.9690
2.7708 -6.7423 -3.0016 0.9690
3.3610 -6.4710 -3.0026 0.9689
3.9248 -6.1481 -3.0036 0.9689
4.9557 -5.3580 -3.0053 0.9689
5.4143 -4.8969 -3.0061 0.9689
5.8301 -4.3967 -3.0069 0.9689
6.5201 -3.2948 -3.0082 0.9689
7.1622 -1.4558 -3.0096 0.9689
7.3081 -0.1628 -3.0101 0.9689
7.2938 0.4883 -3.0102 0.9689
7.2215 1.1355 -3.0102 0.9689
6.3694 3.5834 -3.0094 0.9689
6.0243 4.1354 -3.0089 0.9689
5.6314 4.6544 -3.0084 0.9689
4.9298 4.8752 -2.8550 0.9705
4.4754 5.2935 -2.8544 0.9705
3.4642 6.0001 -2.8529 0.9705
2.3441 6.5155 -2.8513 0.9705
0.5397 6.9067 -2.8527 0.9705
-0.6930 6.8895 -2.8513 0.9705
-1.3031 6.7988 -2.8506 0.9705
-1.9028 6.6543 -2.8500 0.9705
-3.5851 5.9020 -2.8436 0.9706
-4.8142 5.4434 -2.9924 0.9691
-5.7000 4.5013 -2.9908 0.9691
-6.9071 2.2273 -2.9884 0.9691
-7.0770 1.6034 -2.9880 0.9691
-7.1909 0.9671 -2.9877 0.9691
-7.2479 0.3232 -2.9875 0.9691
-7.2475 -0.3232 -2.9874 0.9691
-6.6464 -2.8183 -2.9728 0.9693
-6.3710 -3.3997 -2.9736 0.9692
-6.0454 -3.9547 -2.9747 0.9692
-5.6718 -4.4790 -2.9760 0.9692
-4.7928 -5.4194 -2.9791 0.9692
-3.7608 -6.1912 -2.9829 0.9691
-2.6073 -6.7698 -2.9873 0.9691
-1.3679 -7.1363 -2.9921 0.9691
-0.0811 -7.2779 -2.9971 0.9690
2.4673 -6.8579 -3.0011 0.9690
3.0689 -6.6132 -3.0021 0.9690
3.6465 -6.3159 -3.0031 0.9689
4.1954 -5.9681 -3.0040 0.9689
4.7114 -5.5726 -3.0049 0.9689
5.6278 -4.6515 -3.0065 0.9689
6.0209 -4.1331 -3.0072 0.9689
6.3663 -3.5816 -3.0079 0.9689
6.6611 -3.0013 -3.0085 0.9689
6.9029 -2.3969 -3.0090 0.9689
7.2933 -0.4882 -3.0100 0.9689
7.2649 0.8127 -3.0102 0.9689
7.1637 1.4561 -3.0102 0.9689
7.0054 2.0878 -3.0101 0.9689
6.7912 2.7029 -3.0098 0.9689
5.2997 4.7933 -2.9425 0.9696
4.7073 5.0894 -2.8547 0.9705
4.2346 5.4869 -2.8540 0.9705
3.7285 5.8406 -2.8533 0.9705
2.0512 6.6125 -2.8509 0.9705
0.2315 6.9230 -2.8523 0.9705
-0.3855 6.9144 -2.8516 0.9705
-0.9992 6.8509 -2.8509 0.9705
-1.6047 6.7333 -2.8503 0.9705
-2.1968 6.5616 -2.8493 0.9705
-3.3201 6.0584 -2.8448 0.9706
-3.8428 5.7339 -2.8423 0.9706
-5.8941 4.2424 -2.9904 0.9691
-6.2470 3.7001 -2.9898 0.9691
-6.5502 3.1288 -2.9892 0.9691
-6.8015 2.5329 -2.9887 0.9691
-6.9990 1.9172 -2.9882 0.9691
-7.2265 0.6458 -2.9876 0.9691
-6.9268 -0.0000 -2.9879 0.9703
-6.4603 -2.4058 -2.9737 0.9704
-5.6004 -4.0309 -2.9764 0.9704
-5.2217 -4.5154 -2.9778 0.9704
-4.8015 -4.9647 -2.9793 0.9704
-3.8496 -5.7441 -2.9827 0.9703
-3.3253 -6.0679 -2.9847 0.9703
-2.7740 -6.3442 -2.9868 0.9703
-2.1999 -6.5708 -2.9890 0.9703
0.8498 -6.8995 -2.9986 0.9702
2.0609 -6.6438 -3.0006 0.9702
5.1680 -4.6742 -3.0058 0.9701
5.5648 -4.1967 -3.0065 0.9701
5.9176 -3.6855 -3.0072 0.9701
6.4796 -2.5789 -3.0083 0.9701
6.6845 -1.9922 -3.0087 0.9701
6.8361 -1.3895 -3.0091 0.9701
6.9332 -0.7756 -3.0094 0.9701
5.7500 3.9472 -3.0085 0.9701
5.3750 4.4426 -3.0080 0.9701
4.8131 4.7598 -2.9199 0.9709
4.2717 5.0526 -2.8540 0.9716
0.5145 6.5835 -2.8485 0.9716
-0.0737 6.6116 -2.8521 0.9716
-1.2424 6.4803 -2.8462 0.9717
-1.8162 6.3517 -2.8497 0.9716
-3.4223 5.6339 -2.8435 0.9717
-3.9072 5.3030 -2.8413 0.9717
-4.5961 5.1969 -2.9926 0.9702
-5.0392 4.7659 -2.9919 0.9702
-5.4420 4.2975 -2.9911 0.9702
-5.8016 3.7952 -2.9905 0.9703
-6.3802 2.7054 -2.9894 0.9703
-6.5946 2.1265 -2.9889 0.9703
-6.7569 1.5309 -2.9885 0.9703
-6.8648 -0.9232 -2.9879 0.9703
-6.7217 -1.5229 -2.9730 0.9704
-1.9057 -6.6648 -2.9901 0.9703
-1.3060 -6.8132 -2.9925 0.9702
-0.6949 -6.9080 -2.9949 0.9702
-0.0774 -6.9478 -2.9972 0.9702
1.1565 -6.8559 -2.9991 0.9702
1.7627 -6.7279 -3.0001 0.9702
2.3552 -6.5464 -3.0010 0.9701
2.9295 -6.3128 -3.0020 0.9701
3.4808 -6.0288 -3.0029 0.9701
4.0047 -5.6968 -3.0038 0.9701
4.4971 -5.3192 -3.0046 0.9701
4.9540 -4.8992 -3.0054 0.9701
5.3718 -4.4399 -3.0062 0.9701
6.3578 -2.8647 -3.0080 0.9701
6.8915 -1.0836 -3.0092 0.9701
6.9611 -0.4660 -3.0095 0.9701
6.9754 0.1554 -3.0096 0.9701
6.9340 0.7757 -3.0097 0.9701
6.6863 1.9927 -3.0095 0.9701
6.4820 2.5798 -3.0093 0.9701
5.9206 3.6874 -3.0087 0.9701
5.5681 4.1991 -3.0083 0.9701
5.1713 4.6772 -3.0077 0.9701
4.4930 4.8578 -2.8543 0.9716
4.0420 5.2373 -2.8537 0.9716
3.5589 5.5749 -2.8530 0.9716
3.0478 5.8680 -2.8523 0.9716
0.2207 6.6024 -2.8496 0.9716
-0.3681 6.6010 -2.8518 0.9716
-0.9539 6.5404 -2.8511 0.9716
-1.5318 6.4280 -2.8504 0.9716
-2.0967 6.2626 -2.8488 0.9716
-4.8224 4.9864 -2.9922 0.9702
-5.6274 4.0504 -2.9908 0.9702
-5.9643 3.5327 -2.9902 0.9703
-6.4938 2.4183 -2.9891 0.9703
-6.8180 1.2283 -2.9884 0.9703
-6.8997 0.6166 -2.9881 0.9703
-6.6230 -0.0000 -2.9884 0.9714
-6.5965 -0.5895 -2.9883 0.9714
-6.1783 -2.3009 -2.9748 0.9715
-5.6755 -3.3616 -2.9764 0.9715
-5.3558 -3.8549 -2.9775 0.9715
-4.5916 -4.7477 -2.9802 0.9714
-4.1530 -5.1402 -2.9818 0.9714
-3.6811 -5.4927 -2.9835 0.9714
-2.6524 -6.0662 -2.9874 0.9714
-1.5370 -6.4496 -2.9917 0.9713
0.8124 -6.5958 -2.9986 0.9713
1.9702 -6.3512 -3.0005 0.9712
3.0669 -5.9048 -3.0023 0.9712
4.0675 -5.2704 -3.0040 0.9712
4.5217 -4.8888 -3.0048 0.9712
5.6564 -3.5228 -3.0068 0.9712
5.9487 -3.0060 -3.0074 0.9712
6.5342 -1.3281 -3.0086 0.9712
6.6672 -0.1486 -3.0091 0.9712
6.4696 1.6182 -3.0091 0.9712
6.2996 2.1875 -3.0090 0.9712
5.8109 3.2692 -3.0084 0.9712
5.4962 3.7729 -3.0081 0.9712
5.1378 4.2465 -3.0076 0.9712
3.1608 5.4746 -2.8524 0.9726
2.6603 5.7327 -2.8516 0.9726
1.0503 6.2266 -2.8492 0.9727
-0.0703 6.3104 -2.8475 0.9727
-0.6315 6.2771 -2.8466 0.9727
-1.1892 6.2041 -2.8503 0.9727
-2.2680 5.8887 -2.8474 0.9727
-3.7359 5.0705 -2.8418 0.9727
-4.3942 4.9686 -2.9929 0.9713
-5.2030 4.1088 -2.9915 0.9713
-5.5469 3.6286 -2.9908 0.9713
-5.8468 3.1199 -2.9903 0.9713
-6.3053 2.0332 -2.9893 0.9713
-6.4284 -1.4565 -2.9742 0.9715
-6.2741 -2.0232 -2.9746 0.9715
-5.8187 -3.1050 -2.9759 0.9715
-4.7973 -4.5373 -2.9794 0.9714
-4.3766 -4.9488 -2.9810 0.9714
-3.9210 -5.3217 -2.9826 0.9714
-2.9190 -5.9400 -2.9864 0.9714
-2.3803 -6.1805 -2.9884 0.9714
-0.0740 -6.6422 -2.9972 0.9713
0.5177 -6.6244 -2.9982 0.9713
1.1056 -6.5541 -2.9991 0.9713
1.6850 -6.4317 -3.0000 0.9712
2.8004 -6.0346 -3.0018 0.9712
3.8282 -5.4456 -3.0036 0.9712
4.2988 -5.0846 -3.0044 0.9712
4.7355 -4.6831 -3.0051 0.9712
5.4933 -3.7709 -3.0065 0.9712
6.0772 -2.7382 -3.0076 0.9712
6.2977 -2.1868 -3.0081 0.9712
6.4682 -1.6178 -3.0085 0.9712
6.5872 -1.0358 -3.0088 0.9712
6.6537 -0.4454 -3.0090 0.9712
6.6277 0.7414 -3.0092 0.9712
6.3910 1.9047 -3.0091 0.9712
6.1957 2.4658 -3.0089 0.9712
5.6592 3.5246 -3.0083 0.9712
4.9431 4.4707 -3.0073 0.9712
3.4019 5.3290 -2.8527 0.9726
1.3269 6.1745 -2.8497 0.9727
0.2110 6.3082 -2.8480 0.9727
-0.3513 6.3000 -2.8471 0.9727
-0.9103 6.2418 -2.8462 0.9727
-1.4641 6.1436 -2.8497 0.9727
-3.0295 5.5281 -2.8444 0.9727
-5.0154 4.3370 -2.9918 0.9713
-5.7025 3.3776 -2.9905 0.9713
-6.5189 1.1744 -2.9888 0.9714
-6.5971 0.5895 -2.9886 0.9714
-6.3407 -0.0000 -2.9889 0.9724
-6.2350 -1.1233 -2.9863 0.9724
-6.0879 -1.6676 -2.9754 0.9725
-5.6980 -2.7217 -2.9766 0.9725
-4.7814 -4.1347 -2.9797 0.9724
-2.5394 -5.8078 -2.9879 0.9724
-2.0138 -6.0149 -2.9899 0.9723
-0.3539 -6.3469 -2.9964 0.9723
0.7776 -6.3137 -2.9986 0.9723
3.8933 -5.0446 -3.0037 0.9722
4.3279 -4.6793 -3.0045 0.9722
5.6935 -2.8771 -3.0070 0.9722
5.9279 -2.3593 -3.0075 0.9722
6.1152 -1.8225 -3.0079 0.9722
6.2539 -1.2712 -3.0082 0.9722
6.3427 -0.7096 -3.0084 0.9722
6.1920 1.5487 -3.0087 0.9722
5.8186 2.6217 -3.0083 0.9722
4.9174 4.0643 -3.0072 0.9722
4.5354 4.4851 -3.0067 0.9722
3.4805 4.9510 -2.8528 0.9736
3.0253 5.2400 -2.8521 0.9736
2.5463 5.4871 -2.8514 0.9736
2.0473 5.6905 -2.8507 0.9736
1.0054 5.9601 -2.8491 0.9736
0.4708 6.0242 -2.8483 0.9736
-0.0673 6.0404 -2.8475 0.9736
-2.6619 5.4170 -2.8451 0.9737
-3.1314 5.1550 -2.8431 0.9737
-3.6870 5.0041 -2.9299 0.9729
-4.9810 3.9335 -2.9918 0.9723
-5.8401 2.4764 -2.9901 0.9723
-6.3345 0.2825 -2.9889 0.9723
-6.3343 -0.2825 -2.9888 0.9724
-6.2839 -0.8451 -2.9888 0.9724
-6.0080 -1.9373 -2.9756 0.9725
-5.2868 -3.4584 -2.9779 0.9724
-4.9598 -3.9167 -2.9790 0.9724
-3.2878 -5.4124 -2.9851 0.9724
-2.7947 -5.6871 -2.9870 0.9724
-0.6361 -6.3225 -2.9953 0.9723
-0.0708 -6.3582 -2.9973 0.9723
1.0583 -6.2738 -2.9991 0.9723
2.1551 -5.9902 -3.0008 0.9722
2.6805 -5.7763 -3.0017 0.9722
4.5326 -4.4824 -3.0049 0.9722
5.2578 -3.6093 -3.0062 0.9722
5.5592 -3.1276 -3.0067 0.9722
6.3046 -0.9913 -3.0083 0.9722
6.3682 -0.4263 -3.0085 0.9722
6.3812 0.1422 -3.0087 0.9722
6.3433 0.7096 -3.0087 0.9722
6.2550 1.2714 -3.0087 0.9722
6.1168 1.8230 -3.0086 0.9722
5.9299 2.3600 -3.0084 0.9722
5.6958 2.8782 -3.0082 0.9722
5.4164 3.3734 -3.0078 0.9722
3.2561 5.1006 -2.8524 0.9736
2.7886 5.3689 -2.8518 0.9736
1.7915 5.7753 -2.8503 0.9736
1.2701 5.9102 -2.8495 0.9736
0.7388 5.9981 -2.8487 0.9736
-0.3362 6.0305 -2.8470 0.9736
-1.9179 5.7287 -2.8477 0.9736
-2.0607 4.7129 -2.4247 0.9775
-3.9910 4.9398 -2.9935 0.9723
-5.1508 3.7073 -2.9915 0.9723
-5.4592 3.2335 -2.9909 0.9723
-5.9442 2.2137 -2.9899 0.9723
-6.1168 1.6756 -2.9896 0.9723
-6.0775 -0.0000 -2.9893 0.9733
-5.9811 -1.0775 -2.9892 0.9733
-5.6719 -2.1122 -2.9769 0.9734
-5.4625 -2.6092 -2.9776 0.9734
-5.2101 -3.0859 -2.9784 0.9734
-4.9163 -3.5386 -2.9794 0.9734
-4.5837 -3.9637 -2.9805 0.9733
-4.2145 -4.3578 -2.9818 0.9733
-3.3786 -5.0412 -2.9849 0.9733
-2.4341 -5.5670 -2.9885 0.9733
-0.3392 -6.0830 -2.9966 0.9732
0.7452 -6.0509 -2.9986 0.9732
1.2812 -5.9622 -2.9995 0.9732
1.8073 -5.8262 -3.0003 0.9732
2.3194 -5.6437 -3.0012 0.9732
2.8132 -5.4164 -3.0020 0.9732
3.2850 -5.1459 -3.0028 0.9732
4.5311 -4.0981 -3.0049 0.9731
4.8789 -3.6793 -3.0056 0.9731
5.4559 -2.7570 -3.0066 0.9731
5.6804 -2.2608 -3.0071 0.9731
5.9927 -1.2181 -3.0078 0.9731
6.0778 -0.6799 -3.0080 0.9731
6.1146 -0.1363 -3.0082 0.9731
6.1026 0.4085 -3.0083 0.9731
5.7775 2.0062 -3.0081 0.9731
4.7121 3.8946 -3.0069 0.9731
3.9456 4.6669 -3.0058 0.9731
2.8991 5.0214 -2.8519 0.9745
1.4684 5.6048 -2.8498 0.9745
0.9635 5.7117 -2.8490 0.9745
0.4512 5.7732 -2.8482 0.9745
-0.0645 5.7888 -2.8474 0.9745
-0.5793 5.7584 -2.8466 0.9745
-1.5918 5.5669 -2.8479 0.9745
-2.0799 5.4005 -2.8464 0.9745
-3.6109 4.9008 -2.9941 0.9732
-4.0318 4.5588 -2.9934 0.9732
-4.7741 3.7701 -2.9921 0.9732
-6.0716 0.2708 -2.9893 0.9733
-6.0714 -0.2708 -2.9892 0.9733
-6.0231 -0.8100 -2.9892 0.9733
-5.9059 -1.3380 -2.9784 0.9734
-5.7598 -1.8573 -2.9767 0.9734
-5.5727 -2.3630 -2.9772 0.9734
-5.3416 -2.8504 -2.9779 0.9734
-5.0682 -3.3155 -2.9788 0.9734
-4.0172 -4.5423 -2.9825 0.9733
-2.6788 -5.4513 -2.9875 0.9733
-0.6096 -6.0597 -2.9955 0.9732
0.4749 -6.0772 -2.9982 0.9732
1.0142 -6.0125 -2.9991 0.9732
1.5458 -5.9001 -2.9999 0.9732
2.0653 -5.7407 -3.0008 0.9732
2.5688 -5.5356 -3.0016 0.9732
4.7096 -3.8926 -3.0052 0.9731
5.0384 -3.4587 -3.0058 0.9731
5.3272 -2.9970 -3.0064 0.9731
5.7759 -2.0056 -3.0073 0.9731
6.0413 -0.9500 -3.0079 0.9731
6.1022 -0.4085 -3.0081 0.9731
6.0784 0.6800 -3.0083 0.9731
5.6822 2.2615 -3.0080 0.9731
5.4579 2.7580 -3.0078 0.9731
5.1902 3.2325 -3.0075 0.9731
4.8813 3.6812 -3.0071 0.9731
4.1499 4.4869 -3.0061 0.9731
3.6039 4.6696 -2.9012 0.9740
3.1203 4.8878 -2.8522 0.9745
2.6723 5.1450 -2.8515 0.9745
1.7169 5.5345 -2.8501 0.9745
1.2171 5.6639 -2.8494 0.9745
0.1935 5.7867 -2.8478 0.9745
-0.3222 5.7793 -2.8470 0.9745
-0.8351 5.7261 -2.8462 0.9745
-2.0607 4.7130 -2.5300 0.9773
-2.7787 5.0704 -2.8439 0.9746
-3.2172 4.8004 -2.8423 0.9746
-3.8252 4.7345 -2.9937 0.9732
-5.2325 3.0992 -2.9912 0.9733
-5.4867 2.6208 -2.9907 0.9733
-5.6974 2.1217 -2.9903 0.9733
-5.8082 -0.5190 -2.9896 0.9741
-5.6013 -1.5344 -2.9774 0.9742
-5.2424 -2.5041 -2.9785 0.9742
-5.0000 -2.9615 -2.9793 0.9742
-4.7181 -3.3959 -2.9802 0.9742
-4.0444 -4.1819 -2.9826 0.9742
-1.8521 -5.5319 -2.9908 0.9741
-1.3532 -5.6785 -2.9927 0.9741
-0.8430 -5.7802 -2.9947 0.9741
0.1954 -5.8442 -2.9978 0.9741
0.7150 -5.8052 -2.9986 0.9741
1.2292 -5.7201 -2.9995 0.9740
1.7339 -5.5895 -3.0003 0.9740
3.1515 -4.9367 -3.0026 0.9740
3.5792 -4.6377 -3.0033 0.9740
4.3467 -3.9314 -3.0047 0.9740
4.6803 -3.5296 -3.0053 0.9740
5.4492 -2.1687 -3.0068 0.9740
5.6213 -1.6753 -3.0071 0.9740
5.8303 -0.6522 -3.0077 0.9740
5.8655 -0.1307 -3.0078 0.9740
5.7960 0.9114 -3.0079 0.9740
5.5422 1.9245 -3.0077 0.9740
5.3486 2.4099 -3.0075 0.9740
5.1124 2.8762 -3.0073 0.9740
4.1692 4.1230 -3.0061 0.9740
3.7850 4.4769 -3.0055 0.9740
3.2631 4.6418 -2.9089 0.9748
2.3409 5.0444 -2.8510 0.9753
1.4087 5.3769 -2.8496 0.9753
0.9243 5.4796 -2.8489 0.9753
-0.5557 5.5246 -2.8466 0.9754
-2.4470 4.9795 -2.8444 0.9754
-4.5807 3.6174 -2.9923 0.9741
-4.8836 3.1947 -2.9918 0.9741
-5.1476 2.7469 -2.9913 0.9741
-5.5516 1.7902 -2.9905 0.9741
-5.6883 1.2888 -2.9901 0.9741
-5.8258 0.2598 -2.9897 0.9741
-5.8256 -0.2598 -2.9896 0.9741
-5.7793 -0.7772 -2.9896 0.9741
-5.6727 -1.2853 -2.9820 0.9742
-5.5278 -1.7825 -2.9776 0.9742
-5.1262 -2.7355 -2.9788 0.9742
-4.8638 -3.1818 -2.9797 0.9742
-4.5629 -3.6033 -2.9807 0.9742
-4.2258 -3.9967 -2.9819 0.9742
-3.4534 -4.6871 -2.9847 0.9742
-2.5705 -5.2309 -2.9880 0.9741
-2.0960 -5.4422 -2.9898 0.9741
-1.6043 -5.6108 -2.9917 0.9741
0.4556 -5.8305 -2.9982 0.9741
1.4830 -5.6604 -2.9999 0.9740
1.9814 -5.5075 -3.0007 0.9740
3.3687 -4.7920 -3.0030 0.9740
3.7827 -4.4742 -3.0037 0.9740
4.1668 -4.1206 -3.0044 0.9740
4.8334 -3.3179 -3.0056 0.9740
5.1104 -2.8750 -3.0061 0.9740
5.3468 -2.4092 -3.0065 0.9740
5.8538 -0.3919 -3.0078 0.9740
5.8308 0.6523 -3.0079 0.9740
5.7496 1.1687 -3.0079 0.9740
5.6226 1.6757 -3.0078 0.9740
5.4508 2.1694 -3.0077 0.9740
4.6826 3.5313 -3.0067 0.9740
4.3491 3.9335 -3.0063 0.9740
2.9933 4.6889 -2.8519 0.9753
2.5636 4.9357 -2.8513 0.9753
2.1136 5.1431 -2.8507 0.9753
1.1676 5.4336 -2.8493 0.9753
0.6792 5.5146 -2.8485 0.9753
-1.2877 5.4037 -2.8479 0.9753
-2.0607 4.7130 -2.6371 0.9771
-2.6656 4.8641 -2.8436 0.9754
-4.0589 4.1969 -2.9933 0.9741
-4.4154 3.8182 -2.9926 0.9741
-4.7368 3.4094 -2.9921 0.9741
-5.0206 2.9737 -2.9915 0.9741
-5.4667 2.0358 -2.9906 0.9741
-5.6255 1.5410 -2.9903 0.9741
-5.6009 0.0000 -2.9900 0.9749
-5.5786 -0.4985 -2.9899 0.9749
-5.5120 -0.9930 -2.9899 0.9749
-4.8030 -2.8449 -2.9801 0.9750
-4.5321 -3.2621 -2.9810 0.9750
-3.8849 -4.0170 -2.9833 0.9750
-3.5136 -4.3488 -2.9846 0.9750
-3.1141 -4.6466 -2.9861 0.9750
-2.2434 -5.1307 -2.9894 0.9749
-1.7789 -5.3132 -2.9912 0.9749
-1.2997 -5.4538 -2.9930 0.9749
-0.3125 -5.6051 -2.9969 0.9749
0.6866 -5.5750 -2.9986 0.9749
1.1804 -5.4932 -2.9994 0.9748
3.8206 -4.1308 -3.0038 0.9748
4.4943 -3.3893 -3.0050 0.9748
5.2325 -2.0825 -3.0064 0.9748
5.3977 -1.6087 -3.0068 0.9748
5.5654 0.8751 -3.0076 0.9748
5.3218 1.8479 -3.0074 0.9748
4.6433 3.1874 -3.0066 0.9748
4.3406 3.5875 -3.0062 0.9748
3.6346 4.2990 -3.0053 0.9748
3.2369 4.6046 -3.0047 0.9748
2.6707 4.6257 -2.8514 0.9761
0.4156 5.3188 -2.8481 0.9761
-0.0594 5.3333 -2.8473 0.9761
-0.5337 5.3055 -2.8466 0.9761
-1.0035 5.2355 -2.8458 0.9761
-1.9157 4.9742 -2.8456 0.9761
-2.3497 4.7815 -2.8441 0.9761
-2.7742 4.5670 -2.8526 0.9761
-4.0735 3.8527 -2.9932 0.9749
-4.3994 3.4742 -2.9926 0.9749
-5.1584 2.1874 -2.9911 0.9749
-5.3320 1.7193 -2.9908 0.9749
-5.4633 1.2378 -2.9905 0.9749
-5.5952 -0.2495 -2.9900 0.9749
-5.4604 -1.2372 -2.9889 0.9749
-5.3101 -1.7123 -2.9785 0.9750
-4.9243 -2.6277 -2.9797 0.9750
-4.6722 -3.0564 -2.9805 0.9750
-4.3831 -3.4613 -2.9815 0.9750
-3.3172 -4.5021 -2.9854 0.9750
-2.4690 -5.0243 -2.9885 0.9749
-2.0131 -5.2271 -2.9903 0.9749
-0.5617 -5.5838 -2.9959 0.9749
-0.0625 -5.6145 -2.9975 0.9749
1.4241 -5.4358 -2.9998 0.9748
2.3666 -5.0998 -3.0014 0.9748
2.8118 -4.8702 -3.0021 0.9748
3.2349 -4.6016 -3.0028 0.9748
3.6324 -4.2964 -3.0035 0.9748
4.9072 -2.7607 -3.0058 0.9748
5.4643 -1.3667 -3.0069 0.9748
5.5989 0.6263 -3.0076 0.9748
5.3989 1.6090 -3.0075 0.9748
5.2340 2.0831 -3.0073 0.9748
5.0275 2.5405 -3.0071 0.9748
4.4964 3.3909 -3.0064 0.9748
4.1762 3.7771 -3.0060 0.9748
3.8228 4.1331 -3.0055 0.9748
3.4392 4.4562 -3.0050 0.9748
2.9459 4.6147 -2.9227 0.9755
2.4617 4.7396 -2.8511 0.9761
1.1213 5.2179 -2.8491 0.9761
0.1783 5.3314 -2.8477 0.9761
-0.2969 5.3247 -2.8470 0.9761
-0.7694 5.2758 -2.8462 0.9761
-2.0607 4.7130 -2.7460 0.9769
-3.1232 4.6601 -2.9948 0.9749
-3.5247 4.3627 -2.9941 0.9749
-3.8982 4.0308 -2.9935 0.9749
-4.2407 3.6670 -2.9929 0.9749
-5.0562 2.4152 -2.9914 0.9749
-5.2504 1.9553 -2.9910 0.9749
-5.3627 -0.4792 -2.9903 0.9757
-5.2987 -0.9546 -2.9903 0.9757
-5.1773 -1.4182 -2.9814 0.9757
-5.0275 -1.8723 -2.9796 0.9758
-4.6178 -2.7352 -2.9809 0.9757
-2.1566 -4.9323 -2.9898 0.9757
-1.7100 -5.1076 -2.9915 0.9757
-0.7783 -5.3363 -2.9951 0.9756
0.1804 -5.3947 -2.9979 0.9756
2.4911 -4.7961 -3.0016 0.9756
2.9087 -4.5564 -3.0023 0.9756
3.3035 -4.2804 -3.0030 0.9756
4.0117 -3.6284 -3.0042 0.9756
4.5931 -2.8606 -3.0053 0.9755
4.8302 -2.4408 -3.0057 0.9755
5.3806 -0.6019 -3.0070 0.9755
5.4130 -0.1206 -3.0071 0.9755
5.2527 1.3138 -3.0072 0.9755
5.1147 1.7760 -3.0070 0.9755
4.9360 2.2241 -3.0069 0.9755
4.4626 3.0634 -3.0063 0.9755
3.4932 4.1318 -3.0050 0.9755
3.1110 4.4255 -3.0045 0.9756
2.1605 4.6558 -2.8506 0.9768
0.3995 5.1123 -2.8480 0.9768
-0.9646 5.0324 -2.8459 0.9768
-1.4089 4.9274 -2.8463 0.9768
-2.7553 4.5359 -2.9476 0.9760
-3.1984 4.3409 -2.9946 0.9756
-3.5712 4.0381 -2.9940 0.9756
-4.2290 3.3396 -2.9928 0.9756
-4.5087 2.9494 -2.9923 0.9756
-4.9587 2.1027 -2.9914 0.9757
-5.1256 1.6528 -2.9911 0.9757
-5.2519 1.1899 -2.9908 0.9757
-5.3787 -0.2399 -2.9903 0.9757
-5.3360 -0.7176 -2.9903 0.9757
-5.2510 -1.1897 -2.9903 0.9757
-5.1055 -1.6463 -2.9794 0.9758
-4.7345 -2.5264 -2.9805 0.9757
-4.4921 -2.9386 -2.9813 0.9757
-3.1891 -4.3282 -2.9859 0.9757
-1.9353 -5.0249 -2.9907 0.9757
-1.4812 -5.1802 -2.9924 0.9756
-0.5399 -5.3674 -2.9961 0.9756
0.4206 -5.3820 -2.9983 0.9756
0.8982 -5.3246 -2.9990 0.9756
1.3689 -5.2248 -2.9998 0.9756
1.8289 -5.0835 -3.0005 0.9756
2.2747 -4.9017 -3.0013 0.9756
2.7026 -4.6809 -3.0020 0.9756
3.1092 -4.4228 -3.0026 0.9756
3.4913 -4.1294 -3.0033 0.9756
4.4608 -3.0621 -3.0050 0.9755
4.7164 -2.6534 -3.0055 0.9755
4.9345 -2.2234 -3.0059 0.9755
5.2517 -1.3135 -3.0066 0.9755
5.4022 -0.3617 -3.0071 0.9755
5.4131 0.1206 -3.0072 0.9755
5.3060 1.0785 -3.0072 0.9755
5.1889 1.5464 -3.0071 0.9755
4.8318 2.4416 -3.0067 0.9755
4.5949 2.8617 -3.0065 0.9755
4.3215 3.2590 -3.0061 0.9755
4.0137 3.6302 -3.0057 0.9755
2.9106 4.5593 -3.0042 0.9756
1.9508 4.7469 -2.8503 0.9768
1.5202 4.9006 -2.8497 0.9768
-1.1882 4.9862 -2.8469 0.9768
-3.3882 4.1936 -2.9943 0.9756
-4.6352 2.7455 -2.9921 0.9757
-4.8605 2.3217 -2.9916 0.9757
-5.1939 1.4228 -2.9909 0.9757
-4.6588 -2.2254 -2.9809 0.9764
-4.1927 -3.0177 -2.9825 0.9764
-3.5937 -3.7159 -2.9846 0.9764
-2.4877 -4.5395 -2.9886 0.9764
-1.6452 -4.9139 -2.9919 0.9763
-1.2020 -5.0438 -2.9936 0.9763
-0.7487 -5.1337 -2.9953 0.9763
0.6349 -5.1549 -2.9986 0.9763
1.0915 -5.0791 -2.9994 0.9763
1.9756 -4.8075 -3.0008 0.9763
2.7980 -4.3830 -3.0022 0.9763
3.1777 -4.1174 -3.0028 0.9763
3.5323 -3.8190 -3.0034 0.9763
4.4181 -2.7516 -3.0050 0.9762
5.1754 -0.5789 -3.0067 0.9762
5.2067 -0.1160 -3.0068 0.9762
5.1965 0.3479 -3.0069 0.9762
5.0524 1.2637 -3.0068 0.9762
4.0127 3.3166 -3.0057 0.9762
2.9925 4.2569 -3.0043 0.9763
2.6013 4.5056 -3.0037 0.9763
1.6710 4.6447 -2.8499 0.9775
-2.1724 4.4208 -2.8439 0.9775
-3.7671 3.5629 -2.9936 0.9763
-4.3376 2.8375 -2.9926 0.9763
-4.5722 2.4398 -2.9921 0.9763
-4.7706 2.0229 -2.9917 0.9764
-4.9312 1.5901 -2.9914 0.9764
-5.1341 0.6905 -2.9909 0.9764
-5.1748 -0.2307 -2.9906 0.9764
-4.9126 -1.5841 -2.9801 0.9764
-4.5556 -2.4310 -2.9812 0.9764
-4.3223 -2.8275 -2.9820 0.9764
-4.0547 -3.2020 -2.9829 0.9764
-2.6868 -4.4231 -2.9879 0.9764
-0.5195 -5.1636 -2.9962 0.9763
0.4046 -5.1774 -2.9983 0.9763
2.5997 -4.5028 -3.0018 0.9763
3.3583 -3.9722 -3.0031 0.9763
3.6993 -3.6583 -3.0037 0.9763
4.7464 -2.1386 -3.0057 0.9762
4.9185 -1.7079 -3.0060 0.9762
5.1443 -0.8089 -3.0066 0.9762
5.1962 -0.3478 -3.0067 0.9762
5.2067 0.1160 -3.0068 0.9762
5.1758 0.5790 -3.0069 0.9762
5.1037 1.0374 -3.0069 0.9762
4.9910 1.4875 -3.0068 0.9762
4.4197 2.7526 -3.0062 0.9762
4.1567 3.1348 -3.0058 0.9762
3.8608 3.4918 -3.0054 0.9762
3.5341 3.8210 -3.0050 0.9762
2.3693 4.5617 -2.9677 0.9765
1.8765 4.5661 -2.8502 0.9775
1.0367 4.8244 -2.8489 0.9775
0.6031 4.8963 -2.8483 0.9775
0.1648 4.9294 -2.8476 0.9775
-0.2745 4.9233 -2.8469 0.9775
-0.7114 4.8782 -2.8462 0.9775
-1.1429 4.7958 -2.8464 0.9775
-1.9776 4.5230 -2.8501 0.9775
-2.8881 4.3094 -2.9951 0.9763
-3.2595 4.0344 -2.9945 0.9763
-4.4593 2.6413 -2.9923 0.9763
-4.6761 2.2336 -2.9919 0.9763
-4.8557 1.8083 -2.9915 0.9764
