ply
format ascii 1.0
element vertex 564
property float32 x
property float32 y
property float32 z
property float32 I
end_header
-9.6126 -5.6513 2.1579 0.9556
-9.3525 -5.4983 1.9130 0.9569
-9.1995 -5.4084 1.6993 0.9577
-8.8695 -6.3327 1.7354 0.9568
-10.0724 -4.7776 1.5857 0.9560
-8.7334 -6.2356 1.5263 0.9576
-8.9947 -5.2880 1.3075 0.9588
-8.6365 -6.1664 1.3298 0.9581
-9.7999 -4.6483 1.1765 0.9573
-8.5701 -6.1189 1.1422 0.9585
-8.8902 -5.2266 0.9454 0.9594
-9.6788 -4.5909 0.8028 0.9579
-9.6586 -4.5813 0.6226 0.9581
-8.8140 -7.5549 0.6761 0.9546
-9.6509 -4.5777 0.4441 0.9581
-8.8481 -5.2018 0.4268 0.9597
-8.7547 -7.5041 0.4794 0.9549
-9.6707 -4.5871 0.2669 0.9581
-8.8627 -5.2104 0.2564 0.9597
-9.6952 -4.5987 0.0892 0.9580
-8.9078 -7.6354 0.0975 0.9542
-9.7629 -4.6308 -0.0898 0.9577
-8.9269 -5.2481 -0.0861 0.9594
-8.5541 -6.1075 -0.0874 0.9588
-9.8403 -4.6675 -0.2716 0.9574
-8.9727 -5.2751 -0.2596 0.9592
-8.6033 -6.1427 -0.2636 0.9586
-9.0539 -5.3228 -0.4367 0.9588
-10.1366 -4.8080 -0.6534 0.9560
-8.7873 -6.2741 -0.6289 0.9577
-10.4524 -4.9578 -0.8669 0.9547
-9.2745 -5.4525 -0.8062 0.9578
-9.1651 -6.5438 -1.0324 0.9558
14.5556 1.9895 -2.3393 0.9422
13.9797 4.5243 -2.3397 0.9422
13.5262 5.7439 -2.3400 0.9422
12.9667 6.9189 -2.3403 0.9422
12.3056 8.0400 -2.3407 0.9422
10.6997 10.0863 -2.3415 0.9422
9.7673 10.9953 -2.3419 0.9422
8.7581 11.8186 -2.3424 0.9422
-14.1393 -1.2557 -2.5029 0.9440
-13.6947 -3.7273 -2.5026 0.9440
-13.3100 -4.9237 -2.5023 0.9440
-12.8208 -6.0812 -2.5021 0.9440
-11.5454 -8.2433 -2.5014 0.9440
-10.7692 -9.2309 -2.5010 0.9440
-9.9088 -10.1457 -2.5006 0.9440
-8.9708 -10.9805 -2.5002 0.9440
-3.3962 -13.7523 -2.4978 0.9441
-2.1658 -13.9960 -2.4972 0.9441
-0.9190 -14.1298 -2.4967 0.9441
1.5849 -14.0651 -2.4957 0.9441
2.8224 -13.8671 -2.4953 0.9441
4.0373 -13.5605 -2.4948 0.9442
9.4518 -10.5137 -2.4929 0.9442
11.8776 -7.6601 -2.4921 0.9442
13.4703 -4.2712 -2.4917 0.9442
13.7951 -3.0628 -2.4917 0.9442
12.9383 2.9533 -2.3401 0.9475
12.6274 4.0867 -2.3403 0.9475
11.7122 6.2495 -2.3408 0.9475
11.1149 7.2621 -2.3411 0.9475
8.8218 9.9309 -2.3422 0.9475
-12.9319 0.0000 -2.5026 0.9487
-12.7282 -2.2788 -2.5023 0.9487
-12.4758 -3.3956 -2.5021 0.9487
-12.1255 -4.4855 -2.5019 0.9487
-11.1428 -6.5508 -2.5014 0.9487
-6.2800 -11.2841 -2.4991 0.9487
-4.1916 -12.2099 -2.4982 0.9488
-1.9733 -12.7527 -2.4973 0.9488
0.3048 -12.8962 -2.4963 0.9488
2.5718 -12.6362 -2.4955 0.9488
3.6790 -12.3570 -2.4950 0.9488
4.7569 -11.9812 -2.4946 0.9488
8.6136 -9.5813 -2.4933 0.9489
9.4264 -8.7808 -2.4930 0.9489
10.8245 -6.9809 -2.4926 0.9489
11.3989 -5.9956 -2.4924 0.9489
11.8840 -4.9635 -2.4923 0.9489
12.2761 -3.8926 -2.4922 0.9489
12.5721 -2.7913 -2.4922 0.9489
12.7698 -1.6682 -2.4922 0.9489
11.9822 1.6378 -2.3403 0.9519
10.6734 5.6952 -2.3412 0.9519
10.1290 6.6179 -2.3414 0.9519
8.8066 8.3017 -2.3421 0.9519
8.0389 9.0496 -2.3424 0.9519
7.2080 9.7269 -2.3428 0.9519
-11.8686 0.0000 -2.5021 0.9526
-11.8216 -1.0499 -2.5020 0.9526
-11.4502 -3.1164 -2.5017 0.9526
-10.7199 -5.0847 -2.5013 0.9527
-9.0051 -7.7188 -2.5004 0.9527
-7.5017 -9.1823 -2.4997 0.9527
-5.7643 -10.3575 -2.4989 0.9527
-3.8475 -11.2075 -2.4981 0.9527
-1.8115 -11.7062 -2.4973 0.9527
2.3609 -11.5998 -2.4956 0.9528
5.3221 -10.5680 -2.4945 0.9528
6.2353 -10.0544 -2.4942 0.9528
7.0994 -9.4622 -2.4939 0.9528
9.3325 -7.2635 -2.4931 0.9528
11.8135 -0.4884 -2.4926 0.9528
10.5649 3.4192 -2.3410 0.9556
-10.7885 -1.9315 -2.5016 0.9560
-9.9004 -4.6960 -2.5010 0.9560
-8.9160 -6.3659 -2.5005 0.9560
-8.3169 -7.1289 -2.5002 0.9561
-6.9286 -8.4808 -2.4995 0.9561
-3.5537 -10.3517 -2.4981 0.9561
4.0339 -10.1600 -2.4951 0.9561
5.7598 -9.2878 -2.4944 0.9562
8.6212 -6.7099 -2.4935 0.9562
9.1803 -5.9205 -2.4933 0.9562
9.6676 -5.0849 -2.4932 0.9562
10.0791 -4.2096 -2.4931 0.9562
10.6628 -2.3674 -2.4930 0.9562
10.8304 -1.4148 -2.4930 0.9562
10.9133 -0.4512 -2.4930 0.9562
10.9107 0.5160 -2.4931 0.9562
10.0002 2.2827 -2.3412 0.9588
9.4427 4.0099 -2.3415 0.9588
9.0518 4.8300 -2.3417 0.9588
8.5900 5.6123 -2.3420 0.9588
6.8170 7.6740 -2.3428 0.9588
-10.0167 -1.7934 -2.5013 0.9590
-9.8183 -2.6723 -2.5011 0.9590
-9.5427 -3.5301 -2.5009 0.9590
-9.1923 -4.3601 -2.5007 0.9590
-7.1056 -7.2755 -2.4997 0.9590
-6.4333 -7.8746 -2.4994 0.9590
-5.7107 -8.4117 -2.4991 0.9590
-4.1378 -9.2839 -2.4984 0.9590
-2.4362 -9.8650 -2.4977 0.9590
-1.5537 -10.0403 -2.4973 0.9590
0.2400 -10.1541 -2.4966 0.9590
1.1372 -10.0916 -2.4962 0.9590
3.7460 -9.4350 -2.4952 0.9590
4.5654 -9.0655 -2.4949 0.9591
6.7839 -7.5460 -2.4941 0.9591
7.4242 -6.9157 -2.4939 0.9591
8.9781 -4.7223 -2.4935 0.9591
9.9024 -2.1986 -2.4933 0.9591
10.1351 -0.4190 -2.4933 0.9591
10.1327 0.4792 -2.4934 0.9591
9.2870 2.1199 -2.3414 0.9615
9.0636 2.9333 -2.3416 0.9615
8.7692 3.7239 -2.3418 0.9615
8.4061 4.4854 -2.3420 0.9615
7.9771 5.2120 -2.3422 0.9615
7.4856 5.8979 -2.3424 0.9615
6.3305 7.1264 -2.3430 0.9615
-9.4921 -0.0000 -2.5012 0.9615
-9.3429 -1.6727 -2.5010 0.9615
-9.1578 -2.4925 -2.5009 0.9615
-7.2030 -6.1741 -2.4998 0.9615
-6.6279 -6.7863 -2.4995 0.9615
-4.6113 -8.2857 -2.4986 0.9615
-1.4493 -9.3659 -2.4973 0.9616
1.0608 -9.4140 -2.4963 0.9616
1.8892 -9.2821 -2.4960 0.9616
2.7026 -9.0774 -2.4957 0.9616
5.6816 -7.5727 -2.4946 0.9616
7.9537 -5.1295 -2.4939 0.9616
8.7325 -3.6472 -2.4936 0.9616
9.2383 -2.0511 -2.4936 0.9616
9.4530 0.4471 -2.4937 0.9616
8.1809 3.4740 -2.3420 0.9639
7.4419 4.8622 -2.3424 0.9639
6.9833 5.5021 -2.3426 0.9639
-5.0319 0.0000 -1.4157 0.9793
-3.9308 -0.3491 -1.1103 0.9837
-3.7275 -0.6673 -1.0654 0.9844
-3.7897 -1.0314 -1.1050 0.9838
-8.0292 -3.8084 -2.5003 0.9637
-7.2312 -5.1630 -2.4999 0.9638
-4.9886 -7.3481 -2.4989 0.9638
-4.3185 -7.7596 -2.4986 0.9638
-3.6147 -8.1103 -2.4983 0.9638
-2.8827 -8.3972 -2.4979 0.9638
0.2097 -8.8712 -2.4967 0.9638
0.9935 -8.8168 -2.4964 0.9638
3.2730 -8.2436 -2.4955 0.9638
4.6736 -7.5362 -2.4950 0.9638
5.3215 -7.0925 -2.4948 0.9638
6.4871 -6.0428 -2.4944 0.9638
6.9958 -5.4449 -2.4942 0.9638
7.4496 -4.8044 -2.4941 0.9638
7.8451 -4.1263 -2.4940 0.9638
8.6528 -1.9211 -2.4938 0.9638
8.7825 1.2004 -2.4940 0.9638
7.6623 3.2538 -2.3422 0.9660
6.9701 4.5540 -2.3425 0.9660
6.5405 5.1532 -2.3428 0.9660
6.0596 5.7121 -2.3430 0.9660
-3.4913 -0.9502 -1.0832 0.9850
-7.5453 -3.5789 -2.5001 0.9657
-7.1986 -4.2321 -2.5000 0.9657
-5.8329 -5.9724 -2.4993 0.9657
-5.2812 -6.4643 -2.4990 0.9657
-3.3970 -7.6218 -2.4982 0.9658
-2.7091 -7.8915 -2.4979 0.9658
-2.0001 -8.0993 -2.4976 0.9658
-0.5413 -8.3230 -2.4970 0.9658
0.1971 -8.3372 -2.4967 0.9658
1.6629 -8.1702 -2.4961 0.9658
2.3789 -7.9902 -2.4959 0.9658
6.5751 -5.1174 -2.4944 0.9658
7.3734 -3.8783 -2.4942 0.9658
8.3236 -0.3441 -2.4941 0.9658
8.3216 0.3936 -2.4941 0.9658
8.2544 1.1282 -2.4942 0.9658
12.1881 2.7821 -3.7427 0.9491
11.8948 3.8496 -3.7429 0.9491
6.1471 4.8433 -2.3429 0.9679
5.1983 5.8519 -2.3433 0.9678
4.6608 6.2895 -2.3436 0.9678
-3.7562 0.0000 -1.1929 0.9844
-3.2540 -0.8857 -1.0710 0.9859
-7.3834 -2.7313 -2.5001 0.9675
-7.1124 -3.3736 -2.5000 0.9675
-4.9783 -6.0935 -2.4989 0.9675
-3.2022 -7.1848 -2.4982 0.9675
-0.5103 -7.8460 -2.4970 0.9675
1.5676 -7.7021 -2.4962 0.9676
2.8999 -7.3038 -2.4957 0.9676
3.5343 -7.0179 -2.4955 0.9676
4.1409 -6.6772 -2.4953 0.9676
4.7150 -6.2842 -2.4951 0.9676
5.7479 -5.3542 -2.4947 0.9676
6.1986 -4.8244 -2.4946 0.9676
7.4864 -2.3738 -2.4942 0.9676
7.6670 -1.7022 -2.4942 0.9676
7.7875 -1.0173 -2.4942 0.9676
7.8471 -0.3244 -2.4942 0.9676
7.8452 0.3711 -2.4943 0.9676
11.4903 2.6228 -3.7430 0.9517
11.2137 3.6292 -3.7432 0.9517
6.7892 2.8831 -2.3425 0.9695
6.5080 3.4726 -2.3427 0.9695
5.7950 4.5658 -2.3430 0.9695
-3.1350 -0.8533 -1.0916 0.9864
-6.7225 -3.1887 -2.4998 0.9691
-6.4137 -3.7706 -2.4997 0.9691
-6.0545 -4.3228 -2.4995 0.9691
-5.1970 -5.3213 -2.4991 0.9691
-4.7055 -5.7597 -2.4989 0.9691
-4.1771 -6.1528 -2.4986 0.9691
-3.0268 -6.7913 -2.4981 0.9691
-2.4139 -7.0317 -2.4978 0.9691
-1.1367 -7.3454 -2.4973 0.9691
0.1756 -7.4292 -2.4968 0.9691
2.7412 -6.9041 -2.4958 0.9691
4.9647 -5.5225 -2.4950 0.9692
5.4335 -5.0613 -2.4949 0.9692
5.8596 -4.5605 -2.4947 0.9692
6.2398 -4.0241 -2.4946 0.9692
6.5711 -3.4562 -2.4945 0.9692
7.2477 -1.6091 -2.4944 0.9692
7.2387 1.6523 -2.4946 0.9692
10.6004 3.4306 -3.7434 0.9541
5.8378 3.8142 -2.3429 0.9710
4.6324 5.2148 -2.3435 0.9710
4.1533 5.6046 -2.3437 0.9710
-3.0934 -0.2747 -1.1012 0.9869
-3.0230 -0.8228 -1.1109 0.9868
-3.0309 -1.1212 -1.1459 0.9864
-6.3695 -3.0212 -2.4997 0.9705
-6.0769 -3.5726 -2.4996 0.9705
-5.7366 -4.0959 -2.4994 0.9705
-4.9242 -5.0420 -2.4990 0.9705
-4.4585 -5.4573 -2.4988 0.9705
-3.9579 -5.8298 -2.4986 0.9705
-3.4263 -6.1565 -2.4983 0.9705
-2.8680 -6.4348 -2.4981 0.9705
-1.6887 -6.8382 -2.4976 0.9705
-1.0770 -6.9601 -2.4973 0.9706
-0.4571 -7.0273 -2.4971 0.9706
2.0087 -6.7468 -2.4961 0.9706
4.7045 -5.2330 -2.4951 0.9706
5.1487 -4.7960 -2.4950 0.9706
5.9127 -3.8132 -2.4948 0.9706
6.7061 -2.1264 -2.4946 0.9706
6.8679 -1.5248 -2.4945 0.9706
6.9758 -0.9112 -2.4945 0.9706
6.9707 0.9528 -2.4947 0.9706
10.0448 3.2508 -3.7436 0.9562
9.7183 4.1269 -3.7438 0.9562
5.8295 3.1105 -2.3429 0.9723
5.5318 3.6143 -2.3431 0.9723
5.1908 4.0897 -2.3432 0.9723
-3.3740 0.0000 -1.2599 0.9857
-2.9942 -0.2659 -1.1225 0.9872
-2.9459 -0.5274 -1.1175 0.9873
-2.9171 -0.7939 -1.1289 0.9872
-2.9227 -1.0812 -1.1636 0.9868
-6.0481 -2.8687 -2.4996 0.9718
-5.0814 -4.3555 -2.4991 0.9718
-4.2336 -5.1820 -2.4987 0.9718
-3.2535 -5.8461 -2.4983 0.9718
-2.7233 -6.1104 -2.4980 0.9718
-2.1719 -6.3267 -2.4978 0.9718
-1.6036 -6.4934 -2.4976 0.9718
0.1580 -6.6847 -2.4968 0.9719
0.7487 -6.6439 -2.4966 0.9719
1.3333 -6.5511 -2.4964 0.9719
2.4666 -6.2125 -2.4960 0.9719
3.5223 -5.6796 -2.4956 0.9719
5.2728 -4.1038 -2.4950 0.9719
5.6150 -3.6212 -2.4949 0.9719
5.9131 -3.1102 -2.4948 0.9719
6.1649 -2.5748 -2.4948 0.9719
6.5220 -1.4480 -2.4947 0.9719
6.6752 -0.2760 -2.4947 0.9719
6.6196 0.9048 -2.4948 0.9719
6.5139 1.4869 -2.4949 0.9719
9.2288 3.9190 -3.7440 0.9581
5.5358 2.9538 -2.3430 0.9736
5.2531 3.4322 -2.3431 0.9736
4.5667 4.3049 -2.3435 0.9736
-3.2641 0.0000 -1.2810 0.9861
-2.9008 -0.2576 -1.1429 0.9876
-5.7541 -2.7293 -2.4995 0.9730
-5.4898 -3.2275 -2.4994 0.9730
-5.1824 -3.7002 -2.4992 0.9730
-4.8345 -4.1439 -2.4990 0.9730
-3.5757 -5.2669 -2.4984 0.9730
-2.5911 -5.8135 -2.4980 0.9730
-0.4129 -6.3491 -2.4971 0.9730
1.2686 -6.2330 -2.4964 0.9730
1.8149 -6.0959 -2.4962 0.9730
3.8160 -5.0860 -2.4955 0.9730
5.0170 -3.9047 -2.4951 0.9731
5.8658 -2.4499 -2.4949 0.9731
6.0594 -1.9214 -2.4948 0.9731
6.3513 -0.2625 -2.4948 0.9731
6.3498 0.3003 -2.4949 0.9731
6.2985 0.8609 -2.4949 0.9731
8.7810 3.7289 -3.7442 0.9598
5.2672 2.8105 -2.3431 0.9747
3.9660 4.4646 -2.3437 0.9747
-3.1614 0.0000 -1.3018 0.9864
-2.7833 -0.4983 -1.1643 0.9878
-3.8389 -4.6989 -2.4986 0.9741
-2.9502 -5.3011 -2.4982 0.9741
-1.9695 -5.7371 -2.4978 0.9741
-0.3936 -6.0514 -2.4971 0.9741
0.6789 -6.0250 -2.4967 0.9741
1.2092 -5.9408 -2.4965 0.9741
1.7298 -5.8101 -2.4963 0.9741
3.1943 -5.1508 -2.4957 0.9741
3.6372 -4.8477 -2.4956 0.9741
4.0515 -4.5067 -2.4955 0.9741
4.7819 -3.7218 -2.4952 0.9741
5.3626 -2.8206 -2.4951 0.9741
5.9149 -1.3132 -2.4949 0.9741
6.0034 0.8206 -2.4951 0.9741
8.0228 4.2808 -3.7445 0.9614
4.4703 3.5221 -2.3435 0.9757
4.1414 3.9040 -2.3436 0.9757
3.3891 4.5734 -2.3440 0.9757
-2.7541 -0.2446 -1.1927 0.9880
-2.7279 -0.4884 -1.1954 0.9880
-2.7094 -0.7374 -1.2112 0.9878
-2.7207 -1.0065 -1.2513 0.9874
-4.7149 -3.3664 -2.4990 0.9751
-4.3984 -3.7701 -2.4989 0.9751
-4.0473 -4.1441 -2.4987 0.9751
-3.6646 -4.4856 -2.4985 0.9751
-2.8163 -5.0605 -2.4982 0.9751
-2.3574 -5.2893 -2.4980 0.9751
-1.8801 -5.4767 -2.4977 0.9751
1.1543 -5.6713 -2.4965 0.9751
2.6026 -5.1680 -2.4960 0.9751
3.0494 -4.9171 -2.4958 0.9751
4.5651 -3.5530 -2.4953 0.9751
4.8613 -3.1352 -2.4952 0.9751
5.1195 -2.6927 -2.4952 0.9751
5.3375 -2.2292 -2.4951 0.9751
5.7793 -0.2389 -2.4951 0.9751
5.7312 0.7834 -2.4952 0.9751
5.5038 1.7812 -2.4953 0.9751
7.6589 4.0867 -3.7446 0.9629
4.5479 2.9715 -2.3434 0.9766
3.6086 4.0623 -2.3439 0.9766
3.2354 4.3660 -2.3440 0.9766
-2.6740 -0.4787 -1.2257 0.9881
-2.6551 -0.7226 -1.2416 0.9880
-2.6674 -1.2652 -1.3321 0.9871
-2.6895 -1.5811 -1.4077 0.9864
-4.5073 -3.2182 -2.4990 0.9760
-2.2536 -5.0565 -2.4979 0.9760
-1.7973 -5.2356 -2.4977 0.9760
-1.3270 -5.3737 -2.4975 0.9760
-0.8464 -5.4696 -2.4973 0.9760
0.1308 -5.5322 -2.4969 0.9760
1.1035 -5.4218 -2.4966 0.9760
2.4881 -4.9406 -2.4960 0.9760
3.6977 -4.1131 -2.4956 0.9760
4.0469 -3.7697 -2.4955 0.9760
4.3643 -3.3968 -2.4954 0.9760
4.6475 -2.9973 -2.4953 0.9760
5.5252 -0.2284 -2.4952 0.9760
5.5238 0.2612 -2.4952 0.9760
5.4791 0.7489 -2.4953 0.9760
5.3916 1.2307 -2.4953 0.9760
5.2617 1.7029 -2.4954 0.9760
7.3221 3.9070 -3.7448 0.9642
4.0798 3.2145 -2.3436 0.9775
3.7797 3.5630 -2.3437 0.9775
3.0930 4.1739 -2.3441 0.9775
-2.6214 -0.4693 -1.2553 0.9883
-2.6021 -0.7082 -1.2712 0.9881
-2.6060 -1.2361 -1.3596 0.9873
-2.6749 -1.5726 -1.4626 0.9864
-4.3144 -3.0805 -2.4989 0.9768
-4.0248 -3.4498 -2.4988 0.9768
-3.7036 -3.7921 -2.4986 0.9768
-3.3534 -4.1046 -2.4984 0.9768
-2.9769 -4.3849 -2.4983 0.9768
-2.1572 -4.8402 -2.4979 0.9768
-1.7205 -5.0117 -2.4977 0.9768
-0.8102 -5.2356 -2.4973 0.9768
-0.3438 -5.2864 -2.4971 0.9768
0.1252 -5.2957 -2.4970 0.9768
3.5397 -3.9373 -2.4957 0.9769
3.8739 -3.6086 -2.4956 0.9769
4.1778 -3.2516 -2.4955 0.9769
4.8847 -2.0401 -2.4953 0.9769
5.2891 -0.2186 -2.4953 0.9769
5.1612 1.1781 -2.4954 0.9769
4.8731 2.0694 -2.4956 0.9769
3.9054 3.0771 -2.3437 0.9783
3.6181 3.4107 -2.3438 0.9783
3.3024 3.7176 -2.3439 0.9783
-2.5700 -0.4601 -1.2842 0.9884
-2.5504 -0.6941 -1.3001 0.9883
-2.5465 -1.2079 -1.3863 0.9875
-3.8571 -3.3061 -2.4987 0.9776
-2.8529 -4.2023 -2.4982 0.9776
-1.2174 -4.9297 -2.4975 0.9776
-0.7765 -5.0177 -2.4973 0.9776
0.1200 -5.0752 -2.4970 0.9776
0.5684 -5.0444 -2.4968 0.9776
1.4483 -4.8646 -2.4965 0.9776
1.8729 -4.7171 -2.4963 0.9776
2.2827 -4.5327 -2.4962 0.9776
3.0454 -4.0590 -2.4959 0.9776
3.7127 -3.4585 -2.4957 0.9776
4.0040 -3.1163 -2.4956 0.9776
4.2638 -2.7498 -2.4955 0.9776
4.4903 -2.3618 -2.4954 0.9776
4.9527 -1.0996 -2.4953 0.9776
5.0678 0.2397 -2.4954 0.9776
4.9464 1.1291 -2.4955 0.9776
3.1650 3.5629 -2.3440 0.9790
-2.5372 -0.2254 -1.3058 0.9886
-2.5202 -0.4512 -1.3126 0.9886
-2.4999 -0.6804 -1.3282 0.9884
-2.4883 -1.1803 -1.4119 0.9877
-3.0832 -3.7739 -2.4984 0.9783
-2.3695 -4.2576 -2.4980 0.9783
-1.9834 -4.4502 -2.4979 0.9783
-1.1680 -4.7295 -2.4975 0.9783
-0.7449 -4.8139 -2.4973 0.9783
-0.3161 -4.8606 -2.4972 0.9783
0.5453 -4.8396 -2.4968 0.9783
0.9713 -4.7721 -2.4967 0.9783
1.3895 -4.6672 -2.4965 0.9783
2.1900 -4.3487 -2.4962 0.9784
2.5660 -4.1377 -2.4961 0.9784
2.9218 -3.8943 -2.4959 0.9784
3.8415 -2.9899 -2.4956 0.9784
4.4916 -1.8760 -2.4955 0.9784
4.6399 -1.4712 -2.4954 0.9784
4.8265 -0.6305 -2.4954 0.9784
4.8634 -0.2011 -2.4954 0.9784
4.8622 0.2300 -2.4955 0.9784
4.8229 0.6592 -2.4955 0.9784
4.7458 1.0833 -2.4956 0.9784
4.6315 1.4989 -2.4957 0.9784
4.4809 1.9028 -2.4957 0.9784
6.1157 3.9958 -3.7452 0.9677
-2.6713 0.0000 -1.4261 0.9880
-2.4720 -0.4426 -1.3406 0.9887
-2.4505 -0.6670 -1.3558 0.9886
-2.4290 -1.1521 -1.4352 0.9879
-3.8093 -2.7198 -2.4987 0.9790
-3.5536 -3.0460 -2.4986 0.9790
-3.2700 -3.3482 -2.4985 0.9790
-2.9608 -3.6242 -2.4983 0.9790
-2.2755 -4.0887 -2.4980 0.9790
-1.9048 -4.2737 -2.4978 0.9790
-1.5191 -4.4252 -2.4977 0.9790
-1.1216 -4.5419 -2.4975 0.9790
0.5237 -4.6477 -2.4969 0.9790
0.9328 -4.5829 -2.4967 0.9790
1.3344 -4.4821 -2.4965 0.9790
2.1032 -4.1763 -2.4963 0.9790
2.4643 -3.9737 -2.4961 0.9790
2.8060 -3.7399 -2.4960 0.9790
3.1257 -3.4769 -2.4959 0.9790
3.4209 -3.1866 -2.4958 0.9790
3.6893 -2.8714 -2.4957 0.9790
3.9287 -2.5337 -2.4956 0.9790
4.3136 -1.8016 -2.4955 0.9790
4.4560 -1.4129 -2.4955 0.9790
4.5635 -1.0132 -2.4955 0.9790
4.6352 -0.6055 -2.4955 0.9790
4.6695 0.2209 -2.4955 0.9790
4.5577 1.0404 -2.4957 0.9790
4.4479 1.4395 -2.4957 0.9790
5.5111 4.3421 -3.7455 0.9687
-2.5975 0.0000 -1.4427 0.9882
-2.4247 -0.4341 -1.3681 0.9888
-2.3212 -1.3646 -1.4955 0.9878
-3.1431 -3.2182 -2.4984 0.9796
-2.8459 -3.4835 -2.4983 0.9796
-2.5264 -3.7214 -2.4981 0.9796
-2.1872 -3.9300 -2.4980 0.9796
-1.8308 -4.1079 -2.4978 0.9796
-1.0781 -4.3656 -2.4975 0.9796
-0.6876 -4.4436 -2.4973 0.9796
-0.2918 -4.4867 -2.4972 0.9796
0.8966 -4.4051 -2.4967 0.9796
1.6587 -4.1776 -2.4964 0.9796
2.3687 -3.8196 -2.4962 0.9796
3.9769 -2.0918 -2.4957 0.9796
4.1463 -1.7317 -2.4956 0.9797
4.3865 -0.9739 -2.4956 0.9797
4.4555 -0.5820 -2.4956 0.9797
4.4521 0.6086 -2.4957 0.9796
4.2754 1.3837 -2.4958 0.9796
3.9649 2.1156 -2.4960 0.9796
5.6455 3.6885 -3.7454 0.9696
5.2973 4.1737 -3.7456 0.9696
4.4793 5.0425 -3.7460 0.9696
2.5130 3.3912 -2.3442 0.9809
-2.3784 -0.4258 -1.3950 0.9889
-2.3208 -1.1008 -1.4830 0.9882
-2.1555 -1.5390 -1.5291 0.9878
-3.2857 -2.8163 -2.4985 0.9802
-2.4303 -3.5798 -2.4981 0.9802
0.1022 -4.3238 -2.4970 0.9802
0.4843 -4.2975 -2.4969 0.9802
0.8625 -4.2376 -2.4967 0.9802
1.2339 -4.1445 -2.4966 0.9802
1.5956 -4.0188 -2.4965 0.9802
2.2787 -3.6744 -2.4962 0.9802
2.5947 -3.4582 -2.4961 0.9802
2.8903 -3.2150 -2.4960 0.9802
3.4114 -2.6551 -2.4958 0.9802
3.6329 -2.3429 -2.4958 0.9802
3.8258 -2.0123 -2.4957 0.9802
3.9887 -1.6659 -2.4957 0.9802
4.2198 -0.9369 -2.4956 0.9802
4.3189 -0.1786 -2.4957 0.9802
4.3178 0.2042 -2.4957 0.9802
4.2829 0.5854 -2.4957 0.9802
3.9792 1.6898 -2.4959 0.9802
3.6194 2.3648 -2.4961 0.9802
3.8633 5.2132 -3.7462 0.9705
